<?xml version="1.0" encoding="UTF-8" standalone="no"?>
<svg
   width="43.740063mm"
   height="42.314636mm"
   viewBox="0 0 43.740063 42.314636"
   version="1.1"
   id="svg1389"
   xmlns="http://www.w3.org/2000/svg"
   xmlns:svg="http://www.w3.org/2000/svg"
   xmlns:rdf="http://www.w3.org/1999/02/22-rdf-syntax-ns#"
   xmlns:cc="http://creativecommons.org/ns#"
   xmlns:dc="http://purl.org/dc/elements/1.1/">
  <defs
     id="defs1383" />
  <metadata
     id="metadata1386">
    <rdf:RDF>
      <cc:Work
         rdf:about="">
        <dc:format>image/svg+xml</dc:format>
        <dc:type
           rdf:resource="http://purl.org/dc/dcmitype/StillImage" />
      </cc:Work>
    </rdf:RDF>
  </metadata>
  <g
     transform="translate(-54.811066,-134.59041)"
     id="layer1">
    <g
       id="g2275">
      <path
         style="fill:#949999;fill-opacity:1;stroke:#000000;stroke-width:0.264583px;stroke-linecap:butt;stroke-linejoin:miter;stroke-opacity:1"
         d="m 61.26356,163.7983 10.94132,-11.61947 10.984017,9.87875 -14.646636,3.22462 -7.278701,-1.4839"
         id="path2178" />
      <path
         style="fill:#b4baba;fill-opacity:1;stroke:#313131;stroke-width:0.3;stroke-linecap:round;stroke-linejoin:round;stroke-miterlimit:4;stroke-dasharray:none;stroke-opacity:1"
         d="M 72.20488,152.17883 87.056788,141.7735 82.22959,159.08997 Z"
         id="path1986" />
    </g>
    <rect
       style="fill:#287528;fill-opacity:1;stroke:#332d00;stroke-width:0.324034;stroke-miterlimit:4;stroke-dasharray:none;stroke-opacity:1"
       id="rect1992"
       width="10.004279"
       height="10.596682"
       x="47.057472"
       y="149.40794"
       transform="rotate(-10.037912)" />
    <g
       aria-label="D"
       transform="rotate(-10.146595)"
       id="text2123"
       style="font-size:10.5833px;line-height:1.25;font-family:'DejaVu Sans Mono';-inkscape-font-specification:'DejaVu Sans Mono';letter-spacing:6.61458px;fill:#ffffff;stroke-width:0.264583">
      <path
         d="m 49.713609,151.19478 h 1.436601 q 1.431432,0 2.294426,0.97668 0.862994,0.97151 0.862994,2.67166 0,1.73632 -0.878497,2.69233 -0.873329,0.95085 -2.24275,0.95085 h -1.472774 z m 0.847491,6.55255 h 0.599445 q 1.038693,0 1.643305,-0.76998 0.604613,-0.76998 0.604613,-2.13423 0,-1.35392 -0.60978,-2.12906 -0.604613,-0.78031 -1.638138,-0.78031 H 50.5611 Z"
         id="path1276" />
    </g>
    <rect
       transform="rotate(6.0965961)"
       y="142.34679"
       x="75.697556"
       height="10.949815"
       width="10.33767"
       id="rect1992-2"
       style="fill:#287528;fill-opacity:1;stroke:#332d00;stroke-width:0.334833;stroke-miterlimit:4;stroke-dasharray:none;stroke-opacity:1" />
    <g
       aria-label="Å"
       transform="rotate(7.6883937)"
       id="text2127"
       style="font-size:10.5833px;line-height:1.25;font-family:'DejaVu Sans Mono';-inkscape-font-specification:'DejaVu Sans Mono';letter-spacing:6.61458px;fill:#ffffff;stroke-width:0.264583">
      <path
         d="m 86.993875,149.14369 h -3.968738 v -2.74918 l -0.527098,0.3359 -0.372069,-0.5581 0.899167,-0.58395 v -3.73619 h 0.847491 v 3.18326 l 1.4366,-0.93017 0.372069,0.56327 -1.808669,1.17305 v 2.56314 h 3.121247 z"
         id="path1255" />
    </g>
    <g
       id="g2265">
      <path
         id="path1988-0"
         d="m 67.016118,144.95598 c 0,0 4.851801,11.07502 6.492417,15.00215 l 5.51147,-2.99073 -5.327013,-5.77071 z"
         style="fill:#d0d5d3;fill-opacity:1;stroke:none;stroke-width:0.4;stroke-linecap:round;stroke-linejoin:bevel;stroke-miterlimit:4;stroke-dasharray:none;stroke-opacity:1" />
      <path
         style="fill:#f0f8f5;fill-opacity:1;stroke:#000000;stroke-width:0.2;stroke-linecap:round;stroke-linejoin:round;stroke-miterlimit:4;stroke-dasharray:none;stroke-opacity:1"
         d="m 78.982635,157.15877 3.363664,-5.62446 -15.234004,-6.6277 8.475071,8.74768 z"
         id="path1988" />
      <path
         style="fill:#858585;fill-opacity:1;stroke:#000000;stroke-width:0.2;stroke-linecap:butt;stroke-linejoin:miter;stroke-miterlimit:4;stroke-dasharray:none;stroke-opacity:1"
         d="m 77.561978,156.44808 3.010561,3.75449 -2.125708,-4.50157 -9.372314,-8.80838 z"
         id="path1990" />
      <path
         style="fill:none;stroke:#000000;stroke-width:0.265;stroke-linecap:round;stroke-linejoin:round;stroke-miterlimit:4;stroke-dasharray:none;stroke-opacity:1"
         d="m 73.425047,160.07802 -6.408048,-15.25558 15.928861,6.96822 -3.142015,7.08999 z"
         id="path2174" />
    </g>
    <rect
       style="fill:#287528;fill-opacity:1;stroke:#332d00;stroke-width:0.326201;stroke-miterlimit:4;stroke-dasharray:none;stroke-opacity:1"
       id="rect1992-2-9"
       width="10.071169"
       height="10.667533"
       x="98.934669"
       y="141.04265"
       transform="rotate(5.2776396)" />
    <g
       aria-label="Z"
       transform="rotate(5.8477067)"
       id="text2131"
       style="font-size:10.5833px;line-height:1.25;font-family:'DejaVu Sans Mono';-inkscape-font-specification:'DejaVu Sans Mono';letter-spacing:6.61458px;fill:#ffffff;stroke-width:0.264583">
      <path
         d="m 107.35542,142.48826 -3.46748,5.94794 h 3.40547 v 0.73897 h -4.37182 v -0.59428 l 3.45198,-5.95827 h -3.30211 v -0.73897 h 4.28396 z"
         id="path1192" />
    </g>
    <g
       id="g2271">
      <path
         style="fill:#d0d5d3;fill-opacity:1;stroke:none;stroke-width:0.3;stroke-linecap:round;stroke-linejoin:round;stroke-miterlimit:4;stroke-dasharray:none;stroke-opacity:1"
         d="m 77.698568,155.69158 -16.435008,8.10672 7.278701,1.4839 14.548042,-3.22214"
         id="path1983" />
      <path
         style="fill:#f0f8f5;fill-opacity:1;stroke:#000000;stroke-width:0.3;stroke-linecap:round;stroke-linejoin:round;stroke-miterlimit:4;stroke-dasharray:none;stroke-opacity:1"
         d="m 86.886393,151.46961 0.25202,-9.76179 -9.534838,14.00306 5.585323,6.3467 z"
         id="path2157" />
    </g>
    <path
       id="path2176"
       d="m 61.26356,163.7983 16.340015,-8.08742 9.534837,-14.00306 -0.25202,9.76179 -3.697495,10.58797 -14.646636,3.22462 z"
       style="fill:none;stroke:#000000;stroke-width:0.264583px;stroke-linecap:round;stroke-linejoin:round;stroke-opacity:1" />
    <rect
       style="fill:#287528;fill-opacity:1;stroke:#332d00;stroke-width:0.31896;stroke-miterlimit:4;stroke-dasharray:none;stroke-opacity:1"
       id="rect1992-2-9-3-9"
       width="9.8476248"
       height="10.430751"
       x="73.31321"
       y="164.18512"
       transform="rotate(-0.2096375)" />
    <g
       aria-label="H"
       transform="rotate(0.32458539)"
       id="text2135"
       style="font-size:10.5833px;line-height:1.25;font-family:'DejaVu Sans Mono';-inkscape-font-specification:'DejaVu Sans Mono';letter-spacing:6.61458px;fill:#ffffff;stroke-width:0.264583">
      <path
         d="m 81.850706,172.61911 h -0.84749 v -3.61734 h -2.495964 v 3.61734 h -0.847491 v -7.29152 h 0.847491 v 2.93004 h 2.495964 v -2.93004 h 0.84749 z"
         id="path1234" />
    </g>
    <rect
       transform="rotate(0.00787783)"
       y="163.814"
       x="84.892479"
       height="10.434145"
       width="9.8508272"
       id="rect1992-2-9-3"
       style="fill:#287528;fill-opacity:1;stroke:#332d00;stroke-width:0.319065;stroke-miterlimit:4;stroke-dasharray:none;stroke-opacity:1" />
    <g
       aria-label="S"
       id="text2139"
       style="font-size:10.5833px;line-height:1.25;font-family:'DejaVu Sans Mono';-inkscape-font-specification:'DejaVu Sans Mono';letter-spacing:6.61458px;fill:#ffffff;stroke-width:0.264583">
      <path
         d="m 91.114998,166.33555 q -0.651121,-0.22221 -1.235063,-0.22221 -0.661456,0 -1.080034,0.30489 -0.41341,0.29973 -0.41341,0.85783 0,0.66146 1.090369,1.16272 0.80615,0.37206 1.064531,0.51676 0.263549,0.14469 0.532266,0.39791 0.268717,0.25321 0.428913,0.59944 0.165364,0.34106 0.165364,0.76998 0,1.06453 -0.7183,1.65364 -0.713132,0.58394 -1.684646,0.58394 -0.940508,0 -1.648473,-0.37207 l 0.175699,-0.72864 q 0.831988,0.37724 1.452103,0.37724 0.723468,0 1.157549,-0.37207 0.439248,-0.37723 0.439248,-1.03352 0,-0.48576 -0.28422,-0.82166 -0.284219,-0.34106 -1.049028,-0.69246 -0.785479,-0.36173 -1.018022,-0.49092 -0.227376,-0.13436 -0.454751,-0.3669 -0.227376,-0.23255 -0.351399,-0.52193 -0.124023,-0.28939 -0.124023,-0.63045 0,-0.90434 0.651121,-1.41077 0.651121,-0.50642 1.648473,-0.50642 0.728635,0 1.446935,0.2222 z"
         id="path1213" />
    </g>
  </g>
</svg>
