<?xml version="1.0" encoding="UTF-8" standalone="no"?>
<svg
   width="43.740063mm"
   height="42.314636mm"
   viewBox="0 0 43.740063 42.314636"
   version="1.1"
   id="svg1389"
   sodipodi:docname="dla-jasnego-tla.svg"
   inkscape:export-filename="/home/q3k/hsldz4.png"
   inkscape:export-xdpi="192.2128"
   inkscape:export-ydpi="192.2128"
   inkscape:version="1.4 (e7c3feb100, 2024-10-09)"
   xmlns:inkscape="http://www.inkscape.org/namespaces/inkscape"
   xmlns:sodipodi="http://sodipodi.sourceforge.net/DTD/sodipodi-0.dtd"
   xmlns="http://www.w3.org/2000/svg"
   xmlns:svg="http://www.w3.org/2000/svg"
   xmlns:rdf="http://www.w3.org/1999/02/22-rdf-syntax-ns#"
   xmlns:cc="http://creativecommons.org/ns#"
   xmlns:dc="http://purl.org/dc/elements/1.1/">
  <defs
     id="defs1383" />
  <sodipodi:namedview
     inkscape:snap-bbox="true"
     showguides="false"
     inkscape:window-maximized="1"
     inkscape:window-y="9"
     inkscape:window-x="9"
     inkscape:window-height="1028"
     inkscape:window-width="1900"
     fit-margin-bottom="0"
     fit-margin-right="0"
     fit-margin-left="0"
     fit-margin-top="0"
     inkscape:snap-global="true"
     showgrid="false"
     inkscape:document-rotation="0"
     inkscape:current-layer="layer1"
     inkscape:document-units="mm"
     inkscape:cy="85.089286"
     inkscape:cx="114.19643"
     inkscape:zoom="5.6"
     inkscape:pageshadow="2"
     inkscape:pageopacity="0.0"
     borderopacity="1.0"
     bordercolor="#666666"
     pagecolor="#ffffff"
     id="base"
     inkscape:showpageshadow="0"
     inkscape:pagecheckerboard="0"
     inkscape:deskcolor="#505050" />
  <metadata
     id="metadata1386">
    <rdf:RDF>
      <cc:Work
         rdf:about="">
        <dc:format>image/svg+xml</dc:format>
        <dc:type
           rdf:resource="http://purl.org/dc/dcmitype/StillImage" />
      </cc:Work>
    </rdf:RDF>
  </metadata>
  <g
     transform="translate(-54.811066,-134.59041)"
     id="layer1"
     inkscape:groupmode="layer"
     inkscape:label="Layer 1">
    <rect
       y="134.59041"
       x="54.811066"
       height="42.314636"
       width="43.740063"
       id="rect2084"
       style="fill:#ffffff;fill-opacity:1;stroke:none;stroke-width:0.4;stroke-miterlimit:4;stroke-dasharray:none;stroke-opacity:1" />
    <g
       id="g2275">
      <path
         style="fill:#949999;fill-opacity:1;stroke:#000000;stroke-width:0.264583px;stroke-linecap:butt;stroke-linejoin:miter;stroke-opacity:1"
         d="m 61.26356,163.7983 10.94132,-11.61947 10.984017,9.87875 -14.646636,3.22462 -7.278701,-1.4839"
         id="path2178" />
      <path
         style="fill:#b4baba;fill-opacity:1;stroke:#313131;stroke-width:0.3;stroke-linecap:round;stroke-linejoin:round;stroke-miterlimit:4;stroke-dasharray:none;stroke-opacity:1"
         d="M 72.20488,152.17883 87.056788,141.7735 82.22959,159.08997 Z"
         id="path1986"
         sodipodi:nodetypes="cccc" />
    </g>
    <rect
       style="fill:#ffee9b;fill-opacity:1;stroke:#332d00;stroke-width:0.324034;stroke-miterlimit:4;stroke-dasharray:none;stroke-opacity:1"
       id="rect1992"
       width="10.004279"
       height="10.596682"
       x="47.057472"
       y="149.40794"
       transform="rotate(-10.037912)" />
    <path
       d="m 50.886661,157.62847 q 1.317745,0 1.839675,-0.64595 0.52193,-0.65112 0.52193,-2.3461 0,-1.71049 -0.52193,-2.35644 -0.516763,-0.65112 -1.839675,-0.65112 h -0.496092 v 5.99961 z m 0.02067,-6.85744 q 1.767329,0 2.604484,0.94051 0.837156,0.94051 0.837156,2.92488 0,1.97403 -0.837156,2.91454 -0.837155,0.93534 -2.604484,0.93534 H 49.34154 v -7.71527 z"
       id="text2123"
       style="font-size:10.5833px;line-height:1.25;font-family:'DejaVu Sans Mono';-inkscape-font-specification:'DejaVu Sans Mono';letter-spacing:6.61458px;stroke-width:0.264583"
       transform="rotate(-10.146595)"
       aria-label="D" />
    <rect
       transform="rotate(6.0965961)"
       y="142.34679"
       x="75.697556"
       height="10.949815"
       width="10.33767"
       id="rect1992-2"
       style="fill:#ffee9b;fill-opacity:1;stroke:#332d00;stroke-width:0.334833;stroke-miterlimit:4;stroke-dasharray:none;stroke-opacity:1" />
    <path
       d="m 82.813264,141.42843 h 1.049029 v 3.18325 l 1.627802,-1.13171 0.403075,0.57361 -2.030877,1.41593 v 2.79569 h 3.725859 v 0.87849 h -4.774888 v -2.95071 l -0.749305,0.54777 -0.413411,-0.56844 1.162716,-0.81649 z"
       id="text2127"
       style="font-size:10.5833px;line-height:1.25;font-family:'DejaVu Sans Mono';-inkscape-font-specification:'DejaVu Sans Mono';letter-spacing:6.61458px;stroke-width:0.264583"
       transform="rotate(7.6883937)"
       aria-label="Å" />
    <g
       id="g2265">
      <path
         sodipodi:nodetypes="ccccc"
         id="path1988-0"
         d="m 67.016118,144.95598 c 0,0 4.851801,11.07502 6.492417,15.00215 l 5.51147,-2.99073 -5.327013,-5.77071 z"
         style="fill:#d0d5d3;fill-opacity:1;stroke:none;stroke-width:0.4;stroke-linecap:round;stroke-linejoin:bevel;stroke-miterlimit:4;stroke-dasharray:none;stroke-opacity:1" />
      <path
         style="fill:#f0f8f5;fill-opacity:1;stroke:#000000;stroke-width:0.2;stroke-linecap:round;stroke-linejoin:round;stroke-miterlimit:4;stroke-dasharray:none;stroke-opacity:1"
         d="m 78.982635,157.15877 3.363664,-5.62446 -15.234004,-6.6277 8.475071,8.74768 z"
         id="path1988"
         sodipodi:nodetypes="ccccc" />
      <path
         style="fill:#858585;fill-opacity:1;stroke:#000000;stroke-width:0.2;stroke-linecap:butt;stroke-linejoin:miter;stroke-miterlimit:4;stroke-dasharray:none;stroke-opacity:1"
         d="m 77.561978,156.44808 3.010561,3.75449 -2.125708,-4.50157 -9.372314,-8.80838 z"
         id="path1990"
         sodipodi:nodetypes="ccccc" />
      <path
         style="fill:none;stroke:#000000;stroke-width:0.265;stroke-linecap:round;stroke-linejoin:round;stroke-miterlimit:4;stroke-dasharray:none;stroke-opacity:1"
         d="m 73.425047,160.07802 -6.408048,-15.25558 15.928861,6.96822 -3.142015,7.08999 z"
         id="path2174" />
    </g>
    <rect
       style="fill:#ffee9b;fill-opacity:1;stroke:#332d00;stroke-width:0.326201;stroke-miterlimit:4;stroke-dasharray:none;stroke-opacity:1"
       id="rect1992-2-9"
       width="10.071169"
       height="10.667533"
       x="98.934669"
       y="141.04265"
       transform="rotate(5.2776396)" />
    <path
       d="m 102.90092,141.4599 h 5.00743 v 0.79582 l -4.03074,6.04095 h 4.14443 v 0.8785 h -5.2348 v -0.79581 l 3.92223,-6.04096 h -3.80855 z"
       id="text2131"
       style="font-size:10.5833px;line-height:1.25;font-family:'DejaVu Sans Mono';-inkscape-font-specification:'DejaVu Sans Mono';letter-spacing:6.61458px;stroke-width:0.264583"
       transform="rotate(5.8477067)"
       aria-label="Z" />
    <g
       id="g2271">
      <path
         style="fill:#d0d5d3;fill-opacity:1;stroke:none;stroke-width:0.3;stroke-linecap:round;stroke-linejoin:round;stroke-miterlimit:4;stroke-dasharray:none;stroke-opacity:1"
         d="m 77.698568,155.69158 -16.435008,8.10672 7.278701,1.4839 14.548042,-3.22214"
         id="path1983"
         sodipodi:nodetypes="cccc" />
      <path
         style="fill:#f0f8f5;fill-opacity:1;stroke:#000000;stroke-width:0.3;stroke-linecap:round;stroke-linejoin:round;stroke-miterlimit:4;stroke-dasharray:none;stroke-opacity:1"
         d="m 86.886393,151.46961 0.25202,-9.76179 -9.534838,14.00306 5.585323,6.3467 z"
         id="path2157"
         sodipodi:nodetypes="ccccc" />
    </g>
    <path
       id="path2176"
       d="m 61.26356,163.7983 16.340015,-8.08742 9.534837,-14.00306 -0.25202,9.76179 -3.697495,10.58797 -14.646636,3.22462 z"
       style="fill:none;stroke:#000000;stroke-width:0.264583px;stroke-linecap:round;stroke-linejoin:round;stroke-opacity:1" />
    <rect
       style="fill:#ffee9b;fill-opacity:1;stroke:#332d00;stroke-width:0.31896;stroke-miterlimit:4;stroke-dasharray:none;stroke-opacity:1"
       id="rect1992-2-9-3-9"
       width="9.8476248"
       height="10.430751"
       x="73.31321"
       y="164.18512"
       transform="rotate(-0.2096375)" />
    <path
       d="m 77.287692,164.90384 h 1.049028 v 3.16259 h 2.857698 v -3.16259 h 1.049028 v 7.71527 h -1.049028 v -3.67418 H 78.33672 v 3.67418 h -1.049028 z"
       id="text2135"
       style="font-size:10.5833px;line-height:1.25;font-family:'DejaVu Sans Mono';-inkscape-font-specification:'DejaVu Sans Mono';letter-spacing:6.61458px;fill:#2e2e2e;stroke-width:0.264583"
       transform="rotate(0.32458539)"
       aria-label="H" />
    <rect
       transform="rotate(0.00787783)"
       y="163.814"
       x="84.892479"
       height="10.434145"
       width="9.8508272"
       id="rect1992-2-9-3"
       style="fill:#ffee9b;fill-opacity:1;stroke:#332d00;stroke-width:0.319065;stroke-miterlimit:4;stroke-dasharray:none;stroke-opacity:1" />
    <path
       d="m 91.616258,165.36921 v 1.05936 q -0.475422,-0.30489 -0.956011,-0.45992 -0.475422,-0.15503 -0.961179,-0.15503 -0.73897,0 -1.167883,0.34623 -0.428913,0.34107 -0.428913,0.92501 0,0.51159 0.279052,0.78031 0.284219,0.26872 1.054195,0.44958 l 0.547769,0.12403 q 1.085201,0.25321 1.581294,0.79581 0.496092,0.5426 0.496092,1.47794 0,1.10071 -0.682127,1.67948 -0.682127,0.57877 -1.984369,0.57877 -0.5426,0 -1.090369,-0.11885 -0.547768,-0.11369 -1.100704,-0.34623 v -1.11104 q 0.594277,0.37723 1.121375,0.55293 0.532265,0.1757 1.069698,0.1757 0.790647,0 1.229896,-0.3514 0.439248,-0.35656 0.439248,-0.99218 0,-0.57877 -0.30489,-0.88366 -0.299723,-0.30489 -1.049028,-0.47026 L 89.1513,169.2966 q -1.074866,-0.24288 -1.560623,-0.7338 -0.485757,-0.49093 -0.485757,-1.31775 0,-1.03352 0.692462,-1.65364 0.697629,-0.62528 1.85001,-0.62528 0.444416,0 0.935341,0.10335 0.490924,0.0982 1.033525,0.29973 z"
       id="text2139"
       style="font-size:10.5833px;line-height:1.25;font-family:'DejaVu Sans Mono';-inkscape-font-specification:'DejaVu Sans Mono';letter-spacing:6.61458px;fill:#2e2e2e;stroke-width:0.264583"
       aria-label="S" />
  </g>
</svg>
