<?xml version="1.0" encoding="UTF-8" standalone="no"?>
<svg
   width="43.740063mm"
   height="42.314636mm"
   viewBox="0 0 43.740063 42.314636"
   version="1.1"
   id="svg1389"
   sodipodi:docname="logo_monochrome.svg"
   inkscape:version="1.2.2 (b0a8486541, 2022-12-01)"
   xmlns:inkscape="http://www.inkscape.org/namespaces/inkscape"
   xmlns:sodipodi="http://sodipodi.sourceforge.net/DTD/sodipodi-0.dtd"
   xmlns="http://www.w3.org/2000/svg"
   xmlns:svg="http://www.w3.org/2000/svg"
   xmlns:rdf="http://www.w3.org/1999/02/22-rdf-syntax-ns#"
   xmlns:cc="http://creativecommons.org/ns#"
   xmlns:dc="http://purl.org/dc/elements/1.1/">
  <sodipodi:namedview
     id="namedview33"
     pagecolor="#505050"
     bordercolor="#eeeeee"
     borderopacity="1"
     inkscape:showpageshadow="0"
     inkscape:pageopacity="0"
     inkscape:pagecheckerboard="0"
     inkscape:deskcolor="#505050"
     inkscape:document-units="mm"
     showgrid="false"
     inkscape:zoom="10.892311"
     inkscape:cx="33.096742"
     inkscape:cy="36.585442"
     inkscape:window-width="1900"
     inkscape:window-height="1028"
     inkscape:window-x="9"
     inkscape:window-y="9"
     inkscape:window-maximized="1"
     inkscape:current-layer="svg1389" />
  <defs
     id="defs1383" />
  <metadata
     id="metadata1386">
    <rdf:RDF>
      <cc:Work
         rdf:about="">
        <dc:format>image/svg+xml</dc:format>
        <dc:type
           rdf:resource="http://purl.org/dc/dcmitype/StillImage" />
      </cc:Work>
    </rdf:RDF>
  </metadata>
  <path
     id="path2178"
     style="fill:none;fill-opacity:1;stroke:#ffffff;stroke-width:0.264583px;stroke-linecap:butt;stroke-linejoin:round;stroke-opacity:1"
     d="m 15.99799,19.071187 -0.785999,0.834575 -0.560172,5.244124 -3.070614,1.519804 -2.48822,-0.266134 -2.6406657,2.80448 7.2786257,1.483631 5.371765,-1.182874 -5.17e-4,-0.183451 0.849044,-0.0031 8.328174,-1.852601 -5.391919,-6.368602 -4.960421,2.446879 c -0.556191,-1.3027 -1.234034,-2.872764 -1.929081,-4.476731 z"
     sodipodi:nodetypes="cccccccccccccc" />
  <path
     id="path1986"
     style="fill:none;fill-opacity:1;stroke:#ffffff;stroke-width:0.3;stroke-linecap:round;stroke-linejoin:round;stroke-miterlimit:4;stroke-dasharray:none;stroke-opacity:1"
     d="M 32.245577 7.1830241 L 28.675769 9.6841634 L 29.06851 11.903149 L 32.219739 7.2750081 L 32.245577 7.1830241 z M 28.177091 13.212113 L 22.107178 14.286466 L 21.846729 14.468884 L 26.070243 16.306498 L 28.177091 13.212113 z " />
  <path
     id="path17113"
     style="fill:none;fill-opacity:1;stroke:#ffffff;stroke-width:0.324034;stroke-miterlimit:4;stroke-dasharray:none;stroke-opacity:1"
     d="m 26.548746,7.3244131 -10.004187,-1.673e-4 1.06e-4,9.0805912 2.275882,1.515948 6.605396,-0.01928 1.105656,-1.142552 z"
     transform="rotate(-10.037912)"
     sodipodi:nodetypes="ccccccc" />
  <g
     aria-label="D"
     transform="rotate(-10.146595,-785.42321,241.40255)"
     id="text2123"
     style="font-size:10.5833px;line-height:1.25;font-family:'DejaVu Sans Mono';-inkscape-font-specification:'DejaVu Sans Mono';letter-spacing:6.61458px;fill:#ffffff;stroke-width:0.264583">
    <path
       d="m 49.713609,151.19478 h 1.436601 q 1.431432,0 2.294426,0.97668 0.862994,0.97151 0.862994,2.67166 0,1.73632 -0.878497,2.69233 -0.873329,0.95085 -2.24275,0.95085 h -1.472774 z m 0.847491,6.55255 h 0.599445 q 1.038693,0 1.643305,-0.76998 0.604613,-0.76998 0.604613,-2.13423 0,-1.35392 -0.60978,-2.12906 -0.604613,-0.78031 -1.638138,-0.78031 H 50.5611 Z"
       id="path1276" />
  </g>
  <path
     id="rect1992-2"
     style="fill:none;fill-opacity:1;stroke:#ffffff;stroke-width:0.334833;stroke-miterlimit:4;stroke-dasharray:none;stroke-opacity:1"
     d="M 6.9021391 14.338872 L 6.9023244 25.288488 L 14.348159 25.288871 L 17.239996 23.451548 L 17.24011 16.042121 C 16.910401 15.46098 16.589398 14.89522 16.272867 14.338422 L 6.9021391 14.338872 z "
     transform="rotate(6.0965961)" />
  <g
     aria-label="Å"
     transform="rotate(7.6883937,974.08945,-475.1475)"
     id="text2127"
     style="font-size:10.5833px;line-height:1.25;font-family:'DejaVu Sans Mono';-inkscape-font-specification:'DejaVu Sans Mono';letter-spacing:6.61458px;fill:#ffffff;stroke-width:0.264583">
    <path
       d="m 86.993875,149.14369 h -3.968738 v -2.74918 l -0.527098,0.3359 -0.372069,-0.5581 0.899167,-0.58395 v -3.73619 h 0.847491 v 3.18326 l 1.4366,-0.93017 0.372069,0.56327 -1.808669,1.17305 v 2.56314 h 3.121247 z"
       id="path1255" />
  </g>
  <path
     id="path1988-0"
     style="fill:none;fill-opacity:1;stroke:#ffffff;stroke-width:0.3;stroke-linecap:round;stroke-linejoin:round;stroke-miterlimit:4;stroke-dasharray:none;stroke-opacity:1"
     d="M 12.20494 10.365776 C 12.20494 10.365776 15.895315 18.789181 17.927071 23.547917 L 22.325252 21.37854 L 14.263212 12.302091 L 19.138367 16.883724 L 18.882052 16.606222 L 12.20494 10.365776 z " />
  <path
     id="path1988"
     style="fill:none;fill-opacity:1;stroke:#ffffff;stroke-width:0.3;stroke-linecap:round;stroke-linejoin:round;stroke-miterlimit:4;stroke-dasharray:none;stroke-opacity:1"
     d="m 12.20494,10.365776 2.477368,2.408121 -0.419096,-0.471806 8.862508,8.329208 2.944523,-4.324801 z m 10.604004,10.774019 v 0 c 0.04167,0.710643 0.04167,0.710643 0,0 z"
     sodipodi:nodetypes="ccccccccc" />
  <path
     id="path1990"
     style="fill:none;fill-opacity:1;stroke:#ffffff;stroke-width:0.3;stroke-linecap:round;stroke-linejoin:round;stroke-miterlimit:4;stroke-dasharray:none;stroke-opacity:1"
     d="M 14.263212 12.302091 L 22.325252 21.37854 L 22.808944 21.139795 L 22.792407 21.120675 L 23.12572 20.631299 L 14.263212 12.302091 z " />
  <path
     id="rect1992-2-9"
     style="fill:none;fill-opacity:1;stroke:#ffffff;stroke-width:0.326201;stroke-miterlimit:4;stroke-dasharray:none;stroke-opacity:1"
     d="M 33.373288 12.064722 L 33.492153 13.857143 L 31.975928 19.949205 L 31.976086 22.731877 L 42.047127 22.732082 L 42.047214 12.064242 L 33.373288 12.064722 z "
     transform="rotate(5.2776396)" />
  <g
     aria-label="Z"
     transform="rotate(5.8477067,1290.1652,-603.8673)"
     id="text2131"
     style="font-size:10.5833px;line-height:1.25;font-family:'DejaVu Sans Mono';-inkscape-font-specification:'DejaVu Sans Mono';letter-spacing:6.61458px;fill:#ffffff;stroke-width:0.264583">
    <path
       d="m 107.35542,142.48826 -3.46748,5.94794 h 3.40547 v 0.73897 h -4.37182 v -0.59428 l 3.45198,-5.95827 h -3.30211 v -0.73897 h 4.28396 z"
       id="path1192" />
  </g>
  <path
     id="path1983"
     style="fill:none;fill-opacity:1;stroke:#ffffff;stroke-width:0.3;stroke-linecap:round;stroke-linejoin:round;stroke-miterlimit:4;stroke-dasharray:none;stroke-opacity:1"
     d="M 22.887492 21.101038 L 6.4523193 29.208036 L 13.730945 30.691667 L 19.10271 29.502075 L 19.102193 29.325342 L 19.91403 29.322241 L 28.279411 27.469641 L 22.887492 21.101038 z " />
  <path
     style="fill:none;fill-opacity:1;stroke:#ffffff;stroke-width:0.3;stroke-linecap:round;stroke-linejoin:round;stroke-miterlimit:4;stroke-dasharray:none;stroke-opacity:1"
     d="m 32.075327,16.8792 0.165203,-9.732594 -9.440091,13.983517 5.478972,6.339518 z"
     id="path2157"
     sodipodi:nodetypes="ccccc" />
  <rect
     style="fill:none;fill-opacity:1;stroke:#ffffff;stroke-width:0.31896;stroke-miterlimit:4;stroke-dasharray:none;stroke-opacity:1"
     id="rect1992-2-9-3-9"
     width="9.8476248"
     height="10.430751"
     x="18.994959"
     y="29.395063"
     transform="rotate(-0.2096375)" />
  <g
     aria-label="H"
     transform="rotate(0.32458539,23730.416,-9742.513)"
     id="text2135"
     style="font-size:10.5833px;line-height:1.25;font-family:'DejaVu Sans Mono';-inkscape-font-specification:'DejaVu Sans Mono';letter-spacing:6.61458px;fill:#ffffff;stroke-width:0.264583">
    <path
       d="m 81.850706,172.61911 h -0.84749 v -3.61734 h -2.495964 v 3.61734 h -0.847491 v -7.29152 h 0.847491 v 2.93004 h 2.495964 v -2.93004 h 0.84749 z"
       id="path1234" />
  </g>
  <rect
     transform="rotate(0.00787783)"
     y="29.231123"
     x="30.060663"
     height="10.434145"
     width="9.8508272"
     id="rect1992-2-9-3"
     style="fill:none;fill-opacity:1;stroke:#ffffff;stroke-width:0.319065;stroke-miterlimit:4;stroke-dasharray:none;stroke-opacity:1" />
  <g
     aria-label="S"
     id="text2139"
     style="font-size:10.5833px;line-height:1.25;font-family:'DejaVu Sans Mono';-inkscape-font-specification:'DejaVu Sans Mono';letter-spacing:6.61458px;fill:#ffffff;stroke-width:0.264583"
     transform="translate(-54.811066,-134.59041)">
    <path
       d="m 91.114998,166.33555 q -0.651121,-0.22221 -1.235063,-0.22221 -0.661456,0 -1.080034,0.30489 -0.41341,0.29973 -0.41341,0.85783 0,0.66146 1.090369,1.16272 0.80615,0.37206 1.064531,0.51676 0.263549,0.14469 0.532266,0.39791 0.268717,0.25321 0.428913,0.59944 0.165364,0.34106 0.165364,0.76998 0,1.06453 -0.7183,1.65364 -0.713132,0.58394 -1.684646,0.58394 -0.940508,0 -1.648473,-0.37207 l 0.175699,-0.72864 q 0.831988,0.37724 1.452103,0.37724 0.723468,0 1.157549,-0.37207 0.439248,-0.37723 0.439248,-1.03352 0,-0.48576 -0.28422,-0.82166 -0.284219,-0.34106 -1.049028,-0.69246 -0.785479,-0.36173 -1.018022,-0.49092 -0.227376,-0.13436 -0.454751,-0.3669 -0.227376,-0.23255 -0.351399,-0.52193 -0.124023,-0.28939 -0.124023,-0.63045 0,-0.90434 0.651121,-1.41077 0.651121,-0.50642 1.648473,-0.50642 0.728635,0 1.446935,0.2222 z"
       id="path1213" />
  </g>
</svg>
