<?xml version="1.0" encoding="UTF-8" standalone="no"?>
<!DOCTYPE svg PUBLIC "-//W3C//DTD SVG 1.1//EN"
 "http://www.w3.org/Graphics/SVG/1.1/DTD/svg11.dtd">
<!-- Generated by graphviz version 2.43.0 (0)
 -->
<!-- Title: %3 Pages: 1 -->
<svg width="1001pt" height="1291pt"
 viewBox="0.00 0.00 1000.82 1291.00" xmlns="http://www.w3.org/2000/svg" xmlns:xlink="http://www.w3.org/1999/xlink">
<g id="graph0" class="graph" transform="scale(1 1) rotate(0) translate(4 1287)">
<title>%3</title>
<polygon fill="white" stroke="transparent" points="-4,4 -4,-1287 996.82,-1287 996.82,4 -4,4"/>
<!-- cytP450 -->
<g id="node1" class="node">
<title>cytP450</title>
<ellipse fill="none" stroke="black" cx="71.49" cy="-1136" rx="48.99" ry="18"/>
<text text-anchor="middle" x="71.49" y="-1132.3" font-family="Times,serif" font-size="14.00">cytP450</text>
</g>
<!-- Chciejlista#DIY -->
<g id="node2" class="node">
<title>Chciejlista#DIY</title>
<ellipse fill="none" stroke="black" cx="639.91" cy="-1093" rx="83.69" ry="18"/>
<text text-anchor="middle" x="639.91" y="-1089.3" font-family="Times,serif" font-size="14.00">Chciejlista#DIY</text>
</g>
<!-- cytP450&#45;&#45;Chciejlista#DIY -->
<g id="edge1" class="edge">
<title>cytP450&#45;&#45;Chciejlista#DIY</title>
<path fill="none" stroke="#ff0000" d="M120.09,-1134C197.41,-1134 339.82,-1134 339.82,-1134 339.82,-1134 339.82,-1093 339.82,-1093 339.82,-1093 467.14,-1093 555.92,-1093"/>
</g>
<!-- Kanay&#45;komunikacji# -->
<g id="node3" class="node">
<title>Kanay&#45;komunikacji#</title>
<ellipse fill="none" stroke="black" cx="639.91" cy="-878" rx="108.58" ry="18"/>
<text text-anchor="middle" x="639.91" y="-874.3" font-family="Times,serif" font-size="14.00">Kanay&#45;komunikacji#</text>
</g>
<!-- cytP450&#45;&#45;Kanay&#45;komunikacji# -->
<g id="edge2" class="edge">
<title>cytP450&#45;&#45;Kanay&#45;komunikacji#</title>
<path fill="none" stroke="#ff0000" d="M102.15,-1122C164.2,-1122 298.82,-1122 298.82,-1122 298.82,-1122 298.82,-882.5 298.82,-882.5 298.82,-882.5 434.57,-882.5 534.79,-882.5"/>
</g>
<!-- Przegld&#45;lokali&#45;na&#45;wynajem&#45;w&#45;odzi.&#45;Fundusz&#45;1000&#45;&#45;&#45;1500.#Bot Aleksego -->
<g id="node4" class="node">
<title>Przegld&#45;lokali&#45;na&#45;wynajem&#45;w&#45;odzi.&#45;Fundusz&#45;1000&#45;&#45;&#45;1500.#Bot Aleksego</title>
<ellipse fill="none" stroke="black" cx="639.91" cy="-1222" rx="351.74" ry="18"/>
<text text-anchor="middle" x="639.91" y="-1218.3" font-family="Times,serif" font-size="14.00">Przegld&#45;lokali&#45;na&#45;wynajem&#45;w&#45;odzi.&#45;Fundusz&#45;1000&#45;&#45;&#45;1500.#Bot Aleksego</text>
</g>
<!-- cytP450&#45;&#45;Przegld&#45;lokali&#45;na&#45;wynajem&#45;w&#45;odzi.&#45;Fundusz&#45;1000&#45;&#45;&#45;1500.#Bot Aleksego -->
<g id="edge3" class="edge">
<title>cytP450&#45;&#45;Przegld&#45;lokali&#45;na&#45;wynajem&#45;w&#45;odzi.&#45;Fundusz&#45;1000&#45;&#45;&#45;1500.#Bot Aleksego</title>
<path fill="none" stroke="#ff0000" d="M102.14,-1150C170.57,-1150 329.82,-1150 329.82,-1150 329.82,-1150 329.82,-1194.39 329.82,-1213.46"/>
</g>
<!-- Stowarzyszenie#Komisja Rewizyjna -->
<g id="node5" class="node">
<title>Stowarzyszenie#Komisja Rewizyjna</title>
<ellipse fill="none" stroke="black" cx="639.91" cy="-1050" rx="178.17" ry="18"/>
<text text-anchor="middle" x="639.91" y="-1046.3" font-family="Times,serif" font-size="14.00">Stowarzyszenie#Komisja Rewizyjna</text>
</g>
<!-- cytP450&#45;&#45;Stowarzyszenie#Komisja Rewizyjna -->
<g id="edge4" class="edge">
<title>cytP450&#45;&#45;Stowarzyszenie#Komisja Rewizyjna</title>
<path fill="none" stroke="#ff0000" d="M120.08,-1138C234.2,-1138 509.82,-1138 509.82,-1138 509.82,-1138 509.82,-1086.94 509.82,-1062.61"/>
</g>
<!-- Miejsce::Miejsce#Klucze do spejsu -->
<g id="node6" class="node">
<title>Miejsce::Miejsce#Klucze do spejsu</title>
<ellipse fill="none" stroke="black" cx="639.91" cy="-964" rx="172.77" ry="18"/>
<text text-anchor="middle" x="639.91" y="-960.3" font-family="Times,serif" font-size="14.00">Miejsce::Miejsce#Klucze do spejsu</text>
</g>
<!-- cytP450&#45;&#45;Miejsce::Miejsce#Klucze do spejsu -->
<g id="edge5" class="edge">
<title>cytP450&#45;&#45;Miejsce::Miejsce#Klucze do spejsu</title>
<path fill="none" stroke="#ff0000" d="M112.19,-1126C180.26,-1126 309.82,-1126 309.82,-1126 309.82,-1126 309.82,-976.86 309.82,-976.86 309.82,-976.86 424.67,-976.86 518.87,-976.86"/>
</g>
<!-- Chciejlista#Elektronika (w sensie urzdze konsumenckich) -->
<g id="node7" class="node">
<title>Chciejlista#Elektronika (w sensie urzdze konsumenckich)</title>
<ellipse fill="none" stroke="black" cx="639.91" cy="-1179" rx="289.75" ry="18"/>
<text text-anchor="middle" x="639.91" y="-1175.3" font-family="Times,serif" font-size="14.00">Chciejlista#Elektronika (w sensie urzdze konsumenckich)</text>
</g>
<!-- cytP450&#45;&#45;Chciejlista#Elektronika (w sensie urzdze konsumenckich) -->
<g id="edge6" class="edge">
<title>cytP450&#45;&#45;Chciejlista#Elektronika (w sensie urzdze konsumenckich)</title>
<path fill="none" stroke="#ff0000" d="M112.28,-1146C201.64,-1146 406.82,-1146 406.82,-1146 406.82,-1146 406.82,-1158.57 406.82,-1168.19"/>
</g>
<!-- Infrastruktura::Domeny#Domeny -->
<g id="node8" class="node">
<title>Infrastruktura::Domeny#Domeny</title>
<ellipse fill="none" stroke="black" cx="639.91" cy="-1007" rx="167.07" ry="18"/>
<text text-anchor="middle" x="639.91" y="-1003.3" font-family="Times,serif" font-size="14.00">Infrastruktura::Domeny#Domeny</text>
</g>
<!-- cytP450&#45;&#45;Infrastruktura::Domeny#Domeny -->
<g id="edge7" class="edge">
<title>cytP450&#45;&#45;Infrastruktura::Domeny#Domeny</title>
<path fill="none" stroke="#ff0000" d="M117.62,-1130C189.44,-1130 319.82,-1130 319.82,-1130 319.82,-1130 319.82,-1016 319.82,-1016 319.82,-1016 410.16,-1016 494.85,-1016"/>
</g>
<!-- Zamek#Zamek -->
<g id="node9" class="node">
<title>Zamek#Zamek</title>
<ellipse fill="none" stroke="black" cx="639.91" cy="-1136" rx="81.49" ry="18"/>
<text text-anchor="middle" x="639.91" y="-1132.3" font-family="Times,serif" font-size="14.00">Zamek#Zamek</text>
</g>
<!-- cytP450&#45;&#45;Zamek#Zamek -->
<g id="edge8" class="edge">
<title>cytP450&#45;&#45;Zamek#Zamek</title>
<path fill="none" stroke="#ff0000" d="M117.53,-1142C215.05,-1142 443.33,-1142 563.24,-1142"/>
</g>
<!-- d33tah -->
<g id="node10" class="node">
<title>d33tah</title>
<ellipse fill="none" stroke="black" cx="71.49" cy="-641" rx="43.59" ry="18"/>
<text text-anchor="middle" x="71.49" y="-637.3" font-family="Times,serif" font-size="14.00">d33tah</text>
</g>
<!-- d33tah&#45;&#45;Kanay&#45;komunikacji# -->
<g id="edge16" class="edge">
<title>d33tah&#45;&#45;Kanay&#45;komunikacji#</title>
<path fill="none" stroke="#2bd500" d="M91.76,-657C111.26,-657 137.82,-657 137.82,-657 137.82,-657 137.82,-873.5 137.82,-873.5 137.82,-873.5 387.43,-873.5 534.65,-873.5"/>
</g>
<!-- d33tah&#45;&#45;Miejsce::Miejsce#Klucze do spejsu -->
<g id="edge22" class="edge">
<title>d33tah&#45;&#45;Miejsce::Miejsce#Klucze do spejsu</title>
<path fill="none" stroke="#2bd500" d="M103.97,-653C137.46,-653 184.82,-653 184.82,-653 184.82,-653 184.82,-961.43 184.82,-961.43 184.82,-961.43 339.51,-961.43 468.51,-961.43"/>
</g>
<!-- d33tah&#45;&#45;Infrastruktura::Domeny#Domeny -->
<g id="edge12" class="edge">
<title>d33tah&#45;&#45;Infrastruktura::Domeny#Domeny</title>
<path fill="none" stroke="#2bd500" d="M98.91,-655C129.53,-655 174.82,-655 174.82,-655 174.82,-655 174.82,-998 174.82,-998 174.82,-998 358.49,-998 494.98,-998"/>
</g>
<!-- Bazy&#45;danych#Pad -->
<g id="node11" class="node">
<title>Bazy&#45;danych#Pad</title>
<ellipse fill="none" stroke="black" cx="639.91" cy="-749" rx="94.48" ry="18"/>
<text text-anchor="middle" x="639.91" y="-745.3" font-family="Times,serif" font-size="14.00">Bazy&#45;danych#Pad</text>
</g>
<!-- d33tah&#45;&#45;Bazy&#45;danych#Pad -->
<g id="edge9" class="edge">
<title>d33tah&#45;&#45;Bazy&#45;danych#Pad</title>
<path fill="none" stroke="#2bd500" d="M110.82,-648.77C110.82,-673.53 110.82,-749 110.82,-749 110.82,-749 393.51,-749 545.62,-749"/>
</g>
<!-- Infrastruktura::Telegram#HS24: t.me/hsl_info -->
<g id="node12" class="node">
<title>Infrastruktura::Telegram#HS24: t.me/hsl_info</title>
<ellipse fill="none" stroke="black" cx="639.91" cy="-663" rx="231.26" ry="18"/>
<text text-anchor="middle" x="639.91" y="-659.3" font-family="Times,serif" font-size="14.00">Infrastruktura::Telegram#HS24: t.me/hsl_info</text>
</g>
<!-- d33tah&#45;&#45;Infrastruktura::Telegram#HS24: t.me/hsl_info -->
<g id="edge10" class="edge">
<title>d33tah&#45;&#45;Infrastruktura::Telegram#HS24: t.me/hsl_info</title>
<path fill="none" stroke="#2bd500" d="M112.83,-647C200.39,-647 406.93,-647 533.9,-647"/>
</g>
<!-- Bazy&#45;danych#Grafana -->
<g id="node13" class="node">
<title>Bazy&#45;danych#Grafana</title>
<ellipse fill="none" stroke="black" cx="639.91" cy="-577" rx="114.28" ry="18"/>
<text text-anchor="middle" x="639.91" y="-573.3" font-family="Times,serif" font-size="14.00">Bazy&#45;danych#Grafana</text>
</g>
<!-- d33tah&#45;&#45;Bazy&#45;danych#Grafana -->
<g id="edge11" class="edge">
<title>d33tah&#45;&#45;Bazy&#45;danych#Grafana</title>
<path fill="none" stroke="#2bd500" d="M71.82,-622.96C71.82,-606.27 71.82,-584 71.82,-584 71.82,-584 370.1,-584 534.39,-584"/>
</g>
<!-- Infrastruktura::Telegram#posty: t.me/hakierspejs_spam -->
<g id="node14" class="node">
<title>Infrastruktura::Telegram#posty: t.me/hakierspejs_spam</title>
<ellipse fill="none" stroke="black" cx="639.91" cy="-233" rx="284.05" ry="18"/>
<text text-anchor="middle" x="639.91" y="-229.3" font-family="Times,serif" font-size="14.00">Infrastruktura::Telegram#posty: t.me/hakierspejs_spam</text>
</g>
<!-- d33tah&#45;&#45;Infrastruktura::Telegram#posty: t.me/hakierspejs_spam -->
<g id="edge13" class="edge">
<title>d33tah&#45;&#45;Infrastruktura::Telegram#posty: t.me/hakierspejs_spam</title>
<path fill="none" stroke="#2bd500" d="M109.88,-632.38C188.99,-632.38 362.82,-632.38 362.82,-632.38 362.82,-632.38 362.82,-279.9 362.82,-237.21"/>
</g>
<!-- Infrastruktura::Mariuszbot#Mariuszbot -->
<g id="node15" class="node">
<title>Infrastruktura::Mariuszbot#Mariuszbot</title>
<ellipse fill="none" stroke="black" cx="639.91" cy="-620" rx="196.07" ry="18"/>
<text text-anchor="middle" x="639.91" y="-616.3" font-family="Times,serif" font-size="14.00">Infrastruktura::Mariuszbot#Mariuszbot</text>
</g>
<!-- d33tah&#45;&#45;Infrastruktura::Mariuszbot#Mariuszbot -->
<g id="edge14" class="edge">
<title>d33tah&#45;&#45;Infrastruktura::Mariuszbot#Mariuszbot</title>
<path fill="none" stroke="#2bd500" d="M113.75,-636.12C206.31,-636.12 428.56,-636.12 552.55,-636.12"/>
</g>
<!-- Drzwi&#45;frontowe#Ekran  -->
<g id="node16" class="node">
<title>Drzwi&#45;frontowe#Ekran </title>
<ellipse fill="none" stroke="black" cx="639.91" cy="-921" rx="120.78" ry="18"/>
<text text-anchor="middle" x="639.91" y="-917.3" font-family="Times,serif" font-size="14.00">Drzwi&#45;frontowe#Ekran </text>
</g>
<!-- d33tah&#45;&#45;Drzwi&#45;frontowe#Ekran  -->
<g id="edge15" class="edge">
<title>d33tah&#45;&#45;Drzwi&#45;frontowe#Ekran </title>
<path fill="none" stroke="black" d="M107.91,-651C150.67,-651 215.82,-651 215.82,-651 215.82,-651 215.82,-921 215.82,-921 215.82,-921 393.6,-921 518.95,-921"/>
</g>
<!-- Infrastruktura::IRC#IRC -->
<g id="node20" class="node">
<title>Infrastruktura::IRC#IRC</title>
<ellipse fill="none" stroke="black" cx="639.91" cy="-534" rx="124.58" ry="18"/>
<text text-anchor="middle" x="639.91" y="-530.3" font-family="Times,serif" font-size="14.00">Infrastruktura::IRC#IRC</text>
</g>
<!-- d33tah&#45;&#45;Infrastruktura::IRC#IRC -->
<g id="edge17" class="edge">
<title>d33tah&#45;&#45;Infrastruktura::IRC#IRC</title>
<path fill="none" stroke="#2bd500" d="M98.1,-626.75C117.65,-626.75 140.82,-626.75 140.82,-626.75 140.82,-626.75 140.82,-549 140.82,-549 140.82,-549 433.75,-549 570.77,-549"/>
</g>
<!-- Infrastruktura::Github#Github -->
<g id="node21" class="node">
<title>Infrastruktura::Github#Github</title>
<ellipse fill="none" stroke="black" cx="639.91" cy="-405" rx="154.07" ry="18"/>
<text text-anchor="middle" x="639.91" y="-401.3" font-family="Times,serif" font-size="14.00">Infrastruktura::Github#Github</text>
</g>
<!-- d33tah&#45;&#45;Infrastruktura::Github#Github -->
<g id="edge18" class="edge">
<title>d33tah&#45;&#45;Infrastruktura::Github#Github</title>
<path fill="none" stroke="#2bd500" d="M91.18,-624.88C109.78,-624.88 134.82,-624.88 134.82,-624.88 134.82,-624.88 134.82,-420.5 134.82,-420.5 134.82,-420.5 419.67,-420.5 561.54,-420.5"/>
</g>
<!-- Infrastruktura::Telegram#Spacerspejs: t.me/joinchat/UYf2ONtNj21J1DS6 -->
<g id="node22" class="node">
<title>Infrastruktura::Telegram#Spacerspejs: t.me/joinchat/UYf2ONtNj21J1DS6</title>
<ellipse fill="none" stroke="black" cx="639.91" cy="-835" rx="352.84" ry="18"/>
<text text-anchor="middle" x="639.91" y="-831.3" font-family="Times,serif" font-size="14.00">Infrastruktura::Telegram#Spacerspejs: t.me/joinchat/UYf2ONtNj21J1DS6</text>
</g>
<!-- d33tah&#45;&#45;Infrastruktura::Telegram#Spacerspejs: t.me/joinchat/UYf2ONtNj21J1DS6 -->
<g id="edge19" class="edge">
<title>d33tah&#45;&#45;Infrastruktura::Telegram#Spacerspejs: t.me/joinchat/UYf2ONtNj21J1DS6</title>
<path fill="none" stroke="#2bd500" d="M110.61,-649C181.01,-649 321.82,-649 321.82,-649 321.82,-649 321.82,-791.41 321.82,-827.01"/>
</g>
<!-- Stowarzyszenie#Zarzd -->
<g id="node23" class="node">
<title>Stowarzyszenie#Zarzd</title>
<ellipse fill="none" stroke="black" cx="639.91" cy="-61" rx="123.48" ry="18"/>
<text text-anchor="middle" x="639.91" y="-57.3" font-family="Times,serif" font-size="14.00">Stowarzyszenie#Zarzd</text>
</g>
<!-- d33tah&#45;&#45;Stowarzyszenie#Zarzd -->
<g id="edge20" class="edge">
<title>d33tah&#45;&#45;Stowarzyszenie#Zarzd</title>
<path fill="none" stroke="#2bd500" d="M103.24,-628.62C153.77,-628.62 246.82,-628.62 246.82,-628.62 246.82,-628.62 246.82,-73 246.82,-73 246.82,-73 431.56,-73 547.75,-73"/>
</g>
<!-- Bazy&#45;danych#Trello -->
<g id="node24" class="node">
<title>Bazy&#45;danych#Trello</title>
<ellipse fill="none" stroke="black" cx="639.91" cy="-792" rx="103.98" ry="18"/>
<text text-anchor="middle" x="639.91" y="-788.3" font-family="Times,serif" font-size="14.00">Bazy&#45;danych#Trello</text>
</g>
<!-- d33tah&#45;&#45;Bazy&#45;danych#Trello -->
<g id="edge21" class="edge">
<title>d33tah&#45;&#45;Bazy&#45;danych#Trello</title>
<path fill="none" stroke="#2bd500" d="M104.82,-652.62C104.82,-686.53 104.82,-783 104.82,-783 104.82,-783 397.25,-783 549.74,-783"/>
</g>
<!-- Marketing&#45;i&#45;media&#45;spoecznociowe# -->
<g id="node25" class="node">
<title>Marketing&#45;i&#45;media&#45;spoecznociowe#</title>
<ellipse fill="none" stroke="black" cx="639.91" cy="-190" rx="183.07" ry="18"/>
<text text-anchor="middle" x="639.91" y="-186.3" font-family="Times,serif" font-size="14.00">Marketing&#45;i&#45;media&#45;spoecznociowe#</text>
</g>
<!-- d33tah&#45;&#45;Marketing&#45;i&#45;media&#45;spoecznociowe# -->
<g id="edge23" class="edge">
<title>d33tah&#45;&#45;Marketing&#45;i&#45;media&#45;spoecznociowe#</title>
<path fill="none" stroke="#2bd500" d="M106.87,-630.5C163.16,-630.5 266.82,-630.5 266.82,-630.5 266.82,-630.5 266.82,-204.4 266.82,-204.4 266.82,-204.4 419.7,-204.4 529.74,-204.4"/>
</g>
<!-- Infrastruktura::Telegram#G贸wny: t.me/hakierspejs -->
<g id="node26" class="node">
<title>Infrastruktura::Telegram#G贸wny: t.me/hakierspejs</title>
<ellipse fill="none" stroke="black" cx="639.91" cy="-448" rx="251.56" ry="18"/>
<text text-anchor="middle" x="639.91" y="-444.3" font-family="Times,serif" font-size="14.00">Infrastruktura::Telegram#G贸wny: t.me/hakierspejs</text>
</g>
<!-- d33tah&#45;&#45;Infrastruktura::Telegram#G贸wny: t.me/hakierspejs -->
<g id="edge24" class="edge">
<title>d33tah&#45;&#45;Infrastruktura::Telegram#G贸wny: t.me/hakierspejs</title>
<path fill="none" stroke="#2bd500" d="M111.96,-634.25C199.54,-634.25 398.82,-634.25 398.82,-634.25 398.82,-634.25 398.82,-483.91 398.82,-453.37"/>
</g>
<!-- nastpne -->
<g id="node17" class="node">
<title>nastpne</title>
<ellipse fill="none" stroke="black" cx="71.49" cy="-1179" rx="53.09" ry="18"/>
<text text-anchor="middle" x="71.49" y="-1175.3" font-family="Times,serif" font-size="14.00">nastpne</text>
</g>
<!-- spotkanie -->
<g id="node18" class="node">
<title>spotkanie</title>
<ellipse fill="none" stroke="black" cx="71.49" cy="-1222" rx="55.79" ry="18"/>
<text text-anchor="middle" x="71.49" y="-1218.3" font-family="Times,serif" font-size="14.00">spotkanie</text>
</g>
<g id="node19" class="node">
<title></title>
<ellipse fill="none" stroke="#2bd500" cx="71.49" cy="-1265" rx="27" ry="18"/>
</g>
<!-- kujaw -->
<g id="node27" class="node">
<title>kujaw</title>
<ellipse fill="none" stroke="black" cx="71.49" cy="-319" rx="38.19" ry="18"/>
<text text-anchor="middle" x="71.49" y="-315.3" font-family="Times,serif" font-size="14.00">kujaw</text>
</g>
<!-- kujaw&#45;&#45;Miejsce::Miejsce#Klucze do spejsu -->
<g id="edge25" class="edge">
<title>kujaw&#45;&#45;Miejsce::Miejsce#Klucze do spejsu</title>
<path fill="none" stroke="#0061f2" d="M100.1,-331C136.53,-331 194.82,-331 194.82,-331 194.82,-331 194.82,-956.29 194.82,-956.29 194.82,-956.29 355.37,-956.29 483.61,-956.29"/>
</g>
<!-- kujaw&#45;&#45;Stowarzyszenie#Zarzd -->
<g id="edge28" class="edge">
<title>kujaw&#45;&#45;Stowarzyszenie#Zarzd</title>
<path fill="none" stroke="#0061f2" d="M100.25,-307C115.78,-307 131.82,-307 131.82,-307 131.82,-307 131.82,-61 131.82,-61 131.82,-61 365.87,-61 516.27,-61"/>
</g>
<!-- kujaw&#45;&#45;Marketing&#45;i&#45;media&#45;spoecznociowe# -->
<g id="edge29" class="edge">
<title>kujaw&#45;&#45;Marketing&#45;i&#45;media&#45;spoecznociowe#</title>
<path fill="none" stroke="#0061f2" d="M107.8,-313C122.39,-313 135.82,-313 135.82,-313 135.82,-313 135.82,-197.2 135.82,-197.2 135.82,-197.2 325.11,-197.2 471.7,-197.2"/>
</g>
<!-- Marketing&#45;i&#45;media&#45;spoecznociowe#Logo nr. 2 -->
<g id="node28" class="node">
<title>Marketing&#45;i&#45;media&#45;spoecznociowe#Logo nr. 2</title>
<ellipse fill="none" stroke="black" cx="639.91" cy="-706" rx="229.36" ry="18"/>
<text text-anchor="middle" x="639.91" y="-702.3" font-family="Times,serif" font-size="14.00">Marketing&#45;i&#45;media&#45;spoecznociowe#Logo nr. 2</text>
</g>
<!-- kujaw&#45;&#45;Marketing&#45;i&#45;media&#45;spoecznociowe#Logo nr. 2 -->
<g id="edge26" class="edge">
<title>kujaw&#45;&#45;Marketing&#45;i&#45;media&#45;spoecznociowe#Logo nr. 2</title>
<path fill="none" stroke="#0061f2" d="M107.66,-325C186.89,-325 368.82,-325 368.82,-325 368.82,-325 368.82,-700 368.82,-700 368.82,-700 391.32,-700 423.36,-700"/>
</g>
<!-- Marketing&#45;i&#45;media&#45;spoecznociowe#Naklejki -->
<g id="node29" class="node">
<title>Marketing&#45;i&#45;media&#45;spoecznociowe#Naklejki</title>
<ellipse fill="none" stroke="black" cx="639.91" cy="-276" rx="221.76" ry="18"/>
<text text-anchor="middle" x="639.91" y="-272.3" font-family="Times,serif" font-size="14.00">Marketing&#45;i&#45;media&#45;spoecznociowe#Naklejki</text>
</g>
<!-- kujaw&#45;&#45;Marketing&#45;i&#45;media&#45;spoecznociowe#Naklejki -->
<g id="edge27" class="edge">
<title>kujaw&#45;&#45;Marketing&#45;i&#45;media&#45;spoecznociowe#Naklejki</title>
<path fill="none" stroke="#0061f2" d="M110.04,-319C191.93,-319 375.82,-319 375.82,-319 375.82,-319 375.82,-282 375.82,-282 375.82,-282 398.64,-282 430.86,-282"/>
</g>
<!-- SP7Q -->
<g id="node30" class="node">
<title>SP7Q</title>
<ellipse fill="none" stroke="black" cx="71.49" cy="-190" rx="36.29" ry="18"/>
<text text-anchor="middle" x="71.49" y="-186.3" font-family="Times,serif" font-size="14.00">SP7Q</text>
</g>
<!-- SP7Q&#45;&#45;Infrastruktura::Github#Github -->
<g id="edge30" class="edge">
<title>SP7Q&#45;&#45;Infrastruktura::Github#Github</title>
<path fill="none" stroke="#c60077" d="M107.26,-186.4C166.09,-186.4 276.82,-186.4 276.82,-186.4 276.82,-186.4 276.82,-394 276.82,-394 276.82,-394 412.3,-394 517.74,-394"/>
</g>
<!-- SP7Q&#45;&#45;Stowarzyszenie#Zarzd -->
<g id="edge31" class="edge">
<title>SP7Q&#45;&#45;Stowarzyszenie#Zarzd</title>
<path fill="none" stroke="#c60077" d="M93.66,-175.6C138.51,-175.6 235.82,-175.6 235.82,-175.6 235.82,-175.6 235.82,-67 235.82,-67 235.82,-67 403.94,-67 523.3,-67"/>
</g>
<!-- SP7Q&#45;&#45;Marketing&#45;i&#45;media&#45;spoecznociowe# -->
<g id="edge32" class="edge">
<title>SP7Q&#45;&#45;Marketing&#45;i&#45;media&#45;spoecznociowe#</title>
<path fill="none" stroke="#c60077" d="M104.93,-182.8C175.31,-182.8 342.88,-182.8 471.88,-182.8"/>
</g>
<!-- Polimerek -->
<g id="node31" class="node">
<title>Polimerek</title>
<ellipse fill="none" stroke="black" cx="71.49" cy="-61" rx="57.39" ry="18"/>
<text text-anchor="middle" x="71.49" y="-57.3" font-family="Times,serif" font-size="14.00">Polimerek</text>
</g>
<!-- Polimerek&#45;&#45;Stowarzyszenie#Zarzd -->
<g id="edge33" class="edge">
<title>Polimerek&#45;&#45;Stowarzyszenie#Zarzd</title>
<path fill="none" stroke="#b6e400" d="M125.48,-55C216.31,-55 401.65,-55 523.28,-55"/>
</g>
<!-- kasesag -->
<g id="node32" class="node">
<title>kasesag</title>
<ellipse fill="none" stroke="black" cx="71.49" cy="-18" rx="48.19" ry="18"/>
<text text-anchor="middle" x="71.49" y="-14.3" font-family="Times,serif" font-size="14.00">kasesag</text>
</g>
<!-- kasesag&#45;&#45;Stowarzyszenie#Zarzd -->
<g id="edge34" class="edge">
<title>kasesag&#45;&#45;Stowarzyszenie#Zarzd</title>
<path fill="none" stroke="#00ffff" d="M117.07,-24C131.05,-24 142.82,-24 142.82,-24 142.82,-24 142.82,-49 142.82,-49 142.82,-49 403.82,-49 547.57,-49"/>
</g>
<!-- Marketing&#45;i&#45;media&#45;spoecznociowe#Przycisk HS&#45;LDZ -->
<g id="node33" class="node">
<title>Marketing&#45;i&#45;media&#45;spoecznociowe#Przycisk HS&#45;LDZ</title>
<ellipse fill="none" stroke="black" cx="639.91" cy="-18" rx="261.85" ry="18"/>
<text text-anchor="middle" x="639.91" y="-14.3" font-family="Times,serif" font-size="14.00">Marketing&#45;i&#45;media&#45;spoecznociowe#Przycisk HS&#45;LDZ</text>
</g>
<!-- kasesag&#45;&#45;Marketing&#45;i&#45;media&#45;spoecznociowe#Przycisk HS&#45;LDZ -->
<g id="edge35" class="edge">
<title>kasesag&#45;&#45;Marketing&#45;i&#45;media&#45;spoecznociowe#Przycisk HS&#45;LDZ</title>
<path fill="none" stroke="#00ffff" d="M117.05,-12C177.44,-12 288.58,-12 392.91,-12"/>
</g>
<!-- pzduniak -->
<g id="node34" class="node">
<title>pzduniak</title>
<ellipse fill="none" stroke="black" cx="71.49" cy="-1093" rx="52.79" ry="18"/>
<text text-anchor="middle" x="71.49" y="-1089.3" font-family="Times,serif" font-size="14.00">pzduniak</text>
</g>
<!-- pzduniak&#45;&#45;Stowarzyszenie#Komisja Rewizyjna -->
<g id="edge36" class="edge">
<title>pzduniak&#45;&#45;Stowarzyszenie#Komisja Rewizyjna</title>
<path fill="none" stroke="#ab00d5" d="M118.82,-1084.87C118.82,-1075.34 118.82,-1060.8 118.82,-1060.8 118.82,-1060.8 342.9,-1060.8 497.17,-1060.8"/>
</g>
<!-- krcz -->
<g id="node35" class="node">
<title>krcz</title>
<ellipse fill="none" stroke="black" cx="71.49" cy="-1050" rx="30.59" ry="18"/>
<text text-anchor="middle" x="71.49" y="-1046.3" font-family="Times,serif" font-size="14.00">krcz</text>
</g>
<!-- krcz&#45;&#45;Stowarzyszenie#Komisja Rewizyjna -->
<g id="edge37" class="edge">
<title>krcz&#45;&#45;Stowarzyszenie#Komisja Rewizyjna</title>
<path fill="none" stroke="#f29100" d="M101.65,-1053.6C168.84,-1053.6 335.17,-1053.6 465.3,-1053.6"/>
</g>
<!-- kpc -->
<g id="node36" class="node">
<title>kpc</title>
<ellipse fill="none" stroke="black" cx="71.49" cy="-233" rx="27" ry="18"/>
<text text-anchor="middle" x="71.49" y="-229.3" font-family="Times,serif" font-size="14.00">kpc</text>
</g>
<!-- kpc&#45;&#45;Stowarzyszenie#Komisja Rewizyjna -->
<g id="edge40" class="edge">
<title>kpc&#45;&#45;Stowarzyszenie#Komisja Rewizyjna</title>
<path fill="none" stroke="#00c64f" d="M95.31,-242C119.62,-242 153.82,-242 153.82,-242 153.82,-242 153.82,-1039.2 153.82,-1039.2 153.82,-1039.2 353.92,-1039.2 497.35,-1039.2"/>
</g>
<!-- kpc&#45;&#45;Miejsce::Miejsce#Klucze do spejsu -->
<g id="edge41" class="edge">
<title>kpc&#45;&#45;Miejsce::Miejsce#Klucze do spejsu</title>
<path fill="none" stroke="#00c64f" d="M97.84,-237.5C136.69,-237.5 204.82,-237.5 204.82,-237.5 204.82,-237.5 204.82,-951.14 204.82,-951.14 204.82,-951.14 389.97,-951.14 518.71,-951.14"/>
</g>
<!-- kpc&#45;&#45;Infrastruktura::Telegram#posty: t.me/hakierspejs_spam -->
<g id="edge38" class="edge">
<title>kpc&#45;&#45;Infrastruktura::Telegram#posty: t.me/hakierspejs_spam</title>
<path fill="none" stroke="#00c64f" d="M98.53,-233C146.46,-233 251.19,-233 355.88,-233"/>
</g>
<!-- kpc&#45;&#45;Marketing&#45;i&#45;media&#45;spoecznociowe# -->
<g id="edge42" class="edge">
<title>kpc&#45;&#45;Marketing&#45;i&#45;media&#45;spoecznociowe#</title>
<path fill="none" stroke="#00c64f" d="M97.65,-228.5C108.6,-228.5 118.82,-228.5 118.82,-228.5 118.82,-228.5 118.82,-190 118.82,-190 118.82,-190 306.48,-190 456.56,-190"/>
</g>
<!-- Infrastruktura::Telegram#Posty wyklte (celowo bez linka) -->
<g id="node37" class="node">
<title>Infrastruktura::Telegram#Posty wyklte (celowo bez linka)</title>
<ellipse fill="none" stroke="black" cx="639.91" cy="-104" rx="284.05" ry="18"/>
<text text-anchor="middle" x="639.91" y="-100.3" font-family="Times,serif" font-size="14.00">Infrastruktura::Telegram#Posty wyklte (celowo bez linka)</text>
</g>
<!-- kpc&#45;&#45;Infrastruktura::Telegram#Posty wyklte (celowo bez linka) -->
<g id="edge39" class="edge">
<title>kpc&#45;&#45;Infrastruktura::Telegram#Posty wyklte (celowo bez linka)</title>
<path fill="none" stroke="#00c64f" d="M89.78,-219.5C100.05,-219.5 110.82,-219.5 110.82,-219.5 110.82,-219.5 110.82,-98 110.82,-98 110.82,-98 240.78,-98 371.88,-98"/>
</g>
<!-- Czaty&#45;HS#HS: posty wyklte -->
<g id="node38" class="node">
<title>Czaty&#45;HS#HS: posty wyklte</title>
<ellipse fill="none" stroke="black" cx="639.91" cy="-147" rx="157.87" ry="18"/>
<text text-anchor="middle" x="639.91" y="-143.3" font-family="Times,serif" font-size="14.00">Czaty&#45;HS#HS: posty wyklte</text>
</g>
<!-- kpc&#45;&#45;Czaty&#45;HS#HS: posty wyklte -->
<g id="edge43" class="edge">
<title>kpc&#45;&#45;Czaty&#45;HS#HS: posty wyklte</title>
<path fill="none" stroke="#00c64f" d="M94.96,-224C105.59,-224 115.82,-224 115.82,-224 115.82,-224 115.82,-153 115.82,-153 115.82,-153 335.85,-153 490.78,-153"/>
</g>
<!-- PiotrP -->
<g id="node39" class="node">
<title>PiotrP</title>
<ellipse fill="none" stroke="black" cx="71.49" cy="-1007" rx="40.09" ry="18"/>
<text text-anchor="middle" x="71.49" y="-1003.3" font-family="Times,serif" font-size="14.00">PiotrP</text>
</g>
<!-- PiotrP&#45;&#45;Stowarzyszenie#Komisja Rewizyjna -->
<g id="edge44" class="edge">
<title>PiotrP&#45;&#45;Stowarzyszenie#Komisja Rewizyjna</title>
<path fill="none" stroke="#2e00e4" d="M107.82,-1014.97C107.82,-1026.49 107.82,-1046.4 107.82,-1046.4 107.82,-1046.4 310.18,-1046.4 465.31,-1046.4"/>
</g>
<!-- pmysl -->
<g id="node40" class="node">
<title>pmysl</title>
<ellipse fill="none" stroke="black" cx="71.49" cy="-555" rx="38.19" ry="18"/>
<text text-anchor="middle" x="71.49" y="-551.3" font-family="Times,serif" font-size="14.00">pmysl</text>
</g>
<!-- pmysl&#45;&#45;Kanay&#45;komunikacji# -->
<g id="edge46" class="edge">
<title>pmysl&#45;&#45;Kanay&#45;komunikacji#</title>
<path fill="none" stroke="#ff0000" d="M97.33,-568.33C116.32,-568.33 138.82,-568.33 138.82,-568.33 138.82,-568.33 138.82,-869 138.82,-869 138.82,-869 400.51,-869 545.66,-869"/>
</g>
<!-- pmysl&#45;&#45;Bazy&#45;danych#Grafana -->
<g id="edge45" class="edge">
<title>pmysl&#45;&#45;Bazy&#45;danych#Grafana</title>
<path fill="none" stroke="#ff0000" d="M105.35,-563.67C194.5,-563.67 437.46,-563.67 562.81,-563.67"/>
</g>
<!-- pmysl&#45;&#45;Infrastruktura::IRC#IRC -->
<g id="edge48" class="edge">
<title>pmysl&#45;&#45;Infrastruktura::IRC#IRC</title>
<path fill="none" stroke="#ff0000" d="M104.93,-546C190.06,-546 417.41,-546 546.68,-546"/>
</g>
<!-- pmysl&#45;&#45;Infrastruktura::Github#Github -->
<g id="edge47" class="edge">
<title>pmysl&#45;&#45;Infrastruktura::Github#Github</title>
<path fill="none" stroke="#ff0000" d="M92.94,-540C110.97,-540 133.82,-540 133.82,-540 133.82,-540 133.82,-418 133.82,-418 133.82,-418 384.72,-418 533.2,-418"/>
</g>
<!-- Bazy&#45;danych# -->
<g id="node41" class="node">
<title>Bazy&#45;danych#</title>
<ellipse fill="none" stroke="black" cx="639.91" cy="-491" rx="77.19" ry="18"/>
<text text-anchor="middle" x="639.91" y="-487.3" font-family="Times,serif" font-size="14.00">Bazy&#45;danych#</text>
</g>
<!-- pmysl&#45;&#45;Bazy&#45;danych# -->
<g id="edge49" class="edge">
<title>pmysl&#45;&#45;Bazy&#45;danych#</title>
<path fill="none" stroke="#ff0000" d="M100.08,-543C118.8,-543 139.82,-543 139.82,-543 139.82,-543 139.82,-501.5 139.82,-501.5 139.82,-501.5 442.77,-501.5 577.08,-501.5"/>
</g>
<!-- thinkofher -->
<g id="node42" class="node">
<title>thinkofher</title>
<ellipse fill="none" stroke="black" cx="71.49" cy="-426" rx="59.29" ry="18"/>
<text text-anchor="middle" x="71.49" y="-422.3" font-family="Times,serif" font-size="14.00">thinkofher</text>
</g>
<!-- thinkofher&#45;&#45;Kanay&#45;komunikacji# -->
<g id="edge52" class="edge">
<title>thinkofher&#45;&#45;Kanay&#45;komunikacji#</title>
<path fill="none" stroke="#2bd500" d="M111.24,-439.33C156.96,-439.33 225.82,-439.33 225.82,-439.33 225.82,-439.33 225.82,-864.5 225.82,-864.5 225.82,-864.5 449.14,-864.5 567.78,-864.5"/>
</g>
<!-- thinkofher&#45;&#45;Infrastruktura::IRC#IRC -->
<g id="edge53" class="edge">
<title>thinkofher&#45;&#45;Infrastruktura::IRC#IRC</title>
<path fill="none" stroke="#2bd500" d="M119.82,-436.49C119.82,-461.14 119.82,-520.67 119.82,-520.67 119.82,-520.67 408.95,-520.67 556.06,-520.67"/>
</g>
<!-- thinkofher&#45;&#45;Infrastruktura::Github#Github -->
<g id="edge54" class="edge">
<title>thinkofher&#45;&#45;Infrastruktura::Github#Github</title>
<path fill="none" stroke="#2bd500" d="M119.96,-415.5C206.54,-415.5 390.34,-415.5 514.53,-415.5"/>
</g>
<!-- thinkofher&#45;&#45;Marketing&#45;i&#45;media&#45;spoecznociowe# -->
<g id="edge55" class="edge">
<title>thinkofher&#45;&#45;Marketing&#45;i&#45;media&#45;spoecznociowe#</title>
<path fill="none" stroke="#2bd500" d="M101.68,-410.5C154.2,-410.5 256.82,-410.5 256.82,-410.5 256.82,-410.5 256.82,-200.8 256.82,-200.8 256.82,-200.8 385.08,-200.8 493.17,-200.8"/>
</g>
<!-- thinkofher&#45;&#45;Infrastruktura::Telegram#G贸wny: t.me/hakierspejs -->
<g id="edge57" class="edge">
<title>thinkofher&#45;&#45;Infrastruktura::Telegram#G贸wny: t.me/hakierspejs</title>
<path fill="none" stroke="#2bd500" d="M123.44,-434.67C201.41,-434.67 352.2,-434.67 470.8,-434.67"/>
</g>
<!-- thinkofher&#45;&#45;Bazy&#45;danych# -->
<g id="edge56" class="edge">
<title>thinkofher&#45;&#45;Bazy&#45;danych#</title>
<path fill="none" stroke="#2bd500" d="M123.82,-434.48C123.82,-450.48 123.82,-483.5 123.82,-483.5 123.82,-483.5 428.27,-483.5 569.5,-483.5"/>
</g>
<!-- Infrastruktura::Matrix#hs&#45;ldz&#45;offtopic:hackerspace.pl -->
<g id="node43" class="node">
<title>Infrastruktura::Matrix#hs&#45;ldz&#45;offtopic:hackerspace.pl</title>
<ellipse fill="none" stroke="black" cx="639.91" cy="-319" rx="258.85" ry="18"/>
<text text-anchor="middle" x="639.91" y="-315.3" font-family="Times,serif" font-size="14.00">Infrastruktura::Matrix#hs&#45;ldz&#45;offtopic:hackerspace.pl</text>
</g>
<!-- thinkofher&#45;&#45;Infrastruktura::Matrix#hs&#45;ldz&#45;offtopic:hackerspace.pl -->
<g id="edge50" class="edge">
<title>thinkofher&#45;&#45;Infrastruktura::Matrix#hs&#45;ldz&#45;offtopic:hackerspace.pl</title>
<path fill="none" stroke="#2bd500" d="M112.46,-413C197.39,-413 384.82,-413 384.82,-413 384.82,-413 384.82,-338.44 384.82,-322.13"/>
</g>
<!-- Infrastruktura::Matrix#hs&#45;ldz:hackerspace.pl -->
<g id="node44" class="node">
<title>Infrastruktura::Matrix#hs&#45;ldz:hackerspace.pl</title>
<ellipse fill="none" stroke="black" cx="639.91" cy="-362" rx="221.76" ry="18"/>
<text text-anchor="middle" x="639.91" y="-358.3" font-family="Times,serif" font-size="14.00">Infrastruktura::Matrix#hs&#45;ldz:hackerspace.pl</text>
</g>
<!-- thinkofher&#45;&#45;Infrastruktura::Matrix#hs&#45;ldz:hackerspace.pl -->
<g id="edge51" class="edge">
<title>thinkofher&#45;&#45;Infrastruktura::Matrix#hs&#45;ldz:hackerspace.pl</title>
<path fill="none" stroke="#2bd500" d="M122.82,-416.83C122.82,-399.13 122.82,-362 122.82,-362 122.82,-362 277.75,-362 417.99,-362"/>
</g>
<!-- Piotrek_P -->
<g id="node45" class="node">
<title>Piotrek_P</title>
<ellipse fill="none" stroke="black" cx="71.49" cy="-835" rx="55.49" ry="18"/>
<text text-anchor="middle" x="71.49" y="-831.3" font-family="Times,serif" font-size="14.00">Piotrek_P</text>
</g>
<!-- Piotrek_P&#45;&#45;Miejsce::Miejsce#Klucze do spejsu -->
<g id="edge58" class="edge">
<title>Piotrek_P&#45;&#45;Miejsce::Miejsce#Klucze do spejsu</title>
<path fill="none" stroke="#0061f2" d="M121.82,-842.67C121.82,-857.14 121.82,-887 121.82,-887 121.82,-887 501.82,-887 501.82,-887 501.82,-887 501.82,-931.68 501.82,-952.97"/>
</g>
<!-- polimerek -->
<g id="node46" class="node">
<title>polimerek</title>
<ellipse fill="none" stroke="black" cx="71.49" cy="-964" rx="57.39" ry="18"/>
<text text-anchor="middle" x="71.49" y="-960.3" font-family="Times,serif" font-size="14.00">polimerek</text>
</g>
<!-- polimerek&#45;&#45;Miejsce::Miejsce#Klucze do spejsu -->
<g id="edge59" class="edge">
<title>polimerek&#45;&#45;Miejsce::Miejsce#Klucze do spejsu</title>
<path fill="none" stroke="#c60077" d="M123.19,-971.71C203.92,-971.71 363.16,-971.71 483.64,-971.71"/>
</g>
<!-- kotlovecrafta -->
<g id="node47" class="node">
<title>kotlovecrafta</title>
<ellipse fill="none" stroke="black" cx="71.49" cy="-921" rx="71.49" ry="18"/>
<text text-anchor="middle" x="71.49" y="-917.3" font-family="Times,serif" font-size="14.00">kotlovecrafta</text>
</g>
<!-- kotlovecrafta&#45;&#45;Miejsce::Miejsce#Klucze do spejsu -->
<g id="edge60" class="edge">
<title>kotlovecrafta&#45;&#45;Miejsce::Miejsce#Klucze do spejsu</title>
<path fill="none" stroke="#b6e400" d="M136.82,-928.53C136.82,-941.47 136.82,-966.57 136.82,-966.57 136.82,-966.57 322.74,-966.57 468.53,-966.57"/>
</g>
<!-- sp7adg -->
<g id="node48" class="node">
<title>sp7adg</title>
<ellipse fill="none" stroke="black" cx="71.49" cy="-878" rx="44.39" ry="18"/>
<text text-anchor="middle" x="71.49" y="-874.3" font-family="Times,serif" font-size="14.00">sp7adg</text>
</g>
<!-- sp7adg&#45;&#45;Miejsce::Miejsce#Klucze do spejsu -->
<g id="edge61" class="edge">
<title>sp7adg&#45;&#45;Miejsce::Miejsce#Klucze do spejsu</title>
<path fill="none" stroke="#00ffff" d="M100.89,-891.5C195.32,-891.5 484.82,-891.5 484.82,-891.5 484.82,-891.5 484.82,-937.09 484.82,-955.96"/>
</g>
<!-- kszmigiel -->
<g id="node49" class="node">
<title>kszmigiel</title>
<ellipse fill="none" stroke="black" cx="71.49" cy="-276" rx="54.69" ry="18"/>
<text text-anchor="middle" x="71.49" y="-272.3" font-family="Times,serif" font-size="14.00">kszmigiel</text>
</g>
<!-- kszmigiel&#45;&#45;Infrastruktura::Telegram#posty: t.me/hakierspejs_spam -->
<g id="edge62" class="edge">
<title>kszmigiel&#45;&#45;Infrastruktura::Telegram#posty: t.me/hakierspejs_spam</title>
<path fill="none" stroke="#ab00d5" d="M123.82,-270.86C123.82,-262.41 123.82,-246.5 123.82,-246.5 123.82,-246.5 304.27,-246.5 451.76,-246.5"/>
</g>
<!-- kszmigiel&#45;&#45;Infrastruktura::Github#Github -->
<g id="edge63" class="edge">
<title>kszmigiel&#45;&#45;Infrastruktura::Github#Github</title>
<path fill="none" stroke="#ab00d5" d="M114.82,-287.09C114.82,-317.69 114.82,-401 114.82,-401 114.82,-401 334.28,-401 489.44,-401"/>
</g>
<!-- kszmigiel&#45;&#45;Marketing&#45;i&#45;media&#45;spoecznociowe# -->
<g id="edge65" class="edge">
<title>kszmigiel&#45;&#45;Marketing&#45;i&#45;media&#45;spoecznociowe#</title>
<path fill="none" stroke="#ab00d5" d="M121.82,-268.97C121.82,-249.05 121.82,-193.6 121.82,-193.6 121.82,-193.6 310.53,-193.6 460.16,-193.6"/>
</g>
<!-- kszmigiel&#45;&#45;Infrastruktura::Telegram#G贸wny: t.me/hakierspejs -->
<g id="edge66" class="edge">
<title>kszmigiel&#45;&#45;Infrastruktura::Telegram#G贸wny: t.me/hakierspejs</title>
<path fill="none" stroke="#ab00d5" d="M118.82,-285.24C118.82,-303.08 118.82,-340.5 118.82,-340.5 118.82,-340.5 403.82,-340.5 403.82,-340.5 403.82,-340.5 403.82,-418.45 403.82,-441.6"/>
</g>
<!-- kszmigiel&#45;&#45;Marketing&#45;i&#45;media&#45;spoecznociowe#Naklejki -->
<g id="edge64" class="edge">
<title>kszmigiel&#45;&#45;Marketing&#45;i&#45;media&#45;spoecznociowe#Naklejki</title>
<path fill="none" stroke="#ab00d5" d="M123.19,-270C192.57,-270 319.91,-270 430.82,-270"/>
</g>
<!-- q3k -->
<g id="node50" class="node">
<title>q3k</title>
<ellipse fill="none" stroke="black" cx="71.49" cy="-792" rx="27.9" ry="18"/>
<text text-anchor="middle" x="71.49" y="-788.3" font-family="Times,serif" font-size="14.00">q3k</text>
</g>
<!-- q3k&#45;&#45;Kanay&#45;komunikacji# -->
<g id="edge67" class="edge">
<title>q3k&#45;&#45;Kanay&#45;komunikacji#</title>
<path fill="none" stroke="#f29100" d="M95.82,-801C114.4,-801 136.82,-801 136.82,-801 136.82,-801 136.82,-878 136.82,-878 136.82,-878 383.47,-878 531.36,-878"/>
</g>
<!-- q3k&#45;&#45;Infrastruktura::Domeny#Domeny -->
<g id="edge69" class="edge">
<title>q3k&#45;&#45;Infrastruktura::Domeny#Domeny</title>
<path fill="none" stroke="#f29100" d="M99.45,-792C126.62,-792 163.82,-792 163.82,-792 163.82,-792 163.82,-1007 163.82,-1007 163.82,-1007 335.55,-1007 472.73,-1007"/>
</g>
<!-- q3k&#45;&#45;Marketing&#45;i&#45;media&#45;spoecznociowe#Logo nr. 2 -->
<g id="edge68" class="edge">
<title>q3k&#45;&#45;Marketing&#45;i&#45;media&#45;spoecznociowe#Logo nr. 2</title>
<path fill="none" stroke="#f29100" d="M71.82,-773.85C71.82,-750.24 71.82,-712 71.82,-712 71.82,-712 262.98,-712 423.52,-712"/>
</g>
<!-- BluRaf -->
<g id="node51" class="node">
<title>BluRaf</title>
<ellipse fill="none" stroke="black" cx="71.49" cy="-512" rx="42.49" ry="18"/>
<text text-anchor="middle" x="71.49" y="-508.3" font-family="Times,serif" font-size="14.00">BluRaf</text>
</g>
<!-- BluRaf&#45;&#45;Infrastruktura::IRC#IRC -->
<g id="edge70" class="edge">
<title>BluRaf&#45;&#45;Infrastruktura::IRC#IRC</title>
<path fill="none" stroke="#00c64f" d="M100.07,-525.33C177.85,-525.33 396.48,-525.33 530.45,-525.33"/>
</g>
<!-- biniu -->
<g id="node52" class="node">
<title>biniu</title>
<ellipse fill="none" stroke="black" cx="71.49" cy="-147" rx="34.39" ry="18"/>
<text text-anchor="middle" x="71.49" y="-143.3" font-family="Times,serif" font-size="14.00">biniu</text>
</g>
<!-- biniu&#45;&#45;Marketing&#45;i&#45;media&#45;spoecznociowe# -->
<g id="edge71" class="edge">
<title>biniu&#45;&#45;Marketing&#45;i&#45;media&#45;spoecznociowe#</title>
<path fill="none" stroke="#2e00e4" d="M104.09,-141C199.22,-141 469.82,-141 469.82,-141 469.82,-141 469.82,-169.72 469.82,-183.19"/>
</g>
<!-- Keij0 -->
<g id="node53" class="node">
<title>Keij0</title>
<ellipse fill="none" stroke="black" cx="71.49" cy="-104" rx="34.39" ry="18"/>
<text text-anchor="middle" x="71.49" y="-100.3" font-family="Times,serif" font-size="14.00">Keij0</text>
</g>
<!-- Keij0&#45;&#45;Marketing&#45;i&#45;media&#45;spoecznociowe# -->
<g id="edge72" class="edge">
<title>Keij0&#45;&#45;Marketing&#45;i&#45;media&#45;spoecznociowe#</title>
<path fill="none" stroke="#ff0000" d="M104.01,-110C109.69,-110 113.82,-110 113.82,-110 113.82,-110 113.82,-179.2 113.82,-179.2 113.82,-179.2 337.36,-179.2 493.01,-179.2"/>
</g>
</g>
</svg>
