<?xml version="1.0" encoding="UTF-8" standalone="no"?>
<!DOCTYPE svg PUBLIC "-//W3C//DTD SVG 1.1//EN"
 "http://www.w3.org/Graphics/SVG/1.1/DTD/svg11.dtd">
<!-- Generated by graphviz version 2.43.0 (0)
 -->
<!-- Title: %3 Pages: 1 -->
<svg width="1044pt" height="1205pt"
 viewBox="0.00 0.00 1043.72 1205.00" xmlns="http://www.w3.org/2000/svg" xmlns:xlink="http://www.w3.org/1999/xlink">
<g id="graph0" class="graph" transform="scale(1 1) rotate(0) translate(4 1201)">
<title>%3</title>
<polygon fill="white" stroke="transparent" points="-4,4 -4,-1201 1039.72,-1201 1039.72,4 -4,4"/>
<!-- kpc -->
<g id="node1" class="node">
<title>kpc</title>
<ellipse fill="none" stroke="black" cx="92.94" cy="-1093" rx="27" ry="18"/>
<text text-anchor="middle" x="92.94" y="-1089.3" font-family="Times,serif" font-size="14.00">kpc</text>
</g>
<!-- Infrastruktura::Telegram#posty: t.me/hakierspejs_spam -->
<g id="node2" class="node">
<title>Infrastruktura::Telegram#posty: t.me/hakierspejs_spam</title>
<ellipse fill="none" stroke="black" cx="682.8" cy="-1007" rx="284.05" ry="18"/>
<text text-anchor="middle" x="682.8" y="-1003.3" font-family="Times,serif" font-size="14.00">Infrastruktura::Telegram#posty: t.me/hakierspejs_spam</text>
</g>
<!-- kpc&#45;&#45;Infrastruktura::Telegram#posty: t.me/hakierspejs_spam -->
<g id="edge1" class="edge">
<title>kpc&#45;&#45;Infrastruktura::Telegram#posty: t.me/hakierspejs_spam</title>
<path fill="none" stroke="#ff0000" d="M93.72,-1074.85C93.72,-1051.24 93.72,-1013 93.72,-1013 93.72,-1013 259.36,-1013 414.98,-1013"/>
</g>
<!-- Czaty&#45;HS#HS: posty wyklte -->
<g id="node3" class="node">
<title>Czaty&#45;HS#HS: posty wyklte</title>
<ellipse fill="none" stroke="black" cx="682.8" cy="-1136" rx="157.87" ry="18"/>
<text text-anchor="middle" x="682.8" y="-1132.3" font-family="Times,serif" font-size="14.00">Czaty&#45;HS#HS: posty wyklte</text>
</g>
<!-- kpc&#45;&#45;Czaty&#45;HS#HS: posty wyklte -->
<g id="edge2" class="edge">
<title>kpc&#45;&#45;Czaty&#45;HS#HS: posty wyklte</title>
<path fill="none" stroke="#ff0000" d="M93.72,-1111.49C93.72,-1123.14 93.72,-1136 93.72,-1136 93.72,-1136 350.07,-1136 524.55,-1136"/>
</g>
<!-- Infrastruktura::Telegram#Posty wyklte (celowo bez linka) -->
<g id="node4" class="node">
<title>Infrastruktura::Telegram#Posty wyklte (celowo bez linka)</title>
<ellipse fill="none" stroke="black" cx="682.8" cy="-1093" rx="284.05" ry="18"/>
<text text-anchor="middle" x="682.8" y="-1089.3" font-family="Times,serif" font-size="14.00">Infrastruktura::Telegram#Posty wyklte (celowo bez linka)</text>
</g>
<!-- kpc&#45;&#45;Infrastruktura::Telegram#Posty wyklte (celowo bez linka) -->
<g id="edge3" class="edge">
<title>kpc&#45;&#45;Infrastruktura::Telegram#Posty wyklte (celowo bez linka)</title>
<path fill="none" stroke="#ff0000" d="M120.21,-1093C171.19,-1093 286.01,-1093 398.72,-1093"/>
</g>
<!-- 51 -->
<g id="node5" class="node">
<title>51</title>
<ellipse fill="none" stroke="black" cx="92.94" cy="-1179" rx="27" ry="18"/>
<text text-anchor="middle" x="92.94" y="-1175.3" font-family="Times,serif" font-size="14.00">51</text>
</g>
<!-- Miejsce::Miejsce#Stan obecny -->
<g id="node6" class="node">
<title>Miejsce::Miejsce#Stan obecny</title>
<ellipse fill="none" stroke="black" cx="682.8" cy="-1179" rx="152.97" ry="18"/>
<text text-anchor="middle" x="682.8" y="-1175.3" font-family="Times,serif" font-size="14.00">Miejsce::Miejsce#Stan obecny</text>
</g>
<!-- 51&#45;&#45;Miejsce::Miejsce#Stan obecny -->
<g id="edge4" class="edge">
<title>51&#45;&#45;Miejsce::Miejsce#Stan obecny</title>
<path fill="none" stroke="#2bd500" d="M120.21,-1179C191.81,-1179 389.33,-1179 530.07,-1179"/>
</g>
<!-- d33tah -->
<g id="node7" class="node">
<title>d33tah</title>
<ellipse fill="none" stroke="black" cx="92.94" cy="-684" rx="43.59" ry="18"/>
<text text-anchor="middle" x="92.94" y="-680.3" font-family="Times,serif" font-size="14.00">d33tah</text>
</g>
<!-- d33tah&#45;&#45;Infrastruktura::Telegram#posty: t.me/hakierspejs_spam -->
<g id="edge18" class="edge">
<title>d33tah&#45;&#45;Infrastruktura::Telegram#posty: t.me/hakierspejs_spam</title>
<path fill="none" stroke="#0061f2" d="M129.27,-694C214.61,-694 420.72,-694 420.72,-694 420.72,-694 420.72,-953.28 420.72,-999.87"/>
</g>
<!-- Bazy&#45;danych#Pad -->
<g id="node8" class="node">
<title>Bazy&#45;danych#Pad</title>
<ellipse fill="none" stroke="black" cx="682.8" cy="-620" rx="94.48" ry="18"/>
<text text-anchor="middle" x="682.8" y="-616.3" font-family="Times,serif" font-size="14.00">Bazy&#45;danych#Pad</text>
</g>
<!-- d33tah&#45;&#45;Bazy&#45;danych#Pad -->
<g id="edge5" class="edge">
<title>d33tah&#45;&#45;Bazy&#45;danych#Pad</title>
<path fill="none" stroke="#0061f2" d="M93.72,-665.83C93.72,-646.91 93.72,-620 93.72,-620 93.72,-620 422.07,-620 588.48,-620"/>
</g>
<!-- Miejsce::Miejsce#Klucze do spejsu -->
<g id="node9" class="node">
<title>Miejsce::Miejsce#Klucze do spejsu</title>
<ellipse fill="none" stroke="black" cx="682.8" cy="-835" rx="172.77" ry="18"/>
<text text-anchor="middle" x="682.8" y="-831.3" font-family="Times,serif" font-size="14.00">Miejsce::Miejsce#Klucze do spejsu</text>
</g>
<!-- d33tah&#45;&#45;Miejsce::Miejsce#Klucze do spejsu -->
<g id="edge6" class="edge">
<title>d33tah&#45;&#45;Miejsce::Miejsce#Klucze do spejsu</title>
<path fill="none" stroke="#0061f2" d="M120.49,-698C143.21,-698 171.72,-698 171.72,-698 171.72,-698 171.72,-841 171.72,-841 171.72,-841 370.12,-841 519.69,-841"/>
</g>
<!-- Infrastruktura::Telegram#Spacerspejs: t.me/joinchat/UYf2ONtNj21J1DS6 -->
<g id="node10" class="node">
<title>Infrastruktura::Telegram#Spacerspejs: t.me/joinchat/UYf2ONtNj21J1DS6</title>
<ellipse fill="none" stroke="black" cx="682.8" cy="-534" rx="352.84" ry="18"/>
<text text-anchor="middle" x="682.8" y="-530.3" font-family="Times,serif" font-size="14.00">Infrastruktura::Telegram#Spacerspejs: t.me/joinchat/UYf2ONtNj21J1DS6</text>
</g>
<!-- d33tah&#45;&#45;Infrastruktura::Telegram#Spacerspejs: t.me/joinchat/UYf2ONtNj21J1DS6 -->
<g id="edge7" class="edge">
<title>d33tah&#45;&#45;Infrastruktura::Telegram#Spacerspejs: t.me/joinchat/UYf2ONtNj21J1DS6</title>
<path fill="none" stroke="#0061f2" d="M133.04,-676.71C208.64,-676.71 364.72,-676.71 364.72,-676.71 364.72,-676.71 364.72,-572.27 364.72,-542.08"/>
</g>
<!-- Infrastruktura::IRC#IRC -->
<g id="node11" class="node">
<title>Infrastruktura::IRC#IRC</title>
<ellipse fill="none" stroke="black" cx="682.8" cy="-792" rx="124.58" ry="18"/>
<text text-anchor="middle" x="682.8" y="-788.3" font-family="Times,serif" font-size="14.00">Infrastruktura::IRC#IRC</text>
</g>
<!-- d33tah&#45;&#45;Infrastruktura::IRC#IRC -->
<g id="edge8" class="edge">
<title>d33tah&#45;&#45;Infrastruktura::IRC#IRC</title>
<path fill="none" stroke="#0061f2" d="M125.48,-696C149.39,-696 177.72,-696 177.72,-696 177.72,-696 177.72,-778.67 177.72,-778.67 177.72,-778.67 455.21,-778.67 598.83,-778.67"/>
</g>
<!-- Bazy&#45;danych#Grafana -->
<g id="node12" class="node">
<title>Bazy&#45;danych#Grafana</title>
<ellipse fill="none" stroke="black" cx="682.8" cy="-749" rx="114.28" ry="18"/>
<text text-anchor="middle" x="682.8" y="-745.3" font-family="Times,serif" font-size="14.00">Bazy&#45;danych#Grafana</text>
</g>
<!-- d33tah&#45;&#45;Bazy&#45;danych#Grafana -->
<g id="edge9" class="edge">
<title>d33tah&#45;&#45;Bazy&#45;danych#Grafana</title>
<path fill="none" stroke="#0061f2" d="M93.72,-702.19C93.72,-719.04 93.72,-741.5 93.72,-741.5 93.72,-741.5 409.31,-741.5 578.5,-741.5"/>
</g>
<!-- Infrastruktura::Domeny#Domeny -->
<g id="node13" class="node">
<title>Infrastruktura::Domeny#Domeny</title>
<ellipse fill="none" stroke="black" cx="682.8" cy="-319" rx="167.07" ry="18"/>
<text text-anchor="middle" x="682.8" y="-315.3" font-family="Times,serif" font-size="14.00">Infrastruktura::Domeny#Domeny</text>
</g>
<!-- d33tah&#45;&#45;Infrastruktura::Domeny#Domeny -->
<g id="edge10" class="edge">
<title>d33tah&#45;&#45;Infrastruktura::Domeny#Domeny</title>
<path fill="none" stroke="#0061f2" d="M121.39,-670.29C138,-670.29 155.72,-670.29 155.72,-670.29 155.72,-670.29 155.72,-322.6 155.72,-322.6 155.72,-322.6 364.19,-322.6 518.92,-322.6"/>
</g>
<!-- Infrastruktura::Github#Github -->
<g id="node14" class="node">
<title>Infrastruktura::Github#Github</title>
<ellipse fill="none" stroke="black" cx="682.8" cy="-878" rx="154.07" ry="18"/>
<text text-anchor="middle" x="682.8" y="-874.3" font-family="Times,serif" font-size="14.00">Infrastruktura::Github#Github</text>
</g>
<!-- d33tah&#45;&#45;Infrastruktura::Github#Github -->
<g id="edge11" class="edge">
<title>d33tah&#45;&#45;Infrastruktura::Github#Github</title>
<path fill="none" stroke="#0061f2" d="M112.94,-700C134.18,-700 164.72,-700 164.72,-700 164.72,-700 164.72,-874.4 164.72,-874.4 164.72,-874.4 378.64,-874.4 531.56,-874.4"/>
</g>
<!-- Infrastruktura::Telegram#HS24: t.me/hsl_info -->
<g id="node15" class="node">
<title>Infrastruktura::Telegram#HS24: t.me/hsl_info</title>
<ellipse fill="none" stroke="black" cx="682.8" cy="-706" rx="231.26" ry="18"/>
<text text-anchor="middle" x="682.8" y="-702.3" font-family="Times,serif" font-size="14.00">Infrastruktura::Telegram#HS24: t.me/hsl_info</text>
</g>
<!-- d33tah&#45;&#45;Infrastruktura::Telegram#HS24: t.me/hsl_info -->
<g id="edge12" class="edge">
<title>d33tah&#45;&#45;Infrastruktura::Telegram#HS24: t.me/hsl_info</title>
<path fill="none" stroke="#0061f2" d="M134.42,-690C225.35,-690 444.64,-690 576.72,-690"/>
</g>
<!-- Marketing&#45;i&#45;media&#45;spoecznociowe# -->
<g id="node16" class="node">
<title>Marketing&#45;i&#45;media&#45;spoecznociowe#</title>
<ellipse fill="none" stroke="black" cx="682.8" cy="-276" rx="183.07" ry="18"/>
<text text-anchor="middle" x="682.8" y="-272.3" font-family="Times,serif" font-size="14.00">Marketing&#45;i&#45;media&#45;spoecznociowe#</text>
</g>
<!-- d33tah&#45;&#45;Marketing&#45;i&#45;media&#45;spoecznociowe# -->
<g id="edge13" class="edge">
<title>d33tah&#45;&#45;Marketing&#45;i&#45;media&#45;spoecznociowe#</title>
<path fill="none" stroke="#0061f2" d="M113.86,-668.14C131.78,-668.14 154.72,-668.14 154.72,-668.14 154.72,-668.14 154.72,-279.6 154.72,-279.6 154.72,-279.6 349.88,-279.6 502.91,-279.6"/>
</g>
<!-- Kanay&#45;komunikacji# -->
<g id="node17" class="node">
<title>Kanay&#45;komunikacji#</title>
<ellipse fill="none" stroke="black" cx="682.8" cy="-362" rx="108.58" ry="18"/>
<text text-anchor="middle" x="682.8" y="-358.3" font-family="Times,serif" font-size="14.00">Kanay&#45;komunikacji#</text>
</g>
<!-- d33tah&#45;&#45;Kanay&#45;komunikacji# -->
<g id="edge14" class="edge">
<title>d33tah&#45;&#45;Kanay&#45;komunikacji#</title>
<path fill="none" stroke="#0061f2" d="M126.47,-672.43C142.28,-672.43 157.72,-672.43 157.72,-672.43 157.72,-672.43 157.72,-371 157.72,-371 157.72,-371 437.52,-371 588.63,-371"/>
</g>
<!-- Stowarzyszenie#Zarzd -->
<g id="node18" class="node">
<title>Stowarzyszenie#Zarzd</title>
<ellipse fill="none" stroke="black" cx="682.8" cy="-190" rx="123.48" ry="18"/>
<text text-anchor="middle" x="682.8" y="-186.3" font-family="Times,serif" font-size="14.00">Stowarzyszenie#Zarzd</text>
</g>
<!-- d33tah&#45;&#45;Stowarzyszenie#Zarzd -->
<g id="edge15" class="edge">
<title>d33tah&#45;&#45;Stowarzyszenie#Zarzd</title>
<path fill="none" stroke="#0061f2" d="M130.19,-674.57C172.2,-674.57 234.72,-674.57 234.72,-674.57 234.72,-674.57 234.72,-202 234.72,-202 234.72,-202 459.33,-202 590.5,-202"/>
</g>
<!-- Infrastruktura::Telegram#G贸wny: t.me/hakierspejs -->
<g id="node19" class="node">
<title>Infrastruktura::Telegram#G贸wny: t.me/hakierspejs</title>
<ellipse fill="none" stroke="black" cx="682.8" cy="-921" rx="251.56" ry="18"/>
<text text-anchor="middle" x="682.8" y="-917.3" font-family="Times,serif" font-size="14.00">Infrastruktura::Telegram#G贸wny: t.me/hakierspejs</text>
</g>
<!-- d33tah&#45;&#45;Infrastruktura::Telegram#G贸wny: t.me/hakierspejs -->
<g id="edge16" class="edge">
<title>d33tah&#45;&#45;Infrastruktura::Telegram#G贸wny: t.me/hakierspejs</title>
<path fill="none" stroke="#0061f2" d="M132.27,-692C223.49,-692 441.72,-692 441.72,-692 441.72,-692 441.72,-881.7 441.72,-915.79"/>
</g>
<!-- Infrastruktura::Mariuszbot#Mariuszbot -->
<g id="node20" class="node">
<title>Infrastruktura::Mariuszbot#Mariuszbot</title>
<ellipse fill="none" stroke="black" cx="682.8" cy="-663" rx="196.07" ry="18"/>
<text text-anchor="middle" x="682.8" y="-659.3" font-family="Times,serif" font-size="14.00">Infrastruktura::Mariuszbot#Mariuszbot</text>
</g>
<!-- d33tah&#45;&#45;Infrastruktura::Mariuszbot#Mariuszbot -->
<g id="edge17" class="edge">
<title>d33tah&#45;&#45;Infrastruktura::Mariuszbot#Mariuszbot</title>
<path fill="none" stroke="#0061f2" d="M134.89,-678.86C229.18,-678.86 459.77,-678.86 589.76,-678.86"/>
</g>
<!-- cytP450 -->
<g id="node21" class="node">
<title>cytP450</title>
<ellipse fill="none" stroke="black" cx="92.94" cy="-427" rx="48.99" ry="18"/>
<text text-anchor="middle" x="92.94" y="-423.3" font-family="Times,serif" font-size="14.00">cytP450</text>
</g>
<!-- cytP450&#45;&#45;Miejsce::Miejsce#Klucze do spejsu -->
<g id="edge20" class="edge">
<title>cytP450&#45;&#45;Miejsce::Miejsce#Klucze do spejsu</title>
<path fill="none" stroke="#c60077" d="M123.02,-441.25C145.99,-441.25 173.72,-441.25 173.72,-441.25 173.72,-441.25 173.72,-829 173.72,-829 173.72,-829 370.72,-829 519.63,-829"/>
</g>
<!-- cytP450&#45;&#45;Infrastruktura::Domeny#Domeny -->
<g id="edge19" class="edge">
<title>cytP450&#45;&#45;Infrastruktura::Domeny#Domeny</title>
<path fill="none" stroke="#c60077" d="M121.95,-412.5C221.89,-412.5 545.72,-412.5 545.72,-412.5 545.72,-412.5 545.72,-353.71 545.72,-329.36"/>
</g>
<!-- cytP450&#45;&#45;Kanay&#45;komunikacji# -->
<g id="edge24" class="edge">
<title>cytP450&#45;&#45;Kanay&#45;komunikacji#</title>
<path fill="none" stroke="#c60077" d="M131.69,-416C248.09,-416 586.72,-416 586.72,-416 586.72,-416 586.72,-385.62 586.72,-370.44"/>
</g>
<!-- Przegld&#45;lokali&#45;na&#45;wynajem&#45;w&#45;odzi.&#45;Fundusz&#45;1000&#45;&#45;&#45;1500.#Bot Aleksego -->
<g id="node22" class="node">
<title>Przegld&#45;lokali&#45;na&#45;wynajem&#45;w&#45;odzi.&#45;Fundusz&#45;1000&#45;&#45;&#45;1500.#Bot Aleksego</title>
<ellipse fill="none" stroke="black" cx="682.8" cy="-491" rx="351.74" ry="18"/>
<text text-anchor="middle" x="682.8" y="-487.3" font-family="Times,serif" font-size="14.00">Przegld&#45;lokali&#45;na&#45;wynajem&#45;w&#45;odzi.&#45;Fundusz&#45;1000&#45;&#45;&#45;1500.#Bot Aleksego</text>
</g>
<!-- cytP450&#45;&#45;Przegld&#45;lokali&#45;na&#45;wynajem&#45;w&#45;odzi.&#45;Fundusz&#45;1000&#45;&#45;&#45;1500.#Bot Aleksego -->
<g id="edge21" class="edge">
<title>cytP450&#45;&#45;Przegld&#45;lokali&#45;na&#45;wynajem&#45;w&#45;odzi.&#45;Fundusz&#45;1000&#45;&#45;&#45;1500.#Bot Aleksego</title>
<path fill="none" stroke="#c60077" d="M132.63,-437.5C211.99,-437.5 382.72,-437.5 382.72,-437.5 382.72,-437.5 382.72,-465.74 382.72,-481.19"/>
</g>
<!-- Chciejlista#Elektronika (w sensie urzdze konsumenckich) -->
<g id="node23" class="node">
<title>Chciejlista#Elektronika (w sensie urzdze konsumenckich)</title>
<ellipse fill="none" stroke="black" cx="682.8" cy="-448" rx="289.75" ry="18"/>
<text text-anchor="middle" x="682.8" y="-444.3" font-family="Times,serif" font-size="14.00">Chciejlista#Elektronika (w sensie urzdze konsumenckich)</text>
</g>
<!-- cytP450&#45;&#45;Chciejlista#Elektronika (w sensie urzdze konsumenckich) -->
<g id="edge22" class="edge">
<title>cytP450&#45;&#45;Chciejlista#Elektronika (w sensie urzdze konsumenckich)</title>
<path fill="none" stroke="#c60077" d="M138.25,-433.75C215.87,-433.75 378.25,-433.75 505.59,-433.75"/>
</g>
<!-- Chciejlista#DIY -->
<g id="node24" class="node">
<title>Chciejlista#DIY</title>
<ellipse fill="none" stroke="black" cx="682.8" cy="-405" rx="83.69" ry="18"/>
<text text-anchor="middle" x="682.8" y="-401.3" font-family="Times,serif" font-size="14.00">Chciejlista#DIY</text>
</g>
<!-- cytP450&#45;&#45;Chciejlista#DIY -->
<g id="edge23" class="edge">
<title>cytP450&#45;&#45;Chciejlista#DIY</title>
<path fill="none" stroke="#c60077" d="M137.28,-419.5C244.98,-419.5 519.86,-419.5 633,-419.5"/>
</g>
<!-- pmysl -->
<g id="node25" class="node">
<title>pmysl</title>
<ellipse fill="none" stroke="black" cx="92.94" cy="-770" rx="38.19" ry="18"/>
<text text-anchor="middle" x="92.94" y="-766.3" font-family="Times,serif" font-size="14.00">pmysl</text>
</g>
<!-- pmysl&#45;&#45;Miejsce::Miejsce#Klucze do spejsu -->
<g id="edge26" class="edge">
<title>pmysl&#45;&#45;Miejsce::Miejsce#Klucze do spejsu</title>
<path fill="none" stroke="#b6e400" d="M118.93,-783.33C213.63,-783.33 534.72,-783.33 534.72,-783.33 534.72,-783.33 534.72,-810.61 534.72,-825.52"/>
</g>
<!-- pmysl&#45;&#45;Infrastruktura::IRC#IRC -->
<g id="edge27" class="edge">
<title>pmysl&#45;&#45;Infrastruktura::IRC#IRC</title>
<path fill="none" stroke="#b6e400" d="M123.41,-781C207.75,-781 447.04,-781 583.77,-781"/>
</g>
<!-- pmysl&#45;&#45;Bazy&#45;danych#Grafana -->
<g id="edge30" class="edge">
<title>pmysl&#45;&#45;Bazy&#45;danych#Grafana</title>
<path fill="none" stroke="#b6e400" d="M128.51,-763.25C223.78,-763.25 486.06,-763.25 612.65,-763.25"/>
</g>
<!-- pmysl&#45;&#45;Infrastruktura::Github#Github -->
<g id="edge28" class="edge">
<title>pmysl&#45;&#45;Infrastruktura::Github#Github</title>
<path fill="none" stroke="#b6e400" d="M111.91,-785.67C132.87,-785.67 163.72,-785.67 163.72,-785.67 163.72,-785.67 163.72,-881.6 163.72,-881.6 163.72,-881.6 378.38,-881.6 531.62,-881.6"/>
</g>
<!-- pmysl&#45;&#45;Kanay&#45;komunikacji# -->
<g id="edge29" class="edge">
<title>pmysl&#45;&#45;Kanay&#45;komunikacji#</title>
<path fill="none" stroke="#b6e400" d="M116.67,-755.75C135.87,-755.75 159.72,-755.75 159.72,-755.75 159.72,-755.75 159.72,-375.5 159.72,-375.5 159.72,-375.5 467.52,-375.5 610.89,-375.5"/>
</g>
<!-- Bazy&#45;danych# -->
<g id="node26" class="node">
<title>Bazy&#45;danych#</title>
<ellipse fill="none" stroke="black" cx="682.8" cy="-577" rx="77.19" ry="18"/>
<text text-anchor="middle" x="682.8" y="-573.3" font-family="Times,serif" font-size="14.00">Bazy&#45;danych#</text>
</g>
<!-- pmysl&#45;&#45;Bazy&#45;danych# -->
<g id="edge25" class="edge">
<title>pmysl&#45;&#45;Bazy&#45;danych#</title>
<path fill="none" stroke="#b6e400" d="M124.11,-759.5C142.31,-759.5 161.72,-759.5 161.72,-759.5 161.72,-759.5 161.72,-583 161.72,-583 161.72,-583 466.39,-583 609.8,-583"/>
</g>
<!-- kszmigiel -->
<g id="node27" class="node">
<title>kszmigiel</title>
<ellipse fill="none" stroke="black" cx="92.94" cy="-964" rx="54.69" ry="18"/>
<text text-anchor="middle" x="92.94" y="-960.3" font-family="Times,serif" font-size="14.00">kszmigiel</text>
</g>
<!-- kszmigiel&#45;&#45;Infrastruktura::Telegram#posty: t.me/hakierspejs_spam -->
<g id="edge35" class="edge">
<title>kszmigiel&#45;&#45;Infrastruktura::Telegram#posty: t.me/hakierspejs_spam</title>
<path fill="none" stroke="#00ffff" d="M138.72,-974.11C138.72,-985.07 138.72,-1001 138.72,-1001 138.72,-1001 277.41,-1001 414.75,-1001"/>
</g>
<!-- kszmigiel&#45;&#45;Miejsce::Miejsce#Klucze do spejsu -->
<g id="edge31" class="edge">
<title>kszmigiel&#45;&#45;Miejsce::Miejsce#Klucze do spejsu</title>
<path fill="none" stroke="#00ffff" d="M137.72,-953.64C137.72,-935.4 137.72,-899.5 137.72,-899.5 137.72,-899.5 519.72,-899.5 519.72,-899.5 519.72,-899.5 519.72,-857.73 519.72,-841.42"/>
</g>
<!-- kszmigiel&#45;&#45;Marketing&#45;i&#45;media&#45;spoecznociowe# -->
<g id="edge33" class="edge">
<title>kszmigiel&#45;&#45;Marketing&#45;i&#45;media&#45;spoecznociowe#</title>
<path fill="none" stroke="#00ffff" d="M144.47,-958C165.39,-958 184.72,-958 184.72,-958 184.72,-958 184.72,-290.4 184.72,-290.4 184.72,-290.4 425.86,-290.4 572.57,-290.4"/>
</g>
<!-- kszmigiel&#45;&#45;Infrastruktura::Telegram#G贸wny: t.me/hakierspejs -->
<g id="edge34" class="edge">
<title>kszmigiel&#45;&#45;Infrastruktura::Telegram#G贸wny: t.me/hakierspejs</title>
<path fill="none" stroke="#00ffff" d="M142.72,-956.56C142.72,-947.82 142.72,-934.5 142.72,-934.5 142.72,-934.5 357.66,-934.5 516.35,-934.5"/>
</g>
<!-- Marketing&#45;i&#45;media&#45;spoecznociowe#Naklejki -->
<g id="node28" class="node">
<title>Marketing&#45;i&#45;media&#45;spoecznociowe#Naklejki</title>
<ellipse fill="none" stroke="black" cx="682.8" cy="-1050" rx="221.76" ry="18"/>
<text text-anchor="middle" x="682.8" y="-1046.3" font-family="Times,serif" font-size="14.00">Marketing&#45;i&#45;media&#45;spoecznociowe#Naklejki</text>
</g>
<!-- kszmigiel&#45;&#45;Marketing&#45;i&#45;media&#45;spoecznociowe#Naklejki -->
<g id="edge32" class="edge">
<title>kszmigiel&#45;&#45;Marketing&#45;i&#45;media&#45;spoecznociowe#Naklejki</title>
<path fill="none" stroke="#00ffff" d="M129.72,-977.44C129.72,-1001.62 129.72,-1050 129.72,-1050 129.72,-1050 307.16,-1050 461.03,-1050"/>
</g>
<!-- BluRaf -->
<g id="node29" class="node">
<title>BluRaf</title>
<ellipse fill="none" stroke="black" cx="92.94" cy="-921" rx="42.49" ry="18"/>
<text text-anchor="middle" x="92.94" y="-917.3" font-family="Times,serif" font-size="14.00">BluRaf</text>
</g>
<!-- BluRaf&#45;&#45;Infrastruktura::Telegram#posty: t.me/hakierspejs_spam -->
<g id="edge40" class="edge">
<title>BluRaf&#45;&#45;Infrastruktura::Telegram#posty: t.me/hakierspejs_spam</title>
<path fill="none" stroke="#ab00d5" d="M134.03,-925.5C219.74,-925.5 409.72,-925.5 409.72,-925.5 409.72,-925.5 409.72,-983.52 409.72,-1001.65"/>
</g>
<!-- BluRaf&#45;&#45;Infrastruktura::IRC#IRC -->
<g id="edge36" class="edge">
<title>BluRaf&#45;&#45;Infrastruktura::IRC#IRC</title>
<path fill="none" stroke="#ab00d5" d="M129.55,-912C149.73,-912 170.72,-912 170.72,-912 170.72,-912 170.72,-799 170.72,-799 170.72,-799 416.56,-799 567.56,-799"/>
</g>
<!-- BluRaf&#45;&#45;Marketing&#45;i&#45;media&#45;spoecznociowe# -->
<g id="edge37" class="edge">
<title>BluRaf&#45;&#45;Marketing&#45;i&#45;media&#45;spoecznociowe#</title>
<path fill="none" stroke="#ab00d5" d="M121.16,-907.5C142.7,-907.5 168.72,-907.5 168.72,-907.5 168.72,-907.5 168.72,-286.8 168.72,-286.8 168.72,-286.8 384.23,-286.8 536.18,-286.8"/>
</g>
<!-- BluRaf&#45;&#45;Infrastruktura::Telegram#G贸wny: t.me/hakierspejs -->
<g id="edge39" class="edge">
<title>BluRaf&#45;&#45;Infrastruktura::Telegram#G贸wny: t.me/hakierspejs</title>
<path fill="none" stroke="#ab00d5" d="M135.36,-921C197.64,-921 318.63,-921 431.06,-921"/>
</g>
<!-- Kanay&#45;komunikacji#Mumble -->
<g id="node30" class="node">
<title>Kanay&#45;komunikacji#Mumble</title>
<ellipse fill="none" stroke="black" cx="682.8" cy="-964" rx="146.77" ry="18"/>
<text text-anchor="middle" x="682.8" y="-960.3" font-family="Times,serif" font-size="14.00">Kanay&#45;komunikacji#Mumble</text>
</g>
<!-- BluRaf&#45;&#45;Kanay&#45;komunikacji#Mumble -->
<g id="edge38" class="edge">
<title>BluRaf&#45;&#45;Kanay&#45;komunikacji#Mumble</title>
<path fill="none" stroke="#ab00d5" d="M129.72,-930C154.51,-930 182.72,-930 182.72,-930 182.72,-930 182.72,-970 182.72,-970 182.72,-970 396.17,-970 544.17,-970"/>
</g>
<!-- Martti25 -->
<g id="node31" class="node">
<title>Martti25</title>
<ellipse fill="none" stroke="black" cx="92.94" cy="-878" rx="51.99" ry="18"/>
<text text-anchor="middle" x="92.94" y="-874.3" font-family="Times,serif" font-size="14.00">Martti25</text>
</g>
<!-- Martti25&#45;&#45;Infrastruktura::Github#Github -->
<g id="edge42" class="edge">
<title>Martti25&#45;&#45;Infrastruktura::Github#Github</title>
<path fill="none" stroke="#f29100" d="M134.89,-888.8C222.21,-888.8 426.4,-888.8 559.36,-888.8"/>
</g>
<!-- Martti25&#45;&#45;Marketing&#45;i&#45;media&#45;spoecznociowe# -->
<g id="edge43" class="edge">
<title>Martti25&#45;&#45;Marketing&#45;i&#45;media&#45;spoecznociowe#</title>
<path fill="none" stroke="#f29100" d="M134.57,-867.2C151.31,-867.2 166.72,-867.2 166.72,-867.2 166.72,-867.2 166.72,-283.2 166.72,-283.2 166.72,-283.2 363.93,-283.2 514.53,-283.2"/>
</g>
<!-- Martti25&#45;&#45;Infrastruktura::Telegram#G贸wny: t.me/hakierspejs -->
<g id="edge41" class="edge">
<title>Martti25&#45;&#45;Infrastruktura::Telegram#G贸wny: t.me/hakierspejs</title>
<path fill="none" stroke="#f29100" d="M140.72,-885.42C140.72,-896.61 140.72,-916.5 140.72,-916.5 140.72,-916.5 295.12,-916.5 439.12,-916.5"/>
</g>
<!-- q3k -->
<g id="node32" class="node">
<title>q3k</title>
<ellipse fill="none" stroke="black" cx="92.94" cy="-319" rx="27.9" ry="18"/>
<text text-anchor="middle" x="92.94" y="-315.3" font-family="Times,serif" font-size="14.00">q3k</text>
</g>
<!-- q3k&#45;&#45;Infrastruktura::Domeny#Domeny -->
<g id="edge45" class="edge">
<title>q3k&#45;&#45;Infrastruktura::Domeny#Domeny</title>
<path fill="none" stroke="#00c64f" d="M120.6,-315.4C190.64,-315.4 379.34,-315.4 518.9,-315.4"/>
</g>
<!-- q3k&#45;&#45;Kanay&#45;komunikacji# -->
<g id="edge44" class="edge">
<title>q3k&#45;&#45;Kanay&#45;komunikacji#</title>
<path fill="none" stroke="#00c64f" d="M115.55,-329.8C141.56,-329.8 180.72,-329.8 180.72,-329.8 180.72,-329.8 180.72,-353 180.72,-353 180.72,-353 443.28,-353 588.66,-353"/>
</g>
<!-- Marketing&#45;i&#45;media&#45;spoecznociowe#Logo nr 2 -->
<g id="node33" class="node">
<title>Marketing&#45;i&#45;media&#45;spoecznociowe#Logo nr 2</title>
<ellipse fill="none" stroke="black" cx="682.8" cy="-104" rx="227.46" ry="18"/>
<text text-anchor="middle" x="682.8" y="-100.3" font-family="Times,serif" font-size="14.00">Marketing&#45;i&#45;media&#45;spoecznociowe#Logo nr 2</text>
</g>
<!-- q3k&#45;&#45;Marketing&#45;i&#45;media&#45;spoecznociowe#Logo nr 2 -->
<g id="edge46" class="edge">
<title>q3k&#45;&#45;Marketing&#45;i&#45;media&#45;spoecznociowe#Logo nr 2</title>
<path fill="none" stroke="#00c64f" d="M115.54,-308.2C178.74,-308.2 352.72,-308.2 352.72,-308.2 352.72,-308.2 352.72,-100.4 352.72,-100.4 352.72,-100.4 400.6,-100.4 459.89,-100.4"/>
</g>
<!-- thinkofher -->
<g id="node34" class="node">
<title>thinkofher</title>
<ellipse fill="none" stroke="black" cx="92.94" cy="-362" rx="59.29" ry="18"/>
<text text-anchor="middle" x="92.94" y="-358.3" font-family="Times,serif" font-size="14.00">thinkofher</text>
</g>
<!-- thinkofher&#45;&#45;Infrastruktura::IRC#IRC -->
<g id="edge48" class="edge">
<title>thinkofher&#45;&#45;Infrastruktura::IRC#IRC</title>
<path fill="none" stroke="#2e00e4" d="M152.21,-362C207.89,-362 282.72,-362 282.72,-362 282.72,-362 282.72,-776.33 282.72,-776.33 282.72,-776.33 508.94,-776.33 621.17,-776.33"/>
</g>
<!-- thinkofher&#45;&#45;Marketing&#45;i&#45;media&#45;spoecznociowe# -->
<g id="edge50" class="edge">
<title>thinkofher&#45;&#45;Marketing&#45;i&#45;media&#45;spoecznociowe#</title>
<path fill="none" stroke="#2e00e4" d="M150.72,-357.85C150.72,-340.67 150.72,-276 150.72,-276 150.72,-276 345.46,-276 499.32,-276"/>
</g>
<!-- thinkofher&#45;&#45;Kanay&#45;komunikacji# -->
<g id="edge52" class="edge">
<title>thinkofher&#45;&#45;Kanay&#45;komunikacji#</title>
<path fill="none" stroke="#2e00e4" d="M150.3,-357.5C249.1,-357.5 452.75,-357.5 577.6,-357.5"/>
</g>
<!-- thinkofher&#45;&#45;Stowarzyszenie#Zarzd -->
<g id="edge51" class="edge">
<title>thinkofher&#45;&#45;Stowarzyszenie#Zarzd</title>
<path fill="none" stroke="#2e00e4" d="M145.72,-353.54C145.72,-319.71 145.72,-196 145.72,-196 145.72,-196 408.3,-196 566.26,-196"/>
</g>
<!-- thinkofher&#45;&#45;Bazy&#45;danych# -->
<g id="edge47" class="edge">
<title>thinkofher&#45;&#45;Bazy&#45;danych#</title>
<path fill="none" stroke="#2e00e4" d="M150.43,-366.5C164.56,-366.5 175.72,-366.5 175.72,-366.5 175.72,-366.5 175.72,-571 175.72,-571 175.72,-571 469.56,-571 609.88,-571"/>
</g>
<!-- Infrastruktura::Matrix#hs&#45;ldz:hackerspace.pl -->
<g id="node35" class="node">
<title>Infrastruktura::Matrix#hs&#45;ldz:hackerspace.pl</title>
<ellipse fill="none" stroke="black" cx="682.8" cy="-147" rx="221.76" ry="18"/>
<text text-anchor="middle" x="682.8" y="-143.3" font-family="Times,serif" font-size="14.00">Infrastruktura::Matrix#hs&#45;ldz:hackerspace.pl</text>
</g>
<!-- thinkofher&#45;&#45;Infrastruktura::Matrix#hs&#45;ldz:hackerspace.pl -->
<g id="edge49" class="edge">
<title>thinkofher&#45;&#45;Infrastruktura::Matrix#hs&#45;ldz:hackerspace.pl</title>
<path fill="none" stroke="#2e00e4" d="M132.17,-348.5C206.99,-348.5 362.72,-348.5 362.72,-348.5 362.72,-348.5 362.72,-147 362.72,-147 362.72,-147 406.11,-147 460.93,-147"/>
</g>
<!-- Infrastruktura::Matrix#hs&#45;ldz&#45;offtopic:hackerspace.pl -->
<g id="node36" class="node">
<title>Infrastruktura::Matrix#hs&#45;ldz&#45;offtopic:hackerspace.pl</title>
<ellipse fill="none" stroke="black" cx="682.8" cy="-233" rx="258.85" ry="18"/>
<text text-anchor="middle" x="682.8" y="-229.3" font-family="Times,serif" font-size="14.00">Infrastruktura::Matrix#hs&#45;ldz&#45;offtopic:hackerspace.pl</text>
</g>
<!-- thinkofher&#45;&#45;Infrastruktura::Matrix#hs&#45;ldz&#45;offtopic:hackerspace.pl -->
<g id="edge53" class="edge">
<title>thinkofher&#45;&#45;Infrastruktura::Matrix#hs&#45;ldz&#45;offtopic:hackerspace.pl</title>
<path fill="none" stroke="#2e00e4" d="M146.72,-354.32C146.72,-326.55 146.72,-233 146.72,-233 146.72,-233 286.83,-233 423.79,-233"/>
</g>
<!-- gazowany_smalec -->
<g id="node37" class="node">
<title>gazowany_smalec</title>
<ellipse fill="none" stroke="black" cx="92.94" cy="-147" rx="92.88" ry="18"/>
<text text-anchor="middle" x="92.94" y="-143.3" font-family="Times,serif" font-size="14.00">gazowany_smalec</text>
</g>
<!-- gazowany_smalec&#45;&#45;Stowarzyszenie#Zarzd -->
<g id="edge54" class="edge">
<title>gazowany_smalec&#45;&#45;Stowarzyszenie#Zarzd</title>
<path fill="none" stroke="#ff0000" d="M179.72,-153.72C179.72,-165.81 179.72,-190 179.72,-190 179.72,-190 410.13,-190 559.09,-190"/>
</g>
<!-- nuke -->
<g id="node38" class="node">
<title>nuke</title>
<ellipse fill="none" stroke="black" cx="92.94" cy="-61" rx="33.29" ry="18"/>
<text text-anchor="middle" x="92.94" y="-57.3" font-family="Times,serif" font-size="14.00">nuke</text>
</g>
<!-- Stowarzyszenie#Komisja Rewizyjna -->
<g id="node39" class="node">
<title>Stowarzyszenie#Komisja Rewizyjna</title>
<ellipse fill="none" stroke="black" cx="682.8" cy="-61" rx="178.17" ry="18"/>
<text text-anchor="middle" x="682.8" y="-57.3" font-family="Times,serif" font-size="14.00">Stowarzyszenie#Komisja Rewizyjna</text>
</g>
<!-- nuke&#45;&#45;Stowarzyszenie#Komisja Rewizyjna -->
<g id="edge55" class="edge">
<title>nuke&#45;&#45;Stowarzyszenie#Komisja Rewizyjna</title>
<path fill="none" stroke="#2bd500" d="M126.35,-61C197.94,-61 370.55,-61 504.69,-61"/>
</g>
<!-- Keij0 -->
<g id="node40" class="node">
<title>Keij0</title>
<ellipse fill="none" stroke="black" cx="92.94" cy="-104" rx="34.39" ry="18"/>
<text text-anchor="middle" x="92.94" y="-100.3" font-family="Times,serif" font-size="14.00">Keij0</text>
</g>
<!-- Keij0&#45;&#45;Marketing&#45;i&#45;media&#45;spoecznociowe# -->
<g id="edge57" class="edge">
<title>Keij0&#45;&#45;Marketing&#45;i&#45;media&#45;spoecznociowe#</title>
<path fill="none" stroke="#0061f2" d="M120.53,-114.8C191.12,-114.8 372.72,-114.8 372.72,-114.8 372.72,-114.8 372.72,-261.6 372.72,-261.6 372.72,-261.6 483.48,-261.6 572.61,-261.6"/>
</g>
<!-- Keij0&#45;&#45;Stowarzyszenie#Komisja Rewizyjna -->
<g id="edge56" class="edge">
<title>Keij0&#45;&#45;Stowarzyszenie#Komisja Rewizyjna</title>
<path fill="none" stroke="#0061f2" d="M126.94,-107.6C134.19,-107.6 139.72,-107.6 139.72,-107.6 139.72,-107.6 139.72,-70 139.72,-70 139.72,-70 367.73,-70 528.27,-70"/>
</g>
<!-- pzduniak -->
<g id="node41" class="node">
<title>pzduniak</title>
<ellipse fill="none" stroke="black" cx="92.94" cy="-18" rx="52.79" ry="18"/>
<text text-anchor="middle" x="92.94" y="-14.3" font-family="Times,serif" font-size="14.00">pzduniak</text>
</g>
<!-- pzduniak&#45;&#45;Stowarzyszenie#Komisja Rewizyjna -->
<g id="edge58" class="edge">
<title>pzduniak&#45;&#45;Stowarzyszenie#Komisja Rewizyjna</title>
<path fill="none" stroke="#c60077" d="M133.72,-29.51C133.72,-39.37 133.72,-52 133.72,-52 133.72,-52 365.99,-52 528.39,-52"/>
</g>
<!-- biniu -->
<g id="node42" class="node">
<title>biniu</title>
<ellipse fill="none" stroke="black" cx="92.94" cy="-276" rx="34.39" ry="18"/>
<text text-anchor="middle" x="92.94" y="-272.3" font-family="Times,serif" font-size="14.00">biniu</text>
</g>
<!-- biniu&#45;&#45;Marketing&#45;i&#45;media&#45;spoecznociowe# -->
<g id="edge59" class="edge">
<title>biniu&#45;&#45;Marketing&#45;i&#45;media&#45;spoecznociowe#</title>
<path fill="none" stroke="#b6e400" d="M126.77,-272.4C198.32,-272.4 369.35,-272.4 502.98,-272.4"/>
</g>
<!-- nikolaad -->
<g id="node43" class="node">
<title>nikolaad</title>
<ellipse fill="none" stroke="black" cx="92.94" cy="-233" rx="50.09" ry="18"/>
<text text-anchor="middle" x="92.94" y="-229.3" font-family="Times,serif" font-size="14.00">nikolaad</text>
</g>
<!-- nikolaad&#45;&#45;Marketing&#45;i&#45;media&#45;spoecznociowe# -->
<g id="edge60" class="edge">
<title>nikolaad&#45;&#45;Marketing&#45;i&#45;media&#45;spoecznociowe#</title>
<path fill="none" stroke="#00ffff" d="M135.72,-242.41C135.72,-253.01 135.72,-268.8 135.72,-268.8 135.72,-268.8 353.79,-268.8 514.57,-268.8"/>
</g>
<!-- kujaw -->
<g id="node44" class="node">
<title>kujaw</title>
<ellipse fill="none" stroke="black" cx="92.94" cy="-190" rx="38.19" ry="18"/>
<text text-anchor="middle" x="92.94" y="-186.3" font-family="Times,serif" font-size="14.00">kujaw</text>
</g>
<!-- kujaw&#45;&#45;Marketing&#45;i&#45;media&#45;spoecznociowe# -->
<g id="edge61" class="edge">
<title>kujaw&#45;&#45;Marketing&#45;i&#45;media&#45;spoecznociowe#</title>
<path fill="none" stroke="#ab00d5" d="M129.21,-184C139.87,-184 148.72,-184 148.72,-184 148.72,-184 148.72,-265.2 148.72,-265.2 148.72,-265.2 378.05,-265.2 536.16,-265.2"/>
</g>
<!-- kujaw&#45;&#45;Marketing&#45;i&#45;media&#45;spoecznociowe#Logo nr 2 -->
<g id="edge62" class="edge">
<title>kujaw&#45;&#45;Marketing&#45;i&#45;media&#45;spoecznociowe#Logo nr 2</title>
<path fill="none" stroke="#ab00d5" d="M121.97,-178C187.59,-178 341.72,-178 341.72,-178 341.72,-178 341.72,-93.2 341.72,-93.2 341.72,-93.2 419.5,-93.2 500.78,-93.2"/>
</g>
</g>
</svg>
