<?xml version="1.0" encoding="UTF-8" standalone="no"?>
<!DOCTYPE svg PUBLIC "-//W3C//DTD SVG 1.1//EN"
 "http://www.w3.org/Graphics/SVG/1.1/DTD/svg11.dtd">
<!-- Generated by graphviz version 2.43.0 (0)
 -->
<!-- Title: %3 Pages: 1 -->
<svg width="976pt" height="1205pt"
 viewBox="0.00 0.00 976.13 1205.00" xmlns="http://www.w3.org/2000/svg" xmlns:xlink="http://www.w3.org/1999/xlink">
<g id="graph0" class="graph" transform="scale(1 1) rotate(0) translate(4 1201)">
<title>%3</title>
<polygon fill="white" stroke="transparent" points="-4,4 -4,-1201 972.13,-1201 972.13,4 -4,4"/>
<!-- d33tah -->
<g id="node1" class="node">
<title>d33tah</title>
<ellipse fill="none" stroke="black" cx="59.14" cy="-845" rx="43.59" ry="18"/>
<text text-anchor="middle" x="59.14" y="-841.3" font-family="Times,serif" font-size="14.00">d33tah</text>
</g>
<!-- Infrastruktura::Domeny#Domeny -->
<g id="node2" class="node">
<title>Infrastruktura::Domeny#Domeny</title>
<ellipse fill="none" stroke="black" cx="615.21" cy="-405" rx="167.07" ry="18"/>
<text text-anchor="middle" x="615.21" y="-401.3" font-family="Times,serif" font-size="14.00">Infrastruktura::Domeny#Domeny</text>
</g>
<!-- d33tah&#45;&#45;Infrastruktura::Domeny#Domeny -->
<g id="edge1" class="edge">
<title>d33tah&#45;&#45;Infrastruktura::Domeny#Domeny</title>
<path fill="none" stroke="#ff0000" d="M92,-833C154.68,-833 285.13,-833 285.13,-833 285.13,-833 285.13,-415.8 285.13,-415.8 285.13,-415.8 389.93,-415.8 481.43,-415.8"/>
</g>
<!-- Infrastruktura::Telegram#posty: t.me/hakierspejs_spam -->
<g id="node3" class="node">
<title>Infrastruktura::Telegram#posty: t.me/hakierspejs_spam</title>
<ellipse fill="none" stroke="black" cx="615.21" cy="-792" rx="284.05" ry="18"/>
<text text-anchor="middle" x="615.21" y="-788.3" font-family="Times,serif" font-size="14.00">Infrastruktura::Telegram#posty: t.me/hakierspejs_spam</text>
</g>
<!-- d33tah&#45;&#45;Infrastruktura::Telegram#posty: t.me/hakierspejs_spam -->
<g id="edge2" class="edge">
<title>d33tah&#45;&#45;Infrastruktura::Telegram#posty: t.me/hakierspejs_spam</title>
<path fill="none" stroke="#ff0000" d="M102.7,-843C186.75,-843 363.13,-843 363.13,-843 363.13,-843 363.13,-814.91 363.13,-800.42"/>
</g>
<!-- Infrastruktura::Telegram#HS24: t.me/hsl_info -->
<g id="node4" class="node">
<title>Infrastruktura::Telegram#HS24: t.me/hsl_info</title>
<ellipse fill="none" stroke="black" cx="615.21" cy="-1179" rx="231.26" ry="18"/>
<text text-anchor="middle" x="615.21" y="-1175.3" font-family="Times,serif" font-size="14.00">Infrastruktura::Telegram#HS24: t.me/hsl_info</text>
</g>
<!-- d33tah&#45;&#45;Infrastruktura::Telegram#HS24: t.me/hsl_info -->
<g id="edge3" class="edge">
<title>d33tah&#45;&#45;Infrastruktura::Telegram#HS24: t.me/hsl_info</title>
<path fill="none" stroke="#ff0000" d="M100.24,-851C129.31,-851 163.13,-851 163.13,-851 163.13,-851 163.13,-1179 163.13,-1179 163.13,-1179 272.43,-1179 383.54,-1179"/>
</g>
<!-- Miejsce::Miejsce#Klucze do spejsu -->
<g id="node5" class="node">
<title>Miejsce::Miejsce#Klucze do spejsu</title>
<ellipse fill="none" stroke="black" cx="615.21" cy="-749" rx="172.77" ry="18"/>
<text text-anchor="middle" x="615.21" y="-745.3" font-family="Times,serif" font-size="14.00">Miejsce::Miejsce#Klucze do spejsu</text>
</g>
<!-- d33tah&#45;&#45;Miejsce::Miejsce#Klucze do spejsu -->
<g id="edge4" class="edge">
<title>d33tah&#45;&#45;Miejsce::Miejsce#Klucze do spejsu</title>
<path fill="none" stroke="#ff0000" d="M79.32,-829C126.7,-829 241.13,-829 241.13,-829 241.13,-829 241.13,-763.25 241.13,-763.25 241.13,-763.25 398.89,-763.25 509.51,-763.25"/>
</g>
<!-- Bazy&#45;danych#Trello -->
<g id="node6" class="node">
<title>Bazy&#45;danych#Trello</title>
<ellipse fill="none" stroke="black" cx="615.21" cy="-1136" rx="103.98" ry="18"/>
<text text-anchor="middle" x="615.21" y="-1132.3" font-family="Times,serif" font-size="14.00">Bazy&#45;danych#Trello</text>
</g>
<!-- d33tah&#45;&#45;Bazy&#45;danych#Trello -->
<g id="edge5" class="edge">
<title>d33tah&#45;&#45;Bazy&#45;danych#Trello</title>
<path fill="none" stroke="#ff0000" d="M101.63,-849C134.39,-849 174.13,-849 174.13,-849 174.13,-849 174.13,-1136 174.13,-1136 174.13,-1136 380.54,-1136 510.96,-1136"/>
</g>
<!-- Infrastruktura::Mariuszbot#Mariuszbot -->
<g id="node7" class="node">
<title>Infrastruktura::Mariuszbot#Mariuszbot</title>
<ellipse fill="none" stroke="black" cx="615.21" cy="-1093" rx="196.07" ry="18"/>
<text text-anchor="middle" x="615.21" y="-1089.3" font-family="Times,serif" font-size="14.00">Infrastruktura::Mariuszbot#Mariuszbot</text>
</g>
<!-- d33tah&#45;&#45;Infrastruktura::Mariuszbot#Mariuszbot -->
<g id="edge6" class="edge">
<title>d33tah&#45;&#45;Infrastruktura::Mariuszbot#Mariuszbot</title>
<path fill="none" stroke="#ff0000" d="M102.5,-847C138.94,-847 185.13,-847 185.13,-847 185.13,-847 185.13,-1093 185.13,-1093 185.13,-1093 305.39,-1093 418.73,-1093"/>
</g>
<!-- Stowarzyszenie#Zarzd -->
<g id="node8" class="node">
<title>Stowarzyszenie#Zarzd</title>
<ellipse fill="none" stroke="black" cx="615.21" cy="-878" rx="123.48" ry="18"/>
<text text-anchor="middle" x="615.21" y="-874.3" font-family="Times,serif" font-size="14.00">Stowarzyszenie#Zarzd</text>
</g>
<!-- d33tah&#45;&#45;Stowarzyszenie#Zarzd -->
<g id="edge7" class="edge">
<title>d33tah&#45;&#45;Stowarzyszenie#Zarzd</title>
<path fill="none" stroke="#ff0000" d="M60.13,-863.3C60.13,-865.87 60.13,-867.67 60.13,-867.67 60.13,-867.67 353.94,-867.67 514.04,-867.67"/>
</g>
<!-- Kanay&#45;komunikacji# -->
<g id="node9" class="node">
<title>Kanay&#45;komunikacji#</title>
<ellipse fill="none" stroke="black" cx="615.21" cy="-534" rx="108.58" ry="18"/>
<text text-anchor="middle" x="615.21" y="-530.3" font-family="Times,serif" font-size="14.00">Kanay&#45;komunikacji#</text>
</g>
<!-- d33tah&#45;&#45;Kanay&#45;komunikacji# -->
<g id="edge8" class="edge">
<title>d33tah&#45;&#45;Kanay&#45;komunikacji#</title>
<path fill="none" stroke="#ff0000" d="M95.49,-835C160.54,-835 290.13,-835 290.13,-835 290.13,-835 290.13,-546 290.13,-546 290.13,-546 437.73,-546 534.02,-546"/>
</g>
<!-- Bazy&#45;danych#Grafana -->
<g id="node10" class="node">
<title>Bazy&#45;danych#Grafana</title>
<ellipse fill="none" stroke="black" cx="615.21" cy="-921" rx="114.28" ry="18"/>
<text text-anchor="middle" x="615.21" y="-917.3" font-family="Times,serif" font-size="14.00">Bazy&#45;danych#Grafana</text>
</g>
<!-- d33tah&#45;&#45;Bazy&#45;danych#Grafana -->
<g id="edge9" class="edge">
<title>d33tah&#45;&#45;Bazy&#45;danych#Grafana</title>
<path fill="none" stroke="#ff0000" d="M95.9,-854.75C151.89,-854.75 252.13,-854.75 252.13,-854.75 252.13,-854.75 252.13,-910.67 252.13,-910.67 252.13,-910.67 413.65,-910.67 521.23,-910.67"/>
</g>
<!-- Infrastruktura::Telegram#Spacerspejs: t.me/joinchat/UYf2ONtNj21J1DS6 -->
<g id="node11" class="node">
<title>Infrastruktura::Telegram#Spacerspejs: t.me/joinchat/UYf2ONtNj21J1DS6</title>
<ellipse fill="none" stroke="black" cx="615.21" cy="-1050" rx="352.84" ry="18"/>
<text text-anchor="middle" x="615.21" y="-1046.3" font-family="Times,serif" font-size="14.00">Infrastruktura::Telegram#Spacerspejs: t.me/joinchat/UYf2ONtNj21J1DS6</text>
</g>
<!-- d33tah&#45;&#45;Infrastruktura::Telegram#Spacerspejs: t.me/joinchat/UYf2ONtNj21J1DS6 -->
<g id="edge10" class="edge">
<title>d33tah&#45;&#45;Infrastruktura::Telegram#Spacerspejs: t.me/joinchat/UYf2ONtNj21J1DS6</title>
<path fill="none" stroke="#ff0000" d="M102.74,-845C163.73,-845 267.13,-845 267.13,-845 267.13,-845 267.13,-1020.7 267.13,-1046.78"/>
</g>
<!-- Drzwi&#45;frontowe#Ekran  -->
<g id="node12" class="node">
<title>Drzwi&#45;frontowe#Ekran </title>
<ellipse fill="none" stroke="black" cx="615.21" cy="-1007" rx="120.78" ry="18"/>
<text text-anchor="middle" x="615.21" y="-1003.3" font-family="Times,serif" font-size="14.00">Drzwi&#45;frontowe#Ekran </text>
</g>
<!-- d33tah&#45;&#45;Drzwi&#45;frontowe#Ekran  -->
<g id="edge11" class="edge">
<title>d33tah&#45;&#45;Drzwi&#45;frontowe#Ekran </title>
<path fill="none" stroke="black" d="M88.74,-858.25C131.92,-858.25 207.13,-858.25 207.13,-858.25 207.13,-858.25 207.13,-1008.5 207.13,-1008.5 207.13,-1008.5 374.35,-1008.5 494.7,-1008.5"/>
</g>
<!-- Marketing&#45;i&#45;media&#45;spoecznociowe# -->
<g id="node16" class="node">
<title>Marketing&#45;i&#45;media&#45;spoecznociowe#</title>
<ellipse fill="none" stroke="black" cx="615.21" cy="-319" rx="183.07" ry="18"/>
<text text-anchor="middle" x="615.21" y="-315.3" font-family="Times,serif" font-size="14.00">Marketing&#45;i&#45;media&#45;spoecznociowe#</text>
</g>
<!-- d33tah&#45;&#45;Marketing&#45;i&#45;media&#45;spoecznociowe# -->
<g id="edge12" class="edge">
<title>d33tah&#45;&#45;Marketing&#45;i&#45;media&#45;spoecznociowe#</title>
<path fill="none" stroke="#ff0000" d="M86.93,-831C146.71,-831 282.13,-831 282.13,-831 282.13,-831 282.13,-334 282.13,-334 282.13,-334 415.51,-334 513.46,-334"/>
</g>
<!-- Bazy&#45;danych#Pad -->
<g id="node17" class="node">
<title>Bazy&#45;danych#Pad</title>
<ellipse fill="none" stroke="black" cx="615.21" cy="-964" rx="94.48" ry="18"/>
<text text-anchor="middle" x="615.21" y="-960.3" font-family="Times,serif" font-size="14.00">Bazy&#45;danych#Pad</text>
</g>
<!-- d33tah&#45;&#45;Bazy&#45;danych#Pad -->
<g id="edge13" class="edge">
<title>d33tah&#45;&#45;Bazy&#45;danych#Pad</title>
<path fill="none" stroke="#ff0000" d="M92.73,-856.5C142.27,-856.5 229.13,-856.5 229.13,-856.5 229.13,-856.5 229.13,-952.5 229.13,-952.5 229.13,-952.5 430.75,-952.5 542.59,-952.5"/>
</g>
<!-- Infrastruktura::IRC#IRC -->
<g id="node18" class="node">
<title>Infrastruktura::IRC#IRC</title>
<ellipse fill="none" stroke="black" cx="615.21" cy="-577" rx="124.58" ry="18"/>
<text text-anchor="middle" x="615.21" y="-573.3" font-family="Times,serif" font-size="14.00">Infrastruktura::IRC#IRC</text>
</g>
<!-- d33tah&#45;&#45;Infrastruktura::IRC#IRC -->
<g id="edge14" class="edge">
<title>d33tah&#45;&#45;Infrastruktura::IRC#IRC</title>
<path fill="none" stroke="#ff0000" d="M98.28,-837C165.59,-837 296.13,-837 296.13,-837 296.13,-837 296.13,-590.5 296.13,-590.5 296.13,-590.5 438.08,-590.5 532.62,-590.5"/>
</g>
<!-- Infrastruktura::Telegram#G贸wny: t.me/hakierspejs -->
<g id="node19" class="node">
<title>Infrastruktura::Telegram#G贸wny: t.me/hakierspejs</title>
<ellipse fill="none" stroke="black" cx="615.21" cy="-706" rx="251.56" ry="18"/>
<text text-anchor="middle" x="615.21" y="-702.3" font-family="Times,serif" font-size="14.00">Infrastruktura::Telegram#G贸wny: t.me/hakierspejs</text>
</g>
<!-- d33tah&#45;&#45;Infrastruktura::Telegram#G贸wny: t.me/hakierspejs -->
<g id="edge15" class="edge">
<title>d33tah&#45;&#45;Infrastruktura::Telegram#G贸wny: t.me/hakierspejs</title>
<path fill="none" stroke="#ff0000" d="M101.85,-841C176.56,-841 323.13,-841 323.13,-841 323.13,-841 323.13,-715 323.13,-715 323.13,-715 354.76,-715 397.21,-715"/>
</g>
<!-- Infrastruktura::Github#Github -->
<g id="node20" class="node">
<title>Infrastruktura::Github#Github</title>
<ellipse fill="none" stroke="black" cx="615.21" cy="-663" rx="154.07" ry="18"/>
<text text-anchor="middle" x="615.21" y="-659.3" font-family="Times,serif" font-size="14.00">Infrastruktura::Github#Github</text>
</g>
<!-- d33tah&#45;&#45;Infrastruktura::Github#Github -->
<g id="edge16" class="edge">
<title>d33tah&#45;&#45;Infrastruktura::Github#Github</title>
<path fill="none" stroke="#ff0000" d="M100.36,-839C169.69,-839 302.13,-839 302.13,-839 302.13,-839 302.13,-676.5 302.13,-676.5 302.13,-676.5 421.76,-676.5 513.13,-676.5"/>
</g>
<!-- nastpne -->
<g id="node13" class="node">
<title>nastpne</title>
<ellipse fill="none" stroke="black" cx="59.14" cy="-888" rx="53.09" ry="18"/>
<text text-anchor="middle" x="59.14" y="-884.3" font-family="Times,serif" font-size="14.00">nastpne</text>
</g>
<!-- spotkanie -->
<g id="node14" class="node">
<title>spotkanie</title>
<ellipse fill="none" stroke="black" cx="59.14" cy="-931" rx="55.79" ry="18"/>
<text text-anchor="middle" x="59.14" y="-927.3" font-family="Times,serif" font-size="14.00">spotkanie</text>
</g>
<g id="node15" class="node">
<title></title>
<ellipse fill="none" stroke="#ff0000" cx="59.14" cy="-974" rx="27" ry="18"/>
</g>
<!-- kszmigiel -->
<g id="node21" class="node">
<title>kszmigiel</title>
<ellipse fill="none" stroke="black" cx="59.14" cy="-770" rx="54.69" ry="18"/>
<text text-anchor="middle" x="59.14" y="-766.3" font-family="Times,serif" font-size="14.00">kszmigiel</text>
</g>
<!-- kszmigiel&#45;&#45;Infrastruktura::Telegram#posty: t.me/hakierspejs_spam -->
<g id="edge17" class="edge">
<title>kszmigiel&#45;&#45;Infrastruktura::Telegram#posty: t.me/hakierspejs_spam</title>
<path fill="none" stroke="#2bd500" d="M96.06,-783.33C151.67,-783.33 261.56,-783.33 365.97,-783.33"/>
</g>
<!-- kszmigiel&#45;&#45;Miejsce::Miejsce#Klucze do spejsu -->
<g id="edge18" class="edge">
<title>kszmigiel&#45;&#45;Miejsce::Miejsce#Klucze do spejsu</title>
<path fill="none" stroke="#2bd500" d="M103.71,-759.5C183.22,-759.5 352.61,-759.5 474.71,-759.5"/>
</g>
<!-- kszmigiel&#45;&#45;Stowarzyszenie#Zarzd -->
<g id="edge19" class="edge">
<title>kszmigiel&#45;&#45;Stowarzyszenie#Zarzd</title>
<path fill="none" stroke="#2bd500" d="M106.13,-779.49C106.13,-803.6 106.13,-865.33 106.13,-865.33 106.13,-865.33 381.77,-865.33 527.4,-865.33"/>
</g>
<!-- kszmigiel&#45;&#45;Marketing&#45;i&#45;media&#45;spoecznociowe# -->
<g id="edge20" class="edge">
<title>kszmigiel&#45;&#45;Marketing&#45;i&#45;media&#45;spoecznociowe#</title>
<path fill="none" stroke="#2bd500" d="M92.71,-755.75C119.35,-755.75 152.13,-755.75 152.13,-755.75 152.13,-755.75 152.13,-319 152.13,-319 152.13,-319 302.49,-319 431.85,-319"/>
</g>
<!-- kszmigiel&#45;&#45;Infrastruktura::Telegram#G贸wny: t.me/hakierspejs -->
<g id="edge21" class="edge">
<title>kszmigiel&#45;&#45;Infrastruktura::Telegram#G贸wny: t.me/hakierspejs</title>
<path fill="none" stroke="#2bd500" d="M108.13,-761.89C108.13,-744.67 108.13,-706 108.13,-706 108.13,-706 236.14,-706 363.52,-706"/>
</g>
<!-- Marketing&#45;i&#45;media&#45;spoecznociowe#Naklejki -->
<g id="node22" class="node">
<title>Marketing&#45;i&#45;media&#45;spoecznociowe#Naklejki</title>
<ellipse fill="none" stroke="black" cx="615.21" cy="-835" rx="221.76" ry="18"/>
<text text-anchor="middle" x="615.21" y="-831.3" font-family="Times,serif" font-size="14.00">Marketing&#45;i&#45;media&#45;spoecznociowe#Naklejki</text>
</g>
<!-- kszmigiel&#45;&#45;Marketing&#45;i&#45;media&#45;spoecznociowe#Naklejki -->
<g id="edge22" class="edge">
<title>kszmigiel&#45;&#45;Marketing&#45;i&#45;media&#45;spoecznociowe#Naklejki</title>
<path fill="none" stroke="#2bd500" d="M110.13,-776.8C110.13,-790.89 110.13,-822 110.13,-822 110.13,-822 313.01,-822 461.61,-822"/>
</g>
<!-- marti -->
<g id="node23" class="node">
<title>marti</title>
<ellipse fill="none" stroke="black" cx="59.14" cy="-620" rx="36.29" ry="18"/>
<text text-anchor="middle" x="59.14" y="-616.3" font-family="Times,serif" font-size="14.00">marti</text>
</g>
<!-- marti&#45;&#45;Marketing&#45;i&#45;media&#45;spoecznociowe# -->
<g id="edge25" class="edge">
<title>marti&#45;&#45;Marketing&#45;i&#45;media&#45;spoecznociowe#</title>
<path fill="none" stroke="#0061f2" d="M86.56,-608C145.53,-608 279.13,-608 279.13,-608 279.13,-608 279.13,-331 279.13,-331 279.13,-331 385.47,-331 478.51,-331"/>
</g>
<!-- marti&#45;&#45;Infrastruktura::Telegram#G贸wny: t.me/hakierspejs -->
<g id="edge23" class="edge">
<title>marti&#45;&#45;Infrastruktura::Telegram#G贸wny: t.me/hakierspejs</title>
<path fill="none" stroke="#0061f2" d="M86.43,-632C163.81,-632 379.13,-632 379.13,-632 379.13,-632 379.13,-681.8 379.13,-699.69"/>
</g>
<!-- marti&#45;&#45;Infrastruktura::Github#Github -->
<g id="edge24" class="edge">
<title>marti&#45;&#45;Infrastruktura::Github#Github</title>
<path fill="none" stroke="#0061f2" d="M93.62,-626C193.53,-626 476.13,-626 476.13,-626 476.13,-626 476.13,-644.29 476.13,-655.15"/>
</g>
<!-- thinkofher -->
<g id="node24" class="node">
<title>thinkofher</title>
<ellipse fill="none" stroke="black" cx="59.14" cy="-577" rx="59.29" ry="18"/>
<text text-anchor="middle" x="59.14" y="-573.3" font-family="Times,serif" font-size="14.00">thinkofher</text>
</g>
<!-- thinkofher&#45;&#45;Stowarzyszenie#Zarzd -->
<g id="edge28" class="edge">
<title>thinkofher&#45;&#45;Stowarzyszenie#Zarzd</title>
<path fill="none" stroke="#c60077" d="M116.58,-581.5C190.11,-581.5 308.13,-581.5 308.13,-581.5 308.13,-581.5 308.13,-883 308.13,-883 308.13,-883 410.07,-883 496.48,-883"/>
</g>
<!-- thinkofher&#45;&#45;Kanay&#45;komunikacji# -->
<g id="edge29" class="edge">
<title>thinkofher&#45;&#45;Kanay&#45;komunikacji#</title>
<path fill="none" stroke="#c60077" d="M108.13,-566.59C108.13,-553.86 108.13,-534 108.13,-534 108.13,-534 357.43,-534 506.43,-534"/>
</g>
<!-- thinkofher&#45;&#45;Marketing&#45;i&#45;media&#45;spoecznociowe# -->
<g id="edge31" class="edge">
<title>thinkofher&#45;&#45;Marketing&#45;i&#45;media&#45;spoecznociowe#</title>
<path fill="none" stroke="#c60077" d="M110.57,-568C174.73,-568 276.13,-568 276.13,-568 276.13,-568 276.13,-328 276.13,-328 276.13,-328 367.99,-328 456.09,-328"/>
</g>
<!-- thinkofher&#45;&#45;Infrastruktura::IRC#IRC -->
<g id="edge33" class="edge">
<title>thinkofher&#45;&#45;Infrastruktura::IRC#IRC</title>
<path fill="none" stroke="#c60077" d="M118.39,-577C206.54,-577 374.28,-577 490.31,-577"/>
</g>
<!-- thinkofher&#45;&#45;Infrastruktura::Telegram#G贸wny: t.me/hakierspejs -->
<g id="edge34" class="edge">
<title>thinkofher&#45;&#45;Infrastruktura::Telegram#G贸wny: t.me/hakierspejs</title>
<path fill="none" stroke="#c60077" d="M101.13,-589.84C101.13,-620.8 101.13,-697 101.13,-697 101.13,-697 257.08,-697 397.19,-697"/>
</g>
<!-- thinkofher&#45;&#45;Infrastruktura::Github#Github -->
<g id="edge32" class="edge">
<title>thinkofher&#45;&#45;Infrastruktura::Github#Github</title>
<path fill="none" stroke="#c60077" d="M104.13,-588.96C104.13,-612.59 104.13,-663 104.13,-663 104.13,-663 310.37,-663 460.83,-663"/>
</g>
<!-- Infrastruktura::Matrix#hs&#45;ldz&#45;offtopic:hackerspace.pl -->
<g id="node25" class="node">
<title>Infrastruktura::Matrix#hs&#45;ldz&#45;offtopic:hackerspace.pl</title>
<ellipse fill="none" stroke="black" cx="615.21" cy="-448" rx="258.85" ry="18"/>
<text text-anchor="middle" x="615.21" y="-444.3" font-family="Times,serif" font-size="14.00">Infrastruktura::Matrix#hs&#45;ldz&#45;offtopic:hackerspace.pl</text>
</g>
<!-- thinkofher&#45;&#45;Infrastruktura::Matrix#hs&#45;ldz&#45;offtopic:hackerspace.pl -->
<g id="edge26" class="edge">
<title>thinkofher&#45;&#45;Infrastruktura::Matrix#hs&#45;ldz&#45;offtopic:hackerspace.pl</title>
<path fill="none" stroke="#c60077" d="M116.47,-572.5C203.79,-572.5 360.13,-572.5 360.13,-572.5 360.13,-572.5 360.13,-470.25 360.13,-451.08"/>
</g>
<!-- Infrastruktura::Matrix#hs&#45;ldz:hackerspace.pl -->
<g id="node26" class="node">
<title>Infrastruktura::Matrix#hs&#45;ldz:hackerspace.pl</title>
<ellipse fill="none" stroke="black" cx="615.21" cy="-491" rx="221.76" ry="18"/>
<text text-anchor="middle" x="615.21" y="-487.3" font-family="Times,serif" font-size="14.00">Infrastruktura::Matrix#hs&#45;ldz:hackerspace.pl</text>
</g>
<!-- thinkofher&#45;&#45;Infrastruktura::Matrix#hs&#45;ldz:hackerspace.pl -->
<g id="edge27" class="edge">
<title>thinkofher&#45;&#45;Infrastruktura::Matrix#hs&#45;ldz:hackerspace.pl</title>
<path fill="none" stroke="#c60077" d="M104.13,-565.04C104.13,-541.41 104.13,-491 104.13,-491 104.13,-491 255.34,-491 393.27,-491"/>
</g>
<!-- Bazy&#45;danych# -->
<g id="node27" class="node">
<title>Bazy&#45;danych#</title>
<ellipse fill="none" stroke="black" cx="615.21" cy="-620" rx="77.19" ry="18"/>
<text text-anchor="middle" x="615.21" y="-616.3" font-family="Times,serif" font-size="14.00">Bazy&#45;danych#</text>
</g>
<!-- thinkofher&#45;&#45;Bazy&#45;danych# -->
<g id="edge30" class="edge">
<title>thinkofher&#45;&#45;Bazy&#45;danych#</title>
<path fill="none" stroke="#c60077" d="M111.13,-585.96C111.13,-596.91 111.13,-614 111.13,-614 111.13,-614 402.48,-614 542.18,-614"/>
</g>
<!-- kpc -->
<g id="node28" class="node">
<title>kpc</title>
<ellipse fill="none" stroke="black" cx="59.14" cy="-190" rx="27" ry="18"/>
<text text-anchor="middle" x="59.14" y="-186.3" font-family="Times,serif" font-size="14.00">kpc</text>
</g>
<!-- kpc&#45;&#45;Infrastruktura::Telegram#posty: t.me/hakierspejs_spam -->
<g id="edge36" class="edge">
<title>kpc&#45;&#45;Infrastruktura::Telegram#posty: t.me/hakierspejs_spam</title>
<path fill="none" stroke="#b6e400" d="M82.78,-199C103.43,-199 130.13,-199 130.13,-199 130.13,-199 130.13,-778.67 130.13,-778.67 130.13,-778.67 288.44,-778.67 424.19,-778.67"/>
</g>
<!-- Infrastruktura::Telegram#Posty wyklte (celowo bez linka) -->
<g id="node29" class="node">
<title>Infrastruktura::Telegram#Posty wyklte (celowo bez linka)</title>
<ellipse fill="none" stroke="black" cx="615.21" cy="-233" rx="284.05" ry="18"/>
<text text-anchor="middle" x="615.21" y="-229.3" font-family="Times,serif" font-size="14.00">Infrastruktura::Telegram#Posty wyklte (celowo bez linka)</text>
</g>
<!-- kpc&#45;&#45;Infrastruktura::Telegram#Posty wyklte (celowo bez linka) -->
<g id="edge35" class="edge">
<title>kpc&#45;&#45;Infrastruktura::Telegram#Posty wyklte (celowo bez linka)</title>
<path fill="none" stroke="#b6e400" d="M86.35,-190C166.34,-190 395.13,-190 395.13,-190 395.13,-190 395.13,-208.52 395.13,-221.25"/>
</g>
<!-- Czaty&#45;HS#HS: posty wyklte -->
<g id="node30" class="node">
<title>Czaty&#45;HS#HS: posty wyklte</title>
<ellipse fill="none" stroke="black" cx="615.21" cy="-190" rx="157.87" ry="18"/>
<text text-anchor="middle" x="615.21" y="-186.3" font-family="Times,serif" font-size="14.00">Czaty&#45;HS#HS: posty wyklte</text>
</g>
<!-- kpc&#45;&#45;Czaty&#45;HS#HS: posty wyklte -->
<g id="edge37" class="edge">
<title>kpc&#45;&#45;Czaty&#45;HS#HS: posty wyklte</title>
<path fill="none" stroke="#b6e400" d="M82.68,-181C149.45,-181 343.91,-181 478.38,-181"/>
</g>
<!-- biniu -->
<g id="node31" class="node">
<title>biniu</title>
<ellipse fill="none" stroke="black" cx="59.14" cy="-233" rx="34.39" ry="18"/>
<text text-anchor="middle" x="59.14" y="-229.3" font-family="Times,serif" font-size="14.00">biniu</text>
</g>
<!-- biniu&#45;&#45;Marketing&#45;i&#45;media&#45;spoecznociowe# -->
<g id="edge38" class="edge">
<title>biniu&#45;&#45;Marketing&#45;i&#45;media&#45;spoecznociowe#</title>
<path fill="none" stroke="#00ffff" d="M93.8,-233C164.79,-233 320.13,-233 320.13,-233 320.13,-233 320.13,-304 320.13,-304 320.13,-304 428.3,-304 513.66,-304"/>
</g>
<!-- nikolaad -->
<g id="node32" class="node">
<title>nikolaad</title>
<ellipse fill="none" stroke="black" cx="59.14" cy="-276" rx="50.09" ry="18"/>
<text text-anchor="middle" x="59.14" y="-272.3" font-family="Times,serif" font-size="14.00">nikolaad</text>
</g>
<!-- nikolaad&#45;&#45;Marketing&#45;i&#45;media&#45;spoecznociowe# -->
<g id="edge39" class="edge">
<title>nikolaad&#45;&#45;Marketing&#45;i&#45;media&#45;spoecznociowe#</title>
<path fill="none" stroke="#ab00d5" d="M106.13,-282.44C106.13,-293.05 106.13,-313 106.13,-313 106.13,-313 294.56,-313 442.15,-313"/>
</g>
<!-- Keij0 -->
<g id="node33" class="node">
<title>Keij0</title>
<ellipse fill="none" stroke="black" cx="59.14" cy="-83" rx="34.39" ry="18"/>
<text text-anchor="middle" x="59.14" y="-79.3" font-family="Times,serif" font-size="14.00">Keij0</text>
</g>
<!-- Keij0&#45;&#45;Marketing&#45;i&#45;media&#45;spoecznociowe# -->
<g id="edge41" class="edge">
<title>Keij0&#45;&#45;Marketing&#45;i&#45;media&#45;spoecznociowe#</title>
<path fill="none" stroke="#f29100" d="M87.2,-93.5C127.27,-93.5 196.13,-93.5 196.13,-93.5 196.13,-93.5 196.13,-307 196.13,-307 196.13,-307 356.27,-307 478.57,-307"/>
</g>
<!-- Stowarzyszenie#Komisja Rewizyjna -->
<g id="node34" class="node">
<title>Stowarzyszenie#Komisja Rewizyjna</title>
<ellipse fill="none" stroke="black" cx="615.21" cy="-18" rx="178.17" ry="18"/>
<text text-anchor="middle" x="615.21" y="-14.3" font-family="Times,serif" font-size="14.00">Stowarzyszenie#Komisja Rewizyjna</text>
</g>
<!-- Keij0&#45;&#45;Stowarzyszenie#Komisja Rewizyjna -->
<g id="edge40" class="edge">
<title>Keij0&#45;&#45;Stowarzyszenie#Komisja Rewizyjna</title>
<path fill="none" stroke="#f29100" d="M82.35,-69.67C171.24,-69.67 485.13,-69.67 485.13,-69.67 485.13,-69.67 485.13,-45.8 485.13,-30.51"/>
</g>
<!-- BluRaf -->
<g id="node35" class="node">
<title>BluRaf</title>
<ellipse fill="none" stroke="black" cx="59.14" cy="-319" rx="42.49" ry="18"/>
<text text-anchor="middle" x="59.14" y="-315.3" font-family="Times,serif" font-size="14.00">BluRaf</text>
</g>
<!-- BluRaf&#45;&#45;Marketing&#45;i&#45;media&#45;spoecznociowe# -->
<g id="edge44" class="edge">
<title>BluRaf&#45;&#45;Marketing&#45;i&#45;media&#45;spoecznociowe#</title>
<path fill="none" stroke="#00c64f" d="M100.94,-316C170.97,-316 315.95,-316 434.18,-316"/>
</g>
<!-- BluRaf&#45;&#45;Infrastruktura::IRC#IRC -->
<g id="edge42" class="edge">
<title>BluRaf&#45;&#45;Infrastruktura::IRC#IRC</title>
<path fill="none" stroke="#00c64f" d="M101.04,-322C172.69,-322 311.13,-322 311.13,-322 311.13,-322 311.13,-563.5 311.13,-563.5 311.13,-563.5 442.47,-563.5 532.52,-563.5"/>
</g>
<!-- Kanay&#45;komunikacji#Mumble -->
<g id="node36" class="node">
<title>Kanay&#45;komunikacji#Mumble</title>
<ellipse fill="none" stroke="black" cx="615.21" cy="-276" rx="146.77" ry="18"/>
<text text-anchor="middle" x="615.21" y="-272.3" font-family="Times,serif" font-size="14.00">Kanay&#45;komunikacji#Mumble</text>
</g>
<!-- BluRaf&#45;&#45;Kanay&#45;komunikacji#Mumble -->
<g id="edge43" class="edge">
<title>BluRaf&#45;&#45;Kanay&#45;komunikacji#Mumble</title>
<path fill="none" stroke="#00c64f" d="M95.9,-310C156.34,-310 270.13,-310 270.13,-310 270.13,-310 270.13,-276 270.13,-276 270.13,-276 374.25,-276 468.11,-276"/>
</g>
<!-- kujaw -->
<g id="node37" class="node">
<title>kujaw</title>
<ellipse fill="none" stroke="black" cx="59.14" cy="-362" rx="38.19" ry="18"/>
<text text-anchor="middle" x="59.14" y="-358.3" font-family="Times,serif" font-size="14.00">kujaw</text>
</g>
<!-- kujaw&#45;&#45;Marketing&#45;i&#45;media&#45;spoecznociowe# -->
<g id="edge45" class="edge">
<title>kujaw&#45;&#45;Marketing&#45;i&#45;media&#45;spoecznociowe#</title>
<path fill="none" stroke="#2e00e4" d="M95.44,-356C156.49,-356 273.13,-356 273.13,-356 273.13,-356 273.13,-325 273.13,-325 273.13,-325 357.32,-325 442.16,-325"/>
</g>
<!-- Marketing&#45;i&#45;media&#45;spoecznociowe#Logo nr 2 -->
<g id="node38" class="node">
<title>Marketing&#45;i&#45;media&#45;spoecznociowe#Logo nr 2</title>
<ellipse fill="none" stroke="black" cx="615.21" cy="-362" rx="227.46" ry="18"/>
<text text-anchor="middle" x="615.21" y="-358.3" font-family="Times,serif" font-size="14.00">Marketing&#45;i&#45;media&#45;spoecznociowe#Logo nr 2</text>
</g>
<!-- kujaw&#45;&#45;Marketing&#45;i&#45;media&#45;spoecznociowe#Logo nr 2 -->
<g id="edge46" class="edge">
<title>kujaw&#45;&#45;Marketing&#45;i&#45;media&#45;spoecznociowe#Logo nr 2</title>
<path fill="none" stroke="#2e00e4" d="M95.63,-368C157.24,-368 286.37,-368 400.47,-368"/>
</g>
<!-- q3k -->
<g id="node39" class="node">
<title>q3k</title>
<ellipse fill="none" stroke="black" cx="59.14" cy="-405" rx="27.9" ry="18"/>
<text text-anchor="middle" x="59.14" y="-401.3" font-family="Times,serif" font-size="14.00">q3k</text>
</g>
<!-- q3k&#45;&#45;Infrastruktura::Domeny#Domeny -->
<g id="edge47" class="edge">
<title>q3k&#45;&#45;Infrastruktura::Domeny#Domeny</title>
<path fill="none" stroke="#ff0000" d="M86.72,-408.6C152.3,-408.6 321.76,-408.6 451.26,-408.6"/>
</g>
<!-- q3k&#45;&#45;Kanay&#45;komunikacji# -->
<g id="edge48" class="edge">
<title>q3k&#45;&#45;Kanay&#45;komunikacji#</title>
<path fill="none" stroke="#ff0000" d="M60.13,-423.15C60.13,-457.36 60.13,-528 60.13,-528 60.13,-528 352.36,-528 512.75,-528"/>
</g>
<!-- q3k&#45;&#45;Marketing&#45;i&#45;media&#45;spoecznociowe#Logo nr 2 -->
<g id="edge49" class="edge">
<title>q3k&#45;&#45;Marketing&#45;i&#45;media&#45;spoecznociowe#Logo nr 2</title>
<path fill="none" stroke="#ff0000" d="M86.72,-401.4C170.78,-401.4 418.13,-401.4 418.13,-401.4 418.13,-401.4 418.13,-382.78 418.13,-371.14"/>
</g>
<!-- cytP450 -->
<g id="node40" class="node">
<title>cytP450</title>
<ellipse fill="none" stroke="black" cx="59.14" cy="-147" rx="48.99" ry="18"/>
<text text-anchor="middle" x="59.14" y="-143.3" font-family="Times,serif" font-size="14.00">cytP450</text>
</g>
<!-- cytP450&#45;&#45;Infrastruktura::Domeny#Domeny -->
<g id="edge50" class="edge">
<title>cytP450&#45;&#45;Infrastruktura::Domeny#Domeny</title>
<path fill="none" stroke="#2bd500" d="M107.97,-147C182.76,-147 317.13,-147 317.13,-147 317.13,-147 317.13,-394.2 317.13,-394.2 317.13,-394.2 402.18,-394.2 481.43,-394.2"/>
</g>
<!-- cytP450&#45;&#45;Miejsce::Miejsce#Klucze do spejsu -->
<g id="edge51" class="edge">
<title>cytP450&#45;&#45;Miejsce::Miejsce#Klucze do spejsu</title>
<path fill="none" stroke="#2bd500" d="M95.82,-159C117.65,-159 141.13,-159 141.13,-159 141.13,-159 141.13,-738 141.13,-738 141.13,-738 338.07,-738 478.08,-738"/>
</g>
<!-- cytP450&#45;&#45;Kanay&#45;komunikacji# -->
<g id="edge54" class="edge">
<title>cytP450&#45;&#45;Kanay&#45;komunikacji#</title>
<path fill="none" stroke="#2bd500" d="M105.32,-153C178.8,-153 314.13,-153 314.13,-153 314.13,-153 314.13,-522 314.13,-522 314.13,-522 444.95,-522 534.13,-522"/>
</g>
<!-- cytP450&#45;&#45;Stowarzyszenie#Komisja Rewizyjna -->
<g id="edge52" class="edge">
<title>cytP450&#45;&#45;Stowarzyszenie#Komisja Rewizyjna</title>
<path fill="none" stroke="#2bd500" d="M95.62,-135C142.56,-135 218.13,-135 218.13,-135 218.13,-135 218.13,-24 218.13,-24 218.13,-24 338.8,-24 447.1,-24"/>
</g>
<!-- Chciejlista#Elektronika (w sensie urzdze konsumenckich) -->
<g id="node41" class="node">
<title>Chciejlista#Elektronika (w sensie urzdze konsumenckich)</title>
<ellipse fill="none" stroke="black" cx="615.21" cy="-147" rx="289.75" ry="18"/>
<text text-anchor="middle" x="615.21" y="-143.3" font-family="Times,serif" font-size="14.00">Chciejlista#Elektronika (w sensie urzdze konsumenckich)</text>
</g>
<!-- cytP450&#45;&#45;Chciejlista#Elektronika (w sensie urzdze konsumenckich) -->
<g id="edge53" class="edge">
<title>cytP450&#45;&#45;Chciejlista#Elektronika (w sensie urzdze konsumenckich)</title>
<path fill="none" stroke="#2bd500" d="M105.12,-141C158.34,-141 250.41,-141 341.82,-141"/>
</g>
<!-- Przegld&#45;lokali&#45;na&#45;wynajem&#45;w&#45;odzi.&#45;Fundusz&#45;1000&#45;&#45;&#45;1500.#Bot Aleksego -->
<g id="node42" class="node">
<title>Przegld&#45;lokali&#45;na&#45;wynajem&#45;w&#45;odzi.&#45;Fundusz&#45;1000&#45;&#45;&#45;1500.#Bot Aleksego</title>
<ellipse fill="none" stroke="black" cx="615.21" cy="-104" rx="351.74" ry="18"/>
<text text-anchor="middle" x="615.21" y="-100.3" font-family="Times,serif" font-size="14.00">Przegld&#45;lokali&#45;na&#45;wynajem&#45;w&#45;odzi.&#45;Fundusz&#45;1000&#45;&#45;&#45;1500.#Bot Aleksego</text>
</g>
<!-- cytP450&#45;&#45;Przegld&#45;lokali&#45;na&#45;wynajem&#45;w&#45;odzi.&#45;Fundusz&#45;1000&#45;&#45;&#45;1500.#Bot Aleksego -->
<g id="edge55" class="edge">
<title>cytP450&#45;&#45;Przegld&#45;lokali&#45;na&#45;wynajem&#45;w&#45;odzi.&#45;Fundusz&#45;1000&#45;&#45;&#45;1500.#Bot Aleksego</title>
<path fill="none" stroke="#2bd500" d="M103.13,-139.12C103.13,-128.66 103.13,-111.5 103.13,-111.5 103.13,-111.5 191.75,-111.5 295.26,-111.5"/>
</g>
<!-- Chciejlista#DIY -->
<g id="node43" class="node">
<title>Chciejlista#DIY</title>
<ellipse fill="none" stroke="black" cx="615.21" cy="-61" rx="83.69" ry="18"/>
<text text-anchor="middle" x="615.21" y="-57.3" font-family="Times,serif" font-size="14.00">Chciejlista#DIY</text>
</g>
<!-- cytP450&#45;&#45;Chciejlista#DIY -->
<g id="edge56" class="edge">
<title>cytP450&#45;&#45;Chciejlista#DIY</title>
<path fill="none" stroke="#2bd500" d="M99.13,-136.59C99.13,-116.5 99.13,-74.33 99.13,-74.33 99.13,-74.33 424.44,-74.33 558.5,-74.33"/>
</g>
<!-- pmysl -->
<g id="node44" class="node">
<title>pmysl</title>
<ellipse fill="none" stroke="black" cx="59.14" cy="-663" rx="38.19" ry="18"/>
<text text-anchor="middle" x="59.14" y="-659.3" font-family="Times,serif" font-size="14.00">pmysl</text>
</g>
<!-- pmysl&#45;&#45;Miejsce::Miejsce#Klucze do spejsu -->
<g id="edge57" class="edge">
<title>pmysl&#45;&#45;Miejsce::Miejsce#Klucze do spejsu</title>
<path fill="none" stroke="#0061f2" d="M60.13,-681.2C60.13,-705.36 60.13,-745 60.13,-745 60.13,-745 283.1,-745 446.4,-745"/>
</g>
<!-- pmysl&#45;&#45;Kanay&#45;komunikacji# -->
<g id="edge58" class="edge">
<title>pmysl&#45;&#45;Kanay&#45;komunikacji#</title>
<path fill="none" stroke="#0061f2" d="M84.85,-649.5C144.48,-649.5 287.13,-649.5 287.13,-649.5 287.13,-649.5 287.13,-540 287.13,-540 287.13,-540 416.49,-540 512.75,-540"/>
</g>
<!-- pmysl&#45;&#45;Bazy&#45;danych#Grafana -->
<g id="edge59" class="edge">
<title>pmysl&#45;&#45;Bazy&#45;danych#Grafana</title>
<path fill="none" stroke="#0061f2" d="M92.57,-672C159.83,-672 305.13,-672 305.13,-672 305.13,-672 305.13,-908.33 305.13,-908.33 305.13,-908.33 441.87,-908.33 533.74,-908.33"/>
</g>
<!-- pmysl&#45;&#45;Infrastruktura::IRC#IRC -->
<g id="edge62" class="edge">
<title>pmysl&#45;&#45;Infrastruktura::IRC#IRC</title>
<path fill="none" stroke="#0061f2" d="M92.67,-654C157.37,-654 293.13,-654 293.13,-654 293.13,-654 293.13,-586 293.13,-586 293.13,-586 413.5,-586 507.06,-586"/>
</g>
<!-- pmysl&#45;&#45;Infrastruktura::Github#Github -->
<g id="edge61" class="edge">
<title>pmysl&#45;&#45;Infrastruktura::Github#Github</title>
<path fill="none" stroke="#0061f2" d="M96.49,-667.5C170.76,-667.5 340.62,-667.5 465.82,-667.5"/>
</g>
<!-- pmysl&#45;&#45;Bazy&#45;danych# -->
<g id="edge60" class="edge">
<title>pmysl&#45;&#45;Bazy&#45;danych#</title>
<path fill="none" stroke="#0061f2" d="M96.38,-658.5C163.79,-658.5 299.13,-658.5 299.13,-658.5 299.13,-658.5 299.13,-620 299.13,-620 299.13,-620 443.89,-620 537.48,-620"/>
</g>
<!-- pzduniak -->
<g id="node45" class="node">
<title>pzduniak</title>
<ellipse fill="none" stroke="black" cx="59.14" cy="-18" rx="52.79" ry="18"/>
<text text-anchor="middle" x="59.14" y="-14.3" font-family="Times,serif" font-size="14.00">pzduniak</text>
</g>
<!-- pzduniak&#45;&#45;Stowarzyszenie#Komisja Rewizyjna -->
<g id="edge63" class="edge">
<title>pzduniak&#45;&#45;Stowarzyszenie#Komisja Rewizyjna</title>
<path fill="none" stroke="#c60077" d="M108.98,-12C184.42,-12 331.13,-12 447.26,-12"/>
</g>
</g>
</svg>
