<?xml version="1.0" encoding="UTF-8" standalone="no"?>
<!DOCTYPE svg PUBLIC "-//W3C//DTD SVG 1.1//EN"
 "http://www.w3.org/Graphics/SVG/1.1/DTD/svg11.dtd">
<!-- Generated by graphviz version 2.43.0 (0)
 -->
<!-- Title: %3 Pages: 1 -->
<svg width="994pt" height="1226pt"
 viewBox="0.00 0.00 994.00 1226.00" xmlns="http://www.w3.org/2000/svg" xmlns:xlink="http://www.w3.org/1999/xlink">
<g id="graph0" class="graph" transform="scale(1 1) rotate(0) translate(4 1222)">
<title>%3</title>
<polygon fill="white" stroke="transparent" points="-4,4 -4,-1222 990,-1222 990,4 -4,4"/>
<!-- d33tah -->
<g id="node1" class="node">
<title>d33tah</title>
<ellipse fill="none" stroke="black" cx="77.02" cy="-856" rx="43.59" ry="18"/>
<text text-anchor="middle" x="77.02" y="-852.3" font-family="Times,serif" font-size="14.00">d33tah</text>
</g>
<!-- Infrastruktura::Telegram#HS24: t.me/hsl_info -->
<g id="node2" class="node">
<title>Infrastruktura::Telegram#HS24: t.me/hsl_info</title>
<ellipse fill="none" stroke="black" cx="633.08" cy="-1114" rx="231.26" ry="18"/>
<text text-anchor="middle" x="633.08" y="-1110.3" font-family="Times,serif" font-size="14.00">Infrastruktura::Telegram#HS24: t.me/hsl_info</text>
</g>
<!-- d33tah&#45;&#45;Infrastruktura::Telegram#HS24: t.me/hsl_info -->
<g id="edge1" class="edge">
<title>d33tah&#45;&#45;Infrastruktura::Telegram#HS24: t.me/hsl_info</title>
<path fill="none" stroke="#ff0000" d="M118.39,-862C209.61,-862 420,-862 420,-862 420,-862 420,-1065.41 420,-1106.73"/>
</g>
<!-- Bazy&#45;danych#Pad -->
<g id="node3" class="node">
<title>Bazy&#45;danych#Pad</title>
<ellipse fill="none" stroke="black" cx="633.08" cy="-1071" rx="94.48" ry="18"/>
<text text-anchor="middle" x="633.08" y="-1067.3" font-family="Times,serif" font-size="14.00">Bazy&#45;danych#Pad</text>
</g>
<!-- d33tah&#45;&#45;Bazy&#45;danych#Pad -->
<g id="edge2" class="edge">
<title>d33tah&#45;&#45;Bazy&#45;danych#Pad</title>
<path fill="none" stroke="#ff0000" d="M109.67,-868C169.81,-868 292,-868 292,-868 292,-868 292,-1071 292,-1071 292,-1071 437.58,-1071 538.52,-1071"/>
</g>
<!-- Bazy&#45;danych#Grafana -->
<g id="node4" class="node">
<title>Bazy&#45;danych#Grafana</title>
<ellipse fill="none" stroke="black" cx="633.08" cy="-942" rx="114.28" ry="18"/>
<text text-anchor="middle" x="633.08" y="-938.3" font-family="Times,serif" font-size="14.00">Bazy&#45;danych#Grafana</text>
</g>
<!-- d33tah&#45;&#45;Bazy&#45;danych#Grafana -->
<g id="edge3" class="edge">
<title>d33tah&#45;&#45;Bazy&#45;danych#Grafana</title>
<path fill="none" stroke="#ff0000" d="M116.27,-864C179.77,-864 298,-864 298,-864 298,-864 298,-948 298,-948 298,-948 427.26,-948 525.22,-948"/>
</g>
<!-- Infrastruktura::Telegram#G贸wny: t.me/hakierspejs -->
<g id="node5" class="node">
<title>Infrastruktura::Telegram#G贸wny: t.me/hakierspejs</title>
<ellipse fill="none" stroke="black" cx="633.08" cy="-727" rx="251.56" ry="18"/>
<text text-anchor="middle" x="633.08" y="-723.3" font-family="Times,serif" font-size="14.00">Infrastruktura::Telegram#G贸wny: t.me/hakierspejs</text>
</g>
<!-- d33tah&#45;&#45;Infrastruktura::Telegram#G贸wny: t.me/hakierspejs -->
<g id="edge4" class="edge">
<title>d33tah&#45;&#45;Infrastruktura::Telegram#G贸wny: t.me/hakierspejs</title>
<path fill="none" stroke="#ff0000" d="M116.13,-848C190.73,-848 346,-848 346,-848 346,-848 346,-742.2 346,-742.2 346,-742.2 423.49,-742.2 497.95,-742.2"/>
</g>
<!-- Infrastruktura::Mariuszbot#Mariuszbot -->
<g id="node6" class="node">
<title>Infrastruktura::Mariuszbot#Mariuszbot</title>
<ellipse fill="none" stroke="black" cx="633.08" cy="-1028" rx="196.07" ry="18"/>
<text text-anchor="middle" x="633.08" y="-1024.3" font-family="Times,serif" font-size="14.00">Infrastruktura::Mariuszbot#Mariuszbot</text>
</g>
<!-- d33tah&#45;&#45;Infrastruktura::Mariuszbot#Mariuszbot -->
<g id="edge5" class="edge">
<title>d33tah&#45;&#45;Infrastruktura::Mariuszbot#Mariuszbot</title>
<path fill="none" stroke="#ff0000" d="M119.61,-860C219.03,-860 458,-860 458,-860 458,-860 458,-985.2 458,-1019.44"/>
</g>
<!-- Drzwi&#45;frontowe#Ekran  -->
<g id="node7" class="node">
<title>Drzwi&#45;frontowe#Ekran </title>
<ellipse fill="none" stroke="black" cx="633.08" cy="-985" rx="120.78" ry="18"/>
<text text-anchor="middle" x="633.08" y="-981.3" font-family="Times,serif" font-size="14.00">Drzwi&#45;frontowe#Ekran </text>
</g>
<!-- d33tah&#45;&#45;Drzwi&#45;frontowe#Ekran  -->
<g id="edge6" class="edge">
<title>d33tah&#45;&#45;Drzwi&#45;frontowe#Ekran </title>
<path fill="none" stroke="black" d="M113.5,-866C175.56,-866 295,-866 295,-866 295,-866 295,-985 295,-985 295,-985 414.97,-985 511.98,-985"/>
</g>
<!-- Infrastruktura::Telegram#Spacerspejs: t.me/joinchat/UYf2ONtNj21J1DS6 -->
<g id="node11" class="node">
<title>Infrastruktura::Telegram#Spacerspejs: t.me/joinchat/UYf2ONtNj21J1DS6</title>
<ellipse fill="none" stroke="black" cx="633.08" cy="-1200" rx="352.84" ry="18"/>
<text text-anchor="middle" x="633.08" y="-1196.3" font-family="Times,serif" font-size="14.00">Infrastruktura::Telegram#Spacerspejs: t.me/joinchat/UYf2ONtNj21J1DS6</text>
</g>
<!-- d33tah&#45;&#45;Infrastruktura::Telegram#Spacerspejs: t.me/joinchat/UYf2ONtNj21J1DS6 -->
<g id="edge7" class="edge">
<title>d33tah&#45;&#45;Infrastruktura::Telegram#Spacerspejs: t.me/joinchat/UYf2ONtNj21J1DS6</title>
<path fill="none" stroke="#ff0000" d="M97.34,-872C149.67,-872 285,-872 285,-872 285,-872 285,-1162.69 285,-1196.75"/>
</g>
<!-- Stowarzyszenie#Zarzd -->
<g id="node12" class="node">
<title>Stowarzyszenie#Zarzd</title>
<ellipse fill="none" stroke="black" cx="633.08" cy="-641" rx="123.48" ry="18"/>
<text text-anchor="middle" x="633.08" y="-637.3" font-family="Times,serif" font-size="14.00">Stowarzyszenie#Zarzd</text>
</g>
<!-- d33tah&#45;&#45;Stowarzyszenie#Zarzd -->
<g id="edge8" class="edge">
<title>d33tah&#45;&#45;Stowarzyszenie#Zarzd</title>
<path fill="none" stroke="#ff0000" d="M113.27,-846C179.65,-846 314,-846 314,-846 314,-846 314,-648.71 314,-648.71 314,-648.71 429.47,-648.71 521.48,-648.71"/>
</g>
<!-- Infrastruktura::Github#Github -->
<g id="node13" class="node">
<title>Infrastruktura::Github#Github</title>
<ellipse fill="none" stroke="black" cx="633.08" cy="-813" rx="154.07" ry="18"/>
<text text-anchor="middle" x="633.08" y="-809.3" font-family="Times,serif" font-size="14.00">Infrastruktura::Github#Github</text>
</g>
<!-- d33tah&#45;&#45;Infrastruktura::Github#Github -->
<g id="edge9" class="edge">
<title>d33tah&#45;&#45;Infrastruktura::Github#Github</title>
<path fill="none" stroke="#ff0000" d="M120.46,-854C227.26,-854 494,-854 494,-854 494,-854 494,-832.82 494,-820.91"/>
</g>
<!-- Infrastruktura::IRC#IRC -->
<g id="node14" class="node">
<title>Infrastruktura::IRC#IRC</title>
<ellipse fill="none" stroke="black" cx="633.08" cy="-899" rx="124.58" ry="18"/>
<text text-anchor="middle" x="633.08" y="-895.3" font-family="Times,serif" font-size="14.00">Infrastruktura::IRC#IRC</text>
</g>
<!-- d33tah&#45;&#45;Infrastruktura::IRC#IRC -->
<g id="edge10" class="edge">
<title>d33tah&#45;&#45;Infrastruktura::IRC#IRC</title>
<path fill="none" stroke="#ff0000" d="M120.33,-858C234.15,-858 533,-858 533,-858 533,-858 533,-876.08 533,-888.23"/>
</g>
<!-- Kanay&#45;komunikacji# -->
<g id="node15" class="node">
<title>Kanay&#45;komunikacji#</title>
<ellipse fill="none" stroke="black" cx="633.08" cy="-555" rx="108.58" ry="18"/>
<text text-anchor="middle" x="633.08" y="-551.3" font-family="Times,serif" font-size="14.00">Kanay&#45;komunikacji#</text>
</g>
<!-- d33tah&#45;&#45;Kanay&#45;komunikacji# -->
<g id="edge11" class="edge">
<title>d33tah&#45;&#45;Kanay&#45;komunikacji#</title>
<path fill="none" stroke="#ff0000" d="M104.73,-842C169.81,-842 327,-842 327,-842 327,-842 327,-567 327,-567 327,-567 461.18,-567 551.86,-567"/>
</g>
<!-- Infrastruktura::Domeny#Domeny -->
<g id="node16" class="node">
<title>Infrastruktura::Domeny#Domeny</title>
<ellipse fill="none" stroke="black" cx="633.08" cy="-340" rx="167.07" ry="18"/>
<text text-anchor="middle" x="633.08" y="-336.3" font-family="Times,serif" font-size="14.00">Infrastruktura::Domeny#Domeny</text>
</g>
<!-- d33tah&#45;&#45;Infrastruktura::Domeny#Domeny -->
<g id="edge12" class="edge">
<title>d33tah&#45;&#45;Infrastruktura::Domeny#Domeny</title>
<path fill="none" stroke="#ff0000" d="M33.11,-856C15.81,-856 0,-856 0,-856 0,-856 0,-340 0,-340 0,-340 278.36,-340 465.92,-340"/>
</g>
<!-- Miejsce::Miejsce#Klucze do spejsu -->
<g id="node17" class="node">
<title>Miejsce::Miejsce#Klucze do spejsu</title>
<ellipse fill="none" stroke="black" cx="633.08" cy="-598" rx="172.77" ry="18"/>
<text text-anchor="middle" x="633.08" y="-594.3" font-family="Times,serif" font-size="14.00">Miejsce::Miejsce#Klucze do spejsu</text>
</g>
<!-- d33tah&#45;&#45;Miejsce::Miejsce#Klucze do spejsu -->
<g id="edge13" class="edge">
<title>d33tah&#45;&#45;Miejsce::Miejsce#Klucze do spejsu</title>
<path fill="none" stroke="#ff0000" d="M109.7,-844C178.71,-844 333,-844 333,-844 333,-844 333,-604 333,-604 333,-604 399.49,-604 469.87,-604"/>
</g>
<!-- Marketing&#45;i&#45;media&#45;spoecznociowe# -->
<g id="node18" class="node">
<title>Marketing&#45;i&#45;media&#45;spoecznociowe#</title>
<ellipse fill="none" stroke="black" cx="633.08" cy="-469" rx="183.07" ry="18"/>
<text text-anchor="middle" x="633.08" y="-465.3" font-family="Times,serif" font-size="14.00">Marketing&#45;i&#45;media&#45;spoecznociowe#</text>
</g>
<!-- d33tah&#45;&#45;Marketing&#45;i&#45;media&#45;spoecznociowe# -->
<g id="edge14" class="edge">
<title>d33tah&#45;&#45;Marketing&#45;i&#45;media&#45;spoecznociowe#</title>
<path fill="none" stroke="#ff0000" d="M97.28,-840C145.48,-840 263,-840 263,-840 263,-840 263,-475 263,-475 263,-475 363.83,-475 460.23,-475"/>
</g>
<!-- Bazy&#45;danych#Trello -->
<g id="node19" class="node">
<title>Bazy&#45;danych#Trello</title>
<ellipse fill="none" stroke="black" cx="633.08" cy="-1157" rx="103.98" ry="18"/>
<text text-anchor="middle" x="633.08" y="-1153.3" font-family="Times,serif" font-size="14.00">Bazy&#45;danych#Trello</text>
</g>
<!-- d33tah&#45;&#45;Bazy&#45;danych#Trello -->
<g id="edge15" class="edge">
<title>d33tah&#45;&#45;Bazy&#45;danych#Trello</title>
<path fill="none" stroke="#ff0000" d="M104.6,-870C161.79,-870 288,-870 288,-870 288,-870 288,-1157 288,-1157 288,-1157 427.47,-1157 529.08,-1157"/>
</g>
<!-- Infrastruktura::Telegram#posty: t.me/hakierspejs_spam -->
<g id="node20" class="node">
<title>Infrastruktura::Telegram#posty: t.me/hakierspejs_spam</title>
<ellipse fill="none" stroke="black" cx="633.08" cy="-512" rx="284.05" ry="18"/>
<text text-anchor="middle" x="633.08" y="-508.3" font-family="Times,serif" font-size="14.00">Infrastruktura::Telegram#posty: t.me/hakierspejs_spam</text>
</g>
<!-- d33tah&#45;&#45;Infrastruktura::Telegram#posty: t.me/hakierspejs_spam -->
<g id="edge16" class="edge">
<title>d33tah&#45;&#45;Infrastruktura::Telegram#posty: t.me/hakierspejs_spam</title>
<path fill="none" stroke="#ff0000" d="M118.15,-850C197.07,-850 362,-850 362,-850 362,-850 362,-561.53 362,-517.58"/>
</g>
<!-- nastpne -->
<g id="node8" class="node">
<title>nastpne</title>
<ellipse fill="none" stroke="black" cx="77.02" cy="-942" rx="53.09" ry="18"/>
<text text-anchor="middle" x="77.02" y="-938.3" font-family="Times,serif" font-size="14.00">nastpne</text>
</g>
<!-- spotkanie -->
<g id="node9" class="node">
<title>spotkanie</title>
<ellipse fill="none" stroke="black" cx="77.02" cy="-985" rx="55.79" ry="18"/>
<text text-anchor="middle" x="77.02" y="-981.3" font-family="Times,serif" font-size="14.00">spotkanie</text>
</g>
<g id="node10" class="node">
<title></title>
<ellipse fill="none" stroke="#ff0000" cx="77.02" cy="-1028" rx="27" ry="18"/>
</g>
<!-- kszmigiel -->
<g id="node21" class="node">
<title>kszmigiel</title>
<ellipse fill="none" stroke="black" cx="77.02" cy="-598" rx="54.69" ry="18"/>
<text text-anchor="middle" x="77.02" y="-594.3" font-family="Times,serif" font-size="14.00">kszmigiel</text>
</g>
<!-- kszmigiel&#45;&#45;Infrastruktura::Telegram#G贸wny: t.me/hakierspejs -->
<g id="edge17" class="edge">
<title>kszmigiel&#45;&#45;Infrastruktura::Telegram#G贸wny: t.me/hakierspejs</title>
<path fill="none" stroke="#2bd500" d="M118,-610.14C118,-641 118,-720 118,-720 118,-720 264.44,-720 401.16,-720"/>
</g>
<!-- kszmigiel&#45;&#45;Stowarzyszenie#Zarzd -->
<g id="edge18" class="edge">
<title>kszmigiel&#45;&#45;Stowarzyszenie#Zarzd</title>
<path fill="none" stroke="#2bd500" d="M128,-604.68C128,-616.16 128,-638.43 128,-638.43 128,-638.43 361.33,-638.43 510.82,-638.43"/>
</g>
<!-- kszmigiel&#45;&#45;Infrastruktura::Github#Github -->
<g id="edge19" class="edge">
<title>kszmigiel&#45;&#45;Infrastruktura::Github#Github</title>
<path fill="none" stroke="#2bd500" d="M117.85,-610C187.31,-610 321,-610 321,-610 321,-610 321,-805.8 321,-805.8 321,-805.8 409.08,-805.8 491.65,-805.8"/>
</g>
<!-- kszmigiel&#45;&#45;Miejsce::Miejsce#Klucze do spejsu -->
<g id="edge21" class="edge">
<title>kszmigiel&#45;&#45;Miejsce::Miejsce#Klucze do spejsu</title>
<path fill="none" stroke="#2bd500" d="M128.83,-592C205.87,-592 353.99,-592 469.84,-592"/>
</g>
<!-- kszmigiel&#45;&#45;Marketing&#45;i&#45;media&#45;spoecznociowe# -->
<g id="edge22" class="edge">
<title>kszmigiel&#45;&#45;Marketing&#45;i&#45;media&#45;spoecznociowe#</title>
<path fill="none" stroke="#2bd500" d="M121,-587.28C121,-555.99 121,-467 121,-467 121,-467 303.61,-467 450.74,-467"/>
</g>
<!-- kszmigiel&#45;&#45;Infrastruktura::Telegram#posty: t.me/hakierspejs_spam -->
<g id="edge23" class="edge">
<title>kszmigiel&#45;&#45;Infrastruktura::Telegram#posty: t.me/hakierspejs_spam</title>
<path fill="none" stroke="#2bd500" d="M123,-588.25C123,-567.53 123,-521 123,-521 123,-521 256.57,-521 387.01,-521"/>
</g>
<!-- Marketing&#45;i&#45;media&#45;spoecznociowe#Naklejki -->
<g id="node22" class="node">
<title>Marketing&#45;i&#45;media&#45;spoecznociowe#Naklejki</title>
<ellipse fill="none" stroke="black" cx="633.08" cy="-426" rx="221.76" ry="18"/>
<text text-anchor="middle" x="633.08" y="-422.3" font-family="Times,serif" font-size="14.00">Marketing&#45;i&#45;media&#45;spoecznociowe#Naklejki</text>
</g>
<!-- kszmigiel&#45;&#45;Marketing&#45;i&#45;media&#45;spoecznociowe#Naklejki -->
<g id="edge20" class="edge">
<title>kszmigiel&#45;&#45;Marketing&#45;i&#45;media&#45;spoecznociowe#Naklejki</title>
<path fill="none" stroke="#2bd500" d="M119,-586.48C119,-547.41 119,-422.4 119,-422.4 119,-422.4 275.51,-422.4 415.81,-422.4"/>
</g>
<!-- thinkofher -->
<g id="node23" class="node">
<title>thinkofher</title>
<ellipse fill="none" stroke="black" cx="77.02" cy="-749" rx="59.29" ry="18"/>
<text text-anchor="middle" x="77.02" y="-745.3" font-family="Times,serif" font-size="14.00">thinkofher</text>
</g>
<!-- thinkofher&#45;&#45;Infrastruktura::Telegram#G贸wny: t.me/hakierspejs -->
<g id="edge24" class="edge">
<title>thinkofher&#45;&#45;Infrastruktura::Telegram#G贸wny: t.me/hakierspejs</title>
<path fill="none" stroke="#0061f2" d="M127.35,-739.4C199.8,-739.4 337.24,-739.4 450.57,-739.4"/>
</g>
<!-- thinkofher&#45;&#45;Infrastruktura::Github#Github -->
<g id="edge27" class="edge">
<title>thinkofher&#45;&#45;Infrastruktura::Github#Github</title>
<path fill="none" stroke="#0061f2" d="M129,-757.63C129,-775.1 129,-813 129,-813 129,-813 330.55,-813 478.76,-813"/>
</g>
<!-- thinkofher&#45;&#45;Infrastruktura::IRC#IRC -->
<g id="edge28" class="edge">
<title>thinkofher&#45;&#45;Infrastruktura::IRC#IRC</title>
<path fill="none" stroke="#0061f2" d="M125,-759.6C125,-792.39 125,-890 125,-890 125,-890 375.49,-890 524.71,-890"/>
</g>
<!-- thinkofher&#45;&#45;Kanay&#45;komunikacji# -->
<g id="edge30" class="edge">
<title>thinkofher&#45;&#45;Kanay&#45;komunikacji#</title>
<path fill="none" stroke="#0061f2" d="M119.93,-736.6C187.48,-736.6 311,-736.6 311,-736.6 311,-736.6 311,-555 311,-555 311,-555 430.98,-555 524.49,-555"/>
</g>
<!-- thinkofher&#45;&#45;Marketing&#45;i&#45;media&#45;spoecznociowe# -->
<g id="edge31" class="edge">
<title>thinkofher&#45;&#45;Marketing&#45;i&#45;media&#45;spoecznociowe#</title>
<path fill="none" stroke="#0061f2" d="M108.97,-733.8C148.03,-733.8 209,-733.8 209,-733.8 209,-733.8 209,-471 209,-471 209,-471 335.83,-471 450.77,-471"/>
</g>
<!-- Infrastruktura::Matrix#hs&#45;ldz&#45;offtopic:hackerspace.pl -->
<g id="node24" class="node">
<title>Infrastruktura::Matrix#hs&#45;ldz&#45;offtopic:hackerspace.pl</title>
<ellipse fill="none" stroke="black" cx="633.08" cy="-770" rx="258.85" ry="18"/>
<text text-anchor="middle" x="633.08" y="-766.3" font-family="Times,serif" font-size="14.00">Infrastruktura::Matrix#hs&#45;ldz&#45;offtopic:hackerspace.pl</text>
</g>
<!-- thinkofher&#45;&#45;Infrastruktura::Matrix#hs&#45;ldz&#45;offtopic:hackerspace.pl -->
<g id="edge25" class="edge">
<title>thinkofher&#45;&#45;Infrastruktura::Matrix#hs&#45;ldz&#45;offtopic:hackerspace.pl</title>
<path fill="none" stroke="#0061f2" d="M118.36,-762C178.45,-762 294.42,-762 401.09,-762"/>
</g>
<!-- Bazy&#45;danych# -->
<g id="node25" class="node">
<title>Bazy&#45;danych#</title>
<ellipse fill="none" stroke="black" cx="633.08" cy="-856" rx="77.19" ry="18"/>
<text text-anchor="middle" x="633.08" y="-852.3" font-family="Times,serif" font-size="14.00">Bazy&#45;danych#</text>
</g>
<!-- thinkofher&#45;&#45;Bazy&#45;danych# -->
<g id="edge26" class="edge">
<title>thinkofher&#45;&#45;Bazy&#45;danych#</title>
<path fill="none" stroke="#0061f2" d="M130.17,-757C179.38,-757 245,-757 245,-757 245,-757 245,-852 245,-852 245,-852 444.4,-852 557.33,-852"/>
</g>
<!-- Infrastruktura::Matrix#hs&#45;ldz:hackerspace.pl -->
<g id="node26" class="node">
<title>Infrastruktura::Matrix#hs&#45;ldz:hackerspace.pl</title>
<ellipse fill="none" stroke="black" cx="633.08" cy="-684" rx="221.76" ry="18"/>
<text text-anchor="middle" x="633.08" y="-680.3" font-family="Times,serif" font-size="14.00">Infrastruktura::Matrix#hs&#45;ldz:hackerspace.pl</text>
</g>
<!-- thinkofher&#45;&#45;Infrastruktura::Matrix#hs&#45;ldz:hackerspace.pl -->
<g id="edge29" class="edge">
<title>thinkofher&#45;&#45;Infrastruktura::Matrix#hs&#45;ldz:hackerspace.pl</title>
<path fill="none" stroke="#0061f2" d="M123,-737.68C123,-719.05 123,-684 123,-684 123,-684 273.65,-684 411.21,-684"/>
</g>
<!-- kpc -->
<g id="node27" class="node">
<title>kpc</title>
<ellipse fill="none" stroke="black" cx="77.02" cy="-125" rx="27" ry="18"/>
<text text-anchor="middle" x="77.02" y="-121.3" font-family="Times,serif" font-size="14.00">kpc</text>
</g>
<!-- kpc&#45;&#45;Marketing&#45;i&#45;media&#45;spoecznociowe# -->
<g id="edge34" class="edge">
<title>kpc&#45;&#45;Marketing&#45;i&#45;media&#45;spoecznociowe#</title>
<path fill="none" stroke="#c60077" d="M103.74,-128.6C137.43,-128.6 191,-128.6 191,-128.6 191,-128.6 191,-459 191,-459 191,-459 352.8,-459 480.63,-459"/>
</g>
<!-- kpc&#45;&#45;Infrastruktura::Telegram#posty: t.me/hakierspejs_spam -->
<g id="edge36" class="edge">
<title>kpc&#45;&#45;Infrastruktura::Telegram#posty: t.me/hakierspejs_spam</title>
<path fill="none" stroke="#c60077" d="M98.8,-135.8C127.12,-135.8 173,-135.8 173,-135.8 173,-135.8 173,-503 173,-503 173,-503 277.49,-503 386.88,-503"/>
</g>
<!-- Czaty&#45;HS#HS: posty wyklte -->
<g id="node28" class="node">
<title>Czaty&#45;HS#HS: posty wyklte</title>
<ellipse fill="none" stroke="black" cx="633.08" cy="-125" rx="157.87" ry="18"/>
<text text-anchor="middle" x="633.08" y="-121.3" font-family="Times,serif" font-size="14.00">Czaty&#45;HS#HS: posty wyklte</text>
</g>
<!-- kpc&#45;&#45;Czaty&#45;HS#HS: posty wyklte -->
<g id="edge32" class="edge">
<title>kpc&#45;&#45;Czaty&#45;HS#HS: posty wyklte</title>
<path fill="none" stroke="#c60077" d="M103.84,-121.4C170.39,-121.4 347.16,-121.4 478.2,-121.4"/>
</g>
<!-- Stowarzyszenie#Komisja Rewizyjna -->
<g id="node29" class="node">
<title>Stowarzyszenie#Komisja Rewizyjna</title>
<ellipse fill="none" stroke="black" cx="633.08" cy="-39" rx="178.17" ry="18"/>
<text text-anchor="middle" x="633.08" y="-35.3" font-family="Times,serif" font-size="14.00">Stowarzyszenie#Komisja Rewizyjna</text>
</g>
<!-- kpc&#45;&#45;Stowarzyszenie#Komisja Rewizyjna -->
<g id="edge33" class="edge">
<title>kpc&#45;&#45;Stowarzyszenie#Komisja Rewizyjna</title>
<path fill="none" stroke="#c60077" d="M98.8,-114.2C157.21,-114.2 313,-114.2 313,-114.2 313,-114.2 313,-53.5 313,-53.5 313,-53.5 434.16,-53.5 527.39,-53.5"/>
</g>
<!-- Infrastruktura::Telegram#Posty wyklte (celowo bez linka) -->
<g id="node30" class="node">
<title>Infrastruktura::Telegram#Posty wyklte (celowo bez linka)</title>
<ellipse fill="none" stroke="black" cx="633.08" cy="-82" rx="284.05" ry="18"/>
<text text-anchor="middle" x="633.08" y="-78.3" font-family="Times,serif" font-size="14.00">Infrastruktura::Telegram#Posty wyklte (celowo bez linka)</text>
</g>
<!-- kpc&#45;&#45;Infrastruktura::Telegram#Posty wyklte (celowo bez linka) -->
<g id="edge35" class="edge">
<title>kpc&#45;&#45;Infrastruktura::Telegram#Posty wyklte (celowo bez linka)</title>
<path fill="none" stroke="#c60077" d="M78,-106.83C78,-98.1 78,-89.5 78,-89.5 78,-89.5 229.8,-89.5 374.64,-89.5"/>
</g>
<!-- cytP450 -->
<g id="node31" class="node">
<title>cytP450</title>
<ellipse fill="none" stroke="black" cx="77.02" cy="-275" rx="48.99" ry="18"/>
<text text-anchor="middle" x="77.02" y="-271.3" font-family="Times,serif" font-size="14.00">cytP450</text>
</g>
<!-- cytP450&#45;&#45;Kanay&#45;komunikacji# -->
<g id="edge41" class="edge">
<title>cytP450&#45;&#45;Kanay&#45;komunikacji#</title>
<path fill="none" stroke="#b6e400" d="M118,-284.75C118,-333.56 118,-549 118,-549 118,-549 380.49,-549 530.7,-549"/>
</g>
<!-- cytP450&#45;&#45;Infrastruktura::Domeny#Domeny -->
<g id="edge42" class="edge">
<title>cytP450&#45;&#45;Infrastruktura::Domeny#Domeny</title>
<path fill="none" stroke="#b6e400" d="M125,-278.34C125,-290.39 125,-331 125,-331 125,-331 337.99,-331 488.17,-331"/>
</g>
<!-- cytP450&#45;&#45;Miejsce::Miejsce#Klucze do spejsu -->
<g id="edge44" class="edge">
<title>cytP450&#45;&#45;Miejsce::Miejsce#Klucze do spejsu</title>
<path fill="none" stroke="#b6e400" d="M110.09,-288.33C131.34,-288.33 155,-288.33 155,-288.33 155,-288.33 155,-586 155,-586 155,-586 362.43,-586 504.02,-586"/>
</g>
<!-- cytP450&#45;&#45;Stowarzyszenie#Komisja Rewizyjna -->
<g id="edge40" class="edge">
<title>cytP450&#45;&#45;Stowarzyszenie#Komisja Rewizyjna</title>
<path fill="none" stroke="#b6e400" d="M111.05,-262C155.3,-262 227,-262 227,-262 227,-262 227,-50 227,-50 227,-50 374.67,-50 491.91,-50"/>
</g>
<!-- Przegld&#45;lokali&#45;na&#45;wynajem&#45;w&#45;odzi.&#45;Fundusz&#45;1000&#45;&#45;&#45;1500.#Bot Aleksego -->
<g id="node32" class="node">
<title>Przegld&#45;lokali&#45;na&#45;wynajem&#45;w&#45;odzi.&#45;Fundusz&#45;1000&#45;&#45;&#45;1500.#Bot Aleksego</title>
<ellipse fill="none" stroke="black" cx="633.08" cy="-297" rx="351.74" ry="18"/>
<text text-anchor="middle" x="633.08" y="-293.3" font-family="Times,serif" font-size="14.00">Przegld&#45;lokali&#45;na&#45;wynajem&#45;w&#45;odzi.&#45;Fundusz&#45;1000&#45;&#45;&#45;1500.#Bot Aleksego</text>
</g>
<!-- cytP450&#45;&#45;Przegld&#45;lokali&#45;na&#45;wynajem&#45;w&#45;odzi.&#45;Fundusz&#45;1000&#45;&#45;&#45;1500.#Bot Aleksego -->
<g id="edge37" class="edge">
<title>cytP450&#45;&#45;Przegld&#45;lokali&#45;na&#45;wynajem&#45;w&#45;odzi.&#45;Fundusz&#45;1000&#45;&#45;&#45;1500.#Bot Aleksego</title>
<path fill="none" stroke="#b6e400" d="M120.19,-283.67C179.96,-283.67 292.4,-283.67 396.8,-283.67"/>
</g>
<!-- Chciejlista#Elektronika (w sensie urzdze konsumenckich) -->
<g id="node33" class="node">
<title>Chciejlista#Elektronika (w sensie urzdze konsumenckich)</title>
<ellipse fill="none" stroke="black" cx="633.08" cy="-254" rx="289.75" ry="18"/>
<text text-anchor="middle" x="633.08" y="-250.3" font-family="Times,serif" font-size="14.00">Chciejlista#Elektronika (w sensie urzdze konsumenckich)</text>
</g>
<!-- cytP450&#45;&#45;Chciejlista#Elektronika (w sensie urzdze konsumenckich) -->
<g id="edge38" class="edge">
<title>cytP450&#45;&#45;Chciejlista#Elektronika (w sensie urzdze konsumenckich)</title>
<path fill="none" stroke="#b6e400" d="M121.12,-267C188.03,-267 319.39,-267 432.29,-267"/>
</g>
<!-- Chciejlista#DIY -->
<g id="node34" class="node">
<title>Chciejlista#DIY</title>
<ellipse fill="none" stroke="black" cx="633.08" cy="-211" rx="83.69" ry="18"/>
<text text-anchor="middle" x="633.08" y="-207.3" font-family="Times,serif" font-size="14.00">Chciejlista#DIY</text>
</g>
<!-- cytP450&#45;&#45;Chciejlista#DIY -->
<g id="edge39" class="edge">
<title>cytP450&#45;&#45;Chciejlista#DIY</title>
<path fill="none" stroke="#b6e400" d="M119,-265.83C119,-248.13 119,-211 119,-211 119,-211 403.3,-211 549.05,-211"/>
</g>
<!-- Zamek#Zamek -->
<g id="node35" class="node">
<title>Zamek#Zamek</title>
<ellipse fill="none" stroke="black" cx="633.08" cy="-168" rx="81.49" ry="18"/>
<text text-anchor="middle" x="633.08" y="-164.3" font-family="Times,serif" font-size="14.00">Zamek#Zamek</text>
</g>
<!-- cytP450&#45;&#45;Zamek#Zamek -->
<g id="edge43" class="edge">
<title>cytP450&#45;&#45;Zamek#Zamek</title>
<path fill="none" stroke="#b6e400" d="M112,-262.31C112,-233.96 112,-168 112,-168 112,-168 405.11,-168 551.66,-168"/>
</g>
<!-- biniu -->
<g id="node36" class="node">
<title>biniu</title>
<ellipse fill="none" stroke="black" cx="77.02" cy="-512" rx="34.39" ry="18"/>
<text text-anchor="middle" x="77.02" y="-508.3" font-family="Times,serif" font-size="14.00">biniu</text>
</g>
<!-- biniu&#45;&#45;Marketing&#45;i&#45;media&#45;spoecznociowe# -->
<g id="edge45" class="edge">
<title>biniu&#45;&#45;Marketing&#45;i&#45;media&#45;spoecznociowe#</title>
<path fill="none" stroke="#00ffff" d="M111.49,-512C174.99,-512 304,-512 304,-512 304,-512 304,-479 304,-479 304,-479 394.5,-479 480.58,-479"/>
</g>
<!-- Keij0 -->
<g id="node37" class="node">
<title>Keij0</title>
<ellipse fill="none" stroke="black" cx="77.02" cy="-469" rx="34.39" ry="18"/>
<text text-anchor="middle" x="77.02" y="-465.3" font-family="Times,serif" font-size="14.00">Keij0</text>
</g>
<!-- Keij0&#45;&#45;Marketing&#45;i&#45;media&#45;spoecznociowe# -->
<g id="edge46" class="edge">
<title>Keij0&#45;&#45;Marketing&#45;i&#45;media&#45;spoecznociowe#</title>
<path fill="none" stroke="#ab00d5" d="M109.73,-463C177.01,-463 335.08,-463 460.01,-463"/>
</g>
<!-- SP7Q -->
<g id="node38" class="node">
<title>SP7Q</title>
<ellipse fill="none" stroke="black" cx="77.02" cy="-641" rx="36.29" ry="18"/>
<text text-anchor="middle" x="77.02" y="-637.3" font-family="Times,serif" font-size="14.00">SP7Q</text>
</g>
<!-- SP7Q&#45;&#45;Stowarzyszenie#Zarzd -->
<g id="edge48" class="edge">
<title>SP7Q&#45;&#45;Stowarzyszenie#Zarzd</title>
<path fill="none" stroke="#f29100" d="M113.07,-643.57C192.07,-643.57 383.51,-643.57 510.75,-643.57"/>
</g>
<!-- SP7Q&#45;&#45;Infrastruktura::Github#Github -->
<g id="edge49" class="edge">
<title>SP7Q&#45;&#45;Infrastruktura::Github#Github</title>
<path fill="none" stroke="#f29100" d="M102.7,-653.86C164.61,-653.86 317,-653.86 317,-653.86 317,-653.86 317,-809.4 317,-809.4 317,-809.4 400.72,-809.4 481.98,-809.4"/>
</g>
<!-- SP7Q&#45;&#45;Marketing&#45;i&#45;media&#45;spoecznociowe# -->
<g id="edge47" class="edge">
<title>SP7Q&#45;&#45;Marketing&#45;i&#45;media&#45;spoecznociowe#</title>
<path fill="none" stroke="#f29100" d="M110.11,-633.29C173.98,-633.29 308,-633.29 308,-633.29 308,-633.29 308,-483 308,-483 308,-483 424.12,-483 517.55,-483"/>
</g>
<!-- kujaw -->
<g id="node39" class="node">
<title>kujaw</title>
<ellipse fill="none" stroke="black" cx="77.02" cy="-426" rx="38.19" ry="18"/>
<text text-anchor="middle" x="77.02" y="-422.3" font-family="Times,serif" font-size="14.00">kujaw</text>
</g>
<!-- kujaw&#45;&#45;Stowarzyszenie#Zarzd -->
<g id="edge53" class="edge">
<title>kujaw&#45;&#45;Stowarzyszenie#Zarzd</title>
<path fill="none" stroke="#00c64f" d="M107.86,-436.8C176.73,-436.8 337,-436.8 337,-436.8 337,-436.8 337,-628.14 337,-628.14 337,-628.14 459.25,-628.14 546.65,-628.14"/>
</g>
<!-- kujaw&#45;&#45;Marketing&#45;i&#45;media&#45;spoecznociowe# -->
<g id="edge52" class="edge">
<title>kujaw&#45;&#45;Marketing&#45;i&#45;media&#45;spoecznociowe#</title>
<path fill="none" stroke="#00c64f" d="M114.84,-429.6C188.28,-429.6 343,-429.6 343,-429.6 343,-429.6 343,-455 343,-455 343,-455 436.71,-455 517.6,-455"/>
</g>
<!-- kujaw&#45;&#45;Marketing&#45;i&#45;media&#45;spoecznociowe#Naklejki -->
<g id="edge50" class="edge">
<title>kujaw&#45;&#45;Marketing&#45;i&#45;media&#45;spoecznociowe#Naklejki</title>
<path fill="none" stroke="#00c64f" d="M107.71,-415.2C173.05,-415.2 330.22,-415.2 455.73,-415.2"/>
</g>
<!-- Marketing&#45;i&#45;media&#45;spoecznociowe#Logo nr 2 -->
<g id="node40" class="node">
<title>Marketing&#45;i&#45;media&#45;spoecznociowe#Logo nr 2</title>
<ellipse fill="none" stroke="black" cx="633.08" cy="-383" rx="227.46" ry="18"/>
<text text-anchor="middle" x="633.08" y="-379.3" font-family="Times,serif" font-size="14.00">Marketing&#45;i&#45;media&#45;spoecznociowe#Logo nr 2</text>
</g>
<!-- kujaw&#45;&#45;Marketing&#45;i&#45;media&#45;spoecznociowe#Logo nr 2 -->
<g id="edge51" class="edge">
<title>kujaw&#45;&#45;Marketing&#45;i&#45;media&#45;spoecznociowe#Logo nr 2</title>
<path fill="none" stroke="#00c64f" d="M111,-417.42C111,-407.35 111,-392 111,-392 111,-392 288.16,-392 436.08,-392"/>
</g>
<!-- q3k -->
<g id="node41" class="node">
<title>q3k</title>
<ellipse fill="none" stroke="black" cx="77.02" cy="-383" rx="27.9" ry="18"/>
<text text-anchor="middle" x="77.02" y="-379.3" font-family="Times,serif" font-size="14.00">q3k</text>
</g>
<!-- q3k&#45;&#45;Kanay&#45;komunikacji# -->
<g id="edge56" class="edge">
<title>q3k&#45;&#45;Kanay&#45;komunikacji#</title>
<path fill="none" stroke="#2e00e4" d="M105.16,-383C173,-383 340,-383 340,-383 340,-383 340,-543 340,-543 340,-543 465.1,-543 551.83,-543"/>
</g>
<!-- q3k&#45;&#45;Infrastruktura::Domeny#Domeny -->
<g id="edge54" class="edge">
<title>q3k&#45;&#45;Infrastruktura::Domeny#Domeny</title>
<path fill="none" stroke="#2e00e4" d="M78,-364.81C78,-356.72 78,-349 78,-349 78,-349 323.86,-349 488.33,-349"/>
</g>
<!-- q3k&#45;&#45;Marketing&#45;i&#45;media&#45;spoecznociowe#Logo nr 2 -->
<g id="edge55" class="edge">
<title>q3k&#45;&#45;Marketing&#45;i&#45;media&#45;spoecznociowe#Logo nr 2</title>
<path fill="none" stroke="#2e00e4" d="M101.27,-374C159.12,-374 309.81,-374 436.07,-374"/>
</g>
<!-- pmysl -->
<g id="node42" class="node">
<title>pmysl</title>
<ellipse fill="none" stroke="black" cx="77.02" cy="-813" rx="38.19" ry="18"/>
<text text-anchor="middle" x="77.02" y="-809.3" font-family="Times,serif" font-size="14.00">pmysl</text>
</g>
<!-- pmysl&#45;&#45;Bazy&#45;danych#Grafana -->
<g id="edge57" class="edge">
<title>pmysl&#45;&#45;Bazy&#45;danych#Grafana</title>
<path fill="none" stroke="#ff0000" d="M112.51,-820.2C175.67,-820.2 301,-820.2 301,-820.2 301,-820.2 301,-936 301,-936 301,-936 427.9,-936 524.8,-936"/>
</g>
<!-- pmysl&#45;&#45;Infrastruktura::Github#Github -->
<g id="edge59" class="edge">
<title>pmysl&#45;&#45;Infrastruktura::Github#Github</title>
<path fill="none" stroke="#ff0000" d="M114.8,-816.6C188.99,-816.6 357.34,-816.6 482.15,-816.6"/>
</g>
<!-- pmysl&#45;&#45;Infrastruktura::IRC#IRC -->
<g id="edge60" class="edge">
<title>pmysl&#45;&#45;Infrastruktura::IRC#IRC</title>
<path fill="none" stroke="#ff0000" d="M100.28,-827.4C111.68,-827.4 123,-827.4 123,-827.4 123,-827.4 123,-899 123,-899 123,-899 356.96,-899 507.97,-899"/>
</g>
<!-- pmysl&#45;&#45;Kanay&#45;komunikacji# -->
<g id="edge61" class="edge">
<title>pmysl&#45;&#45;Kanay&#45;komunikacji#</title>
<path fill="none" stroke="#ff0000" d="M100.25,-798.6C161.74,-798.6 324,-798.6 324,-798.6 324,-798.6 324,-561 324,-561 324,-561 440.62,-561 530.59,-561"/>
</g>
<!-- pmysl&#45;&#45;Miejsce::Miejsce#Klucze do spejsu -->
<g id="edge62" class="edge">
<title>pmysl&#45;&#45;Miejsce::Miejsce#Klucze do spejsu</title>
<path fill="none" stroke="#ff0000" d="M107.79,-802.2C175.21,-802.2 330,-802.2 330,-802.2 330,-802.2 330,-598 330,-598 330,-598 391.96,-598 459.85,-598"/>
</g>
<!-- pmysl&#45;&#45;Bazy&#45;danych# -->
<g id="edge58" class="edge">
<title>pmysl&#45;&#45;Bazy&#45;danych#</title>
<path fill="none" stroke="#ff0000" d="M107.82,-823.8C118.1,-823.8 127,-823.8 127,-823.8 127,-823.8 127,-856 127,-856 127,-856 413.9,-856 555.67,-856"/>
</g>
<!-- pzduniak -->
<g id="node43" class="node">
<title>pzduniak</title>
<ellipse fill="none" stroke="black" cx="77.02" cy="-61" rx="52.79" ry="18"/>
<text text-anchor="middle" x="77.02" y="-57.3" font-family="Times,serif" font-size="14.00">pzduniak</text>
</g>
<!-- pzduniak&#45;&#45;Stowarzyszenie#Komisja Rewizyjna -->
<g id="edge63" class="edge">
<title>pzduniak&#45;&#45;Stowarzyszenie#Komisja Rewizyjna</title>
<path fill="none" stroke="#2bd500" d="M108.51,-46.5C177.03,-46.5 343.72,-46.5 470.96,-46.5"/>
</g>
<!-- krcz -->
<g id="node44" class="node">
<title>krcz</title>
<ellipse fill="none" stroke="black" cx="77.02" cy="-18" rx="30.59" ry="18"/>
<text text-anchor="middle" x="77.02" y="-14.3" font-family="Times,serif" font-size="14.00">krcz</text>
</g>
<!-- krcz&#45;&#45;Stowarzyszenie#Komisja Rewizyjna -->
<g id="edge64" class="edge">
<title>krcz&#45;&#45;Stowarzyszenie#Komisja Rewizyjna</title>
<path fill="none" stroke="#0061f2" d="M101.99,-28.5C168.72,-28.5 355.13,-28.5 488.23,-28.5"/>
</g>
<!-- BluRaf -->
<g id="node45" class="node">
<title>BluRaf</title>
<ellipse fill="none" stroke="black" cx="77.02" cy="-899" rx="42.49" ry="18"/>
<text text-anchor="middle" x="77.02" y="-895.3" font-family="Times,serif" font-size="14.00">BluRaf</text>
</g>
<!-- BluRaf&#45;&#45;Infrastruktura::IRC#IRC -->
<g id="edge65" class="edge">
<title>BluRaf&#45;&#45;Infrastruktura::IRC#IRC</title>
<path fill="none" stroke="#c60077" d="M113.93,-908C196.47,-908 398.58,-908 524.88,-908"/>
</g>
</g>
</svg>
