<?xml version="1.0" encoding="UTF-8" standalone="no"?>
<!DOCTYPE svg PUBLIC "-//W3C//DTD SVG 1.1//EN"
 "http://www.w3.org/Graphics/SVG/1.1/DTD/svg11.dtd">
<!-- Generated by graphviz version 2.43.0 (0)
 -->
<!-- Title: %3 Pages: 1 -->
<svg width="1001pt" height="1484pt"
 viewBox="0.00 0.00 1000.82 1484.00" xmlns="http://www.w3.org/2000/svg" xmlns:xlink="http://www.w3.org/1999/xlink">
<g id="graph0" class="graph" transform="scale(1 1) rotate(0) translate(4 1480)">
<title>%3</title>
<polygon fill="white" stroke="transparent" points="-4,4 -4,-1480 996.82,-1480 996.82,4 -4,4"/>
<!-- d33tah -->
<g id="node1" class="node">
<title>d33tah</title>
<ellipse fill="none" stroke="black" cx="71.49" cy="-899" rx="43.59" ry="18"/>
<text text-anchor="middle" x="71.49" y="-895.3" font-family="Times,serif" font-size="14.00">d33tah</text>
</g>
<!-- Infrastruktura::IRC#IRC -->
<g id="node2" class="node">
<title>Infrastruktura::IRC#IRC</title>
<ellipse fill="none" stroke="black" cx="639.91" cy="-1243" rx="124.58" ry="18"/>
<text text-anchor="middle" x="639.91" y="-1239.3" font-family="Times,serif" font-size="14.00">Infrastruktura::IRC#IRC</text>
</g>
<!-- d33tah&#45;&#45;Infrastruktura::IRC#IRC -->
<g id="edge1" class="edge">
<title>d33tah&#45;&#45;Infrastruktura::IRC#IRC</title>
<path fill="none" stroke="#ff0000" d="M92.2,-914.88C130.79,-914.88 209.82,-914.88 209.82,-914.88 209.82,-914.88 209.82,-1234 209.82,-1234 209.82,-1234 404.25,-1234 531.66,-1234"/>
</g>
<!-- Infrastruktura::Telegram#posty: t.me/hakierspejs_spam -->
<g id="node3" class="node">
<title>Infrastruktura::Telegram#posty: t.me/hakierspejs_spam</title>
<ellipse fill="none" stroke="black" cx="639.91" cy="-770" rx="284.05" ry="18"/>
<text text-anchor="middle" x="639.91" y="-766.3" font-family="Times,serif" font-size="14.00">Infrastruktura::Telegram#posty: t.me/hakierspejs_spam</text>
</g>
<!-- d33tah&#45;&#45;Infrastruktura::Telegram#posty: t.me/hakierspejs_spam -->
<g id="edge2" class="edge">
<title>d33tah&#45;&#45;Infrastruktura::Telegram#posty: t.me/hakierspejs_spam</title>
<path fill="none" stroke="#ff0000" d="M113.39,-893.71C196.19,-893.71 372.82,-893.71 372.82,-893.71 372.82,-893.71 372.82,-801.51 372.82,-776.3"/>
</g>
<!-- Bazy&#45;danych#Grafana -->
<g id="node4" class="node">
<title>Bazy&#45;danych#Grafana</title>
<ellipse fill="none" stroke="black" cx="639.91" cy="-1200" rx="114.28" ry="18"/>
<text text-anchor="middle" x="639.91" y="-1196.3" font-family="Times,serif" font-size="14.00">Bazy&#45;danych#Grafana</text>
</g>
<!-- d33tah&#45;&#45;Bazy&#45;danych#Grafana -->
<g id="edge3" class="edge">
<title>d33tah&#45;&#45;Bazy&#45;danych#Grafana</title>
<path fill="none" stroke="#ff0000" d="M99.58,-912.76C142.84,-912.76 220.82,-912.76 220.82,-912.76 220.82,-912.76 220.82,-1192.29 220.82,-1192.29 220.82,-1192.29 412.21,-1192.29 536.31,-1192.29"/>
</g>
<!-- Kanay&#45;komunikacji# -->
<g id="node5" class="node">
<title>Kanay&#45;komunikacji#</title>
<ellipse fill="none" stroke="black" cx="639.91" cy="-856" rx="108.58" ry="18"/>
<text text-anchor="middle" x="639.91" y="-852.3" font-family="Times,serif" font-size="14.00">Kanay&#45;komunikacji#</text>
</g>
<!-- d33tah&#45;&#45;Kanay&#45;komunikacji# -->
<g id="edge4" class="edge">
<title>d33tah&#45;&#45;Kanay&#45;komunikacji#</title>
<path fill="none" stroke="#ff0000" d="M71.82,-880.51C71.82,-868.86 71.82,-856 71.82,-856 71.82,-856 366.09,-856 531.05,-856"/>
</g>
<!-- Drzwi&#45;frontowe#Ekran  -->
<g id="node6" class="node">
<title>Drzwi&#45;frontowe#Ekran </title>
<ellipse fill="none" stroke="black" cx="639.91" cy="-813" rx="120.78" ry="18"/>
<text text-anchor="middle" x="639.91" y="-809.3" font-family="Times,serif" font-size="14.00">Drzwi&#45;frontowe#Ekran </text>
</g>
<!-- d33tah&#45;&#45;Drzwi&#45;frontowe#Ekran  -->
<g id="edge5" class="edge">
<title>d33tah&#45;&#45;Drzwi&#45;frontowe#Ekran </title>
<path fill="none" stroke="black" d="M111.38,-891.59C186.58,-891.59 341.82,-891.59 341.82,-891.59 341.82,-891.59 341.82,-822 341.82,-822 341.82,-822 448.99,-822 534.81,-822"/>
</g>
<!-- Infrastruktura::Telegram#HS24: t.me/hsl_info -->
<g id="node10" class="node">
<title>Infrastruktura::Telegram#HS24: t.me/hsl_info</title>
<ellipse fill="none" stroke="black" cx="639.91" cy="-1157" rx="231.26" ry="18"/>
<text text-anchor="middle" x="639.91" y="-1153.3" font-family="Times,serif" font-size="14.00">Infrastruktura::Telegram#HS24: t.me/hsl_info</text>
</g>
<!-- d33tah&#45;&#45;Infrastruktura::Telegram#HS24: t.me/hsl_info -->
<g id="edge6" class="edge">
<title>d33tah&#45;&#45;Infrastruktura::Telegram#HS24: t.me/hsl_info</title>
<path fill="none" stroke="#ff0000" d="M104.94,-910.65C157.57,-910.65 253.82,-910.65 253.82,-910.65 253.82,-910.65 253.82,-1157 253.82,-1157 253.82,-1157 326.25,-1157 408.36,-1157"/>
</g>
<!-- Infrastruktura::Telegram#G贸wny: t.me/hakierspejs -->
<g id="node11" class="node">
<title>Infrastruktura::Telegram#G贸wny: t.me/hakierspejs</title>
<ellipse fill="none" stroke="black" cx="639.91" cy="-899" rx="251.56" ry="18"/>
<text text-anchor="middle" x="639.91" y="-895.3" font-family="Times,serif" font-size="14.00">Infrastruktura::Telegram#G贸wny: t.me/hakierspejs</text>
</g>
<!-- d33tah&#45;&#45;Infrastruktura::Telegram#G贸wny: t.me/hakierspejs -->
<g id="edge7" class="edge">
<title>d33tah&#45;&#45;Infrastruktura::Telegram#G贸wny: t.me/hakierspejs</title>
<path fill="none" stroke="#ff0000" d="M114.68,-895.82C174.34,-895.82 286.56,-895.82 392,-895.82"/>
</g>
<!-- Infrastruktura::Domeny#Domeny -->
<g id="node12" class="node">
<title>Infrastruktura::Domeny#Domeny</title>
<ellipse fill="none" stroke="black" cx="639.91" cy="-727" rx="167.07" ry="18"/>
<text text-anchor="middle" x="639.91" y="-723.3" font-family="Times,serif" font-size="14.00">Infrastruktura::Domeny#Domeny</text>
</g>
<!-- d33tah&#45;&#45;Infrastruktura::Domeny#Domeny -->
<g id="edge8" class="edge">
<title>d33tah&#45;&#45;Infrastruktura::Domeny#Domeny</title>
<path fill="none" stroke="#ff0000" d="M108.66,-889.47C182.12,-889.47 338.82,-889.47 338.82,-889.47 338.82,-889.47 338.82,-737.8 338.82,-737.8 338.82,-737.8 425.68,-737.8 506.09,-737.8"/>
</g>
<!-- Infrastruktura::Github#Github -->
<g id="node13" class="node">
<title>Infrastruktura::Github#Github</title>
<ellipse fill="none" stroke="black" cx="639.91" cy="-942" rx="154.07" ry="18"/>
<text text-anchor="middle" x="639.91" y="-938.3" font-family="Times,serif" font-size="14.00">Infrastruktura::Github#Github</text>
</g>
<!-- d33tah&#45;&#45;Infrastruktura::Github#Github -->
<g id="edge9" class="edge">
<title>d33tah&#45;&#45;Infrastruktura::Github#Github</title>
<path fill="none" stroke="#ff0000" d="M115.21,-900.06C184.01,-900.06 309.82,-900.06 309.82,-900.06 309.82,-900.06 309.82,-946.5 309.82,-946.5 309.82,-946.5 402.98,-946.5 490.32,-946.5"/>
</g>
<!-- Marketing&#45;i&#45;media&#45;spoecznociowe# -->
<g id="node14" class="node">
<title>Marketing&#45;i&#45;media&#45;spoecznociowe#</title>
<ellipse fill="none" stroke="black" cx="639.91" cy="-684" rx="183.07" ry="18"/>
<text text-anchor="middle" x="639.91" y="-680.3" font-family="Times,serif" font-size="14.00">Marketing&#45;i&#45;media&#45;spoecznociowe#</text>
</g>
<!-- d33tah&#45;&#45;Marketing&#45;i&#45;media&#45;spoecznociowe# -->
<g id="edge10" class="edge">
<title>d33tah&#45;&#45;Marketing&#45;i&#45;media&#45;spoecznociowe#</title>
<path fill="none" stroke="#ff0000" d="M104.84,-887.35C175.7,-887.35 334.82,-887.35 334.82,-887.35 334.82,-887.35 334.82,-694.8 334.82,-694.8 334.82,-694.8 415.02,-694.8 493.17,-694.8"/>
</g>
<!-- Bazy&#45;danych#Pad -->
<g id="node15" class="node">
<title>Bazy&#45;danych#Pad</title>
<ellipse fill="none" stroke="black" cx="639.91" cy="-1114" rx="94.48" ry="18"/>
<text text-anchor="middle" x="639.91" y="-1110.3" font-family="Times,serif" font-size="14.00">Bazy&#45;danych#Pad</text>
</g>
<!-- d33tah&#45;&#45;Bazy&#45;danych#Pad -->
<g id="edge11" class="edge">
<title>d33tah&#45;&#45;Bazy&#45;danych#Pad</title>
<path fill="none" stroke="#ff0000" d="M108.5,-908.53C164.89,-908.53 265.82,-908.53 265.82,-908.53 265.82,-908.53 265.82,-1114 265.82,-1114 265.82,-1114 434.69,-1114 545.51,-1114"/>
</g>
<!-- Bazy&#45;danych#Trello -->
<g id="node16" class="node">
<title>Bazy&#45;danych#Trello</title>
<ellipse fill="none" stroke="black" cx="639.91" cy="-1071" rx="103.98" ry="18"/>
<text text-anchor="middle" x="639.91" y="-1067.3" font-family="Times,serif" font-size="14.00">Bazy&#45;danych#Trello</text>
</g>
<!-- d33tah&#45;&#45;Bazy&#45;danych#Trello -->
<g id="edge12" class="edge">
<title>d33tah&#45;&#45;Bazy&#45;danych#Trello</title>
<path fill="none" stroke="#ff0000" d="M111.57,-906.41C171.33,-906.41 276.82,-906.41 276.82,-906.41 276.82,-906.41 276.82,-1071 276.82,-1071 276.82,-1071 428.57,-1071 535.86,-1071"/>
</g>
<!-- Stowarzyszenie#Zarzd -->
<g id="node17" class="node">
<title>Stowarzyszenie#Zarzd</title>
<ellipse fill="none" stroke="black" cx="639.91" cy="-555" rx="123.48" ry="18"/>
<text text-anchor="middle" x="639.91" y="-551.3" font-family="Times,serif" font-size="14.00">Stowarzyszenie#Zarzd</text>
</g>
<!-- d33tah&#45;&#45;Stowarzyszenie#Zarzd -->
<g id="edge13" class="edge">
<title>d33tah&#45;&#45;Stowarzyszenie#Zarzd</title>
<path fill="none" stroke="#ff0000" d="M99.85,-885.24C167.32,-885.24 331.82,-885.24 331.82,-885.24 331.82,-885.24 331.82,-567 331.82,-567 331.82,-567 456.72,-567 547.47,-567"/>
</g>
<!-- Infrastruktura::Telegram#Spacerspejs: t.me/joinchat/UYf2ONtNj21J1DS6 -->
<g id="node18" class="node">
<title>Infrastruktura::Telegram#Spacerspejs: t.me/joinchat/UYf2ONtNj21J1DS6</title>
<ellipse fill="none" stroke="black" cx="639.91" cy="-1028" rx="352.84" ry="18"/>
<text text-anchor="middle" x="639.91" y="-1024.3" font-family="Times,serif" font-size="14.00">Infrastruktura::Telegram#Spacerspejs: t.me/joinchat/UYf2ONtNj21J1DS6</text>
</g>
<!-- d33tah&#45;&#45;Infrastruktura::Telegram#Spacerspejs: t.me/joinchat/UYf2ONtNj21J1DS6 -->
<g id="edge14" class="edge">
<title>d33tah&#45;&#45;Infrastruktura::Telegram#Spacerspejs: t.me/joinchat/UYf2ONtNj21J1DS6</title>
<path fill="none" stroke="#ff0000" d="M113.12,-904.29C177.24,-904.29 292.82,-904.29 292.82,-904.29 292.82,-904.29 292.82,-1005.02 292.82,-1024.69"/>
</g>
<!-- Miejsce::Miejsce#Klucze do spejsu -->
<g id="node19" class="node">
<title>Miejsce::Miejsce#Klucze do spejsu</title>
<ellipse fill="none" stroke="black" cx="639.91" cy="-211" rx="172.77" ry="18"/>
<text text-anchor="middle" x="639.91" y="-207.3" font-family="Times,serif" font-size="14.00">Miejsce::Miejsce#Klucze do spejsu</text>
</g>
<!-- d33tah&#45;&#45;Miejsce::Miejsce#Klucze do spejsu -->
<g id="edge15" class="edge">
<title>d33tah&#45;&#45;Miejsce::Miejsce#Klucze do spejsu</title>
<path fill="none" stroke="#ff0000" d="M92.02,-883.12C125.42,-883.12 187.82,-883.12 187.82,-883.12 187.82,-883.12 187.82,-221 187.82,-221 187.82,-221 363.59,-221 495.93,-221"/>
</g>
<!-- Infrastruktura::Mariuszbot#Mariuszbot -->
<g id="node20" class="node">
<title>Infrastruktura::Mariuszbot#Mariuszbot</title>
<ellipse fill="none" stroke="black" cx="639.91" cy="-985" rx="196.07" ry="18"/>
<text text-anchor="middle" x="639.91" y="-981.3" font-family="Times,serif" font-size="14.00">Infrastruktura::Mariuszbot#Mariuszbot</text>
</g>
<!-- d33tah&#45;&#45;Infrastruktura::Mariuszbot#Mariuszbot -->
<g id="edge16" class="edge">
<title>d33tah&#45;&#45;Infrastruktura::Mariuszbot#Mariuszbot</title>
<path fill="none" stroke="#ff0000" d="M114.48,-902.18C179.62,-902.18 295.82,-902.18 295.82,-902.18 295.82,-902.18 295.82,-985 295.82,-985 295.82,-985 366.17,-985 443.24,-985"/>
</g>
<!-- nastpne -->
<g id="node7" class="node">
<title>nastpne</title>
<ellipse fill="none" stroke="black" cx="71.49" cy="-1286" rx="53.09" ry="18"/>
<text text-anchor="middle" x="71.49" y="-1282.3" font-family="Times,serif" font-size="14.00">nastpne</text>
</g>
<!-- spotkanie -->
<g id="node8" class="node">
<title>spotkanie</title>
<ellipse fill="none" stroke="black" cx="71.49" cy="-1329" rx="55.79" ry="18"/>
<text text-anchor="middle" x="71.49" y="-1325.3" font-family="Times,serif" font-size="14.00">spotkanie</text>
</g>
<g id="node9" class="node">
<title></title>
<ellipse fill="none" stroke="#ff0000" cx="71.49" cy="-1372" rx="27" ry="18"/>
</g>
<!-- q3k -->
<g id="node21" class="node">
<title>q3k</title>
<ellipse fill="none" stroke="black" cx="71.49" cy="-770" rx="27.9" ry="18"/>
<text text-anchor="middle" x="71.49" y="-766.3" font-family="Times,serif" font-size="14.00">q3k</text>
</g>
<!-- q3k&#45;&#45;Kanay&#45;komunikacji# -->
<g id="edge18" class="edge">
<title>q3k&#45;&#45;Kanay&#45;komunikacji#</title>
<path fill="none" stroke="#2bd500" d="M98.98,-773.6C169.77,-773.6 352.82,-773.6 352.82,-773.6 352.82,-773.6 352.82,-844 352.82,-844 352.82,-844 473.9,-844 558.79,-844"/>
</g>
<!-- q3k&#45;&#45;Infrastruktura::Domeny#Domeny -->
<g id="edge17" class="edge">
<title>q3k&#45;&#45;Infrastruktura::Domeny#Domeny</title>
<path fill="none" stroke="#2bd500" d="M98.95,-766.4C161.03,-766.4 306.82,-766.4 306.82,-766.4 306.82,-766.4 306.82,-730.6 306.82,-730.6 306.82,-730.6 391.73,-730.6 475.8,-730.6"/>
</g>
<!-- Marketing&#45;i&#45;media&#45;spoecznociowe#Logo nr. 2 -->
<g id="node22" class="node">
<title>Marketing&#45;i&#45;media&#45;spoecznociowe#Logo nr. 2</title>
<ellipse fill="none" stroke="black" cx="639.91" cy="-598" rx="229.36" ry="18"/>
<text text-anchor="middle" x="639.91" y="-594.3" font-family="Times,serif" font-size="14.00">Marketing&#45;i&#45;media&#45;spoecznociowe#Logo nr. 2</text>
</g>
<!-- q3k&#45;&#45;Marketing&#45;i&#45;media&#45;spoecznociowe#Logo nr. 2 -->
<g id="edge19" class="edge">
<title>q3k&#45;&#45;Marketing&#45;i&#45;media&#45;spoecznociowe#Logo nr. 2</title>
<path fill="none" stroke="#2bd500" d="M71.82,-751.86C71.82,-749.84 71.82,-748.5 71.82,-748.5 71.82,-748.5 414.82,-748.5 414.82,-748.5 414.82,-748.5 414.82,-624.9 414.82,-601.72"/>
</g>
<!-- thinkofher -->
<g id="node23" class="node">
<title>thinkofher</title>
<ellipse fill="none" stroke="black" cx="71.49" cy="-942" rx="59.29" ry="18"/>
<text text-anchor="middle" x="71.49" y="-938.3" font-family="Times,serif" font-size="14.00">thinkofher</text>
</g>
<!-- thinkofher&#45;&#45;Infrastruktura::IRC#IRC -->
<g id="edge24" class="edge">
<title>thinkofher&#45;&#45;Infrastruktura::IRC#IRC</title>
<path fill="none" stroke="#0061f2" d="M119.82,-952.71C119.82,-1006.33 119.82,-1243 119.82,-1243 119.82,-1243 361.13,-1243 515,-1243"/>
</g>
<!-- thinkofher&#45;&#45;Kanay&#45;komunikacji# -->
<g id="edge21" class="edge">
<title>thinkofher&#45;&#45;Kanay&#45;komunikacji#</title>
<path fill="none" stroke="#0061f2" d="M118.82,-930.88C118.82,-908.89 118.82,-862 118.82,-862 118.82,-862 385.46,-862 537.27,-862"/>
</g>
<!-- thinkofher&#45;&#45;Infrastruktura::Telegram#G贸wny: t.me/hakierspejs -->
<g id="edge25" class="edge">
<title>thinkofher&#45;&#45;Infrastruktura::Telegram#G贸wny: t.me/hakierspejs</title>
<path fill="none" stroke="#0061f2" d="M122.82,-932.66C122.82,-919.72 122.82,-897.94 122.82,-897.94 122.82,-897.94 256.94,-897.94 388.56,-897.94"/>
</g>
<!-- thinkofher&#45;&#45;Infrastruktura::Github#Github -->
<g id="edge22" class="edge">
<title>thinkofher&#45;&#45;Infrastruktura::Github#Github</title>
<path fill="none" stroke="#0061f2" d="M122.94,-951C208.75,-951 383.75,-951 506.26,-951"/>
</g>
<!-- thinkofher&#45;&#45;Marketing&#45;i&#45;media&#45;spoecznociowe# -->
<g id="edge23" class="edge">
<title>thinkofher&#45;&#45;Marketing&#45;i&#45;media&#45;spoecznociowe#</title>
<path fill="none" stroke="#0061f2" d="M128.96,-937.5C210.19,-937.5 348.82,-937.5 348.82,-937.5 348.82,-937.5 348.82,-698.4 348.82,-698.4 348.82,-698.4 447.43,-698.4 529.86,-698.4"/>
</g>
<!-- Bazy&#45;danych# -->
<g id="node24" class="node">
<title>Bazy&#45;danych#</title>
<ellipse fill="none" stroke="black" cx="639.91" cy="-1286" rx="77.19" ry="18"/>
<text text-anchor="middle" x="639.91" y="-1282.3" font-family="Times,serif" font-size="14.00">Bazy&#45;danych#</text>
</g>
<!-- thinkofher&#45;&#45;Bazy&#45;danych# -->
<g id="edge20" class="edge">
<title>thinkofher&#45;&#45;Bazy&#45;danych#</title>
<path fill="none" stroke="#0061f2" d="M110.61,-928.5C123.14,-928.5 133.82,-928.5 133.82,-928.5 133.82,-928.5 133.82,-1292 133.82,-1292 133.82,-1292 426.71,-1292 566.86,-1292"/>
</g>
<!-- cytP450 -->
<g id="node25" class="node">
<title>cytP450</title>
<ellipse fill="none" stroke="black" cx="71.49" cy="-405" rx="48.99" ry="18"/>
<text text-anchor="middle" x="71.49" y="-401.3" font-family="Times,serif" font-size="14.00">cytP450</text>
</g>
<!-- cytP450&#45;&#45;Kanay&#45;komunikacji# -->
<g id="edge26" class="edge">
<title>cytP450&#45;&#45;Kanay&#45;komunikacji#</title>
<path fill="none" stroke="#c60077" d="M108.29,-417C130.61,-417 154.82,-417 154.82,-417 154.82,-417 154.82,-850 154.82,-850 154.82,-850 394.97,-850 537.33,-850"/>
</g>
<!-- cytP450&#45;&#45;Infrastruktura::Domeny#Domeny -->
<g id="edge29" class="edge">
<title>cytP450&#45;&#45;Infrastruktura::Domeny#Domeny</title>
<path fill="none" stroke="#c60077" d="M98.44,-420C116.44,-420 136.82,-420 136.82,-420 136.82,-420 136.82,-716.2 136.82,-716.2 136.82,-716.2 357.04,-716.2 506.08,-716.2"/>
</g>
<!-- cytP450&#45;&#45;Miejsce::Miejsce#Klucze do spejsu -->
<g id="edge31" class="edge">
<title>cytP450&#45;&#45;Miejsce::Miejsce#Klucze do spejsu</title>
<path fill="none" stroke="#c60077" d="M110.34,-394C183.13,-394 332.82,-394 332.82,-394 332.82,-394 332.82,-227 332.82,-227 332.82,-227 469.44,-227 560.43,-227"/>
</g>
<!-- Chciejlista#DIY -->
<g id="node26" class="node">
<title>Chciejlista#DIY</title>
<ellipse fill="none" stroke="black" cx="639.91" cy="-340" rx="83.69" ry="18"/>
<text text-anchor="middle" x="639.91" y="-336.3" font-family="Times,serif" font-size="14.00">Chciejlista#DIY</text>
</g>
<!-- cytP450&#45;&#45;Chciejlista#DIY -->
<g id="edge27" class="edge">
<title>cytP450&#45;&#45;Chciejlista#DIY</title>
<path fill="none" stroke="#c60077" d="M109.82,-393.64C109.82,-376.88 109.82,-347.5 109.82,-347.5 109.82,-347.5 416.99,-347.5 563.68,-347.5"/>
</g>
<!-- Przegld&#45;lokali&#45;na&#45;wynajem&#45;w&#45;odzi.&#45;Fundusz&#45;1000&#45;&#45;&#45;1500.#Bot Aleksego -->
<g id="node27" class="node">
<title>Przegld&#45;lokali&#45;na&#45;wynajem&#45;w&#45;odzi.&#45;Fundusz&#45;1000&#45;&#45;&#45;1500.#Bot Aleksego</title>
<ellipse fill="none" stroke="black" cx="639.91" cy="-469" rx="351.74" ry="18"/>
<text text-anchor="middle" x="639.91" y="-465.3" font-family="Times,serif" font-size="14.00">Przegld&#45;lokali&#45;na&#45;wynajem&#45;w&#45;odzi.&#45;Fundusz&#45;1000&#45;&#45;&#45;1500.#Bot Aleksego</text>
</g>
<!-- cytP450&#45;&#45;Przegld&#45;lokali&#45;na&#45;wynajem&#45;w&#45;odzi.&#45;Fundusz&#45;1000&#45;&#45;&#45;1500.#Bot Aleksego -->
<g id="edge28" class="edge">
<title>cytP450&#45;&#45;Przegld&#45;lokali&#45;na&#45;wynajem&#45;w&#45;odzi.&#45;Fundusz&#45;1000&#45;&#45;&#45;1500.#Bot Aleksego</title>
<path fill="none" stroke="#c60077" d="M113.73,-414C189.76,-414 341.82,-414 341.82,-414 341.82,-414 341.82,-443.66 341.82,-459.42"/>
</g>
<!-- Stowarzyszenie#Komisja Rewizyjna -->
<g id="node28" class="node">
<title>Stowarzyszenie#Komisja Rewizyjna</title>
<ellipse fill="none" stroke="black" cx="639.91" cy="-104" rx="178.17" ry="18"/>
<text text-anchor="middle" x="639.91" y="-100.3" font-family="Times,serif" font-size="14.00">Stowarzyszenie#Komisja Rewizyjna</text>
</g>
<!-- cytP450&#45;&#45;Stowarzyszenie#Komisja Rewizyjna -->
<g id="edge30" class="edge">
<title>cytP450&#45;&#45;Stowarzyszenie#Komisja Rewizyjna</title>
<path fill="none" stroke="#c60077" d="M100.82,-390.5C163.91,-390.5 306.82,-390.5 306.82,-390.5 306.82,-390.5 306.82,-113 306.82,-113 306.82,-113 398.43,-113 485.55,-113"/>
</g>
<!-- Chciejlista#Elektronika (w sensie urzdze konsumenckich) -->
<g id="node29" class="node">
<title>Chciejlista#Elektronika (w sensie urzdze konsumenckich)</title>
<ellipse fill="none" stroke="black" cx="639.91" cy="-426" rx="289.75" ry="18"/>
<text text-anchor="middle" x="639.91" y="-422.3" font-family="Times,serif" font-size="14.00">Chciejlista#Elektronika (w sensie urzdze konsumenckich)</text>
</g>
<!-- cytP450&#45;&#45;Chciejlista#Elektronika (w sensie urzdze konsumenckich) -->
<g id="edge32" class="edge">
<title>cytP450&#45;&#45;Chciejlista#Elektronika (w sensie urzdze konsumenckich)</title>
<path fill="none" stroke="#c60077" d="M117.53,-411C195.43,-411 356.76,-411 479.64,-411"/>
</g>
<!-- Zamek#Zamek -->
<g id="node30" class="node">
<title>Zamek#Zamek</title>
<ellipse fill="none" stroke="black" cx="639.91" cy="-383" rx="81.49" ry="18"/>
<text text-anchor="middle" x="639.91" y="-379.3" font-family="Times,serif" font-size="14.00">Zamek#Zamek</text>
</g>
<!-- cytP450&#45;&#45;Zamek#Zamek -->
<g id="edge33" class="edge">
<title>cytP450&#45;&#45;Zamek#Zamek</title>
<path fill="none" stroke="#c60077" d="M116.1,-397.5C221.04,-397.5 482.91,-397.5 591.52,-397.5"/>
</g>
<!-- pmysl -->
<g id="node31" class="node">
<title>pmysl</title>
<ellipse fill="none" stroke="black" cx="71.49" cy="-1200" rx="38.19" ry="18"/>
<text text-anchor="middle" x="71.49" y="-1196.3" font-family="Times,serif" font-size="14.00">pmysl</text>
</g>
<!-- pmysl&#45;&#45;Infrastruktura::IRC#IRC -->
<g id="edge38" class="edge">
<title>pmysl&#45;&#45;Infrastruktura::IRC#IRC</title>
<path fill="none" stroke="#b6e400" d="M106.38,-1207.71C211.95,-1207.71 520.82,-1207.71 520.82,-1207.71 520.82,-1207.71 520.82,-1227.56 520.82,-1237.49"/>
</g>
<!-- pmysl&#45;&#45;Bazy&#45;danych#Grafana -->
<g id="edge34" class="edge">
<title>pmysl&#45;&#45;Bazy&#45;danych#Grafana</title>
<path fill="none" stroke="#b6e400" d="M109.67,-1202.57C193.74,-1202.57 397.63,-1202.57 526.68,-1202.57"/>
</g>
<!-- pmysl&#45;&#45;Kanay&#45;komunikacji# -->
<g id="edge36" class="edge">
<title>pmysl&#45;&#45;Kanay&#45;komunikacji#</title>
<path fill="none" stroke="#b6e400" d="M98.69,-1187.14C144.43,-1187.14 231.82,-1187.14 231.82,-1187.14 231.82,-1187.14 231.82,-868 231.82,-868 231.82,-868 439.79,-868 558.79,-868"/>
</g>
<!-- pmysl&#45;&#45;Infrastruktura::Github#Github -->
<g id="edge37" class="edge">
<title>pmysl&#45;&#45;Infrastruktura::Github#Github</title>
<path fill="none" stroke="#b6e400" d="M109.52,-1197.43C159.99,-1197.43 242.82,-1197.43 242.82,-1197.43 242.82,-1197.43 242.82,-955.5 242.82,-955.5 242.82,-955.5 420.25,-955.5 537.91,-955.5"/>
</g>
<!-- pmysl&#45;&#45;Bazy&#45;danych# -->
<g id="edge35" class="edge">
<title>pmysl&#45;&#45;Bazy&#45;danych#</title>
<path fill="none" stroke="#b6e400" d="M98.46,-1212.86C161.82,-1212.86 314.82,-1212.86 314.82,-1212.86 314.82,-1212.86 314.82,-1280 314.82,-1280 314.82,-1280 471.11,-1280 566.95,-1280"/>
</g>
<!-- kszmigiel -->
<g id="node32" class="node">
<title>kszmigiel</title>
<ellipse fill="none" stroke="black" cx="71.49" cy="-813" rx="54.69" ry="18"/>
<text text-anchor="middle" x="71.49" y="-809.3" font-family="Times,serif" font-size="14.00">kszmigiel</text>
</g>
<!-- kszmigiel&#45;&#45;Infrastruktura::Telegram#posty: t.me/hakierspejs_spam -->
<g id="edge39" class="edge">
<title>kszmigiel&#45;&#45;Infrastruktura::Telegram#posty: t.me/hakierspejs_spam</title>
<path fill="none" stroke="#00ffff" d="M122.82,-806.79C122.82,-797.43 122.82,-780.8 122.82,-780.8 122.82,-780.8 273.63,-780.8 412.35,-780.8"/>
</g>
<!-- kszmigiel&#45;&#45;Infrastruktura::Telegram#G贸wny: t.me/hakierspejs -->
<g id="edge43" class="edge">
<title>kszmigiel&#45;&#45;Infrastruktura::Telegram#G贸wny: t.me/hakierspejs</title>
<path fill="none" stroke="#00ffff" d="M119.14,-804C221.63,-804 453.82,-804 453.82,-804 453.82,-804 453.82,-860.83 453.82,-886.58"/>
</g>
<!-- kszmigiel&#45;&#45;Infrastruktura::Github#Github -->
<g id="edge41" class="edge">
<title>kszmigiel&#45;&#45;Infrastruktura::Github#Github</title>
<path fill="none" stroke="#00ffff" d="M126.18,-813C197.65,-813 313.82,-813 313.82,-813 313.82,-813 313.82,-942 313.82,-942 313.82,-942 401.18,-942 485.46,-942"/>
</g>
<!-- kszmigiel&#45;&#45;Marketing&#45;i&#45;media&#45;spoecznociowe# -->
<g id="edge42" class="edge">
<title>kszmigiel&#45;&#45;Marketing&#45;i&#45;media&#45;spoecznociowe#</title>
<path fill="none" stroke="#00ffff" d="M118.82,-803.85C118.82,-775.52 118.82,-691.2 118.82,-691.2 118.82,-691.2 319.52,-691.2 471.8,-691.2"/>
</g>
<!-- Marketing&#45;i&#45;media&#45;spoecznociowe#Naklejki -->
<g id="node33" class="node">
<title>Marketing&#45;i&#45;media&#45;spoecznociowe#Naklejki</title>
<ellipse fill="none" stroke="black" cx="639.91" cy="-641" rx="221.76" ry="18"/>
<text text-anchor="middle" x="639.91" y="-637.3" font-family="Times,serif" font-size="14.00">Marketing&#45;i&#45;media&#45;spoecznociowe#Naklejki</text>
</g>
<!-- kszmigiel&#45;&#45;Marketing&#45;i&#45;media&#45;spoecznociowe#Naklejki -->
<g id="edge40" class="edge">
<title>kszmigiel&#45;&#45;Marketing&#45;i&#45;media&#45;spoecznociowe#Naklejki</title>
<path fill="none" stroke="#00ffff" d="M114.82,-801.98C114.82,-764.02 114.82,-641 114.82,-641 114.82,-641 274.68,-641 417.99,-641"/>
</g>
<!-- SP7Q -->
<g id="node34" class="node">
<title>SP7Q</title>
<ellipse fill="none" stroke="black" cx="71.49" cy="-684" rx="36.29" ry="18"/>
<text text-anchor="middle" x="71.49" y="-680.3" font-family="Times,serif" font-size="14.00">SP7Q</text>
</g>
<!-- SP7Q&#45;&#45;Infrastruktura::Github#Github -->
<g id="edge44" class="edge">
<title>SP7Q&#45;&#45;Infrastruktura::Github#Github</title>
<path fill="none" stroke="#ab00d5" d="M107.17,-687.6C175.21,-687.6 316.82,-687.6 316.82,-687.6 316.82,-687.6 316.82,-933 316.82,-933 316.82,-933 417.28,-933 506.16,-933"/>
</g>
<!-- SP7Q&#45;&#45;Marketing&#45;i&#45;media&#45;spoecznociowe# -->
<g id="edge46" class="edge">
<title>SP7Q&#45;&#45;Marketing&#45;i&#45;media&#45;spoecznociowe#</title>
<path fill="none" stroke="#ab00d5" d="M107.92,-684C177.07,-684 331.65,-684 456.46,-684"/>
</g>
<!-- SP7Q&#45;&#45;Stowarzyszenie#Zarzd -->
<g id="edge45" class="edge">
<title>SP7Q&#45;&#45;Stowarzyszenie#Zarzd</title>
<path fill="none" stroke="#ab00d5" d="M93.35,-669.6C155.34,-669.6 327.82,-669.6 327.82,-669.6 327.82,-669.6 327.82,-561 327.82,-561 327.82,-561 434.61,-561 523.25,-561"/>
</g>
<!-- kpc -->
<g id="node35" class="node">
<title>kpc</title>
<ellipse fill="none" stroke="black" cx="71.49" cy="-319" rx="27" ry="18"/>
<text text-anchor="middle" x="71.49" y="-315.3" font-family="Times,serif" font-size="14.00">kpc</text>
</g>
<!-- kpc&#45;&#45;Infrastruktura::Telegram#posty: t.me/hakierspejs_spam -->
<g id="edge47" class="edge">
<title>kpc&#45;&#45;Infrastruktura::Telegram#posty: t.me/hakierspejs_spam</title>
<path fill="none" stroke="#f29100" d="M90.58,-332C118.15,-332 165.82,-332 165.82,-332 165.82,-332 165.82,-759.2 165.82,-759.2 165.82,-759.2 290.92,-759.2 412.59,-759.2"/>
</g>
<!-- kpc&#45;&#45;Marketing&#45;i&#45;media&#45;spoecznociowe# -->
<g id="edge49" class="edge">
<title>kpc&#45;&#45;Marketing&#45;i&#45;media&#45;spoecznociowe#</title>
<path fill="none" stroke="#f29100" d="M95.74,-327C132.69,-327 198.82,-327 198.82,-327 198.82,-327 198.82,-680.4 198.82,-680.4 198.82,-680.4 338.14,-680.4 460.18,-680.4"/>
</g>
<!-- kpc&#45;&#45;Miejsce::Miejsce#Klucze do spejsu -->
<g id="edge51" class="edge">
<title>kpc&#45;&#45;Miejsce::Miejsce#Klucze do spejsu</title>
<path fill="none" stroke="#f29100" d="M91.29,-306.6C150.78,-306.6 323.82,-306.6 323.82,-306.6 323.82,-306.6 323.82,-225 323.82,-225 323.82,-225 439.7,-225 531.13,-225"/>
</g>
<!-- kpc&#45;&#45;Stowarzyszenie#Komisja Rewizyjna -->
<g id="edge50" class="edge">
<title>kpc&#45;&#45;Stowarzyszenie#Komisja Rewizyjna</title>
<path fill="none" stroke="#f29100" d="M86,-303.8C135.95,-303.8 297.82,-303.8 297.82,-303.8 297.82,-303.8 297.82,-104 297.82,-104 297.82,-104 378.57,-104 461.6,-104"/>
</g>
<!-- Czaty&#45;HS#HS: posty wyklte -->
<g id="node36" class="node">
<title>Czaty&#45;HS#HS: posty wyklte</title>
<ellipse fill="none" stroke="black" cx="639.91" cy="-297" rx="157.87" ry="18"/>
<text text-anchor="middle" x="639.91" y="-293.3" font-family="Times,serif" font-size="14.00">Czaty&#45;HS#HS: posty wyklte</text>
</g>
<!-- kpc&#45;&#45;Czaty&#45;HS#HS: posty wyklte -->
<g id="edge48" class="edge">
<title>kpc&#45;&#45;Czaty&#45;HS#HS: posty wyklte</title>
<path fill="none" stroke="#f29100" d="M96.65,-312.2C175.99,-312.2 423.45,-312.2 555.27,-312.2"/>
</g>
<!-- Infrastruktura::Telegram#Posty wyklte (celowo bez linka) -->
<g id="node37" class="node">
<title>Infrastruktura::Telegram#Posty wyklte (celowo bez linka)</title>
<ellipse fill="none" stroke="black" cx="639.91" cy="-254" rx="284.05" ry="18"/>
<text text-anchor="middle" x="639.91" y="-250.3" font-family="Times,serif" font-size="14.00">Infrastruktura::Telegram#Posty wyklte (celowo bez linka)</text>
</g>
<!-- kpc&#45;&#45;Infrastruktura::Telegram#Posty wyklte (celowo bez linka) -->
<g id="edge52" class="edge">
<title>kpc&#45;&#45;Infrastruktura::Telegram#Posty wyklte (celowo bez linka)</title>
<path fill="none" stroke="#f29100" d="M94.35,-309.4C171.84,-309.4 419.82,-309.4 419.82,-309.4 419.82,-309.4 419.82,-281.71 419.82,-265.48"/>
</g>
<!-- kujaw -->
<g id="node38" class="node">
<title>kujaw</title>
<ellipse fill="none" stroke="black" cx="71.49" cy="-598" rx="38.19" ry="18"/>
<text text-anchor="middle" x="71.49" y="-594.3" font-family="Times,serif" font-size="14.00">kujaw</text>
</g>
<!-- kujaw&#45;&#45;Marketing&#45;i&#45;media&#45;spoecznociowe# -->
<g id="edge54" class="edge">
<title>kujaw&#45;&#45;Marketing&#45;i&#45;media&#45;spoecznociowe#</title>
<path fill="none" stroke="#00c64f" d="M100.55,-610C167.1,-610 324.82,-610 324.82,-610 324.82,-610 324.82,-673.2 324.82,-673.2 324.82,-673.2 410.83,-673.2 492.97,-673.2"/>
</g>
<!-- kujaw&#45;&#45;Stowarzyszenie#Zarzd -->
<g id="edge55" class="edge">
<title>kujaw&#45;&#45;Stowarzyszenie#Zarzd</title>
<path fill="none" stroke="#00c64f" d="M107.89,-592C173.04,-592 302.82,-592 302.82,-592 302.82,-592 302.82,-555 302.82,-555 302.82,-555 420.1,-555 516.3,-555"/>
</g>
<!-- kujaw&#45;&#45;Miejsce::Miejsce#Klucze do spejsu -->
<g id="edge56" class="edge">
<title>kujaw&#45;&#45;Miejsce::Miejsce#Klucze do spejsu</title>
<path fill="none" stroke="#00c64f" d="M100.28,-586C131.46,-586 176.82,-586 176.82,-586 176.82,-586 176.82,-219 176.82,-219 176.82,-219 350.16,-219 484.74,-219"/>
</g>
<!-- kujaw&#45;&#45;Marketing&#45;i&#45;media&#45;spoecznociowe#Logo nr. 2 -->
<g id="edge57" class="edge">
<title>kujaw&#45;&#45;Marketing&#45;i&#45;media&#45;spoecznociowe#Logo nr. 2</title>
<path fill="none" stroke="#00c64f" d="M110.12,-598C171.77,-598 297.05,-598 410.3,-598"/>
</g>
<!-- kujaw&#45;&#45;Marketing&#45;i&#45;media&#45;spoecznociowe#Naklejki -->
<g id="edge53" class="edge">
<title>kujaw&#45;&#45;Marketing&#45;i&#45;media&#45;spoecznociowe#Naklejki</title>
<path fill="none" stroke="#00c64f" d="M107.92,-604C182.55,-604 345.82,-604 345.82,-604 345.82,-604 345.82,-632 345.82,-632 345.82,-632 392.05,-632 447.85,-632"/>
</g>
<!-- Piotrek_P -->
<g id="node39" class="node">
<title>Piotrek_P</title>
<ellipse fill="none" stroke="black" cx="71.49" cy="-276" rx="55.49" ry="18"/>
<text text-anchor="middle" x="71.49" y="-272.3" font-family="Times,serif" font-size="14.00">Piotrek_P</text>
</g>
<!-- Piotrek_P&#45;&#45;Miejsce::Miejsce#Klucze do spejsu -->
<g id="edge58" class="edge">
<title>Piotrek_P&#45;&#45;Miejsce::Miejsce#Klucze do spejsu</title>
<path fill="none" stroke="#2e00e4" d="M115.28,-265C185.33,-265 314.82,-265 314.82,-265 314.82,-265 314.82,-223 314.82,-223 314.82,-223 420.2,-223 510.96,-223"/>
</g>
<!-- polimerek -->
<g id="node40" class="node">
<title>polimerek</title>
<ellipse fill="none" stroke="black" cx="71.49" cy="-233" rx="57.39" ry="18"/>
<text text-anchor="middle" x="71.49" y="-229.3" font-family="Times,serif" font-size="14.00">polimerek</text>
</g>
<!-- polimerek&#45;&#45;Miejsce::Miejsce#Klucze do spejsu -->
<g id="edge59" class="edge">
<title>polimerek&#45;&#45;Miejsce::Miejsce#Klucze do spejsu</title>
<path fill="none" stroke="#ff0000" d="M97.77,-217C164.09,-217 342.53,-217 476.71,-217"/>
</g>
<!-- kotlovecrafta -->
<g id="node41" class="node">
<title>kotlovecrafta</title>
<ellipse fill="none" stroke="black" cx="71.49" cy="-190" rx="71.49" ry="18"/>
<text text-anchor="middle" x="71.49" y="-186.3" font-family="Times,serif" font-size="14.00">kotlovecrafta</text>
</g>
<!-- kotlovecrafta&#45;&#45;Miejsce::Miejsce#Klucze do spejsu -->
<g id="edge60" class="edge">
<title>kotlovecrafta&#45;&#45;Miejsce::Miejsce#Klucze do spejsu</title>
<path fill="none" stroke="#2bd500" d="M129.65,-200.5C215.95,-200.5 380.5,-200.5 499.45,-200.5"/>
</g>
<!-- sp7adg -->
<g id="node42" class="node">
<title>sp7adg</title>
<ellipse fill="none" stroke="black" cx="71.49" cy="-147" rx="44.39" ry="18"/>
<text text-anchor="middle" x="71.49" y="-143.3" font-family="Times,serif" font-size="14.00">sp7adg</text>
</g>
<!-- sp7adg&#45;&#45;Miejsce::Miejsce#Klucze do spejsu -->
<g id="edge61" class="edge">
<title>sp7adg&#45;&#45;Miejsce::Miejsce#Klucze do spejsu</title>
<path fill="none" stroke="#0061f2" d="M115.69,-147C249.46,-147 640.82,-147 640.82,-147 640.82,-147 640.82,-173.91 640.82,-192.83"/>
</g>
<!-- Polimerek -->
<g id="node43" class="node">
<title>Polimerek</title>
<ellipse fill="none" stroke="black" cx="71.49" cy="-555" rx="57.39" ry="18"/>
<text text-anchor="middle" x="71.49" y="-551.3" font-family="Times,serif" font-size="14.00">Polimerek</text>
</g>
<!-- Polimerek&#45;&#45;Stowarzyszenie#Zarzd -->
<g id="edge62" class="edge">
<title>Polimerek&#45;&#45;Stowarzyszenie#Zarzd</title>
<path fill="none" stroke="#c60077" d="M125.48,-549C216.31,-549 401.65,-549 523.28,-549"/>
</g>
<!-- kasesag -->
<g id="node44" class="node">
<title>kasesag</title>
<ellipse fill="none" stroke="black" cx="71.49" cy="-512" rx="48.19" ry="18"/>
<text text-anchor="middle" x="71.49" y="-508.3" font-family="Times,serif" font-size="14.00">kasesag</text>
</g>
<!-- kasesag&#45;&#45;Stowarzyszenie#Zarzd -->
<g id="edge64" class="edge">
<title>kasesag&#45;&#45;Stowarzyszenie#Zarzd</title>
<path fill="none" stroke="#b6e400" d="M116.88,-518C183.47,-518 299.82,-518 299.82,-518 299.82,-518 299.82,-543 299.82,-543 299.82,-543 446.72,-543 547.43,-543"/>
</g>
<!-- Marketing&#45;i&#45;media&#45;spoecznociowe#Przycisk HS&#45;LDZ -->
<g id="node45" class="node">
<title>Marketing&#45;i&#45;media&#45;spoecznociowe#Przycisk HS&#45;LDZ</title>
<ellipse fill="none" stroke="black" cx="639.91" cy="-512" rx="261.85" ry="18"/>
<text text-anchor="middle" x="639.91" y="-508.3" font-family="Times,serif" font-size="14.00">Marketing&#45;i&#45;media&#45;spoecznociowe#Przycisk HS&#45;LDZ</text>
</g>
<!-- kasesag&#45;&#45;Marketing&#45;i&#45;media&#45;spoecznociowe#Przycisk HS&#45;LDZ -->
<g id="edge63" class="edge">
<title>kasesag&#45;&#45;Marketing&#45;i&#45;media&#45;spoecznociowe#Przycisk HS&#45;LDZ</title>
<path fill="none" stroke="#b6e400" d="M117.05,-506C177.44,-506 288.58,-506 392.91,-506"/>
</g>
<!-- pzduniak -->
<g id="node46" class="node">
<title>pzduniak</title>
<ellipse fill="none" stroke="black" cx="71.49" cy="-104" rx="52.79" ry="18"/>
<text text-anchor="middle" x="71.49" y="-100.3" font-family="Times,serif" font-size="14.00">pzduniak</text>
</g>
<!-- pzduniak&#45;&#45;Stowarzyszenie#Komisja Rewizyjna -->
<g id="edge65" class="edge">
<title>pzduniak&#45;&#45;Stowarzyszenie#Komisja Rewizyjna</title>
<path fill="none" stroke="#00ffff" d="M117.53,-95C196.68,-95 361.98,-95 485.55,-95"/>
</g>
<!-- krcz -->
<g id="node47" class="node">
<title>krcz</title>
<ellipse fill="none" stroke="black" cx="71.49" cy="-61" rx="30.59" ry="18"/>
<text text-anchor="middle" x="71.49" y="-57.3" font-family="Times,serif" font-size="14.00">krcz</text>
</g>
<!-- krcz&#45;&#45;Stowarzyszenie#Komisja Rewizyjna -->
<g id="edge66" class="edge">
<title>krcz&#45;&#45;Stowarzyszenie#Komisja Rewizyjna</title>
<path fill="none" stroke="#ab00d5" d="M102.21,-61C212.33,-61 580.82,-61 580.82,-61 580.82,-61 580.82,-74.99 580.82,-87.01"/>
</g>
<!-- PiotrP -->
<g id="node48" class="node">
<title>PiotrP</title>
<ellipse fill="none" stroke="black" cx="71.49" cy="-18" rx="40.09" ry="18"/>
<text text-anchor="middle" x="71.49" y="-14.3" font-family="Times,serif" font-size="14.00">PiotrP</text>
</g>
<!-- PiotrP&#45;&#45;Stowarzyszenie#Komisja Rewizyjna -->
<g id="edge67" class="edge">
<title>PiotrP&#45;&#45;Stowarzyszenie#Komisja Rewizyjna</title>
<path fill="none" stroke="#f29100" d="M112.24,-18C251.47,-18 699.82,-18 699.82,-18 699.82,-18 699.82,-61.95 699.82,-87.01"/>
</g>
<!-- BluRaf -->
<g id="node49" class="node">
<title>BluRaf</title>
<ellipse fill="none" stroke="black" cx="71.49" cy="-1243" rx="42.49" ry="18"/>
<text text-anchor="middle" x="71.49" y="-1239.3" font-family="Times,serif" font-size="14.00">BluRaf</text>
</g>
<!-- BluRaf&#45;&#45;Infrastruktura::IRC#IRC -->
<g id="edge68" class="edge">
<title>BluRaf&#45;&#45;Infrastruktura::IRC#IRC</title>
<path fill="none" stroke="#00c64f" d="M108.35,-1252C192.67,-1252 402.31,-1252 531.69,-1252"/>
</g>
<!-- biniu -->
<g id="node50" class="node">
<title>biniu</title>
<ellipse fill="none" stroke="black" cx="71.49" cy="-727" rx="34.39" ry="18"/>
<text text-anchor="middle" x="71.49" y="-723.3" font-family="Times,serif" font-size="14.00">biniu</text>
</g>
<!-- biniu&#45;&#45;Marketing&#45;i&#45;media&#45;spoecznociowe# -->
<g id="edge69" class="edge">
<title>biniu&#45;&#45;Marketing&#45;i&#45;media&#45;spoecznociowe#</title>
<path fill="none" stroke="#2e00e4" d="M105.37,-723.4C200.78,-723.4 464.82,-723.4 464.82,-723.4 464.82,-723.4 464.82,-700.3 464.82,-689.48"/>
</g>
<!-- Keij0 -->
<g id="node51" class="node">
<title>Keij0</title>
<ellipse fill="none" stroke="black" cx="71.49" cy="-641" rx="34.39" ry="18"/>
<text text-anchor="middle" x="71.49" y="-637.3" font-family="Times,serif" font-size="14.00">Keij0</text>
</g>
<!-- Keij0&#45;&#45;Marketing&#45;i&#45;media&#45;spoecznociowe# -->
<g id="edge70" class="edge">
<title>Keij0&#45;&#45;Marketing&#45;i&#45;media&#45;spoecznociowe#</title>
<path fill="none" stroke="#ff0000" d="M101.57,-650C167.88,-650 320.82,-650 320.82,-650 320.82,-650 320.82,-676.8 320.82,-676.8 320.82,-676.8 394.78,-676.8 471.49,-676.8"/>
</g>
<!-- hslbridgebot -->
<g id="node52" class="node">
<title>hslbridgebot</title>
<ellipse fill="none" stroke="black" cx="71.49" cy="-1458" rx="69.59" ry="18"/>
<text text-anchor="middle" x="71.49" y="-1454.3" font-family="Times,serif" font-size="14.00">hslbridgebot</text>
</g>
<!-- Mostkowanie&#45;kana贸w#mautrix&#45;telegram (aktualnie u偶ywany) -->
<g id="node53" class="node">
<title>Mostkowanie&#45;kana贸w#mautrix&#45;telegram (aktualnie u偶ywany)</title>
<ellipse fill="none" stroke="black" cx="639.91" cy="-1437" rx="297.85" ry="18"/>
<text text-anchor="middle" x="639.91" y="-1433.3" font-family="Times,serif" font-size="14.00">Mostkowanie&#45;kana贸w#mautrix&#45;telegram (aktualnie u偶ywany)</text>
</g>
<!-- hslbridgebot&#45;&#45;Mostkowanie&#45;kana贸w#mautrix&#45;telegram (aktualnie u偶ywany) -->
<g id="edge71" class="edge">
<title>hslbridgebot&#45;&#45;Mostkowanie&#45;kana贸w#mautrix&#45;telegram (aktualnie u偶ywany)</title>
<path fill="none" stroke="#2bd500" d="M128.07,-1447.5C191.4,-1447.5 298.22,-1447.5 397.95,-1447.5"/>
</g>
<!-- telegrambot -->
<g id="node54" class="node">
<title>telegrambot</title>
<ellipse fill="none" stroke="black" cx="71.49" cy="-1415" rx="67.69" ry="18"/>
<text text-anchor="middle" x="71.49" y="-1411.3" font-family="Times,serif" font-size="14.00">telegrambot</text>
</g>
<!-- telegrambot&#45;&#45;Mostkowanie&#45;kana贸w#mautrix&#45;telegram (aktualnie u偶ywany) -->
<g id="edge72" class="edge">
<title>telegrambot&#45;&#45;Mostkowanie&#45;kana贸w#mautrix&#45;telegram (aktualnie u偶ywany)</title>
<path fill="none" stroke="#0061f2" d="M125.22,-1426C189.43,-1426 301.12,-1426 404.09,-1426"/>
</g>
</g>
</svg>
