<?xml version="1.0" encoding="UTF-8" standalone="no"?>
<!DOCTYPE svg PUBLIC "-//W3C//DTD SVG 1.1//EN"
 "http://www.w3.org/Graphics/SVG/1.1/DTD/svg11.dtd">
<!-- Generated by graphviz version 2.43.0 (0)
 -->
<!-- Title: %3 Pages: 1 -->
<svg width="1001pt" height="1226pt"
 viewBox="0.00 0.00 1000.82 1226.00" xmlns="http://www.w3.org/2000/svg" xmlns:xlink="http://www.w3.org/1999/xlink">
<g id="graph0" class="graph" transform="scale(1 1) rotate(0) translate(4 1222)">
<title>%3</title>
<polygon fill="white" stroke="transparent" points="-4,4 -4,-1222 996.82,-1222 996.82,4 -4,4"/>
<!-- d33tah -->
<g id="node1" class="node">
<title>d33tah</title>
<ellipse fill="none" stroke="black" cx="71.49" cy="-899" rx="43.59" ry="18"/>
<text text-anchor="middle" x="71.49" y="-895.3" font-family="Times,serif" font-size="14.00">d33tah</text>
</g>
<!-- Infrastruktura::Telegram#G贸wny: t.me/hakierspejs -->
<g id="node2" class="node">
<title>Infrastruktura::Telegram#G贸wny: t.me/hakierspejs</title>
<ellipse fill="none" stroke="black" cx="639.91" cy="-942" rx="251.56" ry="18"/>
<text text-anchor="middle" x="639.91" y="-938.3" font-family="Times,serif" font-size="14.00">Infrastruktura::Telegram#G贸wny: t.me/hakierspejs</text>
</g>
<!-- d33tah&#45;&#45;Infrastruktura::Telegram#G贸wny: t.me/hakierspejs -->
<g id="edge1" class="edge">
<title>d33tah&#45;&#45;Infrastruktura::Telegram#G贸wny: t.me/hakierspejs</title>
<path fill="none" stroke="#ff0000" d="M114.19,-903C188.05,-903 331.82,-903 331.82,-903 331.82,-903 331.82,-951 331.82,-951 331.82,-951 371.18,-951 421.76,-951"/>
</g>
<!-- Bazy&#45;danych#Trello -->
<g id="node3" class="node">
<title>Bazy&#45;danych#Trello</title>
<ellipse fill="none" stroke="black" cx="639.91" cy="-1200" rx="103.98" ry="18"/>
<text text-anchor="middle" x="639.91" y="-1196.3" font-family="Times,serif" font-size="14.00">Bazy&#45;danych#Trello</text>
</g>
<!-- d33tah&#45;&#45;Bazy&#45;danych#Trello -->
<g id="edge2" class="edge">
<title>d33tah&#45;&#45;Bazy&#45;danych#Trello</title>
<path fill="none" stroke="#ff0000" d="M91.46,-915C136.05,-915 239.82,-915 239.82,-915 239.82,-915 239.82,-1200 239.82,-1200 239.82,-1200 417.29,-1200 535.83,-1200"/>
</g>
<!-- Infrastruktura::Telegram#posty: t.me/hakierspejs_spam -->
<g id="node4" class="node">
<title>Infrastruktura::Telegram#posty: t.me/hakierspejs_spam</title>
<ellipse fill="none" stroke="black" cx="639.91" cy="-899" rx="284.05" ry="18"/>
<text text-anchor="middle" x="639.91" y="-895.3" font-family="Times,serif" font-size="14.00">Infrastruktura::Telegram#posty: t.me/hakierspejs_spam</text>
</g>
<!-- d33tah&#45;&#45;Infrastruktura::Telegram#posty: t.me/hakierspejs_spam -->
<g id="edge3" class="edge">
<title>d33tah&#45;&#45;Infrastruktura::Telegram#posty: t.me/hakierspejs_spam</title>
<path fill="none" stroke="#ff0000" d="M115.15,-901C168.38,-901 262.96,-901 357.3,-901"/>
</g>
<!-- Marketing&#45;i&#45;media&#45;spoecznociowe# -->
<g id="node5" class="node">
<title>Marketing&#45;i&#45;media&#45;spoecznociowe#</title>
<ellipse fill="none" stroke="black" cx="639.91" cy="-727" rx="183.07" ry="18"/>
<text text-anchor="middle" x="639.91" y="-723.3" font-family="Times,serif" font-size="14.00">Marketing&#45;i&#45;media&#45;spoecznociowe#</text>
</g>
<!-- d33tah&#45;&#45;Marketing&#45;i&#45;media&#45;spoecznociowe# -->
<g id="edge4" class="edge">
<title>d33tah&#45;&#45;Marketing&#45;i&#45;media&#45;spoecznociowe#</title>
<path fill="none" stroke="#ff0000" d="M110.64,-891C179.9,-891 316.82,-891 316.82,-891 316.82,-891 316.82,-739.86 316.82,-739.86 316.82,-739.86 421.19,-739.86 511.29,-739.86"/>
</g>
<!-- Infrastruktura::Telegram#Spacerspejs: t.me/joinchat/UYf2ONtNj21J1DS6 -->
<g id="node6" class="node">
<title>Infrastruktura::Telegram#Spacerspejs: t.me/joinchat/UYf2ONtNj21J1DS6</title>
<ellipse fill="none" stroke="black" cx="639.91" cy="-1157" rx="352.84" ry="18"/>
<text text-anchor="middle" x="639.91" y="-1153.3" font-family="Times,serif" font-size="14.00">Infrastruktura::Telegram#Spacerspejs: t.me/joinchat/UYf2ONtNj21J1DS6</text>
</g>
<!-- d33tah&#45;&#45;Infrastruktura::Telegram#Spacerspejs: t.me/joinchat/UYf2ONtNj21J1DS6 -->
<g id="edge5" class="edge">
<title>d33tah&#45;&#45;Infrastruktura::Telegram#Spacerspejs: t.me/joinchat/UYf2ONtNj21J1DS6</title>
<path fill="none" stroke="#ff0000" d="M99.27,-913C158.29,-913 290.82,-913 290.82,-913 290.82,-913 290.82,-1127.45 290.82,-1154.26"/>
</g>
<!-- Infrastruktura::Github#Github -->
<g id="node7" class="node">
<title>Infrastruktura::Github#Github</title>
<ellipse fill="none" stroke="black" cx="639.91" cy="-813" rx="154.07" ry="18"/>
<text text-anchor="middle" x="639.91" y="-809.3" font-family="Times,serif" font-size="14.00">Infrastruktura::Github#Github</text>
</g>
<!-- d33tah&#45;&#45;Infrastruktura::Github#Github -->
<g id="edge6" class="edge">
<title>d33tah&#45;&#45;Infrastruktura::Github#Github</title>
<path fill="none" stroke="#ff0000" d="M114.23,-895C186.92,-895 326.82,-895 326.82,-895 326.82,-895 326.82,-825.86 326.82,-825.86 326.82,-825.86 441.23,-825.86 531.72,-825.86"/>
</g>
<!-- Drzwi&#45;frontowe#Ekran  -->
<g id="node8" class="node">
<title>Drzwi&#45;frontowe#Ekran </title>
<ellipse fill="none" stroke="black" cx="639.91" cy="-1114" rx="120.78" ry="18"/>
<text text-anchor="middle" x="639.91" y="-1110.3" font-family="Times,serif" font-size="14.00">Drzwi&#45;frontowe#Ekran </text>
</g>
<!-- d33tah&#45;&#45;Drzwi&#45;frontowe#Ekran  -->
<g id="edge7" class="edge">
<title>d33tah&#45;&#45;Drzwi&#45;frontowe#Ekran </title>
<path fill="none" stroke="black" d="M104.3,-911C166.14,-911 293.82,-911 293.82,-911 293.82,-911 293.82,-1114 293.82,-1114 293.82,-1114 419.06,-1114 518.86,-1114"/>
</g>
<!-- Infrastruktura::IRC#IRC -->
<g id="node12" class="node">
<title>Infrastruktura::IRC#IRC</title>
<ellipse fill="none" stroke="black" cx="639.91" cy="-684" rx="124.58" ry="18"/>
<text text-anchor="middle" x="639.91" y="-680.3" font-family="Times,serif" font-size="14.00">Infrastruktura::IRC#IRC</text>
</g>
<!-- d33tah&#45;&#45;Infrastruktura::IRC#IRC -->
<g id="edge8" class="edge">
<title>d33tah&#45;&#45;Infrastruktura::IRC#IRC</title>
<path fill="none" stroke="#ff0000" d="M107.77,-889C175.38,-889 313.82,-889 313.82,-889 313.82,-889 313.82,-694.8 313.82,-694.8 313.82,-694.8 444,-694.8 539.85,-694.8"/>
</g>
<!-- Infrastruktura::Telegram#HS24: t.me/hsl_info -->
<g id="node13" class="node">
<title>Infrastruktura::Telegram#HS24: t.me/hsl_info</title>
<ellipse fill="none" stroke="black" cx="639.91" cy="-1071" rx="231.26" ry="18"/>
<text text-anchor="middle" x="639.91" y="-1067.3" font-family="Times,serif" font-size="14.00">Infrastruktura::Telegram#HS24: t.me/hsl_info</text>
</g>
<!-- d33tah&#45;&#45;Infrastruktura::Telegram#HS24: t.me/hsl_info -->
<g id="edge9" class="edge">
<title>d33tah&#45;&#45;Infrastruktura::Telegram#HS24: t.me/hsl_info</title>
<path fill="none" stroke="#ff0000" d="M108.04,-909C171.6,-909 295.82,-909 295.82,-909 295.82,-909 295.82,-1071 295.82,-1071 295.82,-1071 346.25,-1071 408.49,-1071"/>
</g>
<!-- Bazy&#45;danych#Grafana -->
<g id="node14" class="node">
<title>Bazy&#45;danych#Grafana</title>
<ellipse fill="none" stroke="black" cx="639.91" cy="-770" rx="114.28" ry="18"/>
<text text-anchor="middle" x="639.91" y="-766.3" font-family="Times,serif" font-size="14.00">Bazy&#45;danych#Grafana</text>
</g>
<!-- d33tah&#45;&#45;Bazy&#45;danych#Grafana -->
<g id="edge10" class="edge">
<title>d33tah&#45;&#45;Bazy&#45;danych#Grafana</title>
<path fill="none" stroke="#ff0000" d="M112.61,-893C182.94,-893 318.82,-893 318.82,-893 318.82,-893 318.82,-779 318.82,-779 318.82,-779 446.21,-779 540.51,-779"/>
</g>
<!-- Kanay&#45;komunikacji# -->
<g id="node15" class="node">
<title>Kanay&#45;komunikacji#</title>
<ellipse fill="none" stroke="black" cx="639.91" cy="-469" rx="108.58" ry="18"/>
<text text-anchor="middle" x="639.91" y="-465.3" font-family="Times,serif" font-size="14.00">Kanay&#45;komunikacji#</text>
</g>
<!-- d33tah&#45;&#45;Kanay&#45;komunikacji# -->
<g id="edge11" class="edge">
<title>d33tah&#45;&#45;Kanay&#45;komunikacji#</title>
<path fill="none" stroke="#ff0000" d="M104.27,-887C169.82,-887 310.82,-887 310.82,-887 310.82,-887 310.82,-481 310.82,-481 310.82,-481 461.54,-481 558.98,-481"/>
</g>
<!-- Infrastruktura::Mariuszbot#Mariuszbot -->
<g id="node16" class="node">
<title>Infrastruktura::Mariuszbot#Mariuszbot</title>
<ellipse fill="none" stroke="black" cx="639.91" cy="-1028" rx="196.07" ry="18"/>
<text text-anchor="middle" x="639.91" y="-1024.3" font-family="Times,serif" font-size="14.00">Infrastruktura::Mariuszbot#Mariuszbot</text>
</g>
<!-- d33tah&#45;&#45;Infrastruktura::Mariuszbot#Mariuszbot -->
<g id="edge12" class="edge">
<title>d33tah&#45;&#45;Infrastruktura::Mariuszbot#Mariuszbot</title>
<path fill="none" stroke="#ff0000" d="M110.57,-907C175.57,-907 298.82,-907 298.82,-907 298.82,-907 298.82,-1028 298.82,-1028 298.82,-1028 367.65,-1028 443.47,-1028"/>
</g>
<!-- Bazy&#45;danych#Pad -->
<g id="node17" class="node">
<title>Bazy&#45;danych#Pad</title>
<ellipse fill="none" stroke="black" cx="639.91" cy="-985" rx="94.48" ry="18"/>
<text text-anchor="middle" x="639.91" y="-981.3" font-family="Times,serif" font-size="14.00">Bazy&#45;danych#Pad</text>
</g>
<!-- d33tah&#45;&#45;Bazy&#45;danych#Pad -->
<g id="edge13" class="edge">
<title>d33tah&#45;&#45;Bazy&#45;danych#Pad</title>
<path fill="none" stroke="#ff0000" d="M112.6,-905C184.1,-905 323.82,-905 323.82,-905 323.82,-905 323.82,-985 323.82,-985 323.82,-985 452.36,-985 545.5,-985"/>
</g>
<!-- Infrastruktura::Domeny#Domeny -->
<g id="node18" class="node">
<title>Infrastruktura::Domeny#Domeny</title>
<ellipse fill="none" stroke="black" cx="639.91" cy="-383" rx="167.07" ry="18"/>
<text text-anchor="middle" x="639.91" y="-379.3" font-family="Times,serif" font-size="14.00">Infrastruktura::Domeny#Domeny</text>
</g>
<!-- d33tah&#45;&#45;Infrastruktura::Domeny#Domeny -->
<g id="edge14" class="edge">
<title>d33tah&#45;&#45;Infrastruktura::Domeny#Domeny</title>
<path fill="none" stroke="#ff0000" d="M91.45,-883C119.67,-883 167.82,-883 167.82,-883 167.82,-883 167.82,-394 167.82,-394 167.82,-394 367.82,-394 507.46,-394"/>
</g>
<!-- Miejsce::Miejsce#Klucze do spejsu -->
<g id="node19" class="node">
<title>Miejsce::Miejsce#Klucze do spejsu</title>
<ellipse fill="none" stroke="black" cx="639.91" cy="-254" rx="172.77" ry="18"/>
<text text-anchor="middle" x="639.91" y="-250.3" font-family="Times,serif" font-size="14.00">Miejsce::Miejsce#Klucze do spejsu</text>
</g>
<!-- d33tah&#45;&#45;Miejsce::Miejsce#Klucze do spejsu -->
<g id="edge15" class="edge">
<title>d33tah&#45;&#45;Miejsce::Miejsce#Klucze do spejsu</title>
<path fill="none" stroke="#ff0000" d="M99.29,-885C161.37,-885 305.82,-885 305.82,-885 305.82,-885 305.82,-269.67 305.82,-269.67 305.82,-269.67 455.76,-269.67 554.74,-269.67"/>
</g>
<!-- Stowarzyszenie#Zarzd -->
<g id="node20" class="node">
<title>Stowarzyszenie#Zarzd</title>
<ellipse fill="none" stroke="black" cx="639.91" cy="-856" rx="123.48" ry="18"/>
<text text-anchor="middle" x="639.91" y="-852.3" font-family="Times,serif" font-size="14.00">Stowarzyszenie#Zarzd</text>
</g>
<!-- d33tah&#45;&#45;Stowarzyszenie#Zarzd -->
<g id="edge16" class="edge">
<title>d33tah&#45;&#45;Stowarzyszenie#Zarzd</title>
<path fill="none" stroke="#ff0000" d="M115.15,-899C188.56,-899 328.82,-899 328.82,-899 328.82,-899 328.82,-868.86 328.82,-868.86 328.82,-868.86 461.21,-868.86 553.25,-868.86"/>
</g>
<!-- nastpne -->
<g id="node9" class="node">
<title>nastpne</title>
<ellipse fill="none" stroke="black" cx="71.49" cy="-942" rx="53.09" ry="18"/>
<text text-anchor="middle" x="71.49" y="-938.3" font-family="Times,serif" font-size="14.00">nastpne</text>
</g>
<!-- spotkanie -->
<g id="node10" class="node">
<title>spotkanie</title>
<ellipse fill="none" stroke="black" cx="71.49" cy="-985" rx="55.79" ry="18"/>
<text text-anchor="middle" x="71.49" y="-981.3" font-family="Times,serif" font-size="14.00">spotkanie</text>
</g>
<g id="node11" class="node">
<title></title>
<ellipse fill="none" stroke="#ff0000" cx="71.49" cy="-1028" rx="27" ry="18"/>
</g>
<!-- biniu -->
<g id="node21" class="node">
<title>biniu</title>
<ellipse fill="none" stroke="black" cx="71.49" cy="-770" rx="34.39" ry="18"/>
<text text-anchor="middle" x="71.49" y="-766.3" font-family="Times,serif" font-size="14.00">biniu</text>
</g>
<!-- biniu&#45;&#45;Marketing&#45;i&#45;media&#45;spoecznociowe# -->
<g id="edge17" class="edge">
<title>biniu&#45;&#45;Marketing&#45;i&#45;media&#45;spoecznociowe#</title>
<path fill="none" stroke="#2bd500" d="M106.23,-770C202.7,-770 466.82,-770 466.82,-770 466.82,-770 466.82,-744.79 466.82,-732.98"/>
</g>
<!-- kszmigiel -->
<g id="node22" class="node">
<title>kszmigiel</title>
<ellipse fill="none" stroke="black" cx="71.49" cy="-856" rx="54.69" ry="18"/>
<text text-anchor="middle" x="71.49" y="-852.3" font-family="Times,serif" font-size="14.00">kszmigiel</text>
</g>
<!-- kszmigiel&#45;&#45;Infrastruktura::Telegram#G贸wny: t.me/hakierspejs -->
<g id="edge18" class="edge">
<title>kszmigiel&#45;&#45;Infrastruktura::Telegram#G贸wny: t.me/hakierspejs</title>
<path fill="none" stroke="#0061f2" d="M120.84,-863.71C196.83,-863.71 333.82,-863.71 333.82,-863.71 333.82,-863.71 333.82,-942 333.82,-942 333.82,-942 355.9,-942 388.19,-942"/>
</g>
<!-- kszmigiel&#45;&#45;Infrastruktura::Telegram#posty: t.me/hakierspejs_spam -->
<g id="edge20" class="edge">
<title>kszmigiel&#45;&#45;Infrastruktura::Telegram#posty: t.me/hakierspejs_spam</title>
<path fill="none" stroke="#0061f2" d="M120.82,-863.91C120.82,-875.82 120.82,-897 120.82,-897 120.82,-897 235.83,-897 357.58,-897"/>
</g>
<!-- kszmigiel&#45;&#45;Marketing&#45;i&#45;media&#45;spoecznociowe# -->
<g id="edge21" class="edge">
<title>kszmigiel&#45;&#45;Marketing&#45;i&#45;media&#45;spoecznociowe#</title>
<path fill="none" stroke="#0061f2" d="M118.82,-846.88C118.82,-818.68 118.82,-734.71 118.82,-734.71 118.82,-734.71 321.42,-734.71 473.96,-734.71"/>
</g>
<!-- kszmigiel&#45;&#45;Infrastruktura::Github#Github -->
<g id="edge22" class="edge">
<title>kszmigiel&#45;&#45;Infrastruktura::Github#Github</title>
<path fill="none" stroke="#0061f2" d="M124.82,-851.95C124.82,-842.68 124.82,-820.71 124.82,-820.71 124.82,-820.71 347.97,-820.71 500.52,-820.71"/>
</g>
<!-- kszmigiel&#45;&#45;Stowarzyszenie#Zarzd -->
<g id="edge23" class="edge">
<title>kszmigiel&#45;&#45;Stowarzyszenie#Zarzd</title>
<path fill="none" stroke="#0061f2" d="M125.74,-858.57C215.23,-858.57 395.98,-858.57 517.52,-858.57"/>
</g>
<!-- Marketing&#45;i&#45;media&#45;spoecznociowe#Naklejki -->
<g id="node23" class="node">
<title>Marketing&#45;i&#45;media&#45;spoecznociowe#Naklejki</title>
<ellipse fill="none" stroke="black" cx="639.91" cy="-641" rx="221.76" ry="18"/>
<text text-anchor="middle" x="639.91" y="-637.3" font-family="Times,serif" font-size="14.00">Marketing&#45;i&#45;media&#45;spoecznociowe#Naklejki</text>
</g>
<!-- kszmigiel&#45;&#45;Marketing&#45;i&#45;media&#45;spoecznociowe#Naklejki -->
<g id="edge19" class="edge">
<title>kszmigiel&#45;&#45;Marketing&#45;i&#45;media&#45;spoecznociowe#Naklejki</title>
<path fill="none" stroke="#0061f2" d="M120.9,-848.29C220.89,-848.29 437.82,-848.29 437.82,-848.29 437.82,-848.29 437.82,-686.74 437.82,-648.87"/>
</g>
<!-- Keij0 -->
<g id="node24" class="node">
<title>Keij0</title>
<ellipse fill="none" stroke="black" cx="71.49" cy="-727" rx="34.39" ry="18"/>
<text text-anchor="middle" x="71.49" y="-723.3" font-family="Times,serif" font-size="14.00">Keij0</text>
</g>
<!-- Keij0&#45;&#45;Marketing&#45;i&#45;media&#45;spoecznociowe# -->
<g id="edge24" class="edge">
<title>Keij0&#45;&#45;Marketing&#45;i&#45;media&#45;spoecznociowe#</title>
<path fill="none" stroke="#c60077" d="M105.77,-729.57C174.18,-729.57 331.93,-729.57 458.36,-729.57"/>
</g>
<!-- thinkofher -->
<g id="node25" class="node">
<title>thinkofher</title>
<ellipse fill="none" stroke="black" cx="71.49" cy="-641" rx="59.29" ry="18"/>
<text text-anchor="middle" x="71.49" y="-637.3" font-family="Times,serif" font-size="14.00">thinkofher</text>
</g>
<!-- thinkofher&#45;&#45;Infrastruktura::Telegram#G贸wny: t.me/hakierspejs -->
<g id="edge25" class="edge">
<title>thinkofher&#45;&#45;Infrastruktura::Telegram#G贸wny: t.me/hakierspejs</title>
<path fill="none" stroke="#b6e400" d="M127.44,-647C205.28,-647 336.82,-647 336.82,-647 336.82,-647 336.82,-933 336.82,-933 336.82,-933 373.87,-933 422.06,-933"/>
</g>
<!-- thinkofher&#45;&#45;Marketing&#45;i&#45;media&#45;spoecznociowe# -->
<g id="edge28" class="edge">
<title>thinkofher&#45;&#45;Marketing&#45;i&#45;media&#45;spoecznociowe#</title>
<path fill="none" stroke="#b6e400" d="M120.82,-651.23C120.82,-673.51 120.82,-724.43 120.82,-724.43 120.82,-724.43 308.67,-724.43 458.36,-724.43"/>
</g>
<!-- thinkofher&#45;&#45;Infrastruktura::Github#Github -->
<g id="edge27" class="edge">
<title>thinkofher&#45;&#45;Infrastruktura::Github#Github</title>
<path fill="none" stroke="#b6e400" d="M115.82,-653.33C115.82,-681.57 115.82,-748.5 115.82,-748.5 115.82,-748.5 505.82,-748.5 505.82,-748.5 505.82,-748.5 505.82,-786.31 505.82,-804.03"/>
</g>
<!-- thinkofher&#45;&#45;Infrastruktura::IRC#IRC -->
<g id="edge29" class="edge">
<title>thinkofher&#45;&#45;Infrastruktura::IRC#IRC</title>
<path fill="none" stroke="#b6e400" d="M122.82,-650.14C122.82,-661.78 122.82,-680.4 122.82,-680.4 122.82,-680.4 364.46,-680.4 517.36,-680.4"/>
</g>
<!-- thinkofher&#45;&#45;Kanay&#45;komunikacji# -->
<g id="edge30" class="edge">
<title>thinkofher&#45;&#45;Kanay&#45;komunikacji#</title>
<path fill="none" stroke="#b6e400" d="M114.82,-628.63C114.82,-589.19 114.82,-469 114.82,-469 114.82,-469 377.31,-469 531.11,-469"/>
</g>
<!-- Bazy&#45;danych# -->
<g id="node26" class="node">
<title>Bazy&#45;danych#</title>
<ellipse fill="none" stroke="black" cx="639.91" cy="-512" rx="77.19" ry="18"/>
<text text-anchor="middle" x="639.91" y="-508.3" font-family="Times,serif" font-size="14.00">Bazy&#45;danych#</text>
</g>
<!-- thinkofher&#45;&#45;Bazy&#45;danych# -->
<g id="edge26" class="edge">
<title>thinkofher&#45;&#45;Bazy&#45;danych#</title>
<path fill="none" stroke="#b6e400" d="M118.82,-629.95C118.82,-597.71 118.82,-506 118.82,-506 118.82,-506 423.49,-506 566.9,-506"/>
</g>
<!-- Infrastruktura::Matrix#hs&#45;ldz:hackerspace.pl -->
<g id="node27" class="node">
<title>Infrastruktura::Matrix#hs&#45;ldz:hackerspace.pl</title>
<ellipse fill="none" stroke="black" cx="639.91" cy="-598" rx="221.76" ry="18"/>
<text text-anchor="middle" x="639.91" y="-594.3" font-family="Times,serif" font-size="14.00">Infrastruktura::Matrix#hs&#45;ldz:hackerspace.pl</text>
</g>
<!-- thinkofher&#45;&#45;Infrastruktura::Matrix#hs&#45;ldz:hackerspace.pl -->
<g id="edge31" class="edge">
<title>thinkofher&#45;&#45;Infrastruktura::Matrix#hs&#45;ldz:hackerspace.pl</title>
<path fill="none" stroke="#b6e400" d="M126.82,-634.61C126.82,-625.76 126.82,-610.86 126.82,-610.86 126.82,-610.86 333.56,-610.86 484.57,-610.86"/>
</g>
<!-- Infrastruktura::Matrix#hs&#45;ldz&#45;offtopic:hackerspace.pl -->
<g id="node28" class="node">
<title>Infrastruktura::Matrix#hs&#45;ldz&#45;offtopic:hackerspace.pl</title>
<ellipse fill="none" stroke="black" cx="639.91" cy="-555" rx="258.85" ry="18"/>
<text text-anchor="middle" x="639.91" y="-551.3" font-family="Times,serif" font-size="14.00">Infrastruktura::Matrix#hs&#45;ldz&#45;offtopic:hackerspace.pl</text>
</g>
<!-- thinkofher&#45;&#45;Infrastruktura::Matrix#hs&#45;ldz&#45;offtopic:hackerspace.pl -->
<g id="edge32" class="edge">
<title>thinkofher&#45;&#45;Infrastruktura::Matrix#hs&#45;ldz&#45;offtopic:hackerspace.pl</title>
<path fill="none" stroke="#b6e400" d="M122.82,-631.93C122.82,-612.17 122.82,-567 122.82,-567 122.82,-567 300.05,-567 447,-567"/>
</g>
<!-- SP7Q -->
<g id="node29" class="node">
<title>SP7Q</title>
<ellipse fill="none" stroke="black" cx="71.49" cy="-813" rx="36.29" ry="18"/>
<text text-anchor="middle" x="71.49" y="-809.3" font-family="Times,serif" font-size="14.00">SP7Q</text>
</g>
<!-- SP7Q&#45;&#45;Marketing&#45;i&#45;media&#45;spoecznociowe# -->
<g id="edge34" class="edge">
<title>SP7Q&#45;&#45;Marketing&#45;i&#45;media&#45;spoecznociowe#</title>
<path fill="none" stroke="#00ffff" d="M104.66,-805.29C201.47,-805.29 476.82,-805.29 476.82,-805.29 476.82,-805.29 476.82,-755.57 476.82,-735.38"/>
</g>
<!-- SP7Q&#45;&#45;Infrastruktura::Github#Github -->
<g id="edge35" class="edge">
<title>SP7Q&#45;&#45;Infrastruktura::Github#Github</title>
<path fill="none" stroke="#00ffff" d="M107.92,-810.43C182.89,-810.43 358.27,-810.43 487.26,-810.43"/>
</g>
<!-- SP7Q&#45;&#45;Stowarzyszenie#Zarzd -->
<g id="edge33" class="edge">
<title>SP7Q&#45;&#45;Stowarzyszenie#Zarzd</title>
<path fill="none" stroke="#00ffff" d="M107.55,-815.57C180.52,-815.57 338.82,-815.57 338.82,-815.57 338.82,-815.57 338.82,-853.43 338.82,-853.43 338.82,-853.43 434.09,-853.43 517.44,-853.43"/>
</g>
<!-- kpc -->
<g id="node30" class="node">
<title>kpc</title>
<ellipse fill="none" stroke="black" cx="71.49" cy="-362" rx="27" ry="18"/>
<text text-anchor="middle" x="71.49" y="-358.3" font-family="Times,serif" font-size="14.00">kpc</text>
</g>
<!-- kpc&#45;&#45;Infrastruktura::Telegram#posty: t.me/hakierspejs_spam -->
<g id="edge37" class="edge">
<title>kpc&#45;&#45;Infrastruktura::Telegram#posty: t.me/hakierspejs_spam</title>
<path fill="none" stroke="#ab00d5" d="M93.54,-372.5C161.76,-372.5 364.82,-372.5 364.82,-372.5 364.82,-372.5 364.82,-842.99 364.82,-894.45"/>
</g>
<!-- kpc&#45;&#45;Marketing&#45;i&#45;media&#45;spoecznociowe# -->
<g id="edge38" class="edge">
<title>kpc&#45;&#45;Marketing&#45;i&#45;media&#45;spoecznociowe#</title>
<path fill="none" stroke="#ab00d5" d="M88.32,-376.25C107.68,-376.25 136.82,-376.25 136.82,-376.25 136.82,-376.25 136.82,-719.29 136.82,-719.29 136.82,-719.29 327.55,-719.29 474.13,-719.29"/>
</g>
<!-- kpc&#45;&#45;Miejsce::Miejsce#Klucze do spejsu -->
<g id="edge41" class="edge">
<title>kpc&#45;&#45;Miejsce::Miejsce#Klucze do spejsu</title>
<path fill="none" stroke="#ab00d5" d="M91.44,-349.6C147.24,-349.6 300.82,-349.6 300.82,-349.6 300.82,-349.6 300.82,-265 300.82,-265 300.82,-265 408.86,-265 502.97,-265"/>
</g>
<!-- Stowarzyszenie#Komisja Rewizyjna -->
<g id="node31" class="node">
<title>Stowarzyszenie#Komisja Rewizyjna</title>
<ellipse fill="none" stroke="black" cx="639.91" cy="-39" rx="178.17" ry="18"/>
<text text-anchor="middle" x="639.91" y="-35.3" font-family="Times,serif" font-size="14.00">Stowarzyszenie#Komisja Rewizyjna</text>
</g>
<!-- kpc&#45;&#45;Stowarzyszenie#Komisja Rewizyjna -->
<g id="edge36" class="edge">
<title>kpc&#45;&#45;Stowarzyszenie#Komisja Rewizyjna</title>
<path fill="none" stroke="#ab00d5" d="M86.25,-346.8C118.38,-346.8 191.82,-346.8 191.82,-346.8 191.82,-346.8 191.82,-50 191.82,-50 191.82,-50 367.4,-50 498.75,-50"/>
</g>
<!-- Czaty&#45;HS#HS: posty wyklte -->
<g id="node32" class="node">
<title>Czaty&#45;HS#HS: posty wyklte</title>
<ellipse fill="none" stroke="black" cx="639.91" cy="-340" rx="157.87" ry="18"/>
<text text-anchor="middle" x="639.91" y="-336.3" font-family="Times,serif" font-size="14.00">Czaty&#45;HS#HS: posty wyklte</text>
</g>
<!-- kpc&#45;&#45;Czaty&#45;HS#HS: posty wyklte -->
<g id="edge39" class="edge">
<title>kpc&#45;&#45;Czaty&#45;HS#HS: posty wyklte</title>
<path fill="none" stroke="#ab00d5" d="M96.65,-355.2C175.99,-355.2 423.45,-355.2 555.27,-355.2"/>
</g>
<!-- Infrastruktura::Telegram#Posty wyklte (celowo bez linka) -->
<g id="node33" class="node">
<title>Infrastruktura::Telegram#Posty wyklte (celowo bez linka)</title>
<ellipse fill="none" stroke="black" cx="639.91" cy="-297" rx="284.05" ry="18"/>
<text text-anchor="middle" x="639.91" y="-293.3" font-family="Times,serif" font-size="14.00">Infrastruktura::Telegram#Posty wyklte (celowo bez linka)</text>
</g>
<!-- kpc&#45;&#45;Infrastruktura::Telegram#Posty wyklte (celowo bez linka) -->
<g id="edge40" class="edge">
<title>kpc&#45;&#45;Infrastruktura::Telegram#Posty wyklte (celowo bez linka)</title>
<path fill="none" stroke="#ab00d5" d="M94.64,-352.4C165.2,-352.4 372.82,-352.4 372.82,-352.4 372.82,-352.4 372.82,-317.91 372.82,-303.36"/>
</g>
<!-- kujaw -->
<g id="node34" class="node">
<title>kujaw</title>
<ellipse fill="none" stroke="black" cx="71.49" cy="-555" rx="38.19" ry="18"/>
<text text-anchor="middle" x="71.49" y="-551.3" font-family="Times,serif" font-size="14.00">kujaw</text>
</g>
<!-- kujaw&#45;&#45;Marketing&#45;i&#45;media&#45;spoecznociowe# -->
<g id="edge44" class="edge">
<title>kujaw&#45;&#45;Marketing&#45;i&#45;media&#45;spoecznociowe#</title>
<path fill="none" stroke="#f29100" d="M110.06,-555C186.26,-555 348.82,-555 348.82,-555 348.82,-555 348.82,-714.14 348.82,-714.14 348.82,-714.14 433.41,-714.14 511.39,-714.14"/>
</g>
<!-- kujaw&#45;&#45;Miejsce::Miejsce#Klucze do spejsu -->
<g id="edge45" class="edge">
<title>kujaw&#45;&#45;Miejsce::Miejsce#Klucze do spejsu</title>
<path fill="none" stroke="#f29100" d="M100.45,-543C162.73,-543 303.82,-543 303.82,-543 303.82,-543 303.82,-267.33 303.82,-267.33 303.82,-267.33 426.24,-267.33 523.3,-267.33"/>
</g>
<!-- kujaw&#45;&#45;Stowarzyszenie#Zarzd -->
<g id="edge46" class="edge">
<title>kujaw&#45;&#45;Stowarzyszenie#Zarzd</title>
<path fill="none" stroke="#f29100" d="M107.67,-561C181.33,-561 341.82,-561 341.82,-561 341.82,-561 341.82,-843.14 341.82,-843.14 341.82,-843.14 465.28,-843.14 553.29,-843.14"/>
</g>
<!-- kujaw&#45;&#45;Marketing&#45;i&#45;media&#45;spoecznociowe#Naklejki -->
<g id="edge43" class="edge">
<title>kujaw&#45;&#45;Marketing&#45;i&#45;media&#45;spoecznociowe#Naklejki</title>
<path fill="none" stroke="#f29100" d="M107.83,-549C184.08,-549 353.82,-549 353.82,-549 353.82,-549 353.82,-635 353.82,-635 353.82,-635 387.06,-635 430.87,-635"/>
</g>
<!-- Marketing&#45;i&#45;media&#45;spoecznociowe#Logo nr 2 -->
<g id="node35" class="node">
<title>Marketing&#45;i&#45;media&#45;spoecznociowe#Logo nr 2</title>
<ellipse fill="none" stroke="black" cx="639.91" cy="-426" rx="227.46" ry="18"/>
<text text-anchor="middle" x="639.91" y="-422.3" font-family="Times,serif" font-size="14.00">Marketing&#45;i&#45;media&#45;spoecznociowe#Logo nr 2</text>
</g>
<!-- kujaw&#45;&#45;Marketing&#45;i&#45;media&#45;spoecznociowe#Logo nr 2 -->
<g id="edge42" class="edge">
<title>kujaw&#45;&#45;Marketing&#45;i&#45;media&#45;spoecznociowe#Logo nr 2</title>
<path fill="none" stroke="#f29100" d="M104.82,-545.76C104.82,-517.15 104.82,-432 104.82,-432 104.82,-432 276.49,-432 425.35,-432"/>
</g>
<!-- q3k -->
<g id="node36" class="node">
<title>q3k</title>
<ellipse fill="none" stroke="black" cx="71.49" cy="-426" rx="27.9" ry="18"/>
<text text-anchor="middle" x="71.49" y="-422.3" font-family="Times,serif" font-size="14.00">q3k</text>
</g>
<!-- q3k&#45;&#45;Kanay&#45;komunikacji# -->
<g id="edge48" class="edge">
<title>q3k&#45;&#45;Kanay&#45;komunikacji#</title>
<path fill="none" stroke="#00c64f" d="M71.82,-444.07C71.82,-453.46 71.82,-463 71.82,-463 71.82,-463 373.73,-463 537.36,-463"/>
</g>
<!-- q3k&#45;&#45;Infrastruktura::Domeny#Domeny -->
<g id="edge47" class="edge">
<title>q3k&#45;&#45;Infrastruktura::Domeny#Domeny</title>
<path fill="none" stroke="#00c64f" d="M71.82,-407.87C71.82,-397.69 71.82,-387 71.82,-387 71.82,-387 308.89,-387 476.74,-387"/>
</g>
<!-- q3k&#45;&#45;Marketing&#45;i&#45;media&#45;spoecznociowe#Logo nr 2 -->
<g id="edge49" class="edge">
<title>q3k&#45;&#45;Marketing&#45;i&#45;media&#45;spoecznociowe#Logo nr 2</title>
<path fill="none" stroke="#00c64f" d="M98.15,-420C156.53,-420 300.48,-420 425.32,-420"/>
</g>
<!-- cytP450 -->
<g id="node37" class="node">
<title>cytP450</title>
<ellipse fill="none" stroke="black" cx="71.49" cy="-147" rx="48.99" ry="18"/>
<text text-anchor="middle" x="71.49" y="-143.3" font-family="Times,serif" font-size="14.00">cytP450</text>
</g>
<!-- cytP450&#45;&#45;Kanay&#45;komunikacji# -->
<g id="edge53" class="edge">
<title>cytP450&#45;&#45;Kanay&#45;komunikacji#</title>
<path fill="none" stroke="#2e00e4" d="M111.31,-157.5C154.04,-157.5 215.82,-157.5 215.82,-157.5 215.82,-157.5 215.82,-457 215.82,-457 215.82,-457 435.8,-457 558.89,-457"/>
</g>
<!-- cytP450&#45;&#45;Infrastruktura::Domeny#Domeny -->
<g id="edge54" class="edge">
<title>cytP450&#45;&#45;Infrastruktura::Domeny#Domeny</title>
<path fill="none" stroke="#2e00e4" d="M115.62,-155C172.4,-155 263.82,-155 263.82,-155 263.82,-155 263.82,-368.75 263.82,-368.75 263.82,-368.75 426.27,-368.75 537.64,-368.75"/>
</g>
<!-- cytP450&#45;&#45;Miejsce::Miejsce#Klucze do spejsu -->
<g id="edge56" class="edge">
<title>cytP450&#45;&#45;Miejsce::Miejsce#Klucze do spejsu</title>
<path fill="none" stroke="#2e00e4" d="M96.44,-162.5C113.42,-162.5 132.82,-162.5 132.82,-162.5 132.82,-162.5 132.82,-241 132.82,-241 132.82,-241 370.12,-241 520.06,-241"/>
</g>
<!-- cytP450&#45;&#45;Stowarzyszenie#Komisja Rewizyjna -->
<g id="edge50" class="edge">
<title>cytP450&#45;&#45;Stowarzyszenie#Komisja Rewizyjna</title>
<path fill="none" stroke="#2e00e4" d="M104.47,-133.67C172.02,-133.67 319.82,-133.67 319.82,-133.67 319.82,-133.67 319.82,-53.5 319.82,-53.5 319.82,-53.5 440.98,-53.5 534.21,-53.5"/>
</g>
<!-- Chciejlista#DIY -->
<g id="node38" class="node">
<title>Chciejlista#DIY</title>
<ellipse fill="none" stroke="black" cx="639.91" cy="-211" rx="83.69" ry="18"/>
<text text-anchor="middle" x="639.91" y="-207.3" font-family="Times,serif" font-size="14.00">Chciejlista#DIY</text>
</g>
<!-- cytP450&#45;&#45;Chciejlista#DIY -->
<g id="edge51" class="edge">
<title>cytP450&#45;&#45;Chciejlista#DIY</title>
<path fill="none" stroke="#2e00e4" d="M105.26,-160C122.47,-160 139.82,-160 139.82,-160 139.82,-160 139.82,-198 139.82,-198 139.82,-198 449.65,-198 581.56,-198"/>
</g>
<!-- Przegld&#45;lokali&#45;na&#45;wynajem&#45;w&#45;odzi.&#45;Fundusz&#45;1000&#45;&#45;&#45;1500.#Bot Aleksego -->
<g id="node39" class="node">
<title>Przegld&#45;lokali&#45;na&#45;wynajem&#45;w&#45;odzi.&#45;Fundusz&#45;1000&#45;&#45;&#45;1500.#Bot Aleksego</title>
<ellipse fill="none" stroke="black" cx="639.91" cy="-168" rx="351.74" ry="18"/>
<text text-anchor="middle" x="639.91" y="-164.3" font-family="Times,serif" font-size="14.00">Przegld&#45;lokali&#45;na&#45;wynajem&#45;w&#45;odzi.&#45;Fundusz&#45;1000&#45;&#45;&#45;1500.#Bot Aleksego</text>
</g>
<!-- cytP450&#45;&#45;Przegld&#45;lokali&#45;na&#45;wynajem&#45;w&#45;odzi.&#45;Fundusz&#45;1000&#45;&#45;&#45;1500.#Bot Aleksego -->
<g id="edge52" class="edge">
<title>cytP450&#45;&#45;Przegld&#45;lokali&#45;na&#45;wynajem&#45;w&#45;odzi.&#45;Fundusz&#45;1000&#45;&#45;&#45;1500.#Bot Aleksego</title>
<path fill="none" stroke="#2e00e4" d="M118.01,-152.5C192.18,-152.5 341.11,-152.5 460.95,-152.5"/>
</g>
<!-- Chciejlista#Elektronika (w sensie urzdze konsumenckich) -->
<g id="node40" class="node">
<title>Chciejlista#Elektronika (w sensie urzdze konsumenckich)</title>
<ellipse fill="none" stroke="black" cx="639.91" cy="-125" rx="289.75" ry="18"/>
<text text-anchor="middle" x="639.91" y="-121.3" font-family="Times,serif" font-size="14.00">Chciejlista#Elektronika (w sensie urzdze konsumenckich)</text>
</g>
<!-- cytP450&#45;&#45;Chciejlista#Elektronika (w sensie urzdze konsumenckich) -->
<g id="edge55" class="edge">
<title>cytP450&#45;&#45;Chciejlista#Elektronika (w sensie urzdze konsumenckich)</title>
<path fill="none" stroke="#2e00e4" d="M114.68,-138.33C184.5,-138.33 326.34,-138.33 445.04,-138.33"/>
</g>
<!-- Zamek#Zamek -->
<g id="node41" class="node">
<title>Zamek#Zamek</title>
<ellipse fill="none" stroke="black" cx="639.91" cy="-82" rx="81.49" ry="18"/>
<text text-anchor="middle" x="639.91" y="-78.3" font-family="Times,serif" font-size="14.00">Zamek#Zamek</text>
</g>
<!-- cytP450&#45;&#45;Zamek#Zamek -->
<g id="edge57" class="edge">
<title>cytP450&#45;&#45;Zamek#Zamek</title>
<path fill="none" stroke="#2e00e4" d="M71.82,-128.81C71.82,-111.96 71.82,-89.5 71.82,-89.5 71.82,-89.5 412.08,-89.5 565.93,-89.5"/>
</g>
<!-- pzduniak -->
<g id="node42" class="node">
<title>pzduniak</title>
<ellipse fill="none" stroke="black" cx="71.49" cy="-61" rx="52.79" ry="18"/>
<text text-anchor="middle" x="71.49" y="-57.3" font-family="Times,serif" font-size="14.00">pzduniak</text>
</g>
<!-- pzduniak&#45;&#45;Stowarzyszenie#Komisja Rewizyjna -->
<g id="edge58" class="edge">
<title>pzduniak&#45;&#45;Stowarzyszenie#Komisja Rewizyjna</title>
<path fill="none" stroke="#ff0000" d="M102.86,-46.5C173.03,-46.5 346.79,-46.5 477.8,-46.5"/>
</g>
<!-- krcz -->
<g id="node43" class="node">
<title>krcz</title>
<ellipse fill="none" stroke="black" cx="71.49" cy="-18" rx="30.59" ry="18"/>
<text text-anchor="middle" x="71.49" y="-14.3" font-family="Times,serif" font-size="14.00">krcz</text>
</g>
<!-- krcz&#45;&#45;Stowarzyszenie#Komisja Rewizyjna -->
<g id="edge59" class="edge">
<title>krcz&#45;&#45;Stowarzyszenie#Komisja Rewizyjna</title>
<path fill="none" stroke="#2bd500" d="M96.65,-28.5C165.08,-28.5 358.6,-28.5 495.1,-28.5"/>
</g>
<!-- pmysl -->
<g id="node44" class="node">
<title>pmysl</title>
<ellipse fill="none" stroke="black" cx="71.49" cy="-598" rx="38.19" ry="18"/>
<text text-anchor="middle" x="71.49" y="-594.3" font-family="Times,serif" font-size="14.00">pmysl</text>
</g>
<!-- pmysl&#45;&#45;Infrastruktura::Github#Github -->
<g id="edge61" class="edge">
<title>pmysl&#45;&#45;Infrastruktura::Github#Github</title>
<path fill="none" stroke="#0061f2" d="M106.26,-605.71C179.68,-605.71 343.82,-605.71 343.82,-605.71 343.82,-605.71 343.82,-800.14 343.82,-800.14 343.82,-800.14 447.18,-800.14 531.76,-800.14"/>
</g>
<!-- pmysl&#45;&#45;Infrastruktura::IRC#IRC -->
<g id="edge62" class="edge">
<title>pmysl&#45;&#45;Infrastruktura::IRC#IRC</title>
<path fill="none" stroke="#0061f2" d="M109.59,-595.43C186.24,-595.43 351.82,-595.43 351.82,-595.43 351.82,-595.43 351.82,-673.2 351.82,-673.2 351.82,-673.2 456.75,-673.2 539.96,-673.2"/>
</g>
<!-- pmysl&#45;&#45;Bazy&#45;danych#Grafana -->
<g id="edge63" class="edge">
<title>pmysl&#45;&#45;Bazy&#45;danych#Grafana</title>
<path fill="none" stroke="#0061f2" d="M109.49,-600.57C185.02,-600.57 346.82,-600.57 346.82,-600.57 346.82,-600.57 346.82,-761 346.82,-761 346.82,-761 455.66,-761 540.68,-761"/>
</g>
<!-- pmysl&#45;&#45;Kanay&#45;komunikacji# -->
<g id="edge64" class="edge">
<title>pmysl&#45;&#45;Kanay&#45;komunikacji#</title>
<path fill="none" stroke="#0061f2" d="M98.72,-585.14C161.06,-585.14 308.82,-585.14 308.82,-585.14 308.82,-585.14 308.82,-475 308.82,-475 308.82,-475 440.18,-475 537.42,-475"/>
</g>
<!-- pmysl&#45;&#45;Bazy&#45;danych# -->
<g id="edge60" class="edge">
<title>pmysl&#45;&#45;Bazy&#45;danych#</title>
<path fill="none" stroke="#0061f2" d="M106.3,-590.29C175.09,-590.29 321.82,-590.29 321.82,-590.29 321.82,-590.29 321.82,-518 321.82,-518 321.82,-518 473.02,-518 566.93,-518"/>
</g>
<!-- Piotrek_P -->
<g id="node45" class="node">
<title>Piotrek_P</title>
<ellipse fill="none" stroke="black" cx="71.49" cy="-233" rx="55.49" ry="18"/>
<text text-anchor="middle" x="71.49" y="-229.3" font-family="Times,serif" font-size="14.00">Piotrek_P</text>
</g>
<!-- Piotrek_P&#45;&#45;Miejsce::Miejsce#Klucze do spejsu -->
<g id="edge65" class="edge">
<title>Piotrek_P&#45;&#45;Miejsce::Miejsce#Klucze do spejsu</title>
<path fill="none" stroke="#c60077" d="M110.12,-246C185.83,-246 357.47,-246 484.99,-246"/>
</g>
<!-- polimerek -->
<g id="node46" class="node">
<title>polimerek</title>
<ellipse fill="none" stroke="black" cx="71.49" cy="-190" rx="57.39" ry="18"/>
<text text-anchor="middle" x="71.49" y="-186.3" font-family="Times,serif" font-size="14.00">polimerek</text>
</g>
<!-- polimerek&#45;&#45;Miejsce::Miejsce#Klucze do spejsu -->
<g id="edge66" class="edge">
<title>polimerek&#45;&#45;Miejsce::Miejsce#Klucze do spejsu</title>
<path fill="none" stroke="#b6e400" d="M111.35,-203C219.74,-203 511.82,-203 511.82,-203 511.82,-203 511.82,-226.56 511.82,-241.65"/>
</g>
<!-- kotlovecrafta -->
<g id="node47" class="node">
<title>kotlovecrafta</title>
<ellipse fill="none" stroke="black" cx="71.49" cy="-319" rx="71.49" ry="18"/>
<text text-anchor="middle" x="71.49" y="-315.3" font-family="Times,serif" font-size="14.00">kotlovecrafta</text>
</g>
<!-- kotlovecrafta&#45;&#45;Miejsce::Miejsce#Klucze do spejsu -->
<g id="edge67" class="edge">
<title>kotlovecrafta&#45;&#45;Miejsce::Miejsce#Klucze do spejsu</title>
<path fill="none" stroke="#00ffff" d="M136.82,-311.64C136.82,-296.37 136.82,-262.67 136.82,-262.67 136.82,-262.67 340.15,-262.67 488.28,-262.67"/>
</g>
<!-- sp7adg -->
<g id="node48" class="node">
<title>sp7adg</title>
<ellipse fill="none" stroke="black" cx="71.49" cy="-276" rx="44.39" ry="18"/>
<text text-anchor="middle" x="71.49" y="-272.3" font-family="Times,serif" font-size="14.00">sp7adg</text>
</g>
<!-- sp7adg&#45;&#45;Miejsce::Miejsce#Klucze do spejsu -->
<g id="edge68" class="edge">
<title>sp7adg&#45;&#45;Miejsce::Miejsce#Klucze do spejsu</title>
<path fill="none" stroke="#ab00d5" d="M93.43,-260.33C156.17,-260.33 340.66,-260.33 478.03,-260.33"/>
</g>
<!-- BluRaf -->
<g id="node49" class="node">
<title>BluRaf</title>
<ellipse fill="none" stroke="black" cx="71.49" cy="-684" rx="42.49" ry="18"/>
<text text-anchor="middle" x="71.49" y="-680.3" font-family="Times,serif" font-size="14.00">BluRaf</text>
</g>
<!-- BluRaf&#45;&#45;Infrastruktura::IRC#IRC -->
<g id="edge69" class="edge">
<title>BluRaf&#45;&#45;Infrastruktura::IRC#IRC</title>
<path fill="none" stroke="#f29100" d="M113.29,-687.6C197.45,-687.6 390.15,-687.6 517.63,-687.6"/>
</g>
</g>
</svg>
