<?xml version="1.0" encoding="UTF-8" standalone="no"?>
<!DOCTYPE svg PUBLIC "-//W3C//DTD SVG 1.1//EN"
 "http://www.w3.org/Graphics/SVG/1.1/DTD/svg11.dtd">
<!-- Generated by graphviz version 2.42.4 (0)
 -->
<!-- Pages: 1 -->
<svg width="1018pt" height="1420pt"
 viewBox="0.00 0.00 1018.00 1420.00" xmlns="http://www.w3.org/2000/svg" xmlns:xlink="http://www.w3.org/1999/xlink">
<g id="graph0" class="graph" transform="scale(1 1) rotate(0) translate(4 1416)">
<polygon fill="white" stroke="transparent" points="-4,4 -4,-1416 1014,-1416 1014,4 -4,4"/>
<!-- d33tah -->
<g id="node1" class="node">
<title>d33tah</title>
<ellipse fill="none" stroke="black" cx="88.67" cy="-921" rx="43.59" ry="18"/>
<text text-anchor="middle" x="88.67" y="-917.3" font-family="Times,serif" font-size="14.00">d33tah</text>
</g>
<!-- Miejsce::Miejsce#Klucze do spejsu -->
<g id="node2" class="node">
<title>Miejsce::Miejsce#Klucze do spejsu</title>
<ellipse fill="none" stroke="black" cx="657.08" cy="-964" rx="172.77" ry="18"/>
<text text-anchor="middle" x="657.08" y="-960.3" font-family="Times,serif" font-size="14.00">Miejsce::Miejsce#Klucze do spejsu</text>
</g>
<!-- d33tah&#45;&#45;Miejsce::Miejsce#Klucze do spejsu -->
<g id="edge1" class="edge">
<title>d33tah&#45;&#45;Miejsce::Miejsce#Klucze do spejsu</title>
<path fill="none" stroke="#ff0000" d="M131.9,-923.84C241.03,-923.84 519,-923.84 519,-923.84 519,-923.84 519,-941.14 519,-953.03"/>
</g>
<!-- Drzwi&#45;frontowe#Ekran  -->
<g id="node3" class="node">
<title>Drzwi&#45;frontowe#Ekran </title>
<ellipse fill="none" stroke="black" cx="657.08" cy="-1265" rx="120.78" ry="18"/>
<text text-anchor="middle" x="657.08" y="-1261.3" font-family="Times,serif" font-size="14.00">Drzwi&#45;frontowe#Ekran </text>
</g>
<!-- d33tah&#45;&#45;Drzwi&#45;frontowe#Ekran  -->
<g id="edge2" class="edge">
<title>d33tah&#45;&#45;Drzwi&#45;frontowe#Ekran </title>
<path fill="none" stroke="black" d="M108.49,-937.11C135.35,-937.11 180,-937.11 180,-937.11 180,-937.11 180,-1259.5 180,-1259.5 180,-1259.5 400.72,-1259.5 541.9,-1259.5"/>
</g>
<!-- Infrastruktura::Github#Github -->
<g id="node7" class="node">
<title>Infrastruktura::Github#Github</title>
<ellipse fill="none" stroke="black" cx="657.08" cy="-534" rx="154.07" ry="18"/>
<text text-anchor="middle" x="657.08" y="-530.3" font-family="Times,serif" font-size="14.00">Infrastruktura::Github#Github</text>
</g>
<!-- d33tah&#45;&#45;Infrastruktura::Github#Github -->
<g id="edge3" class="edge">
<title>d33tah&#45;&#45;Infrastruktura::Github#Github</title>
<path fill="none" stroke="#ff0000" d="M120.45,-908.68C173.89,-908.68 276,-908.68 276,-908.68 276,-908.68 276,-546.86 276,-546.86 276,-546.86 436.48,-546.86 549.15,-546.86"/>
</g>
<!-- Kanay&#45;komunikacji# -->
<g id="node8" class="node">
<title>Kanay&#45;komunikacji#</title>
<ellipse fill="none" stroke="black" cx="657.08" cy="-835" rx="108.58" ry="18"/>
<text text-anchor="middle" x="657.08" y="-831.3" font-family="Times,serif" font-size="14.00">Kanay&#45;komunikacji#</text>
</g>
<!-- d33tah&#45;&#45;Kanay&#45;komunikacji# -->
<g id="edge4" class="edge">
<title>d33tah&#45;&#45;Kanay&#45;komunikacji#</title>
<path fill="none" stroke="#ff0000" d="M129.29,-914.37C201.56,-914.37 345,-914.37 345,-914.37 345,-914.37 345,-847.86 345,-847.86 345,-847.86 488.35,-847.86 580.74,-847.86"/>
</g>
<!-- Infrastruktura::Domeny#Domeny -->
<g id="node9" class="node">
<title>Infrastruktura::Domeny#Domeny</title>
<ellipse fill="none" stroke="black" cx="657.08" cy="-878" rx="167.07" ry="18"/>
<text text-anchor="middle" x="657.08" y="-874.3" font-family="Times,serif" font-size="14.00">Infrastruktura::Domeny#Domeny</text>
</g>
<!-- d33tah&#45;&#45;Infrastruktura::Domeny#Domeny -->
<g id="edge5" class="edge">
<title>d33tah&#45;&#45;Infrastruktura::Domeny#Domeny</title>
<path fill="none" stroke="#ff0000" d="M132.44,-920.05C239.33,-920.05 505,-920.05 505,-920.05 505,-920.05 505,-897.85 505,-885.71"/>
</g>
<!-- Infrastruktura::Telegram#posty: t.me/hakierspejs_spam -->
<g id="node10" class="node">
<title>Infrastruktura::Telegram#posty: t.me/hakierspejs_spam</title>
<ellipse fill="none" stroke="black" cx="657.08" cy="-491" rx="284.05" ry="18"/>
<text text-anchor="middle" x="657.08" y="-487.3" font-family="Times,serif" font-size="14.00">Infrastruktura::Telegram#posty: t.me/hakierspejs_spam</text>
</g>
<!-- d33tah&#45;&#45;Infrastruktura::Telegram#posty: t.me/hakierspejs_spam -->
<g id="edge6" class="edge">
<title>d33tah&#45;&#45;Infrastruktura::Telegram#posty: t.me/hakierspejs_spam</title>
<path fill="none" stroke="#ff0000" d="M115.53,-906.79C160.7,-906.79 247,-906.79 247,-906.79 247,-906.79 247,-504.5 247,-504.5 247,-504.5 361.25,-504.5 469.14,-504.5"/>
</g>
<!-- Infrastruktura::IRC#IRC -->
<g id="node11" class="node">
<title>Infrastruktura::IRC#IRC</title>
<ellipse fill="none" stroke="black" cx="657.08" cy="-921" rx="124.58" ry="18"/>
<text text-anchor="middle" x="657.08" y="-917.3" font-family="Times,serif" font-size="14.00">Infrastruktura::IRC#IRC</text>
</g>
<!-- d33tah&#45;&#45;Infrastruktura::IRC#IRC -->
<g id="edge7" class="edge">
<title>d33tah&#45;&#45;Infrastruktura::IRC#IRC</title>
<path fill="none" stroke="#ff0000" d="M132.33,-921.95C216.88,-921.95 405.77,-921.95 532.32,-921.95"/>
</g>
<!-- Bazy&#45;danych#Pad -->
<g id="node12" class="node">
<title>Bazy&#45;danych#Pad</title>
<ellipse fill="none" stroke="black" cx="657.08" cy="-1222" rx="94.48" ry="18"/>
<text text-anchor="middle" x="657.08" y="-1218.3" font-family="Times,serif" font-size="14.00">Bazy&#45;danych#Pad</text>
</g>
<!-- d33tah&#45;&#45;Bazy&#45;danych#Pad -->
<g id="edge8" class="edge">
<title>d33tah&#45;&#45;Bazy&#45;danych#Pad</title>
<path fill="none" stroke="#ff0000" d="M115.56,-935.21C145.28,-935.21 189,-935.21 189,-935.21 189,-935.21 189,-1220 189,-1220 189,-1220 426.56,-1220 563.2,-1220"/>
</g>
<!-- Marketing&#45;i&#45;media&#45;spoecznociowe# -->
<g id="node13" class="node">
<title>Marketing&#45;i&#45;media&#45;spoecznociowe#</title>
<ellipse fill="none" stroke="black" cx="657.08" cy="-362" rx="183.07" ry="18"/>
<text text-anchor="middle" x="657.08" y="-358.3" font-family="Times,serif" font-size="14.00">Marketing&#45;i&#45;media&#45;spoecznociowe#</text>
</g>
<!-- d33tah&#45;&#45;Marketing&#45;i&#45;media&#45;spoecznociowe# -->
<g id="edge9" class="edge">
<title>d33tah&#45;&#45;Marketing&#45;i&#45;media&#45;spoecznociowe#</title>
<path fill="none" stroke="#ff0000" d="M108.37,-904.89C148.72,-904.89 237,-904.89 237,-904.89 237,-904.89 237,-356 237,-356 237,-356 368.31,-356 484.1,-356"/>
</g>
<!-- Stowarzyszenie#Zarzd -->
<g id="node14" class="node">
<title>Stowarzyszenie#Zarzd</title>
<ellipse fill="none" stroke="black" cx="657.08" cy="-319" rx="123.48" ry="18"/>
<text text-anchor="middle" x="657.08" y="-315.3" font-family="Times,serif" font-size="14.00">Stowarzyszenie#Zarzd</text>
</g>
<!-- d33tah&#45;&#45;Stowarzyszenie#Zarzd -->
<g id="edge10" class="edge">
<title>d33tah&#45;&#45;Stowarzyszenie#Zarzd</title>
<path fill="none" stroke="#ff0000" d="M45.11,-921C22.69,-921 0,-921 0,-921 0,-921 0,-340.5 0,-340.5 0,-340.5 658,-340.5 658,-340.5 658,-340.5 658,-339.16 658,-337.14"/>
</g>
<!-- Infrastruktura::Telegram#Spacerspejs: t.me/joinchat/UYf2ONtNj21J1DS6 -->
<g id="node15" class="node">
<title>Infrastruktura::Telegram#Spacerspejs: t.me/joinchat/UYf2ONtNj21J1DS6</title>
<ellipse fill="none" stroke="black" cx="657.08" cy="-1179" rx="352.84" ry="18"/>
<text text-anchor="middle" x="657.08" y="-1175.3" font-family="Times,serif" font-size="14.00">Infrastruktura::Telegram#Spacerspejs: t.me/joinchat/UYf2ONtNj21J1DS6</text>
</g>
<!-- d33tah&#45;&#45;Infrastruktura::Telegram#Spacerspejs: t.me/joinchat/UYf2ONtNj21J1DS6 -->
<g id="edge11" class="edge">
<title>d33tah&#45;&#45;Infrastruktura::Telegram#Spacerspejs: t.me/joinchat/UYf2ONtNj21J1DS6</title>
<path fill="none" stroke="#ff0000" d="M120.67,-933.32C182.42,-933.32 312,-933.32 312,-933.32 312,-933.32 312,-1143.88 312,-1175.14"/>
</g>
<!-- Infrastruktura::Mariuszbot#Mariuszbot -->
<g id="node16" class="node">
<title>Infrastruktura::Mariuszbot#Mariuszbot</title>
<ellipse fill="none" stroke="black" cx="657.08" cy="-1136" rx="196.07" ry="18"/>
<text text-anchor="middle" x="657.08" y="-1132.3" font-family="Times,serif" font-size="14.00">Infrastruktura::Mariuszbot#Mariuszbot</text>
</g>
<!-- d33tah&#45;&#45;Infrastruktura::Mariuszbot#Mariuszbot -->
<g id="edge12" class="edge">
<title>d33tah&#45;&#45;Infrastruktura::Mariuszbot#Mariuszbot</title>
<path fill="none" stroke="#ff0000" d="M124.35,-931.42C188.56,-931.42 317,-931.42 317,-931.42 317,-931.42 317,-1136 317,-1136 317,-1136 385.33,-1136 460.73,-1136"/>
</g>
<!-- Infrastruktura::Telegram#G贸wny: t.me/hakierspejs -->
<g id="node17" class="node">
<title>Infrastruktura::Telegram#G贸wny: t.me/hakierspejs</title>
<ellipse fill="none" stroke="black" cx="657.08" cy="-577" rx="251.56" ry="18"/>
<text text-anchor="middle" x="657.08" y="-573.3" font-family="Times,serif" font-size="14.00">Infrastruktura::Telegram#G贸wny: t.me/hakierspejs</text>
</g>
<!-- d33tah&#45;&#45;Infrastruktura::Telegram#G贸wny: t.me/hakierspejs -->
<g id="edge13" class="edge">
<title>d33tah&#45;&#45;Infrastruktura::Telegram#G贸wny: t.me/hakierspejs</title>
<path fill="none" stroke="#ff0000" d="M124.22,-910.58C180.8,-910.58 285,-910.58 285,-910.58 285,-910.58 285,-587.8 285,-587.8 285,-587.8 368.12,-587.8 455.79,-587.8"/>
</g>
<!-- Infrastruktura::Telegram#HS24: t.me/hsl_info -->
<g id="node18" class="node">
<title>Infrastruktura::Telegram#HS24: t.me/hsl_info</title>
<ellipse fill="none" stroke="black" cx="657.08" cy="-1093" rx="231.26" ry="18"/>
<text text-anchor="middle" x="657.08" y="-1089.3" font-family="Times,serif" font-size="14.00">Infrastruktura::Telegram#HS24: t.me/hsl_info</text>
</g>
<!-- d33tah&#45;&#45;Infrastruktura::Telegram#HS24: t.me/hsl_info -->
<g id="edge14" class="edge">
<title>d33tah&#45;&#45;Infrastruktura::Telegram#HS24: t.me/hsl_info</title>
<path fill="none" stroke="#ff0000" d="M130.69,-925.74C226.92,-925.74 455,-925.74 455,-925.74 455,-925.74 455,-1049.26 455,-1084.01"/>
</g>
<!-- Bazy&#45;danych#Grafana -->
<g id="node19" class="node">
<title>Bazy&#45;danych#Grafana</title>
<ellipse fill="none" stroke="black" cx="657.08" cy="-1007" rx="114.28" ry="18"/>
<text text-anchor="middle" x="657.08" y="-1003.3" font-family="Times,serif" font-size="14.00">Bazy&#45;danych#Grafana</text>
</g>
<!-- d33tah&#45;&#45;Bazy&#45;danych#Grafana -->
<g id="edge15" class="edge">
<title>d33tah&#45;&#45;Bazy&#45;danych#Grafana</title>
<path fill="none" stroke="#ff0000" d="M129.18,-927.63C198.86,-927.63 334,-927.63 334,-927.63 334,-927.63 334,-1013 334,-1013 334,-1013 455.13,-1013 549.05,-1013"/>
</g>
<!-- Bazy&#45;danych#Trello -->
<g id="node20" class="node">
<title>Bazy&#45;danych#Trello</title>
<ellipse fill="none" stroke="black" cx="657.08" cy="-1050" rx="103.98" ry="18"/>
<text text-anchor="middle" x="657.08" y="-1046.3" font-family="Times,serif" font-size="14.00">Bazy&#45;danych#Trello</text>
</g>
<!-- d33tah&#45;&#45;Bazy&#45;danych#Trello -->
<g id="edge16" class="edge">
<title>d33tah&#45;&#45;Bazy&#45;danych#Trello</title>
<path fill="none" stroke="#ff0000" d="M127.12,-929.53C194.77,-929.53 328,-929.53 328,-929.53 328,-929.53 328,-1044 328,-1044 328,-1044 461.82,-1044 558.79,-1044"/>
</g>
<!-- nastpne -->
<g id="node4" class="node">
<title>nastpne</title>
<ellipse fill="none" stroke="black" cx="88.67" cy="-1104" rx="53.09" ry="18"/>
<text text-anchor="middle" x="88.67" y="-1100.3" font-family="Times,serif" font-size="14.00">nastpne</text>
</g>
<!-- spotkanie -->
<g id="node5" class="node">
<title>spotkanie</title>
<ellipse fill="none" stroke="black" cx="88.67" cy="-1168" rx="55.79" ry="18"/>
<text text-anchor="middle" x="88.67" y="-1164.3" font-family="Times,serif" font-size="14.00">spotkanie</text>
</g>
<g id="node6" class="node">
<title></title>
<ellipse fill="none" stroke="#ff0000" cx="88.67" cy="-1254" rx="27" ry="18"/>
</g>
<!-- q3k -->
<g id="node21" class="node">
<title>q3k</title>
<ellipse fill="none" stroke="black" cx="88.67" cy="-792" rx="27.9" ry="18"/>
<text text-anchor="middle" x="88.67" y="-788.3" font-family="Times,serif" font-size="14.00">q3k</text>
</g>
<!-- q3k&#45;&#45;Kanay&#45;komunikacji# -->
<g id="edge17" class="edge">
<title>q3k&#45;&#45;Kanay&#45;komunikacji#</title>
<path fill="none" stroke="#2bd500" d="M116.1,-795.6C216.06,-795.6 555,-795.6 555,-795.6 555,-795.6 555,-817.76 555,-828.84"/>
</g>
<!-- q3k&#45;&#45;Infrastruktura::Domeny#Domeny -->
<g id="edge18" class="edge">
<title>q3k&#45;&#45;Infrastruktura::Domeny#Domeny</title>
<path fill="none" stroke="#2bd500" d="M111.32,-802.8C198.84,-802.8 510,-802.8 510,-802.8 510,-802.8 510,-849.62 510,-869.37"/>
</g>
<!-- Marketing&#45;i&#45;media&#45;spoecznociowe#Logo nr. 2 -->
<g id="node22" class="node">
<title>Marketing&#45;i&#45;media&#45;spoecznociowe#Logo nr. 2</title>
<ellipse fill="none" stroke="black" cx="657.08" cy="-448" rx="229.36" ry="18"/>
<text text-anchor="middle" x="657.08" y="-444.3" font-family="Times,serif" font-size="14.00">Marketing&#45;i&#45;media&#45;spoecznociowe#Logo nr. 2</text>
</g>
<!-- q3k&#45;&#45;Marketing&#45;i&#45;media&#45;spoecznociowe#Logo nr. 2 -->
<g id="edge19" class="edge">
<title>q3k&#45;&#45;Marketing&#45;i&#45;media&#45;spoecznociowe#Logo nr. 2</title>
<path fill="none" stroke="#2bd500" d="M111.3,-781.2C146.16,-781.2 209,-781.2 209,-781.2 209,-781.2 209,-448 209,-448 209,-448 317.33,-448 427.46,-448"/>
</g>
<!-- thinkofher -->
<g id="node23" class="node">
<title>thinkofher</title>
<ellipse fill="none" stroke="black" cx="88.67" cy="-642" rx="59.29" ry="18"/>
<text text-anchor="middle" x="88.67" y="-638.3" font-family="Times,serif" font-size="14.00">thinkofher</text>
</g>
<!-- thinkofher&#45;&#45;Infrastruktura::Github#Github -->
<g id="edge20" class="edge">
<title>thinkofher&#45;&#45;Infrastruktura::Github#Github</title>
<path fill="none" stroke="#0061f2" d="M123.85,-627.5C138.86,-627.5 153,-627.5 153,-627.5 153,-627.5 153,-536.57 153,-536.57 153,-536.57 356.11,-536.57 504.47,-536.57"/>
</g>
<!-- thinkofher&#45;&#45;Kanay&#45;komunikacji# -->
<g id="edge21" class="edge">
<title>thinkofher&#45;&#45;Kanay&#45;komunikacji#</title>
<path fill="none" stroke="#0061f2" d="M141,-650.51C141,-672.14 141,-727.5 141,-727.5 141,-727.5 568,-727.5 568,-727.5 568,-727.5 568,-797.79 568,-824.69"/>
</g>
<!-- thinkofher&#45;&#45;Infrastruktura::IRC#IRC -->
<g id="edge23" class="edge">
<title>thinkofher&#45;&#45;Infrastruktura::IRC#IRC</title>
<path fill="none" stroke="#0061f2" d="M129.72,-655C170.82,-655 228,-655 228,-655 228,-655 228,-918.16 228,-918.16 228,-918.16 407.06,-918.16 533.84,-918.16"/>
</g>
<!-- thinkofher&#45;&#45;Marketing&#45;i&#45;media&#45;spoecznociowe# -->
<g id="edge24" class="edge">
<title>thinkofher&#45;&#45;Marketing&#45;i&#45;media&#45;spoecznociowe#</title>
<path fill="none" stroke="#0061f2" d="M142.54,-634.5C170.55,-634.5 199,-634.5 199,-634.5 199,-634.5 199,-352 199,-352 199,-352 371.29,-352 504.55,-352"/>
</g>
<!-- thinkofher&#45;&#45;Infrastruktura::Telegram#G贸wny: t.me/hakierspejs -->
<g id="edge25" class="edge">
<title>thinkofher&#45;&#45;Infrastruktura::Telegram#G贸wny: t.me/hakierspejs</title>
<path fill="none" stroke="#0061f2" d="M135.81,-631C146.62,-631 155,-631 155,-631 155,-631 155,-580.6 155,-580.6 155,-580.6 283.48,-580.6 410.45,-580.6"/>
</g>
<!-- Bazy&#45;danych# -->
<g id="node24" class="node">
<title>Bazy&#45;danych#</title>
<ellipse fill="none" stroke="black" cx="657.08" cy="-663" rx="77.19" ry="18"/>
<text text-anchor="middle" x="657.08" y="-659.3" font-family="Times,serif" font-size="14.00">Bazy&#45;danych#</text>
</g>
<!-- thinkofher&#45;&#45;Bazy&#45;danych# -->
<g id="edge22" class="edge">
<title>thinkofher&#45;&#45;Bazy&#45;danych#</title>
<path fill="none" stroke="#0061f2" d="M141.89,-650C250.07,-650 494.6,-650 603.27,-650"/>
</g>
<!-- cytP450 -->
<g id="node25" class="node">
<title>cytP450</title>
<ellipse fill="none" stroke="black" cx="88.67" cy="-749" rx="48.99" ry="18"/>
<text text-anchor="middle" x="88.67" y="-745.3" font-family="Times,serif" font-size="14.00">cytP450</text>
</g>
<!-- cytP450&#45;&#45;Miejsce::Miejsce#Klucze do spejsu -->
<g id="edge26" class="edge">
<title>cytP450&#45;&#45;Miejsce::Miejsce#Klucze do spejsu</title>
<path fill="none" stroke="#c60077" d="M120.92,-762.5C192.02,-762.5 356,-762.5 356,-762.5 356,-762.5 356,-951.14 356,-951.14 356,-951.14 452.26,-951.14 535.92,-951.14"/>
</g>
<!-- cytP450&#45;&#45;Kanay&#45;komunikacji# -->
<g id="edge28" class="edge">
<title>cytP450&#45;&#45;Kanay&#45;komunikacji#</title>
<path fill="none" stroke="#c60077" d="M136.12,-753.5C255.9,-753.5 561,-753.5 561,-753.5 561,-753.5 561,-805.76 561,-826.59"/>
</g>
<!-- cytP450&#45;&#45;Infrastruktura::Domeny#Domeny -->
<g id="edge30" class="edge">
<title>cytP450&#45;&#45;Infrastruktura::Domeny#Domeny</title>
<path fill="none" stroke="#c60077" d="M130.99,-758C241.45,-758 530,-758 530,-758 530,-758 530,-835.7 530,-866.06"/>
</g>
<!-- Przegld&#45;lokali&#45;na&#45;wynajem&#45;w&#45;odzi.&#45;Fundusz&#45;1000&#45;&#45;&#45;1500.#Bot Aleksego -->
<g id="node26" class="node">
<title>Przegld&#45;lokali&#45;na&#45;wynajem&#45;w&#45;odzi.&#45;Fundusz&#45;1000&#45;&#45;&#45;1500.#Bot Aleksego</title>
<ellipse fill="none" stroke="black" cx="657.08" cy="-620" rx="351.74" ry="18"/>
<text text-anchor="middle" x="657.08" y="-616.3" font-family="Times,serif" font-size="14.00">Przegld&#45;lokali&#45;na&#45;wynajem&#45;w&#45;odzi.&#45;Fundusz&#45;1000&#45;&#45;&#45;1500.#Bot Aleksego</text>
</g>
<!-- cytP450&#45;&#45;Przegld&#45;lokali&#45;na&#45;wynajem&#45;w&#45;odzi.&#45;Fundusz&#45;1000&#45;&#45;&#45;1500.#Bot Aleksego -->
<g id="edge27" class="edge">
<title>cytP450&#45;&#45;Przegld&#45;lokali&#45;na&#45;wynajem&#45;w&#45;odzi.&#45;Fundusz&#45;1000&#45;&#45;&#45;1500.#Bot Aleksego</title>
<path fill="none" stroke="#c60077" d="M131.1,-740C198.63,-740 323,-740 323,-740 323,-740 323,-649.76 323,-625.79"/>
</g>
<!-- Zamek#Zamek -->
<g id="node27" class="node">
<title>Zamek#Zamek</title>
<ellipse fill="none" stroke="black" cx="657.08" cy="-792" rx="81.49" ry="18"/>
<text text-anchor="middle" x="657.08" y="-788.3" font-family="Times,serif" font-size="14.00">Zamek#Zamek</text>
</g>
<!-- cytP450&#45;&#45;Zamek#Zamek -->
<g id="edge29" class="edge">
<title>cytP450&#45;&#45;Zamek#Zamek</title>
<path fill="none" stroke="#c60077" d="M122,-762.34C122,-773.77 122,-788.4 122,-788.4 122,-788.4 428.1,-788.4 577.26,-788.4"/>
</g>
<!-- Stowarzyszenie#Komisja Rewizyjna -->
<g id="node28" class="node">
<title>Stowarzyszenie#Komisja Rewizyjna</title>
<ellipse fill="none" stroke="black" cx="657.08" cy="-104" rx="178.17" ry="18"/>
<text text-anchor="middle" x="657.08" y="-100.3" font-family="Times,serif" font-size="14.00">Stowarzyszenie#Komisja Rewizyjna</text>
</g>
<!-- cytP450&#45;&#45;Stowarzyszenie#Komisja Rewizyjna -->
<g id="edge31" class="edge">
<title>cytP450&#45;&#45;Stowarzyszenie#Komisja Rewizyjna</title>
<path fill="none" stroke="#c60077" d="M121.28,-735.5C143.91,-735.5 170,-735.5 170,-735.5 170,-735.5 170,-104 170,-104 170,-104 339.74,-104 478.82,-104"/>
</g>
<!-- Chciejlista#DIY -->
<g id="node29" class="node">
<title>Chciejlista#DIY</title>
<ellipse fill="none" stroke="black" cx="657.08" cy="-749" rx="83.69" ry="18"/>
<text text-anchor="middle" x="657.08" y="-745.3" font-family="Times,serif" font-size="14.00">Chciejlista#DIY</text>
</g>
<!-- cytP450&#45;&#45;Chciejlista#DIY -->
<g id="edge32" class="edge">
<title>cytP450&#45;&#45;Chciejlista#DIY</title>
<path fill="none" stroke="#c60077" d="M137.62,-749C234.7,-749 452.6,-749 573.05,-749"/>
</g>
<!-- Chciejlista#Elektronika (w sensie urzdze konsumenckich) -->
<g id="node30" class="node">
<title>Chciejlista#Elektronika (w sensie urzdze konsumenckich)</title>
<ellipse fill="none" stroke="black" cx="657.08" cy="-706" rx="289.75" ry="18"/>
<text text-anchor="middle" x="657.08" y="-702.3" font-family="Times,serif" font-size="14.00">Chciejlista#Elektronika (w sensie urzdze konsumenckich)</text>
</g>
<!-- cytP450&#45;&#45;Chciejlista#Elektronika (w sensie urzdze konsumenckich) -->
<g id="edge33" class="edge">
<title>cytP450&#45;&#45;Chciejlista#Elektronika (w sensie urzdze konsumenckich)</title>
<path fill="none" stroke="#c60077" d="M136.17,-744.5C222.66,-744.5 397,-744.5 397,-744.5 397,-744.5 397,-725.47 397,-714.16"/>
</g>
<!-- pmysl -->
<g id="node31" class="node">
<title>pmysl</title>
<ellipse fill="none" stroke="black" cx="88.67" cy="-835" rx="38.19" ry="18"/>
<text text-anchor="middle" x="88.67" y="-831.3" font-family="Times,serif" font-size="14.00">pmysl</text>
</g>
<!-- pmysl&#45;&#45;Infrastruktura::Github#Github -->
<g id="edge34" class="edge">
<title>pmysl&#45;&#45;Infrastruktura::Github#Github</title>
<path fill="none" stroke="#b6e400" d="M115.78,-822.14C153.7,-822.14 218,-822.14 218,-822.14 218,-822.14 218,-541.71 218,-541.71 218,-541.71 389.25,-541.71 517.85,-541.71"/>
</g>
<!-- pmysl&#45;&#45;Kanay&#45;komunikacji# -->
<g id="edge35" class="edge">
<title>pmysl&#45;&#45;Kanay&#45;komunikacji#</title>
<path fill="none" stroke="#b6e400" d="M126.85,-832.43C212.16,-832.43 420.87,-832.43 549.53,-832.43"/>
</g>
<!-- pmysl&#45;&#45;Infrastruktura::IRC#IRC -->
<g id="edge37" class="edge">
<title>pmysl&#45;&#45;Infrastruktura::IRC#IRC</title>
<path fill="none" stroke="#b6e400" d="M126.67,-837.57C201.78,-837.57 362,-837.57 362,-837.57 362,-837.57 362,-912.47 362,-912.47 362,-912.47 462.97,-912.47 546.78,-912.47"/>
</g>
<!-- pmysl&#45;&#45;Bazy&#45;danych#Grafana -->
<g id="edge38" class="edge">
<title>pmysl&#45;&#45;Bazy&#45;danych#Grafana</title>
<path fill="none" stroke="#b6e400" d="M123.5,-842.71C194.86,-842.71 351,-842.71 351,-842.71 351,-842.71 351,-1001 351,-1001 351,-1001 461.05,-1001 549.17,-1001"/>
</g>
<!-- pmysl&#45;&#45;Bazy&#45;danych# -->
<g id="edge36" class="edge">
<title>pmysl&#45;&#45;Bazy&#45;danych#</title>
<path fill="none" stroke="#b6e400" d="M123.67,-827.29C182.54,-827.29 295,-827.29 295,-827.29 295,-827.29 295,-670.5 295,-670.5 295,-670.5 481.04,-670.5 586.41,-670.5"/>
</g>
<!-- kpc -->
<g id="node32" class="node">
<title>kpc</title>
<ellipse fill="none" stroke="black" cx="88.67" cy="-276" rx="27" ry="18"/>
<text text-anchor="middle" x="88.67" y="-272.3" font-family="Times,serif" font-size="14.00">kpc</text>
</g>
<!-- kpc&#45;&#45;Miejsce::Miejsce#Klucze do spejsu -->
<g id="edge39" class="edge">
<title>kpc&#45;&#45;Miejsce::Miejsce#Klucze do spejsu</title>
<path fill="none" stroke="#00ffff" d="M107.65,-288.86C153.39,-288.86 266,-288.86 266,-288.86 266,-288.86 266,-956.29 266,-956.29 266,-956.29 391.9,-956.29 500.83,-956.29"/>
</g>
<!-- kpc&#45;&#45;Infrastruktura::Telegram#posty: t.me/hakierspejs_spam -->
<g id="edge41" class="edge">
<title>kpc&#45;&#45;Infrastruktura::Telegram#posty: t.me/hakierspejs_spam</title>
<path fill="none" stroke="#00ffff" d="M113.23,-283.71C185.45,-283.71 392,-283.71 392,-283.71 392,-283.71 392,-448.14 392,-484.1"/>
</g>
<!-- kpc&#45;&#45;Marketing&#45;i&#45;media&#45;spoecznociowe# -->
<g id="edge42" class="edge">
<title>kpc&#45;&#45;Marketing&#45;i&#45;media&#45;spoecznociowe#</title>
<path fill="none" stroke="#00ffff" d="M115.69,-278.57C205.9,-278.57 491,-278.57 491,-278.57 491,-278.57 491,-333.65 491,-354.3"/>
</g>
<!-- kpc&#45;&#45;Stowarzyszenie#Komisja Rewizyjna -->
<g id="edge40" class="edge">
<title>kpc&#45;&#45;Stowarzyszenie#Komisja Rewizyjna</title>
<path fill="none" stroke="#00ffff" d="M107.66,-263.14C162.3,-263.14 316,-263.14 316,-263.14 316,-263.14 316,-113 316,-113 316,-113 412.26,-113 502.51,-113"/>
</g>
<!-- Czaty&#45;HS#HS: posty wyklte -->
<g id="node33" class="node">
<title>Czaty&#45;HS#HS: posty wyklte</title>
<ellipse fill="none" stroke="black" cx="657.08" cy="-276" rx="157.87" ry="18"/>
<text text-anchor="middle" x="657.08" y="-272.3" font-family="Times,serif" font-size="14.00">Czaty&#45;HS#HS: posty wyklte</text>
</g>
<!-- kpc&#45;&#45;Czaty&#45;HS#HS: posty wyklte -->
<g id="edge43" class="edge">
<title>kpc&#45;&#45;Czaty&#45;HS#HS: posty wyklte</title>
<path fill="none" stroke="#00ffff" d="M115.7,-273.43C183.77,-273.43 366.36,-273.43 500.75,-273.43"/>
</g>
<!-- Infrastruktura::Telegram#Posty wyklte (celowo bez linka) -->
<g id="node34" class="node">
<title>Infrastruktura::Telegram#Posty wyklte (celowo bez linka)</title>
<ellipse fill="none" stroke="black" cx="657.08" cy="-233" rx="284.05" ry="18"/>
<text text-anchor="middle" x="657.08" y="-229.3" font-family="Times,serif" font-size="14.00">Infrastruktura::Telegram#Posty wyklte (celowo bez linka)</text>
</g>
<!-- kpc&#45;&#45;Infrastruktura::Telegram#Posty wyklte (celowo bez linka) -->
<g id="edge44" class="edge">
<title>kpc&#45;&#45;Infrastruktura::Telegram#Posty wyklte (celowo bez linka)</title>
<path fill="none" stroke="#00ffff" d="M113.08,-268.29C188.07,-268.29 410,-268.29 410,-268.29 410,-268.29 410,-252.36 410,-241.9"/>
</g>
<!-- BluRaf -->
<g id="node35" class="node">
<title>BluRaf</title>
<ellipse fill="none" stroke="black" cx="88.67" cy="-878" rx="42.49" ry="18"/>
<text text-anchor="middle" x="88.67" y="-874.3" font-family="Times,serif" font-size="14.00">BluRaf</text>
</g>
<!-- BluRaf&#45;&#45;Infrastruktura::IRC#IRC -->
<g id="edge45" class="edge">
<title>BluRaf&#45;&#45;Infrastruktura::IRC#IRC</title>
<path fill="none" stroke="#ab00d5" d="M131.02,-878C202.65,-878 340,-878 340,-878 340,-878 340,-916.26 340,-916.26 340,-916.26 446.69,-916.26 536.3,-916.26"/>
</g>
<!-- kujaw -->
<g id="node36" class="node">
<title>kujaw</title>
<ellipse fill="none" stroke="black" cx="88.67" cy="-491" rx="38.19" ry="18"/>
<text text-anchor="middle" x="88.67" y="-487.3" font-family="Times,serif" font-size="14.00">kujaw</text>
</g>
<!-- kujaw&#45;&#45;Miejsce::Miejsce#Klucze do spejsu -->
<g id="edge49" class="edge">
<title>kujaw&#45;&#45;Miejsce::Miejsce#Klucze do spejsu</title>
<path fill="none" stroke="#f29100" d="M126.03,-495.5C175.62,-495.5 257,-495.5 257,-495.5 257,-495.5 257,-961.43 257,-961.43 257,-961.43 377.3,-961.43 485.96,-961.43"/>
</g>
<!-- kujaw&#45;&#45;Marketing&#45;i&#45;media&#45;spoecznociowe# -->
<g id="edge46" class="edge">
<title>kujaw&#45;&#45;Marketing&#45;i&#45;media&#45;spoecznociowe#</title>
<path fill="none" stroke="#f29100" d="M122.04,-482C192.08,-482 348,-482 348,-482 348,-482 348,-368 348,-368 348,-368 413.39,-368 484.02,-368"/>
</g>
<!-- kujaw&#45;&#45;Stowarzyszenie#Zarzd -->
<g id="edge47" class="edge">
<title>kujaw&#45;&#45;Stowarzyszenie#Zarzd</title>
<path fill="none" stroke="#f29100" d="M114.17,-477.5C172.57,-477.5 311,-477.5 311,-477.5 311,-477.5 311,-328 311,-328 311,-328 448.31,-328 549.95,-328"/>
</g>
<!-- kujaw&#45;&#45;Marketing&#45;i&#45;media&#45;spoecznociowe#Logo nr. 2 -->
<g id="edge48" class="edge">
<title>kujaw&#45;&#45;Marketing&#45;i&#45;media&#45;spoecznociowe#Logo nr. 2</title>
<path fill="none" stroke="#f29100" d="M127.22,-491C203.84,-491 368,-491 368,-491 368,-491 368,-457 368,-457 368,-457 408.02,-457 458.28,-457"/>
</g>
<!-- Marketing&#45;i&#45;media&#45;spoecznociowe#Naklejki -->
<g id="node37" class="node">
<title>Marketing&#45;i&#45;media&#45;spoecznociowe#Naklejki</title>
<ellipse fill="none" stroke="black" cx="657.08" cy="-405" rx="221.76" ry="18"/>
<text text-anchor="middle" x="657.08" y="-401.3" font-family="Times,serif" font-size="14.00">Marketing&#45;i&#45;media&#45;spoecznociowe#Naklejki</text>
</g>
<!-- kujaw&#45;&#45;Marketing&#45;i&#45;media&#45;spoecznociowe#Naklejki -->
<g id="edge50" class="edge">
<title>kujaw&#45;&#45;Marketing&#45;i&#45;media&#45;spoecznociowe#Naklejki</title>
<path fill="none" stroke="#f29100" d="M125.95,-486.5C200.96,-486.5 363,-486.5 363,-486.5 363,-486.5 363,-414 363,-414 363,-414 409.23,-414 465.03,-414"/>
</g>
<!-- Polimerek -->
<g id="node38" class="node">
<title>Polimerek</title>
<ellipse fill="none" stroke="black" cx="88.67" cy="-319" rx="57.39" ry="18"/>
<text text-anchor="middle" x="88.67" y="-315.3" font-family="Times,serif" font-size="14.00">Polimerek</text>
</g>
<!-- Polimerek&#45;&#45;Marketing&#45;i&#45;media&#45;spoecznociowe# -->
<g id="edge51" class="edge">
<title>Polimerek&#45;&#45;Marketing&#45;i&#45;media&#45;spoecznociowe#</title>
<path fill="none" stroke="#00c64f" d="M126.84,-332.5C225.8,-332.5 483,-332.5 483,-332.5 483,-332.5 483,-347.74 483,-356.31"/>
</g>
<!-- Polimerek&#45;&#45;Stowarzyszenie#Zarzd -->
<g id="edge52" class="edge">
<title>Polimerek&#45;&#45;Stowarzyszenie#Zarzd</title>
<path fill="none" stroke="#00c64f" d="M146.04,-319C236.24,-319 413.32,-319 533.44,-319"/>
</g>
<!-- Paliguma -->
<g id="node39" class="node">
<title>Paliguma</title>
<ellipse fill="none" stroke="black" cx="88.67" cy="-233" rx="53.89" ry="18"/>
<text text-anchor="middle" x="88.67" y="-229.3" font-family="Times,serif" font-size="14.00">Paliguma</text>
</g>
<!-- Paliguma&#45;&#45;Stowarzyszenie#Zarzd -->
<g id="edge53" class="edge">
<title>Paliguma&#45;&#45;Stowarzyszenie#Zarzd</title>
<path fill="none" stroke="#2e00e4" d="M142.79,-233C211.71,-233 322,-233 322,-233 322,-233 322,-314.5 322,-314.5 322,-314.5 440.91,-314.5 537.06,-314.5"/>
</g>
<!-- kotlovecrafta -->
<g id="node40" class="node">
<title>kotlovecrafta</title>
<ellipse fill="none" stroke="black" cx="88.67" cy="-362" rx="71.49" ry="18"/>
<text text-anchor="middle" x="88.67" y="-358.3" font-family="Times,serif" font-size="14.00">kotlovecrafta</text>
</g>
<!-- kotlovecrafta&#45;&#45;Miejsce::Miejsce#Klucze do spejsu -->
<g id="edge54" class="edge">
<title>kotlovecrafta&#45;&#45;Miejsce::Miejsce#Klucze do spejsu</title>
<path fill="none" stroke="#ff0000" d="M150,-371.5C150,-448.41 150,-966.57 150,-966.57 150,-966.57 338.6,-966.57 485.76,-966.57"/>
</g>
<!-- kotlovecrafta&#45;&#45;Marketing&#45;i&#45;media&#45;spoecznociowe# -->
<g id="edge55" class="edge">
<title>kotlovecrafta&#45;&#45;Marketing&#45;i&#45;media&#45;spoecznociowe#</title>
<path fill="none" stroke="#ff0000" d="M133.75,-348C221.12,-348 415.97,-348 541.69,-348"/>
</g>
<!-- kotlovecrafta&#45;&#45;Stowarzyszenie#Zarzd -->
<g id="edge56" class="edge">
<title>kotlovecrafta&#45;&#45;Stowarzyszenie#Zarzd</title>
<path fill="none" stroke="#ff0000" d="M154,-354.58C154,-343.39 154,-323.5 154,-323.5 154,-323.5 388.42,-323.5 537.22,-323.5"/>
</g>
<!-- rux -->
<g id="node41" class="node">
<title>rux</title>
<ellipse fill="none" stroke="black" cx="88.67" cy="-190" rx="27" ry="18"/>
<text text-anchor="middle" x="88.67" y="-186.3" font-family="Times,serif" font-size="14.00">rux</text>
</g>
<!-- rux&#45;&#45;Stowarzyszenie#Zarzd -->
<g id="edge57" class="edge">
<title>rux&#45;&#45;Stowarzyszenie#Zarzd</title>
<path fill="none" stroke="#2bd500" d="M116.01,-190C178.61,-190 327,-190 327,-190 327,-190 327,-310 327,-310 327,-310 453.53,-310 549.91,-310"/>
</g>
<!-- Inoru -->
<g id="node42" class="node">
<title>Inoru</title>
<ellipse fill="none" stroke="black" cx="88.67" cy="-147" rx="36" ry="18"/>
<text text-anchor="middle" x="88.67" y="-143.3" font-family="Times,serif" font-size="14.00">Inoru</text>
</g>
<!-- Inoru&#45;&#45;Stowarzyszenie#Zarzd -->
<g id="edge58" class="edge">
<title>Inoru&#45;&#45;Stowarzyszenie#Zarzd</title>
<path fill="none" stroke="#0061f2" d="M124.57,-147C192.26,-147 332,-147 332,-147 332,-147 332,-305.5 332,-305.5 332,-305.5 478.75,-305.5 575.05,-305.5"/>
</g>
<!-- pzduniak -->
<g id="node43" class="node">
<title>pzduniak</title>
<ellipse fill="none" stroke="black" cx="88.67" cy="-104" rx="52.79" ry="18"/>
<text text-anchor="middle" x="88.67" y="-100.3" font-family="Times,serif" font-size="14.00">pzduniak</text>
</g>
<!-- pzduniak&#45;&#45;Stowarzyszenie#Komisja Rewizyjna -->
<g id="edge59" class="edge">
<title>pzduniak&#45;&#45;Stowarzyszenie#Komisja Rewizyjna</title>
<path fill="none" stroke="#c60077" d="M134.7,-95C213.86,-95 379.16,-95 502.73,-95"/>
</g>
<!-- krcz -->
<g id="node44" class="node">
<title>krcz</title>
<ellipse fill="none" stroke="black" cx="88.67" cy="-61" rx="30.59" ry="18"/>
<text text-anchor="middle" x="88.67" y="-57.3" font-family="Times,serif" font-size="14.00">krcz</text>
</g>
<!-- krcz&#45;&#45;Stowarzyszenie#Komisja Rewizyjna -->
<g id="edge60" class="edge">
<title>krcz&#45;&#45;Stowarzyszenie#Komisja Rewizyjna</title>
<path fill="none" stroke="#b6e400" d="M119.38,-61C229.5,-61 598,-61 598,-61 598,-61 598,-74.99 598,-87.01"/>
</g>
<!-- PiotrP -->
<g id="node45" class="node">
<title>PiotrP</title>
<ellipse fill="none" stroke="black" cx="88.67" cy="-18" rx="40.09" ry="18"/>
<text text-anchor="middle" x="88.67" y="-14.3" font-family="Times,serif" font-size="14.00">PiotrP</text>
</g>
<!-- PiotrP&#45;&#45;Stowarzyszenie#Komisja Rewizyjna -->
<g id="edge61" class="edge">
<title>PiotrP&#45;&#45;Stowarzyszenie#Komisja Rewizyjna</title>
<path fill="none" stroke="#00ffff" d="M129.41,-18C268.65,-18 717,-18 717,-18 717,-18 717,-61.95 717,-87.01"/>
</g>
<!-- kszmigiel -->
<g id="node46" class="node">
<title>kszmigiel</title>
<ellipse fill="none" stroke="black" cx="88.67" cy="-577" rx="54.69" ry="18"/>
<text text-anchor="middle" x="88.67" y="-573.3" font-family="Times,serif" font-size="14.00">kszmigiel</text>
</g>
<!-- kszmigiel&#45;&#45;Infrastruktura::Github#Github -->
<g id="edge62" class="edge">
<title>kszmigiel&#45;&#45;Infrastruktura::Github#Github</title>
<path fill="none" stroke="#ab00d5" d="M140,-570.66C140,-558.14 140,-531.43 140,-531.43 140,-531.43 351.89,-531.43 504.39,-531.43"/>
</g>
<!-- kszmigiel&#45;&#45;Infrastruktura::Telegram#posty: t.me/hakierspejs_spam -->
<g id="edge63" class="edge">
<title>kszmigiel&#45;&#45;Infrastruktura::Telegram#posty: t.me/hakierspejs_spam</title>
<path fill="none" stroke="#ab00d5" d="M136,-567.86C136,-547.47 136,-500 136,-500 136,-500 276.12,-500 411.04,-500"/>
</g>
<!-- kszmigiel&#45;&#45;Marketing&#45;i&#45;media&#45;spoecznociowe# -->
<g id="edge64" class="edge">
<title>kszmigiel&#45;&#45;Marketing&#45;i&#45;media&#45;spoecznociowe#</title>
<path fill="none" stroke="#ab00d5" d="M132.54,-566.2C208.86,-566.2 358,-566.2 358,-566.2 358,-566.2 358,-376 358,-376 358,-376 457.62,-376 541.88,-376"/>
</g>
<!-- kszmigiel&#45;&#45;Infrastruktura::Telegram#G贸wny: t.me/hakierspejs -->
<g id="edge65" class="edge">
<title>kszmigiel&#45;&#45;Infrastruktura::Telegram#G贸wny: t.me/hakierspejs</title>
<path fill="none" stroke="#ab00d5" d="M142.4,-573.4C204.39,-573.4 310.65,-573.4 410.58,-573.4"/>
</g>
<!-- kszmigiel&#45;&#45;Marketing&#45;i&#45;media&#45;spoecznociowe#Naklejki -->
<g id="edge66" class="edge">
<title>kszmigiel&#45;&#45;Marketing&#45;i&#45;media&#45;spoecznociowe#Naklejki</title>
<path fill="none" stroke="#ab00d5" d="M132,-565.98C132,-528.02 132,-405 132,-405 132,-405 291.85,-405 435.16,-405"/>
</g>
<!-- SP7Q -->
<g id="node47" class="node">
<title>SP7Q</title>
<ellipse fill="none" stroke="black" cx="88.67" cy="-534" rx="36.29" ry="18"/>
<text text-anchor="middle" x="88.67" y="-530.3" font-family="Times,serif" font-size="14.00">SP7Q</text>
</g>
<!-- SP7Q&#45;&#45;Infrastruktura::Github#Github -->
<g id="edge67" class="edge">
<title>SP7Q&#45;&#45;Infrastruktura::Github#Github</title>
<path fill="none" stroke="#f29100" d="M121.69,-526.29C197.15,-526.29 385.91,-526.29 517.81,-526.29"/>
</g>
<!-- SP7Q&#45;&#45;Marketing&#45;i&#45;media&#45;spoecznociowe# -->
<g id="edge68" class="edge">
<title>SP7Q&#45;&#45;Marketing&#45;i&#45;media&#45;spoecznociowe#</title>
<path fill="none" stroke="#f29100" d="M114.5,-521.14C181.01,-521.14 353,-521.14 353,-521.14 353,-521.14 353,-372 353,-372 353,-372 428.72,-372 504.6,-372"/>
</g>
<!-- biniu -->
<g id="node48" class="node">
<title>biniu</title>
<ellipse fill="none" stroke="black" cx="88.67" cy="-405" rx="34.39" ry="18"/>
<text text-anchor="middle" x="88.67" y="-401.3" font-family="Times,serif" font-size="14.00">biniu</text>
</g>
<!-- biniu&#45;&#45;Marketing&#45;i&#45;media&#45;spoecznociowe# -->
<g id="edge69" class="edge">
<title>biniu&#45;&#45;Marketing&#45;i&#45;media&#45;spoecznociowe#</title>
<path fill="none" stroke="#00c64f" d="M118.62,-396C184.67,-396 337,-396 337,-396 337,-396 337,-360 337,-360 337,-360 402.72,-360 474.6,-360"/>
</g>
<!-- Keij0 -->
<g id="node49" class="node">
<title>Keij0</title>
<ellipse fill="none" stroke="black" cx="88.67" cy="-448" rx="34.39" ry="18"/>
<text text-anchor="middle" x="88.67" y="-444.3" font-family="Times,serif" font-size="14.00">Keij0</text>
</g>
<!-- Keij0&#45;&#45;Marketing&#45;i&#45;media&#45;spoecznociowe# -->
<g id="edge70" class="edge">
<title>Keij0&#45;&#45;Marketing&#45;i&#45;media&#45;spoecznociowe#</title>
<path fill="none" stroke="#2e00e4" d="M118.72,-439C185.83,-439 342,-439 342,-439 342,-439 342,-364 342,-364 342,-364 405.03,-364 474.71,-364"/>
</g>
<!-- kasesag -->
<g id="node50" class="node">
<title>kasesag</title>
<ellipse fill="none" stroke="black" cx="88.67" cy="-1308" rx="48.19" ry="18"/>
<text text-anchor="middle" x="88.67" y="-1304.3" font-family="Times,serif" font-size="14.00">kasesag</text>
</g>
<!-- Marketing&#45;i&#45;media&#45;spoecznociowe#Przycisk HS&#45;LDZ -->
<g id="node51" class="node">
<title>Marketing&#45;i&#45;media&#45;spoecznociowe#Przycisk HS&#45;LDZ</title>
<ellipse fill="none" stroke="black" cx="657.08" cy="-1308" rx="261.85" ry="18"/>
<text text-anchor="middle" x="657.08" y="-1304.3" font-family="Times,serif" font-size="14.00">Marketing&#45;i&#45;media&#45;spoecznociowe#Przycisk HS&#45;LDZ</text>
</g>
<!-- kasesag&#45;&#45;Marketing&#45;i&#45;media&#45;spoecznociowe#Przycisk HS&#45;LDZ -->
<g id="edge71" class="edge">
<title>kasesag&#45;&#45;Marketing&#45;i&#45;media&#45;spoecznociowe#Przycisk HS&#45;LDZ</title>
<path fill="none" stroke="#ff0000" d="M137.13,-1308C195.12,-1308 296.72,-1308 394.82,-1308"/>
</g>
<!-- hslbridgebot -->
<g id="node52" class="node">
<title>hslbridgebot</title>
<ellipse fill="none" stroke="black" cx="88.67" cy="-1394" rx="69.59" ry="18"/>
<text text-anchor="middle" x="88.67" y="-1390.3" font-family="Times,serif" font-size="14.00">hslbridgebot</text>
</g>
<!-- Mostkowanie&#45;kana贸w#mautrix&#45;telegram (aktualnie u偶ywany) -->
<g id="node53" class="node">
<title>Mostkowanie&#45;kana贸w#mautrix&#45;telegram (aktualnie u偶ywany)</title>
<ellipse fill="none" stroke="black" cx="657.08" cy="-1372" rx="297.85" ry="18"/>
<text text-anchor="middle" x="657.08" y="-1368.3" font-family="Times,serif" font-size="14.00">Mostkowanie&#45;kana贸w#mautrix&#45;telegram (aktualnie u偶ywany)</text>
</g>
<!-- hslbridgebot&#45;&#45;Mostkowanie&#45;kana贸w#mautrix&#45;telegram (aktualnie u偶ywany) -->
<g id="edge72" class="edge">
<title>hslbridgebot&#45;&#45;Mostkowanie&#45;kana贸w#mautrix&#45;telegram (aktualnie u偶ywany)</title>
<path fill="none" stroke="#2bd500" d="M143.95,-1383C208.39,-1383 319.14,-1383 421.28,-1383"/>
</g>
<!-- telegrambot -->
<g id="node54" class="node">
<title>telegrambot</title>
<ellipse fill="none" stroke="black" cx="88.67" cy="-1351" rx="67.69" ry="18"/>
<text text-anchor="middle" x="88.67" y="-1347.3" font-family="Times,serif" font-size="14.00">telegrambot</text>
</g>
<!-- telegrambot&#45;&#45;Mostkowanie&#45;kana贸w#mautrix&#45;telegram (aktualnie u偶ywany) -->
<g id="edge73" class="edge">
<title>telegrambot&#45;&#45;Mostkowanie&#45;kana贸w#mautrix&#45;telegram (aktualnie u偶ywany)</title>
<path fill="none" stroke="#0061f2" d="M143.69,-1361.5C206.79,-1361.5 314.54,-1361.5 415.08,-1361.5"/>
</g>
<!-- Piotrek_P -->
<g id="node55" class="node">
<title>Piotrek_P</title>
<ellipse fill="none" stroke="black" cx="88.67" cy="-1050" rx="55.49" ry="18"/>
<text text-anchor="middle" x="88.67" y="-1046.3" font-family="Times,serif" font-size="14.00">Piotrek_P</text>
</g>
<!-- Piotrek_P&#45;&#45;Miejsce::Miejsce#Klucze do spejsu -->
<g id="edge74" class="edge">
<title>Piotrek_P&#45;&#45;Miejsce::Miejsce#Klucze do spejsu</title>
<path fill="none" stroke="#c60077" d="M140.82,-1056C254.4,-1056 514,-1056 514,-1056 514,-1056 514,-998.15 514,-974.2"/>
</g>
<!-- polimerek -->
<g id="node56" class="node">
<title>polimerek</title>
<ellipse fill="none" stroke="black" cx="88.67" cy="-1007" rx="57.39" ry="18"/>
<text text-anchor="middle" x="88.67" y="-1003.3" font-family="Times,serif" font-size="14.00">polimerek</text>
</g>
<!-- polimerek&#45;&#45;Miejsce::Miejsce#Klucze do spejsu -->
<g id="edge75" class="edge">
<title>polimerek&#45;&#45;Miejsce::Miejsce#Klucze do spejsu</title>
<path fill="none" stroke="#b6e400" d="M144,-1002.29C144,-993.81 144,-976.86 144,-976.86 144,-976.86 384.11,-976.86 535.81,-976.86"/>
</g>
<!-- sp7adg -->
<g id="node57" class="node">
<title>sp7adg</title>
<ellipse fill="none" stroke="black" cx="88.67" cy="-964" rx="44.39" ry="18"/>
<text text-anchor="middle" x="88.67" y="-960.3" font-family="Times,serif" font-size="14.00">sp7adg</text>
</g>
<!-- sp7adg&#45;&#45;Miejsce::Miejsce#Klucze do spejsu -->
<g id="edge76" class="edge">
<title>sp7adg&#45;&#45;Miejsce::Miejsce#Klucze do spejsu</title>
<path fill="none" stroke="#00ffff" d="M128.64,-971.71C204.7,-971.71 373.97,-971.71 500.56,-971.71"/>
</g>
</g>
</svg>
