<?xml version="1.0" encoding="UTF-8" standalone="no"?>
<!DOCTYPE svg PUBLIC "-//W3C//DTD SVG 1.1//EN"
 "http://www.w3.org/Graphics/SVG/1.1/DTD/svg11.dtd">
<!-- Generated by graphviz version 2.43.0 (0)
 -->
<!-- Title: %3 Pages: 1 -->
<svg width="1001pt" height="1355pt"
 viewBox="0.00 0.00 1000.82 1355.00" xmlns="http://www.w3.org/2000/svg" xmlns:xlink="http://www.w3.org/1999/xlink">
<g id="graph0" class="graph" transform="scale(1 1) rotate(0) translate(4 1351)">
<title>%3</title>
<polygon fill="white" stroke="transparent" points="-4,4 -4,-1351 996.82,-1351 996.82,4 -4,4"/>
<!-- d33tah -->
<g id="node1" class="node">
<title>d33tah</title>
<ellipse fill="none" stroke="black" cx="71.49" cy="-953" rx="43.59" ry="18"/>
<text text-anchor="middle" x="71.49" y="-949.3" font-family="Times,serif" font-size="14.00">d33tah</text>
</g>
<!-- Infrastruktura::Telegram#posty: t.me/hakierspejs_spam -->
<g id="node2" class="node">
<title>Infrastruktura::Telegram#posty: t.me/hakierspejs_spam</title>
<ellipse fill="none" stroke="black" cx="639.91" cy="-620" rx="284.05" ry="18"/>
<text text-anchor="middle" x="639.91" y="-616.3" font-family="Times,serif" font-size="14.00">Infrastruktura::Telegram#posty: t.me/hakierspejs_spam</text>
</g>
<!-- d33tah&#45;&#45;Infrastruktura::Telegram#posty: t.me/hakierspejs_spam -->
<g id="edge1" class="edge">
<title>d33tah&#45;&#45;Infrastruktura::Telegram#posty: t.me/hakierspejs_spam</title>
<path fill="none" stroke="#ff0000" d="M115.22,-953.14C197.65,-953.14 367.82,-953.14 367.82,-953.14 367.82,-953.14 367.82,-667.62 367.82,-625.23"/>
</g>
<!-- Infrastruktura::Domeny#Domeny -->
<g id="node3" class="node">
<title>Infrastruktura::Domeny#Domeny</title>
<ellipse fill="none" stroke="black" cx="639.91" cy="-749" rx="167.07" ry="18"/>
<text text-anchor="middle" x="639.91" y="-745.3" font-family="Times,serif" font-size="14.00">Infrastruktura::Domeny#Domeny</text>
</g>
<!-- d33tah&#45;&#45;Infrastruktura::Domeny#Domeny -->
<g id="edge2" class="edge">
<title>d33tah&#45;&#45;Infrastruktura::Domeny#Domeny</title>
<path fill="none" stroke="#ff0000" d="M115.17,-951.36C165.93,-951.36 242.82,-951.36 242.82,-951.36 242.82,-951.36 242.82,-755 242.82,-755 242.82,-755 371.54,-755 482.4,-755"/>
</g>
<!-- Stowarzyszenie#Zarzd -->
<g id="node4" class="node">
<title>Stowarzyszenie#Zarzd</title>
<ellipse fill="none" stroke="black" cx="639.91" cy="-706" rx="123.48" ry="18"/>
<text text-anchor="middle" x="639.91" y="-702.3" font-family="Times,serif" font-size="14.00">Stowarzyszenie#Zarzd</text>
</g>
<!-- d33tah&#45;&#45;Stowarzyszenie#Zarzd -->
<g id="edge3" class="edge">
<title>d33tah&#45;&#45;Stowarzyszenie#Zarzd</title>
<path fill="none" stroke="#ff0000" d="M114.29,-949.57C158.41,-949.57 220.82,-949.57 220.82,-949.57 220.82,-949.57 220.82,-719.5 220.82,-719.5 220.82,-719.5 436.15,-719.5 558.11,-719.5"/>
</g>
<!-- Infrastruktura::Mariuszbot#Mariuszbot -->
<g id="node5" class="node">
<title>Infrastruktura::Mariuszbot#Mariuszbot</title>
<ellipse fill="none" stroke="black" cx="639.91" cy="-1136" rx="196.07" ry="18"/>
<text text-anchor="middle" x="639.91" y="-1132.3" font-family="Times,serif" font-size="14.00">Infrastruktura::Mariuszbot#Mariuszbot</text>
</g>
<!-- d33tah&#45;&#45;Infrastruktura::Mariuszbot#Mariuszbot -->
<g id="edge4" class="edge">
<title>d33tah&#45;&#45;Infrastruktura::Mariuszbot#Mariuszbot</title>
<path fill="none" stroke="#ff0000" d="M113.21,-958.5C214.44,-958.5 464.82,-958.5 464.82,-958.5 464.82,-958.5 464.82,-1091.98 464.82,-1127.44"/>
</g>
<!-- Bazy&#45;danych#Pad -->
<g id="node6" class="node">
<title>Bazy&#45;danych#Pad</title>
<ellipse fill="none" stroke="black" cx="639.91" cy="-1093" rx="94.48" ry="18"/>
<text text-anchor="middle" x="639.91" y="-1089.3" font-family="Times,serif" font-size="14.00">Bazy&#45;danych#Pad</text>
</g>
<!-- d33tah&#45;&#45;Bazy&#45;danych#Pad -->
<g id="edge5" class="edge">
<title>d33tah&#45;&#45;Bazy&#45;danych#Pad</title>
<path fill="none" stroke="#ff0000" d="M109.27,-962.07C162.68,-962.07 253.82,-962.07 253.82,-962.07 253.82,-962.07 253.82,-1085.5 253.82,-1085.5 253.82,-1085.5 440.48,-1085.5 554.22,-1085.5"/>
</g>
<!-- Drzwi&#45;frontowe#Ekran  -->
<g id="node7" class="node">
<title>Drzwi&#45;frontowe#Ekran </title>
<ellipse fill="none" stroke="black" cx="639.91" cy="-1050" rx="120.78" ry="18"/>
<text text-anchor="middle" x="639.91" y="-1046.3" font-family="Times,serif" font-size="14.00">Drzwi&#45;frontowe#Ekran </text>
</g>
<!-- d33tah&#45;&#45;Drzwi&#45;frontowe#Ekran  -->
<g id="edge6" class="edge">
<title>d33tah&#45;&#45;Drzwi&#45;frontowe#Ekran </title>
<path fill="none" stroke="black" d="M90.45,-969.21C109.42,-969.21 135.82,-969.21 135.82,-969.21 135.82,-969.21 135.82,-1050 135.82,-1050 135.82,-1050 369.7,-1050 518.85,-1050"/>
</g>
<!-- Infrastruktura::Telegram#HS24: t.me/hsl_info -->
<g id="node11" class="node">
<title>Infrastruktura::Telegram#HS24: t.me/hsl_info</title>
<ellipse fill="none" stroke="black" cx="639.91" cy="-1265" rx="231.26" ry="18"/>
<text text-anchor="middle" x="639.91" y="-1261.3" font-family="Times,serif" font-size="14.00">Infrastruktura::Telegram#HS24: t.me/hsl_info</text>
</g>
<!-- d33tah&#45;&#45;Infrastruktura::Telegram#HS24: t.me/hsl_info -->
<g id="edge7" class="edge">
<title>d33tah&#45;&#45;Infrastruktura::Telegram#HS24: t.me/hsl_info</title>
<path fill="none" stroke="#ff0000" d="M102.54,-965.64C143.32,-965.64 209.82,-965.64 209.82,-965.64 209.82,-965.64 209.82,-1257.5 209.82,-1257.5 209.82,-1257.5 320.31,-1257.5 429.28,-1257.5"/>
</g>
<!-- Kanay&#45;komunikacji# -->
<g id="node12" class="node">
<title>Kanay&#45;komunikacji#</title>
<ellipse fill="none" stroke="black" cx="639.91" cy="-792" rx="108.58" ry="18"/>
<text text-anchor="middle" x="639.91" y="-788.3" font-family="Times,serif" font-size="14.00">Kanay&#45;komunikacji#</text>
</g>
<!-- d33tah&#45;&#45;Kanay&#45;komunikacji# -->
<g id="edge8" class="edge">
<title>d33tah&#45;&#45;Kanay&#45;komunikacji#</title>
<path fill="none" stroke="#ff0000" d="M103.42,-940.75C172.93,-940.75 331.82,-940.75 331.82,-940.75 331.82,-940.75 331.82,-805.5 331.82,-805.5 331.82,-805.5 477.03,-805.5 568.06,-805.5"/>
</g>
<!-- Infrastruktura::Telegram#Spacerspejs: t.me/joinchat/UYf2ONtNj21J1DS6 -->
<g id="node13" class="node">
<title>Infrastruktura::Telegram#Spacerspejs: t.me/joinchat/UYf2ONtNj21J1DS6</title>
<ellipse fill="none" stroke="black" cx="639.91" cy="-1222" rx="352.84" ry="18"/>
<text text-anchor="middle" x="639.91" y="-1218.3" font-family="Times,serif" font-size="14.00">Infrastruktura::Telegram#Spacerspejs: t.me/joinchat/UYf2ONtNj21J1DS6</text>
</g>
<!-- d33tah&#45;&#45;Infrastruktura::Telegram#Spacerspejs: t.me/joinchat/UYf2ONtNj21J1DS6 -->
<g id="edge9" class="edge">
<title>d33tah&#45;&#45;Infrastruktura::Telegram#Spacerspejs: t.me/joinchat/UYf2ONtNj21J1DS6</title>
<path fill="none" stroke="#ff0000" d="M111.42,-960.29C175.66,-960.29 294.82,-960.29 294.82,-960.29 294.82,-960.29 294.82,-1184.59 294.82,-1217.89"/>
</g>
<!-- Infrastruktura::Github#Github -->
<g id="node14" class="node">
<title>Infrastruktura::Github#Github</title>
<ellipse fill="none" stroke="black" cx="639.91" cy="-878" rx="154.07" ry="18"/>
<text text-anchor="middle" x="639.91" y="-874.3" font-family="Times,serif" font-size="14.00">Infrastruktura::Github#Github</text>
</g>
<!-- d33tah&#45;&#45;Infrastruktura::Github#Github -->
<g id="edge10" class="edge">
<title>d33tah&#45;&#45;Infrastruktura::Github#Github</title>
<path fill="none" stroke="#ff0000" d="M109.66,-944.25C215.64,-944.25 505.82,-944.25 505.82,-944.25 505.82,-944.25 505.82,-905.02 505.82,-886.93"/>
</g>
<!-- Bazy&#45;danych#Grafana -->
<g id="node15" class="node">
<title>Bazy&#45;danych#Grafana</title>
<ellipse fill="none" stroke="black" cx="639.91" cy="-1007" rx="114.28" ry="18"/>
<text text-anchor="middle" x="639.91" y="-1003.3" font-family="Times,serif" font-size="14.00">Bazy&#45;danych#Grafana</text>
</g>
<!-- d33tah&#45;&#45;Bazy&#45;danych#Grafana -->
<g id="edge11" class="edge">
<title>d33tah&#45;&#45;Bazy&#45;danych#Grafana</title>
<path fill="none" stroke="#ff0000" d="M97.69,-967.43C115.87,-967.43 136.82,-967.43 136.82,-967.43 136.82,-967.43 136.82,-1005.67 136.82,-1005.67 136.82,-1005.67 377.32,-1005.67 525.75,-1005.67"/>
</g>
<!-- Bazy&#45;danych#Trello -->
<g id="node16" class="node">
<title>Bazy&#45;danych#Trello</title>
<ellipse fill="none" stroke="black" cx="639.91" cy="-1179" rx="103.98" ry="18"/>
<text text-anchor="middle" x="639.91" y="-1175.3" font-family="Times,serif" font-size="14.00">Bazy&#45;danych#Trello</text>
</g>
<!-- d33tah&#45;&#45;Bazy&#45;danych#Trello -->
<g id="edge12" class="edge">
<title>d33tah&#45;&#45;Bazy&#45;danych#Trello</title>
<path fill="none" stroke="#ff0000" d="M106.28,-963.86C153.44,-963.86 231.82,-963.86 231.82,-963.86 231.82,-963.86 231.82,-1171.5 231.82,-1171.5 231.82,-1171.5 424.71,-1171.5 545.26,-1171.5"/>
</g>
<!-- Infrastruktura::IRC#IRC -->
<g id="node17" class="node">
<title>Infrastruktura::IRC#IRC</title>
<ellipse fill="none" stroke="black" cx="639.91" cy="-964" rx="124.58" ry="18"/>
<text text-anchor="middle" x="639.91" y="-960.3" font-family="Times,serif" font-size="14.00">Infrastruktura::IRC#IRC</text>
</g>
<!-- d33tah&#45;&#45;Infrastruktura::IRC#IRC -->
<g id="edge13" class="edge">
<title>d33tah&#45;&#45;Infrastruktura::IRC#IRC</title>
<path fill="none" stroke="#ff0000" d="M114.22,-956.71C200.64,-956.71 398.77,-956.71 525.59,-956.71"/>
</g>
<!-- Miejsce::Miejsce#Klucze do spejsu -->
<g id="node18" class="node">
<title>Miejsce::Miejsce#Klucze do spejsu</title>
<ellipse fill="none" stroke="black" cx="639.91" cy="-147" rx="172.77" ry="18"/>
<text text-anchor="middle" x="639.91" y="-143.3" font-family="Times,serif" font-size="14.00">Miejsce::Miejsce#Klucze do spejsu</text>
</g>
<!-- d33tah&#45;&#45;Miejsce::Miejsce#Klucze do spejsu -->
<g id="edge14" class="edge">
<title>d33tah&#45;&#45;Miejsce::Miejsce#Klucze do spejsu</title>
<path fill="none" stroke="#ff0000" d="M27.63,-953C17.1,-953 8.82,-953 8.82,-953 8.82,-953 8.82,-168.5 8.82,-168.5 8.82,-168.5 640.82,-168.5 640.82,-168.5 640.82,-168.5 640.82,-167.16 640.82,-165.14"/>
</g>
<!-- Marketing&#45;i&#45;media&#45;spoecznociowe# -->
<g id="node19" class="node">
<title>Marketing&#45;i&#45;media&#45;spoecznociowe#</title>
<ellipse fill="none" stroke="black" cx="639.91" cy="-534" rx="183.07" ry="18"/>
<text text-anchor="middle" x="639.91" y="-530.3" font-family="Times,serif" font-size="14.00">Marketing&#45;i&#45;media&#45;spoecznociowe#</text>
</g>
<!-- d33tah&#45;&#45;Marketing&#45;i&#45;media&#45;spoecznociowe# -->
<g id="edge15" class="edge">
<title>d33tah&#45;&#45;Marketing&#45;i&#45;media&#45;spoecznociowe#</title>
<path fill="none" stroke="#ff0000" d="M113.19,-947.79C150.32,-947.79 198.82,-947.79 198.82,-947.79 198.82,-947.79 198.82,-538.15 198.82,-538.15 198.82,-538.15 339.11,-538.15 461.46,-538.15"/>
</g>
<!-- Infrastruktura::Telegram#G贸wny: t.me/hakierspejs -->
<g id="node20" class="node">
<title>Infrastruktura::Telegram#G贸wny: t.me/hakierspejs</title>
<ellipse fill="none" stroke="black" cx="639.91" cy="-835" rx="251.56" ry="18"/>
<text text-anchor="middle" x="639.91" y="-831.3" font-family="Times,serif" font-size="14.00">Infrastruktura::Telegram#G贸wny: t.me/hakierspejs</text>
</g>
<!-- d33tah&#45;&#45;Infrastruktura::Telegram#G贸wny: t.me/hakierspejs -->
<g id="edge16" class="edge">
<title>d33tah&#45;&#45;Infrastruktura::Telegram#G贸wny: t.me/hakierspejs</title>
<path fill="none" stroke="#ff0000" d="M107.15,-942.5C195.38,-942.5 416.82,-942.5 416.82,-942.5 416.82,-942.5 416.82,-868.78 416.82,-843.44"/>
</g>
<!-- nastpne -->
<g id="node8" class="node">
<title>nastpne</title>
<ellipse fill="none" stroke="black" cx="71.49" cy="-1050" rx="53.09" ry="18"/>
<text text-anchor="middle" x="71.49" y="-1046.3" font-family="Times,serif" font-size="14.00">nastpne</text>
</g>
<!-- spotkanie -->
<g id="node9" class="node">
<title>spotkanie</title>
<ellipse fill="none" stroke="black" cx="71.49" cy="-1114" rx="55.79" ry="18"/>
<text text-anchor="middle" x="71.49" y="-1110.3" font-family="Times,serif" font-size="14.00">spotkanie</text>
</g>
<g id="node10" class="node">
<title></title>
<ellipse fill="none" stroke="#ff0000" cx="71.49" cy="-1200" rx="27" ry="18"/>
</g>
<!-- kujaw -->
<g id="node21" class="node">
<title>kujaw</title>
<ellipse fill="none" stroke="black" cx="71.49" cy="-534" rx="38.19" ry="18"/>
<text text-anchor="middle" x="71.49" y="-530.3" font-family="Times,serif" font-size="14.00">kujaw</text>
</g>
<!-- kujaw&#45;&#45;Stowarzyszenie#Zarzd -->
<g id="edge18" class="edge">
<title>kujaw&#45;&#45;Stowarzyszenie#Zarzd</title>
<path fill="none" stroke="#2bd500" d="M91.95,-549.23C154.31,-549.23 337.82,-549.23 337.82,-549.23 337.82,-549.23 337.82,-697 337.82,-697 337.82,-697 445.73,-697 532.55,-697"/>
</g>
<!-- kujaw&#45;&#45;Miejsce::Miejsce#Klucze do spejsu -->
<g id="edge19" class="edge">
<title>kujaw&#45;&#45;Miejsce::Miejsce#Klucze do spejsu</title>
<path fill="none" stroke="#2bd500" d="M92.05,-518.77C122.71,-518.77 176.82,-518.77 176.82,-518.77 176.82,-518.77 176.82,-153 176.82,-153 176.82,-153 343.32,-153 476.64,-153"/>
</g>
<!-- kujaw&#45;&#45;Marketing&#45;i&#45;media&#45;spoecznociowe# -->
<g id="edge20" class="edge">
<title>kujaw&#45;&#45;Marketing&#45;i&#45;media&#45;spoecznociowe#</title>
<path fill="none" stroke="#2bd500" d="M109.23,-529.85C179.96,-529.85 336.59,-529.85 461.46,-529.85"/>
</g>
<!-- Marketing&#45;i&#45;media&#45;spoecznociowe#Logo nr. 2 -->
<g id="node22" class="node">
<title>Marketing&#45;i&#45;media&#45;spoecznociowe#Logo nr. 2</title>
<ellipse fill="none" stroke="black" cx="639.91" cy="-577" rx="229.36" ry="18"/>
<text text-anchor="middle" x="639.91" y="-573.3" font-family="Times,serif" font-size="14.00">Marketing&#45;i&#45;media&#45;spoecznociowe#Logo nr. 2</text>
</g>
<!-- kujaw&#45;&#45;Marketing&#45;i&#45;media&#45;spoecznociowe#Logo nr. 2 -->
<g id="edge17" class="edge">
<title>kujaw&#45;&#45;Marketing&#45;i&#45;media&#45;spoecznociowe#Logo nr. 2</title>
<path fill="none" stroke="#2bd500" d="M99.3,-546.46C181.03,-546.46 414.82,-546.46 414.82,-546.46 414.82,-546.46 414.82,-565.1 414.82,-573.26"/>
</g>
<!-- Marketing&#45;i&#45;media&#45;spoecznociowe#Naklejki -->
<g id="node23" class="node">
<title>Marketing&#45;i&#45;media&#45;spoecznociowe#Naklejki</title>
<ellipse fill="none" stroke="black" cx="639.91" cy="-491" rx="221.76" ry="18"/>
<text text-anchor="middle" x="639.91" y="-487.3" font-family="Times,serif" font-size="14.00">Marketing&#45;i&#45;media&#45;spoecznociowe#Naklejki</text>
</g>
<!-- kujaw&#45;&#45;Marketing&#45;i&#45;media&#45;spoecznociowe#Naklejki -->
<g id="edge21" class="edge">
<title>kujaw&#45;&#45;Marketing&#45;i&#45;media&#45;spoecznociowe#Naklejki</title>
<path fill="none" stroke="#2bd500" d="M106.95,-527.08C198.89,-527.08 437.82,-527.08 437.82,-527.08 437.82,-527.08 437.82,-509.24 437.82,-498.65"/>
</g>
<!-- SP7Q -->
<g id="node24" class="node">
<title>SP7Q</title>
<ellipse fill="none" stroke="black" cx="71.49" cy="-706" rx="36.29" ry="18"/>
<text text-anchor="middle" x="71.49" y="-702.3" font-family="Times,serif" font-size="14.00">SP7Q</text>
</g>
<!-- SP7Q&#45;&#45;Stowarzyszenie#Zarzd -->
<g id="edge23" class="edge">
<title>SP7Q&#45;&#45;Stowarzyszenie#Zarzd</title>
<path fill="none" stroke="#0061f2" d="M107.92,-706C188.71,-706 386.1,-706 516.39,-706"/>
</g>
<!-- SP7Q&#45;&#45;Infrastruktura::Github#Github -->
<g id="edge22" class="edge">
<title>SP7Q&#45;&#45;Infrastruktura::Github#Github</title>
<path fill="none" stroke="#0061f2" d="M106.82,-710.5C171.15,-710.5 300.82,-710.5 300.82,-710.5 300.82,-710.5 300.82,-867 300.82,-867 300.82,-867 420.76,-867 517.97,-867"/>
</g>
<!-- SP7Q&#45;&#45;Marketing&#45;i&#45;media&#45;spoecznociowe# -->
<g id="edge24" class="edge">
<title>SP7Q&#45;&#45;Marketing&#45;i&#45;media&#45;spoecznociowe#</title>
<path fill="none" stroke="#0061f2" d="M95.76,-692.5C158.24,-692.5 319.82,-692.5 319.82,-692.5 319.82,-692.5 319.82,-543.69 319.82,-543.69 319.82,-543.69 403.32,-543.69 485.02,-543.69"/>
</g>
<!-- Polimerek -->
<g id="node25" class="node">
<title>Polimerek</title>
<ellipse fill="none" stroke="black" cx="71.49" cy="-749" rx="57.39" ry="18"/>
<text text-anchor="middle" x="71.49" y="-745.3" font-family="Times,serif" font-size="14.00">Polimerek</text>
</g>
<!-- Polimerek&#45;&#45;Stowarzyszenie#Zarzd -->
<g id="edge25" class="edge">
<title>Polimerek&#45;&#45;Stowarzyszenie#Zarzd</title>
<path fill="none" stroke="#c60077" d="M115.82,-737.49C115.82,-727.63 115.82,-715 115.82,-715 115.82,-715 379.62,-715 532.9,-715"/>
</g>
<!-- kasesag -->
<g id="node26" class="node">
<title>kasesag</title>
<ellipse fill="none" stroke="black" cx="71.49" cy="-663" rx="48.19" ry="18"/>
<text text-anchor="middle" x="71.49" y="-659.3" font-family="Times,serif" font-size="14.00">kasesag</text>
</g>
<!-- kasesag&#45;&#45;Stowarzyszenie#Zarzd -->
<g id="edge26" class="edge">
<title>kasesag&#45;&#45;Stowarzyszenie#Zarzd</title>
<path fill="none" stroke="#b6e400" d="M111.82,-673.12C111.82,-684.52 111.82,-701.5 111.82,-701.5 111.82,-701.5 364.27,-701.5 520.08,-701.5"/>
</g>
<!-- Marketing&#45;i&#45;media&#45;spoecznociowe#Przycisk HS&#45;LDZ -->
<g id="node27" class="node">
<title>Marketing&#45;i&#45;media&#45;spoecznociowe#Przycisk HS&#45;LDZ</title>
<ellipse fill="none" stroke="black" cx="639.91" cy="-663" rx="261.85" ry="18"/>
<text text-anchor="middle" x="639.91" y="-659.3" font-family="Times,serif" font-size="14.00">Marketing&#45;i&#45;media&#45;spoecznociowe#Przycisk HS&#45;LDZ</text>
</g>
<!-- kasesag&#45;&#45;Marketing&#45;i&#45;media&#45;spoecznociowe#Przycisk HS&#45;LDZ -->
<g id="edge27" class="edge">
<title>kasesag&#45;&#45;Marketing&#45;i&#45;media&#45;spoecznociowe#Przycisk HS&#45;LDZ</title>
<path fill="none" stroke="#b6e400" d="M119.96,-663C177.95,-663 279.55,-663 377.64,-663"/>
</g>
<!-- cytP450 -->
<g id="node28" class="node">
<title>cytP450</title>
<ellipse fill="none" stroke="black" cx="71.49" cy="-319" rx="48.99" ry="18"/>
<text text-anchor="middle" x="71.49" y="-315.3" font-family="Times,serif" font-size="14.00">cytP450</text>
</g>
<!-- cytP450&#45;&#45;Infrastruktura::Domeny#Domeny -->
<g id="edge28" class="edge">
<title>cytP450&#45;&#45;Infrastruktura::Domeny#Domeny</title>
<path fill="none" stroke="#00ffff" d="M117.55,-325C141.5,-325 165.82,-325 165.82,-325 165.82,-325 165.82,-743 165.82,-743 165.82,-743 344.42,-743 482.37,-743"/>
</g>
<!-- cytP450&#45;&#45;Kanay&#45;komunikacji# -->
<g id="edge31" class="edge">
<title>cytP450&#45;&#45;Kanay&#45;komunikacji#</title>
<path fill="none" stroke="#00ffff" d="M108.29,-331C130.61,-331 154.82,-331 154.82,-331 154.82,-331 154.82,-778.5 154.82,-778.5 154.82,-778.5 433.04,-778.5 568.07,-778.5"/>
</g>
<!-- cytP450&#45;&#45;Miejsce::Miejsce#Klucze do spejsu -->
<g id="edge32" class="edge">
<title>cytP450&#45;&#45;Miejsce::Miejsce#Klucze do spejsu</title>
<path fill="none" stroke="#00ffff" d="M107.83,-307C172.5,-307 300.82,-307 300.82,-307 300.82,-307 300.82,-159 300.82,-159 300.82,-159 414.92,-159 510.75,-159"/>
</g>
<!-- Zamek#Zamek -->
<g id="node29" class="node">
<title>Zamek#Zamek</title>
<ellipse fill="none" stroke="black" cx="639.91" cy="-319" rx="81.49" ry="18"/>
<text text-anchor="middle" x="639.91" y="-315.3" font-family="Times,serif" font-size="14.00">Zamek#Zamek</text>
</g>
<!-- cytP450&#45;&#45;Zamek#Zamek -->
<g id="edge29" class="edge">
<title>cytP450&#45;&#45;Zamek#Zamek</title>
<path fill="none" stroke="#00ffff" d="M120.45,-319C218.2,-319 438.45,-319 558.37,-319"/>
</g>
<!-- Chciejlista#DIY -->
<g id="node30" class="node">
<title>Chciejlista#DIY</title>
<ellipse fill="none" stroke="black" cx="639.91" cy="-276" rx="83.69" ry="18"/>
<text text-anchor="middle" x="639.91" y="-272.3" font-family="Times,serif" font-size="14.00">Chciejlista#DIY</text>
</g>
<!-- cytP450&#45;&#45;Chciejlista#DIY -->
<g id="edge30" class="edge">
<title>cytP450&#45;&#45;Chciejlista#DIY</title>
<path fill="none" stroke="#00ffff" d="M117.82,-313.22C117.82,-302.81 117.82,-282 117.82,-282 117.82,-282 414.56,-282 560.61,-282"/>
</g>
<!-- Chciejlista#Elektronika (w sensie urzdze konsumenckich) -->
<g id="node31" class="node">
<title>Chciejlista#Elektronika (w sensie urzdze konsumenckich)</title>
<ellipse fill="none" stroke="black" cx="639.91" cy="-233" rx="289.75" ry="18"/>
<text text-anchor="middle" x="639.91" y="-229.3" font-family="Times,serif" font-size="14.00">Chciejlista#Elektronika (w sensie urzdze konsumenckich)</text>
</g>
<!-- cytP450&#45;&#45;Chciejlista#Elektronika (w sensie urzdze konsumenckich) -->
<g id="edge33" class="edge">
<title>cytP450&#45;&#45;Chciejlista#Elektronika (w sensie urzdze konsumenckich)</title>
<path fill="none" stroke="#00ffff" d="M114.82,-310.74C114.82,-290.3 114.82,-239 114.82,-239 114.82,-239 239.01,-239 366.6,-239"/>
</g>
<!-- Stowarzyszenie#Komisja Rewizyjna -->
<g id="node32" class="node">
<title>Stowarzyszenie#Komisja Rewizyjna</title>
<ellipse fill="none" stroke="black" cx="639.91" cy="-190" rx="178.17" ry="18"/>
<text text-anchor="middle" x="639.91" y="-186.3" font-family="Times,serif" font-size="14.00">Stowarzyszenie#Komisja Rewizyjna</text>
</g>
<!-- cytP450&#45;&#45;Stowarzyszenie#Komisja Rewizyjna -->
<g id="edge34" class="edge">
<title>cytP450&#45;&#45;Stowarzyszenie#Komisja Rewizyjna</title>
<path fill="none" stroke="#00ffff" d="M117.58,-313C193.81,-313 337.82,-313 337.82,-313 337.82,-313 337.82,-202 337.82,-202 337.82,-202 425.92,-202 506.97,-202"/>
</g>
<!-- Przegld&#45;lokali&#45;na&#45;wynajem&#45;w&#45;odzi.&#45;Fundusz&#45;1000&#45;&#45;&#45;1500.#Bot Aleksego -->
<g id="node33" class="node">
<title>Przegld&#45;lokali&#45;na&#45;wynajem&#45;w&#45;odzi.&#45;Fundusz&#45;1000&#45;&#45;&#45;1500.#Bot Aleksego</title>
<ellipse fill="none" stroke="black" cx="639.91" cy="-362" rx="351.74" ry="18"/>
<text text-anchor="middle" x="639.91" y="-358.3" font-family="Times,serif" font-size="14.00">Przegld&#45;lokali&#45;na&#45;wynajem&#45;w&#45;odzi.&#45;Fundusz&#45;1000&#45;&#45;&#45;1500.#Bot Aleksego</text>
</g>
<!-- cytP450&#45;&#45;Przegld&#45;lokali&#45;na&#45;wynajem&#45;w&#45;odzi.&#45;Fundusz&#45;1000&#45;&#45;&#45;1500.#Bot Aleksego -->
<g id="edge35" class="edge">
<title>cytP450&#45;&#45;Przegld&#45;lokali&#45;na&#45;wynajem&#45;w&#45;odzi.&#45;Fundusz&#45;1000&#45;&#45;&#45;1500.#Bot Aleksego</title>
<path fill="none" stroke="#00ffff" d="M117.82,-324.62C117.82,-336.28 117.82,-362 117.82,-362 117.82,-362 193.94,-362 288.05,-362"/>
</g>
<!-- pzduniak -->
<g id="node34" class="node">
<title>pzduniak</title>
<ellipse fill="none" stroke="black" cx="71.49" cy="-190" rx="52.79" ry="18"/>
<text text-anchor="middle" x="71.49" y="-186.3" font-family="Times,serif" font-size="14.00">pzduniak</text>
</g>
<!-- pzduniak&#45;&#45;Stowarzyszenie#Komisja Rewizyjna -->
<g id="edge36" class="edge">
<title>pzduniak&#45;&#45;Stowarzyszenie#Komisja Rewizyjna</title>
<path fill="none" stroke="#ab00d5" d="M111.01,-178C191.7,-178 378.62,-178 507.15,-178"/>
</g>
<!-- krcz -->
<g id="node35" class="node">
<title>krcz</title>
<ellipse fill="none" stroke="black" cx="71.49" cy="-276" rx="30.59" ry="18"/>
<text text-anchor="middle" x="71.49" y="-272.3" font-family="Times,serif" font-size="14.00">krcz</text>
</g>
<!-- krcz&#45;&#45;Stowarzyszenie#Komisja Rewizyjna -->
<g id="edge37" class="edge">
<title>krcz&#45;&#45;Stowarzyszenie#Komisja Rewizyjna</title>
<path fill="none" stroke="#f29100" d="M100.67,-270C167.47,-270 325.82,-270 325.82,-270 325.82,-270 325.82,-196 325.82,-196 325.82,-196 397.16,-196 471.83,-196"/>
</g>
<!-- kpc -->
<g id="node36" class="node">
<title>kpc</title>
<ellipse fill="none" stroke="black" cx="71.49" cy="-426" rx="27" ry="18"/>
<text text-anchor="middle" x="71.49" y="-422.3" font-family="Times,serif" font-size="14.00">kpc</text>
</g>
<!-- kpc&#45;&#45;Infrastruktura::Telegram#posty: t.me/hakierspejs_spam -->
<g id="edge39" class="edge">
<title>kpc&#45;&#45;Infrastruktura::Telegram#posty: t.me/hakierspejs_spam</title>
<path fill="none" stroke="#00c64f" d="M92.96,-437C163.53,-437 383.82,-437 383.82,-437 383.82,-437 383.82,-577.11 383.82,-612.14"/>
</g>
<!-- kpc&#45;&#45;Miejsce::Miejsce#Klucze do spejsu -->
<g id="edge42" class="edge">
<title>kpc&#45;&#45;Miejsce::Miejsce#Klucze do spejsu</title>
<path fill="none" stroke="#00c64f" d="M88.25,-411.75C106.41,-411.75 132.82,-411.75 132.82,-411.75 132.82,-411.75 132.82,-147 132.82,-147 132.82,-147 319.92,-147 466.82,-147"/>
</g>
<!-- kpc&#45;&#45;Marketing&#45;i&#45;media&#45;spoecznociowe# -->
<g id="edge43" class="edge">
<title>kpc&#45;&#45;Marketing&#45;i&#45;media&#45;spoecznociowe#</title>
<path fill="none" stroke="#00c64f" d="M87.66,-440.5C147.06,-440.5 349.82,-440.5 349.82,-440.5 349.82,-440.5 349.82,-521.54 349.82,-521.54 349.82,-521.54 431.09,-521.54 507.6,-521.54"/>
</g>
<!-- kpc&#45;&#45;Stowarzyszenie#Komisja Rewizyjna -->
<g id="edge40" class="edge">
<title>kpc&#45;&#45;Stowarzyszenie#Komisja Rewizyjna</title>
<path fill="none" stroke="#00c64f" d="M93.64,-415.5C111.56,-415.5 133.82,-415.5 133.82,-415.5 133.82,-415.5 133.82,-184 133.82,-184 133.82,-184 324.47,-184 471.74,-184"/>
</g>
<!-- Infrastruktura::Telegram#Posty wyklte (celowo bez linka) -->
<g id="node37" class="node">
<title>Infrastruktura::Telegram#Posty wyklte (celowo bez linka)</title>
<ellipse fill="none" stroke="black" cx="639.91" cy="-405" rx="284.05" ry="18"/>
<text text-anchor="middle" x="639.91" y="-401.3" font-family="Times,serif" font-size="14.00">Infrastruktura::Telegram#Posty wyklte (celowo bez linka)</text>
</g>
<!-- kpc&#45;&#45;Infrastruktura::Telegram#Posty wyklte (celowo bez linka) -->
<g id="edge38" class="edge">
<title>kpc&#45;&#45;Infrastruktura::Telegram#Posty wyklte (celowo bez linka)</title>
<path fill="none" stroke="#00c64f" d="M96.65,-419.25C160.36,-419.25 332.46,-419.25 466.06,-419.25"/>
</g>
<!-- Czaty&#45;HS#HS: posty wyklte -->
<g id="node38" class="node">
<title>Czaty&#45;HS#HS: posty wyklte</title>
<ellipse fill="none" stroke="black" cx="639.91" cy="-448" rx="157.87" ry="18"/>
<text text-anchor="middle" x="639.91" y="-444.3" font-family="Times,serif" font-size="14.00">Czaty&#45;HS#HS: posty wyklte</text>
</g>
<!-- kpc&#45;&#45;Czaty&#45;HS#HS: posty wyklte -->
<g id="edge41" class="edge">
<title>kpc&#45;&#45;Czaty&#45;HS#HS: posty wyklte</title>
<path fill="none" stroke="#00c64f" d="M96.28,-433.5C173.42,-433.5 412.04,-433.5 546.07,-433.5"/>
</g>
<!-- PiotrP -->
<g id="node39" class="node">
<title>PiotrP</title>
<ellipse fill="none" stroke="black" cx="71.49" cy="-233" rx="40.09" ry="18"/>
<text text-anchor="middle" x="71.49" y="-229.3" font-family="Times,serif" font-size="14.00">PiotrP</text>
</g>
<!-- PiotrP&#45;&#45;Stowarzyszenie#Komisja Rewizyjna -->
<g id="edge44" class="edge">
<title>PiotrP&#45;&#45;Stowarzyszenie#Komisja Rewizyjna</title>
<path fill="none" stroke="#2e00e4" d="M109.62,-227C177.87,-227 313.82,-227 313.82,-227 313.82,-227 313.82,-190 313.82,-190 313.82,-190 385.47,-190 461.6,-190"/>
</g>
<!-- q3k -->
<g id="node40" class="node">
<title>q3k</title>
<ellipse fill="none" stroke="black" cx="71.49" cy="-792" rx="27.9" ry="18"/>
<text text-anchor="middle" x="71.49" y="-788.3" font-family="Times,serif" font-size="14.00">q3k</text>
</g>
<!-- q3k&#45;&#45;Infrastruktura::Domeny#Domeny -->
<g id="edge47" class="edge">
<title>q3k&#45;&#45;Infrastruktura::Domeny#Domeny</title>
<path fill="none" stroke="#ff0000" d="M98.8,-787.5C193.62,-787.5 502.82,-787.5 502.82,-787.5 502.82,-787.5 502.82,-770.92 502.82,-759.52"/>
</g>
<!-- q3k&#45;&#45;Kanay&#45;komunikacji# -->
<g id="edge45" class="edge">
<title>q3k&#45;&#45;Kanay&#45;komunikacji#</title>
<path fill="none" stroke="#ff0000" d="M99.68,-792C177.25,-792 396.97,-792 531.1,-792"/>
</g>
<!-- q3k&#45;&#45;Marketing&#45;i&#45;media&#45;spoecznociowe#Logo nr. 2 -->
<g id="edge46" class="edge">
<title>q3k&#45;&#45;Marketing&#45;i&#45;media&#45;spoecznociowe#Logo nr. 2</title>
<path fill="none" stroke="#ff0000" d="M95.88,-783C159.54,-783 325.82,-783 325.82,-783 325.82,-783 325.82,-583 325.82,-583 325.82,-583 369.08,-583 423.48,-583"/>
</g>
<!-- kszmigiel -->
<g id="node41" class="node">
<title>kszmigiel</title>
<ellipse fill="none" stroke="black" cx="71.49" cy="-620" rx="54.69" ry="18"/>
<text text-anchor="middle" x="71.49" y="-616.3" font-family="Times,serif" font-size="14.00">kszmigiel</text>
</g>
<!-- kszmigiel&#45;&#45;Infrastruktura::Telegram#posty: t.me/hakierspejs_spam -->
<g id="edge48" class="edge">
<title>kszmigiel&#45;&#45;Infrastruktura::Telegram#posty: t.me/hakierspejs_spam</title>
<path fill="none" stroke="#2bd500" d="M118.98,-611C179.95,-611 290.25,-611 393.71,-611"/>
</g>
<!-- kszmigiel&#45;&#45;Infrastruktura::Github#Github -->
<g id="edge49" class="edge">
<title>kszmigiel&#45;&#45;Infrastruktura::Github#Github</title>
<path fill="none" stroke="#2bd500" d="M126.37,-620C195.91,-620 306.82,-620 306.82,-620 306.82,-620 306.82,-863.5 306.82,-863.5 306.82,-863.5 449.84,-863.5 548.45,-863.5"/>
</g>
<!-- kszmigiel&#45;&#45;Marketing&#45;i&#45;media&#45;spoecznociowe# -->
<g id="edge50" class="edge">
<title>kszmigiel&#45;&#45;Marketing&#45;i&#45;media&#45;spoecznociowe#</title>
<path fill="none" stroke="#2bd500" d="M115.82,-609.28C115.82,-585.95 115.82,-532.62 115.82,-532.62 115.82,-532.62 305.79,-532.62 456.98,-532.62"/>
</g>
<!-- kszmigiel&#45;&#45;Infrastruktura::Telegram#G贸wny: t.me/hakierspejs -->
<g id="edge52" class="edge">
<title>kszmigiel&#45;&#45;Infrastruktura::Telegram#G贸wny: t.me/hakierspejs</title>
<path fill="none" stroke="#2bd500" d="M118.84,-629C128.01,-629 134.82,-629 134.82,-629 134.82,-629 134.82,-827.5 134.82,-827.5 134.82,-827.5 277.37,-827.5 411.01,-827.5"/>
</g>
<!-- kszmigiel&#45;&#45;Marketing&#45;i&#45;media&#45;spoecznociowe#Naklejki -->
<g id="edge51" class="edge">
<title>kszmigiel&#45;&#45;Marketing&#45;i&#45;media&#45;spoecznociowe#Naklejki</title>
<path fill="none" stroke="#2bd500" d="M112.82,-608.02C112.82,-574.98 112.82,-485 112.82,-485 112.82,-485 283.67,-485 430.83,-485"/>
</g>
<!-- thinkofher -->
<g id="node42" class="node">
<title>thinkofher</title>
<ellipse fill="none" stroke="black" cx="71.49" cy="-856" rx="59.29" ry="18"/>
<text text-anchor="middle" x="71.49" y="-852.3" font-family="Times,serif" font-size="14.00">thinkofher</text>
</g>
<!-- thinkofher&#45;&#45;Kanay&#45;komunikacji# -->
<g id="edge54" class="edge">
<title>thinkofher&#45;&#45;Kanay&#45;komunikacji#</title>
<path fill="none" stroke="#0061f2" d="M114.82,-843.67C114.82,-826.24 114.82,-796.5 114.82,-796.5 114.82,-796.5 381.31,-796.5 534.59,-796.5"/>
</g>
<!-- thinkofher&#45;&#45;Infrastruktura::Github#Github -->
<g id="edge53" class="edge">
<title>thinkofher&#45;&#45;Infrastruktura::Github#Github</title>
<path fill="none" stroke="#0061f2" d="M106.62,-870.5C183.29,-870.5 369.2,-870.5 499.84,-870.5"/>
</g>
<!-- thinkofher&#45;&#45;Infrastruktura::IRC#IRC -->
<g id="edge56" class="edge">
<title>thinkofher&#45;&#45;Infrastruktura::IRC#IRC</title>
<path fill="none" stroke="#0061f2" d="M118.82,-866.97C118.82,-892.72 118.82,-954.93 118.82,-954.93 118.82,-954.93 379.31,-954.93 531.94,-954.93"/>
</g>
<!-- thinkofher&#45;&#45;Marketing&#45;i&#45;media&#45;spoecznociowe# -->
<g id="edge57" class="edge">
<title>thinkofher&#45;&#45;Marketing&#45;i&#45;media&#45;spoecznociowe#</title>
<path fill="none" stroke="#0061f2" d="M112.51,-843C146,-843 187.82,-843 187.82,-843 187.82,-843 187.82,-535.38 187.82,-535.38 187.82,-535.38 331.61,-535.38 457,-535.38"/>
</g>
<!-- thinkofher&#45;&#45;Infrastruktura::Telegram#G贸wny: t.me/hakierspejs -->
<g id="edge58" class="edge">
<title>thinkofher&#45;&#45;Infrastruktura::Telegram#G贸wny: t.me/hakierspejs</title>
<path fill="none" stroke="#0061f2" d="M124.71,-848C201.92,-848 348.56,-848 465.71,-848"/>
</g>
<!-- Bazy&#45;danych# -->
<g id="node43" class="node">
<title>Bazy&#45;danych#</title>
<ellipse fill="none" stroke="black" cx="639.91" cy="-921" rx="77.19" ry="18"/>
<text text-anchor="middle" x="639.91" y="-917.3" font-family="Times,serif" font-size="14.00">Bazy&#45;danych#</text>
</g>
<!-- thinkofher&#45;&#45;Bazy&#45;danych# -->
<g id="edge55" class="edge">
<title>thinkofher&#45;&#45;Bazy&#45;danych#</title>
<path fill="none" stroke="#0061f2" d="M121.82,-865.54C121.82,-880.55 121.82,-908 121.82,-908 121.82,-908 453.23,-908 585.93,-908"/>
</g>
<!-- biniu -->
<g id="node44" class="node">
<title>biniu</title>
<ellipse fill="none" stroke="black" cx="71.49" cy="-577" rx="34.39" ry="18"/>
<text text-anchor="middle" x="71.49" y="-573.3" font-family="Times,serif" font-size="14.00">biniu</text>
</g>
<!-- biniu&#45;&#45;Marketing&#45;i&#45;media&#45;spoecznociowe# -->
<g id="edge59" class="edge">
<title>biniu&#45;&#45;Marketing&#45;i&#45;media&#45;spoecznociowe#</title>
<path fill="none" stroke="#c60077" d="M104.18,-571C170.32,-571 313.82,-571 313.82,-571 313.82,-571 313.82,-540.92 313.82,-540.92 313.82,-540.92 391.26,-540.92 470.66,-540.92"/>
</g>
<!-- Keij0 -->
<g id="node45" class="node">
<title>Keij0</title>
<ellipse fill="none" stroke="black" cx="71.49" cy="-491" rx="34.39" ry="18"/>
<text text-anchor="middle" x="71.49" y="-487.3" font-family="Times,serif" font-size="14.00">Keij0</text>
</g>
<!-- Keij0&#45;&#45;Marketing&#45;i&#45;media&#45;spoecznociowe# -->
<g id="edge60" class="edge">
<title>Keij0&#45;&#45;Marketing&#45;i&#45;media&#45;spoecznociowe#</title>
<path fill="none" stroke="#b6e400" d="M104.07,-497C176.36,-497 343.82,-497 343.82,-497 343.82,-497 343.82,-524.31 343.82,-524.31 343.82,-524.31 413.57,-524.31 485.36,-524.31"/>
</g>
<!-- Piotrek_P -->
<g id="node46" class="node">
<title>Piotrek_P</title>
<ellipse fill="none" stroke="black" cx="71.49" cy="-18" rx="55.49" ry="18"/>
<text text-anchor="middle" x="71.49" y="-14.3" font-family="Times,serif" font-size="14.00">Piotrek_P</text>
</g>
<!-- Piotrek_P&#45;&#45;Miejsce::Miejsce#Klucze do spejsu -->
<g id="edge61" class="edge">
<title>Piotrek_P&#45;&#45;Miejsce::Miejsce#Klucze do spejsu</title>
<path fill="none" stroke="#00ffff" d="M126.8,-18C279.86,-18 697.82,-18 697.82,-18 697.82,-18 697.82,-94.78 697.82,-129.87"/>
</g>
<!-- polimerek -->
<g id="node47" class="node">
<title>polimerek</title>
<ellipse fill="none" stroke="black" cx="71.49" cy="-147" rx="57.39" ry="18"/>
<text text-anchor="middle" x="71.49" y="-143.3" font-family="Times,serif" font-size="14.00">polimerek</text>
</g>
<!-- polimerek&#45;&#45;Miejsce::Miejsce#Klucze do spejsu -->
<g id="edge62" class="edge">
<title>polimerek&#45;&#45;Miejsce::Miejsce#Klucze do spejsu</title>
<path fill="none" stroke="#ab00d5" d="M125.48,-141C205.36,-141 358.35,-141 476.81,-141"/>
</g>
<!-- kotlovecrafta -->
<g id="node48" class="node">
<title>kotlovecrafta</title>
<ellipse fill="none" stroke="black" cx="71.49" cy="-104" rx="71.49" ry="18"/>
<text text-anchor="middle" x="71.49" y="-100.3" font-family="Times,serif" font-size="14.00">kotlovecrafta</text>
</g>
<!-- kotlovecrafta&#45;&#45;Miejsce::Miejsce#Klucze do spejsu -->
<g id="edge63" class="edge">
<title>kotlovecrafta&#45;&#45;Miejsce::Miejsce#Klucze do spejsu</title>
<path fill="none" stroke="#f29100" d="M138.82,-110.27C138.82,-119.33 138.82,-135 138.82,-135 138.82,-135 362.4,-135 510.87,-135"/>
</g>
<!-- sp7adg -->
<g id="node49" class="node">
<title>sp7adg</title>
<ellipse fill="none" stroke="black" cx="71.49" cy="-61" rx="44.39" ry="18"/>
<text text-anchor="middle" x="71.49" y="-57.3" font-family="Times,serif" font-size="14.00">sp7adg</text>
</g>
<!-- sp7adg&#45;&#45;Miejsce::Miejsce#Klucze do spejsu -->
<g id="edge64" class="edge">
<title>sp7adg&#45;&#45;Miejsce::Miejsce#Klucze do spejsu</title>
<path fill="none" stroke="#00c64f" d="M115.98,-61C240.38,-61 582.82,-61 582.82,-61 582.82,-61 582.82,-104.95 582.82,-130.01"/>
</g>
<!-- pmysl -->
<g id="node50" class="node">
<title>pmysl</title>
<ellipse fill="none" stroke="black" cx="71.49" cy="-910" rx="38.19" ry="18"/>
<text text-anchor="middle" x="71.49" y="-906.3" font-family="Times,serif" font-size="14.00">pmysl</text>
</g>
<!-- pmysl&#45;&#45;Kanay&#45;komunikacji# -->
<g id="edge66" class="edge">
<title>pmysl&#45;&#45;Kanay&#45;komunikacji#</title>
<path fill="none" stroke="#2e00e4" d="M101.01,-898.33C155.37,-898.33 265.82,-898.33 265.82,-898.33 265.82,-898.33 265.82,-801 265.82,-801 265.82,-801 434.69,-801 545.51,-801"/>
</g>
<!-- pmysl&#45;&#45;Infrastruktura::Github#Github -->
<g id="edge65" class="edge">
<title>pmysl&#45;&#45;Infrastruktura::Github#Github</title>
<path fill="none" stroke="#2e00e4" d="M104.44,-900.67C204.14,-900.67 495.82,-900.67 495.82,-900.67 495.82,-900.67 495.82,-891.36 495.82,-884.68"/>
</g>
<!-- pmysl&#45;&#45;Bazy&#45;danych#Grafana -->
<g id="edge67" class="edge">
<title>pmysl&#45;&#45;Bazy&#45;danych#Grafana</title>
<path fill="none" stroke="#2e00e4" d="M98.34,-923C153.99,-923 276.82,-923 276.82,-923 276.82,-923 276.82,-997.33 276.82,-997.33 276.82,-997.33 435.53,-997.33 543.08,-997.33"/>
</g>
<!-- pmysl&#45;&#45;Infrastruktura::IRC#IRC -->
<g id="edge69" class="edge">
<title>pmysl&#45;&#45;Infrastruktura::IRC#IRC</title>
<path fill="none" stroke="#2e00e4" d="M105.93,-918C214.09,-918 539.82,-918 539.82,-918 539.82,-918 539.82,-939.25 539.82,-952.86"/>
</g>
<!-- pmysl&#45;&#45;Bazy&#45;danych# -->
<g id="edge68" class="edge">
<title>pmysl&#45;&#45;Bazy&#45;danych#</title>
<path fill="none" stroke="#2e00e4" d="M109.67,-913C204.01,-913 449.22,-913 570.25,-913"/>
</g>
<!-- hslbridgebot -->
<g id="node51" class="node">
<title>hslbridgebot</title>
<ellipse fill="none" stroke="black" cx="71.49" cy="-1329" rx="69.59" ry="18"/>
<text text-anchor="middle" x="71.49" y="-1325.3" font-family="Times,serif" font-size="14.00">hslbridgebot</text>
</g>
<!-- Mostkowanie&#45;kana贸w#mautrix&#45;telegram (aktualnie u偶ywany) -->
<g id="node52" class="node">
<title>Mostkowanie&#45;kana贸w#mautrix&#45;telegram (aktualnie u偶ywany)</title>
<ellipse fill="none" stroke="black" cx="639.91" cy="-1308" rx="297.85" ry="18"/>
<text text-anchor="middle" x="639.91" y="-1304.3" font-family="Times,serif" font-size="14.00">Mostkowanie&#45;kana贸w#mautrix&#45;telegram (aktualnie u偶ywany)</text>
</g>
<!-- hslbridgebot&#45;&#45;Mostkowanie&#45;kana贸w#mautrix&#45;telegram (aktualnie u偶ywany) -->
<g id="edge70" class="edge">
<title>hslbridgebot&#45;&#45;Mostkowanie&#45;kana贸w#mautrix&#45;telegram (aktualnie u偶ywany)</title>
<path fill="none" stroke="#ff0000" d="M128.07,-1318.5C191.4,-1318.5 298.22,-1318.5 397.95,-1318.5"/>
</g>
<!-- telegrambot -->
<g id="node53" class="node">
<title>telegrambot</title>
<ellipse fill="none" stroke="black" cx="71.49" cy="-1286" rx="67.69" ry="18"/>
<text text-anchor="middle" x="71.49" y="-1282.3" font-family="Times,serif" font-size="14.00">telegrambot</text>
</g>
<!-- telegrambot&#45;&#45;Mostkowanie&#45;kana贸w#mautrix&#45;telegram (aktualnie u偶ywany) -->
<g id="edge71" class="edge">
<title>telegrambot&#45;&#45;Mostkowanie&#45;kana贸w#mautrix&#45;telegram (aktualnie u偶ywany)</title>
<path fill="none" stroke="#2bd500" d="M125.22,-1297C189.43,-1297 301.12,-1297 404.09,-1297"/>
</g>
<!-- BluRaf -->
<g id="node54" class="node">
<title>BluRaf</title>
<ellipse fill="none" stroke="black" cx="71.49" cy="-996" rx="42.49" ry="18"/>
<text text-anchor="middle" x="71.49" y="-992.3" font-family="Times,serif" font-size="14.00">BluRaf</text>
</g>
<!-- BluRaf&#45;&#45;Infrastruktura::IRC#IRC -->
<g id="edge72" class="edge">
<title>BluRaf&#45;&#45;Infrastruktura::IRC#IRC</title>
<path fill="none" stroke="#0061f2" d="M71.82,-977.86C71.82,-975.84 71.82,-974.5 71.82,-974.5 71.82,-974.5 374.94,-974.5 538.34,-974.5"/>
</g>
</g>
</svg>
