<?xml version="1.0" encoding="UTF-8" standalone="no"?>
<!DOCTYPE svg PUBLIC "-//W3C//DTD SVG 1.1//EN"
 "http://www.w3.org/Graphics/SVG/1.1/DTD/svg11.dtd">
<!-- Generated by graphviz version 2.43.0 (0)
 -->
<!-- Title: %3 Pages: 1 -->
<svg width="1001pt" height="1527pt"
 viewBox="0.00 0.00 1000.82 1527.00" xmlns="http://www.w3.org/2000/svg" xmlns:xlink="http://www.w3.org/1999/xlink">
<g id="graph0" class="graph" transform="scale(1 1) rotate(0) translate(4 1523)">
<title>%3</title>
<polygon fill="white" stroke="transparent" points="-4,4 -4,-1523 996.82,-1523 996.82,4 -4,4"/>
<!-- d33tah -->
<g id="node1" class="node">
<title>d33tah</title>
<ellipse fill="none" stroke="black" cx="71.49" cy="-835" rx="43.59" ry="18"/>
<text text-anchor="middle" x="71.49" y="-831.3" font-family="Times,serif" font-size="14.00">d33tah</text>
</g>
<!-- Infrastruktura::Telegram#Spacerspejs: t.me/joinchat/UYf2ONtNj21J1DS6 -->
<g id="node2" class="node">
<title>Infrastruktura::Telegram#Spacerspejs: t.me/joinchat/UYf2ONtNj21J1DS6</title>
<ellipse fill="none" stroke="black" cx="639.91" cy="-878" rx="352.84" ry="18"/>
<text text-anchor="middle" x="639.91" y="-874.3" font-family="Times,serif" font-size="14.00">Infrastruktura::Telegram#Spacerspejs: t.me/joinchat/UYf2ONtNj21J1DS6</text>
</g>
<!-- d33tah&#45;&#45;Infrastruktura::Telegram#Spacerspejs: t.me/joinchat/UYf2ONtNj21J1DS6 -->
<g id="edge1" class="edge">
<title>d33tah&#45;&#45;Infrastruktura::Telegram#Spacerspejs: t.me/joinchat/UYf2ONtNj21J1DS6</title>
<path fill="none" stroke="#ff0000" d="M114.99,-836.06C193.73,-836.06 351.82,-836.06 351.82,-836.06 351.82,-836.06 351.82,-854.99 351.82,-867.42"/>
</g>
<!-- Stowarzyszenie#Zarzd -->
<g id="node3" class="node">
<title>Stowarzyszenie#Zarzd</title>
<ellipse fill="none" stroke="black" cx="639.91" cy="-1222" rx="123.48" ry="18"/>
<text text-anchor="middle" x="639.91" y="-1218.3" font-family="Times,serif" font-size="14.00">Stowarzyszenie#Zarzd</text>
</g>
<!-- d33tah&#45;&#45;Stowarzyszenie#Zarzd -->
<g id="edge2" class="edge">
<title>d33tah&#45;&#45;Stowarzyszenie#Zarzd</title>
<path fill="none" stroke="#ff0000" d="M92.44,-850.88C119.69,-850.88 163.82,-850.88 163.82,-850.88 163.82,-850.88 163.82,-1211 163.82,-1211 163.82,-1211 402.8,-1211 542.13,-1211"/>
</g>
<!-- Infrastruktura::Domeny#Domeny -->
<g id="node4" class="node">
<title>Infrastruktura::Domeny#Domeny</title>
<ellipse fill="none" stroke="black" cx="639.91" cy="-405" rx="167.07" ry="18"/>
<text text-anchor="middle" x="639.91" y="-401.3" font-family="Times,serif" font-size="14.00">Infrastruktura::Domeny#Domeny</text>
</g>
<!-- d33tah&#45;&#45;Infrastruktura::Domeny#Domeny -->
<g id="edge3" class="edge">
<title>d33tah&#45;&#45;Infrastruktura::Domeny#Domeny</title>
<path fill="none" stroke="#ff0000" d="M108.49,-825.47C179.48,-825.47 327.82,-825.47 327.82,-825.47 327.82,-825.47 327.82,-414 327.82,-414 327.82,-414 413.33,-414 494.83,-414"/>
</g>
<!-- Marketing&#45;i&#45;media&#45;spoecznociowe# -->
<g id="node5" class="node">
<title>Marketing&#45;i&#45;media&#45;spoecznociowe#</title>
<ellipse fill="none" stroke="black" cx="639.91" cy="-1179" rx="183.07" ry="18"/>
<text text-anchor="middle" x="639.91" y="-1175.3" font-family="Times,serif" font-size="14.00">Marketing&#45;i&#45;media&#45;spoecznociowe#</text>
</g>
<!-- d33tah&#45;&#45;Marketing&#45;i&#45;media&#45;spoecznociowe# -->
<g id="edge4" class="edge">
<title>d33tah&#45;&#45;Marketing&#45;i&#45;media&#45;spoecznociowe#</title>
<path fill="none" stroke="#ff0000" d="M99.8,-848.76C133.37,-848.76 184.82,-848.76 184.82,-848.76 184.82,-848.76 184.82,-1167 184.82,-1167 184.82,-1167 369.04,-1167 503.06,-1167"/>
</g>
<!-- Bazy&#45;danych#Pad -->
<g id="node6" class="node">
<title>Bazy&#45;danych#Pad</title>
<ellipse fill="none" stroke="black" cx="639.91" cy="-1093" rx="94.48" ry="18"/>
<text text-anchor="middle" x="639.91" y="-1089.3" font-family="Times,serif" font-size="14.00">Bazy&#45;danych#Pad</text>
</g>
<!-- d33tah&#45;&#45;Bazy&#45;danych#Pad -->
<g id="edge5" class="edge">
<title>d33tah&#45;&#45;Bazy&#45;danych#Pad</title>
<path fill="none" stroke="#ff0000" d="M104.87,-846.65C141.39,-846.65 194.82,-846.65 194.82,-846.65 194.82,-846.65 194.82,-1077.8 194.82,-1077.8 194.82,-1077.8 472.63,-1077.8 589.28,-1077.8"/>
</g>
<!-- Infrastruktura::IRC#IRC -->
<g id="node7" class="node">
<title>Infrastruktura::IRC#IRC</title>
<ellipse fill="none" stroke="black" cx="639.91" cy="-663" rx="124.58" ry="18"/>
<text text-anchor="middle" x="639.91" y="-659.3" font-family="Times,serif" font-size="14.00">Infrastruktura::IRC#IRC</text>
</g>
<!-- d33tah&#45;&#45;Infrastruktura::IRC#IRC -->
<g id="edge6" class="edge">
<title>d33tah&#45;&#45;Infrastruktura::IRC#IRC</title>
<path fill="none" stroke="#ff0000" d="M99.66,-821.24C149.23,-821.24 246.82,-821.24 246.82,-821.24 246.82,-821.24 246.82,-676 246.82,-676 246.82,-676 437.4,-676 553.16,-676"/>
</g>
<!-- Drzwi&#45;frontowe#Ekran  -->
<g id="node8" class="node">
<title>Drzwi&#45;frontowe#Ekran </title>
<ellipse fill="none" stroke="black" cx="639.91" cy="-1050" rx="120.78" ry="18"/>
<text text-anchor="middle" x="639.91" y="-1046.3" font-family="Times,serif" font-size="14.00">Drzwi&#45;frontowe#Ekran </text>
</g>
<!-- d33tah&#45;&#45;Drzwi&#45;frontowe#Ekran  -->
<g id="edge7" class="edge">
<title>d33tah&#45;&#45;Drzwi&#45;frontowe#Ekran </title>
<path fill="none" stroke="black" d="M108.63,-844.53C148.09,-844.53 204.82,-844.53 204.82,-844.53 204.82,-844.53 204.82,-1042.5 204.82,-1042.5 204.82,-1042.5 400.94,-1042.5 529.84,-1042.5"/>
</g>
<!-- Infrastruktura::Mariuszbot#Mariuszbot -->
<g id="node12" class="node">
<title>Infrastruktura::Mariuszbot#Mariuszbot</title>
<ellipse fill="none" stroke="black" cx="639.91" cy="-1007" rx="196.07" ry="18"/>
<text text-anchor="middle" x="639.91" y="-1003.3" font-family="Times,serif" font-size="14.00">Infrastruktura::Mariuszbot#Mariuszbot</text>
</g>
<!-- d33tah&#45;&#45;Infrastruktura::Mariuszbot#Mariuszbot -->
<g id="edge8" class="edge">
<title>d33tah&#45;&#45;Infrastruktura::Mariuszbot#Mariuszbot</title>
<path fill="none" stroke="#ff0000" d="M111.27,-842.41C159.91,-842.41 235.82,-842.41 235.82,-842.41 235.82,-842.41 235.82,-1007 235.82,-1007 235.82,-1007 340.63,-1007 443.49,-1007"/>
</g>
<!-- Bazy&#45;danych#Trello -->
<g id="node13" class="node">
<title>Bazy&#45;danych#Trello</title>
<ellipse fill="none" stroke="black" cx="639.91" cy="-964" rx="103.98" ry="18"/>
<text text-anchor="middle" x="639.91" y="-960.3" font-family="Times,serif" font-size="14.00">Bazy&#45;danych#Trello</text>
</g>
<!-- d33tah&#45;&#45;Bazy&#45;danych#Trello -->
<g id="edge9" class="edge">
<title>d33tah&#45;&#45;Bazy&#45;danych#Trello</title>
<path fill="none" stroke="#ff0000" d="M113.4,-840.29C170.79,-840.29 266.82,-840.29 266.82,-840.29 266.82,-840.29 266.82,-964 266.82,-964 266.82,-964 425.12,-964 535.49,-964"/>
</g>
<!-- Miejsce::Miejsce#Klucze do spejsu -->
<g id="node14" class="node">
<title>Miejsce::Miejsce#Klucze do spejsu</title>
<ellipse fill="none" stroke="black" cx="639.91" cy="-362" rx="172.77" ry="18"/>
<text text-anchor="middle" x="639.91" y="-358.3" font-family="Times,serif" font-size="14.00">Miejsce::Miejsce#Klucze do spejsu</text>
</g>
<!-- d33tah&#45;&#45;Miejsce::Miejsce#Klucze do spejsu -->
<g id="edge10" class="edge">
<title>d33tah&#45;&#45;Miejsce::Miejsce#Klucze do spejsu</title>
<path fill="none" stroke="#ff0000" d="M104.87,-823.35C173.24,-823.35 322.82,-823.35 322.82,-823.35 322.82,-823.35 322.82,-376 322.82,-376 322.82,-376 439.44,-376 531.23,-376"/>
</g>
<!-- Infrastruktura::Telegram#G贸wny: t.me/hakierspejs -->
<g id="node15" class="node">
<title>Infrastruktura::Telegram#G贸wny: t.me/hakierspejs</title>
<ellipse fill="none" stroke="black" cx="639.91" cy="-835" rx="251.56" ry="18"/>
<text text-anchor="middle" x="639.91" y="-831.3" font-family="Times,serif" font-size="14.00">Infrastruktura::Telegram#G贸wny: t.me/hakierspejs</text>
</g>
<!-- d33tah&#45;&#45;Infrastruktura::Telegram#G贸wny: t.me/hakierspejs -->
<g id="edge11" class="edge">
<title>d33tah&#45;&#45;Infrastruktura::Telegram#G贸wny: t.me/hakierspejs</title>
<path fill="none" stroke="#ff0000" d="M114.68,-831.82C174.34,-831.82 286.56,-831.82 392,-831.82"/>
</g>
<!-- Infrastruktura::Github#Github -->
<g id="node16" class="node">
<title>Infrastruktura::Github#Github</title>
<ellipse fill="none" stroke="black" cx="639.91" cy="-792" rx="154.07" ry="18"/>
<text text-anchor="middle" x="639.91" y="-788.3" font-family="Times,serif" font-size="14.00">Infrastruktura::Github#Github</text>
</g>
<!-- d33tah&#45;&#45;Infrastruktura::Github#Github -->
<g id="edge12" class="edge">
<title>d33tah&#45;&#45;Infrastruktura::Github#Github</title>
<path fill="none" stroke="#ff0000" d="M71.82,-816.51C71.82,-804.86 71.82,-792 71.82,-792 71.82,-792 317.57,-792 485.8,-792"/>
</g>
<!-- Kanay&#45;komunikacji# -->
<g id="node17" class="node">
<title>Kanay&#45;komunikacji#</title>
<ellipse fill="none" stroke="black" cx="639.91" cy="-448" rx="108.58" ry="18"/>
<text text-anchor="middle" x="639.91" y="-444.3" font-family="Times,serif" font-size="14.00">Kanay&#45;komunikacji#</text>
</g>
<!-- d33tah&#45;&#45;Kanay&#45;komunikacji# -->
<g id="edge13" class="edge">
<title>d33tah&#45;&#45;Kanay&#45;komunikacji#</title>
<path fill="none" stroke="#ff0000" d="M111.32,-827.59C184.24,-827.59 331.82,-827.59 331.82,-827.59 331.82,-827.59 331.82,-457 331.82,-457 331.82,-457 455.2,-457 545.8,-457"/>
</g>
<!-- Infrastruktura::Telegram#posty: t.me/hakierspejs_spam -->
<g id="node18" class="node">
<title>Infrastruktura::Telegram#posty: t.me/hakierspejs_spam</title>
<ellipse fill="none" stroke="black" cx="639.91" cy="-706" rx="284.05" ry="18"/>
<text text-anchor="middle" x="639.91" y="-702.3" font-family="Times,serif" font-size="14.00">Infrastruktura::Telegram#posty: t.me/hakierspejs_spam</text>
</g>
<!-- d33tah&#45;&#45;Infrastruktura::Telegram#posty: t.me/hakierspejs_spam -->
<g id="edge14" class="edge">
<title>d33tah&#45;&#45;Infrastruktura::Telegram#posty: t.me/hakierspejs_spam</title>
<path fill="none" stroke="#ff0000" d="M113.39,-829.71C196.19,-829.71 372.82,-829.71 372.82,-829.71 372.82,-829.71 372.82,-737.51 372.82,-712.3"/>
</g>
<!-- Infrastruktura::Telegram#HS24: t.me/hsl_info -->
<g id="node19" class="node">
<title>Infrastruktura::Telegram#HS24: t.me/hsl_info</title>
<ellipse fill="none" stroke="black" cx="639.91" cy="-921" rx="231.26" ry="18"/>
<text text-anchor="middle" x="639.91" y="-917.3" font-family="Times,serif" font-size="14.00">Infrastruktura::Telegram#HS24: t.me/hsl_info</text>
</g>
<!-- d33tah&#45;&#45;Infrastruktura::Telegram#HS24: t.me/hsl_info -->
<g id="edge15" class="edge">
<title>d33tah&#45;&#45;Infrastruktura::Telegram#HS24: t.me/hsl_info</title>
<path fill="none" stroke="#ff0000" d="M114.54,-838.18C174.75,-838.18 276.82,-838.18 276.82,-838.18 276.82,-838.18 276.82,-921 276.82,-921 276.82,-921 337.04,-921 408.42,-921"/>
</g>
<!-- Bazy&#45;danych#Grafana -->
<g id="node20" class="node">
<title>Bazy&#45;danych#Grafana</title>
<ellipse fill="none" stroke="black" cx="639.91" cy="-620" rx="114.28" ry="18"/>
<text text-anchor="middle" x="639.91" y="-616.3" font-family="Times,serif" font-size="14.00">Bazy&#45;danych#Grafana</text>
</g>
<!-- d33tah&#45;&#45;Bazy&#45;danych#Grafana -->
<g id="edge16" class="edge">
<title>d33tah&#45;&#45;Bazy&#45;danych#Grafana</title>
<path fill="none" stroke="#ff0000" d="M91.99,-819.12C133.97,-819.12 225.82,-819.12 225.82,-819.12 225.82,-819.12 225.82,-633 225.82,-633 225.82,-633 440.32,-633 560.56,-633"/>
</g>
<!-- nastpne -->
<g id="node9" class="node">
<title>nastpne</title>
<ellipse fill="none" stroke="black" cx="71.49" cy="-1329" rx="53.09" ry="18"/>
<text text-anchor="middle" x="71.49" y="-1325.3" font-family="Times,serif" font-size="14.00">nastpne</text>
</g>
<!-- spotkanie -->
<g id="node10" class="node">
<title>spotkanie</title>
<ellipse fill="none" stroke="black" cx="71.49" cy="-1372" rx="55.79" ry="18"/>
<text text-anchor="middle" x="71.49" y="-1368.3" font-family="Times,serif" font-size="14.00">spotkanie</text>
</g>
<g id="node11" class="node">
<title></title>
<ellipse fill="none" stroke="#ff0000" cx="71.49" cy="-1415" rx="27" ry="18"/>
</g>
<!-- pmysl -->
<g id="node21" class="node">
<title>pmysl</title>
<ellipse fill="none" stroke="black" cx="71.49" cy="-598" rx="38.19" ry="18"/>
<text text-anchor="middle" x="71.49" y="-594.3" font-family="Times,serif" font-size="14.00">pmysl</text>
</g>
<!-- pmysl&#45;&#45;Infrastruktura::IRC#IRC -->
<g id="edge17" class="edge">
<title>pmysl&#45;&#45;Infrastruktura::IRC#IRC</title>
<path fill="none" stroke="#2bd500" d="M102.02,-609C203.16,-609 520.82,-609 520.82,-609 520.82,-609 520.82,-643.29 520.82,-657.22"/>
</g>
<!-- pmysl&#45;&#45;Infrastruktura::Github#Github -->
<g id="edge18" class="edge">
<title>pmysl&#45;&#45;Infrastruktura::Github#Github</title>
<path fill="none" stroke="#2bd500" d="M94.45,-612.5C151.25,-612.5 293.82,-612.5 293.82,-612.5 293.82,-612.5 293.82,-780 293.82,-780 293.82,-780 423.99,-780 524.67,-780"/>
</g>
<!-- pmysl&#45;&#45;Kanay&#45;komunikacji# -->
<g id="edge19" class="edge">
<title>pmysl&#45;&#45;Kanay&#45;komunikacji#</title>
<path fill="none" stroke="#2bd500" d="M106.82,-591C106.82,-570.58 106.82,-512.5 106.82,-512.5 106.82,-512.5 552.82,-512.5 552.82,-512.5 552.82,-512.5 552.82,-477.34 552.82,-458.94"/>
</g>
<!-- pmysl&#45;&#45;Bazy&#45;danych#Grafana -->
<g id="edge20" class="edge">
<title>pmysl&#45;&#45;Bazy&#45;danych#Grafana</title>
<path fill="none" stroke="#2bd500" d="M106.62,-605.5C199.08,-605.5 450.43,-605.5 572.11,-605.5"/>
</g>
<!-- Bazy&#45;danych# -->
<g id="node22" class="node">
<title>Bazy&#45;danych#</title>
<ellipse fill="none" stroke="black" cx="639.91" cy="-491" rx="77.19" ry="18"/>
<text text-anchor="middle" x="639.91" y="-487.3" font-family="Times,serif" font-size="14.00">Bazy&#45;danych#</text>
</g>
<!-- pmysl&#45;&#45;Bazy&#45;danych# -->
<g id="edge21" class="edge">
<title>pmysl&#45;&#45;Bazy&#45;danych#</title>
<path fill="none" stroke="#2bd500" d="M103.82,-588.32C103.82,-563.04 103.82,-497 103.82,-497 103.82,-497 420.07,-497 566.77,-497"/>
</g>
<!-- thinkofher -->
<g id="node23" class="node">
<title>thinkofher</title>
<ellipse fill="none" stroke="black" cx="71.49" cy="-641" rx="59.29" ry="18"/>
<text text-anchor="middle" x="71.49" y="-637.3" font-family="Times,serif" font-size="14.00">thinkofher</text>
</g>
<!-- thinkofher&#45;&#45;Marketing&#45;i&#45;media&#45;spoecznociowe# -->
<g id="edge23" class="edge">
<title>thinkofher&#45;&#45;Marketing&#45;i&#45;media&#45;spoecznociowe#</title>
<path fill="none" stroke="#0061f2" d="M123.51,-649.67C129.11,-649.67 132.82,-649.67 132.82,-649.67 132.82,-649.67 132.82,-1169 132.82,-1169 132.82,-1169 338.09,-1169 487.42,-1169"/>
</g>
<!-- thinkofher&#45;&#45;Infrastruktura::IRC#IRC -->
<g id="edge24" class="edge">
<title>thinkofher&#45;&#45;Infrastruktura::IRC#IRC</title>
<path fill="none" stroke="#0061f2" d="M111.46,-654.33C197.44,-654.33 402.52,-654.33 530.43,-654.33"/>
</g>
<!-- thinkofher&#45;&#45;Infrastruktura::Telegram#G贸wny: t.me/hakierspejs -->
<g id="edge25" class="edge">
<title>thinkofher&#45;&#45;Infrastruktura::Telegram#G贸wny: t.me/hakierspejs</title>
<path fill="none" stroke="#0061f2" d="M120.82,-651.26C120.82,-674.18 120.82,-727.5 120.82,-727.5 120.82,-727.5 399.82,-727.5 399.82,-727.5 399.82,-727.5 399.82,-807.61 399.82,-829.52"/>
</g>
<!-- thinkofher&#45;&#45;Infrastruktura::Github#Github -->
<g id="edge27" class="edge">
<title>thinkofher&#45;&#45;Infrastruktura::Github#Github</title>
<path fill="none" stroke="#0061f2" d="M118.82,-651.9C118.82,-685.62 118.82,-786 118.82,-786 118.82,-786 340.24,-786 494.41,-786"/>
</g>
<!-- thinkofher&#45;&#45;Kanay&#45;komunikacji# -->
<g id="edge28" class="edge">
<title>thinkofher&#45;&#45;Kanay&#45;komunikacji#</title>
<path fill="none" stroke="#0061f2" d="M112.47,-628C155.14,-628 215.82,-628 215.82,-628 215.82,-628 215.82,-448 215.82,-448 215.82,-448 405.6,-448 531.25,-448"/>
</g>
<!-- thinkofher&#45;&#45;Bazy&#45;danych# -->
<g id="edge29" class="edge">
<title>thinkofher&#45;&#45;Bazy&#45;danych#</title>
<path fill="none" stroke="#0061f2" d="M115.82,-628.75C115.82,-594.98 115.82,-503 115.82,-503 115.82,-503 445.77,-503 582.07,-503"/>
</g>
<!-- Infrastruktura::Matrix#hs&#45;ldz:hackerspace.pl -->
<g id="node24" class="node">
<title>Infrastruktura::Matrix#hs&#45;ldz:hackerspace.pl</title>
<ellipse fill="none" stroke="black" cx="639.91" cy="-534" rx="221.76" ry="18"/>
<text text-anchor="middle" x="639.91" y="-530.3" font-family="Times,serif" font-size="14.00">Infrastruktura::Matrix#hs&#45;ldz:hackerspace.pl</text>
</g>
<!-- thinkofher&#45;&#45;Infrastruktura::Matrix#hs&#45;ldz:hackerspace.pl -->
<g id="edge22" class="edge">
<title>thinkofher&#45;&#45;Infrastruktura::Matrix#hs&#45;ldz:hackerspace.pl</title>
<path fill="none" stroke="#0061f2" d="M120.82,-630.74C120.82,-603.96 120.82,-534 120.82,-534 120.82,-534 277.18,-534 418.26,-534"/>
</g>
<!-- Infrastruktura::Matrix#hs&#45;ldz&#45;offtopic:hackerspace.pl -->
<g id="node25" class="node">
<title>Infrastruktura::Matrix#hs&#45;ldz&#45;offtopic:hackerspace.pl</title>
<ellipse fill="none" stroke="black" cx="639.91" cy="-577" rx="258.85" ry="18"/>
<text text-anchor="middle" x="639.91" y="-573.3" font-family="Times,serif" font-size="14.00">Infrastruktura::Matrix#hs&#45;ldz&#45;offtopic:hackerspace.pl</text>
</g>
<!-- thinkofher&#45;&#45;Infrastruktura::Matrix#hs&#45;ldz&#45;offtopic:hackerspace.pl -->
<g id="edge26" class="edge">
<title>thinkofher&#45;&#45;Infrastruktura::Matrix#hs&#45;ldz&#45;offtopic:hackerspace.pl</title>
<path fill="none" stroke="#0061f2" d="M125.82,-633.56C125.82,-618.86 125.82,-587.5 125.82,-587.5 125.82,-587.5 287.64,-587.5 429.7,-587.5"/>
</g>
<!-- kujaw -->
<g id="node26" class="node">
<title>kujaw</title>
<ellipse fill="none" stroke="black" cx="71.49" cy="-1071" rx="38.19" ry="18"/>
<text text-anchor="middle" x="71.49" y="-1067.3" font-family="Times,serif" font-size="14.00">kujaw</text>
</g>
<!-- kujaw&#45;&#45;Stowarzyszenie#Zarzd -->
<g id="edge30" class="edge">
<title>kujaw&#45;&#45;Stowarzyszenie#Zarzd</title>
<path fill="none" stroke="#c60077" d="M92.25,-1086.2C148.7,-1086.2 300.82,-1086.2 300.82,-1086.2 300.82,-1086.2 300.82,-1207.5 300.82,-1207.5 300.82,-1207.5 466.6,-1207.5 566.33,-1207.5"/>
</g>
<!-- kujaw&#45;&#45;Marketing&#45;i&#45;media&#45;spoecznociowe# -->
<g id="edge32" class="edge">
<title>kujaw&#45;&#45;Marketing&#45;i&#45;media&#45;spoecznociowe#</title>
<path fill="none" stroke="#c60077" d="M99.52,-1083.4C166.22,-1083.4 328.82,-1083.4 328.82,-1083.4 328.82,-1083.4 328.82,-1163 328.82,-1163 328.82,-1163 463.59,-1163 555.72,-1163"/>
</g>
<!-- kujaw&#45;&#45;Miejsce::Miejsce#Klucze do spejsu -->
<g id="edge34" class="edge">
<title>kujaw&#45;&#45;Miejsce::Miejsce#Klucze do spejsu</title>
<path fill="none" stroke="#c60077" d="M105.93,-1063C128.49,-1063 153.82,-1063 153.82,-1063 153.82,-1063 153.82,-368 153.82,-368 153.82,-368 335.48,-368 476.7,-368"/>
</g>
<!-- Marketing&#45;i&#45;media&#45;spoecznociowe#Logo nr. 2 -->
<g id="node27" class="node">
<title>Marketing&#45;i&#45;media&#45;spoecznociowe#Logo nr. 2</title>
<ellipse fill="none" stroke="black" cx="639.91" cy="-749" rx="229.36" ry="18"/>
<text text-anchor="middle" x="639.91" y="-745.3" font-family="Times,serif" font-size="14.00">Marketing&#45;i&#45;media&#45;spoecznociowe#Logo nr. 2</text>
</g>
<!-- kujaw&#45;&#45;Marketing&#45;i&#45;media&#45;spoecznociowe#Logo nr. 2 -->
<g id="edge31" class="edge">
<title>kujaw&#45;&#45;Marketing&#45;i&#45;media&#45;spoecznociowe#Logo nr. 2</title>
<path fill="none" stroke="#c60077" d="M98.03,-1058C115.75,-1058 135.82,-1058 135.82,-1058 135.82,-1058 135.82,-755 135.82,-755 135.82,-755 286.85,-755 423.57,-755"/>
</g>
<!-- Marketing&#45;i&#45;media&#45;spoecznociowe#Naklejki -->
<g id="node28" class="node">
<title>Marketing&#45;i&#45;media&#45;spoecznociowe#Naklejki</title>
<ellipse fill="none" stroke="black" cx="639.91" cy="-1136" rx="221.76" ry="18"/>
<text text-anchor="middle" x="639.91" y="-1132.3" font-family="Times,serif" font-size="14.00">Marketing&#45;i&#45;media&#45;spoecznociowe#Naklejki</text>
</g>
<!-- kujaw&#45;&#45;Marketing&#45;i&#45;media&#45;spoecznociowe#Naklejki -->
<g id="edge33" class="edge">
<title>kujaw&#45;&#45;Marketing&#45;i&#45;media&#45;spoecznociowe#Naklejki</title>
<path fill="none" stroke="#c60077" d="M104.11,-1080.6C192.8,-1080.6 431.82,-1080.6 431.82,-1080.6 431.82,-1080.6 431.82,-1115.09 431.82,-1129.64"/>
</g>
<!-- SP7Q -->
<g id="node29" class="node">
<title>SP7Q</title>
<ellipse fill="none" stroke="black" cx="71.49" cy="-1200" rx="36.29" ry="18"/>
<text text-anchor="middle" x="71.49" y="-1196.3" font-family="Times,serif" font-size="14.00">SP7Q</text>
</g>
<!-- SP7Q&#45;&#45;Stowarzyszenie#Zarzd -->
<g id="edge37" class="edge">
<title>SP7Q&#45;&#45;Stowarzyszenie#Zarzd</title>
<path fill="none" stroke="#b6e400" d="M93.08,-1214.5C163.35,-1214.5 388.95,-1214.5 527.46,-1214.5"/>
</g>
<!-- SP7Q&#45;&#45;Marketing&#45;i&#45;media&#45;spoecznociowe# -->
<g id="edge35" class="edge">
<title>SP7Q&#45;&#45;Marketing&#45;i&#45;media&#45;spoecznociowe#</title>
<path fill="none" stroke="#b6e400" d="M104.51,-1192C182.35,-1192 380.7,-1192 512.88,-1192"/>
</g>
<!-- SP7Q&#45;&#45;Infrastruktura::Github#Github -->
<g id="edge36" class="edge">
<title>SP7Q&#45;&#45;Infrastruktura::Github#Github</title>
<path fill="none" stroke="#b6e400" d="M96.87,-1187C147.63,-1187 256.82,-1187 256.82,-1187 256.82,-1187 256.82,-804 256.82,-804 256.82,-804 412.13,-804 524.97,-804"/>
</g>
<!-- Polimerek -->
<g id="node30" class="node">
<title>Polimerek</title>
<ellipse fill="none" stroke="black" cx="71.49" cy="-1243" rx="57.39" ry="18"/>
<text text-anchor="middle" x="71.49" y="-1239.3" font-family="Times,serif" font-size="14.00">Polimerek</text>
</g>
<!-- Polimerek&#45;&#45;Stowarzyszenie#Zarzd -->
<g id="edge38" class="edge">
<title>Polimerek&#45;&#45;Stowarzyszenie#Zarzd</title>
<path fill="none" stroke="#00ffff" d="M111.46,-1230C197.13,-1230 401.02,-1230 529.02,-1230"/>
</g>
<!-- kasesag -->
<g id="node31" class="node">
<title>kasesag</title>
<ellipse fill="none" stroke="black" cx="71.49" cy="-1286" rx="48.19" ry="18"/>
<text text-anchor="middle" x="71.49" y="-1282.3" font-family="Times,serif" font-size="14.00">kasesag</text>
</g>
<!-- kasesag&#45;&#45;Stowarzyszenie#Zarzd -->
<g id="edge40" class="edge">
<title>kasesag&#45;&#45;Stowarzyszenie#Zarzd</title>
<path fill="none" stroke="#ab00d5" d="M117.2,-1280C128.69,-1280 137.82,-1280 137.82,-1280 137.82,-1280 137.82,-1235 137.82,-1235 137.82,-1235 411.13,-1235 554.45,-1235"/>
</g>
<!-- Marketing&#45;i&#45;media&#45;spoecznociowe#Przycisk HS&#45;LDZ -->
<g id="node32" class="node">
<title>Marketing&#45;i&#45;media&#45;spoecznociowe#Przycisk HS&#45;LDZ</title>
<ellipse fill="none" stroke="black" cx="639.91" cy="-1286" rx="261.85" ry="18"/>
<text text-anchor="middle" x="639.91" y="-1282.3" font-family="Times,serif" font-size="14.00">Marketing&#45;i&#45;media&#45;spoecznociowe#Przycisk HS&#45;LDZ</text>
</g>
<!-- kasesag&#45;&#45;Marketing&#45;i&#45;media&#45;spoecznociowe#Przycisk HS&#45;LDZ -->
<g id="edge39" class="edge">
<title>kasesag&#45;&#45;Marketing&#45;i&#45;media&#45;spoecznociowe#Przycisk HS&#45;LDZ</title>
<path fill="none" stroke="#ab00d5" d="M117.05,-1292C177.44,-1292 288.58,-1292 392.91,-1292"/>
</g>
<!-- cytP450 -->
<g id="node33" class="node">
<title>cytP450</title>
<ellipse fill="none" stroke="black" cx="71.49" cy="-211" rx="48.99" ry="18"/>
<text text-anchor="middle" x="71.49" y="-207.3" font-family="Times,serif" font-size="14.00">cytP450</text>
</g>
<!-- cytP450&#45;&#45;Infrastruktura::Domeny#Domeny -->
<g id="edge42" class="edge">
<title>cytP450&#45;&#45;Infrastruktura::Domeny#Domeny</title>
<path fill="none" stroke="#f29100" d="M106.84,-223.4C173.88,-223.4 312.82,-223.4 312.82,-223.4 312.82,-223.4 312.82,-396 312.82,-396 312.82,-396 407.53,-396 495.01,-396"/>
</g>
<!-- cytP450&#45;&#45;Miejsce::Miejsce#Klucze do spejsu -->
<g id="edge43" class="edge">
<title>cytP450&#45;&#45;Miejsce::Miejsce#Klucze do spejsu</title>
<path fill="none" stroke="#f29100" d="M113.01,-220.6C189.93,-220.6 346.82,-220.6 346.82,-220.6 346.82,-220.6 346.82,-348 346.82,-348 346.82,-348 447.78,-348 531.19,-348"/>
</g>
<!-- cytP450&#45;&#45;Kanay&#45;komunikacji# -->
<g id="edge47" class="edge">
<title>cytP450&#45;&#45;Kanay&#45;komunikacji#</title>
<path fill="none" stroke="#f29100" d="M97.69,-226.2C159.22,-226.2 307.82,-226.2 307.82,-226.2 307.82,-226.2 307.82,-439 307.82,-439 307.82,-439 447.46,-439 545.63,-439"/>
</g>
<!-- Zamek#Zamek -->
<g id="node34" class="node">
<title>Zamek#Zamek</title>
<ellipse fill="none" stroke="black" cx="639.91" cy="-104" rx="81.49" ry="18"/>
<text text-anchor="middle" x="639.91" y="-100.3" font-family="Times,serif" font-size="14.00">Zamek#Zamek</text>
</g>
<!-- cytP450&#45;&#45;Zamek#Zamek -->
<g id="edge41" class="edge">
<title>cytP450&#45;&#45;Zamek#Zamek</title>
<path fill="none" stroke="#f29100" d="M111.23,-200.5C125.35,-200.5 137.82,-200.5 137.82,-200.5 137.82,-200.5 137.82,-104 137.82,-104 137.82,-104 416.21,-104 558.4,-104"/>
</g>
<!-- Chciejlista#DIY -->
<g id="node35" class="node">
<title>Chciejlista#DIY</title>
<ellipse fill="none" stroke="black" cx="639.91" cy="-233" rx="83.69" ry="18"/>
<text text-anchor="middle" x="639.91" y="-229.3" font-family="Times,serif" font-size="14.00">Chciejlista#DIY</text>
</g>
<!-- cytP450&#45;&#45;Chciejlista#DIY -->
<g id="edge44" class="edge">
<title>cytP450&#45;&#45;Chciejlista#DIY</title>
<path fill="none" stroke="#f29100" d="M117.05,-217.8C223.74,-217.8 488.8,-217.8 594.92,-217.8"/>
</g>
<!-- Przegld&#45;lokali&#45;na&#45;wynajem&#45;w&#45;odzi.&#45;Fundusz&#45;1000&#45;&#45;&#45;1500.#Bot Aleksego -->
<g id="node36" class="node">
<title>Przegld&#45;lokali&#45;na&#45;wynajem&#45;w&#45;odzi.&#45;Fundusz&#45;1000&#45;&#45;&#45;1500.#Bot Aleksego</title>
<ellipse fill="none" stroke="black" cx="639.91" cy="-190" rx="351.74" ry="18"/>
<text text-anchor="middle" x="639.91" y="-186.3" font-family="Times,serif" font-size="14.00">Przegld&#45;lokali&#45;na&#45;wynajem&#45;w&#45;odzi.&#45;Fundusz&#45;1000&#45;&#45;&#45;1500.#Bot Aleksego</text>
</g>
<!-- cytP450&#45;&#45;Przegld&#45;lokali&#45;na&#45;wynajem&#45;w&#45;odzi.&#45;Fundusz&#45;1000&#45;&#45;&#45;1500.#Bot Aleksego -->
<g id="edge45" class="edge">
<title>cytP450&#45;&#45;Przegld&#45;lokali&#45;na&#45;wynajem&#45;w&#45;odzi.&#45;Fundusz&#45;1000&#45;&#45;&#45;1500.#Bot Aleksego</title>
<path fill="none" stroke="#f29100" d="M117.05,-204.25C183.7,-204.25 312.15,-204.25 425.05,-204.25"/>
</g>
<!-- Stowarzyszenie#Komisja Rewizyjna -->
<g id="node37" class="node">
<title>Stowarzyszenie#Komisja Rewizyjna</title>
<ellipse fill="none" stroke="black" cx="639.91" cy="-61" rx="178.17" ry="18"/>
<text text-anchor="middle" x="639.91" y="-57.3" font-family="Times,serif" font-size="14.00">Stowarzyszenie#Komisja Rewizyjna</text>
</g>
<!-- cytP450&#45;&#45;Stowarzyszenie#Komisja Rewizyjna -->
<g id="edge46" class="edge">
<title>cytP450&#45;&#45;Stowarzyszenie#Komisja Rewizyjna</title>
<path fill="none" stroke="#f29100" d="M101.31,-196.75C116.51,-196.75 131.82,-196.75 131.82,-196.75 131.82,-196.75 131.82,-67 131.82,-67 131.82,-67 323.84,-67 471.78,-67"/>
</g>
<!-- Chciejlista#Elektronika (w sensie urzdze konsumenckich) -->
<g id="node38" class="node">
<title>Chciejlista#Elektronika (w sensie urzdze konsumenckich)</title>
<ellipse fill="none" stroke="black" cx="639.91" cy="-147" rx="289.75" ry="18"/>
<text text-anchor="middle" x="639.91" y="-143.3" font-family="Times,serif" font-size="14.00">Chciejlista#Elektronika (w sensie urzdze konsumenckich)</text>
</g>
<!-- cytP450&#45;&#45;Chciejlista#Elektronika (w sensie urzdze konsumenckich) -->
<g id="edge48" class="edge">
<title>cytP450&#45;&#45;Chciejlista#Elektronika (w sensie urzdze konsumenckich)</title>
<path fill="none" stroke="#f29100" d="M71.82,-192.83C71.82,-173.91 71.82,-147 71.82,-147 71.82,-147 209.71,-147 349.62,-147"/>
</g>
<!-- pzduniak -->
<g id="node39" class="node">
<title>pzduniak</title>
<ellipse fill="none" stroke="black" cx="71.49" cy="-104" rx="52.79" ry="18"/>
<text text-anchor="middle" x="71.49" y="-100.3" font-family="Times,serif" font-size="14.00">pzduniak</text>
</g>
<!-- pzduniak&#45;&#45;Stowarzyszenie#Komisja Rewizyjna -->
<g id="edge49" class="edge">
<title>pzduniak&#45;&#45;Stowarzyszenie#Komisja Rewizyjna</title>
<path fill="none" stroke="#00c64f" d="M118.82,-96.11C118.82,-83.7 118.82,-61 118.82,-61 118.82,-61 310.77,-61 461.67,-61"/>
</g>
<!-- krcz -->
<g id="node40" class="node">
<title>krcz</title>
<ellipse fill="none" stroke="black" cx="71.49" cy="-61" rx="30.59" ry="18"/>
<text text-anchor="middle" x="71.49" y="-57.3" font-family="Times,serif" font-size="14.00">krcz</text>
</g>
<!-- krcz&#45;&#45;Stowarzyszenie#Komisja Rewizyjna -->
<g id="edge50" class="edge">
<title>krcz&#45;&#45;Stowarzyszenie#Komisja Rewizyjna</title>
<path fill="none" stroke="#2e00e4" d="M100.46,-55C167.99,-55 340.14,-55 471.96,-55"/>
</g>
<!-- kpc -->
<g id="node41" class="node">
<title>kpc</title>
<ellipse fill="none" stroke="black" cx="71.49" cy="-276" rx="27" ry="18"/>
<text text-anchor="middle" x="71.49" y="-272.3" font-family="Times,serif" font-size="14.00">kpc</text>
</g>
<!-- kpc&#45;&#45;Marketing&#45;i&#45;media&#45;spoecznociowe# -->
<g id="edge51" class="edge">
<title>kpc&#45;&#45;Marketing&#45;i&#45;media&#45;spoecznociowe#</title>
<path fill="none" stroke="#ff0000" d="M90.45,-288.86C120.28,-288.86 174.82,-288.86 174.82,-288.86 174.82,-288.86 174.82,-1178.5 174.82,-1178.5 174.82,-1178.5 326.35,-1178.5 456.43,-1178.5"/>
</g>
<!-- kpc&#45;&#45;Miejsce::Miejsce#Klucze do spejsu -->
<g id="edge52" class="edge">
<title>kpc&#45;&#45;Miejsce::Miejsce#Klucze do spejsu</title>
<path fill="none" stroke="#ff0000" d="M98.4,-278.57C166.78,-278.57 341.82,-278.57 341.82,-278.57 341.82,-278.57 341.82,-352 341.82,-352 341.82,-352 419.88,-352 496.1,-352"/>
</g>
<!-- kpc&#45;&#45;Infrastruktura::Telegram#posty: t.me/hakierspejs_spam -->
<g id="edge54" class="edge">
<title>kpc&#45;&#45;Infrastruktura::Telegram#posty: t.me/hakierspejs_spam</title>
<path fill="none" stroke="#ff0000" d="M96.25,-283.71C155.93,-283.71 302.82,-283.71 302.82,-283.71 302.82,-283.71 302.82,-695 302.82,-695 302.82,-695 353.24,-695 415.07,-695"/>
</g>
<!-- kpc&#45;&#45;Stowarzyszenie#Komisja Rewizyjna -->
<g id="edge55" class="edge">
<title>kpc&#45;&#45;Stowarzyszenie#Komisja Rewizyjna</title>
<path fill="none" stroke="#ff0000" d="M90.5,-263.14C109.15,-263.14 134.82,-263.14 134.82,-263.14 134.82,-263.14 134.82,-73 134.82,-73 134.82,-73 357.23,-73 506.87,-73"/>
</g>
<!-- Infrastruktura::Telegram#Posty wyklte (celowo bez linka) -->
<g id="node42" class="node">
<title>Infrastruktura::Telegram#Posty wyklte (celowo bez linka)</title>
<ellipse fill="none" stroke="black" cx="639.91" cy="-319" rx="284.05" ry="18"/>
<text text-anchor="middle" x="639.91" y="-315.3" font-family="Times,serif" font-size="14.00">Infrastruktura::Telegram#Posty wyklte (celowo bez linka)</text>
</g>
<!-- kpc&#45;&#45;Infrastruktura::Telegram#Posty wyklte (celowo bez linka) -->
<g id="edge53" class="edge">
<title>kpc&#45;&#45;Infrastruktura::Telegram#Posty wyklte (celowo bez linka)</title>
<path fill="none" stroke="#ff0000" d="M98.25,-273.43C179.81,-273.43 419.82,-273.43 419.82,-273.43 419.82,-273.43 419.82,-294 419.82,-307.5"/>
</g>
<!-- Czaty&#45;HS#HS: posty wyklte -->
<g id="node43" class="node">
<title>Czaty&#45;HS#HS: posty wyklte</title>
<ellipse fill="none" stroke="black" cx="639.91" cy="-276" rx="157.87" ry="18"/>
<text text-anchor="middle" x="639.91" y="-272.3" font-family="Times,serif" font-size="14.00">Czaty&#45;HS#HS: posty wyklte</text>
</g>
<!-- kpc&#45;&#45;Czaty&#45;HS#HS: posty wyklte -->
<g id="edge56" class="edge">
<title>kpc&#45;&#45;Czaty&#45;HS#HS: posty wyklte</title>
<path fill="none" stroke="#ff0000" d="M95.92,-268.29C164.02,-268.29 360.02,-268.29 497.11,-268.29"/>
</g>
<!-- PiotrP -->
<g id="node44" class="node">
<title>PiotrP</title>
<ellipse fill="none" stroke="black" cx="71.49" cy="-18" rx="40.09" ry="18"/>
<text text-anchor="middle" x="71.49" y="-14.3" font-family="Times,serif" font-size="14.00">PiotrP</text>
</g>
<!-- PiotrP&#45;&#45;Stowarzyszenie#Komisja Rewizyjna -->
<g id="edge57" class="edge">
<title>PiotrP&#45;&#45;Stowarzyszenie#Komisja Rewizyjna</title>
<path fill="none" stroke="#2bd500" d="M107.82,-25.82C107.82,-35.01 107.82,-49 107.82,-49 107.82,-49 349.41,-49 507.01,-49"/>
</g>
<!-- kszmigiel -->
<g id="node45" class="node">
<title>kszmigiel</title>
<ellipse fill="none" stroke="black" cx="71.49" cy="-878" rx="54.69" ry="18"/>
<text text-anchor="middle" x="71.49" y="-874.3" font-family="Times,serif" font-size="14.00">kszmigiel</text>
</g>
<!-- kszmigiel&#45;&#45;Marketing&#45;i&#45;media&#45;spoecznociowe# -->
<g id="edge58" class="edge">
<title>kszmigiel&#45;&#45;Marketing&#45;i&#45;media&#45;spoecznociowe#</title>
<path fill="none" stroke="#0061f2" d="M115.82,-888.78C115.82,-941.64 115.82,-1171 115.82,-1171 115.82,-1171 321.83,-1171 475.52,-1171"/>
</g>
<!-- kszmigiel&#45;&#45;Infrastruktura::Telegram#G贸wny: t.me/hakierspejs -->
<g id="edge60" class="edge">
<title>kszmigiel&#45;&#45;Infrastruktura::Telegram#G贸wny: t.me/hakierspejs</title>
<path fill="none" stroke="#0061f2" d="M124.82,-873.93C124.82,-863.03 124.82,-833.94 124.82,-833.94 124.82,-833.94 257.91,-833.94 388.78,-833.94"/>
</g>
<!-- kszmigiel&#45;&#45;Infrastruktura::Github#Github -->
<g id="edge62" class="edge">
<title>kszmigiel&#45;&#45;Infrastruktura::Github#Github</title>
<path fill="none" stroke="#0061f2" d="M122.82,-871.72C122.82,-852.86 122.82,-798 122.82,-798 122.82,-798 341.55,-798 494.49,-798"/>
</g>
<!-- kszmigiel&#45;&#45;Infrastruktura::Telegram#posty: t.me/hakierspejs_spam -->
<g id="edge61" class="edge">
<title>kszmigiel&#45;&#45;Infrastruktura::Telegram#posty: t.me/hakierspejs_spam</title>
<path fill="none" stroke="#0061f2" d="M117.82,-868.17C117.82,-832.65 117.82,-713 117.82,-713 117.82,-713 247.84,-713 378.1,-713"/>
</g>
<!-- kszmigiel&#45;&#45;Marketing&#45;i&#45;media&#45;spoecznociowe#Naklejki -->
<g id="edge59" class="edge">
<title>kszmigiel&#45;&#45;Marketing&#45;i&#45;media&#45;spoecznociowe#Naklejki</title>
<path fill="none" stroke="#0061f2" d="M120.82,-885.86C120.82,-927.74 120.82,-1122.67 120.82,-1122.67 120.82,-1122.67 337.44,-1122.67 490.81,-1122.67"/>
</g>
<!-- q3k -->
<g id="node46" class="node">
<title>q3k</title>
<ellipse fill="none" stroke="black" cx="71.49" cy="-491" rx="27.9" ry="18"/>
<text text-anchor="middle" x="71.49" y="-487.3" font-family="Times,serif" font-size="14.00">q3k</text>
</g>
<!-- q3k&#45;&#45;Infrastruktura::Domeny#Domeny -->
<g id="edge63" class="edge">
<title>q3k&#45;&#45;Infrastruktura::Domeny#Domeny</title>
<path fill="none" stroke="#c60077" d="M92.59,-479C179.19,-479 502.82,-479 502.82,-479 502.82,-479 502.82,-435.62 502.82,-415.29"/>
</g>
<!-- q3k&#45;&#45;Kanay&#45;komunikacji# -->
<g id="edge65" class="edge">
<title>q3k&#45;&#45;Kanay&#45;komunikacji#</title>
<path fill="none" stroke="#c60077" d="M98.13,-485C197.62,-485 541.82,-485 541.82,-485 541.82,-485 541.82,-466.71 541.82,-455.85"/>
</g>
<!-- q3k&#45;&#45;Marketing&#45;i&#45;media&#45;spoecznociowe#Logo nr. 2 -->
<g id="edge64" class="edge">
<title>q3k&#45;&#45;Marketing&#45;i&#45;media&#45;spoecznociowe#Logo nr. 2</title>
<path fill="none" stroke="#c60077" d="M99.83,-491C160.77,-491 298.82,-491 298.82,-491 298.82,-491 298.82,-743 298.82,-743 298.82,-743 355.93,-743 423.41,-743"/>
</g>
<!-- hslbridgebot -->
<g id="node47" class="node">
<title>hslbridgebot</title>
<ellipse fill="none" stroke="black" cx="71.49" cy="-1501" rx="69.59" ry="18"/>
<text text-anchor="middle" x="71.49" y="-1497.3" font-family="Times,serif" font-size="14.00">hslbridgebot</text>
</g>
<!-- Mostkowanie&#45;kana贸w#mautrix&#45;telegram (aktualnie u偶ywany) -->
<g id="node48" class="node">
<title>Mostkowanie&#45;kana贸w#mautrix&#45;telegram (aktualnie u偶ywany)</title>
<ellipse fill="none" stroke="black" cx="639.91" cy="-1480" rx="297.85" ry="18"/>
<text text-anchor="middle" x="639.91" y="-1476.3" font-family="Times,serif" font-size="14.00">Mostkowanie&#45;kana贸w#mautrix&#45;telegram (aktualnie u偶ywany)</text>
</g>
<!-- hslbridgebot&#45;&#45;Mostkowanie&#45;kana贸w#mautrix&#45;telegram (aktualnie u偶ywany) -->
<g id="edge66" class="edge">
<title>hslbridgebot&#45;&#45;Mostkowanie&#45;kana贸w#mautrix&#45;telegram (aktualnie u偶ywany)</title>
<path fill="none" stroke="#b6e400" d="M128.07,-1490.5C191.4,-1490.5 298.22,-1490.5 397.95,-1490.5"/>
</g>
<!-- telegrambot -->
<g id="node49" class="node">
<title>telegrambot</title>
<ellipse fill="none" stroke="black" cx="71.49" cy="-1458" rx="67.69" ry="18"/>
<text text-anchor="middle" x="71.49" y="-1454.3" font-family="Times,serif" font-size="14.00">telegrambot</text>
</g>
<!-- telegrambot&#45;&#45;Mostkowanie&#45;kana贸w#mautrix&#45;telegram (aktualnie u偶ywany) -->
<g id="edge67" class="edge">
<title>telegrambot&#45;&#45;Mostkowanie&#45;kana贸w#mautrix&#45;telegram (aktualnie u偶ywany)</title>
<path fill="none" stroke="#00ffff" d="M125.22,-1469C189.43,-1469 301.12,-1469 404.09,-1469"/>
</g>
<!-- biniu -->
<g id="node50" class="node">
<title>biniu</title>
<ellipse fill="none" stroke="black" cx="71.49" cy="-1114" rx="34.39" ry="18"/>
<text text-anchor="middle" x="71.49" y="-1110.3" font-family="Times,serif" font-size="14.00">biniu</text>
</g>
<!-- biniu&#45;&#45;Marketing&#45;i&#45;media&#45;spoecznociowe# -->
<g id="edge68" class="edge">
<title>biniu&#45;&#45;Marketing&#45;i&#45;media&#45;spoecznociowe#</title>
<path fill="none" stroke="#ab00d5" d="M94.83,-1127.33C155.73,-1127.33 314.82,-1127.33 314.82,-1127.33 314.82,-1127.33 314.82,-1165 314.82,-1165 314.82,-1165 430.94,-1165 524.38,-1165"/>
</g>
<!-- Keij0 -->
<g id="node51" class="node">
<title>Keij0</title>
<ellipse fill="none" stroke="black" cx="71.49" cy="-1157" rx="34.39" ry="18"/>
<text text-anchor="middle" x="71.49" y="-1153.3" font-family="Times,serif" font-size="14.00">Keij0</text>
</g>
<!-- Keij0&#45;&#45;Marketing&#45;i&#45;media&#45;spoecznociowe# -->
<g id="edge69" class="edge">
<title>Keij0&#45;&#45;Marketing&#45;i&#45;media&#45;spoecznociowe#</title>
<path fill="none" stroke="#f29100" d="M87.29,-1173C141.75,-1173 326.09,-1173 467.04,-1173"/>
</g>
<!-- BluRaf -->
<g id="node52" class="node">
<title>BluRaf</title>
<ellipse fill="none" stroke="black" cx="71.49" cy="-684" rx="42.49" ry="18"/>
<text text-anchor="middle" x="71.49" y="-680.3" font-family="Times,serif" font-size="14.00">BluRaf</text>
</g>
<!-- BluRaf&#45;&#45;Infrastruktura::IRC#IRC -->
<g id="edge70" class="edge">
<title>BluRaf&#45;&#45;Infrastruktura::IRC#IRC</title>
<path fill="none" stroke="#00c64f" d="M100.86,-671C178.83,-671 394.26,-671 527.97,-671"/>
</g>
<!-- Piotrek_P -->
<g id="node53" class="node">
<title>Piotrek_P</title>
<ellipse fill="none" stroke="black" cx="71.49" cy="-362" rx="55.49" ry="18"/>
<text text-anchor="middle" x="71.49" y="-358.3" font-family="Times,serif" font-size="14.00">Piotrek_P</text>
</g>
<!-- Piotrek_P&#45;&#45;Miejsce::Miejsce#Klucze do spejsu -->
<g id="edge71" class="edge">
<title>Piotrek_P&#45;&#45;Miejsce::Miejsce#Klucze do spejsu</title>
<path fill="none" stroke="#2e00e4" d="M126.51,-360C204.66,-360 351.27,-360 467.88,-360"/>
</g>
<!-- polimerek -->
<g id="node54" class="node">
<title>polimerek</title>
<ellipse fill="none" stroke="black" cx="71.49" cy="-319" rx="57.39" ry="18"/>
<text text-anchor="middle" x="71.49" y="-315.3" font-family="Times,serif" font-size="14.00">polimerek</text>
</g>
<!-- polimerek&#45;&#45;Miejsce::Miejsce#Klucze do spejsu -->
<g id="edge72" class="edge">
<title>polimerek&#45;&#45;Miejsce::Miejsce#Klucze do spejsu</title>
<path fill="none" stroke="#ff0000" d="M128.74,-319C206.74,-319 336.82,-319 336.82,-319 336.82,-319 336.82,-356 336.82,-356 336.82,-356 405.09,-356 476.83,-356"/>
</g>
<!-- kotlovecrafta -->
<g id="node55" class="node">
<title>kotlovecrafta</title>
<ellipse fill="none" stroke="black" cx="71.49" cy="-448" rx="71.49" ry="18"/>
<text text-anchor="middle" x="71.49" y="-444.3" font-family="Times,serif" font-size="14.00">kotlovecrafta</text>
</g>
<!-- kotlovecrafta&#45;&#45;Miejsce::Miejsce#Klucze do spejsu -->
<g id="edge73" class="edge">
<title>kotlovecrafta&#45;&#45;Miejsce::Miejsce#Klucze do spejsu</title>
<path fill="none" stroke="#2bd500" d="M140.82,-443.48C140.82,-426.04 140.82,-364 140.82,-364 140.82,-364 323.49,-364 467.8,-364"/>
</g>
<!-- sp7adg -->
<g id="node56" class="node">
<title>sp7adg</title>
<ellipse fill="none" stroke="black" cx="71.49" cy="-405" rx="44.39" ry="18"/>
<text text-anchor="middle" x="71.49" y="-401.3" font-family="Times,serif" font-size="14.00">sp7adg</text>
</g>
<!-- sp7adg&#45;&#45;Miejsce::Miejsce#Klucze do spejsu -->
<g id="edge74" class="edge">
<title>sp7adg&#45;&#45;Miejsce::Miejsce#Klucze do spejsu</title>
<path fill="none" stroke="#0061f2" d="M115.82,-405C186.74,-405 317.82,-405 317.82,-405 317.82,-405 317.82,-372 317.82,-372 317.82,-372 410.07,-372 495.82,-372"/>
</g>
</g>
</svg>
