<?xml version="1.0" encoding="UTF-8" standalone="no"?>
<!DOCTYPE svg PUBLIC "-//W3C//DTD SVG 1.1//EN"
 "http://www.w3.org/Graphics/SVG/1.1/DTD/svg11.dtd">
<!-- Generated by graphviz version 2.40.1 (20161225.0304)
 -->
<!-- Title: %3 Pages: 1 -->
<svg width="723pt" height="850pt"
 viewBox="0.00 0.00 722.65 850.00" xmlns="http://www.w3.org/2000/svg" xmlns:xlink="http://www.w3.org/1999/xlink">
<g id="graph0" class="graph" transform="scale(1 1) rotate(0) translate(4 846)">
<title>%3</title>
<polygon fill="#ffffff" stroke="transparent" points="-4,4 -4,-846 718.6494,-846 718.6494,4 -4,4"/>
<!-- q3k -->
<g id="node1" class="node">
<title>q3k</title>
<ellipse fill="none" stroke="#000000" cx="59.7947" cy="-213" rx="28.6953" ry="18"/>
<text text-anchor="middle" x="59.7947" y="-209.3" font-family="Times,serif" font-size="14.00" fill="#000000">q3k</text>
</g>
<!-- Infrastruktura#Domeny -->
<g id="node2" class="node">
<title>Infrastruktura#Domeny</title>
<ellipse fill="none" stroke="#000000" cx="489.1194" cy="-179" rx="124.2781" ry="18"/>
<text text-anchor="middle" x="489.1194" y="-175.3" font-family="Times,serif" font-size="14.00" fill="#000000">Infrastruktura#Domeny</text>
</g>
<!-- q3k&#45;&#45;Infrastruktura#Domeny -->
<g id="edge1" class="edge">
<title>q3k&#45;&#45;Infrastruktura#Domeny</title>
<path fill="none" stroke="#ff0000" d="M60.6494,-194.8097C60.6494,-191.4624 60.6494,-189 60.6494,-189 60.6494,-189 258.8763,-189 385.6719,-189"/>
</g>
<!-- Infrastruktura#Lista mailingowa -->
<g id="node3" class="node">
<title>Infrastruktura#Lista mailingowa</title>
<ellipse fill="none" stroke="#000000" cx="489.1194" cy="-265" rx="165.1707" ry="18"/>
<text text-anchor="middle" x="489.1194" y="-261.3" font-family="Times,serif" font-size="14.00" fill="#000000">Infrastruktura#Lista mailingowa</text>
</g>
<!-- q3k&#45;&#45;Infrastruktura#Lista mailingowa -->
<g id="edge2" class="edge">
<title>q3k&#45;&#45;Infrastruktura#Lista mailingowa</title>
<path fill="none" stroke="#ff0000" d="M84.809,-222C92.8164,-222 99.6494,-222 99.6494,-222 99.6494,-222 99.6494,-256.3333 99.6494,-256.3333 99.6494,-256.3333 233.5862,-256.3333 344.3719,-256.3333"/>
</g>
<!-- d33tah -->
<g id="node4" class="node">
<title>d33tah</title>
<ellipse fill="none" stroke="#000000" cx="59.7947" cy="-303" rx="43.5923" ry="18"/>
<text text-anchor="middle" x="59.7947" y="-299.3" font-family="Times,serif" font-size="14.00" fill="#000000">d33tah</text>
</g>
<!-- d33tah&#45;&#45;Infrastruktura#Domeny -->
<g id="edge3" class="edge">
<title>d33tah&#45;&#45;Infrastruktura#Domeny</title>
<path fill="none" stroke="#2bd500" d="M96.6494,-293.1495C96.6494,-265.9836 96.6494,-192 96.6494,-192 96.6494,-192 287.4602,-192 402.9902,-192"/>
</g>
<!-- d33tah&#45;&#45;Infrastruktura#Lista mailingowa -->
<g id="edge10" class="edge">
<title>d33tah&#45;&#45;Infrastruktura#Lista mailingowa</title>
<path fill="none" stroke="#2bd500" d="M102.6494,-299.6629C102.6494,-293.0684 102.6494,-279 102.6494,-279 102.6494,-279 270.8264,-279 385.2984,-279"/>
</g>
<!-- Infrastruktura#t.me/hakierspejs -->
<g id="node5" class="node">
<title>Infrastruktura#t.me/hakierspejs</title>
<ellipse fill="none" stroke="#000000" cx="489.1194" cy="-566" rx="163.2712" ry="18"/>
<text text-anchor="middle" x="489.1194" y="-562.3" font-family="Times,serif" font-size="14.00" fill="#000000">Infrastruktura#t.me/hakierspejs</text>
</g>
<!-- d33tah&#45;&#45;Infrastruktura#t.me/hakierspejs -->
<g id="edge4" class="edge">
<title>d33tah&#45;&#45;Infrastruktura#t.me/hakierspejs</title>
<path fill="none" stroke="#2bd500" d="M92.7824,-314.8C120.5098,-314.8 155.6494,-314.8 155.6494,-314.8 155.6494,-314.8 155.6494,-555 155.6494,-555 155.6494,-555 265.9778,-555 359.7139,-555"/>
</g>
<!-- Infrastruktura#t.me/hakierspejs_spam -->
<g id="node6" class="node">
<title>Infrastruktura#t.me/hakierspejs_spam</title>
<ellipse fill="none" stroke="#000000" cx="489.1194" cy="-523" rx="193.0657" ry="18"/>
<text text-anchor="middle" x="489.1194" y="-519.3" font-family="Times,serif" font-size="14.00" fill="#000000">Infrastruktura#t.me/hakierspejs_spam</text>
</g>
<!-- d33tah&#45;&#45;Infrastruktura#t.me/hakierspejs_spam -->
<g id="edge5" class="edge">
<title>d33tah&#45;&#45;Infrastruktura#t.me/hakierspejs_spam</title>
<path fill="none" stroke="#2bd500" d="M103.1329,-305.5C172.4764,-305.5 300.6494,-305.5 300.6494,-305.5 300.6494,-305.5 300.6494,-488.78 300.6494,-518.8494"/>
</g>
<!-- Infrastruktura#Github -->
<g id="node7" class="node">
<title>Infrastruktura#Github</title>
<ellipse fill="none" stroke="#000000" cx="489.1194" cy="-480" rx="117.7793" ry="18"/>
<text text-anchor="middle" x="489.1194" y="-476.3" font-family="Times,serif" font-size="14.00" fill="#000000">Infrastruktura#Github</text>
</g>
<!-- d33tah&#45;&#45;Infrastruktura#Github -->
<g id="edge6" class="edge">
<title>d33tah&#45;&#45;Infrastruktura#Github</title>
<path fill="none" stroke="#2bd500" d="M97.9463,-311.7C127.9268,-311.7 164.6494,-311.7 164.6494,-311.7 164.6494,-311.7 164.6494,-471 164.6494,-471 164.6494,-471 291.7919,-471 386.9004,-471"/>
</g>
<!-- Miejsce&#45;:&#45;MIEJSCE#Klucze do spejsu -->
<g id="node8" class="node">
<title>Miejsce&#45;:&#45;MIEJSCE#Klucze do spejsu</title>
<ellipse fill="none" stroke="#000000" cx="489.1194" cy="-222" rx="185.7671" ry="18"/>
<text text-anchor="middle" x="489.1194" y="-218.3" font-family="Times,serif" font-size="14.00" fill="#000000">Miejsce&#45;:&#45;MIEJSCE#Klucze do spejsu</text>
</g>
<!-- d33tah&#45;&#45;Miejsce&#45;:&#45;MIEJSCE#Klucze do spejsu -->
<g id="edge7" class="edge">
<title>d33tah&#45;&#45;Miejsce&#45;:&#45;MIEJSCE#Klucze do spejsu</title>
<path fill="none" stroke="#2bd500" d="M97.6494,-293.8292C97.6494,-275.2681 97.6494,-235 97.6494,-235 97.6494,-235 246.2968,-235 360.3953,-235"/>
</g>
<!-- Infrastruktura#Meetup -->
<g id="node9" class="node">
<title>Infrastruktura#Meetup</title>
<ellipse fill="none" stroke="#000000" cx="489.1194" cy="-437" rx="121.5784" ry="18"/>
<text text-anchor="middle" x="489.1194" y="-433.3" font-family="Times,serif" font-size="14.00" fill="#000000">Infrastruktura#Meetup</text>
</g>
<!-- d33tah&#45;&#45;Infrastruktura#Meetup -->
<g id="edge8" class="edge">
<title>d33tah&#45;&#45;Infrastruktura#Meetup</title>
<path fill="none" stroke="#2bd500" d="M101.3877,-308.6C137.0288,-308.6 182.6494,-308.6 182.6494,-308.6 182.6494,-308.6 182.6494,-429.2857 182.6494,-429.2857 182.6494,-429.2857 291.0477,-429.2857 378.9097,-429.2857"/>
</g>
<!-- Infrastruktura#Pad -->
<g id="node10" class="node">
<title>Infrastruktura#Pad</title>
<ellipse fill="none" stroke="#000000" cx="489.1194" cy="-308" rx="102.8821" ry="18"/>
<text text-anchor="middle" x="489.1194" y="-304.3" font-family="Times,serif" font-size="14.00" fill="#000000">Infrastruktura#Pad</text>
</g>
<!-- d33tah&#45;&#45;Infrastruktura#Pad -->
<g id="edge9" class="edge">
<title>d33tah&#45;&#45;Infrastruktura#Pad</title>
<path fill="none" stroke="#2bd500" d="M103.3233,-302.4C170.3676,-302.4 300.6126,-302.4 391.1187,-302.4"/>
</g>
<!-- Infrastruktura#Forum -->
<g id="node11" class="node">
<title>Infrastruktura#Forum</title>
<ellipse fill="none" stroke="#000000" cx="489.1194" cy="-93" rx="116.1796" ry="18"/>
<text text-anchor="middle" x="489.1194" y="-89.3" font-family="Times,serif" font-size="14.00" fill="#000000">Infrastruktura#Forum</text>
</g>
<!-- d33tah&#45;&#45;Infrastruktura#Forum -->
<g id="edge11" class="edge">
<title>d33tah&#45;&#45;Infrastruktura#Forum</title>
<path fill="none" stroke="#2bd500" d="M100.1224,-296.2C154.7837,-296.2 245.6494,-296.2 245.6494,-296.2 245.6494,-296.2 245.6494,-106 245.6494,-106 245.6494,-106 337.5137,-106 408.3856,-106"/>
</g>
<!-- Infrastruktura#Grafana -->
<g id="node12" class="node">
<title>Infrastruktura#Grafana</title>
<ellipse fill="none" stroke="#000000" cx="489.1194" cy="-136" rx="122.6784" ry="18"/>
<text text-anchor="middle" x="489.1194" y="-132.3" font-family="Times,serif" font-size="14.00" fill="#000000">Infrastruktura#Grafana</text>
</g>
<!-- d33tah&#45;&#45;Infrastruktura#Grafana -->
<g id="edge12" class="edge">
<title>d33tah&#45;&#45;Infrastruktura#Grafana</title>
<path fill="none" stroke="#2bd500" d="M102.5564,-299.3C159.915,-299.3 254.6494,-299.3 254.6494,-299.3 254.6494,-299.3 254.6494,-140.6667 254.6494,-140.6667 254.6494,-140.6667 312.1276,-140.6667 370.1671,-140.6667"/>
</g>
<!-- Infrastruktura#IRC -->
<g id="node13" class="node">
<title>Infrastruktura#IRC</title>
<ellipse fill="none" stroke="#000000" cx="489.1194" cy="-609" rx="103.9815" ry="18"/>
<text text-anchor="middle" x="489.1194" y="-605.3" font-family="Times,serif" font-size="14.00" fill="#000000">Infrastruktura#IRC</text>
</g>
<!-- d33tah&#45;&#45;Infrastruktura#IRC -->
<g id="edge13" class="edge">
<title>d33tah&#45;&#45;Infrastruktura#IRC</title>
<path fill="none" stroke="#2bd500" d="M84.4284,-317.9C107.2374,-317.9 137.6494,-317.9 137.6494,-317.9 137.6494,-317.9 137.6494,-598 137.6494,-598 137.6494,-598 302.8313,-598 406.7153,-598"/>
</g>
<!-- Infrastruktura#Hosting -->
<g id="node14" class="node">
<title>Infrastruktura#Hosting</title>
<ellipse fill="none" stroke="#000000" cx="489.1194" cy="-50" rx="122.6784" ry="18"/>
<text text-anchor="middle" x="489.1194" y="-46.3" font-family="Times,serif" font-size="14.00" fill="#000000">Infrastruktura#Hosting</text>
</g>
<!-- d33tah&#45;&#45;Infrastruktura#Hosting -->
<g id="edge14" class="edge">
<title>d33tah&#45;&#45;Infrastruktura#Hosting</title>
<path fill="none" stroke="#2bd500" d="M96.4391,-293.1C148.2409,-293.1 236.6494,-293.1 236.6494,-293.1 236.6494,-293.1 236.6494,-63.8333 236.6494,-63.8333 236.6494,-63.8333 336.1972,-63.8333 410.2748,-63.8333"/>
</g>
<!-- cytP450 -->
<g id="node15" class="node">
<title>cytP450</title>
<ellipse fill="none" stroke="#000000" cx="59.7947" cy="-168" rx="49.2915" ry="18"/>
<text text-anchor="middle" x="59.7947" y="-164.3" font-family="Times,serif" font-size="14.00" fill="#000000">cytP450</text>
</g>
<!-- cytP450&#45;&#45;Infrastruktura#Domeny -->
<g id="edge15" class="edge">
<title>cytP450&#45;&#45;Infrastruktura#Domeny</title>
<path fill="none" stroke="#0061f2" d="M106.9681,-173.5C169.9197,-173.5 283.5611,-173.5 370.6114,-173.5"/>
</g>
<!-- cytP450&#45;&#45;Miejsce&#45;:&#45;MIEJSCE#Klucze do spejsu -->
<g id="edge16" class="edge">
<title>cytP450&#45;&#45;Miejsce&#45;:&#45;MIEJSCE#Klucze do spejsu</title>
<path fill="none" stroke="#0061f2" d="M100.6494,-178.437C100.6494,-191.7305 100.6494,-213 100.6494,-213 100.6494,-213 221.2276,-213 328.0288,-213"/>
</g>
<!-- cytP450&#45;&#45;Infrastruktura#Forum -->
<g id="edge17" class="edge">
<title>cytP450&#45;&#45;Infrastruktura#Forum</title>
<path fill="none" stroke="#0061f2" d="M102.6494,-158.9641C102.6494,-140.6759 102.6494,-101 102.6494,-101 102.6494,-101 270.3288,-101 384.7897,-101"/>
</g>
<!-- cytP450&#45;&#45;Infrastruktura#Hosting -->
<g id="edge18" class="edge">
<title>cytP450&#45;&#45;Infrastruktura#Hosting</title>
<path fill="none" stroke="#0061f2" d="M100.2915,-157.5C147.3561,-157.5 218.6494,-157.5 218.6494,-157.5 218.6494,-157.5 218.6494,-55.5 218.6494,-55.5 218.6494,-55.5 298.9627,-55.5 372.0604,-55.5"/>
</g>
<!-- Martti25 -->
<g id="node16" class="node">
<title>Martti25</title>
<ellipse fill="none" stroke="#000000" cx="59.7947" cy="-480" rx="51.9908" ry="18"/>
<text text-anchor="middle" x="59.7947" y="-476.3" font-family="Times,serif" font-size="14.00" fill="#000000">Martti25</text>
</g>
<!-- Martti25&#45;&#45;Infrastruktura#Github -->
<g id="edge21" class="edge">
<title>Martti25&#45;&#45;Infrastruktura#Github</title>
<path fill="none" stroke="#c60077" d="M112.0091,-480C176.0328,-480 286.4853,-480 371.3593,-480"/>
</g>
<!-- Martti25&#45;&#45;Infrastruktura#Meetup -->
<g id="edge20" class="edge">
<title>Martti25&#45;&#45;Infrastruktura#Meetup</title>
<path fill="none" stroke="#c60077" d="M106.6494,-472.169C106.6494,-461.7735 106.6494,-444.7143 106.6494,-444.7143 106.6494,-444.7143 266.2583,-444.7143 379.2627,-444.7143"/>
</g>
<!-- Infrastruktura#Konto na Fejsie -->
<g id="node17" class="node">
<title>Infrastruktura#Konto na Fejsie</title>
<ellipse fill="none" stroke="#000000" cx="489.1194" cy="-652" rx="157.0724" ry="18"/>
<text text-anchor="middle" x="489.1194" y="-648.3" font-family="Times,serif" font-size="14.00" fill="#000000">Infrastruktura#Konto na Fejsie</text>
</g>
<!-- Martti25&#45;&#45;Infrastruktura#Konto na Fejsie -->
<g id="edge19" class="edge">
<title>Martti25&#45;&#45;Infrastruktura#Konto na Fejsie</title>
<path fill="none" stroke="#c60077" d="M104.9535,-489C117.9318,-489 128.6494,-489 128.6494,-489 128.6494,-489 128.6494,-641 128.6494,-641 128.6494,-641 260.369,-641 364.5613,-641"/>
</g>
<!-- biniu -->
<g id="node18" class="node">
<title>biniu</title>
<ellipse fill="none" stroke="#000000" cx="59.7947" cy="-437" rx="34.394" ry="18"/>
<text text-anchor="middle" x="59.7947" y="-433.3" font-family="Times,serif" font-size="14.00" fill="#000000">biniu</text>
</g>
<!-- biniu&#45;&#45;Infrastruktura#Meetup -->
<g id="edge22" class="edge">
<title>biniu&#45;&#45;Infrastruktura#Meetup</title>
<path fill="none" stroke="#b6e400" d="M94.2024,-439.5714C153.0006,-439.5714 275.4752,-439.5714 368.539,-439.5714"/>
</g>
<!-- kszmigiel -->
<g id="node19" class="node">
<title>kszmigiel</title>
<ellipse fill="none" stroke="#000000" cx="59.7947" cy="-394" rx="55.4913" ry="18"/>
<text text-anchor="middle" x="59.7947" y="-390.3" font-family="Times,serif" font-size="14.00" fill="#000000">kszmigiel</text>
</g>
<!-- kszmigiel&#45;&#45;Infrastruktura#t.me/hakierspejs -->
<g id="edge23" class="edge">
<title>kszmigiel&#45;&#45;Infrastruktura#t.me/hakierspejs</title>
<path fill="none" stroke="#00ffff" d="M107.7947,-403C127.8818,-403 146.6494,-403 146.6494,-403 146.6494,-403 146.6494,-562 146.6494,-562 146.6494,-562 240.4816,-562 329.9155,-562"/>
</g>
<!-- kszmigiel&#45;&#45;Infrastruktura#Meetup -->
<g id="edge25" class="edge">
<title>kszmigiel&#45;&#45;Infrastruktura#Meetup</title>
<path fill="none" stroke="#00ffff" d="M100.6494,-406.3496C100.6494,-418.2389 100.6494,-434.4286 100.6494,-434.4286 100.6494,-434.4286 254.5369,-434.4286 368.6,-434.4286"/>
</g>
<!-- Infrastruktura#Naklejki -->
<g id="node20" class="node">
<title>Infrastruktura#Naklejki</title>
<ellipse fill="none" stroke="#000000" cx="489.1194" cy="-351" rx="125.3778" ry="18"/>
<text text-anchor="middle" x="489.1194" y="-347.3" font-family="Times,serif" font-size="14.00" fill="#000000">Infrastruktura#Naklejki</text>
</g>
<!-- kszmigiel&#45;&#45;Infrastruktura#Naklejki -->
<g id="edge24" class="edge">
<title>kszmigiel&#45;&#45;Infrastruktura#Naklejki</title>
<path fill="none" stroke="#00ffff" d="M107.9796,-385C197.7663,-385 381.6494,-385 381.6494,-385 381.6494,-385 381.6494,-370.3574 381.6494,-360.2906"/>
</g>
<!-- Finanse#Naklejki -->
<g id="node21" class="node">
<title>Finanse#Naklejki</title>
<ellipse fill="none" stroke="#000000" cx="489.1194" cy="-394" rx="94.7833" ry="18"/>
<text text-anchor="middle" x="489.1194" y="-390.3" font-family="Times,serif" font-size="14.00" fill="#000000">Finanse#Naklejki</text>
</g>
<!-- kszmigiel&#45;&#45;Finanse#Naklejki -->
<g id="edge26" class="edge">
<title>kszmigiel&#45;&#45;Finanse#Naklejki</title>
<path fill="none" stroke="#00ffff" d="M115.0425,-394C185.4753,-394 308.3632,-394 393.9944,-394"/>
</g>
<!-- nikolaad -->
<g id="node22" class="node">
<title>nikolaad</title>
<ellipse fill="none" stroke="#000000" cx="59.7947" cy="-587" rx="50.0912" ry="18"/>
<text text-anchor="middle" x="59.7947" y="-583.3" font-family="Times,serif" font-size="14.00" fill="#000000">nikolaad</text>
</g>
<!-- nikolaad&#45;&#45;Infrastruktura#Meetup -->
<g id="edge28" class="edge">
<title>nikolaad&#45;&#45;Infrastruktura#Meetup</title>
<path fill="none" stroke="#ab00d5" d="M94.5735,-574C128.0561,-574 173.6494,-574 173.6494,-574 173.6494,-574 173.6494,-449.8571 173.6494,-449.8571 173.6494,-449.8571 310.3209,-449.8571 403.7486,-449.8571"/>
</g>
<!-- nikolaad&#45;&#45;Infrastruktura#Konto na Fejsie -->
<g id="edge27" class="edge">
<title>nikolaad&#45;&#45;Infrastruktura#Konto na Fejsie</title>
<path fill="none" stroke="#ab00d5" d="M106.6494,-593.5281C106.6494,-609.2644 106.6494,-648 106.6494,-648 106.6494,-648 229.3519,-648 335.758,-648"/>
</g>
<!-- Keij0 -->
<g id="node23" class="node">
<title>Keij0</title>
<ellipse fill="none" stroke="#000000" cx="59.7947" cy="-257" rx="34.394" ry="18"/>
<text text-anchor="middle" x="59.7947" y="-253.3" font-family="Times,serif" font-size="14.00" fill="#000000">Keij0</text>
</g>
<!-- Keij0&#45;&#45;Infrastruktura#Meetup -->
<g id="edge29" class="edge">
<title>Keij0&#45;&#45;Infrastruktura#Meetup</title>
<path fill="none" stroke="#f29100" d="M90.0448,-265.6667C128.9728,-265.6667 191.6494,-265.6667 191.6494,-265.6667 191.6494,-265.6667 191.6494,-424.1429 191.6494,-424.1429 191.6494,-424.1429 315.9746,-424.1429 403.8764,-424.1429"/>
</g>
<!-- Keij0&#45;&#45;Infrastruktura#Hosting -->
<g id="edge30" class="edge">
<title>Keij0&#45;&#45;Infrastruktura#Hosting</title>
<path fill="none" stroke="#f29100" d="M82.7822,-243.5C128.7534,-243.5 227.6494,-243.5 227.6494,-243.5 227.6494,-243.5 227.6494,-59.6667 227.6494,-59.6667 227.6494,-59.6667 312.4031,-59.6667 385.404,-59.6667"/>
</g>
<!-- BluRaf -->
<g id="node24" class="node">
<title>BluRaf</title>
<ellipse fill="none" stroke="#000000" cx="59.7947" cy="-673" rx="42.4939" ry="18"/>
<text text-anchor="middle" x="59.7947" y="-669.3" font-family="Times,serif" font-size="14.00" fill="#000000">BluRaf</text>
</g>
<!-- BluRaf&#45;&#45;Infrastruktura#t.me/hakierspejs -->
<g id="edge32" class="edge">
<title>BluRaf&#45;&#45;Infrastruktura#t.me/hakierspejs</title>
<path fill="none" stroke="#00c64f" d="M85.6296,-658.75C126.2932,-658.75 200.6494,-658.75 200.6494,-658.75 200.6494,-658.75 200.6494,-579 200.6494,-579 200.6494,-579 295.1198,-579 375.9363,-579"/>
</g>
<!-- BluRaf&#45;&#45;Infrastruktura#t.me/hakierspejs_spam -->
<g id="edge35" class="edge">
<title>BluRaf&#45;&#45;Infrastruktura#t.me/hakierspejs_spam</title>
<path fill="none" stroke="#00c64f" d="M94.149,-662.5C162.8518,-662.5 310.6494,-662.5 310.6494,-662.5 310.6494,-662.5 310.6494,-558.537 310.6494,-530.1096"/>
</g>
<!-- BluRaf&#45;&#45;Infrastruktura#IRC -->
<g id="edge37" class="edge">
<title>BluRaf&#45;&#45;Infrastruktura#IRC</title>
<path fill="none" stroke="#00c64f" d="M60.6494,-654.9648C60.6494,-638.2656 60.6494,-616 60.6494,-616 60.6494,-616 266.9254,-616 393.2291,-616"/>
</g>
<!-- BluRaf&#45;&#45;Infrastruktura#Konto na Fejsie -->
<g id="edge33" class="edge">
<title>BluRaf&#45;&#45;Infrastruktura#Konto na Fejsie</title>
<path fill="none" stroke="#00c64f" d="M99.0325,-666.25C165.0654,-666.25 300.2419,-666.25 392.7695,-666.25"/>
</g>
<!-- Infrastruktura#hs&#45;ldz:hackerspace.pl -->
<g id="node25" class="node">
<title>Infrastruktura#hs&#45;ldz:hackerspace.pl</title>
<ellipse fill="none" stroke="#000000" cx="489.1194" cy="-738" rx="186.5669" ry="18"/>
<text text-anchor="middle" x="489.1194" y="-734.3" font-family="Times,serif" font-size="14.00" fill="#000000">Infrastruktura#hs&#45;ldz:hackerspace.pl</text>
</g>
<!-- BluRaf&#45;&#45;Infrastruktura#hs&#45;ldz:hackerspace.pl -->
<g id="edge31" class="edge">
<title>BluRaf&#45;&#45;Infrastruktura#hs&#45;ldz:hackerspace.pl</title>
<path fill="none" stroke="#00c64f" d="M93.37,-684C163.4098,-684 318.6494,-684 318.6494,-684 318.6494,-684 318.6494,-715.6538 318.6494,-730.4915"/>
</g>
<!-- Infrastruktura#Konfident -->
<g id="node26" class="node">
<title>Infrastruktura#Konfident</title>
<ellipse fill="none" stroke="#000000" cx="489.1194" cy="-695" rx="130.777" ry="18"/>
<text text-anchor="middle" x="489.1194" y="-691.3" font-family="Times,serif" font-size="14.00" fill="#000000">Infrastruktura#Konfident</text>
</g>
<!-- BluRaf&#45;&#45;Infrastruktura#Konfident -->
<g id="edge34" class="edge">
<title>BluRaf&#45;&#45;Infrastruktura#Konfident</title>
<path fill="none" stroke="#00c64f" d="M98.2722,-680.5C168.5587,-680.5 318.9636,-680.5 411.3413,-680.5"/>
</g>
<!-- Infrastruktura#Mumble -->
<g id="node27" class="node">
<title>Infrastruktura#Mumble</title>
<ellipse fill="none" stroke="#000000" cx="489.1194" cy="-824" rx="124.2781" ry="18"/>
<text text-anchor="middle" x="489.1194" y="-820.3" font-family="Times,serif" font-size="14.00" fill="#000000">Infrastruktura#Mumble</text>
</g>
<!-- BluRaf&#45;&#45;Infrastruktura#Mumble -->
<g id="edge36" class="edge">
<title>BluRaf&#45;&#45;Infrastruktura#Mumble</title>
<path fill="none" stroke="#00c64f" d="M60.6494,-691.2141C60.6494,-731.3755 60.6494,-824 60.6494,-824 60.6494,-824 238.375,-824 364.9004,-824"/>
</g>
<!-- Infrastruktura#hs&#45;ldz&#45;offtopic:hackerspace.pl -->
<g id="node28" class="node">
<title>Infrastruktura#hs&#45;ldz&#45;offtopic:hackerspace.pl</title>
<ellipse fill="none" stroke="#000000" cx="489.1194" cy="-781" rx="225.56" ry="18"/>
<text text-anchor="middle" x="489.1194" y="-777.3" font-family="Times,serif" font-size="14.00" fill="#000000">Infrastruktura#hs&#45;ldz&#45;offtopic:hackerspace.pl</text>
</g>
<!-- BluRaf&#45;&#45;Infrastruktura#hs&#45;ldz&#45;offtopic:hackerspace.pl -->
<g id="edge38" class="edge">
<title>BluRaf&#45;&#45;Infrastruktura#hs&#45;ldz&#45;offtopic:hackerspace.pl</title>
<path fill="none" stroke="#00c64f" d="M85.1295,-687.5C143.1409,-687.5 280.6494,-687.5 280.6494,-687.5 280.6494,-687.5 280.6494,-752.2278 280.6494,-773.9723"/>
</g>
<!-- kpc -->
<g id="node29" class="node">
<title>kpc</title>
<ellipse fill="none" stroke="#000000" cx="59.7947" cy="-18" rx="27.8951" ry="18"/>
<text text-anchor="middle" x="59.7947" y="-14.3" font-family="Times,serif" font-size="14.00" fill="#000000">kpc</text>
</g>
<!-- kpc&#45;&#45;Infrastruktura#Hosting -->
<g id="edge39" class="edge">
<title>kpc&#45;&#45;Infrastruktura#Hosting</title>
<path fill="none" stroke="#2e00e4" d="M60.6494,-36.1406C60.6494,-38.1563 60.6494,-39.5 60.6494,-39.5 60.6494,-39.5 262.5935,-39.5 389.2029,-39.5"/>
</g>
<!-- thinkofher -->
<g id="node30" class="node">
<title>thinkofher</title>
<ellipse fill="none" stroke="#000000" cx="59.7947" cy="-61" rx="59.5901" ry="18"/>
<text text-anchor="middle" x="59.7947" y="-57.3" font-family="Times,serif" font-size="14.00" fill="#000000">thinkofher</text>
</g>
<!-- thinkofher&#45;&#45;Infrastruktura#Forum -->
<g id="edge40" class="edge">
<title>thinkofher&#45;&#45;Infrastruktura#Forum</title>
<path fill="none" stroke="#ff0000" d="M105.6494,-72.7565C105.6494,-77.7759 105.6494,-82.5 105.6494,-82.5 105.6494,-82.5 280.7726,-82.5 394.329,-82.5"/>
</g>
<!-- thinkofher&#45;&#45;Infrastruktura#Hosting -->
<g id="edge41" class="edge">
<title>thinkofher&#45;&#45;Infrastruktura#Hosting</title>
<path fill="none" stroke="#ff0000" d="M98.2722,-47.1667C158.2678,-47.1667 276.6386,-47.1667 367.4673,-47.1667"/>
</g>
<!-- pmysl -->
<g id="node31" class="node">
<title>pmysl</title>
<ellipse fill="none" stroke="#000000" cx="59.7947" cy="-104" rx="38.1938" ry="18"/>
<text text-anchor="middle" x="59.7947" y="-100.3" font-family="Times,serif" font-size="14.00" fill="#000000">pmysl</text>
</g>
<!-- pmysl&#45;&#45;Infrastruktura#Forum -->
<g id="edge42" class="edge">
<title>pmysl&#45;&#45;Infrastruktura#Forum</title>
<path fill="none" stroke="#2bd500" d="M94.2024,-96C154.1945,-96 280.4751,-96 374.1707,-96"/>
</g>
<!-- pmysl&#45;&#45;Infrastruktura#Grafana -->
<g id="edge43" class="edge">
<title>pmysl&#45;&#45;Infrastruktura#Grafana</title>
<path fill="none" stroke="#2bd500" d="M60.6494,-122.0795C60.6494,-127.1626 60.6494,-131.3333 60.6494,-131.3333 60.6494,-131.3333 243.5321,-131.3333 370.3356,-131.3333"/>
</g>
<!-- pmysl&#45;&#45;Infrastruktura#Hosting -->
<g id="edge44" class="edge">
<title>pmysl&#45;&#45;Infrastruktura#Hosting</title>
<path fill="none" stroke="#2bd500" d="M86.5857,-91C129.6892,-91 209.6494,-91 209.6494,-91 209.6494,-91 209.6494,-51.3333 209.6494,-51.3333 209.6494,-51.3333 291.4497,-51.3333 366.5398,-51.3333"/>
</g>
</g>
</svg>
