<?xml version="1.0" encoding="UTF-8" standalone="no"?>
<!DOCTYPE svg PUBLIC "-//W3C//DTD SVG 1.1//EN"
 "http://www.w3.org/Graphics/SVG/1.1/DTD/svg11.dtd">
<!-- Generated by graphviz version 2.43.0 (0)
 -->
<!-- Title: %3 Pages: 1 -->
<svg width="1044pt" height="1355pt"
 viewBox="0.00 0.00 1043.72 1355.00" xmlns="http://www.w3.org/2000/svg" xmlns:xlink="http://www.w3.org/1999/xlink">
<g id="graph0" class="graph" transform="scale(1 1) rotate(0) translate(4 1351)">
<title>%3</title>
<polygon fill="white" stroke="transparent" points="-4,4 -4,-1351 1039.72,-1351 1039.72,4 -4,4"/>
<!-- kpc -->
<g id="node1" class="node">
<title>kpc</title>
<ellipse fill="none" stroke="black" cx="92.94" cy="-1265" rx="27" ry="18"/>
<text text-anchor="middle" x="92.94" y="-1261.3" font-family="Times,serif" font-size="14.00">kpc</text>
</g>
<!-- Bazy&#45;danych#Trello -->
<g id="node2" class="node">
<title>Bazy&#45;danych#Trello</title>
<ellipse fill="none" stroke="black" cx="682.8" cy="-1050" rx="103.98" ry="18"/>
<text text-anchor="middle" x="682.8" y="-1046.3" font-family="Times,serif" font-size="14.00">Bazy&#45;danych#Trello</text>
</g>
<!-- kpc&#45;&#45;Bazy&#45;danych#Trello -->
<g id="edge1" class="edge">
<title>kpc&#45;&#45;Bazy&#45;danych#Trello</title>
<path fill="none" stroke="#ff0000" d="M109.23,-1250.5C134.85,-1250.5 181.72,-1250.5 181.72,-1250.5 181.72,-1250.5 181.72,-1064.4 181.72,-1064.4 181.72,-1064.4 486.03,-1064.4 620.35,-1064.4"/>
</g>
<!-- Infrastruktura::Telegram#posty: t.me/hakierspejs_spam -->
<g id="node3" class="node">
<title>Infrastruktura::Telegram#posty: t.me/hakierspejs_spam</title>
<ellipse fill="none" stroke="black" cx="682.8" cy="-921" rx="284.05" ry="18"/>
<text text-anchor="middle" x="682.8" y="-917.3" font-family="Times,serif" font-size="14.00">Infrastruktura::Telegram#posty: t.me/hakierspejs_spam</text>
</g>
<!-- kpc&#45;&#45;Infrastruktura::Telegram#posty: t.me/hakierspejs_spam -->
<g id="edge2" class="edge">
<title>kpc&#45;&#45;Infrastruktura::Telegram#posty: t.me/hakierspejs_spam</title>
<path fill="none" stroke="#ff0000" d="M114.37,-1254C191.82,-1254 452.72,-1254 452.72,-1254 452.72,-1254 452.72,-988.7 452.72,-931.7"/>
</g>
<!-- Czaty&#45;HS#HS: posty wyklte -->
<g id="node4" class="node">
<title>Czaty&#45;HS#HS: posty wyklte</title>
<ellipse fill="none" stroke="black" cx="682.8" cy="-1243" rx="157.87" ry="18"/>
<text text-anchor="middle" x="682.8" y="-1239.3" font-family="Times,serif" font-size="14.00">Czaty&#45;HS#HS: posty wyklte</text>
</g>
<!-- kpc&#45;&#45;Czaty&#45;HS#HS: posty wyklte -->
<g id="edge3" class="edge">
<title>kpc&#45;&#45;Czaty&#45;HS#HS: posty wyklte</title>
<path fill="none" stroke="#ff0000" d="M117.54,-1257.5C197.07,-1257.5 450.16,-1257.5 589.17,-1257.5"/>
</g>
<!-- Infrastruktura::Telegram#Posty wyklte (celowo bez linka) -->
<g id="node5" class="node">
<title>Infrastruktura::Telegram#Posty wyklte (celowo bez linka)</title>
<ellipse fill="none" stroke="black" cx="682.8" cy="-1286" rx="284.05" ry="18"/>
<text text-anchor="middle" x="682.8" y="-1282.3" font-family="Times,serif" font-size="14.00">Infrastruktura::Telegram#Posty wyklte (celowo bez linka)</text>
</g>
<!-- kpc&#45;&#45;Infrastruktura::Telegram#Posty wyklte (celowo bez linka) -->
<g id="edge4" class="edge">
<title>kpc&#45;&#45;Infrastruktura::Telegram#Posty wyklte (celowo bez linka)</title>
<path fill="none" stroke="#ff0000" d="M114.99,-1275.5C170.31,-1275.5 320.01,-1275.5 451.81,-1275.5"/>
</g>
<!-- 51 -->
<g id="node6" class="node">
<title>51</title>
<ellipse fill="none" stroke="black" cx="92.94" cy="-1329" rx="27" ry="18"/>
<text text-anchor="middle" x="92.94" y="-1325.3" font-family="Times,serif" font-size="14.00">51</text>
</g>
<!-- Miejsce::Miejsce#Stan obecny -->
<g id="node7" class="node">
<title>Miejsce::Miejsce#Stan obecny</title>
<ellipse fill="none" stroke="black" cx="682.8" cy="-1329" rx="152.97" ry="18"/>
<text text-anchor="middle" x="682.8" y="-1325.3" font-family="Times,serif" font-size="14.00">Miejsce::Miejsce#Stan obecny</text>
</g>
<!-- 51&#45;&#45;Miejsce::Miejsce#Stan obecny -->
<g id="edge5" class="edge">
<title>51&#45;&#45;Miejsce::Miejsce#Stan obecny</title>
<path fill="none" stroke="#2bd500" d="M120.21,-1329C191.81,-1329 389.33,-1329 530.07,-1329"/>
</g>
<!-- d33tah -->
<g id="node8" class="node">
<title>d33tah</title>
<ellipse fill="none" stroke="black" cx="92.94" cy="-620" rx="43.59" ry="18"/>
<text text-anchor="middle" x="92.94" y="-616.3" font-family="Times,serif" font-size="14.00">d33tah</text>
</g>
<!-- d33tah&#45;&#45;Bazy&#45;danych#Trello -->
<g id="edge13" class="edge">
<title>d33tah&#45;&#45;Bazy&#45;danych#Trello</title>
<path fill="none" stroke="#0061f2" d="M132.36,-627.71C152.46,-627.71 172.72,-627.71 172.72,-627.71 172.72,-627.71 172.72,-1035.6 172.72,-1035.6 172.72,-1035.6 484.05,-1035.6 620.26,-1035.6"/>
</g>
<!-- d33tah&#45;&#45;Infrastruktura::Telegram#posty: t.me/hakierspejs_spam -->
<g id="edge6" class="edge">
<title>d33tah&#45;&#45;Infrastruktura::Telegram#posty: t.me/hakierspejs_spam</title>
<path fill="none" stroke="#0061f2" d="M134.81,-625.14C222.14,-625.14 415.72,-625.14 415.72,-625.14 415.72,-625.14 415.72,-872.33 415.72,-914.82"/>
</g>
<!-- Bazy&#45;danych#Pad -->
<g id="node9" class="node">
<title>Bazy&#45;danych#Pad</title>
<ellipse fill="none" stroke="black" cx="682.8" cy="-620" rx="94.48" ry="18"/>
<text text-anchor="middle" x="682.8" y="-616.3" font-family="Times,serif" font-size="14.00">Bazy&#45;danych#Pad</text>
</g>
<!-- d33tah&#45;&#45;Bazy&#45;danych#Pad -->
<g id="edge7" class="edge">
<title>d33tah&#45;&#45;Bazy&#45;danych#Pad</title>
<path fill="none" stroke="#0061f2" d="M136.8,-620C231.91,-620 459.01,-620 588.37,-620"/>
</g>
<!-- Marketing&#45;i&#45;media&#45;spoecznociowe# -->
<g id="node10" class="node">
<title>Marketing&#45;i&#45;media&#45;spoecznociowe#</title>
<ellipse fill="none" stroke="black" cx="682.8" cy="-792" rx="183.07" ry="18"/>
<text text-anchor="middle" x="682.8" y="-788.3" font-family="Times,serif" font-size="14.00">Marketing&#45;i&#45;media&#45;spoecznociowe#</text>
</g>
<!-- d33tah&#45;&#45;Marketing&#45;i&#45;media&#45;spoecznociowe# -->
<g id="edge8" class="edge">
<title>d33tah&#45;&#45;Marketing&#45;i&#45;media&#45;spoecznociowe#</title>
<path fill="none" stroke="#0061f2" d="M115.4,-635.43C135.8,-635.43 162.72,-635.43 162.72,-635.43 162.72,-635.43 162.72,-784.8 162.72,-784.8 162.72,-784.8 362.72,-784.8 514.66,-784.8"/>
</g>
<!-- Infrastruktura::Telegram#G贸wny: t.me/hakierspejs -->
<g id="node11" class="node">
<title>Infrastruktura::Telegram#G贸wny: t.me/hakierspejs</title>
<ellipse fill="none" stroke="black" cx="682.8" cy="-835" rx="251.56" ry="18"/>
<text text-anchor="middle" x="682.8" y="-831.3" font-family="Times,serif" font-size="14.00">Infrastruktura::Telegram#G贸wny: t.me/hakierspejs</text>
</g>
<!-- d33tah&#45;&#45;Infrastruktura::Telegram#G贸wny: t.me/hakierspejs -->
<g id="edge9" class="edge">
<title>d33tah&#45;&#45;Infrastruktura::Telegram#G贸wny: t.me/hakierspejs</title>
<path fill="none" stroke="#0061f2" d="M136.08,-622.57C230.01,-622.57 444.72,-622.57 444.72,-622.57 444.72,-622.57 444.72,-794.04 444.72,-828.87"/>
</g>
<!-- Infrastruktura::Telegram#Spacerspejs: t.me/joinchat/UYf2ONtNj21J1DS6 -->
<g id="node12" class="node">
<title>Infrastruktura::Telegram#Spacerspejs: t.me/joinchat/UYf2ONtNj21J1DS6</title>
<ellipse fill="none" stroke="black" cx="682.8" cy="-577" rx="352.84" ry="18"/>
<text text-anchor="middle" x="682.8" y="-573.3" font-family="Times,serif" font-size="14.00">Infrastruktura::Telegram#Spacerspejs: t.me/joinchat/UYf2ONtNj21J1DS6</text>
</g>
<!-- d33tah&#45;&#45;Infrastruktura::Telegram#Spacerspejs: t.me/joinchat/UYf2ONtNj21J1DS6 -->
<g id="edge10" class="edge">
<title>d33tah&#45;&#45;Infrastruktura::Telegram#Spacerspejs: t.me/joinchat/UYf2ONtNj21J1DS6</title>
<path fill="none" stroke="#0061f2" d="M136.31,-617.43C213.04,-617.43 364.72,-617.43 364.72,-617.43 364.72,-617.43 364.72,-596.99 364.72,-585.18"/>
</g>
<!-- Infrastruktura::IRC#IRC -->
<g id="node13" class="node">
<title>Infrastruktura::IRC#IRC</title>
<ellipse fill="none" stroke="black" cx="682.8" cy="-534" rx="124.58" ry="18"/>
<text text-anchor="middle" x="682.8" y="-530.3" font-family="Times,serif" font-size="14.00">Infrastruktura::IRC#IRC</text>
</g>
<!-- d33tah&#45;&#45;Infrastruktura::IRC#IRC -->
<g id="edge11" class="edge">
<title>d33tah&#45;&#45;Infrastruktura::IRC#IRC</title>
<path fill="none" stroke="#0061f2" d="M80.72,-602.53C80.72,-578.34 80.72,-537.6 80.72,-537.6 80.72,-537.6 384.2,-537.6 560.24,-537.6"/>
</g>
<!-- Infrastruktura::Mariuszbot#Mariuszbot -->
<g id="node14" class="node">
<title>Infrastruktura::Mariuszbot#Mariuszbot</title>
<ellipse fill="none" stroke="black" cx="682.8" cy="-749" rx="196.07" ry="18"/>
<text text-anchor="middle" x="682.8" y="-745.3" font-family="Times,serif" font-size="14.00">Infrastruktura::Mariuszbot#Mariuszbot</text>
</g>
<!-- d33tah&#45;&#45;Infrastruktura::Mariuszbot#Mariuszbot -->
<g id="edge12" class="edge">
<title>d33tah&#45;&#45;Infrastruktura::Mariuszbot#Mariuszbot</title>
<path fill="none" stroke="#0061f2" d="M123.78,-632.86C142.85,-632.86 163.72,-632.86 163.72,-632.86 163.72,-632.86 163.72,-743 163.72,-743 163.72,-743 348.53,-743 497.6,-743"/>
</g>
<!-- Infrastruktura::Domeny#Domeny -->
<g id="node15" class="node">
<title>Infrastruktura::Domeny#Domeny</title>
<ellipse fill="none" stroke="black" cx="682.8" cy="-147" rx="167.07" ry="18"/>
<text text-anchor="middle" x="682.8" y="-143.3" font-family="Times,serif" font-size="14.00">Infrastruktura::Domeny#Domeny</text>
</g>
<!-- d33tah&#45;&#45;Infrastruktura::Domeny#Domeny -->
<g id="edge14" class="edge">
<title>d33tah&#45;&#45;Infrastruktura::Domeny#Domeny</title>
<path fill="none" stroke="#0061f2" d="M128.89,-609.71C160.9,-609.71 202.72,-609.71 202.72,-609.71 202.72,-609.71 202.72,-157.67 202.72,-157.67 202.72,-157.67 406.1,-157.67 548.11,-157.67"/>
</g>
<!-- Infrastruktura::Telegram#HS24: t.me/hsl_info -->
<g id="node16" class="node">
<title>Infrastruktura::Telegram#HS24: t.me/hsl_info</title>
<ellipse fill="none" stroke="black" cx="682.8" cy="-663" rx="231.26" ry="18"/>
<text text-anchor="middle" x="682.8" y="-659.3" font-family="Times,serif" font-size="14.00">Infrastruktura::Telegram#HS24: t.me/hsl_info</text>
</g>
<!-- d33tah&#45;&#45;Infrastruktura::Telegram#HS24: t.me/hsl_info -->
<g id="edge15" class="edge">
<title>d33tah&#45;&#45;Infrastruktura::Telegram#HS24: t.me/hsl_info</title>
<path fill="none" stroke="#0061f2" d="M93.72,-638.49C93.72,-650.14 93.72,-663 93.72,-663 93.72,-663 286.31,-663 451.25,-663"/>
</g>
<!-- Bazy&#45;danych#Grafana -->
<g id="node17" class="node">
<title>Bazy&#45;danych#Grafana</title>
<ellipse fill="none" stroke="black" cx="682.8" cy="-448" rx="114.28" ry="18"/>
<text text-anchor="middle" x="682.8" y="-444.3" font-family="Times,serif" font-size="14.00">Bazy&#45;danych#Grafana</text>
</g>
<!-- d33tah&#45;&#45;Bazy&#45;danych#Grafana -->
<g id="edge16" class="edge">
<title>d33tah&#45;&#45;Bazy&#45;danych#Grafana</title>
<path fill="none" stroke="#0061f2" d="M115.57,-604.57C132.85,-604.57 153.72,-604.57 153.72,-604.57 153.72,-604.57 153.72,-454 153.72,-454 153.72,-454 420.03,-454 574.78,-454"/>
</g>
<!-- Stowarzyszenie#Zarzd -->
<g id="node18" class="node">
<title>Stowarzyszenie#Zarzd</title>
<ellipse fill="none" stroke="black" cx="682.8" cy="-319" rx="123.48" ry="18"/>
<text text-anchor="middle" x="682.8" y="-315.3" font-family="Times,serif" font-size="14.00">Stowarzyszenie#Zarzd</text>
</g>
<!-- d33tah&#45;&#45;Stowarzyszenie#Zarzd -->
<g id="edge17" class="edge">
<title>d33tah&#45;&#45;Stowarzyszenie#Zarzd</title>
<path fill="none" stroke="#0061f2" d="M134.92,-614.86C199.21,-614.86 314.72,-614.86 314.72,-614.86 314.72,-614.86 314.72,-328 314.72,-328 314.72,-328 467.17,-328 575.84,-328"/>
</g>
<!-- Infrastruktura::Github#Github -->
<g id="node19" class="node">
<title>Infrastruktura::Github#Github</title>
<ellipse fill="none" stroke="black" cx="682.8" cy="-706" rx="154.07" ry="18"/>
<text text-anchor="middle" x="682.8" y="-702.3" font-family="Times,serif" font-size="14.00">Infrastruktura::Github#Github</text>
</g>
<!-- d33tah&#45;&#45;Infrastruktura::Github#Github -->
<g id="edge18" class="edge">
<title>d33tah&#45;&#45;Infrastruktura::Github#Github</title>
<path fill="none" stroke="#0061f2" d="M128.83,-630.29C146.78,-630.29 164.72,-630.29 164.72,-630.29 164.72,-630.29 164.72,-700 164.72,-700 164.72,-700 384.2,-700 537.45,-700"/>
</g>
<!-- Kanay&#45;komunikacji# -->
<g id="node20" class="node">
<title>Kanay&#45;komunikacji#</title>
<ellipse fill="none" stroke="black" cx="682.8" cy="-233" rx="108.58" ry="18"/>
<text text-anchor="middle" x="682.8" y="-229.3" font-family="Times,serif" font-size="14.00">Kanay&#45;komunikacji#</text>
</g>
<!-- d33tah&#45;&#45;Kanay&#45;komunikacji# -->
<g id="edge19" class="edge">
<title>d33tah&#45;&#45;Kanay&#45;komunikacji#</title>
<path fill="none" stroke="#0061f2" d="M132.73,-612.29C188.38,-612.29 282.72,-612.29 282.72,-612.29 282.72,-612.29 282.72,-247.25 282.72,-247.25 282.72,-247.25 502.52,-247.25 616.29,-247.25"/>
</g>
<!-- Miejsce::Miejsce#Klucze do spejsu -->
<g id="node21" class="node">
<title>Miejsce::Miejsce#Klucze do spejsu</title>
<ellipse fill="none" stroke="black" cx="682.8" cy="-491" rx="172.77" ry="18"/>
<text text-anchor="middle" x="682.8" y="-487.3" font-family="Times,serif" font-size="14.00">Miejsce::Miejsce#Klucze do spejsu</text>
</g>
<!-- d33tah&#45;&#45;Miejsce::Miejsce#Klucze do spejsu -->
<g id="edge20" class="edge">
<title>d33tah&#45;&#45;Miejsce::Miejsce#Klucze do spejsu</title>
<path fill="none" stroke="#0061f2" d="M123.69,-607.14C138.76,-607.14 153.72,-607.14 153.72,-607.14 153.72,-607.14 153.72,-500 153.72,-500 153.72,-500 376.52,-500 532.96,-500"/>
</g>
<!-- cytP450 -->
<g id="node22" class="node">
<title>cytP450</title>
<ellipse fill="none" stroke="black" cx="92.94" cy="-125" rx="48.99" ry="18"/>
<text text-anchor="middle" x="92.94" y="-121.3" font-family="Times,serif" font-size="14.00">cytP450</text>
</g>
<!-- cytP450&#45;&#45;Infrastruktura::Domeny#Domeny -->
<g id="edge23" class="edge">
<title>cytP450&#45;&#45;Infrastruktura::Domeny#Domeny</title>
<path fill="none" stroke="#c60077" d="M135.84,-133.67C226.17,-133.67 438.53,-133.67 570.48,-133.67"/>
</g>
<!-- cytP450&#45;&#45;Kanay&#45;komunikacji# -->
<g id="edge24" class="edge">
<title>cytP450&#45;&#45;Kanay&#45;komunikacji#</title>
<path fill="none" stroke="#c60077" d="M136.72,-132.94C136.72,-156.1 136.72,-222 136.72,-222 136.72,-222 443.09,-222 596.88,-222"/>
</g>
<!-- cytP450&#45;&#45;Miejsce::Miejsce#Klucze do spejsu -->
<g id="edge21" class="edge">
<title>cytP450&#45;&#45;Miejsce::Miejsce#Klucze do spejsu</title>
<path fill="none" stroke="#c60077" d="M125.84,-138.33C195.75,-138.33 352.72,-138.33 352.72,-138.33 352.72,-138.33 352.72,-477.5 352.72,-477.5 352.72,-477.5 472.95,-477.5 568.28,-477.5"/>
</g>
<!-- Chciejlista#Elektronika (w sensie urzdze konsumenckich) -->
<g id="node23" class="node">
<title>Chciejlista#Elektronika (w sensie urzdze konsumenckich)</title>
<ellipse fill="none" stroke="black" cx="682.8" cy="-104" rx="289.75" ry="18"/>
<text text-anchor="middle" x="682.8" y="-100.3" font-family="Times,serif" font-size="14.00">Chciejlista#Elektronika (w sensie urzdze konsumenckich)</text>
</g>
<!-- cytP450&#45;&#45;Chciejlista#Elektronika (w sensie urzdze konsumenckich) -->
<g id="edge22" class="edge">
<title>cytP450&#45;&#45;Chciejlista#Elektronika (w sensie urzdze konsumenckich)</title>
<path fill="none" stroke="#c60077" d="M136.8,-117C209.22,-117 358.15,-117 482.2,-117"/>
</g>
<!-- Przegld&#45;lokali&#45;na&#45;wynajem&#45;w&#45;odzi.&#45;Fundusz&#45;1000&#45;&#45;&#45;1500.#Bot Aleksego -->
<g id="node24" class="node">
<title>Przegld&#45;lokali&#45;na&#45;wynajem&#45;w&#45;odzi.&#45;Fundusz&#45;1000&#45;&#45;&#45;1500.#Bot Aleksego</title>
<ellipse fill="none" stroke="black" cx="682.8" cy="-61" rx="351.74" ry="18"/>
<text text-anchor="middle" x="682.8" y="-57.3" font-family="Times,serif" font-size="14.00">Przegld&#45;lokali&#45;na&#45;wynajem&#45;w&#45;odzi.&#45;Fundusz&#45;1000&#45;&#45;&#45;1500.#Bot Aleksego</text>
</g>
<!-- cytP450&#45;&#45;Przegld&#45;lokali&#45;na&#45;wynajem&#45;w&#45;odzi.&#45;Fundusz&#45;1000&#45;&#45;&#45;1500.#Bot Aleksego -->
<g id="edge25" class="edge">
<title>cytP450&#45;&#45;Przegld&#45;lokali&#45;na&#45;wynajem&#45;w&#45;odzi.&#45;Fundusz&#45;1000&#45;&#45;&#45;1500.#Bot Aleksego</title>
<path fill="none" stroke="#c60077" d="M126.69,-112C201.1,-112 372.72,-112 372.72,-112 372.72,-112 372.72,-84.5 372.72,-69.88"/>
</g>
<!-- Chciejlista#DIY -->
<g id="node25" class="node">
<title>Chciejlista#DIY</title>
<ellipse fill="none" stroke="black" cx="682.8" cy="-18" rx="83.69" ry="18"/>
<text text-anchor="middle" x="682.8" y="-14.3" font-family="Times,serif" font-size="14.00">Chciejlista#DIY</text>
</g>
<!-- cytP450&#45;&#45;Chciejlista#DIY -->
<g id="edge26" class="edge">
<title>cytP450&#45;&#45;Chciejlista#DIY</title>
<path fill="none" stroke="#c60077" d="M93.72,-106.85C93.72,-76.32 93.72,-18 93.72,-18 93.72,-18 435.95,-18 598.71,-18"/>
</g>
<!-- pmysl -->
<g id="node26" class="node">
<title>pmysl</title>
<ellipse fill="none" stroke="black" cx="92.94" cy="-491" rx="38.19" ry="18"/>
<text text-anchor="middle" x="92.94" y="-487.3" font-family="Times,serif" font-size="14.00">pmysl</text>
</g>
<!-- pmysl&#45;&#45;Bazy&#45;danych#Trello -->
<g id="edge28" class="edge">
<title>pmysl&#45;&#45;Bazy&#45;danych#Trello</title>
<path fill="none" stroke="#b6e400" d="M130.44,-495.5C145.21,-495.5 158.72,-495.5 158.72,-495.5 158.72,-495.5 158.72,-1042.8 158.72,-1042.8 158.72,-1042.8 436.12,-1042.8 587.29,-1042.8"/>
</g>
<!-- pmysl&#45;&#45;Infrastruktura::IRC#IRC -->
<g id="edge29" class="edge">
<title>pmysl&#45;&#45;Infrastruktura::IRC#IRC</title>
<path fill="none" stroke="#b6e400" d="M106.72,-507.94C106.72,-518.62 106.72,-530.4 106.72,-530.4 106.72,-530.4 391.13,-530.4 560.28,-530.4"/>
</g>
<!-- pmysl&#45;&#45;Bazy&#45;danych#Grafana -->
<g id="edge30" class="edge">
<title>pmysl&#45;&#45;Bazy&#45;danych#Grafana</title>
<path fill="none" stroke="#b6e400" d="M106.72,-474.14C106.72,-459.96 106.72,-442 106.72,-442 106.72,-442 407.98,-442 574.78,-442"/>
</g>
<!-- pmysl&#45;&#45;Infrastruktura::Github#Github -->
<g id="edge31" class="edge">
<title>pmysl&#45;&#45;Infrastruktura::Github#Github</title>
<path fill="none" stroke="#b6e400" d="M131.35,-491C148.42,-491 164.72,-491 164.72,-491 164.72,-491 164.72,-694 164.72,-694 164.72,-694 415.19,-694 567.82,-694"/>
</g>
<!-- pmysl&#45;&#45;Kanay&#45;komunikacji# -->
<g id="edge27" class="edge">
<title>pmysl&#45;&#45;Kanay&#45;komunikacji#</title>
<path fill="none" stroke="#b6e400" d="M126.45,-482C176.95,-482 266.72,-482 266.72,-482 266.72,-482 266.72,-243.5 266.72,-243.5 266.72,-243.5 472.43,-243.5 594.56,-243.5"/>
</g>
<!-- pmysl&#45;&#45;Miejsce::Miejsce#Klucze do spejsu -->
<g id="edge33" class="edge">
<title>pmysl&#45;&#45;Miejsce::Miejsce#Klucze do spejsu</title>
<path fill="none" stroke="#b6e400" d="M130.29,-486.5C206.07,-486.5 382.01,-486.5 515.14,-486.5"/>
</g>
<!-- Bazy&#45;danych# -->
<g id="node27" class="node">
<title>Bazy&#45;danych#</title>
<ellipse fill="none" stroke="black" cx="682.8" cy="-405" rx="77.19" ry="18"/>
<text text-anchor="middle" x="682.8" y="-401.3" font-family="Times,serif" font-size="14.00">Bazy&#45;danych#</text>
</g>
<!-- pmysl&#45;&#45;Bazy&#45;danych# -->
<g id="edge32" class="edge">
<title>pmysl&#45;&#45;Bazy&#45;danych#</title>
<path fill="none" stroke="#b6e400" d="M80.72,-473.86C80.72,-450.62 80.72,-412 80.72,-412 80.72,-412 451.89,-412 611.37,-412"/>
</g>
<!-- kszmigiel -->
<g id="node28" class="node">
<title>kszmigiel</title>
<ellipse fill="none" stroke="black" cx="92.94" cy="-835" rx="54.69" ry="18"/>
<text text-anchor="middle" x="92.94" y="-831.3" font-family="Times,serif" font-size="14.00">kszmigiel</text>
</g>
<!-- kszmigiel&#45;&#45;Infrastruktura::Telegram#posty: t.me/hakierspejs_spam -->
<g id="edge34" class="edge">
<title>kszmigiel&#45;&#45;Infrastruktura::Telegram#posty: t.me/hakierspejs_spam</title>
<path fill="none" stroke="#00ffff" d="M138.72,-845.1C138.72,-867.11 138.72,-917.4 138.72,-917.4 138.72,-917.4 270.52,-917.4 404.39,-917.4"/>
</g>
<!-- kszmigiel&#45;&#45;Marketing&#45;i&#45;media&#45;spoecznociowe# -->
<g id="edge36" class="edge">
<title>kszmigiel&#45;&#45;Marketing&#45;i&#45;media&#45;spoecznociowe#</title>
<path fill="none" stroke="#00ffff" d="M147.73,-835C158.07,-835 165.72,-835 165.72,-835 165.72,-835 165.72,-799.2 165.72,-799.2 165.72,-799.2 363.62,-799.2 514.56,-799.2"/>
</g>
<!-- kszmigiel&#45;&#45;Infrastruktura::Telegram#G贸wny: t.me/hakierspejs -->
<g id="edge37" class="edge">
<title>kszmigiel&#45;&#45;Infrastruktura::Telegram#G贸wny: t.me/hakierspejs</title>
<path fill="none" stroke="#00ffff" d="M140.71,-844C210.99,-844 346.71,-844 464.76,-844"/>
</g>
<!-- kszmigiel&#45;&#45;Miejsce::Miejsce#Klucze do spejsu -->
<g id="edge35" class="edge">
<title>kszmigiel&#45;&#45;Miejsce::Miejsce#Klucze do spejsu</title>
<path fill="none" stroke="#00ffff" d="M140.39,-826C148.69,-826 154.72,-826 154.72,-826 154.72,-826 154.72,-504.5 154.72,-504.5 154.72,-504.5 412.9,-504.5 568.22,-504.5"/>
</g>
<!-- Marketing&#45;i&#45;media&#45;spoecznociowe#Naklejki -->
<g id="node29" class="node">
<title>Marketing&#45;i&#45;media&#45;spoecznociowe#Naklejki</title>
<ellipse fill="none" stroke="black" cx="682.8" cy="-878" rx="221.76" ry="18"/>
<text text-anchor="middle" x="682.8" y="-874.3" font-family="Times,serif" font-size="14.00">Marketing&#45;i&#45;media&#45;spoecznociowe#Naklejki</text>
</g>
<!-- kszmigiel&#45;&#45;Marketing&#45;i&#45;media&#45;spoecznociowe#Naklejki -->
<g id="edge38" class="edge">
<title>kszmigiel&#45;&#45;Marketing&#45;i&#45;media&#45;spoecznociowe#Naklejki</title>
<path fill="none" stroke="#00ffff" d="M142.72,-842.53C142.72,-855.47 142.72,-880.57 142.72,-880.57 142.72,-880.57 313.61,-880.57 463.13,-880.57"/>
</g>
<!-- BluRaf -->
<g id="node30" class="node">
<title>BluRaf</title>
<ellipse fill="none" stroke="black" cx="92.94" cy="-878" rx="42.49" ry="18"/>
<text text-anchor="middle" x="92.94" y="-874.3" font-family="Times,serif" font-size="14.00">BluRaf</text>
</g>
<!-- BluRaf&#45;&#45;Bazy&#45;danych#Trello -->
<g id="edge44" class="edge">
<title>BluRaf&#45;&#45;Bazy&#45;danych#Trello</title>
<path fill="none" stroke="#ab00d5" d="M122.68,-890.86C139.71,-890.86 157.72,-890.86 157.72,-890.86 157.72,-890.86 157.72,-1046.4 157.72,-1046.4 157.72,-1046.4 427.87,-1046.4 580.63,-1046.4"/>
</g>
<!-- BluRaf&#45;&#45;Infrastruktura::Telegram#posty: t.me/hakierspejs_spam -->
<g id="edge39" class="edge">
<title>BluRaf&#45;&#45;Infrastruktura::Telegram#posty: t.me/hakierspejs_spam</title>
<path fill="none" stroke="#ab00d5" d="M131.72,-885.28C131.72,-898.39 131.72,-924.6 131.72,-924.6 131.72,-924.6 267.61,-924.6 404.44,-924.6"/>
</g>
<!-- BluRaf&#45;&#45;Marketing&#45;i&#45;media&#45;spoecznociowe# -->
<g id="edge40" class="edge">
<title>BluRaf&#45;&#45;Marketing&#45;i&#45;media&#45;spoecznociowe#</title>
<path fill="none" stroke="#ab00d5" d="M122.53,-865.14C143.05,-865.14 166.72,-865.14 166.72,-865.14 166.72,-865.14 166.72,-802.8 166.72,-802.8 166.72,-802.8 383.39,-802.8 535.95,-802.8"/>
</g>
<!-- BluRaf&#45;&#45;Infrastruktura::Telegram#G贸wny: t.me/hakierspejs -->
<g id="edge42" class="edge">
<title>BluRaf&#45;&#45;Infrastruktura::Telegram#G贸wny: t.me/hakierspejs</title>
<path fill="none" stroke="#ab00d5" d="M134.91,-875.43C228.63,-875.43 446.72,-875.43 446.72,-875.43 446.72,-875.43 446.72,-852.69 446.72,-841.32"/>
</g>
<!-- BluRaf&#45;&#45;Infrastruktura::IRC#IRC -->
<g id="edge43" class="edge">
<title>BluRaf&#45;&#45;Infrastruktura::IRC#IRC</title>
<path fill="none" stroke="#ab00d5" d="M131.36,-870.29C153.79,-870.29 177.72,-870.29 177.72,-870.29 177.72,-870.29 177.72,-544.8 177.72,-544.8 177.72,-544.8 435.47,-544.8 582.71,-544.8"/>
</g>
<!-- Kanay&#45;komunikacji#Mumble -->
<g id="node31" class="node">
<title>Kanay&#45;komunikacji#Mumble</title>
<ellipse fill="none" stroke="black" cx="682.8" cy="-964" rx="146.77" ry="18"/>
<text text-anchor="middle" x="682.8" y="-960.3" font-family="Times,serif" font-size="14.00">Kanay&#45;komunikacji#Mumble</text>
</g>
<!-- BluRaf&#45;&#45;Kanay&#45;komunikacji#Mumble -->
<g id="edge41" class="edge">
<title>BluRaf&#45;&#45;Kanay&#45;komunikacji#Mumble</title>
<path fill="none" stroke="#ab00d5" d="M131.19,-885.71C146.56,-885.71 160.72,-885.71 160.72,-885.71 160.72,-885.71 160.72,-955 160.72,-955 160.72,-955 400.87,-955 555.42,-955"/>
</g>
<!-- Martti25 -->
<g id="node32" class="node">
<title>Martti25</title>
<ellipse fill="none" stroke="black" cx="92.94" cy="-706" rx="51.99" ry="18"/>
<text text-anchor="middle" x="92.94" y="-702.3" font-family="Times,serif" font-size="14.00">Martti25</text>
</g>
<!-- Martti25&#45;&#45;Marketing&#45;i&#45;media&#45;spoecznociowe# -->
<g id="edge45" class="edge">
<title>Martti25&#45;&#45;Marketing&#45;i&#45;media&#45;spoecznociowe#</title>
<path fill="none" stroke="#f29100" d="M131.91,-718C147.9,-718 162.72,-718 162.72,-718 162.72,-718 162.72,-788.4 162.72,-788.4 162.72,-788.4 352.76,-788.4 503.09,-788.4"/>
</g>
<!-- Martti25&#45;&#45;Infrastruktura::Telegram#G贸wny: t.me/hakierspejs -->
<g id="edge47" class="edge">
<title>Martti25&#45;&#45;Infrastruktura::Telegram#G贸wny: t.me/hakierspejs</title>
<path fill="none" stroke="#f29100" d="M142.12,-712C237.58,-712 438.72,-712 438.72,-712 438.72,-712 438.72,-808.71 438.72,-830.62"/>
</g>
<!-- Martti25&#45;&#45;Infrastruktura::Github#Github -->
<g id="edge46" class="edge">
<title>Martti25&#45;&#45;Infrastruktura::Github#Github</title>
<path fill="none" stroke="#f29100" d="M145.03,-706C230.05,-706 401.88,-706 528.52,-706"/>
</g>
<!-- q3k -->
<g id="node33" class="node">
<title>q3k</title>
<ellipse fill="none" stroke="black" cx="92.94" cy="-190" rx="27.9" ry="18"/>
<text text-anchor="middle" x="92.94" y="-186.3" font-family="Times,serif" font-size="14.00">q3k</text>
</g>
<!-- q3k&#45;&#45;Infrastruktura::Domeny#Domeny -->
<g id="edge48" class="edge">
<title>q3k&#45;&#45;Infrastruktura::Domeny#Domeny</title>
<path fill="none" stroke="#00c64f" d="M93.72,-171.56C93.72,-161.2 93.72,-150.33 93.72,-150.33 93.72,-150.33 344.03,-150.33 518.32,-150.33"/>
</g>
<!-- q3k&#45;&#45;Kanay&#45;komunikacji# -->
<g id="edge49" class="edge">
<title>q3k&#45;&#45;Kanay&#45;komunikacji#</title>
<path fill="none" stroke="#00c64f" d="M93.72,-208.13C93.72,-218.31 93.72,-229 93.72,-229 93.72,-229 407.21,-229 576.81,-229"/>
</g>
<!-- Marketing&#45;i&#45;media&#45;spoecznociowe#Logo nr 2 -->
<g id="node34" class="node">
<title>Marketing&#45;i&#45;media&#45;spoecznociowe#Logo nr 2</title>
<ellipse fill="none" stroke="black" cx="682.8" cy="-190" rx="227.46" ry="18"/>
<text text-anchor="middle" x="682.8" y="-186.3" font-family="Times,serif" font-size="14.00">Marketing&#45;i&#45;media&#45;spoecznociowe#Logo nr 2</text>
</g>
<!-- q3k&#45;&#45;Marketing&#45;i&#45;media&#45;spoecznociowe#Logo nr 2 -->
<g id="edge50" class="edge">
<title>q3k&#45;&#45;Marketing&#45;i&#45;media&#45;spoecznociowe#Logo nr 2</title>
<path fill="none" stroke="#00c64f" d="M119.43,-184C180.46,-184 335.88,-184 468.05,-184"/>
</g>
<!-- thinkofher -->
<g id="node35" class="node">
<title>thinkofher</title>
<ellipse fill="none" stroke="black" cx="92.94" cy="-383" rx="59.29" ry="18"/>
<text text-anchor="middle" x="92.94" y="-379.3" font-family="Times,serif" font-size="14.00">thinkofher</text>
</g>
<!-- thinkofher&#45;&#45;Bazy&#45;danych#Trello -->
<g id="edge54" class="edge">
<title>thinkofher&#45;&#45;Bazy&#45;danych#Trello</title>
<path fill="none" stroke="#2e00e4" d="M146.85,-390.5C154.44,-390.5 159.72,-390.5 159.72,-390.5 159.72,-390.5 159.72,-1039.2 159.72,-1039.2 159.72,-1039.2 451.66,-1039.2 599.34,-1039.2"/>
</g>
<!-- thinkofher&#45;&#45;Marketing&#45;i&#45;media&#45;spoecznociowe# -->
<g id="edge53" class="edge">
<title>thinkofher&#45;&#45;Marketing&#45;i&#45;media&#45;spoecznociowe#</title>
<path fill="none" stroke="#2e00e4" d="M128.31,-397.5C165.52,-397.5 218.72,-397.5 218.72,-397.5 218.72,-397.5 218.72,-781.2 218.72,-781.2 218.72,-781.2 400,-781.2 535.96,-781.2"/>
</g>
<!-- thinkofher&#45;&#45;Infrastruktura::IRC#IRC -->
<g id="edge55" class="edge">
<title>thinkofher&#45;&#45;Infrastruktura::IRC#IRC</title>
<path fill="none" stroke="#2e00e4" d="M140.72,-394C140.72,-427.05 140.72,-523.2 140.72,-523.2 140.72,-523.2 426.11,-523.2 582.74,-523.2"/>
</g>
<!-- thinkofher&#45;&#45;Stowarzyszenie#Zarzd -->
<g id="edge58" class="edge">
<title>thinkofher&#45;&#45;Stowarzyszenie#Zarzd</title>
<path fill="none" stroke="#2e00e4" d="M137.09,-371C197.55,-371 298.72,-371 298.72,-371 298.72,-371 298.72,-319 298.72,-319 298.72,-319 446.88,-319 559.16,-319"/>
</g>
<!-- thinkofher&#45;&#45;Kanay&#45;komunikacji# -->
<g id="edge57" class="edge">
<title>thinkofher&#45;&#45;Kanay&#45;komunikacji#</title>
<path fill="none" stroke="#2e00e4" d="M126.02,-368C172.28,-368 250.72,-368 250.72,-368 250.72,-368 250.72,-239.75 250.72,-239.75 250.72,-239.75 454.37,-239.75 582.04,-239.75"/>
</g>
<!-- thinkofher&#45;&#45;Bazy&#45;danych# -->
<g id="edge52" class="edge">
<title>thinkofher&#45;&#45;Bazy&#45;danych#</title>
<path fill="none" stroke="#2e00e4" d="M140.22,-394C246.29,-394 503.19,-394 621.41,-394"/>
</g>
<!-- Infrastruktura::Matrix#hs&#45;ldz:hackerspace.pl -->
<g id="node36" class="node">
<title>Infrastruktura::Matrix#hs&#45;ldz:hackerspace.pl</title>
<ellipse fill="none" stroke="black" cx="682.8" cy="-362" rx="221.76" ry="18"/>
<text text-anchor="middle" x="682.8" y="-358.3" font-family="Times,serif" font-size="14.00">Infrastruktura::Matrix#hs&#45;ldz:hackerspace.pl</text>
</g>
<!-- thinkofher&#45;&#45;Infrastruktura::Matrix#hs&#45;ldz:hackerspace.pl -->
<g id="edge51" class="edge">
<title>thinkofher&#45;&#45;Infrastruktura::Matrix#hs&#45;ldz:hackerspace.pl</title>
<path fill="none" stroke="#2e00e4" d="M148.97,-377C242.79,-377 433.8,-377 560.04,-377"/>
</g>
<!-- Infrastruktura::Matrix#hs&#45;ldz&#45;offtopic:hackerspace.pl -->
<g id="node37" class="node">
<title>Infrastruktura::Matrix#hs&#45;ldz&#45;offtopic:hackerspace.pl</title>
<ellipse fill="none" stroke="black" cx="682.8" cy="-276" rx="258.85" ry="18"/>
<text text-anchor="middle" x="682.8" y="-272.3" font-family="Times,serif" font-size="14.00">Infrastruktura::Matrix#hs&#45;ldz&#45;offtopic:hackerspace.pl</text>
</g>
<!-- thinkofher&#45;&#45;Infrastruktura::Matrix#hs&#45;ldz&#45;offtopic:hackerspace.pl -->
<g id="edge56" class="edge">
<title>thinkofher&#45;&#45;Infrastruktura::Matrix#hs&#45;ldz&#45;offtopic:hackerspace.pl</title>
<path fill="none" stroke="#2e00e4" d="M144.18,-374C241.33,-374 442.72,-374 442.72,-374 442.72,-374 442.72,-304.88 442.72,-282.74"/>
</g>
<!-- gazowany_smalec -->
<g id="node38" class="node">
<title>gazowany_smalec</title>
<ellipse fill="none" stroke="black" cx="92.94" cy="-319" rx="92.88" ry="18"/>
<text text-anchor="middle" x="92.94" y="-315.3" font-family="Times,serif" font-size="14.00">gazowany_smalec</text>
</g>
<!-- gazowany_smalec&#45;&#45;Stowarzyszenie#Zarzd -->
<g id="edge59" class="edge">
<title>gazowany_smalec&#45;&#45;Stowarzyszenie#Zarzd</title>
<path fill="none" stroke="#ff0000" d="M173.72,-310C278.08,-310 460.05,-310 575.81,-310"/>
</g>
<!-- Keij0 -->
<g id="node39" class="node">
<title>Keij0</title>
<ellipse fill="none" stroke="black" cx="92.94" cy="-921" rx="34.39" ry="18"/>
<text text-anchor="middle" x="92.94" y="-917.3" font-family="Times,serif" font-size="14.00">Keij0</text>
</g>
<!-- Keij0&#45;&#45;Marketing&#45;i&#45;media&#45;spoecznociowe# -->
<g id="edge60" class="edge">
<title>Keij0&#45;&#45;Marketing&#45;i&#45;media&#45;spoecznociowe#</title>
<path fill="none" stroke="#2bd500" d="M120.79,-910.2C142.05,-910.2 167.72,-910.2 167.72,-910.2 167.72,-910.2 167.72,-806.4 167.72,-806.4 167.72,-806.4 421.31,-806.4 572.62,-806.4"/>
</g>
<!-- Stowarzyszenie#Komisja Rewizyjna -->
<g id="node40" class="node">
<title>Stowarzyszenie#Komisja Rewizyjna</title>
<ellipse fill="none" stroke="black" cx="682.8" cy="-1007" rx="178.17" ry="18"/>
<text text-anchor="middle" x="682.8" y="-1003.3" font-family="Times,serif" font-size="14.00">Stowarzyszenie#Komisja Rewizyjna</text>
</g>
<!-- Keij0&#45;&#45;Stowarzyszenie#Komisja Rewizyjna -->
<g id="edge61" class="edge">
<title>Keij0&#45;&#45;Stowarzyszenie#Komisja Rewizyjna</title>
<path fill="none" stroke="#2bd500" d="M120.88,-931.8C139.17,-931.8 159.72,-931.8 159.72,-931.8 159.72,-931.8 159.72,-1001 159.72,-1001 159.72,-1001 361.82,-1001 514.78,-1001"/>
</g>
<!-- pzduniak -->
<g id="node41" class="node">
<title>pzduniak</title>
<ellipse fill="none" stroke="black" cx="92.94" cy="-964" rx="52.79" ry="18"/>
<text text-anchor="middle" x="92.94" y="-960.3" font-family="Times,serif" font-size="14.00">pzduniak</text>
</g>
<!-- pzduniak&#45;&#45;Bazy&#45;danych#Trello -->
<g id="edge63" class="edge">
<title>pzduniak&#45;&#45;Bazy&#45;danych#Trello</title>
<path fill="none" stroke="#0061f2" d="M138.61,-973C148.84,-973 156.72,-973 156.72,-973 156.72,-973 156.72,-1050 156.72,-1050 156.72,-1050 425.18,-1050 578.55,-1050"/>
</g>
<!-- pzduniak&#45;&#45;Stowarzyszenie#Komisja Rewizyjna -->
<g id="edge62" class="edge">
<title>pzduniak&#45;&#45;Stowarzyszenie#Komisja Rewizyjna</title>
<path fill="none" stroke="#0061f2" d="M145.82,-964C260.28,-964 520.72,-964 520.72,-964 520.72,-964 520.72,-987.19 520.72,-999.51"/>
</g>
<!-- biniu -->
<g id="node42" class="node">
<title>biniu</title>
<ellipse fill="none" stroke="black" cx="92.94" cy="-749" rx="34.39" ry="18"/>
<text text-anchor="middle" x="92.94" y="-745.3" font-family="Times,serif" font-size="14.00">biniu</text>
</g>
<!-- biniu&#45;&#45;Marketing&#45;i&#45;media&#45;spoecznociowe# -->
<g id="edge64" class="edge">
<title>biniu&#45;&#45;Marketing&#45;i&#45;media&#45;spoecznociowe#</title>
<path fill="none" stroke="#c60077" d="M125.72,-755C143.43,-755 161.72,-755 161.72,-755 161.72,-755 161.72,-792 161.72,-792 161.72,-792 349.37,-792 499.45,-792"/>
</g>
<!-- nikolaad -->
<g id="node43" class="node">
<title>nikolaad</title>
<ellipse fill="none" stroke="black" cx="92.94" cy="-792" rx="50.09" ry="18"/>
<text text-anchor="middle" x="92.94" y="-788.3" font-family="Times,serif" font-size="14.00">nikolaad</text>
</g>
<!-- nikolaad&#45;&#45;Marketing&#45;i&#45;media&#45;spoecznociowe# -->
<g id="edge65" class="edge">
<title>nikolaad&#45;&#45;Marketing&#45;i&#45;media&#45;spoecznociowe#</title>
<path fill="none" stroke="#b6e400" d="M142.22,-795.6C220.79,-795.6 378.3,-795.6 503.13,-795.6"/>
</g>
<!-- kujaw -->
<g id="node44" class="node">
<title>kujaw</title>
<ellipse fill="none" stroke="black" cx="92.94" cy="-254" rx="38.19" ry="18"/>
<text text-anchor="middle" x="92.94" y="-250.3" font-family="Times,serif" font-size="14.00">kujaw</text>
</g>
<!-- kujaw&#45;&#45;Marketing&#45;i&#45;media&#45;spoecznociowe# -->
<g id="edge66" class="edge">
<title>kujaw&#45;&#45;Marketing&#45;i&#45;media&#45;spoecznociowe#</title>
<path fill="none" stroke="#00ffff" d="M123.36,-265C165.02,-265 234.72,-265 234.72,-265 234.72,-265 234.72,-777.6 234.72,-777.6 234.72,-777.6 439.94,-777.6 572.62,-777.6"/>
</g>
<!-- kujaw&#45;&#45;Marketing&#45;i&#45;media&#45;spoecznociowe#Logo nr 2 -->
<g id="edge67" class="edge">
<title>kujaw&#45;&#45;Marketing&#45;i&#45;media&#45;spoecznociowe#Logo nr 2</title>
<path fill="none" stroke="#00ffff" d="M126.72,-245.44C126.72,-229.31 126.72,-196 126.72,-196 126.72,-196 311.64,-196 468.2,-196"/>
</g>
<!-- cytP540 -->
<g id="node45" class="node">
<title>cytP540</title>
<ellipse fill="none" stroke="black" cx="92.94" cy="-1093" rx="48.99" ry="18"/>
<text text-anchor="middle" x="92.94" y="-1089.3" font-family="Times,serif" font-size="14.00">cytP540</text>
</g>
<!-- cytP540&#45;&#45;Bazy&#45;danych#Trello -->
<g id="edge68" class="edge">
<title>cytP540&#45;&#45;Bazy&#45;danych#Trello</title>
<path fill="none" stroke="#ab00d5" d="M141.71,-1093C274.33,-1093 631.72,-1093 631.72,-1093 631.72,-1093 631.72,-1078.24 631.72,-1066.01"/>
</g>
<!-- asweeney -->
<g id="node46" class="node">
<title>asweeney</title>
<ellipse fill="none" stroke="black" cx="92.94" cy="-1050" rx="55.79" ry="18"/>
<text text-anchor="middle" x="92.94" y="-1046.3" font-family="Times,serif" font-size="14.00">asweeney</text>
</g>
<!-- asweeney&#45;&#45;Bazy&#45;danych#Trello -->
<g id="edge69" class="edge">
<title>asweeney&#45;&#45;Bazy&#45;danych#Trello</title>
<path fill="none" stroke="#f29100" d="M144.26,-1057.2C243.06,-1057.2 461.09,-1057.2 587.34,-1057.2"/>
</g>
<!-- ddzieduch -->
<g id="node47" class="node">
<title>ddzieduch</title>
<ellipse fill="none" stroke="black" cx="92.94" cy="-1007" rx="57.69" ry="18"/>
<text text-anchor="middle" x="92.94" y="-1003.3" font-family="Times,serif" font-size="14.00">ddzieduch</text>
</g>
<!-- ddzieduch&#45;&#45;Bazy&#45;danych#Trello -->
<g id="edge70" class="edge">
<title>ddzieduch&#45;&#45;Bazy&#45;danych#Trello</title>
<path fill="none" stroke="#00c64f" d="M147.58,-1013C153.1,-1013 156.72,-1013 156.72,-1013 156.72,-1013 156.72,-1053.6 156.72,-1053.6 156.72,-1053.6 427.76,-1053.6 580.74,-1053.6"/>
</g>
<!-- marti -->
<g id="node48" class="node">
<title>marti</title>
<ellipse fill="none" stroke="black" cx="92.94" cy="-1222" rx="36.29" ry="18"/>
<text text-anchor="middle" x="92.94" y="-1218.3" font-family="Times,serif" font-size="14.00">marti</text>
</g>
<!-- marti&#45;&#45;Bazy&#45;danych#Trello -->
<g id="edge71" class="edge">
<title>marti&#45;&#45;Bazy&#45;danych#Trello</title>
<path fill="none" stroke="#2e00e4" d="M126.15,-1214.5C257.77,-1214.5 735.72,-1214.5 735.72,-1214.5 735.72,-1214.5 735.72,-1106.95 735.72,-1065.77"/>
</g>
<!-- nuke -->
<g id="node49" class="node">
<title>nuke</title>
<ellipse fill="none" stroke="black" cx="92.94" cy="-1179" rx="33.29" ry="18"/>
<text text-anchor="middle" x="92.94" y="-1175.3" font-family="Times,serif" font-size="14.00">nuke</text>
</g>
<!-- nuke&#45;&#45;Bazy&#45;danych#Trello -->
<g id="edge72" class="edge">
<title>nuke&#45;&#45;Bazy&#45;danych#Trello</title>
<path fill="none" stroke="#ff0000" d="M126.4,-1179C251.37,-1179 683.72,-1179 683.72,-1179 683.72,-1179 683.72,-1103.77 683.72,-1068.21"/>
</g>
<!-- tomaszpabich -->
<g id="node50" class="node">
<title>tomaszpabich</title>
<ellipse fill="none" stroke="black" cx="92.94" cy="-1136" rx="74.99" ry="18"/>
<text text-anchor="middle" x="92.94" y="-1132.3" font-family="Times,serif" font-size="14.00">tomaszpabich</text>
</g>
<!-- tomaszpabich&#45;&#45;Bazy&#45;danych#Trello -->
<g id="edge73" class="edge">
<title>tomaszpabich&#45;&#45;Bazy&#45;danych#Trello</title>
<path fill="none" stroke="#2bd500" d="M155.72,-1126.17C155.72,-1105.79 155.72,-1060.8 155.72,-1060.8 155.72,-1060.8 451.05,-1060.8 599.58,-1060.8"/>
</g>
</g>
</svg>
