<?xml version="1.0" encoding="UTF-8" standalone="no"?>
<!DOCTYPE svg PUBLIC "-//W3C//DTD SVG 1.1//EN"
 "http://www.w3.org/Graphics/SVG/1.1/DTD/svg11.dtd">
<!-- Generated by graphviz version 2.43.0 (0)
 -->
<!-- Title: %3 Pages: 1 -->
<svg width="1044pt" height="1290pt"
 viewBox="0.00 0.00 1043.72 1290.00" xmlns="http://www.w3.org/2000/svg" xmlns:xlink="http://www.w3.org/1999/xlink">
<g id="graph0" class="graph" transform="scale(1 1) rotate(0) translate(4 1286)">
<title>%3</title>
<polygon fill="white" stroke="transparent" points="-4,4 -4,-1286 1039.72,-1286 1039.72,4 -4,4"/>
<!-- kpc -->
<g id="node1" class="node">
<title>kpc</title>
<ellipse fill="none" stroke="black" cx="92.94" cy="-1200" rx="27" ry="18"/>
<text text-anchor="middle" x="92.94" y="-1196.3" font-family="Times,serif" font-size="14.00">kpc</text>
</g>
<!-- Bazy&#45;danych#Trello -->
<g id="node2" class="node">
<title>Bazy&#45;danych#Trello</title>
<ellipse fill="none" stroke="black" cx="682.8" cy="-1050" rx="103.98" ry="18"/>
<text text-anchor="middle" x="682.8" y="-1046.3" font-family="Times,serif" font-size="14.00">Bazy&#45;danych#Trello</text>
</g>
<!-- kpc&#45;&#45;Bazy&#45;danych#Trello -->
<g id="edge1" class="edge">
<title>kpc&#45;&#45;Bazy&#45;danych#Trello</title>
<path fill="none" stroke="#ff0000" d="M114.64,-1189C140.63,-1189 180.72,-1189 180.72,-1189 180.72,-1189 180.72,-1063 180.72,-1063 180.72,-1063 472.04,-1063 610.87,-1063"/>
</g>
<!-- Infrastruktura::Telegram#posty: t.me/hakierspejs_spam -->
<g id="node3" class="node">
<title>Infrastruktura::Telegram#posty: t.me/hakierspejs_spam</title>
<ellipse fill="none" stroke="black" cx="682.8" cy="-620" rx="284.05" ry="18"/>
<text text-anchor="middle" x="682.8" y="-616.3" font-family="Times,serif" font-size="14.00">Infrastruktura::Telegram#posty: t.me/hakierspejs_spam</text>
</g>
<!-- kpc&#45;&#45;Infrastruktura::Telegram#posty: t.me/hakierspejs_spam -->
<g id="edge2" class="edge">
<title>kpc&#45;&#45;Infrastruktura::Telegram#posty: t.me/hakierspejs_spam</title>
<path fill="none" stroke="#ff0000" d="M109.1,-1185.5C132.93,-1185.5 174.72,-1185.5 174.72,-1185.5 174.72,-1185.5 174.72,-630.67 174.72,-630.67 174.72,-630.67 318.91,-630.67 453.66,-630.67"/>
</g>
<!-- Czaty&#45;HS#HS: posty wyklte -->
<g id="node4" class="node">
<title>Czaty&#45;HS#HS: posty wyklte</title>
<ellipse fill="none" stroke="black" cx="682.8" cy="-1178" rx="157.87" ry="18"/>
<text text-anchor="middle" x="682.8" y="-1174.3" font-family="Times,serif" font-size="14.00">Czaty&#45;HS#HS: posty wyklte</text>
</g>
<!-- kpc&#45;&#45;Czaty&#45;HS#HS: posty wyklte -->
<g id="edge3" class="edge">
<title>kpc&#45;&#45;Czaty&#45;HS#HS: posty wyklte</title>
<path fill="none" stroke="#ff0000" d="M117.54,-1192.5C197.07,-1192.5 450.16,-1192.5 589.17,-1192.5"/>
</g>
<!-- Infrastruktura::Telegram#Posty wyklte (celowo bez linka) -->
<g id="node5" class="node">
<title>Infrastruktura::Telegram#Posty wyklte (celowo bez linka)</title>
<ellipse fill="none" stroke="black" cx="682.8" cy="-1221" rx="284.05" ry="18"/>
<text text-anchor="middle" x="682.8" y="-1217.3" font-family="Times,serif" font-size="14.00">Infrastruktura::Telegram#Posty wyklte (celowo bez linka)</text>
</g>
<!-- kpc&#45;&#45;Infrastruktura::Telegram#Posty wyklte (celowo bez linka) -->
<g id="edge4" class="edge">
<title>kpc&#45;&#45;Infrastruktura::Telegram#Posty wyklte (celowo bez linka)</title>
<path fill="none" stroke="#ff0000" d="M114.99,-1210.5C170.31,-1210.5 320.01,-1210.5 451.81,-1210.5"/>
</g>
<!-- 51 -->
<g id="node6" class="node">
<title>51</title>
<ellipse fill="none" stroke="black" cx="92.94" cy="-1264" rx="27" ry="18"/>
<text text-anchor="middle" x="92.94" y="-1260.3" font-family="Times,serif" font-size="14.00">51</text>
</g>
<!-- Miejsce::Miejsce#Stan obecny -->
<g id="node7" class="node">
<title>Miejsce::Miejsce#Stan obecny</title>
<ellipse fill="none" stroke="black" cx="682.8" cy="-1264" rx="152.97" ry="18"/>
<text text-anchor="middle" x="682.8" y="-1260.3" font-family="Times,serif" font-size="14.00">Miejsce::Miejsce#Stan obecny</text>
</g>
<!-- 51&#45;&#45;Miejsce::Miejsce#Stan obecny -->
<g id="edge5" class="edge">
<title>51&#45;&#45;Miejsce::Miejsce#Stan obecny</title>
<path fill="none" stroke="#2bd500" d="M120.21,-1264C191.81,-1264 389.33,-1264 530.07,-1264"/>
</g>
<!-- d33tah -->
<g id="node8" class="node">
<title>d33tah</title>
<ellipse fill="none" stroke="black" cx="92.94" cy="-663" rx="43.59" ry="18"/>
<text text-anchor="middle" x="92.94" y="-659.3" font-family="Times,serif" font-size="14.00">d33tah</text>
</g>
<!-- d33tah&#45;&#45;Bazy&#45;danych#Trello -->
<g id="edge14" class="edge">
<title>d33tah&#45;&#45;Bazy&#45;danych#Trello</title>
<path fill="none" stroke="#0061f2" d="M113.71,-678.88C149.44,-678.88 218.72,-678.88 218.72,-678.88 218.72,-678.88 218.72,-1033.75 218.72,-1033.75 218.72,-1033.75 521.42,-1033.75 637.88,-1033.75"/>
</g>
<!-- d33tah&#45;&#45;Infrastruktura::Telegram#posty: t.me/hakierspejs_spam -->
<g id="edge12" class="edge">
<title>d33tah&#45;&#45;Infrastruktura::Telegram#posty: t.me/hakierspejs_spam</title>
<path fill="none" stroke="#0061f2" d="M93.72,-644.56C93.72,-634.2 93.72,-623.33 93.72,-623.33 93.72,-623.33 251.23,-623.33 403.36,-623.33"/>
</g>
<!-- Bazy&#45;danych#Pad -->
<g id="node9" class="node">
<title>Bazy&#45;danych#Pad</title>
<ellipse fill="none" stroke="black" cx="682.8" cy="-706" rx="94.48" ry="18"/>
<text text-anchor="middle" x="682.8" y="-702.3" font-family="Times,serif" font-size="14.00">Bazy&#45;danych#Pad</text>
</g>
<!-- d33tah&#45;&#45;Bazy&#45;danych#Pad -->
<g id="edge6" class="edge">
<title>d33tah&#45;&#45;Bazy&#45;danych#Pad</title>
<path fill="none" stroke="#0061f2" d="M93.72,-681.49C93.72,-693.14 93.72,-706 93.72,-706 93.72,-706 422.07,-706 588.48,-706"/>
</g>
<!-- Bazy&#45;danych#Grafana -->
<g id="node10" class="node">
<title>Bazy&#45;danych#Grafana</title>
<ellipse fill="none" stroke="black" cx="682.8" cy="-1007" rx="114.28" ry="18"/>
<text text-anchor="middle" x="682.8" y="-1003.3" font-family="Times,serif" font-size="14.00">Bazy&#45;danych#Grafana</text>
</g>
<!-- d33tah&#45;&#45;Bazy&#45;danych#Grafana -->
<g id="edge7" class="edge">
<title>d33tah&#45;&#45;Bazy&#45;danych#Grafana</title>
<path fill="none" stroke="#0061f2" d="M121.29,-676.76C162.67,-676.76 234.72,-676.76 234.72,-676.76 234.72,-676.76 234.72,-993.67 234.72,-993.67 234.72,-993.67 477.66,-993.67 605.77,-993.67"/>
</g>
<!-- Infrastruktura::IRC#IRC -->
<g id="node11" class="node">
<title>Infrastruktura::IRC#IRC</title>
<ellipse fill="none" stroke="black" cx="682.8" cy="-663" rx="124.58" ry="18"/>
<text text-anchor="middle" x="682.8" y="-659.3" font-family="Times,serif" font-size="14.00">Infrastruktura::IRC#IRC</text>
</g>
<!-- d33tah&#45;&#45;Infrastruktura::IRC#IRC -->
<g id="edge8" class="edge">
<title>d33tah&#45;&#45;Infrastruktura::IRC#IRC</title>
<path fill="none" stroke="#0061f2" d="M136.8,-664.06C224.84,-664.06 425.95,-664.06 557.97,-664.06"/>
</g>
<!-- Infrastruktura::Github#Github -->
<g id="node12" class="node">
<title>Infrastruktura::Github#Github</title>
<ellipse fill="none" stroke="black" cx="682.8" cy="-749" rx="154.07" ry="18"/>
<text text-anchor="middle" x="682.8" y="-745.3" font-family="Times,serif" font-size="14.00">Infrastruktura::Github#Github</text>
</g>
<!-- d33tah&#45;&#45;Infrastruktura::Github#Github -->
<g id="edge9" class="edge">
<title>d33tah&#45;&#45;Infrastruktura::Github#Github</title>
<path fill="none" stroke="#0061f2" d="M134.95,-668.29C246.85,-668.29 543.72,-668.29 543.72,-668.29 543.72,-668.29 543.72,-721.06 543.72,-741.26"/>
</g>
<!-- Infrastruktura::Telegram#HS24: t.me/hsl_info -->
<g id="node13" class="node">
<title>Infrastruktura::Telegram#HS24: t.me/hsl_info</title>
<ellipse fill="none" stroke="black" cx="682.8" cy="-878" rx="231.26" ry="18"/>
<text text-anchor="middle" x="682.8" y="-874.3" font-family="Times,serif" font-size="14.00">Infrastruktura::Telegram#HS24: t.me/hsl_info</text>
</g>
<!-- d33tah&#45;&#45;Infrastruktura::Telegram#HS24: t.me/hsl_info -->
<g id="edge10" class="edge">
<title>d33tah&#45;&#45;Infrastruktura::Telegram#HS24: t.me/hsl_info</title>
<path fill="none" stroke="#0061f2" d="M126.14,-674.65C188.01,-674.65 314.72,-674.65 314.72,-674.65 314.72,-674.65 314.72,-870.5 314.72,-870.5 314.72,-870.5 389.97,-870.5 472.42,-870.5"/>
</g>
<!-- Miejsce::Miejsce#Klucze do spejsu -->
<g id="node14" class="node">
<title>Miejsce::Miejsce#Klucze do spejsu</title>
<ellipse fill="none" stroke="black" cx="682.8" cy="-491" rx="172.77" ry="18"/>
<text text-anchor="middle" x="682.8" y="-487.3" font-family="Times,serif" font-size="14.00">Miejsce::Miejsce#Klucze do spejsu</text>
</g>
<!-- d33tah&#45;&#45;Miejsce::Miejsce#Klucze do spejsu -->
<g id="edge11" class="edge">
<title>d33tah&#45;&#45;Miejsce::Miejsce#Klucze do spejsu</title>
<path fill="none" stroke="#0061f2" d="M134.68,-657.71C212.45,-657.71 371.72,-657.71 371.72,-657.71 371.72,-657.71 371.72,-494.33 371.72,-494.33 371.72,-494.33 440.07,-494.33 512.7,-494.33"/>
</g>
<!-- Stowarzyszenie#Zarzd -->
<g id="node15" class="node">
<title>Stowarzyszenie#Zarzd</title>
<ellipse fill="none" stroke="black" cx="682.8" cy="-534" rx="123.48" ry="18"/>
<text text-anchor="middle" x="682.8" y="-530.3" font-family="Times,serif" font-size="14.00">Stowarzyszenie#Zarzd</text>
</g>
<!-- d33tah&#45;&#45;Stowarzyszenie#Zarzd -->
<g id="edge13" class="edge">
<title>d33tah&#45;&#45;Stowarzyszenie#Zarzd</title>
<path fill="none" stroke="#0061f2" d="M135.88,-659.82C215.88,-659.82 379.72,-659.82 379.72,-659.82 379.72,-659.82 379.72,-543 379.72,-543 379.72,-543 488.33,-543 575.52,-543"/>
</g>
<!-- Infrastruktura::Domeny#Domeny -->
<g id="node16" class="node">
<title>Infrastruktura::Domeny#Domeny</title>
<ellipse fill="none" stroke="black" cx="682.8" cy="-190" rx="167.07" ry="18"/>
<text text-anchor="middle" x="682.8" y="-186.3" font-family="Times,serif" font-size="14.00">Infrastruktura::Domeny#Domeny</text>
</g>
<!-- d33tah&#45;&#45;Infrastruktura::Domeny#Domeny -->
<g id="edge15" class="edge">
<title>d33tah&#45;&#45;Infrastruktura::Domeny#Domeny</title>
<path fill="none" stroke="#0061f2" d="M113.55,-647.12C173.68,-647.12 344.72,-647.12 344.72,-647.12 344.72,-647.12 344.72,-196 344.72,-196 344.72,-196 437.01,-196 525.14,-196"/>
</g>
<!-- Marketing&#45;i&#45;media&#45;spoecznociowe# -->
<g id="node17" class="node">
<title>Marketing&#45;i&#45;media&#45;spoecznociowe#</title>
<ellipse fill="none" stroke="black" cx="682.8" cy="-276" rx="183.07" ry="18"/>
<text text-anchor="middle" x="682.8" y="-272.3" font-family="Times,serif" font-size="14.00">Marketing&#45;i&#45;media&#45;spoecznociowe#</text>
</g>
<!-- d33tah&#45;&#45;Marketing&#45;i&#45;media&#45;spoecznociowe# -->
<g id="edge16" class="edge">
<title>d33tah&#45;&#45;Marketing&#45;i&#45;media&#45;spoecznociowe#</title>
<path fill="none" stroke="#0061f2" d="M121.4,-649.24C188.26,-649.24 349.72,-649.24 349.72,-649.24 349.72,-649.24 349.72,-290.4 349.72,-290.4 349.72,-290.4 475.8,-290.4 572.82,-290.4"/>
</g>
<!-- Infrastruktura::Telegram#Spacerspejs: t.me/joinchat/UYf2ONtNj21J1DS6 -->
<g id="node18" class="node">
<title>Infrastruktura::Telegram#Spacerspejs: t.me/joinchat/UYf2ONtNj21J1DS6</title>
<ellipse fill="none" stroke="black" cx="682.8" cy="-835" rx="352.84" ry="18"/>
<text text-anchor="middle" x="682.8" y="-831.3" font-family="Times,serif" font-size="14.00">Infrastruktura::Telegram#Spacerspejs: t.me/joinchat/UYf2ONtNj21J1DS6</text>
</g>
<!-- d33tah&#45;&#45;Infrastruktura::Telegram#Spacerspejs: t.me/joinchat/UYf2ONtNj21J1DS6 -->
<g id="edge17" class="edge">
<title>d33tah&#45;&#45;Infrastruktura::Telegram#Spacerspejs: t.me/joinchat/UYf2ONtNj21J1DS6</title>
<path fill="none" stroke="#0061f2" d="M130.08,-672.53C198.09,-672.53 335.72,-672.53 335.72,-672.53 335.72,-672.53 335.72,-808.28 335.72,-831.61"/>
</g>
<!-- Infrastruktura::Mariuszbot#Mariuszbot -->
<g id="node19" class="node">
<title>Infrastruktura::Mariuszbot#Mariuszbot</title>
<ellipse fill="none" stroke="black" cx="682.8" cy="-792" rx="196.07" ry="18"/>
<text text-anchor="middle" x="682.8" y="-788.3" font-family="Times,serif" font-size="14.00">Infrastruktura::Mariuszbot#Mariuszbot</text>
</g>
<!-- d33tah&#45;&#45;Infrastruktura::Mariuszbot#Mariuszbot -->
<g id="edge18" class="edge">
<title>d33tah&#45;&#45;Infrastruktura::Mariuszbot#Mariuszbot</title>
<path fill="none" stroke="#0061f2" d="M132.71,-670.41C236.53,-670.41 507.72,-670.41 507.72,-670.41 507.72,-670.41 507.72,-756.17 507.72,-783.64"/>
</g>
<!-- Infrastruktura::Telegram#G贸wny: t.me/hakierspejs -->
<g id="node20" class="node">
<title>Infrastruktura::Telegram#G贸wny: t.me/hakierspejs</title>
<ellipse fill="none" stroke="black" cx="682.8" cy="-362" rx="251.56" ry="18"/>
<text text-anchor="middle" x="682.8" y="-358.3" font-family="Times,serif" font-size="14.00">Infrastruktura::Telegram#G贸wny: t.me/hakierspejs</text>
</g>
<!-- d33tah&#45;&#45;Infrastruktura::Telegram#G贸wny: t.me/hakierspejs -->
<g id="edge19" class="edge">
<title>d33tah&#45;&#45;Infrastruktura::Telegram#G贸wny: t.me/hakierspejs</title>
<path fill="none" stroke="#0061f2" d="M130.04,-653.47C202.91,-653.47 357.72,-653.47 357.72,-653.47 357.72,-653.47 357.72,-374 357.72,-374 357.72,-374 423.04,-374 495.11,-374"/>
</g>
<!-- Kanay&#45;komunikacji# -->
<g id="node21" class="node">
<title>Kanay&#45;komunikacji#</title>
<ellipse fill="none" stroke="black" cx="682.8" cy="-319" rx="108.58" ry="18"/>
<text text-anchor="middle" x="682.8" y="-315.3" font-family="Times,serif" font-size="14.00">Kanay&#45;komunikacji#</text>
</g>
<!-- d33tah&#45;&#45;Kanay&#45;komunikacji# -->
<g id="edge20" class="edge">
<title>d33tah&#45;&#45;Kanay&#45;komunikacji#</title>
<path fill="none" stroke="#0061f2" d="M126.23,-651.35C196.54,-651.35 353.72,-651.35 353.72,-651.35 353.72,-651.35 353.72,-319 353.72,-319 353.72,-319 478.28,-319 574.14,-319"/>
</g>
<!-- cytP450 -->
<g id="node22" class="node">
<title>cytP450</title>
<ellipse fill="none" stroke="black" cx="92.94" cy="-104" rx="48.99" ry="18"/>
<text text-anchor="middle" x="92.94" y="-100.3" font-family="Times,serif" font-size="14.00">cytP450</text>
</g>
<!-- cytP450&#45;&#45;Miejsce::Miejsce#Klucze do spejsu -->
<g id="edge23" class="edge">
<title>cytP450&#45;&#45;Miejsce::Miejsce#Klucze do spejsu</title>
<path fill="none" stroke="#c60077" d="M132.36,-114.8C152.46,-114.8 172.72,-114.8 172.72,-114.8 172.72,-114.8 172.72,-475.8 172.72,-475.8 172.72,-475.8 443.08,-475.8 590.13,-475.8"/>
</g>
<!-- cytP450&#45;&#45;Infrastruktura::Domeny#Domeny -->
<g id="edge25" class="edge">
<title>cytP450&#45;&#45;Infrastruktura::Domeny#Domeny</title>
<path fill="none" stroke="#c60077" d="M136.72,-111.92C136.72,-131.01 136.72,-178 136.72,-178 136.72,-178 397.03,-178 558.2,-178"/>
</g>
<!-- cytP450&#45;&#45;Kanay&#45;komunikacji# -->
<g id="edge26" class="edge">
<title>cytP450&#45;&#45;Kanay&#45;komunikacji#</title>
<path fill="none" stroke="#c60077" d="M140.9,-107.6C160.97,-107.6 179.72,-107.6 179.72,-107.6 179.72,-107.6 179.72,-304.6 179.72,-304.6 179.72,-304.6 481.43,-304.6 617.55,-304.6"/>
</g>
<!-- Chciejlista#Elektronika (w sensie urzdze konsumenckich) -->
<g id="node23" class="node">
<title>Chciejlista#Elektronika (w sensie urzdze konsumenckich)</title>
<ellipse fill="none" stroke="black" cx="682.8" cy="-104" rx="289.75" ry="18"/>
<text text-anchor="middle" x="682.8" y="-100.3" font-family="Times,serif" font-size="14.00">Chciejlista#Elektronika (w sensie urzdze konsumenckich)</text>
</g>
<!-- cytP450&#45;&#45;Chciejlista#Elektronika (w sensie urzdze konsumenckich) -->
<g id="edge21" class="edge">
<title>cytP450&#45;&#45;Chciejlista#Elektronika (w sensie urzdze konsumenckich)</title>
<path fill="none" stroke="#c60077" d="M140.71,-100.4C198.1,-100.4 299.13,-100.4 398.54,-100.4"/>
</g>
<!-- Chciejlista#DIY -->
<g id="node24" class="node">
<title>Chciejlista#DIY</title>
<ellipse fill="none" stroke="black" cx="682.8" cy="-61" rx="83.69" ry="18"/>
<text text-anchor="middle" x="682.8" y="-57.3" font-family="Times,serif" font-size="14.00">Chciejlista#DIY</text>
</g>
<!-- cytP450&#45;&#45;Chciejlista#DIY -->
<g id="edge22" class="edge">
<title>cytP450&#45;&#45;Chciejlista#DIY</title>
<path fill="none" stroke="#c60077" d="M93.72,-85.51C93.72,-73.86 93.72,-61 93.72,-61 93.72,-61 435.95,-61 598.71,-61"/>
</g>
<!-- Przegld&#45;lokali&#45;na&#45;wynajem&#45;w&#45;odzi.&#45;Fundusz&#45;1000&#45;&#45;&#45;1500.#Bot Aleksego -->
<g id="node25" class="node">
<title>Przegld&#45;lokali&#45;na&#45;wynajem&#45;w&#45;odzi.&#45;Fundusz&#45;1000&#45;&#45;&#45;1500.#Bot Aleksego</title>
<ellipse fill="none" stroke="black" cx="682.8" cy="-18" rx="351.74" ry="18"/>
<text text-anchor="middle" x="682.8" y="-14.3" font-family="Times,serif" font-size="14.00">Przegld&#45;lokali&#45;na&#45;wynajem&#45;w&#45;odzi.&#45;Fundusz&#45;1000&#45;&#45;&#45;1500.#Bot Aleksego</text>
</g>
<!-- cytP450&#45;&#45;Przegld&#45;lokali&#45;na&#45;wynajem&#45;w&#45;odzi.&#45;Fundusz&#45;1000&#45;&#45;&#45;1500.#Bot Aleksego -->
<g id="edge24" class="edge">
<title>cytP450&#45;&#45;Przegld&#45;lokali&#45;na&#45;wynajem&#45;w&#45;odzi.&#45;Fundusz&#45;1000&#45;&#45;&#45;1500.#Bot Aleksego</title>
<path fill="none" stroke="#c60077" d="M131.99,-93.2C211.5,-93.2 384.72,-93.2 384.72,-93.2 384.72,-93.2 384.72,-48.21 384.72,-27.83"/>
</g>
<!-- pmysl -->
<g id="node26" class="node">
<title>pmysl</title>
<ellipse fill="none" stroke="black" cx="92.94" cy="-749" rx="38.19" ry="18"/>
<text text-anchor="middle" x="92.94" y="-745.3" font-family="Times,serif" font-size="14.00">pmysl</text>
</g>
<!-- pmysl&#45;&#45;Bazy&#45;danych#Trello -->
<g id="edge30" class="edge">
<title>pmysl&#45;&#45;Bazy&#45;danych#Trello</title>
<path fill="none" stroke="#b6e400" d="M117.06,-763C135.84,-763 158.72,-763 158.72,-763 158.72,-763 158.72,-1037.25 158.72,-1037.25 158.72,-1037.25 465.14,-1037.25 609.38,-1037.25"/>
</g>
<!-- pmysl&#45;&#45;Bazy&#45;danych#Grafana -->
<g id="edge33" class="edge">
<title>pmysl&#45;&#45;Bazy&#45;danych#Grafana</title>
<path fill="none" stroke="#b6e400" d="M125.02,-759C143.75,-759 163.72,-759 163.72,-759 163.72,-759 163.72,-998.33 163.72,-998.33 163.72,-998.33 431.51,-998.33 582.41,-998.33"/>
</g>
<!-- pmysl&#45;&#45;Infrastruktura::IRC#IRC -->
<g id="edge27" class="edge">
<title>pmysl&#45;&#45;Infrastruktura::IRC#IRC</title>
<path fill="none" stroke="#b6e400" d="M124.92,-739C133.14,-739 139.72,-739 139.72,-739 139.72,-739 139.72,-666.18 139.72,-666.18 139.72,-666.18 399.7,-666.18 559.91,-666.18"/>
</g>
<!-- pmysl&#45;&#45;Infrastruktura::Github#Github -->
<g id="edge31" class="edge">
<title>pmysl&#45;&#45;Infrastruktura::Github#Github</title>
<path fill="none" stroke="#b6e400" d="M131.19,-751C210.27,-751 395.55,-751 529.6,-751"/>
</g>
<!-- pmysl&#45;&#45;Miejsce::Miejsce#Klucze do spejsu -->
<g id="edge29" class="edge">
<title>pmysl&#45;&#45;Miejsce::Miejsce#Klucze do spejsu</title>
<path fill="none" stroke="#b6e400" d="M131.08,-747C208.27,-747 375.72,-747 375.72,-747 375.72,-747 375.72,-501.67 375.72,-501.67 375.72,-501.67 462.07,-501.67 543.19,-501.67"/>
</g>
<!-- pmysl&#45;&#45;Kanay&#45;komunikacji# -->
<g id="edge32" class="edge">
<title>pmysl&#45;&#45;Kanay&#45;komunikacji#</title>
<path fill="none" stroke="#b6e400" d="M129.3,-743C203.77,-743 366.72,-743 366.72,-743 366.72,-743 366.72,-322.6 366.72,-322.6 366.72,-322.6 484.47,-322.6 576.23,-322.6"/>
</g>
<!-- Bazy&#45;danych# -->
<g id="node27" class="node">
<title>Bazy&#45;danych#</title>
<ellipse fill="none" stroke="black" cx="682.8" cy="-964" rx="77.19" ry="18"/>
<text text-anchor="middle" x="682.8" y="-960.3" font-family="Times,serif" font-size="14.00">Bazy&#45;danych#</text>
</g>
<!-- pmysl&#45;&#45;Bazy&#45;danych# -->
<g id="edge28" class="edge">
<title>pmysl&#45;&#45;Bazy&#45;danych#</title>
<path fill="none" stroke="#b6e400" d="M129.33,-755C147.53,-755 165.72,-755 165.72,-755 165.72,-755 165.72,-953 165.72,-953 165.72,-953 484.49,-953 621.46,-953"/>
</g>
<!-- kszmigiel -->
<g id="node28" class="node">
<title>kszmigiel</title>
<ellipse fill="none" stroke="black" cx="92.94" cy="-319" rx="54.69" ry="18"/>
<text text-anchor="middle" x="92.94" y="-315.3" font-family="Times,serif" font-size="14.00">kszmigiel</text>
</g>
<!-- kszmigiel&#45;&#45;Infrastruktura::Telegram#posty: t.me/hakierspejs_spam -->
<g id="edge35" class="edge">
<title>kszmigiel&#45;&#45;Infrastruktura::Telegram#posty: t.me/hakierspejs_spam</title>
<path fill="none" stroke="#00ffff" d="M136.93,-329.8C224.38,-329.8 411.72,-329.8 411.72,-329.8 411.72,-329.8 411.72,-574.34 411.72,-614.46"/>
</g>
<!-- kszmigiel&#45;&#45;Miejsce::Miejsce#Klucze do spejsu -->
<g id="edge34" class="edge">
<title>kszmigiel&#45;&#45;Miejsce::Miejsce#Klucze do spejsu</title>
<path fill="none" stroke="#00ffff" d="M125.95,-333.4C146.76,-333.4 169.72,-333.4 169.72,-333.4 169.72,-333.4 169.72,-478.6 169.72,-478.6 169.72,-478.6 405.39,-478.6 557.29,-478.6"/>
</g>
<!-- kszmigiel&#45;&#45;Marketing&#45;i&#45;media&#45;spoecznociowe# -->
<g id="edge36" class="edge">
<title>kszmigiel&#45;&#45;Marketing&#45;i&#45;media&#45;spoecznociowe#</title>
<path fill="none" stroke="#00ffff" d="M138.72,-309.12C138.72,-295.44 138.72,-272.4 138.72,-272.4 138.72,-272.4 344.66,-272.4 503.14,-272.4"/>
</g>
<!-- kszmigiel&#45;&#45;Infrastruktura::Telegram#G贸wny: t.me/hakierspejs -->
<g id="edge38" class="edge">
<title>kszmigiel&#45;&#45;Infrastruktura::Telegram#G贸wny: t.me/hakierspejs</title>
<path fill="none" stroke="#00ffff" d="M143.2,-326.2C240.19,-326.2 443.72,-326.2 443.72,-326.2 443.72,-326.2 443.72,-346.34 443.72,-356.41"/>
</g>
<!-- Marketing&#45;i&#45;media&#45;spoecznociowe#Naklejki -->
<g id="node29" class="node">
<title>Marketing&#45;i&#45;media&#45;spoecznociowe#Naklejki</title>
<ellipse fill="none" stroke="black" cx="682.8" cy="-233" rx="221.76" ry="18"/>
<text text-anchor="middle" x="682.8" y="-229.3" font-family="Times,serif" font-size="14.00">Marketing&#45;i&#45;media&#45;spoecznociowe#Naklejki</text>
</g>
<!-- kszmigiel&#45;&#45;Marketing&#45;i&#45;media&#45;spoecznociowe#Naklejki -->
<g id="edge37" class="edge">
<title>kszmigiel&#45;&#45;Marketing&#45;i&#45;media&#45;spoecznociowe#Naklejki</title>
<path fill="none" stroke="#00ffff" d="M143.24,-311.8C248.16,-311.8 480.72,-311.8 480.72,-311.8 480.72,-311.8 480.72,-260.28 480.72,-240.56"/>
</g>
<!-- BluRaf -->
<g id="node30" class="node">
<title>BluRaf</title>
<ellipse fill="none" stroke="black" cx="92.94" cy="-598" rx="42.49" ry="18"/>
<text text-anchor="middle" x="92.94" y="-594.3" font-family="Times,serif" font-size="14.00">BluRaf</text>
</g>
<!-- BluRaf&#45;&#45;Bazy&#45;danych#Trello -->
<g id="edge40" class="edge">
<title>BluRaf&#45;&#45;Bazy&#45;danych#Trello</title>
<path fill="none" stroke="#ab00d5" d="M126.43,-609C143.51,-609 160.72,-609 160.72,-609 160.72,-609 160.72,-1035.5 160.72,-1035.5 160.72,-1035.5 482.97,-1035.5 621.12,-1035.5"/>
</g>
<!-- BluRaf&#45;&#45;Infrastruktura::Telegram#posty: t.me/hakierspejs_spam -->
<g id="edge41" class="edge">
<title>BluRaf&#45;&#45;Infrastruktura::Telegram#posty: t.me/hakierspejs_spam</title>
<path fill="none" stroke="#ab00d5" d="M131.64,-605.5C208.02,-605.5 382.2,-605.5 514.46,-605.5"/>
</g>
<!-- BluRaf&#45;&#45;Infrastruktura::IRC#IRC -->
<g id="edge39" class="edge">
<title>BluRaf&#45;&#45;Infrastruktura::IRC#IRC</title>
<path fill="none" stroke="#ab00d5" d="M118.12,-612.5C130.47,-612.5 142.72,-612.5 142.72,-612.5 142.72,-612.5 142.72,-661.94 142.72,-661.94 142.72,-661.94 398.72,-661.94 558.22,-661.94"/>
</g>
<!-- BluRaf&#45;&#45;Marketing&#45;i&#45;media&#45;spoecznociowe# -->
<g id="edge42" class="edge">
<title>BluRaf&#45;&#45;Marketing&#45;i&#45;media&#45;spoecznociowe#</title>
<path fill="none" stroke="#ab00d5" d="M118.93,-583.75C170.91,-583.75 282.72,-583.75 282.72,-583.75 282.72,-583.75 282.72,-286.8 282.72,-286.8 282.72,-286.8 421.92,-286.8 536.1,-286.8"/>
</g>
<!-- BluRaf&#45;&#45;Infrastruktura::Telegram#G贸wny: t.me/hakierspejs -->
<g id="edge43" class="edge">
<title>BluRaf&#45;&#45;Infrastruktura::Telegram#G贸wny: t.me/hakierspejs</title>
<path fill="none" stroke="#ab00d5" d="M127.38,-587.5C185.96,-587.5 298.72,-587.5 298.72,-587.5 298.72,-587.5 298.72,-368 298.72,-368 298.72,-368 366.76,-368 445.57,-368"/>
</g>
<!-- Kanay&#45;komunikacji#Mumble -->
<g id="node31" class="node">
<title>Kanay&#45;komunikacji#Mumble</title>
<ellipse fill="none" stroke="black" cx="682.8" cy="-577" rx="146.77" ry="18"/>
<text text-anchor="middle" x="682.8" y="-573.3" font-family="Times,serif" font-size="14.00">Kanay&#45;komunikacji#Mumble</text>
</g>
<!-- BluRaf&#45;&#45;Kanay&#45;komunikacji#Mumble -->
<g id="edge44" class="edge">
<title>BluRaf&#45;&#45;Kanay&#45;komunikacji#Mumble</title>
<path fill="none" stroke="#ab00d5" d="M132.56,-591.25C226.07,-591.25 462.41,-591.25 592.87,-591.25"/>
</g>
<!-- Martti25 -->
<g id="node32" class="node">
<title>Martti25</title>
<ellipse fill="none" stroke="black" cx="92.94" cy="-362" rx="51.99" ry="18"/>
<text text-anchor="middle" x="92.94" y="-358.3" font-family="Times,serif" font-size="14.00">Martti25</text>
</g>
<!-- Martti25&#45;&#45;Infrastruktura::Github#Github -->
<g id="edge47" class="edge">
<title>Martti25&#45;&#45;Infrastruktura::Github#Github</title>
<path fill="none" stroke="#f29100" d="M144.96,-362C223.35,-362 362.72,-362 362.72,-362 362.72,-362 362.72,-735 362.72,-735 362.72,-735 491.69,-735 585.9,-735"/>
</g>
<!-- Martti25&#45;&#45;Marketing&#45;i&#45;media&#45;spoecznociowe# -->
<g id="edge46" class="edge">
<title>Martti25&#45;&#45;Marketing&#45;i&#45;media&#45;spoecznociowe#</title>
<path fill="none" stroke="#f29100" d="M131.99,-350C144.75,-350 155.72,-350 155.72,-350 155.72,-350 155.72,-276 155.72,-276 155.72,-276 347.08,-276 499.19,-276"/>
</g>
<!-- Martti25&#45;&#45;Infrastruktura::Telegram#G贸wny: t.me/hakierspejs -->
<g id="edge45" class="edge">
<title>Martti25&#45;&#45;Infrastruktura::Telegram#G贸wny: t.me/hakierspejs</title>
<path fill="none" stroke="#f29100" d="M141.97,-356C208.73,-356 332.84,-356 445.34,-356"/>
</g>
<!-- q3k -->
<g id="node33" class="node">
<title>q3k</title>
<ellipse fill="none" stroke="black" cx="92.94" cy="-190" rx="27.9" ry="18"/>
<text text-anchor="middle" x="92.94" y="-186.3" font-family="Times,serif" font-size="14.00">q3k</text>
</g>
<!-- q3k&#45;&#45;Infrastruktura::Domeny#Domeny -->
<g id="edge50" class="edge">
<title>q3k&#45;&#45;Infrastruktura::Domeny#Domeny</title>
<path fill="none" stroke="#00c64f" d="M121,-190C190.77,-190 376.52,-190 515.46,-190"/>
</g>
<!-- q3k&#45;&#45;Kanay&#45;komunikacji# -->
<g id="edge49" class="edge">
<title>q3k&#45;&#45;Kanay&#45;komunikacji#</title>
<path fill="none" stroke="#00c64f" d="M114.08,-202C138.9,-202 176.72,-202 176.72,-202 176.72,-202 176.72,-308.2 176.72,-308.2 176.72,-308.2 451.11,-308.2 595.8,-308.2"/>
</g>
<!-- Marketing&#45;i&#45;media&#45;spoecznociowe#Logo nr 2 -->
<g id="node34" class="node">
<title>Marketing&#45;i&#45;media&#45;spoecznociowe#Logo nr 2</title>
<ellipse fill="none" stroke="black" cx="682.8" cy="-147" rx="227.46" ry="18"/>
<text text-anchor="middle" x="682.8" y="-143.3" font-family="Times,serif" font-size="14.00">Marketing&#45;i&#45;media&#45;spoecznociowe#Logo nr 2</text>
</g>
<!-- q3k&#45;&#45;Marketing&#45;i&#45;media&#45;spoecznociowe#Logo nr 2 -->
<g id="edge48" class="edge">
<title>q3k&#45;&#45;Marketing&#45;i&#45;media&#45;spoecznociowe#Logo nr 2</title>
<path fill="none" stroke="#00c64f" d="M119.52,-184C208.26,-184 488.72,-184 488.72,-184 488.72,-184 488.72,-167.68 488.72,-156.72"/>
</g>
<!-- thinkofher -->
<g id="node35" class="node">
<title>thinkofher</title>
<ellipse fill="none" stroke="black" cx="92.94" cy="-469" rx="59.29" ry="18"/>
<text text-anchor="middle" x="92.94" y="-465.3" font-family="Times,serif" font-size="14.00">thinkofher</text>
</g>
<!-- thinkofher&#45;&#45;Bazy&#45;danych#Trello -->
<g id="edge53" class="edge">
<title>thinkofher&#45;&#45;Bazy&#45;danych#Trello</title>
<path fill="none" stroke="#2e00e4" d="M148.8,-463C175.92,-463 202.72,-463 202.72,-463 202.72,-463 202.72,-1049.5 202.72,-1049.5 202.72,-1049.5 437.44,-1049.5 578.63,-1049.5"/>
</g>
<!-- thinkofher&#45;&#45;Infrastruktura::IRC#IRC -->
<g id="edge51" class="edge">
<title>thinkofher&#45;&#45;Infrastruktura::IRC#IRC</title>
<path fill="none" stroke="#2e00e4" d="M124.83,-484.2C191.75,-484.2 340.72,-484.2 340.72,-484.2 340.72,-484.2 340.72,-655.59 340.72,-655.59 340.72,-655.59 469.38,-655.59 568.89,-655.59"/>
</g>
<!-- thinkofher&#45;&#45;Stowarzyszenie#Zarzd -->
<g id="edge54" class="edge">
<title>thinkofher&#45;&#45;Stowarzyszenie#Zarzd</title>
<path fill="none" stroke="#2e00e4" d="M135.95,-481.4C217.98,-481.4 388.72,-481.4 388.72,-481.4 388.72,-481.4 388.72,-525 388.72,-525 388.72,-525 491.72,-525 575.8,-525"/>
</g>
<!-- thinkofher&#45;&#45;Marketing&#45;i&#45;media&#45;spoecznociowe# -->
<g id="edge55" class="edge">
<title>thinkofher&#45;&#45;Marketing&#45;i&#45;media&#45;spoecznociowe#</title>
<path fill="none" stroke="#2e00e4" d="M125.79,-454C143.89,-454 162.72,-454 162.72,-454 162.72,-454 162.72,-283.2 162.72,-283.2 162.72,-283.2 362.72,-283.2 514.66,-283.2"/>
</g>
<!-- thinkofher&#45;&#45;Kanay&#45;komunikacji# -->
<g id="edge57" class="edge">
<title>thinkofher&#45;&#45;Kanay&#45;komunikacji#</title>
<path fill="none" stroke="#2e00e4" d="M137.37,-457C152.53,-457 165.72,-457 165.72,-457 165.72,-457 165.72,-315.4 165.72,-315.4 165.72,-315.4 424.92,-315.4 576.29,-315.4"/>
</g>
<!-- thinkofher&#45;&#45;Bazy&#45;danych# -->
<g id="edge52" class="edge">
<title>thinkofher&#45;&#45;Bazy&#45;danych#</title>
<path fill="none" stroke="#2e00e4" d="M152.14,-469.5C196.91,-469.5 250.72,-469.5 250.72,-469.5 250.72,-469.5 250.72,-949.5 250.72,-949.5 250.72,-949.5 525.77,-949.5 636.97,-949.5"/>
</g>
<!-- Infrastruktura::Matrix#hs&#45;ldz&#45;offtopic:hackerspace.pl -->
<g id="node36" class="node">
<title>Infrastruktura::Matrix#hs&#45;ldz&#45;offtopic:hackerspace.pl</title>
<ellipse fill="none" stroke="black" cx="682.8" cy="-448" rx="258.85" ry="18"/>
<text text-anchor="middle" x="682.8" y="-444.3" font-family="Times,serif" font-size="14.00">Infrastruktura::Matrix#hs&#45;ldz&#45;offtopic:hackerspace.pl</text>
</g>
<!-- thinkofher&#45;&#45;Infrastruktura::Matrix#hs&#45;ldz&#45;offtopic:hackerspace.pl -->
<g id="edge56" class="edge">
<title>thinkofher&#45;&#45;Infrastruktura::Matrix#hs&#45;ldz&#45;offtopic:hackerspace.pl</title>
<path fill="none" stroke="#2e00e4" d="M144.26,-460C220.64,-460 368.26,-460 489.66,-460"/>
</g>
<!-- Infrastruktura::Matrix#hs&#45;ldz:hackerspace.pl -->
<g id="node37" class="node">
<title>Infrastruktura::Matrix#hs&#45;ldz:hackerspace.pl</title>
<ellipse fill="none" stroke="black" cx="682.8" cy="-405" rx="221.76" ry="18"/>
<text text-anchor="middle" x="682.8" y="-401.3" font-family="Times,serif" font-size="14.00">Infrastruktura::Matrix#hs&#45;ldz:hackerspace.pl</text>
</g>
<!-- thinkofher&#45;&#45;Infrastruktura::Matrix#hs&#45;ldz:hackerspace.pl -->
<g id="edge58" class="edge">
<title>thinkofher&#45;&#45;Infrastruktura::Matrix#hs&#45;ldz:hackerspace.pl</title>
<path fill="none" stroke="#2e00e4" d="M136.72,-456.79C136.72,-440.59 136.72,-414 136.72,-414 136.72,-414 333.37,-414 490.66,-414"/>
</g>
<!-- gazowany_smalec -->
<g id="node38" class="node">
<title>gazowany_smalec</title>
<ellipse fill="none" stroke="black" cx="92.94" cy="-534" rx="92.88" ry="18"/>
<text text-anchor="middle" x="92.94" y="-530.3" font-family="Times,serif" font-size="14.00">gazowany_smalec</text>
</g>
<!-- gazowany_smalec&#45;&#45;Stowarzyszenie#Zarzd -->
<g id="edge59" class="edge">
<title>gazowany_smalec&#45;&#45;Stowarzyszenie#Zarzd</title>
<path fill="none" stroke="#ff0000" d="M186.08,-534C286.8,-534 447.85,-534 559.12,-534"/>
</g>
<!-- Keij0 -->
<g id="node39" class="node">
<title>Keij0</title>
<ellipse fill="none" stroke="black" cx="92.94" cy="-405" rx="34.39" ry="18"/>
<text text-anchor="middle" x="92.94" y="-401.3" font-family="Times,serif" font-size="14.00">Keij0</text>
</g>
<!-- Keij0&#45;&#45;Marketing&#45;i&#45;media&#45;spoecznociowe# -->
<g id="edge60" class="edge">
<title>Keij0&#45;&#45;Marketing&#45;i&#45;media&#45;spoecznociowe#</title>
<path fill="none" stroke="#2bd500" d="M122.82,-396C140.6,-396 159.72,-396 159.72,-396 159.72,-396 159.72,-279.6 159.72,-279.6 159.72,-279.6 351.79,-279.6 503.15,-279.6"/>
</g>
<!-- Stowarzyszenie#Komisja Rewizyjna -->
<g id="node40" class="node">
<title>Stowarzyszenie#Komisja Rewizyjna</title>
<ellipse fill="none" stroke="black" cx="682.8" cy="-921" rx="178.17" ry="18"/>
<text text-anchor="middle" x="682.8" y="-917.3" font-family="Times,serif" font-size="14.00">Stowarzyszenie#Komisja Rewizyjna</text>
</g>
<!-- Keij0&#45;&#45;Stowarzyszenie#Komisja Rewizyjna -->
<g id="edge61" class="edge">
<title>Keij0&#45;&#45;Stowarzyszenie#Komisja Rewizyjna</title>
<path fill="none" stroke="#2bd500" d="M127.69,-405C178.4,-405 266.72,-405 266.72,-405 266.72,-405 266.72,-906.5 266.72,-906.5 266.72,-906.5 454,-906.5 577.27,-906.5"/>
</g>
<!-- pzduniak -->
<g id="node41" class="node">
<title>pzduniak</title>
<ellipse fill="none" stroke="black" cx="92.94" cy="-899" rx="52.79" ry="18"/>
<text text-anchor="middle" x="92.94" y="-895.3" font-family="Times,serif" font-size="14.00">pzduniak</text>
</g>
<!-- pzduniak&#45;&#45;Bazy&#45;danych#Trello -->
<g id="edge62" class="edge">
<title>pzduniak&#45;&#45;Bazy&#45;danych#Trello</title>
<path fill="none" stroke="#0061f2" d="M124.33,-913.5C140.03,-913.5 155.72,-913.5 155.72,-913.5 155.72,-913.5 155.72,-1039 155.72,-1039 155.72,-1039 452.2,-1039 600.45,-1039"/>
</g>
<!-- pzduniak&#45;&#45;Stowarzyszenie#Komisja Rewizyjna -->
<g id="edge63" class="edge">
<title>pzduniak&#45;&#45;Stowarzyszenie#Komisja Rewizyjna</title>
<path fill="none" stroke="#0061f2" d="M134.89,-910C218.39,-910 408.78,-910 541.53,-910"/>
</g>
<!-- biniu -->
<g id="node42" class="node">
<title>biniu</title>
<ellipse fill="none" stroke="black" cx="92.94" cy="-276" rx="34.39" ry="18"/>
<text text-anchor="middle" x="92.94" y="-272.3" font-family="Times,serif" font-size="14.00">biniu</text>
</g>
<!-- biniu&#45;&#45;Marketing&#45;i&#45;media&#45;spoecznociowe# -->
<g id="edge64" class="edge">
<title>biniu&#45;&#45;Marketing&#45;i&#45;media&#45;spoecznociowe#</title>
<path fill="none" stroke="#c60077" d="M124.66,-268.8C196.92,-268.8 378.13,-268.8 514.61,-268.8"/>
</g>
<!-- nikolaad -->
<g id="node43" class="node">
<title>nikolaad</title>
<ellipse fill="none" stroke="black" cx="92.94" cy="-233" rx="50.09" ry="18"/>
<text text-anchor="middle" x="92.94" y="-229.3" font-family="Times,serif" font-size="14.00">nikolaad</text>
</g>
<!-- nikolaad&#45;&#45;Marketing&#45;i&#45;media&#45;spoecznociowe# -->
<g id="edge65" class="edge">
<title>nikolaad&#45;&#45;Marketing&#45;i&#45;media&#45;spoecznociowe#</title>
<path fill="none" stroke="#b6e400" d="M132.72,-244.26C132.72,-253.55 132.72,-265.2 132.72,-265.2 132.72,-265.2 373.16,-265.2 536.11,-265.2"/>
</g>
<!-- kujaw -->
<g id="node44" class="node">
<title>kujaw</title>
<ellipse fill="none" stroke="black" cx="92.94" cy="-147" rx="38.19" ry="18"/>
<text text-anchor="middle" x="92.94" y="-143.3" font-family="Times,serif" font-size="14.00">kujaw</text>
</g>
<!-- kujaw&#45;&#45;Marketing&#45;i&#45;media&#45;spoecznociowe# -->
<g id="edge66" class="edge">
<title>kujaw&#45;&#45;Marketing&#45;i&#45;media&#45;spoecznociowe#</title>
<path fill="none" stroke="#00ffff" d="M129.2,-153C154.12,-153 182.72,-153 182.72,-153 182.72,-153 182.72,-261.6 182.72,-261.6 182.72,-261.6 425.51,-261.6 572.75,-261.6"/>
</g>
<!-- kujaw&#45;&#45;Marketing&#45;i&#45;media&#45;spoecznociowe#Logo nr 2 -->
<g id="edge67" class="edge">
<title>kujaw&#45;&#45;Marketing&#45;i&#45;media&#45;spoecznociowe#Logo nr 2</title>
<path fill="none" stroke="#00ffff" d="M129.4,-141C196.15,-141 342.69,-141 468.22,-141"/>
</g>
<!-- cytP540 -->
<g id="node45" class="node">
<title>cytP540</title>
<ellipse fill="none" stroke="black" cx="92.94" cy="-1028" rx="48.99" ry="18"/>
<text text-anchor="middle" x="92.94" y="-1024.3" font-family="Times,serif" font-size="14.00">cytP540</text>
</g>
<!-- cytP540&#45;&#45;Bazy&#45;danych#Trello -->
<g id="edge68" class="edge">
<title>cytP540&#45;&#45;Bazy&#45;danych#Trello</title>
<path fill="none" stroke="#ab00d5" d="M113.94,-1044.25C188.23,-1044.25 441.84,-1044.25 584.06,-1044.25"/>
</g>
<!-- asweeney -->
<g id="node46" class="node">
<title>asweeney</title>
<ellipse fill="none" stroke="black" cx="92.94" cy="-985" rx="55.79" ry="18"/>
<text text-anchor="middle" x="92.94" y="-981.3" font-family="Times,serif" font-size="14.00">asweeney</text>
</g>
<!-- asweeney&#45;&#45;Bazy&#45;danych#Trello -->
<g id="edge69" class="edge">
<title>asweeney&#45;&#45;Bazy&#45;danych#Trello</title>
<path fill="none" stroke="#f29100" d="M145.72,-991.15C145.72,-1005.99 145.72,-1042.5 145.72,-1042.5 145.72,-1042.5 433.83,-1042.5 588.02,-1042.5"/>
</g>
<!-- ddzieduch -->
<g id="node47" class="node">
<title>ddzieduch</title>
<ellipse fill="none" stroke="black" cx="92.94" cy="-942" rx="57.69" ry="18"/>
<text text-anchor="middle" x="92.94" y="-938.3" font-family="Times,serif" font-size="14.00">ddzieduch</text>
</g>
<!-- ddzieduch&#45;&#45;Bazy&#45;danych#Trello -->
<g id="edge70" class="edge">
<title>ddzieduch&#45;&#45;Bazy&#45;danych#Trello</title>
<path fill="none" stroke="#00c64f" d="M127.24,-956.5C141.03,-956.5 153.72,-956.5 153.72,-956.5 153.72,-956.5 153.72,-1040.75 153.72,-1040.75 153.72,-1040.75 442.48,-1040.75 593.35,-1040.75"/>
</g>
<!-- marti -->
<g id="node48" class="node">
<title>marti</title>
<ellipse fill="none" stroke="black" cx="92.94" cy="-1157" rx="36.29" ry="18"/>
<text text-anchor="middle" x="92.94" y="-1153.3" font-family="Times,serif" font-size="14.00">marti</text>
</g>
<!-- marti&#45;&#45;Bazy&#45;danych#Trello -->
<g id="edge71" class="edge">
<title>marti&#45;&#45;Bazy&#45;danych#Trello</title>
<path fill="none" stroke="#2e00e4" d="M126.09,-1149.5C255.26,-1149.5 717.72,-1149.5 717.72,-1149.5 717.72,-1149.5 717.72,-1095.84 717.72,-1067.33"/>
</g>
<!-- nuke -->
<g id="node49" class="node">
<title>nuke</title>
<ellipse fill="none" stroke="black" cx="92.94" cy="-1114" rx="33.29" ry="18"/>
<text text-anchor="middle" x="92.94" y="-1110.3" font-family="Times,serif" font-size="14.00">nuke</text>
</g>
<!-- nuke&#45;&#45;Bazy&#45;danych#Trello -->
<g id="edge72" class="edge">
<title>nuke&#45;&#45;Bazy&#45;danych#Trello</title>
<path fill="none" stroke="#ff0000" d="M126.46,-1114C246.62,-1114 648.72,-1114 648.72,-1114 648.72,-1114 648.72,-1086.11 648.72,-1067.15"/>
</g>
<!-- tomaszpabich -->
<g id="node50" class="node">
<title>tomaszpabich</title>
<ellipse fill="none" stroke="black" cx="92.94" cy="-1071" rx="74.99" ry="18"/>
<text text-anchor="middle" x="92.94" y="-1067.3" font-family="Times,serif" font-size="14.00">tomaszpabich</text>
</g>
<!-- tomaszpabich&#45;&#45;Bazy&#45;danych#Trello -->
<g id="edge73" class="edge">
<title>tomaszpabich&#45;&#45;Bazy&#45;danych#Trello</title>
<path fill="none" stroke="#2bd500" d="M144.77,-1058C244.36,-1058 463.7,-1058 589.41,-1058"/>
</g>
</g>
</svg>
