<?xml version="1.0" encoding="UTF-8" standalone="no"?>
<!DOCTYPE svg PUBLIC "-//W3C//DTD SVG 1.1//EN"
 "http://www.w3.org/Graphics/SVG/1.1/DTD/svg11.dtd">
<!-- Generated by graphviz version 2.42.4 (0)
 -->
<!-- Pages: 1 -->
<svg width="1001pt" height="1506pt"
 viewBox="0.00 0.00 1000.82 1506.00" xmlns="http://www.w3.org/2000/svg" xmlns:xlink="http://www.w3.org/1999/xlink">
<g id="graph0" class="graph" transform="scale(1 1) rotate(0) translate(4 1502)">
<polygon fill="white" stroke="transparent" points="-4,4 -4,-1502 996.82,-1502 996.82,4 -4,4"/>
<!-- d33tah -->
<g id="node1" class="node">
<title>d33tah</title>
<ellipse fill="none" stroke="black" cx="71.49" cy="-771" rx="43.59" ry="18"/>
<text text-anchor="middle" x="71.49" y="-767.3" font-family="Times,serif" font-size="14.00">d33tah</text>
</g>
<!-- Drzwi&#45;frontowe#Ekran  -->
<g id="node2" class="node">
<title>Drzwi&#45;frontowe#Ekran </title>
<ellipse fill="none" stroke="black" cx="639.91" cy="-792" rx="120.78" ry="18"/>
<text text-anchor="middle" x="639.91" y="-788.3" font-family="Times,serif" font-size="14.00">Drzwi&#45;frontowe#Ekran </text>
</g>
<!-- d33tah&#45;&#45;Drzwi&#45;frontowe#Ekran  -->
<g id="edge1" class="edge">
<title>d33tah&#45;&#45;Drzwi&#45;frontowe#Ekran </title>
<path fill="none" stroke="black" d="M113.75,-775.88C215.38,-775.88 473.36,-775.88 585.96,-775.88"/>
</g>
<!-- Bazy&#45;danych#Grafana -->
<g id="node6" class="node">
<title>Bazy&#45;danych#Grafana</title>
<ellipse fill="none" stroke="black" cx="639.91" cy="-1007" rx="114.28" ry="18"/>
<text text-anchor="middle" x="639.91" y="-1003.3" font-family="Times,serif" font-size="14.00">Bazy&#45;danych#Grafana</text>
</g>
<!-- d33tah&#45;&#45;Bazy&#45;danych#Grafana -->
<g id="edge2" class="edge">
<title>d33tah&#45;&#45;Bazy&#45;danych#Grafana</title>
<path fill="none" stroke="#ff0000" d="M107.11,-781.5C137.33,-781.5 175.82,-781.5 175.82,-781.5 175.82,-781.5 175.82,-1001 175.82,-1001 175.82,-1001 394.86,-1001 531.98,-1001"/>
</g>
<!-- Marketing&#45;i&#45;media&#45;spoecznociowe# -->
<g id="node7" class="node">
<title>Marketing&#45;i&#45;media&#45;spoecznociowe#</title>
<ellipse fill="none" stroke="black" cx="639.91" cy="-448" rx="183.07" ry="18"/>
<text text-anchor="middle" x="639.91" y="-444.3" font-family="Times,serif" font-size="14.00">Marketing&#45;i&#45;media&#45;spoecznociowe#</text>
</g>
<!-- d33tah&#45;&#45;Marketing&#45;i&#45;media&#45;spoecznociowe# -->
<g id="edge3" class="edge">
<title>d33tah&#45;&#45;Marketing&#45;i&#45;media&#45;spoecznociowe#</title>
<path fill="none" stroke="#ff0000" d="M91.46,-755C136.05,-755 239.82,-755 239.82,-755 239.82,-755 239.82,-459.25 239.82,-459.25 239.82,-459.25 381.8,-459.25 496.6,-459.25"/>
</g>
<!-- Infrastruktura::Telegram#G贸wny: t.me/hakierspejs -->
<g id="node8" class="node">
<title>Infrastruktura::Telegram#G贸wny: t.me/hakierspejs</title>
<ellipse fill="none" stroke="black" cx="639.91" cy="-577" rx="251.56" ry="18"/>
<text text-anchor="middle" x="639.91" y="-573.3" font-family="Times,serif" font-size="14.00">Infrastruktura::Telegram#G贸wny: t.me/hakierspejs</text>
</g>
<!-- d33tah&#45;&#45;Infrastruktura::Telegram#G贸wny: t.me/hakierspejs -->
<g id="edge4" class="edge">
<title>d33tah&#45;&#45;Infrastruktura::Telegram#G贸wny: t.me/hakierspejs</title>
<path fill="none" stroke="#ff0000" d="M104,-759C193.66,-759 437.82,-759 437.82,-759 437.82,-759 437.82,-627.02 437.82,-587.84"/>
</g>
<!-- Stowarzyszenie#Zarzd -->
<g id="node9" class="node">
<title>Stowarzyszenie#Zarzd</title>
<ellipse fill="none" stroke="black" cx="639.91" cy="-276" rx="123.48" ry="18"/>
<text text-anchor="middle" x="639.91" y="-272.3" font-family="Times,serif" font-size="14.00">Stowarzyszenie#Zarzd</text>
</g>
<!-- d33tah&#45;&#45;Stowarzyszenie#Zarzd -->
<g id="edge5" class="edge">
<title>d33tah&#45;&#45;Stowarzyszenie#Zarzd</title>
<path fill="none" stroke="#ff0000" d="M114.96,-769.33C173.88,-769.33 271.82,-769.33 271.82,-769.33 271.82,-769.33 271.82,-288 271.82,-288 271.82,-288 438.47,-288 547.5,-288"/>
</g>
<!-- Infrastruktura::Domeny#Domeny -->
<g id="node10" class="node">
<title>Infrastruktura::Domeny#Domeny</title>
<ellipse fill="none" stroke="black" cx="639.91" cy="-1093" rx="167.07" ry="18"/>
<text text-anchor="middle" x="639.91" y="-1089.3" font-family="Times,serif" font-size="14.00">Infrastruktura::Domeny#Domeny</text>
</g>
<!-- d33tah&#45;&#45;Infrastruktura::Domeny#Domeny -->
<g id="edge6" class="edge">
<title>d33tah&#45;&#45;Infrastruktura::Domeny#Domeny</title>
<path fill="none" stroke="#ff0000" d="M115.32,-771.67C116.28,-771.67 116.82,-771.67 116.82,-771.67 116.82,-771.67 116.82,-1087 116.82,-1087 116.82,-1087 328.24,-1087 482.26,-1087"/>
</g>
<!-- Bazy&#45;danych#Trello -->
<g id="node11" class="node">
<title>Bazy&#45;danych#Trello</title>
<ellipse fill="none" stroke="black" cx="639.91" cy="-749" rx="103.98" ry="18"/>
<text text-anchor="middle" x="639.91" y="-745.3" font-family="Times,serif" font-size="14.00">Bazy&#45;danych#Trello</text>
</g>
<!-- d33tah&#45;&#45;Bazy&#45;danych#Trello -->
<g id="edge7" class="edge">
<title>d33tah&#45;&#45;Bazy&#45;danych#Trello</title>
<path fill="none" stroke="#ff0000" d="M112.83,-765C215.66,-765 482.55,-765 592,-765"/>
</g>
<!-- Infrastruktura::Telegram#posty: t.me/hakierspejs_spam -->
<g id="node12" class="node">
<title>Infrastruktura::Telegram#posty: t.me/hakierspejs_spam</title>
<ellipse fill="none" stroke="black" cx="639.91" cy="-491" rx="284.05" ry="18"/>
<text text-anchor="middle" x="639.91" y="-487.3" font-family="Times,serif" font-size="14.00">Infrastruktura::Telegram#posty: t.me/hakierspejs_spam</text>
</g>
<!-- d33tah&#45;&#45;Infrastruktura::Telegram#posty: t.me/hakierspejs_spam -->
<g id="edge8" class="edge">
<title>d33tah&#45;&#45;Infrastruktura::Telegram#posty: t.me/hakierspejs_spam</title>
<path fill="none" stroke="#ff0000" d="M99.03,-757C173.42,-757 372.82,-757 372.82,-757 372.82,-757 372.82,-538.54 372.82,-497.58"/>
</g>
<!-- Kanay&#45;komunikacji# -->
<g id="node13" class="node">
<title>Kanay&#45;komunikacji#</title>
<ellipse fill="none" stroke="black" cx="639.91" cy="-1050" rx="108.58" ry="18"/>
<text text-anchor="middle" x="639.91" y="-1046.3" font-family="Times,serif" font-size="14.00">Kanay&#45;komunikacji#</text>
</g>
<!-- d33tah&#45;&#45;Kanay&#45;komunikacji# -->
<g id="edge9" class="edge">
<title>d33tah&#45;&#45;Kanay&#45;komunikacji#</title>
<path fill="none" stroke="#ff0000" d="M103.24,-783.38C125.7,-783.38 151.82,-783.38 151.82,-783.38 151.82,-783.38 151.82,-1045.5 151.82,-1045.5 151.82,-1045.5 391.12,-1045.5 534.6,-1045.5"/>
</g>
<!-- Infrastruktura::Github#Github -->
<g id="node14" class="node">
<title>Infrastruktura::Github#Github</title>
<ellipse fill="none" stroke="black" cx="639.91" cy="-620" rx="154.07" ry="18"/>
<text text-anchor="middle" x="639.91" y="-616.3" font-family="Times,serif" font-size="14.00">Infrastruktura::Github#Github</text>
</g>
<!-- d33tah&#45;&#45;Infrastruktura::Github#Github -->
<g id="edge10" class="edge">
<title>d33tah&#45;&#45;Infrastruktura::Github#Github</title>
<path fill="none" stroke="#ff0000" d="M108.04,-761C210.97,-761 495.82,-761 495.82,-761 495.82,-761 495.82,-654.01 495.82,-626.42"/>
</g>
<!-- Infrastruktura::Telegram#HS24: t.me/hsl_info -->
<g id="node15" class="node">
<title>Infrastruktura::Telegram#HS24: t.me/hsl_info</title>
<ellipse fill="none" stroke="black" cx="639.91" cy="-964" rx="231.26" ry="18"/>
<text text-anchor="middle" x="639.91" y="-960.3" font-family="Times,serif" font-size="14.00">Infrastruktura::Telegram#HS24: t.me/hsl_info</text>
</g>
<!-- d33tah&#45;&#45;Infrastruktura::Telegram#HS24: t.me/hsl_info -->
<g id="edge11" class="edge">
<title>d33tah&#45;&#45;Infrastruktura::Telegram#HS24: t.me/hsl_info</title>
<path fill="none" stroke="#ff0000" d="M109.84,-779.62C142.38,-779.62 183.82,-779.62 183.82,-779.62 183.82,-779.62 183.82,-964 183.82,-964 183.82,-964 295.63,-964 408.53,-964"/>
</g>
<!-- Bazy&#45;danych#Pad -->
<g id="node16" class="node">
<title>Bazy&#45;danych#Pad</title>
<ellipse fill="none" stroke="black" cx="639.91" cy="-921" rx="94.48" ry="18"/>
<text text-anchor="middle" x="639.91" y="-917.3" font-family="Times,serif" font-size="14.00">Bazy&#45;danych#Pad</text>
</g>
<!-- d33tah&#45;&#45;Bazy&#45;danych#Pad -->
<g id="edge12" class="edge">
<title>d33tah&#45;&#45;Bazy&#45;danych#Pad</title>
<path fill="none" stroke="#ff0000" d="M98.4,-785.25C116.03,-785.25 135.82,-785.25 135.82,-785.25 135.82,-785.25 135.82,-921 135.82,-921 135.82,-921 399.43,-921 545.39,-921"/>
</g>
<!-- Infrastruktura::Mariuszbot#Mariuszbot -->
<g id="node17" class="node">
<title>Infrastruktura::Mariuszbot#Mariuszbot</title>
<ellipse fill="none" stroke="black" cx="639.91" cy="-878" rx="196.07" ry="18"/>
<text text-anchor="middle" x="639.91" y="-874.3" font-family="Times,serif" font-size="14.00">Infrastruktura::Mariuszbot#Mariuszbot</text>
</g>
<!-- d33tah&#45;&#45;Infrastruktura::Mariuszbot#Mariuszbot -->
<g id="edge13" class="edge">
<title>d33tah&#45;&#45;Infrastruktura::Mariuszbot#Mariuszbot</title>
<path fill="none" stroke="#ff0000" d="M90.87,-787.12C104.32,-787.12 119.82,-787.12 119.82,-787.12 119.82,-787.12 119.82,-878 119.82,-878 119.82,-878 296.01,-878 443.29,-878"/>
</g>
<!-- Infrastruktura::IRC#IRC -->
<g id="node18" class="node">
<title>Infrastruktura::IRC#IRC</title>
<ellipse fill="none" stroke="black" cx="639.91" cy="-706" rx="124.58" ry="18"/>
<text text-anchor="middle" x="639.91" y="-702.3" font-family="Times,serif" font-size="14.00">Infrastruktura::IRC#IRC</text>
</g>
<!-- d33tah&#45;&#45;Infrastruktura::IRC#IRC -->
<g id="edge14" class="edge">
<title>d33tah&#45;&#45;Infrastruktura::IRC#IRC</title>
<path fill="none" stroke="#ff0000" d="M110.8,-763C221.48,-763 527.82,-763 527.82,-763 527.82,-763 527.82,-729.59 527.82,-713.93"/>
</g>
<!-- Infrastruktura::Telegram#Spacerspejs: t.me/joinchat/UYf2ONtNj21J1DS6 -->
<g id="node19" class="node">
<title>Infrastruktura::Telegram#Spacerspejs: t.me/joinchat/UYf2ONtNj21J1DS6</title>
<ellipse fill="none" stroke="black" cx="639.91" cy="-835" rx="352.84" ry="18"/>
<text text-anchor="middle" x="639.91" y="-831.3" font-family="Times,serif" font-size="14.00">Infrastruktura::Telegram#Spacerspejs: t.me/joinchat/UYf2ONtNj21J1DS6</text>
</g>
<!-- d33tah&#45;&#45;Infrastruktura::Telegram#Spacerspejs: t.me/joinchat/UYf2ONtNj21J1DS6 -->
<g id="edge15" class="edge">
<title>d33tah&#45;&#45;Infrastruktura::Telegram#Spacerspejs: t.me/joinchat/UYf2ONtNj21J1DS6</title>
<path fill="none" stroke="#ff0000" d="M111.99,-777.75C182.84,-777.75 321.82,-777.75 321.82,-777.75 321.82,-777.75 321.82,-811.31 321.82,-827.04"/>
</g>
<!-- nastpne -->
<g id="node3" class="node">
<title>nastpne</title>
<ellipse fill="none" stroke="black" cx="71.49" cy="-1265" rx="53.09" ry="18"/>
<text text-anchor="middle" x="71.49" y="-1261.3" font-family="Times,serif" font-size="14.00">nastpne</text>
</g>
<!-- spotkanie -->
<g id="node4" class="node">
<title>spotkanie</title>
<ellipse fill="none" stroke="black" cx="71.49" cy="-1308" rx="55.79" ry="18"/>
<text text-anchor="middle" x="71.49" y="-1304.3" font-family="Times,serif" font-size="14.00">spotkanie</text>
</g>
<g id="node5" class="node">
<title></title>
<ellipse fill="none" stroke="#ff0000" cx="71.49" cy="-1351" rx="27" ry="18"/>
</g>
<!-- q3k -->
<g id="node20" class="node">
<title>q3k</title>
<ellipse fill="none" stroke="black" cx="71.49" cy="-1050" rx="27.9" ry="18"/>
<text text-anchor="middle" x="71.49" y="-1046.3" font-family="Times,serif" font-size="14.00">q3k</text>
</g>
<!-- q3k&#45;&#45;Infrastruktura::Domeny#Domeny -->
<g id="edge18" class="edge">
<title>q3k&#45;&#45;Infrastruktura::Domeny#Domeny</title>
<path fill="none" stroke="#2bd500" d="M90.17,-1063.5C172.62,-1063.5 499.82,-1063.5 499.82,-1063.5 499.82,-1063.5 499.82,-1074.45 499.82,-1083.01"/>
</g>
<!-- q3k&#45;&#45;Kanay&#45;komunikacji# -->
<g id="edge16" class="edge">
<title>q3k&#45;&#45;Kanay&#45;komunikacji#</title>
<path fill="none" stroke="#2bd500" d="M98.91,-1054.5C176.47,-1054.5 400.51,-1054.5 534.72,-1054.5"/>
</g>
<!-- Marketing&#45;i&#45;media&#45;spoecznociowe#Logo nr. 2 -->
<g id="node21" class="node">
<title>Marketing&#45;i&#45;media&#45;spoecznociowe#Logo nr. 2</title>
<ellipse fill="none" stroke="black" cx="639.91" cy="-534" rx="229.36" ry="18"/>
<text text-anchor="middle" x="639.91" y="-530.3" font-family="Times,serif" font-size="14.00">Marketing&#45;i&#45;media&#45;spoecznociowe#Logo nr. 2</text>
</g>
<!-- q3k&#45;&#45;Marketing&#45;i&#45;media&#45;spoecznociowe#Logo nr. 2 -->
<g id="edge17" class="edge">
<title>q3k&#45;&#45;Marketing&#45;i&#45;media&#45;spoecznociowe#Logo nr. 2</title>
<path fill="none" stroke="#2bd500" d="M89.98,-1036.5C140.97,-1036.5 279.82,-1036.5 279.82,-1036.5 279.82,-1036.5 279.82,-534 279.82,-534 279.82,-534 339.54,-534 410.33,-534"/>
</g>
<!-- thinkofher -->
<g id="node22" class="node">
<title>thinkofher</title>
<ellipse fill="none" stroke="black" cx="71.49" cy="-663" rx="59.29" ry="18"/>
<text text-anchor="middle" x="71.49" y="-659.3" font-family="Times,serif" font-size="14.00">thinkofher</text>
</g>
<!-- thinkofher&#45;&#45;Marketing&#45;i&#45;media&#45;spoecznociowe# -->
<g id="edge19" class="edge">
<title>thinkofher&#45;&#45;Marketing&#45;i&#45;media&#45;spoecznociowe#</title>
<path fill="none" stroke="#0061f2" d="M115.73,-651C163.19,-651 231.82,-651 231.82,-651 231.82,-651 231.82,-457 231.82,-457 231.82,-457 366.38,-457 480.96,-457"/>
</g>
<!-- thinkofher&#45;&#45;Infrastruktura::Telegram#G贸wny: t.me/hakierspejs -->
<g id="edge20" class="edge">
<title>thinkofher&#45;&#45;Infrastruktura::Telegram#G贸wny: t.me/hakierspejs</title>
<path fill="none" stroke="#0061f2" d="M127.48,-657C224.31,-657 412.82,-657 412.82,-657 412.82,-657 412.82,-605.2 412.82,-584.96"/>
</g>
<!-- thinkofher&#45;&#45;Kanay&#45;komunikacji# -->
<g id="edge21" class="edge">
<title>thinkofher&#45;&#45;Kanay&#45;komunikacji#</title>
<path fill="none" stroke="#0061f2" d="M127.44,-669C144.96,-669 159.82,-669 159.82,-669 159.82,-669 159.82,-1041 159.82,-1041 159.82,-1041 405.82,-1041 545.63,-1041"/>
</g>
<!-- thinkofher&#45;&#45;Infrastruktura::Github#Github -->
<g id="edge22" class="edge">
<title>thinkofher&#45;&#45;Infrastruktura::Github#Github</title>
<path fill="none" stroke="#0061f2" d="M120.82,-652.81C120.82,-643.38 120.82,-630.8 120.82,-630.8 120.82,-630.8 363.05,-630.8 516.56,-630.8"/>
</g>
<!-- thinkofher&#45;&#45;Infrastruktura::IRC#IRC -->
<g id="edge23" class="edge">
<title>thinkofher&#45;&#45;Infrastruktura::IRC#IRC</title>
<path fill="none" stroke="#0061f2" d="M122.82,-672.29C122.82,-682.36 122.82,-697 122.82,-697 122.82,-697 380.24,-697 531.82,-697"/>
</g>
<!-- Bazy&#45;danych# -->
<g id="node23" class="node">
<title>Bazy&#45;danych#</title>
<ellipse fill="none" stroke="black" cx="639.91" cy="-663" rx="77.19" ry="18"/>
<text text-anchor="middle" x="639.91" y="-659.3" font-family="Times,serif" font-size="14.00">Bazy&#45;danych#</text>
</g>
<!-- thinkofher&#45;&#45;Bazy&#45;danych# -->
<g id="edge24" class="edge">
<title>thinkofher&#45;&#45;Bazy&#45;danych#</title>
<path fill="none" stroke="#0061f2" d="M130.72,-663C234.07,-663 447.33,-663 562.33,-663"/>
</g>
<!-- cytP450 -->
<g id="node24" class="node">
<title>cytP450</title>
<ellipse fill="none" stroke="black" cx="71.49" cy="-1222" rx="48.99" ry="18"/>
<text text-anchor="middle" x="71.49" y="-1218.3" font-family="Times,serif" font-size="14.00">cytP450</text>
</g>
<!-- cytP450&#45;&#45;Infrastruktura::Domeny#Domeny -->
<g id="edge26" class="edge">
<title>cytP450&#45;&#45;Infrastruktura::Domeny#Domeny</title>
<path fill="none" stroke="#c60077" d="M113.98,-1213C183.48,-1213 313.82,-1213 313.82,-1213 313.82,-1213 313.82,-1099 313.82,-1099 313.82,-1099 398.89,-1099 482.12,-1099"/>
</g>
<!-- cytP450&#45;&#45;Kanay&#45;komunikacji# -->
<g id="edge28" class="edge">
<title>cytP450&#45;&#45;Kanay&#45;komunikacji#</title>
<path fill="none" stroke="#c60077" d="M103.86,-1208.5C167.08,-1208.5 300.82,-1208.5 300.82,-1208.5 300.82,-1208.5 300.82,-1059 300.82,-1059 300.82,-1059 445.55,-1059 545.9,-1059"/>
</g>
<!-- Przegld&#45;lokali&#45;na&#45;wynajem&#45;w&#45;odzi.&#45;Fundusz&#45;1000&#45;&#45;&#45;1500.#Bot Aleksego -->
<g id="node25" class="node">
<title>Przegld&#45;lokali&#45;na&#45;wynajem&#45;w&#45;odzi.&#45;Fundusz&#45;1000&#45;&#45;&#45;1500.#Bot Aleksego</title>
<ellipse fill="none" stroke="black" cx="639.91" cy="-1308" rx="351.74" ry="18"/>
<text text-anchor="middle" x="639.91" y="-1304.3" font-family="Times,serif" font-size="14.00">Przegld&#45;lokali&#45;na&#45;wynajem&#45;w&#45;odzi.&#45;Fundusz&#45;1000&#45;&#45;&#45;1500.#Bot Aleksego</text>
</g>
<!-- cytP450&#45;&#45;Przegld&#45;lokali&#45;na&#45;wynajem&#45;w&#45;odzi.&#45;Fundusz&#45;1000&#45;&#45;&#45;1500.#Bot Aleksego -->
<g id="edge25" class="edge">
<title>cytP450&#45;&#45;Przegld&#45;lokali&#45;na&#45;wynajem&#45;w&#45;odzi.&#45;Fundusz&#45;1000&#45;&#45;&#45;1500.#Bot Aleksego</title>
<path fill="none" stroke="#c60077" d="M103.96,-1235.5C172.53,-1235.5 325.82,-1235.5 325.82,-1235.5 325.82,-1235.5 325.82,-1280.64 325.82,-1299.68"/>
</g>
<!-- Chciejlista#Elektronika (w sensie urzdze konsumenckich) -->
<g id="node26" class="node">
<title>Chciejlista#Elektronika (w sensie urzdze konsumenckich)</title>
<ellipse fill="none" stroke="black" cx="639.91" cy="-1265" rx="289.75" ry="18"/>
<text text-anchor="middle" x="639.91" y="-1261.3" font-family="Times,serif" font-size="14.00">Chciejlista#Elektronika (w sensie urzdze konsumenckich)</text>
</g>
<!-- cytP450&#45;&#45;Chciejlista#Elektronika (w sensie urzdze konsumenckich) -->
<g id="edge27" class="edge">
<title>cytP450&#45;&#45;Chciejlista#Elektronika (w sensie urzdze konsumenckich)</title>
<path fill="none" stroke="#c60077" d="M113.72,-1231C198.16,-1231 379.82,-1231 379.82,-1231 379.82,-1231 379.82,-1246.71 379.82,-1256.77"/>
</g>
<!-- Chciejlista#DIY -->
<g id="node27" class="node">
<title>Chciejlista#DIY</title>
<ellipse fill="none" stroke="black" cx="639.91" cy="-1222" rx="83.69" ry="18"/>
<text text-anchor="middle" x="639.91" y="-1218.3" font-family="Times,serif" font-size="14.00">Chciejlista#DIY</text>
</g>
<!-- cytP450&#45;&#45;Chciejlista#DIY -->
<g id="edge29" class="edge">
<title>cytP450&#45;&#45;Chciejlista#DIY</title>
<path fill="none" stroke="#c60077" d="M118.98,-1226.5C215.97,-1226.5 437.81,-1226.5 558.34,-1226.5"/>
</g>
<!-- Stowarzyszenie#Komisja Rewizyjna -->
<g id="node28" class="node">
<title>Stowarzyszenie#Komisja Rewizyjna</title>
<ellipse fill="none" stroke="black" cx="639.91" cy="-1136" rx="178.17" ry="18"/>
<text text-anchor="middle" x="639.91" y="-1132.3" font-family="Times,serif" font-size="14.00">Stowarzyszenie#Komisja Rewizyjna</text>
</g>
<!-- cytP450&#45;&#45;Stowarzyszenie#Komisja Rewizyjna -->
<g id="edge30" class="edge">
<title>cytP450&#45;&#45;Stowarzyszenie#Komisja Rewizyjna</title>
<path fill="none" stroke="#c60077" d="M120.5,-1222C234.88,-1222 509.82,-1222 509.82,-1222 509.82,-1222 509.82,-1172.1 509.82,-1148.32"/>
</g>
<!-- Zamek#Zamek -->
<g id="node29" class="node">
<title>Zamek#Zamek</title>
<ellipse fill="none" stroke="black" cx="639.91" cy="-1179" rx="81.49" ry="18"/>
<text text-anchor="middle" x="639.91" y="-1175.3" font-family="Times,serif" font-size="14.00">Zamek#Zamek</text>
</g>
<!-- cytP450&#45;&#45;Zamek#Zamek -->
<g id="edge31" class="edge">
<title>cytP450&#45;&#45;Zamek#Zamek</title>
<path fill="none" stroke="#c60077" d="M118.8,-1217.5C195.33,-1217.5 337.82,-1217.5 337.82,-1217.5 337.82,-1217.5 337.82,-1179 337.82,-1179 337.82,-1179 469.08,-1179 558.56,-1179"/>
</g>
<!-- pmysl -->
<g id="node30" class="node">
<title>pmysl</title>
<ellipse fill="none" stroke="black" cx="71.49" cy="-814" rx="38.19" ry="18"/>
<text text-anchor="middle" x="71.49" y="-810.3" font-family="Times,serif" font-size="14.00">pmysl</text>
</g>
<!-- pmysl&#45;&#45;Bazy&#45;danych#Grafana -->
<g id="edge32" class="edge">
<title>pmysl&#45;&#45;Bazy&#45;danych#Grafana</title>
<path fill="none" stroke="#b6e400" d="M106.82,-821.08C106.82,-856.53 106.82,-1013 106.82,-1013 106.82,-1013 376.26,-1013 532.03,-1013"/>
</g>
<!-- pmysl&#45;&#45;Kanay&#45;komunikacji# -->
<g id="edge33" class="edge">
<title>pmysl&#45;&#45;Kanay&#45;komunikacji#</title>
<path fill="none" stroke="#b6e400" d="M103.82,-823.84C103.82,-868.5 103.82,-1050 103.82,-1050 103.82,-1050 374.41,-1050 531.1,-1050"/>
</g>
<!-- pmysl&#45;&#45;Infrastruktura::Github#Github -->
<g id="edge34" class="edge">
<title>pmysl&#45;&#45;Infrastruktura::Github#Github</title>
<path fill="none" stroke="#b6e400" d="M106.67,-806.5C210.07,-806.5 505.82,-806.5 505.82,-806.5 505.82,-806.5 505.82,-666.25 505.82,-629"/>
</g>
<!-- pmysl&#45;&#45;Infrastruktura::IRC#IRC -->
<g id="edge35" class="edge">
<title>pmysl&#45;&#45;Infrastruktura::IRC#IRC</title>
<path fill="none" stroke="#b6e400" d="M94.33,-799.5C106.43,-799.5 118.82,-799.5 118.82,-799.5 118.82,-799.5 118.82,-715 118.82,-715 118.82,-715 378.95,-715 531.62,-715"/>
</g>
<!-- pmysl&#45;&#45;Bazy&#45;danych# -->
<g id="edge36" class="edge">
<title>pmysl&#45;&#45;Bazy&#45;danych#</title>
<path fill="none" stroke="#b6e400" d="M102.12,-803C194.14,-803 461.82,-803 461.82,-803 461.82,-803 461.82,-675 461.82,-675 461.82,-675 530.09,-675 582.09,-675"/>
</g>
<!-- kpc -->
<g id="node31" class="node">
<title>kpc</title>
<ellipse fill="none" stroke="black" cx="71.49" cy="-448" rx="27" ry="18"/>
<text text-anchor="middle" x="71.49" y="-444.3" font-family="Times,serif" font-size="14.00">kpc</text>
</g>
<!-- kpc&#45;&#45;Marketing&#45;i&#45;media&#45;spoecznociowe# -->
<g id="edge37" class="edge">
<title>kpc&#45;&#45;Marketing&#45;i&#45;media&#45;spoecznociowe#</title>
<path fill="none" stroke="#00ffff" d="M98.53,-445.75C162.34,-445.75 326.84,-445.75 457.89,-445.75"/>
</g>
<!-- kpc&#45;&#45;Infrastruktura::Telegram#posty: t.me/hakierspejs_spam -->
<g id="edge38" class="edge">
<title>kpc&#45;&#45;Infrastruktura::Telegram#posty: t.me/hakierspejs_spam</title>
<path fill="none" stroke="#00ffff" d="M89.5,-461.5C157.92,-461.5 397.82,-461.5 397.82,-461.5 397.82,-461.5 397.82,-472.74 397.82,-481.34"/>
</g>
<!-- kpc&#45;&#45;Stowarzyszenie#Komisja Rewizyjna -->
<g id="edge40" class="edge">
<title>kpc&#45;&#45;Stowarzyszenie#Komisja Rewizyjna</title>
<path fill="none" stroke="#00ffff" d="M84.75,-463.75C125.75,-463.75 247.82,-463.75 247.82,-463.75 247.82,-463.75 247.82,-1125.2 247.82,-1125.2 247.82,-1125.2 385.14,-1125.2 497.25,-1125.2"/>
</g>
<!-- Infrastruktura::Telegram#Posty wyklte (celowo bez linka) -->
<g id="node32" class="node">
<title>Infrastruktura::Telegram#Posty wyklte (celowo bez linka)</title>
<ellipse fill="none" stroke="black" cx="639.91" cy="-362" rx="284.05" ry="18"/>
<text text-anchor="middle" x="639.91" y="-358.3" font-family="Times,serif" font-size="14.00">Infrastruktura::Telegram#Posty wyklte (celowo bez linka)</text>
</g>
<!-- kpc&#45;&#45;Infrastruktura::Telegram#Posty wyklte (celowo bez linka) -->
<g id="edge39" class="edge">
<title>kpc&#45;&#45;Infrastruktura::Telegram#Posty wyklte (celowo bez linka)</title>
<path fill="none" stroke="#00ffff" d="M96.74,-441.25C169.89,-441.25 376.82,-441.25 376.82,-441.25 376.82,-441.25 376.82,-388.43 376.82,-369.03"/>
</g>
<!-- Czaty&#45;HS#HS: posty wyklte -->
<g id="node33" class="node">
<title>Czaty&#45;HS#HS: posty wyklte</title>
<ellipse fill="none" stroke="black" cx="639.91" cy="-319" rx="157.87" ry="18"/>
<text text-anchor="middle" x="639.91" y="-315.3" font-family="Times,serif" font-size="14.00">Czaty&#45;HS#HS: posty wyklte</text>
</g>
<!-- kpc&#45;&#45;Czaty&#45;HS#HS: posty wyklte -->
<g id="edge41" class="edge">
<title>kpc&#45;&#45;Czaty&#45;HS#HS: posty wyklte</title>
<path fill="none" stroke="#00ffff" d="M92.8,-436.75C131.14,-436.75 207.82,-436.75 207.82,-436.75 207.82,-436.75 207.82,-325 207.82,-325 207.82,-325 365.97,-325 490.91,-325"/>
</g>
<!-- Miejsce::Miejsce#Klucze do spejsu -->
<g id="node34" class="node">
<title>Miejsce::Miejsce#Klucze do spejsu</title>
<ellipse fill="none" stroke="black" cx="639.91" cy="-147" rx="172.77" ry="18"/>
<text text-anchor="middle" x="639.91" y="-143.3" font-family="Times,serif" font-size="14.00">Miejsce::Miejsce#Klucze do spejsu</text>
</g>
<!-- kpc&#45;&#45;Miejsce::Miejsce#Klucze do spejsu -->
<g id="edge42" class="edge">
<title>kpc&#45;&#45;Miejsce::Miejsce#Klucze do spejsu</title>
<path fill="none" stroke="#00ffff" d="M84.71,-432.25C128.17,-432.25 263.82,-432.25 263.82,-432.25 263.82,-432.25 263.82,-157.8 263.82,-157.8 263.82,-157.8 394.24,-157.8 501.47,-157.8"/>
</g>
<!-- BluRaf -->
<g id="node35" class="node">
<title>BluRaf</title>
<ellipse fill="none" stroke="black" cx="71.49" cy="-706" rx="42.49" ry="18"/>
<text text-anchor="middle" x="71.49" y="-702.3" font-family="Times,serif" font-size="14.00">BluRaf</text>
</g>
<!-- BluRaf&#45;&#45;Infrastruktura::IRC#IRC -->
<g id="edge43" class="edge">
<title>BluRaf&#45;&#45;Infrastruktura::IRC#IRC</title>
<path fill="none" stroke="#ab00d5" d="M113.75,-706C197.56,-706 387.71,-706 514.96,-706"/>
</g>
<!-- kujaw -->
<g id="node36" class="node">
<title>kujaw</title>
<ellipse fill="none" stroke="black" cx="71.49" cy="-405" rx="38.19" ry="18"/>
<text text-anchor="middle" x="71.49" y="-401.3" font-family="Times,serif" font-size="14.00">kujaw</text>
</g>
<!-- kujaw&#45;&#45;Marketing&#45;i&#45;media&#45;spoecznociowe# -->
<g id="edge44" class="edge">
<title>kujaw&#45;&#45;Marketing&#45;i&#45;media&#45;spoecznociowe#</title>
<path fill="none" stroke="#f29100" d="M102.82,-415.52C102.82,-426.92 102.82,-443.5 102.82,-443.5 102.82,-443.5 305.79,-443.5 462.18,-443.5"/>
</g>
<!-- kujaw&#45;&#45;Stowarzyszenie#Zarzd -->
<g id="edge45" class="edge">
<title>kujaw&#45;&#45;Stowarzyszenie#Zarzd</title>
<path fill="none" stroke="#f29100" d="M110,-405C147.8,-405 199.82,-405 199.82,-405 199.82,-405 199.82,-282 199.82,-282 199.82,-282 393.04,-282 523.42,-282"/>
</g>
<!-- kujaw&#45;&#45;Marketing&#45;i&#45;media&#45;spoecznociowe#Logo nr. 2 -->
<g id="edge46" class="edge">
<title>kujaw&#45;&#45;Marketing&#45;i&#45;media&#45;spoecznociowe#Logo nr. 2</title>
<path fill="none" stroke="#f29100" d="M107.67,-399C111.94,-399 114.82,-399 114.82,-399 114.82,-399 114.82,-525 114.82,-525 114.82,-525 292.4,-525 441.02,-525"/>
</g>
<!-- kujaw&#45;&#45;Miejsce::Miejsce#Klucze do spejsu -->
<g id="edge48" class="edge">
<title>kujaw&#45;&#45;Miejsce::Miejsce#Klucze do spejsu</title>
<path fill="none" stroke="#f29100" d="M100.14,-393C128.53,-393 167.82,-393 167.82,-393 167.82,-393 167.82,-150.6 167.82,-150.6 167.82,-150.6 335.07,-150.6 470.47,-150.6"/>
</g>
<!-- Marketing&#45;i&#45;media&#45;spoecznociowe#Naklejki -->
<g id="node37" class="node">
<title>Marketing&#45;i&#45;media&#45;spoecznociowe#Naklejki</title>
<ellipse fill="none" stroke="black" cx="639.91" cy="-405" rx="221.76" ry="18"/>
<text text-anchor="middle" x="639.91" y="-401.3" font-family="Times,serif" font-size="14.00">Marketing&#45;i&#45;media&#45;spoecznociowe#Naklejki</text>
</g>
<!-- kujaw&#45;&#45;Marketing&#45;i&#45;media&#45;spoecznociowe#Naklejki -->
<g id="edge47" class="edge">
<title>kujaw&#45;&#45;Marketing&#45;i&#45;media&#45;spoecznociowe#Naklejki</title>
<path fill="none" stroke="#f29100" d="M107.92,-411C172.42,-411 311.23,-411 430.88,-411"/>
</g>
<!-- Polimerek -->
<g id="node38" class="node">
<title>Polimerek</title>
<ellipse fill="none" stroke="black" cx="71.49" cy="-362" rx="57.39" ry="18"/>
<text text-anchor="middle" x="71.49" y="-358.3" font-family="Times,serif" font-size="14.00">Polimerek</text>
</g>
<!-- Polimerek&#45;&#45;Marketing&#45;i&#45;media&#45;spoecznociowe# -->
<g id="edge49" class="edge">
<title>Polimerek&#45;&#45;Marketing&#45;i&#45;media&#45;spoecznociowe#</title>
<path fill="none" stroke="#00c64f" d="M116.82,-373.03C116.82,-394.32 116.82,-439 116.82,-439 116.82,-439 326.94,-439 480.83,-439"/>
</g>
<!-- Polimerek&#45;&#45;Stowarzyszenie#Zarzd -->
<g id="edge50" class="edge">
<title>Polimerek&#45;&#45;Stowarzyszenie#Zarzd</title>
<path fill="none" stroke="#00c64f" d="M128.84,-362C159.83,-362 191.82,-362 191.82,-362 191.82,-362 191.82,-276 191.82,-276 191.82,-276 383.65,-276 516.28,-276"/>
</g>
<!-- Paliguma -->
<g id="node39" class="node">
<title>Paliguma</title>
<ellipse fill="none" stroke="black" cx="71.49" cy="-276" rx="53.89" ry="18"/>
<text text-anchor="middle" x="71.49" y="-272.3" font-family="Times,serif" font-size="14.00">Paliguma</text>
</g>
<!-- Paliguma&#45;&#45;Stowarzyszenie#Zarzd -->
<g id="edge51" class="edge">
<title>Paliguma&#45;&#45;Stowarzyszenie#Zarzd</title>
<path fill="none" stroke="#2e00e4" d="M111.92,-264C202.15,-264 421.89,-264 547.61,-264"/>
</g>
<!-- kotlovecrafta -->
<g id="node40" class="node">
<title>kotlovecrafta</title>
<ellipse fill="none" stroke="black" cx="71.49" cy="-319" rx="71.49" ry="18"/>
<text text-anchor="middle" x="71.49" y="-315.3" font-family="Times,serif" font-size="14.00">kotlovecrafta</text>
</g>
<!-- kotlovecrafta&#45;&#45;Marketing&#45;i&#45;media&#45;spoecznociowe# -->
<g id="edge52" class="edge">
<title>kotlovecrafta&#45;&#45;Marketing&#45;i&#45;media&#45;spoecznociowe#</title>
<path fill="none" stroke="#ff0000" d="M139.09,-313C191.69,-313 255.82,-313 255.82,-313 255.82,-313 255.82,-434.5 255.82,-434.5 255.82,-434.5 406.09,-434.5 518.64,-434.5"/>
</g>
<!-- kotlovecrafta&#45;&#45;Stowarzyszenie#Zarzd -->
<g id="edge53" class="edge">
<title>kotlovecrafta&#45;&#45;Stowarzyszenie#Zarzd</title>
<path fill="none" stroke="#ff0000" d="M138.82,-312.59C138.82,-299.31 138.82,-270 138.82,-270 138.82,-270 375.33,-270 523.37,-270"/>
</g>
<!-- kotlovecrafta&#45;&#45;Miejsce::Miejsce#Klucze do spejsu -->
<g id="edge54" class="edge">
<title>kotlovecrafta&#45;&#45;Miejsce::Miejsce#Klucze do spejsu</title>
<path fill="none" stroke="#ff0000" d="M133.82,-310.05C133.82,-274.27 133.82,-143.4 133.82,-143.4 133.82,-143.4 323.26,-143.4 470.33,-143.4"/>
</g>
<!-- rux -->
<g id="node41" class="node">
<title>rux</title>
<ellipse fill="none" stroke="black" cx="71.49" cy="-233" rx="27" ry="18"/>
<text text-anchor="middle" x="71.49" y="-229.3" font-family="Times,serif" font-size="14.00">rux</text>
</g>
<!-- rux&#45;&#45;Stowarzyszenie#Zarzd -->
<g id="edge55" class="edge">
<title>rux&#45;&#45;Stowarzyszenie#Zarzd</title>
<path fill="none" stroke="#2bd500" d="M98.73,-233C206.72,-233 598.82,-233 598.82,-233 598.82,-233 598.82,-246.99 598.82,-259.01"/>
</g>
<!-- Inoru -->
<g id="node42" class="node">
<title>Inoru</title>
<ellipse fill="none" stroke="black" cx="71.49" cy="-190" rx="36" ry="18"/>
<text text-anchor="middle" x="71.49" y="-186.3" font-family="Times,serif" font-size="14.00">Inoru</text>
</g>
<!-- Inoru&#45;&#45;Stowarzyszenie#Zarzd -->
<g id="edge56" class="edge">
<title>Inoru&#45;&#45;Stowarzyszenie#Zarzd</title>
<path fill="none" stroke="#0061f2" d="M107.39,-190C238.22,-190 681.82,-190 681.82,-190 681.82,-190 681.82,-233.95 681.82,-259.01"/>
</g>
<!-- pzduniak -->
<g id="node43" class="node">
<title>pzduniak</title>
<ellipse fill="none" stroke="black" cx="71.49" cy="-1179" rx="52.79" ry="18"/>
<text text-anchor="middle" x="71.49" y="-1175.3" font-family="Times,serif" font-size="14.00">pzduniak</text>
</g>
<!-- pzduniak&#45;&#45;Stowarzyszenie#Komisja Rewizyjna -->
<g id="edge57" class="edge">
<title>pzduniak&#45;&#45;Stowarzyszenie#Komisja Rewizyjna</title>
<path fill="none" stroke="#c60077" d="M121.82,-1173.68C121.82,-1164.54 121.82,-1146.8 121.82,-1146.8 121.82,-1146.8 343.95,-1146.8 497.31,-1146.8"/>
</g>
<!-- krcz -->
<g id="node44" class="node">
<title>krcz</title>
<ellipse fill="none" stroke="black" cx="71.49" cy="-1136" rx="30.59" ry="18"/>
<text text-anchor="middle" x="71.49" y="-1132.3" font-family="Times,serif" font-size="14.00">krcz</text>
</g>
<!-- krcz&#45;&#45;Stowarzyszenie#Komisja Rewizyjna -->
<g id="edge58" class="edge">
<title>krcz&#45;&#45;Stowarzyszenie#Komisja Rewizyjna</title>
<path fill="none" stroke="#b6e400" d="M101.65,-1139.6C168.84,-1139.6 335.17,-1139.6 465.3,-1139.6"/>
</g>
<!-- PiotrP -->
<g id="node45" class="node">
<title>PiotrP</title>
<ellipse fill="none" stroke="black" cx="71.49" cy="-1093" rx="40.09" ry="18"/>
<text text-anchor="middle" x="71.49" y="-1089.3" font-family="Times,serif" font-size="14.00">PiotrP</text>
</g>
<!-- PiotrP&#45;&#45;Stowarzyszenie#Komisja Rewizyjna -->
<g id="edge59" class="edge">
<title>PiotrP&#45;&#45;Stowarzyszenie#Komisja Rewizyjna</title>
<path fill="none" stroke="#00ffff" d="M107.82,-1100.97C107.82,-1112.49 107.82,-1132.4 107.82,-1132.4 107.82,-1132.4 310.18,-1132.4 465.31,-1132.4"/>
</g>
<!-- kszmigiel -->
<g id="node46" class="node">
<title>kszmigiel</title>
<ellipse fill="none" stroke="black" cx="71.49" cy="-577" rx="54.69" ry="18"/>
<text text-anchor="middle" x="71.49" y="-573.3" font-family="Times,serif" font-size="14.00">kszmigiel</text>
</g>
<!-- kszmigiel&#45;&#45;Marketing&#45;i&#45;media&#45;spoecznociowe# -->
<g id="edge60" class="edge">
<title>kszmigiel&#45;&#45;Marketing&#45;i&#45;media&#45;spoecznociowe#</title>
<path fill="none" stroke="#ab00d5" d="M123.19,-571C164.61,-571 215.82,-571 215.82,-571 215.82,-571 215.82,-452.5 215.82,-452.5 215.82,-452.5 346.08,-452.5 462.21,-452.5"/>
</g>
<!-- kszmigiel&#45;&#45;Infrastruktura::Telegram#G贸wny: t.me/hakierspejs -->
<g id="edge61" class="edge">
<title>kszmigiel&#45;&#45;Infrastruktura::Telegram#G贸wny: t.me/hakierspejs</title>
<path fill="none" stroke="#ab00d5" d="M123.19,-583C186.75,-583 298.97,-583 402.62,-583"/>
</g>
<!-- kszmigiel&#45;&#45;Infrastruktura::Telegram#posty: t.me/hakierspejs_spam -->
<g id="edge62" class="edge">
<title>kszmigiel&#45;&#45;Infrastruktura::Telegram#posty: t.me/hakierspejs_spam</title>
<path fill="none" stroke="#ab00d5" d="M123.82,-571.75C123.82,-553.95 123.82,-497 123.82,-497 123.82,-497 246.38,-497 372.04,-497"/>
</g>
<!-- kszmigiel&#45;&#45;Infrastruktura::Github#Github -->
<g id="edge63" class="edge">
<title>kszmigiel&#45;&#45;Infrastruktura::Github#Github</title>
<path fill="none" stroke="#ab00d5" d="M114.82,-588.19C114.82,-599.83 114.82,-616.4 114.82,-616.4 114.82,-616.4 333.62,-616.4 488.74,-616.4"/>
</g>
<!-- kszmigiel&#45;&#45;Marketing&#45;i&#45;media&#45;spoecznociowe#Naklejki -->
<g id="edge64" class="edge">
<title>kszmigiel&#45;&#45;Marketing&#45;i&#45;media&#45;spoecznociowe#Naklejki</title>
<path fill="none" stroke="#ab00d5" d="M112.82,-565.23C112.82,-528.28 112.82,-417 112.82,-417 112.82,-417 320,-417 474.58,-417"/>
</g>
<!-- SP7Q -->
<g id="node47" class="node">
<title>SP7Q</title>
<ellipse fill="none" stroke="black" cx="71.49" cy="-620" rx="36.29" ry="18"/>
<text text-anchor="middle" x="71.49" y="-616.3" font-family="Times,serif" font-size="14.00">SP7Q</text>
</g>
<!-- SP7Q&#45;&#45;Marketing&#45;i&#45;media&#45;spoecznociowe# -->
<g id="edge65" class="edge">
<title>SP7Q&#45;&#45;Marketing&#45;i&#45;media&#45;spoecznociowe#</title>
<path fill="none" stroke="#f29100" d="M100.86,-609.2C145.13,-609.2 223.82,-609.2 223.82,-609.2 223.82,-609.2 223.82,-454.75 223.82,-454.75 223.82,-454.75 354.79,-454.75 469.77,-454.75"/>
</g>
<!-- SP7Q&#45;&#45;Infrastruktura::Github#Github -->
<g id="edge66" class="edge">
<title>SP7Q&#45;&#45;Infrastruktura::Github#Github</title>
<path fill="none" stroke="#f29100" d="M107.48,-623.6C182.52,-623.6 359.47,-623.6 488.86,-623.6"/>
</g>
<!-- biniu -->
<g id="node48" class="node">
<title>biniu</title>
<ellipse fill="none" stroke="black" cx="71.49" cy="-534" rx="34.39" ry="18"/>
<text text-anchor="middle" x="71.49" y="-530.3" font-family="Times,serif" font-size="14.00">biniu</text>
</g>
<!-- biniu&#45;&#45;Marketing&#45;i&#45;media&#45;spoecznociowe# -->
<g id="edge67" class="edge">
<title>biniu&#45;&#45;Marketing&#45;i&#45;media&#45;spoecznociowe#</title>
<path fill="none" stroke="#00c64f" d="M101.35,-543C112.19,-543 121.82,-543 121.82,-543 121.82,-543 121.82,-450.25 121.82,-450.25 121.82,-450.25 308.7,-450.25 457.98,-450.25"/>
</g>
<!-- Keij0 -->
<g id="node49" class="node">
<title>Keij0</title>
<ellipse fill="none" stroke="black" cx="71.49" cy="-491" rx="34.39" ry="18"/>
<text text-anchor="middle" x="71.49" y="-487.3" font-family="Times,serif" font-size="14.00">Keij0</text>
</g>
<!-- Keij0&#45;&#45;Marketing&#45;i&#45;media&#45;spoecznociowe# -->
<g id="edge68" class="edge">
<title>Keij0&#45;&#45;Marketing&#45;i&#45;media&#45;spoecznociowe#</title>
<path fill="none" stroke="#2e00e4" d="M104,-485C112.74,-485 119.82,-485 119.82,-485 119.82,-485 119.82,-448 119.82,-448 119.82,-448 306.81,-448 456.54,-448"/>
</g>
<!-- kasesag -->
<g id="node50" class="node">
<title>kasesag</title>
<ellipse fill="none" stroke="black" cx="71.49" cy="-1394" rx="48.19" ry="18"/>
<text text-anchor="middle" x="71.49" y="-1390.3" font-family="Times,serif" font-size="14.00">kasesag</text>
</g>
<!-- Marketing&#45;i&#45;media&#45;spoecznociowe#Przycisk HS&#45;LDZ -->
<g id="node51" class="node">
<title>Marketing&#45;i&#45;media&#45;spoecznociowe#Przycisk HS&#45;LDZ</title>
<ellipse fill="none" stroke="black" cx="639.91" cy="-1394" rx="261.85" ry="18"/>
<text text-anchor="middle" x="639.91" y="-1390.3" font-family="Times,serif" font-size="14.00">Marketing&#45;i&#45;media&#45;spoecznociowe#Przycisk HS&#45;LDZ</text>
</g>
<!-- kasesag&#45;&#45;Marketing&#45;i&#45;media&#45;spoecznociowe#Przycisk HS&#45;LDZ -->
<g id="edge69" class="edge">
<title>kasesag&#45;&#45;Marketing&#45;i&#45;media&#45;spoecznociowe#Przycisk HS&#45;LDZ</title>
<path fill="none" stroke="#ff0000" d="M119.96,-1394C177.95,-1394 279.55,-1394 377.64,-1394"/>
</g>
<!-- hslbridgebot -->
<g id="node52" class="node">
<title>hslbridgebot</title>
<ellipse fill="none" stroke="black" cx="71.49" cy="-1480" rx="69.59" ry="18"/>
<text text-anchor="middle" x="71.49" y="-1476.3" font-family="Times,serif" font-size="14.00">hslbridgebot</text>
</g>
<!-- Mostkowanie&#45;kana贸w#mautrix&#45;telegram (aktualnie u偶ywany) -->
<g id="node53" class="node">
<title>Mostkowanie&#45;kana贸w#mautrix&#45;telegram (aktualnie u偶ywany)</title>
<ellipse fill="none" stroke="black" cx="639.91" cy="-1458" rx="297.85" ry="18"/>
<text text-anchor="middle" x="639.91" y="-1454.3" font-family="Times,serif" font-size="14.00">Mostkowanie&#45;kana贸w#mautrix&#45;telegram (aktualnie u偶ywany)</text>
</g>
<!-- hslbridgebot&#45;&#45;Mostkowanie&#45;kana贸w#mautrix&#45;telegram (aktualnie u偶ywany) -->
<g id="edge70" class="edge">
<title>hslbridgebot&#45;&#45;Mostkowanie&#45;kana贸w#mautrix&#45;telegram (aktualnie u偶ywany)</title>
<path fill="none" stroke="#2bd500" d="M126.77,-1469C191.22,-1469 301.96,-1469 404.11,-1469"/>
</g>
<!-- telegrambot -->
<g id="node54" class="node">
<title>telegrambot</title>
<ellipse fill="none" stroke="black" cx="71.49" cy="-1437" rx="67.69" ry="18"/>
<text text-anchor="middle" x="71.49" y="-1433.3" font-family="Times,serif" font-size="14.00">telegrambot</text>
</g>
<!-- telegrambot&#45;&#45;Mostkowanie&#45;kana贸w#mautrix&#45;telegram (aktualnie u偶ywany) -->
<g id="edge71" class="edge">
<title>telegrambot&#45;&#45;Mostkowanie&#45;kana贸w#mautrix&#45;telegram (aktualnie u偶ywany)</title>
<path fill="none" stroke="#0061f2" d="M126.51,-1447.5C189.62,-1447.5 297.36,-1447.5 397.9,-1447.5"/>
</g>
<!-- Piotrek_P -->
<g id="node55" class="node">
<title>Piotrek_P</title>
<ellipse fill="none" stroke="black" cx="71.49" cy="-147" rx="55.49" ry="18"/>
<text text-anchor="middle" x="71.49" y="-143.3" font-family="Times,serif" font-size="14.00">Piotrek_P</text>
</g>
<!-- Piotrek_P&#45;&#45;Miejsce::Miejsce#Klucze do spejsu -->
<g id="edge72" class="edge">
<title>Piotrek_P&#45;&#45;Miejsce::Miejsce#Klucze do spejsu</title>
<path fill="none" stroke="#c60077" d="M116.1,-136.2C198.08,-136.2 375.82,-136.2 501.45,-136.2"/>
</g>
<!-- polimerek -->
<g id="node56" class="node">
<title>polimerek</title>
<ellipse fill="none" stroke="black" cx="71.49" cy="-104" rx="57.39" ry="18"/>
<text text-anchor="middle" x="71.49" y="-100.3" font-family="Times,serif" font-size="14.00">polimerek</text>
</g>
<!-- polimerek&#45;&#45;Miejsce::Miejsce#Klucze do spejsu -->
<g id="edge73" class="edge">
<title>polimerek&#45;&#45;Miejsce::Miejsce#Klucze do spejsu</title>
<path fill="none" stroke="#b6e400" d="M128.72,-104C256.48,-104 553.82,-104 553.82,-104 553.82,-104 553.82,-118.76 553.82,-130.99"/>
</g>
<!-- sp7adg -->
<g id="node57" class="node">
<title>sp7adg</title>
<ellipse fill="none" stroke="black" cx="71.49" cy="-61" rx="44.39" ry="18"/>
<text text-anchor="middle" x="71.49" y="-57.3" font-family="Times,serif" font-size="14.00">sp7adg</text>
</g>
<!-- sp7adg&#45;&#45;Miejsce::Miejsce#Klucze do spejsu -->
<g id="edge74" class="edge">
<title>sp7adg&#45;&#45;Miejsce::Miejsce#Klucze do spejsu</title>
<path fill="none" stroke="#00ffff" d="M115.69,-61C249.46,-61 640.82,-61 640.82,-61 640.82,-61 640.82,-103.52 640.82,-128.76"/>
</g>
<!-- inouru -->
<g id="node58" class="node">
<title>inouru</title>
<ellipse fill="none" stroke="black" cx="71.49" cy="-18" rx="40.89" ry="18"/>
<text text-anchor="middle" x="71.49" y="-14.3" font-family="Times,serif" font-size="14.00">inouru</text>
</g>
<!-- inouru&#45;&#45;Miejsce::Miejsce#Klucze do spejsu -->
<g id="edge75" class="edge">
<title>inouru&#45;&#45;Miejsce::Miejsce#Klucze do spejsu</title>
<path fill="none" stroke="#ab00d5" d="M112.49,-18C255.96,-18 726.82,-18 726.82,-18 726.82,-18 726.82,-97.13 726.82,-131.44"/>
</g>
</g>
</svg>
