<?xml version="1.0" encoding="UTF-8" standalone="no"?>
<!DOCTYPE svg PUBLIC "-//W3C//DTD SVG 1.1//EN"
 "http://www.w3.org/Graphics/SVG/1.1/DTD/svg11.dtd">
<!-- Generated by graphviz version 2.40.1 (20161225.0304)
 -->
<!-- Title: %3 Pages: 1 -->
<svg width="850pt" height="861pt"
 viewBox="0.00 0.00 850.04 861.00" xmlns="http://www.w3.org/2000/svg" xmlns:xlink="http://www.w3.org/1999/xlink">
<g id="graph0" class="graph" transform="scale(1 1) rotate(0) translate(4 857)">
<title>%3</title>
<polygon fill="#ffffff" stroke="transparent" points="-4,4 -4,-857 846.0381,-857 846.0381,4 -4,4"/>
<!-- q3k -->
<g id="node1" class="node">
<title>q3k</title>
<ellipse fill="none" stroke="#000000" cx="59.7947" cy="-599" rx="28.6953" ry="18"/>
<text text-anchor="middle" x="59.7947" y="-595.3" font-family="Times,serif" font-size="14.00" fill="#000000">q3k</text>
</g>
<!-- Infrastruktura#Domeny -->
<g id="node2" class="node">
<title>Infrastruktura#Domeny</title>
<ellipse fill="none" stroke="#000000" cx="552.8137" cy="-534" rx="124.2781" ry="18"/>
<text text-anchor="middle" x="552.8137" y="-530.3" font-family="Times,serif" font-size="14.00" fill="#000000">Infrastruktura#Domeny</text>
</g>
<!-- q3k&#45;&#45;Infrastruktura#Domeny -->
<g id="edge1" class="edge">
<title>q3k&#45;&#45;Infrastruktura#Domeny</title>
<path fill="none" stroke="#ff0000" d="M79.1391,-585.6667C92.5608,-585.6667 108.0381,-585.6667 108.0381,-585.6667 108.0381,-585.6667 108.0381,-548.7273 108.0381,-548.7273 108.0381,-548.7273 355.6251,-548.7273 481.3528,-548.7273"/>
</g>
<!-- Infrastruktura#Lista mailingowa -->
<g id="node3" class="node">
<title>Infrastruktura#Lista mailingowa</title>
<ellipse fill="none" stroke="#000000" cx="552.8137" cy="-706" rx="165.1707" ry="18"/>
<text text-anchor="middle" x="552.8137" y="-702.3" font-family="Times,serif" font-size="14.00" fill="#000000">Infrastruktura#Lista mailingowa</text>
</g>
<!-- q3k&#45;&#45;Infrastruktura#Lista mailingowa -->
<g id="edge2" class="edge">
<title>q3k&#45;&#45;Infrastruktura#Lista mailingowa</title>
<path fill="none" stroke="#ff0000" d="M79.8301,-612C92.7063,-612 107.0381,-612 107.0381,-612 107.0381,-612 107.0381,-691.75 107.0381,-691.75 107.0381,-691.75 320.4389,-691.75 451.9389,-691.75"/>
</g>
<!-- d33tah -->
<g id="node4" class="node">
<title>d33tah</title>
<ellipse fill="none" stroke="#000000" cx="59.7947" cy="-534" rx="43.5923" ry="18"/>
<text text-anchor="middle" x="59.7947" y="-530.3" font-family="Times,serif" font-size="14.00" fill="#000000">d33tah</text>
</g>
<!-- d33tah&#45;&#45;Infrastruktura#Domeny -->
<g id="edge11" class="edge">
<title>d33tah&#45;&#45;Infrastruktura#Domeny</title>
<path fill="none" stroke="#2bd500" d="M101.8292,-538.9091C174.4242,-538.9091 325.8143,-538.9091 433.1309,-538.9091"/>
</g>
<!-- d33tah&#45;&#45;Infrastruktura#Lista mailingowa -->
<g id="edge8" class="edge">
<title>d33tah&#45;&#45;Infrastruktura#Lista mailingowa</title>
<path fill="none" stroke="#2bd500" d="M97.0381,-543.6189C97.0381,-578.3869 97.0381,-695.5 97.0381,-695.5 97.0381,-695.5 284.0886,-695.5 418.5311,-695.5"/>
</g>
<!-- Infrastruktura#t.me/hakierspejs -->
<g id="node5" class="node">
<title>Infrastruktura#t.me/hakierspejs</title>
<ellipse fill="none" stroke="#000000" cx="552.8137" cy="-577" rx="163.2712" ry="18"/>
<text text-anchor="middle" x="552.8137" y="-573.3" font-family="Times,serif" font-size="14.00" fill="#000000">Infrastruktura#t.me/hakierspejs</text>
</g>
<!-- d33tah&#45;&#45;Infrastruktura#t.me/hakierspejs -->
<g id="edge3" class="edge">
<title>d33tah&#45;&#45;Infrastruktura#t.me/hakierspejs</title>
<path fill="none" stroke="#2bd500" d="M102.0381,-538.5503C102.0381,-548.9694 102.0381,-573.6667 102.0381,-573.6667 102.0381,-573.6667 262.789,-573.6667 392.3002,-573.6667"/>
</g>
<!-- Infrastruktura#Github -->
<g id="node6" class="node">
<title>Infrastruktura#Github</title>
<ellipse fill="none" stroke="#000000" cx="552.8137" cy="-749" rx="117.7793" ry="18"/>
<text text-anchor="middle" x="552.8137" y="-745.3" font-family="Times,serif" font-size="14.00" fill="#000000">Infrastruktura#Github</text>
</g>
<!-- d33tah&#45;&#45;Infrastruktura#Github -->
<g id="edge4" class="edge">
<title>d33tah&#45;&#45;Infrastruktura#Github</title>
<path fill="none" stroke="#2bd500" d="M98.5855,-542.1818C162.0372,-542.1818 281.0381,-542.1818 281.0381,-542.1818 281.0381,-542.1818 281.0381,-740 281.0381,-740 281.0381,-740 373.7238,-740 450.8413,-740"/>
</g>
<!-- Infrastruktura#Pad -->
<g id="node7" class="node">
<title>Infrastruktura#Pad</title>
<ellipse fill="none" stroke="#000000" cx="552.8137" cy="-663" rx="102.8821" ry="18"/>
<text text-anchor="middle" x="552.8137" y="-659.3" font-family="Times,serif" font-size="14.00" fill="#000000">Infrastruktura#Pad</text>
</g>
<!-- d33tah&#45;&#45;Infrastruktura#Pad -->
<g id="edge5" class="edge">
<title>d33tah&#45;&#45;Infrastruktura#Pad</title>
<path fill="none" stroke="#2bd500" d="M98.0381,-542.7739C98.0381,-570.7474 98.0381,-656 98.0381,-656 98.0381,-656 324.7497,-656 458.0314,-656"/>
</g>
<!-- Infrastruktura#IRC -->
<g id="node8" class="node">
<title>Infrastruktura#IRC</title>
<ellipse fill="none" stroke="#000000" cx="552.8137" cy="-491" rx="103.9815" ry="18"/>
<text text-anchor="middle" x="552.8137" y="-487.3" font-family="Times,serif" font-size="14.00" fill="#000000">Infrastruktura#IRC</text>
</g>
<!-- d33tah&#45;&#45;Infrastruktura#IRC -->
<g id="edge6" class="edge">
<title>d33tah&#45;&#45;Infrastruktura#IRC</title>
<path fill="none" stroke="#2bd500" d="M74.0381,-516.7998C74.0381,-507.1375 74.0381,-497 74.0381,-497 74.0381,-497 314.3675,-497 454.4815,-497"/>
</g>
<!-- Infrastruktura#Meetup -->
<g id="node9" class="node">
<title>Infrastruktura#Meetup</title>
<ellipse fill="none" stroke="#000000" cx="552.8137" cy="-792" rx="121.5784" ry="18"/>
<text text-anchor="middle" x="552.8137" y="-788.3" font-family="Times,serif" font-size="14.00" fill="#000000">Infrastruktura#Meetup</text>
</g>
<!-- d33tah&#45;&#45;Infrastruktura#Meetup -->
<g id="edge7" class="edge">
<title>d33tah&#45;&#45;Infrastruktura#Meetup</title>
<path fill="none" stroke="#2bd500" d="M93.5837,-545.4545C153.7126,-545.4545 273.0381,-545.4545 273.0381,-545.4545 273.0381,-545.4545 273.0381,-784.2857 273.0381,-784.2857 273.0381,-784.2857 364.3488,-784.2857 442.6406,-784.2857"/>
</g>
<!-- Infrastruktura#Lelegram (na shitpostach) -->
<g id="node10" class="node">
<title>Infrastruktura#Lelegram (na shitpostach)</title>
<ellipse fill="none" stroke="#000000" cx="552.8137" cy="-620" rx="207.9631" ry="18"/>
<text text-anchor="middle" x="552.8137" y="-616.3" font-family="Times,serif" font-size="14.00" fill="#000000">Infrastruktura#Lelegram (na shitpostach)</text>
</g>
<!-- d33tah&#45;&#45;Infrastruktura#Lelegram (na shitpostach) -->
<g id="edge9" class="edge">
<title>d33tah&#45;&#45;Infrastruktura#Lelegram (na shitpostach)</title>
<path fill="none" stroke="#2bd500" d="M100.0381,-540.9995C100.0381,-559.2709 100.0381,-607 100.0381,-607 100.0381,-607 276.3513,-607 408.9306,-607"/>
</g>
<!-- Infrastruktura#Hosting -->
<g id="node11" class="node">
<title>Infrastruktura#Hosting</title>
<ellipse fill="none" stroke="#000000" cx="552.8137" cy="-190" rx="122.6784" ry="18"/>
<text text-anchor="middle" x="552.8137" y="-186.3" font-family="Times,serif" font-size="14.00" fill="#000000">Infrastruktura#Hosting</text>
</g>
<!-- d33tah&#45;&#45;Infrastruktura#Hosting -->
<g id="edge10" class="edge">
<title>d33tah&#45;&#45;Infrastruktura#Hosting</title>
<path fill="none" stroke="#2bd500" d="M93.4776,-522.5455C160.0394,-522.5455 302.0381,-522.5455 302.0381,-522.5455 302.0381,-522.5455 302.0381,-200 302.0381,-200 302.0381,-200 381.1098,-200 450.452,-200"/>
</g>
<!-- Infrastruktura#Grafana -->
<g id="node12" class="node">
<title>Infrastruktura#Grafana</title>
<ellipse fill="none" stroke="#000000" cx="552.8137" cy="-276" rx="122.6784" ry="18"/>
<text text-anchor="middle" x="552.8137" y="-272.3" font-family="Times,serif" font-size="14.00" fill="#000000">Infrastruktura#Grafana</text>
</g>
<!-- d33tah&#45;&#45;Infrastruktura#Grafana -->
<g id="edge12" class="edge">
<title>d33tah&#45;&#45;Infrastruktura#Grafana</title>
<path fill="none" stroke="#2bd500" d="M103.264,-532.3636C178.0325,-532.3636 323.0381,-532.3636 323.0381,-532.3636 323.0381,-532.3636 323.0381,-285 323.0381,-285 323.0381,-285 386.2287,-285 446.3338,-285"/>
</g>
<!-- Infrastruktura#t.me/hakierspejs_spam -->
<g id="node13" class="node">
<title>Infrastruktura#t.me/hakierspejs_spam</title>
<ellipse fill="none" stroke="#000000" cx="552.8137" cy="-405" rx="193.0657" ry="18"/>
<text text-anchor="middle" x="552.8137" y="-401.3" font-family="Times,serif" font-size="14.00" fill="#000000">Infrastruktura#t.me/hakierspejs_spam</text>
</g>
<!-- d33tah&#45;&#45;Infrastruktura#t.me/hakierspejs_spam -->
<g id="edge13" class="edge">
<title>d33tah&#45;&#45;Infrastruktura#t.me/hakierspejs_spam</title>
<path fill="none" stroke="#2bd500" d="M103.3174,-535.6364C190.8779,-535.6364 380.0381,-535.6364 380.0381,-535.6364 380.0381,-535.6364 380.0381,-441.7714 380.0381,-413.1719"/>
</g>
<!-- Miejsce::Miejsce#Klucze do spejsu -->
<g id="node14" class="node">
<title>Miejsce::Miejsce#Klucze do spejsu</title>
<ellipse fill="none" stroke="#000000" cx="552.8137" cy="-233" rx="174.6691" ry="18"/>
<text text-anchor="middle" x="552.8137" y="-229.3" font-family="Times,serif" font-size="14.00" fill="#000000">Miejsce::Miejsce#Klucze do spejsu</text>
</g>
<!-- d33tah&#45;&#45;Miejsce::Miejsce#Klucze do spejsu -->
<g id="edge14" class="edge">
<title>d33tah&#45;&#45;Miejsce::Miejsce#Klucze do spejsu</title>
<path fill="none" stroke="#2bd500" d="M101.7347,-529.0909C175.1062,-529.0909 319.0381,-529.0909 319.0381,-529.0909 319.0381,-529.0909 319.0381,-242 319.0381,-242 319.0381,-242 356.3327,-242 401.1299,-242"/>
</g>
<!-- Infrastruktura#Forum -->
<g id="node15" class="node">
<title>Infrastruktura#Forum</title>
<ellipse fill="none" stroke="#000000" cx="552.8137" cy="-147" rx="116.1796" ry="18"/>
<text text-anchor="middle" x="552.8137" y="-143.3" font-family="Times,serif" font-size="14.00" fill="#000000">Infrastruktura#Forum</text>
</g>
<!-- d33tah&#45;&#45;Infrastruktura#Forum -->
<g id="edge15" class="edge">
<title>d33tah&#45;&#45;Infrastruktura#Forum</title>
<path fill="none" stroke="#2bd500" d="M84.8406,-519.2727C146.0087,-519.2727 298.0381,-519.2727 298.0381,-519.2727 298.0381,-519.2727 298.0381,-153 298.0381,-153 298.0381,-153 373.9625,-153 442.9173,-153"/>
</g>
<!-- cytP450 -->
<g id="node16" class="node">
<title>cytP450</title>
<ellipse fill="none" stroke="#000000" cx="59.7947" cy="-233" rx="49.2915" ry="18"/>
<text text-anchor="middle" x="59.7947" y="-229.3" font-family="Times,serif" font-size="14.00" fill="#000000">cytP450</text>
</g>
<!-- cytP450&#45;&#45;Infrastruktura#Domeny -->
<g id="edge16" class="edge">
<title>cytP450&#45;&#45;Infrastruktura#Domeny</title>
<path fill="none" stroke="#0061f2" d="M109.2253,-233C175.5294,-233 285.0381,-233 285.0381,-233 285.0381,-233 285.0381,-525.8182 285.0381,-525.8182 285.0381,-525.8182 368.2994,-525.8182 441.9662,-525.8182"/>
</g>
<!-- cytP450&#45;&#45;Infrastruktura#Hosting -->
<g id="edge17" class="edge">
<title>cytP450&#45;&#45;Infrastruktura#Hosting</title>
<path fill="none" stroke="#0061f2" d="M107.0381,-227.5405C107.0381,-217.2484 107.0381,-196 107.0381,-196 107.0381,-196 304.7738,-196 436.8551,-196"/>
</g>
<!-- cytP450&#45;&#45;Miejsce::Miejsce#Klucze do spejsu -->
<g id="edge18" class="edge">
<title>cytP450&#45;&#45;Miejsce::Miejsce#Klucze do spejsu</title>
<path fill="none" stroke="#0061f2" d="M102.6844,-224C168.6327,-224 298.131,-224 401.364,-224"/>
</g>
<!-- cytP450&#45;&#45;Infrastruktura#Forum -->
<g id="edge19" class="edge">
<title>cytP450&#45;&#45;Infrastruktura#Forum</title>
<path fill="none" stroke="#0061f2" d="M101.0381,-222.797C101.0381,-200.0164 101.0381,-147 101.0381,-147 101.0381,-147 302.6123,-147 436.4703,-147"/>
</g>
<!-- Martti25 -->
<g id="node17" class="node">
<title>Martti25</title>
<ellipse fill="none" stroke="#000000" cx="59.7947" cy="-749" rx="51.9908" ry="18"/>
<text text-anchor="middle" x="59.7947" y="-745.3" font-family="Times,serif" font-size="14.00" fill="#000000">Martti25</text>
</g>
<!-- Martti25&#45;&#45;Infrastruktura#t.me/hakierspejs -->
<g id="edge22" class="edge">
<title>Martti25&#45;&#45;Infrastruktura#t.me/hakierspejs</title>
<path fill="none" stroke="#c60077" d="M109.0381,-742.9738C109.0381,-713.9915 109.0381,-590.3333 109.0381,-590.3333 109.0381,-590.3333 311.7017,-590.3333 443.1163,-590.3333"/>
</g>
<!-- Martti25&#45;&#45;Infrastruktura#Github -->
<g id="edge23" class="edge">
<title>Martti25&#45;&#45;Infrastruktura#Github</title>
<path fill="none" stroke="#c60077" d="M112.0896,-749C188.4185,-749 332.4023,-749 435.022,-749"/>
</g>
<!-- Martti25&#45;&#45;Infrastruktura#Meetup -->
<g id="edge21" class="edge">
<title>Martti25&#45;&#45;Infrastruktura#Meetup</title>
<path fill="none" stroke="#c60077" d="M105.0381,-758.2221C105.0381,-771.5382 105.0381,-794.5714 105.0381,-794.5714 105.0381,-794.5714 299.6046,-794.5714 432.229,-794.5714"/>
</g>
<!-- Infrastruktura#Konto na Fejsie -->
<g id="node18" class="node">
<title>Infrastruktura#Konto na Fejsie</title>
<ellipse fill="none" stroke="#000000" cx="552.8137" cy="-835" rx="157.0724" ry="18"/>
<text text-anchor="middle" x="552.8137" y="-831.3" font-family="Times,serif" font-size="14.00" fill="#000000">Infrastruktura#Konto na Fejsie</text>
</g>
<!-- Martti25&#45;&#45;Infrastruktura#Konto na Fejsie -->
<g id="edge20" class="edge">
<title>Martti25&#45;&#45;Infrastruktura#Konto na Fejsie</title>
<path fill="none" stroke="#c60077" d="M105.0197,-758C200.5193,-758 414.0381,-758 414.0381,-758 414.0381,-758 414.0381,-806.4176 414.0381,-826.4655"/>
</g>
<!-- biniu -->
<g id="node19" class="node">
<title>biniu</title>
<ellipse fill="none" stroke="#000000" cx="59.7947" cy="-792" rx="34.394" ry="18"/>
<text text-anchor="middle" x="59.7947" y="-788.3" font-family="Times,serif" font-size="14.00" fill="#000000">biniu</text>
</g>
<!-- biniu&#45;&#45;Infrastruktura#Meetup -->
<g id="edge24" class="edge">
<title>biniu&#45;&#45;Infrastruktura#Meetup</title>
<path fill="none" stroke="#b6e400" d="M91.0093,-799.7143C160.2787,-799.7143 329.6586,-799.7143 442.8774,-799.7143"/>
</g>
<!-- kszmigiel -->
<g id="node20" class="node">
<title>kszmigiel</title>
<ellipse fill="none" stroke="#000000" cx="59.7947" cy="-362" rx="55.4913" ry="18"/>
<text text-anchor="middle" x="59.7947" y="-358.3" font-family="Times,serif" font-size="14.00" fill="#000000">kszmigiel</text>
</g>
<!-- kszmigiel&#45;&#45;Infrastruktura#t.me/hakierspejs -->
<g id="edge25" class="edge">
<title>kszmigiel&#45;&#45;Infrastruktura#t.me/hakierspejs</title>
<path fill="none" stroke="#00ffff" d="M105.0381,-372.4138C105.0381,-414.053 105.0381,-566.3333 105.0381,-566.3333 105.0381,-566.3333 289.0856,-566.3333 421.19,-566.3333"/>
</g>
<!-- kszmigiel&#45;&#45;Infrastruktura#Meetup -->
<g id="edge26" class="edge">
<title>kszmigiel&#45;&#45;Infrastruktura#Meetup</title>
<path fill="none" stroke="#00ffff" d="M107.7386,-371C171.7145,-371 277.0381,-371 277.0381,-371 277.0381,-371 277.0381,-779.1429 277.0381,-779.1429 277.0381,-779.1429 386.4527,-779.1429 467.4452,-779.1429"/>
</g>
<!-- kszmigiel&#45;&#45;Infrastruktura#t.me/hakierspejs_spam -->
<g id="edge27" class="edge">
<title>kszmigiel&#45;&#45;Infrastruktura#t.me/hakierspejs_spam</title>
<path fill="none" stroke="#00ffff" d="M111.0381,-368.7864C111.0381,-379.468 111.0381,-399 111.0381,-399 111.0381,-399 248.884,-399 370.5761,-399"/>
</g>
<!-- kszmigiel&#45;&#45;Miejsce::Miejsce#Klucze do spejsu -->
<g id="edge29" class="edge">
<title>kszmigiel&#45;&#45;Miejsce::Miejsce#Klucze do spejsu</title>
<path fill="none" stroke="#00ffff" d="M107.8971,-353C204.0938,-353 411.0381,-353 411.0381,-353 411.0381,-353 411.0381,-273.0177 411.0381,-243.6492"/>
</g>
<!-- Finanse#Naklejki -->
<g id="node21" class="node">
<title>Finanse#Naklejki</title>
<ellipse fill="none" stroke="#000000" cx="552.8137" cy="-319" rx="94.7833" ry="18"/>
<text text-anchor="middle" x="552.8137" y="-315.3" font-family="Times,serif" font-size="14.00" fill="#000000">Finanse#Naklejki</text>
</g>
<!-- kszmigiel&#45;&#45;Finanse#Naklejki -->
<g id="edge28" class="edge">
<title>kszmigiel&#45;&#45;Finanse#Naklejki</title>
<path fill="none" stroke="#00ffff" d="M102.0381,-350.2501C102.0381,-337.5186 102.0381,-319 102.0381,-319 102.0381,-319 325.5142,-319 457.7666,-319"/>
</g>
<!-- Infrastruktura#Naklejki -->
<g id="node22" class="node">
<title>Infrastruktura#Naklejki</title>
<ellipse fill="none" stroke="#000000" cx="552.8137" cy="-362" rx="125.3778" ry="18"/>
<text text-anchor="middle" x="552.8137" y="-358.3" font-family="Times,serif" font-size="14.00" fill="#000000">Infrastruktura#Naklejki</text>
</g>
<!-- kszmigiel&#45;&#45;Infrastruktura#Naklejki -->
<g id="edge30" class="edge">
<title>kszmigiel&#45;&#45;Infrastruktura#Naklejki</title>
<path fill="none" stroke="#00ffff" d="M115.3919,-362C190.5632,-362 326.7624,-362 427.2795,-362"/>
</g>
<!-- nikolaad -->
<g id="node23" class="node">
<title>nikolaad</title>
<ellipse fill="none" stroke="#000000" cx="59.7947" cy="-835" rx="50.0912" ry="18"/>
<text text-anchor="middle" x="59.7947" y="-831.3" font-family="Times,serif" font-size="14.00" fill="#000000">nikolaad</text>
</g>
<!-- nikolaad&#45;&#45;Infrastruktura#Meetup -->
<g id="edge31" class="edge">
<title>nikolaad&#45;&#45;Infrastruktura#Meetup</title>
<path fill="none" stroke="#ab00d5" d="M100.0381,-824.1177C100.0381,-815.4837 100.0381,-804.8571 100.0381,-804.8571 100.0381,-804.8571 336.492,-804.8571 467.6501,-804.8571"/>
</g>
<!-- nikolaad&#45;&#45;Infrastruktura#Konto na Fejsie -->
<g id="edge32" class="edge">
<title>nikolaad&#45;&#45;Infrastruktura#Konto na Fejsie</title>
<path fill="none" stroke="#ab00d5" d="M107.0674,-841C174.9126,-841 302.8971,-841 404.3826,-841"/>
</g>
<!-- Keij0 -->
<g id="node24" class="node">
<title>Keij0</title>
<ellipse fill="none" stroke="#000000" cx="59.7947" cy="-685" rx="34.394" ry="18"/>
<text text-anchor="middle" x="59.7947" y="-681.3" font-family="Times,serif" font-size="14.00" fill="#000000">Keij0</text>
</g>
<!-- Keij0&#45;&#45;Infrastruktura#Meetup -->
<g id="edge34" class="edge">
<title>Keij0&#45;&#45;Infrastruktura#Meetup</title>
<path fill="none" stroke="#f29100" d="M81.0419,-699.25C118.424,-699.25 192.0381,-699.25 192.0381,-699.25 192.0381,-699.25 192.0381,-789.4286 192.0381,-789.4286 192.0381,-789.4286 327.5148,-789.4286 432.4299,-789.4286"/>
</g>
<!-- Keij0&#45;&#45;Infrastruktura#Hosting -->
<g id="edge33" class="edge">
<title>Keij0&#45;&#45;Infrastruktura#Hosting</title>
<path fill="none" stroke="#f29100" d="M87.1987,-674C151.5716,-674 307.0381,-674 307.0381,-674 307.0381,-674 307.0381,-204 307.0381,-204 307.0381,-204 403.3444,-204 475.3861,-204"/>
</g>
<!-- BluRaf -->
<g id="node25" class="node">
<title>BluRaf</title>
<ellipse fill="none" stroke="#000000" cx="59.7947" cy="-448" rx="42.4939" ry="18"/>
<text text-anchor="middle" x="59.7947" y="-444.3" font-family="Times,serif" font-size="14.00" fill="#000000">BluRaf</text>
</g>
<!-- BluRaf&#45;&#45;Infrastruktura#t.me/hakierspejs -->
<g id="edge35" class="edge">
<title>BluRaf&#45;&#45;Infrastruktura#t.me/hakierspejs</title>
<path fill="none" stroke="#00c64f" d="M98.2788,-455.7143C189.2624,-455.7143 410.0381,-455.7143 410.0381,-455.7143 410.0381,-455.7143 410.0381,-540.4677 410.0381,-568.2774"/>
</g>
<!-- BluRaf&#45;&#45;Infrastruktura#IRC -->
<g id="edge37" class="edge">
<title>BluRaf&#45;&#45;Infrastruktura#IRC</title>
<path fill="none" stroke="#00c64f" d="M46.0381,-465.2002C46.0381,-474.8625 46.0381,-485 46.0381,-485 46.0381,-485 307.1282,-485 454.5014,-485"/>
</g>
<!-- BluRaf&#45;&#45;Infrastruktura#t.me/hakierspejs_spam -->
<g id="edge41" class="edge">
<title>BluRaf&#45;&#45;Infrastruktura#t.me/hakierspejs_spam</title>
<path fill="none" stroke="#00c64f" d="M101.6355,-445.4286C186.3187,-445.4286 370.0381,-445.4286 370.0381,-445.4286 370.0381,-445.4286 370.0381,-422.2113 370.0381,-410.9654"/>
</g>
<!-- BluRaf&#45;&#45;Infrastruktura#Konto na Fejsie -->
<g id="edge39" class="edge">
<title>BluRaf&#45;&#45;Infrastruktura#Konto na Fejsie</title>
<path fill="none" stroke="#00c64f" d="M89.6309,-460.8571C147.212,-460.8571 268.0381,-460.8571 268.0381,-460.8571 268.0381,-460.8571 268.0381,-829 268.0381,-829 268.0381,-829 335.1216,-829 404.1704,-829"/>
</g>
<!-- Infrastruktura#hs&#45;ldz:hackerspace.pl -->
<g id="node26" class="node">
<title>Infrastruktura#hs&#45;ldz:hackerspace.pl</title>
<ellipse fill="none" stroke="#000000" cx="552.8137" cy="-61" rx="186.5669" ry="18"/>
<text text-anchor="middle" x="552.8137" y="-57.3" font-family="Times,serif" font-size="14.00" fill="#000000">Infrastruktura#hs&#45;ldz:hackerspace.pl</text>
</g>
<!-- BluRaf&#45;&#45;Infrastruktura#hs&#45;ldz:hackerspace.pl -->
<g id="edge36" class="edge">
<title>BluRaf&#45;&#45;Infrastruktura#hs&#45;ldz:hackerspace.pl</title>
<path fill="none" stroke="#00c64f" d="M89.4618,-435.1429C152.4934,-435.1429 294.0381,-435.1429 294.0381,-435.1429 294.0381,-435.1429 294.0381,-73 294.0381,-73 294.0381,-73 352.3283,-73 413.5787,-73"/>
</g>
<!-- Infrastruktura#Mumble -->
<g id="node27" class="node">
<title>Infrastruktura#Mumble</title>
<ellipse fill="none" stroke="#000000" cx="552.8137" cy="-448" rx="124.2781" ry="18"/>
<text text-anchor="middle" x="552.8137" y="-444.3" font-family="Times,serif" font-size="14.00" fill="#000000">Infrastruktura#Mumble</text>
</g>
<!-- BluRaf&#45;&#45;Infrastruktura#Mumble -->
<g id="edge38" class="edge">
<title>BluRaf&#45;&#45;Infrastruktura#Mumble</title>
<path fill="none" stroke="#00c64f" d="M101.8292,-450.5714C173.6674,-450.5714 322.6664,-450.5714 429.7603,-450.5714"/>
</g>
<!-- Infrastruktura#hs&#45;ldz&#45;offtopic:hackerspace.pl -->
<g id="node28" class="node">
<title>Infrastruktura#hs&#45;ldz&#45;offtopic:hackerspace.pl</title>
<ellipse fill="none" stroke="#000000" cx="552.8137" cy="-104" rx="225.56" ry="18"/>
<text text-anchor="middle" x="552.8137" y="-100.3" font-family="Times,serif" font-size="14.00" fill="#000000">Infrastruktura#hs&#45;ldz&#45;offtopic:hackerspace.pl</text>
</g>
<!-- BluRaf&#45;&#45;Infrastruktura#hs&#45;ldz&#45;offtopic:hackerspace.pl -->
<g id="edge40" class="edge">
<title>BluRaf&#45;&#45;Infrastruktura#hs&#45;ldz&#45;offtopic:hackerspace.pl</title>
<path fill="none" stroke="#00c64f" d="M98.0531,-440.2857C174.1082,-440.2857 337.0381,-440.2857 337.0381,-440.2857 337.0381,-440.2857 337.0381,-152.065 337.0381,-109.2822"/>
</g>
<!-- kpc21 -->
<g id="node29" class="node">
<title>kpc21</title>
<ellipse fill="none" stroke="#000000" cx="59.7947" cy="-405" rx="39.7935" ry="18"/>
<text text-anchor="middle" x="59.7947" y="-401.3" font-family="Times,serif" font-size="14.00" fill="#000000">kpc21</text>
</g>
<!-- kpc21&#45;&#45;Infrastruktura#t.me/hakierspejs_spam -->
<g id="edge42" class="edge">
<title>kpc21&#45;&#45;Infrastruktura#t.me/hakierspejs_spam</title>
<path fill="none" stroke="#2e00e4" d="M97.2559,-411C155.2882,-411 270.6783,-411 370.8002,-411"/>
</g>
<!-- ksiezak -->
<g id="node30" class="node">
<title>ksiezak</title>
<ellipse fill="none" stroke="#000000" cx="59.7947" cy="-61" rx="46.2923" ry="18"/>
<text text-anchor="middle" x="59.7947" y="-57.3" font-family="Times,serif" font-size="14.00" fill="#000000">ksiezak</text>
</g>
<!-- ksiezak&#45;&#45;Infrastruktura#hs&#45;ldz:hackerspace.pl -->
<g id="edge43" class="edge">
<title>ksiezak&#45;&#45;Infrastruktura#hs&#45;ldz:hackerspace.pl</title>
<path fill="none" stroke="#ff0000" d="M103.5468,-55C164.584,-55 278.8333,-55 376.8399,-55"/>
</g>
<!-- ksiezak&#45;&#45;Infrastruktura#hs&#45;ldz&#45;offtopic:hackerspace.pl -->
<g id="edge45" class="edge">
<title>ksiezak&#45;&#45;Infrastruktura#hs&#45;ldz&#45;offtopic:hackerspace.pl</title>
<path fill="none" stroke="#ff0000" d="M103.4208,-67C183.7762,-67 347.0381,-67 347.0381,-67 347.0381,-67 347.0381,-85.701 347.0381,-96.5125"/>
</g>
<!-- Współdzielony&#45;kalendarz&#45;i&#45;lista&#45;kontaktów#Założenie konta -->
<g id="node31" class="node">
<title>Współdzielony&#45;kalendarz&#45;i&#45;lista&#45;kontaktów#Założenie konta</title>
<ellipse fill="none" stroke="#000000" cx="552.8137" cy="-18" rx="289.4488" ry="18"/>
<text text-anchor="middle" x="552.8137" y="-14.3" font-family="Times,serif" font-size="14.00" fill="#000000">Współdzielony&#45;kalendarz&#45;i&#45;lista&#45;kontaktów#Założenie konta</text>
</g>
<!-- ksiezak&#45;&#45;Współdzielony&#45;kalendarz&#45;i&#45;lista&#45;kontaktów#Założenie konta -->
<g id="edge44" class="edge">
<title>ksiezak&#45;&#45;Współdzielony&#45;kalendarz&#45;i&#45;lista&#45;kontaktów#Założenie konta</title>
<path fill="none" stroke="#ff0000" d="M94.2645,-49C158.4946,-49 290.0381,-49 290.0381,-49 290.0381,-49 290.0381,-35.0061 290.0381,-25.8226"/>
</g>
<!-- thinkofher -->
<g id="node32" class="node">
<title>thinkofher</title>
<ellipse fill="none" stroke="#000000" cx="59.7947" cy="-104" rx="59.5901" ry="18"/>
<text text-anchor="middle" x="59.7947" y="-100.3" font-family="Times,serif" font-size="14.00" fill="#000000">thinkofher</text>
</g>
<!-- thinkofher&#45;&#45;Infrastruktura#Hosting -->
<g id="edge48" class="edge">
<title>thinkofher&#45;&#45;Infrastruktura#Hosting</title>
<path fill="none" stroke="#2bd500" d="M116.4415,-110C191.6382,-110 315.0381,-110 315.0381,-110 315.0381,-110 315.0381,-176 315.0381,-176 315.0381,-176 405.8985,-176 475.2861,-176"/>
</g>
<!-- thinkofher&#45;&#45;Infrastruktura#Forum -->
<g id="edge47" class="edge">
<title>thinkofher&#45;&#45;Infrastruktura#Forum</title>
<path fill="none" stroke="#2bd500" d="M105.0381,-115.8968C105.0381,-124.6389 105.0381,-135 105.0381,-135 105.0381,-135 335.7315,-135 465.9471,-135"/>
</g>
<!-- thinkofher&#45;&#45;Infrastruktura#hs&#45;ldz:hackerspace.pl -->
<g id="edge46" class="edge">
<title>thinkofher&#45;&#45;Infrastruktura#hs&#45;ldz:hackerspace.pl</title>
<path fill="none" stroke="#2bd500" d="M113.0381,-95.7092C113.0381,-83.2139 113.0381,-61 113.0381,-61 113.0381,-61 246.212,-61 365.9904,-61"/>
</g>
<!-- thinkofher&#45;&#45;Infrastruktura#hs&#45;ldz&#45;offtopic:hackerspace.pl -->
<g id="edge49" class="edge">
<title>thinkofher&#45;&#45;Infrastruktura#hs&#45;ldz&#45;offtopic:hackerspace.pl</title>
<path fill="none" stroke="#2bd500" d="M116.3502,-98C171.2993,-98 258.1996,-98 340.043,-98"/>
</g>
<!-- kpc -->
<g id="node33" class="node">
<title>kpc</title>
<ellipse fill="none" stroke="#000000" cx="59.7947" cy="-147" rx="27.8951" ry="18"/>
<text text-anchor="middle" x="59.7947" y="-143.3" font-family="Times,serif" font-size="14.00" fill="#000000">kpc</text>
</g>
<!-- kpc&#45;&#45;Infrastruktura#Hosting -->
<g id="edge50" class="edge">
<title>kpc&#45;&#45;Infrastruktura#Hosting</title>
<path fill="none" stroke="#0061f2" d="M80.6564,-159C91.7145,-159 103.0381,-159 103.0381,-159 103.0381,-159 103.0381,-180 103.0381,-180 103.0381,-180 317.7464,-180 450.4714,-180"/>
</g>
<!-- pmysl -->
<g id="node34" class="node">
<title>pmysl</title>
<ellipse fill="none" stroke="#000000" cx="59.7947" cy="-190" rx="38.1938" ry="18"/>
<text text-anchor="middle" x="59.7947" y="-186.3" font-family="Times,serif" font-size="14.00" fill="#000000">pmysl</text>
</g>
<!-- pmysl&#45;&#45;Infrastruktura#Hosting -->
<g id="edge52" class="edge">
<title>pmysl&#45;&#45;Infrastruktura#Hosting</title>
<path fill="none" stroke="#c60077" d="M96.0476,-184C166.8744,-184 326.3382,-184 436.7541,-184"/>
</g>
<!-- pmysl&#45;&#45;Infrastruktura#Grafana -->
<g id="edge53" class="edge">
<title>pmysl&#45;&#45;Infrastruktura#Grafana</title>
<path fill="none" stroke="#c60077" d="M97.9532,-192C168.2377,-192 311.0381,-192 311.0381,-192 311.0381,-192 311.0381,-267 311.0381,-267 311.0381,-267 381.55,-267 446.4156,-267"/>
</g>
<!-- pmysl&#45;&#45;Miejsce::Miejsce#Klucze do spejsu -->
<g id="edge51" class="edge">
<title>pmysl&#45;&#45;Miejsce::Miejsce#Klucze do spejsu</title>
<path fill="none" stroke="#c60077" d="M97.95,-188C187.578,-188 404.0381,-188 404.0381,-188 404.0381,-188 404.0381,-210.2473 404.0381,-223.4567"/>
</g>
<!-- pmysl&#45;&#45;Infrastruktura#Forum -->
<g id="edge54" class="edge">
<title>pmysl&#45;&#45;Infrastruktura#Forum</title>
<path fill="none" stroke="#c60077" d="M93.0381,-181.0126C93.0381,-166.8668 93.0381,-141 93.0381,-141 93.0381,-141 306.9716,-141 442.9782,-141"/>
</g>
<!-- nuke -->
<g id="node35" class="node">
<title>nuke</title>
<ellipse fill="none" stroke="#000000" cx="59.7947" cy="-276" rx="33.5952" ry="18"/>
<text text-anchor="middle" x="59.7947" y="-272.3" font-family="Times,serif" font-size="14.00" fill="#000000">nuke</text>
</g>
<!-- nuke&#45;&#45;Miejsce::Miejsce#Klucze do spejsu -->
<g id="edge55" class="edge">
<title>nuke&#45;&#45;Miejsce::Miejsce#Klucze do spejsu</title>
<path fill="none" stroke="#b6e400" d="M93.7845,-276C179.0131,-276 395.0381,-276 395.0381,-276 395.0381,-276 395.0381,-253.3006 395.0381,-240.8869"/>
</g>
</g>
</svg>
