<?xml version="1.0" encoding="UTF-8" standalone="no"?>
<!DOCTYPE svg PUBLIC "-//W3C//DTD SVG 1.1//EN"
 "http://www.w3.org/Graphics/SVG/1.1/DTD/svg11.dtd">
<!-- Generated by graphviz version 2.43.0 (0)
 -->
<!-- Title: %3 Pages: 1 -->
<svg width="994pt" height="1205pt"
 viewBox="0.00 0.00 994.00 1205.00" xmlns="http://www.w3.org/2000/svg" xmlns:xlink="http://www.w3.org/1999/xlink">
<g id="graph0" class="graph" transform="scale(1 1) rotate(0) translate(4 1201)">
<title>%3</title>
<polygon fill="white" stroke="transparent" points="-4,4 -4,-1201 990,-1201 990,4 -4,4"/>
<!-- cytP450 -->
<g id="node1" class="node">
<title>cytP450</title>
<ellipse fill="none" stroke="black" cx="77.02" cy="-1050" rx="48.99" ry="18"/>
<text text-anchor="middle" x="77.02" y="-1046.3" font-family="Times,serif" font-size="14.00">cytP450</text>
</g>
<!-- Miejsce::Miejsce#Klucze do spejsu -->
<g id="node2" class="node">
<title>Miejsce::Miejsce#Klucze do spejsu</title>
<ellipse fill="none" stroke="black" cx="633.08" cy="-878" rx="172.77" ry="18"/>
<text text-anchor="middle" x="633.08" y="-874.3" font-family="Times,serif" font-size="14.00">Miejsce::Miejsce#Klucze do spejsu</text>
</g>
<!-- cytP450&#45;&#45;Miejsce::Miejsce#Klucze do spejsu -->
<g id="edge1" class="edge">
<title>cytP450&#45;&#45;Miejsce::Miejsce#Klucze do spejsu</title>
<path fill="none" stroke="#ff0000" d="M123.16,-1044C195.39,-1044 327,-1044 327,-1044 327,-1044 327,-893.2 327,-893.2 327,-893.2 450.33,-893.2 540.42,-893.2"/>
</g>
<!-- Chciejlista#Elektronika (w sensie urzdze konsumenckich) -->
<g id="node3" class="node">
<title>Chciejlista#Elektronika (w sensie urzdze konsumenckich)</title>
<ellipse fill="none" stroke="black" cx="633.08" cy="-1050" rx="289.75" ry="18"/>
<text text-anchor="middle" x="633.08" y="-1046.3" font-family="Times,serif" font-size="14.00">Chciejlista#Elektronika (w sensie urzdze konsumenckich)</text>
</g>
<!-- cytP450&#45;&#45;Chciejlista#Elektronika (w sensie urzdze konsumenckich) -->
<g id="edge2" class="edge">
<title>cytP450&#45;&#45;Chciejlista#Elektronika (w sensie urzdze konsumenckich)</title>
<path fill="none" stroke="#ff0000" d="M125.88,-1052C176.56,-1052 260.15,-1052 344.99,-1052"/>
</g>
<!-- Infrastruktura::Domeny#Domeny -->
<g id="node4" class="node">
<title>Infrastruktura::Domeny#Domeny</title>
<ellipse fill="none" stroke="black" cx="633.08" cy="-792" rx="167.07" ry="18"/>
<text text-anchor="middle" x="633.08" y="-788.3" font-family="Times,serif" font-size="14.00">Infrastruktura::Domeny#Domeny</text>
</g>
<!-- cytP450&#45;&#45;Infrastruktura::Domeny#Domeny -->
<g id="edge3" class="edge">
<title>cytP450&#45;&#45;Infrastruktura::Domeny#Domeny</title>
<path fill="none" stroke="#ff0000" d="M117.58,-1040C186.96,-1040 321,-1040 321,-1040 321,-1040 321,-807.2 321,-807.2 321,-807.2 451.04,-807.2 543.23,-807.2"/>
</g>
<!-- Chciejlista#DIY -->
<g id="node5" class="node">
<title>Chciejlista#DIY</title>
<ellipse fill="none" stroke="black" cx="633.08" cy="-1179" rx="83.69" ry="18"/>
<text text-anchor="middle" x="633.08" y="-1175.3" font-family="Times,serif" font-size="14.00">Chciejlista#DIY</text>
</g>
<!-- cytP450&#45;&#45;Chciejlista#DIY -->
<g id="edge4" class="edge">
<title>cytP450&#45;&#45;Chciejlista#DIY</title>
<path fill="none" stroke="#ff0000" d="M107.83,-1064C156.32,-1064 245,-1064 245,-1064 245,-1064 245,-1179 245,-1179 245,-1179 434.74,-1179 548.87,-1179"/>
</g>
<!-- Zamek#Zamek -->
<g id="node6" class="node">
<title>Zamek#Zamek</title>
<ellipse fill="none" stroke="black" cx="633.08" cy="-1136" rx="81.49" ry="18"/>
<text text-anchor="middle" x="633.08" y="-1132.3" font-family="Times,serif" font-size="14.00">Zamek#Zamek</text>
</g>
<!-- cytP450&#45;&#45;Zamek#Zamek -->
<g id="edge5" class="edge">
<title>cytP450&#45;&#45;Zamek#Zamek</title>
<path fill="none" stroke="#ff0000" d="M117.73,-1060C174.09,-1060 269,-1060 269,-1060 269,-1060 269,-1136 269,-1136 269,-1136 444.52,-1136 551.83,-1136"/>
</g>
<!-- Stowarzyszenie#Komisja Rewizyjna -->
<g id="node7" class="node">
<title>Stowarzyszenie#Komisja Rewizyjna</title>
<ellipse fill="none" stroke="black" cx="633.08" cy="-1007" rx="178.17" ry="18"/>
<text text-anchor="middle" x="633.08" y="-1003.3" font-family="Times,serif" font-size="14.00">Stowarzyszenie#Komisja Rewizyjna</text>
</g>
<!-- cytP450&#45;&#45;Stowarzyszenie#Komisja Rewizyjna -->
<g id="edge6" class="edge">
<title>cytP450&#45;&#45;Stowarzyszenie#Komisja Rewizyjna</title>
<path fill="none" stroke="#ff0000" d="M125.49,-1048C200.97,-1048 338,-1048 338,-1048 338,-1048 338,-1016 338,-1016 338,-1016 407.23,-1016 478.63,-1016"/>
</g>
<!-- Kanay&#45;komunikacji# -->
<g id="node8" class="node">
<title>Kanay&#45;komunikacji#</title>
<ellipse fill="none" stroke="black" cx="633.08" cy="-577" rx="108.58" ry="18"/>
<text text-anchor="middle" x="633.08" y="-573.3" font-family="Times,serif" font-size="14.00">Kanay&#45;komunikacji#</text>
</g>
<!-- cytP450&#45;&#45;Kanay&#45;komunikacji# -->
<g id="edge7" class="edge">
<title>cytP450&#45;&#45;Kanay&#45;komunikacji#</title>
<path fill="none" stroke="#ff0000" d="M107.96,-1036C167.68,-1036 293,-1036 293,-1036 293,-1036 293,-587 293,-587 293,-587 441.65,-587 542.39,-587"/>
</g>
<!-- Przegld&#45;lokali&#45;na&#45;wynajem&#45;w&#45;odzi.&#45;Fundusz&#45;1000&#45;&#45;&#45;1500.#Bot Aleksego -->
<g id="node9" class="node">
<title>Przegld&#45;lokali&#45;na&#45;wynajem&#45;w&#45;odzi.&#45;Fundusz&#45;1000&#45;&#45;&#45;1500.#Bot Aleksego</title>
<ellipse fill="none" stroke="black" cx="633.08" cy="-1093" rx="351.74" ry="18"/>
<text text-anchor="middle" x="633.08" y="-1089.3" font-family="Times,serif" font-size="14.00">Przegld&#45;lokali&#45;na&#45;wynajem&#45;w&#45;odzi.&#45;Fundusz&#45;1000&#45;&#45;&#45;1500.#Bot Aleksego</text>
</g>
<!-- cytP450&#45;&#45;Przegld&#45;lokali&#45;na&#45;wynajem&#45;w&#45;odzi.&#45;Fundusz&#45;1000&#45;&#45;&#45;1500.#Bot Aleksego -->
<g id="edge8" class="edge">
<title>cytP450&#45;&#45;Przegld&#45;lokali&#45;na&#45;wynajem&#45;w&#45;odzi.&#45;Fundusz&#45;1000&#45;&#45;&#45;1500.#Bot Aleksego</title>
<path fill="none" stroke="#ff0000" d="M123.19,-1056C196.67,-1056 332,-1056 332,-1056 332,-1056 332,-1072.7 332,-1083.66"/>
</g>
<!-- d33tah -->
<g id="node10" class="node">
<title>d33tah</title>
<ellipse fill="none" stroke="black" cx="77.02" cy="-470" rx="43.59" ry="18"/>
<text text-anchor="middle" x="77.02" y="-466.3" font-family="Times,serif" font-size="14.00">d33tah</text>
</g>
<!-- d33tah&#45;&#45;Miejsce::Miejsce#Klucze do spejsu -->
<g id="edge9" class="edge">
<title>d33tah&#45;&#45;Miejsce::Miejsce#Klucze do spejsu</title>
<path fill="none" stroke="#2bd500" d="M33.11,-470C15.81,-470 0,-470 0,-470 0,-470 0,-874.67 0,-874.67 0,-874.67 275.49,-874.67 463.01,-874.67"/>
</g>
<!-- d33tah&#45;&#45;Infrastruktura::Domeny#Domeny -->
<g id="edge17" class="edge">
<title>d33tah&#45;&#45;Infrastruktura::Domeny#Domeny</title>
<path fill="none" stroke="#2bd500" d="M101.39,-485C122.27,-485 149,-485 149,-485 149,-485 149,-777.75 149,-777.75 149,-777.75 388.99,-777.75 531.01,-777.75"/>
</g>
<!-- d33tah&#45;&#45;Kanay&#45;komunikacji# -->
<g id="edge20" class="edge">
<title>d33tah&#45;&#45;Kanay&#45;komunikacji#</title>
<path fill="none" stroke="#2bd500" d="M116,-478.24C116,-502.99 116,-575 116,-575 116,-575 373.42,-575 525,-575"/>
</g>
<!-- Infrastruktura::Mariuszbot#Mariuszbot -->
<g id="node11" class="node">
<title>Infrastruktura::Mariuszbot#Mariuszbot</title>
<ellipse fill="none" stroke="black" cx="633.08" cy="-448" rx="196.07" ry="18"/>
<text text-anchor="middle" x="633.08" y="-444.3" font-family="Times,serif" font-size="14.00">Infrastruktura::Mariuszbot#Mariuszbot</text>
</g>
<!-- d33tah&#45;&#45;Infrastruktura::Mariuszbot#Mariuszbot -->
<g id="edge10" class="edge">
<title>d33tah&#45;&#45;Infrastruktura::Mariuszbot#Mariuszbot</title>
<path fill="none" stroke="#2bd500" d="M118.36,-464C207.77,-464 420.91,-464 543.03,-464"/>
</g>
<!-- Drzwi&#45;frontowe#Ekran  -->
<g id="node12" class="node">
<title>Drzwi&#45;frontowe#Ekran </title>
<ellipse fill="none" stroke="black" cx="633.08" cy="-405" rx="120.78" ry="18"/>
<text text-anchor="middle" x="633.08" y="-401.3" font-family="Times,serif" font-size="14.00">Drzwi&#45;frontowe#Ekran </text>
</g>
<!-- d33tah&#45;&#45;Drzwi&#45;frontowe#Ekran  -->
<g id="edge11" class="edge">
<title>d33tah&#45;&#45;Drzwi&#45;frontowe#Ekran </title>
<path fill="none" stroke="black" d="M92,-452.92C92,-433.66 92,-405 92,-405 92,-405 352.49,-405 511.99,-405"/>
</g>
<!-- Infrastruktura::Github#Github -->
<g id="node16" class="node">
<title>Infrastruktura::Github#Github</title>
<ellipse fill="none" stroke="black" cx="633.08" cy="-319" rx="154.07" ry="18"/>
<text text-anchor="middle" x="633.08" y="-315.3" font-family="Times,serif" font-size="14.00">Infrastruktura::Github#Github</text>
</g>
<!-- d33tah&#45;&#45;Infrastruktura::Github#Github -->
<g id="edge12" class="edge">
<title>d33tah&#45;&#45;Infrastruktura::Github#Github</title>
<path fill="none" stroke="#2bd500" d="M63,-452.68C63,-413.02 63,-319 63,-319 63,-319 309.98,-319 478.81,-319"/>
</g>
<!-- Infrastruktura::Telegram#HS24: t.me/hsl_info -->
<g id="node17" class="node">
<title>Infrastruktura::Telegram#HS24: t.me/hsl_info</title>
<ellipse fill="none" stroke="black" cx="633.08" cy="-276" rx="231.26" ry="18"/>
<text text-anchor="middle" x="633.08" y="-272.3" font-family="Times,serif" font-size="14.00">Infrastruktura::Telegram#HS24: t.me/hsl_info</text>
</g>
<!-- d33tah&#45;&#45;Infrastruktura::Telegram#HS24: t.me/hsl_info -->
<g id="edge13" class="edge">
<title>d33tah&#45;&#45;Infrastruktura::Telegram#HS24: t.me/hsl_info</title>
<path fill="none" stroke="#2bd500" d="M113.32,-460C193.38,-460 378,-460 378,-460 378,-460 378,-286.8 378,-286.8 378,-286.8 408.14,-286.8 447.7,-286.8"/>
</g>
<!-- Marketing&#45;i&#45;media&#45;spoecznociowe# -->
<g id="node18" class="node">
<title>Marketing&#45;i&#45;media&#45;spoecznociowe#</title>
<ellipse fill="none" stroke="black" cx="633.08" cy="-663" rx="183.07" ry="18"/>
<text text-anchor="middle" x="633.08" y="-659.3" font-family="Times,serif" font-size="14.00">Marketing&#45;i&#45;media&#45;spoecznociowe#</text>
</g>
<!-- d33tah&#45;&#45;Marketing&#45;i&#45;media&#45;spoecznociowe# -->
<g id="edge14" class="edge">
<title>d33tah&#45;&#45;Marketing&#45;i&#45;media&#45;spoecznociowe#</title>
<path fill="none" stroke="#2bd500" d="M114.98,-479C150.13,-479 197,-479 197,-479 197,-479 197,-654 197,-654 197,-654 349.47,-654 474.1,-654"/>
</g>
<!-- Bazy&#45;danych#Pad -->
<g id="node19" class="node">
<title>Bazy&#45;danych#Pad</title>
<ellipse fill="none" stroke="black" cx="633.08" cy="-233" rx="94.48" ry="18"/>
<text text-anchor="middle" x="633.08" y="-229.3" font-family="Times,serif" font-size="14.00">Bazy&#45;danych#Pad</text>
</g>
<!-- d33tah&#45;&#45;Bazy&#45;danych#Pad -->
<g id="edge15" class="edge">
<title>d33tah&#45;&#45;Bazy&#45;danych#Pad</title>
<path fill="none" stroke="#2bd500" d="M104.52,-456C132.89,-456 173,-456 173,-456 173,-456 173,-233 173,-233 173,-233 403.95,-233 538.59,-233"/>
</g>
<!-- Bazy&#45;danych#Grafana -->
<g id="node20" class="node">
<title>Bazy&#45;danych#Grafana</title>
<ellipse fill="none" stroke="black" cx="633.08" cy="-190" rx="114.28" ry="18"/>
<text text-anchor="middle" x="633.08" y="-186.3" font-family="Times,serif" font-size="14.00">Bazy&#45;danych#Grafana</text>
</g>
<!-- d33tah&#45;&#45;Bazy&#45;danych#Grafana -->
<g id="edge16" class="edge">
<title>d33tah&#45;&#45;Bazy&#45;danych#Grafana</title>
<path fill="none" stroke="#2bd500" d="M97.35,-454C122.2,-454 161,-454 161,-454 161,-454 161,-190 161,-190 161,-190 378.78,-190 518.5,-190"/>
</g>
<!-- Infrastruktura::Telegram#G贸wny: t.me/hakierspejs -->
<g id="node21" class="node">
<title>Infrastruktura::Telegram#G贸wny: t.me/hakierspejs</title>
<ellipse fill="none" stroke="black" cx="633.08" cy="-362" rx="251.56" ry="18"/>
<text text-anchor="middle" x="633.08" y="-358.3" font-family="Times,serif" font-size="14.00">Infrastruktura::Telegram#G贸wny: t.me/hakierspejs</text>
</g>
<!-- d33tah&#45;&#45;Infrastruktura::Telegram#G贸wny: t.me/hakierspejs -->
<g id="edge18" class="edge">
<title>d33tah&#45;&#45;Infrastruktura::Telegram#G贸wny: t.me/hakierspejs</title>
<path fill="none" stroke="#2bd500" d="M116.19,-462C204.22,-462 410,-462 410,-462 410,-462 410,-394.71 410,-370.53"/>
</g>
<!-- Stowarzyszenie#Zarzd -->
<g id="node22" class="node">
<title>Stowarzyszenie#Zarzd</title>
<ellipse fill="none" stroke="black" cx="633.08" cy="-620" rx="123.48" ry="18"/>
<text text-anchor="middle" x="633.08" y="-616.3" font-family="Times,serif" font-size="14.00">Stowarzyszenie#Zarzd</text>
</g>
<!-- d33tah&#45;&#45;Stowarzyszenie#Zarzd -->
<g id="edge19" class="edge">
<title>d33tah&#45;&#45;Stowarzyszenie#Zarzd</title>
<path fill="none" stroke="#2bd500" d="M117,-477.29C117,-497.97 117,-555.5 117,-555.5 117,-555.5 520,-555.5 520,-555.5 520,-555.5 520,-595.66 520,-612.6"/>
</g>
<!-- Infrastruktura::Telegram#Spacerspejs: t.me/joinchat/UYf2ONtNj21J1DS6 -->
<g id="node23" class="node">
<title>Infrastruktura::Telegram#Spacerspejs: t.me/joinchat/UYf2ONtNj21J1DS6</title>
<ellipse fill="none" stroke="black" cx="633.08" cy="-534" rx="352.84" ry="18"/>
<text text-anchor="middle" x="633.08" y="-530.3" font-family="Times,serif" font-size="14.00">Infrastruktura::Telegram#Spacerspejs: t.me/joinchat/UYf2ONtNj21J1DS6</text>
</g>
<!-- d33tah&#45;&#45;Infrastruktura::Telegram#Spacerspejs: t.me/joinchat/UYf2ONtNj21J1DS6 -->
<g id="edge21" class="edge">
<title>d33tah&#45;&#45;Infrastruktura::Telegram#Spacerspejs: t.me/joinchat/UYf2ONtNj21J1DS6</title>
<path fill="none" stroke="#2bd500" d="M119,-475.02C119,-490.11 119,-534 119,-534 119,-534 190.35,-534 279.9,-534"/>
</g>
<!-- Bazy&#45;danych#Trello -->
<g id="node24" class="node">
<title>Bazy&#45;danych#Trello</title>
<ellipse fill="none" stroke="black" cx="633.08" cy="-491" rx="103.98" ry="18"/>
<text text-anchor="middle" x="633.08" y="-487.3" font-family="Times,serif" font-size="14.00">Bazy&#45;danych#Trello</text>
</g>
<!-- d33tah&#45;&#45;Bazy&#45;danych#Trello -->
<g id="edge22" class="edge">
<title>d33tah&#45;&#45;Bazy&#45;danych#Trello</title>
<path fill="none" stroke="#2bd500" d="M118.36,-476C216.27,-476 462.52,-476 575.19,-476"/>
</g>
<!-- Infrastruktura::IRC#IRC -->
<g id="node25" class="node">
<title>Infrastruktura::IRC#IRC</title>
<ellipse fill="none" stroke="black" cx="633.08" cy="-18" rx="124.58" ry="18"/>
<text text-anchor="middle" x="633.08" y="-14.3" font-family="Times,serif" font-size="14.00">Infrastruktura::IRC#IRC</text>
</g>
<!-- d33tah&#45;&#45;Infrastruktura::IRC#IRC -->
<g id="edge23" class="edge">
<title>d33tah&#45;&#45;Infrastruktura::IRC#IRC</title>
<path fill="none" stroke="#2bd500" d="M109.57,-458C177.48,-458 328,-458 328,-458 328,-458 328,-28.8 328,-28.8 328,-28.8 444.21,-28.8 533.19,-28.8"/>
</g>
<!-- Infrastruktura::Telegram#posty: t.me/hakierspejs_spam -->
<g id="node26" class="node">
<title>Infrastruktura::Telegram#posty: t.me/hakierspejs_spam</title>
<ellipse fill="none" stroke="black" cx="633.08" cy="-706" rx="284.05" ry="18"/>
<text text-anchor="middle" x="633.08" y="-702.3" font-family="Times,serif" font-size="14.00">Infrastruktura::Telegram#posty: t.me/hakierspejs_spam</text>
</g>
<!-- d33tah&#45;&#45;Infrastruktura::Telegram#posty: t.me/hakierspejs_spam -->
<g id="edge24" class="edge">
<title>d33tah&#45;&#45;Infrastruktura::Telegram#posty: t.me/hakierspejs_spam</title>
<path fill="none" stroke="#2bd500" d="M109.71,-482C141.49,-482 185,-482 185,-482 185,-482 185,-697 185,-697 185,-697 282.84,-697 387.08,-697"/>
</g>
<!-- nastpne -->
<g id="node13" class="node">
<title>nastpne</title>
<ellipse fill="none" stroke="black" cx="77.02" cy="-1093" rx="53.09" ry="18"/>
<text text-anchor="middle" x="77.02" y="-1089.3" font-family="Times,serif" font-size="14.00">nastpne</text>
</g>
<!-- spotkanie -->
<g id="node14" class="node">
<title>spotkanie</title>
<ellipse fill="none" stroke="black" cx="77.02" cy="-1136" rx="55.79" ry="18"/>
<text text-anchor="middle" x="77.02" y="-1132.3" font-family="Times,serif" font-size="14.00">spotkanie</text>
</g>
<g id="node15" class="node">
<title></title>
<ellipse fill="none" stroke="#2bd500" cx="77.02" cy="-1179" rx="27" ry="18"/>
</g>
<!-- kszmigiel -->
<g id="node27" class="node">
<title>kszmigiel</title>
<ellipse fill="none" stroke="black" cx="77.02" cy="-620" rx="54.69" ry="18"/>
<text text-anchor="middle" x="77.02" y="-616.3" font-family="Times,serif" font-size="14.00">kszmigiel</text>
</g>
<!-- kszmigiel&#45;&#45;Infrastruktura::Github#Github -->
<g id="edge26" class="edge">
<title>kszmigiel&#45;&#45;Infrastruktura::Github#Github</title>
<path fill="none" stroke="#0061f2" d="M125,-611.35C125,-563.26 125,-331 125,-331 125,-331 368.23,-331 518.11,-331"/>
</g>
<!-- kszmigiel&#45;&#45;Marketing&#45;i&#45;media&#45;spoecznociowe# -->
<g id="edge27" class="edge">
<title>kszmigiel&#45;&#45;Marketing&#45;i&#45;media&#45;spoecznociowe#</title>
<path fill="none" stroke="#0061f2" d="M127,-627.42C127,-638.61 127,-658.5 127,-658.5 127,-658.5 309.55,-658.5 455.37,-658.5"/>
</g>
<!-- kszmigiel&#45;&#45;Infrastruktura::Telegram#G贸wny: t.me/hakierspejs -->
<g id="edge28" class="edge">
<title>kszmigiel&#45;&#45;Infrastruktura::Telegram#G贸wny: t.me/hakierspejs</title>
<path fill="none" stroke="#0061f2" d="M127,-612.73C127,-571.41 127,-368 127,-368 127,-368 264.11,-368 395.6,-368"/>
</g>
<!-- kszmigiel&#45;&#45;Stowarzyszenie#Zarzd -->
<g id="edge29" class="edge">
<title>kszmigiel&#45;&#45;Stowarzyszenie#Zarzd</title>
<path fill="none" stroke="#0061f2" d="M128.83,-614C216.73,-614 397.12,-614 516.59,-614"/>
</g>
<!-- kszmigiel&#45;&#45;Infrastruktura::Telegram#posty: t.me/hakierspejs_spam -->
<g id="edge30" class="edge">
<title>kszmigiel&#45;&#45;Infrastruktura::Telegram#posty: t.me/hakierspejs_spam</title>
<path fill="none" stroke="#0061f2" d="M123,-629.87C123,-652.45 123,-706 123,-706 123,-706 231.83,-706 348.96,-706"/>
</g>
<!-- Marketing&#45;i&#45;media&#45;spoecznociowe#Naklejki -->
<g id="node28" class="node">
<title>Marketing&#45;i&#45;media&#45;spoecznociowe#Naklejki</title>
<ellipse fill="none" stroke="black" cx="633.08" cy="-749" rx="221.76" ry="18"/>
<text text-anchor="middle" x="633.08" y="-745.3" font-family="Times,serif" font-size="14.00">Marketing&#45;i&#45;media&#45;spoecznociowe#Naklejki</text>
</g>
<!-- kszmigiel&#45;&#45;Marketing&#45;i&#45;media&#45;spoecznociowe#Naklejki -->
<g id="edge25" class="edge">
<title>kszmigiel&#45;&#45;Marketing&#45;i&#45;media&#45;spoecznociowe#Naklejki</title>
<path fill="none" stroke="#0061f2" d="M119,-631.7C119,-662.23 119,-742 119,-742 119,-742 285.35,-742 428.8,-742"/>
</g>
<!-- thinkofher -->
<g id="node29" class="node">
<title>thinkofher</title>
<ellipse fill="none" stroke="black" cx="77.02" cy="-276" rx="59.29" ry="18"/>
<text text-anchor="middle" x="77.02" y="-272.3" font-family="Times,serif" font-size="14.00">thinkofher</text>
</g>
<!-- thinkofher&#45;&#45;Kanay&#45;komunikacji# -->
<g id="edge36" class="edge">
<title>thinkofher&#45;&#45;Kanay&#45;komunikacji#</title>
<path fill="none" stroke="#c60077" d="M124.56,-265.2C166.5,-265.2 221,-265.2 221,-265.2 221,-265.2 221,-567 221,-567 221,-567 421.35,-567 542.65,-567"/>
</g>
<!-- thinkofher&#45;&#45;Infrastruktura::Github#Github -->
<g id="edge31" class="edge">
<title>thinkofher&#45;&#45;Infrastruktura::Github#Github</title>
<path fill="none" stroke="#c60077" d="M130,-284.21C130,-295.11 130,-313 130,-313 130,-313 338.99,-313 487.57,-313"/>
</g>
<!-- thinkofher&#45;&#45;Marketing&#45;i&#45;media&#45;spoecznociowe# -->
<g id="edge32" class="edge">
<title>thinkofher&#45;&#45;Marketing&#45;i&#45;media&#45;spoecznociowe#</title>
<path fill="none" stroke="#c60077" d="M135.29,-272.4C170.65,-272.4 209,-272.4 209,-272.4 209,-272.4 209,-649.5 209,-649.5 209,-649.5 386.51,-649.5 511.84,-649.5"/>
</g>
<!-- thinkofher&#45;&#45;Infrastruktura::Telegram#G贸wny: t.me/hakierspejs -->
<g id="edge34" class="edge">
<title>thinkofher&#45;&#45;Infrastruktura::Telegram#G贸wny: t.me/hakierspejs</title>
<path fill="none" stroke="#c60077" d="M128,-285.18C128,-306.19 128,-356 128,-356 128,-356 264.58,-356 395.7,-356"/>
</g>
<!-- thinkofher&#45;&#45;Infrastruktura::IRC#IRC -->
<g id="edge37" class="edge">
<title>thinkofher&#45;&#45;Infrastruktura::IRC#IRC</title>
<path fill="none" stroke="#c60077" d="M127,-266.34C127,-219.87 127,-21.6 127,-21.6 127,-21.6 360.8,-21.6 510.57,-21.6"/>
</g>
<!-- Infrastruktura::Matrix#hs&#45;ldz&#45;offtopic:hackerspace.pl -->
<g id="node30" class="node">
<title>Infrastruktura::Matrix#hs&#45;ldz&#45;offtopic:hackerspace.pl</title>
<ellipse fill="none" stroke="black" cx="633.08" cy="-104" rx="258.85" ry="18"/>
<text text-anchor="middle" x="633.08" y="-100.3" font-family="Times,serif" font-size="14.00">Infrastruktura::Matrix#hs&#45;ldz&#45;offtopic:hackerspace.pl</text>
</g>
<!-- thinkofher&#45;&#45;Infrastruktura::Matrix#hs&#45;ldz&#45;offtopic:hackerspace.pl -->
<g id="edge33" class="edge">
<title>thinkofher&#45;&#45;Infrastruktura::Matrix#hs&#45;ldz&#45;offtopic:hackerspace.pl</title>
<path fill="none" stroke="#c60077" d="M135.21,-279.6C222.45,-279.6 377,-279.6 377,-279.6 377,-279.6 377,-129.1 377,-106.76"/>
</g>
<!-- Bazy&#45;danych# -->
<g id="node31" class="node">
<title>Bazy&#45;danych#</title>
<ellipse fill="none" stroke="black" cx="633.08" cy="-61" rx="77.19" ry="18"/>
<text text-anchor="middle" x="633.08" y="-57.3" font-family="Times,serif" font-size="14.00">Bazy&#45;danych#</text>
</g>
<!-- thinkofher&#45;&#45;Bazy&#45;danych# -->
<g id="edge35" class="edge">
<title>thinkofher&#45;&#45;Bazy&#45;danych#</title>
<path fill="none" stroke="#c60077" d="M130,-267.81C130,-229.17 130,-67 130,-67 130,-67 420.4,-67 559.93,-67"/>
</g>
<!-- Infrastruktura::Matrix#hs&#45;ldz:hackerspace.pl -->
<g id="node32" class="node">
<title>Infrastruktura::Matrix#hs&#45;ldz:hackerspace.pl</title>
<ellipse fill="none" stroke="black" cx="633.08" cy="-147" rx="221.76" ry="18"/>
<text text-anchor="middle" x="633.08" y="-143.3" font-family="Times,serif" font-size="14.00">Infrastruktura::Matrix#hs&#45;ldz:hackerspace.pl</text>
</g>
<!-- thinkofher&#45;&#45;Infrastruktura::Matrix#hs&#45;ldz:hackerspace.pl -->
<g id="edge38" class="edge">
<title>thinkofher&#45;&#45;Infrastruktura::Matrix#hs&#45;ldz:hackerspace.pl</title>
<path fill="none" stroke="#c60077" d="M133,-270.12C133,-244.89 133,-147 133,-147 133,-147 277.53,-147 411.19,-147"/>
</g>
<!-- kpc -->
<g id="node33" class="node">
<title>kpc</title>
<ellipse fill="none" stroke="black" cx="77.02" cy="-900" rx="27" ry="18"/>
<text text-anchor="middle" x="77.02" y="-896.3" font-family="Times,serif" font-size="14.00">kpc</text>
</g>
<!-- kpc&#45;&#45;Miejsce::Miejsce#Klucze do spejsu -->
<g id="edge39" class="edge">
<title>kpc&#45;&#45;Miejsce::Miejsce#Klucze do spejsu</title>
<path fill="none" stroke="#b6e400" d="M100.2,-890.4C168.55,-890.4 372.86,-890.4 507.72,-890.4"/>
</g>
<!-- kpc&#45;&#45;Stowarzyszenie#Komisja Rewizyjna -->
<g id="edge43" class="edge">
<title>kpc&#45;&#45;Stowarzyszenie#Komisja Rewizyjna</title>
<path fill="none" stroke="#b6e400" d="M99.09,-910.5C147.15,-910.5 257,-910.5 257,-910.5 257,-910.5 257,-998 257,-998 257,-998 374.96,-998 478.76,-998"/>
</g>
<!-- kpc&#45;&#45;Marketing&#45;i&#45;media&#45;spoecznociowe# -->
<g id="edge40" class="edge">
<title>kpc&#45;&#45;Marketing&#45;i&#45;media&#45;spoecznociowe#</title>
<path fill="none" stroke="#b6e400" d="M91.61,-884.8C143.49,-884.8 316,-884.8 316,-884.8 316,-884.8 316,-676.5 316,-676.5 316,-676.5 422.34,-676.5 511.85,-676.5"/>
</g>
<!-- kpc&#45;&#45;Infrastruktura::Telegram#posty: t.me/hakierspejs_spam -->
<g id="edge44" class="edge">
<title>kpc&#45;&#45;Infrastruktura::Telegram#posty: t.me/hakierspejs_spam</title>
<path fill="none" stroke="#b6e400" d="M96.77,-887.6C163.73,-887.6 378,-887.6 378,-887.6 378,-887.6 378,-749.8 378,-714.27"/>
</g>
<!-- Czaty&#45;HS#HS: posty wyklte -->
<g id="node34" class="node">
<title>Czaty&#45;HS#HS: posty wyklte</title>
<ellipse fill="none" stroke="black" cx="633.08" cy="-964" rx="157.87" ry="18"/>
<text text-anchor="middle" x="633.08" y="-960.3" font-family="Times,serif" font-size="14.00">Czaty&#45;HS#HS: posty wyklte</text>
</g>
<!-- kpc&#45;&#45;Czaty&#45;HS#HS: posty wyklte -->
<g id="edge41" class="edge">
<title>kpc&#45;&#45;Czaty&#45;HS#HS: posty wyklte</title>
<path fill="none" stroke="#b6e400" d="M93.74,-914.25C103.14,-914.25 113,-914.25 113,-914.25 113,-914.25 113,-958 113,-958 113,-958 330.36,-958 484.05,-958"/>
</g>
<!-- Infrastruktura::Telegram#Posty wyklte (celowo bez linka) -->
<g id="node35" class="node">
<title>Infrastruktura::Telegram#Posty wyklte (celowo bez linka)</title>
<ellipse fill="none" stroke="black" cx="633.08" cy="-921" rx="284.05" ry="18"/>
<text text-anchor="middle" x="633.08" y="-917.3" font-family="Times,serif" font-size="14.00">Infrastruktura::Telegram#Posty wyklte (celowo bez linka)</text>
</g>
<!-- kpc&#45;&#45;Infrastruktura::Telegram#Posty wyklte (celowo bez linka) -->
<g id="edge42" class="edge">
<title>kpc&#45;&#45;Infrastruktura::Telegram#Posty wyklte (celowo bez linka)</title>
<path fill="none" stroke="#b6e400" d="M102.36,-906.75C164.66,-906.75 329.7,-906.75 459.35,-906.75"/>
</g>
<!-- kujaw -->
<g id="node36" class="node">
<title>kujaw</title>
<ellipse fill="none" stroke="black" cx="77.02" cy="-814" rx="38.19" ry="18"/>
<text text-anchor="middle" x="77.02" y="-810.3" font-family="Times,serif" font-size="14.00">kujaw</text>
</g>
<!-- kujaw&#45;&#45;Miejsce::Miejsce#Klucze do spejsu -->
<g id="edge45" class="edge">
<title>kujaw&#45;&#45;Miejsce::Miejsce#Klucze do spejsu</title>
<path fill="none" stroke="#00ffff" d="M111,-822.81C111,-837.96 111,-867.33 111,-867.33 111,-867.33 338.86,-867.33 493.52,-867.33"/>
</g>
<!-- kujaw&#45;&#45;Marketing&#45;i&#45;media&#45;spoecznociowe# -->
<g id="edge47" class="edge">
<title>kujaw&#45;&#45;Marketing&#45;i&#45;media&#45;spoecznociowe#</title>
<path fill="none" stroke="#00ffff" d="M105.12,-801.6C167.09,-801.6 310,-801.6 310,-801.6 310,-801.6 310,-672 310,-672 310,-672 392.36,-672 473.91,-672"/>
</g>
<!-- kujaw&#45;&#45;Stowarzyszenie#Zarzd -->
<g id="edge48" class="edge">
<title>kujaw&#45;&#45;Stowarzyszenie#Zarzd</title>
<path fill="none" stroke="#00ffff" d="M97.9,-798.8C153.16,-798.8 299,-798.8 299,-798.8 299,-798.8 299,-626 299,-626 299,-626 419.9,-626 516.24,-626"/>
</g>
<!-- kujaw&#45;&#45;Marketing&#45;i&#45;media&#45;spoecznociowe#Naklejki -->
<g id="edge46" class="edge">
<title>kujaw&#45;&#45;Marketing&#45;i&#45;media&#45;spoecznociowe#Naklejki</title>
<path fill="none" stroke="#00ffff" d="M109.59,-804.4C196.98,-804.4 430,-804.4 430,-804.4 430,-804.4 430,-771.26 430,-756.24"/>
</g>
<!-- Marketing&#45;i&#45;media&#45;spoecznociowe#Logo nr 2 -->
<g id="node37" class="node">
<title>Marketing&#45;i&#45;media&#45;spoecznociowe#Logo nr 2</title>
<ellipse fill="none" stroke="black" cx="633.08" cy="-835" rx="227.46" ry="18"/>
<text text-anchor="middle" x="633.08" y="-831.3" font-family="Times,serif" font-size="14.00">Marketing&#45;i&#45;media&#45;spoecznociowe#Logo nr 2</text>
</g>
<!-- kujaw&#45;&#45;Marketing&#45;i&#45;media&#45;spoecznociowe#Logo nr 2 -->
<g id="edge49" class="edge">
<title>kujaw&#45;&#45;Marketing&#45;i&#45;media&#45;spoecznociowe#Logo nr 2</title>
<path fill="none" stroke="#00ffff" d="M108.51,-824.5C173.01,-824.5 324.5,-824.5 448.19,-824.5"/>
</g>
<!-- pmysl -->
<g id="node38" class="node">
<title>pmysl</title>
<ellipse fill="none" stroke="black" cx="77.02" cy="-190" rx="38.19" ry="18"/>
<text text-anchor="middle" x="77.02" y="-186.3" font-family="Times,serif" font-size="14.00">pmysl</text>
</g>
<!-- pmysl&#45;&#45;Kanay&#45;komunikacji# -->
<g id="edge53" class="edge">
<title>pmysl&#45;&#45;Kanay&#45;komunikacji#</title>
<path fill="none" stroke="#ab00d5" d="M105.63,-202C150.66,-202 233,-202 233,-202 233,-202 233,-563 233,-563 233,-563 450.49,-563 564.76,-563"/>
</g>
<!-- pmysl&#45;&#45;Infrastruktura::Github#Github -->
<g id="edge50" class="edge">
<title>pmysl&#45;&#45;Infrastruktura::Github#Github</title>
<path fill="none" stroke="#ab00d5" d="M113.26,-196C193.68,-196 380,-196 380,-196 380,-196 380,-307 380,-307 380,-307 451.16,-307 518.02,-307"/>
</g>
<!-- pmysl&#45;&#45;Bazy&#45;danych#Grafana -->
<g id="edge51" class="edge">
<title>pmysl&#45;&#45;Bazy&#45;danych#Grafana</title>
<path fill="none" stroke="#ab00d5" d="M113.5,-184C195.83,-184 398.71,-184 525.22,-184"/>
</g>
<!-- pmysl&#45;&#45;Infrastruktura::IRC#IRC -->
<g id="edge54" class="edge">
<title>pmysl&#45;&#45;Infrastruktura::IRC#IRC</title>
<path fill="none" stroke="#ab00d5" d="M105.62,-178C114.97,-178 123,-178 123,-178 123,-178 123,-14.4 123,-14.4 123,-14.4 359.66,-14.4 510.58,-14.4"/>
</g>
<!-- pmysl&#45;&#45;Bazy&#45;danych# -->
<g id="edge52" class="edge">
<title>pmysl&#45;&#45;Bazy&#45;danych#</title>
<path fill="none" stroke="#ab00d5" d="M78,-171.79C78,-134.94 78,-55 78,-55 78,-55 409.21,-55 559.94,-55"/>
</g>
<!-- SP7Q -->
<g id="node39" class="node">
<title>SP7Q</title>
<ellipse fill="none" stroke="black" cx="77.02" cy="-577" rx="36.29" ry="18"/>
<text text-anchor="middle" x="77.02" y="-573.3" font-family="Times,serif" font-size="14.00">SP7Q</text>
</g>
<!-- SP7Q&#45;&#45;Infrastruktura::Github#Github -->
<g id="edge57" class="edge">
<title>SP7Q&#45;&#45;Infrastruktura::Github#Github</title>
<path fill="none" stroke="#f29100" d="M111.4,-571C118.05,-571 123,-571 123,-571 123,-571 123,-325 123,-325 123,-325 336.83,-325 487.6,-325"/>
</g>
<!-- SP7Q&#45;&#45;Marketing&#45;i&#45;media&#45;spoecznociowe# -->
<g id="edge55" class="edge">
<title>SP7Q&#45;&#45;Marketing&#45;i&#45;media&#45;spoecznociowe#</title>
<path fill="none" stroke="#f29100" d="M100.13,-591C185.76,-591 480,-591 480,-591 480,-591 480,-633.21 480,-652.99"/>
</g>
<!-- SP7Q&#45;&#45;Stowarzyszenie#Zarzd -->
<g id="edge56" class="edge">
<title>SP7Q&#45;&#45;Stowarzyszenie#Zarzd</title>
<path fill="none" stroke="#f29100" d="M113.23,-579C218.17,-579 515,-579 515,-579 515,-579 515,-603.53 515,-614.64"/>
</g>
<!-- BluRaf -->
<g id="node40" class="node">
<title>BluRaf</title>
<ellipse fill="none" stroke="black" cx="77.02" cy="-18" rx="42.49" ry="18"/>
<text text-anchor="middle" x="77.02" y="-14.3" font-family="Times,serif" font-size="14.00">BluRaf</text>
</g>
<!-- BluRaf&#45;&#45;Infrastruktura::IRC#IRC -->
<g id="edge58" class="edge">
<title>BluRaf&#45;&#45;Infrastruktura::IRC#IRC</title>
<path fill="none" stroke="#00c64f" d="M110.97,-7.2C193.26,-7.2 405.96,-7.2 533.04,-7.2"/>
</g>
<!-- biniu -->
<g id="node41" class="node">
<title>biniu</title>
<ellipse fill="none" stroke="black" cx="77.02" cy="-706" rx="34.39" ry="18"/>
<text text-anchor="middle" x="77.02" y="-702.3" font-family="Times,serif" font-size="14.00">biniu</text>
</g>
<!-- biniu&#45;&#45;Marketing&#45;i&#45;media&#45;spoecznociowe# -->
<g id="edge59" class="edge">
<title>biniu&#45;&#45;Marketing&#45;i&#45;media&#45;spoecznociowe#</title>
<path fill="none" stroke="#2e00e4" d="M107.16,-715C168.9,-715 304,-715 304,-715 304,-715 304,-667.5 304,-667.5 304,-667.5 377.82,-667.5 455.54,-667.5"/>
</g>
<!-- Keij0 -->
<g id="node42" class="node">
<title>Keij0</title>
<ellipse fill="none" stroke="black" cx="77.02" cy="-663" rx="34.39" ry="18"/>
<text text-anchor="middle" x="77.02" y="-659.3" font-family="Times,serif" font-size="14.00">Keij0</text>
</g>
<!-- Keij0&#45;&#45;Marketing&#45;i&#45;media&#45;spoecznociowe# -->
<g id="edge60" class="edge">
<title>Keij0&#45;&#45;Marketing&#45;i&#45;media&#45;spoecznociowe#</title>
<path fill="none" stroke="#ff0000" d="M111.8,-663C178.32,-663 327.77,-663 449.67,-663"/>
</g>
<!-- q3k -->
<g id="node43" class="node">
<title>q3k</title>
<ellipse fill="none" stroke="black" cx="77.02" cy="-771" rx="27.9" ry="18"/>
<text text-anchor="middle" x="77.02" y="-767.3" font-family="Times,serif" font-size="14.00">q3k</text>
</g>
<!-- q3k&#45;&#45;Infrastruktura::Domeny#Domeny -->
<g id="edge62" class="edge">
<title>q3k&#45;&#45;Infrastruktura::Domeny#Domeny</title>
<path fill="none" stroke="#2bd500" d="M99.85,-781.5C166.12,-781.5 362.31,-781.5 497.29,-781.5"/>
</g>
<!-- q3k&#45;&#45;Kanay&#45;komunikacji# -->
<g id="edge63" class="edge">
<title>q3k&#45;&#45;Kanay&#45;komunikacji#</title>
<path fill="none" stroke="#2bd500" d="M99.2,-760C153.37,-760 288,-760 288,-760 288,-760 288,-583 288,-583 288,-583 428.76,-583 530.48,-583"/>
</g>
<!-- q3k&#45;&#45;Marketing&#45;i&#45;media&#45;spoecznociowe#Logo nr 2 -->
<g id="edge61" class="edge">
<title>q3k&#45;&#45;Marketing&#45;i&#45;media&#45;spoecznociowe#Logo nr 2</title>
<path fill="none" stroke="#2bd500" d="M94.41,-785.25C167.76,-785.25 448,-785.25 448,-785.25 448,-785.25 448,-809.85 448,-824.45"/>
</g>
<!-- pzduniak -->
<g id="node44" class="node">
<title>pzduniak</title>
<ellipse fill="none" stroke="black" cx="77.02" cy="-1007" rx="52.79" ry="18"/>
<text text-anchor="middle" x="77.02" y="-1003.3" font-family="Times,serif" font-size="14.00">pzduniak</text>
</g>
<!-- pzduniak&#45;&#45;Stowarzyszenie#Komisja Rewizyjna -->
<g id="edge64" class="edge">
<title>pzduniak&#45;&#45;Stowarzyszenie#Komisja Rewizyjna</title>
<path fill="none" stroke="#0061f2" d="M129.83,-1007C203.84,-1007 342,-1007 454.86,-1007"/>
</g>
<!-- krcz -->
<g id="node45" class="node">
<title>krcz</title>
<ellipse fill="none" stroke="black" cx="77.02" cy="-964" rx="30.59" ry="18"/>
<text text-anchor="middle" x="77.02" y="-960.3" font-family="Times,serif" font-size="14.00">krcz</text>
</g>
<!-- krcz&#45;&#45;Stowarzyszenie#Komisja Rewizyjna -->
<g id="edge65" class="edge">
<title>krcz&#45;&#45;Stowarzyszenie#Komisja Rewizyjna</title>
<path fill="none" stroke="#c60077" d="M105.94,-970C196.08,-970 466,-970 466,-970 466,-970 466,-989.95 466,-1000.56"/>
</g>
</g>
</svg>
