<?xml version="1.0" encoding="UTF-8" standalone="no"?>
<!DOCTYPE svg PUBLIC "-//W3C//DTD SVG 1.1//EN"
 "http://www.w3.org/Graphics/SVG/1.1/DTD/svg11.dtd">
<!-- Generated by graphviz version 2.42.4 (0)
 -->
<!-- Pages: 1 -->
<svg width="1001pt" height="1436pt"
 viewBox="0.00 0.00 1000.82 1436.00" xmlns="http://www.w3.org/2000/svg" xmlns:xlink="http://www.w3.org/1999/xlink">
<g id="graph0" class="graph" transform="scale(1 1) rotate(0) translate(4 1432)">
<polygon fill="white" stroke="transparent" points="-4,4 -4,-1432 996.82,-1432 996.82,4 -4,4"/>
<!-- cytP450 -->
<g id="node1" class="node">
<title>cytP450</title>
<ellipse fill="none" stroke="black" cx="71.49" cy="-1109" rx="48.99" ry="18"/>
<text text-anchor="middle" x="71.49" y="-1105.3" font-family="Times,serif" font-size="14.00">cytP450</text>
</g>
<!-- Chciejlista#DIY -->
<g id="node2" class="node">
<title>Chciejlista#DIY</title>
<ellipse fill="none" stroke="black" cx="639.91" cy="-1238" rx="83.69" ry="18"/>
<text text-anchor="middle" x="639.91" y="-1234.3" font-family="Times,serif" font-size="14.00">Chciejlista#DIY</text>
</g>
<!-- cytP450&#45;&#45;Chciejlista#DIY -->
<g id="edge1" class="edge">
<title>cytP450&#45;&#45;Chciejlista#DIY</title>
<path fill="none" stroke="#ff0000" d="M107.9,-1121C129.15,-1121 151.82,-1121 151.82,-1121 151.82,-1121 151.82,-1238 151.82,-1238 151.82,-1238 416.45,-1238 556,-1238"/>
</g>
<!-- Kanały&#45;komunikacji# -->
<g id="node3" class="node">
<title>Kanały&#45;komunikacji#</title>
<ellipse fill="none" stroke="black" cx="639.91" cy="-765" rx="108.58" ry="18"/>
<text text-anchor="middle" x="639.91" y="-761.3" font-family="Times,serif" font-size="14.00">Kanały&#45;komunikacji#</text>
</g>
<!-- cytP450&#45;&#45;Kanały&#45;komunikacji# -->
<g id="edge2" class="edge">
<title>cytP450&#45;&#45;Kanały&#45;komunikacji#</title>
<path fill="none" stroke="#ff0000" d="M108.26,-1097C168.07,-1097 279.82,-1097 279.82,-1097 279.82,-1097 279.82,-779.73 279.82,-779.73 279.82,-779.73 474.02,-779.73 577.18,-779.73"/>
</g>
<!-- Przegląd&#45;lokali&#45;na&#45;wynajem&#45;w&#45;Łodzi.&#45;Fundusz&#45;1000&#45;&#45;&#45;1500.#Bot Aleksego -->
<g id="node4" class="node">
<title>Przegląd&#45;lokali&#45;na&#45;wynajem&#45;w&#45;Łodzi.&#45;Fundusz&#45;1000&#45;&#45;&#45;1500.#Bot Aleksego</title>
<ellipse fill="none" stroke="black" cx="639.91" cy="-1195" rx="351.74" ry="18"/>
<text text-anchor="middle" x="639.91" y="-1191.3" font-family="Times,serif" font-size="14.00">Przegląd&#45;lokali&#45;na&#45;wynajem&#45;w&#45;Łodzi.&#45;Fundusz&#45;1000&#45;&#45;&#45;1500.#Bot Aleksego</text>
</g>
<!-- cytP450&#45;&#45;Przegląd&#45;lokali&#45;na&#45;wynajem&#45;w&#45;Łodzi.&#45;Fundusz&#45;1000&#45;&#45;&#45;1500.#Bot Aleksego -->
<g id="edge3" class="edge">
<title>cytP450&#45;&#45;Przegląd&#45;lokali&#45;na&#45;wynajem&#45;w&#45;Łodzi.&#45;Fundusz&#45;1000&#45;&#45;&#45;1500.#Bot Aleksego</title>
<path fill="none" stroke="#ff0000" d="M117.62,-1115C189.44,-1115 319.82,-1115 319.82,-1115 319.82,-1115 319.82,-1167.31 319.82,-1187.33"/>
</g>
<!-- Infrastruktura::Domeny#Domeny -->
<g id="node5" class="node">
<title>Infrastruktura::Domeny#Domeny</title>
<ellipse fill="none" stroke="black" cx="639.91" cy="-1066" rx="167.07" ry="18"/>
<text text-anchor="middle" x="639.91" y="-1062.3" font-family="Times,serif" font-size="14.00">Infrastruktura::Domeny#Domeny</text>
</g>
<!-- cytP450&#45;&#45;Infrastruktura::Domeny#Domeny -->
<g id="edge4" class="edge">
<title>cytP450&#45;&#45;Infrastruktura::Domeny#Domeny</title>
<path fill="none" stroke="#ff0000" d="M113.82,-1100.07C113.82,-1089.99 113.82,-1075 113.82,-1075 113.82,-1075 339.38,-1075 495.11,-1075"/>
</g>
<!-- Chciejlista#Elektronika (w sensie urządzeń konsumenckich) -->
<g id="node6" class="node">
<title>Chciejlista#Elektronika (w sensie urządzeń konsumenckich)</title>
<ellipse fill="none" stroke="black" cx="639.91" cy="-1152" rx="289.75" ry="18"/>
<text text-anchor="middle" x="639.91" y="-1148.3" font-family="Times,serif" font-size="14.00">Chciejlista#Elektronika (w sensie urządzeń konsumenckich)</text>
</g>
<!-- cytP450&#45;&#45;Chciejlista#Elektronika (w sensie urządzeń konsumenckich) -->
<g id="edge5" class="edge">
<title>cytP450&#45;&#45;Chciejlista#Elektronika (w sensie urządzeń konsumenckich)</title>
<path fill="none" stroke="#ff0000" d="M120.25,-1109C214.36,-1109 411.82,-1109 411.82,-1109 411.82,-1109 411.82,-1127.96 411.82,-1140.7"/>
</g>
<!-- Zamek#Zamek -->
<g id="node7" class="node">
<title>Zamek#Zamek</title>
<ellipse fill="none" stroke="black" cx="639.91" cy="-1109" rx="81.49" ry="18"/>
<text text-anchor="middle" x="639.91" y="-1105.3" font-family="Times,serif" font-size="14.00">Zamek#Zamek</text>
</g>
<!-- cytP450&#45;&#45;Zamek#Zamek -->
<g id="edge6" class="edge">
<title>cytP450&#45;&#45;Zamek#Zamek</title>
<path fill="none" stroke="#ff0000" d="M117.53,-1103C215.05,-1103 443.33,-1103 563.24,-1103"/>
</g>
<!-- d33tah -->
<g id="node8" class="node">
<title>d33tah</title>
<ellipse fill="none" stroke="black" cx="71.49" cy="-765" rx="43.59" ry="18"/>
<text text-anchor="middle" x="71.49" y="-761.3" font-family="Times,serif" font-size="14.00">d33tah</text>
</g>
<!-- d33tah&#45;&#45;Kanały&#45;komunikacji# -->
<g id="edge14" class="edge">
<title>d33tah&#45;&#45;Kanały&#45;komunikacji#</title>
<path fill="none" stroke="#2bd500" d="M110.56,-773.18C198.85,-773.18 415.94,-773.18 543,-773.18"/>
</g>
<!-- d33tah&#45;&#45;Infrastruktura::Domeny#Domeny -->
<g id="edge16" class="edge">
<title>d33tah&#45;&#45;Infrastruktura::Domeny#Domeny</title>
<path fill="none" stroke="#2bd500" d="M101.82,-777.92C101.82,-834.43 101.82,-1057 101.82,-1057 101.82,-1057 335.63,-1057 495,-1057"/>
</g>
<!-- Marketing&#45;i&#45;media&#45;społecznościowe# -->
<g id="node9" class="node">
<title>Marketing&#45;i&#45;media&#45;społecznościowe#</title>
<ellipse fill="none" stroke="black" cx="639.91" cy="-378" rx="183.07" ry="18"/>
<text text-anchor="middle" x="639.91" y="-374.3" font-family="Times,serif" font-size="14.00">Marketing&#45;i&#45;media&#45;społecznościowe#</text>
</g>
<!-- d33tah&#45;&#45;Marketing&#45;i&#45;media&#45;społecznościowe# -->
<g id="edge7" class="edge">
<title>d33tah&#45;&#45;Marketing&#45;i&#45;media&#45;społecznościowe#</title>
<path fill="none" stroke="#2bd500" d="M96.55,-750.27C141.64,-750.27 231.82,-750.27 231.82,-750.27 231.82,-750.27 231.82,-384.67 231.82,-384.67 231.82,-384.67 357.6,-384.67 469.5,-384.67"/>
</g>
<!-- Infrastruktura::Github#Github -->
<g id="node10" class="node">
<title>Infrastruktura::Github#Github</title>
<ellipse fill="none" stroke="black" cx="639.91" cy="-507" rx="154.07" ry="18"/>
<text text-anchor="middle" x="639.91" y="-503.3" font-family="Times,serif" font-size="14.00">Infrastruktura::Github#Github</text>
</g>
<!-- d33tah&#45;&#45;Infrastruktura::Github#Github -->
<g id="edge8" class="edge">
<title>d33tah&#45;&#45;Infrastruktura::Github#Github</title>
<path fill="none" stroke="#2bd500" d="M113.56,-760.09C188.84,-760.09 338.82,-760.09 338.82,-760.09 338.82,-760.09 338.82,-523.5 338.82,-523.5 338.82,-523.5 490.17,-523.5 578.25,-523.5"/>
</g>
<!-- Infrastruktura::Mariuszbot#Mariuszbot -->
<g id="node11" class="node">
<title>Infrastruktura::Mariuszbot#Mariuszbot</title>
<ellipse fill="none" stroke="black" cx="639.91" cy="-937" rx="196.07" ry="18"/>
<text text-anchor="middle" x="639.91" y="-933.3" font-family="Times,serif" font-size="14.00">Infrastruktura::Mariuszbot#Mariuszbot</text>
</g>
<!-- d33tah&#45;&#45;Infrastruktura::Mariuszbot#Mariuszbot -->
<g id="edge9" class="edge">
<title>d33tah&#45;&#45;Infrastruktura::Mariuszbot#Mariuszbot</title>
<path fill="none" stroke="#2bd500" d="M106.82,-775.76C106.82,-813.41 106.82,-937 106.82,-937 106.82,-937 291.37,-937 443.3,-937"/>
</g>
<!-- Bazy&#45;danych#Grafana -->
<g id="node12" class="node">
<title>Bazy&#45;danych#Grafana</title>
<ellipse fill="none" stroke="black" cx="639.91" cy="-722" rx="114.28" ry="18"/>
<text text-anchor="middle" x="639.91" y="-718.3" font-family="Times,serif" font-size="14.00">Bazy&#45;danych#Grafana</text>
</g>
<!-- d33tah&#45;&#45;Bazy&#45;danych#Grafana -->
<g id="edge10" class="edge">
<title>d33tah&#45;&#45;Bazy&#45;danych#Grafana</title>
<path fill="none" stroke="#2bd500" d="M71.82,-746.65C71.82,-736.74 71.82,-726.5 71.82,-726.5 71.82,-726.5 363.7,-726.5 529.03,-726.5"/>
</g>
<!-- Bazy&#45;danych#Trello -->
<g id="node13" class="node">
<title>Bazy&#45;danych#Trello</title>
<ellipse fill="none" stroke="black" cx="639.91" cy="-894" rx="103.98" ry="18"/>
<text text-anchor="middle" x="639.91" y="-890.3" font-family="Times,serif" font-size="14.00">Bazy&#45;danych#Trello</text>
</g>
<!-- d33tah&#45;&#45;Bazy&#45;danych#Trello -->
<g id="edge11" class="edge">
<title>d33tah&#45;&#45;Bazy&#45;danych#Trello</title>
<path fill="none" stroke="#2bd500" d="M108.82,-774.28C108.82,-803.86 108.82,-894 108.82,-894 108.82,-894 380.95,-894 535.62,-894"/>
</g>
<!-- Infrastruktura::Telegram#HSŁ24: t.me/hsl_info -->
<g id="node14" class="node">
<title>Infrastruktura::Telegram#HSŁ24: t.me/hsl_info</title>
<ellipse fill="none" stroke="black" cx="639.91" cy="-851" rx="231.26" ry="18"/>
<text text-anchor="middle" x="639.91" y="-847.3" font-family="Times,serif" font-size="14.00">Infrastruktura::Telegram#HSŁ24: t.me/hsl_info</text>
</g>
<!-- d33tah&#45;&#45;Infrastruktura::Telegram#HSŁ24: t.me/hsl_info -->
<g id="edge12" class="edge">
<title>d33tah&#45;&#45;Infrastruktura::Telegram#HSŁ24: t.me/hsl_info</title>
<path fill="none" stroke="#2bd500" d="M110.82,-772.94C110.82,-794.23 110.82,-851 110.82,-851 110.82,-851 265.97,-851 408.23,-851"/>
</g>
<!-- Infrastruktura::IRC#IRC -->
<g id="node15" class="node">
<title>Infrastruktura::IRC#IRC</title>
<ellipse fill="none" stroke="black" cx="639.91" cy="-679" rx="124.58" ry="18"/>
<text text-anchor="middle" x="639.91" y="-675.3" font-family="Times,serif" font-size="14.00">Infrastruktura::IRC#IRC</text>
</g>
<!-- d33tah&#45;&#45;Infrastruktura::IRC#IRC -->
<g id="edge13" class="edge">
<title>d33tah&#45;&#45;Infrastruktura::IRC#IRC</title>
<path fill="none" stroke="#2bd500" d="M110.41,-756.82C166.61,-756.82 263.82,-756.82 263.82,-756.82 263.82,-756.82 263.82,-693 263.82,-693 263.82,-693 450.79,-693 561.07,-693"/>
</g>
<!-- Infrastruktura::Telegram#Główny: t.me/hakierspejs -->
<g id="node16" class="node">
<title>Infrastruktura::Telegram#Główny: t.me/hakierspejs</title>
<ellipse fill="none" stroke="black" cx="639.91" cy="-550" rx="251.56" ry="18"/>
<text text-anchor="middle" x="639.91" y="-546.3" font-family="Times,serif" font-size="14.00">Infrastruktura::Telegram#Główny: t.me/hakierspejs</text>
</g>
<!-- d33tah&#45;&#45;Infrastruktura::Telegram#Główny: t.me/hakierspejs -->
<g id="edge15" class="edge">
<title>d33tah&#45;&#45;Infrastruktura::Telegram#Główny: t.me/hakierspejs</title>
<path fill="none" stroke="#2bd500" d="M115.02,-766.64C204.72,-766.64 401.82,-766.64 401.82,-766.64 401.82,-766.64 401.82,-591.77 401.82,-556.25"/>
</g>
<!-- Drzwi&#45;frontowe#Ekran  -->
<g id="node17" class="node">
<title>Drzwi&#45;frontowe#Ekran </title>
<ellipse fill="none" stroke="black" cx="639.91" cy="-808" rx="120.78" ry="18"/>
<text text-anchor="middle" x="639.91" y="-804.3" font-family="Times,serif" font-size="14.00">Drzwi&#45;frontowe#Ekran </text>
</g>
<!-- d33tah&#45;&#45;Drzwi&#45;frontowe#Ekran  -->
<g id="edge17" class="edge">
<title>d33tah&#45;&#45;Drzwi&#45;frontowe#Ekran </title>
<path fill="none" stroke="black" d="M111.82,-771.8C111.82,-785.89 111.82,-817 111.82,-817 111.82,-817 380.94,-817 534.94,-817"/>
</g>
<!-- Infrastruktura::Telegram#🦄posty: t.me/hakierspejs_spam -->
<g id="node21" class="node">
<title>Infrastruktura::Telegram#🦄posty: t.me/hakierspejs_spam</title>
<ellipse fill="none" stroke="black" cx="639.91" cy="-464" rx="284.05" ry="18"/>
<text text-anchor="middle" x="639.91" y="-460.3" font-family="Times,serif" font-size="14.00">Infrastruktura::Telegram#🦄posty: t.me/hakierspejs_spam</text>
</g>
<!-- d33tah&#45;&#45;Infrastruktura::Telegram#🦄posty: t.me/hakierspejs_spam -->
<g id="edge18" class="edge">
<title>d33tah&#45;&#45;Infrastruktura::Telegram#🦄posty: t.me/hakierspejs_spam</title>
<path fill="none" stroke="#2bd500" d="M114.99,-763.36C198.44,-763.36 372.82,-763.36 372.82,-763.36 372.82,-763.36 372.82,-513.24 372.82,-470.25"/>
</g>
<!-- Infrastruktura::Telegram#Spacerspejs: t.me/joinchat/UYf2ONtNj21J1DS6 -->
<g id="node22" class="node">
<title>Infrastruktura::Telegram#Spacerspejs: t.me/joinchat/UYf2ONtNj21J1DS6</title>
<ellipse fill="none" stroke="black" cx="639.91" cy="-1023" rx="352.84" ry="18"/>
<text text-anchor="middle" x="639.91" y="-1019.3" font-family="Times,serif" font-size="14.00">Infrastruktura::Telegram#Spacerspejs: t.me/joinchat/UYf2ONtNj21J1DS6</text>
</g>
<!-- d33tah&#45;&#45;Infrastruktura::Telegram#Spacerspejs: t.me/joinchat/UYf2ONtNj21J1DS6 -->
<g id="edge19" class="edge">
<title>d33tah&#45;&#45;Infrastruktura::Telegram#Spacerspejs: t.me/joinchat/UYf2ONtNj21J1DS6</title>
<path fill="none" stroke="#2bd500" d="M103.82,-777.1C103.82,-828.11 103.82,-1023 103.82,-1023 103.82,-1023 186.44,-1023 286.81,-1023"/>
</g>
<!-- Bazy&#45;danych#Pad -->
<g id="node23" class="node">
<title>Bazy&#45;danych#Pad</title>
<ellipse fill="none" stroke="black" cx="639.91" cy="-980" rx="94.48" ry="18"/>
<text text-anchor="middle" x="639.91" y="-976.3" font-family="Times,serif" font-size="14.00">Bazy&#45;danych#Pad</text>
</g>
<!-- d33tah&#45;&#45;Bazy&#45;danych#Pad -->
<g id="edge20" class="edge">
<title>d33tah&#45;&#45;Bazy&#45;danych#Pad</title>
<path fill="none" stroke="#2bd500" d="M104.82,-776.87C104.82,-821.94 104.82,-980 104.82,-980 104.82,-980 391.86,-980 545.48,-980"/>
</g>
<!-- następne -->
<g id="node18" class="node">
<title>następne</title>
<ellipse fill="none" stroke="black" cx="71.49" cy="-1152" rx="53.09" ry="18"/>
<text text-anchor="middle" x="71.49" y="-1148.3" font-family="Times,serif" font-size="14.00">następne</text>
</g>
<!-- spotkanie -->
<g id="node19" class="node">
<title>spotkanie</title>
<ellipse fill="none" stroke="black" cx="71.49" cy="-1195" rx="55.79" ry="18"/>
<text text-anchor="middle" x="71.49" y="-1191.3" font-family="Times,serif" font-size="14.00">spotkanie</text>
</g>
<g id="node20" class="node">
<title></title>
<ellipse fill="none" stroke="#2bd500" cx="71.49" cy="-1238" rx="27" ry="18"/>
</g>
<!-- pmysl -->
<g id="node24" class="node">
<title>pmysl</title>
<ellipse fill="none" stroke="black" cx="71.49" cy="-695" rx="38.19" ry="18"/>
<text text-anchor="middle" x="71.49" y="-691.3" font-family="Times,serif" font-size="14.00">pmysl</text>
</g>
<!-- pmysl&#45;&#45;Kanały&#45;komunikacji# -->
<g id="edge25" class="edge">
<title>pmysl&#45;&#45;Kanały&#45;komunikacji#</title>
<path fill="none" stroke="#0061f2" d="M92.73,-710C127.27,-710 191.82,-710 191.82,-710 191.82,-710 191.82,-769.91 191.82,-769.91 191.82,-769.91 403.01,-769.91 535.42,-769.91"/>
</g>
<!-- pmysl&#45;&#45;Infrastruktura::Github#Github -->
<g id="edge21" class="edge">
<title>pmysl&#45;&#45;Infrastruktura::Github#Github</title>
<path fill="none" stroke="#0061f2" d="M103.45,-685C170.94,-685 321.82,-685 321.82,-685 321.82,-685 321.82,-522 321.82,-522 321.82,-522 460.45,-522 554.67,-522"/>
</g>
<!-- pmysl&#45;&#45;Bazy&#45;danych#Grafana -->
<g id="edge22" class="edge">
<title>pmysl&#45;&#45;Bazy&#45;danych#Grafana</title>
<path fill="none" stroke="#0061f2" d="M100.46,-707C188.35,-707 453.45,-707 576.23,-707"/>
</g>
<!-- pmysl&#45;&#45;Infrastruktura::IRC#IRC -->
<g id="edge24" class="edge">
<title>pmysl&#45;&#45;Infrastruktura::IRC#IRC</title>
<path fill="none" stroke="#0061f2" d="M107.92,-689C192.88,-689 406.76,-689 535.98,-689"/>
</g>
<!-- Bazy&#45;danych# -->
<g id="node25" class="node">
<title>Bazy&#45;danych#</title>
<ellipse fill="none" stroke="black" cx="639.91" cy="-636" rx="77.19" ry="18"/>
<text text-anchor="middle" x="639.91" y="-632.3" font-family="Times,serif" font-size="14.00">Bazy&#45;danych#</text>
</g>
<!-- pmysl&#45;&#45;Bazy&#45;danych# -->
<g id="edge23" class="edge">
<title>pmysl&#45;&#45;Bazy&#45;danych#</title>
<path fill="none" stroke="#0061f2" d="M95.97,-681C146.11,-681 255.82,-681 255.82,-681 255.82,-681 255.82,-644 255.82,-644 255.82,-644 459.67,-644 570.35,-644"/>
</g>
<!-- thinkofher -->
<g id="node26" class="node">
<title>thinkofher</title>
<ellipse fill="none" stroke="black" cx="71.49" cy="-588" rx="59.29" ry="18"/>
<text text-anchor="middle" x="71.49" y="-584.3" font-family="Times,serif" font-size="14.00">thinkofher</text>
</g>
<!-- thinkofher&#45;&#45;Kanały&#45;komunikacji# -->
<g id="edge30" class="edge">
<title>thinkofher&#45;&#45;Kanały&#45;komunikacji#</title>
<path fill="none" stroke="#c60077" d="M110.69,-601.57C148.43,-601.57 199.82,-601.57 199.82,-601.57 199.82,-601.57 199.82,-753.55 199.82,-753.55 199.82,-753.55 428.41,-753.55 556.09,-753.55"/>
</g>
<!-- thinkofher&#45;&#45;Marketing&#45;i&#45;media&#45;społecznościowe# -->
<g id="edge26" class="edge">
<title>thinkofher&#45;&#45;Marketing&#45;i&#45;media&#45;społecznościowe#</title>
<path fill="none" stroke="#c60077" d="M123.92,-579.43C167.98,-579.43 223.82,-579.43 223.82,-579.43 223.82,-579.43 223.82,-382.33 223.82,-382.33 223.82,-382.33 348.93,-382.33 461.94,-382.33"/>
</g>
<!-- thinkofher&#45;&#45;Infrastruktura::Github#Github -->
<g id="edge27" class="edge">
<title>thinkofher&#45;&#45;Infrastruktura::Github#Github</title>
<path fill="none" stroke="#c60077" d="M130.7,-588.29C181.93,-588.29 247.82,-588.29 247.82,-588.29 247.82,-588.29 247.82,-520.5 247.82,-520.5 247.82,-520.5 421.74,-520.5 537.91,-520.5"/>
</g>
<!-- thinkofher&#45;&#45;Infrastruktura::IRC#IRC -->
<g id="edge29" class="edge">
<title>thinkofher&#45;&#45;Infrastruktura::IRC#IRC</title>
<path fill="none" stroke="#c60077" d="M122.65,-597.14C161.33,-597.14 207.82,-597.14 207.82,-597.14 207.82,-597.14 207.82,-664 207.82,-664 207.82,-664 448.35,-664 570.48,-664"/>
</g>
<!-- thinkofher&#45;&#45;Infrastruktura::Telegram#Główny: t.me/hakierspejs -->
<g id="edge31" class="edge">
<title>thinkofher&#45;&#45;Infrastruktura::Telegram#Główny: t.me/hakierspejs</title>
<path fill="none" stroke="#c60077" d="M128.73,-592.71C221.84,-592.71 395.82,-592.71 395.82,-592.71 395.82,-592.71 395.82,-565.59 395.82,-554.57"/>
</g>
<!-- thinkofher&#45;&#45;Bazy&#45;danych# -->
<g id="edge28" class="edge">
<title>thinkofher&#45;&#45;Bazy&#45;danych#</title>
<path fill="none" stroke="#c60077" d="M71.82,-606.11C71.82,-615.9 71.82,-626 71.82,-626 71.82,-626 426.84,-626 575.57,-626"/>
</g>
<!-- hakierspejs -->
<g id="node27" class="node">
<title>hakierspejs</title>
<ellipse fill="none" stroke="black" cx="71.49" cy="-1281" rx="63.89" ry="18"/>
<text text-anchor="middle" x="71.49" y="-1277.3" font-family="Times,serif" font-size="14.00">hakierspejs</text>
</g>
<!-- Regulamin_składek# -->
<g id="node28" class="node">
<title>Regulamin_składek#</title>
<ellipse fill="none" stroke="black" cx="639.91" cy="-1281" rx="107.78" ry="18"/>
<text text-anchor="middle" x="639.91" y="-1277.3" font-family="Times,serif" font-size="14.00">Regulamin_składek#</text>
</g>
<!-- hakierspejs&#45;&#45;Regulamin_składek# -->
<g id="edge32" class="edge">
<title>hakierspejs&#45;&#45;Regulamin_składek#</title>
<path fill="none" stroke="#b6e400" d="M135.32,-1281C231.46,-1281 414.63,-1281 531.83,-1281"/>
</g>
<!-- biniu -->
<g id="node29" class="node">
<title>biniu</title>
<ellipse fill="none" stroke="black" cx="71.49" cy="-362" rx="34.39" ry="18"/>
<text text-anchor="middle" x="71.49" y="-358.3" font-family="Times,serif" font-size="14.00">biniu</text>
</g>
<!-- biniu&#45;&#45;Marketing&#45;i&#45;media&#45;społecznościowe# -->
<g id="edge33" class="edge">
<title>biniu&#45;&#45;Marketing&#45;i&#45;media&#45;społecznościowe#</title>
<path fill="none" stroke="#00ffff" d="M95.55,-375C157.26,-375 325.63,-375 458.94,-375"/>
</g>
<!-- kszmigiel -->
<g id="node30" class="node">
<title>kszmigiel</title>
<ellipse fill="none" stroke="black" cx="71.49" cy="-534" rx="54.69" ry="18"/>
<text text-anchor="middle" x="71.49" y="-530.3" font-family="Times,serif" font-size="14.00">kszmigiel</text>
</g>
<!-- kszmigiel&#45;&#45;Marketing&#45;i&#45;media&#45;społecznościowe# -->
<g id="edge34" class="edge">
<title>kszmigiel&#45;&#45;Marketing&#45;i&#45;media&#45;społecznościowe#</title>
<path fill="none" stroke="#ab00d5" d="M93.42,-517.5C126.11,-517.5 183.82,-517.5 183.82,-517.5 183.82,-517.5 183.82,-394.2 183.82,-394.2 183.82,-394.2 429.14,-394.2 559.94,-394.2"/>
</g>
<!-- kszmigiel&#45;&#45;Infrastruktura::Github#Github -->
<g id="edge35" class="edge">
<title>kszmigiel&#45;&#45;Infrastruktura::Github#Github</title>
<path fill="none" stroke="#ab00d5" d="M102.05,-519C180.4,-519 391.6,-519 524.84,-519"/>
</g>
<!-- kszmigiel&#45;&#45;Infrastruktura::Telegram#Główny: t.me/hakierspejs -->
<g id="edge36" class="edge">
<title>kszmigiel&#45;&#45;Infrastruktura::Telegram#Główny: t.me/hakierspejs</title>
<path fill="none" stroke="#ab00d5" d="M120.45,-542C185.82,-542 305.97,-542 414.26,-542"/>
</g>
<!-- kszmigiel&#45;&#45;Infrastruktura::Telegram#🦄posty: t.me/hakierspejs_spam -->
<g id="edge38" class="edge">
<title>kszmigiel&#45;&#45;Infrastruktura::Telegram#🦄posty: t.me/hakierspejs_spam</title>
<path fill="none" stroke="#ab00d5" d="M120.82,-525.88C120.82,-510.59 120.82,-479 120.82,-479 120.82,-479 329.98,-479 482.76,-479"/>
</g>
<!-- Marketing&#45;i&#45;media&#45;społecznościowe#Naklejki -->
<g id="node31" class="node">
<title>Marketing&#45;i&#45;media&#45;społecznościowe#Naklejki</title>
<ellipse fill="none" stroke="black" cx="639.91" cy="-421" rx="221.76" ry="18"/>
<text text-anchor="middle" x="639.91" y="-417.3" font-family="Times,serif" font-size="14.00">Marketing&#45;i&#45;media&#45;społecznościowe#Naklejki</text>
</g>
<!-- kszmigiel&#45;&#45;Marketing&#45;i&#45;media&#45;społecznościowe#Naklejki -->
<g id="edge37" class="edge">
<title>kszmigiel&#45;&#45;Marketing&#45;i&#45;media&#45;społecznościowe#Naklejki</title>
<path fill="none" stroke="#ab00d5" d="M115.82,-523.27C115.82,-498.07 115.82,-437.2 115.82,-437.2 115.82,-437.2 391.74,-437.2 543.17,-437.2"/>
</g>
<!-- Keij0 -->
<g id="node32" class="node">
<title>Keij0</title>
<ellipse fill="none" stroke="black" cx="71.49" cy="-319" rx="34.39" ry="18"/>
<text text-anchor="middle" x="71.49" y="-315.3" font-family="Times,serif" font-size="14.00">Keij0</text>
</g>
<!-- Keij0&#45;&#45;Marketing&#45;i&#45;media&#45;społecznościowe# -->
<g id="edge39" class="edge">
<title>Keij0&#45;&#45;Marketing&#45;i&#45;media&#45;społecznościowe#</title>
<path fill="none" stroke="#f29100" d="M106.25,-319C229.86,-319 640.82,-319 640.82,-319 640.82,-319 640.82,-342.63 640.82,-359.98"/>
</g>
<!-- SP7Q -->
<g id="node33" class="node">
<title>SP7Q</title>
<ellipse fill="none" stroke="black" cx="71.49" cy="-491" rx="36.29" ry="18"/>
<text text-anchor="middle" x="71.49" y="-487.3" font-family="Times,serif" font-size="14.00">SP7Q</text>
</g>
<!-- SP7Q&#45;&#45;Marketing&#45;i&#45;media&#45;społecznościowe# -->
<g id="edge40" class="edge">
<title>SP7Q&#45;&#45;Marketing&#45;i&#45;media&#45;społecznościowe#</title>
<path fill="none" stroke="#00c64f" d="M91.86,-476C122.22,-476 175.82,-476 175.82,-476 175.82,-476 175.82,-392.4 175.82,-392.4 175.82,-392.4 392.69,-392.4 529.93,-392.4"/>
</g>
<!-- SP7Q&#45;&#45;Infrastruktura::Github#Github -->
<g id="edge41" class="edge">
<title>SP7Q&#45;&#45;Infrastruktura::Github#Github</title>
<path fill="none" stroke="#00c64f" d="M104.51,-499C180.21,-499 369.92,-499 501.87,-499"/>
</g>
<!-- kpc -->
<g id="node34" class="node">
<title>kpc</title>
<ellipse fill="none" stroke="black" cx="71.49" cy="-276" rx="27" ry="18"/>
<text text-anchor="middle" x="71.49" y="-272.3" font-family="Times,serif" font-size="14.00">kpc</text>
</g>
<!-- kpc&#45;&#45;Marketing&#45;i&#45;media&#45;społecznościowe# -->
<g id="edge43" class="edge">
<title>kpc&#45;&#45;Marketing&#45;i&#45;media&#45;społecznościowe#</title>
<path fill="none" stroke="#2e00e4" d="M93.16,-286.8C103.57,-286.8 113.82,-286.8 113.82,-286.8 113.82,-286.8 113.82,-370 113.82,-370 113.82,-370 321.26,-370 475.61,-370"/>
</g>
<!-- kpc&#45;&#45;Infrastruktura::Telegram#🦄posty: t.me/hakierspejs_spam -->
<g id="edge45" class="edge">
<title>kpc&#45;&#45;Infrastruktura::Telegram#🦄posty: t.me/hakierspejs_spam</title>
<path fill="none" stroke="#2e00e4" d="M98.17,-279.6C145.63,-279.6 239.82,-279.6 239.82,-279.6 239.82,-279.6 239.82,-452.67 239.82,-452.67 239.82,-452.67 326.46,-452.67 419.09,-452.67"/>
</g>
<!-- Miejsce::Miejsce#Klucze do spejsu -->
<g id="node35" class="node">
<title>Miejsce::Miejsce#Klucze do spejsu</title>
<ellipse fill="none" stroke="black" cx="639.91" cy="-169" rx="172.77" ry="18"/>
<text text-anchor="middle" x="639.91" y="-165.3" font-family="Times,serif" font-size="14.00">Miejsce::Miejsce#Klucze do spejsu</text>
</g>
<!-- kpc&#45;&#45;Miejsce::Miejsce#Klucze do spejsu -->
<g id="edge42" class="edge">
<title>kpc&#45;&#45;Miejsce::Miejsce#Klucze do spejsu</title>
<path fill="none" stroke="#2e00e4" d="M93.33,-265.2C119.49,-265.2 159.82,-265.2 159.82,-265.2 159.82,-265.2 159.82,-181 159.82,-181 159.82,-181 368.74,-181 510.94,-181"/>
</g>
<!-- Infrastruktura::Telegram#Posty wyklęte (celowo bez linka) -->
<g id="node36" class="node">
<title>Infrastruktura::Telegram#Posty wyklęte (celowo bez linka)</title>
<ellipse fill="none" stroke="black" cx="639.91" cy="-276" rx="284.05" ry="18"/>
<text text-anchor="middle" x="639.91" y="-272.3" font-family="Times,serif" font-size="14.00">Infrastruktura::Telegram#Posty wyklęte (celowo bez linka)</text>
</g>
<!-- kpc&#45;&#45;Infrastruktura::Telegram#Posty wyklęte (celowo bez linka) -->
<g id="edge44" class="edge">
<title>kpc&#45;&#45;Infrastruktura::Telegram#Posty wyklęte (celowo bez linka)</title>
<path fill="none" stroke="#2e00e4" d="M98.15,-272.4C146.76,-272.4 254.71,-272.4 361.55,-272.4"/>
</g>
<!-- Polimerek -->
<g id="node37" class="node">
<title>Polimerek</title>
<ellipse fill="none" stroke="black" cx="71.49" cy="-405" rx="57.39" ry="18"/>
<text text-anchor="middle" x="71.49" y="-401.3" font-family="Times,serif" font-size="14.00">Polimerek</text>
</g>
<!-- Polimerek&#45;&#45;Marketing&#45;i&#45;media&#45;społecznościowe# -->
<g id="edge46" class="edge">
<title>Polimerek&#45;&#45;Marketing&#45;i&#45;media&#45;społecznościowe#</title>
<path fill="none" stroke="#ff0000" d="M96.65,-388.8C164.76,-388.8 356.78,-388.8 493.16,-388.8"/>
</g>
<!-- kujaw -->
<g id="node38" class="node">
<title>kujaw</title>
<ellipse fill="none" stroke="black" cx="71.49" cy="-448" rx="38.19" ry="18"/>
<text text-anchor="middle" x="71.49" y="-444.3" font-family="Times,serif" font-size="14.00">kujaw</text>
</g>
<!-- kujaw&#45;&#45;Marketing&#45;i&#45;media&#45;społecznościowe# -->
<g id="edge48" class="edge">
<title>kujaw&#45;&#45;Marketing&#45;i&#45;media&#45;społecznościowe#</title>
<path fill="none" stroke="#2bd500" d="M88.27,-431.8C115.87,-431.8 167.82,-431.8 167.82,-431.8 167.82,-431.8 167.82,-390.6 167.82,-390.6 167.82,-390.6 369.02,-390.6 508.72,-390.6"/>
</g>
<!-- kujaw&#45;&#45;Marketing&#45;i&#45;media&#45;społecznościowe#Naklejki -->
<g id="edge49" class="edge">
<title>kujaw&#45;&#45;Marketing&#45;i&#45;media&#45;społecznościowe#Naklejki</title>
<path fill="none" stroke="#2bd500" d="M98.91,-435.4C171.31,-435.4 371.37,-435.4 506.83,-435.4"/>
</g>
<!-- kujaw&#45;&#45;Miejsce::Miejsce#Klucze do spejsu -->
<g id="edge50" class="edge">
<title>kujaw&#45;&#45;Miejsce::Miejsce#Klucze do spejsu</title>
<path fill="none" stroke="#2bd500" d="M94.72,-433.6C153.74,-433.6 304.82,-433.6 304.82,-433.6 304.82,-433.6 304.82,-184 304.82,-184 304.82,-184 445.29,-184 544.33,-184"/>
</g>
<!-- Marketing&#45;i&#45;media&#45;społecznościowe#Logo nr. 2 -->
<g id="node39" class="node">
<title>Marketing&#45;i&#45;media&#45;społecznościowe#Logo nr. 2</title>
<ellipse fill="none" stroke="black" cx="639.91" cy="-593" rx="229.36" ry="18"/>
<text text-anchor="middle" x="639.91" y="-589.3" font-family="Times,serif" font-size="14.00">Marketing&#45;i&#45;media&#45;społecznościowe#Logo nr. 2</text>
</g>
<!-- kujaw&#45;&#45;Marketing&#45;i&#45;media&#45;społecznościowe#Logo nr. 2 -->
<g id="edge47" class="edge">
<title>kujaw&#45;&#45;Marketing&#45;i&#45;media&#45;społecznościowe#Logo nr. 2</title>
<path fill="none" stroke="#2bd500" d="M101.4,-459.33C143.67,-459.33 215.82,-459.33 215.82,-459.33 215.82,-459.33 215.82,-583.86 215.82,-583.86 215.82,-583.86 331.58,-583.86 442.14,-583.86"/>
</g>
<!-- kotlovecrafta -->
<g id="node40" class="node">
<title>kotlovecrafta</title>
<ellipse fill="none" stroke="black" cx="71.49" cy="-233" rx="71.49" ry="18"/>
<text text-anchor="middle" x="71.49" y="-229.3" font-family="Times,serif" font-size="14.00">kotlovecrafta</text>
</g>
<!-- kotlovecrafta&#45;&#45;Marketing&#45;i&#45;media&#45;społecznościowe# -->
<g id="edge52" class="edge">
<title>kotlovecrafta&#45;&#45;Marketing&#45;i&#45;media&#45;społecznościowe#</title>
<path fill="none" stroke="#0061f2" d="M121.82,-246.14C121.82,-279.53 121.82,-365 121.82,-365 121.82,-365 359.45,-365 512.84,-365"/>
</g>
<!-- kotlovecrafta&#45;&#45;Miejsce::Miejsce#Klucze do spejsu -->
<g id="edge51" class="edge">
<title>kotlovecrafta&#45;&#45;Miejsce::Miejsce#Klucze do spejsu</title>
<path fill="none" stroke="#0061f2" d="M136.82,-225.35C136.82,-210.24 136.82,-178 136.82,-178 136.82,-178 341.72,-178 489.99,-178"/>
</g>
<!-- q3k -->
<g id="node41" class="node">
<title>q3k</title>
<ellipse fill="none" stroke="black" cx="71.49" cy="-808" rx="27.9" ry="18"/>
<text text-anchor="middle" x="71.49" y="-804.3" font-family="Times,serif" font-size="14.00">q3k</text>
</g>
<!-- q3k&#45;&#45;Kanały&#45;komunikacji# -->
<g id="edge55" class="edge">
<title>q3k&#45;&#45;Kanały&#45;komunikacji#</title>
<path fill="none" stroke="#c60077" d="M96.06,-799C149.55,-799 271.82,-799 271.82,-799 271.82,-799 271.82,-776.45 271.82,-776.45 271.82,-776.45 447.29,-776.45 555.92,-776.45"/>
</g>
<!-- q3k&#45;&#45;Infrastruktura::Domeny#Domeny -->
<g id="edge54" class="edge">
<title>q3k&#45;&#45;Infrastruktura::Domeny#Domeny</title>
<path fill="none" stroke="#c60077" d="M71.82,-826.14C71.82,-884.87 71.82,-1066 71.82,-1066 71.82,-1066 304.97,-1066 472.54,-1066"/>
</g>
<!-- q3k&#45;&#45;Marketing&#45;i&#45;media&#45;społecznościowe#Logo nr. 2 -->
<g id="edge53" class="edge">
<title>q3k&#45;&#45;Marketing&#45;i&#45;media&#45;społecznościowe#Logo nr. 2</title>
<path fill="none" stroke="#c60077" d="M99.64,-808C189.37,-808 462.82,-808 462.82,-808 462.82,-808 462.82,-649.22 462.82,-604.56"/>
</g>
<!-- kasesag -->
<g id="node42" class="node">
<title>kasesag</title>
<ellipse fill="none" stroke="black" cx="71.49" cy="-1324" rx="48.19" ry="18"/>
<text text-anchor="middle" x="71.49" y="-1320.3" font-family="Times,serif" font-size="14.00">kasesag</text>
</g>
<!-- Marketing&#45;i&#45;media&#45;społecznościowe#Przycisk HS&#45;LDZ -->
<g id="node43" class="node">
<title>Marketing&#45;i&#45;media&#45;społecznościowe#Przycisk HS&#45;LDZ</title>
<ellipse fill="none" stroke="black" cx="639.91" cy="-1324" rx="261.85" ry="18"/>
<text text-anchor="middle" x="639.91" y="-1320.3" font-family="Times,serif" font-size="14.00">Marketing&#45;i&#45;media&#45;społecznościowe#Przycisk HS&#45;LDZ</text>
</g>
<!-- kasesag&#45;&#45;Marketing&#45;i&#45;media&#45;społecznościowe#Przycisk HS&#45;LDZ -->
<g id="edge56" class="edge">
<title>kasesag&#45;&#45;Marketing&#45;i&#45;media&#45;społecznościowe#Przycisk HS&#45;LDZ</title>
<path fill="none" stroke="#b6e400" d="M119.96,-1324C177.95,-1324 279.55,-1324 377.64,-1324"/>
</g>
<!-- Piotrek_P -->
<g id="node44" class="node">
<title>Piotrek_P</title>
<ellipse fill="none" stroke="black" cx="71.49" cy="-104" rx="55.49" ry="18"/>
<text text-anchor="middle" x="71.49" y="-100.3" font-family="Times,serif" font-size="14.00">Piotrek_P</text>
</g>
<!-- Piotrek_P&#45;&#45;Miejsce::Miejsce#Klucze do spejsu -->
<g id="edge57" class="edge">
<title>Piotrek_P&#45;&#45;Miejsce::Miejsce#Klucze do spejsu</title>
<path fill="none" stroke="#00ffff" d="M116.82,-114.46C116.82,-129.55 116.82,-155.67 116.82,-155.67 116.82,-155.67 369.36,-155.67 523.49,-155.67"/>
</g>
<!-- polimerek -->
<g id="node45" class="node">
<title>polimerek</title>
<ellipse fill="none" stroke="black" cx="71.49" cy="-61" rx="57.39" ry="18"/>
<text text-anchor="middle" x="71.49" y="-57.3" font-family="Times,serif" font-size="14.00">polimerek</text>
</g>
<!-- polimerek&#45;&#45;Miejsce::Miejsce#Klucze do spejsu -->
<g id="edge58" class="edge">
<title>polimerek&#45;&#45;Miejsce::Miejsce#Klucze do spejsu</title>
<path fill="none" stroke="#ab00d5" d="M129.16,-61C262.88,-61 582.82,-61 582.82,-61 582.82,-61 582.82,-121.12 582.82,-151.65"/>
</g>
<!-- sp7adg -->
<g id="node46" class="node">
<title>sp7adg</title>
<ellipse fill="none" stroke="black" cx="71.49" cy="-18" rx="44.39" ry="18"/>
<text text-anchor="middle" x="71.49" y="-14.3" font-family="Times,serif" font-size="14.00">sp7adg</text>
</g>
<!-- sp7adg&#45;&#45;Miejsce::Miejsce#Klucze do spejsu -->
<g id="edge59" class="edge">
<title>sp7adg&#45;&#45;Miejsce::Miejsce#Klucze do spejsu</title>
<path fill="none" stroke="#f29100" d="M116.04,-18C259.13,-18 697.82,-18 697.82,-18 697.82,-18 697.82,-112.48 697.82,-151.97"/>
</g>
<!-- inoru -->
<g id="node47" class="node">
<title>inoru</title>
<ellipse fill="none" stroke="black" cx="71.49" cy="-190" rx="35.19" ry="18"/>
<text text-anchor="middle" x="71.49" y="-186.3" font-family="Times,serif" font-size="14.00">inoru</text>
</g>
<!-- inoru&#45;&#45;Miejsce::Miejsce#Klucze do spejsu -->
<g id="edge60" class="edge">
<title>inoru&#45;&#45;Miejsce::Miejsce#Klucze do spejsu</title>
<path fill="none" stroke="#00c64f" d="M91.06,-175C151.19,-175 337.59,-175 476.58,-175"/>
</g>
<!-- Octia -->
<g id="node48" class="node">
<title>Octia</title>
<ellipse fill="none" stroke="black" cx="71.49" cy="-147" rx="35.19" ry="18"/>
<text text-anchor="middle" x="71.49" y="-143.3" font-family="Times,serif" font-size="14.00">Octia</text>
</g>
<!-- Octia&#45;&#45;Miejsce::Miejsce#Klucze do spejsu -->
<g id="edge61" class="edge">
<title>Octia&#45;&#45;Miejsce::Miejsce#Klucze do spejsu</title>
<path fill="none" stroke="#2e00e4" d="M95.19,-160.33C161.17,-160.33 351.09,-160.33 488.12,-160.33"/>
</g>
<!-- hslbridgebot -->
<g id="node49" class="node">
<title>hslbridgebot</title>
<ellipse fill="none" stroke="black" cx="71.49" cy="-1410" rx="69.59" ry="18"/>
<text text-anchor="middle" x="71.49" y="-1406.3" font-family="Times,serif" font-size="14.00">hslbridgebot</text>
</g>
<!-- Mostkowanie&#45;kanałów#mautrix&#45;telegram (aktualnie używany) -->
<g id="node50" class="node">
<title>Mostkowanie&#45;kanałów#mautrix&#45;telegram (aktualnie używany)</title>
<ellipse fill="none" stroke="black" cx="639.91" cy="-1389" rx="297.85" ry="18"/>
<text text-anchor="middle" x="639.91" y="-1385.3" font-family="Times,serif" font-size="14.00">Mostkowanie&#45;kanałów#mautrix&#45;telegram (aktualnie używany)</text>
</g>
<!-- hslbridgebot&#45;&#45;Mostkowanie&#45;kanałów#mautrix&#45;telegram (aktualnie używany) -->
<g id="edge62" class="edge">
<title>hslbridgebot&#45;&#45;Mostkowanie&#45;kanałów#mautrix&#45;telegram (aktualnie używany)</title>
<path fill="none" stroke="#ff0000" d="M128.07,-1399.5C191.4,-1399.5 298.22,-1399.5 397.95,-1399.5"/>
</g>
<!-- telegrambot -->
<g id="node51" class="node">
<title>telegrambot</title>
<ellipse fill="none" stroke="black" cx="71.49" cy="-1367" rx="67.69" ry="18"/>
<text text-anchor="middle" x="71.49" y="-1363.3" font-family="Times,serif" font-size="14.00">telegrambot</text>
</g>
<!-- telegrambot&#45;&#45;Mostkowanie&#45;kanałów#mautrix&#45;telegram (aktualnie używany) -->
<g id="edge63" class="edge">
<title>telegrambot&#45;&#45;Mostkowanie&#45;kanałów#mautrix&#45;telegram (aktualnie używany)</title>
<path fill="none" stroke="#2bd500" d="M125.22,-1378C189.43,-1378 301.12,-1378 404.09,-1378"/>
</g>
<!-- BluRaf -->
<g id="node52" class="node">
<title>BluRaf</title>
<ellipse fill="none" stroke="black" cx="71.49" cy="-652" rx="42.49" ry="18"/>
<text text-anchor="middle" x="71.49" y="-648.3" font-family="Times,serif" font-size="14.00">BluRaf</text>
</g>
<!-- BluRaf&#45;&#45;Infrastruktura::IRC#IRC -->
<g id="edge64" class="edge">
<title>BluRaf&#45;&#45;Infrastruktura::IRC#IRC</title>
<path fill="none" stroke="#0061f2" d="M95.19,-667C171.25,-667 412.06,-667 546.63,-667"/>
</g>
</g>
</svg>
