<?xml version="1.0" encoding="UTF-8" standalone="no"?>
<!DOCTYPE svg PUBLIC "-//W3C//DTD SVG 1.1//EN"
 "http://www.w3.org/Graphics/SVG/1.1/DTD/svg11.dtd">
<!-- Generated by graphviz version 2.40.1 (20161225.0304)
 -->
<!-- Title: %3 Pages: 1 -->
<svg width="850pt" height="861pt"
 viewBox="0.00 0.00 850.04 861.00" xmlns="http://www.w3.org/2000/svg" xmlns:xlink="http://www.w3.org/1999/xlink">
<g id="graph0" class="graph" transform="scale(1 1) rotate(0) translate(4 857)">
<title>%3</title>
<polygon fill="#ffffff" stroke="transparent" points="-4,4 -4,-857 846.0381,-857 846.0381,4 -4,4"/>
<!-- q3k -->
<g id="node1" class="node">
<title>q3k</title>
<ellipse fill="none" stroke="#000000" cx="59.7947" cy="-813" rx="28.6953" ry="18"/>
<text text-anchor="middle" x="59.7947" y="-809.3" font-family="Times,serif" font-size="14.00" fill="#000000">q3k</text>
</g>
<!-- Infrastruktura#Domeny -->
<g id="node2" class="node">
<title>Infrastruktura#Domeny</title>
<ellipse fill="none" stroke="#000000" cx="552.8137" cy="-835" rx="124.2781" ry="18"/>
<text text-anchor="middle" x="552.8137" y="-831.3" font-family="Times,serif" font-size="14.00" fill="#000000">Infrastruktura#Domeny</text>
</g>
<!-- q3k&#45;&#45;Infrastruktura#Domeny -->
<g id="edge1" class="edge">
<title>q3k&#45;&#45;Infrastruktura#Domeny</title>
<path fill="none" stroke="#ff0000" d="M76.7655,-827.5C133.1918,-827.5 317.8394,-827.5 439.8906,-827.5"/>
</g>
<!-- Infrastruktura#Lista mailingowa -->
<g id="node3" class="node">
<title>Infrastruktura#Lista mailingowa</title>
<ellipse fill="none" stroke="#000000" cx="552.8137" cy="-792" rx="165.1707" ry="18"/>
<text text-anchor="middle" x="552.8137" y="-788.3" font-family="Times,serif" font-size="14.00" fill="#000000">Infrastruktura#Lista mailingowa</text>
</g>
<!-- q3k&#45;&#45;Infrastruktura#Lista mailingowa -->
<g id="edge2" class="edge">
<title>q3k&#45;&#45;Infrastruktura#Lista mailingowa</title>
<path fill="none" stroke="#ff0000" d="M83.2424,-802.5C142.5175,-802.5 301.9358,-802.5 418.6332,-802.5"/>
</g>
<!-- d33tah -->
<g id="node4" class="node">
<title>d33tah</title>
<ellipse fill="none" stroke="#000000" cx="59.7947" cy="-577" rx="43.5923" ry="18"/>
<text text-anchor="middle" x="59.7947" y="-573.3" font-family="Times,serif" font-size="14.00" fill="#000000">d33tah</text>
</g>
<!-- d33tah&#45;&#45;Infrastruktura#Domeny -->
<g id="edge8" class="edge">
<title>d33tah&#45;&#45;Infrastruktura#Domeny</title>
<path fill="none" stroke="#2bd500" d="M96.3686,-587C155.8641,-587 267.0381,-587 267.0381,-587 267.0381,-587 267.0381,-820.5 267.0381,-820.5 267.0381,-820.5 394.5461,-820.5 479.2194,-820.5"/>
</g>
<!-- d33tah&#45;&#45;Infrastruktura#Lista mailingowa -->
<g id="edge13" class="edge">
<title>d33tah&#45;&#45;Infrastruktura#Lista mailingowa</title>
<path fill="none" stroke="#2bd500" d="M87.3791,-591C111.948,-591 144.0381,-591 144.0381,-591 144.0381,-591 144.0381,-784.5 144.0381,-784.5 144.0381,-784.5 286.0221,-784.5 402.6321,-784.5"/>
</g>
<!-- Infrastruktura#Grafana -->
<g id="node5" class="node">
<title>Infrastruktura#Grafana</title>
<ellipse fill="none" stroke="#000000" cx="552.8137" cy="-663" rx="122.6784" ry="18"/>
<text text-anchor="middle" x="552.8137" y="-659.3" font-family="Times,serif" font-size="14.00" fill="#000000">Infrastruktura#Grafana</text>
</g>
<!-- d33tah&#45;&#45;Infrastruktura#Grafana -->
<g id="edge3" class="edge">
<title>d33tah&#45;&#45;Infrastruktura#Grafana</title>
<path fill="none" stroke="#2bd500" d="M103.2028,-575C172.6583,-575 301.0381,-575 301.0381,-575 301.0381,-575 301.0381,-657 301.0381,-657 301.0381,-657 370.7956,-657 436.8746,-657"/>
</g>
<!-- Infrastruktura#Meetup -->
<g id="node6" class="node">
<title>Infrastruktura#Meetup</title>
<ellipse fill="none" stroke="#000000" cx="552.8137" cy="-448" rx="121.5784" ry="18"/>
<text text-anchor="middle" x="552.8137" y="-444.3" font-family="Times,serif" font-size="14.00" fill="#000000">Infrastruktura#Meetup</text>
</g>
<!-- d33tah&#45;&#45;Infrastruktura#Meetup -->
<g id="edge4" class="edge">
<title>d33tah&#45;&#45;Infrastruktura#Meetup</title>
<path fill="none" stroke="#2bd500" d="M98.0381,-568.206C98.0381,-540.9963 98.0381,-460 98.0381,-460 98.0381,-460 329.4777,-460 462.1487,-460"/>
</g>
<!-- Infrastruktura#Pad -->
<g id="node7" class="node">
<title>Infrastruktura#Pad</title>
<ellipse fill="none" stroke="#000000" cx="552.8137" cy="-620" rx="102.8821" ry="18"/>
<text text-anchor="middle" x="552.8137" y="-616.3" font-family="Times,serif" font-size="14.00" fill="#000000">Infrastruktura#Pad</text>
</g>
<!-- d33tah&#45;&#45;Infrastruktura#Pad -->
<g id="edge5" class="edge">
<title>d33tah&#45;&#45;Infrastruktura#Pad</title>
<path fill="none" stroke="#2bd500" d="M60.0381,-595.4854C60.0381,-607.1399 60.0381,-620 60.0381,-620 60.0381,-620 305.6932,-620 450.1116,-620"/>
</g>
<!-- Infrastruktura#Forum -->
<g id="node8" class="node">
<title>Infrastruktura#Forum</title>
<ellipse fill="none" stroke="#000000" cx="552.8137" cy="-706" rx="116.1796" ry="18"/>
<text text-anchor="middle" x="552.8137" y="-702.3" font-family="Times,serif" font-size="14.00" fill="#000000">Infrastruktura#Forum</text>
</g>
<!-- d33tah&#45;&#45;Infrastruktura#Forum -->
<g id="edge6" class="edge">
<title>d33tah&#45;&#45;Infrastruktura#Forum</title>
<path fill="none" stroke="#2bd500" d="M103.2152,-579C171.9327,-579 298.0381,-579 298.0381,-579 298.0381,-579 298.0381,-706 298.0381,-706 298.0381,-706 369.1516,-706 436.2373,-706"/>
</g>
<!-- Infrastruktura#t.me/hakierspejs -->
<g id="node9" class="node">
<title>Infrastruktura#t.me/hakierspejs</title>
<ellipse fill="none" stroke="#000000" cx="552.8137" cy="-362" rx="163.2712" ry="18"/>
<text text-anchor="middle" x="552.8137" y="-358.3" font-family="Times,serif" font-size="14.00" fill="#000000">Infrastruktura#t.me/hakierspejs</text>
</g>
<!-- d33tah&#45;&#45;Infrastruktura#t.me/hakierspejs -->
<g id="edge7" class="edge">
<title>d33tah&#45;&#45;Infrastruktura#t.me/hakierspejs</title>
<path fill="none" stroke="#2bd500" d="M87.1698,-563C137.5923,-563 240.0381,-563 240.0381,-563 240.0381,-563 240.0381,-376.25 240.0381,-376.25 240.0381,-376.25 361.4536,-376.25 452.9896,-376.25"/>
</g>
<!-- Infrastruktura#Lelegram (na shitpostach) -->
<g id="node10" class="node">
<title>Infrastruktura#Lelegram (na shitpostach)</title>
<ellipse fill="none" stroke="#000000" cx="552.8137" cy="-577" rx="207.9631" ry="18"/>
<text text-anchor="middle" x="552.8137" y="-573.3" font-family="Times,serif" font-size="14.00" fill="#000000">Infrastruktura#Lelegram (na shitpostach)</text>
</g>
<!-- d33tah&#45;&#45;Infrastruktura#Lelegram (na shitpostach) -->
<g id="edge9" class="edge">
<title>d33tah&#45;&#45;Infrastruktura#Lelegram (na shitpostach)</title>
<path fill="none" stroke="#2bd500" d="M100.9812,-571C157.2765,-571 262.0669,-571 356.5658,-571"/>
</g>
<!-- Miejsce::Miejsce#Klucze do spejsu -->
<g id="node11" class="node">
<title>Miejsce::Miejsce#Klucze do spejsu</title>
<ellipse fill="none" stroke="#000000" cx="552.8137" cy="-749" rx="174.6691" ry="18"/>
<text text-anchor="middle" x="552.8137" y="-745.3" font-family="Times,serif" font-size="14.00" fill="#000000">Miejsce::Miejsce#Klucze do spejsu</text>
</g>
<!-- d33tah&#45;&#45;Miejsce::Miejsce#Klucze do spejsu -->
<g id="edge10" class="edge">
<title>d33tah&#45;&#45;Miejsce::Miejsce#Klucze do spejsu</title>
<path fill="none" stroke="#2bd500" d="M101.026,-583C162.5017,-583 271.0381,-583 271.0381,-583 271.0381,-583 271.0381,-745.4 271.0381,-745.4 271.0381,-745.4 322.3557,-745.4 381.1905,-745.4"/>
</g>
<!-- Infrastruktura#Github -->
<g id="node12" class="node">
<title>Infrastruktura#Github</title>
<ellipse fill="none" stroke="#000000" cx="552.8137" cy="-491" rx="117.7793" ry="18"/>
<text text-anchor="middle" x="552.8137" y="-487.3" font-family="Times,serif" font-size="14.00" fill="#000000">Infrastruktura#Github</text>
</g>
<!-- d33tah&#45;&#45;Infrastruktura#Github -->
<g id="edge11" class="edge">
<title>d33tah&#45;&#45;Infrastruktura#Github</title>
<path fill="none" stroke="#2bd500" d="M99.0381,-569.0991C99.0381,-548.4751 99.0381,-494.6 99.0381,-494.6 99.0381,-494.6 302.9874,-494.6 437.4267,-494.6"/>
</g>
<!-- Infrastruktura#t.me/hakierspejs_spam -->
<g id="node13" class="node">
<title>Infrastruktura#t.me/hakierspejs_spam</title>
<ellipse fill="none" stroke="#000000" cx="552.8137" cy="-190" rx="193.0657" ry="18"/>
<text text-anchor="middle" x="552.8137" y="-186.3" font-family="Times,serif" font-size="14.00" fill="#000000">Infrastruktura#t.me/hakierspejs_spam</text>
</g>
<!-- d33tah&#45;&#45;Infrastruktura#t.me/hakierspejs_spam -->
<g id="edge12" class="edge">
<title>d33tah&#45;&#45;Infrastruktura#t.me/hakierspejs_spam</title>
<path fill="none" stroke="#2bd500" d="M96.1809,-567C161.3022,-567 291.0381,-567 291.0381,-567 291.0381,-567 291.0381,-193.6 291.0381,-193.6 291.0381,-193.6 322.5,-193.6 363.6095,-193.6"/>
</g>
<!-- Infrastruktura#Hosting -->
<g id="node14" class="node">
<title>Infrastruktura#Hosting</title>
<ellipse fill="none" stroke="#000000" cx="552.8137" cy="-534" rx="122.6784" ry="18"/>
<text text-anchor="middle" x="552.8137" y="-530.3" font-family="Times,serif" font-size="14.00" fill="#000000">Infrastruktura#Hosting</text>
</g>
<!-- d33tah&#45;&#45;Infrastruktura#Hosting -->
<g id="edge14" class="edge">
<title>d33tah&#45;&#45;Infrastruktura#Hosting</title>
<path fill="none" stroke="#2bd500" d="M103.0381,-574.8264C103.0381,-566.429 103.0381,-536.5714 103.0381,-536.5714 103.0381,-536.5714 297.895,-536.5714 431.098,-536.5714"/>
</g>
<!-- Infrastruktura#IRC -->
<g id="node15" class="node">
<title>Infrastruktura#IRC</title>
<ellipse fill="none" stroke="#000000" cx="552.8137" cy="-405" rx="103.9815" ry="18"/>
<text text-anchor="middle" x="552.8137" y="-401.3" font-family="Times,serif" font-size="14.00" fill="#000000">Infrastruktura#IRC</text>
</g>
<!-- d33tah&#45;&#45;Infrastruktura#IRC -->
<g id="edge15" class="edge">
<title>d33tah&#45;&#45;Infrastruktura#IRC</title>
<path fill="none" stroke="#2bd500" d="M96.0381,-566.6785C96.0381,-530.556 96.0381,-412 96.0381,-412 96.0381,-412 322.8029,-412 456.7802,-412"/>
</g>
<!-- cytP450 -->
<g id="node16" class="node">
<title>cytP450</title>
<ellipse fill="none" stroke="#000000" cx="59.7947" cy="-706" rx="49.2915" ry="18"/>
<text text-anchor="middle" x="59.7947" y="-702.3" font-family="Times,serif" font-size="14.00" fill="#000000">cytP450</text>
</g>
<!-- cytP450&#45;&#45;Infrastruktura#Domeny -->
<g id="edge17" class="edge">
<title>cytP450&#45;&#45;Infrastruktura#Domeny</title>
<path fill="none" stroke="#0061f2" d="M99.0381,-717.3143C99.0381,-746.8488 99.0381,-824 99.0381,-824 99.0381,-824 320.8921,-824 454.3512,-824"/>
</g>
<!-- cytP450&#45;&#45;Infrastruktura#Forum -->
<g id="edge16" class="edge">
<title>cytP450&#45;&#45;Infrastruktura#Forum</title>
<path fill="none" stroke="#0061f2" d="M96.8513,-718C174.6704,-718 356.8946,-718 465.9548,-718"/>
</g>
<!-- cytP450&#45;&#45;Miejsce::Miejsce#Klucze do spejsu -->
<g id="edge18" class="edge">
<title>cytP450&#45;&#45;Miejsce::Miejsce#Klucze do spejsu</title>
<path fill="none" stroke="#0061f2" d="M104.0381,-714.1171C104.0381,-727.4683 104.0381,-752.6 104.0381,-752.6 104.0381,-752.6 254.5388,-752.6 381.2299,-752.6"/>
</g>
<!-- cytP450&#45;&#45;Infrastruktura#Hosting -->
<g id="edge19" class="edge">
<title>cytP450&#45;&#45;Infrastruktura#Hosting</title>
<path fill="none" stroke="#0061f2" d="M106.4268,-700C179.8248,-700 314.0381,-700 314.0381,-700 314.0381,-700 314.0381,-546.8571 314.0381,-546.8571 314.0381,-546.8571 398.2158,-546.8571 466.6102,-546.8571"/>
</g>
<!-- Martti25 -->
<g id="node17" class="node">
<title>Martti25</title>
<ellipse fill="none" stroke="#000000" cx="59.7947" cy="-383" rx="51.9908" ry="18"/>
<text text-anchor="middle" x="59.7947" y="-379.3" font-family="Times,serif" font-size="14.00" fill="#000000">Martti25</text>
</g>
<!-- Martti25&#45;&#45;Infrastruktura#Meetup -->
<g id="edge21" class="edge">
<title>Martti25&#45;&#45;Infrastruktura#Meetup</title>
<path fill="none" stroke="#c60077" d="M94.9778,-396.3333C189.3579,-396.3333 441.0381,-396.3333 441.0381,-396.3333 441.0381,-396.3333 441.0381,-426.6194 441.0381,-440.816"/>
</g>
<!-- Martti25&#45;&#45;Infrastruktura#t.me/hakierspejs -->
<g id="edge20" class="edge">
<title>Martti25&#45;&#45;Infrastruktura#t.me/hakierspejs</title>
<path fill="none" stroke="#c60077" d="M102.2559,-372.5C172.1521,-372.5 314.2578,-372.5 420.2869,-372.5"/>
</g>
<!-- Martti25&#45;&#45;Infrastruktura#Github -->
<g id="edge22" class="edge">
<title>Martti25&#45;&#45;Infrastruktura#Github</title>
<path fill="none" stroke="#c60077" d="M102.0381,-393.7735C102.0381,-419.0807 102.0381,-480.2 102.0381,-480.2 102.0381,-480.2 326.445,-480.2 458.5909,-480.2"/>
</g>
<!-- Infrastruktura#Konto na Fejsie -->
<g id="node18" class="node">
<title>Infrastruktura#Konto na Fejsie</title>
<ellipse fill="none" stroke="#000000" cx="552.8137" cy="-319" rx="157.0724" ry="18"/>
<text text-anchor="middle" x="552.8137" y="-315.3" font-family="Times,serif" font-size="14.00" fill="#000000">Infrastruktura#Konto na Fejsie</text>
</g>
<!-- Martti25&#45;&#45;Infrastruktura#Konto na Fejsie -->
<g id="edge23" class="edge">
<title>Martti25&#45;&#45;Infrastruktura#Konto na Fejsie</title>
<path fill="none" stroke="#c60077" d="M91.7899,-368.75C137.501,-368.75 216.0381,-368.75 216.0381,-368.75 216.0381,-368.75 216.0381,-329.8 216.0381,-329.8 216.0381,-329.8 331.2757,-329.8 426.932,-329.8"/>
</g>
<!-- biniu -->
<g id="node19" class="node">
<title>biniu</title>
<ellipse fill="none" stroke="#000000" cx="59.7947" cy="-448" rx="34.394" ry="18"/>
<text text-anchor="middle" x="59.7947" y="-444.3" font-family="Times,serif" font-size="14.00" fill="#000000">biniu</text>
</g>
<!-- biniu&#45;&#45;Infrastruktura#Meetup -->
<g id="edge24" class="edge">
<title>biniu&#45;&#45;Infrastruktura#Meetup</title>
<path fill="none" stroke="#b6e400" d="M94.4628,-448C163.2862,-448 320.0856,-448 431.0674,-448"/>
</g>
<!-- kszmigiel -->
<g id="node20" class="node">
<title>kszmigiel</title>
<ellipse fill="none" stroke="#000000" cx="59.7947" cy="-276" rx="55.4913" ry="18"/>
<text text-anchor="middle" x="59.7947" y="-272.3" font-family="Times,serif" font-size="14.00" fill="#000000">kszmigiel</text>
</g>
<!-- kszmigiel&#45;&#45;Infrastruktura#Meetup -->
<g id="edge25" class="edge">
<title>kszmigiel&#45;&#45;Infrastruktura#Meetup</title>
<path fill="none" stroke="#00ffff" d="M114.4841,-278.5714C180.0006,-278.5714 281.0381,-278.5714 281.0381,-278.5714 281.0381,-278.5714 281.0381,-436 281.0381,-436 281.0381,-436 382.9314,-436 461.9385,-436"/>
</g>
<!-- kszmigiel&#45;&#45;Infrastruktura#t.me/hakierspejs -->
<g id="edge26" class="edge">
<title>kszmigiel&#45;&#45;Infrastruktura#t.me/hakierspejs</title>
<path fill="none" stroke="#00ffff" d="M98.5673,-288.8571C129.6266,-288.8571 168.0381,-288.8571 168.0381,-288.8571 168.0381,-288.8571 168.0381,-358 168.0381,-358 168.0381,-358 287.679,-358 393.5332,-358"/>
</g>
<!-- kszmigiel&#45;&#45;Miejsce::Miejsce#Klucze do spejsu -->
<g id="edge27" class="edge">
<title>kszmigiel&#45;&#45;Miejsce::Miejsce#Klucze do spejsu</title>
<path fill="none" stroke="#00ffff" d="M109.7549,-283.7143C173.0621,-283.7143 274.0381,-283.7143 274.0381,-283.7143 274.0381,-283.7143 274.0381,-738.2 274.0381,-738.2 274.0381,-738.2 343.1886,-738.2 412.6092,-738.2"/>
</g>
<!-- kszmigiel&#45;&#45;Infrastruktura#t.me/hakierspejs_spam -->
<g id="edge28" class="edge">
<title>kszmigiel&#45;&#45;Infrastruktura#t.me/hakierspejs_spam</title>
<path fill="none" stroke="#00ffff" d="M109.7459,-268.2857C198.636,-268.2857 375.0381,-268.2857 375.0381,-268.2857 375.0381,-268.2857 375.0381,-216.6049 375.0381,-197.2246"/>
</g>
<!-- Infrastruktura#Naklejki -->
<g id="node21" class="node">
<title>Infrastruktura#Naklejki</title>
<ellipse fill="none" stroke="#000000" cx="552.8137" cy="-276" rx="125.3778" ry="18"/>
<text text-anchor="middle" x="552.8137" y="-272.3" font-family="Times,serif" font-size="14.00" fill="#000000">Infrastruktura#Naklejki</text>
</g>
<!-- kszmigiel&#45;&#45;Infrastruktura#Naklejki -->
<g id="edge29" class="edge">
<title>kszmigiel&#45;&#45;Infrastruktura#Naklejki</title>
<path fill="none" stroke="#00ffff" d="M114.9152,-273.4286C190.2969,-273.4286 327.6812,-273.4286 428.5286,-273.4286"/>
</g>
<!-- Finanse#Naklejki -->
<g id="node22" class="node">
<title>Finanse#Naklejki</title>
<ellipse fill="none" stroke="#000000" cx="552.8137" cy="-233" rx="94.7833" ry="18"/>
<text text-anchor="middle" x="552.8137" y="-229.3" font-family="Times,serif" font-size="14.00" fill="#000000">Finanse#Naklejki</text>
</g>
<!-- kszmigiel&#45;&#45;Finanse#Naklejki -->
<g id="edge30" class="edge">
<title>kszmigiel&#45;&#45;Finanse#Naklejki</title>
<path fill="none" stroke="#00ffff" d="M98.5827,-263.1429C168.4012,-263.1429 308.0381,-263.1429 308.0381,-263.1429 308.0381,-263.1429 308.0381,-242 308.0381,-242 308.0381,-242 399.5161,-242 470.626,-242"/>
</g>
<!-- nikolaad -->
<g id="node23" class="node">
<title>nikolaad</title>
<ellipse fill="none" stroke="#000000" cx="59.7947" cy="-319" rx="50.0912" ry="18"/>
<text text-anchor="middle" x="59.7947" y="-315.3" font-family="Times,serif" font-size="14.00" fill="#000000">nikolaad</text>
</g>
<!-- nikolaad&#45;&#45;Infrastruktura#Meetup -->
<g id="edge31" class="edge">
<title>nikolaad&#45;&#45;Infrastruktura#Meetup</title>
<path fill="none" stroke="#ab00d5" d="M109.0906,-322.6C173.1865,-322.6 277.0381,-322.6 277.0381,-322.6 277.0381,-322.6 277.0381,-442 277.0381,-442 277.0381,-442 362.1873,-442 437.857,-442"/>
</g>
<!-- nikolaad&#45;&#45;Infrastruktura#Konto na Fejsie -->
<g id="edge32" class="edge">
<title>nikolaad&#45;&#45;Infrastruktura#Konto na Fejsie</title>
<path fill="none" stroke="#ab00d5" d="M108.8697,-315.4C175.849,-315.4 298.9498,-315.4 398.5626,-315.4"/>
</g>
<!-- Keij0 -->
<g id="node24" class="node">
<title>Keij0</title>
<ellipse fill="none" stroke="#000000" cx="59.7947" cy="-491" rx="34.394" ry="18"/>
<text text-anchor="middle" x="59.7947" y="-487.3" font-family="Times,serif" font-size="14.00" fill="#000000">Keij0</text>
</g>
<!-- Keij0&#45;&#45;Infrastruktura#Meetup -->
<g id="edge33" class="edge">
<title>Keij0&#45;&#45;Infrastruktura#Meetup</title>
<path fill="none" stroke="#f29100" d="M93.6011,-487.4C95.7287,-487.4 97.0381,-487.4 97.0381,-487.4 97.0381,-487.4 97.0381,-454 97.0381,-454 97.0381,-454 303.0817,-454 438.0965,-454"/>
</g>
<!-- Keij0&#45;&#45;Infrastruktura#Hosting -->
<g id="edge34" class="edge">
<title>Keij0&#45;&#45;Infrastruktura#Hosting</title>
<path fill="none" stroke="#f29100" d="M87.7451,-501.8C94.6122,-501.8 100.0381,-501.8 100.0381,-501.8 100.0381,-501.8 100.0381,-526.2857 100.0381,-526.2857 100.0381,-526.2857 307.7092,-526.2857 441.7625,-526.2857"/>
</g>
<!-- BluRaf -->
<g id="node25" class="node">
<title>BluRaf</title>
<ellipse fill="none" stroke="#000000" cx="59.7947" cy="-190" rx="42.4939" ry="18"/>
<text text-anchor="middle" x="59.7947" y="-186.3" font-family="Times,serif" font-size="14.00" fill="#000000">BluRaf</text>
</g>
<!-- BluRaf&#45;&#45;Infrastruktura#t.me/hakierspejs -->
<g id="edge37" class="edge">
<title>BluRaf&#45;&#45;Infrastruktura#t.me/hakierspejs</title>
<path fill="none" stroke="#00c64f" d="M85.2925,-204.4C123.7209,-204.4 192.0381,-204.4 192.0381,-204.4 192.0381,-204.4 192.0381,-351 192.0381,-351 192.0381,-351 320.0637,-351 423.5845,-351"/>
</g>
<!-- BluRaf&#45;&#45;Infrastruktura#t.me/hakierspejs_spam -->
<g id="edge39" class="edge">
<title>BluRaf&#45;&#45;Infrastruktura#t.me/hakierspejs_spam</title>
<path fill="none" stroke="#00c64f" d="M102.2559,-190C159.4809,-190 265.1072,-190 359.7101,-190"/>
</g>
<!-- BluRaf&#45;&#45;Infrastruktura#IRC -->
<g id="edge41" class="edge">
<title>BluRaf&#45;&#45;Infrastruktura#IRC</title>
<path fill="none" stroke="#00c64f" d="M93.6799,-200.8C164.3659,-200.8 321.0381,-200.8 321.0381,-200.8 321.0381,-200.8 321.0381,-391.6667 321.0381,-391.6667 321.0381,-391.6667 414.4268,-391.6667 482.6444,-391.6667"/>
</g>
<!-- BluRaf&#45;&#45;Infrastruktura#Konto na Fejsie -->
<g id="edge40" class="edge">
<title>BluRaf&#45;&#45;Infrastruktura#Konto na Fejsie</title>
<path fill="none" stroke="#00c64f" d="M98.7847,-197.2C172.2884,-197.2 324.0381,-197.2 324.0381,-197.2 324.0381,-197.2 324.0381,-308.2 324.0381,-308.2 324.0381,-308.2 373.6798,-308.2 426.7149,-308.2"/>
</g>
<!-- Infrastruktura#hs&#45;ldz:hackerspace.pl -->
<g id="node26" class="node">
<title>Infrastruktura#hs&#45;ldz:hackerspace.pl</title>
<ellipse fill="none" stroke="#000000" cx="552.8137" cy="-147" rx="186.5669" ry="18"/>
<text text-anchor="middle" x="552.8137" y="-143.3" font-family="Times,serif" font-size="14.00" fill="#000000">Infrastruktura#hs&#45;ldz:hackerspace.pl</text>
</g>
<!-- BluRaf&#45;&#45;Infrastruktura#hs&#45;ldz:hackerspace.pl -->
<g id="edge35" class="edge">
<title>BluRaf&#45;&#45;Infrastruktura#hs&#45;ldz:hackerspace.pl</title>
<path fill="none" stroke="#00c64f" d="M93.6894,-179.2C103.2189,-179.2 111.0381,-179.2 111.0381,-179.2 111.0381,-179.2 111.0381,-150.6 111.0381,-150.6 111.0381,-150.6 248.4024,-150.6 369.9377,-150.6"/>
</g>
<!-- Infrastruktura#hs&#45;ldz&#45;offtopic:hackerspace.pl -->
<g id="node27" class="node">
<title>Infrastruktura#hs&#45;ldz&#45;offtopic:hackerspace.pl</title>
<ellipse fill="none" stroke="#000000" cx="552.8137" cy="-104" rx="225.56" ry="18"/>
<text text-anchor="middle" x="552.8137" y="-100.3" font-family="Times,serif" font-size="14.00" fill="#000000">Infrastruktura#hs&#45;ldz&#45;offtopic:hackerspace.pl</text>
</g>
<!-- BluRaf&#45;&#45;Infrastruktura#hs&#45;ldz&#45;offtopic:hackerspace.pl -->
<g id="edge36" class="edge">
<title>BluRaf&#45;&#45;Infrastruktura#hs&#45;ldz&#45;offtopic:hackerspace.pl</title>
<path fill="none" stroke="#00c64f" d="M101.3008,-186.4C178.6424,-186.4 337.0381,-186.4 337.0381,-186.4 337.0381,-186.4 337.0381,-127.7383 337.0381,-109.4065"/>
</g>
<!-- Infrastruktura#Mumble -->
<g id="node28" class="node">
<title>Infrastruktura#Mumble</title>
<ellipse fill="none" stroke="#000000" cx="552.8137" cy="-61" rx="124.2781" ry="18"/>
<text text-anchor="middle" x="552.8137" y="-57.3" font-family="Times,serif" font-size="14.00" fill="#000000">Infrastruktura#Mumble</text>
</g>
<!-- BluRaf&#45;&#45;Infrastruktura#Mumble -->
<g id="edge38" class="edge">
<title>BluRaf&#45;&#45;Infrastruktura#Mumble</title>
<path fill="none" stroke="#00c64f" d="M98.7718,-182.8C163.9608,-182.8 288.0381,-182.8 288.0381,-182.8 288.0381,-182.8 288.0381,-61 288.0381,-61 288.0381,-61 359.7733,-61 428.5663,-61"/>
</g>
<!-- kpc21 -->
<g id="node29" class="node">
<title>kpc21</title>
<ellipse fill="none" stroke="#000000" cx="59.7947" cy="-147" rx="39.7935" ry="18"/>
<text text-anchor="middle" x="59.7947" y="-143.3" font-family="Times,serif" font-size="14.00" fill="#000000">kpc21</text>
</g>
<!-- kpc21&#45;&#45;Infrastruktura#t.me/hakierspejs_spam -->
<g id="edge42" class="edge">
<title>kpc21&#45;&#45;Infrastruktura#t.me/hakierspejs_spam</title>
<path fill="none" stroke="#2e00e4" d="M98.8576,-143.4C108.455,-143.4 116.0381,-143.4 116.0381,-143.4 116.0381,-143.4 116.0381,-175.6 116.0381,-175.6 116.0381,-175.6 307.5156,-175.6 436.9126,-175.6"/>
</g>
<!-- ksiezak -->
<g id="node30" class="node">
<title>ksiezak</title>
<ellipse fill="none" stroke="#000000" cx="59.7947" cy="-104" rx="46.2923" ry="18"/>
<text text-anchor="middle" x="59.7947" y="-100.3" font-family="Times,serif" font-size="14.00" fill="#000000">ksiezak</text>
</g>
<!-- ksiezak&#45;&#45;Infrastruktura#hs&#45;ldz:hackerspace.pl -->
<g id="edge43" class="edge">
<title>ksiezak&#45;&#45;Infrastruktura#hs&#45;ldz:hackerspace.pl</title>
<path fill="none" stroke="#ff0000" d="M105.112,-100.4C112.6311,-100.4 118.0381,-100.4 118.0381,-100.4 118.0381,-100.4 118.0381,-136.2 118.0381,-136.2 118.0381,-136.2 277.6807,-136.2 403.4928,-136.2"/>
</g>
<!-- ksiezak&#45;&#45;Infrastruktura#hs&#45;ldz&#45;offtopic:hackerspace.pl -->
<g id="edge44" class="edge">
<title>ksiezak&#45;&#45;Infrastruktura#hs&#45;ldz&#45;offtopic:hackerspace.pl</title>
<path fill="none" stroke="#ff0000" d="M105.293,-107.6C157.3793,-107.6 246.5126,-107.6 331.5866,-107.6"/>
</g>
<!-- Współdzielony&#45;kalendarz&#45;i&#45;lista&#45;kontaktów#Założenie konta -->
<g id="node31" class="node">
<title>Współdzielony&#45;kalendarz&#45;i&#45;lista&#45;kontaktów#Założenie konta</title>
<ellipse fill="none" stroke="#000000" cx="552.8137" cy="-18" rx="289.4488" ry="18"/>
<text text-anchor="middle" x="552.8137" y="-14.3" font-family="Times,serif" font-size="14.00" fill="#000000">Współdzielony&#45;kalendarz&#45;i&#45;lista&#45;kontaktów#Założenie konta</text>
</g>
<!-- ksiezak&#45;&#45;Współdzielony&#45;kalendarz&#45;i&#45;lista&#45;kontaktów#Założenie konta -->
<g id="edge45" class="edge">
<title>ksiezak&#45;&#45;Współdzielony&#45;kalendarz&#45;i&#45;lista&#45;kontaktów#Założenie konta</title>
<path fill="none" stroke="#ff0000" d="M96.8239,-93.2C160.5153,-93.2 284.0381,-93.2 284.0381,-93.2 284.0381,-93.2 284.0381,-43.0778 284.0381,-24.6735"/>
</g>
<!-- thinkofher -->
<g id="node32" class="node">
<title>thinkofher</title>
<ellipse fill="none" stroke="#000000" cx="59.7947" cy="-233" rx="59.5901" ry="18"/>
<text text-anchor="middle" x="59.7947" y="-229.3" font-family="Times,serif" font-size="14.00" fill="#000000">thinkofher</text>
</g>
<!-- thinkofher&#45;&#45;Infrastruktura#Forum -->
<g id="edge48" class="edge">
<title>thinkofher&#45;&#45;Infrastruktura#Forum</title>
<path fill="none" stroke="#2bd500" d="M119.6545,-233C193.9671,-233 311.0381,-233 311.0381,-233 311.0381,-233 311.0381,-694 311.0381,-694 311.0381,-694 396.554,-694 465.8687,-694"/>
</g>
<!-- thinkofher&#45;&#45;Infrastruktura#Hosting -->
<g id="edge49" class="edge">
<title>thinkofher&#45;&#45;Infrastruktura#Hosting</title>
<path fill="none" stroke="#2bd500" d="M111.7434,-224C187.1547,-224 318.0381,-224 318.0381,-224 318.0381,-224 318.0381,-521.1429 318.0381,-521.1429 318.0381,-521.1429 399.7202,-521.1429 466.7251,-521.1429"/>
</g>
<!-- thinkofher&#45;&#45;Infrastruktura#hs&#45;ldz:hackerspace.pl -->
<g id="edge46" class="edge">
<title>thinkofher&#45;&#45;Infrastruktura#hs&#45;ldz:hackerspace.pl</title>
<path fill="none" stroke="#2bd500" d="M113.0381,-224.665C113.0381,-205.0857 113.0381,-157.8 113.0381,-157.8 113.0381,-157.8 275.8204,-157.8 403.3121,-157.8"/>
</g>
<!-- thinkofher&#45;&#45;Infrastruktura#hs&#45;ldz&#45;offtopic:hackerspace.pl -->
<g id="edge47" class="edge">
<title>thinkofher&#45;&#45;Infrastruktura#hs&#45;ldz&#45;offtopic:hackerspace.pl</title>
<path fill="none" stroke="#2bd500" d="M109.0381,-222.5105C109.0381,-193.5826 109.0381,-114.8 109.0381,-114.8 109.0381,-114.8 249.4515,-114.8 372.3132,-114.8"/>
</g>
<!-- kpc -->
<g id="node33" class="node">
<title>kpc</title>
<ellipse fill="none" stroke="#000000" cx="59.7947" cy="-534" rx="27.8951" ry="18"/>
<text text-anchor="middle" x="59.7947" y="-530.3" font-family="Times,serif" font-size="14.00" fill="#000000">kpc</text>
</g>
<!-- kpc&#45;&#45;Infrastruktura#Hosting -->
<g id="edge50" class="edge">
<title>kpc&#45;&#45;Infrastruktura#Hosting</title>
<path fill="none" stroke="#0061f2" d="M87.7141,-531.4286C152.4911,-531.4286 316.2186,-531.4286 430.9933,-531.4286"/>
</g>
<!-- pmysl -->
<g id="node34" class="node">
<title>pmysl</title>
<ellipse fill="none" stroke="#000000" cx="59.7947" cy="-663" rx="38.1938" ry="18"/>
<text text-anchor="middle" x="59.7947" y="-659.3" font-family="Times,serif" font-size="14.00" fill="#000000">pmysl</text>
</g>
<!-- pmysl&#45;&#45;Infrastruktura#Grafana -->
<g id="edge51" class="edge">
<title>pmysl&#45;&#45;Infrastruktura#Grafana</title>
<path fill="none" stroke="#c60077" d="M98.4811,-663C168.965,-663 321.0522,-663 429.8446,-663"/>
</g>
<!-- pmysl&#45;&#45;Infrastruktura#Forum -->
<g id="edge52" class="edge">
<title>pmysl&#45;&#45;Infrastruktura#Forum</title>
<path fill="none" stroke="#c60077" d="M88.5175,-675C151.0673,-675 294.0381,-675 294.0381,-675 294.0381,-675 294.0381,-712 294.0381,-712 294.0381,-712 372.5402,-712 443.0695,-712"/>
</g>
<!-- pmysl&#45;&#45;Miejsce::Miejsce#Klucze do spejsu -->
<g id="edge53" class="edge">
<title>pmysl&#45;&#45;Miejsce::Miejsce#Klucze do spejsu</title>
<path fill="none" stroke="#c60077" d="M95.9841,-669C184.3673,-669 404.0381,-669 404.0381,-669 404.0381,-669 404.0381,-718.3176 404.0381,-739.5088"/>
</g>
<!-- pmysl&#45;&#45;Infrastruktura#Hosting -->
<g id="edge54" class="edge">
<title>pmysl&#45;&#45;Infrastruktura#Hosting</title>
<path fill="none" stroke="#c60077" d="M88.7717,-651C153.4693,-651 304.0381,-651 304.0381,-651 304.0381,-651 304.0381,-541.7143 304.0381,-541.7143 304.0381,-541.7143 375.2855,-541.7143 441.5233,-541.7143"/>
</g>
<!-- nuke -->
<g id="node35" class="node">
<title>nuke</title>
<ellipse fill="none" stroke="#000000" cx="59.7947" cy="-749" rx="33.5952" ry="18"/>
<text text-anchor="middle" x="59.7947" y="-745.3" font-family="Times,serif" font-size="14.00" fill="#000000">nuke</text>
</g>
<!-- nuke&#45;&#45;Miejsce::Miejsce#Klucze do spejsu -->
<g id="edge55" class="edge">
<title>nuke&#45;&#45;Miejsce::Miejsce#Klucze do spejsu</title>
<path fill="none" stroke="#b6e400" d="M87.0038,-759.8C147.9677,-759.8 299.0758,-759.8 412.7758,-759.8"/>
</g>
</g>
</svg>
