<?xml version="1.0" encoding="UTF-8" standalone="no"?>
<!DOCTYPE svg PUBLIC "-//W3C//DTD SVG 1.1//EN"
 "http://www.w3.org/Graphics/SVG/1.1/DTD/svg11.dtd">
<!-- Generated by graphviz version 2.40.1 (20161225.0304)
 -->
<!-- Title: %3 Pages: 1 -->
<svg width="850pt" height="904pt"
 viewBox="0.00 0.00 850.04 904.00" xmlns="http://www.w3.org/2000/svg" xmlns:xlink="http://www.w3.org/1999/xlink">
<g id="graph0" class="graph" transform="scale(1 1) rotate(0) translate(4 900)">
<title>%3</title>
<polygon fill="#ffffff" stroke="transparent" points="-4,4 -4,-900 846.0381,-900 846.0381,4 -4,4"/>
<!-- d33tah -->
<g id="node1" class="node">
<title>d33tah</title>
<ellipse fill="none" stroke="#000000" cx="59.7947" cy="-577" rx="43.5923" ry="18"/>
<text text-anchor="middle" x="59.7947" y="-573.3" font-family="Times,serif" font-size="14.00" fill="#000000">d33tah</text>
</g>
<!-- Infrastruktura::IRC#IRC -->
<g id="node2" class="node">
<title>Infrastruktura::IRC#IRC</title>
<ellipse fill="none" stroke="#000000" cx="552.8137" cy="-319" rx="128.0773" ry="18"/>
<text text-anchor="middle" x="552.8137" y="-315.3" font-family="Times,serif" font-size="14.00" fill="#000000">Infrastruktura::IRC#IRC</text>
</g>
<!-- d33tah&#45;&#45;Infrastruktura::IRC#IRC -->
<g id="edge1" class="edge">
<title>d33tah&#45;&#45;Infrastruktura::IRC#IRC</title>
<path fill="none" stroke="#ff0000" d="M93.5737,-565.5455C166.6802,-565.5455 333.0381,-565.5455 333.0381,-565.5455 333.0381,-565.5455 333.0381,-328 333.0381,-328 333.0381,-328 387.1268,-328 441.6382,-328"/>
</g>
<!-- Infrastruktura::Grafana#Grafana -->
<g id="node3" class="node">
<title>Infrastruktura::Grafana#Grafana</title>
<ellipse fill="none" stroke="#000000" cx="552.8137" cy="-663" rx="165.9709" ry="18"/>
<text text-anchor="middle" x="552.8137" y="-659.3" font-family="Times,serif" font-size="14.00" fill="#000000">Infrastruktura::Grafana#Grafana</text>
</g>
<!-- d33tah&#45;&#45;Infrastruktura::Grafana#Grafana -->
<g id="edge2" class="edge">
<title>d33tah&#45;&#45;Infrastruktura::Grafana#Grafana</title>
<path fill="none" stroke="#ff0000" d="M103.3604,-578.6364C193.69,-578.6364 393.0381,-578.6364 393.0381,-578.6364 393.0381,-578.6364 393.0381,-639.8134 393.0381,-657.9753"/>
</g>
<!-- Infrastruktura::Github#Github -->
<g id="node4" class="node">
<title>Infrastruktura::Github#Github</title>
<ellipse fill="none" stroke="#000000" cx="552.8137" cy="-620" rx="155.1726" ry="18"/>
<text text-anchor="middle" x="552.8137" y="-616.3" font-family="Times,serif" font-size="14.00" fill="#000000">Infrastruktura::Github#Github</text>
</g>
<!-- d33tah&#45;&#45;Infrastruktura::Github#Github -->
<g id="edge3" class="edge">
<title>d33tah&#45;&#45;Infrastruktura::Github#Github</title>
<path fill="none" stroke="#ff0000" d="M103.4636,-575.3636C197.9741,-575.3636 413.0381,-575.3636 413.0381,-575.3636 413.0381,-575.3636 413.0381,-598.9269 413.0381,-611.813"/>
</g>
<!-- Miejsce::Miejsce#Klucze do spejsu -->
<g id="node5" class="node">
<title>Miejsce::Miejsce#Klucze do spejsu</title>
<ellipse fill="none" stroke="#000000" cx="552.8137" cy="-749" rx="174.6691" ry="18"/>
<text text-anchor="middle" x="552.8137" y="-745.3" font-family="Times,serif" font-size="14.00" fill="#000000">Miejsce::Miejsce#Klucze do spejsu</text>
</g>
<!-- d33tah&#45;&#45;Miejsce::Miejsce#Klucze do spejsu -->
<g id="edge4" class="edge">
<title>d33tah&#45;&#45;Miejsce::Miejsce#Klucze do spejsu</title>
<path fill="none" stroke="#ff0000" d="M101.9812,-581.9091C189.984,-581.9091 385.0381,-581.9091 385.0381,-581.9091 385.0381,-581.9091 385.0381,-715.6129 385.0381,-743.8161"/>
</g>
<!-- Infrastruktura::Lista&#45;mailingowa#Lista mailingowa -->
<g id="node6" class="node">
<title>Infrastruktura::Lista&#45;mailingowa#Lista mailingowa</title>
<ellipse fill="none" stroke="#000000" cx="552.8137" cy="-792" rx="250.7555" ry="18"/>
<text text-anchor="middle" x="552.8137" y="-788.3" font-family="Times,serif" font-size="14.00" fill="#000000">Infrastruktura::Lista&#45;mailingowa#Lista mailingowa</text>
</g>
<!-- d33tah&#45;&#45;Infrastruktura::Lista&#45;mailingowa#Lista mailingowa -->
<g id="edge5" class="edge">
<title>d33tah&#45;&#45;Infrastruktura::Lista&#45;mailingowa#Lista mailingowa</title>
<path fill="none" stroke="#ff0000" d="M98.6855,-585.1818C169.9067,-585.1818 314.0381,-585.1818 314.0381,-585.1818 314.0381,-585.1818 314.0381,-753.5782 314.0381,-786.4681"/>
</g>
<!-- Infrastruktura::Meetup#Meetup -->
<g id="node7" class="node">
<title>Infrastruktura::Meetup#Meetup</title>
<ellipse fill="none" stroke="#000000" cx="552.8137" cy="-448" rx="163.2712" ry="18"/>
<text text-anchor="middle" x="552.8137" y="-444.3" font-family="Times,serif" font-size="14.00" fill="#000000">Infrastruktura::Meetup#Meetup</text>
</g>
<!-- d33tah&#45;&#45;Infrastruktura::Meetup#Meetup -->
<g id="edge6" class="edge">
<title>d33tah&#45;&#45;Infrastruktura::Meetup#Meetup</title>
<path fill="none" stroke="#ff0000" d="M96.0381,-566.617C96.0381,-537.9827 96.0381,-460 96.0381,-460 96.0381,-460 295.6931,-460 431.0063,-460"/>
</g>
<!-- Infrastruktura::Forum#Forum -->
<g id="node8" class="node">
<title>Infrastruktura::Forum#Forum</title>
<ellipse fill="none" stroke="#000000" cx="552.8137" cy="-706" rx="152.1731" ry="18"/>
<text text-anchor="middle" x="552.8137" y="-702.3" font-family="Times,serif" font-size="14.00" fill="#000000">Infrastruktura::Forum#Forum</text>
</g>
<!-- d33tah&#45;&#45;Infrastruktura::Forum#Forum -->
<g id="edge7" class="edge">
<title>d33tah&#45;&#45;Infrastruktura::Forum#Forum</title>
<path fill="none" stroke="#ff0000" d="M93.5926,-588.4545C159.9861,-588.4545 301.0381,-588.4545 301.0381,-588.4545 301.0381,-588.4545 301.0381,-698.2857 301.0381,-698.2857 301.0381,-698.2857 356.3599,-698.2857 415.1393,-698.2857"/>
</g>
<!-- Infrastruktura::Telegram#t.me/hakierspejs_spam -->
<g id="node9" class="node">
<title>Infrastruktura::Telegram#t.me/hakierspejs_spam</title>
<ellipse fill="none" stroke="#000000" cx="552.8137" cy="-276" rx="243.1569" ry="18"/>
<text text-anchor="middle" x="552.8137" y="-272.3" font-family="Times,serif" font-size="14.00" fill="#000000">Infrastruktura::Telegram#t.me/hakierspejs_spam</text>
</g>
<!-- d33tah&#45;&#45;Infrastruktura::Telegram#t.me/hakierspejs_spam -->
<g id="edge8" class="edge">
<title>d33tah&#45;&#45;Infrastruktura::Telegram#t.me/hakierspejs_spam</title>
<path fill="none" stroke="#ff0000" d="M85.1245,-562.2727C152.1489,-562.2727 329.0381,-562.2727 329.0381,-562.2727 329.0381,-562.2727 329.0381,-327.1601 329.0381,-283.0764"/>
</g>
<!-- Infrastruktura::Telegram#t.me/hakierspejs -->
<g id="node10" class="node">
<title>Infrastruktura::Telegram#t.me/hakierspejs</title>
<ellipse fill="none" stroke="#000000" cx="552.8137" cy="-362" rx="213.3623" ry="18"/>
<text text-anchor="middle" x="552.8137" y="-358.3" font-family="Times,serif" font-size="14.00" fill="#000000">Infrastruktura::Telegram#t.me/hakierspejs</text>
</g>
<!-- d33tah&#45;&#45;Infrastruktura::Telegram#t.me/hakierspejs -->
<g id="edge9" class="edge">
<title>d33tah&#45;&#45;Infrastruktura::Telegram#t.me/hakierspejs</title>
<path fill="none" stroke="#ff0000" d="M98.7709,-568.8182C178.132,-568.8182 351.0381,-568.8182 351.0381,-568.8182 351.0381,-568.8182 351.0381,-401.8766 351.0381,-367.9666"/>
</g>
<!-- Infrastruktura::Pad#Pad -->
<g id="node11" class="node">
<title>Infrastruktura::Pad#Pad</title>
<ellipse fill="none" stroke="#000000" cx="552.8137" cy="-577" rx="126.1777" ry="18"/>
<text text-anchor="middle" x="552.8137" y="-573.3" font-family="Times,serif" font-size="14.00" fill="#000000">Infrastruktura::Pad#Pad</text>
</g>
<!-- d33tah&#45;&#45;Infrastruktura::Pad#Pad -->
<g id="edge10" class="edge">
<title>d33tah&#45;&#45;Infrastruktura::Pad#Pad</title>
<path fill="none" stroke="#ff0000" d="M101.8292,-572.0909C174.0167,-572.0909 324.1172,-572.0909 431.3195,-572.0909"/>
</g>
<!-- Infrastruktura::Mariuszbot#Mariuszbot -->
<g id="node12" class="node">
<title>Infrastruktura::Mariuszbot#Mariuszbot</title>
<ellipse fill="none" stroke="#000000" cx="552.8137" cy="-534" rx="196.8651" ry="18"/>
<text text-anchor="middle" x="552.8137" y="-530.3" font-family="Times,serif" font-size="14.00" fill="#000000">Infrastruktura::Mariuszbot#Mariuszbot</text>
</g>
<!-- d33tah&#45;&#45;Infrastruktura::Mariuszbot#Mariuszbot -->
<g id="edge11" class="edge">
<title>d33tah&#45;&#45;Infrastruktura::Mariuszbot#Mariuszbot</title>
<path fill="none" stroke="#ff0000" d="M102.0381,-572.4631C102.0381,-562.583 102.0381,-540 102.0381,-540 102.0381,-540 242.6922,-540 366.8635,-540"/>
</g>
<!-- Infrastruktura::Domeny#Domeny -->
<g id="node13" class="node">
<title>Infrastruktura::Domeny#Domeny</title>
<ellipse fill="none" stroke="#000000" cx="552.8137" cy="-835" rx="167.8704" ry="18"/>
<text text-anchor="middle" x="552.8137" y="-831.3" font-family="Times,serif" font-size="14.00" fill="#000000">Infrastruktura::Domeny#Domeny</text>
</g>
<!-- d33tah&#45;&#45;Infrastruktura::Domeny#Domeny -->
<g id="edge12" class="edge">
<title>d33tah&#45;&#45;Infrastruktura::Domeny#Domeny</title>
<path fill="none" stroke="#ff0000" d="M84.9821,-591.7273C107.8551,-591.7273 138.0381,-591.7273 138.0381,-591.7273 138.0381,-591.7273 138.0381,-820.5 138.0381,-820.5 138.0381,-820.5 330.4809,-820.5 453.2008,-820.5"/>
</g>
<!-- Infrastruktura::VM#Hosting -->
<g id="node14" class="node">
<title>Infrastruktura::VM#Hosting</title>
<ellipse fill="none" stroke="#000000" cx="552.8137" cy="-491" rx="144.8743" ry="18"/>
<text text-anchor="middle" x="552.8137" y="-487.3" font-family="Times,serif" font-size="14.00" fill="#000000">Infrastruktura::VM#Hosting</text>
</g>
<!-- d33tah&#45;&#45;Infrastruktura::VM#Hosting -->
<g id="edge13" class="edge">
<title>d33tah&#45;&#45;Infrastruktura::VM#Hosting</title>
<path fill="none" stroke="#ff0000" d="M99.0381,-569.1854C99.0381,-548.7866 99.0381,-495.5 99.0381,-495.5 99.0381,-495.5 279.0746,-495.5 412.3439,-495.5"/>
</g>
<!-- pmysl -->
<g id="node15" class="node">
<title>pmysl</title>
<ellipse fill="none" stroke="#000000" cx="59.7947" cy="-663" rx="38.1938" ry="18"/>
<text text-anchor="middle" x="59.7947" y="-659.3" font-family="Times,serif" font-size="14.00" fill="#000000">pmysl</text>
</g>
<!-- pmysl&#45;&#45;Infrastruktura::Grafana#Grafana -->
<g id="edge14" class="edge">
<title>pmysl&#45;&#45;Infrastruktura::Grafana#Grafana</title>
<path fill="none" stroke="#2bd500" d="M97.6624,-659.4C159.6699,-659.4 286.3727,-659.4 390.3857,-659.4"/>
</g>
<!-- pmysl&#45;&#45;Infrastruktura::Github#Github -->
<g id="edge15" class="edge">
<title>pmysl&#45;&#45;Infrastruktura::Github#Github</title>
<path fill="none" stroke="#2bd500" d="M60.0381,-644.9336C60.0381,-635.5413 60.0381,-626 60.0381,-626 60.0381,-626 261.0421,-626 406.299,-626"/>
</g>
<!-- pmysl&#45;&#45;Miejsce::Miejsce#Klucze do spejsu -->
<g id="edge16" class="edge">
<title>pmysl&#45;&#45;Miejsce::Miejsce#Klucze do spejsu</title>
<path fill="none" stroke="#2bd500" d="M97.5074,-666.6C182.7755,-666.6 383.0381,-666.6 383.0381,-666.6 383.0381,-666.6 383.0381,-727.4545 383.0381,-744.5698"/>
</g>
<!-- pmysl&#45;&#45;Infrastruktura::Forum#Forum -->
<g id="edge17" class="edge">
<title>pmysl&#45;&#45;Infrastruktura::Forum#Forum</title>
<path fill="none" stroke="#2bd500" d="M90.5818,-673.8C155.1976,-673.8 299.0381,-673.8 299.0381,-673.8 299.0381,-673.8 299.0381,-703.4286 299.0381,-703.4286 299.0381,-703.4286 347.6123,-703.4286 402.2583,-703.4286"/>
</g>
<!-- pmysl&#45;&#45;Infrastruktura::VM#Hosting -->
<g id="edge18" class="edge">
<title>pmysl&#45;&#45;Infrastruktura::VM#Hosting</title>
<path fill="none" stroke="#2bd500" d="M90.6348,-652.2C153.8096,-652.2 292.0381,-652.2 292.0381,-652.2 292.0381,-652.2 292.0381,-500 292.0381,-500 292.0381,-500 360.3238,-500 427.009,-500"/>
</g>
<!-- thinkofher -->
<g id="node16" class="node">
<title>thinkofher</title>
<ellipse fill="none" stroke="#000000" cx="59.7947" cy="-276" rx="59.5901" ry="18"/>
<text text-anchor="middle" x="59.7947" y="-272.3" font-family="Times,serif" font-size="14.00" fill="#000000">thinkofher</text>
</g>
<!-- thinkofher&#45;&#45;Infrastruktura::Forum#Forum -->
<g id="edge20" class="edge">
<title>thinkofher&#45;&#45;Infrastruktura::Forum#Forum</title>
<path fill="none" stroke="#0061f2" d="M111.5787,-285C134.3589,-285 156.0381,-285 156.0381,-285 156.0381,-285 156.0381,-708.5714 156.0381,-708.5714 156.0381,-708.5714 289.9993,-708.5714 402.2441,-708.5714"/>
</g>
<!-- thinkofher&#45;&#45;Infrastruktura::VM#Hosting -->
<g id="edge22" class="edge">
<title>thinkofher&#45;&#45;Infrastruktura::VM#Hosting</title>
<path fill="none" stroke="#0061f2" d="M119.5931,-276C147.2344,-276 174.0381,-276 174.0381,-276 174.0381,-276 174.0381,-477.5 174.0381,-477.5 174.0381,-477.5 344.5268,-477.5 456.743,-477.5"/>
</g>
<!-- Infrastruktura::Matrix#hs&#45;ldz:hackerspace.pl -->
<g id="node17" class="node">
<title>Infrastruktura::Matrix#hs&#45;ldz:hackerspace.pl</title>
<ellipse fill="none" stroke="#000000" cx="552.8137" cy="-61" rx="223.6604" ry="18"/>
<text text-anchor="middle" x="552.8137" y="-57.3" font-family="Times,serif" font-size="14.00" fill="#000000">Infrastruktura::Matrix#hs&#45;ldz:hackerspace.pl</text>
</g>
<!-- thinkofher&#45;&#45;Infrastruktura::Matrix#hs&#45;ldz:hackerspace.pl -->
<g id="edge19" class="edge">
<title>thinkofher&#45;&#45;Infrastruktura::Matrix#hs&#45;ldz:hackerspace.pl</title>
<path fill="none" stroke="#0061f2" d="M113.0381,-267.807C113.0381,-229.1659 113.0381,-67 113.0381,-67 113.0381,-67 229.0767,-67 341.9425,-67"/>
</g>
<!-- Infrastruktura::Matrix#hs&#45;ldz&#45;offtopic:hackerspace.pl -->
<g id="node18" class="node">
<title>Infrastruktura::Matrix#hs&#45;ldz&#45;offtopic:hackerspace.pl</title>
<ellipse fill="none" stroke="#000000" cx="552.8137" cy="-190" rx="262.6534" ry="18"/>
<text text-anchor="middle" x="552.8137" y="-186.3" font-family="Times,serif" font-size="14.00" fill="#000000">Infrastruktura::Matrix#hs&#45;ldz&#45;offtopic:hackerspace.pl</text>
</g>
<!-- thinkofher&#45;&#45;Infrastruktura::Matrix#hs&#45;ldz&#45;offtopic:hackerspace.pl -->
<g id="edge21" class="edge">
<title>thinkofher&#45;&#45;Infrastruktura::Matrix#hs&#45;ldz&#45;offtopic:hackerspace.pl</title>
<path fill="none" stroke="#0061f2" d="M115.0381,-268.894C115.0381,-249.832 115.0381,-199 115.0381,-199 115.0381,-199 218.7866,-199 325.2707,-199"/>
</g>
<!-- cytP450 -->
<g id="node19" class="node">
<title>cytP450</title>
<ellipse fill="none" stroke="#000000" cx="59.7947" cy="-706" rx="49.2915" ry="18"/>
<text text-anchor="middle" x="59.7947" y="-702.3" font-family="Times,serif" font-size="14.00" fill="#000000">cytP450</text>
</g>
<!-- cytP450&#45;&#45;Miejsce::Miejsce#Klucze do spejsu -->
<g id="edge23" class="edge">
<title>cytP450&#45;&#45;Miejsce::Miejsce#Klucze do spejsu</title>
<path fill="none" stroke="#c60077" d="M94.4786,-718.8571C177.5451,-718.8571 381.0381,-718.8571 381.0381,-718.8571 381.0381,-718.8571 381.0381,-737.2549 381.0381,-745.3039"/>
</g>
<!-- cytP450&#45;&#45;Infrastruktura::Forum#Forum -->
<g id="edge25" class="edge">
<title>cytP450&#45;&#45;Infrastruktura::Forum#Forum</title>
<path fill="none" stroke="#c60077" d="M104.8538,-713.7143C174.5028,-713.7143 311.1378,-713.7143 415.2821,-713.7143"/>
</g>
<!-- cytP450&#45;&#45;Infrastruktura::Domeny#Domeny -->
<g id="edge24" class="edge">
<title>cytP450&#45;&#45;Infrastruktura::Domeny#Domeny</title>
<path fill="none" stroke="#c60077" d="M102.0381,-715.6564C102.0381,-743.8383 102.0381,-824 102.0381,-824 102.0381,-824 287.0366,-824 420.0042,-824"/>
</g>
<!-- cytP450&#45;&#45;Infrastruktura::VM#Hosting -->
<g id="edge26" class="edge">
<title>cytP450&#45;&#45;Infrastruktura::VM#Hosting</title>
<path fill="none" stroke="#c60077" d="M94.5014,-693.1429C168.6947,-693.1429 336.0381,-693.1429 336.0381,-693.1429 336.0381,-693.1429 336.0381,-504.5 336.0381,-504.5 336.0381,-504.5 398.8025,-504.5 456.7861,-504.5"/>
</g>
<!-- q3k -->
<g id="node20" class="node">
<title>q3k</title>
<ellipse fill="none" stroke="#000000" cx="59.7947" cy="-813" rx="28.6953" ry="18"/>
<text text-anchor="middle" x="59.7947" y="-809.3" font-family="Times,serif" font-size="14.00" fill="#000000">q3k</text>
</g>
<!-- q3k&#45;&#45;Infrastruktura::Lista&#45;mailingowa#Lista mailingowa -->
<g id="edge27" class="edge">
<title>q3k&#45;&#45;Infrastruktura::Lista&#45;mailingowa#Lista mailingowa</title>
<path fill="none" stroke="#b6e400" d="M83.2424,-802.5C131.3227,-802.5 245.2917,-802.5 348.905,-802.5"/>
</g>
<!-- q3k&#45;&#45;Infrastruktura::Domeny#Domeny -->
<g id="edge28" class="edge">
<title>q3k&#45;&#45;Infrastruktura::Domeny#Domeny</title>
<path fill="none" stroke="#b6e400" d="M76.7655,-827.5C127.3503,-827.5 280.982,-827.5 400.1833,-827.5"/>
</g>
<!-- ksiezak -->
<g id="node21" class="node">
<title>ksiezak</title>
<ellipse fill="none" stroke="#000000" cx="59.7947" cy="-61" rx="46.2923" ry="18"/>
<text text-anchor="middle" x="59.7947" y="-57.3" font-family="Times,serif" font-size="14.00" fill="#000000">ksiezak</text>
</g>
<!-- ksiezak&#45;&#45;Infrastruktura::Matrix#hs&#45;ldz:hackerspace.pl -->
<g id="edge29" class="edge">
<title>ksiezak&#45;&#45;Infrastruktura::Matrix#hs&#45;ldz:hackerspace.pl</title>
<path fill="none" stroke="#00ffff" d="M103.5468,-55C157.4551,-55 252.8716,-55 341.9457,-55"/>
</g>
<!-- ksiezak&#45;&#45;Infrastruktura::Matrix#hs&#45;ldz&#45;offtopic:hackerspace.pl -->
<g id="edge31" class="edge">
<title>ksiezak&#45;&#45;Infrastruktura::Matrix#hs&#45;ldz&#45;offtopic:hackerspace.pl</title>
<path fill="none" stroke="#00ffff" d="M105.9848,-61C178.2912,-61 310.0381,-61 310.0381,-61 310.0381,-61 310.0381,-156.2698 310.0381,-183.0644"/>
</g>
<!-- Współdzielony&#45;kalendarz&#45;i&#45;lista&#45;kontaktów#Założenie konta -->
<g id="node22" class="node">
<title>Współdzielony&#45;kalendarz&#45;i&#45;lista&#45;kontaktów#Założenie konta</title>
<ellipse fill="none" stroke="#000000" cx="552.8137" cy="-18" rx="289.4488" ry="18"/>
<text text-anchor="middle" x="552.8137" y="-14.3" font-family="Times,serif" font-size="14.00" fill="#000000">Współdzielony&#45;kalendarz&#45;i&#45;lista&#45;kontaktów#Założenie konta</text>
</g>
<!-- ksiezak&#45;&#45;Współdzielony&#45;kalendarz&#45;i&#45;lista&#45;kontaktów#Założenie konta -->
<g id="edge30" class="edge">
<title>ksiezak&#45;&#45;Współdzielony&#45;kalendarz&#45;i&#45;lista&#45;kontaktów#Założenie konta</title>
<path fill="none" stroke="#00ffff" d="M94.2176,-49C155.4743,-49 277.0381,-49 277.0381,-49 277.0381,-49 277.0381,-32.6353 277.0381,-23.6859"/>
</g>
<!-- BluRaf -->
<g id="node23" class="node">
<title>BluRaf</title>
<ellipse fill="none" stroke="#000000" cx="59.7947" cy="-190" rx="42.4939" ry="18"/>
<text text-anchor="middle" x="59.7947" y="-186.3" font-family="Times,serif" font-size="14.00" fill="#000000">BluRaf</text>
</g>
<!-- BluRaf&#45;&#45;Infrastruktura::IRC#IRC -->
<g id="edge33" class="edge">
<title>BluRaf&#45;&#45;Infrastruktura::IRC#IRC</title>
<path fill="none" stroke="#ab00d5" d="M102.2496,-190C152.0903,-190 228.0381,-190 228.0381,-190 228.0381,-190 228.0381,-310 228.0381,-310 228.0381,-310 347.4827,-310 441.4987,-310"/>
</g>
<!-- BluRaf&#45;&#45;Infrastruktura::Telegram#t.me/hakierspejs_spam -->
<g id="edge34" class="edge">
<title>BluRaf&#45;&#45;Infrastruktura::Telegram#t.me/hakierspejs_spam</title>
<path fill="none" stroke="#ab00d5" d="M101.1281,-185.5C155.9969,-185.5 246.0381,-185.5 246.0381,-185.5 246.0381,-185.5 246.0381,-267 246.0381,-267 246.0381,-267 288.7302,-267 342.2621,-267"/>
</g>
<!-- BluRaf&#45;&#45;Infrastruktura::Telegram#t.me/hakierspejs -->
<g id="edge35" class="edge">
<title>BluRaf&#45;&#45;Infrastruktura::Telegram#t.me/hakierspejs</title>
<path fill="none" stroke="#ab00d5" d="M100.9124,-194.5C139.7328,-194.5 192.0381,-194.5 192.0381,-194.5 192.0381,-194.5 192.0381,-350 192.0381,-350 192.0381,-350 297.0653,-350 393.7847,-350"/>
</g>
<!-- BluRaf&#45;&#45;Infrastruktura::Matrix#hs&#45;ldz:hackerspace.pl -->
<g id="edge36" class="edge">
<title>BluRaf&#45;&#45;Infrastruktura::Matrix#hs&#45;ldz:hackerspace.pl</title>
<path fill="none" stroke="#ab00d5" d="M88.0543,-176.5C131.5762,-176.5 210.0381,-176.5 210.0381,-176.5 210.0381,-176.5 210.0381,-73 210.0381,-73 210.0381,-73 298.7711,-73 385.9444,-73"/>
</g>
<!-- BluRaf&#45;&#45;Infrastruktura::Matrix#hs&#45;ldz&#45;offtopic:hackerspace.pl -->
<g id="edge38" class="edge">
<title>BluRaf&#45;&#45;Infrastruktura::Matrix#hs&#45;ldz&#45;offtopic:hackerspace.pl</title>
<path fill="none" stroke="#ab00d5" d="M96.4485,-181C145.6554,-181 237.1218,-181 325.3219,-181"/>
</g>
<!-- Infrastruktura::Mumble#Mumble -->
<g id="node24" class="node">
<title>Infrastruktura::Mumble#Mumble</title>
<ellipse fill="none" stroke="#000000" cx="552.8137" cy="-104" rx="167.8704" ry="18"/>
<text text-anchor="middle" x="552.8137" y="-100.3" font-family="Times,serif" font-size="14.00" fill="#000000">Infrastruktura::Mumble#Mumble</text>
</g>
<!-- BluRaf&#45;&#45;Infrastruktura::Mumble#Mumble -->
<g id="edge32" class="edge">
<title>BluRaf&#45;&#45;Infrastruktura::Mumble#Mumble</title>
<path fill="none" stroke="#ab00d5" d="M46.0381,-172.5966C46.0381,-147.4672 46.0381,-104 46.0381,-104 46.0381,-104 237.5551,-104 385.1204,-104"/>
</g>
<!-- Infrastruktura::Facebook#Konto na Fejsie -->
<g id="node25" class="node">
<title>Infrastruktura::Facebook#Konto na Fejsie</title>
<ellipse fill="none" stroke="#000000" cx="552.8137" cy="-233" rx="207.1633" ry="18"/>
<text text-anchor="middle" x="552.8137" y="-229.3" font-family="Times,serif" font-size="14.00" fill="#000000">Infrastruktura::Facebook#Konto na Fejsie</text>
</g>
<!-- BluRaf&#45;&#45;Infrastruktura::Facebook#Konto na Fejsie -->
<g id="edge37" class="edge">
<title>BluRaf&#45;&#45;Infrastruktura::Facebook#Konto na Fejsie</title>
<path fill="none" stroke="#ab00d5" d="M87.8928,-203.5C102.7867,-203.5 118.0381,-203.5 118.0381,-203.5 118.0381,-203.5 118.0381,-222.2 118.0381,-222.2 118.0381,-222.2 264.0898,-222.2 386.8931,-222.2"/>
</g>
<!-- None -->
<g id="node26" class="node">
<title>None</title>
<ellipse fill="none" stroke="#000000" cx="552.8137" cy="-147" rx="35.9954" ry="18"/>
<text text-anchor="middle" x="552.8137" y="-143.3" font-family="Times,serif" font-size="14.00" fill="#000000">None</text>
</g>
<!-- BluRaf&#45;&#45;None -->
<g id="edge39" class="edge">
<title>BluRaf&#45;&#45;None</title>
<path fill="none" stroke="#ab00d5" d="M74.0381,-173.0053C74.0381,-160.986 74.0381,-147 74.0381,-147 74.0381,-147 405.483,-147 516.8277,-147"/>
</g>
<!-- kszmigiel -->
<g id="node27" class="node">
<title>kszmigiel</title>
<ellipse fill="none" stroke="#000000" cx="59.7947" cy="-405" rx="55.4913" ry="18"/>
<text text-anchor="middle" x="59.7947" y="-401.3" font-family="Times,serif" font-size="14.00" fill="#000000">kszmigiel</text>
</g>
<!-- kszmigiel&#45;&#45;Miejsce::Miejsce#Klucze do spejsu -->
<g id="edge40" class="edge">
<title>kszmigiel&#45;&#45;Miejsce::Miejsce#Klucze do spejsu</title>
<path fill="none" stroke="#f29100" d="M104.1883,-415.8C178.0239,-415.8 318.0381,-415.8 318.0381,-415.8 318.0381,-415.8 318.0381,-743 318.0381,-743 318.0381,-743 348.6899,-743 387.8428,-743"/>
</g>
<!-- kszmigiel&#45;&#45;Infrastruktura::Meetup#Meetup -->
<g id="edge41" class="edge">
<title>kszmigiel&#45;&#45;Infrastruktura::Meetup#Meetup</title>
<path fill="none" stroke="#f29100" d="M101.0381,-417.2071C101.0381,-429.9197 101.0381,-448 101.0381,-448 101.0381,-448 260.0448,-448 389.393,-448"/>
</g>
<!-- kszmigiel&#45;&#45;Infrastruktura::Telegram#t.me/hakierspejs_spam -->
<g id="edge42" class="edge">
<title>kszmigiel&#45;&#45;Infrastruktura::Telegram#t.me/hakierspejs_spam</title>
<path fill="none" stroke="#f29100" d="M104.1905,-394.2C179.6988,-394.2 325.0381,-394.2 325.0381,-394.2 325.0381,-394.2 325.0381,-306.9063 325.0381,-282.3549"/>
</g>
<!-- kszmigiel&#45;&#45;Infrastruktura::Telegram#t.me/hakierspejs -->
<g id="edge43" class="edge">
<title>kszmigiel&#45;&#45;Infrastruktura::Telegram#t.me/hakierspejs</title>
<path fill="none" stroke="#f29100" d="M113.9714,-401.4C196.9563,-401.4 346.0381,-401.4 346.0381,-401.4 346.0381,-401.4 346.0381,-376.8688 346.0381,-366.5197"/>
</g>
<!-- Infrastruktura::Naklejki#Naklejki -->
<g id="node28" class="node">
<title>Infrastruktura::Naklejki#Naklejki</title>
<ellipse fill="none" stroke="#000000" cx="552.8137" cy="-405" rx="170.8697" ry="18"/>
<text text-anchor="middle" x="552.8137" y="-401.3" font-family="Times,serif" font-size="14.00" fill="#000000">Infrastruktura::Naklejki#Naklejki</text>
</g>
<!-- kszmigiel&#45;&#45;Infrastruktura::Naklejki#Naklejki -->
<g id="edge44" class="edge">
<title>kszmigiel&#45;&#45;Infrastruktura::Naklejki#Naklejki</title>
<path fill="none" stroke="#f29100" d="M113.9667,-408.6C178.8786,-408.6 290.7234,-408.6 385.2517,-408.6"/>
</g>
<!-- Martti25 -->
<g id="node29" class="node">
<title>Martti25</title>
<ellipse fill="none" stroke="#000000" cx="59.7947" cy="-362" rx="51.9908" ry="18"/>
<text text-anchor="middle" x="59.7947" y="-358.3" font-family="Times,serif" font-size="14.00" fill="#000000">Martti25</text>
</g>
<!-- Martti25&#45;&#45;Infrastruktura::Github#Github -->
<g id="edge48" class="edge">
<title>Martti25&#45;&#45;Infrastruktura::Github#Github</title>
<path fill="none" stroke="#00c64f" d="M109.0339,-368C180.894,-368 306.0381,-368 306.0381,-368 306.0381,-368 306.0381,-614 306.0381,-614 306.0381,-614 353.0618,-614 406.0554,-614"/>
</g>
<!-- Martti25&#45;&#45;Infrastruktura::Meetup#Meetup -->
<g id="edge45" class="edge">
<title>Martti25&#45;&#45;Infrastruktura::Meetup#Meetup</title>
<path fill="none" stroke="#00c64f" d="M98.8055,-374C165.9052,-374 296.0381,-374 296.0381,-374 296.0381,-374 296.0381,-442 296.0381,-442 296.0381,-442 344.3128,-442 398.999,-442"/>
</g>
<!-- Martti25&#45;&#45;Infrastruktura::Telegram#t.me/hakierspejs -->
<g id="edge47" class="edge">
<title>Martti25&#45;&#45;Infrastruktura::Telegram#t.me/hakierspejs</title>
<path fill="none" stroke="#00c64f" d="M112.0896,-362C166.6103,-362 255.6487,-362 339.475,-362"/>
</g>
<!-- Martti25&#45;&#45;Infrastruktura::Facebook#Konto na Fejsie -->
<g id="edge46" class="edge">
<title>Martti25&#45;&#45;Infrastruktura::Facebook#Konto na Fejsie</title>
<path fill="none" stroke="#00c64f" d="M108.8998,-356C177.5874,-356 294.0381,-356 294.0381,-356 294.0381,-356 294.0381,-243.8 294.0381,-243.8 294.0381,-243.8 336.3365,-243.8 386.7311,-243.8"/>
</g>
<!-- kpc21 -->
<g id="node30" class="node">
<title>kpc21</title>
<ellipse fill="none" stroke="#000000" cx="59.7947" cy="-319" rx="39.7935" ry="18"/>
<text text-anchor="middle" x="59.7947" y="-315.3" font-family="Times,serif" font-size="14.00" fill="#000000">kpc21</text>
</g>
<!-- kpc21&#45;&#45;Infrastruktura::Telegram#t.me/hakierspejs_spam -->
<g id="edge49" class="edge">
<title>kpc21&#45;&#45;Infrastruktura::Telegram#t.me/hakierspejs_spam</title>
<path fill="none" stroke="#2e00e4" d="M99.4719,-319C172.554,-319 321.0381,-319 321.0381,-319 321.0381,-319 321.0381,-293.2772 321.0381,-281.6215"/>
</g>
<!-- nikolaad -->
<g id="node31" class="node">
<title>nikolaad</title>
<ellipse fill="none" stroke="#000000" cx="59.7947" cy="-233" rx="50.0912" ry="18"/>
<text text-anchor="middle" x="59.7947" y="-229.3" font-family="Times,serif" font-size="14.00" fill="#000000">nikolaad</text>
</g>
<!-- nikolaad&#45;&#45;Infrastruktura::Meetup#Meetup -->
<g id="edge50" class="edge">
<title>nikolaad&#45;&#45;Infrastruktura::Meetup#Meetup</title>
<path fill="none" stroke="#ff0000" d="M108.9517,-236.6C178.4417,-236.6 297.0381,-236.6 297.0381,-236.6 297.0381,-236.6 297.0381,-436 297.0381,-436 297.0381,-436 365.0409,-436 430.9187,-436"/>
</g>
<!-- nikolaad&#45;&#45;Infrastruktura::Facebook#Konto na Fejsie -->
<g id="edge51" class="edge">
<title>nikolaad&#45;&#45;Infrastruktura::Facebook#Konto na Fejsie</title>
<path fill="none" stroke="#ff0000" d="M108.8697,-229.4C165.1932,-229.4 261.2018,-229.4 349.5572,-229.4"/>
</g>
<!-- biniu -->
<g id="node32" class="node">
<title>biniu</title>
<ellipse fill="none" stroke="#000000" cx="59.7947" cy="-448" rx="34.394" ry="18"/>
<text text-anchor="middle" x="59.7947" y="-444.3" font-family="Times,serif" font-size="14.00" fill="#000000">biniu</text>
</g>
<!-- biniu&#45;&#45;Infrastruktura::Meetup#Meetup -->
<g id="edge52" class="edge">
<title>biniu&#45;&#45;Infrastruktura::Meetup#Meetup</title>
<path fill="none" stroke="#2bd500" d="M92.5249,-454C154.0337,-454 290.4482,-454 398.8922,-454"/>
</g>
<!-- Keij0 -->
<g id="node33" class="node">
<title>Keij0</title>
<ellipse fill="none" stroke="#000000" cx="59.7947" cy="-491" rx="34.394" ry="18"/>
<text text-anchor="middle" x="59.7947" y="-487.3" font-family="Times,serif" font-size="14.00" fill="#000000">Keij0</text>
</g>
<!-- Keij0&#45;&#45;Infrastruktura::Meetup#Meetup -->
<g id="edge53" class="edge">
<title>Keij0&#45;&#45;Infrastruktura::Meetup#Meetup</title>
<path fill="none" stroke="#0061f2" d="M89.9003,-482C172.9259,-482 399.0381,-482 399.0381,-482 399.0381,-482 399.0381,-464.0516 399.0381,-454.2361"/>
</g>
<!-- Keij0&#45;&#45;Infrastruktura::VM#Hosting -->
<g id="edge54" class="edge">
<title>Keij0&#45;&#45;Infrastruktura::VM#Hosting</title>
<path fill="none" stroke="#0061f2" d="M93.2943,-486.5C157.7713,-486.5 302.464,-486.5 412.384,-486.5"/>
</g>
<!-- 51 -->
<g id="node34" class="node">
<title>51</title>
<ellipse fill="none" stroke="#000000" cx="59.7947" cy="-878" rx="27" ry="18"/>
<text text-anchor="middle" x="59.7947" y="-874.3" font-family="Times,serif" font-size="14.00" fill="#000000">51</text>
</g>
<!-- Miejsce::Miejsce#Stan obecny -->
<g id="node35" class="node">
<title>Miejsce::Miejsce#Stan obecny</title>
<ellipse fill="none" stroke="#000000" cx="552.8137" cy="-878" rx="154.0727" ry="18"/>
<text text-anchor="middle" x="552.8137" y="-874.3" font-family="Times,serif" font-size="14.00" fill="#000000">Miejsce::Miejsce#Stan obecny</text>
</g>
<!-- 51&#45;&#45;Miejsce::Miejsce#Stan obecny -->
<g id="edge55" class="edge">
<title>51&#45;&#45;Miejsce::Miejsce#Stan obecny</title>
<path fill="none" stroke="#c60077" d="M87.0038,-878C145.4948,-878 286.9654,-878 398.7637,-878"/>
</g>
<!-- nuke -->
<g id="node36" class="node">
<title>nuke</title>
<ellipse fill="none" stroke="#000000" cx="59.7947" cy="-749" rx="33.5952" ry="18"/>
<text text-anchor="middle" x="59.7947" y="-745.3" font-family="Times,serif" font-size="14.00" fill="#000000">nuke</text>
</g>
<!-- nuke&#45;&#45;Miejsce::Miejsce#Klucze do spejsu -->
<g id="edge56" class="edge">
<title>nuke&#45;&#45;Miejsce::Miejsce#Klucze do spejsu</title>
<path fill="none" stroke="#b6e400" d="M91.7632,-755C150.8694,-755 280.9693,-755 387.9453,-755"/>
</g>
<!-- kpc -->
<g id="node37" class="node">
<title>kpc</title>
<ellipse fill="none" stroke="#000000" cx="59.7947" cy="-534" rx="27.8951" ry="18"/>
<text text-anchor="middle" x="59.7947" y="-530.3" font-family="Times,serif" font-size="14.00" fill="#000000">kpc</text>
</g>
<!-- kpc&#45;&#45;Infrastruktura::VM#Hosting -->
<g id="edge57" class="edge">
<title>kpc&#45;&#45;Infrastruktura::VM#Hosting</title>
<path fill="none" stroke="#00ffff" d="M86.356,-528C92.8818,-528 98.0381,-528 98.0381,-528 98.0381,-528 98.0381,-491 98.0381,-491 98.0381,-491 274.5762,-491 407.6695,-491"/>
</g>
</g>
</svg>
