<?xml version="1.0" encoding="UTF-8" standalone="no"?>
<!DOCTYPE svg PUBLIC "-//W3C//DTD SVG 1.1//EN"
 "http://www.w3.org/Graphics/SVG/1.1/DTD/svg11.dtd">
<!-- Generated by graphviz version 2.40.1 (20161225.0304)
 -->
<!-- Title: %3 Pages: 1 -->
<svg width="850pt" height="861pt"
 viewBox="0.00 0.00 850.04 861.00" xmlns="http://www.w3.org/2000/svg" xmlns:xlink="http://www.w3.org/1999/xlink">
<g id="graph0" class="graph" transform="scale(1 1) rotate(0) translate(4 857)">
<title>%3</title>
<polygon fill="#ffffff" stroke="transparent" points="-4,4 -4,-857 846.0381,-857 846.0381,4 -4,4"/>
<!-- q3k -->
<g id="node1" class="node">
<title>q3k</title>
<ellipse fill="none" stroke="#000000" cx="59.7947" cy="-813" rx="28.6953" ry="18"/>
<text text-anchor="middle" x="59.7947" y="-809.3" font-family="Times,serif" font-size="14.00" fill="#000000">q3k</text>
</g>
<!-- Infrastruktura#Lista mailingowa -->
<g id="node2" class="node">
<title>Infrastruktura#Lista mailingowa</title>
<ellipse fill="none" stroke="#000000" cx="552.8137" cy="-835" rx="165.1707" ry="18"/>
<text text-anchor="middle" x="552.8137" y="-831.3" font-family="Times,serif" font-size="14.00" fill="#000000">Infrastruktura#Lista mailingowa</text>
</g>
<!-- q3k&#45;&#45;Infrastruktura#Lista mailingowa -->
<g id="edge1" class="edge">
<title>q3k&#45;&#45;Infrastruktura#Lista mailingowa</title>
<path fill="none" stroke="#ff0000" d="M79.1216,-826.3333C133.1542,-826.3333 289.5747,-826.3333 408.0115,-826.3333"/>
</g>
<!-- Infrastruktura#Domeny -->
<g id="node3" class="node">
<title>Infrastruktura#Domeny</title>
<ellipse fill="none" stroke="#000000" cx="552.8137" cy="-792" rx="124.2781" ry="18"/>
<text text-anchor="middle" x="552.8137" y="-788.3" font-family="Times,serif" font-size="14.00" fill="#000000">Infrastruktura#Domeny</text>
</g>
<!-- q3k&#45;&#45;Infrastruktura#Domeny -->
<g id="edge2" class="edge">
<title>q3k&#45;&#45;Infrastruktura#Domeny</title>
<path fill="none" stroke="#ff0000" d="M83.2424,-802.5C148.3541,-802.5 334.3015,-802.5 451.7265,-802.5"/>
</g>
<!-- d33tah -->
<g id="node4" class="node">
<title>d33tah</title>
<ellipse fill="none" stroke="#000000" cx="59.7947" cy="-577" rx="43.5923" ry="18"/>
<text text-anchor="middle" x="59.7947" y="-573.3" font-family="Times,serif" font-size="14.00" fill="#000000">d33tah</text>
</g>
<!-- d33tah&#45;&#45;Infrastruktura#Lista mailingowa -->
<g id="edge8" class="edge">
<title>d33tah&#45;&#45;Infrastruktura#Lista mailingowa</title>
<path fill="none" stroke="#2bd500" d="M94.65,-587.8C153.9317,-587.8 268.0381,-587.8 268.0381,-587.8 268.0381,-587.8 268.0381,-821.6667 268.0381,-821.6667 268.0381,-821.6667 361.9363,-821.6667 441.8966,-821.6667"/>
</g>
<!-- d33tah&#45;&#45;Infrastruktura#Domeny -->
<g id="edge4" class="edge">
<title>d33tah&#45;&#45;Infrastruktura#Domeny</title>
<path fill="none" stroke="#2bd500" d="M86.088,-591.4C112.4125,-591.4 149.0381,-591.4 149.0381,-591.4 149.0381,-591.4 149.0381,-781 149.0381,-781 149.0381,-781 334.7692,-781 454.2973,-781"/>
</g>
<!-- Miejsce::Miejsce#Klucze do spejsu -->
<g id="node5" class="node">
<title>Miejsce::Miejsce#Klucze do spejsu</title>
<ellipse fill="none" stroke="#000000" cx="552.8137" cy="-749" rx="174.6691" ry="18"/>
<text text-anchor="middle" x="552.8137" y="-745.3" font-family="Times,serif" font-size="14.00" fill="#000000">Miejsce::Miejsce#Klucze do spejsu</text>
</g>
<!-- d33tah&#45;&#45;Miejsce::Miejsce#Klucze do spejsu -->
<g id="edge3" class="edge">
<title>d33tah&#45;&#45;Miejsce::Miejsce#Klucze do spejsu</title>
<path fill="none" stroke="#2bd500" d="M99.716,-584.2C161.1978,-584.2 272.0381,-584.2 272.0381,-584.2 272.0381,-584.2 272.0381,-745.4 272.0381,-745.4 272.0381,-745.4 322.9398,-745.4 381.3972,-745.4"/>
</g>
<!-- Infrastruktura#Lelegram (na shitpostach) -->
<g id="node6" class="node">
<title>Infrastruktura#Lelegram (na shitpostach)</title>
<ellipse fill="none" stroke="#000000" cx="552.8137" cy="-620" rx="207.9631" ry="18"/>
<text text-anchor="middle" x="552.8137" y="-616.3" font-family="Times,serif" font-size="14.00" fill="#000000">Infrastruktura#Lelegram (na shitpostach)</text>
</g>
<!-- d33tah&#45;&#45;Infrastruktura#Lelegram (na shitpostach) -->
<g id="edge5" class="edge">
<title>d33tah&#45;&#45;Infrastruktura#Lelegram (na shitpostach)</title>
<path fill="none" stroke="#2bd500" d="M102.7488,-573.4C184.2,-573.4 353.0381,-573.4 353.0381,-573.4 353.0381,-573.4 353.0381,-602.4141 353.0381,-614.6544"/>
</g>
<!-- Infrastruktura#Github -->
<g id="node7" class="node">
<title>Infrastruktura#Github</title>
<ellipse fill="none" stroke="#000000" cx="552.8137" cy="-491" rx="117.7793" ry="18"/>
<text text-anchor="middle" x="552.8137" y="-487.3" font-family="Times,serif" font-size="14.00" fill="#000000">Infrastruktura#Github</text>
</g>
<!-- d33tah&#45;&#45;Infrastruktura#Github -->
<g id="edge6" class="edge">
<title>d33tah&#45;&#45;Infrastruktura#Github</title>
<path fill="none" stroke="#2bd500" d="M102.0381,-572.5698C102.0381,-555.4545 102.0381,-494.6 102.0381,-494.6 102.0381,-494.6 303.7547,-494.6 437.3132,-494.6"/>
</g>
<!-- Infrastruktura#Hosting -->
<g id="node8" class="node">
<title>Infrastruktura#Hosting</title>
<ellipse fill="none" stroke="#000000" cx="552.8137" cy="-534" rx="122.6784" ry="18"/>
<text text-anchor="middle" x="552.8137" y="-530.3" font-family="Times,serif" font-size="14.00" fill="#000000">Infrastruktura#Hosting</text>
</g>
<!-- d33tah&#45;&#45;Infrastruktura#Hosting -->
<g id="edge7" class="edge">
<title>d33tah&#45;&#45;Infrastruktura#Hosting</title>
<path fill="none" stroke="#2bd500" d="M103.0381,-574.8264C103.0381,-566.429 103.0381,-536.5714 103.0381,-536.5714 103.0381,-536.5714 297.895,-536.5714 431.098,-536.5714"/>
</g>
<!-- Infrastruktura#Pad -->
<g id="node9" class="node">
<title>Infrastruktura#Pad</title>
<ellipse fill="none" stroke="#000000" cx="552.8137" cy="-577" rx="102.8821" ry="18"/>
<text text-anchor="middle" x="552.8137" y="-573.3" font-family="Times,serif" font-size="14.00" fill="#000000">Infrastruktura#Pad</text>
</g>
<!-- d33tah&#45;&#45;Infrastruktura#Pad -->
<g id="edge9" class="edge">
<title>d33tah&#45;&#45;Infrastruktura#Pad</title>
<path fill="none" stroke="#2bd500" d="M99.7229,-569.8C177.206,-569.8 349.847,-569.8 458.2401,-569.8"/>
</g>
<!-- Infrastruktura#IRC -->
<g id="node10" class="node">
<title>Infrastruktura#IRC</title>
<ellipse fill="none" stroke="#000000" cx="552.8137" cy="-405" rx="103.9815" ry="18"/>
<text text-anchor="middle" x="552.8137" y="-401.3" font-family="Times,serif" font-size="14.00" fill="#000000">Infrastruktura#IRC</text>
</g>
<!-- d33tah&#45;&#45;Infrastruktura#IRC -->
<g id="edge10" class="edge">
<title>d33tah&#45;&#45;Infrastruktura#IRC</title>
<path fill="none" stroke="#2bd500" d="M96.0381,-566.6785C96.0381,-530.556 96.0381,-412 96.0381,-412 96.0381,-412 322.8029,-412 456.7802,-412"/>
</g>
<!-- Infrastruktura#Forum -->
<g id="node11" class="node">
<title>Infrastruktura#Forum</title>
<ellipse fill="none" stroke="#000000" cx="552.8137" cy="-706" rx="116.1796" ry="18"/>
<text text-anchor="middle" x="552.8137" y="-702.3" font-family="Times,serif" font-size="14.00" fill="#000000">Infrastruktura#Forum</text>
</g>
<!-- d33tah&#45;&#45;Infrastruktura#Forum -->
<g id="edge11" class="edge">
<title>d33tah&#45;&#45;Infrastruktura#Forum</title>
<path fill="none" stroke="#2bd500" d="M102.5621,-580.6C169.1468,-580.6 290.0381,-580.6 290.0381,-580.6 290.0381,-580.6 290.0381,-706 290.0381,-706 290.0381,-706 366.1212,-706 436.4089,-706"/>
</g>
<!-- Infrastruktura#t.me/hakierspejs -->
<g id="node12" class="node">
<title>Infrastruktura#t.me/hakierspejs</title>
<ellipse fill="none" stroke="#000000" cx="552.8137" cy="-362" rx="163.2712" ry="18"/>
<text text-anchor="middle" x="552.8137" y="-358.3" font-family="Times,serif" font-size="14.00" fill="#000000">Infrastruktura#t.me/hakierspejs</text>
</g>
<!-- d33tah&#45;&#45;Infrastruktura#t.me/hakierspejs -->
<g id="edge12" class="edge">
<title>d33tah&#45;&#45;Infrastruktura#t.me/hakierspejs</title>
<path fill="none" stroke="#2bd500" d="M94.6578,-566.2C183.2478,-566.2 410.0381,-566.2 410.0381,-566.2 410.0381,-566.2 410.0381,-409.8594 410.0381,-370.7742"/>
</g>
<!-- Infrastruktura#t.me/hakierspejs_spam -->
<g id="node13" class="node">
<title>Infrastruktura#t.me/hakierspejs_spam</title>
<ellipse fill="none" stroke="#000000" cx="552.8137" cy="-190" rx="193.0657" ry="18"/>
<text text-anchor="middle" x="552.8137" y="-186.3" font-family="Times,serif" font-size="14.00" fill="#000000">Infrastruktura#t.me/hakierspejs_spam</text>
</g>
<!-- d33tah&#45;&#45;Infrastruktura#t.me/hakierspejs_spam -->
<g id="edge13" class="edge">
<title>d33tah&#45;&#45;Infrastruktura#t.me/hakierspejs_spam</title>
<path fill="none" stroke="#2bd500" d="M85.9732,-562.6C162.9264,-562.6 383.0381,-562.6 383.0381,-562.6 383.0381,-562.6 383.0381,-255.2673 383.0381,-198.8429"/>
</g>
<!-- Infrastruktura#Meetup -->
<g id="node14" class="node">
<title>Infrastruktura#Meetup</title>
<ellipse fill="none" stroke="#000000" cx="552.8137" cy="-448" rx="121.5784" ry="18"/>
<text text-anchor="middle" x="552.8137" y="-444.3" font-family="Times,serif" font-size="14.00" fill="#000000">Infrastruktura#Meetup</text>
</g>
<!-- d33tah&#45;&#45;Infrastruktura#Meetup -->
<g id="edge14" class="edge">
<title>d33tah&#45;&#45;Infrastruktura#Meetup</title>
<path fill="none" stroke="#2bd500" d="M100.0381,-570.0315C100.0381,-544.8436 100.0381,-460 100.0381,-460 100.0381,-460 329.8295,-460 462.0044,-460"/>
</g>
<!-- Infrastruktura#Grafana -->
<g id="node15" class="node">
<title>Infrastruktura#Grafana</title>
<ellipse fill="none" stroke="#000000" cx="552.8137" cy="-663" rx="122.6784" ry="18"/>
<text text-anchor="middle" x="552.8137" y="-659.3" font-family="Times,serif" font-size="14.00" fill="#000000">Infrastruktura#Grafana</text>
</g>
<!-- d33tah&#45;&#45;Infrastruktura#Grafana -->
<g id="edge15" class="edge">
<title>d33tah&#45;&#45;Infrastruktura#Grafana</title>
<path fill="none" stroke="#2bd500" d="M103.4948,-577C174.9767,-577 309.0381,-577 309.0381,-577 309.0381,-577 309.0381,-657 309.0381,-657 309.0381,-657 374.0962,-657 436.9942,-657"/>
</g>
<!-- cytP450 -->
<g id="node16" class="node">
<title>cytP450</title>
<ellipse fill="none" stroke="#000000" cx="59.7947" cy="-706" rx="49.2915" ry="18"/>
<text text-anchor="middle" x="59.7947" y="-702.3" font-family="Times,serif" font-size="14.00" fill="#000000">cytP450</text>
</g>
<!-- cytP450&#45;&#45;Infrastruktura#Domeny -->
<g id="edge17" class="edge">
<title>cytP450&#45;&#45;Infrastruktura#Domeny</title>
<path fill="none" stroke="#0061f2" d="M99.0381,-717.0589C99.0381,-739.4414 99.0381,-788 99.0381,-788 99.0381,-788 297.089,-788 431.5083,-788"/>
</g>
<!-- cytP450&#45;&#45;Miejsce::Miejsce#Klucze do spejsu -->
<g id="edge16" class="edge">
<title>cytP450&#45;&#45;Miejsce::Miejsce#Klucze do spejsu</title>
<path fill="none" stroke="#0061f2" d="M104.0381,-714.1171C104.0381,-727.4683 104.0381,-752.6 104.0381,-752.6 104.0381,-752.6 254.5388,-752.6 381.2299,-752.6"/>
</g>
<!-- cytP450&#45;&#45;Infrastruktura#Hosting -->
<g id="edge19" class="edge">
<title>cytP450&#45;&#45;Infrastruktura#Hosting</title>
<path fill="none" stroke="#0061f2" d="M106.3795,-700C180.51,-700 317.0381,-700 317.0381,-700 317.0381,-700 317.0381,-546.8571 317.0381,-546.8571 317.0381,-546.8571 399.34,-546.8571 466.6925,-546.8571"/>
</g>
<!-- cytP450&#45;&#45;Infrastruktura#Forum -->
<g id="edge18" class="edge">
<title>cytP450&#45;&#45;Infrastruktura#Forum</title>
<path fill="none" stroke="#0061f2" d="M96.8513,-718C174.6704,-718 356.8946,-718 465.9548,-718"/>
</g>
<!-- Martti25 -->
<g id="node17" class="node">
<title>Martti25</title>
<ellipse fill="none" stroke="#000000" cx="59.7947" cy="-383" rx="51.9908" ry="18"/>
<text text-anchor="middle" x="59.7947" y="-379.3" font-family="Times,serif" font-size="14.00" fill="#000000">Martti25</text>
</g>
<!-- Martti25&#45;&#45;Infrastruktura#Github -->
<g id="edge23" class="edge">
<title>Martti25&#45;&#45;Infrastruktura#Github</title>
<path fill="none" stroke="#c60077" d="M98.0381,-395.3104C98.0381,-421.4656 98.0381,-480.2 98.0381,-480.2 98.0381,-480.2 325.3773,-480.2 458.5839,-480.2"/>
</g>
<!-- Martti25&#45;&#45;Infrastruktura#t.me/hakierspejs -->
<g id="edge20" class="edge">
<title>Martti25&#45;&#45;Infrastruktura#t.me/hakierspejs</title>
<path fill="none" stroke="#c60077" d="M106.6212,-375C182.5158,-375 334.4971,-375 439.8559,-375"/>
</g>
<!-- Martti25&#45;&#45;Infrastruktura#Meetup -->
<g id="edge21" class="edge">
<title>Martti25&#45;&#45;Infrastruktura#Meetup</title>
<path fill="none" stroke="#c60077" d="M94.9778,-396.3333C189.3579,-396.3333 441.0381,-396.3333 441.0381,-396.3333 441.0381,-396.3333 441.0381,-426.6194 441.0381,-440.816"/>
</g>
<!-- Infrastruktura#Konto na Fejsie -->
<g id="node18" class="node">
<title>Infrastruktura#Konto na Fejsie</title>
<ellipse fill="none" stroke="#000000" cx="552.8137" cy="-319" rx="157.0724" ry="18"/>
<text text-anchor="middle" x="552.8137" y="-315.3" font-family="Times,serif" font-size="14.00" fill="#000000">Infrastruktura#Konto na Fejsie</text>
</g>
<!-- Martti25&#45;&#45;Infrastruktura#Konto na Fejsie -->
<g id="edge22" class="edge">
<title>Martti25&#45;&#45;Infrastruktura#Konto na Fejsie</title>
<path fill="none" stroke="#c60077" d="M96.1052,-370C147.4351,-370 235.0381,-370 235.0381,-370 235.0381,-370 235.0381,-329.8 235.0381,-329.8 235.0381,-329.8 338.0429,-329.8 426.764,-329.8"/>
</g>
<!-- biniu -->
<g id="node19" class="node">
<title>biniu</title>
<ellipse fill="none" stroke="#000000" cx="59.7947" cy="-448" rx="34.394" ry="18"/>
<text text-anchor="middle" x="59.7947" y="-444.3" font-family="Times,serif" font-size="14.00" fill="#000000">biniu</text>
</g>
<!-- biniu&#45;&#45;Infrastruktura#Meetup -->
<g id="edge24" class="edge">
<title>biniu&#45;&#45;Infrastruktura#Meetup</title>
<path fill="none" stroke="#b6e400" d="M94.4628,-448C163.2862,-448 320.0856,-448 431.0674,-448"/>
</g>
<!-- kszmigiel -->
<g id="node20" class="node">
<title>kszmigiel</title>
<ellipse fill="none" stroke="#000000" cx="59.7947" cy="-276" rx="55.4913" ry="18"/>
<text text-anchor="middle" x="59.7947" y="-272.3" font-family="Times,serif" font-size="14.00" fill="#000000">kszmigiel</text>
</g>
<!-- kszmigiel&#45;&#45;Miejsce::Miejsce#Klucze do spejsu -->
<g id="edge25" class="edge">
<title>kszmigiel&#45;&#45;Miejsce::Miejsce#Klucze do spejsu</title>
<path fill="none" stroke="#00ffff" d="M111.8991,-282C175.601,-282 275.0381,-282 275.0381,-282 275.0381,-282 275.0381,-738.2 275.0381,-738.2 275.0381,-738.2 343.6706,-738.2 412.7052,-738.2"/>
</g>
<!-- kszmigiel&#45;&#45;Infrastruktura#t.me/hakierspejs -->
<g id="edge28" class="edge">
<title>kszmigiel&#45;&#45;Infrastruktura#t.me/hakierspejs</title>
<path fill="none" stroke="#00ffff" d="M101.1505,-288C135.2485,-288 178.0381,-288 178.0381,-288 178.0381,-288 178.0381,-358 178.0381,-358 178.0381,-358 291.5285,-358 393.6034,-358"/>
</g>
<!-- kszmigiel&#45;&#45;Infrastruktura#t.me/hakierspejs_spam -->
<g id="edge29" class="edge">
<title>kszmigiel&#45;&#45;Infrastruktura#t.me/hakierspejs_spam</title>
<path fill="none" stroke="#00ffff" d="M101.0073,-264C186.4577,-264 375.0381,-264 375.0381,-264 375.0381,-264 375.0381,-215.617 375.0381,-197.0954"/>
</g>
<!-- kszmigiel&#45;&#45;Infrastruktura#Meetup -->
<g id="edge30" class="edge">
<title>kszmigiel&#45;&#45;Infrastruktura#Meetup</title>
<path fill="none" stroke="#00ffff" d="M115.2653,-276C181.3817,-276 283.0381,-276 283.0381,-276 283.0381,-276 283.0381,-436 283.0381,-436 283.0381,-436 383.5373,-436 461.8561,-436"/>
</g>
<!-- Finanse#Naklejki -->
<g id="node21" class="node">
<title>Finanse#Naklejki</title>
<ellipse fill="none" stroke="#000000" cx="552.8137" cy="-276" rx="94.7833" ry="18"/>
<text text-anchor="middle" x="552.8137" y="-272.3" font-family="Times,serif" font-size="14.00" fill="#000000">Finanse#Naklejki</text>
</g>
<!-- kszmigiel&#45;&#45;Finanse#Naklejki -->
<g id="edge26" class="edge">
<title>kszmigiel&#45;&#45;Finanse#Naklejki</title>
<path fill="none" stroke="#00ffff" d="M112.0896,-270C195.7292,-270 360.6043,-270 463.2744,-270"/>
</g>
<!-- Infrastruktura#Naklejki -->
<g id="node22" class="node">
<title>Infrastruktura#Naklejki</title>
<ellipse fill="none" stroke="#000000" cx="552.8137" cy="-233" rx="125.3778" ry="18"/>
<text text-anchor="middle" x="552.8137" y="-229.3" font-family="Times,serif" font-size="14.00" fill="#000000">Infrastruktura#Naklejki</text>
</g>
<!-- kszmigiel&#45;&#45;Infrastruktura#Naklejki -->
<g id="edge27" class="edge">
<title>kszmigiel&#45;&#45;Infrastruktura#Naklejki</title>
<path fill="none" stroke="#00ffff" d="M108.0381,-267.0433C108.0381,-256.0931 108.0381,-239 108.0381,-239 108.0381,-239 302.7353,-239 434.4981,-239"/>
</g>
<!-- nikolaad -->
<g id="node23" class="node">
<title>nikolaad</title>
<ellipse fill="none" stroke="#000000" cx="59.7947" cy="-319" rx="50.0912" ry="18"/>
<text text-anchor="middle" x="59.7947" y="-315.3" font-family="Times,serif" font-size="14.00" fill="#000000">nikolaad</text>
</g>
<!-- nikolaad&#45;&#45;Infrastruktura#Meetup -->
<g id="edge31" class="edge">
<title>nikolaad&#45;&#45;Infrastruktura#Meetup</title>
<path fill="none" stroke="#ab00d5" d="M108.9972,-322.6C173.6374,-322.6 279.0381,-322.6 279.0381,-322.6 279.0381,-322.6 279.0381,-442 279.0381,-442 279.0381,-442 362.9765,-442 437.8982,-442"/>
</g>
<!-- nikolaad&#45;&#45;Infrastruktura#Konto na Fejsie -->
<g id="edge32" class="edge">
<title>nikolaad&#45;&#45;Infrastruktura#Konto na Fejsie</title>
<path fill="none" stroke="#ab00d5" d="M108.8697,-315.4C175.849,-315.4 298.9498,-315.4 398.5626,-315.4"/>
</g>
<!-- Keij0 -->
<g id="node24" class="node">
<title>Keij0</title>
<ellipse fill="none" stroke="#000000" cx="59.7947" cy="-491" rx="34.394" ry="18"/>
<text text-anchor="middle" x="59.7947" y="-487.3" font-family="Times,serif" font-size="14.00" fill="#000000">Keij0</text>
</g>
<!-- Keij0&#45;&#45;Infrastruktura#Hosting -->
<g id="edge34" class="edge">
<title>Keij0&#45;&#45;Infrastruktura#Hosting</title>
<path fill="none" stroke="#f29100" d="M87.64,-501.8C93.0282,-501.8 97.0381,-501.8 97.0381,-501.8 97.0381,-501.8 97.0381,-526.2857 97.0381,-526.2857 97.0381,-526.2857 306.6885,-526.2857 441.61,-526.2857"/>
</g>
<!-- Keij0&#45;&#45;Infrastruktura#Meetup -->
<g id="edge33" class="edge">
<title>Keij0&#45;&#45;Infrastruktura#Meetup</title>
<path fill="none" stroke="#f29100" d="M93.5814,-487.4C96.8824,-487.4 99.0381,-487.4 99.0381,-487.4 99.0381,-487.4 99.0381,-454 99.0381,-454 99.0381,-454 303.582,-454 438.0138,-454"/>
</g>
<!-- BluRaf -->
<g id="node25" class="node">
<title>BluRaf</title>
<ellipse fill="none" stroke="#000000" cx="59.7947" cy="-147" rx="42.4939" ry="18"/>
<text text-anchor="middle" x="59.7947" y="-143.3" font-family="Times,serif" font-size="14.00" fill="#000000">BluRaf</text>
</g>
<!-- BluRaf&#45;&#45;Infrastruktura#IRC -->
<g id="edge38" class="edge">
<title>BluRaf&#45;&#45;Infrastruktura#IRC</title>
<path fill="none" stroke="#00c64f" d="M100.888,-151.5C170.0011,-151.5 302.0381,-151.5 302.0381,-151.5 302.0381,-151.5 302.0381,-391.6667 302.0381,-391.6667 302.0381,-391.6667 408.437,-391.6667 482.6253,-391.6667"/>
</g>
<!-- BluRaf&#45;&#45;Infrastruktura#t.me/hakierspejs -->
<g id="edge39" class="edge">
<title>BluRaf&#45;&#45;Infrastruktura#t.me/hakierspejs</title>
<path fill="none" stroke="#00c64f" d="M96.6981,-156C140.0215,-156 206.0381,-156 206.0381,-156 206.0381,-156 206.0381,-351 206.0381,-351 206.0381,-351 324.6975,-351 423.1941,-351"/>
</g>
<!-- BluRaf&#45;&#45;Infrastruktura#t.me/hakierspejs_spam -->
<g id="edge40" class="edge">
<title>BluRaf&#45;&#45;Infrastruktura#t.me/hakierspejs_spam</title>
<path fill="none" stroke="#00c64f" d="M100.7928,-142.5C175.0138,-142.5 324.0381,-142.5 324.0381,-142.5 324.0381,-142.5 324.0381,-181 324.0381,-181 324.0381,-181 350.4602,-181 385.3457,-181"/>
</g>
<!-- BluRaf&#45;&#45;Infrastruktura#Konto na Fejsie -->
<g id="edge35" class="edge">
<title>BluRaf&#45;&#45;Infrastruktura#Konto na Fejsie</title>
<path fill="none" stroke="#00c64f" d="M102.2329,-147C172.4247,-147 305.0381,-147 305.0381,-147 305.0381,-147 305.0381,-308.2 305.0381,-308.2 305.0381,-308.2 365.5387,-308.2 426.7483,-308.2"/>
</g>
<!-- Infrastruktura#hs&#45;ldz:hackerspace.pl -->
<g id="node26" class="node">
<title>Infrastruktura#hs&#45;ldz:hackerspace.pl</title>
<ellipse fill="none" stroke="#000000" cx="552.8137" cy="-61" rx="186.5669" ry="18"/>
<text text-anchor="middle" x="552.8137" y="-57.3" font-family="Times,serif" font-size="14.00" fill="#000000">Infrastruktura#hs&#45;ldz:hackerspace.pl</text>
</g>
<!-- BluRaf&#45;&#45;Infrastruktura#hs&#45;ldz:hackerspace.pl -->
<g id="edge36" class="edge">
<title>BluRaf&#45;&#45;Infrastruktura#hs&#45;ldz:hackerspace.pl</title>
<path fill="none" stroke="#00c64f" d="M87.8543,-133.5C99.3632,-133.5 110.0381,-133.5 110.0381,-133.5 110.0381,-133.5 110.0381,-67 110.0381,-67 110.0381,-67 253.3148,-67 376.863,-67"/>
</g>
<!-- Infrastruktura#Mumble -->
<g id="node27" class="node">
<title>Infrastruktura#Mumble</title>
<ellipse fill="none" stroke="#000000" cx="552.8137" cy="-104" rx="124.2781" ry="18"/>
<text text-anchor="middle" x="552.8137" y="-100.3" font-family="Times,serif" font-size="14.00" fill="#000000">Infrastruktura#Mumble</text>
</g>
<!-- BluRaf&#45;&#45;Infrastruktura#Mumble -->
<g id="edge37" class="edge">
<title>BluRaf&#45;&#45;Infrastruktura#Mumble</title>
<path fill="none" stroke="#00c64f" d="M60.0381,-128.5146C60.0381,-116.8601 60.0381,-104 60.0381,-104 60.0381,-104 282.4849,-104 428.4656,-104"/>
</g>
<!-- Infrastruktura#hs&#45;ldz&#45;offtopic:hackerspace.pl -->
<g id="node28" class="node">
<title>Infrastruktura#hs&#45;ldz&#45;offtopic:hackerspace.pl</title>
<ellipse fill="none" stroke="#000000" cx="552.8137" cy="-147" rx="225.56" ry="18"/>
<text text-anchor="middle" x="552.8137" y="-143.3" font-family="Times,serif" font-size="14.00" fill="#000000">Infrastruktura#hs&#45;ldz&#45;offtopic:hackerspace.pl</text>
</g>
<!-- BluRaf&#45;&#45;Infrastruktura#hs&#45;ldz&#45;offtopic:hackerspace.pl -->
<g id="edge41" class="edge">
<title>BluRaf&#45;&#45;Infrastruktura#hs&#45;ldz&#45;offtopic:hackerspace.pl</title>
<path fill="none" stroke="#00c64f" d="M96.4485,-138C151.6808,-138 260.1554,-138 357.4914,-138"/>
</g>
<!-- kpc21 -->
<g id="node29" class="node">
<title>kpc21</title>
<ellipse fill="none" stroke="#000000" cx="59.7947" cy="-233" rx="39.7935" ry="18"/>
<text text-anchor="middle" x="59.7947" y="-229.3" font-family="Times,serif" font-size="14.00" fill="#000000">kpc21</text>
</g>
<!-- kpc21&#45;&#45;Infrastruktura#t.me/hakierspejs_spam -->
<g id="edge42" class="edge">
<title>kpc21&#45;&#45;Infrastruktura#t.me/hakierspejs_spam</title>
<path fill="none" stroke="#2e00e4" d="M97.2832,-227C179.4306,-227 368.0381,-227 368.0381,-227 368.0381,-227 368.0381,-205.7516 368.0381,-195.4595"/>
</g>
<!-- ksiezak -->
<g id="node30" class="node">
<title>ksiezak</title>
<ellipse fill="none" stroke="#000000" cx="59.7947" cy="-61" rx="46.2923" ry="18"/>
<text text-anchor="middle" x="59.7947" y="-57.3" font-family="Times,serif" font-size="14.00" fill="#000000">ksiezak</text>
</g>
<!-- ksiezak&#45;&#45;Infrastruktura#hs&#45;ldz:hackerspace.pl -->
<g id="edge45" class="edge">
<title>ksiezak&#45;&#45;Infrastruktura#hs&#45;ldz:hackerspace.pl</title>
<path fill="none" stroke="#ff0000" d="M103.5468,-55C164.584,-55 278.8333,-55 376.8399,-55"/>
</g>
<!-- ksiezak&#45;&#45;Infrastruktura#hs&#45;ldz&#45;offtopic:hackerspace.pl -->
<g id="edge44" class="edge">
<title>ksiezak&#45;&#45;Infrastruktura#hs&#45;ldz&#45;offtopic:hackerspace.pl</title>
<path fill="none" stroke="#ff0000" d="M105.9453,-61C187.1424,-61 347.0381,-61 347.0381,-61 347.0381,-61 347.0381,-118.3206 347.0381,-139.3681"/>
</g>
<!-- Współdzielony&#45;kalendarz&#45;i&#45;lista&#45;kontaktów#Założenie konta -->
<g id="node31" class="node">
<title>Współdzielony&#45;kalendarz&#45;i&#45;lista&#45;kontaktów#Założenie konta</title>
<ellipse fill="none" stroke="#000000" cx="552.8137" cy="-18" rx="289.4488" ry="18"/>
<text text-anchor="middle" x="552.8137" y="-14.3" font-family="Times,serif" font-size="14.00" fill="#000000">Współdzielony&#45;kalendarz&#45;i&#45;lista&#45;kontaktów#Założenie konta</text>
</g>
<!-- ksiezak&#45;&#45;Współdzielony&#45;kalendarz&#45;i&#45;lista&#45;kontaktów#Założenie konta -->
<g id="edge43" class="edge">
<title>ksiezak&#45;&#45;Współdzielony&#45;kalendarz&#45;i&#45;lista&#45;kontaktów#Założenie konta</title>
<path fill="none" stroke="#ff0000" d="M94.353,-49C165.1443,-49 320.0381,-49 320.0381,-49 320.0381,-49 320.0381,-37.7818 320.0381,-28.8423"/>
</g>
<!-- thinkofher -->
<g id="node32" class="node">
<title>thinkofher</title>
<ellipse fill="none" stroke="#000000" cx="59.7947" cy="-190" rx="59.5901" ry="18"/>
<text text-anchor="middle" x="59.7947" y="-186.3" font-family="Times,serif" font-size="14.00" fill="#000000">thinkofher</text>
</g>
<!-- thinkofher&#45;&#45;Infrastruktura#Hosting -->
<g id="edge49" class="edge">
<title>thinkofher&#45;&#45;Infrastruktura#Hosting</title>
<path fill="none" stroke="#2bd500" d="M119.606,-190C190.1783,-190 298.0381,-190 298.0381,-190 298.0381,-190 298.0381,-521.1429 298.0381,-521.1429 298.0381,-521.1429 392.6459,-521.1429 466.5583,-521.1429"/>
</g>
<!-- thinkofher&#45;&#45;Infrastruktura#Forum -->
<g id="edge48" class="edge">
<title>thinkofher&#45;&#45;Infrastruktura#Forum</title>
<path fill="none" stroke="#2bd500" d="M111.7809,-199C180.7909,-199 294.0381,-199 294.0381,-199 294.0381,-199 294.0381,-694 294.0381,-694 294.0381,-694 390.7482,-694 465.9253,-694"/>
</g>
<!-- thinkofher&#45;&#45;Infrastruktura#hs&#45;ldz:hackerspace.pl -->
<g id="edge47" class="edge">
<title>thinkofher&#45;&#45;Infrastruktura#hs&#45;ldz:hackerspace.pl</title>
<path fill="none" stroke="#2bd500" d="M113.0381,-181.5856C113.0381,-154.7586 113.0381,-73 113.0381,-73 113.0381,-73 284.8254,-73 413.666,-73"/>
</g>
<!-- thinkofher&#45;&#45;Infrastruktura#hs&#45;ldz&#45;offtopic:hackerspace.pl -->
<g id="edge46" class="edge">
<title>thinkofher&#45;&#45;Infrastruktura#hs&#45;ldz&#45;offtopic:hackerspace.pl</title>
<path fill="none" stroke="#2bd500" d="M117.0381,-184.5892C117.0381,-176.0728 117.0381,-160.5 117.0381,-160.5 117.0381,-160.5 277.3059,-160.5 403.4541,-160.5"/>
</g>
<!-- kpc -->
<g id="node33" class="node">
<title>kpc</title>
<ellipse fill="none" stroke="#000000" cx="59.7947" cy="-534" rx="27.8951" ry="18"/>
<text text-anchor="middle" x="59.7947" y="-530.3" font-family="Times,serif" font-size="14.00" fill="#000000">kpc</text>
</g>
<!-- kpc&#45;&#45;Infrastruktura#Hosting -->
<g id="edge50" class="edge">
<title>kpc&#45;&#45;Infrastruktura#Hosting</title>
<path fill="none" stroke="#0061f2" d="M87.7141,-531.4286C152.4911,-531.4286 316.2186,-531.4286 430.9933,-531.4286"/>
</g>
<!-- pmysl -->
<g id="node34" class="node">
<title>pmysl</title>
<ellipse fill="none" stroke="#000000" cx="59.7947" cy="-663" rx="38.1938" ry="18"/>
<text text-anchor="middle" x="59.7947" y="-659.3" font-family="Times,serif" font-size="14.00" fill="#000000">pmysl</text>
</g>
<!-- pmysl&#45;&#45;Miejsce::Miejsce#Klucze do spejsu -->
<g id="edge51" class="edge">
<title>pmysl&#45;&#45;Miejsce::Miejsce#Klucze do spejsu</title>
<path fill="none" stroke="#c60077" d="M95.9841,-669C184.3673,-669 404.0381,-669 404.0381,-669 404.0381,-669 404.0381,-718.3176 404.0381,-739.5088"/>
</g>
<!-- pmysl&#45;&#45;Infrastruktura#Hosting -->
<g id="edge54" class="edge">
<title>pmysl&#45;&#45;Infrastruktura#Hosting</title>
<path fill="none" stroke="#c60077" d="M88.8449,-651C155.3638,-651 313.0381,-651 313.0381,-651 313.0381,-651 313.0381,-541.7143 313.0381,-541.7143 313.0381,-541.7143 378.9788,-541.7143 441.6998,-541.7143"/>
</g>
<!-- pmysl&#45;&#45;Infrastruktura#Forum -->
<g id="edge52" class="edge">
<title>pmysl&#45;&#45;Infrastruktura#Forum</title>
<path fill="none" stroke="#c60077" d="M88.5752,-675C149.7232,-675 287.0381,-675 287.0381,-675 287.0381,-675 287.0381,-712 287.0381,-712 287.0381,-712 369.6775,-712 442.7941,-712"/>
</g>
<!-- pmysl&#45;&#45;Infrastruktura#Grafana -->
<g id="edge53" class="edge">
<title>pmysl&#45;&#45;Infrastruktura#Grafana</title>
<path fill="none" stroke="#c60077" d="M98.4811,-663C168.965,-663 321.0522,-663 429.8446,-663"/>
</g>
<!-- nuke -->
<g id="node35" class="node">
<title>nuke</title>
<ellipse fill="none" stroke="#000000" cx="59.7947" cy="-749" rx="33.5952" ry="18"/>
<text text-anchor="middle" x="59.7947" y="-745.3" font-family="Times,serif" font-size="14.00" fill="#000000">nuke</text>
</g>
<!-- nuke&#45;&#45;Miejsce::Miejsce#Klucze do spejsu -->
<g id="edge55" class="edge">
<title>nuke&#45;&#45;Miejsce::Miejsce#Klucze do spejsu</title>
<path fill="none" stroke="#b6e400" d="M87.0038,-759.8C147.9677,-759.8 299.0758,-759.8 412.7758,-759.8"/>
</g>
</g>
</svg>
