<?xml version="1.0" encoding="UTF-8" standalone="no"?>
<!DOCTYPE svg PUBLIC "-//W3C//DTD SVG 1.1//EN"
 "http://www.w3.org/Graphics/SVG/1.1/DTD/svg11.dtd">
<!-- Generated by graphviz version 2.40.1 (20161225.0304)
 -->
<!-- Title: %3 Pages: 1 -->
<svg width="723pt" height="775pt"
 viewBox="0.00 0.00 722.65 775.00" xmlns="http://www.w3.org/2000/svg" xmlns:xlink="http://www.w3.org/1999/xlink">
<g id="graph0" class="graph" transform="scale(1 1) rotate(0) translate(4 771)">
<title>%3</title>
<polygon fill="#ffffff" stroke="transparent" points="-4,4 -4,-771 718.6494,-771 718.6494,4 -4,4"/>
<!-- q3k -->
<g id="node1" class="node">
<title>q3k</title>
<ellipse fill="none" stroke="#000000" cx="59.7947" cy="-706" rx="28.6953" ry="18"/>
<text text-anchor="middle" x="59.7947" y="-702.3" font-family="Times,serif" font-size="14.00" fill="#000000">q3k</text>
</g>
<!-- Infrastruktura#Domeny -->
<g id="node2" class="node">
<title>Infrastruktura#Domeny</title>
<ellipse fill="none" stroke="#000000" cx="489.1194" cy="-749" rx="124.2781" ry="18"/>
<text text-anchor="middle" x="489.1194" y="-745.3" font-family="Times,serif" font-size="14.00" fill="#000000">Infrastruktura#Domeny</text>
</g>
<!-- q3k&#45;&#45;Infrastruktura#Domeny -->
<g id="edge1" class="edge">
<title>q3k&#45;&#45;Infrastruktura#Domeny</title>
<path fill="none" stroke="#ff0000" d="M60.6494,-724.1871C60.6494,-739.1824 60.6494,-758 60.6494,-758 60.6494,-758 254.6303,-758 381.5514,-758"/>
</g>
<!-- Infrastruktura#Lista mailingowa -->
<g id="node3" class="node">
<title>Infrastruktura#Lista mailingowa</title>
<ellipse fill="none" stroke="#000000" cx="489.1194" cy="-706" rx="165.1707" ry="18"/>
<text text-anchor="middle" x="489.1194" y="-702.3" font-family="Times,serif" font-size="14.00" fill="#000000">Infrastruktura#Lista mailingowa</text>
</g>
<!-- q3k&#45;&#45;Infrastruktura#Lista mailingowa -->
<g id="edge2" class="edge">
<title>q3k&#45;&#45;Infrastruktura#Lista mailingowa</title>
<path fill="none" stroke="#ff0000" d="M86.9766,-712C135.9148,-712 242.2345,-712 333.2654,-712"/>
</g>
<!-- d33tah -->
<g id="node4" class="node">
<title>d33tah</title>
<ellipse fill="none" stroke="#000000" cx="59.7947" cy="-534" rx="43.5923" ry="18"/>
<text text-anchor="middle" x="59.7947" y="-530.3" font-family="Times,serif" font-size="14.00" fill="#000000">d33tah</text>
</g>
<!-- d33tah&#45;&#45;Infrastruktura#Domeny -->
<g id="edge7" class="edge">
<title>d33tah&#45;&#45;Infrastruktura#Domeny</title>
<path fill="none" stroke="#2bd500" d="M84.926,-548.7273C105.6468,-548.7273 131.6494,-548.7273 131.6494,-548.7273 131.6494,-548.7273 131.6494,-740 131.6494,-740 131.6494,-740 276.1274,-740 381.3818,-740"/>
</g>
<!-- d33tah&#45;&#45;Infrastruktura#Lista mailingowa -->
<g id="edge13" class="edge">
<title>d33tah&#45;&#45;Infrastruktura#Lista mailingowa</title>
<path fill="none" stroke="#2bd500" d="M93.4949,-545.4545C116.4336,-545.4545 142.6494,-545.4545 142.6494,-545.4545 142.6494,-545.4545 142.6494,-700 142.6494,-700 142.6494,-700 241.3332,-700 333.3675,-700"/>
</g>
<!-- Infrastruktura#t.me/hakierspejs -->
<g id="node5" class="node">
<title>Infrastruktura#t.me/hakierspejs</title>
<ellipse fill="none" stroke="#000000" cx="489.1194" cy="-319" rx="163.2712" ry="18"/>
<text text-anchor="middle" x="489.1194" y="-315.3" font-family="Times,serif" font-size="14.00" fill="#000000">Infrastruktura#t.me/hakierspejs</text>
</g>
<!-- d33tah&#45;&#45;Infrastruktura#t.me/hakierspejs -->
<g id="edge3" class="edge">
<title>d33tah&#45;&#45;Infrastruktura#t.me/hakierspejs</title>
<path fill="none" stroke="#2bd500" d="M103.1731,-532.3636C184.4748,-532.3636 351.6494,-532.3636 351.6494,-532.3636 351.6494,-532.3636 351.6494,-370.4624 351.6494,-328.7222"/>
</g>
<!-- Infrastruktura#IRC -->
<g id="node6" class="node">
<title>Infrastruktura#IRC</title>
<ellipse fill="none" stroke="#000000" cx="489.1194" cy="-276" rx="103.9815" ry="18"/>
<text text-anchor="middle" x="489.1194" y="-272.3" font-family="Times,serif" font-size="14.00" fill="#000000">Infrastruktura#IRC</text>
</g>
<!-- d33tah&#45;&#45;Infrastruktura#IRC -->
<g id="edge4" class="edge">
<title>d33tah&#45;&#45;Infrastruktura#IRC</title>
<path fill="none" stroke="#2bd500" d="M84.8571,-519.2727C121.8264,-519.2727 186.6494,-519.2727 186.6494,-519.2727 186.6494,-519.2727 186.6494,-282 186.6494,-282 186.6494,-282 302.5967,-282 390.916,-282"/>
</g>
<!-- Miejsce&#45;:&#45;MIEJSCE#Klucze do spejsu -->
<g id="node7" class="node">
<title>Miejsce&#45;:&#45;MIEJSCE#Klucze do spejsu</title>
<ellipse fill="none" stroke="#000000" cx="489.1194" cy="-620" rx="185.7671" ry="18"/>
<text text-anchor="middle" x="489.1194" y="-616.3" font-family="Times,serif" font-size="14.00" fill="#000000">Miejsce&#45;:&#45;MIEJSCE#Klucze do spejsu</text>
</g>
<!-- d33tah&#45;&#45;Miejsce&#45;:&#45;MIEJSCE#Klucze do spejsu -->
<g id="edge5" class="edge">
<title>d33tah&#45;&#45;Miejsce&#45;:&#45;MIEJSCE#Klucze do spejsu</title>
<path fill="none" stroke="#2bd500" d="M101.9603,-538.9091C175.3098,-538.9091 318.6494,-538.9091 318.6494,-538.9091 318.6494,-538.9091 318.6494,-592.9577 318.6494,-612.8037"/>
</g>
<!-- Infrastruktura#t.me/hakierspejs_spam -->
<g id="node8" class="node">
<title>Infrastruktura#t.me/hakierspejs_spam</title>
<ellipse fill="none" stroke="#000000" cx="489.1194" cy="-233" rx="193.0657" ry="18"/>
<text text-anchor="middle" x="489.1194" y="-229.3" font-family="Times,serif" font-size="14.00" fill="#000000">Infrastruktura#t.me/hakierspejs_spam</text>
</g>
<!-- d33tah&#45;&#45;Infrastruktura#t.me/hakierspejs_spam -->
<g id="edge6" class="edge">
<title>d33tah&#45;&#45;Infrastruktura#t.me/hakierspejs_spam</title>
<path fill="none" stroke="#2bd500" d="M101.9495,-529.0909C173.6464,-529.0909 311.6494,-529.0909 311.6494,-529.0909 311.6494,-529.0909 311.6494,-285.9147 311.6494,-240.3191"/>
</g>
<!-- Infrastruktura#Forum -->
<g id="node9" class="node">
<title>Infrastruktura#Forum</title>
<ellipse fill="none" stroke="#000000" cx="489.1194" cy="-663" rx="116.1796" ry="18"/>
<text text-anchor="middle" x="489.1194" y="-659.3" font-family="Times,serif" font-size="14.00" fill="#000000">Infrastruktura#Forum</text>
</g>
<!-- d33tah&#45;&#45;Infrastruktura#Forum -->
<g id="edge8" class="edge">
<title>d33tah&#45;&#45;Infrastruktura#Forum</title>
<path fill="none" stroke="#2bd500" d="M98.9045,-542.1818C143.0076,-542.1818 208.6494,-542.1818 208.6494,-542.1818 208.6494,-542.1818 208.6494,-651 208.6494,-651 208.6494,-651 319.9265,-651 402.2977,-651"/>
</g>
<!-- Infrastruktura#Pad -->
<g id="node10" class="node">
<title>Infrastruktura#Pad</title>
<ellipse fill="none" stroke="#000000" cx="489.1194" cy="-534" rx="102.8821" ry="18"/>
<text text-anchor="middle" x="489.1194" y="-530.3" font-family="Times,serif" font-size="14.00" fill="#000000">Infrastruktura#Pad</text>
</g>
<!-- d33tah&#45;&#45;Infrastruktura#Pad -->
<g id="edge9" class="edge">
<title>d33tah&#45;&#45;Infrastruktura#Pad</title>
<path fill="none" stroke="#2bd500" d="M103.3233,-535.6364C169.3017,-535.6364 296.4873,-535.6364 386.7723,-535.6364"/>
</g>
<!-- Infrastruktura#Hosting -->
<g id="node11" class="node">
<title>Infrastruktura#Hosting</title>
<ellipse fill="none" stroke="#000000" cx="489.1194" cy="-577" rx="122.6784" ry="18"/>
<text text-anchor="middle" x="489.1194" y="-573.3" font-family="Times,serif" font-size="14.00" fill="#000000">Infrastruktura#Hosting</text>
</g>
<!-- d33tah&#45;&#45;Infrastruktura#Hosting -->
<g id="edge10" class="edge">
<title>d33tah&#45;&#45;Infrastruktura#Hosting</title>
<path fill="none" stroke="#2bd500" d="M95.6494,-544.5435C95.6494,-553.9344 95.6494,-566.2 95.6494,-566.2 95.6494,-566.2 274.3022,-566.2 390.8453,-566.2"/>
</g>
<!-- Infrastruktura#Meetup -->
<g id="node12" class="node">
<title>Infrastruktura#Meetup</title>
<ellipse fill="none" stroke="#000000" cx="489.1194" cy="-362" rx="121.5784" ry="18"/>
<text text-anchor="middle" x="489.1194" y="-358.3" font-family="Times,serif" font-size="14.00" fill="#000000">Infrastruktura#Meetup</text>
</g>
<!-- d33tah&#45;&#45;Infrastruktura#Meetup -->
<g id="edge11" class="edge">
<title>d33tah&#45;&#45;Infrastruktura#Meetup</title>
<path fill="none" stroke="#2bd500" d="M93.5501,-522.5455C143.3424,-522.5455 230.6494,-522.5455 230.6494,-522.5455 230.6494,-522.5455 230.6494,-375.5714 230.6494,-375.5714 230.6494,-375.5714 333.198,-375.5714 409.1079,-375.5714"/>
</g>
<!-- Infrastruktura#Github -->
<g id="node13" class="node">
<title>Infrastruktura#Github</title>
<ellipse fill="none" stroke="#000000" cx="489.1194" cy="-405" rx="117.7793" ry="18"/>
<text text-anchor="middle" x="489.1194" y="-401.3" font-family="Times,serif" font-size="14.00" fill="#000000">Infrastruktura#Github</text>
</g>
<!-- d33tah&#45;&#45;Infrastruktura#Github -->
<g id="edge12" class="edge">
<title>d33tah&#45;&#45;Infrastruktura#Github</title>
<path fill="none" stroke="#2bd500" d="M98.7598,-525.8182C166.9269,-525.8182 300.6494,-525.8182 300.6494,-525.8182 300.6494,-525.8182 300.6494,-416.3333 300.6494,-416.3333 300.6494,-416.3333 349.6254,-416.3333 397.6448,-416.3333"/>
</g>
<!-- cytP450 -->
<g id="node14" class="node">
<title>cytP450</title>
<ellipse fill="none" stroke="#000000" cx="59.7947" cy="-663" rx="49.2915" ry="18"/>
<text text-anchor="middle" x="59.7947" y="-659.3" font-family="Times,serif" font-size="14.00" fill="#000000">cytP450</text>
</g>
<!-- cytP450&#45;&#45;Infrastruktura#Domeny -->
<g id="edge14" class="edge">
<title>cytP450&#45;&#45;Infrastruktura#Domeny</title>
<path fill="none" stroke="#0061f2" d="M99.6494,-673.892C99.6494,-697.0334 99.6494,-749 99.6494,-749 99.6494,-749 250.8367,-749 364.8178,-749"/>
</g>
<!-- cytP450&#45;&#45;Miejsce&#45;:&#45;MIEJSCE#Klucze do spejsu -->
<g id="edge16" class="edge">
<title>cytP450&#45;&#45;Miejsce&#45;:&#45;MIEJSCE#Klucze do spejsu</title>
<path fill="none" stroke="#0061f2" d="M109.3431,-663C183.2194,-663 313.6494,-663 313.6494,-663 313.6494,-663 313.6494,-637.7942 313.6494,-625.979"/>
</g>
<!-- cytP450&#45;&#45;Infrastruktura#Forum -->
<g id="edge15" class="edge">
<title>cytP450&#45;&#45;Infrastruktura#Forum</title>
<path fill="none" stroke="#0061f2" d="M96.7703,-675C164.1959,-675 308.7856,-675 402.3527,-675"/>
</g>
<!-- cytP450&#45;&#45;Infrastruktura#Hosting -->
<g id="edge17" class="edge">
<title>cytP450&#45;&#45;Infrastruktura#Hosting</title>
<path fill="none" stroke="#0061f2" d="M106.4794,-657C163.5553,-657 252.6494,-657 252.6494,-657 252.6494,-657 252.6494,-587.8 252.6494,-587.8 252.6494,-587.8 325.6624,-587.8 390.5471,-587.8"/>
</g>
<!-- Martti25 -->
<g id="node15" class="node">
<title>Martti25</title>
<ellipse fill="none" stroke="#000000" cx="59.7947" cy="-324" rx="51.9908" ry="18"/>
<text text-anchor="middle" x="59.7947" y="-320.3" font-family="Times,serif" font-size="14.00" fill="#000000">Martti25</text>
</g>
<!-- Martti25&#45;&#45;Infrastruktura#Meetup -->
<g id="edge19" class="edge">
<title>Martti25&#45;&#45;Infrastruktura#Meetup</title>
<path fill="none" stroke="#c60077" d="M107.6494,-331.1802C107.6494,-341.1187 107.6494,-357.8571 107.6494,-357.8571 107.6494,-357.8571 258.7639,-357.8571 370.7717,-357.8571"/>
</g>
<!-- Martti25&#45;&#45;Infrastruktura#Github -->
<g id="edge20" class="edge">
<title>Martti25&#45;&#45;Infrastruktura#Github</title>
<path fill="none" stroke="#c60077" d="M98.6494,-336.0442C98.6494,-356.3008 98.6494,-395 98.6494,-395 98.6494,-395 275.4266,-395 391.0913,-395"/>
</g>
<!-- Infrastruktura#Konto na Fejsie -->
<g id="node16" class="node">
<title>Infrastruktura#Konto na Fejsie</title>
<ellipse fill="none" stroke="#000000" cx="489.1194" cy="-190" rx="157.0724" ry="18"/>
<text text-anchor="middle" x="489.1194" y="-186.3" font-family="Times,serif" font-size="14.00" fill="#000000">Infrastruktura#Konto na Fejsie</text>
</g>
<!-- Martti25&#45;&#45;Infrastruktura#Konto na Fejsie -->
<g id="edge18" class="edge">
<title>Martti25&#45;&#45;Infrastruktura#Konto na Fejsie</title>
<path fill="none" stroke="#c60077" d="M111.2849,-326.6667C142.2269,-326.6667 175.6494,-326.6667 175.6494,-326.6667 175.6494,-326.6667 175.6494,-199 175.6494,-199 175.6494,-199 268.065,-199 352.5388,-199"/>
</g>
<!-- biniu -->
<g id="node17" class="node">
<title>biniu</title>
<ellipse fill="none" stroke="#000000" cx="59.7947" cy="-367" rx="34.394" ry="18"/>
<text text-anchor="middle" x="59.7947" y="-363.3" font-family="Times,serif" font-size="14.00" fill="#000000">biniu</text>
</g>
<!-- biniu&#45;&#45;Infrastruktura#Meetup -->
<g id="edge21" class="edge">
<title>biniu&#45;&#45;Infrastruktura#Meetup</title>
<path fill="none" stroke="#b6e400" d="M93.1258,-362.2857C151.2453,-362.2857 273.8507,-362.2857 367.338,-362.2857"/>
</g>
<!-- kszmigiel -->
<g id="node18" class="node">
<title>kszmigiel</title>
<ellipse fill="none" stroke="#000000" cx="59.7947" cy="-421" rx="55.4913" ry="18"/>
<text text-anchor="middle" x="59.7947" y="-417.3" font-family="Times,serif" font-size="14.00" fill="#000000">kszmigiel</text>
</g>
<!-- kszmigiel&#45;&#45;Infrastruktura#t.me/hakierspejs -->
<g id="edge23" class="edge">
<title>kszmigiel&#45;&#45;Infrastruktura#t.me/hakierspejs</title>
<path fill="none" stroke="#00ffff" d="M102.7546,-409.6667C180.9756,-409.6667 338.6494,-409.6667 338.6494,-409.6667 338.6494,-409.6667 338.6494,-347.4883 338.6494,-326.1145"/>
</g>
<!-- kszmigiel&#45;&#45;Infrastruktura#Meetup -->
<g id="edge24" class="edge">
<title>kszmigiel&#45;&#45;Infrastruktura#Meetup</title>
<path fill="none" stroke="#00ffff" d="M103.6494,-410.0145C103.6494,-394.152 103.6494,-366.7143 103.6494,-366.7143 103.6494,-366.7143 258.2498,-366.7143 371.6335,-366.7143"/>
</g>
<!-- Infrastruktura#Naklejki -->
<g id="node19" class="node">
<title>Infrastruktura#Naklejki</title>
<ellipse fill="none" stroke="#000000" cx="489.1194" cy="-448" rx="125.3778" ry="18"/>
<text text-anchor="middle" x="489.1194" y="-444.3" font-family="Times,serif" font-size="14.00" fill="#000000">Infrastruktura#Naklejki</text>
</g>
<!-- kszmigiel&#45;&#45;Infrastruktura#Naklejki -->
<g id="edge22" class="edge">
<title>kszmigiel&#45;&#45;Infrastruktura#Naklejki</title>
<path fill="none" stroke="#00ffff" d="M96.3987,-434.5C164.5323,-434.5 312.3713,-434.5 405.9596,-434.5"/>
</g>
<!-- Finanse#Naklejki -->
<g id="node20" class="node">
<title>Finanse#Naklejki</title>
<ellipse fill="none" stroke="#000000" cx="489.1194" cy="-491" rx="94.7833" ry="18"/>
<text text-anchor="middle" x="489.1194" y="-487.3" font-family="Times,serif" font-size="14.00" fill="#000000">Finanse#Naklejki</text>
</g>
<!-- kszmigiel&#45;&#45;Finanse#Naklejki -->
<g id="edge25" class="edge">
<title>kszmigiel&#45;&#45;Finanse#Naklejki</title>
<path fill="none" stroke="#00ffff" d="M107.6494,-430.0359C107.6494,-448.3241 107.6494,-488 107.6494,-488 107.6494,-488 282.3631,-488 395.3127,-488"/>
</g>
<!-- nikolaad -->
<g id="node21" class="node">
<title>nikolaad</title>
<ellipse fill="none" stroke="#000000" cx="59.7947" cy="-233" rx="50.0912" ry="18"/>
<text text-anchor="middle" x="59.7947" y="-229.3" font-family="Times,serif" font-size="14.00" fill="#000000">nikolaad</text>
</g>
<!-- nikolaad&#45;&#45;Infrastruktura#Meetup -->
<g id="edge26" class="edge">
<title>nikolaad&#45;&#45;Infrastruktura#Meetup</title>
<path fill="none" stroke="#ab00d5" d="M106.997,-239C130.3686,-239 153.6494,-239 153.6494,-239 153.6494,-239 153.6494,-353.4286 153.6494,-353.4286 153.6494,-353.4286 283.8746,-353.4286 382.0522,-353.4286"/>
</g>
<!-- nikolaad&#45;&#45;Infrastruktura#Konto na Fejsie -->
<g id="edge27" class="edge">
<title>nikolaad&#45;&#45;Infrastruktura#Konto na Fejsie</title>
<path fill="none" stroke="#ab00d5" d="M106.6494,-226.6552C106.6494,-214.694 106.6494,-190 106.6494,-190 106.6494,-190 226.1991,-190 331.6223,-190"/>
</g>
<!-- Keij0 -->
<g id="node22" class="node">
<title>Keij0</title>
<ellipse fill="none" stroke="#000000" cx="59.7947" cy="-485" rx="34.394" ry="18"/>
<text text-anchor="middle" x="59.7947" y="-481.3" font-family="Times,serif" font-size="14.00" fill="#000000">Keij0</text>
</g>
<!-- Keij0&#45;&#45;Infrastruktura#Hosting -->
<g id="edge29" class="edge">
<title>Keij0&#45;&#45;Infrastruktura#Hosting</title>
<path fill="none" stroke="#f29100" d="M87.9134,-495.5C165.4597,-495.5 376.6494,-495.5 376.6494,-495.5 376.6494,-495.5 376.6494,-549.3027 376.6494,-569.4788"/>
</g>
<!-- Keij0&#45;&#45;Infrastruktura#Meetup -->
<g id="edge28" class="edge">
<title>Keij0&#45;&#45;Infrastruktura#Meetup</title>
<path fill="none" stroke="#f29100" d="M93.3055,-480.5C140.18,-480.5 219.6494,-480.5 219.6494,-480.5 219.6494,-480.5 219.6494,-371.1429 219.6494,-371.1429 219.6494,-371.1429 308.501,-371.1429 384.1636,-371.1429"/>
</g>
<!-- BluRaf -->
<g id="node23" class="node">
<title>BluRaf</title>
<ellipse fill="none" stroke="#000000" cx="59.7947" cy="-147" rx="42.4939" ry="18"/>
<text text-anchor="middle" x="59.7947" y="-143.3" font-family="Times,serif" font-size="14.00" fill="#000000">BluRaf</text>
</g>
<!-- BluRaf&#45;&#45;Infrastruktura#t.me/hakierspejs -->
<g id="edge32" class="edge">
<title>BluRaf&#45;&#45;Infrastruktura#t.me/hakierspejs</title>
<path fill="none" stroke="#00c64f" d="M91.5391,-159C122.4005,-159 164.6494,-159 164.6494,-159 164.6494,-159 164.6494,-316.3333 164.6494,-316.3333 164.6494,-316.3333 246.084,-316.3333 327.3597,-316.3333"/>
</g>
<!-- BluRaf&#45;&#45;Infrastruktura#IRC -->
<g id="edge33" class="edge">
<title>BluRaf&#45;&#45;Infrastruktura#IRC</title>
<path fill="none" stroke="#00c64f" d="M99.668,-153C140.3817,-153 197.6494,-153 197.6494,-153 197.6494,-153 197.6494,-270 197.6494,-270 197.6494,-270 306.2304,-270 390.8473,-270"/>
</g>
<!-- BluRaf&#45;&#45;Infrastruktura#t.me/hakierspejs_spam -->
<g id="edge34" class="edge">
<title>BluRaf&#45;&#45;Infrastruktura#t.me/hakierspejs_spam</title>
<path fill="none" stroke="#00c64f" d="M102.4315,-147C156.1823,-147 241.6494,-147 241.6494,-147 241.6494,-147 241.6494,-227 241.6494,-227 241.6494,-227 269.74,-227 306.9929,-227"/>
</g>
<!-- BluRaf&#45;&#45;Infrastruktura#Konto na Fejsie -->
<g id="edge36" class="edge">
<title>BluRaf&#45;&#45;Infrastruktura#Konto na Fejsie</title>
<path fill="none" stroke="#00c64f" d="M60.6494,-165.1944C60.6494,-173.2782 60.6494,-181 60.6494,-181 60.6494,-181 227.2368,-181 352.6655,-181"/>
</g>
<!-- Infrastruktura#Konfident -->
<g id="node24" class="node">
<title>Infrastruktura#Konfident</title>
<ellipse fill="none" stroke="#000000" cx="489.1194" cy="-61" rx="130.777" ry="18"/>
<text text-anchor="middle" x="489.1194" y="-57.3" font-family="Times,serif" font-size="14.00" fill="#000000">Infrastruktura#Konfident</text>
</g>
<!-- BluRaf&#45;&#45;Infrastruktura#Konfident -->
<g id="edge30" class="edge">
<title>BluRaf&#45;&#45;Infrastruktura#Konfident</title>
<path fill="none" stroke="#00c64f" d="M74.6494,-130.0092C74.6494,-104.9461 74.6494,-61 74.6494,-61 74.6494,-61 236.8048,-61 358.263,-61"/>
</g>
<!-- Infrastruktura#Mumble -->
<g id="node25" class="node">
<title>Infrastruktura#Mumble</title>
<ellipse fill="none" stroke="#000000" cx="489.1194" cy="-18" rx="124.2781" ry="18"/>
<text text-anchor="middle" x="489.1194" y="-14.3" font-family="Times,serif" font-size="14.00" fill="#000000">Infrastruktura#Mumble</text>
</g>
<!-- BluRaf&#45;&#45;Infrastruktura#Mumble -->
<g id="edge31" class="edge">
<title>BluRaf&#45;&#45;Infrastruktura#Mumble</title>
<path fill="none" stroke="#00c64f" d="M46.6494,-129.8698C46.6494,-94.7793 46.6494,-18 46.6494,-18 46.6494,-18 233.8177,-18 364.6893,-18"/>
</g>
<!-- Infrastruktura#hs&#45;ldz:hackerspace.pl -->
<g id="node26" class="node">
<title>Infrastruktura#hs&#45;ldz:hackerspace.pl</title>
<ellipse fill="none" stroke="#000000" cx="489.1194" cy="-147" rx="186.5669" ry="18"/>
<text text-anchor="middle" x="489.1194" y="-143.3" font-family="Times,serif" font-size="14.00" fill="#000000">Infrastruktura#hs&#45;ldz:hackerspace.pl</text>
</g>
<!-- BluRaf&#45;&#45;Infrastruktura#hs&#45;ldz:hackerspace.pl -->
<g id="edge35" class="edge">
<title>BluRaf&#45;&#45;Infrastruktura#hs&#45;ldz:hackerspace.pl</title>
<path fill="none" stroke="#00c64f" d="M99.799,-141C148.6134,-141 234.3813,-141 313.0127,-141"/>
</g>
<!-- Infrastruktura#hs&#45;ldz&#45;offtopic:hackerspace.pl -->
<g id="node27" class="node">
<title>Infrastruktura#hs&#45;ldz&#45;offtopic:hackerspace.pl</title>
<ellipse fill="none" stroke="#000000" cx="489.1194" cy="-104" rx="225.56" ry="18"/>
<text text-anchor="middle" x="489.1194" y="-100.3" font-family="Times,serif" font-size="14.00" fill="#000000">Infrastruktura#hs&#45;ldz&#45;offtopic:hackerspace.pl</text>
</g>
<!-- BluRaf&#45;&#45;Infrastruktura#hs&#45;ldz&#45;offtopic:hackerspace.pl -->
<g id="edge37" class="edge">
<title>BluRaf&#45;&#45;Infrastruktura#hs&#45;ldz&#45;offtopic:hackerspace.pl</title>
<path fill="none" stroke="#00c64f" d="M91.4378,-135C152.5061,-135 280.6494,-135 280.6494,-135 280.6494,-135 280.6494,-120.0128 280.6494,-110.8799"/>
</g>
<!-- kpc -->
<g id="node28" class="node">
<title>kpc</title>
<ellipse fill="none" stroke="#000000" cx="59.7947" cy="-577" rx="27.8951" ry="18"/>
<text text-anchor="middle" x="59.7947" y="-573.3" font-family="Times,serif" font-size="14.00" fill="#000000">kpc</text>
</g>
<!-- kpc&#45;&#45;Infrastruktura#Hosting -->
<g id="edge38" class="edge">
<title>kpc&#45;&#45;Infrastruktura#Hosting</title>
<path fill="none" stroke="#2e00e4" d="M87.304,-573.4C142.9179,-573.4 271.6632,-573.4 368.539,-573.4"/>
</g>
<!-- thinkofher -->
<g id="node29" class="node">
<title>thinkofher</title>
<ellipse fill="none" stroke="#000000" cx="59.7947" cy="-620" rx="59.5901" ry="18"/>
<text text-anchor="middle" x="59.7947" y="-616.3" font-family="Times,serif" font-size="14.00" fill="#000000">thinkofher</text>
</g>
<!-- thinkofher&#45;&#45;Infrastruktura#Forum -->
<g id="edge39" class="edge">
<title>thinkofher&#45;&#45;Infrastruktura#Forum</title>
<path fill="none" stroke="#ff0000" d="M114.6494,-627.2301C114.6494,-640.8603 114.6494,-669 114.6494,-669 114.6494,-669 268.8009,-669 379.2962,-669"/>
</g>
<!-- thinkofher&#45;&#45;Infrastruktura#Hosting -->
<g id="edge40" class="edge">
<title>thinkofher&#45;&#45;Infrastruktura#Hosting</title>
<path fill="none" stroke="#ff0000" d="M111.6494,-610.8618C111.6494,-599.2227 111.6494,-580.6 111.6494,-580.6 111.6494,-580.6 258.1785,-580.6 368.6477,-580.6"/>
</g>
</g>
</svg>
