<?xml version="1.0" encoding="UTF-8" standalone="no"?>
<!DOCTYPE svg PUBLIC "-//W3C//DTD SVG 1.1//EN"
 "http://www.w3.org/Graphics/SVG/1.1/DTD/svg11.dtd">
<!-- Generated by graphviz version 2.40.1 (20161225.0304)
 -->
<!-- Title: %3 Pages: 1 -->
<svg width="850pt" height="861pt"
 viewBox="0.00 0.00 850.04 861.00" xmlns="http://www.w3.org/2000/svg" xmlns:xlink="http://www.w3.org/1999/xlink">
<g id="graph0" class="graph" transform="scale(1 1) rotate(0) translate(4 857)">
<title>%3</title>
<polygon fill="#ffffff" stroke="transparent" points="-4,4 -4,-857 846.0381,-857 846.0381,4 -4,4"/>
<!-- d33tah -->
<g id="node1" class="node">
<title>d33tah</title>
<ellipse fill="none" stroke="#000000" cx="59.7947" cy="-577" rx="43.5923" ry="18"/>
<text text-anchor="middle" x="59.7947" y="-573.3" font-family="Times,serif" font-size="14.00" fill="#000000">d33tah</text>
</g>
<!-- Infrastruktura#Pad -->
<g id="node2" class="node">
<title>Infrastruktura#Pad</title>
<ellipse fill="none" stroke="#000000" cx="552.8137" cy="-534" rx="102.8821" ry="18"/>
<text text-anchor="middle" x="552.8137" y="-530.3" font-family="Times,serif" font-size="14.00" fill="#000000">Infrastruktura#Pad</text>
</g>
<!-- d33tah&#45;&#45;Infrastruktura#Pad -->
<g id="edge1" class="edge">
<title>d33tah&#45;&#45;Infrastruktura#Pad</title>
<path fill="none" stroke="#ff0000" d="M103.0381,-574.8785C103.0381,-567.6852 103.0381,-544.6667 103.0381,-544.6667 103.0381,-544.6667 340.1525,-544.6667 470.056,-544.6667"/>
</g>
<!-- Miejsce::Miejsce#Klucze do spejsu -->
<g id="node3" class="node">
<title>Miejsce::Miejsce#Klucze do spejsu</title>
<ellipse fill="none" stroke="#000000" cx="552.8137" cy="-749" rx="174.6691" ry="18"/>
<text text-anchor="middle" x="552.8137" y="-745.3" font-family="Times,serif" font-size="14.00" fill="#000000">Miejsce::Miejsce#Klucze do spejsu</text>
</g>
<!-- d33tah&#45;&#45;Miejsce::Miejsce#Klucze do spejsu -->
<g id="edge2" class="edge">
<title>d33tah&#45;&#45;Miejsce::Miejsce#Klucze do spejsu</title>
<path fill="none" stroke="#ff0000" d="M91.0381,-589.7551C91.0381,-594.3848 91.0381,-598.5 91.0381,-598.5 91.0381,-598.5 413.0381,-598.5 413.0381,-598.5 413.0381,-598.5 413.0381,-703.6681 413.0381,-738.1764"/>
</g>
<!-- Infrastruktura#Grafana -->
<g id="node4" class="node">
<title>Infrastruktura#Grafana</title>
<ellipse fill="none" stroke="#000000" cx="552.8137" cy="-663" rx="122.6784" ry="18"/>
<text text-anchor="middle" x="552.8137" y="-659.3" font-family="Times,serif" font-size="14.00" fill="#000000">Infrastruktura#Grafana</text>
</g>
<!-- d33tah&#45;&#45;Infrastruktura#Grafana -->
<g id="edge3" class="edge">
<title>d33tah&#45;&#45;Infrastruktura#Grafana</title>
<path fill="none" stroke="#ff0000" d="M103.4277,-577C174.4064,-577 307.0381,-577 307.0381,-577 307.0381,-577 307.0381,-652.2 307.0381,-652.2 307.0381,-652.2 385.8868,-652.2 454.2635,-652.2"/>
</g>
<!-- Infrastruktura#Meetup -->
<g id="node5" class="node">
<title>Infrastruktura#Meetup</title>
<ellipse fill="none" stroke="#000000" cx="552.8137" cy="-448" rx="121.5784" ry="18"/>
<text text-anchor="middle" x="552.8137" y="-444.3" font-family="Times,serif" font-size="14.00" fill="#000000">Infrastruktura#Meetup</text>
</g>
<!-- d33tah&#45;&#45;Infrastruktura#Meetup -->
<g id="edge4" class="edge">
<title>d33tah&#45;&#45;Infrastruktura#Meetup</title>
<path fill="none" stroke="#ff0000" d="M97.7472,-568C161.2225,-568 282.0381,-568 282.0381,-568 282.0381,-568 282.0381,-460.8571 282.0381,-460.8571 282.0381,-460.8571 388.1406,-460.8571 467.5103,-460.8571"/>
</g>
<!-- Infrastruktura#Github -->
<g id="node6" class="node">
<title>Infrastruktura#Github</title>
<ellipse fill="none" stroke="#000000" cx="552.8137" cy="-491" rx="117.7793" ry="18"/>
<text text-anchor="middle" x="552.8137" y="-487.3" font-family="Times,serif" font-size="14.00" fill="#000000">Infrastruktura#Github</text>
</g>
<!-- d33tah&#45;&#45;Infrastruktura#Github -->
<g id="edge5" class="edge">
<title>d33tah&#45;&#45;Infrastruktura#Github</title>
<path fill="none" stroke="#ff0000" d="M98.0381,-568.3393C98.0381,-549.0023 98.0381,-504 98.0381,-504 98.0381,-504 340.375,-504 471.2465,-504"/>
</g>
<!-- Infrastruktura#t.me/hakierspejs_spam -->
<g id="node7" class="node">
<title>Infrastruktura#t.me/hakierspejs_spam</title>
<ellipse fill="none" stroke="#000000" cx="552.8137" cy="-233" rx="193.0657" ry="18"/>
<text text-anchor="middle" x="552.8137" y="-229.3" font-family="Times,serif" font-size="14.00" fill="#000000">Infrastruktura#t.me/hakierspejs_spam</text>
</g>
<!-- d33tah&#45;&#45;Infrastruktura#t.me/hakierspejs_spam -->
<g id="edge6" class="edge">
<title>d33tah&#45;&#45;Infrastruktura#t.me/hakierspejs_spam</title>
<path fill="none" stroke="#ff0000" d="M99.0381,-569.1671C99.0381,-553.6882 99.0381,-520.6667 99.0381,-520.6667 99.0381,-520.6667 380.0381,-520.6667 380.0381,-520.6667 380.0381,-520.6667 380.0381,-288.465 380.0381,-241.2991"/>
</g>
<!-- Infrastruktura#Forum -->
<g id="node8" class="node">
<title>Infrastruktura#Forum</title>
<ellipse fill="none" stroke="#000000" cx="552.8137" cy="-706" rx="116.1796" ry="18"/>
<text text-anchor="middle" x="552.8137" y="-702.3" font-family="Times,serif" font-size="14.00" fill="#000000">Infrastruktura#Forum</text>
</g>
<!-- d33tah&#45;&#45;Infrastruktura#Forum -->
<g id="edge7" class="edge">
<title>d33tah&#45;&#45;Infrastruktura#Forum</title>
<path fill="none" stroke="#ff0000" d="M102.0303,-581.5C169.9822,-581.5 296.0381,-581.5 296.0381,-581.5 296.0381,-581.5 296.0381,-700 296.0381,-700 296.0381,-700 373.1071,-700 442.8003,-700"/>
</g>
<!-- Infrastruktura#Domeny -->
<g id="node9" class="node">
<title>Infrastruktura#Domeny</title>
<ellipse fill="none" stroke="#000000" cx="552.8137" cy="-835" rx="124.2781" ry="18"/>
<text text-anchor="middle" x="552.8137" y="-831.3" font-family="Times,serif" font-size="14.00" fill="#000000">Infrastruktura#Domeny</text>
</g>
<!-- d33tah&#45;&#45;Infrastruktura#Domeny -->
<g id="edge8" class="edge">
<title>d33tah&#45;&#45;Infrastruktura#Domeny</title>
<path fill="none" stroke="#ff0000" d="M97.9897,-586C158.1078,-586 268.0381,-586 268.0381,-586 268.0381,-586 268.0381,-820.5 268.0381,-820.5 268.0381,-820.5 394.7287,-820.5 479.1066,-820.5"/>
</g>
<!-- Infrastruktura#t.me/hakierspejs -->
<g id="node10" class="node">
<title>Infrastruktura#t.me/hakierspejs</title>
<ellipse fill="none" stroke="#000000" cx="552.8137" cy="-405" rx="163.2712" ry="18"/>
<text text-anchor="middle" x="552.8137" y="-401.3" font-family="Times,serif" font-size="14.00" fill="#000000">Infrastruktura#t.me/hakierspejs</text>
</g>
<!-- d33tah&#45;&#45;Infrastruktura#t.me/hakierspejs -->
<g id="edge9" class="edge">
<title>d33tah&#45;&#45;Infrastruktura#t.me/hakierspejs</title>
<path fill="none" stroke="#ff0000" d="M100.0381,-570.0906C100.0381,-558.7258 100.0381,-537.3333 100.0381,-537.3333 100.0381,-537.3333 411.0381,-537.3333 411.0381,-537.3333 411.0381,-537.3333 411.0381,-443.9937 411.0381,-414.0958"/>
</g>
<!-- Infrastruktura#Lista mailingowa -->
<g id="node11" class="node">
<title>Infrastruktura#Lista mailingowa</title>
<ellipse fill="none" stroke="#000000" cx="552.8137" cy="-792" rx="165.1707" ry="18"/>
<text text-anchor="middle" x="552.8137" y="-788.3" font-family="Times,serif" font-size="14.00" fill="#000000">Infrastruktura#Lista mailingowa</text>
</g>
<!-- d33tah&#45;&#45;Infrastruktura#Lista mailingowa -->
<g id="edge10" class="edge">
<title>d33tah&#45;&#45;Infrastruktura#Lista mailingowa</title>
<path fill="none" stroke="#ff0000" d="M88.8161,-590.5C127.7441,-590.5 192.0381,-590.5 192.0381,-590.5 192.0381,-590.5 192.0381,-784.5 192.0381,-784.5 192.0381,-784.5 303.6279,-784.5 402.6857,-784.5"/>
</g>
<!-- Infrastruktura#IRC -->
<g id="node12" class="node">
<title>Infrastruktura#IRC</title>
<ellipse fill="none" stroke="#000000" cx="552.8137" cy="-319" rx="103.9815" ry="18"/>
<text text-anchor="middle" x="552.8137" y="-315.3" font-family="Times,serif" font-size="14.00" fill="#000000">Infrastruktura#IRC</text>
</g>
<!-- d33tah&#45;&#45;Infrastruktura#IRC -->
<g id="edge11" class="edge">
<title>d33tah&#45;&#45;Infrastruktura#IRC</title>
<path fill="none" stroke="#ff0000" d="M88.7757,-563.5C148.1422,-563.5 278.0381,-563.5 278.0381,-563.5 278.0381,-563.5 278.0381,-329.8 278.0381,-329.8 278.0381,-329.8 388.4123,-329.8 469.2528,-329.8"/>
</g>
<!-- Infrastruktura#Hosting -->
<g id="node13" class="node">
<title>Infrastruktura#Hosting</title>
<ellipse fill="none" stroke="#000000" cx="552.8137" cy="-620" rx="122.6784" ry="18"/>
<text text-anchor="middle" x="552.8137" y="-616.3" font-family="Times,serif" font-size="14.00" fill="#000000">Infrastruktura#Hosting</text>
</g>
<!-- d33tah&#45;&#45;Infrastruktura#Hosting -->
<g id="edge12" class="edge">
<title>d33tah&#45;&#45;Infrastruktura#Hosting</title>
<path fill="none" stroke="#ff0000" d="M96.0381,-587.2018C96.0381,-599.1785 96.0381,-617.4286 96.0381,-617.4286 96.0381,-617.4286 295.6931,-617.4286 431.0063,-617.4286"/>
</g>
<!-- Infrastruktura#Lelegram (na shitpostach) -->
<g id="node14" class="node">
<title>Infrastruktura#Lelegram (na shitpostach)</title>
<ellipse fill="none" stroke="#000000" cx="552.8137" cy="-577" rx="207.9631" ry="18"/>
<text text-anchor="middle" x="552.8137" y="-573.3" font-family="Times,serif" font-size="14.00" fill="#000000">Infrastruktura#Lelegram (na shitpostach)</text>
</g>
<!-- d33tah&#45;&#45;Infrastruktura#Lelegram (na shitpostach) -->
<g id="edge13" class="edge">
<title>d33tah&#45;&#45;Infrastruktura#Lelegram (na shitpostach)</title>
<path fill="none" stroke="#ff0000" d="M102.2559,-572.5C157.7875,-572.5 258.8983,-572.5 351.2843,-572.5"/>
</g>
<!-- cytP450 -->
<g id="node15" class="node">
<title>cytP450</title>
<ellipse fill="none" stroke="#000000" cx="59.7947" cy="-706" rx="49.2915" ry="18"/>
<text text-anchor="middle" x="59.7947" y="-702.3" font-family="Times,serif" font-size="14.00" fill="#000000">cytP450</text>
</g>
<!-- cytP450&#45;&#45;Miejsce::Miejsce#Klucze do spejsu -->
<g id="edge16" class="edge">
<title>cytP450&#45;&#45;Miejsce::Miejsce#Klucze do spejsu</title>
<path fill="none" stroke="#2bd500" d="M104.0381,-714.2908C104.0381,-726.7861 104.0381,-749 104.0381,-749 104.0381,-749 251.76,-749 377.6988,-749"/>
</g>
<!-- cytP450&#45;&#45;Infrastruktura#Forum -->
<g id="edge15" class="edge">
<title>cytP450&#45;&#45;Infrastruktura#Forum</title>
<path fill="none" stroke="#2bd500" d="M96.8513,-718C174.6704,-718 356.8946,-718 465.9548,-718"/>
</g>
<!-- cytP450&#45;&#45;Infrastruktura#Domeny -->
<g id="edge14" class="edge">
<title>cytP450&#45;&#45;Infrastruktura#Domeny</title>
<path fill="none" stroke="#2bd500" d="M99.0381,-717.3143C99.0381,-746.8488 99.0381,-824 99.0381,-824 99.0381,-824 320.8921,-824 454.3512,-824"/>
</g>
<!-- cytP450&#45;&#45;Infrastruktura#Hosting -->
<g id="edge17" class="edge">
<title>cytP450&#45;&#45;Infrastruktura#Hosting</title>
<path fill="none" stroke="#2bd500" d="M109.3118,-706C180.4326,-706 303.0381,-706 303.0381,-706 303.0381,-706 303.0381,-632.8571 303.0381,-632.8571 303.0381,-632.8571 394.3088,-632.8571 466.5054,-632.8571"/>
</g>
<!-- nuke -->
<g id="node16" class="node">
<title>nuke</title>
<ellipse fill="none" stroke="#000000" cx="59.7947" cy="-749" rx="33.5952" ry="18"/>
<text text-anchor="middle" x="59.7947" y="-745.3" font-family="Times,serif" font-size="14.00" fill="#000000">nuke</text>
</g>
<!-- nuke&#45;&#45;Miejsce::Miejsce#Klucze do spejsu -->
<g id="edge18" class="edge">
<title>nuke&#45;&#45;Miejsce::Miejsce#Klucze do spejsu</title>
<path fill="none" stroke="#0061f2" d="M89.1588,-758C149.3796,-758 290.5252,-758 401.3785,-758"/>
</g>
<!-- pmysl -->
<g id="node17" class="node">
<title>pmysl</title>
<ellipse fill="none" stroke="#000000" cx="59.7947" cy="-663" rx="38.1938" ry="18"/>
<text text-anchor="middle" x="59.7947" y="-659.3" font-family="Times,serif" font-size="14.00" fill="#000000">pmysl</text>
</g>
<!-- pmysl&#45;&#45;Miejsce::Miejsce#Klucze do spejsu -->
<g id="edge20" class="edge">
<title>pmysl&#45;&#45;Miejsce::Miejsce#Klucze do spejsu</title>
<path fill="none" stroke="#c60077" d="M97.3873,-666.6C185.1289,-666.6 396.0381,-666.6 396.0381,-666.6 396.0381,-666.6 396.0381,-719.9558 396.0381,-740.7979"/>
</g>
<!-- pmysl&#45;&#45;Infrastruktura#Grafana -->
<g id="edge21" class="edge">
<title>pmysl&#45;&#45;Infrastruktura#Grafana</title>
<path fill="none" stroke="#c60077" d="M97.6624,-659.4C168.2945,-659.4 322.8708,-659.4 432.2354,-659.4"/>
</g>
<!-- pmysl&#45;&#45;Infrastruktura#Forum -->
<g id="edge19" class="edge">
<title>pmysl&#45;&#45;Infrastruktura#Forum</title>
<path fill="none" stroke="#c60077" d="M90.6348,-673.8C153.8096,-673.8 292.0381,-673.8 292.0381,-673.8 292.0381,-673.8 292.0381,-712 292.0381,-712 292.0381,-712 371.709,-712 442.9772,-712"/>
</g>
<!-- pmysl&#45;&#45;Infrastruktura#Hosting -->
<g id="edge22" class="edge">
<title>pmysl&#45;&#45;Infrastruktura#Hosting</title>
<path fill="none" stroke="#c60077" d="M93.0381,-653.7291C93.0381,-643.2745 93.0381,-627.7143 93.0381,-627.7143 93.0381,-627.7143 305.7483,-627.7143 441.808,-627.7143"/>
</g>
<!-- kszmigiel -->
<g id="node18" class="node">
<title>kszmigiel</title>
<ellipse fill="none" stroke="#000000" cx="59.7947" cy="-362" rx="55.4913" ry="18"/>
<text text-anchor="middle" x="59.7947" y="-358.3" font-family="Times,serif" font-size="14.00" fill="#000000">kszmigiel</text>
</g>
<!-- kszmigiel&#45;&#45;Miejsce::Miejsce#Klucze do spejsu -->
<g id="edge23" class="edge">
<title>kszmigiel&#45;&#45;Miejsce::Miejsce#Klucze do spejsu</title>
<path fill="none" stroke="#b6e400" d="M98.54,-374.8571C159.5242,-374.8571 271.0381,-374.8571 271.0381,-374.8571 271.0381,-374.8571 271.0381,-740 271.0381,-740 271.0381,-740 334.5092,-740 401.2034,-740"/>
</g>
<!-- kszmigiel&#45;&#45;Infrastruktura#Meetup -->
<g id="edge24" class="edge">
<title>kszmigiel&#45;&#45;Infrastruktura#Meetup</title>
<path fill="none" stroke="#b6e400" d="M109.7835,-369.7143C176.142,-369.7143 285.0381,-369.7143 285.0381,-369.7143 285.0381,-369.7143 285.0381,-440.2857 285.0381,-440.2857 285.0381,-440.2857 368.8837,-440.2857 442.7399,-440.2857"/>
</g>
<!-- kszmigiel&#45;&#45;Infrastruktura#t.me/hakierspejs_spam -->
<g id="edge25" class="edge">
<title>kszmigiel&#45;&#45;Infrastruktura#t.me/hakierspejs_spam</title>
<path fill="none" stroke="#b6e400" d="M98.4599,-349.1429C181.6261,-349.1429 370.0381,-349.1429 370.0381,-349.1429 370.0381,-349.1429 370.0381,-262.5869 370.0381,-238.9192"/>
</g>
<!-- kszmigiel&#45;&#45;Infrastruktura#t.me/hakierspejs -->
<g id="edge28" class="edge">
<title>kszmigiel&#45;&#45;Infrastruktura#t.me/hakierspejs</title>
<path fill="none" stroke="#b6e400" d="M114.7482,-364.5714C213.0999,-364.5714 409.0381,-364.5714 409.0381,-364.5714 409.0381,-364.5714 409.0381,-384.5587 409.0381,-396.4261"/>
</g>
<!-- Infrastruktura#Naklejki -->
<g id="node19" class="node">
<title>Infrastruktura#Naklejki</title>
<ellipse fill="none" stroke="#000000" cx="552.8137" cy="-276" rx="125.3778" ry="18"/>
<text text-anchor="middle" x="552.8137" y="-272.3" font-family="Times,serif" font-size="14.00" fill="#000000">Infrastruktura#Naklejki</text>
</g>
<!-- kszmigiel&#45;&#45;Infrastruktura#Naklejki -->
<g id="edge26" class="edge">
<title>kszmigiel&#45;&#45;Infrastruktura#Naklejki</title>
<path fill="none" stroke="#b6e400" d="M109.7641,-354.2857C212.7451,-354.2857 439.0381,-354.2857 439.0381,-354.2857 439.0381,-354.2857 439.0381,-303.594 439.0381,-283.7925"/>
</g>
<!-- Finanse#Naklejki -->
<g id="node20" class="node">
<title>Finanse#Naklejki</title>
<ellipse fill="none" stroke="#000000" cx="552.8137" cy="-362" rx="94.7833" ry="18"/>
<text text-anchor="middle" x="552.8137" y="-358.3" font-family="Times,serif" font-size="14.00" fill="#000000">Finanse#Naklejki</text>
</g>
<!-- kszmigiel&#45;&#45;Finanse#Naklejki -->
<g id="edge27" class="edge">
<title>kszmigiel&#45;&#45;Finanse#Naklejki</title>
<path fill="none" stroke="#b6e400" d="M114.9152,-359.4286C198.0864,-359.4286 356.736,-359.4286 458.5121,-359.4286"/>
</g>
<!-- ksiezak -->
<g id="node21" class="node">
<title>ksiezak</title>
<ellipse fill="none" stroke="#000000" cx="59.7947" cy="-61" rx="46.2923" ry="18"/>
<text text-anchor="middle" x="59.7947" y="-57.3" font-family="Times,serif" font-size="14.00" fill="#000000">ksiezak</text>
</g>
<!-- Współdzielony&#45;kalendarz&#45;i&#45;lista&#45;kontaktów#Założenie konta -->
<g id="node22" class="node">
<title>Współdzielony&#45;kalendarz&#45;i&#45;lista&#45;kontaktów#Założenie konta</title>
<ellipse fill="none" stroke="#000000" cx="552.8137" cy="-18" rx="289.4488" ry="18"/>
<text text-anchor="middle" x="552.8137" y="-14.3" font-family="Times,serif" font-size="14.00" fill="#000000">Współdzielony&#45;kalendarz&#45;i&#45;lista&#45;kontaktów#Założenie konta</text>
</g>
<!-- ksiezak&#45;&#45;Współdzielony&#45;kalendarz&#45;i&#45;lista&#45;kontaktów#Założenie konta -->
<g id="edge29" class="edge">
<title>ksiezak&#45;&#45;Współdzielony&#45;kalendarz&#45;i&#45;lista&#45;kontaktów#Założenie konta</title>
<path fill="none" stroke="#00ffff" d="M99.9882,-52C165.7342,-52 289.0381,-52 289.0381,-52 289.0381,-52 289.0381,-35.5624 289.0381,-25.5457"/>
</g>
<!-- Infrastruktura#hs&#45;ldz&#45;offtopic:hackerspace.pl -->
<g id="node23" class="node">
<title>Infrastruktura#hs&#45;ldz&#45;offtopic:hackerspace.pl</title>
<ellipse fill="none" stroke="#000000" cx="552.8137" cy="-61" rx="225.56" ry="18"/>
<text text-anchor="middle" x="552.8137" y="-57.3" font-family="Times,serif" font-size="14.00" fill="#000000">Infrastruktura#hs&#45;ldz&#45;offtopic:hackerspace.pl</text>
</g>
<!-- ksiezak&#45;&#45;Infrastruktura#hs&#45;ldz&#45;offtopic:hackerspace.pl -->
<g id="edge30" class="edge">
<title>ksiezak&#45;&#45;Infrastruktura#hs&#45;ldz&#45;offtopic:hackerspace.pl</title>
<path fill="none" stroke="#00ffff" d="M106.1767,-61C157.4741,-61 243.9167,-61 327.1636,-61"/>
</g>
<!-- Infrastruktura#hs&#45;ldz:hackerspace.pl -->
<g id="node24" class="node">
<title>Infrastruktura#hs&#45;ldz:hackerspace.pl</title>
<ellipse fill="none" stroke="#000000" cx="552.8137" cy="-147" rx="186.5669" ry="18"/>
<text text-anchor="middle" x="552.8137" y="-143.3" font-family="Times,serif" font-size="14.00" fill="#000000">Infrastruktura#hs&#45;ldz:hackerspace.pl</text>
</g>
<!-- ksiezak&#45;&#45;Infrastruktura#hs&#45;ldz:hackerspace.pl -->
<g id="edge31" class="edge">
<title>ksiezak&#45;&#45;Infrastruktura#hs&#45;ldz:hackerspace.pl</title>
<path fill="none" stroke="#00ffff" d="M74.0381,-78.3588C74.0381,-101.8875 74.0381,-141 74.0381,-141 74.0381,-141 240.3359,-141 376.9146,-141"/>
</g>
<!-- q3k -->
<g id="node25" class="node">
<title>q3k</title>
<ellipse fill="none" stroke="#000000" cx="59.7947" cy="-813" rx="28.6953" ry="18"/>
<text text-anchor="middle" x="59.7947" y="-809.3" font-family="Times,serif" font-size="14.00" fill="#000000">q3k</text>
</g>
<!-- q3k&#45;&#45;Infrastruktura#Domeny -->
<g id="edge33" class="edge">
<title>q3k&#45;&#45;Infrastruktura#Domeny</title>
<path fill="none" stroke="#ab00d5" d="M76.7655,-827.5C133.1918,-827.5 317.8394,-827.5 439.8906,-827.5"/>
</g>
<!-- q3k&#45;&#45;Infrastruktura#Lista mailingowa -->
<g id="edge32" class="edge">
<title>q3k&#45;&#45;Infrastruktura#Lista mailingowa</title>
<path fill="none" stroke="#ab00d5" d="M83.2424,-802.5C142.5175,-802.5 301.9358,-802.5 418.6332,-802.5"/>
</g>
<!-- Martti25 -->
<g id="node26" class="node">
<title>Martti25</title>
<ellipse fill="none" stroke="#000000" cx="59.7947" cy="-405" rx="51.9908" ry="18"/>
<text text-anchor="middle" x="59.7947" y="-401.3" font-family="Times,serif" font-size="14.00" fill="#000000">Martti25</text>
</g>
<!-- Martti25&#45;&#45;Infrastruktura#Meetup -->
<g id="edge34" class="edge">
<title>Martti25&#45;&#45;Infrastruktura#Meetup</title>
<path fill="none" stroke="#f29100" d="M102.0381,-415.6221C102.0381,-427.6004 102.0381,-445.4286 102.0381,-445.4286 102.0381,-445.4286 298.7796,-445.4286 432.3103,-445.4286"/>
</g>
<!-- Martti25&#45;&#45;Infrastruktura#Github -->
<g id="edge35" class="edge">
<title>Martti25&#45;&#45;Infrastruktura#Github</title>
<path fill="none" stroke="#f29100" d="M96.0381,-417.9627C96.0381,-440.2589 96.0381,-483.5 96.0381,-483.5 96.0381,-483.5 310.711,-483.5 445.7201,-483.5"/>
</g>
<!-- Martti25&#45;&#45;Infrastruktura#t.me/hakierspejs -->
<g id="edge36" class="edge">
<title>Martti25&#45;&#45;Infrastruktura#t.me/hakierspejs</title>
<path fill="none" stroke="#f29100" d="M104.8538,-414C173.6114,-414 307.6513,-414 411.2676,-414"/>
</g>
<!-- Infrastruktura#Konto na Fejsie -->
<g id="node27" class="node">
<title>Infrastruktura#Konto na Fejsie</title>
<ellipse fill="none" stroke="#000000" cx="552.8137" cy="-190" rx="157.0724" ry="18"/>
<text text-anchor="middle" x="552.8137" y="-186.3" font-family="Times,serif" font-size="14.00" fill="#000000">Infrastruktura#Konto na Fejsie</text>
</g>
<!-- Martti25&#45;&#45;Infrastruktura#Konto na Fejsie -->
<g id="edge37" class="edge">
<title>Martti25&#45;&#45;Infrastruktura#Konto na Fejsie</title>
<path fill="none" stroke="#f29100" d="M111.8991,-405C175.601,-405 275.0381,-405 275.0381,-405 275.0381,-405 275.0381,-204 275.0381,-204 275.0381,-204 373.9336,-204 453.7068,-204"/>
</g>
<!-- biniu -->
<g id="node28" class="node">
<title>biniu</title>
<ellipse fill="none" stroke="#000000" cx="59.7947" cy="-448" rx="34.394" ry="18"/>
<text text-anchor="middle" x="59.7947" y="-444.3" font-family="Times,serif" font-size="14.00" fill="#000000">biniu</text>
</g>
<!-- biniu&#45;&#45;Infrastruktura#Meetup -->
<g id="edge38" class="edge">
<title>biniu&#45;&#45;Infrastruktura#Meetup</title>
<path fill="none" stroke="#00c64f" d="M94.0714,-450.5714C162.9673,-450.5714 321.1462,-450.5714 432.4128,-450.5714"/>
</g>
<!-- nikolaad -->
<g id="node29" class="node">
<title>nikolaad</title>
<ellipse fill="none" stroke="#000000" cx="59.7947" cy="-276" rx="50.0912" ry="18"/>
<text text-anchor="middle" x="59.7947" y="-272.3" font-family="Times,serif" font-size="14.00" fill="#000000">nikolaad</text>
</g>
<!-- nikolaad&#45;&#45;Infrastruktura#Meetup -->
<g id="edge39" class="edge">
<title>nikolaad&#45;&#45;Infrastruktura#Meetup</title>
<path fill="none" stroke="#2e00e4" d="M107.2769,-282C181.6059,-282 317.0381,-282 317.0381,-282 317.0381,-282 317.0381,-435.1429 317.0381,-435.1429 317.0381,-435.1429 400.1582,-435.1429 467.6933,-435.1429"/>
</g>
<!-- nikolaad&#45;&#45;Infrastruktura#Konto na Fejsie -->
<g id="edge40" class="edge">
<title>nikolaad&#45;&#45;Infrastruktura#Konto na Fejsie</title>
<path fill="none" stroke="#2e00e4" d="M107.0829,-270C113.558,-270 118.0381,-270 118.0381,-270 118.0381,-270 118.0381,-200 118.0381,-200 118.0381,-200 293.7605,-200 421.7771,-200"/>
</g>
<!-- Keij0 -->
<g id="node30" class="node">
<title>Keij0</title>
<ellipse fill="none" stroke="#000000" cx="59.7947" cy="-512" rx="34.394" ry="18"/>
<text text-anchor="middle" x="59.7947" y="-508.3" font-family="Times,serif" font-size="14.00" fill="#000000">Keij0</text>
</g>
<!-- Keij0&#45;&#45;Infrastruktura#Meetup -->
<g id="edge41" class="edge">
<title>Keij0&#45;&#45;Infrastruktura#Meetup</title>
<path fill="none" stroke="#ff0000" d="M84.0121,-499C91.1256,-499 97.0381,-499 97.0381,-499 97.0381,-499 97.0381,-455.7143 97.0381,-455.7143 97.0381,-455.7143 307.8977,-455.7143 442.7737,-455.7143"/>
</g>
<!-- Keij0&#45;&#45;Infrastruktura#Hosting -->
<g id="edge42" class="edge">
<title>Keij0&#45;&#45;Infrastruktura#Hosting</title>
<path fill="none" stroke="#ff0000" d="M83.337,-525.3333C145.6316,-525.3333 310.0381,-525.3333 310.0381,-525.3333 310.0381,-525.3333 310.0381,-612.2857 310.0381,-612.2857 310.0381,-612.2857 377.8022,-612.2857 441.7281,-612.2857"/>
</g>
<!-- BluRaf -->
<g id="node31" class="node">
<title>BluRaf</title>
<ellipse fill="none" stroke="#000000" cx="59.7947" cy="-190" rx="42.4939" ry="18"/>
<text text-anchor="middle" x="59.7947" y="-186.3" font-family="Times,serif" font-size="14.00" fill="#000000">BluRaf</text>
</g>
<!-- BluRaf&#45;&#45;Infrastruktura#t.me/hakierspejs_spam -->
<g id="edge44" class="edge">
<title>BluRaf&#45;&#45;Infrastruktura#t.me/hakierspejs_spam</title>
<path fill="none" stroke="#2bd500" d="M102.1109,-188C190.3843,-188 386.0381,-188 386.0381,-188 386.0381,-188 386.0381,-210.7444 386.0381,-223.8936"/>
</g>
<!-- BluRaf&#45;&#45;Infrastruktura#t.me/hakierspejs -->
<g id="edge45" class="edge">
<title>BluRaf&#45;&#45;Infrastruktura#t.me/hakierspejs</title>
<path fill="none" stroke="#2bd500" d="M99.7563,-196C172.9384,-196 321.0381,-196 321.0381,-196 321.0381,-196 321.0381,-396 321.0381,-396 321.0381,-396 363.0566,-396 411.3123,-396"/>
</g>
<!-- BluRaf&#45;&#45;Infrastruktura#IRC -->
<g id="edge48" class="edge">
<title>BluRaf&#45;&#45;Infrastruktura#IRC</title>
<path fill="none" stroke="#2bd500" d="M101.957,-192C176.5601,-192 324.0381,-192 324.0381,-192 324.0381,-192 324.0381,-308.2 324.0381,-308.2 324.0381,-308.2 404.1607,-308.2 469.5733,-308.2"/>
</g>
<!-- BluRaf&#45;&#45;Infrastruktura#hs&#45;ldz&#45;offtopic:hackerspace.pl -->
<g id="edge46" class="edge">
<title>BluRaf&#45;&#45;Infrastruktura#hs&#45;ldz&#45;offtopic:hackerspace.pl</title>
<path fill="none" stroke="#2bd500" d="M86.378,-176C155.7697,-176 337.0381,-176 337.0381,-176 337.0381,-176 337.0381,-88.7375 337.0381,-66.2401"/>
</g>
<!-- BluRaf&#45;&#45;Infrastruktura#hs&#45;ldz:hackerspace.pl -->
<g id="edge49" class="edge">
<title>BluRaf&#45;&#45;Infrastruktura#hs&#45;ldz:hackerspace.pl</title>
<path fill="none" stroke="#2bd500" d="M95.1513,-180C177.6739,-180 376.0381,-180 376.0381,-180 376.0381,-180 376.0381,-162.2029 376.0381,-152.7482"/>
</g>
<!-- BluRaf&#45;&#45;Infrastruktura#Konto na Fejsie -->
<g id="edge47" class="edge">
<title>BluRaf&#45;&#45;Infrastruktura#Konto na Fejsie</title>
<path fill="none" stroke="#2bd500" d="M99.7229,-184C165.3428,-184 299.2127,-184 404.507,-184"/>
</g>
<!-- Infrastruktura#Mumble -->
<g id="node32" class="node">
<title>Infrastruktura#Mumble</title>
<ellipse fill="none" stroke="#000000" cx="552.8137" cy="-104" rx="124.2781" ry="18"/>
<text text-anchor="middle" x="552.8137" y="-100.3" font-family="Times,serif" font-size="14.00" fill="#000000">Infrastruktura#Mumble</text>
</g>
<!-- BluRaf&#45;&#45;Infrastruktura#Mumble -->
<g id="edge43" class="edge">
<title>BluRaf&#45;&#45;Infrastruktura#Mumble</title>
<path fill="none" stroke="#2bd500" d="M46.0381,-172.5966C46.0381,-147.4672 46.0381,-104 46.0381,-104 46.0381,-104 278.4769,-104 428.5181,-104"/>
</g>
<!-- kpc21 -->
<g id="node33" class="node">
<title>kpc21</title>
<ellipse fill="none" stroke="#000000" cx="59.7947" cy="-233" rx="39.7935" ry="18"/>
<text text-anchor="middle" x="59.7947" y="-229.3" font-family="Times,serif" font-size="14.00" fill="#000000">kpc21</text>
</g>
<!-- kpc21&#45;&#45;Infrastruktura#t.me/hakierspejs_spam -->
<g id="edge50" class="edge">
<title>kpc21&#45;&#45;Infrastruktura#t.me/hakierspejs_spam</title>
<path fill="none" stroke="#0061f2" d="M99.7229,-233C156.2878,-233 263.5666,-233 359.5399,-233"/>
</g>
<!-- thinkofher -->
<g id="node34" class="node">
<title>thinkofher</title>
<ellipse fill="none" stroke="#000000" cx="59.7947" cy="-319" rx="59.5901" ry="18"/>
<text text-anchor="middle" x="59.7947" y="-315.3" font-family="Times,serif" font-size="14.00" fill="#000000">thinkofher</text>
</g>
<!-- thinkofher&#45;&#45;Infrastruktura#Forum -->
<g id="edge52" class="edge">
<title>thinkofher&#45;&#45;Infrastruktura#Forum</title>
<path fill="none" stroke="#c60077" d="M118.6266,-322.6C189.4643,-322.6 299.0381,-322.6 299.0381,-322.6 299.0381,-322.6 299.0381,-694 299.0381,-694 299.0381,-694 392.3706,-694 465.8336,-694"/>
</g>
<!-- thinkofher&#45;&#45;Infrastruktura#Hosting -->
<g id="edge53" class="edge">
<title>thinkofher&#45;&#45;Infrastruktura#Hosting</title>
<path fill="none" stroke="#c60077" d="M118.4425,-315.4C193.5267,-315.4 314.0381,-315.4 314.0381,-315.4 314.0381,-315.4 314.0381,-607.1429 314.0381,-607.1429 314.0381,-607.1429 398.2158,-607.1429 466.6102,-607.1429"/>
</g>
<!-- thinkofher&#45;&#45;Infrastruktura#hs&#45;ldz&#45;offtopic:hackerspace.pl -->
<g id="edge51" class="edge">
<title>thinkofher&#45;&#45;Infrastruktura#hs&#45;ldz&#45;offtopic:hackerspace.pl</title>
<path fill="none" stroke="#c60077" d="M113.0381,-310.7153C113.0381,-267.51 113.0381,-70 113.0381,-70 113.0381,-70 239.9074,-70 357.3606,-70"/>
</g>
<!-- thinkofher&#45;&#45;Infrastruktura#hs&#45;ldz:hackerspace.pl -->
<g id="edge54" class="edge">
<title>thinkofher&#45;&#45;Infrastruktura#hs&#45;ldz:hackerspace.pl</title>
<path fill="none" stroke="#c60077" d="M115.0381,-311.8672C115.0381,-280.0938 115.0381,-153 115.0381,-153 115.0381,-153 254.9996,-153 376.6459,-153"/>
</g>
<!-- kpc -->
<g id="node35" class="node">
<title>kpc</title>
<ellipse fill="none" stroke="#000000" cx="59.7947" cy="-620" rx="27.8951" ry="18"/>
<text text-anchor="middle" x="59.7947" y="-616.3" font-family="Times,serif" font-size="14.00" fill="#000000">kpc</text>
</g>
<!-- kpc&#45;&#45;Infrastruktura#Hosting -->
<g id="edge55" class="edge">
<title>kpc&#45;&#45;Infrastruktura#Hosting</title>
<path fill="none" stroke="#b6e400" d="M87.7141,-622.5714C152.4911,-622.5714 316.2186,-622.5714 430.9933,-622.5714"/>
</g>
</g>
</svg>
