<?xml version="1.0" encoding="UTF-8" standalone="no"?>
<!DOCTYPE svg PUBLIC "-//W3C//DTD SVG 1.1//EN"
 "http://www.w3.org/Graphics/SVG/1.1/DTD/svg11.dtd">
<!-- Generated by graphviz version 2.42.4 (0)
 -->
<!-- Pages: 1 -->
<svg width="1001pt" height="1452pt"
 viewBox="0.00 0.00 1000.82 1452.00" xmlns="http://www.w3.org/2000/svg" xmlns:xlink="http://www.w3.org/1999/xlink">
<g id="graph0" class="graph" transform="scale(1 1) rotate(0) translate(4 1448)">
<polygon fill="white" stroke="transparent" points="-4,4 -4,-1448 996.82,-1448 996.82,4 -4,4"/>
<!-- kujaw -->
<g id="node1" class="node">
<title>kujaw</title>
<ellipse fill="none" stroke="black" cx="71.49" cy="-835" rx="38.19" ry="18"/>
<text text-anchor="middle" x="71.49" y="-831.3" font-family="Times,serif" font-size="14.00">kujaw</text>
</g>
<!-- Marketing&#45;i&#45;media&#45;spoecznociowe#Logo nr. 2 -->
<g id="node2" class="node">
<title>Marketing&#45;i&#45;media&#45;spoecznociowe#Logo nr. 2</title>
<ellipse fill="none" stroke="black" cx="639.91" cy="-921" rx="229.36" ry="18"/>
<text text-anchor="middle" x="639.91" y="-917.3" font-family="Times,serif" font-size="14.00">Marketing&#45;i&#45;media&#45;spoecznociowe#Logo nr. 2</text>
</g>
<!-- kujaw&#45;&#45;Marketing&#45;i&#45;media&#45;spoecznociowe#Logo nr. 2 -->
<g id="edge1" class="edge">
<title>kujaw&#45;&#45;Marketing&#45;i&#45;media&#45;spoecznociowe#Logo nr. 2</title>
<path fill="none" stroke="#ff0000" d="M107.8,-841C195.91,-841 413.82,-841 413.82,-841 413.82,-841 413.82,-902.25 413.82,-917.56"/>
</g>
<!-- Marketing&#45;i&#45;media&#45;spoecznociowe#Naklejki -->
<g id="node3" class="node">
<title>Marketing&#45;i&#45;media&#45;spoecznociowe#Naklejki</title>
<ellipse fill="none" stroke="black" cx="639.91" cy="-878" rx="221.76" ry="18"/>
<text text-anchor="middle" x="639.91" y="-874.3" font-family="Times,serif" font-size="14.00">Marketing&#45;i&#45;media&#45;spoecznociowe#Naklejki</text>
</g>
<!-- kujaw&#45;&#45;Marketing&#45;i&#45;media&#45;spoecznociowe#Naklejki -->
<g id="edge2" class="edge">
<title>kujaw&#45;&#45;Marketing&#45;i&#45;media&#45;spoecznociowe#Naklejki</title>
<path fill="none" stroke="#ff0000" d="M110.06,-835C203.01,-835 431.82,-835 431.82,-835 431.82,-835 431.82,-859.69 431.82,-871.66"/>
</g>
<!-- Miejsce::Miejsce#Klucze do spejsu -->
<g id="node4" class="node">
<title>Miejsce::Miejsce#Klucze do spejsu</title>
<ellipse fill="none" stroke="black" cx="639.91" cy="-964" rx="172.77" ry="18"/>
<text text-anchor="middle" x="639.91" y="-960.3" font-family="Times,serif" font-size="14.00">Miejsce::Miejsce#Klucze do spejsu</text>
</g>
<!-- kujaw&#45;&#45;Miejsce::Miejsce#Klucze do spejsu -->
<g id="edge3" class="edge">
<title>kujaw&#45;&#45;Miejsce::Miejsce#Klucze do spejsu</title>
<path fill="none" stroke="#ff0000" d="M100.44,-847C166.72,-847 323.82,-847 323.82,-847 323.82,-847 323.82,-952 323.82,-952 323.82,-952 423.49,-952 510.89,-952"/>
</g>
<!-- Marketing&#45;i&#45;media&#45;spoecznociowe# -->
<g id="node5" class="node">
<title>Marketing&#45;i&#45;media&#45;spoecznociowe#</title>
<ellipse fill="none" stroke="black" cx="639.91" cy="-534" rx="183.07" ry="18"/>
<text text-anchor="middle" x="639.91" y="-530.3" font-family="Times,serif" font-size="14.00">Marketing&#45;i&#45;media&#45;spoecznociowe#</text>
</g>
<!-- kujaw&#45;&#45;Marketing&#45;i&#45;media&#45;spoecznociowe# -->
<g id="edge4" class="edge">
<title>kujaw&#45;&#45;Marketing&#45;i&#45;media&#45;spoecznociowe#</title>
<path fill="none" stroke="#ff0000" d="M100.19,-823C111.04,-823 120.82,-823 120.82,-823 120.82,-823 120.82,-545.45 120.82,-545.45 120.82,-545.45 344.71,-545.45 498.41,-545.45"/>
</g>
<!-- kpc -->
<g id="node6" class="node">
<title>kpc</title>
<ellipse fill="none" stroke="black" cx="71.49" cy="-448" rx="27" ry="18"/>
<text text-anchor="middle" x="71.49" y="-444.3" font-family="Times,serif" font-size="14.00">kpc</text>
</g>
<!-- kpc&#45;&#45;Miejsce::Miejsce#Klucze do spejsu -->
<g id="edge7" class="edge">
<title>kpc&#45;&#45;Miejsce::Miejsce#Klucze do spejsu</title>
<path fill="none" stroke="#2bd500" d="M93.28,-458.8C127.96,-458.8 191.82,-458.8 191.82,-458.8 191.82,-458.8 191.82,-964 191.82,-964 191.82,-964 340.83,-964 466.99,-964"/>
</g>
<!-- kpc&#45;&#45;Marketing&#45;i&#45;media&#45;spoecznociowe# -->
<g id="edge8" class="edge">
<title>kpc&#45;&#45;Marketing&#45;i&#45;media&#45;spoecznociowe#</title>
<path fill="none" stroke="#2bd500" d="M98.11,-451.6C161.43,-451.6 315.82,-451.6 315.82,-451.6 315.82,-451.6 315.82,-529.09 315.82,-529.09 315.82,-529.09 387.33,-529.09 463.17,-529.09"/>
</g>
<!-- Infrastruktura::Telegram#posty: t.me/hakierspejs_spam -->
<g id="node7" class="node">
<title>Infrastruktura::Telegram#posty: t.me/hakierspejs_spam</title>
<ellipse fill="none" stroke="black" cx="639.91" cy="-491" rx="284.05" ry="18"/>
<text text-anchor="middle" x="639.91" y="-487.3" font-family="Times,serif" font-size="14.00">Infrastruktura::Telegram#posty: t.me/hakierspejs_spam</text>
</g>
<!-- kpc&#45;&#45;Infrastruktura::Telegram#posty: t.me/hakierspejs_spam -->
<g id="edge5" class="edge">
<title>kpc&#45;&#45;Infrastruktura::Telegram#posty: t.me/hakierspejs_spam</title>
<path fill="none" stroke="#2bd500" d="M97.99,-444.4C167.15,-444.4 347.82,-444.4 347.82,-444.4 347.82,-444.4 347.82,-497 347.82,-497 347.82,-497 356.85,-497 371.73,-497"/>
</g>
<!-- Infrastruktura::Telegram#Posty wyklte (celowo bez linka) -->
<g id="node8" class="node">
<title>Infrastruktura::Telegram#Posty wyklte (celowo bez linka)</title>
<ellipse fill="none" stroke="black" cx="639.91" cy="-448" rx="284.05" ry="18"/>
<text text-anchor="middle" x="639.91" y="-444.3" font-family="Times,serif" font-size="14.00">Infrastruktura::Telegram#Posty wyklte (celowo bez linka)</text>
</g>
<!-- kpc&#45;&#45;Infrastruktura::Telegram#Posty wyklte (celowo bez linka) -->
<g id="edge6" class="edge">
<title>kpc&#45;&#45;Infrastruktura::Telegram#Posty wyklte (celowo bez linka)</title>
<path fill="none" stroke="#2bd500" d="M93.43,-437.2C146.58,-437.2 287.11,-437.2 412.34,-437.2"/>
</g>
<!-- Piotrek_P -->
<g id="node9" class="node">
<title>Piotrek_P</title>
<ellipse fill="none" stroke="black" cx="71.49" cy="-1007" rx="55.49" ry="18"/>
<text text-anchor="middle" x="71.49" y="-1003.3" font-family="Times,serif" font-size="14.00">Piotrek_P</text>
</g>
<!-- Piotrek_P&#45;&#45;Miejsce::Miejsce#Klucze do spejsu -->
<g id="edge9" class="edge">
<title>Piotrek_P&#45;&#45;Miejsce::Miejsce#Klucze do spejsu</title>
<path fill="none" stroke="#0061f2" d="M126.82,-1007C253.52,-1007 553.82,-1007 553.82,-1007 553.82,-1007 553.82,-992.24 553.82,-980.01"/>
</g>
<!-- polimerek -->
<g id="node10" class="node">
<title>polimerek</title>
<ellipse fill="none" stroke="black" cx="71.49" cy="-964" rx="57.39" ry="18"/>
<text text-anchor="middle" x="71.49" y="-960.3" font-family="Times,serif" font-size="14.00">polimerek</text>
</g>
<!-- polimerek&#45;&#45;Miejsce::Miejsce#Klucze do spejsu -->
<g id="edge10" class="edge">
<title>polimerek&#45;&#45;Miejsce::Miejsce#Klucze do spejsu</title>
<path fill="none" stroke="#c60077" d="M114.22,-976C197.35,-976 383.84,-976 510.8,-976"/>
</g>
<!-- kotlovecrafta -->
<g id="node11" class="node">
<title>kotlovecrafta</title>
<ellipse fill="none" stroke="black" cx="71.49" cy="-878" rx="71.49" ry="18"/>
<text text-anchor="middle" x="71.49" y="-874.3" font-family="Times,serif" font-size="14.00">kotlovecrafta</text>
</g>
<!-- kotlovecrafta&#45;&#45;Miejsce::Miejsce#Klucze do spejsu -->
<g id="edge11" class="edge">
<title>kotlovecrafta&#45;&#45;Miejsce::Miejsce#Klucze do spejsu</title>
<path fill="none" stroke="#b6e400" d="M134.82,-886.49C134.82,-909.27 134.82,-970 134.82,-970 134.82,-970 329.05,-970 476.62,-970"/>
</g>
<!-- kotlovecrafta&#45;&#45;Marketing&#45;i&#45;media&#45;spoecznociowe# -->
<g id="edge12" class="edge">
<title>kotlovecrafta&#45;&#45;Marketing&#45;i&#45;media&#45;spoecznociowe#</title>
<path fill="none" stroke="#b6e400" d="M123.82,-865.49C123.82,-805.35 123.82,-548.73 123.82,-548.73 123.82,-548.73 383.24,-548.73 534.22,-548.73"/>
</g>
<!-- sp7adg -->
<g id="node12" class="node">
<title>sp7adg</title>
<ellipse fill="none" stroke="black" cx="71.49" cy="-921" rx="44.39" ry="18"/>
<text text-anchor="middle" x="71.49" y="-917.3" font-family="Times,serif" font-size="14.00">sp7adg</text>
</g>
<!-- sp7adg&#45;&#45;Miejsce::Miejsce#Klucze do spejsu -->
<g id="edge13" class="edge">
<title>sp7adg&#45;&#45;Miejsce::Miejsce#Klucze do spejsu</title>
<path fill="none" stroke="#00ffff" d="M115.85,-921C183.78,-921 305.82,-921 305.82,-921 305.82,-921 305.82,-958 305.82,-958 305.82,-958 391.98,-958 476.78,-958"/>
</g>
<!-- inoru -->
<g id="node13" class="node">
<title>inoru</title>
<ellipse fill="none" stroke="black" cx="71.49" cy="-1093" rx="35.19" ry="18"/>
<text text-anchor="middle" x="71.49" y="-1089.3" font-family="Times,serif" font-size="14.00">inoru</text>
</g>
<!-- inoru&#45;&#45;Miejsce::Miejsce#Klucze do spejsu -->
<g id="edge14" class="edge">
<title>inoru&#45;&#45;Miejsce::Miejsce#Klucze do spejsu</title>
<path fill="none" stroke="#ab00d5" d="M106.73,-1093C242.85,-1093 726.82,-1093 726.82,-1093 726.82,-1093 726.82,-1013.87 726.82,-979.56"/>
</g>
<!-- Octia -->
<g id="node14" class="node">
<title>Octia</title>
<ellipse fill="none" stroke="black" cx="71.49" cy="-1050" rx="35.19" ry="18"/>
<text text-anchor="middle" x="71.49" y="-1046.3" font-family="Times,serif" font-size="14.00">Octia</text>
</g>
<!-- Octia&#45;&#45;Miejsce::Miejsce#Klucze do spejsu -->
<g id="edge15" class="edge">
<title>Octia&#45;&#45;Miejsce::Miejsce#Klucze do spejsu</title>
<path fill="none" stroke="#f29100" d="M106.68,-1050C230.81,-1050 640.82,-1050 640.82,-1050 640.82,-1050 640.82,-1007.48 640.82,-982.24"/>
</g>
<!-- d33tah -->
<g id="node15" class="node">
<title>d33tah</title>
<ellipse fill="none" stroke="black" cx="71.49" cy="-620" rx="43.59" ry="18"/>
<text text-anchor="middle" x="71.49" y="-616.3" font-family="Times,serif" font-size="14.00">d33tah</text>
</g>
<!-- d33tah&#45;&#45;Marketing&#45;i&#45;media&#45;spoecznociowe# -->
<g id="edge23" class="edge">
<title>d33tah&#45;&#45;Marketing&#45;i&#45;media&#45;spoecznociowe#</title>
<path fill="none" stroke="#00c64f" d="M110.82,-612.25C110.82,-592.57 110.82,-542.18 110.82,-542.18 110.82,-542.18 321.06,-542.18 476.49,-542.18"/>
</g>
<!-- d33tah&#45;&#45;Infrastruktura::Telegram#posty: t.me/hakierspejs_spam -->
<g id="edge26" class="edge">
<title>d33tah&#45;&#45;Infrastruktura::Telegram#posty: t.me/hakierspejs_spam</title>
<path fill="none" stroke="#00c64f" d="M107.82,-630C189.94,-630 382.82,-630 382.82,-630 382.82,-630 382.82,-528.28 382.82,-498.87"/>
</g>
<!-- Infrastruktura::IRC#IRC -->
<g id="node16" class="node">
<title>Infrastruktura::IRC#IRC</title>
<ellipse fill="none" stroke="black" cx="639.91" cy="-190" rx="124.58" ry="18"/>
<text text-anchor="middle" x="639.91" y="-186.3" font-family="Times,serif" font-size="14.00">Infrastruktura::IRC#IRC</text>
</g>
<!-- d33tah&#45;&#45;Infrastruktura::IRC#IRC -->
<g id="edge16" class="edge">
<title>d33tah&#45;&#45;Infrastruktura::IRC#IRC</title>
<path fill="none" stroke="#00c64f" d="M99.08,-606C158.41,-606 292.82,-606 292.82,-606 292.82,-606 292.82,-196 292.82,-196 292.82,-196 421.3,-196 521.92,-196"/>
</g>
<!-- Infrastruktura::Github#Github -->
<g id="node17" class="node">
<title>Infrastruktura::Github#Github</title>
<ellipse fill="none" stroke="black" cx="639.91" cy="-362" rx="154.07" ry="18"/>
<text text-anchor="middle" x="639.91" y="-358.3" font-family="Times,serif" font-size="14.00">Infrastruktura::Github#Github</text>
</g>
<!-- d33tah&#45;&#45;Infrastruktura::Github#Github -->
<g id="edge17" class="edge">
<title>d33tah&#45;&#45;Infrastruktura::Github#Github</title>
<path fill="none" stroke="#00c64f" d="M114.93,-618C182.93,-618 306.82,-618 306.82,-618 306.82,-618 306.82,-374 306.82,-374 306.82,-374 428.54,-374 524.81,-374"/>
</g>
<!-- Infrastruktura::Mariuszbot#Mariuszbot -->
<g id="node18" class="node">
<title>Infrastruktura::Mariuszbot#Mariuszbot</title>
<ellipse fill="none" stroke="black" cx="639.91" cy="-835" rx="196.07" ry="18"/>
<text text-anchor="middle" x="639.91" y="-831.3" font-family="Times,serif" font-size="14.00">Infrastruktura::Mariuszbot#Mariuszbot</text>
</g>
<!-- d33tah&#45;&#45;Infrastruktura::Mariuszbot#Mariuszbot -->
<g id="edge18" class="edge">
<title>d33tah&#45;&#45;Infrastruktura::Mariuszbot#Mariuszbot</title>
<path fill="none" stroke="#00c64f" d="M112.87,-626C115.91,-626 117.82,-626 117.82,-626 117.82,-626 117.82,-829 117.82,-829 117.82,-829 304.61,-829 454.74,-829"/>
</g>
<!-- Drzwi&#45;frontowe#Ekran  -->
<g id="node19" class="node">
<title>Drzwi&#45;frontowe#Ekran </title>
<ellipse fill="none" stroke="black" cx="639.91" cy="-792" rx="120.78" ry="18"/>
<text text-anchor="middle" x="639.91" y="-788.3" font-family="Times,serif" font-size="14.00">Drzwi&#45;frontowe#Ekran </text>
</g>
<!-- d33tah&#45;&#45;Drzwi&#45;frontowe#Ekran  -->
<g id="edge19" class="edge">
<title>d33tah&#45;&#45;Drzwi&#45;frontowe#Ekran </title>
<path fill="none" stroke="black" d="M101.82,-632.93C101.82,-672.93 101.82,-792 101.82,-792 101.82,-792 360.14,-792 518.81,-792"/>
</g>
<!-- Bazy&#45;danych#Pad -->
<g id="node23" class="node">
<title>Bazy&#45;danych#Pad</title>
<ellipse fill="none" stroke="black" cx="639.91" cy="-706" rx="94.48" ry="18"/>
<text text-anchor="middle" x="639.91" y="-702.3" font-family="Times,serif" font-size="14.00">Bazy&#45;danych#Pad</text>
</g>
<!-- d33tah&#45;&#45;Bazy&#45;danych#Pad -->
<g id="edge20" class="edge">
<title>d33tah&#45;&#45;Bazy&#45;danych#Pad</title>
<path fill="none" stroke="#00c64f" d="M105.82,-631.24C105.82,-654.55 105.82,-706 105.82,-706 105.82,-706 392.33,-706 545.65,-706"/>
</g>
<!-- Infrastruktura::Telegram#Spacerspejs: t.me/joinchat/UYf2ONtNj21J1DS6 -->
<g id="node24" class="node">
<title>Infrastruktura::Telegram#Spacerspejs: t.me/joinchat/UYf2ONtNj21J1DS6</title>
<ellipse fill="none" stroke="black" cx="639.91" cy="-663" rx="352.84" ry="18"/>
<text text-anchor="middle" x="639.91" y="-659.3" font-family="Times,serif" font-size="14.00">Infrastruktura::Telegram#Spacerspejs: t.me/joinchat/UYf2ONtNj21J1DS6</text>
</g>
<!-- d33tah&#45;&#45;Infrastruktura::Telegram#Spacerspejs: t.me/joinchat/UYf2ONtNj21J1DS6 -->
<g id="edge21" class="edge">
<title>d33tah&#45;&#45;Infrastruktura::Telegram#Spacerspejs: t.me/joinchat/UYf2ONtNj21J1DS6</title>
<path fill="none" stroke="#00c64f" d="M107.82,-629.97C107.82,-642.68 107.82,-663 107.82,-663 107.82,-663 188.41,-663 286.85,-663"/>
</g>
<!-- Bazy&#45;danych#Trello -->
<g id="node25" class="node">
<title>Bazy&#45;danych#Trello</title>
<ellipse fill="none" stroke="black" cx="639.91" cy="-620" rx="103.98" ry="18"/>
<text text-anchor="middle" x="639.91" y="-616.3" font-family="Times,serif" font-size="14.00">Bazy&#45;danych#Trello</text>
</g>
<!-- d33tah&#45;&#45;Bazy&#45;danych#Trello -->
<g id="edge22" class="edge">
<title>d33tah&#45;&#45;Bazy&#45;danych#Trello</title>
<path fill="none" stroke="#00c64f" d="M98.91,-634C184.73,-634 449.9,-634 574.26,-634"/>
</g>
<!-- Infrastruktura::Domeny#Domeny -->
<g id="node26" class="node">
<title>Infrastruktura::Domeny#Domeny</title>
<ellipse fill="none" stroke="black" cx="639.91" cy="-749" rx="167.07" ry="18"/>
<text text-anchor="middle" x="639.91" y="-745.3" font-family="Times,serif" font-size="14.00">Infrastruktura::Domeny#Domeny</text>
</g>
<!-- d33tah&#45;&#45;Infrastruktura::Domeny#Domeny -->
<g id="edge24" class="edge">
<title>d33tah&#45;&#45;Infrastruktura::Domeny#Domeny</title>
<path fill="none" stroke="#00c64f" d="M103.82,-632.37C103.82,-664.66 103.82,-749 103.82,-749 103.82,-749 315.53,-749 472.86,-749"/>
</g>
<!-- Infrastruktura::Telegram#HS24: t.me/hsl_info -->
<g id="node27" class="node">
<title>Infrastruktura::Telegram#HS24: t.me/hsl_info</title>
<ellipse fill="none" stroke="black" cx="639.91" cy="-577" rx="231.26" ry="18"/>
<text text-anchor="middle" x="639.91" y="-573.3" font-family="Times,serif" font-size="14.00">Infrastruktura::Telegram#HS24: t.me/hsl_info</text>
</g>
<!-- d33tah&#45;&#45;Infrastruktura::Telegram#HS24: t.me/hsl_info -->
<g id="edge25" class="edge">
<title>d33tah&#45;&#45;Infrastruktura::Telegram#HS24: t.me/hsl_info</title>
<path fill="none" stroke="#00c64f" d="M112.82,-614.22C112.82,-603.81 112.82,-583 112.82,-583 112.82,-583 276.71,-583 421.72,-583"/>
</g>
<!-- Infrastruktura::Telegram#G贸wny: t.me/hakierspejs -->
<g id="node28" class="node">
<title>Infrastruktura::Telegram#G贸wny: t.me/hakierspejs</title>
<ellipse fill="none" stroke="black" cx="639.91" cy="-405" rx="251.56" ry="18"/>
<text text-anchor="middle" x="639.91" y="-401.3" font-family="Times,serif" font-size="14.00">Infrastruktura::Telegram#G贸wny: t.me/hakierspejs</text>
</g>
<!-- d33tah&#45;&#45;Infrastruktura::Telegram#G贸wny: t.me/hakierspejs -->
<g id="edge27" class="edge">
<title>d33tah&#45;&#45;Infrastruktura::Telegram#G贸wny: t.me/hakierspejs</title>
<path fill="none" stroke="#00c64f" d="M114.83,-622C183.8,-622 310.82,-622 310.82,-622 310.82,-622 310.82,-399 310.82,-399 310.82,-399 350.6,-399 402.49,-399"/>
</g>
<!-- Kanay&#45;komunikacji# -->
<g id="node29" class="node">
<title>Kanay&#45;komunikacji#</title>
<ellipse fill="none" stroke="black" cx="639.91" cy="-319" rx="108.58" ry="18"/>
<text text-anchor="middle" x="639.91" y="-315.3" font-family="Times,serif" font-size="14.00">Kanay&#45;komunikacji#</text>
</g>
<!-- d33tah&#45;&#45;Kanay&#45;komunikacji# -->
<g id="edge28" class="edge">
<title>d33tah&#45;&#45;Kanay&#45;komunikacji#</title>
<path fill="none" stroke="#00c64f" d="M112.67,-614C178.92,-614 301.82,-614 301.82,-614 301.82,-614 301.82,-325 301.82,-325 301.82,-325 438.05,-325 537.55,-325"/>
</g>
<!-- Bazy&#45;danych#Grafana -->
<g id="node30" class="node">
<title>Bazy&#45;danych#Grafana</title>
<ellipse fill="none" stroke="black" cx="639.91" cy="-276" rx="114.28" ry="18"/>
<text text-anchor="middle" x="639.91" y="-272.3" font-family="Times,serif" font-size="14.00">Bazy&#45;danych#Grafana</text>
</g>
<!-- d33tah&#45;&#45;Bazy&#45;danych#Grafana -->
<g id="edge29" class="edge">
<title>d33tah&#45;&#45;Bazy&#45;danych#Grafana</title>
<path fill="none" stroke="#00c64f" d="M107.86,-610C171.84,-610 297.82,-610 297.82,-610 297.82,-610 297.82,-276 297.82,-276 297.82,-276 425.67,-276 525.05,-276"/>
</g>
<!-- nastpne -->
<g id="node20" class="node">
<title>nastpne</title>
<ellipse fill="none" stroke="black" cx="71.49" cy="-1136" rx="53.09" ry="18"/>
<text text-anchor="middle" x="71.49" y="-1132.3" font-family="Times,serif" font-size="14.00">nastpne</text>
</g>
<!-- spotkanie -->
<g id="node21" class="node">
<title>spotkanie</title>
<ellipse fill="none" stroke="black" cx="71.49" cy="-1179" rx="55.79" ry="18"/>
<text text-anchor="middle" x="71.49" y="-1175.3" font-family="Times,serif" font-size="14.00">spotkanie</text>
</g>
<g id="node22" class="node">
<title></title>
<ellipse fill="none" stroke="#00c64f" cx="71.49" cy="-1222" rx="27" ry="18"/>
</g>
<!-- pmysl -->
<g id="node31" class="node">
<title>pmysl</title>
<ellipse fill="none" stroke="black" cx="71.49" cy="-276" rx="38.19" ry="18"/>
<text text-anchor="middle" x="71.49" y="-272.3" font-family="Times,serif" font-size="14.00">pmysl</text>
</g>
<!-- pmysl&#45;&#45;Infrastruktura::IRC#IRC -->
<g id="edge30" class="edge">
<title>pmysl&#45;&#45;Infrastruktura::IRC#IRC</title>
<path fill="none" stroke="#2e00e4" d="M100.16,-264C198.89,-264 518.82,-264 518.82,-264 518.82,-264 518.82,-210.34 518.82,-194.41"/>
</g>
<!-- pmysl&#45;&#45;Infrastruktura::Github#Github -->
<g id="edge33" class="edge">
<title>pmysl&#45;&#45;Infrastruktura::Github#Github</title>
<path fill="none" stroke="#2e00e4" d="M107.73,-282C211.23,-282 500.82,-282 500.82,-282 500.82,-282 500.82,-333.8 500.82,-354.04"/>
</g>
<!-- pmysl&#45;&#45;Kanay&#45;komunikacji# -->
<g id="edge31" class="edge">
<title>pmysl&#45;&#45;Kanay&#45;komunikacji#</title>
<path fill="none" stroke="#2e00e4" d="M100.1,-288C169.07,-288 338.82,-288 338.82,-288 338.82,-288 338.82,-313 338.82,-313 338.82,-313 450.27,-313 537.55,-313"/>
</g>
<!-- pmysl&#45;&#45;Bazy&#45;danych#Grafana -->
<g id="edge34" class="edge">
<title>pmysl&#45;&#45;Bazy&#45;danych#Grafana</title>
<path fill="none" stroke="#2e00e4" d="M107.92,-270C192.02,-270 402.46,-270 532.04,-270"/>
</g>
<!-- Bazy&#45;danych# -->
<g id="node32" class="node">
<title>Bazy&#45;danych#</title>
<ellipse fill="none" stroke="black" cx="639.91" cy="-233" rx="77.19" ry="18"/>
<text text-anchor="middle" x="639.91" y="-229.3" font-family="Times,serif" font-size="14.00">Bazy&#45;danych#</text>
</g>
<!-- pmysl&#45;&#45;Bazy&#45;danych# -->
<g id="edge32" class="edge">
<title>pmysl&#45;&#45;Bazy&#45;danych#</title>
<path fill="none" stroke="#2e00e4" d="M71.82,-257.75C71.82,-243.82 71.82,-227 71.82,-227 71.82,-227 413.37,-227 566.8,-227"/>
</g>
<!-- thinkofher -->
<g id="node33" class="node">
<title>thinkofher</title>
<ellipse fill="none" stroke="black" cx="71.49" cy="-319" rx="59.29" ry="18"/>
<text text-anchor="middle" x="71.49" y="-315.3" font-family="Times,serif" font-size="14.00">thinkofher</text>
</g>
<!-- thinkofher&#45;&#45;Marketing&#45;i&#45;media&#45;spoecznociowe# -->
<g id="edge38" class="edge">
<title>thinkofher&#45;&#45;Marketing&#45;i&#45;media&#45;spoecznociowe#</title>
<path fill="none" stroke="#ff0000" d="M108.78,-333C180.32,-333 329.82,-333 329.82,-333 329.82,-333 329.82,-519.27 329.82,-519.27 329.82,-519.27 444.6,-519.27 534.49,-519.27"/>
</g>
<!-- thinkofher&#45;&#45;Infrastruktura::IRC#IRC -->
<g id="edge35" class="edge">
<title>thinkofher&#45;&#45;Infrastruktura::IRC#IRC</title>
<path fill="none" stroke="#ff0000" d="M121.09,-309C238.33,-309 522.82,-309 522.82,-309 522.82,-309 522.82,-221.12 522.82,-196.4"/>
</g>
<!-- thinkofher&#45;&#45;Infrastruktura::Github#Github -->
<g id="edge36" class="edge">
<title>thinkofher&#45;&#45;Infrastruktura::Github#Github</title>
<path fill="none" stroke="#ff0000" d="M120.82,-329.15C120.82,-338.19 120.82,-350 120.82,-350 120.82,-350 372.13,-350 525.03,-350"/>
</g>
<!-- thinkofher&#45;&#45;Infrastruktura::Telegram#G贸wny: t.me/hakierspejs -->
<g id="edge39" class="edge">
<title>thinkofher&#45;&#45;Infrastruktura::Telegram#G贸wny: t.me/hakierspejs</title>
<path fill="none" stroke="#ff0000" d="M120.9,-329C220.89,-329 437.82,-329 437.82,-329 437.82,-329 437.82,-373.1 437.82,-394.11"/>
</g>
<!-- thinkofher&#45;&#45;Kanay&#45;komunikacji# -->
<g id="edge40" class="edge">
<title>thinkofher&#45;&#45;Kanay&#45;komunikacji#</title>
<path fill="none" stroke="#ff0000" d="M130.45,-317C225.16,-317 412.64,-317 531.85,-317"/>
</g>
<!-- thinkofher&#45;&#45;Bazy&#45;danych# -->
<g id="edge37" class="edge">
<title>thinkofher&#45;&#45;Bazy&#45;danych#</title>
<path fill="none" stroke="#ff0000" d="M125.82,-311.62C125.82,-291.81 125.82,-239 125.82,-239 125.82,-239 424.87,-239 566.8,-239"/>
</g>
<!-- cytP450 -->
<g id="node34" class="node">
<title>cytP450</title>
<ellipse fill="none" stroke="black" cx="71.49" cy="-125" rx="48.99" ry="18"/>
<text text-anchor="middle" x="71.49" y="-121.3" font-family="Times,serif" font-size="14.00">cytP450</text>
</g>
<!-- cytP450&#45;&#45;Infrastruktura::Domeny#Domeny -->
<g id="edge43" class="edge">
<title>cytP450&#45;&#45;Infrastruktura::Domeny#Domeny</title>
<path fill="none" stroke="#2bd500" d="M100.56,-139.5C117.21,-139.5 134.82,-139.5 134.82,-139.5 134.82,-139.5 134.82,-737 134.82,-737 134.82,-737 365.82,-737 515.38,-737"/>
</g>
<!-- cytP450&#45;&#45;Kanay&#45;komunikacji# -->
<g id="edge45" class="edge">
<title>cytP450&#45;&#45;Kanay&#45;komunikacji#</title>
<path fill="none" stroke="#2bd500" d="M110.08,-136C184.99,-136 342.82,-136 342.82,-136 342.82,-136 342.82,-305 342.82,-305 342.82,-305 483.64,-305 571.38,-305"/>
</g>
<!-- Chciejlista#DIY -->
<g id="node35" class="node">
<title>Chciejlista#DIY</title>
<ellipse fill="none" stroke="black" cx="639.91" cy="-104" rx="83.69" ry="18"/>
<text text-anchor="middle" x="639.91" y="-100.3" font-family="Times,serif" font-size="14.00">Chciejlista#DIY</text>
</g>
<!-- cytP450&#45;&#45;Chciejlista#DIY -->
<g id="edge41" class="edge">
<title>cytP450&#45;&#45;Chciejlista#DIY</title>
<path fill="none" stroke="#2bd500" d="M115.62,-117C217.22,-117 467.66,-117 581.68,-117"/>
</g>
<!-- Przegld&#45;lokali&#45;na&#45;wynajem&#45;w&#45;odzi.&#45;Fundusz&#45;1000&#45;&#45;&#45;1500.#Bot Aleksego -->
<g id="node36" class="node">
<title>Przegld&#45;lokali&#45;na&#45;wynajem&#45;w&#45;odzi.&#45;Fundusz&#45;1000&#45;&#45;&#45;1500.#Bot Aleksego</title>
<ellipse fill="none" stroke="black" cx="639.91" cy="-61" rx="351.74" ry="18"/>
<text text-anchor="middle" x="639.91" y="-57.3" font-family="Times,serif" font-size="14.00">Przegld&#45;lokali&#45;na&#45;wynajem&#45;w&#45;odzi.&#45;Fundusz&#45;1000&#45;&#45;&#45;1500.#Bot Aleksego</text>
</g>
<!-- cytP450&#45;&#45;Przegld&#45;lokali&#45;na&#45;wynajem&#45;w&#45;odzi.&#45;Fundusz&#45;1000&#45;&#45;&#45;1500.#Bot Aleksego -->
<g id="edge42" class="edge">
<title>cytP450&#45;&#45;Przegld&#45;lokali&#45;na&#45;wynajem&#45;w&#45;odzi.&#45;Fundusz&#45;1000&#45;&#45;&#45;1500.#Bot Aleksego</title>
<path fill="none" stroke="#2bd500" d="M105.25,-112C176.1,-112 333.82,-112 333.82,-112 333.82,-112 333.82,-84.5 333.82,-69.88"/>
</g>
<!-- Chciejlista#Elektronika (w sensie urzdze konsumenckich) -->
<g id="node37" class="node">
<title>Chciejlista#Elektronika (w sensie urzdze konsumenckich)</title>
<ellipse fill="none" stroke="black" cx="639.91" cy="-18" rx="289.75" ry="18"/>
<text text-anchor="middle" x="639.91" y="-14.3" font-family="Times,serif" font-size="14.00">Chciejlista#Elektronika (w sensie urzdze konsumenckich)</text>
</g>
<!-- cytP450&#45;&#45;Chciejlista#Elektronika (w sensie urzdze konsumenckich) -->
<g id="edge44" class="edge">
<title>cytP450&#45;&#45;Chciejlista#Elektronika (w sensie urzdze konsumenckich)</title>
<path fill="none" stroke="#2bd500" d="M71.82,-106.85C71.82,-76.32 71.82,-18 71.82,-18 71.82,-18 209.71,-18 349.62,-18"/>
</g>
<!-- Zamek#Zamek -->
<g id="node38" class="node">
<title>Zamek#Zamek</title>
<ellipse fill="none" stroke="black" cx="639.91" cy="-147" rx="81.49" ry="18"/>
<text text-anchor="middle" x="639.91" y="-143.3" font-family="Times,serif" font-size="14.00">Zamek#Zamek</text>
</g>
<!-- cytP450&#45;&#45;Zamek#Zamek -->
<g id="edge46" class="edge">
<title>cytP450&#45;&#45;Zamek#Zamek</title>
<path fill="none" stroke="#2bd500" d="M116.1,-132.5C221.04,-132.5 482.91,-132.5 591.52,-132.5"/>
</g>
<!-- hslbridgebot -->
<g id="node39" class="node">
<title>hslbridgebot</title>
<ellipse fill="none" stroke="black" cx="71.49" cy="-1308" rx="69.59" ry="18"/>
<text text-anchor="middle" x="71.49" y="-1304.3" font-family="Times,serif" font-size="14.00">hslbridgebot</text>
</g>
<!-- Mostkowanie&#45;kana贸w#mautrix&#45;telegram (aktualnie u偶ywany) -->
<g id="node40" class="node">
<title>Mostkowanie&#45;kana贸w#mautrix&#45;telegram (aktualnie u偶ywany)</title>
<ellipse fill="none" stroke="black" cx="639.91" cy="-1276" rx="297.85" ry="18"/>
<text text-anchor="middle" x="639.91" y="-1272.3" font-family="Times,serif" font-size="14.00">Mostkowanie&#45;kana贸w#mautrix&#45;telegram (aktualnie u偶ywany)</text>
</g>
<!-- hslbridgebot&#45;&#45;Mostkowanie&#45;kana贸w#mautrix&#45;telegram (aktualnie u偶ywany) -->
<g id="edge47" class="edge">
<title>hslbridgebot&#45;&#45;Mostkowanie&#45;kana贸w#mautrix&#45;telegram (aktualnie u偶ywany)</title>
<path fill="none" stroke="#0061f2" d="M141.16,-1308C226.78,-1308 360.82,-1308 360.82,-1308 360.82,-1308 360.82,-1291.83 360.82,-1282.48"/>
</g>
<!-- telegrambot -->
<g id="node41" class="node">
<title>telegrambot</title>
<ellipse fill="none" stroke="black" cx="71.49" cy="-1265" rx="67.69" ry="18"/>
<text text-anchor="middle" x="71.49" y="-1261.3" font-family="Times,serif" font-size="14.00">telegrambot</text>
</g>
<!-- telegrambot&#45;&#45;Mostkowanie&#45;kana贸w#mautrix&#45;telegram (aktualnie u偶ywany) -->
<g id="edge48" class="edge">
<title>telegrambot&#45;&#45;Mostkowanie&#45;kana贸w#mautrix&#45;telegram (aktualnie u偶ywany)</title>
<path fill="none" stroke="#c60077" d="M135.87,-1270.5C190.66,-1270.5 273.42,-1270.5 356.14,-1270.5"/>
</g>
<!-- q3k -->
<g id="node42" class="node">
<title>q3k</title>
<ellipse fill="none" stroke="black" cx="71.49" cy="-749" rx="27.9" ry="18"/>
<text text-anchor="middle" x="71.49" y="-745.3" font-family="Times,serif" font-size="14.00">q3k</text>
</g>
<!-- q3k&#45;&#45;Marketing&#45;i&#45;media&#45;spoecznociowe#Logo nr. 2 -->
<g id="edge49" class="edge">
<title>q3k&#45;&#45;Marketing&#45;i&#45;media&#45;spoecznociowe#Logo nr. 2</title>
<path fill="none" stroke="#b6e400" d="M92.51,-761C167.27,-761 415.82,-761 415.82,-761 415.82,-761 415.82,-892.41 415.82,-917.04"/>
</g>
<!-- q3k&#45;&#45;Infrastruktura::Domeny#Domeny -->
<g id="edge51" class="edge">
<title>q3k&#45;&#45;Infrastruktura::Domeny#Domeny</title>
<path fill="none" stroke="#b6e400" d="M98.15,-755C165.69,-755 347.77,-755 482.29,-755"/>
</g>
<!-- q3k&#45;&#45;Kanay&#45;komunikacji# -->
<g id="edge50" class="edge">
<title>q3k&#45;&#45;Kanay&#45;komunikacji#</title>
<path fill="none" stroke="#b6e400" d="M98.11,-743C117.29,-743 139.82,-743 139.82,-743 139.82,-743 139.82,-321 139.82,-321 139.82,-321 385,-321 532.01,-321"/>
</g>
<!-- hakierspejs -->
<g id="node43" class="node">
<title>hakierspejs</title>
<ellipse fill="none" stroke="black" cx="71.49" cy="-1351" rx="63.89" ry="18"/>
<text text-anchor="middle" x="71.49" y="-1347.3" font-family="Times,serif" font-size="14.00">hakierspejs</text>
</g>
<!-- Regulamin_skadek# -->
<g id="node44" class="node">
<title>Regulamin_skadek#</title>
<ellipse fill="none" stroke="black" cx="639.91" cy="-1383" rx="107.78" ry="18"/>
<text text-anchor="middle" x="639.91" y="-1379.3" font-family="Times,serif" font-size="14.00">Regulamin_skadek#</text>
</g>
<!-- hakierspejs&#45;&#45;Regulamin_skadek# -->
<g id="edge52" class="edge">
<title>hakierspejs&#45;&#45;Regulamin_skadek#</title>
<path fill="none" stroke="#00ffff" d="M127.82,-1359.58C127.82,-1369.65 127.82,-1385 127.82,-1385 127.82,-1385 382.4,-1385 532.56,-1385"/>
</g>
<!-- Finanse#Pacenie skadek -->
<g id="node45" class="node">
<title>Finanse#Pacenie skadek</title>
<ellipse fill="none" stroke="black" cx="639.91" cy="-1340" rx="131.88" ry="18"/>
<text text-anchor="middle" x="639.91" y="-1336.3" font-family="Times,serif" font-size="14.00">Finanse#Pacenie skadek</text>
</g>
<!-- hakierspejs&#45;&#45;Finanse#Pacenie skadek -->
<g id="edge53" class="edge">
<title>hakierspejs&#45;&#45;Finanse#Pacenie skadek</title>
<path fill="none" stroke="#00ffff" d="M132.32,-1345.5C222.97,-1345.5 395.51,-1345.5 514.05,-1345.5"/>
</g>
<!-- biniu -->
<g id="node46" class="node">
<title>biniu</title>
<ellipse fill="none" stroke="black" cx="71.49" cy="-577" rx="34.39" ry="18"/>
<text text-anchor="middle" x="71.49" y="-573.3" font-family="Times,serif" font-size="14.00">biniu</text>
</g>
<!-- biniu&#45;&#45;Marketing&#45;i&#45;media&#45;spoecznociowe# -->
<g id="edge54" class="edge">
<title>biniu&#45;&#45;Marketing&#45;i&#45;media&#45;spoecznociowe#</title>
<path fill="none" stroke="#ab00d5" d="M104.25,-571C107.04,-571 108.82,-571 108.82,-571 108.82,-571 108.82,-538.91 108.82,-538.91 108.82,-538.91 308.89,-538.91 463.43,-538.91"/>
</g>
<!-- kszmigiel -->
<g id="node47" class="node">
<title>kszmigiel</title>
<ellipse fill="none" stroke="black" cx="71.49" cy="-405" rx="54.69" ry="18"/>
<text text-anchor="middle" x="71.49" y="-401.3" font-family="Times,serif" font-size="14.00">kszmigiel</text>
</g>
<!-- kszmigiel&#45;&#45;Marketing&#45;i&#45;media&#45;spoecznociowe#Naklejki -->
<g id="edge55" class="edge">
<title>kszmigiel&#45;&#45;Marketing&#45;i&#45;media&#45;spoecznociowe#Naklejki</title>
<path fill="none" stroke="#f29100" d="M112.24,-417C162.06,-417 239.82,-417 239.82,-417 239.82,-417 239.82,-878 239.82,-878 239.82,-878 325.91,-878 418.22,-878"/>
</g>
<!-- kszmigiel&#45;&#45;Marketing&#45;i&#45;media&#45;spoecznociowe# -->
<g id="edge56" class="edge">
<title>kszmigiel&#45;&#45;Marketing&#45;i&#45;media&#45;spoecznociowe#</title>
<path fill="none" stroke="#f29100" d="M123.16,-411C196.19,-411 320.82,-411 320.82,-411 320.82,-411 320.82,-525.82 320.82,-525.82 320.82,-525.82 398.12,-525.82 476.63,-525.82"/>
</g>
<!-- kszmigiel&#45;&#45;Infrastruktura::Telegram#posty: t.me/hakierspejs_spam -->
<g id="edge57" class="edge">
<title>kszmigiel&#45;&#45;Infrastruktura::Telegram#posty: t.me/hakierspejs_spam</title>
<path fill="none" stroke="#f29100" d="M126.21,-405C207.79,-405 351.82,-405 351.82,-405 351.82,-405 351.82,-485 351.82,-485 351.82,-485 359.4,-485 372.08,-485"/>
</g>
<!-- kszmigiel&#45;&#45;Infrastruktura::Github#Github -->
<g id="edge59" class="edge">
<title>kszmigiel&#45;&#45;Infrastruktura::Github#Github</title>
<path fill="none" stroke="#f29100" d="M114.82,-393.7C114.82,-382.82 114.82,-368 114.82,-368 114.82,-368 338.94,-368 494.34,-368"/>
</g>
<!-- kszmigiel&#45;&#45;Infrastruktura::Telegram#G贸wny: t.me/hakierspejs -->
<g id="edge58" class="edge">
<title>kszmigiel&#45;&#45;Infrastruktura::Telegram#G贸wny: t.me/hakierspejs</title>
<path fill="none" stroke="#f29100" d="M112.37,-393C182.76,-393 330.97,-393 452.43,-393"/>
</g>
<!-- Keij0 -->
<g id="node48" class="node">
<title>Keij0</title>
<ellipse fill="none" stroke="black" cx="71.49" cy="-534" rx="34.39" ry="18"/>
<text text-anchor="middle" x="71.49" y="-530.3" font-family="Times,serif" font-size="14.00">Keij0</text>
</g>
<!-- Keij0&#45;&#45;Marketing&#45;i&#45;media&#45;spoecznociowe# -->
<g id="edge60" class="edge">
<title>Keij0&#45;&#45;Marketing&#45;i&#45;media&#45;spoecznociowe#</title>
<path fill="none" stroke="#00c64f" d="M106.19,-535.64C174.65,-535.64 331.37,-535.64 457.38,-535.64"/>
</g>
<!-- SP7Q -->
<g id="node49" class="node">
<title>SP7Q</title>
<ellipse fill="none" stroke="black" cx="71.49" cy="-362" rx="36.29" ry="18"/>
<text text-anchor="middle" x="71.49" y="-358.3" font-family="Times,serif" font-size="14.00">SP7Q</text>
</g>
<!-- SP7Q&#45;&#45;Marketing&#45;i&#45;media&#45;spoecznociowe# -->
<g id="edge62" class="edge">
<title>SP7Q&#45;&#45;Marketing&#45;i&#45;media&#45;spoecznociowe#</title>
<path fill="none" stroke="#2e00e4" d="M108.06,-362C178.21,-362 324.82,-362 324.82,-362 324.82,-362 324.82,-522.55 324.82,-522.55 324.82,-522.55 414.73,-522.55 498.49,-522.55"/>
</g>
<!-- SP7Q&#45;&#45;Infrastruktura::Github#Github -->
<g id="edge61" class="edge">
<title>SP7Q&#45;&#45;Infrastruktura::Github#Github</title>
<path fill="none" stroke="#2e00e4" d="M106.19,-356C181.58,-356 364.01,-356 494.58,-356"/>
</g>
<!-- Polimerek -->
<g id="node50" class="node">
<title>Polimerek</title>
<ellipse fill="none" stroke="black" cx="71.49" cy="-491" rx="57.39" ry="18"/>
<text text-anchor="middle" x="71.49" y="-487.3" font-family="Times,serif" font-size="14.00">Polimerek</text>
</g>
<!-- Polimerek&#45;&#45;Marketing&#45;i&#45;media&#45;spoecznociowe# -->
<g id="edge63" class="edge">
<title>Polimerek&#45;&#45;Marketing&#45;i&#45;media&#45;spoecznociowe#</title>
<path fill="none" stroke="#ff0000" d="M126.82,-495.74C126.82,-506.61 126.82,-532.36 126.82,-532.36 126.82,-532.36 309.79,-532.36 457.21,-532.36"/>
</g>
<!-- kasesag -->
<g id="node51" class="node">
<title>kasesag</title>
<ellipse fill="none" stroke="black" cx="71.49" cy="-1426" rx="48.19" ry="18"/>
<text text-anchor="middle" x="71.49" y="-1422.3" font-family="Times,serif" font-size="14.00">kasesag</text>
</g>
<!-- Marketing&#45;i&#45;media&#45;spoecznociowe#Przycisk HS&#45;LDZ -->
<g id="node52" class="node">
<title>Marketing&#45;i&#45;media&#45;spoecznociowe#Przycisk HS&#45;LDZ</title>
<ellipse fill="none" stroke="black" cx="639.91" cy="-1426" rx="261.85" ry="18"/>
<text text-anchor="middle" x="639.91" y="-1422.3" font-family="Times,serif" font-size="14.00">Marketing&#45;i&#45;media&#45;spoecznociowe#Przycisk HS&#45;LDZ</text>
</g>
<!-- kasesag&#45;&#45;Marketing&#45;i&#45;media&#45;spoecznociowe#Przycisk HS&#45;LDZ -->
<g id="edge64" class="edge">
<title>kasesag&#45;&#45;Marketing&#45;i&#45;media&#45;spoecznociowe#Przycisk HS&#45;LDZ</title>
<path fill="none" stroke="#2bd500" d="M119.96,-1426C177.95,-1426 279.55,-1426 377.64,-1426"/>
</g>
<!-- BluRaf -->
<g id="node53" class="node">
<title>BluRaf</title>
<ellipse fill="none" stroke="black" cx="71.49" cy="-190" rx="42.49" ry="18"/>
<text text-anchor="middle" x="71.49" y="-186.3" font-family="Times,serif" font-size="14.00">BluRaf</text>
</g>
<!-- BluRaf&#45;&#45;Infrastruktura::IRC#IRC -->
<g id="edge65" class="edge">
<title>BluRaf&#45;&#45;Infrastruktura::IRC#IRC</title>
<path fill="none" stroke="#0061f2" d="M111.46,-184C195.61,-184 393.84,-184 522.15,-184"/>
</g>
</g>
</svg>
