<?xml version="1.0" encoding="UTF-8" standalone="no"?>
<!DOCTYPE svg PUBLIC "-//W3C//DTD SVG 1.1//EN"
 "http://www.w3.org/Graphics/SVG/1.1/DTD/svg11.dtd">
<!-- Generated by graphviz version 2.42.4 (0)
 -->
<!-- Pages: 1 -->
<svg width="1001pt" height="1441pt"
 viewBox="0.00 0.00 1000.82 1441.00" xmlns="http://www.w3.org/2000/svg" xmlns:xlink="http://www.w3.org/1999/xlink">
<g id="graph0" class="graph" transform="scale(1 1) rotate(0) translate(4 1437)">
<polygon fill="white" stroke="transparent" points="-4,4 -4,-1437 996.82,-1437 996.82,4 -4,4"/>
<!-- hakierspejs -->
<g id="node1" class="node">
<title>hakierspejs</title>
<ellipse fill="none" stroke="black" cx="71.49" cy="-39" rx="63.89" ry="18"/>
<text text-anchor="middle" x="71.49" y="-35.3" font-family="Times,serif" font-size="14.00">hakierspejs</text>
</g>
<!-- Finanse#Płacenie składek -->
<g id="node2" class="node">
<title>Finanse#Płacenie składek</title>
<ellipse fill="none" stroke="black" cx="639.91" cy="-61" rx="131.88" ry="18"/>
<text text-anchor="middle" x="639.91" y="-57.3" font-family="Times,serif" font-size="14.00">Finanse#Płacenie składek</text>
</g>
<!-- hakierspejs&#45;&#45;Finanse#Płacenie składek -->
<g id="edge1" class="edge">
<title>hakierspejs&#45;&#45;Finanse#Płacenie składek</title>
<path fill="none" stroke="#ff0000" d="M121.94,-50C214.38,-50 412.71,-50 535.36,-50"/>
</g>
<!-- Regulamin_składek# -->
<g id="node3" class="node">
<title>Regulamin_składek#</title>
<ellipse fill="none" stroke="black" cx="639.91" cy="-18" rx="107.78" ry="18"/>
<text text-anchor="middle" x="639.91" y="-14.3" font-family="Times,serif" font-size="14.00">Regulamin_składek#</text>
</g>
<!-- hakierspejs&#45;&#45;Regulamin_składek# -->
<g id="edge2" class="edge">
<title>hakierspejs&#45;&#45;Regulamin_składek#</title>
<path fill="none" stroke="#ff0000" d="M123.44,-28.5C220.94,-28.5 432.29,-28.5 552.21,-28.5"/>
</g>
<!-- cytP450 -->
<g id="node4" class="node">
<title>cytP450</title>
<ellipse fill="none" stroke="black" cx="71.49" cy="-1157" rx="48.99" ry="18"/>
<text text-anchor="middle" x="71.49" y="-1153.3" font-family="Times,serif" font-size="14.00">cytP450</text>
</g>
<!-- Infrastruktura::Domeny#Domeny -->
<g id="node5" class="node">
<title>Infrastruktura::Domeny#Domeny</title>
<ellipse fill="none" stroke="black" cx="639.91" cy="-1114" rx="167.07" ry="18"/>
<text text-anchor="middle" x="639.91" y="-1110.3" font-family="Times,serif" font-size="14.00">Infrastruktura::Domeny#Domeny</text>
</g>
<!-- cytP450&#45;&#45;Infrastruktura::Domeny#Domeny -->
<g id="edge3" class="edge">
<title>cytP450&#45;&#45;Infrastruktura::Domeny#Domeny</title>
<path fill="none" stroke="#2bd500" d="M113.82,-1148.07C113.82,-1137.99 113.82,-1123 113.82,-1123 113.82,-1123 339.38,-1123 495.11,-1123"/>
</g>
<!-- Kanały&#45;komunikacji# -->
<g id="node6" class="node">
<title>Kanały&#45;komunikacji#</title>
<ellipse fill="none" stroke="black" cx="639.91" cy="-1028" rx="108.58" ry="18"/>
<text text-anchor="middle" x="639.91" y="-1024.3" font-family="Times,serif" font-size="14.00">Kanały&#45;komunikacji#</text>
</g>
<!-- cytP450&#45;&#45;Kanały&#45;komunikacji# -->
<g id="edge4" class="edge">
<title>cytP450&#45;&#45;Kanały&#45;komunikacji#</title>
<path fill="none" stroke="#2bd500" d="M110.82,-1146.2C110.82,-1117.24 110.82,-1040 110.82,-1040 110.82,-1040 410.76,-1040 558.97,-1040"/>
</g>
<!-- Zamek#Zamek -->
<g id="node7" class="node">
<title>Zamek#Zamek</title>
<ellipse fill="none" stroke="black" cx="639.91" cy="-1243" rx="81.49" ry="18"/>
<text text-anchor="middle" x="639.91" y="-1239.3" font-family="Times,serif" font-size="14.00">Zamek#Zamek</text>
</g>
<!-- cytP450&#45;&#45;Zamek#Zamek -->
<g id="edge5" class="edge">
<title>cytP450&#45;&#45;Zamek#Zamek</title>
<path fill="none" stroke="#2bd500" d="M119.37,-1160.6C191.54,-1160.6 319.82,-1160.6 319.82,-1160.6 319.82,-1160.6 319.82,-1243 319.82,-1243 319.82,-1243 463.48,-1243 558.31,-1243"/>
</g>
<!-- Chciejlista#DIY -->
<g id="node8" class="node">
<title>Chciejlista#DIY</title>
<ellipse fill="none" stroke="black" cx="639.91" cy="-1200" rx="83.69" ry="18"/>
<text text-anchor="middle" x="639.91" y="-1196.3" font-family="Times,serif" font-size="14.00">Chciejlista#DIY</text>
</g>
<!-- cytP450&#45;&#45;Chciejlista#DIY -->
<g id="edge6" class="edge">
<title>cytP450&#45;&#45;Chciejlista#DIY</title>
<path fill="none" stroke="#2bd500" d="M119.49,-1153.4C195.44,-1153.4 334.82,-1153.4 334.82,-1153.4 334.82,-1153.4 334.82,-1200 334.82,-1200 334.82,-1200 465.43,-1200 555.73,-1200"/>
</g>
<!-- Chciejlista#Elektronika (w sensie urządzeń konsumenckich) -->
<g id="node9" class="node">
<title>Chciejlista#Elektronika (w sensie urządzeń konsumenckich)</title>
<ellipse fill="none" stroke="black" cx="639.91" cy="-1157" rx="289.75" ry="18"/>
<text text-anchor="middle" x="639.91" y="-1153.3" font-family="Times,serif" font-size="14.00">Chciejlista#Elektronika (w sensie urządzeń konsumenckich)</text>
</g>
<!-- cytP450&#45;&#45;Chciejlista#Elektronika (w sensie urządzeń konsumenckich) -->
<g id="edge7" class="edge">
<title>cytP450&#45;&#45;Chciejlista#Elektronika (w sensie urządzeń konsumenckich)</title>
<path fill="none" stroke="#2bd500" d="M110.56,-1146.2C171.95,-1146.2 295.61,-1146.2 407.98,-1146.2"/>
</g>
<!-- Przegląd&#45;lokali&#45;na&#45;wynajem&#45;w&#45;Łodzi.&#45;Fundusz&#45;1000&#45;&#45;&#45;1500.#Bot Aleksego -->
<g id="node10" class="node">
<title>Przegląd&#45;lokali&#45;na&#45;wynajem&#45;w&#45;Łodzi.&#45;Fundusz&#45;1000&#45;&#45;&#45;1500.#Bot Aleksego</title>
<ellipse fill="none" stroke="black" cx="639.91" cy="-1286" rx="351.74" ry="18"/>
<text text-anchor="middle" x="639.91" y="-1282.3" font-family="Times,serif" font-size="14.00">Przegląd&#45;lokali&#45;na&#45;wynajem&#45;w&#45;Łodzi.&#45;Fundusz&#45;1000&#45;&#45;&#45;1500.#Bot Aleksego</text>
</g>
<!-- cytP450&#45;&#45;Przegląd&#45;lokali&#45;na&#45;wynajem&#45;w&#45;Łodzi.&#45;Fundusz&#45;1000&#45;&#45;&#45;1500.#Bot Aleksego -->
<g id="edge8" class="edge">
<title>cytP450&#45;&#45;Przegląd&#45;lokali&#45;na&#45;wynajem&#45;w&#45;Łodzi.&#45;Fundusz&#45;1000&#45;&#45;&#45;1500.#Bot Aleksego</title>
<path fill="none" stroke="#2bd500" d="M110.64,-1167.8C176.86,-1167.8 303.82,-1167.8 303.82,-1167.8 303.82,-1167.8 303.82,-1257.49 303.82,-1280.61"/>
</g>
<!-- d33tah -->
<g id="node11" class="node">
<title>d33tah</title>
<ellipse fill="none" stroke="black" cx="71.49" cy="-792" rx="43.59" ry="18"/>
<text text-anchor="middle" x="71.49" y="-788.3" font-family="Times,serif" font-size="14.00">d33tah</text>
</g>
<!-- d33tah&#45;&#45;Infrastruktura::Domeny#Domeny -->
<g id="edge10" class="edge">
<title>d33tah&#45;&#45;Infrastruktura::Domeny#Domeny</title>
<path fill="none" stroke="#0061f2" d="M101.82,-805.05C101.82,-864.29 101.82,-1105 101.82,-1105 101.82,-1105 335.63,-1105 495,-1105"/>
</g>
<!-- d33tah&#45;&#45;Kanały&#45;komunikacji# -->
<g id="edge11" class="edge">
<title>d33tah&#45;&#45;Kanały&#45;komunikacji#</title>
<path fill="none" stroke="#0061f2" d="M104.82,-803.7C104.82,-851.32 104.82,-1028 104.82,-1028 104.82,-1028 374.9,-1028 531.3,-1028"/>
</g>
<!-- Infrastruktura::Telegram#Główny: t.me/hakierspejs -->
<g id="node12" class="node">
<title>Infrastruktura::Telegram#Główny: t.me/hakierspejs</title>
<ellipse fill="none" stroke="black" cx="639.91" cy="-598" rx="251.56" ry="18"/>
<text text-anchor="middle" x="639.91" y="-594.3" font-family="Times,serif" font-size="14.00">Infrastruktura::Telegram#Główny: t.me/hakierspejs</text>
</g>
<!-- d33tah&#45;&#45;Infrastruktura::Telegram#Główny: t.me/hakierspejs -->
<g id="edge9" class="edge">
<title>d33tah&#45;&#45;Infrastruktura::Telegram#Główny: t.me/hakierspejs</title>
<path fill="none" stroke="#0061f2" d="M110.76,-784C207.94,-784 451.82,-784 451.82,-784 451.82,-784 451.82,-651.58 451.82,-610.2"/>
</g>
<!-- Infrastruktura::Mariuszbot#Mariuszbot -->
<g id="node13" class="node">
<title>Infrastruktura::Mariuszbot#Mariuszbot</title>
<ellipse fill="none" stroke="black" cx="639.91" cy="-1071" rx="196.07" ry="18"/>
<text text-anchor="middle" x="639.91" y="-1067.3" font-family="Times,serif" font-size="14.00">Infrastruktura::Mariuszbot#Mariuszbot</text>
</g>
<!-- d33tah&#45;&#45;Infrastruktura::Mariuszbot#Mariuszbot -->
<g id="edge12" class="edge">
<title>d33tah&#45;&#45;Infrastruktura::Mariuszbot#Mariuszbot</title>
<path fill="none" stroke="#0061f2" d="M103.82,-804.35C103.82,-858.34 103.82,-1071 103.82,-1071 103.82,-1071 290.34,-1071 443.33,-1071"/>
</g>
<!-- Bazy&#45;danych#Pad -->
<g id="node14" class="node">
<title>Bazy&#45;danych#Pad</title>
<ellipse fill="none" stroke="black" cx="639.91" cy="-985" rx="94.48" ry="18"/>
<text text-anchor="middle" x="639.91" y="-981.3" font-family="Times,serif" font-size="14.00">Bazy&#45;danych#Pad</text>
</g>
<!-- d33tah&#45;&#45;Bazy&#45;danych#Pad -->
<g id="edge13" class="edge">
<title>d33tah&#45;&#45;Bazy&#45;danych#Pad</title>
<path fill="none" stroke="#0061f2" d="M106.82,-802.65C106.82,-843.11 106.82,-985 106.82,-985 106.82,-985 392.41,-985 545.52,-985"/>
</g>
<!-- Infrastruktura::IRC#IRC -->
<g id="node15" class="node">
<title>Infrastruktura::IRC#IRC</title>
<ellipse fill="none" stroke="black" cx="639.91" cy="-684" rx="124.58" ry="18"/>
<text text-anchor="middle" x="639.91" y="-680.3" font-family="Times,serif" font-size="14.00">Infrastruktura::IRC#IRC</text>
</g>
<!-- d33tah&#45;&#45;Infrastruktura::IRC#IRC -->
<g id="edge14" class="edge">
<title>d33tah&#45;&#45;Infrastruktura::IRC#IRC</title>
<path fill="none" stroke="#0061f2" d="M91.45,-776C110.66,-776 136.82,-776 136.82,-776 136.82,-776 136.82,-693 136.82,-693 136.82,-693 383.82,-693 531.67,-693"/>
</g>
<!-- Infrastruktura::Github#Github -->
<g id="node16" class="node">
<title>Infrastruktura::Github#Github</title>
<ellipse fill="none" stroke="black" cx="639.91" cy="-555" rx="154.07" ry="18"/>
<text text-anchor="middle" x="639.91" y="-551.3" font-family="Times,serif" font-size="14.00">Infrastruktura::Github#Github</text>
</g>
<!-- d33tah&#45;&#45;Infrastruktura::Github#Github -->
<g id="edge15" class="edge">
<title>d33tah&#45;&#45;Infrastruktura::Github#Github</title>
<path fill="none" stroke="#0061f2" d="M104.24,-780C146.83,-780 215.82,-780 215.82,-780 215.82,-780 215.82,-567.86 215.82,-567.86 215.82,-567.86 406.43,-567.86 532.07,-567.86"/>
</g>
<!-- Infrastruktura::Telegram#HSŁ24: t.me/hsl_info -->
<g id="node17" class="node">
<title>Infrastruktura::Telegram#HSŁ24: t.me/hsl_info</title>
<ellipse fill="none" stroke="black" cx="639.91" cy="-942" rx="231.26" ry="18"/>
<text text-anchor="middle" x="639.91" y="-938.3" font-family="Times,serif" font-size="14.00">Infrastruktura::Telegram#HSŁ24: t.me/hsl_info</text>
</g>
<!-- d33tah&#45;&#45;Infrastruktura::Telegram#HSŁ24: t.me/hsl_info -->
<g id="edge16" class="edge">
<title>d33tah&#45;&#45;Infrastruktura::Telegram#HSŁ24: t.me/hsl_info</title>
<path fill="none" stroke="#0061f2" d="M108.82,-801.38C108.82,-834.22 108.82,-942 108.82,-942 108.82,-942 265.4,-942 408.51,-942"/>
</g>
<!-- Bazy&#45;danych#Trello -->
<g id="node18" class="node">
<title>Bazy&#45;danych#Trello</title>
<ellipse fill="none" stroke="black" cx="639.91" cy="-899" rx="103.98" ry="18"/>
<text text-anchor="middle" x="639.91" y="-895.3" font-family="Times,serif" font-size="14.00">Bazy&#45;danych#Trello</text>
</g>
<!-- d33tah&#45;&#45;Bazy&#45;danych#Trello -->
<g id="edge17" class="edge">
<title>d33tah&#45;&#45;Bazy&#45;danych#Trello</title>
<path fill="none" stroke="#0061f2" d="M111.82,-799.02C111.82,-822.83 111.82,-899 111.82,-899 111.82,-899 382.04,-899 535.89,-899"/>
</g>
<!-- Infrastruktura::Telegram#🦄posty: t.me/hakierspejs_spam -->
<g id="node19" class="node">
<title>Infrastruktura::Telegram#🦄posty: t.me/hakierspejs_spam</title>
<ellipse fill="none" stroke="black" cx="639.91" cy="-512" rx="284.05" ry="18"/>
<text text-anchor="middle" x="639.91" y="-508.3" font-family="Times,serif" font-size="14.00">Infrastruktura::Telegram#🦄posty: t.me/hakierspejs_spam</text>
</g>
<!-- d33tah&#45;&#45;Infrastruktura::Telegram#🦄posty: t.me/hakierspejs_spam -->
<g id="edge18" class="edge">
<title>d33tah&#45;&#45;Infrastruktura::Telegram#🦄posty: t.me/hakierspejs_spam</title>
<path fill="none" stroke="#0061f2" d="M107.84,-782C187.99,-782 372.82,-782 372.82,-782 372.82,-782 372.82,-558.34 372.82,-518.15"/>
</g>
<!-- Marketing&#45;i&#45;media&#45;społecznościowe# -->
<g id="node20" class="node">
<title>Marketing&#45;i&#45;media&#45;społecznościowe#</title>
<ellipse fill="none" stroke="black" cx="639.91" cy="-469" rx="183.07" ry="18"/>
<text text-anchor="middle" x="639.91" y="-465.3" font-family="Times,serif" font-size="14.00">Marketing&#45;i&#45;media&#45;społecznościowe#</text>
</g>
<!-- d33tah&#45;&#45;Marketing&#45;i&#45;media&#45;społecznościowe# -->
<g id="edge19" class="edge">
<title>d33tah&#45;&#45;Marketing&#45;i&#45;media&#45;społecznościowe#</title>
<path fill="none" stroke="#0061f2" d="M115.32,-791.5C151.81,-791.5 197.82,-791.5 197.82,-791.5 197.82,-791.5 197.82,-483.73 197.82,-483.73 197.82,-483.73 403.53,-483.73 534.3,-483.73"/>
</g>
<!-- Bazy&#45;danych#Grafana -->
<g id="node21" class="node">
<title>Bazy&#45;danych#Grafana</title>
<ellipse fill="none" stroke="black" cx="639.91" cy="-727" rx="114.28" ry="18"/>
<text text-anchor="middle" x="639.91" y="-723.3" font-family="Times,serif" font-size="14.00">Bazy&#45;danych#Grafana</text>
</g>
<!-- d33tah&#45;&#45;Bazy&#45;danych#Grafana -->
<g id="edge20" class="edge">
<title>d33tah&#45;&#45;Bazy&#45;danych#Grafana</title>
<path fill="none" stroke="#0061f2" d="M98.88,-778C117.52,-778 138.82,-778 138.82,-778 138.82,-778 138.82,-739.86 138.82,-739.86 138.82,-739.86 418.12,-739.86 559.68,-739.86"/>
</g>
<!-- Infrastruktura::Telegram#Spacerspejs: t.me/joinchat/UYf2ONtNj21J1DS6 -->
<g id="node22" class="node">
<title>Infrastruktura::Telegram#Spacerspejs: t.me/joinchat/UYf2ONtNj21J1DS6</title>
<ellipse fill="none" stroke="black" cx="639.91" cy="-813" rx="352.84" ry="18"/>
<text text-anchor="middle" x="639.91" y="-809.3" font-family="Times,serif" font-size="14.00">Infrastruktura::Telegram#Spacerspejs: t.me/joinchat/UYf2ONtNj21J1DS6</text>
</g>
<!-- d33tah&#45;&#45;Infrastruktura::Telegram#Spacerspejs: t.me/joinchat/UYf2ONtNj21J1DS6 -->
<g id="edge21" class="edge">
<title>d33tah&#45;&#45;Infrastruktura::Telegram#Spacerspejs: t.me/joinchat/UYf2ONtNj21J1DS6</title>
<path fill="none" stroke="#0061f2" d="M107.05,-802.5C157.66,-802.5 255.26,-802.5 353.24,-802.5"/>
</g>
<!-- Drzwi&#45;frontowe#Ekran  -->
<g id="node23" class="node">
<title>Drzwi&#45;frontowe#Ekran </title>
<ellipse fill="none" stroke="black" cx="639.91" cy="-770" rx="120.78" ry="18"/>
<text text-anchor="middle" x="639.91" y="-766.3" font-family="Times,serif" font-size="14.00">Drzwi&#45;frontowe#Ekran </text>
</g>
<!-- d33tah&#45;&#45;Drzwi&#45;frontowe#Ekran  -->
<g id="edge22" class="edge">
<title>d33tah&#45;&#45;Drzwi&#45;frontowe#Ekran </title>
<path fill="none" stroke="black" d="M112.83,-786C213.36,-786 470.69,-786 584.43,-786"/>
</g>
<!-- następne -->
<g id="node24" class="node">
<title>następne</title>
<ellipse fill="none" stroke="black" cx="71.49" cy="-1200" rx="53.09" ry="18"/>
<text text-anchor="middle" x="71.49" y="-1196.3" font-family="Times,serif" font-size="14.00">następne</text>
</g>
<!-- spotkanie -->
<g id="node25" class="node">
<title>spotkanie</title>
<ellipse fill="none" stroke="black" cx="71.49" cy="-1243" rx="55.79" ry="18"/>
<text text-anchor="middle" x="71.49" y="-1239.3" font-family="Times,serif" font-size="14.00">spotkanie</text>
</g>
<g id="node26" class="node">
<title></title>
<ellipse fill="none" stroke="#0061f2" cx="71.49" cy="-1286" rx="27" ry="18"/>
</g>
<!-- pmysl -->
<g id="node27" class="node">
<title>pmysl</title>
<ellipse fill="none" stroke="black" cx="71.49" cy="-727" rx="38.19" ry="18"/>
<text text-anchor="middle" x="71.49" y="-723.3" font-family="Times,serif" font-size="14.00">pmysl</text>
</g>
<!-- pmysl&#45;&#45;Kanały&#45;komunikacji# -->
<g id="edge24" class="edge">
<title>pmysl&#45;&#45;Kanały&#45;komunikacji#</title>
<path fill="none" stroke="#c60077" d="M106.46,-734.71C128.5,-734.71 152.82,-734.71 152.82,-734.71 152.82,-734.71 152.82,-1022 152.82,-1022 152.82,-1022 394.63,-1022 537.5,-1022"/>
</g>
<!-- pmysl&#45;&#45;Infrastruktura::IRC#IRC -->
<g id="edge25" class="edge">
<title>pmysl&#45;&#45;Infrastruktura::IRC#IRC</title>
<path fill="none" stroke="#c60077" d="M98.4,-714.14C116.03,-714.14 135.82,-714.14 135.82,-714.14 135.82,-714.14 135.82,-684 135.82,-684 135.82,-684 365.7,-684 514.98,-684"/>
</g>
<!-- pmysl&#45;&#45;Infrastruktura::Github#Github -->
<g id="edge26" class="edge">
<title>pmysl&#45;&#45;Infrastruktura::Github#Github</title>
<path fill="none" stroke="#c60077" d="M106.34,-719.29C146.44,-719.29 206.82,-719.29 206.82,-719.29 206.82,-719.29 206.82,-562.71 206.82,-562.71 206.82,-562.71 373.89,-562.71 500.49,-562.71"/>
</g>
<!-- pmysl&#45;&#45;Bazy&#45;danych#Grafana -->
<g id="edge27" class="edge">
<title>pmysl&#45;&#45;Bazy&#45;danych#Grafana</title>
<path fill="none" stroke="#c60077" d="M109.67,-729.57C193.74,-729.57 397.63,-729.57 526.68,-729.57"/>
</g>
<!-- Bazy&#45;danych# -->
<g id="node28" class="node">
<title>Bazy&#45;danych#</title>
<ellipse fill="none" stroke="black" cx="639.91" cy="-641" rx="77.19" ry="18"/>
<text text-anchor="middle" x="639.91" y="-637.3" font-family="Times,serif" font-size="14.00">Bazy&#45;danych#</text>
</g>
<!-- pmysl&#45;&#45;Bazy&#45;danych# -->
<g id="edge23" class="edge">
<title>pmysl&#45;&#45;Bazy&#45;danych#</title>
<path fill="none" stroke="#c60077" d="M109.73,-724.43C167.37,-724.43 269.82,-724.43 269.82,-724.43 269.82,-724.43 269.82,-653.86 269.82,-653.86 269.82,-653.86 482.9,-653.86 585.7,-653.86"/>
</g>
<!-- thinkofher -->
<g id="node29" class="node">
<title>thinkofher</title>
<ellipse fill="none" stroke="black" cx="71.49" cy="-641" rx="59.29" ry="18"/>
<text text-anchor="middle" x="71.49" y="-637.3" font-family="Times,serif" font-size="14.00">thinkofher</text>
</g>
<!-- thinkofher&#45;&#45;Kanały&#45;komunikacji# -->
<g id="edge30" class="edge">
<title>thinkofher&#45;&#45;Kanały&#45;komunikacji#</title>
<path fill="none" stroke="#b6e400" d="M125.16,-648.71C186.59,-648.71 278.82,-648.71 278.82,-648.71 278.82,-648.71 278.82,-1016 278.82,-1016 278.82,-1016 452.41,-1016 558.87,-1016"/>
</g>
<!-- thinkofher&#45;&#45;Infrastruktura::Telegram#Główny: t.me/hakierspejs -->
<g id="edge29" class="edge">
<title>thinkofher&#45;&#45;Infrastruktura::Telegram#Główny: t.me/hakierspejs</title>
<path fill="none" stroke="#b6e400" d="M120.82,-630.81C120.82,-621.38 120.82,-608.8 120.82,-608.8 120.82,-608.8 292.56,-608.8 438.47,-608.8"/>
</g>
<!-- thinkofher&#45;&#45;Infrastruktura::IRC#IRC -->
<g id="edge31" class="edge">
<title>thinkofher&#45;&#45;Infrastruktura::IRC#IRC</title>
<path fill="none" stroke="#b6e400" d="M130.33,-643.57C256.12,-643.57 539.82,-643.57 539.82,-643.57 539.82,-643.57 539.82,-660.98 539.82,-672.95"/>
</g>
<!-- thinkofher&#45;&#45;Infrastruktura::Github#Github -->
<g id="edge32" class="edge">
<title>thinkofher&#45;&#45;Infrastruktura::Github#Github</title>
<path fill="none" stroke="#b6e400" d="M113.03,-628.14C124.97,-628.14 134.82,-628.14 134.82,-628.14 134.82,-628.14 134.82,-557.57 134.82,-557.57 134.82,-557.57 338.65,-557.57 487.34,-557.57"/>
</g>
<!-- thinkofher&#45;&#45;Marketing&#45;i&#45;media&#45;społecznościowe# -->
<g id="edge33" class="edge">
<title>thinkofher&#45;&#45;Marketing&#45;i&#45;media&#45;społecznościowe#</title>
<path fill="none" stroke="#b6e400" d="M125.01,-633.29C155.95,-633.29 188.82,-633.29 188.82,-633.29 188.82,-633.29 188.82,-480.45 188.82,-480.45 188.82,-480.45 366.13,-480.45 498.42,-480.45"/>
</g>
<!-- thinkofher&#45;&#45;Bazy&#45;danych# -->
<g id="edge28" class="edge">
<title>thinkofher&#45;&#45;Bazy&#45;danych#</title>
<path fill="none" stroke="#b6e400" d="M130.18,-638.43C233.57,-638.43 448.09,-638.43 563.11,-638.43"/>
</g>
<!-- biniu -->
<g id="node30" class="node">
<title>biniu</title>
<ellipse fill="none" stroke="black" cx="71.49" cy="-512" rx="34.39" ry="18"/>
<text text-anchor="middle" x="71.49" y="-508.3" font-family="Times,serif" font-size="14.00">biniu</text>
</g>
<!-- biniu&#45;&#45;Marketing&#45;i&#45;media&#45;społecznościowe# -->
<g id="edge34" class="edge">
<title>biniu&#45;&#45;Marketing&#45;i&#45;media&#45;społecznościowe#</title>
<path fill="none" stroke="#00ffff" d="M106.06,-512C111.2,-512 114.82,-512 114.82,-512 114.82,-512 114.82,-470.64 114.82,-470.64 114.82,-470.64 305.77,-470.64 457.36,-470.64"/>
</g>
<!-- kszmigiel -->
<g id="node31" class="node">
<title>kszmigiel</title>
<ellipse fill="none" stroke="black" cx="71.49" cy="-555" rx="54.69" ry="18"/>
<text text-anchor="middle" x="71.49" y="-551.3" font-family="Times,serif" font-size="14.00">kszmigiel</text>
</g>
<!-- kszmigiel&#45;&#45;Infrastruktura::Telegram#Główny: t.me/hakierspejs -->
<g id="edge35" class="edge">
<title>kszmigiel&#45;&#45;Infrastruktura::Telegram#Główny: t.me/hakierspejs</title>
<path fill="none" stroke="#ab00d5" d="M114.82,-566.28C114.82,-580.07 114.82,-601.6 114.82,-601.6 114.82,-601.6 256.82,-601.6 393.12,-601.6"/>
</g>
<!-- kszmigiel&#45;&#45;Infrastruktura::Github#Github -->
<g id="edge37" class="edge">
<title>kszmigiel&#45;&#45;Infrastruktura::Github#Github</title>
<path fill="none" stroke="#ab00d5" d="M120.94,-547.29C204.74,-547.29 377.54,-547.29 500.71,-547.29"/>
</g>
<!-- kszmigiel&#45;&#45;Infrastruktura::Telegram#🦄posty: t.me/hakierspejs_spam -->
<g id="edge38" class="edge">
<title>kszmigiel&#45;&#45;Infrastruktura::Telegram#🦄posty: t.me/hakierspejs_spam</title>
<path fill="none" stroke="#ab00d5" d="M122.82,-548.76C122.82,-538.95 122.82,-521 122.82,-521 122.82,-521 260.56,-521 393.86,-521"/>
</g>
<!-- kszmigiel&#45;&#45;Marketing&#45;i&#45;media&#45;społecznościowe# -->
<g id="edge39" class="edge">
<title>kszmigiel&#45;&#45;Marketing&#45;i&#45;media&#45;społecznościowe#</title>
<path fill="none" stroke="#ab00d5" d="M118.82,-546.01C118.82,-524.9 118.82,-473.91 118.82,-473.91 118.82,-473.91 312.32,-473.91 463.49,-473.91"/>
</g>
<!-- Marketing&#45;i&#45;media&#45;społecznościowe#Naklejki -->
<g id="node32" class="node">
<title>Marketing&#45;i&#45;media&#45;społecznościowe#Naklejki</title>
<ellipse fill="none" stroke="black" cx="639.91" cy="-405" rx="221.76" ry="18"/>
<text text-anchor="middle" x="639.91" y="-401.3" font-family="Times,serif" font-size="14.00">Marketing&#45;i&#45;media&#45;społecznościowe#Naklejki</text>
</g>
<!-- kszmigiel&#45;&#45;Marketing&#45;i&#45;media&#45;społecznościowe#Naklejki -->
<g id="edge36" class="edge">
<title>kszmigiel&#45;&#45;Marketing&#45;i&#45;media&#45;społecznościowe#Naklejki</title>
<path fill="none" stroke="#ab00d5" d="M109.9,-542.14C137.85,-542.14 170.82,-542.14 170.82,-542.14 170.82,-542.14 170.82,-415.5 170.82,-415.5 170.82,-415.5 327.61,-415.5 459.89,-415.5"/>
</g>
<!-- Keij0 -->
<g id="node33" class="node">
<title>Keij0</title>
<ellipse fill="none" stroke="black" cx="71.49" cy="-469" rx="34.39" ry="18"/>
<text text-anchor="middle" x="71.49" y="-465.3" font-family="Times,serif" font-size="14.00">Keij0</text>
</g>
<!-- Keij0&#45;&#45;Marketing&#45;i&#45;media&#45;społecznościowe# -->
<g id="edge40" class="edge">
<title>Keij0&#45;&#45;Marketing&#45;i&#45;media&#45;społecznościowe#</title>
<path fill="none" stroke="#f29100" d="M106.19,-467.36C174.65,-467.36 331.37,-467.36 457.38,-467.36"/>
</g>
<!-- SP7Q -->
<g id="node34" class="node">
<title>SP7Q</title>
<ellipse fill="none" stroke="black" cx="71.49" cy="-598" rx="36.29" ry="18"/>
<text text-anchor="middle" x="71.49" y="-594.3" font-family="Times,serif" font-size="14.00">SP7Q</text>
</g>
<!-- SP7Q&#45;&#45;Infrastruktura::Github#Github -->
<g id="edge42" class="edge">
<title>SP7Q&#45;&#45;Infrastruktura::Github#Github</title>
<path fill="none" stroke="#00c64f" d="M100.83,-587.2C117,-587.2 133.82,-587.2 133.82,-587.2 133.82,-587.2 133.82,-552.43 133.82,-552.43 133.82,-552.43 338.37,-552.43 487.38,-552.43"/>
</g>
<!-- SP7Q&#45;&#45;Marketing&#45;i&#45;media&#45;społecznościowe# -->
<g id="edge41" class="edge">
<title>SP7Q&#45;&#45;Marketing&#45;i&#45;media&#45;społecznościowe#</title>
<path fill="none" stroke="#00c64f" d="M107.27,-594.4C138.82,-594.4 179.82,-594.4 179.82,-594.4 179.82,-594.4 179.82,-477.18 179.82,-477.18 179.82,-477.18 344.16,-477.18 476.4,-477.18"/>
</g>
<!-- kpc -->
<g id="node35" class="node">
<title>kpc</title>
<ellipse fill="none" stroke="black" cx="71.49" cy="-340" rx="27" ry="18"/>
<text text-anchor="middle" x="71.49" y="-336.3" font-family="Times,serif" font-size="14.00">kpc</text>
</g>
<!-- kpc&#45;&#45;Infrastruktura::Telegram#🦄posty: t.me/hakierspejs_spam -->
<g id="edge45" class="edge">
<title>kpc&#45;&#45;Infrastruktura::Telegram#🦄posty: t.me/hakierspejs_spam</title>
<path fill="none" stroke="#2e00e4" d="M93.36,-350.8C120.09,-350.8 161.82,-350.8 161.82,-350.8 161.82,-350.8 161.82,-503 161.82,-503 161.82,-503 276.72,-503 393.86,-503"/>
</g>
<!-- kpc&#45;&#45;Marketing&#45;i&#45;media&#45;społecznościowe# -->
<g id="edge43" class="edge">
<title>kpc&#45;&#45;Marketing&#45;i&#45;media&#45;społecznościowe#</title>
<path fill="none" stroke="#2e00e4" d="M98.1,-343.6C148.26,-343.6 251.82,-343.6 251.82,-343.6 251.82,-343.6 251.82,-457.55 251.82,-457.55 251.82,-457.55 387.52,-457.55 498.43,-457.55"/>
</g>
<!-- Infrastruktura::Telegram#Posty wyklęte (celowo bez linka) -->
<g id="node36" class="node">
<title>Infrastruktura::Telegram#Posty wyklęte (celowo bez linka)</title>
<ellipse fill="none" stroke="black" cx="639.91" cy="-340" rx="284.05" ry="18"/>
<text text-anchor="middle" x="639.91" y="-336.3" font-family="Times,serif" font-size="14.00">Infrastruktura::Telegram#Posty wyklęte (celowo bez linka)</text>
</g>
<!-- kpc&#45;&#45;Infrastruktura::Telegram#Posty wyklęte (celowo bez linka) -->
<g id="edge44" class="edge">
<title>kpc&#45;&#45;Infrastruktura::Telegram#Posty wyklęte (celowo bez linka)</title>
<path fill="none" stroke="#2e00e4" d="M98.15,-336.4C146.76,-336.4 254.71,-336.4 361.55,-336.4"/>
</g>
<!-- Miejsce::Miejsce#Klucze do spejsu -->
<g id="node37" class="node">
<title>Miejsce::Miejsce#Klucze do spejsu</title>
<ellipse fill="none" stroke="black" cx="639.91" cy="-233" rx="172.77" ry="18"/>
<text text-anchor="middle" x="639.91" y="-229.3" font-family="Times,serif" font-size="14.00">Miejsce::Miejsce#Klucze do spejsu</text>
</g>
<!-- kpc&#45;&#45;Miejsce::Miejsce#Klucze do spejsu -->
<g id="edge46" class="edge">
<title>kpc&#45;&#45;Miejsce::Miejsce#Klucze do spejsu</title>
<path fill="none" stroke="#2e00e4" d="M93.14,-329.2C135.4,-329.2 224.82,-329.2 224.82,-329.2 224.82,-329.2 224.82,-245 224.82,-245 224.82,-245 389,-245 510.85,-245"/>
</g>
<!-- Polimerek -->
<g id="node38" class="node">
<title>Polimerek</title>
<ellipse fill="none" stroke="black" cx="71.49" cy="-426" rx="57.39" ry="18"/>
<text text-anchor="middle" x="71.49" y="-422.3" font-family="Times,serif" font-size="14.00">Polimerek</text>
</g>
<!-- Polimerek&#45;&#45;Marketing&#45;i&#45;media&#45;społecznościowe# -->
<g id="edge47" class="edge">
<title>Polimerek&#45;&#45;Marketing&#45;i&#45;media&#45;społecznościowe#</title>
<path fill="none" stroke="#ff0000" d="M110.82,-439.32C110.82,-450.31 110.82,-464.09 110.82,-464.09 110.82,-464.09 309.5,-464.09 463.36,-464.09"/>
</g>
<!-- kujaw -->
<g id="node39" class="node">
<title>kujaw</title>
<ellipse fill="none" stroke="black" cx="71.49" cy="-383" rx="38.19" ry="18"/>
<text text-anchor="middle" x="71.49" y="-379.3" font-family="Times,serif" font-size="14.00">kujaw</text>
</g>
<!-- kujaw&#45;&#45;Marketing&#45;i&#45;media&#45;społecznościowe# -->
<g id="edge48" class="edge">
<title>kujaw&#45;&#45;Marketing&#45;i&#45;media&#45;społecznościowe#</title>
<path fill="none" stroke="#2bd500" d="M102.12,-394C151.41,-394 242.82,-394 242.82,-394 242.82,-394 242.82,-460.82 242.82,-460.82 242.82,-460.82 366.94,-460.82 476.39,-460.82"/>
</g>
<!-- kujaw&#45;&#45;Marketing&#45;i&#45;media&#45;społecznościowe#Naklejki -->
<g id="edge51" class="edge">
<title>kujaw&#45;&#45;Marketing&#45;i&#45;media&#45;społecznościowe#Naklejki</title>
<path fill="none" stroke="#2bd500" d="M106.62,-390.5C184.98,-390.5 377.47,-390.5 508.42,-390.5"/>
</g>
<!-- kujaw&#45;&#45;Miejsce::Miejsce#Klucze do spejsu -->
<g id="edge49" class="edge">
<title>kujaw&#45;&#45;Miejsce::Miejsce#Klucze do spejsu</title>
<path fill="none" stroke="#2bd500" d="M107.12,-376C154.9,-376 233.82,-376 233.82,-376 233.82,-376 233.82,-248 233.82,-248 233.82,-248 424.13,-248 544.18,-248"/>
</g>
<!-- Marketing&#45;i&#45;media&#45;społecznościowe#Logo nr. 2 -->
<g id="node40" class="node">
<title>Marketing&#45;i&#45;media&#45;społecznościowe#Logo nr. 2</title>
<ellipse fill="none" stroke="black" cx="639.91" cy="-856" rx="229.36" ry="18"/>
<text text-anchor="middle" x="639.91" y="-852.3" font-family="Times,serif" font-size="14.00">Marketing&#45;i&#45;media&#45;społecznościowe#Logo nr. 2</text>
</g>
<!-- kujaw&#45;&#45;Marketing&#45;i&#45;media&#45;społecznościowe#Logo nr. 2 -->
<g id="edge50" class="edge">
<title>kujaw&#45;&#45;Marketing&#45;i&#45;media&#45;społecznościowe#Logo nr. 2</title>
<path fill="none" stroke="#2bd500" d="M94.33,-397.5C111.77,-397.5 132.82,-397.5 132.82,-397.5 132.82,-397.5 132.82,-850 132.82,-850 132.82,-850 285.56,-850 423.39,-850"/>
</g>
<!-- kotlovecrafta -->
<g id="node41" class="node">
<title>kotlovecrafta</title>
<ellipse fill="none" stroke="black" cx="71.49" cy="-297" rx="71.49" ry="18"/>
<text text-anchor="middle" x="71.49" y="-293.3" font-family="Times,serif" font-size="14.00">kotlovecrafta</text>
</g>
<!-- kotlovecrafta&#45;&#45;Marketing&#45;i&#45;media&#45;społecznościowe# -->
<g id="edge52" class="edge">
<title>kotlovecrafta&#45;&#45;Marketing&#45;i&#45;media&#45;społecznościowe#</title>
<path fill="none" stroke="#0061f2" d="M143.07,-297C196.69,-297 260.82,-297 260.82,-297 260.82,-297 260.82,-454.27 260.82,-454.27 260.82,-454.27 422.14,-454.27 534.31,-454.27"/>
</g>
<!-- kotlovecrafta&#45;&#45;Miejsce::Miejsce#Klucze do spejsu -->
<g id="edge53" class="edge">
<title>kotlovecrafta&#45;&#45;Miejsce::Miejsce#Klucze do spejsu</title>
<path fill="none" stroke="#0061f2" d="M139.82,-291.53C139.82,-277.61 139.82,-242 139.82,-242 139.82,-242 342.56,-242 489.87,-242"/>
</g>
<!-- q3k -->
<g id="node42" class="node">
<title>q3k</title>
<ellipse fill="none" stroke="black" cx="71.49" cy="-1028" rx="27.9" ry="18"/>
<text text-anchor="middle" x="71.49" y="-1024.3" font-family="Times,serif" font-size="14.00">q3k</text>
</g>
<!-- q3k&#45;&#45;Infrastruktura::Domeny#Domeny -->
<g id="edge54" class="edge">
<title>q3k&#45;&#45;Infrastruktura::Domeny#Domeny</title>
<path fill="none" stroke="#c60077" d="M71.82,-1046.24C71.82,-1071.48 71.82,-1114 71.82,-1114 71.82,-1114 304.97,-1114 472.54,-1114"/>
</g>
<!-- q3k&#45;&#45;Kanały&#45;komunikacji# -->
<g id="edge56" class="edge">
<title>q3k&#45;&#45;Kanały&#45;komunikacji#</title>
<path fill="none" stroke="#c60077" d="M98.15,-1034C175.52,-1034 403.15,-1034 537.46,-1034"/>
</g>
<!-- q3k&#45;&#45;Marketing&#45;i&#45;media&#45;społecznościowe#Logo nr. 2 -->
<g id="edge55" class="edge">
<title>q3k&#45;&#45;Marketing&#45;i&#45;media&#45;społecznościowe#Logo nr. 2</title>
<path fill="none" stroke="#c60077" d="M71.82,-1009.92C71.82,-966.9 71.82,-862 71.82,-862 71.82,-862 262.98,-862 423.52,-862"/>
</g>
<!-- kasesag -->
<g id="node43" class="node">
<title>kasesag</title>
<ellipse fill="none" stroke="black" cx="71.49" cy="-1329" rx="48.19" ry="18"/>
<text text-anchor="middle" x="71.49" y="-1325.3" font-family="Times,serif" font-size="14.00">kasesag</text>
</g>
<!-- Marketing&#45;i&#45;media&#45;społecznościowe#Przycisk HS&#45;LDZ -->
<g id="node44" class="node">
<title>Marketing&#45;i&#45;media&#45;społecznościowe#Przycisk HS&#45;LDZ</title>
<ellipse fill="none" stroke="black" cx="639.91" cy="-1329" rx="261.85" ry="18"/>
<text text-anchor="middle" x="639.91" y="-1325.3" font-family="Times,serif" font-size="14.00">Marketing&#45;i&#45;media&#45;społecznościowe#Przycisk HS&#45;LDZ</text>
</g>
<!-- kasesag&#45;&#45;Marketing&#45;i&#45;media&#45;społecznościowe#Przycisk HS&#45;LDZ -->
<g id="edge57" class="edge">
<title>kasesag&#45;&#45;Marketing&#45;i&#45;media&#45;społecznościowe#Przycisk HS&#45;LDZ</title>
<path fill="none" stroke="#b6e400" d="M119.96,-1329C177.95,-1329 279.55,-1329 377.64,-1329"/>
</g>
<!-- Piotrek_P -->
<g id="node45" class="node">
<title>Piotrek_P</title>
<ellipse fill="none" stroke="black" cx="71.49" cy="-168" rx="55.49" ry="18"/>
<text text-anchor="middle" x="71.49" y="-164.3" font-family="Times,serif" font-size="14.00">Piotrek_P</text>
</g>
<!-- Piotrek_P&#45;&#45;Miejsce::Miejsce#Klucze do spejsu -->
<g id="edge58" class="edge">
<title>Piotrek_P&#45;&#45;Miejsce::Miejsce#Klucze do spejsu</title>
<path fill="none" stroke="#00ffff" d="M116.82,-178.46C116.82,-193.55 116.82,-219.67 116.82,-219.67 116.82,-219.67 369.36,-219.67 523.49,-219.67"/>
</g>
<!-- polimerek -->
<g id="node46" class="node">
<title>polimerek</title>
<ellipse fill="none" stroke="black" cx="71.49" cy="-125" rx="57.39" ry="18"/>
<text text-anchor="middle" x="71.49" y="-121.3" font-family="Times,serif" font-size="14.00">polimerek</text>
</g>
<!-- polimerek&#45;&#45;Miejsce::Miejsce#Klucze do spejsu -->
<g id="edge59" class="edge">
<title>polimerek&#45;&#45;Miejsce::Miejsce#Klucze do spejsu</title>
<path fill="none" stroke="#ab00d5" d="M128.84,-125C241.49,-125 480.82,-125 480.82,-125 480.82,-125 480.82,-201.89 480.82,-225.91"/>
</g>
<!-- sp7adg -->
<g id="node47" class="node">
<title>sp7adg</title>
<ellipse fill="none" stroke="black" cx="71.49" cy="-82" rx="44.39" ry="18"/>
<text text-anchor="middle" x="71.49" y="-78.3" font-family="Times,serif" font-size="14.00">sp7adg</text>
</g>
<!-- sp7adg&#45;&#45;Miejsce::Miejsce#Klucze do spejsu -->
<g id="edge60" class="edge">
<title>sp7adg&#45;&#45;Miejsce::Miejsce#Klucze do spejsu</title>
<path fill="none" stroke="#f29100" d="M111.7,-89.5C217.37,-89.5 494.82,-89.5 494.82,-89.5 494.82,-89.5 494.82,-190.72 494.82,-223.14"/>
</g>
<!-- inoru -->
<g id="node48" class="node">
<title>inoru</title>
<ellipse fill="none" stroke="black" cx="71.49" cy="-254" rx="35.19" ry="18"/>
<text text-anchor="middle" x="71.49" y="-250.3" font-family="Times,serif" font-size="14.00">inoru</text>
</g>
<!-- inoru&#45;&#45;Miejsce::Miejsce#Klucze do spejsu -->
<g id="edge61" class="edge">
<title>inoru&#45;&#45;Miejsce::Miejsce#Klucze do spejsu</title>
<path fill="none" stroke="#00c64f" d="M91.06,-239C151.19,-239 337.59,-239 476.58,-239"/>
</g>
<!-- Octia -->
<g id="node49" class="node">
<title>Octia</title>
<ellipse fill="none" stroke="black" cx="71.49" cy="-211" rx="35.19" ry="18"/>
<text text-anchor="middle" x="71.49" y="-207.3" font-family="Times,serif" font-size="14.00">Octia</text>
</g>
<!-- Octia&#45;&#45;Miejsce::Miejsce#Klucze do spejsu -->
<g id="edge62" class="edge">
<title>Octia&#45;&#45;Miejsce::Miejsce#Klucze do spejsu</title>
<path fill="none" stroke="#2e00e4" d="M95.19,-224.33C161.17,-224.33 351.09,-224.33 488.12,-224.33"/>
</g>
<!-- hslbridgebot -->
<g id="node50" class="node">
<title>hslbridgebot</title>
<ellipse fill="none" stroke="black" cx="71.49" cy="-1415" rx="69.59" ry="18"/>
<text text-anchor="middle" x="71.49" y="-1411.3" font-family="Times,serif" font-size="14.00">hslbridgebot</text>
</g>
<!-- Mostkowanie&#45;kanałów#mautrix&#45;telegram (aktualnie używany) -->
<g id="node51" class="node">
<title>Mostkowanie&#45;kanałów#mautrix&#45;telegram (aktualnie używany)</title>
<ellipse fill="none" stroke="black" cx="639.91" cy="-1394" rx="297.85" ry="18"/>
<text text-anchor="middle" x="639.91" y="-1390.3" font-family="Times,serif" font-size="14.00">Mostkowanie&#45;kanałów#mautrix&#45;telegram (aktualnie używany)</text>
</g>
<!-- hslbridgebot&#45;&#45;Mostkowanie&#45;kanałów#mautrix&#45;telegram (aktualnie używany) -->
<g id="edge63" class="edge">
<title>hslbridgebot&#45;&#45;Mostkowanie&#45;kanałów#mautrix&#45;telegram (aktualnie używany)</title>
<path fill="none" stroke="#ff0000" d="M128.07,-1404.5C191.4,-1404.5 298.22,-1404.5 397.95,-1404.5"/>
</g>
<!-- telegrambot -->
<g id="node52" class="node">
<title>telegrambot</title>
<ellipse fill="none" stroke="black" cx="71.49" cy="-1372" rx="67.69" ry="18"/>
<text text-anchor="middle" x="71.49" y="-1368.3" font-family="Times,serif" font-size="14.00">telegrambot</text>
</g>
<!-- telegrambot&#45;&#45;Mostkowanie&#45;kanałów#mautrix&#45;telegram (aktualnie używany) -->
<g id="edge64" class="edge">
<title>telegrambot&#45;&#45;Mostkowanie&#45;kanałów#mautrix&#45;telegram (aktualnie używany)</title>
<path fill="none" stroke="#2bd500" d="M125.22,-1383C189.43,-1383 301.12,-1383 404.09,-1383"/>
</g>
<!-- BluRaf -->
<g id="node53" class="node">
<title>BluRaf</title>
<ellipse fill="none" stroke="black" cx="71.49" cy="-684" rx="42.49" ry="18"/>
<text text-anchor="middle" x="71.49" y="-680.3" font-family="Times,serif" font-size="14.00">BluRaf</text>
</g>
<!-- BluRaf&#45;&#45;Infrastruktura::IRC#IRC -->
<g id="edge65" class="edge">
<title>BluRaf&#45;&#45;Infrastruktura::IRC#IRC</title>
<path fill="none" stroke="#0061f2" d="M108.35,-675C192.67,-675 402.31,-675 531.69,-675"/>
</g>
</g>
</svg>
