<?xml version="1.0" encoding="UTF-8" standalone="no"?>
<!DOCTYPE svg PUBLIC "-//W3C//DTD SVG 1.1//EN"
 "http://www.w3.org/Graphics/SVG/1.1/DTD/svg11.dtd">
<!-- Generated by graphviz version 2.40.1 (20161225.0304)
 -->
<!-- Title: %3 Pages: 1 -->
<svg width="979pt" height="947pt"
 viewBox="0.00 0.00 978.73 947.00" xmlns="http://www.w3.org/2000/svg" xmlns:xlink="http://www.w3.org/1999/xlink">
<g id="graph0" class="graph" transform="scale(1 1) rotate(0) translate(4 943)">
<title>%3</title>
<polygon fill="#ffffff" stroke="transparent" points="-4,4 -4,-943 974.7266,-943 974.7266,4 -4,4"/>
<!-- d33tah -->
<g id="node1" class="node">
<title>d33tah</title>
<ellipse fill="none" stroke="#000000" cx="59.7947" cy="-577" rx="43.5923" ry="18"/>
<text text-anchor="middle" x="59.7947" y="-573.3" font-family="Times,serif" font-size="14.00" fill="#000000">d33tah</text>
</g>
<!-- Miejsce::Miejsce#Klucze do spejsu -->
<g id="node2" class="node">
<title>Miejsce::Miejsce#Klucze do spejsu</title>
<ellipse fill="none" stroke="#000000" cx="617.158" cy="-749" rx="174.6691" ry="18"/>
<text text-anchor="middle" x="617.158" y="-745.3" font-family="Times,serif" font-size="14.00" fill="#000000">Miejsce::Miejsce#Klucze do spejsu</text>
</g>
<!-- d33tah&#45;&#45;Miejsce::Miejsce#Klucze do spejsu -->
<g id="edge1" class="edge">
<title>d33tah&#45;&#45;Miejsce::Miejsce#Klucze do spejsu</title>
<path fill="none" stroke="#ff0000" d="M91.7266,-589.2573C91.7266,-594.0856 91.7266,-598.5 91.7266,-598.5 91.7266,-598.5 449.7266,-598.5 449.7266,-598.5 449.7266,-598.5 449.7266,-716.8337 449.7266,-743.6436"/>
</g>
<!-- Infrastruktura::VM#Hosting -->
<g id="node3" class="node">
<title>Infrastruktura::VM#Hosting</title>
<ellipse fill="none" stroke="#000000" cx="617.158" cy="-620" rx="144.8743" ry="18"/>
<text text-anchor="middle" x="617.158" y="-616.3" font-family="Times,serif" font-size="14.00" fill="#000000">Infrastruktura::VM#Hosting</text>
</g>
<!-- d33tah&#45;&#45;Infrastruktura::VM#Hosting -->
<g id="edge2" class="edge">
<title>d33tah&#45;&#45;Infrastruktura::VM#Hosting</title>
<path fill="none" stroke="#ff0000" d="M102.183,-581.1538C209.1792,-581.1538 481.7266,-581.1538 481.7266,-581.1538 481.7266,-581.1538 481.7266,-602.552 481.7266,-613.5853"/>
</g>
<!-- Infrastruktura::IRC#IRC -->
<g id="node4" class="node">
<title>Infrastruktura::IRC#IRC</title>
<ellipse fill="none" stroke="#000000" cx="617.158" cy="-319" rx="128.0773" ry="18"/>
<text text-anchor="middle" x="617.158" y="-315.3" font-family="Times,serif" font-size="14.00" fill="#000000">Infrastruktura::IRC#IRC</text>
</g>
<!-- d33tah&#45;&#45;Infrastruktura::IRC#IRC -->
<g id="edge3" class="edge">
<title>d33tah&#45;&#45;Infrastruktura::IRC#IRC</title>
<path fill="none" stroke="#ff0000" d="M91.3499,-564.5385C136.9136,-564.5385 215.7266,-564.5385 215.7266,-564.5385 215.7266,-564.5385 215.7266,-325 215.7266,-325 215.7266,-325 377.9724,-325 496.171,-325"/>
</g>
<!-- Infrastruktura::Forum#Forum -->
<g id="node5" class="node">
<title>Infrastruktura::Forum#Forum</title>
<ellipse fill="none" stroke="#000000" cx="617.158" cy="-663" rx="152.1731" ry="18"/>
<text text-anchor="middle" x="617.158" y="-659.3" font-family="Times,serif" font-size="14.00" fill="#000000">Infrastruktura::Forum#Forum</text>
</g>
<!-- d33tah&#45;&#45;Infrastruktura::Forum#Forum -->
<g id="edge4" class="edge">
<title>d33tah&#45;&#45;Infrastruktura::Forum#Forum</title>
<path fill="none" stroke="#ff0000" d="M100.1238,-583.9231C203.2911,-583.9231 468.7266,-583.9231 468.7266,-583.9231 468.7266,-583.9231 468.7266,-642.3234 468.7266,-658.7485"/>
</g>
<!-- Infrastruktura::Telegram#t.me/hakierspejs -->
<g id="node6" class="node">
<title>Infrastruktura::Telegram#t.me/hakierspejs</title>
<ellipse fill="none" stroke="#000000" cx="617.158" cy="-276" rx="213.3623" ry="18"/>
<text text-anchor="middle" x="617.158" y="-272.3" font-family="Times,serif" font-size="14.00" fill="#000000">Infrastruktura::Telegram#t.me/hakierspejs</text>
</g>
<!-- d33tah&#45;&#45;Infrastruktura::Telegram#t.me/hakierspejs -->
<g id="edge5" class="edge">
<title>d33tah&#45;&#45;Infrastruktura::Telegram#t.me/hakierspejs</title>
<path fill="none" stroke="#ff0000" d="M83.4038,-561.7692C105.6938,-561.7692 135.7266,-561.7692 135.7266,-561.7692 135.7266,-561.7692 135.7266,-279.6 135.7266,-279.6 135.7266,-279.6 278.1709,-279.6 408.0956,-279.6"/>
</g>
<!-- Infrastruktura::Lista&#45;mailingowa#Lista mailingowa -->
<g id="node7" class="node">
<title>Infrastruktura::Lista&#45;mailingowa#Lista mailingowa</title>
<ellipse fill="none" stroke="#000000" cx="617.158" cy="-792" rx="250.7555" ry="18"/>
<text text-anchor="middle" x="617.158" y="-788.3" font-family="Times,serif" font-size="14.00" fill="#000000">Infrastruktura::Lista&#45;mailingowa#Lista mailingowa</text>
</g>
<!-- d33tah&#45;&#45;Infrastruktura::Lista&#45;mailingowa#Lista mailingowa -->
<g id="edge6" class="edge">
<title>d33tah&#45;&#45;Infrastruktura::Lista&#45;mailingowa#Lista mailingowa</title>
<path fill="none" stroke="#ff0000" d="M91.3426,-589.4615C173.139,-589.4615 385.7266,-589.4615 385.7266,-589.4615 385.7266,-589.4615 385.7266,-748.7115 385.7266,-784.7915"/>
</g>
<!-- Infrastruktura::Domeny#Domeny -->
<g id="node8" class="node">
<title>Infrastruktura::Domeny#Domeny</title>
<ellipse fill="none" stroke="#000000" cx="617.158" cy="-835" rx="167.8704" ry="18"/>
<text text-anchor="middle" x="617.158" y="-831.3" font-family="Times,serif" font-size="14.00" fill="#000000">Infrastruktura::Domeny#Domeny</text>
</g>
<!-- d33tah&#45;&#45;Infrastruktura::Domeny#Domeny -->
<g id="edge7" class="edge">
<title>d33tah&#45;&#45;Infrastruktura::Domeny#Domeny</title>
<path fill="none" stroke="#ff0000" d="M83.4695,-592.2308C110.7082,-592.2308 151.7266,-592.2308 151.7266,-592.2308 151.7266,-592.2308 151.7266,-820.5 151.7266,-820.5 151.7266,-820.5 380.8711,-820.5 517.5969,-820.5"/>
</g>
<!-- Infrastruktura::Telegram#t.me/hakierspejs_spam -->
<g id="node9" class="node">
<title>Infrastruktura::Telegram#t.me/hakierspejs_spam</title>
<ellipse fill="none" stroke="#000000" cx="617.158" cy="-448" rx="243.1569" ry="18"/>
<text text-anchor="middle" x="617.158" y="-444.3" font-family="Times,serif" font-size="14.00" fill="#000000">Infrastruktura::Telegram#t.me/hakierspejs_spam</text>
</g>
<!-- d33tah&#45;&#45;Infrastruktura::Telegram#t.me/hakierspejs_spam -->
<g id="edge8" class="edge">
<title>d33tah&#45;&#45;Infrastruktura::Telegram#t.me/hakierspejs_spam</title>
<path fill="none" stroke="#ff0000" d="M102.2318,-572.8462C195.2227,-572.8462 408.7266,-572.8462 408.7266,-572.8462 408.7266,-572.8462 408.7266,-486.4182 408.7266,-457.3838"/>
</g>
<!-- Infrastruktura::Pad#Pad -->
<g id="node10" class="node">
<title>Infrastruktura::Pad#Pad</title>
<ellipse fill="none" stroke="#000000" cx="617.158" cy="-577" rx="126.1777" ry="18"/>
<text text-anchor="middle" x="617.158" y="-573.3" font-family="Times,serif" font-size="14.00" fill="#000000">Infrastruktura::Pad#Pad</text>
</g>
<!-- d33tah&#45;&#45;Infrastruktura::Pad#Pad -->
<g id="edge9" class="edge">
<title>d33tah&#45;&#45;Infrastruktura::Pad#Pad</title>
<path fill="none" stroke="#ff0000" d="M103.5301,-578.3846C186.0999,-578.3846 367.7294,-578.3846 491.3092,-578.3846"/>
</g>
<!-- Infrastruktura::Meetup#Meetup -->
<g id="node11" class="node">
<title>Infrastruktura::Meetup#Meetup</title>
<ellipse fill="none" stroke="#000000" cx="617.158" cy="-362" rx="163.2712" ry="18"/>
<text text-anchor="middle" x="617.158" y="-358.3" font-family="Times,serif" font-size="14.00" fill="#000000">Infrastruktura::Meetup#Meetup</text>
</g>
<!-- d33tah&#45;&#45;Infrastruktura::Meetup#Meetup -->
<g id="edge10" class="edge">
<title>d33tah&#45;&#45;Infrastruktura::Meetup#Meetup</title>
<path fill="none" stroke="#ff0000" d="M96.6784,-567.3077C147.1977,-567.3077 231.7266,-567.3077 231.7266,-567.3077 231.7266,-567.3077 231.7266,-369.7143 231.7266,-369.7143 231.7266,-369.7143 360.7665,-369.7143 469.5179,-369.7143"/>
</g>
<!-- Infrastruktura::Mariuszbot#Mariuszbot -->
<g id="node12" class="node">
<title>Infrastruktura::Mariuszbot#Mariuszbot</title>
<ellipse fill="none" stroke="#000000" cx="617.158" cy="-534" rx="196.8651" ry="18"/>
<text text-anchor="middle" x="617.158" y="-530.3" font-family="Times,serif" font-size="14.00" fill="#000000">Infrastruktura::Mariuszbot#Mariuszbot</text>
</g>
<!-- d33tah&#45;&#45;Infrastruktura::Mariuszbot#Mariuszbot -->
<g id="edge11" class="edge">
<title>d33tah&#45;&#45;Infrastruktura::Mariuszbot#Mariuszbot</title>
<path fill="none" stroke="#ff0000" d="M103.5537,-575.6154C201.8709,-575.6154 431.7266,-575.6154 431.7266,-575.6154 431.7266,-575.6154 431.7266,-551.7165 431.7266,-540.1405"/>
</g>
<!-- Infrastruktura::Grafana#Grafana -->
<g id="node13" class="node">
<title>Infrastruktura::Grafana#Grafana</title>
<ellipse fill="none" stroke="#000000" cx="617.158" cy="-706" rx="165.9709" ry="18"/>
<text text-anchor="middle" x="617.158" y="-702.3" font-family="Times,serif" font-size="14.00" fill="#000000">Infrastruktura::Grafana#Grafana</text>
</g>
<!-- d33tah&#45;&#45;Infrastruktura::Grafana#Grafana -->
<g id="edge12" class="edge">
<title>d33tah&#45;&#45;Infrastruktura::Grafana#Grafana</title>
<path fill="none" stroke="#ff0000" d="M96.7948,-586.6923C196.0489,-586.6923 460.7266,-586.6923 460.7266,-586.6923 460.7266,-586.6923 460.7266,-675.6069 460.7266,-699.9195"/>
</g>
<!-- Infrastruktura::Github#Github -->
<g id="node14" class="node">
<title>Infrastruktura::Github#Github</title>
<ellipse fill="none" stroke="#000000" cx="617.158" cy="-491" rx="155.1726" ry="18"/>
<text text-anchor="middle" x="617.158" y="-487.3" font-family="Times,serif" font-size="14.00" fill="#000000">Infrastruktura::Github#Github</text>
</g>
<!-- d33tah&#45;&#45;Infrastruktura::Github#Github -->
<g id="edge13" class="edge">
<title>d33tah&#45;&#45;Infrastruktura::Github#Github</title>
<path fill="none" stroke="#ff0000" d="M100.1545,-570.0769C182.83,-570.0769 363.7266,-570.0769 363.7266,-570.0769 363.7266,-570.0769 363.7266,-501.8 363.7266,-501.8 363.7266,-501.8 428.5781,-501.8 492.6697,-501.8"/>
</g>
<!-- pmysl -->
<g id="node15" class="node">
<title>pmysl</title>
<ellipse fill="none" stroke="#000000" cx="59.7947" cy="-663" rx="38.1938" ry="18"/>
<text text-anchor="middle" x="59.7947" y="-659.3" font-family="Times,serif" font-size="14.00" fill="#000000">pmysl</text>
</g>
<!-- pmysl&#45;&#45;Miejsce::Miejsce#Klucze do spejsu -->
<g id="edge16" class="edge">
<title>pmysl&#45;&#45;Miejsce::Miejsce#Klucze do spejsu</title>
<path fill="none" stroke="#2bd500" d="M86.7653,-675.8571C174.7396,-675.8571 447.7266,-675.8571 447.7266,-675.8571 447.7266,-675.8571 447.7266,-727.9286 447.7266,-744.2009"/>
</g>
<!-- pmysl&#45;&#45;Infrastruktura::VM#Hosting -->
<g id="edge14" class="edge">
<title>pmysl&#45;&#45;Infrastruktura::VM#Hosting</title>
<path fill="none" stroke="#2bd500" d="M94.7266,-655.5125C94.7266,-644.701 94.7266,-626 94.7266,-626 94.7266,-626 325.4468,-626 480.2366,-626"/>
</g>
<!-- pmysl&#45;&#45;Infrastruktura::Forum#Forum -->
<g id="edge15" class="edge">
<title>pmysl&#45;&#45;Infrastruktura::Forum#Forum</title>
<path fill="none" stroke="#2bd500" d="M98.1045,-660.4286C172.8106,-660.4286 341.5619,-660.4286 466.4781,-660.4286"/>
</g>
<!-- pmysl&#45;&#45;Infrastruktura::Grafana#Grafana -->
<g id="edge17" class="edge">
<title>pmysl&#45;&#45;Infrastruktura::Grafana#Grafana</title>
<path fill="none" stroke="#2bd500" d="M97.8542,-665.5714C197.2031,-665.5714 456.7266,-665.5714 456.7266,-665.5714 456.7266,-665.5714 456.7266,-690.7431 456.7266,-701.3623"/>
</g>
<!-- pmysl&#45;&#45;Infrastruktura::Github#Github -->
<g id="edge18" class="edge">
<title>pmysl&#45;&#45;Infrastruktura::Github#Github</title>
<path fill="none" stroke="#2bd500" d="M94.7028,-655.2857C149.0513,-655.2857 247.7266,-655.2857 247.7266,-655.2857 247.7266,-655.2857 247.7266,-494.6 247.7266,-494.6 247.7266,-494.6 362.9992,-494.6 464.7633,-494.6"/>
</g>
<!-- thinkofher -->
<g id="node16" class="node">
<title>thinkofher</title>
<ellipse fill="none" stroke="#000000" cx="59.7947" cy="-233" rx="59.5901" ry="18"/>
<text text-anchor="middle" x="59.7947" y="-229.3" font-family="Times,serif" font-size="14.00" fill="#000000">thinkofher</text>
</g>
<!-- thinkofher&#45;&#45;Infrastruktura::VM#Hosting -->
<g id="edge21" class="edge">
<title>thinkofher&#45;&#45;Infrastruktura::VM#Hosting</title>
<path fill="none" stroke="#0061f2" d="M104.4548,-221C145.4068,-221 199.7266,-221 199.7266,-221 199.7266,-221 199.7266,-614 199.7266,-614 199.7266,-614 358.7348,-614 480.4754,-614"/>
</g>
<!-- thinkofher&#45;&#45;Infrastruktura::Forum#Forum -->
<g id="edge19" class="edge">
<title>thinkofher&#45;&#45;Infrastruktura::Forum#Forum</title>
<path fill="none" stroke="#0061f2" d="M116.3207,-227C149.0065,-227 183.7266,-227 183.7266,-227 183.7266,-227 183.7266,-650.1429 183.7266,-650.1429 183.7266,-650.1429 382.2387,-650.1429 510.5737,-650.1429"/>
</g>
<!-- Infrastruktura::Matrix#hs&#45;ldz:hackerspace.pl -->
<g id="node17" class="node">
<title>Infrastruktura::Matrix#hs&#45;ldz:hackerspace.pl</title>
<ellipse fill="none" stroke="#000000" cx="617.158" cy="-104" rx="223.6604" ry="18"/>
<text text-anchor="middle" x="617.158" y="-100.3" font-family="Times,serif" font-size="14.00" fill="#000000">Infrastruktura::Matrix#hs&#45;ldz:hackerspace.pl</text>
</g>
<!-- thinkofher&#45;&#45;Infrastruktura::Matrix#hs&#45;ldz:hackerspace.pl -->
<g id="edge20" class="edge">
<title>thinkofher&#45;&#45;Infrastruktura::Matrix#hs&#45;ldz:hackerspace.pl</title>
<path fill="none" stroke="#0061f2" d="M119.9617,-233C217.8365,-233 400.7266,-233 400.7266,-233 400.7266,-233 400.7266,-131.5712 400.7266,-108.5912"/>
</g>
<!-- Infrastruktura::Matrix#hs&#45;ldz&#45;offtopic:hackerspace.pl -->
<g id="node18" class="node">
<title>Infrastruktura::Matrix#hs&#45;ldz&#45;offtopic:hackerspace.pl</title>
<ellipse fill="none" stroke="#000000" cx="617.158" cy="-61" rx="262.6534" ry="18"/>
<text text-anchor="middle" x="617.158" y="-57.3" font-family="Times,serif" font-size="14.00" fill="#000000">Infrastruktura::Matrix#hs&#45;ldz&#45;offtopic:hackerspace.pl</text>
</g>
<!-- thinkofher&#45;&#45;Infrastruktura::Matrix#hs&#45;ldz&#45;offtopic:hackerspace.pl -->
<g id="edge22" class="edge">
<title>thinkofher&#45;&#45;Infrastruktura::Matrix#hs&#45;ldz&#45;offtopic:hackerspace.pl</title>
<path fill="none" stroke="#0061f2" d="M113.7266,-225.1382C113.7266,-192.5783 113.7266,-70 113.7266,-70 113.7266,-70 256.3312,-70 389.7444,-70"/>
</g>
<!-- cytP450 -->
<g id="node19" class="node">
<title>cytP450</title>
<ellipse fill="none" stroke="#000000" cx="59.7947" cy="-749" rx="49.2915" ry="18"/>
<text text-anchor="middle" x="59.7947" y="-745.3" font-family="Times,serif" font-size="14.00" fill="#000000">cytP450</text>
</g>
<!-- cytP450&#45;&#45;Miejsce::Miejsce#Klucze do spejsu -->
<g id="edge27" class="edge">
<title>cytP450&#45;&#45;Miejsce::Miejsce#Klucze do spejsu</title>
<path fill="none" stroke="#c60077" d="M99.4321,-759.8C176.9645,-759.8 352.0232,-759.8 477.0988,-759.8"/>
</g>
<!-- cytP450&#45;&#45;Infrastruktura::VM#Hosting -->
<g id="edge23" class="edge">
<title>cytP450&#45;&#45;Infrastruktura::VM#Hosting</title>
<path fill="none" stroke="#c60077" d="M108.3257,-745.4C192.7482,-745.4 357.7266,-745.4 357.7266,-745.4 357.7266,-745.4 357.7266,-632 357.7266,-632 357.7266,-632 437.8293,-632 509.0143,-632"/>
</g>
<!-- cytP450&#45;&#45;Infrastruktura::Forum#Forum -->
<g id="edge24" class="edge">
<title>cytP450&#45;&#45;Infrastruktura::Forum#Forum</title>
<path fill="none" stroke="#c60077" d="M108.466,-752.6C194.0978,-752.6 362.7266,-752.6 362.7266,-752.6 362.7266,-752.6 362.7266,-670.7143 362.7266,-670.7143 362.7266,-670.7143 419.5676,-670.7143 479.5171,-670.7143"/>
</g>
<!-- cytP450&#45;&#45;Infrastruktura::Domeny#Domeny -->
<g id="edge25" class="edge">
<title>cytP450&#45;&#45;Infrastruktura::Domeny#Domeny</title>
<path fill="none" stroke="#c60077" d="M102.7266,-758.1965C102.7266,-778.2236 102.7266,-824 102.7266,-824 102.7266,-824 331.9213,-824 484.3448,-824"/>
</g>
<!-- Przegląd&#45;lokali&#45;na&#45;wynajem&#45;w&#45;Łodzi.&#45;Fundusz&#45;1000&#45;&#45;&#45;1500.#Bot Aleksego -->
<g id="node20" class="node">
<title>Przegląd&#45;lokali&#45;na&#45;wynajem&#45;w&#45;Łodzi.&#45;Fundusz&#45;1000&#45;&#45;&#45;1500.#Bot Aleksego</title>
<ellipse fill="none" stroke="#000000" cx="617.158" cy="-878" rx="353.6373" ry="18"/>
<text text-anchor="middle" x="617.158" y="-874.3" font-family="Times,serif" font-size="14.00" fill="#000000">Przegląd&#45;lokali&#45;na&#45;wynajem&#45;w&#45;Łodzi.&#45;Fundusz&#45;1000&#45;&#45;&#45;1500.#Bot Aleksego</text>
</g>
<!-- cytP450&#45;&#45;Przegląd&#45;lokali&#45;na&#45;wynajem&#45;w&#45;Łodzi.&#45;Fundusz&#45;1000&#45;&#45;&#45;1500.#Bot Aleksego -->
<g id="edge26" class="edge">
<title>cytP450&#45;&#45;Przegląd&#45;lokali&#45;na&#45;wynajem&#45;w&#45;Łodzi.&#45;Fundusz&#45;1000&#45;&#45;&#45;1500.#Bot Aleksego</title>
<path fill="none" stroke="#c60077" d="M95.7266,-761.3691C95.7266,-793.6567 95.7266,-878 95.7266,-878 95.7266,-878 170.5885,-878 263.581,-878"/>
</g>
<!-- q3k -->
<g id="node21" class="node">
<title>q3k</title>
<ellipse fill="none" stroke="#000000" cx="59.7947" cy="-813" rx="28.6953" ry="18"/>
<text text-anchor="middle" x="59.7947" y="-809.3" font-family="Times,serif" font-size="14.00" fill="#000000">q3k</text>
</g>
<!-- q3k&#45;&#45;Infrastruktura::Lista&#45;mailingowa#Lista mailingowa -->
<g id="edge28" class="edge">
<title>q3k&#45;&#45;Infrastruktura::Lista&#45;mailingowa#Lista mailingowa</title>
<path fill="none" stroke="#b6e400" d="M83.0343,-802.5C139.2279,-802.5 287.1275,-802.5 413.0799,-802.5"/>
</g>
<!-- q3k&#45;&#45;Infrastruktura::Domeny#Domeny -->
<g id="edge29" class="edge">
<title>q3k&#45;&#45;Infrastruktura::Domeny#Domeny</title>
<path fill="none" stroke="#b6e400" d="M76.7798,-827.5C134.2941,-827.5 325.8479,-827.5 464.5743,-827.5"/>
</g>
<!-- ksiezak -->
<g id="node22" class="node">
<title>ksiezak</title>
<ellipse fill="none" stroke="#000000" cx="59.7947" cy="-61" rx="46.2923" ry="18"/>
<text text-anchor="middle" x="59.7947" y="-57.3" font-family="Times,serif" font-size="14.00" fill="#000000">ksiezak</text>
</g>
<!-- ksiezak&#45;&#45;Infrastruktura::Matrix#hs&#45;ldz:hackerspace.pl -->
<g id="edge30" class="edge">
<title>ksiezak&#45;&#45;Infrastruktura::Matrix#hs&#45;ldz:hackerspace.pl</title>
<path fill="none" stroke="#00ffff" d="M74.7266,-78.4897C74.7266,-90.3945 74.7266,-104 74.7266,-104 74.7266,-104 243.9799,-104 393.3987,-104"/>
</g>
<!-- ksiezak&#45;&#45;Infrastruktura::Matrix#hs&#45;ldz&#45;offtopic:hackerspace.pl -->
<g id="edge32" class="edge">
<title>ksiezak&#45;&#45;Infrastruktura::Matrix#hs&#45;ldz&#45;offtopic:hackerspace.pl</title>
<path fill="none" stroke="#00ffff" d="M106.3565,-61C161.9537,-61 259.3903,-61 354.3592,-61"/>
</g>
<!-- Współdzielony&#45;kalendarz&#45;i&#45;lista&#45;kontaktów#Założenie konta -->
<g id="node23" class="node">
<title>Współdzielony&#45;kalendarz&#45;i&#45;lista&#45;kontaktów#Założenie konta</title>
<ellipse fill="none" stroke="#000000" cx="617.158" cy="-18" rx="289.4488" ry="18"/>
<text text-anchor="middle" x="617.158" y="-14.3" font-family="Times,serif" font-size="14.00" fill="#000000">Współdzielony&#45;kalendarz&#45;i&#45;lista&#45;kontaktów#Założenie konta</text>
</g>
<!-- ksiezak&#45;&#45;Współdzielony&#45;kalendarz&#45;i&#45;lista&#45;kontaktów#Założenie konta -->
<g id="edge31" class="edge">
<title>ksiezak&#45;&#45;Współdzielony&#45;kalendarz&#45;i&#45;lista&#45;kontaktów#Założenie konta</title>
<path fill="none" stroke="#00ffff" d="M99.8893,-52C177.7257,-52 341.7266,-52 341.7266,-52 341.7266,-52 341.7266,-33.2714 341.7266,-23.6144"/>
</g>
<!-- BluRaf -->
<g id="node24" class="node">
<title>BluRaf</title>
<ellipse fill="none" stroke="#000000" cx="59.7947" cy="-190" rx="42.4939" ry="18"/>
<text text-anchor="middle" x="59.7947" y="-186.3" font-family="Times,serif" font-size="14.00" fill="#000000">BluRaf</text>
</g>
<!-- BluRaf&#45;&#45;Infrastruktura::IRC#IRC -->
<g id="edge33" class="edge">
<title>BluRaf&#45;&#45;Infrastruktura::IRC#IRC</title>
<path fill="none" stroke="#ab00d5" d="M87.8354,-203.5C162.5418,-203.5 360.7266,-203.5 360.7266,-203.5 360.7266,-203.5 360.7266,-307 360.7266,-307 360.7266,-307 448.7654,-307 521.6724,-307"/>
</g>
<!-- BluRaf&#45;&#45;Infrastruktura::Telegram#t.me/hakierspejs -->
<g id="edge34" class="edge">
<title>BluRaf&#45;&#45;Infrastruktura::Telegram#t.me/hakierspejs</title>
<path fill="none" stroke="#ab00d5" d="M96.5156,-199C176.981,-199 361.7266,-199 361.7266,-199 361.7266,-199 361.7266,-265.2 361.7266,-265.2 361.7266,-265.2 399.7341,-265.2 446.4268,-265.2"/>
</g>
<!-- BluRaf&#45;&#45;Infrastruktura::Telegram#t.me/hakierspejs_spam -->
<g id="edge37" class="edge">
<title>BluRaf&#45;&#45;Infrastruktura::Telegram#t.me/hakierspejs_spam</title>
<path fill="none" stroke="#ab00d5" d="M100.7891,-194.5C188.9651,-194.5 388.7266,-194.5 388.7266,-194.5 388.7266,-194.5 388.7266,-402.6968 388.7266,-441.7337"/>
</g>
<!-- BluRaf&#45;&#45;Infrastruktura::Matrix#hs&#45;ldz:hackerspace.pl -->
<g id="edge36" class="edge">
<title>BluRaf&#45;&#45;Infrastruktura::Matrix#hs&#45;ldz:hackerspace.pl</title>
<path fill="none" stroke="#ab00d5" d="M96.6026,-181C184.1872,-181 397.7266,-181 397.7266,-181 397.7266,-181 397.7266,-123.0949 397.7266,-107.7139"/>
</g>
<!-- BluRaf&#45;&#45;Infrastruktura::Matrix#hs&#45;ldz&#45;offtopic:hackerspace.pl -->
<g id="edge39" class="edge">
<title>BluRaf&#45;&#45;Infrastruktura::Matrix#hs&#45;ldz&#45;offtopic:hackerspace.pl</title>
<path fill="none" stroke="#ab00d5" d="M87.9061,-176.5C165.9754,-176.5 379.7266,-176.5 379.7266,-176.5 379.7266,-176.5 379.7266,-95.0335 379.7266,-68.9388"/>
</g>
<!-- Infrastruktura::Mumble#Mumble -->
<g id="node25" class="node">
<title>Infrastruktura::Mumble#Mumble</title>
<ellipse fill="none" stroke="#000000" cx="617.158" cy="-190" rx="167.8704" ry="18"/>
<text text-anchor="middle" x="617.158" y="-186.3" font-family="Times,serif" font-size="14.00" fill="#000000">Infrastruktura::Mumble#Mumble</text>
</g>
<!-- BluRaf&#45;&#45;Infrastruktura::Mumble#Mumble -->
<g id="edge35" class="edge">
<title>BluRaf&#45;&#45;Infrastruktura::Mumble#Mumble</title>
<path fill="none" stroke="#ab00d5" d="M100.779,-185.5C174.376,-185.5 332.6302,-185.5 454.6705,-185.5"/>
</g>
<!-- Infrastruktura::Facebook#Konto na Fejsie -->
<g id="node26" class="node">
<title>Infrastruktura::Facebook#Konto na Fejsie</title>
<ellipse fill="none" stroke="#000000" cx="617.158" cy="-233" rx="207.1633" ry="18"/>
<text text-anchor="middle" x="617.158" y="-229.3" font-family="Times,serif" font-size="14.00" fill="#000000">Infrastruktura::Facebook#Konto na Fejsie</text>
</g>
<!-- BluRaf&#45;&#45;Infrastruktura::Facebook#Konto na Fejsie -->
<g id="edge38" class="edge">
<title>BluRaf&#45;&#45;Infrastruktura::Facebook#Konto na Fejsie</title>
<path fill="none" stroke="#ab00d5" d="M102.2306,-190C199.3998,-190 429.7266,-190 429.7266,-190 429.7266,-190 429.7266,-212.6994 429.7266,-225.1131"/>
</g>
<!-- None -->
<g id="node27" class="node">
<title>None</title>
<ellipse fill="none" stroke="#000000" cx="617.158" cy="-147" rx="35.9954" ry="18"/>
<text text-anchor="middle" x="617.158" y="-143.3" font-family="Times,serif" font-size="14.00" fill="#000000">None</text>
</g>
<!-- BluRaf&#45;&#45;None -->
<g id="edge40" class="edge">
<title>BluRaf&#45;&#45;None</title>
<path fill="none" stroke="#ab00d5" d="M45.7266,-173.0053C45.7266,-160.986 45.7266,-147 45.7266,-147 45.7266,-147 455.3666,-147 580.9789,-147"/>
</g>
<!-- kszmigiel -->
<g id="node28" class="node">
<title>kszmigiel</title>
<ellipse fill="none" stroke="#000000" cx="59.7947" cy="-405" rx="55.4913" ry="18"/>
<text text-anchor="middle" x="59.7947" y="-401.3" font-family="Times,serif" font-size="14.00" fill="#000000">kszmigiel</text>
</g>
<!-- kszmigiel&#45;&#45;Miejsce::Miejsce#Klucze do spejsu -->
<g id="edge45" class="edge">
<title>kszmigiel&#45;&#45;Miejsce::Miejsce#Klucze do spejsu</title>
<path fill="none" stroke="#f29100" d="M104.0062,-415.8C133.813,-415.8 167.7266,-415.8 167.7266,-415.8 167.7266,-415.8 167.7266,-738.2 167.7266,-738.2 167.7266,-738.2 345.2112,-738.2 477.1113,-738.2"/>
</g>
<!-- kszmigiel&#45;&#45;Infrastruktura::Telegram#t.me/hakierspejs -->
<g id="edge41" class="edge">
<title>kszmigiel&#45;&#45;Infrastruktura::Telegram#t.me/hakierspejs</title>
<path fill="none" stroke="#f29100" d="M104.0394,-394.2C202.8252,-394.2 432.7266,-394.2 432.7266,-394.2 432.7266,-394.2 432.7266,-313.1395 432.7266,-285.275"/>
</g>
<!-- kszmigiel&#45;&#45;Infrastruktura::Telegram#t.me/hakierspejs_spam -->
<g id="edge43" class="edge">
<title>kszmigiel&#45;&#45;Infrastruktura::Telegram#t.me/hakierspejs_spam</title>
<path fill="none" stroke="#f29100" d="M114.181,-408.6C206.6812,-408.6 384.7266,-408.6 384.7266,-408.6 384.7266,-408.6 384.7266,-431.6956 384.7266,-442.5216"/>
</g>
<!-- kszmigiel&#45;&#45;Infrastruktura::Meetup#Meetup -->
<g id="edge44" class="edge">
<title>kszmigiel&#45;&#45;Infrastruktura::Meetup#Meetup</title>
<path fill="none" stroke="#f29100" d="M106.7266,-395.2134C106.7266,-383.2484 106.7266,-364.5714 106.7266,-364.5714 106.7266,-364.5714 306.1139,-364.5714 455.6543,-364.5714"/>
</g>
<!-- Infrastruktura::Naklejki#Naklejki -->
<g id="node29" class="node">
<title>Infrastruktura::Naklejki#Naklejki</title>
<ellipse fill="none" stroke="#000000" cx="617.158" cy="-405" rx="170.8697" ry="18"/>
<text text-anchor="middle" x="617.158" y="-401.3" font-family="Times,serif" font-size="14.00" fill="#000000">Infrastruktura::Naklejki#Naklejki</text>
</g>
<!-- kszmigiel&#45;&#45;Infrastruktura::Naklejki#Naklejki -->
<g id="edge42" class="edge">
<title>kszmigiel&#45;&#45;Infrastruktura::Naklejki#Naklejki</title>
<path fill="none" stroke="#f29100" d="M113.9974,-401.4C190.9359,-401.4 335.1752,-401.4 449.5604,-401.4"/>
</g>
<!-- Martti25 -->
<g id="node30" class="node">
<title>Martti25</title>
<ellipse fill="none" stroke="#000000" cx="59.7947" cy="-319" rx="51.9908" ry="18"/>
<text text-anchor="middle" x="59.7947" y="-315.3" font-family="Times,serif" font-size="14.00" fill="#000000">Martti25</text>
</g>
<!-- Martti25&#45;&#45;Infrastruktura::Telegram#t.me/hakierspejs -->
<g id="edge46" class="edge">
<title>Martti25&#45;&#45;Infrastruktura::Telegram#t.me/hakierspejs</title>
<path fill="none" stroke="#00c64f" d="M111.9865,-319C211.5354,-319 418.7266,-319 418.7266,-319 418.7266,-319 418.7266,-294.8125 418.7266,-282.7188"/>
</g>
<!-- Martti25&#45;&#45;Infrastruktura::Meetup#Meetup -->
<g id="edge49" class="edge">
<title>Martti25&#45;&#45;Infrastruktura::Meetup#Meetup</title>
<path fill="none" stroke="#00c64f" d="M100.7266,-330.1646C100.7266,-340.5022 100.7266,-354.2857 100.7266,-354.2857 100.7266,-354.2857 316.8912,-354.2857 469.5152,-354.2857"/>
</g>
<!-- Martti25&#45;&#45;Infrastruktura::Github#Github -->
<g id="edge47" class="edge">
<title>Martti25&#45;&#45;Infrastruktura::Github#Github</title>
<path fill="none" stroke="#00c64f" d="M98.6134,-331C179.1003,-331 356.7266,-331 356.7266,-331 356.7266,-331 356.7266,-480.2 356.7266,-480.2 356.7266,-480.2 425.7053,-480.2 492.6631,-480.2"/>
</g>
<!-- Martti25&#45;&#45;Infrastruktura::Facebook#Konto na Fejsie -->
<g id="edge48" class="edge">
<title>Martti25&#45;&#45;Infrastruktura::Facebook#Konto na Fejsie</title>
<path fill="none" stroke="#00c64f" d="M108.948,-313C195.4278,-313 365.7266,-313 365.7266,-313 365.7266,-313 365.7266,-245 365.7266,-245 365.7266,-245 410.6834,-245 462.5769,-245"/>
</g>
<!-- kpc21 -->
<g id="node31" class="node">
<title>kpc21</title>
<ellipse fill="none" stroke="#000000" cx="59.7947" cy="-491" rx="39.7935" ry="18"/>
<text text-anchor="middle" x="59.7947" y="-487.3" font-family="Times,serif" font-size="14.00" fill="#000000">kpc21</text>
</g>
<!-- kpc21&#45;&#45;Infrastruktura::Telegram#t.me/hakierspejs_spam -->
<g id="edge50" class="edge">
<title>kpc21&#45;&#45;Infrastruktura::Telegram#t.me/hakierspejs_spam</title>
<path fill="none" stroke="#2e00e4" d="M98.8899,-487.4C187.8441,-487.4 397.7266,-487.4 397.7266,-487.4 397.7266,-487.4 397.7266,-467.486 397.7266,-455.9732"/>
</g>
<!-- nikolaad -->
<g id="node32" class="node">
<title>nikolaad</title>
<ellipse fill="none" stroke="#000000" cx="59.7947" cy="-276" rx="50.0912" ry="18"/>
<text text-anchor="middle" x="59.7947" y="-272.3" font-family="Times,serif" font-size="14.00" fill="#000000">nikolaad</text>
</g>
<!-- nikolaad&#45;&#45;Infrastruktura::Meetup#Meetup -->
<g id="edge52" class="edge">
<title>nikolaad&#45;&#45;Infrastruktura::Meetup#Meetup</title>
<path fill="none" stroke="#ff0000" d="M99.9336,-286.8C181.6624,-286.8 359.7266,-286.8 359.7266,-286.8 359.7266,-286.8 359.7266,-349.1429 359.7266,-349.1429 359.7266,-349.1429 433.9921,-349.1429 502.7457,-349.1429"/>
</g>
<!-- nikolaad&#45;&#45;Infrastruktura::Facebook#Konto na Fejsie -->
<g id="edge51" class="edge">
<title>nikolaad&#45;&#45;Infrastruktura::Facebook#Konto na Fejsie</title>
<path fill="none" stroke="#ff0000" d="M109.1262,-272.4C195.4285,-272.4 364.7266,-272.4 364.7266,-272.4 364.7266,-272.4 364.7266,-239 364.7266,-239 364.7266,-239 388.4624,-239 421.3772,-239"/>
</g>
<!-- biniu -->
<g id="node33" class="node">
<title>biniu</title>
<ellipse fill="none" stroke="#000000" cx="59.7947" cy="-362" rx="34.394" ry="18"/>
<text text-anchor="middle" x="59.7947" y="-358.3" font-family="Times,serif" font-size="14.00" fill="#000000">biniu</text>
</g>
<!-- biniu&#45;&#45;Infrastruktura::Meetup#Meetup -->
<g id="edge53" class="edge">
<title>biniu&#45;&#45;Infrastruktura::Meetup#Meetup</title>
<path fill="none" stroke="#2bd500" d="M94.2396,-359.4286C164.7888,-359.4286 329.6745,-359.4286 455.5804,-359.4286"/>
</g>
<!-- Keij0 -->
<g id="node34" class="node">
<title>Keij0</title>
<ellipse fill="none" stroke="#000000" cx="59.7947" cy="-448" rx="34.394" ry="18"/>
<text text-anchor="middle" x="59.7947" y="-444.3" font-family="Times,serif" font-size="14.00" fill="#000000">Keij0</text>
</g>
<!-- Keij0&#45;&#45;Infrastruktura::VM#Hosting -->
<g id="edge54" class="edge">
<title>Keij0&#45;&#45;Infrastruktura::VM#Hosting</title>
<path fill="none" stroke="#0061f2" d="M92.3111,-454C169.1862,-454 355.7266,-454 355.7266,-454 355.7266,-454 355.7266,-608 355.7266,-608 355.7266,-608 437.0153,-608 508.9367,-608"/>
</g>
<!-- Keij0&#45;&#45;Infrastruktura::Meetup#Meetup -->
<g id="edge55" class="edge">
<title>Keij0&#45;&#45;Infrastruktura::Meetup#Meetup</title>
<path fill="none" stroke="#0061f2" d="M92.3547,-442C169.8313,-442 358.7266,-442 358.7266,-442 358.7266,-442 358.7266,-374.8571 358.7266,-374.8571 358.7266,-374.8571 433.552,-374.8571 502.6777,-374.8571"/>
</g>
<!-- 51 -->
<g id="node35" class="node">
<title>51</title>
<ellipse fill="none" stroke="#000000" cx="59.7947" cy="-921" rx="27" ry="18"/>
<text text-anchor="middle" x="59.7947" y="-917.3" font-family="Times,serif" font-size="14.00" fill="#000000">51</text>
</g>
<!-- Miejsce::Miejsce#Stan obecny -->
<g id="node36" class="node">
<title>Miejsce::Miejsce#Stan obecny</title>
<ellipse fill="none" stroke="#000000" cx="617.158" cy="-921" rx="154.0727" ry="18"/>
<text text-anchor="middle" x="617.158" y="-917.3" font-family="Times,serif" font-size="14.00" fill="#000000">Miejsce::Miejsce#Stan obecny</text>
</g>
<!-- 51&#45;&#45;Miejsce::Miejsce#Stan obecny -->
<g id="edge56" class="edge">
<title>51&#45;&#45;Miejsce::Miejsce#Stan obecny</title>
<path fill="none" stroke="#c60077" d="M87.0548,-921C154.2067,-921 331.6625,-921 462.8534,-921"/>
</g>
<!-- nuke -->
<g id="node37" class="node">
<title>nuke</title>
<ellipse fill="none" stroke="#000000" cx="59.7947" cy="-706" rx="33.5952" ry="18"/>
<text text-anchor="middle" x="59.7947" y="-702.3" font-family="Times,serif" font-size="14.00" fill="#000000">nuke</text>
</g>
<!-- nuke&#45;&#45;Miejsce::Miejsce#Klucze do spejsu -->
<g id="edge57" class="edge">
<title>nuke&#45;&#45;Miejsce::Miejsce#Klucze do spejsu</title>
<path fill="none" stroke="#b6e400" d="M93.6175,-706C187.548,-706 444.7266,-706 444.7266,-706 444.7266,-706 444.7266,-736.048 444.7266,-745.9075"/>
</g>
<!-- kpc -->
<g id="node38" class="node">
<title>kpc</title>
<ellipse fill="none" stroke="#000000" cx="59.7947" cy="-620" rx="27.8951" ry="18"/>
<text text-anchor="middle" x="59.7947" y="-616.3" font-family="Times,serif" font-size="14.00" fill="#000000">kpc</text>
</g>
<!-- kpc&#45;&#45;Infrastruktura::VM#Hosting -->
<g id="edge58" class="edge">
<title>kpc&#45;&#45;Infrastruktura::VM#Hosting</title>
<path fill="none" stroke="#00ffff" d="M87.8164,-620C157.1318,-620 340.5202,-620 471.9936,-620"/>
</g>
</g>
</svg>
