<?xml version="1.0" encoding="UTF-8" standalone="no"?>
<!DOCTYPE svg PUBLIC "-//W3C//DTD SVG 1.1//EN"
 "http://www.w3.org/Graphics/SVG/1.1/DTD/svg11.dtd">
<!-- Generated by graphviz version 2.43.0 (0)
 -->
<!-- Title: %3 Pages: 1 -->
<svg width="976pt" height="1248pt"
 viewBox="0.00 0.00 976.13 1248.00" xmlns="http://www.w3.org/2000/svg" xmlns:xlink="http://www.w3.org/1999/xlink">
<g id="graph0" class="graph" transform="scale(1 1) rotate(0) translate(4 1244)">
<title>%3</title>
<polygon fill="white" stroke="transparent" points="-4,4 -4,-1244 972.13,-1244 972.13,4 -4,4"/>
<!-- thinkofher -->
<g id="node1" class="node">
<title>thinkofher</title>
<ellipse fill="none" stroke="black" cx="59.14" cy="-1007" rx="59.29" ry="18"/>
<text text-anchor="middle" x="59.14" y="-1003.3" font-family="Times,serif" font-size="14.00">thinkofher</text>
</g>
<!-- Infrastruktura::Matrix#hs&#45;ldz:hackerspace.pl -->
<g id="node2" class="node">
<title>Infrastruktura::Matrix#hs&#45;ldz:hackerspace.pl</title>
<ellipse fill="none" stroke="black" cx="615.21" cy="-1179" rx="221.76" ry="18"/>
<text text-anchor="middle" x="615.21" y="-1175.3" font-family="Times,serif" font-size="14.00">Infrastruktura::Matrix#hs&#45;ldz:hackerspace.pl</text>
</g>
<!-- thinkofher&#45;&#45;Infrastruktura::Matrix#hs&#45;ldz:hackerspace.pl -->
<g id="edge1" class="edge">
<title>thinkofher&#45;&#45;Infrastruktura::Matrix#hs&#45;ldz:hackerspace.pl</title>
<path fill="none" stroke="#ff0000" d="M94.63,-1021.4C169.57,-1021.4 337.13,-1021.4 337.13,-1021.4 337.13,-1021.4 337.13,-1179 337.13,-1179 337.13,-1179 360.36,-1179 393.4,-1179"/>
</g>
<!-- Infrastruktura::Github#Github -->
<g id="node3" class="node">
<title>Infrastruktura::Github#Github</title>
<ellipse fill="none" stroke="black" cx="615.21" cy="-1007" rx="154.07" ry="18"/>
<text text-anchor="middle" x="615.21" y="-1003.3" font-family="Times,serif" font-size="14.00">Infrastruktura::Github#Github</text>
</g>
<!-- thinkofher&#45;&#45;Infrastruktura::Github#Github -->
<g id="edge2" class="edge">
<title>thinkofher&#45;&#45;Infrastruktura::Github#Github</title>
<path fill="none" stroke="#ff0000" d="M117.34,-1010.6C198.8,-1010.6 349.68,-1010.6 464.07,-1010.6"/>
</g>
<!-- Infrastruktura::IRC#IRC -->
<g id="node4" class="node">
<title>Infrastruktura::IRC#IRC</title>
<ellipse fill="none" stroke="black" cx="615.21" cy="-1050" rx="124.58" ry="18"/>
<text text-anchor="middle" x="615.21" y="-1046.3" font-family="Times,serif" font-size="14.00">Infrastruktura::IRC#IRC</text>
</g>
<!-- thinkofher&#45;&#45;Infrastruktura::IRC#IRC -->
<g id="edge3" class="edge">
<title>thinkofher&#45;&#45;Infrastruktura::IRC#IRC</title>
<path fill="none" stroke="#ff0000" d="M107.13,-1017.57C107.13,-1031.03 107.13,-1052.57 107.13,-1052.57 107.13,-1052.57 341.17,-1052.57 491.57,-1052.57"/>
</g>
<!-- Stowarzyszenie#Zarzd -->
<g id="node5" class="node">
<title>Stowarzyszenie#Zarzd</title>
<ellipse fill="none" stroke="black" cx="615.21" cy="-921" rx="123.48" ry="18"/>
<text text-anchor="middle" x="615.21" y="-917.3" font-family="Times,serif" font-size="14.00">Stowarzyszenie#Zarzd</text>
</g>
<!-- thinkofher&#45;&#45;Stowarzyszenie#Zarzd -->
<g id="edge4" class="edge">
<title>thinkofher&#45;&#45;Stowarzyszenie#Zarzd</title>
<path fill="none" stroke="#ff0000" d="M104.13,-995.05C104.13,-971.98 104.13,-923.57 104.13,-923.57 104.13,-923.57 341.59,-923.57 492.79,-923.57"/>
</g>
<!-- Bazy&#45;danych# -->
<g id="node6" class="node">
<title>Bazy&#45;danych#</title>
<ellipse fill="none" stroke="black" cx="615.21" cy="-1093" rx="77.19" ry="18"/>
<text text-anchor="middle" x="615.21" y="-1089.3" font-family="Times,serif" font-size="14.00">Bazy&#45;danych#</text>
</g>
<!-- thinkofher&#45;&#45;Bazy&#45;danych# -->
<g id="edge5" class="edge">
<title>thinkofher&#45;&#45;Bazy&#45;danych#</title>
<path fill="none" stroke="#ff0000" d="M106.47,-1017.8C186.07,-1017.8 338.13,-1017.8 338.13,-1017.8 338.13,-1017.8 338.13,-1099 338.13,-1099 338.13,-1099 459.95,-1099 542.05,-1099"/>
</g>
<!-- Infrastruktura::Matrix#hs&#45;ldz&#45;offtopic:hackerspace.pl -->
<g id="node7" class="node">
<title>Infrastruktura::Matrix#hs&#45;ldz&#45;offtopic:hackerspace.pl</title>
<ellipse fill="none" stroke="black" cx="615.21" cy="-1136" rx="258.85" ry="18"/>
<text text-anchor="middle" x="615.21" y="-1132.3" font-family="Times,serif" font-size="14.00">Infrastruktura::Matrix#hs&#45;ldz&#45;offtopic:hackerspace.pl</text>
</g>
<!-- thinkofher&#45;&#45;Infrastruktura::Matrix#hs&#45;ldz&#45;offtopic:hackerspace.pl -->
<g id="edge6" class="edge">
<title>thinkofher&#45;&#45;Infrastruktura::Matrix#hs&#45;ldz&#45;offtopic:hackerspace.pl</title>
<path fill="none" stroke="#ff0000" d="M113.68,-1014.2C212.97,-1014.2 413.13,-1014.2 413.13,-1014.2 413.13,-1014.2 413.13,-1094.61 413.13,-1124.76"/>
</g>
<!-- Infrastruktura::Telegram#G贸wny: t.me/hakierspejs -->
<g id="node8" class="node">
<title>Infrastruktura::Telegram#G贸wny: t.me/hakierspejs</title>
<ellipse fill="none" stroke="black" cx="615.21" cy="-964" rx="251.56" ry="18"/>
<text text-anchor="middle" x="615.21" y="-960.3" font-family="Times,serif" font-size="14.00">Infrastruktura::Telegram#G贸wny: t.me/hakierspejs</text>
</g>
<!-- thinkofher&#45;&#45;Infrastruktura::Telegram#G贸wny: t.me/hakierspejs -->
<g id="edge7" class="edge">
<title>thinkofher&#45;&#45;Infrastruktura::Telegram#G贸wny: t.me/hakierspejs</title>
<path fill="none" stroke="#ff0000" d="M107.13,-996.35C107.13,-987.9 107.13,-977.5 107.13,-977.5 107.13,-977.5 300.36,-977.5 448.49,-977.5"/>
</g>
<!-- Kanay&#45;komunikacji# -->
<g id="node9" class="node">
<title>Kanay&#45;komunikacji#</title>
<ellipse fill="none" stroke="black" cx="615.21" cy="-749" rx="108.58" ry="18"/>
<text text-anchor="middle" x="615.21" y="-745.3" font-family="Times,serif" font-size="14.00">Kanay&#45;komunikacji#</text>
</g>
<!-- thinkofher&#45;&#45;Kanay&#45;komunikacji# -->
<g id="edge8" class="edge">
<title>thinkofher&#45;&#45;Kanay&#45;komunikacji#</title>
<path fill="none" stroke="#ff0000" d="M106.7,-996.2C188.49,-996.2 347.13,-996.2 347.13,-996.2 347.13,-996.2 347.13,-761 347.13,-761 347.13,-761 455.14,-761 534.05,-761"/>
</g>
<!-- Marketing&#45;i&#45;media&#45;spoecznociowe# -->
<g id="node10" class="node">
<title>Marketing&#45;i&#45;media&#45;spoecznociowe#</title>
<ellipse fill="none" stroke="black" cx="615.21" cy="-835" rx="183.07" ry="18"/>
<text text-anchor="middle" x="615.21" y="-831.3" font-family="Times,serif" font-size="14.00">Marketing&#45;i&#45;media&#45;spoecznociowe#</text>
</g>
<!-- thinkofher&#45;&#45;Marketing&#45;i&#45;media&#45;spoecznociowe# -->
<g id="edge9" class="edge">
<title>thinkofher&#45;&#45;Marketing&#45;i&#45;media&#45;spoecznociowe#</title>
<path fill="none" stroke="#ff0000" d="M113.5,-999.8C197.21,-999.8 348.13,-999.8 348.13,-999.8 348.13,-999.8 348.13,-844 348.13,-844 348.13,-844 399.02,-844 456.37,-844"/>
</g>
<!-- d33tah -->
<g id="node11" class="node">
<title>d33tah</title>
<ellipse fill="none" stroke="black" cx="59.14" cy="-684" rx="43.59" ry="18"/>
<text text-anchor="middle" x="59.14" y="-680.3" font-family="Times,serif" font-size="14.00">d33tah</text>
</g>
<!-- d33tah&#45;&#45;Infrastruktura::Github#Github -->
<g id="edge12" class="edge">
<title>d33tah&#45;&#45;Infrastruktura::Github#Github</title>
<path fill="none" stroke="#2bd500" d="M79.25,-700C144.35,-700 345.13,-700 345.13,-700 345.13,-700 345.13,-992.6 345.13,-992.6 345.13,-992.6 444.46,-992.6 522.64,-992.6"/>
</g>
<!-- d33tah&#45;&#45;Infrastruktura::IRC#IRC -->
<g id="edge13" class="edge">
<title>d33tah&#45;&#45;Infrastruktura::IRC#IRC</title>
<path fill="none" stroke="#2bd500" d="M102.9,-684.5C119.79,-684.5 135.13,-684.5 135.13,-684.5 135.13,-684.5 135.13,-1047.43 135.13,-1047.43 135.13,-1047.43 349.33,-1047.43 491.58,-1047.43"/>
</g>
<!-- d33tah&#45;&#45;Stowarzyszenie#Zarzd -->
<g id="edge14" class="edge">
<title>d33tah&#45;&#45;Stowarzyszenie#Zarzd</title>
<path fill="none" stroke="#2bd500" d="M86.71,-698C159.64,-698 352.13,-698 352.13,-698 352.13,-698 352.13,-908.14 352.13,-908.14 352.13,-908.14 452.02,-908.14 528.7,-908.14"/>
</g>
<!-- d33tah&#45;&#45;Infrastruktura::Telegram#G贸wny: t.me/hakierspejs -->
<g id="edge21" class="edge">
<title>d33tah&#45;&#45;Infrastruktura::Telegram#G贸wny: t.me/hakierspejs</title>
<path fill="none" stroke="#2bd500" d="M98.26,-692C185.05,-692 386.13,-692 386.13,-692 386.13,-692 386.13,-912.51 386.13,-956.44"/>
</g>
<!-- d33tah&#45;&#45;Kanay&#45;komunikacji# -->
<g id="edge22" class="edge">
<title>d33tah&#45;&#45;Kanay&#45;komunikacji#</title>
<path fill="none" stroke="#2bd500" d="M60.13,-702.11C60.13,-721.34 60.13,-749 60.13,-749 60.13,-749 344.94,-749 506.53,-749"/>
</g>
<!-- d33tah&#45;&#45;Marketing&#45;i&#45;media&#45;spoecznociowe# -->
<g id="edge25" class="edge">
<title>d33tah&#45;&#45;Marketing&#45;i&#45;media&#45;spoecznociowe#</title>
<path fill="none" stroke="#2bd500" d="M95.56,-694C174.86,-694 356.13,-694 356.13,-694 356.13,-694 356.13,-821.5 356.13,-821.5 356.13,-821.5 426.32,-821.5 493.63,-821.5"/>
</g>
<!-- Infrastruktura::Telegram#posty: t.me/hakierspejs_spam -->
<g id="node12" class="node">
<title>Infrastruktura::Telegram#posty: t.me/hakierspejs_spam</title>
<ellipse fill="none" stroke="black" cx="615.21" cy="-620" rx="284.05" ry="18"/>
<text text-anchor="middle" x="615.21" y="-616.3" font-family="Times,serif" font-size="14.00">Infrastruktura::Telegram#posty: t.me/hakierspejs_spam</text>
</g>
<!-- d33tah&#45;&#45;Infrastruktura::Telegram#posty: t.me/hakierspejs_spam -->
<g id="edge10" class="edge">
<title>d33tah&#45;&#45;Infrastruktura::Telegram#posty: t.me/hakierspejs_spam</title>
<path fill="none" stroke="#2bd500" d="M99.09,-676.71C177.09,-676.71 342.13,-676.71 342.13,-676.71 342.13,-676.71 342.13,-639.27 342.13,-625.23"/>
</g>
<!-- Infrastruktura::Telegram#Spacerspejs: t.me/joinchat/UYf2ONtNj21J1DS6 -->
<g id="node13" class="node">
<title>Infrastruktura::Telegram#Spacerspejs: t.me/joinchat/UYf2ONtNj21J1DS6</title>
<ellipse fill="none" stroke="black" cx="615.21" cy="-448" rx="352.84" ry="18"/>
<text text-anchor="middle" x="615.21" y="-444.3" font-family="Times,serif" font-size="14.00">Infrastruktura::Telegram#Spacerspejs: t.me/joinchat/UYf2ONtNj21J1DS6</text>
</g>
<!-- d33tah&#45;&#45;Infrastruktura::Telegram#Spacerspejs: t.me/joinchat/UYf2ONtNj21J1DS6 -->
<g id="edge11" class="edge">
<title>d33tah&#45;&#45;Infrastruktura::Telegram#Spacerspejs: t.me/joinchat/UYf2ONtNj21J1DS6</title>
<path fill="none" stroke="#2bd500" d="M96.33,-674.57C163.26,-674.57 297.13,-674.57 297.13,-674.57 297.13,-674.57 297.13,-495.64 297.13,-455.8"/>
</g>
<!-- Bazy&#45;danych#Pad -->
<g id="node14" class="node">
<title>Bazy&#45;danych#Pad</title>
<ellipse fill="none" stroke="black" cx="615.21" cy="-405" rx="94.48" ry="18"/>
<text text-anchor="middle" x="615.21" y="-401.3" font-family="Times,serif" font-size="14.00">Bazy&#45;danych#Pad</text>
</g>
<!-- d33tah&#45;&#45;Bazy&#45;danych#Pad -->
<g id="edge15" class="edge">
<title>d33tah&#45;&#45;Bazy&#45;danych#Pad</title>
<path fill="none" stroke="#2bd500" d="M87.54,-670.29C136.39,-670.29 231.13,-670.29 231.13,-670.29 231.13,-670.29 231.13,-405 231.13,-405 231.13,-405 407.04,-405 520.76,-405"/>
</g>
<!-- Infrastruktura::Mariuszbot#Mariuszbot -->
<g id="node15" class="node">
<title>Infrastruktura::Mariuszbot#Mariuszbot</title>
<ellipse fill="none" stroke="black" cx="615.21" cy="-663" rx="196.07" ry="18"/>
<text text-anchor="middle" x="615.21" y="-659.3" font-family="Times,serif" font-size="14.00">Infrastruktura::Mariuszbot#Mariuszbot</text>
</g>
<!-- d33tah&#45;&#45;Infrastruktura::Mariuszbot#Mariuszbot -->
<g id="edge16" class="edge">
<title>d33tah&#45;&#45;Infrastruktura::Mariuszbot#Mariuszbot</title>
<path fill="none" stroke="#2bd500" d="M100.94,-678.86C189.91,-678.86 399.88,-678.86 522.24,-678.86"/>
</g>
<!-- Bazy&#45;danych#Trello -->
<g id="node16" class="node">
<title>Bazy&#45;danych#Trello</title>
<ellipse fill="none" stroke="black" cx="615.21" cy="-577" rx="103.98" ry="18"/>
<text text-anchor="middle" x="615.21" y="-573.3" font-family="Times,serif" font-size="14.00">Bazy&#45;danych#Trello</text>
</g>
<!-- d33tah&#45;&#45;Bazy&#45;danych#Trello -->
<g id="edge17" class="edge">
<title>d33tah&#45;&#45;Bazy&#45;danych#Trello</title>
<path fill="none" stroke="#2bd500" d="M72.13,-666.81C72.13,-636.56 72.13,-577 72.13,-577 72.13,-577 353.45,-577 511.14,-577"/>
</g>
<!-- Infrastruktura::Domeny#Domeny -->
<g id="node17" class="node">
<title>Infrastruktura::Domeny#Domeny</title>
<ellipse fill="none" stroke="black" cx="615.21" cy="-319" rx="167.07" ry="18"/>
<text text-anchor="middle" x="615.21" y="-315.3" font-family="Times,serif" font-size="14.00">Infrastruktura::Domeny#Domeny</text>
</g>
<!-- d33tah&#45;&#45;Infrastruktura::Domeny#Domeny -->
<g id="edge18" class="edge">
<title>d33tah&#45;&#45;Infrastruktura::Domeny#Domeny</title>
<path fill="none" stroke="#2bd500" d="M80.02,-668.14C107.16,-668.14 151.13,-668.14 151.13,-668.14 151.13,-668.14 151.13,-328 151.13,-328 151.13,-328 334.11,-328 470.28,-328"/>
</g>
<!-- Drzwi&#45;frontowe#Ekran  -->
<g id="node18" class="node">
<title>Drzwi&#45;frontowe#Ekran </title>
<ellipse fill="none" stroke="black" cx="615.21" cy="-534" rx="120.78" ry="18"/>
<text text-anchor="middle" x="615.21" y="-530.3" font-family="Times,serif" font-size="14.00">Drzwi&#45;frontowe#Ekran </text>
</g>
<!-- d33tah&#45;&#45;Drzwi&#45;frontowe#Ekran  -->
<g id="edge19" class="edge">
<title>d33tah&#45;&#45;Drzwi&#45;frontowe#Ekran </title>
<path fill="none" stroke="black" d="M47.13,-666.47C47.13,-628.28 47.13,-541 47.13,-541 47.13,-541 338.21,-541 503.65,-541"/>
</g>
<!-- Bazy&#45;danych#Grafana -->
<g id="node22" class="node">
<title>Bazy&#45;danych#Grafana</title>
<ellipse fill="none" stroke="black" cx="615.21" cy="-878" rx="114.28" ry="18"/>
<text text-anchor="middle" x="615.21" y="-874.3" font-family="Times,serif" font-size="14.00">Bazy&#45;danych#Grafana</text>
</g>
<!-- d33tah&#45;&#45;Bazy&#45;danych#Grafana -->
<g id="edge20" class="edge">
<title>d33tah&#45;&#45;Bazy&#45;danych#Grafana</title>
<path fill="none" stroke="#2bd500" d="M91.73,-696C168.27,-696 353.13,-696 353.13,-696 353.13,-696 353.13,-869 353.13,-869 353.13,-869 441.91,-869 516.13,-869"/>
</g>
<!-- Miejsce::Miejsce#Klucze do spejsu -->
<g id="node23" class="node">
<title>Miejsce::Miejsce#Klucze do spejsu</title>
<ellipse fill="none" stroke="black" cx="615.21" cy="-706" rx="172.77" ry="18"/>
<text text-anchor="middle" x="615.21" y="-702.3" font-family="Times,serif" font-size="14.00">Miejsce::Miejsce#Klucze do spejsu</text>
</g>
<!-- d33tah&#45;&#45;Miejsce::Miejsce#Klucze do spejsu -->
<g id="edge23" class="edge">
<title>d33tah&#45;&#45;Miejsce::Miejsce#Klucze do spejsu</title>
<path fill="none" stroke="#2bd500" d="M100.49,-690C192.61,-690 416.05,-690 535.99,-690"/>
</g>
<!-- Infrastruktura::Telegram#HS24: t.me/hsl_info -->
<g id="node24" class="node">
<title>Infrastruktura::Telegram#HS24: t.me/hsl_info</title>
<ellipse fill="none" stroke="black" cx="615.21" cy="-491" rx="231.26" ry="18"/>
<text text-anchor="middle" x="615.21" y="-487.3" font-family="Times,serif" font-size="14.00">Infrastruktura::Telegram#HS24: t.me/hsl_info</text>
</g>
<!-- d33tah&#45;&#45;Infrastruktura::Telegram#HS24: t.me/hsl_info -->
<g id="edge24" class="edge">
<title>d33tah&#45;&#45;Infrastruktura::Telegram#HS24: t.me/hsl_info</title>
<path fill="none" stroke="#2bd500" d="M92.75,-672.43C146.82,-672.43 247.13,-672.43 247.13,-672.43 247.13,-672.43 247.13,-499 247.13,-499 247.13,-499 324.18,-499 407.77,-499"/>
</g>
<!-- nastpne -->
<g id="node19" class="node">
<title>nastpne</title>
<ellipse fill="none" stroke="black" cx="59.14" cy="-1093" rx="53.09" ry="18"/>
<text text-anchor="middle" x="59.14" y="-1089.3" font-family="Times,serif" font-size="14.00">nastpne</text>
</g>
<!-- spotkanie -->
<g id="node20" class="node">
<title>spotkanie</title>
<ellipse fill="none" stroke="black" cx="59.14" cy="-1136" rx="55.79" ry="18"/>
<text text-anchor="middle" x="59.14" y="-1132.3" font-family="Times,serif" font-size="14.00">spotkanie</text>
</g>
<g id="node21" class="node">
<title></title>
<ellipse fill="none" stroke="#2bd500" cx="59.14" cy="-1179" rx="27" ry="18"/>
</g>
<!-- kszmigiel -->
<g id="node25" class="node">
<title>kszmigiel</title>
<ellipse fill="none" stroke="black" cx="59.14" cy="-792" rx="54.69" ry="18"/>
<text text-anchor="middle" x="59.14" y="-788.3" font-family="Times,serif" font-size="14.00">kszmigiel</text>
</g>
<!-- kszmigiel&#45;&#45;Stowarzyszenie#Zarzd -->
<g id="edge26" class="edge">
<title>kszmigiel&#45;&#45;Stowarzyszenie#Zarzd</title>
<path fill="none" stroke="#0061f2" d="M102.86,-802.8C184.31,-802.8 351.13,-802.8 351.13,-802.8 351.13,-802.8 351.13,-913.29 351.13,-913.29 351.13,-913.29 431.52,-913.29 503.6,-913.29"/>
</g>
<!-- kszmigiel&#45;&#45;Infrastruktura::Telegram#G贸wny: t.me/hakierspejs -->
<g id="edge27" class="edge">
<title>kszmigiel&#45;&#45;Infrastruktura::Telegram#G贸wny: t.me/hakierspejs</title>
<path fill="none" stroke="#0061f2" d="M112.7,-788.4C203.79,-788.4 379.13,-788.4 379.13,-788.4 379.13,-788.4 379.13,-926.47 379.13,-957.75"/>
</g>
<!-- kszmigiel&#45;&#45;Marketing&#45;i&#45;media&#45;spoecznociowe# -->
<g id="edge31" class="edge">
<title>kszmigiel&#45;&#45;Marketing&#45;i&#45;media&#45;spoecznociowe#</title>
<path fill="none" stroke="#0061f2" d="M112.91,-795.6C197.99,-795.6 354.13,-795.6 354.13,-795.6 354.13,-795.6 354.13,-826 354.13,-826 354.13,-826 401.68,-826 456.19,-826"/>
</g>
<!-- kszmigiel&#45;&#45;Infrastruktura::Telegram#posty: t.me/hakierspejs_spam -->
<g id="edge29" class="edge">
<title>kszmigiel&#45;&#45;Infrastruktura::Telegram#posty: t.me/hakierspejs_spam</title>
<path fill="none" stroke="#0061f2" d="M104.13,-781.62C104.13,-745.27 104.13,-626 104.13,-626 104.13,-626 223.79,-626 347.32,-626"/>
</g>
<!-- kszmigiel&#45;&#45;Miejsce::Miejsce#Klucze do spejsu -->
<g id="edge30" class="edge">
<title>kszmigiel&#45;&#45;Miejsce::Miejsce#Klucze do spejsu</title>
<path fill="none" stroke="#0061f2" d="M110.13,-785.54C110.13,-766.67 110.13,-713 110.13,-713 110.13,-713 307.73,-713 455.74,-713"/>
</g>
<!-- Marketing&#45;i&#45;media&#45;spoecznociowe#Naklejki -->
<g id="node26" class="node">
<title>Marketing&#45;i&#45;media&#45;spoecznociowe#Naklejki</title>
<ellipse fill="none" stroke="black" cx="615.21" cy="-792" rx="221.76" ry="18"/>
<text text-anchor="middle" x="615.21" y="-788.3" font-family="Times,serif" font-size="14.00">Marketing&#45;i&#45;media&#45;spoecznociowe#Naklejki</text>
</g>
<!-- kszmigiel&#45;&#45;Marketing&#45;i&#45;media&#45;spoecznociowe#Naklejki -->
<g id="edge28" class="edge">
<title>kszmigiel&#45;&#45;Marketing&#45;i&#45;media&#45;spoecznociowe#Naklejki</title>
<path fill="none" stroke="#0061f2" d="M103.24,-781.2C174.85,-781.2 320.23,-781.2 437.84,-781.2"/>
</g>
<!-- cytP450 -->
<g id="node27" class="node">
<title>cytP450</title>
<ellipse fill="none" stroke="black" cx="59.14" cy="-147" rx="48.99" ry="18"/>
<text text-anchor="middle" x="59.14" y="-143.3" font-family="Times,serif" font-size="14.00">cytP450</text>
</g>
<!-- cytP450&#45;&#45;Kanay&#45;komunikacji# -->
<g id="edge38" class="edge">
<title>cytP450&#45;&#45;Kanay&#45;komunikacji#</title>
<path fill="none" stroke="#c60077" d="M93.39,-159.86C134.83,-159.86 199.13,-159.86 199.13,-159.86 199.13,-159.86 199.13,-737 199.13,-737 199.13,-737 412.91,-737 534,-737"/>
</g>
<!-- cytP450&#45;&#45;Infrastruktura::Domeny#Domeny -->
<g id="edge37" class="edge">
<title>cytP450&#45;&#45;Infrastruktura::Domeny#Domeny</title>
<path fill="none" stroke="#c60077" d="M107.42,-149.57C172.18,-149.57 279.13,-149.57 279.13,-149.57 279.13,-149.57 279.13,-310 279.13,-310 279.13,-310 379.28,-310 470.24,-310"/>
</g>
<!-- cytP450&#45;&#45;Miejsce::Miejsce#Klucze do spejsu -->
<g id="edge39" class="edge">
<title>cytP450&#45;&#45;Miejsce::Miejsce#Klucze do spejsu</title>
<path fill="none" stroke="#c60077" d="M103.43,-154.71C149.54,-154.71 215.13,-154.71 215.13,-154.71 215.13,-154.71 215.13,-707.5 215.13,-707.5 215.13,-707.5 334.35,-707.5 442.63,-707.5"/>
</g>
<!-- Chciejlista#Elektronika (w sensie urzdze konsumenckich) -->
<g id="node28" class="node">
<title>Chciejlista#Elektronika (w sensie urzdze konsumenckich)</title>
<ellipse fill="none" stroke="black" cx="615.21" cy="-147" rx="289.75" ry="18"/>
<text text-anchor="middle" x="615.21" y="-143.3" font-family="Times,serif" font-size="14.00">Chciejlista#Elektronika (w sensie urzdze konsumenckich)</text>
</g>
<!-- cytP450&#45;&#45;Chciejlista#Elektronika (w sensie urzdze konsumenckich) -->
<g id="edge32" class="edge">
<title>cytP450&#45;&#45;Chciejlista#Elektronika (w sensie urzdze konsumenckich)</title>
<path fill="none" stroke="#c60077" d="M103.24,-139.29C158.28,-139.29 256.9,-139.29 353,-139.29"/>
</g>
<!-- Chciejlista#DIY -->
<g id="node29" class="node">
<title>Chciejlista#DIY</title>
<ellipse fill="none" stroke="black" cx="615.21" cy="-104" rx="83.69" ry="18"/>
<text text-anchor="middle" x="615.21" y="-100.3" font-family="Times,serif" font-size="14.00">Chciejlista#DIY</text>
</g>
<!-- cytP450&#45;&#45;Chciejlista#DIY -->
<g id="edge33" class="edge">
<title>cytP450&#45;&#45;Chciejlista#DIY</title>
<path fill="none" stroke="#c60077" d="M76.13,-130.01C76.13,-117.99 76.13,-104 76.13,-104 76.13,-104 379.76,-104 531.27,-104"/>
</g>
<!-- Przegld&#45;lokali&#45;na&#45;wynajem&#45;w&#45;odzi.&#45;Fundusz&#45;1000&#45;&#45;&#45;1500.#Bot Aleksego -->
<g id="node30" class="node">
<title>Przegld&#45;lokali&#45;na&#45;wynajem&#45;w&#45;odzi.&#45;Fundusz&#45;1000&#45;&#45;&#45;1500.#Bot Aleksego</title>
<ellipse fill="none" stroke="black" cx="615.21" cy="-61" rx="351.74" ry="18"/>
<text text-anchor="middle" x="615.21" y="-57.3" font-family="Times,serif" font-size="14.00">Przegld&#45;lokali&#45;na&#45;wynajem&#45;w&#45;odzi.&#45;Fundusz&#45;1000&#45;&#45;&#45;1500.#Bot Aleksego</text>
</g>
<!-- cytP450&#45;&#45;Przegld&#45;lokali&#45;na&#45;wynajem&#45;w&#45;odzi.&#45;Fundusz&#45;1000&#45;&#45;&#45;1500.#Bot Aleksego -->
<g id="edge34" class="edge">
<title>cytP450&#45;&#45;Przegld&#45;lokali&#45;na&#45;wynajem&#45;w&#45;odzi.&#45;Fundusz&#45;1000&#45;&#45;&#45;1500.#Bot Aleksego</title>
<path fill="none" stroke="#c60077" d="M93.46,-134.14C158.91,-134.14 295.13,-134.14 295.13,-134.14 295.13,-134.14 295.13,-87.24 295.13,-68.55"/>
</g>
<!-- Stowarzyszenie#Komisja Rewizyjna -->
<g id="node31" class="node">
<title>Stowarzyszenie#Komisja Rewizyjna</title>
<ellipse fill="none" stroke="black" cx="615.21" cy="-190" rx="178.17" ry="18"/>
<text text-anchor="middle" x="615.21" y="-186.3" font-family="Times,serif" font-size="14.00">Stowarzyszenie#Komisja Rewizyjna</text>
</g>
<!-- cytP450&#45;&#45;Stowarzyszenie#Komisja Rewizyjna -->
<g id="edge35" class="edge">
<title>cytP450&#45;&#45;Stowarzyszenie#Komisja Rewizyjna</title>
<path fill="none" stroke="#c60077" d="M107.54,-144.43C180.47,-144.43 310.13,-144.43 310.13,-144.43 310.13,-144.43 310.13,-184 310.13,-184 310.13,-184 376.33,-184 447.05,-184"/>
</g>
<!-- Zamek#Zamek -->
<g id="node32" class="node">
<title>Zamek#Zamek</title>
<ellipse fill="none" stroke="black" cx="615.21" cy="-18" rx="81.49" ry="18"/>
<text text-anchor="middle" x="615.21" y="-14.3" font-family="Times,serif" font-size="14.00">Zamek#Zamek</text>
</g>
<!-- cytP450&#45;&#45;Zamek#Zamek -->
<g id="edge36" class="edge">
<title>cytP450&#45;&#45;Zamek#Zamek</title>
<path fill="none" stroke="#c60077" d="M43.13,-129.87C43.13,-94.78 43.13,-18 43.13,-18 43.13,-18 375.91,-18 533.85,-18"/>
</g>
<!-- Keij0 -->
<g id="node33" class="node">
<title>Keij0</title>
<ellipse fill="none" stroke="black" cx="59.14" cy="-233" rx="34.39" ry="18"/>
<text text-anchor="middle" x="59.14" y="-229.3" font-family="Times,serif" font-size="14.00">Keij0</text>
</g>
<!-- Keij0&#45;&#45;Marketing&#45;i&#45;media&#45;spoecznociowe# -->
<g id="edge41" class="edge">
<title>Keij0&#45;&#45;Marketing&#45;i&#45;media&#45;spoecznociowe#</title>
<path fill="none" stroke="#b6e400" d="M93.68,-233C130.37,-233 183.13,-233 183.13,-233 183.13,-233 183.13,-830.5 183.13,-830.5 183.13,-830.5 318.42,-830.5 437.59,-830.5"/>
</g>
<!-- Keij0&#45;&#45;Stowarzyszenie#Komisja Rewizyjna -->
<g id="edge40" class="edge">
<title>Keij0&#45;&#45;Stowarzyszenie#Komisja Rewizyjna</title>
<path fill="none" stroke="#b6e400" d="M89.02,-224C180.11,-224 448.13,-224 448.13,-224 448.13,-224 448.13,-206.05 448.13,-196.24"/>
</g>
<!-- pzduniak -->
<g id="node34" class="node">
<title>pzduniak</title>
<ellipse fill="none" stroke="black" cx="59.14" cy="-190" rx="52.79" ry="18"/>
<text text-anchor="middle" x="59.14" y="-186.3" font-family="Times,serif" font-size="14.00">pzduniak</text>
</g>
<!-- pzduniak&#45;&#45;Stowarzyszenie#Komisja Rewizyjna -->
<g id="edge42" class="edge">
<title>pzduniak&#45;&#45;Stowarzyszenie#Komisja Rewizyjna</title>
<path fill="none" stroke="#00ffff" d="M108.98,-196C184.42,-196 331.13,-196 447.26,-196"/>
</g>
<!-- marti -->
<g id="node35" class="node">
<title>marti</title>
<ellipse fill="none" stroke="black" cx="59.14" cy="-921" rx="36.29" ry="18"/>
<text text-anchor="middle" x="59.14" y="-917.3" font-family="Times,serif" font-size="14.00">marti</text>
</g>
<!-- marti&#45;&#45;Infrastruktura::Github#Github -->
<g id="edge45" class="edge">
<title>marti&#45;&#45;Infrastruktura::Github#Github</title>
<path fill="none" stroke="#ab00d5" d="M84.69,-933.86C154.63,-933.86 344.13,-933.86 344.13,-933.86 344.13,-933.86 344.13,-1003.4 344.13,-1003.4 344.13,-1003.4 401.97,-1003.4 464.21,-1003.4"/>
</g>
<!-- marti&#45;&#45;Infrastruktura::Telegram#G贸wny: t.me/hakierspejs -->
<g id="edge43" class="edge">
<title>marti&#45;&#45;Infrastruktura::Telegram#G贸wny: t.me/hakierspejs</title>
<path fill="none" stroke="#ab00d5" d="M92.05,-928.71C172.4,-928.71 372.13,-928.71 372.13,-928.71 372.13,-928.71 372.13,-949.4 372.13,-959.09"/>
</g>
<!-- marti&#45;&#45;Marketing&#45;i&#45;media&#45;spoecznociowe# -->
<g id="edge44" class="edge">
<title>marti&#45;&#45;Marketing&#45;i&#45;media&#45;spoecznociowe#</title>
<path fill="none" stroke="#ab00d5" d="M95.43,-918.43C196.21,-918.43 472.13,-918.43 472.13,-918.43 472.13,-918.43 472.13,-869.02 472.13,-846.25"/>
</g>
<!-- biniu -->
<g id="node36" class="node">
<title>biniu</title>
<ellipse fill="none" stroke="black" cx="59.14" cy="-878" rx="34.39" ry="18"/>
<text text-anchor="middle" x="59.14" y="-874.3" font-family="Times,serif" font-size="14.00">biniu</text>
</g>
<!-- biniu&#45;&#45;Marketing&#45;i&#45;media&#45;spoecznociowe# -->
<g id="edge46" class="edge">
<title>biniu&#45;&#45;Marketing&#45;i&#45;media&#45;spoecznociowe#</title>
<path fill="none" stroke="#f29100" d="M93.67,-878C189.57,-878 452.13,-878 452.13,-878 452.13,-878 452.13,-855.79 452.13,-843.29"/>
</g>
<!-- nikolaad -->
<g id="node37" class="node">
<title>nikolaad</title>
<ellipse fill="none" stroke="black" cx="59.14" cy="-835" rx="50.09" ry="18"/>
<text text-anchor="middle" x="59.14" y="-831.3" font-family="Times,serif" font-size="14.00">nikolaad</text>
</g>
<!-- nikolaad&#45;&#45;Marketing&#45;i&#45;media&#45;spoecznociowe# -->
<g id="edge47" class="edge">
<title>nikolaad&#45;&#45;Marketing&#45;i&#45;media&#45;spoecznociowe#</title>
<path fill="none" stroke="#00c64f" d="M108,-839.5C181.08,-839.5 322.57,-839.5 437.57,-839.5"/>
</g>
<!-- BluRaf -->
<g id="node38" class="node">
<title>BluRaf</title>
<ellipse fill="none" stroke="black" cx="59.14" cy="-1050" rx="42.49" ry="18"/>
<text text-anchor="middle" x="59.14" y="-1046.3" font-family="Times,serif" font-size="14.00">BluRaf</text>
</g>
<!-- BluRaf&#45;&#45;Infrastruktura::IRC#IRC -->
<g id="edge48" class="edge">
<title>BluRaf&#45;&#45;Infrastruktura::IRC#IRC</title>
<path fill="none" stroke="#2e00e4" d="M97.37,-1057.71C179.69,-1057.71 376.48,-1057.71 502.37,-1057.71"/>
</g>
<!-- BluRaf&#45;&#45;Marketing&#45;i&#45;media&#45;spoecznociowe# -->
<g id="edge50" class="edge">
<title>BluRaf&#45;&#45;Marketing&#45;i&#45;media&#45;spoecznociowe#</title>
<path fill="none" stroke="#2e00e4" d="M88.82,-1037.14C162.72,-1037.14 349.13,-1037.14 349.13,-1037.14 349.13,-1037.14 349.13,-848.5 349.13,-848.5 349.13,-848.5 423.67,-848.5 493.85,-848.5"/>
</g>
<!-- Kanay&#45;komunikacji#Mumble -->
<g id="node39" class="node">
<title>Kanay&#45;komunikacji#Mumble</title>
<ellipse fill="none" stroke="black" cx="615.21" cy="-1222" rx="146.77" ry="18"/>
<text text-anchor="middle" x="615.21" y="-1218.3" font-family="Times,serif" font-size="14.00">Kanay&#45;komunikacji#Mumble</text>
</g>
<!-- BluRaf&#45;&#45;Kanay&#45;komunikacji#Mumble -->
<g id="edge49" class="edge">
<title>BluRaf&#45;&#45;Kanay&#45;komunikacji#Mumble</title>
<path fill="none" stroke="#2e00e4" d="M88.94,-1062.86C160.3,-1062.86 335.13,-1062.86 335.13,-1062.86 335.13,-1062.86 335.13,-1222 335.13,-1222 335.13,-1222 400.57,-1222 468.2,-1222"/>
</g>
<!-- kujaw -->
<g id="node40" class="node">
<title>kujaw</title>
<ellipse fill="none" stroke="black" cx="59.14" cy="-512" rx="38.19" ry="18"/>
<text text-anchor="middle" x="59.14" y="-508.3" font-family="Times,serif" font-size="14.00">kujaw</text>
</g>
<!-- kujaw&#45;&#45;Marketing&#45;i&#45;media&#45;spoecznociowe# -->
<g id="edge51" class="edge">
<title>kujaw&#45;&#45;Marketing&#45;i&#45;media&#45;spoecznociowe#</title>
<path fill="none" stroke="#ff0000" d="M89.51,-523C121.45,-523 167.13,-523 167.13,-523 167.13,-523 167.13,-835 167.13,-835 167.13,-835 307.92,-835 431.66,-835"/>
</g>
<!-- Marketing&#45;i&#45;media&#45;spoecznociowe#Logo nr 2 -->
<g id="node41" class="node">
<title>Marketing&#45;i&#45;media&#45;spoecznociowe#Logo nr 2</title>
<ellipse fill="none" stroke="black" cx="615.21" cy="-362" rx="227.46" ry="18"/>
<text text-anchor="middle" x="615.21" y="-358.3" font-family="Times,serif" font-size="14.00">Marketing&#45;i&#45;media&#45;spoecznociowe#Logo nr 2</text>
</g>
<!-- kujaw&#45;&#45;Marketing&#45;i&#45;media&#45;spoecznociowe#Logo nr 2 -->
<g id="edge52" class="edge">
<title>kujaw&#45;&#45;Marketing&#45;i&#45;media&#45;spoecznociowe#Logo nr 2</title>
<path fill="none" stroke="#ff0000" d="M93.78,-504C100.82,-504 106.13,-504 106.13,-504 106.13,-504 106.13,-371 106.13,-371 106.13,-371 274.84,-371 418.02,-371"/>
</g>
<!-- q3k -->
<g id="node42" class="node">
<title>q3k</title>
<ellipse fill="none" stroke="black" cx="59.14" cy="-362" rx="27.9" ry="18"/>
<text text-anchor="middle" x="59.14" y="-358.3" font-family="Times,serif" font-size="14.00">q3k</text>
</g>
<!-- q3k&#45;&#45;Kanay&#45;komunikacji# -->
<g id="edge53" class="edge">
<title>q3k&#45;&#45;Kanay&#45;komunikacji#</title>
<path fill="none" stroke="#2bd500" d="M87.33,-362C97.78,-362 107.13,-362 107.13,-362 107.13,-362 107.13,-743 107.13,-743 107.13,-743 364.28,-743 512.7,-743"/>
</g>
<!-- q3k&#45;&#45;Infrastruktura::Domeny#Domeny -->
<g id="edge54" class="edge">
<title>q3k&#45;&#45;Infrastruktura::Domeny#Domeny</title>
<path fill="none" stroke="#2bd500" d="M60.13,-343.51C60.13,-331.86 60.13,-319 60.13,-319 60.13,-319 284.47,-319 447.91,-319"/>
</g>
<!-- q3k&#45;&#45;Marketing&#45;i&#45;media&#45;spoecznociowe#Logo nr 2 -->
<g id="edge55" class="edge">
<title>q3k&#45;&#45;Marketing&#45;i&#45;media&#45;spoecznociowe#Logo nr 2</title>
<path fill="none" stroke="#2bd500" d="M83.4,-353C141.25,-353 291.94,-353 418.2,-353"/>
</g>
<!-- pmysl -->
<g id="node43" class="node">
<title>pmysl</title>
<ellipse fill="none" stroke="black" cx="59.14" cy="-964" rx="38.19" ry="18"/>
<text text-anchor="middle" x="59.14" y="-960.3" font-family="Times,serif" font-size="14.00">pmysl</text>
</g>
<!-- pmysl&#45;&#45;Infrastruktura::Github#Github -->
<g id="edge56" class="edge">
<title>pmysl&#45;&#45;Infrastruktura::Github#Github</title>
<path fill="none" stroke="#0061f2" d="M97.74,-964C175.39,-964 343.13,-964 343.13,-964 343.13,-964 343.13,-1007 343.13,-1007 343.13,-1007 399.47,-1007 460.88,-1007"/>
</g>
<!-- pmysl&#45;&#45;Infrastruktura::IRC#IRC -->
<g id="edge57" class="edge">
<title>pmysl&#45;&#45;Infrastruktura::IRC#IRC</title>
<path fill="none" stroke="#0061f2" d="M96.46,-968.5C172.89,-968.5 340.13,-968.5 340.13,-968.5 340.13,-968.5 340.13,-1042.29 340.13,-1042.29 340.13,-1042.29 426.26,-1042.29 502.13,-1042.29"/>
</g>
<!-- pmysl&#45;&#45;Bazy&#45;danych# -->
<g id="edge58" class="edge">
<title>pmysl&#45;&#45;Bazy&#45;danych#</title>
<path fill="none" stroke="#0061f2" d="M92.36,-973C166.53,-973 339.13,-973 339.13,-973 339.13,-973 339.13,-1087 339.13,-1087 339.13,-1087 460.16,-1087 541.95,-1087"/>
</g>
<!-- pmysl&#45;&#45;Kanay&#45;komunikacji# -->
<g id="edge60" class="edge">
<title>pmysl&#45;&#45;Kanay&#45;komunikacji#</title>
<path fill="none" stroke="#0061f2" d="M96.52,-959.5C171.7,-959.5 334.13,-959.5 334.13,-959.5 334.13,-959.5 334.13,-755 334.13,-755 334.13,-755 432.24,-755 512.54,-755"/>
</g>
<!-- pmysl&#45;&#45;Bazy&#45;danych#Grafana -->
<g id="edge59" class="edge">
<title>pmysl&#45;&#45;Bazy&#45;danych#Grafana</title>
<path fill="none" stroke="#0061f2" d="M84.53,-950.5C93.38,-950.5 101.13,-950.5 101.13,-950.5 101.13,-950.5 101.13,-887 101.13,-887 101.13,-887 366.7,-887 516.09,-887"/>
</g>
<!-- pmysl&#45;&#45;Miejsce::Miejsce#Klucze do spejsu -->
<g id="edge61" class="edge">
<title>pmysl&#45;&#45;Miejsce::Miejsce#Klucze do spejsu</title>
<path fill="none" stroke="#0061f2" d="M92.47,-955C165.48,-955 333.13,-955 333.13,-955 333.13,-955 333.13,-718.5 333.13,-718.5 333.13,-718.5 415.1,-718.5 490.66,-718.5"/>
</g>
<!-- kpc -->
<g id="node44" class="node">
<title>kpc</title>
<ellipse fill="none" stroke="black" cx="59.14" cy="-276" rx="27" ry="18"/>
<text text-anchor="middle" x="59.14" y="-272.3" font-family="Times,serif" font-size="14.00">kpc</text>
</g>
<!-- kpc&#45;&#45;Infrastruktura::Telegram#posty: t.me/hakierspejs_spam -->
<g id="edge62" class="edge">
<title>kpc&#45;&#45;Infrastruktura::Telegram#posty: t.me/hakierspejs_spam</title>
<path fill="none" stroke="#c60077" d="M82.77,-285C95.3,-285 108.13,-285 108.13,-285 108.13,-285 108.13,-614 108.13,-614 108.13,-614 225.42,-614 347.19,-614"/>
</g>
<!-- Czaty&#45;HS#HS: posty wyklte -->
<g id="node45" class="node">
<title>Czaty&#45;HS#HS: posty wyklte</title>
<ellipse fill="none" stroke="black" cx="615.21" cy="-233" rx="157.87" ry="18"/>
<text text-anchor="middle" x="615.21" y="-229.3" font-family="Times,serif" font-size="14.00">Czaty&#45;HS#HS: posty wyklte</text>
</g>
<!-- kpc&#45;&#45;Czaty&#45;HS#HS: posty wyklte -->
<g id="edge63" class="edge">
<title>kpc&#45;&#45;Czaty&#45;HS#HS: posty wyklte</title>
<path fill="none" stroke="#c60077" d="M82.7,-267C96.46,-267 111.13,-267 111.13,-267 111.13,-267 111.13,-242 111.13,-242 111.13,-242 328.86,-242 478.13,-242"/>
</g>
<!-- Infrastruktura::Telegram#Posty wyklte (celowo bez linka) -->
<g id="node46" class="node">
<title>Infrastruktura::Telegram#Posty wyklte (celowo bez linka)</title>
<ellipse fill="none" stroke="black" cx="615.21" cy="-276" rx="284.05" ry="18"/>
<text text-anchor="middle" x="615.21" y="-272.3" font-family="Times,serif" font-size="14.00">Infrastruktura::Telegram#Posty wyklte (celowo bez linka)</text>
</g>
<!-- kpc&#45;&#45;Infrastruktura::Telegram#Posty wyklte (celowo bez linka) -->
<g id="edge64" class="edge">
<title>kpc&#45;&#45;Infrastruktura::Telegram#Posty wyklte (celowo bez linka)</title>
<path fill="none" stroke="#c60077" d="M86.34,-276C132.57,-276 231.19,-276 330.88,-276"/>
</g>
</g>
</svg>
