<?xml version="1.0" encoding="UTF-8" standalone="no"?>
<!DOCTYPE svg PUBLIC "-//W3C//DTD SVG 1.1//EN"
 "http://www.w3.org/Graphics/SVG/1.1/DTD/svg11.dtd">
<!-- Generated by graphviz version 2.40.1 (20161225.0304)
 -->
<!-- Title: %3 Pages: 1 -->
<svg width="723pt" height="818pt"
 viewBox="0.00 0.00 722.65 818.00" xmlns="http://www.w3.org/2000/svg" xmlns:xlink="http://www.w3.org/1999/xlink">
<g id="graph0" class="graph" transform="scale(1 1) rotate(0) translate(4 814)">
<title>%3</title>
<polygon fill="#ffffff" stroke="transparent" points="-4,4 -4,-814 718.6494,-814 718.6494,4 -4,4"/>
<!-- q3k -->
<g id="node1" class="node">
<title>q3k</title>
<ellipse fill="none" stroke="#000000" cx="59.7947" cy="-749" rx="28.6953" ry="18"/>
<text text-anchor="middle" x="59.7947" y="-745.3" font-family="Times,serif" font-size="14.00" fill="#000000">q3k</text>
</g>
<!-- Infrastruktura#Domeny -->
<g id="node2" class="node">
<title>Infrastruktura#Domeny</title>
<ellipse fill="none" stroke="#000000" cx="489.1194" cy="-792" rx="124.2781" ry="18"/>
<text text-anchor="middle" x="489.1194" y="-788.3" font-family="Times,serif" font-size="14.00" fill="#000000">Infrastruktura#Domeny</text>
</g>
<!-- q3k&#45;&#45;Infrastruktura#Domeny -->
<g id="edge1" class="edge">
<title>q3k&#45;&#45;Infrastruktura#Domeny</title>
<path fill="none" stroke="#ff0000" d="M60.6494,-767.1871C60.6494,-782.1824 60.6494,-801 60.6494,-801 60.6494,-801 254.6303,-801 381.5514,-801"/>
</g>
<!-- Infrastruktura#Lista mailingowa -->
<g id="node3" class="node">
<title>Infrastruktura#Lista mailingowa</title>
<ellipse fill="none" stroke="#000000" cx="489.1194" cy="-749" rx="165.1707" ry="18"/>
<text text-anchor="middle" x="489.1194" y="-745.3" font-family="Times,serif" font-size="14.00" fill="#000000">Infrastruktura#Lista mailingowa</text>
</g>
<!-- q3k&#45;&#45;Infrastruktura#Lista mailingowa -->
<g id="edge2" class="edge">
<title>q3k&#45;&#45;Infrastruktura#Lista mailingowa</title>
<path fill="none" stroke="#ff0000" d="M86.9766,-755C135.9148,-755 242.2345,-755 333.2654,-755"/>
</g>
<!-- d33tah -->
<g id="node4" class="node">
<title>d33tah</title>
<ellipse fill="none" stroke="#000000" cx="59.7947" cy="-534" rx="43.5923" ry="18"/>
<text text-anchor="middle" x="59.7947" y="-530.3" font-family="Times,serif" font-size="14.00" fill="#000000">d33tah</text>
</g>
<!-- d33tah&#45;&#45;Infrastruktura#Domeny -->
<g id="edge5" class="edge">
<title>d33tah&#45;&#45;Infrastruktura#Domeny</title>
<path fill="none" stroke="#2bd500" d="M87.29,-548C119.2447,-548 167.6494,-548 167.6494,-548 167.6494,-548 167.6494,-783 167.6494,-783 167.6494,-783 287.7898,-783 381.1802,-783"/>
</g>
<!-- d33tah&#45;&#45;Infrastruktura#Lista mailingowa -->
<g id="edge14" class="edge">
<title>d33tah&#45;&#45;Infrastruktura#Lista mailingowa</title>
<path fill="none" stroke="#2bd500" d="M96.2853,-544C132.8194,-544 183.6494,-544 183.6494,-544 183.6494,-544 183.6494,-743 183.6494,-743 183.6494,-743 257.943,-743 333.2523,-743"/>
</g>
<!-- Infrastruktura#Forum -->
<g id="node5" class="node">
<title>Infrastruktura#Forum</title>
<ellipse fill="none" stroke="#000000" cx="489.1194" cy="-663" rx="116.1796" ry="18"/>
<text text-anchor="middle" x="489.1194" y="-659.3" font-family="Times,serif" font-size="14.00" fill="#000000">Infrastruktura#Forum</text>
</g>
<!-- d33tah&#45;&#45;Infrastruktura#Forum -->
<g id="edge3" class="edge">
<title>d33tah&#45;&#45;Infrastruktura#Forum</title>
<path fill="none" stroke="#2bd500" d="M103.3701,-536C182.2569,-536 340.6494,-536 340.6494,-536 340.6494,-536 340.6494,-652.2 340.6494,-652.2 340.6494,-652.2 366.1042,-652.2 395.9341,-652.2"/>
</g>
<!-- Infrastruktura#t.me/hakierspejs -->
<g id="node6" class="node">
<title>Infrastruktura#t.me/hakierspejs</title>
<ellipse fill="none" stroke="#000000" cx="489.1194" cy="-104" rx="163.2712" ry="18"/>
<text text-anchor="middle" x="489.1194" y="-100.3" font-family="Times,serif" font-size="14.00" fill="#000000">Infrastruktura#t.me/hakierspejs</text>
</g>
<!-- d33tah&#45;&#45;Infrastruktura#t.me/hakierspejs -->
<g id="edge4" class="edge">
<title>d33tah&#45;&#45;Infrastruktura#t.me/hakierspejs</title>
<path fill="none" stroke="#2bd500" d="M87.18,-520C108.9076,-520 135.6494,-520 135.6494,-520 135.6494,-520 135.6494,-114.6667 135.6494,-114.6667 135.6494,-114.6667 257.0037,-114.6667 357.5002,-114.6667"/>
</g>
<!-- Infrastruktura#t.me/hakierspejs_spam -->
<g id="node7" class="node">
<title>Infrastruktura#t.me/hakierspejs_spam</title>
<ellipse fill="none" stroke="#000000" cx="489.1194" cy="-448" rx="193.0657" ry="18"/>
<text text-anchor="middle" x="489.1194" y="-444.3" font-family="Times,serif" font-size="14.00" fill="#000000">Infrastruktura#t.me/hakierspejs_spam</text>
</g>
<!-- d33tah&#45;&#45;Infrastruktura#t.me/hakierspejs_spam -->
<g id="edge6" class="edge">
<title>d33tah&#45;&#45;Infrastruktura#t.me/hakierspejs_spam</title>
<path fill="none" stroke="#2bd500" d="M99.6494,-526.7336C99.6494,-508.2691 99.6494,-461 99.6494,-461 99.6494,-461 242.6565,-461 355.3584,-461"/>
</g>
<!-- Infrastruktura#Grafana -->
<g id="node8" class="node">
<title>Infrastruktura#Grafana</title>
<ellipse fill="none" stroke="#000000" cx="489.1194" cy="-577" rx="122.6784" ry="18"/>
<text text-anchor="middle" x="489.1194" y="-573.3" font-family="Times,serif" font-size="14.00" fill="#000000">Infrastruktura#Grafana</text>
</g>
<!-- d33tah&#45;&#45;Infrastruktura#Grafana -->
<g id="edge7" class="edge">
<title>d33tah&#45;&#45;Infrastruktura#Grafana</title>
<path fill="none" stroke="#2bd500" d="M95.6494,-544.3859C95.6494,-554.3846 95.6494,-568 95.6494,-568 95.6494,-568 266.1129,-568 382.6407,-568"/>
</g>
<!-- Infrastruktura#Pad -->
<g id="node9" class="node">
<title>Infrastruktura#Pad</title>
<ellipse fill="none" stroke="#000000" cx="489.1194" cy="-534" rx="102.8821" ry="18"/>
<text text-anchor="middle" x="489.1194" y="-530.3" font-family="Times,serif" font-size="14.00" fill="#000000">Infrastruktura#Pad</text>
</g>
<!-- d33tah&#45;&#45;Infrastruktura#Pad -->
<g id="edge8" class="edge">
<title>d33tah&#45;&#45;Infrastruktura#Pad</title>
<path fill="none" stroke="#2bd500" d="M100.9601,-528C167.4908,-528 300.4329,-528 392.0468,-528"/>
</g>
<!-- Infrastruktura#IRC -->
<g id="node10" class="node">
<title>Infrastruktura#IRC</title>
<ellipse fill="none" stroke="#000000" cx="489.1194" cy="-405" rx="103.9815" ry="18"/>
<text text-anchor="middle" x="489.1194" y="-401.3" font-family="Times,serif" font-size="14.00" fill="#000000">Infrastruktura#IRC</text>
</g>
<!-- d33tah&#45;&#45;Infrastruktura#IRC -->
<g id="edge9" class="edge">
<title>d33tah&#45;&#45;Infrastruktura#IRC</title>
<path fill="none" stroke="#2bd500" d="M96.3357,-524C142.4016,-524 215.6494,-524 215.6494,-524 215.6494,-524 215.6494,-415.8 215.6494,-415.8 215.6494,-415.8 325.1609,-415.8 405.5834,-415.8"/>
</g>
<!-- Infrastruktura#Hosting -->
<g id="node11" class="node">
<title>Infrastruktura#Hosting</title>
<ellipse fill="none" stroke="#000000" cx="489.1194" cy="-620" rx="122.6784" ry="18"/>
<text text-anchor="middle" x="489.1194" y="-616.3" font-family="Times,serif" font-size="14.00" fill="#000000">Infrastruktura#Hosting</text>
</g>
<!-- d33tah&#45;&#45;Infrastruktura#Hosting -->
<g id="edge10" class="edge">
<title>d33tah&#45;&#45;Infrastruktura#Hosting</title>
<path fill="none" stroke="#2bd500" d="M103.1889,-532C184.0486,-532 349.6494,-532 349.6494,-532 349.6494,-532 349.6494,-611 349.6494,-611 349.6494,-611 363.6121,-611 382.7018,-611"/>
</g>
<!-- Miejsce::Miejsce#Klucze do spejsu -->
<g id="node12" class="node">
<title>Miejsce::Miejsce#Klucze do spejsu</title>
<ellipse fill="none" stroke="#000000" cx="489.1194" cy="-706" rx="174.6691" ry="18"/>
<text text-anchor="middle" x="489.1194" y="-702.3" font-family="Times,serif" font-size="14.00" fill="#000000">Miejsce::Miejsce#Klucze do spejsu</text>
</g>
<!-- d33tah&#45;&#45;Miejsce::Miejsce#Klucze do spejsu -->
<g id="edge11" class="edge">
<title>d33tah&#45;&#45;Miejsce::Miejsce#Klucze do spejsu</title>
<path fill="none" stroke="#2bd500" d="M101.022,-540C175.2311,-540 323.6494,-540 323.6494,-540 323.6494,-540 323.6494,-670.5208 323.6494,-700.092"/>
</g>
<!-- Infrastruktura#Github -->
<g id="node13" class="node">
<title>Infrastruktura#Github</title>
<ellipse fill="none" stroke="#000000" cx="489.1194" cy="-491" rx="117.7793" ry="18"/>
<text text-anchor="middle" x="489.1194" y="-487.3" font-family="Times,serif" font-size="14.00" fill="#000000">Infrastruktura#Github</text>
</g>
<!-- d33tah&#45;&#45;Infrastruktura#Github -->
<g id="edge12" class="edge">
<title>d33tah&#45;&#45;Infrastruktura#Github</title>
<path fill="none" stroke="#2bd500" d="M101.6494,-528.9944C101.6494,-519.1025 101.6494,-498 101.6494,-498 101.6494,-498 266.0448,-498 380.6721,-498"/>
</g>
<!-- Infrastruktura#Meetup -->
<g id="node14" class="node">
<title>Infrastruktura#Meetup</title>
<ellipse fill="none" stroke="#000000" cx="489.1194" cy="-362" rx="121.5784" ry="18"/>
<text text-anchor="middle" x="489.1194" y="-358.3" font-family="Times,serif" font-size="14.00" fill="#000000">Infrastruktura#Meetup</text>
</g>
<!-- d33tah&#45;&#45;Infrastruktura#Meetup -->
<g id="edge13" class="edge">
<title>d33tah&#45;&#45;Infrastruktura#Meetup</title>
<path fill="none" stroke="#2bd500" d="M96.6494,-524.0793C96.6494,-497.4668 96.6494,-426.5 96.6494,-426.5 96.6494,-426.5 379.6494,-426.5 379.6494,-426.5 379.6494,-426.5 379.6494,-387.1323 379.6494,-369.909"/>
</g>
<!-- cytP450 -->
<g id="node15" class="node">
<title>cytP450</title>
<ellipse fill="none" stroke="#000000" cx="59.7947" cy="-706" rx="49.2915" ry="18"/>
<text text-anchor="middle" x="59.7947" y="-702.3" font-family="Times,serif" font-size="14.00" fill="#000000">cytP450</text>
</g>
<!-- cytP450&#45;&#45;Infrastruktura#Domeny -->
<g id="edge15" class="edge">
<title>cytP450&#45;&#45;Infrastruktura#Domeny</title>
<path fill="none" stroke="#0061f2" d="M99.6494,-716.892C99.6494,-740.0334 99.6494,-792 99.6494,-792 99.6494,-792 250.8367,-792 364.8178,-792"/>
</g>
<!-- cytP450&#45;&#45;Infrastruktura#Forum -->
<g id="edge17" class="edge">
<title>cytP450&#45;&#45;Infrastruktura#Forum</title>
<path fill="none" stroke="#0061f2" d="M109.6431,-706C165.296,-706 247.6494,-706 247.6494,-706 247.6494,-706 247.6494,-673.8 247.6494,-673.8 247.6494,-673.8 327.8111,-673.8 395.7608,-673.8"/>
</g>
<!-- cytP450&#45;&#45;Infrastruktura#Hosting -->
<g id="edge18" class="edge">
<title>cytP450&#45;&#45;Infrastruktura#Hosting</title>
<path fill="none" stroke="#0061f2" d="M102.7176,-697C153.6197,-697 231.6494,-697 231.6494,-697 231.6494,-697 231.6494,-633.5 231.6494,-633.5 231.6494,-633.5 332.2236,-633.5 407.6543,-633.5"/>
</g>
<!-- cytP450&#45;&#45;Miejsce::Miejsce#Klucze do spejsu -->
<g id="edge16" class="edge">
<title>cytP450&#45;&#45;Miejsce::Miejsce#Klucze do spejsu</title>
<path fill="none" stroke="#0061f2" d="M102.9257,-715C157.4674,-715 254.2868,-715 337.3349,-715"/>
</g>
<!-- Martti25 -->
<g id="node16" class="node">
<title>Martti25</title>
<ellipse fill="none" stroke="#000000" cx="59.7947" cy="-405" rx="51.9908" ry="18"/>
<text text-anchor="middle" x="59.7947" y="-401.3" font-family="Times,serif" font-size="14.00" fill="#000000">Martti25</text>
</g>
<!-- Martti25&#45;&#45;Infrastruktura#Github -->
<g id="edge21" class="edge">
<title>Martti25&#45;&#45;Infrastruktura#Github</title>
<path fill="none" stroke="#c60077" d="M105.6494,-413.6212C105.6494,-432.8698 105.6494,-477.6667 105.6494,-477.6667 105.6494,-477.6667 297.3434,-477.6667 409.6641,-477.6667"/>
</g>
<!-- Martti25&#45;&#45;Infrastruktura#Meetup -->
<g id="edge19" class="edge">
<title>Martti25&#45;&#45;Infrastruktura#Meetup</title>
<path fill="none" stroke="#c60077" d="M110.9194,-408.6C199.8538,-408.6 373.6494,-408.6 373.6494,-408.6 373.6494,-408.6 373.6494,-380.1576 373.6494,-367.7141"/>
</g>
<!-- Infrastruktura#Konto na Fejsie -->
<g id="node17" class="node">
<title>Infrastruktura#Konto na Fejsie</title>
<ellipse fill="none" stroke="#000000" cx="489.1194" cy="-319" rx="157.0724" ry="18"/>
<text text-anchor="middle" x="489.1194" y="-315.3" font-family="Times,serif" font-size="14.00" fill="#000000">Infrastruktura#Konto na Fejsie</text>
</g>
<!-- Martti25&#45;&#45;Infrastruktura#Konto na Fejsie -->
<g id="edge20" class="edge">
<title>Martti25&#45;&#45;Infrastruktura#Konto na Fejsie</title>
<path fill="none" stroke="#c60077" d="M110.7905,-401.4C194.2064,-401.4 350.6494,-401.4 350.6494,-401.4 350.6494,-401.4 350.6494,-349.0752 350.6494,-327.8182"/>
</g>
<!-- biniu -->
<g id="node18" class="node">
<title>biniu</title>
<ellipse fill="none" stroke="#000000" cx="59.7947" cy="-362" rx="34.394" ry="18"/>
<text text-anchor="middle" x="59.7947" y="-358.3" font-family="Times,serif" font-size="14.00" fill="#000000">biniu</text>
</g>
<!-- biniu&#45;&#45;Infrastruktura#Meetup -->
<g id="edge22" class="edge">
<title>biniu&#45;&#45;Infrastruktura#Meetup</title>
<path fill="none" stroke="#b6e400" d="M93.8419,-365.6C152.7456,-365.6 276.319,-365.6 369.7146,-365.6"/>
</g>
<!-- kszmigiel -->
<g id="node19" class="node">
<title>kszmigiel</title>
<ellipse fill="none" stroke="#000000" cx="59.7947" cy="-82" rx="55.4913" ry="18"/>
<text text-anchor="middle" x="59.7947" y="-78.3" font-family="Times,serif" font-size="14.00" fill="#000000">kszmigiel</text>
</g>
<!-- kszmigiel&#45;&#45;Infrastruktura#t.me/hakierspejs -->
<g id="edge26" class="edge">
<title>kszmigiel&#45;&#45;Infrastruktura#t.me/hakierspejs</title>
<path fill="none" stroke="#00ffff" d="M108.6257,-90.6667C174.0093,-90.6667 291.874,-90.6667 379.1559,-90.6667"/>
</g>
<!-- kszmigiel&#45;&#45;Infrastruktura#Meetup -->
<g id="edge24" class="edge">
<title>kszmigiel&#45;&#45;Infrastruktura#Meetup</title>
<path fill="none" stroke="#00ffff" d="M97.1555,-95.3333C122.586,-95.3333 151.6494,-95.3333 151.6494,-95.3333 151.6494,-95.3333 151.6494,-351.2 151.6494,-351.2 151.6494,-351.2 291.8413,-351.2 391.5091,-351.2"/>
</g>
<!-- Infrastruktura#Naklejki -->
<g id="node20" class="node">
<title>Infrastruktura#Naklejki</title>
<ellipse fill="none" stroke="#000000" cx="489.1194" cy="-18" rx="125.3778" ry="18"/>
<text text-anchor="middle" x="489.1194" y="-14.3" font-family="Times,serif" font-size="14.00" fill="#000000">Infrastruktura#Naklejki</text>
</g>
<!-- kszmigiel&#45;&#45;Infrastruktura#Naklejki -->
<g id="edge23" class="edge">
<title>kszmigiel&#45;&#45;Infrastruktura#Naklejki</title>
<path fill="none" stroke="#00ffff" d="M98.0589,-69C182.9586,-69 379.6494,-69 379.6494,-69 379.6494,-69 379.6494,-41.4954 379.6494,-26.8835"/>
</g>
<!-- Finanse#Naklejki -->
<g id="node21" class="node">
<title>Finanse#Naklejki</title>
<ellipse fill="none" stroke="#000000" cx="489.1194" cy="-61" rx="94.7833" ry="18"/>
<text text-anchor="middle" x="489.1194" y="-57.3" font-family="Times,serif" font-size="14.00" fill="#000000">Finanse#Naklejki</text>
</g>
<!-- kszmigiel&#45;&#45;Finanse#Naklejki -->
<g id="edge25" class="edge">
<title>kszmigiel&#45;&#45;Finanse#Naklejki</title>
<path fill="none" stroke="#00ffff" d="M109.4631,-74C187.0482,-74 337.0428,-74 423.4583,-74"/>
</g>
<!-- nikolaad -->
<g id="node22" class="node">
<title>nikolaad</title>
<ellipse fill="none" stroke="#000000" cx="59.7947" cy="-319" rx="50.0912" ry="18"/>
<text text-anchor="middle" x="59.7947" y="-315.3" font-family="Times,serif" font-size="14.00" fill="#000000">nikolaad</text>
</g>
<!-- nikolaad&#45;&#45;Infrastruktura#Meetup -->
<g id="edge27" class="edge">
<title>nikolaad&#45;&#45;Infrastruktura#Meetup</title>
<path fill="none" stroke="#ab00d5" d="M102.6494,-328.5376C102.6494,-340.1982 102.6494,-358.4 102.6494,-358.4 102.6494,-358.4 256.4581,-358.4 370.0122,-358.4"/>
</g>
<!-- nikolaad&#45;&#45;Infrastruktura#Konto na Fejsie -->
<g id="edge28" class="edge">
<title>nikolaad&#45;&#45;Infrastruktura#Konto na Fejsie</title>
<path fill="none" stroke="#ab00d5" d="M109.8839,-319C164.0764,-319 253.2412,-319 331.5,-319"/>
</g>
<!-- Keij0 -->
<g id="node23" class="node">
<title>Keij0</title>
<ellipse fill="none" stroke="#000000" cx="59.7947" cy="-469" rx="34.394" ry="18"/>
<text text-anchor="middle" x="59.7947" y="-465.3" font-family="Times,serif" font-size="14.00" fill="#000000">Keij0</text>
</g>
<!-- Keij0&#45;&#45;Infrastruktura#Hosting -->
<g id="edge30" class="edge">
<title>Keij0&#45;&#45;Infrastruktura#Hosting</title>
<path fill="none" stroke="#f29100" d="M83.1669,-482.3333C153.3833,-482.3333 357.6494,-482.3333 357.6494,-482.3333 357.6494,-482.3333 357.6494,-606.5 357.6494,-606.5 357.6494,-606.5 380.832,-606.5 407.7276,-606.5"/>
</g>
<!-- Keij0&#45;&#45;Infrastruktura#Meetup -->
<g id="edge29" class="edge">
<title>Keij0&#45;&#45;Infrastruktura#Meetup</title>
<path fill="none" stroke="#f29100" d="M83.8366,-456C123.8231,-456 199.6494,-456 199.6494,-456 199.6494,-456 199.6494,-372.8 199.6494,-372.8 199.6494,-372.8 307.4853,-372.8 391.5216,-372.8"/>
</g>
<!-- BluRaf -->
<g id="node24" class="node">
<title>BluRaf</title>
<ellipse fill="none" stroke="#000000" cx="59.7947" cy="-254" rx="42.4939" ry="18"/>
<text text-anchor="middle" x="59.7947" y="-250.3" font-family="Times,serif" font-size="14.00" fill="#000000">BluRaf</text>
</g>
<!-- BluRaf&#45;&#45;Infrastruktura#t.me/hakierspejs -->
<g id="edge32" class="edge">
<title>BluRaf&#45;&#45;Infrastruktura#t.me/hakierspejs</title>
<path fill="none" stroke="#00c64f" d="M60.6494,-235.7211C60.6494,-196.4045 60.6494,-107.3333 60.6494,-107.3333 60.6494,-107.3333 207.0183,-107.3333 328.6588,-107.3333"/>
</g>
<!-- BluRaf&#45;&#45;Infrastruktura#t.me/hakierspejs_spam -->
<g id="edge33" class="edge">
<title>BluRaf&#45;&#45;Infrastruktura#t.me/hakierspejs_spam</title>
<path fill="none" stroke="#00c64f" d="M82.4988,-269.2C144.249,-269.2 310.6494,-269.2 310.6494,-269.2 310.6494,-269.2 310.6494,-407.3187 310.6494,-440.7694"/>
</g>
<!-- BluRaf&#45;&#45;Infrastruktura#IRC -->
<g id="edge37" class="edge">
<title>BluRaf&#45;&#45;Infrastruktura#IRC</title>
<path fill="none" stroke="#00c64f" d="M90.6419,-266.4C159.0848,-266.4 317.6494,-266.4 317.6494,-266.4 317.6494,-266.4 317.6494,-394.2 317.6494,-394.2 317.6494,-394.2 362.2077,-394.2 405.8958,-394.2"/>
</g>
<!-- BluRaf&#45;&#45;Infrastruktura#Konto na Fejsie -->
<g id="edge38" class="edge">
<title>BluRaf&#45;&#45;Infrastruktura#Konto na Fejsie</title>
<path fill="none" stroke="#00c64f" d="M95.7089,-263.6C172.4836,-263.6 345.6494,-263.6 345.6494,-263.6 345.6494,-263.6 345.6494,-296.0745 345.6494,-311.2969"/>
</g>
<!-- Infrastruktura#hs&#45;ldz:hackerspace.pl -->
<g id="node25" class="node">
<title>Infrastruktura#hs&#45;ldz:hackerspace.pl</title>
<ellipse fill="none" stroke="#000000" cx="489.1194" cy="-190" rx="186.5669" ry="18"/>
<text text-anchor="middle" x="489.1194" y="-186.3" font-family="Times,serif" font-size="14.00" fill="#000000">Infrastruktura#hs&#45;ldz:hackerspace.pl</text>
</g>
<!-- BluRaf&#45;&#45;Infrastruktura#hs&#45;ldz:hackerspace.pl -->
<g id="edge31" class="edge">
<title>BluRaf&#45;&#45;Infrastruktura#hs&#45;ldz:hackerspace.pl</title>
<path fill="none" stroke="#00c64f" d="M94.1483,-243.5C165.8115,-243.5 324.6494,-243.5 324.6494,-243.5 324.6494,-243.5 324.6494,-214.0299 324.6494,-198.8344"/>
</g>
<!-- Infrastruktura#hs&#45;ldz&#45;offtopic:hackerspace.pl -->
<g id="node26" class="node">
<title>Infrastruktura#hs&#45;ldz&#45;offtopic:hackerspace.pl</title>
<ellipse fill="none" stroke="#000000" cx="489.1194" cy="-147" rx="225.56" ry="18"/>
<text text-anchor="middle" x="489.1194" y="-143.3" font-family="Times,serif" font-size="14.00" fill="#000000">Infrastruktura#hs&#45;ldz&#45;offtopic:hackerspace.pl</text>
</g>
<!-- BluRaf&#45;&#45;Infrastruktura#hs&#45;ldz&#45;offtopic:hackerspace.pl -->
<g id="edge34" class="edge">
<title>BluRaf&#45;&#45;Infrastruktura#hs&#45;ldz&#45;offtopic:hackerspace.pl</title>
<path fill="none" stroke="#00c64f" d="M85.9969,-239.75C144.499,-239.75 280.6494,-239.75 280.6494,-239.75 280.6494,-239.75 280.6494,-175.5414 280.6494,-153.9713"/>
</g>
<!-- Infrastruktura#Mumble -->
<g id="node27" class="node">
<title>Infrastruktura#Mumble</title>
<ellipse fill="none" stroke="#000000" cx="489.1194" cy="-276" rx="124.2781" ry="18"/>
<text text-anchor="middle" x="489.1194" y="-272.3" font-family="Times,serif" font-size="14.00" fill="#000000">Infrastruktura#Mumble</text>
</g>
<!-- BluRaf&#45;&#45;Infrastruktura#Mumble -->
<g id="edge35" class="edge">
<title>BluRaf&#45;&#45;Infrastruktura#Mumble</title>
<path fill="none" stroke="#00c64f" d="M99.0325,-260.8C172.5174,-260.8 331.6326,-260.8 422.3053,-260.8"/>
</g>
<!-- Infrastruktura#Konfident -->
<g id="node28" class="node">
<title>Infrastruktura#Konfident</title>
<ellipse fill="none" stroke="#000000" cx="489.1194" cy="-233" rx="130.777" ry="18"/>
<text text-anchor="middle" x="489.1194" y="-229.3" font-family="Times,serif" font-size="14.00" fill="#000000">Infrastruktura#Konfident</text>
</g>
<!-- BluRaf&#45;&#45;Infrastruktura#Konfident -->
<g id="edge36" class="edge">
<title>BluRaf&#45;&#45;Infrastruktura#Konfident</title>
<path fill="none" stroke="#00c64f" d="M99.0325,-247.25C169.1019,-247.25 317.0266,-247.25 409.2341,-247.25"/>
</g>
<!-- kpc -->
<g id="node29" class="node">
<title>kpc</title>
<ellipse fill="none" stroke="#000000" cx="59.7947" cy="-577" rx="27.8951" ry="18"/>
<text text-anchor="middle" x="59.7947" y="-573.3" font-family="Times,serif" font-size="14.00" fill="#000000">kpc</text>
</g>
<!-- kpc&#45;&#45;Infrastruktura#Hosting -->
<g id="edge39" class="edge">
<title>kpc&#45;&#45;Infrastruktura#Hosting</title>
<path fill="none" stroke="#2e00e4" d="M84.0305,-586C97.1287,-586 110.6494,-586 110.6494,-586 110.6494,-586 110.6494,-615.5 110.6494,-615.5 110.6494,-615.5 259.183,-615.5 370.1481,-615.5"/>
</g>
<!-- thinkofher -->
<g id="node30" class="node">
<title>thinkofher</title>
<ellipse fill="none" stroke="#000000" cx="59.7947" cy="-663" rx="59.5901" ry="18"/>
<text text-anchor="middle" x="59.7947" y="-659.3" font-family="Times,serif" font-size="14.00" fill="#000000">thinkofher</text>
</g>
<!-- thinkofher&#45;&#45;Infrastruktura#Forum -->
<g id="edge40" class="edge">
<title>thinkofher&#45;&#45;Infrastruktura#Forum</title>
<path fill="none" stroke="#ff0000" d="M118.5903,-666.6C184.3852,-666.6 292.5661,-666.6 375.0954,-666.6"/>
</g>
<!-- thinkofher&#45;&#45;Infrastruktura#Hosting -->
<g id="edge41" class="edge">
<title>thinkofher&#45;&#45;Infrastruktura#Hosting</title>
<path fill="none" stroke="#ff0000" d="M107.6494,-651.8671C107.6494,-641.9513 107.6494,-629 107.6494,-629 107.6494,-629 269.7419,-629 382.6052,-629"/>
</g>
<!-- pmysl -->
<g id="node31" class="node">
<title>pmysl</title>
<ellipse fill="none" stroke="#000000" cx="59.7947" cy="-620" rx="38.1938" ry="18"/>
<text text-anchor="middle" x="59.7947" y="-616.3" font-family="Times,serif" font-size="14.00" fill="#000000">pmysl</text>
</g>
<!-- pmysl&#45;&#45;Infrastruktura#Forum -->
<g id="edge42" class="edge">
<title>pmysl&#45;&#45;Infrastruktura#Forum</title>
<path fill="none" stroke="#2bd500" d="M97.0249,-624.5C171.4791,-624.5 331.6494,-624.5 331.6494,-624.5 331.6494,-624.5 331.6494,-659.4 331.6494,-659.4 331.6494,-659.4 350.4687,-659.4 375.0956,-659.4"/>
</g>
<!-- pmysl&#45;&#45;Infrastruktura#Grafana -->
<g id="edge44" class="edge">
<title>pmysl&#45;&#45;Infrastruktura#Grafana</title>
<path fill="none" stroke="#2bd500" d="M91.6494,-609.5909C91.6494,-596.8649 91.6494,-577 91.6494,-577 91.6494,-577 249.3465,-577 366.0794,-577"/>
</g>
<!-- pmysl&#45;&#45;Infrastruktura#Hosting -->
<g id="edge43" class="edge">
<title>pmysl&#45;&#45;Infrastruktura#Hosting</title>
<path fill="none" stroke="#2bd500" d="M98.2722,-620C157.9591,-620 275.422,-620 366.063,-620"/>
</g>
</g>
</svg>
