<?xml version="1.0" encoding="UTF-8" standalone="no"?>
<!DOCTYPE svg PUBLIC "-//W3C//DTD SVG 1.1//EN"
 "http://www.w3.org/Graphics/SVG/1.1/DTD/svg11.dtd">
<!-- Generated by graphviz version 2.40.1 (20161225.0304)
 -->
<!-- Title: %3 Pages: 1 -->
<svg width="850pt" height="818pt"
 viewBox="0.00 0.00 850.04 818.00" xmlns="http://www.w3.org/2000/svg" xmlns:xlink="http://www.w3.org/1999/xlink">
<g id="graph0" class="graph" transform="scale(1 1) rotate(0) translate(4 814)">
<title>%3</title>
<polygon fill="#ffffff" stroke="transparent" points="-4,4 -4,-814 846.0381,-814 846.0381,4 -4,4"/>
<!-- ksiezak -->
<g id="node1" class="node">
<title>ksiezak</title>
<ellipse fill="none" stroke="#000000" cx="59.7947" cy="-749" rx="46.2923" ry="18"/>
<text text-anchor="middle" x="59.7947" y="-745.3" font-family="Times,serif" font-size="14.00" fill="#000000">ksiezak</text>
</g>
<!-- Infrastruktura#hs&#45;ldz:hackerspace.pl -->
<g id="node2" class="node">
<title>Infrastruktura#hs&#45;ldz:hackerspace.pl</title>
<ellipse fill="none" stroke="#000000" cx="552.8137" cy="-749" rx="186.5669" ry="18"/>
<text text-anchor="middle" x="552.8137" y="-745.3" font-family="Times,serif" font-size="14.00" fill="#000000">Infrastruktura#hs&#45;ldz:hackerspace.pl</text>
</g>
<!-- ksiezak&#45;&#45;Infrastruktura#hs&#45;ldz:hackerspace.pl -->
<g id="edge1" class="edge">
<title>ksiezak&#45;&#45;Infrastruktura#hs&#45;ldz:hackerspace.pl</title>
<path fill="none" stroke="#ff0000" d="M103.5468,-755C164.584,-755 278.8333,-755 376.8399,-755"/>
</g>
<!-- Infrastruktura#hs&#45;ldz&#45;offtopic:hackerspace.pl -->
<g id="node3" class="node">
<title>Infrastruktura#hs&#45;ldz&#45;offtopic:hackerspace.pl</title>
<ellipse fill="none" stroke="#000000" cx="552.8137" cy="-706" rx="225.56" ry="18"/>
<text text-anchor="middle" x="552.8137" y="-702.3" font-family="Times,serif" font-size="14.00" fill="#000000">Infrastruktura#hs&#45;ldz&#45;offtopic:hackerspace.pl</text>
</g>
<!-- ksiezak&#45;&#45;Infrastruktura#hs&#45;ldz&#45;offtopic:hackerspace.pl -->
<g id="edge2" class="edge">
<title>ksiezak&#45;&#45;Infrastruktura#hs&#45;ldz&#45;offtopic:hackerspace.pl</title>
<path fill="none" stroke="#ff0000" d="M105.9453,-749C187.1424,-749 347.0381,-749 347.0381,-749 347.0381,-749 347.0381,-725.8098 347.0381,-713.49"/>
</g>
<!-- Współdzielony&#45;kalendarz&#45;i&#45;lista&#45;kontaktów#Założenie konta -->
<g id="node4" class="node">
<title>Współdzielony&#45;kalendarz&#45;i&#45;lista&#45;kontaktów#Założenie konta</title>
<ellipse fill="none" stroke="#000000" cx="552.8137" cy="-792" rx="289.4488" ry="18"/>
<text text-anchor="middle" x="552.8137" y="-788.3" font-family="Times,serif" font-size="14.00" fill="#000000">Współdzielony&#45;kalendarz&#45;i&#45;lista&#45;kontaktów#Założenie konta</text>
</g>
<!-- ksiezak&#45;&#45;Współdzielony&#45;kalendarz&#45;i&#45;lista&#45;kontaktów#Założenie konta -->
<g id="edge3" class="edge">
<title>ksiezak&#45;&#45;Współdzielony&#45;kalendarz&#45;i&#45;lista&#45;kontaktów#Założenie konta</title>
<path fill="none" stroke="#ff0000" d="M94.1987,-761C165.9671,-761 325.0381,-761 325.0381,-761 325.0381,-761 325.0381,-771.9287 325.0381,-780.8083"/>
</g>
<!-- q3k -->
<g id="node5" class="node">
<title>q3k</title>
<ellipse fill="none" stroke="#000000" cx="59.7947" cy="-233" rx="28.6953" ry="18"/>
<text text-anchor="middle" x="59.7947" y="-229.3" font-family="Times,serif" font-size="14.00" fill="#000000">q3k</text>
</g>
<!-- Infrastruktura#Lista mailingowa -->
<g id="node6" class="node">
<title>Infrastruktura#Lista mailingowa</title>
<ellipse fill="none" stroke="#000000" cx="552.8137" cy="-233" rx="165.1707" ry="18"/>
<text text-anchor="middle" x="552.8137" y="-229.3" font-family="Times,serif" font-size="14.00" fill="#000000">Infrastruktura#Lista mailingowa</text>
</g>
<!-- q3k&#45;&#45;Infrastruktura#Lista mailingowa -->
<g id="edge4" class="edge">
<title>q3k&#45;&#45;Infrastruktura#Lista mailingowa</title>
<path fill="none" stroke="#2bd500" d="M88.4325,-233C145.7704,-233 278.5123,-233 387.4536,-233"/>
</g>
<!-- Infrastruktura#Domeny -->
<g id="node7" class="node">
<title>Infrastruktura#Domeny</title>
<ellipse fill="none" stroke="#000000" cx="552.8137" cy="-190" rx="124.2781" ry="18"/>
<text text-anchor="middle" x="552.8137" y="-186.3" font-family="Times,serif" font-size="14.00" fill="#000000">Infrastruktura#Domeny</text>
</g>
<!-- q3k&#45;&#45;Infrastruktura#Domeny -->
<g id="edge5" class="edge">
<title>q3k&#45;&#45;Infrastruktura#Domeny</title>
<path fill="none" stroke="#2bd500" d="M84.8703,-224C92.5614,-224 99.0381,-224 99.0381,-224 99.0381,-224 99.0381,-196 99.0381,-196 99.0381,-196 301.2088,-196 435.6603,-196"/>
</g>
<!-- d33tah -->
<g id="node8" class="node">
<title>d33tah</title>
<ellipse fill="none" stroke="#000000" cx="59.7947" cy="-276" rx="43.5923" ry="18"/>
<text text-anchor="middle" x="59.7947" y="-272.3" font-family="Times,serif" font-size="14.00" fill="#000000">d33tah</text>
</g>
<!-- d33tah&#45;&#45;Infrastruktura#Lista mailingowa -->
<g id="edge9" class="edge">
<title>d33tah&#45;&#45;Infrastruktura#Lista mailingowa</title>
<path fill="none" stroke="#0061f2" d="M102.0381,-271.5551C102.0381,-262.339 102.0381,-242 102.0381,-242 102.0381,-242 277.5725,-242 409.5661,-242"/>
</g>
<!-- d33tah&#45;&#45;Infrastruktura#Domeny -->
<g id="edge15" class="edge">
<title>d33tah&#45;&#45;Infrastruktura#Domeny</title>
<path fill="none" stroke="#0061f2" d="M101.0381,-270.1933C101.0381,-252.7485 101.0381,-202 101.0381,-202 101.0381,-202 327.8144,-202 460.0268,-202"/>
</g>
<!-- Infrastruktura#Hosting -->
<g id="node9" class="node">
<title>Infrastruktura#Hosting</title>
<ellipse fill="none" stroke="#000000" cx="552.8137" cy="-104" rx="122.6784" ry="18"/>
<text text-anchor="middle" x="552.8137" y="-100.3" font-family="Times,serif" font-size="14.00" fill="#000000">Infrastruktura#Hosting</text>
</g>
<!-- d33tah&#45;&#45;Infrastruktura#Hosting -->
<g id="edge6" class="edge">
<title>d33tah&#45;&#45;Infrastruktura#Hosting</title>
<path fill="none" stroke="#0061f2" d="M99.3879,-268.2857C162.0483,-268.2857 277.0381,-268.2857 277.0381,-268.2857 277.0381,-268.2857 277.0381,-111.7143 277.0381,-111.7143 277.0381,-111.7143 364.9022,-111.7143 441.4401,-111.7143"/>
</g>
<!-- Infrastruktura#IRC -->
<g id="node10" class="node">
<title>Infrastruktura#IRC</title>
<ellipse fill="none" stroke="#000000" cx="552.8137" cy="-448" rx="103.9815" ry="18"/>
<text text-anchor="middle" x="552.8137" y="-444.3" font-family="Times,serif" font-size="14.00" fill="#000000">Infrastruktura#IRC</text>
</g>
<!-- d33tah&#45;&#45;Infrastruktura#IRC -->
<g id="edge7" class="edge">
<title>d33tah&#45;&#45;Infrastruktura#IRC</title>
<path fill="none" stroke="#0061f2" d="M99.2544,-283.7143C167.8969,-283.7143 302.0381,-283.7143 302.0381,-283.7143 302.0381,-283.7143 302.0381,-440.2857 302.0381,-440.2857 302.0381,-440.2857 387.562,-440.2857 458.7206,-440.2857"/>
</g>
<!-- Infrastruktura#t.me/hakierspejs_spam -->
<g id="node11" class="node">
<title>Infrastruktura#t.me/hakierspejs_spam</title>
<ellipse fill="none" stroke="#000000" cx="552.8137" cy="-577" rx="193.0657" ry="18"/>
<text text-anchor="middle" x="552.8137" y="-573.3" font-family="Times,serif" font-size="14.00" fill="#000000">Infrastruktura#t.me/hakierspejs_spam</text>
</g>
<!-- d33tah&#45;&#45;Infrastruktura#t.me/hakierspejs_spam -->
<g id="edge8" class="edge">
<title>d33tah&#45;&#45;Infrastruktura#t.me/hakierspejs_spam</title>
<path fill="none" stroke="#0061f2" d="M90.5818,-288.8571C155.1976,-288.8571 299.0381,-288.8571 299.0381,-288.8571 299.0381,-288.8571 299.0381,-571 299.0381,-571 299.0381,-571 330.2298,-571 370.7424,-571"/>
</g>
<!-- Infrastruktura#Lelegram (na shitpostach) -->
<g id="node12" class="node">
<title>Infrastruktura#Lelegram (na shitpostach)</title>
<ellipse fill="none" stroke="#000000" cx="552.8137" cy="-276" rx="207.9631" ry="18"/>
<text text-anchor="middle" x="552.8137" y="-272.3" font-family="Times,serif" font-size="14.00" fill="#000000">Infrastruktura#Lelegram (na shitpostach)</text>
</g>
<!-- d33tah&#45;&#45;Infrastruktura#Lelegram (na shitpostach) -->
<g id="edge10" class="edge">
<title>d33tah&#45;&#45;Infrastruktura#Lelegram (na shitpostach)</title>
<path fill="none" stroke="#0061f2" d="M103.1147,-278.5714C157.922,-278.5714 256.1234,-278.5714 346.8064,-278.5714"/>
</g>
<!-- Infrastruktura#Github -->
<g id="node13" class="node">
<title>Infrastruktura#Github</title>
<ellipse fill="none" stroke="#000000" cx="552.8137" cy="-405" rx="117.7793" ry="18"/>
<text text-anchor="middle" x="552.8137" y="-401.3" font-family="Times,serif" font-size="14.00" fill="#000000">Infrastruktura#Github</text>
</g>
<!-- d33tah&#45;&#45;Infrastruktura#Github -->
<g id="edge11" class="edge">
<title>d33tah&#45;&#45;Infrastruktura#Github</title>
<path fill="none" stroke="#0061f2" d="M96.0381,-286.0656C96.0381,-315.4416 96.0381,-399 96.0381,-399 96.0381,-399 306.4511,-399 441.6579,-399"/>
</g>
<!-- Miejsce::Miejsce#Klucze do spejsu -->
<g id="node14" class="node">
<title>Miejsce::Miejsce#Klucze do spejsu</title>
<ellipse fill="none" stroke="#000000" cx="552.8137" cy="-18" rx="174.6691" ry="18"/>
<text text-anchor="middle" x="552.8137" y="-14.3" font-family="Times,serif" font-size="14.00" fill="#000000">Miejsce::Miejsce#Klucze do spejsu</text>
</g>
<!-- d33tah&#45;&#45;Miejsce::Miejsce#Klucze do spejsu -->
<g id="edge12" class="edge">
<title>d33tah&#45;&#45;Miejsce::Miejsce#Klucze do spejsu</title>
<path fill="none" stroke="#0061f2" d="M96.0381,-266.0053C96.0381,-260.3907 96.0381,-254.5 96.0381,-254.5 96.0381,-254.5 386.0381,-254.5 386.0381,-254.5 386.0381,-254.5 386.0381,-60.2651 386.0381,-23.8461"/>
</g>
<!-- Infrastruktura#t.me/hakierspejs -->
<g id="node15" class="node">
<title>Infrastruktura#t.me/hakierspejs</title>
<ellipse fill="none" stroke="#000000" cx="552.8137" cy="-534" rx="163.2712" ry="18"/>
<text text-anchor="middle" x="552.8137" y="-530.3" font-family="Times,serif" font-size="14.00" fill="#000000">Infrastruktura#t.me/hakierspejs</text>
</g>
<!-- d33tah&#45;&#45;Infrastruktura#t.me/hakierspejs -->
<g id="edge13" class="edge">
<title>d33tah&#45;&#45;Infrastruktura#t.me/hakierspejs</title>
<path fill="none" stroke="#0061f2" d="M101.0381,-282.0084C101.0381,-295.0928 101.0381,-325 101.0381,-325 101.0381,-325 418.0381,-325 418.0381,-325 418.0381,-325 418.0381,-481.4638 418.0381,-523.6357"/>
</g>
<!-- Infrastruktura#Pad -->
<g id="node16" class="node">
<title>Infrastruktura#Pad</title>
<ellipse fill="none" stroke="#000000" cx="552.8137" cy="-319" rx="102.8821" ry="18"/>
<text text-anchor="middle" x="552.8137" y="-315.3" font-family="Times,serif" font-size="14.00" fill="#000000">Infrastruktura#Pad</text>
</g>
<!-- d33tah&#45;&#45;Infrastruktura#Pad -->
<g id="edge14" class="edge">
<title>d33tah&#45;&#45;Infrastruktura#Pad</title>
<path fill="none" stroke="#0061f2" d="M102.0381,-280.5369C102.0381,-290.417 102.0381,-313 102.0381,-313 102.0381,-313 323.3498,-313 455.8342,-313"/>
</g>
<!-- Infrastruktura#Meetup -->
<g id="node17" class="node">
<title>Infrastruktura#Meetup</title>
<ellipse fill="none" stroke="#000000" cx="552.8137" cy="-362" rx="121.5784" ry="18"/>
<text text-anchor="middle" x="552.8137" y="-358.3" font-family="Times,serif" font-size="14.00" fill="#000000">Infrastruktura#Meetup</text>
</g>
<!-- d33tah&#45;&#45;Infrastruktura#Meetup -->
<g id="edge16" class="edge">
<title>d33tah&#45;&#45;Infrastruktura#Meetup</title>
<path fill="none" stroke="#0061f2" d="M99.0381,-284.0831C99.0381,-304.085 99.0381,-354.2857 99.0381,-354.2857 99.0381,-354.2857 308.6711,-354.2857 442.9673,-354.2857"/>
</g>
<!-- Infrastruktura#Forum -->
<g id="node18" class="node">
<title>Infrastruktura#Forum</title>
<ellipse fill="none" stroke="#000000" cx="552.8137" cy="-147" rx="116.1796" ry="18"/>
<text text-anchor="middle" x="552.8137" y="-143.3" font-family="Times,serif" font-size="14.00" fill="#000000">Infrastruktura#Forum</text>
</g>
<!-- d33tah&#45;&#45;Infrastruktura#Forum -->
<g id="edge17" class="edge">
<title>d33tah&#45;&#45;Infrastruktura#Forum</title>
<path fill="none" stroke="#0061f2" d="M103.0449,-273.4286C167.1856,-273.4286 280.0381,-273.4286 280.0381,-273.4286 280.0381,-273.4286 280.0381,-153 280.0381,-153 280.0381,-153 367.2474,-153 443.0445,-153"/>
</g>
<!-- Infrastruktura#Grafana -->
<g id="node19" class="node">
<title>Infrastruktura#Grafana</title>
<ellipse fill="none" stroke="#000000" cx="552.8137" cy="-61" rx="122.6784" ry="18"/>
<text text-anchor="middle" x="552.8137" y="-57.3" font-family="Times,serif" font-size="14.00" fill="#000000">Infrastruktura#Grafana</text>
</g>
<!-- d33tah&#45;&#45;Infrastruktura#Grafana -->
<g id="edge18" class="edge">
<title>d33tah&#45;&#45;Infrastruktura#Grafana</title>
<path fill="none" stroke="#0061f2" d="M90.3742,-263.1429C148.0224,-263.1429 267.0381,-263.1429 267.0381,-263.1429 267.0381,-263.1429 267.0381,-64.6 267.0381,-64.6 267.0381,-64.6 354.3469,-64.6 432.4474,-64.6"/>
</g>
<!-- cytP450 -->
<g id="node20" class="node">
<title>cytP450</title>
<ellipse fill="none" stroke="#000000" cx="59.7947" cy="-147" rx="49.2915" ry="18"/>
<text text-anchor="middle" x="59.7947" y="-143.3" font-family="Times,serif" font-size="14.00" fill="#000000">cytP450</text>
</g>
<!-- cytP450&#45;&#45;Infrastruktura#Domeny -->
<g id="edge21" class="edge">
<title>cytP450&#45;&#45;Infrastruktura#Domeny</title>
<path fill="none" stroke="#c60077" d="M98.0381,-158.707C98.0381,-169.5469 98.0381,-184 98.0381,-184 98.0381,-184 300.9509,-184 435.6977,-184"/>
</g>
<!-- cytP450&#45;&#45;Infrastruktura#Hosting -->
<g id="edge20" class="edge">
<title>cytP450&#45;&#45;Infrastruktura#Hosting</title>
<path fill="none" stroke="#c60077" d="M104.0381,-138.6415C104.0381,-125.4854 104.0381,-101.4286 104.0381,-101.4286 104.0381,-101.4286 298.1734,-101.4286 431.0727,-101.4286"/>
</g>
<!-- cytP450&#45;&#45;Miejsce::Miejsce#Klucze do spejsu -->
<g id="edge19" class="edge">
<title>cytP450&#45;&#45;Miejsce::Miejsce#Klucze do spejsu</title>
<path fill="none" stroke="#c60077" d="M96.8748,-135C181.7804,-135 383.0381,-135 383.0381,-135 383.0381,-135 383.0381,-43.8151 383.0381,-22.4437"/>
</g>
<!-- cytP450&#45;&#45;Infrastruktura#Forum -->
<g id="edge22" class="edge">
<title>cytP450&#45;&#45;Infrastruktura#Forum</title>
<path fill="none" stroke="#c60077" d="M109.3246,-147C185.2052,-147 332.3442,-147 436.2913,-147"/>
</g>
<!-- Martti25 -->
<g id="node21" class="node">
<title>Martti25</title>
<ellipse fill="none" stroke="#000000" cx="59.7947" cy="-491" rx="51.9908" ry="18"/>
<text text-anchor="middle" x="59.7947" y="-487.3" font-family="Times,serif" font-size="14.00" fill="#000000">Martti25</text>
</g>
<!-- Martti25&#45;&#45;Infrastruktura#Github -->
<g id="edge24" class="edge">
<title>Martti25&#45;&#45;Infrastruktura#Github</title>
<path fill="none" stroke="#b6e400" d="M111.0112,-487.4C176.9203,-487.4 283.0381,-487.4 283.0381,-487.4 283.0381,-487.4 283.0381,-411 283.0381,-411 283.0381,-411 367.2153,-411 441.5281,-411"/>
</g>
<!-- Martti25&#45;&#45;Infrastruktura#t.me/hakierspejs -->
<g id="edge26" class="edge">
<title>Martti25&#45;&#45;Infrastruktura#t.me/hakierspejs</title>
<path fill="none" stroke="#b6e400" d="M111.101,-494.6C206.151,-494.6 400.0381,-494.6 400.0381,-494.6 400.0381,-494.6 400.0381,-516.3032 400.0381,-527.4939"/>
</g>
<!-- Martti25&#45;&#45;Infrastruktura#Meetup -->
<g id="edge23" class="edge">
<title>Martti25&#45;&#45;Infrastruktura#Meetup</title>
<path fill="none" stroke="#b6e400" d="M101.6571,-480.2C174.069,-480.2 315.0381,-480.2 315.0381,-480.2 315.0381,-480.2 315.0381,-369.7143 315.0381,-369.7143 315.0381,-369.7143 380.6725,-369.7143 442.974,-369.7143"/>
</g>
<!-- Infrastruktura#Konto na Fejsie -->
<g id="node22" class="node">
<title>Infrastruktura#Konto na Fejsie</title>
<ellipse fill="none" stroke="#000000" cx="552.8137" cy="-620" rx="157.0724" ry="18"/>
<text text-anchor="middle" x="552.8137" y="-616.3" font-family="Times,serif" font-size="14.00" fill="#000000">Infrastruktura#Konto na Fejsie</text>
</g>
<!-- Martti25&#45;&#45;Infrastruktura#Konto na Fejsie -->
<g id="edge25" class="edge">
<title>Martti25&#45;&#45;Infrastruktura#Konto na Fejsie</title>
<path fill="none" stroke="#b6e400" d="M101.4865,-501.8C169.3072,-501.8 296.0381,-501.8 296.0381,-501.8 296.0381,-501.8 296.0381,-623.6 296.0381,-623.6 296.0381,-623.6 344.0956,-623.6 398.6296,-623.6"/>
</g>
<!-- biniu -->
<g id="node23" class="node">
<title>biniu</title>
<ellipse fill="none" stroke="#000000" cx="59.7947" cy="-362" rx="34.394" ry="18"/>
<text text-anchor="middle" x="59.7947" y="-358.3" font-family="Times,serif" font-size="14.00" fill="#000000">biniu</text>
</g>
<!-- biniu&#45;&#45;Infrastruktura#Meetup -->
<g id="edge27" class="edge">
<title>biniu&#45;&#45;Infrastruktura#Meetup</title>
<path fill="none" stroke="#00ffff" d="M94.0714,-359.4286C162.9673,-359.4286 321.1462,-359.4286 432.4128,-359.4286"/>
</g>
<!-- kszmigiel -->
<g id="node24" class="node">
<title>kszmigiel</title>
<ellipse fill="none" stroke="#000000" cx="59.7947" cy="-448" rx="55.4913" ry="18"/>
<text text-anchor="middle" x="59.7947" y="-444.3" font-family="Times,serif" font-size="14.00" fill="#000000">kszmigiel</text>
</g>
<!-- kszmigiel&#45;&#45;Infrastruktura#t.me/hakierspejs_spam -->
<g id="edge28" class="edge">
<title>kszmigiel&#45;&#45;Infrastruktura#t.me/hakierspejs_spam</title>
<path fill="none" stroke="#ab00d5" d="M98.7659,-460.8571C183.1095,-460.8571 375.0381,-460.8571 375.0381,-460.8571 375.0381,-460.8571 375.0381,-544.3082 375.0381,-569.7347"/>
</g>
<!-- kszmigiel&#45;&#45;Miejsce::Miejsce#Klucze do spejsu -->
<g id="edge30" class="edge">
<title>kszmigiel&#45;&#45;Miejsce::Miejsce#Klucze do spejsu</title>
<path fill="none" stroke="#ab00d5" d="M98.6542,-435.1429C167.8062,-435.1429 305.0381,-435.1429 305.0381,-435.1429 305.0381,-435.1429 305.0381,-24 305.0381,-24 305.0381,-24 342.2806,-24 387.8883,-24"/>
</g>
<!-- kszmigiel&#45;&#45;Infrastruktura#t.me/hakierspejs -->
<g id="edge31" class="edge">
<title>kszmigiel&#45;&#45;Infrastruktura#t.me/hakierspejs</title>
<path fill="none" stroke="#ab00d5" d="M109.8328,-455.7143C206.4017,-455.7143 409.0381,-455.7143 409.0381,-455.7143 409.0381,-455.7143 409.0381,-504.9403 409.0381,-525.3229"/>
</g>
<!-- kszmigiel&#45;&#45;Infrastruktura#Meetup -->
<g id="edge32" class="edge">
<title>kszmigiel&#45;&#45;Infrastruktura#Meetup</title>
<path fill="none" stroke="#ab00d5" d="M98.0381,-434.9643C98.0381,-411.5 98.0381,-364.5714 98.0381,-364.5714 98.0381,-364.5714 297.7008,-364.5714 432.4341,-364.5714"/>
</g>
<!-- Infrastruktura#Naklejki -->
<g id="node25" class="node">
<title>Infrastruktura#Naklejki</title>
<ellipse fill="none" stroke="#000000" cx="552.8137" cy="-491" rx="125.3778" ry="18"/>
<text text-anchor="middle" x="552.8137" y="-487.3" font-family="Times,serif" font-size="14.00" fill="#000000">Infrastruktura#Naklejki</text>
</g>
<!-- kszmigiel&#45;&#45;Infrastruktura#Naklejki -->
<g id="edge29" class="edge">
<title>kszmigiel&#45;&#45;Infrastruktura#Naklejki</title>
<path fill="none" stroke="#ab00d5" d="M114.5608,-445.4286C220.2546,-445.4286 442.0381,-445.4286 442.0381,-445.4286 442.0381,-445.4286 442.0381,-468.9708 442.0381,-482.2134"/>
</g>
<!-- nikolaad -->
<g id="node26" class="node">
<title>nikolaad</title>
<ellipse fill="none" stroke="#000000" cx="59.7947" cy="-534" rx="50.0912" ry="18"/>
<text text-anchor="middle" x="59.7947" y="-530.3" font-family="Times,serif" font-size="14.00" fill="#000000">nikolaad</text>
</g>
<!-- nikolaad&#45;&#45;Infrastruktura#Meetup -->
<g id="edge33" class="edge">
<title>nikolaad&#45;&#45;Infrastruktura#Meetup</title>
<path fill="none" stroke="#f29100" d="M103.3101,-525C176.9075,-525 318.0381,-525 318.0381,-525 318.0381,-525 318.0381,-374.8571 318.0381,-374.8571 318.0381,-374.8571 400.5336,-374.8571 467.7224,-374.8571"/>
</g>
<!-- nikolaad&#45;&#45;Infrastruktura#Konto na Fejsie -->
<g id="edge34" class="edge">
<title>nikolaad&#45;&#45;Infrastruktura#Konto na Fejsie</title>
<path fill="none" stroke="#f29100" d="M103.3924,-543C170.9015,-543 293.0381,-543 293.0381,-543 293.0381,-543 293.0381,-630.8 293.0381,-630.8 293.0381,-630.8 360.5436,-630.8 426.7307,-630.8"/>
</g>
<!-- Keij0 -->
<g id="node27" class="node">
<title>Keij0</title>
<ellipse fill="none" stroke="#000000" cx="59.7947" cy="-190" rx="34.394" ry="18"/>
<text text-anchor="middle" x="59.7947" y="-186.3" font-family="Times,serif" font-size="14.00" fill="#000000">Keij0</text>
</g>
<!-- Keij0&#45;&#45;Infrastruktura#Hosting -->
<g id="edge36" class="edge">
<title>Keij0&#45;&#45;Infrastruktura#Hosting</title>
<path fill="none" stroke="#00c64f" d="M85.6375,-178C142.6197,-178 274.0381,-178 274.0381,-178 274.0381,-178 274.0381,-106.5714 274.0381,-106.5714 274.0381,-106.5714 355.93,-106.5714 430.9442,-106.5714"/>
</g>
<!-- Keij0&#45;&#45;Infrastruktura#Meetup -->
<g id="edge35" class="edge">
<title>Keij0&#45;&#45;Infrastruktura#Meetup</title>
<path fill="none" stroke="#00c64f" d="M94.4858,-190C165.5491,-190 321.0381,-190 321.0381,-190 321.0381,-190 321.0381,-349.1429 321.0381,-349.1429 321.0381,-349.1429 401.4096,-349.1429 467.4964,-349.1429"/>
</g>
<!-- BluRaf -->
<g id="node28" class="node">
<title>BluRaf</title>
<ellipse fill="none" stroke="#000000" cx="59.7947" cy="-663" rx="42.4939" ry="18"/>
<text text-anchor="middle" x="59.7947" y="-659.3" font-family="Times,serif" font-size="14.00" fill="#000000">BluRaf</text>
</g>
<!-- BluRaf&#45;&#45;Infrastruktura#hs&#45;ldz:hackerspace.pl -->
<g id="edge41" class="edge">
<title>BluRaf&#45;&#45;Infrastruktura#hs&#45;ldz:hackerspace.pl</title>
<path fill="none" stroke="#2e00e4" d="M87.8543,-676.5C99.3632,-676.5 110.0381,-676.5 110.0381,-676.5 110.0381,-676.5 110.0381,-743 110.0381,-743 110.0381,-743 253.3148,-743 376.863,-743"/>
</g>
<!-- BluRaf&#45;&#45;Infrastruktura#hs&#45;ldz&#45;offtopic:hackerspace.pl -->
<g id="edge42" class="edge">
<title>BluRaf&#45;&#45;Infrastruktura#hs&#45;ldz&#45;offtopic:hackerspace.pl</title>
<path fill="none" stroke="#2e00e4" d="M96.6105,-672C172.0261,-672 337.0381,-672 337.0381,-672 337.0381,-672 337.0381,-691.125 337.0381,-700.6875"/>
</g>
<!-- BluRaf&#45;&#45;Infrastruktura#IRC -->
<g id="edge37" class="edge">
<title>BluRaf&#45;&#45;Infrastruktura#IRC</title>
<path fill="none" stroke="#2e00e4" d="M87.9911,-649.5C148.6396,-649.5 286.0381,-649.5 286.0381,-649.5 286.0381,-649.5 286.0381,-450.5714 286.0381,-450.5714 286.0381,-450.5714 374.6007,-450.5714 449.6713,-450.5714"/>
</g>
<!-- BluRaf&#45;&#45;Infrastruktura#t.me/hakierspejs_spam -->
<g id="edge38" class="edge">
<title>BluRaf&#45;&#45;Infrastruktura#t.me/hakierspejs_spam</title>
<path fill="none" stroke="#2e00e4" d="M100.7479,-658.5C186.7004,-658.5 378.0381,-658.5 378.0381,-658.5 378.0381,-658.5 378.0381,-605.2134 378.0381,-584.8146"/>
</g>
<!-- BluRaf&#45;&#45;Infrastruktura#t.me/hakierspejs -->
<g id="edge40" class="edge">
<title>BluRaf&#45;&#45;Infrastruktura#t.me/hakierspejs</title>
<path fill="none" stroke="#2e00e4" d="M96.532,-654C161.536,-654 290.0381,-654 290.0381,-654 290.0381,-654 290.0381,-534 290.0381,-534 290.0381,-534 335.9444,-534 389.3823,-534"/>
</g>
<!-- BluRaf&#45;&#45;Infrastruktura#Konto na Fejsie -->
<g id="edge39" class="edge">
<title>BluRaf&#45;&#45;Infrastruktura#Konto na Fejsie</title>
<path fill="none" stroke="#2e00e4" d="M102.0532,-663C195.8154,-663 413.0381,-663 413.0381,-663 413.0381,-663 413.0381,-640.7861 413.0381,-628.2908"/>
</g>
<!-- Infrastruktura#Mumble -->
<g id="node29" class="node">
<title>Infrastruktura#Mumble</title>
<ellipse fill="none" stroke="#000000" cx="552.8137" cy="-663" rx="124.2781" ry="18"/>
<text text-anchor="middle" x="552.8137" y="-659.3" font-family="Times,serif" font-size="14.00" fill="#000000">Infrastruktura#Mumble</text>
</g>
<!-- BluRaf&#45;&#45;Infrastruktura#Mumble -->
<g id="edge43" class="edge">
<title>BluRaf&#45;&#45;Infrastruktura#Mumble</title>
<path fill="none" stroke="#2e00e4" d="M100.9812,-667.5C173.0716,-667.5 324.6879,-667.5 432.379,-667.5"/>
</g>
<!-- kpc21 -->
<g id="node30" class="node">
<title>kpc21</title>
<ellipse fill="none" stroke="#000000" cx="59.7947" cy="-577" rx="39.7935" ry="18"/>
<text text-anchor="middle" x="59.7947" y="-573.3" font-family="Times,serif" font-size="14.00" fill="#000000">kpc21</text>
</g>
<!-- kpc21&#45;&#45;Infrastruktura#t.me/hakierspejs_spam -->
<g id="edge44" class="edge">
<title>kpc21&#45;&#45;Infrastruktura#t.me/hakierspejs_spam</title>
<path fill="none" stroke="#ff0000" d="M97.2559,-583C155.2882,-583 270.6783,-583 370.8002,-583"/>
</g>
<!-- thinkofher -->
<g id="node31" class="node">
<title>thinkofher</title>
<ellipse fill="none" stroke="#000000" cx="59.7947" cy="-620" rx="59.5901" ry="18"/>
<text text-anchor="middle" x="59.7947" y="-616.3" font-family="Times,serif" font-size="14.00" fill="#000000">thinkofher</text>
</g>
<!-- thinkofher&#45;&#45;Infrastruktura#hs&#45;ldz:hackerspace.pl -->
<g id="edge45" class="edge">
<title>thinkofher&#45;&#45;Infrastruktura#hs&#45;ldz:hackerspace.pl</title>
<path fill="none" stroke="#2bd500" d="M113.0381,-628.4144C113.0381,-655.2414 113.0381,-737 113.0381,-737 113.0381,-737 284.8254,-737 413.666,-737"/>
</g>
<!-- thinkofher&#45;&#45;Infrastruktura#hs&#45;ldz&#45;offtopic:hackerspace.pl -->
<g id="edge47" class="edge">
<title>thinkofher&#45;&#45;Infrastruktura#hs&#45;ldz&#45;offtopic:hackerspace.pl</title>
<path fill="none" stroke="#2bd500" d="M117.0381,-625.6427C117.0381,-644.7754 117.0381,-706 117.0381,-706 117.0381,-706 220.9351,-706 327.2672,-706"/>
</g>
<!-- thinkofher&#45;&#45;Infrastruktura#Hosting -->
<g id="edge46" class="edge">
<title>thinkofher&#45;&#45;Infrastruktura#Hosting</title>
<path fill="none" stroke="#2bd500" d="M107.8513,-609.2C180.2785,-609.2 309.0381,-609.2 309.0381,-609.2 309.0381,-609.2 309.0381,-116.8571 309.0381,-116.8571 309.0381,-116.8571 396.3978,-116.8571 466.5245,-116.8571"/>
</g>
<!-- thinkofher&#45;&#45;Infrastruktura#Forum -->
<g id="edge48" class="edge">
<title>thinkofher&#45;&#45;Infrastruktura#Forum</title>
<path fill="none" stroke="#2bd500" d="M118.6162,-616.4C193.1521,-616.4 312.0381,-616.4 312.0381,-616.4 312.0381,-616.4 312.0381,-159 312.0381,-159 312.0381,-159 396.9209,-159 465.8882,-159"/>
</g>
<!-- kpc -->
<g id="node32" class="node">
<title>kpc</title>
<ellipse fill="none" stroke="#000000" cx="59.7947" cy="-104" rx="27.8951" ry="18"/>
<text text-anchor="middle" x="59.7947" y="-100.3" font-family="Times,serif" font-size="14.00" fill="#000000">kpc</text>
</g>
<!-- kpc&#45;&#45;Infrastruktura#Hosting -->
<g id="edge49" class="edge">
<title>kpc&#45;&#45;Infrastruktura#Hosting</title>
<path fill="none" stroke="#0061f2" d="M85.2634,-96.2857C150.2344,-96.2857 325.2225,-96.2857 441.7151,-96.2857"/>
</g>
<!-- pmysl -->
<g id="node33" class="node">
<title>pmysl</title>
<ellipse fill="none" stroke="#000000" cx="59.7947" cy="-61" rx="38.1938" ry="18"/>
<text text-anchor="middle" x="59.7947" y="-57.3" font-family="Times,serif" font-size="14.00" fill="#000000">pmysl</text>
</g>
<!-- pmysl&#45;&#45;Infrastruktura#Hosting -->
<g id="edge51" class="edge">
<title>pmysl&#45;&#45;Infrastruktura#Hosting</title>
<path fill="none" stroke="#c60077" d="M93.0381,-70.2076C93.0381,-79.0721 93.0381,-91.1429 93.0381,-91.1429 93.0381,-91.1429 333.4722,-91.1429 466.6033,-91.1429"/>
</g>
<!-- pmysl&#45;&#45;Miejsce::Miejsce#Klucze do spejsu -->
<g id="edge50" class="edge">
<title>pmysl&#45;&#45;Miejsce::Miejsce#Klucze do spejsu</title>
<path fill="none" stroke="#c60077" d="M90.5969,-50.2C171.0015,-50.2 381.0381,-50.2 381.0381,-50.2 381.0381,-50.2 381.0381,-29.7527 381.0381,-21.446"/>
</g>
<!-- pmysl&#45;&#45;Infrastruktura#Forum -->
<g id="edge52" class="edge">
<title>pmysl&#45;&#45;Infrastruktura#Forum</title>
<path fill="none" stroke="#c60077" d="M90.8168,-71.8C149.2995,-71.8 270.0381,-71.8 270.0381,-71.8 270.0381,-71.8 270.0381,-141 270.0381,-141 270.0381,-141 363.5943,-141 443.0805,-141"/>
</g>
<!-- pmysl&#45;&#45;Infrastruktura#Grafana -->
<g id="edge53" class="edge">
<title>pmysl&#45;&#45;Infrastruktura#Grafana</title>
<path fill="none" stroke="#c60077" d="M97.6624,-57.4C168.2945,-57.4 322.8708,-57.4 432.2354,-57.4"/>
</g>
<!-- nuke -->
<g id="node34" class="node">
<title>nuke</title>
<ellipse fill="none" stroke="#000000" cx="59.7947" cy="-18" rx="33.5952" ry="18"/>
<text text-anchor="middle" x="59.7947" y="-14.3" font-family="Times,serif" font-size="14.00" fill="#000000">nuke</text>
</g>
<!-- nuke&#45;&#45;Miejsce::Miejsce#Klucze do spejsu -->
<g id="edge54" class="edge">
<title>nuke&#45;&#45;Miejsce::Miejsce#Klucze do spejsu</title>
<path fill="none" stroke="#b6e400" d="M91.7632,-12C150.8694,-12 280.9693,-12 387.9453,-12"/>
</g>
</g>
</svg>
