<?xml version="1.0" encoding="UTF-8" standalone="no"?>
<!DOCTYPE svg PUBLIC "-//W3C//DTD SVG 1.1//EN"
 "http://www.w3.org/Graphics/SVG/1.1/DTD/svg11.dtd">
<!-- Generated by graphviz version 2.43.0 (0)
 -->
<!-- Title: %3 Pages: 1 -->
<svg width="976pt" height="1312pt"
 viewBox="0.00 0.00 976.13 1312.00" xmlns="http://www.w3.org/2000/svg" xmlns:xlink="http://www.w3.org/1999/xlink">
<g id="graph0" class="graph" transform="scale(1 1) rotate(0) translate(4 1308)">
<title>%3</title>
<polygon fill="white" stroke="transparent" points="-4,4 -4,-1308 972.13,-1308 972.13,4 -4,4"/>
<!-- d33tah -->
<g id="node1" class="node">
<title>d33tah</title>
<ellipse fill="none" stroke="black" cx="59.14" cy="-813" rx="43.59" ry="18"/>
<text text-anchor="middle" x="59.14" y="-809.3" font-family="Times,serif" font-size="14.00">d33tah</text>
</g>
<!-- Miejsce::Miejsce#Klucze do spejsu -->
<g id="node2" class="node">
<title>Miejsce::Miejsce#Klucze do spejsu</title>
<ellipse fill="none" stroke="black" cx="615.21" cy="-727" rx="172.77" ry="18"/>
<text text-anchor="middle" x="615.21" y="-723.3" font-family="Times,serif" font-size="14.00">Miejsce::Miejsce#Klucze do spejsu</text>
</g>
<!-- d33tah&#45;&#45;Miejsce::Miejsce#Klucze do spejsu -->
<g id="edge1" class="edge">
<title>d33tah&#45;&#45;Miejsce::Miejsce#Klucze do spejsu</title>
<path fill="none" stroke="#ff0000" d="M45.13,-795.87C45.13,-771.66 45.13,-730.33 45.13,-730.33 45.13,-730.33 276.95,-730.33 444.94,-730.33"/>
</g>
<!-- Stowarzyszenie#Zarzd -->
<g id="node3" class="node">
<title>Stowarzyszenie#Zarzd</title>
<ellipse fill="none" stroke="black" cx="615.21" cy="-555" rx="123.48" ry="18"/>
<text text-anchor="middle" x="615.21" y="-551.3" font-family="Times,serif" font-size="14.00">Stowarzyszenie#Zarzd</text>
</g>
<!-- d33tah&#45;&#45;Stowarzyszenie#Zarzd -->
<g id="edge2" class="edge">
<title>d33tah&#45;&#45;Stowarzyszenie#Zarzd</title>
<path fill="none" stroke="#ff0000" d="M95.02,-802.71C159.22,-802.71 287.13,-802.71 287.13,-802.71 287.13,-802.71 287.13,-555 287.13,-555 287.13,-555 398.64,-555 491.64,-555"/>
</g>
<!-- Bazy&#45;danych#Grafana -->
<g id="node4" class="node">
<title>Bazy&#45;danych#Grafana</title>
<ellipse fill="none" stroke="black" cx="615.21" cy="-1200" rx="114.28" ry="18"/>
<text text-anchor="middle" x="615.21" y="-1196.3" font-family="Times,serif" font-size="14.00">Bazy&#45;danych#Grafana</text>
</g>
<!-- d33tah&#45;&#45;Bazy&#45;danych#Grafana -->
<g id="edge3" class="edge">
<title>d33tah&#45;&#45;Bazy&#45;danych#Grafana</title>
<path fill="none" stroke="#ff0000" d="M89.66,-825.86C123.72,-825.86 174.13,-825.86 174.13,-825.86 174.13,-825.86 174.13,-1194 174.13,-1194 174.13,-1194 376.73,-1194 507.31,-1194"/>
</g>
<!-- Infrastruktura::Telegram#Spacerspejs: t.me/joinchat/UYf2ONtNj21J1DS6 -->
<g id="node5" class="node">
<title>Infrastruktura::Telegram#Spacerspejs: t.me/joinchat/UYf2ONtNj21J1DS6</title>
<ellipse fill="none" stroke="black" cx="615.21" cy="-899" rx="352.84" ry="18"/>
<text text-anchor="middle" x="615.21" y="-895.3" font-family="Times,serif" font-size="14.00">Infrastruktura::Telegram#Spacerspejs: t.me/joinchat/UYf2ONtNj21J1DS6</text>
</g>
<!-- d33tah&#45;&#45;Infrastruktura::Telegram#Spacerspejs: t.me/joinchat/UYf2ONtNj21J1DS6 -->
<g id="edge4" class="edge">
<title>d33tah&#45;&#45;Infrastruktura::Telegram#Spacerspejs: t.me/joinchat/UYf2ONtNj21J1DS6</title>
<path fill="none" stroke="#ff0000" d="M102.76,-813C165.07,-813 272.13,-813 272.13,-813 272.13,-813 272.13,-876.51 272.13,-894.38"/>
</g>
<!-- Infrastruktura::IRC#IRC -->
<g id="node6" class="node">
<title>Infrastruktura::IRC#IRC</title>
<ellipse fill="none" stroke="black" cx="615.21" cy="-1157" rx="124.58" ry="18"/>
<text text-anchor="middle" x="615.21" y="-1153.3" font-family="Times,serif" font-size="14.00">Infrastruktura::IRC#IRC</text>
</g>
<!-- d33tah&#45;&#45;Infrastruktura::IRC#IRC -->
<g id="edge5" class="edge">
<title>d33tah&#45;&#45;Infrastruktura::IRC#IRC</title>
<path fill="none" stroke="#ff0000" d="M94.91,-823.29C132.16,-823.29 185.13,-823.29 185.13,-823.29 185.13,-823.29 185.13,-1146.2 185.13,-1146.2 185.13,-1146.2 388.12,-1146.2 515.19,-1146.2"/>
</g>
<!-- Infrastruktura::Github#Github -->
<g id="node7" class="node">
<title>Infrastruktura::Github#Github</title>
<ellipse fill="none" stroke="black" cx="615.21" cy="-770" rx="154.07" ry="18"/>
<text text-anchor="middle" x="615.21" y="-766.3" font-family="Times,serif" font-size="14.00">Infrastruktura::Github#Github</text>
</g>
<!-- d33tah&#45;&#45;Infrastruktura::Github#Github -->
<g id="edge6" class="edge">
<title>d33tah&#45;&#45;Infrastruktura::Github#Github</title>
<path fill="none" stroke="#ff0000" d="M74.13,-795.8C74.13,-786.14 74.13,-776 74.13,-776 74.13,-776 309.58,-776 469.85,-776"/>
</g>
<!-- Infrastruktura::Telegram#HS24: t.me/hsl_info -->
<g id="node8" class="node">
<title>Infrastruktura::Telegram#HS24: t.me/hsl_info</title>
<ellipse fill="none" stroke="black" cx="615.21" cy="-856" rx="231.26" ry="18"/>
<text text-anchor="middle" x="615.21" y="-852.3" font-family="Times,serif" font-size="14.00">Infrastruktura::Telegram#HS24: t.me/hsl_info</text>
</g>
<!-- d33tah&#45;&#45;Infrastruktura::Telegram#HS24: t.me/hsl_info -->
<g id="edge7" class="edge">
<title>d33tah&#45;&#45;Infrastruktura::Telegram#HS24: t.me/hsl_info</title>
<path fill="none" stroke="#ff0000" d="M60.13,-831.49C60.13,-843.14 60.13,-856 60.13,-856 60.13,-856 231.52,-856 383.82,-856"/>
</g>
<!-- Bazy&#45;danych#Trello -->
<g id="node9" class="node">
<title>Bazy&#45;danych#Trello</title>
<ellipse fill="none" stroke="black" cx="615.21" cy="-1114" rx="103.98" ry="18"/>
<text text-anchor="middle" x="615.21" y="-1110.3" font-family="Times,serif" font-size="14.00">Bazy&#45;danych#Trello</text>
</g>
<!-- d33tah&#45;&#45;Bazy&#45;danych#Trello -->
<g id="edge8" class="edge">
<title>d33tah&#45;&#45;Bazy&#45;danych#Trello</title>
<path fill="none" stroke="#ff0000" d="M98.77,-820.71C139.22,-820.71 196.13,-820.71 196.13,-820.71 196.13,-820.71 196.13,-1114 196.13,-1114 196.13,-1114 386.96,-1114 511.08,-1114"/>
</g>
<!-- Kanay&#45;komunikacji# -->
<g id="node10" class="node">
<title>Kanay&#45;komunikacji#</title>
<ellipse fill="none" stroke="black" cx="615.21" cy="-598" rx="108.58" ry="18"/>
<text text-anchor="middle" x="615.21" y="-594.3" font-family="Times,serif" font-size="14.00">Kanay&#45;komunikacji#</text>
</g>
<!-- d33tah&#45;&#45;Kanay&#45;komunikacji# -->
<g id="edge9" class="edge">
<title>d33tah&#45;&#45;Kanay&#45;komunikacji#</title>
<path fill="none" stroke="#ff0000" d="M98.5,-805.29C164.68,-805.29 291.13,-805.29 291.13,-805.29 291.13,-805.29 291.13,-612 291.13,-612 291.13,-612 451.79,-612 546.87,-612"/>
</g>
<!-- Bazy&#45;danych#Pad -->
<g id="node11" class="node">
<title>Bazy&#45;danych#Pad</title>
<ellipse fill="none" stroke="black" cx="615.21" cy="-1071" rx="94.48" ry="18"/>
<text text-anchor="middle" x="615.21" y="-1067.3" font-family="Times,serif" font-size="14.00">Bazy&#45;danych#Pad</text>
</g>
<!-- d33tah&#45;&#45;Bazy&#45;danych#Pad -->
<g id="edge10" class="edge">
<title>d33tah&#45;&#45;Bazy&#45;danych#Pad</title>
<path fill="none" stroke="#ff0000" d="M101.15,-818.14C144.9,-818.14 207.13,-818.14 207.13,-818.14 207.13,-818.14 207.13,-1071 207.13,-1071 207.13,-1071 400.28,-1071 520.82,-1071"/>
</g>
<!-- Infrastruktura::Domeny#Domeny -->
<g id="node12" class="node">
<title>Infrastruktura::Domeny#Domeny</title>
<ellipse fill="none" stroke="black" cx="615.21" cy="-340" rx="167.07" ry="18"/>
<text text-anchor="middle" x="615.21" y="-336.3" font-family="Times,serif" font-size="14.00">Infrastruktura::Domeny#Domeny</text>
</g>
<!-- d33tah&#45;&#45;Infrastruktura::Domeny#Domeny -->
<g id="edge11" class="edge">
<title>d33tah&#45;&#45;Infrastruktura::Domeny#Domeny</title>
<path fill="none" stroke="#ff0000" d="M81.91,-797.57C136.07,-797.57 268.13,-797.57 268.13,-797.57 268.13,-797.57 268.13,-349 268.13,-349 268.13,-349 375.29,-349 470.53,-349"/>
</g>
<!-- Drzwi&#45;frontowe#Ekran  -->
<g id="node13" class="node">
<title>Drzwi&#45;frontowe#Ekran </title>
<ellipse fill="none" stroke="black" cx="615.21" cy="-1028" rx="120.78" ry="18"/>
<text text-anchor="middle" x="615.21" y="-1024.3" font-family="Times,serif" font-size="14.00">Drzwi&#45;frontowe#Ekran </text>
</g>
<!-- d33tah&#45;&#45;Drzwi&#45;frontowe#Ekran  -->
<g id="edge12" class="edge">
<title>d33tah&#45;&#45;Drzwi&#45;frontowe#Ekran </title>
<path fill="none" stroke="black" d="M102.45,-815.57C159.35,-815.57 252.13,-815.57 252.13,-815.57 252.13,-815.57 252.13,-1028 252.13,-1028 252.13,-1028 388.69,-1028 494.31,-1028"/>
</g>
<!-- Infrastruktura::Mariuszbot#Mariuszbot -->
<g id="node17" class="node">
<title>Infrastruktura::Mariuszbot#Mariuszbot</title>
<ellipse fill="none" stroke="black" cx="615.21" cy="-942" rx="196.07" ry="18"/>
<text text-anchor="middle" x="615.21" y="-938.3" font-family="Times,serif" font-size="14.00">Infrastruktura::Mariuszbot#Mariuszbot</text>
</g>
<!-- d33tah&#45;&#45;Infrastruktura::Mariuszbot#Mariuszbot -->
<g id="edge13" class="edge">
<title>d33tah&#45;&#45;Infrastruktura::Mariuszbot#Mariuszbot</title>
<path fill="none" stroke="#ff0000" d="M81.63,-828.43C94.51,-828.43 108.13,-828.43 108.13,-828.43 108.13,-828.43 108.13,-944.57 108.13,-944.57 108.13,-944.57 277.61,-944.57 420.61,-944.57"/>
</g>
<!-- Infrastruktura::Telegram#posty: t.me/hakierspejs_spam -->
<g id="node18" class="node">
<title>Infrastruktura::Telegram#posty: t.me/hakierspejs_spam</title>
<ellipse fill="none" stroke="black" cx="615.21" cy="-512" rx="284.05" ry="18"/>
<text text-anchor="middle" x="615.21" y="-508.3" font-family="Times,serif" font-size="14.00">Infrastruktura::Telegram#posty: t.me/hakierspejs_spam</text>
</g>
<!-- d33tah&#45;&#45;Infrastruktura::Telegram#posty: t.me/hakierspejs_spam -->
<g id="edge14" class="edge">
<title>d33tah&#45;&#45;Infrastruktura::Telegram#posty: t.me/hakierspejs_spam</title>
<path fill="none" stroke="#ff0000" d="M102.43,-810.43C182.15,-810.43 344.13,-810.43 344.13,-810.43 344.13,-810.43 344.13,-557.88 344.13,-517.43"/>
</g>
<!-- Marketing&#45;i&#45;media&#45;spoecznociowe# -->
<g id="node19" class="node">
<title>Marketing&#45;i&#45;media&#45;spoecznociowe#</title>
<ellipse fill="none" stroke="black" cx="615.21" cy="-469" rx="183.07" ry="18"/>
<text text-anchor="middle" x="615.21" y="-465.3" font-family="Times,serif" font-size="14.00">Marketing&#45;i&#45;media&#45;spoecznociowe#</text>
</g>
<!-- d33tah&#45;&#45;Marketing&#45;i&#45;media&#45;spoecznociowe# -->
<g id="edge15" class="edge">
<title>d33tah&#45;&#45;Marketing&#45;i&#45;media&#45;spoecznociowe#</title>
<path fill="none" stroke="#ff0000" d="M89.82,-800.14C151.16,-800.14 283.13,-800.14 283.13,-800.14 283.13,-800.14 283.13,-483 283.13,-483 283.13,-483 404.08,-483 499.99,-483"/>
</g>
<!-- Infrastruktura::Telegram#G贸wny: t.me/hakierspejs -->
<g id="node20" class="node">
<title>Infrastruktura::Telegram#G贸wny: t.me/hakierspejs</title>
<ellipse fill="none" stroke="black" cx="615.21" cy="-641" rx="251.56" ry="18"/>
<text text-anchor="middle" x="615.21" y="-637.3" font-family="Times,serif" font-size="14.00">Infrastruktura::Telegram#G贸wny: t.me/hakierspejs</text>
</g>
<!-- d33tah&#45;&#45;Infrastruktura::Telegram#G贸wny: t.me/hakierspejs -->
<g id="edge16" class="edge">
<title>d33tah&#45;&#45;Infrastruktura::Telegram#G贸wny: t.me/hakierspejs</title>
<path fill="none" stroke="#ff0000" d="M101.11,-807.86C175.35,-807.86 322.13,-807.86 322.13,-807.86 322.13,-807.86 322.13,-647 322.13,-647 322.13,-647 344.99,-647 377.94,-647"/>
</g>
<!-- nastpne -->
<g id="node14" class="node">
<title>nastpne</title>
<ellipse fill="none" stroke="black" cx="59.14" cy="-1200" rx="53.09" ry="18"/>
<text text-anchor="middle" x="59.14" y="-1196.3" font-family="Times,serif" font-size="14.00">nastpne</text>
</g>
<!-- spotkanie -->
<g id="node15" class="node">
<title>spotkanie</title>
<ellipse fill="none" stroke="black" cx="59.14" cy="-1243" rx="55.79" ry="18"/>
<text text-anchor="middle" x="59.14" y="-1239.3" font-family="Times,serif" font-size="14.00">spotkanie</text>
</g>
<g id="node16" class="node">
<title></title>
<ellipse fill="none" stroke="#ff0000" cx="59.14" cy="-1286" rx="27" ry="18"/>
</g>
<!-- kszmigiel -->
<g id="node21" class="node">
<title>kszmigiel</title>
<ellipse fill="none" stroke="black" cx="59.14" cy="-555" rx="54.69" ry="18"/>
<text text-anchor="middle" x="59.14" y="-551.3" font-family="Times,serif" font-size="14.00">kszmigiel</text>
</g>
<!-- kszmigiel&#45;&#45;Miejsce::Miejsce#Klucze do spejsu -->
<g id="edge17" class="edge">
<title>kszmigiel&#45;&#45;Miejsce::Miejsce#Klucze do spejsu</title>
<path fill="none" stroke="#2bd500" d="M110.89,-561C182.51,-561 303.13,-561 303.13,-561 303.13,-561 303.13,-712.5 303.13,-712.5 303.13,-712.5 421.63,-712.5 512.59,-712.5"/>
</g>
<!-- kszmigiel&#45;&#45;Stowarzyszenie#Zarzd -->
<g id="edge18" class="edge">
<title>kszmigiel&#45;&#45;Stowarzyszenie#Zarzd</title>
<path fill="none" stroke="#2bd500" d="M110.96,-549C198.85,-549 379.25,-549 498.72,-549"/>
</g>
<!-- kszmigiel&#45;&#45;Infrastruktura::Github#Github -->
<g id="edge20" class="edge">
<title>kszmigiel&#45;&#45;Infrastruktura::Github#Github</title>
<path fill="none" stroke="#2bd500" d="M99.85,-567C168.32,-567 299.13,-567 299.13,-567 299.13,-567 299.13,-758 299.13,-758 299.13,-758 409.83,-758 500.2,-758"/>
</g>
<!-- kszmigiel&#45;&#45;Infrastruktura::Telegram#posty: t.me/hakierspejs_spam -->
<g id="edge21" class="edge">
<title>kszmigiel&#45;&#45;Infrastruktura::Telegram#posty: t.me/hakierspejs_spam</title>
<path fill="none" stroke="#2bd500" d="M106.13,-545.71C106.13,-535.64 106.13,-521 106.13,-521 106.13,-521 238.92,-521 368.87,-521"/>
</g>
<!-- kszmigiel&#45;&#45;Marketing&#45;i&#45;media&#45;spoecznociowe# -->
<g id="edge22" class="edge">
<title>kszmigiel&#45;&#45;Marketing&#45;i&#45;media&#45;spoecznociowe#</title>
<path fill="none" stroke="#2bd500" d="M102.13,-543.85C102.13,-520.18 102.13,-467 102.13,-467 102.13,-467 285.4,-467 432.87,-467"/>
</g>
<!-- kszmigiel&#45;&#45;Infrastruktura::Telegram#G贸wny: t.me/hakierspejs -->
<g id="edge23" class="edge">
<title>kszmigiel&#45;&#45;Infrastruktura::Telegram#G贸wny: t.me/hakierspejs</title>
<path fill="none" stroke="#2bd500" d="M108.13,-562.96C108.13,-583.2 108.13,-635 108.13,-635 108.13,-635 246.03,-635 378,-635"/>
</g>
<!-- Marketing&#45;i&#45;media&#45;spoecznociowe#Naklejki -->
<g id="node22" class="node">
<title>Marketing&#45;i&#45;media&#45;spoecznociowe#Naklejki</title>
<ellipse fill="none" stroke="black" cx="615.21" cy="-426" rx="221.76" ry="18"/>
<text text-anchor="middle" x="615.21" y="-422.3" font-family="Times,serif" font-size="14.00">Marketing&#45;i&#45;media&#45;spoecznociowe#Naklejki</text>
</g>
<!-- kszmigiel&#45;&#45;Marketing&#45;i&#45;media&#45;spoecznociowe#Naklejki -->
<g id="edge19" class="edge">
<title>kszmigiel&#45;&#45;Marketing&#45;i&#45;media&#45;spoecznociowe#Naklejki</title>
<path fill="none" stroke="#2bd500" d="M100.13,-542.76C100.13,-509.94 100.13,-422.4 100.13,-422.4 100.13,-422.4 257.21,-422.4 397.89,-422.4"/>
</g>
<!-- thinkofher -->
<g id="node23" class="node">
<title>thinkofher</title>
<ellipse fill="none" stroke="black" cx="59.14" cy="-705" rx="59.29" ry="18"/>
<text text-anchor="middle" x="59.14" y="-701.3" font-family="Times,serif" font-size="14.00">thinkofher</text>
</g>
<!-- thinkofher&#45;&#45;Infrastruktura::IRC#IRC -->
<g id="edge25" class="edge">
<title>thinkofher&#45;&#45;Infrastruktura::IRC#IRC</title>
<path fill="none" stroke="#0061f2" d="M106.13,-716.08C106.13,-785.13 106.13,-1153.4 106.13,-1153.4 106.13,-1153.4 341.99,-1153.4 492.62,-1153.4"/>
</g>
<!-- thinkofher&#45;&#45;Infrastruktura::Github#Github -->
<g id="edge26" class="edge">
<title>thinkofher&#45;&#45;Infrastruktura::Github#Github</title>
<path fill="none" stroke="#0061f2" d="M112.13,-713.23C112.13,-730.72 112.13,-770 112.13,-770 112.13,-770 312.97,-770 460.85,-770"/>
</g>
<!-- thinkofher&#45;&#45;Kanay&#45;komunikacji# -->
<g id="edge28" class="edge">
<title>thinkofher&#45;&#45;Kanay&#45;komunikacji#</title>
<path fill="none" stroke="#0061f2" d="M102.13,-692.62C102.13,-665.65 102.13,-604 102.13,-604 102.13,-604 362.88,-604 512.61,-604"/>
</g>
<!-- thinkofher&#45;&#45;Marketing&#45;i&#45;media&#45;spoecznociowe# -->
<g id="edge30" class="edge">
<title>thinkofher&#45;&#45;Marketing&#45;i&#45;media&#45;spoecznociowe#</title>
<path fill="none" stroke="#0061f2" d="M95.61,-690.75C145.56,-690.75 229.13,-690.75 229.13,-690.75 229.13,-690.75 229.13,-471 229.13,-471 229.13,-471 332.94,-471 432.91,-471"/>
</g>
<!-- thinkofher&#45;&#45;Infrastruktura::Telegram#G贸wny: t.me/hakierspejs -->
<g id="edge31" class="edge">
<title>thinkofher&#45;&#45;Infrastruktura::Telegram#G贸wny: t.me/hakierspejs</title>
<path fill="none" stroke="#0061f2" d="M107.4,-694.5C196.79,-694.5 379.13,-694.5 379.13,-694.5 379.13,-694.5 379.13,-661.85 379.13,-647.56"/>
</g>
<!-- Infrastruktura::Matrix#hs&#45;ldz:hackerspace.pl -->
<g id="node24" class="node">
<title>Infrastruktura::Matrix#hs&#45;ldz:hackerspace.pl</title>
<ellipse fill="none" stroke="black" cx="615.21" cy="-684" rx="221.76" ry="18"/>
<text text-anchor="middle" x="615.21" y="-680.3" font-family="Times,serif" font-size="14.00">Infrastruktura::Matrix#hs&#45;ldz:hackerspace.pl</text>
</g>
<!-- thinkofher&#45;&#45;Infrastruktura::Matrix#hs&#45;ldz:hackerspace.pl -->
<g id="edge24" class="edge">
<title>thinkofher&#45;&#45;Infrastruktura::Matrix#hs&#45;ldz:hackerspace.pl</title>
<path fill="none" stroke="#0061f2" d="M113.98,-698.25C198.24,-698.25 362.08,-698.25 479.52,-698.25"/>
</g>
<!-- Bazy&#45;danych# -->
<g id="node25" class="node">
<title>Bazy&#45;danych#</title>
<ellipse fill="none" stroke="black" cx="615.21" cy="-985" rx="77.19" ry="18"/>
<text text-anchor="middle" x="615.21" y="-981.3" font-family="Times,serif" font-size="14.00">Bazy&#45;danych#</text>
</g>
<!-- thinkofher&#45;&#45;Bazy&#45;danych# -->
<g id="edge27" class="edge">
<title>thinkofher&#45;&#45;Bazy&#45;danych#</title>
<path fill="none" stroke="#0061f2" d="M107.13,-715.74C107.13,-766.4 107.13,-979 107.13,-979 107.13,-979 401.55,-979 542.14,-979"/>
</g>
<!-- Infrastruktura::Matrix#hs&#45;ldz&#45;offtopic:hackerspace.pl -->
<g id="node26" class="node">
<title>Infrastruktura::Matrix#hs&#45;ldz&#45;offtopic:hackerspace.pl</title>
<ellipse fill="none" stroke="black" cx="615.21" cy="-813" rx="258.85" ry="18"/>
<text text-anchor="middle" x="615.21" y="-809.3" font-family="Times,serif" font-size="14.00">Infrastruktura::Matrix#hs&#45;ldz&#45;offtopic:hackerspace.pl</text>
</g>
<!-- thinkofher&#45;&#45;Infrastruktura::Matrix#hs&#45;ldz&#45;offtopic:hackerspace.pl -->
<g id="edge29" class="edge">
<title>thinkofher&#45;&#45;Infrastruktura::Matrix#hs&#45;ldz&#45;offtopic:hackerspace.pl</title>
<path fill="none" stroke="#0061f2" d="M94.26,-719.5C173.66,-719.5 360.13,-719.5 360.13,-719.5 360.13,-719.5 360.13,-793.67 360.13,-809.89"/>
</g>
<!-- kpc -->
<g id="node27" class="node">
<title>kpc</title>
<ellipse fill="none" stroke="black" cx="59.14" cy="-125" rx="27" ry="18"/>
<text text-anchor="middle" x="59.14" y="-121.3" font-family="Times,serif" font-size="14.00">kpc</text>
</g>
<!-- kpc&#45;&#45;Infrastruktura::Telegram#posty: t.me/hakierspejs_spam -->
<g id="edge35" class="edge">
<title>kpc&#45;&#45;Infrastruktura::Telegram#posty: t.me/hakierspejs_spam</title>
<path fill="none" stroke="#c60077" d="M81.11,-135.8C105.4,-135.8 141.13,-135.8 141.13,-135.8 141.13,-135.8 141.13,-503 141.13,-503 141.13,-503 253.71,-503 369.14,-503"/>
</g>
<!-- kpc&#45;&#45;Marketing&#45;i&#45;media&#45;spoecznociowe# -->
<g id="edge36" class="edge">
<title>kpc&#45;&#45;Marketing&#45;i&#45;media&#45;spoecznociowe#</title>
<path fill="none" stroke="#c60077" d="M86.04,-128.6C113.5,-128.6 152.13,-128.6 152.13,-128.6 152.13,-128.6 152.13,-459 152.13,-459 152.13,-459 327.69,-459 462.62,-459"/>
</g>
<!-- Czaty&#45;HS#HS: posty wyklte -->
<g id="node28" class="node">
<title>Czaty&#45;HS#HS: posty wyklte</title>
<ellipse fill="none" stroke="black" cx="615.21" cy="-125" rx="157.87" ry="18"/>
<text text-anchor="middle" x="615.21" y="-121.3" font-family="Times,serif" font-size="14.00">Czaty&#45;HS#HS: posty wyklte</text>
</g>
<!-- kpc&#45;&#45;Czaty&#45;HS#HS: posty wyklte -->
<g id="edge32" class="edge">
<title>kpc&#45;&#45;Czaty&#45;HS#HS: posty wyklte</title>
<path fill="none" stroke="#c60077" d="M85.96,-121.4C152.51,-121.4 329.29,-121.4 460.33,-121.4"/>
</g>
<!-- Infrastruktura::Telegram#Posty wyklte (celowo bez linka) -->
<g id="node29" class="node">
<title>Infrastruktura::Telegram#Posty wyklte (celowo bez linka)</title>
<ellipse fill="none" stroke="black" cx="615.21" cy="-82" rx="284.05" ry="18"/>
<text text-anchor="middle" x="615.21" y="-78.3" font-family="Times,serif" font-size="14.00">Infrastruktura::Telegram#Posty wyklte (celowo bez linka)</text>
</g>
<!-- kpc&#45;&#45;Infrastruktura::Telegram#Posty wyklte (celowo bez linka) -->
<g id="edge33" class="edge">
<title>kpc&#45;&#45;Infrastruktura::Telegram#Posty wyklte (celowo bez linka)</title>
<path fill="none" stroke="#c60077" d="M60.13,-106.83C60.13,-98.1 60.13,-89.5 60.13,-89.5 60.13,-89.5 211.93,-89.5 356.76,-89.5"/>
</g>
<!-- Stowarzyszenie#Komisja Rewizyjna -->
<g id="node30" class="node">
<title>Stowarzyszenie#Komisja Rewizyjna</title>
<ellipse fill="none" stroke="black" cx="615.21" cy="-39" rx="178.17" ry="18"/>
<text text-anchor="middle" x="615.21" y="-35.3" font-family="Times,serif" font-size="14.00">Stowarzyszenie#Komisja Rewizyjna</text>
</g>
<!-- kpc&#45;&#45;Stowarzyszenie#Komisja Rewizyjna -->
<g id="edge34" class="edge">
<title>kpc&#45;&#45;Stowarzyszenie#Komisja Rewizyjna</title>
<path fill="none" stroke="#c60077" d="M80.77,-114.2C139.6,-114.2 298.13,-114.2 298.13,-114.2 298.13,-114.2 298.13,-53.5 298.13,-53.5 298.13,-53.5 417.39,-53.5 509.62,-53.5"/>
</g>
<!-- cytP450 -->
<g id="node31" class="node">
<title>cytP450</title>
<ellipse fill="none" stroke="black" cx="59.14" cy="-275" rx="48.99" ry="18"/>
<text text-anchor="middle" x="59.14" y="-271.3" font-family="Times,serif" font-size="14.00">cytP450</text>
</g>
<!-- cytP450&#45;&#45;Miejsce::Miejsce#Klucze do spejsu -->
<g id="edge37" class="edge">
<title>cytP450&#45;&#45;Miejsce::Miejsce#Klucze do spejsu</title>
<path fill="none" stroke="#b6e400" d="M88.43,-289.5C107.98,-289.5 130.13,-289.5 130.13,-289.5 130.13,-289.5 130.13,-716 130.13,-716 130.13,-716 334.7,-716 478.15,-716"/>
</g>
<!-- cytP450&#45;&#45;Kanay&#45;komunikacji# -->
<g id="edge40" class="edge">
<title>cytP450&#45;&#45;Kanay&#45;komunikacji#</title>
<path fill="none" stroke="#b6e400" d="M97.81,-286C168.21,-286 310.13,-286 310.13,-286 310.13,-286 310.13,-584 310.13,-584 310.13,-584 456.79,-584 546.74,-584"/>
</g>
<!-- cytP450&#45;&#45;Infrastruktura::Domeny#Domeny -->
<g id="edge41" class="edge">
<title>cytP450&#45;&#45;Infrastruktura::Domeny#Domeny</title>
<path fill="none" stroke="#b6e400" d="M104.13,-282.32C104.13,-297.5 104.13,-331 104.13,-331 104.13,-331 319.35,-331 470.46,-331"/>
</g>
<!-- cytP450&#45;&#45;Stowarzyszenie#Komisja Rewizyjna -->
<g id="edge43" class="edge">
<title>cytP450&#45;&#45;Stowarzyszenie#Komisja Rewizyjna</title>
<path fill="none" stroke="#b6e400" d="M92.86,-262C139.53,-262 218.13,-262 218.13,-262 218.13,-262 218.13,-50 218.13,-50 218.13,-50 359.96,-50 474.09,-50"/>
</g>
<!-- Chciejlista#DIY -->
<g id="node32" class="node">
<title>Chciejlista#DIY</title>
<ellipse fill="none" stroke="black" cx="615.21" cy="-297" rx="83.69" ry="18"/>
<text text-anchor="middle" x="615.21" y="-293.3" font-family="Times,serif" font-size="14.00">Chciejlista#DIY</text>
</g>
<!-- cytP450&#45;&#45;Chciejlista#DIY -->
<g id="edge38" class="edge">
<title>cytP450&#45;&#45;Chciejlista#DIY</title>
<path fill="none" stroke="#b6e400" d="M103.71,-282.5C206.15,-282.5 457.83,-282.5 565.28,-282.5"/>
</g>
<!-- Zamek#Zamek -->
<g id="node33" class="node">
<title>Zamek#Zamek</title>
<ellipse fill="none" stroke="black" cx="615.21" cy="-254" rx="81.49" ry="18"/>
<text text-anchor="middle" x="615.21" y="-250.3" font-family="Times,serif" font-size="14.00">Zamek#Zamek</text>
</g>
<!-- cytP450&#45;&#45;Zamek#Zamek -->
<g id="edge39" class="edge">
<title>cytP450&#45;&#45;Zamek#Zamek</title>
<path fill="none" stroke="#b6e400" d="M103.24,-267C203.42,-267 448.04,-267 558.92,-267"/>
</g>
<!-- Chciejlista#Elektronika (w sensie urzdze konsumenckich) -->
<g id="node34" class="node">
<title>Chciejlista#Elektronika (w sensie urzdze konsumenckich)</title>
<ellipse fill="none" stroke="black" cx="615.21" cy="-211" rx="289.75" ry="18"/>
<text text-anchor="middle" x="615.21" y="-207.3" font-family="Times,serif" font-size="14.00">Chciejlista#Elektronika (w sensie urzdze konsumenckich)</text>
</g>
<!-- cytP450&#45;&#45;Chciejlista#Elektronika (w sensie urzdze konsumenckich) -->
<g id="edge42" class="edge">
<title>cytP450&#45;&#45;Chciejlista#Elektronika (w sensie urzdze konsumenckich)</title>
<path fill="none" stroke="#b6e400" d="M101.13,-265.83C101.13,-248.13 101.13,-211 101.13,-211 101.13,-211 208.51,-211 325.11,-211"/>
</g>
<!-- Przegld&#45;lokali&#45;na&#45;wynajem&#45;w&#45;odzi.&#45;Fundusz&#45;1000&#45;&#45;&#45;1500.#Bot Aleksego -->
<g id="node35" class="node">
<title>Przegld&#45;lokali&#45;na&#45;wynajem&#45;w&#45;odzi.&#45;Fundusz&#45;1000&#45;&#45;&#45;1500.#Bot Aleksego</title>
<ellipse fill="none" stroke="black" cx="615.21" cy="-168" rx="351.74" ry="18"/>
<text text-anchor="middle" x="615.21" y="-164.3" font-family="Times,serif" font-size="14.00">Przegld&#45;lokali&#45;na&#45;wynajem&#45;w&#45;odzi.&#45;Fundusz&#45;1000&#45;&#45;&#45;1500.#Bot Aleksego</text>
</g>
<!-- cytP450&#45;&#45;Przegld&#45;lokali&#45;na&#45;wynajem&#45;w&#45;odzi.&#45;Fundusz&#45;1000&#45;&#45;&#45;1500.#Bot Aleksego -->
<g id="edge44" class="edge">
<title>cytP450&#45;&#45;Przegld&#45;lokali&#45;na&#45;wynajem&#45;w&#45;odzi.&#45;Fundusz&#45;1000&#45;&#45;&#45;1500.#Bot Aleksego</title>
<path fill="none" stroke="#b6e400" d="M94.13,-262.31C94.13,-233.96 94.13,-168 94.13,-168 94.13,-168 169.71,-168 263.31,-168"/>
</g>
<!-- biniu -->
<g id="node36" class="node">
<title>biniu</title>
<ellipse fill="none" stroke="black" cx="59.14" cy="-512" rx="34.39" ry="18"/>
<text text-anchor="middle" x="59.14" y="-508.3" font-family="Times,serif" font-size="14.00">biniu</text>
</g>
<!-- biniu&#45;&#45;Marketing&#45;i&#45;media&#45;spoecznociowe# -->
<g id="edge45" class="edge">
<title>biniu&#45;&#45;Marketing&#45;i&#45;media&#45;spoecznociowe#</title>
<path fill="none" stroke="#00ffff" d="M94.01,-512C155.34,-512 276.13,-512 276.13,-512 276.13,-512 276.13,-475 276.13,-475 276.13,-475 358.6,-475 442.19,-475"/>
</g>
<!-- Keij0 -->
<g id="node37" class="node">
<title>Keij0</title>
<ellipse fill="none" stroke="black" cx="59.14" cy="-469" rx="34.39" ry="18"/>
<text text-anchor="middle" x="59.14" y="-465.3" font-family="Times,serif" font-size="14.00">Keij0</text>
</g>
<!-- Keij0&#45;&#45;Marketing&#45;i&#45;media&#45;spoecznociowe# -->
<g id="edge46" class="edge">
<title>Keij0&#45;&#45;Marketing&#45;i&#45;media&#45;spoecznociowe#</title>
<path fill="none" stroke="#ab00d5" d="M91.85,-463C159.13,-463 317.21,-463 442.14,-463"/>
</g>
<!-- SP7Q -->
<g id="node38" class="node">
<title>SP7Q</title>
<ellipse fill="none" stroke="black" cx="59.14" cy="-598" rx="36.29" ry="18"/>
<text text-anchor="middle" x="59.14" y="-594.3" font-family="Times,serif" font-size="14.00">SP7Q</text>
</g>
<!-- SP7Q&#45;&#45;Stowarzyszenie#Zarzd -->
<g id="edge47" class="edge">
<title>SP7Q&#45;&#45;Stowarzyszenie#Zarzd</title>
<path fill="none" stroke="#f29100" d="M95.61,-596C201.26,-596 500.13,-596 500.13,-596 500.13,-596 500.13,-573.42 500.13,-561.77"/>
</g>
<!-- SP7Q&#45;&#45;Infrastruktura::Github#Github -->
<g id="edge49" class="edge">
<title>SP7Q&#45;&#45;Infrastruktura::Github#Github</title>
<path fill="none" stroke="#f29100" d="M95.5,-600C161.69,-600 295.13,-600 295.13,-600 295.13,-600 295.13,-764 295.13,-764 295.13,-764 385.13,-764 469.68,-764"/>
</g>
<!-- SP7Q&#45;&#45;Marketing&#45;i&#45;media&#45;spoecznociowe# -->
<g id="edge48" class="edge">
<title>SP7Q&#45;&#45;Marketing&#45;i&#45;media&#45;spoecznociowe#</title>
<path fill="none" stroke="#f29100" d="M93.52,-592C155.39,-592 279.13,-592 279.13,-592 279.13,-592 279.13,-479 279.13,-479 279.13,-479 373.63,-479 462.41,-479"/>
</g>
<!-- kujaw -->
<g id="node39" class="node">
<title>kujaw</title>
<ellipse fill="none" stroke="black" cx="59.14" cy="-426" rx="38.19" ry="18"/>
<text text-anchor="middle" x="59.14" y="-422.3" font-family="Times,serif" font-size="14.00">kujaw</text>
</g>
<!-- kujaw&#45;&#45;Stowarzyszenie#Zarzd -->
<g id="edge50" class="edge">
<title>kujaw&#45;&#45;Stowarzyszenie#Zarzd</title>
<path fill="none" stroke="#00c64f" d="M89.9,-436.8C157.72,-436.8 314.13,-436.8 314.13,-436.8 314.13,-436.8 314.13,-543 314.13,-543 314.13,-543 434.32,-543 522.83,-543"/>
</g>
<!-- kujaw&#45;&#45;Marketing&#45;i&#45;media&#45;spoecznociowe# -->
<g id="edge51" class="edge">
<title>kujaw&#45;&#45;Marketing&#45;i&#45;media&#45;spoecznociowe#</title>
<path fill="none" stroke="#00c64f" d="M96.8,-429.6C168.63,-429.6 318.13,-429.6 318.13,-429.6 318.13,-429.6 318.13,-455 318.13,-455 318.13,-455 416.42,-455 499.92,-455"/>
</g>
<!-- kujaw&#45;&#45;Marketing&#45;i&#45;media&#45;spoecznociowe#Naklejki -->
<g id="edge53" class="edge">
<title>kujaw&#45;&#45;Marketing&#45;i&#45;media&#45;spoecznociowe#Naklejki</title>
<path fill="none" stroke="#00c64f" d="M89.83,-415.2C155.18,-415.2 312.34,-415.2 437.86,-415.2"/>
</g>
<!-- Marketing&#45;i&#45;media&#45;spoecznociowe#Logo nr 2 -->
<g id="node40" class="node">
<title>Marketing&#45;i&#45;media&#45;spoecznociowe#Logo nr 2</title>
<ellipse fill="none" stroke="black" cx="615.21" cy="-383" rx="227.46" ry="18"/>
<text text-anchor="middle" x="615.21" y="-379.3" font-family="Times,serif" font-size="14.00">Marketing&#45;i&#45;media&#45;spoecznociowe#Logo nr 2</text>
</g>
<!-- kujaw&#45;&#45;Marketing&#45;i&#45;media&#45;spoecznociowe#Logo nr 2 -->
<g id="edge52" class="edge">
<title>kujaw&#45;&#45;Marketing&#45;i&#45;media&#45;spoecznociowe#Logo nr 2</title>
<path fill="none" stroke="#00c64f" d="M93.13,-417.42C93.13,-407.35 93.13,-392 93.13,-392 93.13,-392 270.28,-392 418.2,-392"/>
</g>
<!-- q3k -->
<g id="node41" class="node">
<title>q3k</title>
<ellipse fill="none" stroke="black" cx="59.14" cy="-383" rx="27.9" ry="18"/>
<text text-anchor="middle" x="59.14" y="-379.3" font-family="Times,serif" font-size="14.00">q3k</text>
</g>
<!-- q3k&#45;&#45;Kanay&#45;komunikacji# -->
<g id="edge54" class="edge">
<title>q3k&#45;&#45;Kanay&#45;komunikacji#</title>
<path fill="none" stroke="#2e00e4" d="M87.48,-383C152.35,-383 306.13,-383 306.13,-383 306.13,-383 306.13,-588 306.13,-588 306.13,-588 433.36,-588 524.56,-588"/>
</g>
<!-- q3k&#45;&#45;Infrastruktura::Domeny#Domeny -->
<g id="edge55" class="edge">
<title>q3k&#45;&#45;Infrastruktura::Domeny#Domeny</title>
<path fill="none" stroke="#2e00e4" d="M60.13,-364.51C60.13,-352.86 60.13,-340 60.13,-340 60.13,-340 284.47,-340 447.91,-340"/>
</g>
<!-- q3k&#45;&#45;Marketing&#45;i&#45;media&#45;spoecznociowe#Logo nr 2 -->
<g id="edge56" class="edge">
<title>q3k&#45;&#45;Marketing&#45;i&#45;media&#45;spoecznociowe#Logo nr 2</title>
<path fill="none" stroke="#2e00e4" d="M83.4,-374C141.25,-374 291.94,-374 418.2,-374"/>
</g>
<!-- pmysl -->
<g id="node42" class="node">
<title>pmysl</title>
<ellipse fill="none" stroke="black" cx="59.14" cy="-942" rx="38.19" ry="18"/>
<text text-anchor="middle" x="59.14" y="-938.3" font-family="Times,serif" font-size="14.00">pmysl</text>
</g>
<!-- pmysl&#45;&#45;Miejsce::Miejsce#Klucze do spejsu -->
<g id="edge57" class="edge">
<title>pmysl&#45;&#45;Miejsce::Miejsce#Klucze do spejsu</title>
<path fill="none" stroke="#ff0000" d="M86.18,-929.14C97.96,-929.14 109.13,-929.14 109.13,-929.14 109.13,-929.14 109.13,-737.67 109.13,-737.67 109.13,-737.67 326.11,-737.67 475.91,-737.67"/>
</g>
<!-- pmysl&#45;&#45;Bazy&#45;danych#Grafana -->
<g id="edge58" class="edge">
<title>pmysl&#45;&#45;Bazy&#45;danych#Grafana</title>
<path fill="none" stroke="#ff0000" d="M94.06,-949.71C124.27,-949.71 163.13,-949.71 163.13,-949.71 163.13,-949.71 163.13,-1206 163.13,-1206 163.13,-1206 373.48,-1206 507.21,-1206"/>
</g>
<!-- pmysl&#45;&#45;Infrastruktura::IRC#IRC -->
<g id="edge59" class="edge">
<title>pmysl&#45;&#45;Infrastruktura::IRC#IRC</title>
<path fill="none" stroke="#ff0000" d="M86.09,-954.86C95.67,-954.86 104.13,-954.86 104.13,-954.86 104.13,-954.86 104.13,-1160.6 104.13,-1160.6 104.13,-1160.6 341.59,-1160.6 492.79,-1160.6"/>
</g>
<!-- pmysl&#45;&#45;Infrastruktura::Github#Github -->
<g id="edge60" class="edge">
<title>pmysl&#45;&#45;Infrastruktura::Github#Github</title>
<path fill="none" stroke="#ff0000" d="M94,-934.29C102.96,-934.29 110.13,-934.29 110.13,-934.29 110.13,-934.29 110.13,-782 110.13,-782 110.13,-782 351.24,-782 500.28,-782"/>
</g>
<!-- pmysl&#45;&#45;Kanay&#45;komunikacji# -->
<g id="edge62" class="edge">
<title>pmysl&#45;&#45;Kanay&#45;komunikacji#</title>
<path fill="none" stroke="#ff0000" d="M97.29,-939.43C150.66,-939.43 241.13,-939.43 241.13,-939.43 241.13,-939.43 241.13,-608 241.13,-608 241.13,-608 413.94,-608 524.65,-608"/>
</g>
<!-- pmysl&#45;&#45;Bazy&#45;danych# -->
<g id="edge61" class="edge">
<title>pmysl&#45;&#45;Bazy&#45;danych#</title>
<path fill="none" stroke="#ff0000" d="M60.13,-960.25C60.13,-974.18 60.13,-991 60.13,-991 60.13,-991 391.34,-991 542.07,-991"/>
</g>
<!-- pzduniak -->
<g id="node43" class="node">
<title>pzduniak</title>
<ellipse fill="none" stroke="black" cx="59.14" cy="-61" rx="52.79" ry="18"/>
<text text-anchor="middle" x="59.14" y="-57.3" font-family="Times,serif" font-size="14.00">pzduniak</text>
</g>
<!-- pzduniak&#45;&#45;Stowarzyszenie#Komisja Rewizyjna -->
<g id="edge63" class="edge">
<title>pzduniak&#45;&#45;Stowarzyszenie#Komisja Rewizyjna</title>
<path fill="none" stroke="#2bd500" d="M90.63,-46.5C159.16,-46.5 325.85,-46.5 453.09,-46.5"/>
</g>
<!-- krcz -->
<g id="node44" class="node">
<title>krcz</title>
<ellipse fill="none" stroke="black" cx="59.14" cy="-18" rx="30.59" ry="18"/>
<text text-anchor="middle" x="59.14" y="-14.3" font-family="Times,serif" font-size="14.00">krcz</text>
</g>
<!-- krcz&#45;&#45;Stowarzyszenie#Komisja Rewizyjna -->
<g id="edge64" class="edge">
<title>krcz&#45;&#45;Stowarzyszenie#Komisja Rewizyjna</title>
<path fill="none" stroke="#0061f2" d="M84.12,-28.5C150.84,-28.5 337.25,-28.5 470.35,-28.5"/>
</g>
<!-- BluRaf -->
<g id="node45" class="node">
<title>BluRaf</title>
<ellipse fill="none" stroke="black" cx="59.14" cy="-1157" rx="42.49" ry="18"/>
<text text-anchor="middle" x="59.14" y="-1153.3" font-family="Times,serif" font-size="14.00">BluRaf</text>
</g>
<!-- BluRaf&#45;&#45;Infrastruktura::IRC#IRC -->
<g id="edge65" class="edge">
<title>BluRaf&#45;&#45;Infrastruktura::IRC#IRC</title>
<path fill="none" stroke="#c60077" d="M93.09,-1167.8C175.39,-1167.8 388.08,-1167.8 515.17,-1167.8"/>
</g>
</g>
</svg>
