<?xml version="1.0" encoding="UTF-8" standalone="no"?>
<!DOCTYPE svg PUBLIC "-//W3C//DTD SVG 1.1//EN"
 "http://www.w3.org/Graphics/SVG/1.1/DTD/svg11.dtd">
<!-- Generated by graphviz version 2.40.1 (20161225.0304)
 -->
<!-- Title: %3 Pages: 1 -->
<svg width="850pt" height="861pt"
 viewBox="0.00 0.00 850.04 861.00" xmlns="http://www.w3.org/2000/svg" xmlns:xlink="http://www.w3.org/1999/xlink">
<g id="graph0" class="graph" transform="scale(1 1) rotate(0) translate(4 857)">
<title>%3</title>
<polygon fill="#ffffff" stroke="transparent" points="-4,4 -4,-857 846.0381,-857 846.0381,4 -4,4"/>
<!-- q3k -->
<g id="node1" class="node">
<title>q3k</title>
<ellipse fill="none" stroke="#000000" cx="59.7947" cy="-813" rx="28.6953" ry="18"/>
<text text-anchor="middle" x="59.7947" y="-809.3" font-family="Times,serif" font-size="14.00" fill="#000000">q3k</text>
</g>
<!-- Infrastruktura#Lista mailingowa -->
<g id="node2" class="node">
<title>Infrastruktura#Lista mailingowa</title>
<ellipse fill="none" stroke="#000000" cx="552.8137" cy="-835" rx="165.1707" ry="18"/>
<text text-anchor="middle" x="552.8137" y="-831.3" font-family="Times,serif" font-size="14.00" fill="#000000">Infrastruktura#Lista mailingowa</text>
</g>
<!-- q3k&#45;&#45;Infrastruktura#Lista mailingowa -->
<g id="edge1" class="edge">
<title>q3k&#45;&#45;Infrastruktura#Lista mailingowa</title>
<path fill="none" stroke="#ff0000" d="M79.1216,-826.3333C133.1542,-826.3333 289.5747,-826.3333 408.0115,-826.3333"/>
</g>
<!-- Infrastruktura#Domeny -->
<g id="node3" class="node">
<title>Infrastruktura#Domeny</title>
<ellipse fill="none" stroke="#000000" cx="552.8137" cy="-792" rx="124.2781" ry="18"/>
<text text-anchor="middle" x="552.8137" y="-788.3" font-family="Times,serif" font-size="14.00" fill="#000000">Infrastruktura#Domeny</text>
</g>
<!-- q3k&#45;&#45;Infrastruktura#Domeny -->
<g id="edge2" class="edge">
<title>q3k&#45;&#45;Infrastruktura#Domeny</title>
<path fill="none" stroke="#ff0000" d="M83.2424,-802.5C148.3541,-802.5 334.3015,-802.5 451.7265,-802.5"/>
</g>
<!-- d33tah -->
<g id="node4" class="node">
<title>d33tah</title>
<ellipse fill="none" stroke="#000000" cx="59.7947" cy="-577" rx="43.5923" ry="18"/>
<text text-anchor="middle" x="59.7947" y="-573.3" font-family="Times,serif" font-size="14.00" fill="#000000">d33tah</text>
</g>
<!-- d33tah&#45;&#45;Infrastruktura#Lista mailingowa -->
<g id="edge10" class="edge">
<title>d33tah&#45;&#45;Infrastruktura#Lista mailingowa</title>
<path fill="none" stroke="#2bd500" d="M91.2705,-589.4615C149.2462,-589.4615 267.0381,-589.4615 267.0381,-589.4615 267.0381,-589.4615 267.0381,-821.6667 267.0381,-821.6667 267.0381,-821.6667 361.2661,-821.6667 441.5071,-821.6667"/>
</g>
<!-- d33tah&#45;&#45;Infrastruktura#Domeny -->
<g id="edge5" class="edge">
<title>d33tah&#45;&#45;Infrastruktura#Domeny</title>
<path fill="none" stroke="#2bd500" d="M83.1327,-592.2308C121.0972,-592.2308 192.0381,-592.2308 192.0381,-592.2308 192.0381,-592.2308 192.0381,-781 192.0381,-781 192.0381,-781 347.4112,-781 454.2302,-781"/>
</g>
<!-- Infrastruktura#Pad -->
<g id="node5" class="node">
<title>Infrastruktura#Pad</title>
<ellipse fill="none" stroke="#000000" cx="552.8137" cy="-577" rx="102.8821" ry="18"/>
<text text-anchor="middle" x="552.8137" y="-573.3" font-family="Times,serif" font-size="14.00" fill="#000000">Infrastruktura#Pad</text>
</g>
<!-- d33tah&#45;&#45;Infrastruktura#Pad -->
<g id="edge3" class="edge">
<title>d33tah&#45;&#45;Infrastruktura#Pad</title>
<path fill="none" stroke="#2bd500" d="M103.5468,-575.6154C180.8448,-575.6154 343.4841,-575.6154 450.398,-575.6154"/>
</g>
<!-- Infrastruktura#Lelegram (na shitpostach) -->
<g id="node6" class="node">
<title>Infrastruktura#Lelegram (na shitpostach)</title>
<ellipse fill="none" stroke="#000000" cx="552.8137" cy="-620" rx="207.9631" ry="18"/>
<text text-anchor="middle" x="552.8137" y="-616.3" font-family="Times,serif" font-size="14.00" fill="#000000">Infrastruktura#Lelegram (na shitpostach)</text>
</g>
<!-- d33tah&#45;&#45;Infrastruktura#Lelegram (na shitpostach) -->
<g id="edge4" class="edge">
<title>d33tah&#45;&#45;Infrastruktura#Lelegram (na shitpostach)</title>
<path fill="none" stroke="#2bd500" d="M103.3795,-578.3846C185.0681,-578.3846 353.0381,-578.3846 353.0381,-578.3846 353.0381,-578.3846 353.0381,-603.7846 353.0381,-614.8971"/>
</g>
<!-- Infrastruktura#t.me/hakierspejs_spam -->
<g id="node7" class="node">
<title>Infrastruktura#t.me/hakierspejs_spam</title>
<ellipse fill="none" stroke="#000000" cx="552.8137" cy="-448" rx="193.0657" ry="18"/>
<text text-anchor="middle" x="552.8137" y="-444.3" font-family="Times,serif" font-size="14.00" fill="#000000">Infrastruktura#t.me/hakierspejs_spam</text>
</g>
<!-- d33tah&#45;&#45;Infrastruktura#t.me/hakierspejs_spam -->
<g id="edge6" class="edge">
<title>d33tah&#45;&#45;Infrastruktura#t.me/hakierspejs_spam</title>
<path fill="none" stroke="#2bd500" d="M102.3735,-572.8462C195.0975,-572.8462 407.0381,-572.8462 407.0381,-572.8462 407.0381,-572.8462 407.0381,-491.2188 407.0381,-459.9708"/>
</g>
<!-- Infrastruktura#Forum -->
<g id="node8" class="node">
<title>Infrastruktura#Forum</title>
<ellipse fill="none" stroke="#000000" cx="552.8137" cy="-706" rx="116.1796" ry="18"/>
<text text-anchor="middle" x="552.8137" y="-702.3" font-family="Times,serif" font-size="14.00" fill="#000000">Infrastruktura#Forum</text>
</g>
<!-- d33tah&#45;&#45;Infrastruktura#Forum -->
<g id="edge7" class="edge">
<title>d33tah&#45;&#45;Infrastruktura#Forum</title>
<path fill="none" stroke="#2bd500" d="M100.0073,-583.9231C163.301,-583.9231 279.0381,-583.9231 279.0381,-583.9231 279.0381,-583.9231 279.0381,-706 279.0381,-706 279.0381,-706 361.7964,-706 436.3112,-706"/>
</g>
<!-- Infrastruktura#IRC -->
<g id="node9" class="node">
<title>Infrastruktura#IRC</title>
<ellipse fill="none" stroke="#000000" cx="552.8137" cy="-233" rx="103.9815" ry="18"/>
<text text-anchor="middle" x="552.8137" y="-229.3" font-family="Times,serif" font-size="14.00" fill="#000000">Infrastruktura#IRC</text>
</g>
<!-- d33tah&#45;&#45;Infrastruktura#IRC -->
<g id="edge8" class="edge">
<title>d33tah&#45;&#45;Infrastruktura#IRC</title>
<path fill="none" stroke="#2bd500" d="M83.3415,-561.7692C142.3845,-561.7692 292.0381,-561.7692 292.0381,-561.7692 292.0381,-561.7692 292.0381,-236.6 292.0381,-236.6 292.0381,-236.6 377.7307,-236.6 450.8706,-236.6"/>
</g>
<!-- Infrastruktura#Grafana -->
<g id="node10" class="node">
<title>Infrastruktura#Grafana</title>
<ellipse fill="none" stroke="#000000" cx="552.8137" cy="-663" rx="122.6784" ry="18"/>
<text text-anchor="middle" x="552.8137" y="-659.3" font-family="Times,serif" font-size="14.00" fill="#000000">Infrastruktura#Grafana</text>
</g>
<!-- d33tah&#45;&#45;Infrastruktura#Grafana -->
<g id="edge9" class="edge">
<title>d33tah&#45;&#45;Infrastruktura#Grafana</title>
<path fill="none" stroke="#2bd500" d="M102.3825,-581.1538C166.9146,-581.1538 282.0381,-581.1538 282.0381,-581.1538 282.0381,-581.1538 282.0381,-657 282.0381,-657 282.0381,-657 363.309,-657 436.8021,-657"/>
</g>
<!-- Infrastruktura#Hosting -->
<g id="node11" class="node">
<title>Infrastruktura#Hosting</title>
<ellipse fill="none" stroke="#000000" cx="552.8137" cy="-534" rx="122.6784" ry="18"/>
<text text-anchor="middle" x="552.8137" y="-530.3" font-family="Times,serif" font-size="14.00" fill="#000000">Infrastruktura#Hosting</text>
</g>
<!-- d33tah&#45;&#45;Infrastruktura#Hosting -->
<g id="edge11" class="edge">
<title>d33tah&#45;&#45;Infrastruktura#Hosting</title>
<path fill="none" stroke="#2bd500" d="M94.0381,-565.5229C94.0381,-553.5705 94.0381,-536.5714 94.0381,-536.5714 94.0381,-536.5714 295.1602,-536.5714 431.0747,-536.5714"/>
</g>
<!-- Infrastruktura#t.me/hakierspejs -->
<g id="node12" class="node">
<title>Infrastruktura#t.me/hakierspejs</title>
<ellipse fill="none" stroke="#000000" cx="552.8137" cy="-276" rx="163.2712" ry="18"/>
<text text-anchor="middle" x="552.8137" y="-272.3" font-family="Times,serif" font-size="14.00" fill="#000000">Infrastruktura#t.me/hakierspejs</text>
</g>
<!-- d33tah&#45;&#45;Infrastruktura#t.me/hakierspejs -->
<g id="edge12" class="edge">
<title>d33tah&#45;&#45;Infrastruktura#t.me/hakierspejs</title>
<path fill="none" stroke="#2bd500" d="M91.5207,-564.5385C155.732,-564.5385 295.0381,-564.5385 295.0381,-564.5385 295.0381,-564.5385 295.0381,-282 295.0381,-282 295.0381,-282 343.7193,-282 398.771,-282"/>
</g>
<!-- Infrastruktura#Meetup -->
<g id="node13" class="node">
<title>Infrastruktura#Meetup</title>
<ellipse fill="none" stroke="#000000" cx="552.8137" cy="-319" rx="121.5784" ry="18"/>
<text text-anchor="middle" x="552.8137" y="-315.3" font-family="Times,serif" font-size="14.00" fill="#000000">Infrastruktura#Meetup</text>
</g>
<!-- d33tah&#45;&#45;Infrastruktura#Meetup -->
<g id="edge13" class="edge">
<title>d33tah&#45;&#45;Infrastruktura#Meetup</title>
<path fill="none" stroke="#2bd500" d="M96.5862,-567.3077C164.3531,-567.3077 302.0381,-567.3077 302.0381,-567.3077 302.0381,-567.3077 302.0381,-331.8571 302.0381,-331.8571 302.0381,-331.8571 394.8623,-331.8571 467.5626,-331.8571"/>
</g>
<!-- Infrastruktura#Github -->
<g id="node14" class="node">
<title>Infrastruktura#Github</title>
<ellipse fill="none" stroke="#000000" cx="552.8137" cy="-491" rx="117.7793" ry="18"/>
<text text-anchor="middle" x="552.8137" y="-487.3" font-family="Times,serif" font-size="14.00" fill="#000000">Infrastruktura#Github</text>
</g>
<!-- d33tah&#45;&#45;Infrastruktura#Github -->
<g id="edge14" class="edge">
<title>d33tah&#45;&#45;Infrastruktura#Github</title>
<path fill="none" stroke="#2bd500" d="M100.017,-570.0769C169.5919,-570.0769 305.0381,-570.0769 305.0381,-570.0769 305.0381,-570.0769 305.0381,-500 305.0381,-500 305.0381,-500 382.3508,-500 450.6034,-500"/>
</g>
<!-- Miejsce::Miejsce#Klucze do spejsu -->
<g id="node15" class="node">
<title>Miejsce::Miejsce#Klucze do spejsu</title>
<ellipse fill="none" stroke="#000000" cx="552.8137" cy="-749" rx="174.6691" ry="18"/>
<text text-anchor="middle" x="552.8137" y="-745.3" font-family="Times,serif" font-size="14.00" fill="#000000">Miejsce::Miejsce#Klucze do spejsu</text>
</g>
<!-- d33tah&#45;&#45;Miejsce::Miejsce#Klucze do spejsu -->
<g id="edge15" class="edge">
<title>d33tah&#45;&#45;Miejsce::Miejsce#Klucze do spejsu</title>
<path fill="none" stroke="#2bd500" d="M96.7215,-586.6923C156.7912,-586.6923 269.0381,-586.6923 269.0381,-586.6923 269.0381,-586.6923 269.0381,-745.4 269.0381,-745.4 269.0381,-745.4 321.4319,-745.4 381.1937,-745.4"/>
</g>
<!-- cytP450 -->
<g id="node16" class="node">
<title>cytP450</title>
<ellipse fill="none" stroke="#000000" cx="59.7947" cy="-706" rx="49.2915" ry="18"/>
<text text-anchor="middle" x="59.7947" y="-702.3" font-family="Times,serif" font-size="14.00" fill="#000000">cytP450</text>
</g>
<!-- cytP450&#45;&#45;Infrastruktura#Domeny -->
<g id="edge19" class="edge">
<title>cytP450&#45;&#45;Infrastruktura#Domeny</title>
<path fill="none" stroke="#0061f2" d="M99.0381,-717.0589C99.0381,-739.4414 99.0381,-788 99.0381,-788 99.0381,-788 297.089,-788 431.5083,-788"/>
</g>
<!-- cytP450&#45;&#45;Infrastruktura#Forum -->
<g id="edge18" class="edge">
<title>cytP450&#45;&#45;Infrastruktura#Forum</title>
<path fill="none" stroke="#0061f2" d="M96.8513,-718C174.6704,-718 356.8946,-718 465.9548,-718"/>
</g>
<!-- cytP450&#45;&#45;Infrastruktura#Hosting -->
<g id="edge17" class="edge">
<title>cytP450&#45;&#45;Infrastruktura#Hosting</title>
<path fill="none" stroke="#0061f2" d="M106.6103,-700C180.2969,-700 315.0381,-700 315.0381,-700 315.0381,-700 315.0381,-546.8571 315.0381,-546.8571 315.0381,-546.8571 398.5878,-546.8571 466.6351,-546.8571"/>
</g>
<!-- cytP450&#45;&#45;Miejsce::Miejsce#Klucze do spejsu -->
<g id="edge16" class="edge">
<title>cytP450&#45;&#45;Miejsce::Miejsce#Klucze do spejsu</title>
<path fill="none" stroke="#0061f2" d="M104.0381,-714.1171C104.0381,-727.4683 104.0381,-752.6 104.0381,-752.6 104.0381,-752.6 254.5388,-752.6 381.2299,-752.6"/>
</g>
<!-- Martti25 -->
<g id="node17" class="node">
<title>Martti25</title>
<ellipse fill="none" stroke="#000000" cx="59.7947" cy="-276" rx="51.9908" ry="18"/>
<text text-anchor="middle" x="59.7947" y="-272.3" font-family="Times,serif" font-size="14.00" fill="#000000">Martti25</text>
</g>
<!-- Martti25&#45;&#45;Infrastruktura#t.me/hakierspejs -->
<g id="edge23" class="edge">
<title>Martti25&#45;&#45;Infrastruktura#t.me/hakierspejs</title>
<path fill="none" stroke="#c60077" d="M112.0896,-276C177.7003,-276 293.2994,-276 389.6468,-276"/>
</g>
<!-- Martti25&#45;&#45;Infrastruktura#Meetup -->
<g id="edge21" class="edge">
<title>Martti25&#45;&#45;Infrastruktura#Meetup</title>
<path fill="none" stroke="#c60077" d="M103.0381,-286.0171C103.0381,-296.4491 103.0381,-311.2857 103.0381,-311.2857 103.0381,-311.2857 309.6308,-311.2857 442.7862,-311.2857"/>
</g>
<!-- Martti25&#45;&#45;Infrastruktura#Github -->
<g id="edge22" class="edge">
<title>Martti25&#45;&#45;Infrastruktura#Github</title>
<path fill="none" stroke="#c60077" d="M98.7558,-288C171.3549,-288 320.0381,-288 320.0381,-288 320.0381,-288 320.0381,-482 320.0381,-482 320.0381,-482 388.171,-482 450.7149,-482"/>
</g>
<!-- Infrastruktura#Konto na Fejsie -->
<g id="node18" class="node">
<title>Infrastruktura#Konto na Fejsie</title>
<ellipse fill="none" stroke="#000000" cx="552.8137" cy="-190" rx="157.0724" ry="18"/>
<text text-anchor="middle" x="552.8137" y="-186.3" font-family="Times,serif" font-size="14.00" fill="#000000">Infrastruktura#Konto na Fejsie</text>
</g>
<!-- Martti25&#45;&#45;Infrastruktura#Konto na Fejsie -->
<g id="edge20" class="edge">
<title>Martti25&#45;&#45;Infrastruktura#Konto na Fejsie</title>
<path fill="none" stroke="#c60077" d="M109.1415,-270C113.3467,-270 116.0381,-270 116.0381,-270 116.0381,-270 116.0381,-199 116.0381,-199 116.0381,-199 288.2568,-199 416.4118,-199"/>
</g>
<!-- biniu -->
<g id="node19" class="node">
<title>biniu</title>
<ellipse fill="none" stroke="#000000" cx="59.7947" cy="-319" rx="34.394" ry="18"/>
<text text-anchor="middle" x="59.7947" y="-315.3" font-family="Times,serif" font-size="14.00" fill="#000000">biniu</text>
</g>
<!-- biniu&#45;&#45;Infrastruktura#Meetup -->
<g id="edge24" class="edge">
<title>biniu&#45;&#45;Infrastruktura#Meetup</title>
<path fill="none" stroke="#b6e400" d="M94.0714,-316.4286C162.9673,-316.4286 321.1462,-316.4286 432.4128,-316.4286"/>
</g>
<!-- kszmigiel -->
<g id="node20" class="node">
<title>kszmigiel</title>
<ellipse fill="none" stroke="#000000" cx="59.7947" cy="-405" rx="55.4913" ry="18"/>
<text text-anchor="middle" x="59.7947" y="-401.3" font-family="Times,serif" font-size="14.00" fill="#000000">kszmigiel</text>
</g>
<!-- kszmigiel&#45;&#45;Infrastruktura#t.me/hakierspejs_spam -->
<g id="edge26" class="edge">
<title>kszmigiel&#45;&#45;Infrastruktura#t.me/hakierspejs_spam</title>
<path fill="none" stroke="#00ffff" d="M109.9855,-412.7143C197.7911,-412.7143 370.0381,-412.7143 370.0381,-412.7143 370.0381,-412.7143 370.0381,-432.1511 370.0381,-442.1733"/>
</g>
<!-- kszmigiel&#45;&#45;Infrastruktura#t.me/hakierspejs -->
<g id="edge27" class="edge">
<title>kszmigiel&#45;&#45;Infrastruktura#t.me/hakierspejs</title>
<path fill="none" stroke="#00ffff" d="M114.7482,-402.4286C213.0999,-402.4286 409.0381,-402.4286 409.0381,-402.4286 409.0381,-402.4286 409.0381,-313.2538 409.0381,-284.6899"/>
</g>
<!-- kszmigiel&#45;&#45;Infrastruktura#Meetup -->
<g id="edge28" class="edge">
<title>kszmigiel&#45;&#45;Infrastruktura#Meetup</title>
<path fill="none" stroke="#00ffff" d="M98.705,-392.1429C166.0103,-392.1429 297.0381,-392.1429 297.0381,-392.1429 297.0381,-392.1429 297.0381,-321.5714 297.0381,-321.5714 297.0381,-321.5714 366.0752,-321.5714 432.4155,-321.5714"/>
</g>
<!-- kszmigiel&#45;&#45;Miejsce::Miejsce#Klucze do spejsu -->
<g id="edge30" class="edge">
<title>kszmigiel&#45;&#45;Miejsce::Miejsce#Klucze do spejsu</title>
<path fill="none" stroke="#00ffff" d="M98.7234,-417.8571C159.9963,-417.8571 272.0381,-417.8571 272.0381,-417.8571 272.0381,-417.8571 272.0381,-738.2 272.0381,-738.2 272.0381,-738.2 342.5064,-738.2 412.8372,-738.2"/>
</g>
<!-- Infrastruktura#Naklejki -->
<g id="node21" class="node">
<title>Infrastruktura#Naklejki</title>
<ellipse fill="none" stroke="#000000" cx="552.8137" cy="-405" rx="125.3778" ry="18"/>
<text text-anchor="middle" x="552.8137" y="-401.3" font-family="Times,serif" font-size="14.00" fill="#000000">Infrastruktura#Naklejki</text>
</g>
<!-- kszmigiel&#45;&#45;Infrastruktura#Naklejki -->
<g id="edge25" class="edge">
<title>kszmigiel&#45;&#45;Infrastruktura#Naklejki</title>
<path fill="none" stroke="#00ffff" d="M114.9152,-407.5714C190.2969,-407.5714 327.6812,-407.5714 428.5286,-407.5714"/>
</g>
<!-- Finanse#Naklejki -->
<g id="node22" class="node">
<title>Finanse#Naklejki</title>
<ellipse fill="none" stroke="#000000" cx="552.8137" cy="-362" rx="94.7833" ry="18"/>
<text text-anchor="middle" x="552.8137" y="-358.3" font-family="Times,serif" font-size="14.00" fill="#000000">Finanse#Naklejki</text>
</g>
<!-- kszmigiel&#45;&#45;Finanse#Naklejki -->
<g id="edge29" class="edge">
<title>kszmigiel&#45;&#45;Finanse#Naklejki</title>
<path fill="none" stroke="#00ffff" d="M109.8337,-397.2857C182.8611,-397.2857 310.0381,-397.2857 310.0381,-397.2857 310.0381,-397.2857 310.0381,-372.8 310.0381,-372.8 310.0381,-372.8 405.4659,-372.8 476.6641,-372.8"/>
</g>
<!-- nikolaad -->
<g id="node23" class="node">
<title>nikolaad</title>
<ellipse fill="none" stroke="#000000" cx="59.7947" cy="-233" rx="50.0912" ry="18"/>
<text text-anchor="middle" x="59.7947" y="-229.3" font-family="Times,serif" font-size="14.00" fill="#000000">nikolaad</text>
</g>
<!-- nikolaad&#45;&#45;Infrastruktura#Meetup -->
<g id="edge32" class="edge">
<title>nikolaad&#45;&#45;Infrastruktura#Meetup</title>
<path fill="none" stroke="#ab00d5" d="M100.0622,-243.8C173.8046,-243.8 323.0381,-243.8 323.0381,-243.8 323.0381,-243.8 323.0381,-306.1429 323.0381,-306.1429 323.0381,-306.1429 402.1885,-306.1429 467.5803,-306.1429"/>
</g>
<!-- nikolaad&#45;&#45;Infrastruktura#Konto na Fejsie -->
<g id="edge31" class="edge">
<title>nikolaad&#45;&#45;Infrastruktura#Konto na Fejsie</title>
<path fill="none" stroke="#ab00d5" d="M109.1613,-229.4C208.4788,-229.4 423.0381,-229.4 423.0381,-229.4 423.0381,-229.4 423.0381,-212.0254 423.0381,-200.3519"/>
</g>
<!-- Keij0 -->
<g id="node24" class="node">
<title>Keij0</title>
<ellipse fill="none" stroke="#000000" cx="59.7947" cy="-448" rx="34.394" ry="18"/>
<text text-anchor="middle" x="59.7947" y="-444.3" font-family="Times,serif" font-size="14.00" fill="#000000">Keij0</text>
</g>
<!-- Keij0&#45;&#45;Infrastruktura#Hosting -->
<g id="edge34" class="edge">
<title>Keij0&#45;&#45;Infrastruktura#Hosting</title>
<path fill="none" stroke="#f29100" d="M92.3337,-454C152.2676,-454 274.0381,-454 274.0381,-454 274.0381,-454 274.0381,-526.2857 274.0381,-526.2857 274.0381,-526.2857 363.7824,-526.2857 441.4323,-526.2857"/>
</g>
<!-- Keij0&#45;&#45;Infrastruktura#Meetup -->
<g id="edge33" class="edge">
<title>Keij0&#45;&#45;Infrastruktura#Meetup</title>
<path fill="none" stroke="#f29100" d="M92.445,-442C158.132,-442 300.0381,-442 300.0381,-442 300.0381,-442 300.0381,-326.7143 300.0381,-326.7143 300.0381,-326.7143 374.5601,-326.7143 442.678,-326.7143"/>
</g>
<!-- BluRaf -->
<g id="node25" class="node">
<title>BluRaf</title>
<ellipse fill="none" stroke="#000000" cx="59.7947" cy="-190" rx="42.4939" ry="18"/>
<text text-anchor="middle" x="59.7947" y="-186.3" font-family="Times,serif" font-size="14.00" fill="#000000">BluRaf</text>
</g>
<!-- BluRaf&#45;&#45;Infrastruktura#t.me/hakierspejs_spam -->
<g id="edge38" class="edge">
<title>BluRaf&#45;&#45;Infrastruktura#t.me/hakierspejs_spam</title>
<path fill="none" stroke="#00c64f" d="M102.3205,-190C189.433,-190 380.0381,-190 380.0381,-190 380.0381,-190 380.0381,-395.5475 380.0381,-439.7081"/>
</g>
<!-- BluRaf&#45;&#45;Infrastruktura#IRC -->
<g id="edge39" class="edge">
<title>BluRaf&#45;&#45;Infrastruktura#IRC</title>
<path fill="none" stroke="#00c64f" d="M87.8928,-203.5C102.7867,-203.5 118.0381,-203.5 118.0381,-203.5 118.0381,-203.5 118.0381,-222.2 118.0381,-222.2 118.0381,-222.2 343.2546,-222.2 469.499,-222.2"/>
</g>
<!-- BluRaf&#45;&#45;Infrastruktura#t.me/hakierspejs -->
<g id="edge40" class="edge">
<title>BluRaf&#45;&#45;Infrastruktura#t.me/hakierspejs</title>
<path fill="none" stroke="#00c64f" d="M100.9479,-194.5C175.4499,-194.5 325.0381,-194.5 325.0381,-194.5 325.0381,-194.5 325.0381,-264 325.0381,-264 325.0381,-264 376.7686,-264 430.924,-264"/>
</g>
<!-- BluRaf&#45;&#45;Infrastruktura#Konto na Fejsie -->
<g id="edge35" class="edge">
<title>BluRaf&#45;&#45;Infrastruktura#Konto na Fejsie</title>
<path fill="none" stroke="#00c64f" d="M100.9812,-185.5C166.1866,-185.5 296.4528,-185.5 400.4292,-185.5"/>
</g>
<!-- Infrastruktura#hs&#45;ldz&#45;offtopic:hackerspace.pl -->
<g id="node26" class="node">
<title>Infrastruktura#hs&#45;ldz&#45;offtopic:hackerspace.pl</title>
<ellipse fill="none" stroke="#000000" cx="552.8137" cy="-104" rx="225.56" ry="18"/>
<text text-anchor="middle" x="552.8137" y="-100.3" font-family="Times,serif" font-size="14.00" fill="#000000">Infrastruktura#hs&#45;ldz&#45;offtopic:hackerspace.pl</text>
</g>
<!-- BluRaf&#45;&#45;Infrastruktura#hs&#45;ldz&#45;offtopic:hackerspace.pl -->
<g id="edge36" class="edge">
<title>BluRaf&#45;&#45;Infrastruktura#hs&#45;ldz&#45;offtopic:hackerspace.pl</title>
<path fill="none" stroke="#00c64f" d="M96.6105,-181C172.0261,-181 337.0381,-181 337.0381,-181 337.0381,-181 337.0381,-126.689 337.0381,-109.2925"/>
</g>
<!-- Infrastruktura#hs&#45;ldz:hackerspace.pl -->
<g id="node27" class="node">
<title>Infrastruktura#hs&#45;ldz:hackerspace.pl</title>
<ellipse fill="none" stroke="#000000" cx="552.8137" cy="-61" rx="186.5669" ry="18"/>
<text text-anchor="middle" x="552.8137" y="-57.3" font-family="Times,serif" font-size="14.00" fill="#000000">Infrastruktura#hs&#45;ldz:hackerspace.pl</text>
</g>
<!-- BluRaf&#45;&#45;Infrastruktura#hs&#45;ldz:hackerspace.pl -->
<g id="edge37" class="edge">
<title>BluRaf&#45;&#45;Infrastruktura#hs&#45;ldz:hackerspace.pl</title>
<path fill="none" stroke="#00c64f" d="M88.1158,-176.5C149.0323,-176.5 287.0381,-176.5 287.0381,-176.5 287.0381,-176.5 287.0381,-67 287.0381,-67 287.0381,-67 327.3897,-67 376.6471,-67"/>
</g>
<!-- Infrastruktura#Mumble -->
<g id="node28" class="node">
<title>Infrastruktura#Mumble</title>
<ellipse fill="none" stroke="#000000" cx="552.8137" cy="-147" rx="124.2781" ry="18"/>
<text text-anchor="middle" x="552.8137" y="-143.3" font-family="Times,serif" font-size="14.00" fill="#000000">Infrastruktura#Mumble</text>
</g>
<!-- BluRaf&#45;&#45;Infrastruktura#Mumble -->
<g id="edge41" class="edge">
<title>BluRaf&#45;&#45;Infrastruktura#Mumble</title>
<path fill="none" stroke="#00c64f" d="M60.0381,-171.5146C60.0381,-159.8601 60.0381,-147 60.0381,-147 60.0381,-147 282.4849,-147 428.4656,-147"/>
</g>
<!-- kpc21 -->
<g id="node29" class="node">
<title>kpc21</title>
<ellipse fill="none" stroke="#000000" cx="59.7947" cy="-491" rx="39.7935" ry="18"/>
<text text-anchor="middle" x="59.7947" y="-487.3" font-family="Times,serif" font-size="14.00" fill="#000000">kpc21</text>
</g>
<!-- kpc21&#45;&#45;Infrastruktura#t.me/hakierspejs_spam -->
<g id="edge42" class="edge">
<title>kpc21&#45;&#45;Infrastruktura#t.me/hakierspejs_spam</title>
<path fill="none" stroke="#2e00e4" d="M99.5533,-491C186.1356,-491 384.0381,-491 384.0381,-491 384.0381,-491 384.0381,-469.7415 384.0381,-457.1192"/>
</g>
<!-- ksiezak -->
<g id="node30" class="node">
<title>ksiezak</title>
<ellipse fill="none" stroke="#000000" cx="59.7947" cy="-61" rx="46.2923" ry="18"/>
<text text-anchor="middle" x="59.7947" y="-57.3" font-family="Times,serif" font-size="14.00" fill="#000000">ksiezak</text>
</g>
<!-- ksiezak&#45;&#45;Infrastruktura#hs&#45;ldz&#45;offtopic:hackerspace.pl -->
<g id="edge43" class="edge">
<title>ksiezak&#45;&#45;Infrastruktura#hs&#45;ldz&#45;offtopic:hackerspace.pl</title>
<path fill="none" stroke="#ff0000" d="M105.9453,-61C187.1424,-61 347.0381,-61 347.0381,-61 347.0381,-61 347.0381,-84.1902 347.0381,-96.51"/>
</g>
<!-- ksiezak&#45;&#45;Infrastruktura#hs&#45;ldz:hackerspace.pl -->
<g id="edge45" class="edge">
<title>ksiezak&#45;&#45;Infrastruktura#hs&#45;ldz:hackerspace.pl</title>
<path fill="none" stroke="#ff0000" d="M103.5468,-55C164.584,-55 278.8333,-55 376.8399,-55"/>
</g>
<!-- Współdzielony&#45;kalendarz&#45;i&#45;lista&#45;kontaktów#Założenie konta -->
<g id="node31" class="node">
<title>Współdzielony&#45;kalendarz&#45;i&#45;lista&#45;kontaktów#Założenie konta</title>
<ellipse fill="none" stroke="#000000" cx="552.8137" cy="-18" rx="289.4488" ry="18"/>
<text text-anchor="middle" x="552.8137" y="-14.3" font-family="Times,serif" font-size="14.00" fill="#000000">Współdzielony&#45;kalendarz&#45;i&#45;lista&#45;kontaktów#Założenie konta</text>
</g>
<!-- ksiezak&#45;&#45;Współdzielony&#45;kalendarz&#45;i&#45;lista&#45;kontaktów#Założenie konta -->
<g id="edge44" class="edge">
<title>ksiezak&#45;&#45;Współdzielony&#45;kalendarz&#45;i&#45;lista&#45;kontaktów#Założenie konta</title>
<path fill="none" stroke="#ff0000" d="M94.3413,-49C157.2433,-49 284.0381,-49 284.0381,-49 284.0381,-49 284.0381,-34.0128 284.0381,-24.8799"/>
</g>
<!-- thinkofher -->
<g id="node32" class="node">
<title>thinkofher</title>
<ellipse fill="none" stroke="#000000" cx="59.7947" cy="-362" rx="59.5901" ry="18"/>
<text text-anchor="middle" x="59.7947" y="-358.3" font-family="Times,serif" font-size="14.00" fill="#000000">thinkofher</text>
</g>
<!-- thinkofher&#45;&#45;Infrastruktura#Forum -->
<g id="edge48" class="edge">
<title>thinkofher&#45;&#45;Infrastruktura#Forum</title>
<path fill="none" stroke="#2bd500" d="M118.6162,-365.6C193.1521,-365.6 312.0381,-365.6 312.0381,-365.6 312.0381,-365.6 312.0381,-694 312.0381,-694 312.0381,-694 396.9209,-694 465.8882,-694"/>
</g>
<!-- thinkofher&#45;&#45;Infrastruktura#Hosting -->
<g id="edge46" class="edge">
<title>thinkofher&#45;&#45;Infrastruktura#Hosting</title>
<path fill="none" stroke="#2bd500" d="M118.3941,-358.4C194.5867,-358.4 318.0381,-358.4 318.0381,-358.4 318.0381,-358.4 318.0381,-521.1429 318.0381,-521.1429 318.0381,-521.1429 399.7202,-521.1429 466.7251,-521.1429"/>
</g>
<!-- thinkofher&#45;&#45;Infrastruktura#hs&#45;ldz&#45;offtopic:hackerspace.pl -->
<g id="edge47" class="edge">
<title>thinkofher&#45;&#45;Infrastruktura#hs&#45;ldz&#45;offtopic:hackerspace.pl</title>
<path fill="none" stroke="#2bd500" d="M114.0381,-354.2786C114.0381,-311.3505 114.0381,-104 114.0381,-104 114.0381,-104 219.4889,-104 326.9993,-104"/>
</g>
<!-- thinkofher&#45;&#45;Infrastruktura#hs&#45;ldz:hackerspace.pl -->
<g id="edge49" class="edge">
<title>thinkofher&#45;&#45;Infrastruktura#hs&#45;ldz:hackerspace.pl</title>
<path fill="none" stroke="#2bd500" d="M107.781,-351.2C175.2587,-351.2 290.0381,-351.2 290.0381,-351.2 290.0381,-351.2 290.0381,-73 290.0381,-73 290.0381,-73 350.6999,-73 413.7313,-73"/>
</g>
<!-- kpc -->
<g id="node33" class="node">
<title>kpc</title>
<ellipse fill="none" stroke="#000000" cx="59.7947" cy="-534" rx="27.8951" ry="18"/>
<text text-anchor="middle" x="59.7947" y="-530.3" font-family="Times,serif" font-size="14.00" fill="#000000">kpc</text>
</g>
<!-- kpc&#45;&#45;Infrastruktura#Hosting -->
<g id="edge50" class="edge">
<title>kpc&#45;&#45;Infrastruktura#Hosting</title>
<path fill="none" stroke="#0061f2" d="M87.7141,-531.4286C152.4911,-531.4286 316.2186,-531.4286 430.9933,-531.4286"/>
</g>
<!-- pmysl -->
<g id="node34" class="node">
<title>pmysl</title>
<ellipse fill="none" stroke="#000000" cx="59.7947" cy="-663" rx="38.1938" ry="18"/>
<text text-anchor="middle" x="59.7947" y="-659.3" font-family="Times,serif" font-size="14.00" fill="#000000">pmysl</text>
</g>
<!-- pmysl&#45;&#45;Infrastruktura#Forum -->
<g id="edge54" class="edge">
<title>pmysl&#45;&#45;Infrastruktura#Forum</title>
<path fill="none" stroke="#c60077" d="M88.6429,-675C147.7374,-675 277.0381,-675 277.0381,-675 277.0381,-675 277.0381,-712 277.0381,-712 277.0381,-712 366.1225,-712 443.0275,-712"/>
</g>
<!-- pmysl&#45;&#45;Infrastruktura#Grafana -->
<g id="edge52" class="edge">
<title>pmysl&#45;&#45;Infrastruktura#Grafana</title>
<path fill="none" stroke="#c60077" d="M98.4811,-663C168.965,-663 321.0522,-663 429.8446,-663"/>
</g>
<!-- pmysl&#45;&#45;Infrastruktura#Hosting -->
<g id="edge53" class="edge">
<title>pmysl&#45;&#45;Infrastruktura#Hosting</title>
<path fill="none" stroke="#c60077" d="M88.6405,-651C153.8606,-651 307.0381,-651 307.0381,-651 307.0381,-651 307.0381,-541.7143 307.0381,-541.7143 307.0381,-541.7143 376.6577,-541.7143 441.7902,-541.7143"/>
</g>
<!-- pmysl&#45;&#45;Miejsce::Miejsce#Klucze do spejsu -->
<g id="edge51" class="edge">
<title>pmysl&#45;&#45;Miejsce::Miejsce#Klucze do spejsu</title>
<path fill="none" stroke="#c60077" d="M95.9841,-669C184.3673,-669 404.0381,-669 404.0381,-669 404.0381,-669 404.0381,-718.3176 404.0381,-739.5088"/>
</g>
<!-- nuke -->
<g id="node35" class="node">
<title>nuke</title>
<ellipse fill="none" stroke="#000000" cx="59.7947" cy="-749" rx="33.5952" ry="18"/>
<text text-anchor="middle" x="59.7947" y="-745.3" font-family="Times,serif" font-size="14.00" fill="#000000">nuke</text>
</g>
<!-- nuke&#45;&#45;Miejsce::Miejsce#Klucze do spejsu -->
<g id="edge55" class="edge">
<title>nuke&#45;&#45;Miejsce::Miejsce#Klucze do spejsu</title>
<path fill="none" stroke="#b6e400" d="M87.0038,-759.8C147.9677,-759.8 299.0758,-759.8 412.7758,-759.8"/>
</g>
</g>
</svg>
