<?xml version="1.0" encoding="UTF-8" standalone="no"?>
<!DOCTYPE svg PUBLIC "-//W3C//DTD SVG 1.1//EN"
 "http://www.w3.org/Graphics/SVG/1.1/DTD/svg11.dtd">
<!-- Generated by graphviz version 2.43.0 (0)
 -->
<!-- Title: %3 Pages: 1 -->
<svg width="1044pt" height="1178pt"
 viewBox="0.00 0.00 1043.72 1178.00" xmlns="http://www.w3.org/2000/svg" xmlns:xlink="http://www.w3.org/1999/xlink">
<g id="graph0" class="graph" transform="scale(1 1) rotate(0) translate(4 1174)">
<title>%3</title>
<polygon fill="white" stroke="transparent" points="-4,4 -4,-1174 1039.72,-1174 1039.72,4 -4,4"/>
<!-- kpc -->
<g id="node1" class="node">
<title>kpc</title>
<ellipse fill="none" stroke="black" cx="92.94" cy="-1066" rx="27" ry="18"/>
<text text-anchor="middle" x="92.94" y="-1062.3" font-family="Times,serif" font-size="14.00">kpc</text>
</g>
<!-- Infrastruktura::Telegram#Posty wyklte (celowo bez linka) -->
<g id="node2" class="node">
<title>Infrastruktura::Telegram#Posty wyklte (celowo bez linka)</title>
<ellipse fill="none" stroke="black" cx="682.8" cy="-1109" rx="284.05" ry="18"/>
<text text-anchor="middle" x="682.8" y="-1105.3" font-family="Times,serif" font-size="14.00">Infrastruktura::Telegram#Posty wyklte (celowo bez linka)</text>
</g>
<!-- kpc&#45;&#45;Infrastruktura::Telegram#Posty wyklte (celowo bez linka) -->
<g id="edge1" class="edge">
<title>kpc&#45;&#45;Infrastruktura::Telegram#Posty wyklte (celowo bez linka)</title>
<path fill="none" stroke="#ff0000" d="M93.72,-1084.49C93.72,-1096.14 93.72,-1109 93.72,-1109 93.72,-1109 247.98,-1109 398.61,-1109"/>
</g>
<!-- Czaty&#45;HS#HS: posty wyklte -->
<g id="node3" class="node">
<title>Czaty&#45;HS#HS: posty wyklte</title>
<ellipse fill="none" stroke="black" cx="682.8" cy="-1066" rx="157.87" ry="18"/>
<text text-anchor="middle" x="682.8" y="-1062.3" font-family="Times,serif" font-size="14.00">Czaty&#45;HS#HS: posty wyklte</text>
</g>
<!-- kpc&#45;&#45;Czaty&#45;HS#HS: posty wyklte -->
<g id="edge2" class="edge">
<title>kpc&#45;&#45;Czaty&#45;HS#HS: posty wyklte</title>
<path fill="none" stroke="#ff0000" d="M120.21,-1066C190.9,-1066 384.35,-1066 524.69,-1066"/>
</g>
<!-- Infrastruktura::Telegram#posty: t.me/hakierspejs_spam -->
<g id="node4" class="node">
<title>Infrastruktura::Telegram#posty: t.me/hakierspejs_spam</title>
<ellipse fill="none" stroke="black" cx="682.8" cy="-980" rx="284.05" ry="18"/>
<text text-anchor="middle" x="682.8" y="-976.3" font-family="Times,serif" font-size="14.00">Infrastruktura::Telegram#posty: t.me/hakierspejs_spam</text>
</g>
<!-- kpc&#45;&#45;Infrastruktura::Telegram#posty: t.me/hakierspejs_spam -->
<g id="edge3" class="edge">
<title>kpc&#45;&#45;Infrastruktura::Telegram#posty: t.me/hakierspejs_spam</title>
<path fill="none" stroke="#ff0000" d="M93.72,-1047.85C93.72,-1024.24 93.72,-986 93.72,-986 93.72,-986 259.36,-986 414.98,-986"/>
</g>
<!-- 51 -->
<g id="node5" class="node">
<title>51</title>
<ellipse fill="none" stroke="black" cx="92.94" cy="-1152" rx="27" ry="18"/>
<text text-anchor="middle" x="92.94" y="-1148.3" font-family="Times,serif" font-size="14.00">51</text>
</g>
<!-- Miejsce::Miejsce#Stan obecny -->
<g id="node6" class="node">
<title>Miejsce::Miejsce#Stan obecny</title>
<ellipse fill="none" stroke="black" cx="682.8" cy="-1152" rx="152.97" ry="18"/>
<text text-anchor="middle" x="682.8" y="-1148.3" font-family="Times,serif" font-size="14.00">Miejsce::Miejsce#Stan obecny</text>
</g>
<!-- 51&#45;&#45;Miejsce::Miejsce#Stan obecny -->
<g id="edge4" class="edge">
<title>51&#45;&#45;Miejsce::Miejsce#Stan obecny</title>
<path fill="none" stroke="#2bd500" d="M120.21,-1152C191.81,-1152 389.33,-1152 530.07,-1152"/>
</g>
<!-- d33tah -->
<g id="node7" class="node">
<title>d33tah</title>
<ellipse fill="none" stroke="black" cx="92.94" cy="-636" rx="43.59" ry="18"/>
<text text-anchor="middle" x="92.94" y="-632.3" font-family="Times,serif" font-size="14.00">d33tah</text>
</g>
<!-- d33tah&#45;&#45;Infrastruktura::Telegram#posty: t.me/hakierspejs_spam -->
<g id="edge17" class="edge">
<title>d33tah&#45;&#45;Infrastruktura::Telegram#posty: t.me/hakierspejs_spam</title>
<path fill="none" stroke="#0061f2" d="M115.45,-651.43C158.38,-651.43 247.72,-651.43 247.72,-651.43 247.72,-651.43 247.72,-974 247.72,-974 247.72,-974 325.34,-974 415,-974"/>
</g>
<!-- Infrastruktura::Telegram#HS24: t.me/hsl_info -->
<g id="node8" class="node">
<title>Infrastruktura::Telegram#HS24: t.me/hsl_info</title>
<ellipse fill="none" stroke="black" cx="682.8" cy="-808" rx="231.26" ry="18"/>
<text text-anchor="middle" x="682.8" y="-804.3" font-family="Times,serif" font-size="14.00">Infrastruktura::Telegram#HS24: t.me/hsl_info</text>
</g>
<!-- d33tah&#45;&#45;Infrastruktura::Telegram#HS24: t.me/hsl_info -->
<g id="edge5" class="edge">
<title>d33tah&#45;&#45;Infrastruktura::Telegram#HS24: t.me/hsl_info</title>
<path fill="none" stroke="#0061f2" d="M136.82,-636C233.58,-636 456.72,-636 456.72,-636 456.72,-636 456.72,-778.48 456.72,-804.08"/>
</g>
<!-- Stowarzyszenie#Zarzd -->
<g id="node9" class="node">
<title>Stowarzyszenie#Zarzd</title>
<ellipse fill="none" stroke="black" cx="682.8" cy="-679" rx="123.48" ry="18"/>
<text text-anchor="middle" x="682.8" y="-675.3" font-family="Times,serif" font-size="14.00">Stowarzyszenie#Zarzd</text>
</g>
<!-- d33tah&#45;&#45;Stowarzyszenie#Zarzd -->
<g id="edge6" class="edge">
<title>d33tah&#45;&#45;Stowarzyszenie#Zarzd</title>
<path fill="none" stroke="#0061f2" d="M136.19,-638.57C215.86,-638.57 377.72,-638.57 377.72,-638.57 377.72,-638.57 377.72,-679 377.72,-679 377.72,-679 474.59,-679 559.15,-679"/>
</g>
<!-- Bazy&#45;danych#Grafana -->
<g id="node10" class="node">
<title>Bazy&#45;danych#Grafana</title>
<ellipse fill="none" stroke="black" cx="682.8" cy="-507" rx="114.28" ry="18"/>
<text text-anchor="middle" x="682.8" y="-503.3" font-family="Times,serif" font-size="14.00">Bazy&#45;danych#Grafana</text>
</g>
<!-- d33tah&#45;&#45;Bazy&#45;danych#Grafana -->
<g id="edge7" class="edge">
<title>d33tah&#45;&#45;Bazy&#45;danych#Grafana</title>
<path fill="none" stroke="#0061f2" d="M134.68,-630.86C158.12,-630.86 182.72,-630.86 182.72,-630.86 182.72,-630.86 182.72,-516 182.72,-516 182.72,-516 437.91,-516 583.7,-516"/>
</g>
<!-- Infrastruktura::Telegram#G贸wny: t.me/hakierspejs -->
<g id="node11" class="node">
<title>Infrastruktura::Telegram#G贸wny: t.me/hakierspejs</title>
<ellipse fill="none" stroke="black" cx="682.8" cy="-894" rx="251.56" ry="18"/>
<text text-anchor="middle" x="682.8" y="-890.3" font-family="Times,serif" font-size="14.00">Infrastruktura::Telegram#G贸wny: t.me/hakierspejs</text>
</g>
<!-- d33tah&#45;&#45;Infrastruktura::Telegram#G贸wny: t.me/hakierspejs -->
<g id="edge8" class="edge">
<title>d33tah&#45;&#45;Infrastruktura::Telegram#G贸wny: t.me/hakierspejs</title>
<path fill="none" stroke="#0061f2" d="M123.54,-648.86C183.3,-648.86 309.72,-648.86 309.72,-648.86 309.72,-648.86 309.72,-878.8 309.72,-878.8 309.72,-878.8 441.03,-878.8 547.85,-878.8"/>
</g>
<!-- Infrastruktura::Github#Github -->
<g id="node12" class="node">
<title>Infrastruktura::Github#Github</title>
<ellipse fill="none" stroke="black" cx="682.8" cy="-765" rx="154.07" ry="18"/>
<text text-anchor="middle" x="682.8" y="-761.3" font-family="Times,serif" font-size="14.00">Infrastruktura::Github#Github</text>
</g>
<!-- d33tah&#45;&#45;Infrastruktura::Github#Github -->
<g id="edge9" class="edge">
<title>d33tah&#45;&#45;Infrastruktura::Github#Github</title>
<path fill="none" stroke="#0061f2" d="M132.32,-643.71C203.6,-643.71 346.72,-643.71 346.72,-643.71 346.72,-643.71 346.72,-765 346.72,-765 346.72,-765 440.18,-765 528.53,-765"/>
</g>
<!-- Marketing&#45;i&#45;media&#45;spoecznociowe# -->
<g id="node13" class="node">
<title>Marketing&#45;i&#45;media&#45;spoecznociowe#</title>
<ellipse fill="none" stroke="black" cx="682.8" cy="-464" rx="183.07" ry="18"/>
<text text-anchor="middle" x="682.8" y="-460.3" font-family="Times,serif" font-size="14.00">Marketing&#45;i&#45;media&#45;spoecznociowe#</text>
</g>
<!-- d33tah&#45;&#45;Marketing&#45;i&#45;media&#45;spoecznociowe# -->
<g id="edge10" class="edge">
<title>d33tah&#45;&#45;Marketing&#45;i&#45;media&#45;spoecznociowe#</title>
<path fill="none" stroke="#0061f2" d="M132.52,-628.29C155.41,-628.29 179.72,-628.29 179.72,-628.29 179.72,-628.29 179.72,-466 179.72,-466 179.72,-466 356.49,-466 500.47,-466"/>
</g>
<!-- Bazy&#45;danych#Pad -->
<g id="node14" class="node">
<title>Bazy&#45;danych#Pad</title>
<ellipse fill="none" stroke="black" cx="682.8" cy="-722" rx="94.48" ry="18"/>
<text text-anchor="middle" x="682.8" y="-718.3" font-family="Times,serif" font-size="14.00">Bazy&#45;danych#Pad</text>
</g>
<!-- d33tah&#45;&#45;Bazy&#45;danych#Pad -->
<g id="edge11" class="edge">
<title>d33tah&#45;&#45;Bazy&#45;danych#Pad</title>
<path fill="none" stroke="#0061f2" d="M134.83,-641.14C212.43,-641.14 370.72,-641.14 370.72,-641.14 370.72,-641.14 370.72,-722 370.72,-722 370.72,-722 496.47,-722 588.32,-722"/>
</g>
<!-- Miejsce::Miejsce#Klucze do spejsu -->
<g id="node15" class="node">
<title>Miejsce::Miejsce#Klucze do spejsu</title>
<ellipse fill="none" stroke="black" cx="682.8" cy="-550" rx="172.77" ry="18"/>
<text text-anchor="middle" x="682.8" y="-546.3" font-family="Times,serif" font-size="14.00">Miejsce::Miejsce#Klucze do spejsu</text>
</g>
<!-- d33tah&#45;&#45;Miejsce::Miejsce#Klucze do spejsu -->
<g id="edge12" class="edge">
<title>d33tah&#45;&#45;Miejsce::Miejsce#Klucze do spejsu</title>
<path fill="none" stroke="#0061f2" d="M115.45,-620.57C131.67,-620.57 150.72,-620.57 150.72,-620.57 150.72,-620.57 150.72,-560 150.72,-560 150.72,-560 381.24,-560 538.81,-560"/>
</g>
<!-- Infrastruktura::Domeny#Domeny -->
<g id="node16" class="node">
<title>Infrastruktura::Domeny#Domeny</title>
<ellipse fill="none" stroke="black" cx="682.8" cy="-206" rx="167.07" ry="18"/>
<text text-anchor="middle" x="682.8" y="-202.3" font-family="Times,serif" font-size="14.00">Infrastruktura::Domeny#Domeny</text>
</g>
<!-- d33tah&#45;&#45;Infrastruktura::Domeny#Domeny -->
<g id="edge13" class="edge">
<title>d33tah&#45;&#45;Infrastruktura::Domeny#Domeny</title>
<path fill="none" stroke="#0061f2" d="M123.6,-623.14C139.53,-623.14 155.72,-623.14 155.72,-623.14 155.72,-623.14 155.72,-215 155.72,-215 155.72,-215 382.04,-215 538.08,-215"/>
</g>
<!-- Infrastruktura::Mariuszbot#Mariuszbot -->
<g id="node17" class="node">
<title>Infrastruktura::Mariuszbot#Mariuszbot</title>
<ellipse fill="none" stroke="black" cx="682.8" cy="-636" rx="196.07" ry="18"/>
<text text-anchor="middle" x="682.8" y="-632.3" font-family="Times,serif" font-size="14.00">Infrastruktura::Mariuszbot#Mariuszbot</text>
</g>
<!-- d33tah&#45;&#45;Infrastruktura::Mariuszbot#Mariuszbot -->
<g id="edge14" class="edge">
<title>d33tah&#45;&#45;Infrastruktura::Mariuszbot#Mariuszbot</title>
<path fill="none" stroke="#0061f2" d="M136.32,-633.43C209.75,-633.43 362.81,-633.43 488.32,-633.43"/>
</g>
<!-- Kanay&#45;komunikacji# -->
<g id="node18" class="node">
<title>Kanay&#45;komunikacji#</title>
<ellipse fill="none" stroke="black" cx="682.8" cy="-292" rx="108.58" ry="18"/>
<text text-anchor="middle" x="682.8" y="-288.3" font-family="Times,serif" font-size="14.00">Kanay&#45;komunikacji#</text>
</g>
<!-- d33tah&#45;&#45;Kanay&#45;komunikacji# -->
<g id="edge15" class="edge">
<title>d33tah&#45;&#45;Kanay&#45;komunikacji#</title>
<path fill="none" stroke="#0061f2" d="M128.9,-625.71C147.24,-625.71 165.72,-625.71 165.72,-625.71 165.72,-625.71 165.72,-304 165.72,-304 165.72,-304 456.2,-304 601.72,-304"/>
</g>
<!-- Infrastruktura::IRC#IRC -->
<g id="node19" class="node">
<title>Infrastruktura::IRC#IRC</title>
<ellipse fill="none" stroke="black" cx="682.8" cy="-593" rx="124.58" ry="18"/>
<text text-anchor="middle" x="682.8" y="-589.3" font-family="Times,serif" font-size="14.00">Infrastruktura::IRC#IRC</text>
</g>
<!-- d33tah&#45;&#45;Infrastruktura::IRC#IRC -->
<g id="edge16" class="edge">
<title>d33tah&#45;&#45;Infrastruktura::IRC#IRC</title>
<path fill="none" stroke="#0061f2" d="M106.72,-618.6C106.72,-608.05 106.72,-596.6 106.72,-596.6 106.72,-596.6 391.13,-596.6 560.28,-596.6"/>
</g>
<!-- Infrastruktura::Telegram#Spacerspejs: t.me/joinchat/UYf2ONtNj21J1DS6 -->
<g id="node20" class="node">
<title>Infrastruktura::Telegram#Spacerspejs: t.me/joinchat/UYf2ONtNj21J1DS6</title>
<ellipse fill="none" stroke="black" cx="682.8" cy="-851" rx="352.84" ry="18"/>
<text text-anchor="middle" x="682.8" y="-847.3" font-family="Times,serif" font-size="14.00">Infrastruktura::Telegram#Spacerspejs: t.me/joinchat/UYf2ONtNj21J1DS6</text>
</g>
<!-- d33tah&#45;&#45;Infrastruktura::Telegram#Spacerspejs: t.me/joinchat/UYf2ONtNj21J1DS6 -->
<g id="edge18" class="edge">
<title>d33tah&#45;&#45;Infrastruktura::Telegram#Spacerspejs: t.me/joinchat/UYf2ONtNj21J1DS6</title>
<path fill="none" stroke="#0061f2" d="M128.83,-646.29C197.27,-646.29 339.72,-646.29 339.72,-646.29 339.72,-646.29 339.72,-817.33 339.72,-846.72"/>
</g>
<!-- cytP450 -->
<g id="node21" class="node">
<title>cytP450</title>
<ellipse fill="none" stroke="black" cx="92.94" cy="-179" rx="48.99" ry="18"/>
<text text-anchor="middle" x="92.94" y="-175.3" font-family="Times,serif" font-size="14.00">cytP450</text>
</g>
<!-- cytP450&#45;&#45;Miejsce::Miejsce#Klucze do spejsu -->
<g id="edge21" class="edge">
<title>cytP450&#45;&#45;Miejsce::Miejsce#Klucze do spejsu</title>
<path fill="none" stroke="#c60077" d="M120.1,-194C138.59,-194 159.72,-194 159.72,-194 159.72,-194 159.72,-536 159.72,-536 159.72,-536 420.84,-536 574.1,-536"/>
</g>
<!-- cytP450&#45;&#45;Infrastruktura::Domeny#Domeny -->
<g id="edge20" class="edge">
<title>cytP450&#45;&#45;Infrastruktura::Domeny#Domeny</title>
<path fill="none" stroke="#c60077" d="M129.4,-191C220.07,-191 458,-191 590.45,-191"/>
</g>
<!-- cytP450&#45;&#45;Kanay&#45;komunikacji# -->
<g id="edge22" class="edge">
<title>cytP450&#45;&#45;Kanay&#45;komunikacji#</title>
<path fill="none" stroke="#c60077" d="M138.72,-185.32C138.72,-207.43 138.72,-280 138.72,-280 138.72,-280 449.97,-280 601.64,-280"/>
</g>
<!-- Chciejlista#Elektronika (w sensie urzdze konsumenckich) -->
<g id="node22" class="node">
<title>Chciejlista#Elektronika (w sensie urzdze konsumenckich)</title>
<ellipse fill="none" stroke="black" cx="682.8" cy="-120" rx="289.75" ry="18"/>
<text text-anchor="middle" x="682.8" y="-116.3" font-family="Times,serif" font-size="14.00">Chciejlista#Elektronika (w sensie urzdze konsumenckich)</text>
</g>
<!-- cytP450&#45;&#45;Chciejlista#Elektronika (w sensie urzdze konsumenckich) -->
<g id="edge19" class="edge">
<title>cytP450&#45;&#45;Chciejlista#Elektronika (w sensie urzdze konsumenckich)</title>
<path fill="none" stroke="#c60077" d="M131.03,-167.67C215.02,-167.67 408.72,-167.67 408.72,-167.67 408.72,-167.67 408.72,-139.15 408.72,-126.23"/>
</g>
<!-- Przegld&#45;lokali&#45;na&#45;wynajem&#45;w&#45;odzi.&#45;Fundusz&#45;1000&#45;&#45;&#45;1500.#Bot Aleksego -->
<g id="node23" class="node">
<title>Przegld&#45;lokali&#45;na&#45;wynajem&#45;w&#45;odzi.&#45;Fundusz&#45;1000&#45;&#45;&#45;1500.#Bot Aleksego</title>
<ellipse fill="none" stroke="black" cx="682.8" cy="-77" rx="351.74" ry="18"/>
<text text-anchor="middle" x="682.8" y="-73.3" font-family="Times,serif" font-size="14.00">Przegld&#45;lokali&#45;na&#45;wynajem&#45;w&#45;odzi.&#45;Fundusz&#45;1000&#45;&#45;&#45;1500.#Bot Aleksego</text>
</g>
<!-- cytP450&#45;&#45;Przegld&#45;lokali&#45;na&#45;wynajem&#45;w&#45;odzi.&#45;Fundusz&#45;1000&#45;&#45;&#45;1500.#Bot Aleksego -->
<g id="edge23" class="edge">
<title>cytP450&#45;&#45;Przegld&#45;lokali&#45;na&#45;wynajem&#45;w&#45;odzi.&#45;Fundusz&#45;1000&#45;&#45;&#45;1500.#Bot Aleksego</title>
<path fill="none" stroke="#c60077" d="M137.72,-171.78C137.72,-150.09 137.72,-87 137.72,-87 137.72,-87 261.01,-87 390.32,-87"/>
</g>
<!-- Chciejlista#DIY -->
<g id="node24" class="node">
<title>Chciejlista#DIY</title>
<ellipse fill="none" stroke="black" cx="682.8" cy="-163" rx="83.69" ry="18"/>
<text text-anchor="middle" x="682.8" y="-159.3" font-family="Times,serif" font-size="14.00">Chciejlista#DIY</text>
</g>
<!-- cytP450&#45;&#45;Chciejlista#DIY -->
<g id="edge24" class="edge">
<title>cytP450&#45;&#45;Chciejlista#DIY</title>
<path fill="none" stroke="#c60077" d="M140.22,-174.33C245.06,-174.33 497.25,-174.33 617.24,-174.33"/>
</g>
<!-- pmysl -->
<g id="node25" class="node">
<title>pmysl</title>
<ellipse fill="none" stroke="black" cx="92.94" cy="-550" rx="38.19" ry="18"/>
<text text-anchor="middle" x="92.94" y="-546.3" font-family="Times,serif" font-size="14.00">pmysl</text>
</g>
<!-- pmysl&#45;&#45;Bazy&#45;danych#Grafana -->
<g id="edge25" class="edge">
<title>pmysl&#45;&#45;Bazy&#45;danych#Grafana</title>
<path fill="none" stroke="#b6e400" d="M125.07,-540C137.46,-540 148.72,-540 148.72,-540 148.72,-540 148.72,-507 148.72,-507 148.72,-507 411.3,-507 568.23,-507"/>
</g>
<!-- pmysl&#45;&#45;Infrastruktura::Github#Github -->
<g id="edge26" class="edge">
<title>pmysl&#45;&#45;Infrastruktura::Github#Github</title>
<path fill="none" stroke="#b6e400" d="M129.34,-556C201.27,-556 354.72,-556 354.72,-556 354.72,-556 354.72,-759 354.72,-759 354.72,-759 449.71,-759 537.47,-759"/>
</g>
<!-- pmysl&#45;&#45;Miejsce::Miejsce#Klucze do spejsu -->
<g id="edge28" class="edge">
<title>pmysl&#45;&#45;Miejsce::Miejsce#Klucze do spejsu</title>
<path fill="none" stroke="#b6e400" d="M131.19,-552C206.63,-552 378.73,-552 510.79,-552"/>
</g>
<!-- pmysl&#45;&#45;Kanay&#45;komunikacji# -->
<g id="edge30" class="edge">
<title>pmysl&#45;&#45;Kanay&#45;komunikacji#</title>
<path fill="none" stroke="#b6e400" d="M129.47,-544C146.35,-544 162.72,-544 162.72,-544 162.72,-544 162.72,-298 162.72,-298 162.72,-298 428.85,-298 580.36,-298"/>
</g>
<!-- pmysl&#45;&#45;Infrastruktura::IRC#IRC -->
<g id="edge29" class="edge">
<title>pmysl&#45;&#45;Infrastruktura::IRC#IRC</title>
<path fill="none" stroke="#b6e400" d="M80.72,-567.4C80.72,-577.95 80.72,-589.4 80.72,-589.4 80.72,-589.4 384.2,-589.4 560.24,-589.4"/>
</g>
<!-- Bazy&#45;danych# -->
<g id="node26" class="node">
<title>Bazy&#45;danych#</title>
<ellipse fill="none" stroke="black" cx="682.8" cy="-421" rx="77.19" ry="18"/>
<text text-anchor="middle" x="682.8" y="-417.3" font-family="Times,serif" font-size="14.00">Bazy&#45;danych#</text>
</g>
<!-- pmysl&#45;&#45;Bazy&#45;danych# -->
<g id="edge27" class="edge">
<title>pmysl&#45;&#45;Bazy&#45;danych#</title>
<path fill="none" stroke="#b6e400" d="M131.4,-548C153.42,-548 176.72,-548 176.72,-548 176.72,-548 176.72,-433 176.72,-433 176.72,-433 491.82,-433 624.75,-433"/>
</g>
<!-- kszmigiel -->
<g id="node27" class="node">
<title>kszmigiel</title>
<ellipse fill="none" stroke="black" cx="92.94" cy="-872" rx="54.69" ry="18"/>
<text text-anchor="middle" x="92.94" y="-868.3" font-family="Times,serif" font-size="14.00">kszmigiel</text>
</g>
<!-- kszmigiel&#45;&#45;Infrastruktura::Telegram#posty: t.me/hakierspejs_spam -->
<g id="edge35" class="edge">
<title>kszmigiel&#45;&#45;Infrastruktura::Telegram#posty: t.me/hakierspejs_spam</title>
<path fill="none" stroke="#00ffff" d="M122.32,-887.2C202.77,-887.2 420.72,-887.2 420.72,-887.2 420.72,-887.2 420.72,-951.44 420.72,-973.02"/>
</g>
<!-- kszmigiel&#45;&#45;Infrastruktura::Telegram#G贸wny: t.me/hakierspejs -->
<g id="edge32" class="edge">
<title>kszmigiel&#45;&#45;Infrastruktura::Telegram#G贸wny: t.me/hakierspejs</title>
<path fill="none" stroke="#00ffff" d="M132.56,-884.4C201.01,-884.4 346.01,-884.4 469.98,-884.4"/>
</g>
<!-- kszmigiel&#45;&#45;Marketing&#45;i&#45;media&#45;spoecznociowe# -->
<g id="edge33" class="edge">
<title>kszmigiel&#45;&#45;Marketing&#45;i&#45;media&#45;spoecznociowe#</title>
<path fill="none" stroke="#00ffff" d="M130.83,-859C163.93,-859 206.72,-859 206.72,-859 206.72,-859 206.72,-470 206.72,-470 206.72,-470 373.73,-470 509.92,-470"/>
</g>
<!-- kszmigiel&#45;&#45;Miejsce::Miejsce#Klucze do spejsu -->
<g id="edge34" class="edge">
<title>kszmigiel&#45;&#45;Miejsce::Miejsce#Klucze do spejsu</title>
<path fill="none" stroke="#00ffff" d="M141.91,-864C193.92,-864 268.72,-864 268.72,-864 268.72,-864 268.72,-564 268.72,-564 268.72,-564 451.32,-564 574.01,-564"/>
</g>
<!-- Marketing&#45;i&#45;media&#45;spoecznociowe#Naklejki -->
<g id="node28" class="node">
<title>Marketing&#45;i&#45;media&#45;spoecznociowe#Naklejki</title>
<ellipse fill="none" stroke="black" cx="682.8" cy="-937" rx="221.76" ry="18"/>
<text text-anchor="middle" x="682.8" y="-933.3" font-family="Times,serif" font-size="14.00">Marketing&#45;i&#45;media&#45;spoecznociowe#Naklejki</text>
</g>
<!-- kszmigiel&#45;&#45;Marketing&#45;i&#45;media&#45;spoecznociowe#Naklejki -->
<g id="edge31" class="edge">
<title>kszmigiel&#45;&#45;Marketing&#45;i&#45;media&#45;spoecznociowe#Naklejki</title>
<path fill="none" stroke="#00ffff" d="M141.72,-880.53C141.72,-895.21 141.72,-923.67 141.72,-923.67 141.72,-923.67 373.71,-923.67 533.88,-923.67"/>
</g>
<!-- BluRaf -->
<g id="node29" class="node">
<title>BluRaf</title>
<ellipse fill="none" stroke="black" cx="92.94" cy="-915" rx="42.49" ry="18"/>
<text text-anchor="middle" x="92.94" y="-911.3" font-family="Times,serif" font-size="14.00">BluRaf</text>
</g>
<!-- BluRaf&#45;&#45;Infrastruktura::Telegram#posty: t.me/hakierspejs_spam -->
<g id="edge40" class="edge">
<title>BluRaf&#45;&#45;Infrastruktura::Telegram#posty: t.me/hakierspejs_spam</title>
<path fill="none" stroke="#ab00d5" d="M121.33,-928.33C199.09,-928.33 409.72,-928.33 409.72,-928.33 409.72,-928.33 409.72,-961.79 409.72,-974.86"/>
</g>
<!-- BluRaf&#45;&#45;Infrastruktura::Telegram#G贸wny: t.me/hakierspejs -->
<g id="edge37" class="edge">
<title>BluRaf&#45;&#45;Infrastruktura::Telegram#G贸wny: t.me/hakierspejs</title>
<path fill="none" stroke="#ab00d5" d="M132.56,-908.25C212.25,-908.25 395.67,-908.25 528.89,-908.25"/>
</g>
<!-- BluRaf&#45;&#45;Marketing&#45;i&#45;media&#45;spoecznociowe# -->
<g id="edge38" class="edge">
<title>BluRaf&#45;&#45;Marketing&#45;i&#45;media&#45;spoecznociowe#</title>
<path fill="none" stroke="#ab00d5" d="M118.93,-900.75C158.09,-900.75 227.72,-900.75 227.72,-900.75 227.72,-900.75 227.72,-474 227.72,-474 227.72,-474 398.07,-474 530.32,-474"/>
</g>
<!-- BluRaf&#45;&#45;Infrastruktura::IRC#IRC -->
<g id="edge39" class="edge">
<title>BluRaf&#45;&#45;Infrastruktura::IRC#IRC</title>
<path fill="none" stroke="#ab00d5" d="M127.67,-904.5C184.16,-904.5 289.72,-904.5 289.72,-904.5 289.72,-904.5 289.72,-603.8 289.72,-603.8 289.72,-603.8 466.39,-603.8 582.85,-603.8"/>
</g>
<!-- Kanay&#45;komunikacji#Mumble -->
<g id="node30" class="node">
<title>Kanay&#45;komunikacji#Mumble</title>
<ellipse fill="none" stroke="black" cx="682.8" cy="-1023" rx="146.77" ry="18"/>
<text text-anchor="middle" x="682.8" y="-1019.3" font-family="Times,serif" font-size="14.00">Kanay&#45;komunikacji#Mumble</text>
</g>
<!-- BluRaf&#45;&#45;Kanay&#45;komunikacji#Mumble -->
<g id="edge36" class="edge">
<title>BluRaf&#45;&#45;Kanay&#45;komunikacji#Mumble</title>
<path fill="none" stroke="#ab00d5" d="M127.72,-925.36C127.72,-952.39 127.72,-1023 127.72,-1023 127.72,-1023 371.42,-1023 535.87,-1023"/>
</g>
<!-- Martti25 -->
<g id="node31" class="node">
<title>Martti25</title>
<ellipse fill="none" stroke="black" cx="92.94" cy="-765" rx="51.99" ry="18"/>
<text text-anchor="middle" x="92.94" y="-761.3" font-family="Times,serif" font-size="14.00">Martti25</text>
</g>
<!-- Martti25&#45;&#45;Infrastruktura::Telegram#G贸wny: t.me/hakierspejs -->
<g id="edge43" class="edge">
<title>Martti25&#45;&#45;Infrastruktura::Telegram#G贸wny: t.me/hakierspejs</title>
<path fill="none" stroke="#f29100" d="M131.99,-777C149.69,-777 166.72,-777 166.72,-777 166.72,-777 166.72,-881.6 166.72,-881.6 166.72,-881.6 351.66,-881.6 500.12,-881.6"/>
</g>
<!-- Martti25&#45;&#45;Infrastruktura::Github#Github -->
<g id="edge41" class="edge">
<title>Martti25&#45;&#45;Infrastruktura::Github#Github</title>
<path fill="none" stroke="#f29100" d="M141.97,-771C227.81,-771 408.44,-771 537.32,-771"/>
</g>
<!-- Martti25&#45;&#45;Marketing&#45;i&#45;media&#45;spoecznociowe# -->
<g id="edge42" class="edge">
<title>Martti25&#45;&#45;Marketing&#45;i&#45;media&#45;spoecznociowe#</title>
<path fill="none" stroke="#f29100" d="M131.88,-753C206.59,-753 362.72,-753 362.72,-753 362.72,-753 362.72,-478 362.72,-478 362.72,-478 475.56,-478 567.25,-478"/>
</g>
<!-- q3k -->
<g id="node32" class="node">
<title>q3k</title>
<ellipse fill="none" stroke="black" cx="92.94" cy="-249" rx="27.9" ry="18"/>
<text text-anchor="middle" x="92.94" y="-245.3" font-family="Times,serif" font-size="14.00">q3k</text>
</g>
<!-- q3k&#45;&#45;Infrastruktura::Domeny#Domeny -->
<g id="edge44" class="edge">
<title>q3k&#45;&#45;Infrastruktura::Domeny#Domeny</title>
<path fill="none" stroke="#00c64f" d="M93.72,-230.51C93.72,-218.86 93.72,-206 93.72,-206 93.72,-206 341.41,-206 515.57,-206"/>
</g>
<!-- q3k&#45;&#45;Kanay&#45;komunikacji# -->
<g id="edge46" class="edge">
<title>q3k&#45;&#45;Kanay&#45;komunikacji#</title>
<path fill="none" stroke="#00c64f" d="M93.72,-267.07C93.72,-276.46 93.72,-286 93.72,-286 93.72,-286 411.42,-286 580.19,-286"/>
</g>
<!-- Marketing&#45;i&#45;media&#45;spoecznociowe#Logo nr 2 -->
<g id="node33" class="node">
<title>Marketing&#45;i&#45;media&#45;spoecznociowe#Logo nr 2</title>
<ellipse fill="none" stroke="black" cx="682.8" cy="-249" rx="227.46" ry="18"/>
<text text-anchor="middle" x="682.8" y="-245.3" font-family="Times,serif" font-size="14.00">Marketing&#45;i&#45;media&#45;spoecznociowe#Logo nr 2</text>
</g>
<!-- q3k&#45;&#45;Marketing&#45;i&#45;media&#45;spoecznociowe#Logo nr 2 -->
<g id="edge45" class="edge">
<title>q3k&#45;&#45;Marketing&#45;i&#45;media&#45;spoecznociowe#Logo nr 2</title>
<path fill="none" stroke="#00c64f" d="M119.43,-243C180.46,-243 335.88,-243 468.05,-243"/>
</g>
<!-- thinkofher -->
<g id="node34" class="node">
<title>thinkofher</title>
<ellipse fill="none" stroke="black" cx="92.94" cy="-421" rx="59.29" ry="18"/>
<text text-anchor="middle" x="92.94" y="-417.3" font-family="Times,serif" font-size="14.00">thinkofher</text>
</g>
<!-- thinkofher&#45;&#45;Stowarzyszenie#Zarzd -->
<g id="edge47" class="edge">
<title>thinkofher&#45;&#45;Stowarzyszenie#Zarzd</title>
<path fill="none" stroke="#2e00e4" d="M149.05,-427C234.06,-427 385.72,-427 385.72,-427 385.72,-427 385.72,-670 385.72,-670 385.72,-670 490.45,-670 575.55,-670"/>
</g>
<!-- thinkofher&#45;&#45;Marketing&#45;i&#45;media&#45;spoecznociowe# -->
<g id="edge48" class="edge">
<title>thinkofher&#45;&#45;Marketing&#45;i&#45;media&#45;spoecznociowe#</title>
<path fill="none" stroke="#2e00e4" d="M146.72,-428.85C146.72,-439.71 146.72,-458 146.72,-458 146.72,-458 353.19,-458 509.86,-458"/>
</g>
<!-- thinkofher&#45;&#45;Kanay&#45;komunikacji# -->
<g id="edge53" class="edge">
<title>thinkofher&#45;&#45;Kanay&#45;komunikacji#</title>
<path fill="none" stroke="#2e00e4" d="M135.72,-408.16C135.72,-375.53 135.72,-292 135.72,-292 135.72,-292 414.52,-292 574.06,-292"/>
</g>
<!-- thinkofher&#45;&#45;Infrastruktura::IRC#IRC -->
<g id="edge50" class="edge">
<title>thinkofher&#45;&#45;Infrastruktura::IRC#IRC</title>
<path fill="none" stroke="#2e00e4" d="M145.72,-429.22C145.72,-462.06 145.72,-582.2 145.72,-582.2 145.72,-582.2 427.34,-582.2 582.73,-582.2"/>
</g>
<!-- thinkofher&#45;&#45;Bazy&#45;danych# -->
<g id="edge49" class="edge">
<title>thinkofher&#45;&#45;Bazy&#45;danych#</title>
<path fill="none" stroke="#2e00e4" d="M152.2,-421C259.42,-421 485.55,-421 605.04,-421"/>
</g>
<!-- Infrastruktura::Matrix#hs&#45;ldz:hackerspace.pl -->
<g id="node35" class="node">
<title>Infrastruktura::Matrix#hs&#45;ldz:hackerspace.pl</title>
<ellipse fill="none" stroke="black" cx="682.8" cy="-378" rx="221.76" ry="18"/>
<text text-anchor="middle" x="682.8" y="-374.3" font-family="Times,serif" font-size="14.00">Infrastruktura::Matrix#hs&#45;ldz:hackerspace.pl</text>
</g>
<!-- thinkofher&#45;&#45;Infrastruktura::Matrix#hs&#45;ldz:hackerspace.pl -->
<g id="edge51" class="edge">
<title>thinkofher&#45;&#45;Infrastruktura::Matrix#hs&#45;ldz:hackerspace.pl</title>
<path fill="none" stroke="#2e00e4" d="M148.86,-415C254.91,-415 474.72,-415 474.72,-415 474.72,-415 474.72,-395.05 474.72,-384.44"/>
</g>
<!-- Infrastruktura::Matrix#hs&#45;ldz&#45;offtopic:hackerspace.pl -->
<g id="node36" class="node">
<title>Infrastruktura::Matrix#hs&#45;ldz&#45;offtopic:hackerspace.pl</title>
<ellipse fill="none" stroke="black" cx="682.8" cy="-335" rx="258.85" ry="18"/>
<text text-anchor="middle" x="682.8" y="-331.3" font-family="Times,serif" font-size="14.00">Infrastruktura::Matrix#hs&#45;ldz&#45;offtopic:hackerspace.pl</text>
</g>
<!-- thinkofher&#45;&#45;Infrastruktura::Matrix#hs&#45;ldz&#45;offtopic:hackerspace.pl -->
<g id="edge52" class="edge">
<title>thinkofher&#45;&#45;Infrastruktura::Matrix#hs&#45;ldz&#45;offtopic:hackerspace.pl</title>
<path fill="none" stroke="#2e00e4" d="M137.09,-409C230.3,-409 438.72,-409 438.72,-409 438.72,-409 438.72,-358.73 438.72,-341.06"/>
</g>
<!-- gazowany_smalec -->
<g id="node37" class="node">
<title>gazowany_smalec</title>
<ellipse fill="none" stroke="black" cx="92.94" cy="-679" rx="92.88" ry="18"/>
<text text-anchor="middle" x="92.94" y="-675.3" font-family="Times,serif" font-size="14.00">gazowany_smalec</text>
</g>
<!-- gazowany_smalec&#45;&#45;Stowarzyszenie#Zarzd -->
<g id="edge54" class="edge">
<title>gazowany_smalec&#45;&#45;Stowarzyszenie#Zarzd</title>
<path fill="none" stroke="#ff0000" d="M173.72,-688C278.08,-688 460.05,-688 575.81,-688"/>
</g>
<!-- nuke -->
<g id="node38" class="node">
<title>nuke</title>
<ellipse fill="none" stroke="black" cx="92.94" cy="-61" rx="33.29" ry="18"/>
<text text-anchor="middle" x="92.94" y="-57.3" font-family="Times,serif" font-size="14.00">nuke</text>
</g>
<!-- Stowarzyszenie#Komisja Rewizyjna -->
<g id="node39" class="node">
<title>Stowarzyszenie#Komisja Rewizyjna</title>
<ellipse fill="none" stroke="black" cx="682.8" cy="-34" rx="178.17" ry="18"/>
<text text-anchor="middle" x="682.8" y="-30.3" font-family="Times,serif" font-size="14.00">Stowarzyszenie#Komisja Rewizyjna</text>
</g>
<!-- nuke&#45;&#45;Stowarzyszenie#Komisja Rewizyjna -->
<g id="edge55" class="edge">
<title>nuke&#45;&#45;Stowarzyszenie#Komisja Rewizyjna</title>
<path fill="none" stroke="#2bd500" d="M111.57,-46C177.37,-46 402.82,-46 550.04,-46"/>
</g>
<!-- Keij0 -->
<g id="node40" class="node">
<title>Keij0</title>
<ellipse fill="none" stroke="black" cx="92.94" cy="-115" rx="34.39" ry="18"/>
<text text-anchor="middle" x="92.94" y="-111.3" font-family="Times,serif" font-size="14.00">Keij0</text>
</g>
<!-- Keij0&#45;&#45;Marketing&#45;i&#45;media&#45;spoecznociowe# -->
<g id="edge57" class="edge">
<title>Keij0&#45;&#45;Marketing&#45;i&#45;media&#45;spoecznociowe#</title>
<path fill="none" stroke="#0061f2" d="M124.47,-122.67C146.77,-122.67 172.72,-122.67 172.72,-122.67 172.72,-122.67 172.72,-450 172.72,-450 172.72,-450 416.91,-450 567.38,-450"/>
</g>
<!-- Keij0&#45;&#45;Stowarzyszenie#Komisja Rewizyjna -->
<g id="edge56" class="edge">
<title>Keij0&#45;&#45;Stowarzyszenie#Komisja Rewizyjna</title>
<path fill="none" stroke="#0061f2" d="M127.19,-112.33C130.54,-112.33 132.72,-112.33 132.72,-112.33 132.72,-112.33 132.72,-49 132.72,-49 132.72,-49 425.84,-49 584.14,-49"/>
</g>
<!-- pzduniak -->
<g id="node41" class="node">
<title>pzduniak</title>
<ellipse fill="none" stroke="black" cx="92.94" cy="-18" rx="52.79" ry="18"/>
<text text-anchor="middle" x="92.94" y="-14.3" font-family="Times,serif" font-size="14.00">pzduniak</text>
</g>
<!-- pzduniak&#45;&#45;Stowarzyszenie#Komisja Rewizyjna -->
<g id="edge58" class="edge">
<title>pzduniak&#45;&#45;Stowarzyszenie#Komisja Rewizyjna</title>
<path fill="none" stroke="#c60077" d="M140.22,-26C222.3,-26 394.7,-26 523.27,-26"/>
</g>
<!-- biniu -->
<g id="node42" class="node">
<title>biniu</title>
<ellipse fill="none" stroke="black" cx="92.94" cy="-507" rx="34.39" ry="18"/>
<text text-anchor="middle" x="92.94" y="-503.3" font-family="Times,serif" font-size="14.00">biniu</text>
</g>
<!-- biniu&#45;&#45;Marketing&#45;i&#45;media&#45;spoecznociowe# -->
<g id="edge59" class="edge">
<title>biniu&#45;&#45;Marketing&#45;i&#45;media&#45;spoecznociowe#</title>
<path fill="none" stroke="#b6e400" d="M122.89,-498C217.65,-498 504.72,-498 504.72,-498 504.72,-498 504.72,-477.66 504.72,-468.44"/>
</g>
<!-- nikolaad -->
<g id="node43" class="node">
<title>nikolaad</title>
<ellipse fill="none" stroke="black" cx="92.94" cy="-464" rx="50.09" ry="18"/>
<text text-anchor="middle" x="92.94" y="-460.3" font-family="Times,serif" font-size="14.00">nikolaad</text>
</g>
<!-- nikolaad&#45;&#45;Marketing&#45;i&#45;media&#45;spoecznociowe# -->
<g id="edge60" class="edge">
<title>nikolaad&#45;&#45;Marketing&#45;i&#45;media&#45;spoecznociowe#</title>
<path fill="none" stroke="#00ffff" d="M142.72,-462C220.91,-462 376.38,-462 500.52,-462"/>
</g>
<!-- kujaw -->
<g id="node44" class="node">
<title>kujaw</title>
<ellipse fill="none" stroke="black" cx="92.94" cy="-335" rx="38.19" ry="18"/>
<text text-anchor="middle" x="92.94" y="-331.3" font-family="Times,serif" font-size="14.00">kujaw</text>
</g>
<!-- kujaw&#45;&#45;Marketing&#45;i&#45;media&#45;spoecznociowe# -->
<g id="edge61" class="edge">
<title>kujaw&#45;&#45;Marketing&#45;i&#45;media&#45;spoecznociowe#</title>
<path fill="none" stroke="#ab00d5" d="M131.33,-335C150.53,-335 169.72,-335 169.72,-335 169.72,-335 169.72,-454 169.72,-454 169.72,-454 379.01,-454 530.25,-454"/>
</g>
<!-- kujaw&#45;&#45;Marketing&#45;i&#45;media&#45;spoecznociowe#Logo nr 2 -->
<g id="edge62" class="edge">
<title>kujaw&#45;&#45;Marketing&#45;i&#45;media&#45;spoecznociowe#Logo nr 2</title>
<path fill="none" stroke="#ab00d5" d="M126.72,-326.44C126.72,-305.8 126.72,-255 126.72,-255 126.72,-255 311.64,-255 468.2,-255"/>
</g>
</g>
</svg>
