<?xml version="1.0" encoding="UTF-8" standalone="no"?>
<!DOCTYPE svg PUBLIC "-//W3C//DTD SVG 1.1//EN"
 "http://www.w3.org/Graphics/SVG/1.1/DTD/svg11.dtd">
<!-- Generated by graphviz version 2.43.0 (0)
 -->
<!-- Title: %3 Pages: 1 -->
<svg width="1001pt" height="1377pt"
 viewBox="0.00 0.00 1000.82 1377.00" xmlns="http://www.w3.org/2000/svg" xmlns:xlink="http://www.w3.org/1999/xlink">
<g id="graph0" class="graph" transform="scale(1 1) rotate(0) translate(4 1373)">
<title>%3</title>
<polygon fill="white" stroke="transparent" points="-4,4 -4,-1373 996.82,-1373 996.82,4 -4,4"/>
<!-- d33tah -->
<g id="node1" class="node">
<title>d33tah</title>
<ellipse fill="none" stroke="black" cx="71.49" cy="-792" rx="43.59" ry="18"/>
<text text-anchor="middle" x="71.49" y="-788.3" font-family="Times,serif" font-size="14.00">d33tah</text>
</g>
<!-- Marketing&#45;i&#45;media&#45;spoecznociowe# -->
<g id="node2" class="node">
<title>Marketing&#45;i&#45;media&#45;spoecznociowe#</title>
<ellipse fill="none" stroke="black" cx="639.91" cy="-964" rx="183.07" ry="18"/>
<text text-anchor="middle" x="639.91" y="-960.3" font-family="Times,serif" font-size="14.00">Marketing&#45;i&#45;media&#45;spoecznociowe#</text>
</g>
<!-- d33tah&#45;&#45;Marketing&#45;i&#45;media&#45;spoecznociowe# -->
<g id="edge1" class="edge">
<title>d33tah&#45;&#45;Marketing&#45;i&#45;media&#45;spoecznociowe#</title>
<path fill="none" stroke="#ff0000" d="M95.77,-807C108.65,-807 121.82,-807 121.82,-807 121.82,-807 121.82,-958 121.82,-958 121.82,-958 316.37,-958 467.03,-958"/>
</g>
<!-- Miejsce::Miejsce#Klucze do spejsu -->
<g id="node3" class="node">
<title>Miejsce::Miejsce#Klucze do spejsu</title>
<ellipse fill="none" stroke="black" cx="639.91" cy="-362" rx="172.77" ry="18"/>
<text text-anchor="middle" x="639.91" y="-358.3" font-family="Times,serif" font-size="14.00">Miejsce::Miejsce#Klucze do spejsu</text>
</g>
<!-- d33tah&#45;&#45;Miejsce::Miejsce#Klucze do spejsu -->
<g id="edge2" class="edge">
<title>d33tah&#45;&#45;Miejsce::Miejsce#Klucze do spejsu</title>
<path fill="none" stroke="#ff0000" d="M104.09,-780C172.51,-780 324.82,-780 324.82,-780 324.82,-780 324.82,-374.86 324.82,-374.86 324.82,-374.86 429.78,-374.86 518.54,-374.86"/>
</g>
<!-- Drzwi&#45;frontowe#Ekran  -->
<g id="node4" class="node">
<title>Drzwi&#45;frontowe#Ekran </title>
<ellipse fill="none" stroke="black" cx="639.91" cy="-663" rx="120.78" ry="18"/>
<text text-anchor="middle" x="639.91" y="-659.3" font-family="Times,serif" font-size="14.00">Drzwi&#45;frontowe#Ekran </text>
</g>
<!-- d33tah&#45;&#45;Drzwi&#45;frontowe#Ekran  -->
<g id="edge3" class="edge">
<title>d33tah&#45;&#45;Drzwi&#45;frontowe#Ekran </title>
<path fill="none" stroke="black" d="M103.82,-779.63C103.82,-747.34 103.82,-663 103.82,-663 103.82,-663 360.82,-663 518.93,-663"/>
</g>
<!-- Infrastruktura::Telegram#HS24: t.me/hsl_info -->
<g id="node8" class="node">
<title>Infrastruktura::Telegram#HS24: t.me/hsl_info</title>
<ellipse fill="none" stroke="black" cx="639.91" cy="-577" rx="231.26" ry="18"/>
<text text-anchor="middle" x="639.91" y="-573.3" font-family="Times,serif" font-size="14.00">Infrastruktura::Telegram#HS24: t.me/hsl_info</text>
</g>
<!-- d33tah&#45;&#45;Infrastruktura::Telegram#HS24: t.me/hsl_info -->
<g id="edge4" class="edge">
<title>d33tah&#45;&#45;Infrastruktura::Telegram#HS24: t.me/hsl_info</title>
<path fill="none" stroke="#ff0000" d="M95.75,-777C106.53,-777 116.82,-777 116.82,-777 116.82,-777 116.82,-589.86 116.82,-589.86 116.82,-589.86 324.04,-589.86 477.62,-589.86"/>
</g>
<!-- Infrastruktura::Telegram#Spacerspejs: t.me/joinchat/UYf2ONtNj21J1DS6 -->
<g id="node9" class="node">
<title>Infrastruktura::Telegram#Spacerspejs: t.me/joinchat/UYf2ONtNj21J1DS6</title>
<ellipse fill="none" stroke="black" cx="639.91" cy="-921" rx="352.84" ry="18"/>
<text text-anchor="middle" x="639.91" y="-917.3" font-family="Times,serif" font-size="14.00">Infrastruktura::Telegram#Spacerspejs: t.me/joinchat/UYf2ONtNj21J1DS6</text>
</g>
<!-- d33tah&#45;&#45;Infrastruktura::Telegram#Spacerspejs: t.me/joinchat/UYf2ONtNj21J1DS6 -->
<g id="edge5" class="edge">
<title>d33tah&#45;&#45;Infrastruktura::Telegram#Spacerspejs: t.me/joinchat/UYf2ONtNj21J1DS6</title>
<path fill="none" stroke="#ff0000" d="M111.82,-798.97C111.82,-824.99 111.82,-915 111.82,-915 111.82,-915 201.51,-915 306.96,-915"/>
</g>
<!-- Infrastruktura::Domeny#Domeny -->
<g id="node10" class="node">
<title>Infrastruktura::Domeny#Domeny</title>
<ellipse fill="none" stroke="black" cx="639.91" cy="-534" rx="167.07" ry="18"/>
<text text-anchor="middle" x="639.91" y="-530.3" font-family="Times,serif" font-size="14.00">Infrastruktura::Domeny#Domeny</text>
</g>
<!-- d33tah&#45;&#45;Infrastruktura::Domeny#Domeny -->
<g id="edge6" class="edge">
<title>d33tah&#45;&#45;Infrastruktura::Domeny#Domeny</title>
<path fill="none" stroke="#ff0000" d="M112.71,-786C189.52,-786 346.82,-786 346.82,-786 346.82,-786 346.82,-544.8 346.82,-544.8 346.82,-544.8 428.93,-544.8 506.23,-544.8"/>
</g>
<!-- Infrastruktura::Telegram#posty: t.me/hakierspejs_spam -->
<g id="node11" class="node">
<title>Infrastruktura::Telegram#posty: t.me/hakierspejs_spam</title>
<ellipse fill="none" stroke="black" cx="639.91" cy="-706" rx="284.05" ry="18"/>
<text text-anchor="middle" x="639.91" y="-702.3" font-family="Times,serif" font-size="14.00">Infrastruktura::Telegram#posty: t.me/hakierspejs_spam</text>
</g>
<!-- d33tah&#45;&#45;Infrastruktura::Telegram#posty: t.me/hakierspejs_spam -->
<g id="edge7" class="edge">
<title>d33tah&#45;&#45;Infrastruktura::Telegram#posty: t.me/hakierspejs_spam</title>
<path fill="none" stroke="#ff0000" d="M105.82,-780.72C105.82,-756.15 105.82,-700 105.82,-700 105.82,-700 238.82,-700 372.08,-700"/>
</g>
<!-- Bazy&#45;danych#Pad -->
<g id="node12" class="node">
<title>Bazy&#45;danych#Pad</title>
<ellipse fill="none" stroke="black" cx="639.91" cy="-835" rx="94.48" ry="18"/>
<text text-anchor="middle" x="639.91" y="-831.3" font-family="Times,serif" font-size="14.00">Bazy&#45;danych#Pad</text>
</g>
<!-- d33tah&#45;&#45;Bazy&#45;danych#Pad -->
<g id="edge8" class="edge">
<title>d33tah&#45;&#45;Bazy&#45;danych#Pad</title>
<path fill="none" stroke="#ff0000" d="M114.82,-793.85C114.82,-802.08 114.82,-835 114.82,-835 114.82,-835 394.25,-835 545.43,-835"/>
</g>
<!-- Infrastruktura::Github#Github -->
<g id="node13" class="node">
<title>Infrastruktura::Github#Github</title>
<ellipse fill="none" stroke="black" cx="639.91" cy="-1050" rx="154.07" ry="18"/>
<text text-anchor="middle" x="639.91" y="-1046.3" font-family="Times,serif" font-size="14.00">Infrastruktura::Github#Github</text>
</g>
<!-- d33tah&#45;&#45;Infrastruktura::Github#Github -->
<g id="edge9" class="edge">
<title>d33tah&#45;&#45;Infrastruktura::Github#Github</title>
<path fill="none" stroke="#ff0000" d="M115.28,-792C165.16,-792 239.82,-792 239.82,-792 239.82,-792 239.82,-1048 239.82,-1048 239.82,-1048 373.77,-1048 486.65,-1048"/>
</g>
<!-- Kanay&#45;komunikacji# -->
<g id="node14" class="node">
<title>Kanay&#45;komunikacji#</title>
<ellipse fill="none" stroke="black" cx="639.91" cy="-878" rx="108.58" ry="18"/>
<text text-anchor="middle" x="639.91" y="-874.3" font-family="Times,serif" font-size="14.00">Kanay&#45;komunikacji#</text>
</g>
<!-- d33tah&#45;&#45;Kanay&#45;komunikacji# -->
<g id="edge10" class="edge">
<title>d33tah&#45;&#45;Kanay&#45;komunikacji#</title>
<path fill="none" stroke="#ff0000" d="M112.82,-797.77C112.82,-816.75 112.82,-876 112.82,-876 112.82,-876 377.77,-876 531.97,-876"/>
</g>
<!-- Stowarzyszenie#Zarzd -->
<g id="node15" class="node">
<title>Stowarzyszenie#Zarzd</title>
<ellipse fill="none" stroke="black" cx="639.91" cy="-448" rx="123.48" ry="18"/>
<text text-anchor="middle" x="639.91" y="-444.3" font-family="Times,serif" font-size="14.00">Stowarzyszenie#Zarzd</text>
</g>
<!-- d33tah&#45;&#45;Stowarzyszenie#Zarzd -->
<g id="edge11" class="edge">
<title>d33tah&#45;&#45;Stowarzyszenie#Zarzd</title>
<path fill="none" stroke="#ff0000" d="M109.48,-783C181.51,-783 330.82,-783 330.82,-783 330.82,-783 330.82,-454 330.82,-454 330.82,-454 435.53,-454 523.06,-454"/>
</g>
<!-- Bazy&#45;danych#Trello -->
<g id="node16" class="node">
<title>Bazy&#45;danych#Trello</title>
<ellipse fill="none" stroke="black" cx="639.91" cy="-620" rx="103.98" ry="18"/>
<text text-anchor="middle" x="639.91" y="-616.3" font-family="Times,serif" font-size="14.00">Bazy&#45;danych#Trello</text>
</g>
<!-- d33tah&#45;&#45;Bazy&#45;danych#Trello -->
<g id="edge12" class="edge">
<title>d33tah&#45;&#45;Bazy&#45;danych#Trello</title>
<path fill="none" stroke="#ff0000" d="M101.82,-779.08C101.82,-740.83 101.82,-630.8 101.82,-630.8 101.82,-630.8 405.28,-630.8 556.42,-630.8"/>
</g>
<!-- Infrastruktura::Telegram#G贸wny: t.me/hakierspejs -->
<g id="node17" class="node">
<title>Infrastruktura::Telegram#G贸wny: t.me/hakierspejs</title>
<ellipse fill="none" stroke="black" cx="639.91" cy="-1007" rx="251.56" ry="18"/>
<text text-anchor="middle" x="639.91" y="-1003.3" font-family="Times,serif" font-size="14.00">Infrastruktura::Telegram#G贸wny: t.me/hakierspejs</text>
</g>
<!-- d33tah&#45;&#45;Infrastruktura::Telegram#G贸wny: t.me/hakierspejs -->
<g id="edge13" class="edge">
<title>d33tah&#45;&#45;Infrastruktura::Telegram#G贸wny: t.me/hakierspejs</title>
<path fill="none" stroke="#ff0000" d="M104.04,-804C119.99,-804 135.82,-804 135.82,-804 135.82,-804 135.82,-998 135.82,-998 135.82,-998 285.51,-998 421.74,-998"/>
</g>
<!-- Bazy&#45;danych#Grafana -->
<g id="node18" class="node">
<title>Bazy&#45;danych#Grafana</title>
<ellipse fill="none" stroke="black" cx="639.91" cy="-1093" rx="114.28" ry="18"/>
<text text-anchor="middle" x="639.91" y="-1089.3" font-family="Times,serif" font-size="14.00">Bazy&#45;danych#Grafana</text>
</g>
<!-- d33tah&#45;&#45;Bazy&#45;danych#Grafana -->
<g id="edge14" class="edge">
<title>d33tah&#45;&#45;Bazy&#45;danych#Grafana</title>
<path fill="none" stroke="#ff0000" d="M114.53,-795C143.27,-795 175.82,-795 175.82,-795 175.82,-795 175.82,-1080.14 175.82,-1080.14 175.82,-1080.14 426.77,-1080.14 559.6,-1080.14"/>
</g>
<!-- Infrastruktura::Mariuszbot#Mariuszbot -->
<g id="node19" class="node">
<title>Infrastruktura::Mariuszbot#Mariuszbot</title>
<ellipse fill="none" stroke="black" cx="639.91" cy="-749" rx="196.07" ry="18"/>
<text text-anchor="middle" x="639.91" y="-745.3" font-family="Times,serif" font-size="14.00">Infrastruktura::Mariuszbot#Mariuszbot</text>
</g>
<!-- d33tah&#45;&#45;Infrastruktura::Mariuszbot#Mariuszbot -->
<g id="edge15" class="edge">
<title>d33tah&#45;&#45;Infrastruktura::Mariuszbot#Mariuszbot</title>
<path fill="none" stroke="#ff0000" d="M107.82,-782.03C107.82,-769.32 107.82,-749 107.82,-749 107.82,-749 291.72,-749 443.29,-749"/>
</g>
<!-- Infrastruktura::IRC#IRC -->
<g id="node20" class="node">
<title>Infrastruktura::IRC#IRC</title>
<ellipse fill="none" stroke="black" cx="639.91" cy="-1136" rx="124.58" ry="18"/>
<text text-anchor="middle" x="639.91" y="-1132.3" font-family="Times,serif" font-size="14.00">Infrastruktura::IRC#IRC</text>
</g>
<!-- d33tah&#45;&#45;Infrastruktura::IRC#IRC -->
<g id="edge16" class="edge">
<title>d33tah&#45;&#45;Infrastruktura::IRC#IRC</title>
<path fill="none" stroke="#ff0000" d="M112.56,-798C135.62,-798 159.82,-798 159.82,-798 159.82,-798 159.82,-1127 159.82,-1127 159.82,-1127 389.97,-1127 531.57,-1127"/>
</g>
<!-- nastpne -->
<g id="node5" class="node">
<title>nastpne</title>
<ellipse fill="none" stroke="black" cx="71.49" cy="-1179" rx="53.09" ry="18"/>
<text text-anchor="middle" x="71.49" y="-1175.3" font-family="Times,serif" font-size="14.00">nastpne</text>
</g>
<!-- spotkanie -->
<g id="node6" class="node">
<title>spotkanie</title>
<ellipse fill="none" stroke="black" cx="71.49" cy="-1222" rx="55.79" ry="18"/>
<text text-anchor="middle" x="71.49" y="-1218.3" font-family="Times,serif" font-size="14.00">spotkanie</text>
</g>
<g id="node7" class="node">
<title></title>
<ellipse fill="none" stroke="#ff0000" cx="71.49" cy="-1265" rx="27" ry="18"/>
</g>
<!-- q3k -->
<g id="node21" class="node">
<title>q3k</title>
<ellipse fill="none" stroke="black" cx="71.49" cy="-620" rx="27.9" ry="18"/>
<text text-anchor="middle" x="71.49" y="-616.3" font-family="Times,serif" font-size="14.00">q3k</text>
</g>
<!-- q3k&#45;&#45;Infrastruktura::Domeny#Domeny -->
<g id="edge19" class="edge">
<title>q3k&#45;&#45;Infrastruktura::Domeny#Domeny</title>
<path fill="none" stroke="#2bd500" d="M99.1,-616.4C168.34,-616.4 343.82,-616.4 343.82,-616.4 343.82,-616.4 343.82,-537.6 343.82,-537.6 343.82,-537.6 407.53,-537.6 475.85,-537.6"/>
</g>
<!-- q3k&#45;&#45;Kanay&#45;komunikacji# -->
<g id="edge18" class="edge">
<title>q3k&#45;&#45;Kanay&#45;komunikacji#</title>
<path fill="none" stroke="#2bd500" d="M98.95,-623.6C158.02,-623.6 291.82,-623.6 291.82,-623.6 291.82,-623.6 291.82,-872 291.82,-872 291.82,-872 434.68,-872 537.35,-872"/>
</g>
<!-- Marketing&#45;i&#45;media&#45;spoecznociowe#Logo nr. 2 -->
<g id="node22" class="node">
<title>Marketing&#45;i&#45;media&#45;spoecznociowe#Logo nr. 2</title>
<ellipse fill="none" stroke="black" cx="639.91" cy="-491" rx="229.36" ry="18"/>
<text text-anchor="middle" x="639.91" y="-487.3" font-family="Times,serif" font-size="14.00">Marketing&#45;i&#45;media&#45;spoecznociowe#Logo nr. 2</text>
</g>
<!-- q3k&#45;&#45;Marketing&#45;i&#45;media&#45;spoecznociowe#Logo nr. 2 -->
<g id="edge17" class="edge">
<title>q3k&#45;&#45;Marketing&#45;i&#45;media&#45;spoecznociowe#Logo nr. 2</title>
<path fill="none" stroke="#2bd500" d="M93.99,-609.2C158.72,-609.2 340.82,-609.2 340.82,-609.2 340.82,-609.2 340.82,-501.8 340.82,-501.8 340.82,-501.8 394.3,-501.8 456.03,-501.8"/>
</g>
<!-- thinkofher -->
<g id="node23" class="node">
<title>thinkofher</title>
<ellipse fill="none" stroke="black" cx="71.49" cy="-1050" rx="59.29" ry="18"/>
<text text-anchor="middle" x="71.49" y="-1046.3" font-family="Times,serif" font-size="14.00">thinkofher</text>
</g>
<!-- thinkofher&#45;&#45;Marketing&#45;i&#45;media&#45;spoecznociowe# -->
<g id="edge20" class="edge">
<title>thinkofher&#45;&#45;Marketing&#45;i&#45;media&#45;spoecznociowe#</title>
<path fill="none" stroke="#0061f2" d="M120.77,-1040C196.24,-1040 331.82,-1040 331.82,-1040 331.82,-1040 331.82,-978 331.82,-978 331.82,-978 436.89,-978 524.31,-978"/>
</g>
<!-- thinkofher&#45;&#45;Infrastruktura::Github#Github -->
<g id="edge21" class="edge">
<title>thinkofher&#45;&#45;Infrastruktura::Github#Github</title>
<path fill="none" stroke="#0061f2" d="M120.94,-1060C207.24,-1060 387.92,-1060 511.59,-1060"/>
</g>
<!-- thinkofher&#45;&#45;Kanay&#45;komunikacji# -->
<g id="edge22" class="edge">
<title>thinkofher&#45;&#45;Kanay&#45;komunikacji#</title>
<path fill="none" stroke="#0061f2" d="M108.91,-1036C144.23,-1036 191.82,-1036 191.82,-1036 191.82,-1036 191.82,-884 191.82,-884 191.82,-884 405.12,-884 537.39,-884"/>
</g>
<!-- thinkofher&#45;&#45;Infrastruktura::Telegram#G贸wny: t.me/hakierspejs -->
<g id="edge24" class="edge">
<title>thinkofher&#45;&#45;Infrastruktura::Telegram#G贸wny: t.me/hakierspejs</title>
<path fill="none" stroke="#0061f2" d="M127.53,-1056C230.15,-1056 437.82,-1056 437.82,-1056 437.82,-1056 437.82,-1032.31 437.82,-1017.87"/>
</g>
<!-- thinkofher&#45;&#45;Infrastruktura::IRC#IRC -->
<g id="edge25" class="edge">
<title>thinkofher&#45;&#45;Infrastruktura::IRC#IRC</title>
<path fill="none" stroke="#0061f2" d="M119.82,-1060.55C119.82,-1083.51 119.82,-1136 119.82,-1136 119.82,-1136 361.13,-1136 515,-1136"/>
</g>
<!-- Bazy&#45;danych# -->
<g id="node24" class="node">
<title>Bazy&#45;danych#</title>
<ellipse fill="none" stroke="black" cx="639.91" cy="-1179" rx="77.19" ry="18"/>
<text text-anchor="middle" x="639.91" y="-1175.3" font-family="Times,serif" font-size="14.00">Bazy&#45;danych#</text>
</g>
<!-- thinkofher&#45;&#45;Bazy&#45;danych# -->
<g id="edge23" class="edge">
<title>thinkofher&#45;&#45;Bazy&#45;danych#</title>
<path fill="none" stroke="#0061f2" d="M108.73,-1064C175.76,-1064 309.82,-1064 309.82,-1064 309.82,-1064 309.82,-1173 309.82,-1173 309.82,-1173 469.41,-1173 566.65,-1173"/>
</g>
<!-- cytP450 -->
<g id="node25" class="node">
<title>cytP450</title>
<ellipse fill="none" stroke="black" cx="71.49" cy="-104" rx="48.99" ry="18"/>
<text text-anchor="middle" x="71.49" y="-100.3" font-family="Times,serif" font-size="14.00">cytP450</text>
</g>
<!-- cytP450&#45;&#45;Miejsce::Miejsce#Klucze do spejsu -->
<g id="edge26" class="edge">
<title>cytP450&#45;&#45;Miejsce::Miejsce#Klucze do spejsu</title>
<path fill="none" stroke="#c60077" d="M119.78,-106.57C187.32,-106.57 301.82,-106.57 301.82,-106.57 301.82,-106.57 301.82,-349.14 301.82,-349.14 301.82,-349.14 421.8,-349.14 518.81,-349.14"/>
</g>
<!-- cytP450&#45;&#45;Infrastruktura::Domeny#Domeny -->
<g id="edge29" class="edge">
<title>cytP450&#45;&#45;Infrastruktura::Domeny#Domeny</title>
<path fill="none" stroke="#c60077" d="M115.59,-111.71C181.7,-111.71 298.82,-111.71 298.82,-111.71 298.82,-111.71 298.82,-523.2 298.82,-523.2 298.82,-523.2 410.52,-523.2 506.08,-523.2"/>
</g>
<!-- cytP450&#45;&#45;Kanay&#45;komunikacji# -->
<g id="edge31" class="edge">
<title>cytP450&#45;&#45;Kanay&#45;komunikacji#</title>
<path fill="none" stroke="#c60077" d="M105.9,-116.86C168.55,-116.86 294.82,-116.86 294.82,-116.86 294.82,-116.86 294.82,-864 294.82,-864 294.82,-864 470.68,-864 571.32,-864"/>
</g>
<!-- Chciejlista#Elektronika (w sensie urzdze konsumenckich) -->
<g id="node26" class="node">
<title>Chciejlista#Elektronika (w sensie urzdze konsumenckich)</title>
<ellipse fill="none" stroke="black" cx="639.91" cy="-147" rx="289.75" ry="18"/>
<text text-anchor="middle" x="639.91" y="-143.3" font-family="Times,serif" font-size="14.00">Chciejlista#Elektronika (w sensie urzdze konsumenckich)</text>
</g>
<!-- cytP450&#45;&#45;Chciejlista#Elektronika (w sensie urzdze konsumenckich) -->
<g id="edge27" class="edge">
<title>cytP450&#45;&#45;Chciejlista#Elektronika (w sensie urzdze konsumenckich)</title>
<path fill="none" stroke="#c60077" d="M117.82,-109.62C117.82,-121.28 117.82,-147 117.82,-147 117.82,-147 229.69,-147 349.86,-147"/>
</g>
<!-- Stowarzyszenie#Komisja Rewizyjna -->
<g id="node27" class="node">
<title>Stowarzyszenie#Komisja Rewizyjna</title>
<ellipse fill="none" stroke="black" cx="639.91" cy="-190" rx="178.17" ry="18"/>
<text text-anchor="middle" x="639.91" y="-186.3" font-family="Times,serif" font-size="14.00">Stowarzyszenie#Komisja Rewizyjna</text>
</g>
<!-- cytP450&#45;&#45;Stowarzyszenie#Komisja Rewizyjna -->
<g id="edge28" class="edge">
<title>cytP450&#45;&#45;Stowarzyszenie#Komisja Rewizyjna</title>
<path fill="none" stroke="#c60077" d="M119.89,-101.43C189.03,-101.43 307.82,-101.43 307.82,-101.43 307.82,-101.43 307.82,-178 307.82,-178 307.82,-178 414.36,-178 506.75,-178"/>
</g>
<!-- Chciejlista#DIY -->
<g id="node28" class="node">
<title>Chciejlista#DIY</title>
<ellipse fill="none" stroke="black" cx="639.91" cy="-104" rx="83.69" ry="18"/>
<text text-anchor="middle" x="639.91" y="-100.3" font-family="Times,serif" font-size="14.00">Chciejlista#DIY</text>
</g>
<!-- cytP450&#45;&#45;Chciejlista#DIY -->
<g id="edge30" class="edge">
<title>cytP450&#45;&#45;Chciejlista#DIY</title>
<path fill="none" stroke="#c60077" d="M115.62,-96.29C212.26,-96.29 443.58,-96.29 564.05,-96.29"/>
</g>
<!-- Zamek#Zamek -->
<g id="node29" class="node">
<title>Zamek#Zamek</title>
<ellipse fill="none" stroke="black" cx="639.91" cy="-61" rx="81.49" ry="18"/>
<text text-anchor="middle" x="639.91" y="-57.3" font-family="Times,serif" font-size="14.00">Zamek#Zamek</text>
</g>
<!-- cytP450&#45;&#45;Zamek#Zamek -->
<g id="edge32" class="edge">
<title>cytP450&#45;&#45;Zamek#Zamek</title>
<path fill="none" stroke="#c60077" d="M71.82,-85.51C71.82,-73.86 71.82,-61 71.82,-61 71.82,-61 401.43,-61 558.51,-61"/>
</g>
<!-- Przegld&#45;lokali&#45;na&#45;wynajem&#45;w&#45;odzi.&#45;Fundusz&#45;1000&#45;&#45;&#45;1500.#Bot Aleksego -->
<g id="node30" class="node">
<title>Przegld&#45;lokali&#45;na&#45;wynajem&#45;w&#45;odzi.&#45;Fundusz&#45;1000&#45;&#45;&#45;1500.#Bot Aleksego</title>
<ellipse fill="none" stroke="black" cx="639.91" cy="-18" rx="351.74" ry="18"/>
<text text-anchor="middle" x="639.91" y="-14.3" font-family="Times,serif" font-size="14.00">Przegld&#45;lokali&#45;na&#45;wynajem&#45;w&#45;odzi.&#45;Fundusz&#45;1000&#45;&#45;&#45;1500.#Bot Aleksego</text>
</g>
<!-- cytP450&#45;&#45;Przegld&#45;lokali&#45;na&#45;wynajem&#45;w&#45;odzi.&#45;Fundusz&#45;1000&#45;&#45;&#45;1500.#Bot Aleksego -->
<g id="edge33" class="edge">
<title>cytP450&#45;&#45;Przegld&#45;lokali&#45;na&#45;wynajem&#45;w&#45;odzi.&#45;Fundusz&#45;1000&#45;&#45;&#45;1500.#Bot Aleksego</title>
<path fill="none" stroke="#c60077" d="M105.92,-91.14C170.83,-91.14 304.82,-91.14 304.82,-91.14 304.82,-91.14 304.82,-40.98 304.82,-23.74"/>
</g>
<!-- pmysl -->
<g id="node31" class="node">
<title>pmysl</title>
<ellipse fill="none" stroke="black" cx="71.49" cy="-1093" rx="38.19" ry="18"/>
<text text-anchor="middle" x="71.49" y="-1089.3" font-family="Times,serif" font-size="14.00">pmysl</text>
</g>
<!-- pmysl&#45;&#45;Infrastruktura::Github#Github -->
<g id="edge34" class="edge">
<title>pmysl&#45;&#45;Infrastruktura::Github#Github</title>
<path fill="none" stroke="#b6e400" d="M109.59,-1090.43C214.67,-1090.43 500.82,-1090.43 500.82,-1090.43 500.82,-1090.43 500.82,-1069.54 500.82,-1057.8"/>
</g>
<!-- pmysl&#45;&#45;Kanay&#45;komunikacji# -->
<g id="edge35" class="edge">
<title>pmysl&#45;&#45;Kanay&#45;komunikacji#</title>
<path fill="none" stroke="#b6e400" d="M106.25,-1085.29C146.64,-1085.29 207.82,-1085.29 207.82,-1085.29 207.82,-1085.29 207.82,-888 207.82,-888 207.82,-888 422.93,-888 549.59,-888"/>
</g>
<!-- pmysl&#45;&#45;Bazy&#45;danych#Grafana -->
<g id="edge37" class="edge">
<title>pmysl&#45;&#45;Bazy&#45;danych#Grafana</title>
<path fill="none" stroke="#b6e400" d="M109.67,-1095.57C193.74,-1095.57 397.63,-1095.57 526.68,-1095.57"/>
</g>
<!-- pmysl&#45;&#45;Infrastruktura::IRC#IRC -->
<g id="edge38" class="edge">
<title>pmysl&#45;&#45;Infrastruktura::IRC#IRC</title>
<path fill="none" stroke="#b6e400" d="M106.38,-1100.71C211.95,-1100.71 520.82,-1100.71 520.82,-1100.71 520.82,-1100.71 520.82,-1120.56 520.82,-1130.49"/>
</g>
<!-- pmysl&#45;&#45;Bazy&#45;danych# -->
<g id="edge36" class="edge">
<title>pmysl&#45;&#45;Bazy&#45;danych#</title>
<path fill="none" stroke="#b6e400" d="M98.46,-1105.86C158.68,-1105.86 298.82,-1105.86 298.82,-1105.86 298.82,-1105.86 298.82,-1185 298.82,-1185 298.82,-1185 466.51,-1185 566.74,-1185"/>
</g>
<!-- kszmigiel -->
<g id="node32" class="node">
<title>kszmigiel</title>
<ellipse fill="none" stroke="black" cx="71.49" cy="-1007" rx="54.69" ry="18"/>
<text text-anchor="middle" x="71.49" y="-1003.3" font-family="Times,serif" font-size="14.00">kszmigiel</text>
</g>
<!-- kszmigiel&#45;&#45;Marketing&#45;i&#45;media&#45;spoecznociowe# -->
<g id="edge39" class="edge">
<title>kszmigiel&#45;&#45;Marketing&#45;i&#45;media&#45;spoecznociowe#</title>
<path fill="none" stroke="#00ffff" d="M124.82,-1002.95C124.82,-994.14 124.82,-974 124.82,-974 124.82,-974 335.57,-974 487.46,-974"/>
</g>
<!-- kszmigiel&#45;&#45;Infrastruktura::Telegram#posty: t.me/hakierspejs_spam -->
<g id="edge40" class="edge">
<title>kszmigiel&#45;&#45;Infrastruktura::Telegram#posty: t.me/hakierspejs_spam</title>
<path fill="none" stroke="#00ffff" d="M118.82,-997.85C118.82,-948.05 118.82,-712 118.82,-712 118.82,-712 244.31,-712 372.11,-712"/>
</g>
<!-- kszmigiel&#45;&#45;Infrastruktura::Github#Github -->
<g id="edge41" class="edge">
<title>kszmigiel&#45;&#45;Infrastruktura::Github#Github</title>
<path fill="none" stroke="#00ffff" d="M118.98,-1016C191.32,-1016 320.82,-1016 320.82,-1016 320.82,-1016 320.82,-1044 320.82,-1044 320.82,-1044 410.22,-1044 494.37,-1044"/>
</g>
<!-- kszmigiel&#45;&#45;Infrastruktura::Telegram#G贸wny: t.me/hakierspejs -->
<g id="edge43" class="edge">
<title>kszmigiel&#45;&#45;Infrastruktura::Telegram#G贸wny: t.me/hakierspejs</title>
<path fill="none" stroke="#00ffff" d="M126.25,-1007C187.33,-1007 290.44,-1007 388.32,-1007"/>
</g>
<!-- Marketing&#45;i&#45;media&#45;spoecznociowe#Naklejki -->
<g id="node33" class="node">
<title>Marketing&#45;i&#45;media&#45;spoecznociowe#Naklejki</title>
<ellipse fill="none" stroke="black" cx="639.91" cy="-792" rx="221.76" ry="18"/>
<text text-anchor="middle" x="639.91" y="-788.3" font-family="Times,serif" font-size="14.00">Marketing&#45;i&#45;media&#45;spoecznociowe#Naklejki</text>
</g>
<!-- kszmigiel&#45;&#45;Marketing&#45;i&#45;media&#45;spoecznociowe#Naklejki -->
<g id="edge42" class="edge">
<title>kszmigiel&#45;&#45;Marketing&#45;i&#45;media&#45;spoecznociowe#Naklejki</title>
<path fill="none" stroke="#00ffff" d="M119.82,-998.41C119.82,-959.42 119.82,-801 119.82,-801 119.82,-801 299.57,-801 447.72,-801"/>
</g>
<!-- SP7Q -->
<g id="node34" class="node">
<title>SP7Q</title>
<ellipse fill="none" stroke="black" cx="71.49" cy="-878" rx="36.29" ry="18"/>
<text text-anchor="middle" x="71.49" y="-874.3" font-family="Times,serif" font-size="14.00">SP7Q</text>
</g>
<!-- SP7Q&#45;&#45;Marketing&#45;i&#45;media&#45;spoecznociowe# -->
<g id="edge44" class="edge">
<title>SP7Q&#45;&#45;Marketing&#45;i&#45;media&#45;spoecznociowe#</title>
<path fill="none" stroke="#ab00d5" d="M94.37,-892C103.03,-892 110.82,-892 110.82,-892 110.82,-892 110.82,-962 110.82,-962 110.82,-962 304.47,-962 457.46,-962"/>
</g>
<!-- SP7Q&#45;&#45;Infrastruktura::Github#Github -->
<g id="edge45" class="edge">
<title>SP7Q&#45;&#45;Infrastruktura::Github#Github</title>
<path fill="none" stroke="#ab00d5" d="M107.98,-880C153.05,-880 223.82,-880 223.82,-880 223.82,-880 223.82,-1052 223.82,-1052 223.82,-1052 368.11,-1052 486.75,-1052"/>
</g>
<!-- SP7Q&#45;&#45;Stowarzyszenie#Zarzd -->
<g id="edge46" class="edge">
<title>SP7Q&#45;&#45;Stowarzyszenie#Zarzd</title>
<path fill="none" stroke="#ab00d5" d="M101.84,-868C170.9,-868 333.82,-868 333.82,-868 333.82,-868 333.82,-460 333.82,-460 333.82,-460 457.53,-460 547.66,-460"/>
</g>
<!-- kpc -->
<g id="node35" class="node">
<title>kpc</title>
<ellipse fill="none" stroke="black" cx="71.49" cy="-276" rx="27" ry="18"/>
<text text-anchor="middle" x="71.49" y="-272.3" font-family="Times,serif" font-size="14.00">kpc</text>
</g>
<!-- kpc&#45;&#45;Marketing&#45;i&#45;media&#45;spoecznociowe# -->
<g id="edge47" class="edge">
<title>kpc&#45;&#45;Marketing&#45;i&#45;media&#45;spoecznociowe#</title>
<path fill="none" stroke="#f29100" d="M86.22,-291.2C132.49,-291.2 271.82,-291.2 271.82,-291.2 271.82,-291.2 271.82,-950 271.82,-950 271.82,-950 416.73,-950 524.7,-950"/>
</g>
<!-- kpc&#45;&#45;Miejsce::Miejsce#Klucze do spejsu -->
<g id="edge48" class="edge">
<title>kpc&#45;&#45;Miejsce::Miejsce#Klucze do spejsu</title>
<path fill="none" stroke="#f29100" d="M94.5,-285.6C180.46,-285.6 477.82,-285.6 477.82,-285.6 477.82,-285.6 477.82,-337.01 477.82,-355.49"/>
</g>
<!-- kpc&#45;&#45;Infrastruktura::Telegram#posty: t.me/hakierspejs_spam -->
<g id="edge51" class="edge">
<title>kpc&#45;&#45;Infrastruktura::Telegram#posty: t.me/hakierspejs_spam</title>
<path fill="none" stroke="#f29100" d="M91.4,-288.4C157.84,-288.4 367.82,-288.4 367.82,-288.4 367.82,-288.4 367.82,-652.38 367.82,-700.72"/>
</g>
<!-- kpc&#45;&#45;Stowarzyszenie#Komisja Rewizyjna -->
<g id="edge50" class="edge">
<title>kpc&#45;&#45;Stowarzyszenie#Komisja Rewizyjna</title>
<path fill="none" stroke="#f29100" d="M90.25,-263C110.17,-263 138.82,-263 138.82,-263 138.82,-263 138.82,-202 138.82,-202 138.82,-202 358.49,-202 506.94,-202"/>
</g>
<!-- Infrastruktura::Telegram#Posty wyklte (celowo bez linka) -->
<g id="node36" class="node">
<title>Infrastruktura::Telegram#Posty wyklte (celowo bez linka)</title>
<ellipse fill="none" stroke="black" cx="639.91" cy="-255" rx="284.05" ry="18"/>
<text text-anchor="middle" x="639.91" y="-251.3" font-family="Times,serif" font-size="14.00">Infrastruktura::Telegram#Posty wyklte (celowo bez linka)</text>
</g>
<!-- kpc&#45;&#45;Infrastruktura::Telegram#Posty wyklte (celowo bez linka) -->
<g id="edge49" class="edge">
<title>kpc&#45;&#45;Infrastruktura::Telegram#Posty wyklte (celowo bez linka)</title>
<path fill="none" stroke="#f29100" d="M95.92,-268C155.52,-268 313.09,-268 443.4,-268"/>
</g>
<!-- Czaty&#45;HS#HS: posty wyklte -->
<g id="node37" class="node">
<title>Czaty&#45;HS#HS: posty wyklte</title>
<ellipse fill="none" stroke="black" cx="639.91" cy="-298" rx="157.87" ry="18"/>
<text text-anchor="middle" x="639.91" y="-294.3" font-family="Times,serif" font-size="14.00">Czaty&#45;HS#HS: posty wyklte</text>
</g>
<!-- kpc&#45;&#45;Czaty&#45;HS#HS: posty wyklte -->
<g id="edge52" class="edge">
<title>kpc&#45;&#45;Czaty&#45;HS#HS: posty wyklte</title>
<path fill="none" stroke="#f29100" d="M96.65,-282.8C175.99,-282.8 423.45,-282.8 555.27,-282.8"/>
</g>
<!-- kujaw -->
<g id="node38" class="node">
<title>kujaw</title>
<ellipse fill="none" stroke="black" cx="71.49" cy="-577" rx="38.19" ry="18"/>
<text text-anchor="middle" x="71.49" y="-573.3" font-family="Times,serif" font-size="14.00">kujaw</text>
</g>
<!-- kujaw&#45;&#45;Marketing&#45;i&#45;media&#45;spoecznociowe# -->
<g id="edge53" class="edge">
<title>kujaw&#45;&#45;Marketing&#45;i&#45;media&#45;spoecznociowe#</title>
<path fill="none" stroke="#00c64f" d="M109.69,-579.57C163.68,-579.57 255.82,-579.57 255.82,-579.57 255.82,-579.57 255.82,-954 255.82,-954 255.82,-954 380.11,-954 487.28,-954"/>
</g>
<!-- kujaw&#45;&#45;Miejsce::Miejsce#Klucze do spejsu -->
<g id="edge54" class="edge">
<title>kujaw&#45;&#45;Miejsce::Miejsce#Klucze do spejsu</title>
<path fill="none" stroke="#00c64f" d="M98.65,-564.14C163.27,-564.14 320.82,-564.14 320.82,-564.14 320.82,-564.14 320.82,-369.71 320.82,-369.71 320.82,-369.71 402.79,-369.71 483.64,-369.71"/>
</g>
<!-- kujaw&#45;&#45;Stowarzyszenie#Zarzd -->
<g id="edge57" class="edge">
<title>kujaw&#45;&#45;Stowarzyszenie#Zarzd</title>
<path fill="none" stroke="#00c64f" d="M106.33,-569.29C176.42,-569.29 327.82,-569.29 327.82,-569.29 327.82,-569.29 327.82,-448 327.82,-448 327.82,-448 428.98,-448 516.11,-448"/>
</g>
<!-- kujaw&#45;&#45;Marketing&#45;i&#45;media&#45;spoecznociowe#Logo nr. 2 -->
<g id="edge55" class="edge">
<title>kujaw&#45;&#45;Marketing&#45;i&#45;media&#45;spoecznociowe#Logo nr. 2</title>
<path fill="none" stroke="#00c64f" d="M109.65,-574.43C183.3,-574.43 337.82,-574.43 337.82,-574.43 337.82,-574.43 337.82,-494.6 337.82,-494.6 337.82,-494.6 370.74,-494.6 414.83,-494.6"/>
</g>
<!-- kujaw&#45;&#45;Marketing&#45;i&#45;media&#45;spoecznociowe#Naklejki -->
<g id="edge56" class="edge">
<title>kujaw&#45;&#45;Marketing&#45;i&#45;media&#45;spoecznociowe#Naklejki</title>
<path fill="none" stroke="#00c64f" d="M106.4,-584.71C116,-584.71 123.82,-584.71 123.82,-584.71 123.82,-584.71 123.82,-789 123.82,-789 123.82,-789 280.38,-789 421.04,-789"/>
</g>
<!-- Piotrek_P -->
<g id="node39" class="node">
<title>Piotrek_P</title>
<ellipse fill="none" stroke="black" cx="71.49" cy="-362" rx="55.49" ry="18"/>
<text text-anchor="middle" x="71.49" y="-358.3" font-family="Times,serif" font-size="14.00">Piotrek_P</text>
</g>
<!-- Piotrek_P&#45;&#45;Miejsce::Miejsce#Klucze do spejsu -->
<g id="edge58" class="edge">
<title>Piotrek_P&#45;&#45;Miejsce::Miejsce#Klucze do spejsu</title>
<path fill="none" stroke="#2e00e4" d="M121.44,-354.29C201.56,-354.29 362.11,-354.29 483.44,-354.29"/>
</g>
<!-- polimerek -->
<g id="node40" class="node">
<title>polimerek</title>
<ellipse fill="none" stroke="black" cx="71.49" cy="-319" rx="57.39" ry="18"/>
<text text-anchor="middle" x="71.49" y="-315.3" font-family="Times,serif" font-size="14.00">polimerek</text>
</g>
<!-- polimerek&#45;&#45;Miejsce::Miejsce#Klucze do spejsu -->
<g id="edge59" class="edge">
<title>polimerek&#45;&#45;Miejsce::Miejsce#Klucze do spejsu</title>
<path fill="none" stroke="#ff0000" d="M123.55,-326.5C232.14,-326.5 472.82,-326.5 472.82,-326.5 472.82,-326.5 472.82,-347.74 472.82,-357.36"/>
</g>
<!-- kotlovecrafta -->
<g id="node41" class="node">
<title>kotlovecrafta</title>
<ellipse fill="none" stroke="black" cx="71.49" cy="-448" rx="71.49" ry="18"/>
<text text-anchor="middle" x="71.49" y="-444.3" font-family="Times,serif" font-size="14.00">kotlovecrafta</text>
</g>
<!-- kotlovecrafta&#45;&#45;Miejsce::Miejsce#Klucze do spejsu -->
<g id="edge60" class="edge">
<title>kotlovecrafta&#45;&#45;Miejsce::Miejsce#Klucze do spejsu</title>
<path fill="none" stroke="#2bd500" d="M133.82,-439.18C133.82,-416.78 133.82,-359.43 133.82,-359.43 133.82,-359.43 321.75,-359.43 468.57,-359.43"/>
</g>
<!-- sp7adg -->
<g id="node42" class="node">
<title>sp7adg</title>
<ellipse fill="none" stroke="black" cx="71.49" cy="-405" rx="44.39" ry="18"/>
<text text-anchor="middle" x="71.49" y="-401.3" font-family="Times,serif" font-size="14.00">sp7adg</text>
</g>
<!-- sp7adg&#45;&#45;Miejsce::Miejsce#Klucze do spejsu -->
<g id="edge61" class="edge">
<title>sp7adg&#45;&#45;Miejsce::Miejsce#Klucze do spejsu</title>
<path fill="none" stroke="#0061f2" d="M115.82,-405C186.74,-405 317.82,-405 317.82,-405 317.82,-405 317.82,-364.57 317.82,-364.57 317.82,-364.57 391.57,-364.57 468.49,-364.57"/>
</g>
<!-- Polimerek -->
<g id="node43" class="node">
<title>Polimerek</title>
<ellipse fill="none" stroke="black" cx="71.49" cy="-534" rx="57.39" ry="18"/>
<text text-anchor="middle" x="71.49" y="-530.3" font-family="Times,serif" font-size="14.00">Polimerek</text>
</g>
<!-- Polimerek&#45;&#45;Stowarzyszenie#Zarzd -->
<g id="edge62" class="edge">
<title>Polimerek&#45;&#45;Stowarzyszenie#Zarzd</title>
<path fill="none" stroke="#c60077" d="M127.62,-530.4C199.49,-530.4 314.82,-530.4 314.82,-530.4 314.82,-530.4 314.82,-442 314.82,-442 314.82,-442 430.18,-442 523.46,-442"/>
</g>
<!-- kasesag -->
<g id="node44" class="node">
<title>kasesag</title>
<ellipse fill="none" stroke="black" cx="71.49" cy="-491" rx="48.19" ry="18"/>
<text text-anchor="middle" x="71.49" y="-487.3" font-family="Times,serif" font-size="14.00">kasesag</text>
</g>
<!-- kasesag&#45;&#45;Stowarzyszenie#Zarzd -->
<g id="edge63" class="edge">
<title>kasesag&#45;&#45;Stowarzyszenie#Zarzd</title>
<path fill="none" stroke="#b6e400" d="M110.11,-480.2C178.04,-480.2 311.82,-480.2 311.82,-480.2 311.82,-480.2 311.82,-436 311.82,-436 311.82,-436 450.61,-436 547.64,-436"/>
</g>
<!-- Marketing&#45;i&#45;media&#45;spoecznociowe#Przycisk HS&#45;LDZ -->
<g id="node45" class="node">
<title>Marketing&#45;i&#45;media&#45;spoecznociowe#Przycisk HS&#45;LDZ</title>
<ellipse fill="none" stroke="black" cx="639.91" cy="-405" rx="261.85" ry="18"/>
<text text-anchor="middle" x="639.91" y="-401.3" font-family="Times,serif" font-size="14.00">Marketing&#45;i&#45;media&#45;spoecznociowe#Przycisk HS&#45;LDZ</text>
</g>
<!-- kasesag&#45;&#45;Marketing&#45;i&#45;media&#45;spoecznociowe#Przycisk HS&#45;LDZ -->
<g id="edge64" class="edge">
<title>kasesag&#45;&#45;Marketing&#45;i&#45;media&#45;spoecznociowe#Przycisk HS&#45;LDZ</title>
<path fill="none" stroke="#b6e400" d="M118.71,-487.4C208.24,-487.4 393.82,-487.4 393.82,-487.4 393.82,-487.4 393.82,-430.36 393.82,-411.19"/>
</g>
<!-- pzduniak -->
<g id="node46" class="node">
<title>pzduniak</title>
<ellipse fill="none" stroke="black" cx="71.49" cy="-233" rx="52.79" ry="18"/>
<text text-anchor="middle" x="71.49" y="-229.3" font-family="Times,serif" font-size="14.00">pzduniak</text>
</g>
<!-- pzduniak&#45;&#45;Stowarzyszenie#Komisja Rewizyjna -->
<g id="edge65" class="edge">
<title>pzduniak&#45;&#45;Stowarzyszenie#Komisja Rewizyjna</title>
<path fill="none" stroke="#00ffff" d="M114.82,-222.5C114.82,-211.56 114.82,-196 114.82,-196 114.82,-196 318.34,-196 471.96,-196"/>
</g>
<!-- krcz -->
<g id="node47" class="node">
<title>krcz</title>
<ellipse fill="none" stroke="black" cx="71.49" cy="-190" rx="30.59" ry="18"/>
<text text-anchor="middle" x="71.49" y="-186.3" font-family="Times,serif" font-size="14.00">krcz</text>
</g>
<!-- krcz&#45;&#45;Stowarzyszenie#Komisja Rewizyjna -->
<g id="edge66" class="edge">
<title>krcz&#45;&#45;Stowarzyszenie#Komisja Rewizyjna</title>
<path fill="none" stroke="#ab00d5" d="M102.05,-190C168.87,-190 332.31,-190 461.62,-190"/>
</g>
<!-- PiotrP -->
<g id="node48" class="node">
<title>PiotrP</title>
<ellipse fill="none" stroke="black" cx="71.49" cy="-147" rx="40.09" ry="18"/>
<text text-anchor="middle" x="71.49" y="-143.3" font-family="Times,serif" font-size="14.00">PiotrP</text>
</g>
<!-- PiotrP&#45;&#45;Stowarzyszenie#Komisja Rewizyjna -->
<g id="edge67" class="edge">
<title>PiotrP&#45;&#45;Stowarzyszenie#Komisja Rewizyjna</title>
<path fill="none" stroke="#f29100" d="M107.82,-154.85C107.82,-165.71 107.82,-184 107.82,-184 107.82,-184 315.99,-184 471.92,-184"/>
</g>
<!-- BluRaf -->
<g id="node49" class="node">
<title>BluRaf</title>
<ellipse fill="none" stroke="black" cx="71.49" cy="-1136" rx="42.49" ry="18"/>
<text text-anchor="middle" x="71.49" y="-1132.3" font-family="Times,serif" font-size="14.00">BluRaf</text>
</g>
<!-- BluRaf&#45;&#45;Infrastruktura::IRC#IRC -->
<g id="edge68" class="edge">
<title>BluRaf&#45;&#45;Infrastruktura::IRC#IRC</title>
<path fill="none" stroke="#00c64f" d="M108.35,-1145C192.67,-1145 402.31,-1145 531.69,-1145"/>
</g>
<!-- biniu -->
<g id="node50" class="node">
<title>biniu</title>
<ellipse fill="none" stroke="black" cx="71.49" cy="-964" rx="34.39" ry="18"/>
<text text-anchor="middle" x="71.49" y="-960.3" font-family="Times,serif" font-size="14.00">biniu</text>
</g>
<!-- biniu&#45;&#45;Marketing&#45;i&#45;media&#45;spoecznociowe# -->
<g id="edge69" class="edge">
<title>biniu&#45;&#45;Marketing&#45;i&#45;media&#45;spoecznociowe#</title>
<path fill="none" stroke="#2e00e4" d="M104.1,-970C173.1,-970 338.13,-970 466.95,-970"/>
</g>
<!-- Keij0 -->
<g id="node51" class="node">
<title>Keij0</title>
<ellipse fill="none" stroke="black" cx="71.49" cy="-921" rx="34.39" ry="18"/>
<text text-anchor="middle" x="71.49" y="-917.3" font-family="Times,serif" font-size="14.00">Keij0</text>
</g>
<!-- Keij0&#45;&#45;Marketing&#45;i&#45;media&#45;spoecznociowe# -->
<g id="edge70" class="edge">
<title>Keij0&#45;&#45;Marketing&#45;i&#45;media&#45;spoecznociowe#</title>
<path fill="none" stroke="#ff0000" d="M104.17,-927C107.58,-927 109.82,-927 109.82,-927 109.82,-927 109.82,-966 109.82,-966 109.82,-966 304.15,-966 457.48,-966"/>
</g>
<!-- hslbridgebot -->
<g id="node52" class="node">
<title>hslbridgebot</title>
<ellipse fill="none" stroke="black" cx="71.49" cy="-1351" rx="69.59" ry="18"/>
<text text-anchor="middle" x="71.49" y="-1347.3" font-family="Times,serif" font-size="14.00">hslbridgebot</text>
</g>
<!-- Mostkowanie&#45;kana贸w#mautrix&#45;telegram (aktualnie u偶ywany) -->
<g id="node53" class="node">
<title>Mostkowanie&#45;kana贸w#mautrix&#45;telegram (aktualnie u偶ywany)</title>
<ellipse fill="none" stroke="black" cx="639.91" cy="-1330" rx="297.85" ry="18"/>
<text text-anchor="middle" x="639.91" y="-1326.3" font-family="Times,serif" font-size="14.00">Mostkowanie&#45;kana贸w#mautrix&#45;telegram (aktualnie u偶ywany)</text>
</g>
<!-- hslbridgebot&#45;&#45;Mostkowanie&#45;kana贸w#mautrix&#45;telegram (aktualnie u偶ywany) -->
<g id="edge71" class="edge">
<title>hslbridgebot&#45;&#45;Mostkowanie&#45;kana贸w#mautrix&#45;telegram (aktualnie u偶ywany)</title>
<path fill="none" stroke="#2bd500" d="M128.07,-1340.5C191.4,-1340.5 298.22,-1340.5 397.95,-1340.5"/>
</g>
<!-- telegrambot -->
<g id="node54" class="node">
<title>telegrambot</title>
<ellipse fill="none" stroke="black" cx="71.49" cy="-1308" rx="67.69" ry="18"/>
<text text-anchor="middle" x="71.49" y="-1304.3" font-family="Times,serif" font-size="14.00">telegrambot</text>
</g>
<!-- telegrambot&#45;&#45;Mostkowanie&#45;kana贸w#mautrix&#45;telegram (aktualnie u偶ywany) -->
<g id="edge72" class="edge">
<title>telegrambot&#45;&#45;Mostkowanie&#45;kana贸w#mautrix&#45;telegram (aktualnie u偶ywany)</title>
<path fill="none" stroke="#0061f2" d="M125.22,-1319C189.43,-1319 301.12,-1319 404.09,-1319"/>
</g>
</g>
</svg>
