<?xml version="1.0" encoding="UTF-8" standalone="no"?>
<!DOCTYPE svg PUBLIC "-//W3C//DTD SVG 1.1//EN"
 "http://www.w3.org/Graphics/SVG/1.1/DTD/svg11.dtd">
<!-- Generated by graphviz version 2.43.0 (0)
 -->
<!-- Title: %3 Pages: 1 -->
<svg width="1018pt" height="1420pt"
 viewBox="0.00 0.00 1018.00 1420.00" xmlns="http://www.w3.org/2000/svg" xmlns:xlink="http://www.w3.org/1999/xlink">
<g id="graph0" class="graph" transform="scale(1 1) rotate(0) translate(4 1416)">
<title>%3</title>
<polygon fill="white" stroke="transparent" points="-4,4 -4,-1416 1014,-1416 1014,4 -4,4"/>
<!-- d33tah -->
<g id="node1" class="node">
<title>d33tah</title>
<ellipse fill="none" stroke="black" cx="88.67" cy="-770" rx="43.59" ry="18"/>
<text text-anchor="middle" x="88.67" y="-766.3" font-family="Times,serif" font-size="14.00">d33tah</text>
</g>
<!-- Infrastruktura::Github#Github -->
<g id="node2" class="node">
<title>Infrastruktura::Github#Github</title>
<ellipse fill="none" stroke="black" cx="657.08" cy="-1050" rx="154.07" ry="18"/>
<text text-anchor="middle" x="657.08" y="-1046.3" font-family="Times,serif" font-size="14.00">Infrastruktura::Github#Github</text>
</g>
<!-- d33tah&#45;&#45;Infrastruktura::Github#Github -->
<g id="edge1" class="edge">
<title>d33tah&#45;&#45;Infrastruktura::Github#Github</title>
<path fill="none" stroke="#ff0000" d="M123.34,-781C191.85,-781 338,-781 338,-781 338,-781 338,-1036.5 338,-1036.5 338,-1036.5 461.48,-1036.5 554.81,-1036.5"/>
</g>
<!-- Miejsce::Miejsce#Klucze do spejsu -->
<g id="node3" class="node">
<title>Miejsce::Miejsce#Klucze do spejsu</title>
<ellipse fill="none" stroke="black" cx="657.08" cy="-276" rx="172.77" ry="18"/>
<text text-anchor="middle" x="657.08" y="-272.3" font-family="Times,serif" font-size="14.00">Miejsce::Miejsce#Klucze do spejsu</text>
</g>
<!-- d33tah&#45;&#45;Miejsce::Miejsce#Klucze do spejsu -->
<g id="edge2" class="edge">
<title>d33tah&#45;&#45;Miejsce::Miejsce#Klucze do spejsu</title>
<path fill="none" stroke="#ff0000" d="M45.11,-770C22.69,-770 0,-770 0,-770 0,-770 0,-267.6 0,-267.6 0,-267.6 309.69,-267.6 503.85,-267.6"/>
</g>
<!-- Infrastruktura::Domeny#Domeny -->
<g id="node4" class="node">
<title>Infrastruktura::Domeny#Domeny</title>
<ellipse fill="none" stroke="black" cx="657.08" cy="-448" rx="167.07" ry="18"/>
<text text-anchor="middle" x="657.08" y="-444.3" font-family="Times,serif" font-size="14.00">Infrastruktura::Domeny#Domeny</text>
</g>
<!-- d33tah&#45;&#45;Infrastruktura::Domeny#Domeny -->
<g id="edge3" class="edge">
<title>d33tah&#45;&#45;Infrastruktura::Domeny#Domeny</title>
<path fill="none" stroke="#ff0000" d="M118.84,-757C156.5,-757 216,-757 216,-757 216,-757 216,-462.33 216,-462.33 216,-462.33 425.67,-462.33 555.89,-462.33"/>
</g>
<!-- Infrastruktura::Telegram#Spacerspejs: t.me/joinchat/UYf2ONtNj21J1DS6 -->
<g id="node5" class="node">
<title>Infrastruktura::Telegram#Spacerspejs: t.me/joinchat/UYf2ONtNj21J1DS6</title>
<ellipse fill="none" stroke="black" cx="657.08" cy="-706" rx="352.84" ry="18"/>
<text text-anchor="middle" x="657.08" y="-702.3" font-family="Times,serif" font-size="14.00">Infrastruktura::Telegram#Spacerspejs: t.me/joinchat/UYf2ONtNj21J1DS6</text>
</g>
<!-- d33tah&#45;&#45;Infrastruktura::Telegram#Spacerspejs: t.me/joinchat/UYf2ONtNj21J1DS6 -->
<g id="edge4" class="edge">
<title>d33tah&#45;&#45;Infrastruktura::Telegram#Spacerspejs: t.me/joinchat/UYf2ONtNj21J1DS6</title>
<path fill="none" stroke="#ff0000" d="M127.82,-762C194.03,-762 321,-762 321,-762 321,-762 321,-725.74 321,-711.57"/>
</g>
<!-- Infrastruktura::Telegram#G贸wny: t.me/hakierspejs -->
<g id="node6" class="node">
<title>Infrastruktura::Telegram#G贸wny: t.me/hakierspejs</title>
<ellipse fill="none" stroke="black" cx="657.08" cy="-1007" rx="251.56" ry="18"/>
<text text-anchor="middle" x="657.08" y="-1003.3" font-family="Times,serif" font-size="14.00">Infrastruktura::Telegram#G贸wny: t.me/hakierspejs</text>
</g>
<!-- d33tah&#45;&#45;Infrastruktura::Telegram#G贸wny: t.me/hakierspejs -->
<g id="edge5" class="edge">
<title>d33tah&#45;&#45;Infrastruktura::Telegram#G贸wny: t.me/hakierspejs</title>
<path fill="none" stroke="#ff0000" d="M127.12,-778.67C214.6,-778.67 421,-778.67 421,-778.67 421,-778.67 421,-962.98 421,-1000.41"/>
</g>
<!-- Bazy&#45;danych#Grafana -->
<g id="node7" class="node">
<title>Bazy&#45;danych#Grafana</title>
<ellipse fill="none" stroke="black" cx="657.08" cy="-1093" rx="114.28" ry="18"/>
<text text-anchor="middle" x="657.08" y="-1089.3" font-family="Times,serif" font-size="14.00">Bazy&#45;danych#Grafana</text>
</g>
<!-- d33tah&#45;&#45;Bazy&#45;danych#Grafana -->
<g id="edge6" class="edge">
<title>d33tah&#45;&#45;Bazy&#45;danych#Grafana</title>
<path fill="none" stroke="#ff0000" d="M117.92,-783.33C179.32,-783.33 316,-783.33 316,-783.33 316,-783.33 316,-1081 316,-1081 316,-1081 470.42,-1081 571.45,-1081"/>
</g>
<!-- Infrastruktura::Mariuszbot#Mariuszbot -->
<g id="node8" class="node">
<title>Infrastruktura::Mariuszbot#Mariuszbot</title>
<ellipse fill="none" stroke="black" cx="657.08" cy="-577" rx="196.07" ry="18"/>
<text text-anchor="middle" x="657.08" y="-573.3" font-family="Times,serif" font-size="14.00">Infrastruktura::Mariuszbot#Mariuszbot</text>
</g>
<!-- d33tah&#45;&#45;Infrastruktura::Mariuszbot#Mariuszbot -->
<g id="edge7" class="edge">
<title>d33tah&#45;&#45;Infrastruktura::Mariuszbot#Mariuszbot</title>
<path fill="none" stroke="#ff0000" d="M111.15,-754.5C130.05,-754.5 154,-754.5 154,-754.5 154,-754.5 154,-577 154,-577 154,-577 319.6,-577 460.78,-577"/>
</g>
<!-- Marketing&#45;i&#45;media&#45;spoecznociowe# -->
<g id="node9" class="node">
<title>Marketing&#45;i&#45;media&#45;spoecznociowe#</title>
<ellipse fill="none" stroke="black" cx="657.08" cy="-964" rx="183.07" ry="18"/>
<text text-anchor="middle" x="657.08" y="-960.3" font-family="Times,serif" font-size="14.00">Marketing&#45;i&#45;media&#45;spoecznociowe#</text>
</g>
<!-- d33tah&#45;&#45;Marketing&#45;i&#45;media&#45;spoecznociowe# -->
<g id="edge8" class="edge">
<title>d33tah&#45;&#45;Marketing&#45;i&#45;media&#45;spoecznociowe#</title>
<path fill="none" stroke="#ff0000" d="M127,-778.75C127,-816.31 127,-962 127,-962 127,-962 321.32,-962 474.66,-962"/>
</g>
<!-- Drzwi&#45;frontowe#Ekran  -->
<g id="node10" class="node">
<title>Drzwi&#45;frontowe#Ekran </title>
<ellipse fill="none" stroke="black" cx="657.08" cy="-921" rx="120.78" ry="18"/>
<text text-anchor="middle" x="657.08" y="-917.3" font-family="Times,serif" font-size="14.00">Drzwi&#45;frontowe#Ekran </text>
</g>
<!-- d33tah&#45;&#45;Drzwi&#45;frontowe#Ekran  -->
<g id="edge9" class="edge">
<title>d33tah&#45;&#45;Drzwi&#45;frontowe#Ekran </title>
<path fill="none" stroke="black" d="M129,-776.99C129,-805.96 129,-915 129,-915 129,-915 387.54,-915 542.82,-915"/>
</g>
<!-- Infrastruktura::IRC#IRC -->
<g id="node14" class="node">
<title>Infrastruktura::IRC#IRC</title>
<ellipse fill="none" stroke="black" cx="657.08" cy="-1179" rx="124.58" ry="18"/>
<text text-anchor="middle" x="657.08" y="-1175.3" font-family="Times,serif" font-size="14.00">Infrastruktura::IRC#IRC</text>
</g>
<!-- d33tah&#45;&#45;Infrastruktura::IRC#IRC -->
<g id="edge10" class="edge">
<title>d33tah&#45;&#45;Infrastruktura::IRC#IRC</title>
<path fill="none" stroke="#ff0000" d="M110.29,-785.67C165.99,-785.67 310,-785.67 310,-785.67 310,-785.67 310,-1170 310,-1170 310,-1170 446.85,-1170 548.69,-1170"/>
</g>
<!-- Infrastruktura::Telegram#HS24: t.me/hsl_info -->
<g id="node15" class="node">
<title>Infrastruktura::Telegram#HS24: t.me/hsl_info</title>
<ellipse fill="none" stroke="black" cx="657.08" cy="-620" rx="231.26" ry="18"/>
<text text-anchor="middle" x="657.08" y="-616.3" font-family="Times,serif" font-size="14.00">Infrastruktura::Telegram#HS24: t.me/hsl_info</text>
</g>
<!-- d33tah&#45;&#45;Infrastruktura::Telegram#HS24: t.me/hsl_info -->
<g id="edge11" class="edge">
<title>d33tah&#45;&#45;Infrastruktura::Telegram#HS24: t.me/hsl_info</title>
<path fill="none" stroke="#ff0000" d="M75,-752.79C75,-713.39 75,-620 75,-620 75,-620 263.03,-620 425.35,-620"/>
</g>
<!-- Kanay&#45;komunikacji# -->
<g id="node16" class="node">
<title>Kanay&#45;komunikacji#</title>
<ellipse fill="none" stroke="black" cx="657.08" cy="-878" rx="108.58" ry="18"/>
<text text-anchor="middle" x="657.08" y="-874.3" font-family="Times,serif" font-size="14.00">Kanay&#45;komunikacji#</text>
</g>
<!-- d33tah&#45;&#45;Kanay&#45;komunikacji# -->
<g id="edge12" class="edge">
<title>d33tah&#45;&#45;Kanay&#45;komunikacji#</title>
<path fill="none" stroke="#ff0000" d="M131,-774.53C131,-794.71 131,-875.43 131,-875.43 131,-875.43 395.44,-875.43 549.35,-875.43"/>
</g>
<!-- Bazy&#45;danych#Trello -->
<g id="node17" class="node">
<title>Bazy&#45;danych#Trello</title>
<ellipse fill="none" stroke="black" cx="657.08" cy="-749" rx="103.98" ry="18"/>
<text text-anchor="middle" x="657.08" y="-745.3" font-family="Times,serif" font-size="14.00">Bazy&#45;danych#Trello</text>
</g>
<!-- d33tah&#45;&#45;Bazy&#45;danych#Trello -->
<g id="edge13" class="edge">
<title>d33tah&#45;&#45;Bazy&#45;danych#Trello</title>
<path fill="none" stroke="#ff0000" d="M130.47,-764.5C231.99,-764.5 491.49,-764.5 603.87,-764.5"/>
</g>
<!-- Stowarzyszenie#Zarzd -->
<g id="node18" class="node">
<title>Stowarzyszenie#Zarzd</title>
<ellipse fill="none" stroke="black" cx="657.08" cy="-534" rx="123.48" ry="18"/>
<text text-anchor="middle" x="657.08" y="-530.3" font-family="Times,serif" font-size="14.00">Stowarzyszenie#Zarzd</text>
</g>
<!-- d33tah&#45;&#45;Stowarzyszenie#Zarzd -->
<g id="edge14" class="edge">
<title>d33tah&#45;&#45;Stowarzyszenie#Zarzd</title>
<path fill="none" stroke="#ff0000" d="M124.29,-759.5C165.28,-759.5 227,-759.5 227,-759.5 227,-759.5 227,-544 227,-544 227,-544 427.12,-544 554.34,-544"/>
</g>
<!-- Infrastruktura::Telegram#posty: t.me/hakierspejs_spam -->
<g id="node19" class="node">
<title>Infrastruktura::Telegram#posty: t.me/hakierspejs_spam</title>
<ellipse fill="none" stroke="black" cx="657.08" cy="-663" rx="284.05" ry="18"/>
<text text-anchor="middle" x="657.08" y="-659.3" font-family="Times,serif" font-size="14.00">Infrastruktura::Telegram#posty: t.me/hakierspejs_spam</text>
</g>
<!-- d33tah&#45;&#45;Infrastruktura::Telegram#posty: t.me/hakierspejs_spam -->
<g id="edge15" class="edge">
<title>d33tah&#45;&#45;Infrastruktura::Telegram#posty: t.me/hakierspejs_spam</title>
<path fill="none" stroke="#ff0000" d="M104,-752.84C104,-721.23 104,-657 104,-657 104,-657 248,-657 389.05,-657"/>
</g>
<!-- Bazy&#45;danych#Pad -->
<g id="node20" class="node">
<title>Bazy&#45;danych#Pad</title>
<ellipse fill="none" stroke="black" cx="657.08" cy="-792" rx="94.48" ry="18"/>
<text text-anchor="middle" x="657.08" y="-788.3" font-family="Times,serif" font-size="14.00">Bazy&#45;danych#Pad</text>
</g>
<!-- d33tah&#45;&#45;Bazy&#45;danych#Pad -->
<g id="edge16" class="edge">
<title>d33tah&#45;&#45;Bazy&#45;danych#Pad</title>
<path fill="none" stroke="#ff0000" d="M129.55,-776.33C232.39,-776.33 501.39,-776.33 610.29,-776.33"/>
</g>
<!-- nastpne -->
<g id="node11" class="node">
<title>nastpne</title>
<ellipse fill="none" stroke="black" cx="88.67" cy="-1222" rx="53.09" ry="18"/>
<text text-anchor="middle" x="88.67" y="-1218.3" font-family="Times,serif" font-size="14.00">nastpne</text>
</g>
<!-- spotkanie -->
<g id="node12" class="node">
<title>spotkanie</title>
<ellipse fill="none" stroke="black" cx="88.67" cy="-1265" rx="55.79" ry="18"/>
<text text-anchor="middle" x="88.67" y="-1261.3" font-family="Times,serif" font-size="14.00">spotkanie</text>
</g>
<g id="node13" class="node">
<title></title>
<ellipse fill="none" stroke="#ff0000" cx="88.67" cy="-1308" rx="27" ry="18"/>
</g>
<!-- q3k -->
<g id="node21" class="node">
<title>q3k</title>
<ellipse fill="none" stroke="black" cx="88.67" cy="-491" rx="27.9" ry="18"/>
<text text-anchor="middle" x="88.67" y="-487.3" font-family="Times,serif" font-size="14.00">q3k</text>
</g>
<!-- q3k&#45;&#45;Infrastruktura::Domeny#Domeny -->
<g id="edge18" class="edge">
<title>q3k&#45;&#45;Infrastruktura::Domeny#Domeny</title>
<path fill="none" stroke="#2bd500" d="M89,-472.94C89,-465.54 89,-458.67 89,-458.67 89,-458.67 354.46,-458.67 522.45,-458.67"/>
</g>
<!-- q3k&#45;&#45;Kanay&#45;komunikacji# -->
<g id="edge17" class="edge">
<title>q3k&#45;&#45;Kanay&#45;komunikacji#</title>
<path fill="none" stroke="#2bd500" d="M116.92,-491C133.41,-491 151,-491 151,-491 151,-491 151,-870.29 151,-870.29 151,-870.29 411.73,-870.29 558.9,-870.29"/>
</g>
<!-- Marketing&#45;i&#45;media&#45;spoecznociowe#Logo nr. 2 -->
<g id="node22" class="node">
<title>Marketing&#45;i&#45;media&#45;spoecznociowe#Logo nr. 2</title>
<ellipse fill="none" stroke="black" cx="657.08" cy="-491" rx="229.36" ry="18"/>
<text text-anchor="middle" x="657.08" y="-487.3" font-family="Times,serif" font-size="14.00">Marketing&#45;i&#45;media&#45;spoecznociowe#Logo nr. 2</text>
</g>
<!-- q3k&#45;&#45;Marketing&#45;i&#45;media&#45;spoecznociowe#Logo nr. 2 -->
<g id="edge19" class="edge">
<title>q3k&#45;&#45;Marketing&#45;i&#45;media&#45;spoecznociowe#Logo nr. 2</title>
<path fill="none" stroke="#2bd500" d="M113.09,-482C172.33,-482 328.3,-482 458.13,-482"/>
</g>
<!-- thinkofher -->
<g id="node23" class="node">
<title>thinkofher</title>
<ellipse fill="none" stroke="black" cx="88.67" cy="-1050" rx="59.29" ry="18"/>
<text text-anchor="middle" x="88.67" y="-1046.3" font-family="Times,serif" font-size="14.00">thinkofher</text>
</g>
<!-- thinkofher&#45;&#45;Infrastruktura::Github#Github -->
<g id="edge20" class="edge">
<title>thinkofher&#45;&#45;Infrastruktura::Github#Github</title>
<path fill="none" stroke="#0061f2" d="M128.19,-1063.5C215.61,-1063.5 427.73,-1063.5 555.19,-1063.5"/>
</g>
<!-- thinkofher&#45;&#45;Infrastruktura::Telegram#G贸wny: t.me/hakierspejs -->
<g id="edge21" class="edge">
<title>thinkofher&#45;&#45;Infrastruktura::Telegram#G贸wny: t.me/hakierspejs</title>
<path fill="none" stroke="#0061f2" d="M139.99,-1059C240.81,-1059 455,-1059 455,-1059 455,-1059 455,-1033.01 455,-1017.77"/>
</g>
<!-- thinkofher&#45;&#45;Marketing&#45;i&#45;media&#45;spoecznociowe# -->
<g id="edge22" class="edge">
<title>thinkofher&#45;&#45;Marketing&#45;i&#45;media&#45;spoecznociowe#</title>
<path fill="none" stroke="#0061f2" d="M147.88,-1050C226.08,-1050 354,-1050 354,-1050 354,-1050 354,-978 354,-978 354,-978 455.98,-978 541.63,-978"/>
</g>
<!-- thinkofher&#45;&#45;Infrastruktura::IRC#IRC -->
<g id="edge23" class="edge">
<title>thinkofher&#45;&#45;Infrastruktura::IRC#IRC</title>
<path fill="none" stroke="#0061f2" d="M135,-1061.45C135,-1093.02 135,-1179 135,-1179 135,-1179 377.58,-1179 532.03,-1179"/>
</g>
<!-- thinkofher&#45;&#45;Kanay&#45;komunikacji# -->
<g id="edge24" class="edge">
<title>thinkofher&#45;&#45;Kanay&#45;komunikacji#</title>
<path fill="none" stroke="#0061f2" d="M140.14,-1041C214.45,-1041 343,-1041 343,-1041 343,-1041 343,-880.57 343,-880.57 343,-880.57 458.51,-880.57 549.43,-880.57"/>
</g>
<!-- Bazy&#45;danych# -->
<g id="node24" class="node">
<title>Bazy&#45;danych#</title>
<ellipse fill="none" stroke="black" cx="657.08" cy="-1136" rx="77.19" ry="18"/>
<text text-anchor="middle" x="657.08" y="-1132.3" font-family="Times,serif" font-size="14.00">Bazy&#45;danych#</text>
</g>
<!-- thinkofher&#45;&#45;Bazy&#45;danych# -->
<g id="edge25" class="edge">
<title>thinkofher&#45;&#45;Bazy&#45;danych#</title>
<path fill="none" stroke="#0061f2" d="M139,-1059.49C139,-1080.68 139,-1130 139,-1130 139,-1130 441.14,-1130 583.95,-1130"/>
</g>
<!-- cytP450 -->
<g id="node25" class="node">
<title>cytP450</title>
<ellipse fill="none" stroke="black" cx="88.67" cy="-158" rx="48.99" ry="18"/>
<text text-anchor="middle" x="88.67" y="-154.3" font-family="Times,serif" font-size="14.00">cytP450</text>
</g>
<!-- cytP450&#45;&#45;Miejsce::Miejsce#Klucze do spejsu -->
<g id="edge26" class="edge">
<title>cytP450&#45;&#45;Miejsce::Miejsce#Klucze do spejsu</title>
<path fill="none" stroke="#c60077" d="M124.7,-170.25C138.05,-170.25 150,-170.25 150,-170.25 150,-170.25 150,-263.4 150,-263.4 150,-263.4 383.25,-263.4 533.36,-263.4"/>
</g>
<!-- cytP450&#45;&#45;Infrastruktura::Domeny#Domeny -->
<g id="edge27" class="edge">
<title>cytP450&#45;&#45;Infrastruktura::Domeny#Domeny</title>
<path fill="none" stroke="#c60077" d="M128.68,-168.5C182.35,-168.5 271,-168.5 271,-168.5 271,-168.5 271,-442.5 271,-442.5 271,-442.5 391.47,-442.5 497.82,-442.5"/>
</g>
<!-- cytP450&#45;&#45;Kanay&#45;komunikacji# -->
<g id="edge31" class="edge">
<title>cytP450&#45;&#45;Kanay&#45;komunikacji#</title>
<path fill="none" stroke="#c60077" d="M137.31,-160C187.96,-160 260,-160 260,-160 260,-160 260,-865.14 260,-865.14 260,-865.14 465.69,-865.14 580.99,-865.14"/>
</g>
<!-- Zamek#Zamek -->
<g id="node26" class="node">
<title>Zamek#Zamek</title>
<ellipse fill="none" stroke="black" cx="657.08" cy="-190" rx="81.49" ry="18"/>
<text text-anchor="middle" x="657.08" y="-186.3" font-family="Times,serif" font-size="14.00">Zamek#Zamek</text>
</g>
<!-- cytP450&#45;&#45;Zamek#Zamek -->
<g id="edge28" class="edge">
<title>cytP450&#45;&#45;Zamek#Zamek</title>
<path fill="none" stroke="#c60077" d="M89,-176.14C89,-178.16 89,-179.5 89,-179.5 89,-179.5 441.39,-179.5 591.08,-179.5"/>
</g>
<!-- Chciejlista#DIY -->
<g id="node27" class="node">
<title>Chciejlista#DIY</title>
<ellipse fill="none" stroke="black" cx="657.08" cy="-147" rx="83.69" ry="18"/>
<text text-anchor="middle" x="657.08" y="-143.3" font-family="Times,serif" font-size="14.00">Chciejlista#DIY</text>
</g>
<!-- cytP450&#45;&#45;Chciejlista#DIY -->
<g id="edge29" class="edge">
<title>cytP450&#45;&#45;Chciejlista#DIY</title>
<path fill="none" stroke="#c60077" d="M137.13,-155C236.33,-155 463.15,-155 581.72,-155"/>
</g>
<!-- Przegld&#45;lokali&#45;na&#45;wynajem&#45;w&#45;odzi.&#45;Fundusz&#45;1000&#45;&#45;&#45;1500.#Bot Aleksego -->
<g id="node28" class="node">
<title>Przegld&#45;lokali&#45;na&#45;wynajem&#45;w&#45;odzi.&#45;Fundusz&#45;1000&#45;&#45;&#45;1500.#Bot Aleksego</title>
<ellipse fill="none" stroke="black" cx="657.08" cy="-104" rx="351.74" ry="18"/>
<text text-anchor="middle" x="657.08" y="-100.3" font-family="Times,serif" font-size="14.00">Przegld&#45;lokali&#45;na&#45;wynajem&#45;w&#45;odzi.&#45;Fundusz&#45;1000&#45;&#45;&#45;1500.#Bot Aleksego</text>
</g>
<!-- cytP450&#45;&#45;Przegld&#45;lokali&#45;na&#45;wynajem&#45;w&#45;odzi.&#45;Fundusz&#45;1000&#45;&#45;&#45;1500.#Bot Aleksego -->
<g id="edge30" class="edge">
<title>cytP450&#45;&#45;Przegld&#45;lokali&#45;na&#45;wynajem&#45;w&#45;odzi.&#45;Fundusz&#45;1000&#45;&#45;&#45;1500.#Bot Aleksego</title>
<path fill="none" stroke="#c60077" d="M132.49,-150C203.78,-150 337,-150 337,-150 337,-150 337,-124.66 337,-111.6"/>
</g>
<!-- Chciejlista#Elektronika (w sensie urzdze konsumenckich) -->
<g id="node29" class="node">
<title>Chciejlista#Elektronika (w sensie urzdze konsumenckich)</title>
<ellipse fill="none" stroke="black" cx="657.08" cy="-233" rx="289.75" ry="18"/>
<text text-anchor="middle" x="657.08" y="-229.3" font-family="Times,serif" font-size="14.00">Chciejlista#Elektronika (w sensie urzdze konsumenckich)</text>
</g>
<!-- cytP450&#45;&#45;Chciejlista#Elektronika (w sensie urzdze konsumenckich) -->
<g id="edge32" class="edge">
<title>cytP450&#45;&#45;Chciejlista#Elektronika (w sensie urzdze konsumenckich)</title>
<path fill="none" stroke="#c60077" d="M131.41,-166.75C231.18,-166.75 471,-166.75 471,-166.75 471,-166.75 471,-199.5 471,-218.95"/>
</g>
<!-- Stowarzyszenie#Komisja Rewizyjna -->
<g id="node30" class="node">
<title>Stowarzyszenie#Komisja Rewizyjna</title>
<ellipse fill="none" stroke="black" cx="657.08" cy="-61" rx="178.17" ry="18"/>
<text text-anchor="middle" x="657.08" y="-57.3" font-family="Times,serif" font-size="14.00">Stowarzyszenie#Komisja Rewizyjna</text>
</g>
<!-- cytP450&#45;&#45;Stowarzyszenie#Komisja Rewizyjna -->
<g id="edge33" class="edge">
<title>cytP450&#45;&#45;Stowarzyszenie#Komisja Rewizyjna</title>
<path fill="none" stroke="#c60077" d="M122.61,-145C138.93,-145 155,-145 155,-145 155,-145 155,-67 155,-67 155,-67 342.94,-67 488.85,-67"/>
</g>
<!-- pmysl -->
<g id="node31" class="node">
<title>pmysl</title>
<ellipse fill="none" stroke="black" cx="88.67" cy="-1093" rx="38.19" ry="18"/>
<text text-anchor="middle" x="88.67" y="-1089.3" font-family="Times,serif" font-size="14.00">pmysl</text>
</g>
<!-- pmysl&#45;&#45;Infrastruktura::Github#Github -->
<g id="edge34" class="edge">
<title>pmysl&#45;&#45;Infrastruktura::Github#Github</title>
<path fill="none" stroke="#b6e400" d="M127.15,-1093C232.53,-1093 518,-1093 518,-1093 518,-1093 518,-1070.3 518,-1057.89"/>
</g>
<!-- pmysl&#45;&#45;Bazy&#45;danych#Grafana -->
<g id="edge35" class="edge">
<title>pmysl&#45;&#45;Bazy&#45;danych#Grafana</title>
<path fill="none" stroke="#b6e400" d="M125.09,-1099C209.2,-1099 419.63,-1099 549.21,-1099"/>
</g>
<!-- pmysl&#45;&#45;Infrastruktura::IRC#IRC -->
<g id="edge36" class="edge">
<title>pmysl&#45;&#45;Infrastruktura::IRC#IRC</title>
<path fill="none" stroke="#b6e400" d="M117.46,-1105C216.63,-1105 538,-1105 538,-1105 538,-1105 538,-1155.75 538,-1173.19"/>
</g>
<!-- pmysl&#45;&#45;Kanay&#45;komunikacji# -->
<g id="edge37" class="edge">
<title>pmysl&#45;&#45;Kanay&#45;komunikacji#</title>
<path fill="none" stroke="#b6e400" d="M124.87,-1087C196.4,-1087 349,-1087 349,-1087 349,-1087 349,-885.71 349,-885.71 349,-885.71 468.59,-885.71 558.76,-885.71"/>
</g>
<!-- pmysl&#45;&#45;Bazy&#45;danych# -->
<g id="edge38" class="edge">
<title>pmysl&#45;&#45;Bazy&#45;danych#</title>
<path fill="none" stroke="#b6e400" d="M89,-1111.25C89,-1125.18 89,-1142 89,-1142 89,-1142 430.55,-1142 583.98,-1142"/>
</g>
<!-- kszmigiel -->
<g id="node32" class="node">
<title>kszmigiel</title>
<ellipse fill="none" stroke="black" cx="88.67" cy="-1007" rx="54.69" ry="18"/>
<text text-anchor="middle" x="88.67" y="-1003.3" font-family="Times,serif" font-size="14.00">kszmigiel</text>
</g>
<!-- kszmigiel&#45;&#45;Infrastruktura::Github#Github -->
<g id="edge39" class="edge">
<title>kszmigiel&#45;&#45;Infrastruktura::Github#Github</title>
<path fill="none" stroke="#00ffff" d="M140.38,-1013C210.48,-1013 327,-1013 327,-1013 327,-1013 327,-1054.5 327,-1054.5 327,-1054.5 420.16,-1054.5 507.49,-1054.5"/>
</g>
<!-- kszmigiel&#45;&#45;Infrastruktura::Telegram#G贸wny: t.me/hakierspejs -->
<g id="edge40" class="edge">
<title>kszmigiel&#45;&#45;Infrastruktura::Telegram#G贸wny: t.me/hakierspejs</title>
<path fill="none" stroke="#00ffff" d="M140.37,-1001C203.93,-1001 316.15,-1001 419.8,-1001"/>
</g>
<!-- kszmigiel&#45;&#45;Marketing&#45;i&#45;media&#45;spoecznociowe# -->
<g id="edge41" class="edge">
<title>kszmigiel&#45;&#45;Marketing&#45;i&#45;media&#45;spoecznociowe#</title>
<path fill="none" stroke="#00ffff" d="M141,-1001.84C141,-992.56 141,-974 141,-974 141,-974 352.48,-974 504.68,-974"/>
</g>
<!-- kszmigiel&#45;&#45;Infrastruktura::Telegram#posty: t.me/hakierspejs_spam -->
<g id="edge43" class="edge">
<title>kszmigiel&#45;&#45;Infrastruktura::Telegram#posty: t.me/hakierspejs_spam</title>
<path fill="none" stroke="#00ffff" d="M135,-997.25C135,-941.83 135,-669 135,-669 135,-669 260.97,-669 389.16,-669"/>
</g>
<!-- Marketing&#45;i&#45;media&#45;spoecznociowe#Naklejki -->
<g id="node33" class="node">
<title>Marketing&#45;i&#45;media&#45;spoecznociowe#Naklejki</title>
<ellipse fill="none" stroke="black" cx="657.08" cy="-835" rx="221.76" ry="18"/>
<text text-anchor="middle" x="657.08" y="-831.3" font-family="Times,serif" font-size="14.00">Marketing&#45;i&#45;media&#45;spoecznociowe#Naklejki</text>
</g>
<!-- kszmigiel&#45;&#45;Marketing&#45;i&#45;media&#45;spoecznociowe#Naklejki -->
<g id="edge42" class="edge">
<title>kszmigiel&#45;&#45;Marketing&#45;i&#45;media&#45;spoecznociowe#Naklejki</title>
<path fill="none" stroke="#00ffff" d="M138,-998.99C138,-965.83 138,-841 138,-841 138,-841 303.67,-841 447.82,-841"/>
</g>
<!-- SP7Q -->
<g id="node34" class="node">
<title>SP7Q</title>
<ellipse fill="none" stroke="black" cx="88.67" cy="-964" rx="36.29" ry="18"/>
<text text-anchor="middle" x="88.67" y="-960.3" font-family="Times,serif" font-size="14.00">SP7Q</text>
</g>
<!-- SP7Q&#45;&#45;Infrastruktura::Github#Github -->
<g id="edge45" class="edge">
<title>SP7Q&#45;&#45;Infrastruktura::Github#Github</title>
<path fill="none" stroke="#ab00d5" d="M123.02,-970C190.09,-970 332,-970 332,-970 332,-970 332,-1045.5 332,-1045.5 332,-1045.5 422.4,-1045.5 507.86,-1045.5"/>
</g>
<!-- SP7Q&#45;&#45;Marketing&#45;i&#45;media&#45;spoecznociowe# -->
<g id="edge44" class="edge">
<title>SP7Q&#45;&#45;Marketing&#45;i&#45;media&#45;spoecznociowe#</title>
<path fill="none" stroke="#ab00d5" d="M125.09,-966C194.43,-966 349.65,-966 474.63,-966"/>
</g>
<!-- SP7Q&#45;&#45;Stowarzyszenie#Zarzd -->
<g id="edge46" class="edge">
<title>SP7Q&#45;&#45;Stowarzyszenie#Zarzd</title>
<path fill="none" stroke="#ab00d5" d="M123.41,-958C179.31,-958 283,-958 283,-958 283,-958 283,-548 283,-548 283,-548 469.48,-548 579.12,-548"/>
</g>
<!-- kpc -->
<g id="node35" class="node">
<title>kpc</title>
<ellipse fill="none" stroke="black" cx="88.67" cy="-373" rx="27" ry="18"/>
<text text-anchor="middle" x="88.67" y="-369.3" font-family="Times,serif" font-size="14.00">kpc</text>
</g>
<!-- kpc&#45;&#45;Miejsce::Miejsce#Klucze do spejsu -->
<g id="edge47" class="edge">
<title>kpc&#45;&#45;Miejsce::Miejsce#Klucze do spejsu</title>
<path fill="none" stroke="#f29100" d="M111.52,-363.33C142.5,-363.33 194,-363.33 194,-363.33 194,-363.33 194,-284 194,-284 194,-284 367.34,-284 501.92,-284"/>
</g>
<!-- kpc&#45;&#45;Marketing&#45;i&#45;media&#45;spoecznociowe# -->
<g id="edge50" class="edge">
<title>kpc&#45;&#45;Marketing&#45;i&#45;media&#45;spoecznociowe#</title>
<path fill="none" stroke="#f29100" d="M115.5,-375.83C161.15,-375.83 249,-375.83 249,-375.83 249,-375.83 249,-950 249,-950 249,-950 421.1,-950 541.78,-950"/>
</g>
<!-- kpc&#45;&#45;Infrastruktura::Telegram#posty: t.me/hakierspejs_spam -->
<g id="edge51" class="edge">
<title>kpc&#45;&#45;Infrastruktura::Telegram#posty: t.me/hakierspejs_spam</title>
<path fill="none" stroke="#f29100" d="M110.64,-383.5C178.63,-383.5 381,-383.5 381,-383.5 381,-383.5 381,-623.05 381,-658.61"/>
</g>
<!-- kpc&#45;&#45;Stowarzyszenie#Komisja Rewizyjna -->
<g id="edge52" class="edge">
<title>kpc&#45;&#45;Stowarzyszenie#Komisja Rewizyjna</title>
<path fill="none" stroke="#f29100" d="M106.34,-359.17C130.8,-359.17 172,-359.17 172,-359.17 172,-359.17 172,-73 172,-73 172,-73 380.6,-73 524.21,-73"/>
</g>
<!-- Infrastruktura::Telegram#Posty wyklte (celowo bez linka) -->
<g id="node36" class="node">
<title>Infrastruktura::Telegram#Posty wyklte (celowo bez linka)</title>
<ellipse fill="none" stroke="black" cx="657.08" cy="-319" rx="284.05" ry="18"/>
<text text-anchor="middle" x="657.08" y="-315.3" font-family="Times,serif" font-size="14.00">Infrastruktura::Telegram#Posty wyklte (celowo bez linka)</text>
</g>
<!-- kpc&#45;&#45;Infrastruktura::Telegram#Posty wyklte (celowo bez linka) -->
<g id="edge48" class="edge">
<title>kpc&#45;&#45;Infrastruktura::Telegram#Posty wyklte (celowo bez linka)</title>
<path fill="none" stroke="#f29100" d="M114.45,-367.5C187.06,-367.5 388,-367.5 388,-367.5 388,-367.5 388,-337.9 388,-324.95"/>
</g>
<!-- Czaty&#45;HS#HS: posty wyklte -->
<g id="node37" class="node">
<title>Czaty&#45;HS#HS: posty wyklte</title>
<ellipse fill="none" stroke="black" cx="657.08" cy="-362" rx="157.87" ry="18"/>
<text text-anchor="middle" x="657.08" y="-358.3" font-family="Times,serif" font-size="14.00">Czaty&#45;HS#HS: posty wyklte</text>
</g>
<!-- kpc&#45;&#45;Czaty&#45;HS#HS: posty wyklte -->
<g id="edge49" class="edge">
<title>kpc&#45;&#45;Czaty&#45;HS#HS: posty wyklte</title>
<path fill="none" stroke="#f29100" d="M115.7,-371.67C187.74,-371.67 388.05,-371.67 523.75,-371.67"/>
</g>
<!-- kujaw -->
<g id="node38" class="node">
<title>kujaw</title>
<ellipse fill="none" stroke="black" cx="88.67" cy="-534" rx="38.19" ry="18"/>
<text text-anchor="middle" x="88.67" y="-530.3" font-family="Times,serif" font-size="14.00">kujaw</text>
</g>
<!-- kujaw&#45;&#45;Miejsce::Miejsce#Klucze do spejsu -->
<g id="edge53" class="edge">
<title>kujaw&#45;&#45;Miejsce::Miejsce#Klucze do spejsu</title>
<path fill="none" stroke="#00c64f" d="M112.77,-520C146.85,-520 205,-520 205,-520 205,-520 205,-289 205,-289 205,-289 403.48,-289 537.41,-289"/>
</g>
<!-- kujaw&#45;&#45;Marketing&#45;i&#45;media&#45;spoecznociowe# -->
<g id="edge54" class="edge">
<title>kujaw&#45;&#45;Marketing&#45;i&#45;media&#45;spoecznociowe#</title>
<path fill="none" stroke="#00c64f" d="M127.13,-536C171.37,-536 238,-536 238,-536 238,-536 238,-954 238,-954 238,-954 384.77,-954 504.6,-954"/>
</g>
<!-- kujaw&#45;&#45;Stowarzyszenie#Zarzd -->
<g id="edge56" class="edge">
<title>kujaw&#45;&#45;Stowarzyszenie#Zarzd</title>
<path fill="none" stroke="#00c64f" d="M125.09,-528C207.36,-528 410.5,-528 540.61,-528"/>
</g>
<!-- kujaw&#45;&#45;Marketing&#45;i&#45;media&#45;spoecznociowe#Logo nr. 2 -->
<g id="edge57" class="edge">
<title>kujaw&#45;&#45;Marketing&#45;i&#45;media&#45;spoecznociowe#Logo nr. 2</title>
<path fill="none" stroke="#00c64f" d="M122,-525.07C122,-514.99 122,-500 122,-500 122,-500 306.01,-500 458.22,-500"/>
</g>
<!-- kujaw&#45;&#45;Marketing&#45;i&#45;media&#45;spoecznociowe#Naklejki -->
<g id="edge55" class="edge">
<title>kujaw&#45;&#45;Marketing&#45;i&#45;media&#45;spoecznociowe#Naklejki</title>
<path fill="none" stroke="#00c64f" d="M126.81,-532C186.19,-532 294,-532 294,-532 294,-532 294,-829 294,-829 294,-829 367.27,-829 447.98,-829"/>
</g>
<!-- Piotrek_P -->
<g id="node39" class="node">
<title>Piotrek_P</title>
<ellipse fill="none" stroke="black" cx="88.67" cy="-201" rx="55.49" ry="18"/>
<text text-anchor="middle" x="88.67" y="-197.3" font-family="Times,serif" font-size="14.00">Piotrek_P</text>
</g>
<!-- Piotrek_P&#45;&#45;Miejsce::Miejsce#Klucze do spejsu -->
<g id="edge58" class="edge">
<title>Piotrek_P&#45;&#45;Miejsce::Miejsce#Klucze do spejsu</title>
<path fill="none" stroke="#2e00e4" d="M139,-208.82C139,-225.86 139,-264.8 139,-264.8 139,-264.8 368.14,-264.8 521.64,-264.8"/>
</g>
<!-- polimerek -->
<g id="node40" class="node">
<title>polimerek</title>
<ellipse fill="none" stroke="black" cx="88.67" cy="-330" rx="57.39" ry="18"/>
<text text-anchor="middle" x="88.67" y="-326.3" font-family="Times,serif" font-size="14.00">polimerek</text>
</g>
<!-- polimerek&#45;&#45;Miejsce::Miejsce#Klucze do spejsu -->
<g id="edge59" class="edge">
<title>polimerek&#45;&#45;Miejsce::Miejsce#Klucze do spejsu</title>
<path fill="none" stroke="#ff0000" d="M143.27,-324.5C164.13,-324.5 183,-324.5 183,-324.5 183,-324.5 183,-279 183,-279 183,-279 350.68,-279 486.6,-279"/>
</g>
<!-- kotlovecrafta -->
<g id="node41" class="node">
<title>kotlovecrafta</title>
<ellipse fill="none" stroke="black" cx="88.67" cy="-287" rx="71.49" ry="18"/>
<text text-anchor="middle" x="88.67" y="-283.3" font-family="Times,serif" font-size="14.00">kotlovecrafta</text>
</g>
<!-- kotlovecrafta&#45;&#45;Miejsce::Miejsce#Klucze do spejsu -->
<g id="edge60" class="edge">
<title>kotlovecrafta&#45;&#45;Miejsce::Miejsce#Klucze do spejsu</title>
<path fill="none" stroke="#2bd500" d="M138.61,-274C215.35,-274 365.86,-274 485.03,-274"/>
</g>
<!-- sp7adg -->
<g id="node42" class="node">
<title>sp7adg</title>
<ellipse fill="none" stroke="black" cx="88.67" cy="-244" rx="44.39" ry="18"/>
<text text-anchor="middle" x="88.67" y="-240.3" font-family="Times,serif" font-size="14.00">sp7adg</text>
</g>
<!-- sp7adg&#45;&#45;Miejsce::Miejsce#Klucze do spejsu -->
<g id="edge61" class="edge">
<title>sp7adg&#45;&#45;Miejsce::Miejsce#Klucze do spejsu</title>
<path fill="none" stroke="#0061f2" d="M89,-262.33C89,-264.63 89,-266.2 89,-266.2 89,-266.2 343.58,-266.2 511.89,-266.2"/>
</g>
<!-- Polimerek -->
<g id="node43" class="node">
<title>Polimerek</title>
<ellipse fill="none" stroke="black" cx="88.67" cy="-577" rx="57.39" ry="18"/>
<text text-anchor="middle" x="88.67" y="-573.3" font-family="Times,serif" font-size="14.00">Polimerek</text>
</g>
<!-- Polimerek&#45;&#45;Stowarzyszenie#Zarzd -->
<g id="edge62" class="edge">
<title>Polimerek&#45;&#45;Stowarzyszenie#Zarzd</title>
<path fill="none" stroke="#c60077" d="M142,-570.21C142,-559.53 142,-540 142,-540 142,-540 388.58,-540 540.52,-540"/>
</g>
<!-- kasesag -->
<g id="node44" class="node">
<title>kasesag</title>
<ellipse fill="none" stroke="black" cx="88.67" cy="-437" rx="48.19" ry="18"/>
<text text-anchor="middle" x="88.67" y="-433.3" font-family="Times,serif" font-size="14.00">kasesag</text>
</g>
<!-- kasesag&#45;&#45;Stowarzyszenie#Zarzd -->
<g id="edge64" class="edge">
<title>kasesag&#45;&#45;Stowarzyszenie#Zarzd</title>
<path fill="none" stroke="#b6e400" d="M132,-445.03C132,-466.57 132,-524 132,-524 132,-524 401.42,-524 554.28,-524"/>
</g>
<!-- Marketing&#45;i&#45;media&#45;spoecznociowe#Przycisk HS&#45;LDZ -->
<g id="node45" class="node">
<title>Marketing&#45;i&#45;media&#45;spoecznociowe#Przycisk HS&#45;LDZ</title>
<ellipse fill="none" stroke="black" cx="657.08" cy="-405" rx="261.85" ry="18"/>
<text text-anchor="middle" x="657.08" y="-401.3" font-family="Times,serif" font-size="14.00">Marketing&#45;i&#45;media&#45;spoecznociowe#Przycisk HS&#45;LDZ</text>
</g>
<!-- kasesag&#45;&#45;Marketing&#45;i&#45;media&#45;spoecznociowe#Przycisk HS&#45;LDZ -->
<g id="edge63" class="edge">
<title>kasesag&#45;&#45;Marketing&#45;i&#45;media&#45;spoecznociowe#Przycisk HS&#45;LDZ</title>
<path fill="none" stroke="#b6e400" d="M127.87,-426.5C213.77,-426.5 411,-426.5 411,-426.5 411,-426.5 411,-417.68 411,-411.33"/>
</g>
<!-- pzduniak -->
<g id="node46" class="node">
<title>pzduniak</title>
<ellipse fill="none" stroke="black" cx="88.67" cy="-104" rx="52.79" ry="18"/>
<text text-anchor="middle" x="88.67" y="-100.3" font-family="Times,serif" font-size="14.00">pzduniak</text>
</g>
<!-- pzduniak&#45;&#45;Stowarzyszenie#Komisja Rewizyjna -->
<g id="edge65" class="edge">
<title>pzduniak&#45;&#45;Stowarzyszenie#Komisja Rewizyjna</title>
<path fill="none" stroke="#00ffff" d="M136,-96.11C136,-83.7 136,-61 136,-61 136,-61 327.95,-61 478.85,-61"/>
</g>
<!-- krcz -->
<g id="node47" class="node">
<title>krcz</title>
<ellipse fill="none" stroke="black" cx="88.67" cy="-61" rx="30.59" ry="18"/>
<text text-anchor="middle" x="88.67" y="-57.3" font-family="Times,serif" font-size="14.00">krcz</text>
</g>
<!-- krcz&#45;&#45;Stowarzyszenie#Komisja Rewizyjna -->
<g id="edge66" class="edge">
<title>krcz&#45;&#45;Stowarzyszenie#Komisja Rewizyjna</title>
<path fill="none" stroke="#ab00d5" d="M117.64,-55C185.17,-55 357.31,-55 489.14,-55"/>
</g>
<!-- PiotrP -->
<g id="node48" class="node">
<title>PiotrP</title>
<ellipse fill="none" stroke="black" cx="88.67" cy="-18" rx="40.09" ry="18"/>
<text text-anchor="middle" x="88.67" y="-14.3" font-family="Times,serif" font-size="14.00">PiotrP</text>
</g>
<!-- PiotrP&#45;&#45;Stowarzyszenie#Komisja Rewizyjna -->
<g id="edge67" class="edge">
<title>PiotrP&#45;&#45;Stowarzyszenie#Komisja Rewizyjna</title>
<path fill="none" stroke="#f29100" d="M125,-25.82C125,-35.01 125,-49 125,-49 125,-49 366.59,-49 524.19,-49"/>
</g>
<!-- BluRaf -->
<g id="node49" class="node">
<title>BluRaf</title>
<ellipse fill="none" stroke="black" cx="88.67" cy="-1179" rx="42.49" ry="18"/>
<text text-anchor="middle" x="88.67" y="-1175.3" font-family="Times,serif" font-size="14.00">BluRaf</text>
</g>
<!-- BluRaf&#45;&#45;Infrastruktura::IRC#IRC -->
<g id="edge68" class="edge">
<title>BluRaf&#45;&#45;Infrastruktura::IRC#IRC</title>
<path fill="none" stroke="#00c64f" d="M125.53,-1188C209.85,-1188 419.48,-1188 548.87,-1188"/>
</g>
<!-- biniu -->
<g id="node50" class="node">
<title>biniu</title>
<ellipse fill="none" stroke="black" cx="88.67" cy="-878" rx="34.39" ry="18"/>
<text text-anchor="middle" x="88.67" y="-874.3" font-family="Times,serif" font-size="14.00">biniu</text>
</g>
<!-- biniu&#45;&#45;Marketing&#45;i&#45;media&#45;spoecznociowe# -->
<g id="edge69" class="edge">
<title>biniu&#45;&#45;Marketing&#45;i&#45;media&#45;spoecznociowe#</title>
<path fill="none" stroke="#2e00e4" d="M112.87,-890.86C203.27,-890.86 516,-890.86 516,-890.86 516,-890.86 516,-931.57 516,-952.25"/>
</g>
<!-- Keij0 -->
<g id="node51" class="node">
<title>Keij0</title>
<ellipse fill="none" stroke="black" cx="88.67" cy="-921" rx="34.39" ry="18"/>
<text text-anchor="middle" x="88.67" y="-917.3" font-family="Times,serif" font-size="14.00">Keij0</text>
</g>
<!-- Keij0&#45;&#45;Marketing&#45;i&#45;media&#45;spoecznociowe# -->
<g id="edge70" class="edge">
<title>Keij0&#45;&#45;Marketing&#45;i&#45;media&#45;spoecznociowe#</title>
<path fill="none" stroke="#ff0000" d="M121.23,-927C217.65,-927 495,-927 495,-927 495,-927 495,-944.49 495,-955.42"/>
</g>
<!-- hslbridgebot -->
<g id="node52" class="node">
<title>hslbridgebot</title>
<ellipse fill="none" stroke="black" cx="88.67" cy="-1394" rx="69.59" ry="18"/>
<text text-anchor="middle" x="88.67" y="-1390.3" font-family="Times,serif" font-size="14.00">hslbridgebot</text>
</g>
<!-- Mostkowanie&#45;kana贸w#mautrix&#45;telegram (aktualnie u偶ywany) -->
<g id="node53" class="node">
<title>Mostkowanie&#45;kana贸w#mautrix&#45;telegram (aktualnie u偶ywany)</title>
<ellipse fill="none" stroke="black" cx="657.08" cy="-1373" rx="297.85" ry="18"/>
<text text-anchor="middle" x="657.08" y="-1369.3" font-family="Times,serif" font-size="14.00">Mostkowanie&#45;kana贸w#mautrix&#45;telegram (aktualnie u偶ywany)</text>
</g>
<!-- hslbridgebot&#45;&#45;Mostkowanie&#45;kana贸w#mautrix&#45;telegram (aktualnie u偶ywany) -->
<g id="edge71" class="edge">
<title>hslbridgebot&#45;&#45;Mostkowanie&#45;kana贸w#mautrix&#45;telegram (aktualnie u偶ywany)</title>
<path fill="none" stroke="#2bd500" d="M145.25,-1383.5C208.57,-1383.5 315.4,-1383.5 415.13,-1383.5"/>
</g>
<!-- telegrambot -->
<g id="node54" class="node">
<title>telegrambot</title>
<ellipse fill="none" stroke="black" cx="88.67" cy="-1351" rx="67.69" ry="18"/>
<text text-anchor="middle" x="88.67" y="-1347.3" font-family="Times,serif" font-size="14.00">telegrambot</text>
</g>
<!-- telegrambot&#45;&#45;Mostkowanie&#45;kana贸w#mautrix&#45;telegram (aktualnie u偶ywany) -->
<g id="edge72" class="edge">
<title>telegrambot&#45;&#45;Mostkowanie&#45;kana贸w#mautrix&#45;telegram (aktualnie u偶ywany)</title>
<path fill="none" stroke="#0061f2" d="M142.4,-1362C206.6,-1362 318.3,-1362 421.26,-1362"/>
</g>
</g>
</svg>
