<?xml version="1.0" encoding="UTF-8" standalone="no"?>
<!DOCTYPE svg PUBLIC "-//W3C//DTD SVG 1.1//EN"
 "http://www.w3.org/Graphics/SVG/1.1/DTD/svg11.dtd">
<!-- Generated by graphviz version 2.42.4 (0)
 -->
<!-- Pages: 1 -->
<svg width="1001pt" height="1420pt"
 viewBox="0.00 0.00 1000.82 1420.00" xmlns="http://www.w3.org/2000/svg" xmlns:xlink="http://www.w3.org/1999/xlink">
<g id="graph0" class="graph" transform="scale(1 1) rotate(0) translate(4 1416)">
<polygon fill="white" stroke="transparent" points="-4,4 -4,-1416 996.82,-1416 996.82,4 -4,4"/>
<!-- cytP450 -->
<g id="node1" class="node">
<title>cytP450</title>
<ellipse fill="none" stroke="black" cx="71.49" cy="-1093" rx="48.99" ry="18"/>
<text text-anchor="middle" x="71.49" y="-1089.3" font-family="Times,serif" font-size="14.00">cytP450</text>
</g>
<!-- Kanały&#45;komunikacji# -->
<g id="node2" class="node">
<title>Kanały&#45;komunikacji#</title>
<ellipse fill="none" stroke="black" cx="639.91" cy="-1007" rx="108.58" ry="18"/>
<text text-anchor="middle" x="639.91" y="-1003.3" font-family="Times,serif" font-size="14.00">Kanały&#45;komunikacji#</text>
</g>
<!-- cytP450&#45;&#45;Kanały&#45;komunikacji# -->
<g id="edge1" class="edge">
<title>cytP450&#45;&#45;Kanały&#45;komunikacji#</title>
<path fill="none" stroke="#ff0000" d="M102.82,-1078.88C102.82,-1056.65 102.82,-1016 102.82,-1016 102.82,-1016 391.71,-1016 545.74,-1016"/>
</g>
<!-- Zamek#Zamek -->
<g id="node3" class="node">
<title>Zamek#Zamek</title>
<ellipse fill="none" stroke="black" cx="639.91" cy="-1179" rx="81.49" ry="18"/>
<text text-anchor="middle" x="639.91" y="-1175.3" font-family="Times,serif" font-size="14.00">Zamek#Zamek</text>
</g>
<!-- cytP450&#45;&#45;Zamek#Zamek -->
<g id="edge2" class="edge">
<title>cytP450&#45;&#45;Zamek#Zamek</title>
<path fill="none" stroke="#ff0000" d="M119.26,-1096.6C181.04,-1096.6 280.82,-1096.6 280.82,-1096.6 280.82,-1096.6 280.82,-1179 280.82,-1179 280.82,-1179 452.48,-1179 558.42,-1179"/>
</g>
<!-- Przegląd&#45;lokali&#45;na&#45;wynajem&#45;w&#45;Łodzi.&#45;Fundusz&#45;1000&#45;&#45;&#45;1500.#Bot Aleksego -->
<g id="node4" class="node">
<title>Przegląd&#45;lokali&#45;na&#45;wynajem&#45;w&#45;Łodzi.&#45;Fundusz&#45;1000&#45;&#45;&#45;1500.#Bot Aleksego</title>
<ellipse fill="none" stroke="black" cx="639.91" cy="-1136" rx="351.74" ry="18"/>
<text text-anchor="middle" x="639.91" y="-1132.3" font-family="Times,serif" font-size="14.00">Przegląd&#45;lokali&#45;na&#45;wynajem&#45;w&#45;Łodzi.&#45;Fundusz&#45;1000&#45;&#45;&#45;1500.#Bot Aleksego</text>
</g>
<!-- cytP450&#45;&#45;Przegląd&#45;lokali&#45;na&#45;wynajem&#45;w&#45;Łodzi.&#45;Fundusz&#45;1000&#45;&#45;&#45;1500.#Bot Aleksego -->
<g id="edge3" class="edge">
<title>cytP450&#45;&#45;Przegląd&#45;lokali&#45;na&#45;wynajem&#45;w&#45;Łodzi.&#45;Fundusz&#45;1000&#45;&#45;&#45;1500.#Bot Aleksego</title>
<path fill="none" stroke="#ff0000" d="M119.48,-1089.4C198.86,-1089.4 348.82,-1089.4 348.82,-1089.4 348.82,-1089.4 348.82,-1111.93 348.82,-1125.66"/>
</g>
<!-- Chciejlista#DIY -->
<g id="node5" class="node">
<title>Chciejlista#DIY</title>
<ellipse fill="none" stroke="black" cx="639.91" cy="-1093" rx="83.69" ry="18"/>
<text text-anchor="middle" x="639.91" y="-1089.3" font-family="Times,serif" font-size="14.00">Chciejlista#DIY</text>
</g>
<!-- cytP450&#45;&#45;Chciejlista#DIY -->
<g id="edge4" class="edge">
<title>cytP450&#45;&#45;Chciejlista#DIY</title>
<path fill="none" stroke="#ff0000" d="M110.56,-1082.2C206.13,-1082.2 452.59,-1082.2 572.45,-1082.2"/>
</g>
<!-- Chciejlista#Elektronika (w sensie urządzeń konsumenckich) -->
<g id="node6" class="node">
<title>Chciejlista#Elektronika (w sensie urządzeń konsumenckich)</title>
<ellipse fill="none" stroke="black" cx="639.91" cy="-1222" rx="289.75" ry="18"/>
<text text-anchor="middle" x="639.91" y="-1218.3" font-family="Times,serif" font-size="14.00">Chciejlista#Elektronika (w sensie urządzeń konsumenckich)</text>
</g>
<!-- cytP450&#45;&#45;Chciejlista#Elektronika (w sensie urządzeń konsumenckich) -->
<g id="edge5" class="edge">
<title>cytP450&#45;&#45;Chciejlista#Elektronika (w sensie urządzeń konsumenckich)</title>
<path fill="none" stroke="#ff0000" d="M110.54,-1103.8C146.34,-1103.8 193.82,-1103.8 193.82,-1103.8 193.82,-1103.8 193.82,-1222 193.82,-1222 193.82,-1222 264.64,-1222 349.84,-1222"/>
</g>
<!-- Infrastruktura::Domeny#Domeny -->
<g id="node7" class="node">
<title>Infrastruktura::Domeny#Domeny</title>
<ellipse fill="none" stroke="black" cx="639.91" cy="-1050" rx="167.07" ry="18"/>
<text text-anchor="middle" x="639.91" y="-1046.3" font-family="Times,serif" font-size="14.00">Infrastruktura::Domeny#Domeny</text>
</g>
<!-- cytP450&#45;&#45;Infrastruktura::Domeny#Domeny -->
<g id="edge6" class="edge">
<title>cytP450&#45;&#45;Infrastruktura::Domeny#Domeny</title>
<path fill="none" stroke="#ff0000" d="M107.82,-1080.88C107.82,-1070.09 107.82,-1056 107.82,-1056 107.82,-1056 325.53,-1056 482.42,-1056"/>
</g>
<!-- d33tah -->
<g id="node8" class="node">
<title>d33tah</title>
<ellipse fill="none" stroke="black" cx="71.49" cy="-771" rx="43.59" ry="18"/>
<text text-anchor="middle" x="71.49" y="-767.3" font-family="Times,serif" font-size="14.00">d33tah</text>
</g>
<!-- d33tah&#45;&#45;Kanały&#45;komunikacji# -->
<g id="edge7" class="edge">
<title>d33tah&#45;&#45;Kanały&#45;komunikacji#</title>
<path fill="none" stroke="#2bd500" d="M100.04,-784.71C124.51,-784.71 155.82,-784.71 155.82,-784.71 155.82,-784.71 155.82,-1002.5 155.82,-1002.5 155.82,-1002.5 392.16,-1002.5 534.57,-1002.5"/>
</g>
<!-- d33tah&#45;&#45;Infrastruktura::Domeny#Domeny -->
<g id="edge20" class="edge">
<title>d33tah&#45;&#45;Infrastruktura::Domeny#Domeny</title>
<path fill="none" stroke="#2bd500" d="M92.48,-786.86C115.69,-786.86 149.82,-786.86 149.82,-786.86 149.82,-786.86 149.82,-1044 149.82,-1044 149.82,-1044 338.88,-1044 482.14,-1044"/>
</g>
<!-- Infrastruktura::Github#Github -->
<g id="node9" class="node">
<title>Infrastruktura::Github#Github</title>
<ellipse fill="none" stroke="black" cx="639.91" cy="-577" rx="154.07" ry="18"/>
<text text-anchor="middle" x="639.91" y="-573.3" font-family="Times,serif" font-size="14.00">Infrastruktura::Github#Github</text>
</g>
<!-- d33tah&#45;&#45;Infrastruktura::Github#Github -->
<g id="edge8" class="edge">
<title>d33tah&#45;&#45;Infrastruktura::Github#Github</title>
<path fill="none" stroke="#2bd500" d="M108.44,-761.4C160.68,-761.4 249.82,-761.4 249.82,-761.4 249.82,-761.4 249.82,-592.2 249.82,-592.2 249.82,-592.2 442.67,-592.2 557.18,-592.2"/>
</g>
<!-- Bazy&#45;danych#Grafana -->
<g id="node10" class="node">
<title>Bazy&#45;danych#Grafana</title>
<ellipse fill="none" stroke="black" cx="639.91" cy="-964" rx="114.28" ry="18"/>
<text text-anchor="middle" x="639.91" y="-960.3" font-family="Times,serif" font-size="14.00">Bazy&#45;danych#Grafana</text>
</g>
<!-- d33tah&#45;&#45;Bazy&#45;danych#Grafana -->
<g id="edge9" class="edge">
<title>d33tah&#45;&#45;Bazy&#45;danych#Grafana</title>
<path fill="none" stroke="#2bd500" d="M104.99,-782.57C133.14,-782.57 168.82,-782.57 168.82,-782.57 168.82,-782.57 168.82,-950.67 168.82,-950.67 168.82,-950.67 429.34,-950.67 562.91,-950.67"/>
</g>
<!-- Infrastruktura::IRC#IRC -->
<g id="node11" class="node">
<title>Infrastruktura::IRC#IRC</title>
<ellipse fill="none" stroke="black" cx="639.91" cy="-921" rx="124.58" ry="18"/>
<text text-anchor="middle" x="639.91" y="-917.3" font-family="Times,serif" font-size="14.00">Infrastruktura::IRC#IRC</text>
</g>
<!-- d33tah&#45;&#45;Infrastruktura::IRC#IRC -->
<g id="edge10" class="edge">
<title>d33tah&#45;&#45;Infrastruktura::IRC#IRC</title>
<path fill="none" stroke="#2bd500" d="M108.62,-780.43C142.33,-780.43 186.82,-780.43 186.82,-780.43 186.82,-780.43 186.82,-907.67 186.82,-907.67 186.82,-907.67 425.04,-907.67 556.01,-907.67"/>
</g>
<!-- Infrastruktura::Telegram#Główny: t.me/hakierspejs -->
<g id="node12" class="node">
<title>Infrastruktura::Telegram#Główny: t.me/hakierspejs</title>
<ellipse fill="none" stroke="black" cx="639.91" cy="-534" rx="251.56" ry="18"/>
<text text-anchor="middle" x="639.91" y="-530.3" font-family="Times,serif" font-size="14.00">Infrastruktura::Telegram#Główny: t.me/hakierspejs</text>
</g>
<!-- d33tah&#45;&#45;Infrastruktura::Telegram#Główny: t.me/hakierspejs -->
<g id="edge11" class="edge">
<title>d33tah&#45;&#45;Infrastruktura::Telegram#Główny: t.me/hakierspejs</title>
<path fill="none" stroke="#2bd500" d="M103.17,-758.6C151.43,-758.6 237.82,-758.6 237.82,-758.6 237.82,-758.6 237.82,-540 237.82,-540 237.82,-540 315.47,-540 402.53,-540"/>
</g>
<!-- Drzwi&#45;frontowe#Ekran  -->
<g id="node13" class="node">
<title>Drzwi&#45;frontowe#Ekran </title>
<ellipse fill="none" stroke="black" cx="639.91" cy="-792" rx="120.78" ry="18"/>
<text text-anchor="middle" x="639.91" y="-788.3" font-family="Times,serif" font-size="14.00">Drzwi&#45;frontowe#Ekran </text>
</g>
<!-- d33tah&#45;&#45;Drzwi&#45;frontowe#Ekran  -->
<g id="edge12" class="edge">
<title>d33tah&#45;&#45;Drzwi&#45;frontowe#Ekran </title>
<path fill="none" stroke="black" d="M113.29,-776.14C213.54,-776.14 467.79,-776.14 582.37,-776.14"/>
</g>
<!-- Infrastruktura::Telegram#HSŁ24: t.me/hsl_info -->
<g id="node17" class="node">
<title>Infrastruktura::Telegram#HSŁ24: t.me/hsl_info</title>
<ellipse fill="none" stroke="black" cx="639.91" cy="-749" rx="231.26" ry="18"/>
<text text-anchor="middle" x="639.91" y="-745.3" font-family="Times,serif" font-size="14.00">Infrastruktura::Telegram#HSŁ24: t.me/hsl_info</text>
</g>
<!-- d33tah&#45;&#45;Infrastruktura::Telegram#HSŁ24: t.me/hsl_info -->
<g id="edge13" class="edge">
<title>d33tah&#45;&#45;Infrastruktura::Telegram#HSŁ24: t.me/hsl_info</title>
<path fill="none" stroke="#2bd500" d="M111.92,-764.2C194.92,-764.2 387.51,-764.2 515.7,-764.2"/>
</g>
<!-- Infrastruktura::Telegram#Spacerspejs: t.me/joinchat/UYf2ONtNj21J1DS6 -->
<g id="node18" class="node">
<title>Infrastruktura::Telegram#Spacerspejs: t.me/joinchat/UYf2ONtNj21J1DS6</title>
<ellipse fill="none" stroke="black" cx="639.91" cy="-706" rx="352.84" ry="18"/>
<text text-anchor="middle" x="639.91" y="-702.3" font-family="Times,serif" font-size="14.00">Infrastruktura::Telegram#Spacerspejs: t.me/joinchat/UYf2ONtNj21J1DS6</text>
</g>
<!-- d33tah&#45;&#45;Infrastruktura::Telegram#Spacerspejs: t.me/joinchat/UYf2ONtNj21J1DS6 -->
<g id="edge14" class="edge">
<title>d33tah&#45;&#45;Infrastruktura::Telegram#Spacerspejs: t.me/joinchat/UYf2ONtNj21J1DS6</title>
<path fill="none" stroke="#2bd500" d="M93.82,-755.27C93.82,-736.03 93.82,-706 93.82,-706 93.82,-706 181.58,-706 286.74,-706"/>
</g>
<!-- Infrastruktura::Telegram#🦄posty: t.me/hakierspejs_spam -->
<g id="node19" class="node">
<title>Infrastruktura::Telegram#🦄posty: t.me/hakierspejs_spam</title>
<ellipse fill="none" stroke="black" cx="639.91" cy="-448" rx="284.05" ry="18"/>
<text text-anchor="middle" x="639.91" y="-444.3" font-family="Times,serif" font-size="14.00">Infrastruktura::Telegram#🦄posty: t.me/hakierspejs_spam</text>
</g>
<!-- d33tah&#45;&#45;Infrastruktura::Telegram#🦄posty: t.me/hakierspejs_spam -->
<g id="edge15" class="edge">
<title>d33tah&#45;&#45;Infrastruktura::Telegram#🦄posty: t.me/hakierspejs_spam</title>
<path fill="none" stroke="#2bd500" d="M95.12,-755.8C138.13,-755.8 224.82,-755.8 224.82,-755.8 224.82,-755.8 224.82,-457 224.82,-457 224.82,-457 304.27,-457 393.65,-457"/>
</g>
<!-- Bazy&#45;danych#Pad -->
<g id="node20" class="node">
<title>Bazy&#45;danych#Pad</title>
<ellipse fill="none" stroke="black" cx="639.91" cy="-663" rx="94.48" ry="18"/>
<text text-anchor="middle" x="639.91" y="-659.3" font-family="Times,serif" font-size="14.00">Bazy&#45;danych#Pad</text>
</g>
<!-- d33tah&#45;&#45;Bazy&#45;danych#Pad -->
<g id="edge16" class="edge">
<title>d33tah&#45;&#45;Bazy&#45;danych#Pad</title>
<path fill="none" stroke="#2bd500" d="M71.82,-752.68C71.82,-721.87 71.82,-663 71.82,-663 71.82,-663 383.92,-663 545.46,-663"/>
</g>
<!-- Infrastruktura::Mariuszbot#Mariuszbot -->
<g id="node21" class="node">
<title>Infrastruktura::Mariuszbot#Mariuszbot</title>
<ellipse fill="none" stroke="black" cx="639.91" cy="-878" rx="196.07" ry="18"/>
<text text-anchor="middle" x="639.91" y="-874.3" font-family="Times,serif" font-size="14.00">Infrastruktura::Mariuszbot#Mariuszbot</text>
</g>
<!-- d33tah&#45;&#45;Infrastruktura::Mariuszbot#Mariuszbot -->
<g id="edge17" class="edge">
<title>d33tah&#45;&#45;Infrastruktura::Mariuszbot#Mariuszbot</title>
<path fill="none" stroke="#2bd500" d="M111.59,-778.29C214.83,-778.29 481.82,-778.29 481.82,-778.29 481.82,-778.29 481.82,-841.61 481.82,-867.33"/>
</g>
<!-- Marketing&#45;i&#45;media&#45;społecznościowe# -->
<g id="node22" class="node">
<title>Marketing&#45;i&#45;media&#45;społecznościowe#</title>
<ellipse fill="none" stroke="black" cx="639.91" cy="-362" rx="183.07" ry="18"/>
<text text-anchor="middle" x="639.91" y="-358.3" font-family="Times,serif" font-size="14.00">Marketing&#45;i&#45;media&#45;społecznościowe#</text>
</g>
<!-- d33tah&#45;&#45;Marketing&#45;i&#45;media&#45;społecznościowe# -->
<g id="edge18" class="edge">
<title>d33tah&#45;&#45;Marketing&#45;i&#45;media&#45;społecznościowe#</title>
<path fill="none" stroke="#2bd500" d="M49.82,-755.14C49.82,-748.37 49.82,-742 49.82,-742 49.82,-742 218.82,-742 218.82,-742 218.82,-742 218.82,-376.73 218.82,-376.73 218.82,-376.73 409.74,-376.73 534.46,-376.73"/>
</g>
<!-- Bazy&#45;danych#Trello -->
<g id="node23" class="node">
<title>Bazy&#45;danych#Trello</title>
<ellipse fill="none" stroke="black" cx="639.91" cy="-835" rx="103.98" ry="18"/>
<text text-anchor="middle" x="639.91" y="-831.3" font-family="Times,serif" font-size="14.00">Bazy&#45;danych#Trello</text>
</g>
<!-- d33tah&#45;&#45;Bazy&#45;danych#Trello -->
<g id="edge19" class="edge">
<title>d33tah&#45;&#45;Bazy&#45;danych#Trello</title>
<path fill="none" stroke="#2bd500" d="M71.82,-789.17C71.82,-808.09 71.82,-835 71.82,-835 71.82,-835 371.71,-835 535.71,-835"/>
</g>
<!-- następne -->
<g id="node14" class="node">
<title>następne</title>
<ellipse fill="none" stroke="black" cx="71.49" cy="-1136" rx="53.09" ry="18"/>
<text text-anchor="middle" x="71.49" y="-1132.3" font-family="Times,serif" font-size="14.00">następne</text>
</g>
<!-- spotkanie -->
<g id="node15" class="node">
<title>spotkanie</title>
<ellipse fill="none" stroke="black" cx="71.49" cy="-1179" rx="55.79" ry="18"/>
<text text-anchor="middle" x="71.49" y="-1175.3" font-family="Times,serif" font-size="14.00">spotkanie</text>
</g>
<g id="node16" class="node">
<title></title>
<ellipse fill="none" stroke="#2bd500" cx="71.49" cy="-1222" rx="27" ry="18"/>
</g>
<!-- pmysl -->
<g id="node24" class="node">
<title>pmysl</title>
<ellipse fill="none" stroke="black" cx="71.49" cy="-942" rx="38.19" ry="18"/>
<text text-anchor="middle" x="71.49" y="-938.3" font-family="Times,serif" font-size="14.00">pmysl</text>
</g>
<!-- pmysl&#45;&#45;Kanały&#45;komunikacji# -->
<g id="edge21" class="edge">
<title>pmysl&#45;&#45;Kanały&#45;komunikacji#</title>
<path fill="none" stroke="#0061f2" d="M104.82,-951.04C104.82,-968.9 104.82,-1007 104.82,-1007 104.82,-1007 374.9,-1007 531.3,-1007"/>
</g>
<!-- pmysl&#45;&#45;Infrastruktura::Github#Github -->
<g id="edge22" class="edge">
<title>pmysl&#45;&#45;Infrastruktura::Github#Github</title>
<path fill="none" stroke="#0061f2" d="M92.97,-927C139.17,-927 243.82,-927 243.82,-927 243.82,-927 243.82,-575.5 243.82,-575.5 243.82,-575.5 374.87,-575.5 486.2,-575.5"/>
</g>
<!-- pmysl&#45;&#45;Bazy&#45;danych#Grafana -->
<g id="edge23" class="edge">
<title>pmysl&#45;&#45;Bazy&#45;danych#Grafana</title>
<path fill="none" stroke="#0061f2" d="M97.39,-955.33C174.44,-955.33 405.16,-955.33 539.62,-955.33"/>
</g>
<!-- pmysl&#45;&#45;Infrastruktura::IRC#IRC -->
<g id="edge24" class="edge">
<title>pmysl&#45;&#45;Infrastruktura::IRC#IRC</title>
<path fill="none" stroke="#0061f2" d="M107.92,-936C201.03,-936 448.97,-936 570.62,-936"/>
</g>
<!-- Bazy&#45;danych# -->
<g id="node25" class="node">
<title>Bazy&#45;danych#</title>
<ellipse fill="none" stroke="black" cx="639.91" cy="-620" rx="77.19" ry="18"/>
<text text-anchor="middle" x="639.91" y="-616.3" font-family="Times,serif" font-size="14.00">Bazy&#45;danych#</text>
</g>
<!-- pmysl&#45;&#45;Bazy&#45;danych# -->
<g id="edge25" class="edge">
<title>pmysl&#45;&#45;Bazy&#45;danych#</title>
<path fill="none" stroke="#0061f2" d="M104.87,-933C157.99,-933 255.82,-933 255.82,-933 255.82,-933 255.82,-627.5 255.82,-627.5 255.82,-627.5 458.58,-627.5 569.46,-627.5"/>
</g>
<!-- thinkofher -->
<g id="node26" class="node">
<title>thinkofher</title>
<ellipse fill="none" stroke="black" cx="71.49" cy="-599" rx="59.29" ry="18"/>
<text text-anchor="middle" x="71.49" y="-595.3" font-family="Times,serif" font-size="14.00">thinkofher</text>
</g>
<!-- thinkofher&#45;&#45;Kanały&#45;komunikacji# -->
<g id="edge26" class="edge">
<title>thinkofher&#45;&#45;Kanały&#45;komunikacji#</title>
<path fill="none" stroke="#c60077" d="M107.71,-613.25C132.85,-613.25 161.82,-613.25 161.82,-613.25 161.82,-613.25 161.82,-998 161.82,-998 161.82,-998 406.46,-998 545.74,-998"/>
</g>
<!-- thinkofher&#45;&#45;Infrastruktura::Github#Github -->
<g id="edge27" class="edge">
<title>thinkofher&#45;&#45;Infrastruktura::Github#Github</title>
<path fill="none" stroke="#c60077" d="M121.94,-589.4C212.55,-589.4 404.88,-589.4 527.97,-589.4"/>
</g>
<!-- thinkofher&#45;&#45;Infrastruktura::IRC#IRC -->
<g id="edge28" class="edge">
<title>thinkofher&#45;&#45;Infrastruktura::IRC#IRC</title>
<path fill="none" stroke="#c60077" d="M119.83,-609.5C146.72,-609.5 174.82,-609.5 174.82,-609.5 174.82,-609.5 174.82,-930 174.82,-930 174.82,-930 394.34,-930 531.75,-930"/>
</g>
<!-- thinkofher&#45;&#45;Infrastruktura::Telegram#Główny: t.me/hakierspejs -->
<g id="edge29" class="edge">
<title>thinkofher&#45;&#45;Infrastruktura::Telegram#Główny: t.me/hakierspejs</title>
<path fill="none" stroke="#c60077" d="M114.59,-586.6C211.43,-586.6 437.82,-586.6 437.82,-586.6 437.82,-586.6 437.82,-560.31 437.82,-544.9"/>
</g>
<!-- thinkofher&#45;&#45;Marketing&#45;i&#45;media&#45;społecznościowe# -->
<g id="edge30" class="edge">
<title>thinkofher&#45;&#45;Marketing&#45;i&#45;media&#45;społecznościowe#</title>
<path fill="none" stroke="#c60077" d="M103.21,-583.8C144.88,-583.8 212.82,-583.8 212.82,-583.8 212.82,-583.8 212.82,-373.45 212.82,-373.45 212.82,-373.45 373.97,-373.45 498.29,-373.45"/>
</g>
<!-- thinkofher&#45;&#45;Bazy&#45;danych# -->
<g id="edge31" class="edge">
<title>thinkofher&#45;&#45;Bazy&#45;danych#</title>
<path fill="none" stroke="#c60077" d="M126.51,-605.75C237.82,-605.75 487.99,-605.75 592.56,-605.75"/>
</g>
<!-- hakierspejs -->
<g id="node27" class="node">
<title>hakierspejs</title>
<ellipse fill="none" stroke="black" cx="71.49" cy="-1265" rx="63.89" ry="18"/>
<text text-anchor="middle" x="71.49" y="-1261.3" font-family="Times,serif" font-size="14.00">hakierspejs</text>
</g>
<!-- Regulamin_składek# -->
<g id="node28" class="node">
<title>Regulamin_składek#</title>
<ellipse fill="none" stroke="black" cx="639.91" cy="-1265" rx="107.78" ry="18"/>
<text text-anchor="middle" x="639.91" y="-1261.3" font-family="Times,serif" font-size="14.00">Regulamin_składek#</text>
</g>
<!-- hakierspejs&#45;&#45;Regulamin_składek# -->
<g id="edge32" class="edge">
<title>hakierspejs&#45;&#45;Regulamin_składek#</title>
<path fill="none" stroke="#b6e400" d="M135.32,-1265C231.46,-1265 414.63,-1265 531.83,-1265"/>
</g>
<!-- biniu -->
<g id="node29" class="node">
<title>biniu</title>
<ellipse fill="none" stroke="black" cx="71.49" cy="-405" rx="34.39" ry="18"/>
<text text-anchor="middle" x="71.49" y="-401.3" font-family="Times,serif" font-size="14.00">biniu</text>
</g>
<!-- biniu&#45;&#45;Marketing&#45;i&#45;media&#45;społecznościowe# -->
<g id="edge33" class="edge">
<title>biniu&#45;&#45;Marketing&#45;i&#45;media&#45;społecznościowe#</title>
<path fill="none" stroke="#00ffff" d="M101.35,-396C108.36,-396 113.82,-396 113.82,-396 113.82,-396 113.82,-360.36 113.82,-360.36 113.82,-360.36 305.13,-360.36 457.02,-360.36"/>
</g>
<!-- kszmigiel -->
<g id="node30" class="node">
<title>kszmigiel</title>
<ellipse fill="none" stroke="black" cx="71.49" cy="-534" rx="54.69" ry="18"/>
<text text-anchor="middle" x="71.49" y="-530.3" font-family="Times,serif" font-size="14.00">kszmigiel</text>
</g>
<!-- kszmigiel&#45;&#45;Infrastruktura::Github#Github -->
<g id="edge34" class="edge">
<title>kszmigiel&#45;&#45;Infrastruktura::Github#Github</title>
<path fill="none" stroke="#ab00d5" d="M71.82,-552C71.82,-561 71.82,-570 71.82,-570 71.82,-570 329.39,-570 497.65,-570"/>
</g>
<!-- kszmigiel&#45;&#45;Infrastruktura::Telegram#Główny: t.me/hakierspejs -->
<g id="edge35" class="edge">
<title>kszmigiel&#45;&#45;Infrastruktura::Telegram#Główny: t.me/hakierspejs</title>
<path fill="none" stroke="#ab00d5" d="M123.19,-528C186.75,-528 298.97,-528 402.62,-528"/>
</g>
<!-- kszmigiel&#45;&#45;Infrastruktura::Telegram#🦄posty: t.me/hakierspejs_spam -->
<g id="edge36" class="edge">
<title>kszmigiel&#45;&#45;Infrastruktura::Telegram#🦄posty: t.me/hakierspejs_spam</title>
<path fill="none" stroke="#ab00d5" d="M118.82,-524.97C118.82,-503.75 118.82,-452.5 118.82,-452.5 118.82,-452.5 239.61,-452.5 364.87,-452.5"/>
</g>
<!-- kszmigiel&#45;&#45;Marketing&#45;i&#45;media&#45;społecznościowe# -->
<g id="edge38" class="edge">
<title>kszmigiel&#45;&#45;Marketing&#45;i&#45;media&#45;społecznościowe#</title>
<path fill="none" stroke="#ab00d5" d="M123.82,-528.55C123.82,-500.12 123.82,-370.18 123.82,-370.18 123.82,-370.18 325.42,-370.18 476.61,-370.18"/>
</g>
<!-- Marketing&#45;i&#45;media&#45;społecznościowe#Naklejki -->
<g id="node31" class="node">
<title>Marketing&#45;i&#45;media&#45;społecznościowe#Naklejki</title>
<ellipse fill="none" stroke="black" cx="639.91" cy="-405" rx="221.76" ry="18"/>
<text text-anchor="middle" x="639.91" y="-401.3" font-family="Times,serif" font-size="14.00">Marketing&#45;i&#45;media&#45;społecznościowe#Naklejki</text>
</g>
<!-- kszmigiel&#45;&#45;Marketing&#45;i&#45;media&#45;społecznościowe#Naklejki -->
<g id="edge37" class="edge">
<title>kszmigiel&#45;&#45;Marketing&#45;i&#45;media&#45;społecznościowe#Naklejki</title>
<path fill="none" stroke="#ab00d5" d="M124.82,-530.01C124.82,-509.19 124.82,-414 124.82,-414 124.82,-414 301.37,-414 447.74,-414"/>
</g>
<!-- Keij0 -->
<g id="node32" class="node">
<title>Keij0</title>
<ellipse fill="none" stroke="black" cx="71.49" cy="-362" rx="34.39" ry="18"/>
<text text-anchor="middle" x="71.49" y="-358.3" font-family="Times,serif" font-size="14.00">Keij0</text>
</g>
<!-- Keij0&#45;&#45;Marketing&#45;i&#45;media&#45;społecznościowe# -->
<g id="edge39" class="edge">
<title>Keij0&#45;&#45;Marketing&#45;i&#45;media&#45;społecznościowe#</title>
<path fill="none" stroke="#f29100" d="M104.93,-357.09C173.76,-357.09 335.56,-357.09 463.32,-357.09"/>
</g>
<!-- SP7Q -->
<g id="node33" class="node">
<title>SP7Q</title>
<ellipse fill="none" stroke="black" cx="71.49" cy="-491" rx="36.29" ry="18"/>
<text text-anchor="middle" x="71.49" y="-487.3" font-family="Times,serif" font-size="14.00">SP7Q</text>
</g>
<!-- SP7Q&#45;&#45;Infrastruktura::Github#Github -->
<g id="edge40" class="edge">
<title>SP7Q&#45;&#45;Infrastruktura::Github#Github</title>
<path fill="none" stroke="#00c64f" d="M100.63,-501.8C156.85,-501.8 274.82,-501.8 274.82,-501.8 274.82,-501.8 274.82,-564.5 274.82,-564.5 274.82,-564.5 421.47,-564.5 528.88,-564.5"/>
</g>
<!-- SP7Q&#45;&#45;Marketing&#45;i&#45;media&#45;społecznościowe# -->
<g id="edge41" class="edge">
<title>SP7Q&#45;&#45;Marketing&#45;i&#45;media&#45;społecznościowe#</title>
<path fill="none" stroke="#00c64f" d="M100.77,-480.2C111.84,-480.2 121.82,-480.2 121.82,-480.2 121.82,-480.2 121.82,-366.91 121.82,-366.91 121.82,-366.91 313.28,-366.91 463.42,-366.91"/>
</g>
<!-- kpc -->
<g id="node34" class="node">
<title>kpc</title>
<ellipse fill="none" stroke="black" cx="71.49" cy="-276" rx="27" ry="18"/>
<text text-anchor="middle" x="71.49" y="-272.3" font-family="Times,serif" font-size="14.00">kpc</text>
</g>
<!-- kpc&#45;&#45;Infrastruktura::Telegram#🦄posty: t.me/hakierspejs_spam -->
<g id="edge45" class="edge">
<title>kpc&#45;&#45;Infrastruktura::Telegram#🦄posty: t.me/hakierspejs_spam</title>
<path fill="none" stroke="#2e00e4" d="M93.09,-286.8C124.96,-286.8 180.82,-286.8 180.82,-286.8 180.82,-286.8 180.82,-434.5 180.82,-434.5 180.82,-434.5 325.07,-434.5 451.86,-434.5"/>
</g>
<!-- kpc&#45;&#45;Marketing&#45;i&#45;media&#45;społecznościowe# -->
<g id="edge43" class="edge">
<title>kpc&#45;&#45;Marketing&#45;i&#45;media&#45;społecznościowe#</title>
<path fill="none" stroke="#2e00e4" d="M98.1,-279.6C150.67,-279.6 262.82,-279.6 262.82,-279.6 262.82,-279.6 262.82,-350.55 262.82,-350.55 262.82,-350.55 391.42,-350.55 498.42,-350.55"/>
</g>
<!-- Infrastruktura::Telegram#Posty wyklęte (celowo bez linka) -->
<g id="node35" class="node">
<title>Infrastruktura::Telegram#Posty wyklęte (celowo bez linka)</title>
<ellipse fill="none" stroke="black" cx="639.91" cy="-276" rx="284.05" ry="18"/>
<text text-anchor="middle" x="639.91" y="-272.3" font-family="Times,serif" font-size="14.00">Infrastruktura::Telegram#Posty wyklęte (celowo bez linka)</text>
</g>
<!-- kpc&#45;&#45;Infrastruktura::Telegram#Posty wyklęte (celowo bez linka) -->
<g id="edge42" class="edge">
<title>kpc&#45;&#45;Infrastruktura::Telegram#Posty wyklęte (celowo bez linka)</title>
<path fill="none" stroke="#2e00e4" d="M98.15,-272.4C146.76,-272.4 254.71,-272.4 361.55,-272.4"/>
</g>
<!-- Miejsce::Miejsce#Klucze do spejsu -->
<g id="node36" class="node">
<title>Miejsce::Miejsce#Klucze do spejsu</title>
<ellipse fill="none" stroke="black" cx="639.91" cy="-169" rx="172.77" ry="18"/>
<text text-anchor="middle" x="639.91" y="-165.3" font-family="Times,serif" font-size="14.00">Miejsce::Miejsce#Klucze do spejsu</text>
</g>
<!-- kpc&#45;&#45;Miejsce::Miejsce#Klucze do spejsu -->
<g id="edge44" class="edge">
<title>kpc&#45;&#45;Miejsce::Miejsce#Klucze do spejsu</title>
<path fill="none" stroke="#2e00e4" d="M93.26,-265.2C129.88,-265.2 199.82,-265.2 199.82,-265.2 199.82,-265.2 199.82,-181 199.82,-181 199.82,-181 380.99,-181 510.84,-181"/>
</g>
<!-- Polimerek -->
<g id="node37" class="node">
<title>Polimerek</title>
<ellipse fill="none" stroke="black" cx="71.49" cy="-319" rx="57.39" ry="18"/>
<text text-anchor="middle" x="71.49" y="-315.3" font-family="Times,serif" font-size="14.00">Polimerek</text>
</g>
<!-- Polimerek&#45;&#45;Marketing&#45;i&#45;media&#45;społecznościowe# -->
<g id="edge46" class="edge">
<title>Polimerek&#45;&#45;Marketing&#45;i&#45;media&#45;społecznościowe#</title>
<path fill="none" stroke="#ff0000" d="M111.82,-331.97C111.82,-341.86 111.82,-353.82 111.82,-353.82 111.82,-353.82 321.34,-353.82 476.43,-353.82"/>
</g>
<!-- kujaw -->
<g id="node38" class="node">
<title>kujaw</title>
<ellipse fill="none" stroke="black" cx="71.49" cy="-448" rx="38.19" ry="18"/>
<text text-anchor="middle" x="71.49" y="-444.3" font-family="Times,serif" font-size="14.00">kujaw</text>
</g>
<!-- kujaw&#45;&#45;Marketing&#45;i&#45;media&#45;społecznościowe# -->
<g id="edge49" class="edge">
<title>kujaw&#45;&#45;Marketing&#45;i&#45;media&#45;społecznościowe#</title>
<path fill="none" stroke="#2bd500" d="M104.77,-439C110.59,-439 114.82,-439 114.82,-439 114.82,-439 114.82,-363.64 114.82,-363.64 114.82,-363.64 305.77,-363.64 457.36,-363.64"/>
</g>
<!-- kujaw&#45;&#45;Marketing&#45;i&#45;media&#45;społecznościowe#Naklejki -->
<g id="edge48" class="edge">
<title>kujaw&#45;&#45;Marketing&#45;i&#45;media&#45;społecznościowe#Naklejki</title>
<path fill="none" stroke="#2bd500" d="M108.93,-443.5C113.63,-443.5 116.82,-443.5 116.82,-443.5 116.82,-443.5 116.82,-405 116.82,-405 116.82,-405 275.51,-405 418.07,-405"/>
</g>
<!-- kujaw&#45;&#45;Miejsce::Miejsce#Klucze do spejsu -->
<g id="edge47" class="edge">
<title>kujaw&#45;&#45;Miejsce::Miejsce#Klucze do spejsu</title>
<path fill="none" stroke="#2bd500" d="M109.99,-448C149.68,-448 205.82,-448 205.82,-448 205.82,-448 205.82,-184 205.82,-184 205.82,-184 416.28,-184 544.11,-184"/>
</g>
<!-- Marketing&#45;i&#45;media&#45;społecznościowe#Logo nr. 2 -->
<g id="node39" class="node">
<title>Marketing&#45;i&#45;media&#45;społecznościowe#Logo nr. 2</title>
<ellipse fill="none" stroke="black" cx="639.91" cy="-491" rx="229.36" ry="18"/>
<text text-anchor="middle" x="639.91" y="-487.3" font-family="Times,serif" font-size="14.00">Marketing&#45;i&#45;media&#45;społecznościowe#Logo nr. 2</text>
</g>
<!-- kujaw&#45;&#45;Marketing&#45;i&#45;media&#45;społecznościowe#Logo nr. 2 -->
<g id="edge50" class="edge">
<title>kujaw&#45;&#45;Marketing&#45;i&#45;media&#45;społecznościowe#Logo nr. 2</title>
<path fill="none" stroke="#2bd500" d="M97.07,-461.5C108.67,-461.5 119.82,-461.5 119.82,-461.5 119.82,-461.5 119.82,-487.4 119.82,-487.4 119.82,-487.4 274.26,-487.4 414.82,-487.4"/>
</g>
<!-- kotlovecrafta -->
<g id="node40" class="node">
<title>kotlovecrafta</title>
<ellipse fill="none" stroke="black" cx="71.49" cy="-233" rx="71.49" ry="18"/>
<text text-anchor="middle" x="71.49" y="-229.3" font-family="Times,serif" font-size="14.00">kotlovecrafta</text>
</g>
<!-- kotlovecrafta&#45;&#45;Marketing&#45;i&#45;media&#45;społecznościowe# -->
<g id="edge51" class="edge">
<title>kotlovecrafta&#45;&#45;Marketing&#45;i&#45;media&#45;społecznościowe#</title>
<path fill="none" stroke="#0061f2" d="M143.01,-233C199.49,-233 268.82,-233 268.82,-233 268.82,-233 268.82,-347.27 268.82,-347.27 268.82,-347.27 424.38,-347.27 534.07,-347.27"/>
</g>
<!-- kotlovecrafta&#45;&#45;Miejsce::Miejsce#Klucze do spejsu -->
<g id="edge52" class="edge">
<title>kotlovecrafta&#45;&#45;Miejsce::Miejsce#Klucze do spejsu</title>
<path fill="none" stroke="#0061f2" d="M136.82,-225.35C136.82,-210.24 136.82,-178 136.82,-178 136.82,-178 341.72,-178 489.99,-178"/>
</g>
<!-- q3k -->
<g id="node41" class="node">
<title>q3k</title>
<ellipse fill="none" stroke="black" cx="71.49" cy="-1007" rx="27.9" ry="18"/>
<text text-anchor="middle" x="71.49" y="-1003.3" font-family="Times,serif" font-size="14.00">q3k</text>
</g>
<!-- q3k&#45;&#45;Kanały&#45;komunikacji# -->
<g id="edge53" class="edge">
<title>q3k&#45;&#45;Kanały&#45;komunikacji#</title>
<path fill="none" stroke="#c60077" d="M98.91,-1011.5C176.47,-1011.5 400.51,-1011.5 534.72,-1011.5"/>
</g>
<!-- q3k&#45;&#45;Infrastruktura::Domeny#Domeny -->
<g id="edge55" class="edge">
<title>q3k&#45;&#45;Infrastruktura::Domeny#Domeny</title>
<path fill="none" stroke="#c60077" d="M90.23,-1020.5C172.16,-1020.5 494.82,-1020.5 494.82,-1020.5 494.82,-1020.5 494.82,-1032.31 494.82,-1040.99"/>
</g>
<!-- q3k&#45;&#45;Marketing&#45;i&#45;media&#45;społecznościowe#Logo nr. 2 -->
<g id="edge54" class="edge">
<title>q3k&#45;&#45;Marketing&#45;i&#45;media&#45;społecznościowe#Logo nr. 2</title>
<path fill="none" stroke="#c60077" d="M90.08,-993.5C132.11,-993.5 230.82,-993.5 230.82,-993.5 230.82,-993.5 230.82,-494.6 230.82,-494.6 230.82,-494.6 319.96,-494.6 415.02,-494.6"/>
</g>
<!-- kasesag -->
<g id="node42" class="node">
<title>kasesag</title>
<ellipse fill="none" stroke="black" cx="71.49" cy="-1308" rx="48.19" ry="18"/>
<text text-anchor="middle" x="71.49" y="-1304.3" font-family="Times,serif" font-size="14.00">kasesag</text>
</g>
<!-- Marketing&#45;i&#45;media&#45;społecznościowe#Przycisk HS&#45;LDZ -->
<g id="node43" class="node">
<title>Marketing&#45;i&#45;media&#45;społecznościowe#Przycisk HS&#45;LDZ</title>
<ellipse fill="none" stroke="black" cx="639.91" cy="-1308" rx="261.85" ry="18"/>
<text text-anchor="middle" x="639.91" y="-1304.3" font-family="Times,serif" font-size="14.00">Marketing&#45;i&#45;media&#45;społecznościowe#Przycisk HS&#45;LDZ</text>
</g>
<!-- kasesag&#45;&#45;Marketing&#45;i&#45;media&#45;społecznościowe#Przycisk HS&#45;LDZ -->
<g id="edge56" class="edge">
<title>kasesag&#45;&#45;Marketing&#45;i&#45;media&#45;społecznościowe#Przycisk HS&#45;LDZ</title>
<path fill="none" stroke="#b6e400" d="M119.96,-1308C177.95,-1308 279.55,-1308 377.64,-1308"/>
</g>
<!-- Piotrek_P -->
<g id="node44" class="node">
<title>Piotrek_P</title>
<ellipse fill="none" stroke="black" cx="71.49" cy="-104" rx="55.49" ry="18"/>
<text text-anchor="middle" x="71.49" y="-100.3" font-family="Times,serif" font-size="14.00">Piotrek_P</text>
</g>
<!-- Piotrek_P&#45;&#45;Miejsce::Miejsce#Klucze do spejsu -->
<g id="edge57" class="edge">
<title>Piotrek_P&#45;&#45;Miejsce::Miejsce#Klucze do spejsu</title>
<path fill="none" stroke="#00ffff" d="M116.82,-114.46C116.82,-129.55 116.82,-155.67 116.82,-155.67 116.82,-155.67 369.36,-155.67 523.49,-155.67"/>
</g>
<!-- polimerek -->
<g id="node45" class="node">
<title>polimerek</title>
<ellipse fill="none" stroke="black" cx="71.49" cy="-61" rx="57.39" ry="18"/>
<text text-anchor="middle" x="71.49" y="-57.3" font-family="Times,serif" font-size="14.00">polimerek</text>
</g>
<!-- polimerek&#45;&#45;Miejsce::Miejsce#Klucze do spejsu -->
<g id="edge58" class="edge">
<title>polimerek&#45;&#45;Miejsce::Miejsce#Klucze do spejsu</title>
<path fill="none" stroke="#ab00d5" d="M129.16,-61C262.88,-61 582.82,-61 582.82,-61 582.82,-61 582.82,-121.12 582.82,-151.65"/>
</g>
<!-- sp7adg -->
<g id="node46" class="node">
<title>sp7adg</title>
<ellipse fill="none" stroke="black" cx="71.49" cy="-18" rx="44.39" ry="18"/>
<text text-anchor="middle" x="71.49" y="-14.3" font-family="Times,serif" font-size="14.00">sp7adg</text>
</g>
<!-- sp7adg&#45;&#45;Miejsce::Miejsce#Klucze do spejsu -->
<g id="edge59" class="edge">
<title>sp7adg&#45;&#45;Miejsce::Miejsce#Klucze do spejsu</title>
<path fill="none" stroke="#f29100" d="M116.04,-18C259.13,-18 697.82,-18 697.82,-18 697.82,-18 697.82,-112.48 697.82,-151.97"/>
</g>
<!-- inoru -->
<g id="node47" class="node">
<title>inoru</title>
<ellipse fill="none" stroke="black" cx="71.49" cy="-190" rx="35.19" ry="18"/>
<text text-anchor="middle" x="71.49" y="-186.3" font-family="Times,serif" font-size="14.00">inoru</text>
</g>
<!-- inoru&#45;&#45;Miejsce::Miejsce#Klucze do spejsu -->
<g id="edge60" class="edge">
<title>inoru&#45;&#45;Miejsce::Miejsce#Klucze do spejsu</title>
<path fill="none" stroke="#00c64f" d="M91.06,-175C151.19,-175 337.59,-175 476.58,-175"/>
</g>
<!-- Octia -->
<g id="node48" class="node">
<title>Octia</title>
<ellipse fill="none" stroke="black" cx="71.49" cy="-147" rx="35.19" ry="18"/>
<text text-anchor="middle" x="71.49" y="-143.3" font-family="Times,serif" font-size="14.00">Octia</text>
</g>
<!-- Octia&#45;&#45;Miejsce::Miejsce#Klucze do spejsu -->
<g id="edge61" class="edge">
<title>Octia&#45;&#45;Miejsce::Miejsce#Klucze do spejsu</title>
<path fill="none" stroke="#2e00e4" d="M95.19,-160.33C161.17,-160.33 351.09,-160.33 488.12,-160.33"/>
</g>
<!-- hslbridgebot -->
<g id="node49" class="node">
<title>hslbridgebot</title>
<ellipse fill="none" stroke="black" cx="71.49" cy="-1394" rx="69.59" ry="18"/>
<text text-anchor="middle" x="71.49" y="-1390.3" font-family="Times,serif" font-size="14.00">hslbridgebot</text>
</g>
<!-- Mostkowanie&#45;kanałów#mautrix&#45;telegram (aktualnie używany) -->
<g id="node50" class="node">
<title>Mostkowanie&#45;kanałów#mautrix&#45;telegram (aktualnie używany)</title>
<ellipse fill="none" stroke="black" cx="639.91" cy="-1373" rx="297.85" ry="18"/>
<text text-anchor="middle" x="639.91" y="-1369.3" font-family="Times,serif" font-size="14.00">Mostkowanie&#45;kanałów#mautrix&#45;telegram (aktualnie używany)</text>
</g>
<!-- hslbridgebot&#45;&#45;Mostkowanie&#45;kanałów#mautrix&#45;telegram (aktualnie używany) -->
<g id="edge62" class="edge">
<title>hslbridgebot&#45;&#45;Mostkowanie&#45;kanałów#mautrix&#45;telegram (aktualnie używany)</title>
<path fill="none" stroke="#ff0000" d="M128.07,-1383.5C191.4,-1383.5 298.22,-1383.5 397.95,-1383.5"/>
</g>
<!-- telegrambot -->
<g id="node51" class="node">
<title>telegrambot</title>
<ellipse fill="none" stroke="black" cx="71.49" cy="-1351" rx="67.69" ry="18"/>
<text text-anchor="middle" x="71.49" y="-1347.3" font-family="Times,serif" font-size="14.00">telegrambot</text>
</g>
<!-- telegrambot&#45;&#45;Mostkowanie&#45;kanałów#mautrix&#45;telegram (aktualnie używany) -->
<g id="edge63" class="edge">
<title>telegrambot&#45;&#45;Mostkowanie&#45;kanałów#mautrix&#45;telegram (aktualnie używany)</title>
<path fill="none" stroke="#2bd500" d="M125.22,-1362C189.43,-1362 301.12,-1362 404.09,-1362"/>
</g>
<!-- BluRaf -->
<g id="node52" class="node">
<title>BluRaf</title>
<ellipse fill="none" stroke="black" cx="71.49" cy="-899" rx="42.49" ry="18"/>
<text text-anchor="middle" x="71.49" y="-895.3" font-family="Times,serif" font-size="14.00">BluRaf</text>
</g>
<!-- BluRaf&#45;&#45;Infrastruktura::IRC#IRC -->
<g id="edge64" class="edge">
<title>BluRaf&#45;&#45;Infrastruktura::IRC#IRC</title>
<path fill="none" stroke="#0061f2" d="M100.07,-912.33C177.85,-912.33 396.48,-912.33 530.45,-912.33"/>
</g>
</g>
</svg>
