<?xml version="1.0" encoding="UTF-8" standalone="no"?>
<!DOCTYPE svg PUBLIC "-//W3C//DTD SVG 1.1//EN"
 "http://www.w3.org/Graphics/SVG/1.1/DTD/svg11.dtd">
<!-- Generated by graphviz version 2.42.4 (0)
 -->
<!-- Pages: 1 -->
<svg width="1001pt" height="1377pt"
 viewBox="0.00 0.00 1000.82 1377.00" xmlns="http://www.w3.org/2000/svg" xmlns:xlink="http://www.w3.org/1999/xlink">
<g id="graph0" class="graph" transform="scale(1 1) rotate(0) translate(4 1373)">
<polygon fill="white" stroke="transparent" points="-4,4 -4,-1373 996.82,-1373 996.82,4 -4,4"/>
<!-- d33tah -->
<g id="node1" class="node">
<title>d33tah</title>
<ellipse fill="none" stroke="black" cx="71.49" cy="-921" rx="43.59" ry="18"/>
<text text-anchor="middle" x="71.49" y="-917.3" font-family="Times,serif" font-size="14.00">d33tah</text>
</g>
<!-- Infrastruktura::Mariuszbot#Mariuszbot -->
<g id="node2" class="node">
<title>Infrastruktura::Mariuszbot#Mariuszbot</title>
<ellipse fill="none" stroke="black" cx="639.91" cy="-1222" rx="196.07" ry="18"/>
<text text-anchor="middle" x="639.91" y="-1218.3" font-family="Times,serif" font-size="14.00">Infrastruktura::Mariuszbot#Mariuszbot</text>
</g>
<!-- d33tah&#45;&#45;Infrastruktura::Mariuszbot#Mariuszbot -->
<g id="edge1" class="edge">
<title>d33tah&#45;&#45;Infrastruktura::Mariuszbot#Mariuszbot</title>
<path fill="none" stroke="#ff0000" d="M99.8,-934.76C144.85,-934.76 227.82,-934.76 227.82,-934.76 227.82,-934.76 227.82,-1213.5 227.82,-1213.5 227.82,-1213.5 353.94,-1213.5 466.64,-1213.5"/>
</g>
<!-- Infrastruktura::IRC#IRC -->
<g id="node3" class="node">
<title>Infrastruktura::IRC#IRC</title>
<ellipse fill="none" stroke="black" cx="639.91" cy="-921" rx="124.58" ry="18"/>
<text text-anchor="middle" x="639.91" y="-917.3" font-family="Times,serif" font-size="14.00">Infrastruktura::IRC#IRC</text>
</g>
<!-- d33tah&#45;&#45;Infrastruktura::IRC#IRC -->
<g id="edge2" class="edge">
<title>d33tah&#45;&#45;Infrastruktura::IRC#IRC</title>
<path fill="none" stroke="#ff0000" d="M115.15,-922.06C199.71,-922.06 388.6,-922.06 515.14,-922.06"/>
</g>
<!-- Bazy&#45;danych#Trello -->
<g id="node4" class="node">
<title>Bazy&#45;danych#Trello</title>
<ellipse fill="none" stroke="black" cx="639.91" cy="-1179" rx="103.98" ry="18"/>
<text text-anchor="middle" x="639.91" y="-1175.3" font-family="Times,serif" font-size="14.00">Bazy&#45;danych#Trello</text>
</g>
<!-- d33tah&#45;&#45;Bazy&#45;danych#Trello -->
<g id="edge3" class="edge">
<title>d33tah&#45;&#45;Bazy&#45;danych#Trello</title>
<path fill="none" stroke="#ff0000" d="M104.75,-932.65C153.81,-932.65 239.82,-932.65 239.82,-932.65 239.82,-932.65 239.82,-1174 239.82,-1174 239.82,-1174 421.48,-1174 539.98,-1174"/>
</g>
<!-- Kanay&#45;komunikacji# -->
<g id="node5" class="node">
<title>Kanay&#45;komunikacji#</title>
<ellipse fill="none" stroke="black" cx="639.91" cy="-749" rx="108.58" ry="18"/>
<text text-anchor="middle" x="639.91" y="-745.3" font-family="Times,serif" font-size="14.00">Kanay&#45;komunikacji#</text>
</g>
<!-- d33tah&#45;&#45;Kanay&#45;komunikacji# -->
<g id="edge4" class="edge">
<title>d33tah&#45;&#45;Kanay&#45;komunikacji#</title>
<path fill="none" stroke="#ff0000" d="M111.24,-913.59C186.6,-913.59 342.82,-913.59 342.82,-913.59 342.82,-913.59 342.82,-762.5 342.82,-762.5 342.82,-762.5 480.07,-762.5 567.99,-762.5"/>
</g>
<!-- Infrastruktura::Domeny#Domeny -->
<g id="node6" class="node">
<title>Infrastruktura::Domeny#Domeny</title>
<ellipse fill="none" stroke="black" cx="639.91" cy="-706" rx="167.07" ry="18"/>
<text text-anchor="middle" x="639.91" y="-702.3" font-family="Times,serif" font-size="14.00">Infrastruktura::Domeny#Domeny</text>
</g>
<!-- d33tah&#45;&#45;Infrastruktura::Domeny#Domeny -->
<g id="edge5" class="edge">
<title>d33tah&#45;&#45;Infrastruktura::Domeny#Domeny</title>
<path fill="none" stroke="#ff0000" d="M108.64,-911.47C179.9,-911.47 328.82,-911.47 328.82,-911.47 328.82,-911.47 328.82,-709.6 328.82,-709.6 328.82,-709.6 401.22,-709.6 476.17,-709.6"/>
</g>
<!-- Bazy&#45;danych#Pad -->
<g id="node7" class="node">
<title>Bazy&#45;danych#Pad</title>
<ellipse fill="none" stroke="black" cx="639.91" cy="-1136" rx="94.48" ry="18"/>
<text text-anchor="middle" x="639.91" y="-1132.3" font-family="Times,serif" font-size="14.00">Bazy&#45;danych#Pad</text>
</g>
<!-- d33tah&#45;&#45;Bazy&#45;danych#Pad -->
<g id="edge6" class="edge">
<title>d33tah&#45;&#45;Bazy&#45;danych#Pad</title>
<path fill="none" stroke="#ff0000" d="M108.86,-930.53C161.68,-930.53 251.82,-930.53 251.82,-930.53 251.82,-930.53 251.82,-1136 251.82,-1136 251.82,-1136 430.59,-1136 545.47,-1136"/>
</g>
<!-- Marketing&#45;i&#45;media&#45;spoecznociowe# -->
<g id="node8" class="node">
<title>Marketing&#45;i&#45;media&#45;spoecznociowe#</title>
<ellipse fill="none" stroke="black" cx="639.91" cy="-534" rx="183.07" ry="18"/>
<text text-anchor="middle" x="639.91" y="-530.3" font-family="Times,serif" font-size="14.00">Marketing&#45;i&#45;media&#45;spoecznociowe#</text>
</g>
<!-- d33tah&#45;&#45;Marketing&#45;i&#45;media&#45;spoecznociowe# -->
<g id="edge7" class="edge">
<title>d33tah&#45;&#45;Marketing&#45;i&#45;media&#45;spoecznociowe#</title>
<path fill="none" stroke="#ff0000" d="M104.87,-909.35C174.08,-909.35 326.82,-909.35 326.82,-909.35 326.82,-909.35 326.82,-548.73 326.82,-548.73 326.82,-548.73 443.46,-548.73 534.35,-548.73"/>
</g>
<!-- Stowarzyszenie#Zarzd -->
<g id="node9" class="node">
<title>Stowarzyszenie#Zarzd</title>
<ellipse fill="none" stroke="black" cx="639.91" cy="-491" rx="123.48" ry="18"/>
<text text-anchor="middle" x="639.91" y="-487.3" font-family="Times,serif" font-size="14.00">Stowarzyszenie#Zarzd</text>
</g>
<!-- d33tah&#45;&#45;Stowarzyszenie#Zarzd -->
<g id="edge8" class="edge">
<title>d33tah&#45;&#45;Stowarzyszenie#Zarzd</title>
<path fill="none" stroke="#ff0000" d="M99.64,-907.24C161.7,-907.24 304.82,-907.24 304.82,-907.24 304.82,-907.24 304.82,-504.5 304.82,-504.5 304.82,-504.5 458.74,-504.5 557.94,-504.5"/>
</g>
<!-- Drzwi&#45;frontowe#Ekran  -->
<g id="node10" class="node">
<title>Drzwi&#45;frontowe#Ekran </title>
<ellipse fill="none" stroke="black" cx="639.91" cy="-1093" rx="120.78" ry="18"/>
<text text-anchor="middle" x="639.91" y="-1089.3" font-family="Times,serif" font-size="14.00">Drzwi&#45;frontowe#Ekran </text>
</g>
<!-- d33tah&#45;&#45;Drzwi&#45;frontowe#Ekran  -->
<g id="edge9" class="edge">
<title>d33tah&#45;&#45;Drzwi&#45;frontowe#Ekran </title>
<path fill="none" stroke="black" d="M111.34,-928.41C167.68,-928.41 263.82,-928.41 263.82,-928.41 263.82,-928.41 263.82,-1095.5 263.82,-1095.5 263.82,-1095.5 410.04,-1095.5 520.14,-1095.5"/>
</g>
<!-- Infrastruktura::Github#Github -->
<g id="node14" class="node">
<title>Infrastruktura::Github#Github</title>
<ellipse fill="none" stroke="black" cx="639.91" cy="-792" rx="154.07" ry="18"/>
<text text-anchor="middle" x="639.91" y="-788.3" font-family="Times,serif" font-size="14.00">Infrastruktura::Github#Github</text>
</g>
<!-- d33tah&#45;&#45;Infrastruktura::Github#Github -->
<g id="edge10" class="edge">
<title>d33tah&#45;&#45;Infrastruktura::Github#Github</title>
<path fill="none" stroke="#ff0000" d="M113.16,-915.71C190.36,-915.71 347.82,-915.71 347.82,-915.71 347.82,-915.71 347.82,-806 347.82,-806 347.82,-806 458.03,-806 543.05,-806"/>
</g>
<!-- Bazy&#45;danych#Grafana -->
<g id="node15" class="node">
<title>Bazy&#45;danych#Grafana</title>
<ellipse fill="none" stroke="black" cx="639.91" cy="-964" rx="114.28" ry="18"/>
<text text-anchor="middle" x="639.91" y="-960.3" font-family="Times,serif" font-size="14.00">Bazy&#45;danych#Grafana</text>
</g>
<!-- d33tah&#45;&#45;Bazy&#45;danych#Grafana -->
<g id="edge11" class="edge">
<title>d33tah&#45;&#45;Bazy&#45;danych#Grafana</title>
<path fill="none" stroke="#ff0000" d="M92.08,-936.88C106.36,-936.88 122.82,-936.88 122.82,-936.88 122.82,-936.88 122.82,-964 122.82,-964 122.82,-964 373.16,-964 525.47,-964"/>
</g>
<!-- Infrastruktura::Telegram#Spacerspejs: t.me/joinchat/UYf2ONtNj21J1DS6 -->
<g id="node16" class="node">
<title>Infrastruktura::Telegram#Spacerspejs: t.me/joinchat/UYf2ONtNj21J1DS6</title>
<ellipse fill="none" stroke="black" cx="639.91" cy="-1050" rx="352.84" ry="18"/>
<text text-anchor="middle" x="639.91" y="-1046.3" font-family="Times,serif" font-size="14.00">Infrastruktura::Telegram#Spacerspejs: t.me/joinchat/UYf2ONtNj21J1DS6</text>
</g>
<!-- d33tah&#45;&#45;Infrastruktura::Telegram#Spacerspejs: t.me/joinchat/UYf2ONtNj21J1DS6 -->
<g id="edge12" class="edge">
<title>d33tah&#45;&#45;Infrastruktura::Telegram#Spacerspejs: t.me/joinchat/UYf2ONtNj21J1DS6</title>
<path fill="none" stroke="#ff0000" d="M113.2,-926.29C177.07,-926.29 291.82,-926.29 291.82,-926.29 291.82,-926.29 291.82,-1027.89 291.82,-1046.94"/>
</g>
<!-- Infrastruktura::Telegram#HS24: t.me/hsl_info -->
<g id="node17" class="node">
<title>Infrastruktura::Telegram#HS24: t.me/hsl_info</title>
<ellipse fill="none" stroke="black" cx="639.91" cy="-1007" rx="231.26" ry="18"/>
<text text-anchor="middle" x="639.91" y="-1003.3" font-family="Times,serif" font-size="14.00">Infrastruktura::Telegram#HS24: t.me/hsl_info</text>
</g>
<!-- d33tah&#45;&#45;Infrastruktura::Telegram#HS24: t.me/hsl_info -->
<g id="edge13" class="edge">
<title>d33tah&#45;&#45;Infrastruktura::Telegram#HS24: t.me/hsl_info</title>
<path fill="none" stroke="#ff0000" d="M114.38,-924.18C215.78,-924.18 461.82,-924.18 461.82,-924.18 461.82,-924.18 461.82,-972.73 461.82,-995.48"/>
</g>
<!-- Infrastruktura::Telegram#G贸wny: t.me/hakierspejs -->
<g id="node18" class="node">
<title>Infrastruktura::Telegram#G贸wny: t.me/hakierspejs</title>
<ellipse fill="none" stroke="black" cx="639.91" cy="-835" rx="251.56" ry="18"/>
<text text-anchor="middle" x="639.91" y="-831.3" font-family="Times,serif" font-size="14.00">Infrastruktura::Telegram#G贸wny: t.me/hakierspejs</text>
</g>
<!-- d33tah&#45;&#45;Infrastruktura::Telegram#G贸wny: t.me/hakierspejs -->
<g id="edge14" class="edge">
<title>d33tah&#45;&#45;Infrastruktura::Telegram#G贸wny: t.me/hakierspejs</title>
<path fill="none" stroke="#ff0000" d="M115.3,-919.94C204.49,-919.94 398.82,-919.94 398.82,-919.94 398.82,-919.94 398.82,-859.47 398.82,-840.57"/>
</g>
<!-- Infrastruktura::Telegram#posty: t.me/hakierspejs_spam -->
<g id="node19" class="node">
<title>Infrastruktura::Telegram#posty: t.me/hakierspejs_spam</title>
<ellipse fill="none" stroke="black" cx="639.91" cy="-620" rx="284.05" ry="18"/>
<text text-anchor="middle" x="639.91" y="-616.3" font-family="Times,serif" font-size="14.00">Infrastruktura::Telegram#posty: t.me/hakierspejs_spam</text>
</g>
<!-- d33tah&#45;&#45;Infrastruktura::Telegram#posty: t.me/hakierspejs_spam -->
<g id="edge15" class="edge">
<title>d33tah&#45;&#45;Infrastruktura::Telegram#posty: t.me/hakierspejs_spam</title>
<path fill="none" stroke="#ff0000" d="M114.67,-917.82C197.99,-917.82 372.82,-917.82 372.82,-917.82 372.82,-917.82 372.82,-668.99 372.82,-626.22"/>
</g>
<!-- Miejsce::Miejsce#Klucze do spejsu -->
<g id="node20" class="node">
<title>Miejsce::Miejsce#Klucze do spejsu</title>
<ellipse fill="none" stroke="black" cx="639.91" cy="-255" rx="172.77" ry="18"/>
<text text-anchor="middle" x="639.91" y="-251.3" font-family="Times,serif" font-size="14.00">Miejsce::Miejsce#Klucze do spejsu</text>
</g>
<!-- d33tah&#45;&#45;Miejsce::Miejsce#Klucze do spejsu -->
<g id="edge16" class="edge">
<title>d33tah&#45;&#45;Miejsce::Miejsce#Klucze do spejsu</title>
<path fill="none" stroke="#ff0000" d="M92.17,-905.12C132.08,-905.12 215.82,-905.12 215.82,-905.12 215.82,-905.12 215.82,-270 215.82,-270 215.82,-270 419.13,-270 544.21,-270"/>
</g>
<!-- nastpne -->
<g id="node11" class="node">
<title>nastpne</title>
<ellipse fill="none" stroke="black" cx="71.49" cy="-1023" rx="53.09" ry="18"/>
<text text-anchor="middle" x="71.49" y="-1019.3" font-family="Times,serif" font-size="14.00">nastpne</text>
</g>
<!-- spotkanie -->
<g id="node12" class="node">
<title>spotkanie</title>
<ellipse fill="none" stroke="black" cx="71.49" cy="-1098" rx="55.79" ry="18"/>
<text text-anchor="middle" x="71.49" y="-1094.3" font-family="Times,serif" font-size="14.00">spotkanie</text>
</g>
<g id="node13" class="node">
<title></title>
<ellipse fill="none" stroke="#ff0000" cx="71.49" cy="-1205" rx="27" ry="18"/>
</g>
<!-- q3k -->
<g id="node21" class="node">
<title>q3k</title>
<ellipse fill="none" stroke="black" cx="71.49" cy="-792" rx="27.9" ry="18"/>
<text text-anchor="middle" x="71.49" y="-788.3" font-family="Times,serif" font-size="14.00">q3k</text>
</g>
<!-- q3k&#45;&#45;Kanay&#45;komunikacji# -->
<g id="edge18" class="edge">
<title>q3k&#45;&#45;Kanay&#45;komunikacji#</title>
<path fill="none" stroke="#2bd500" d="M94.86,-782C159.31,-782 334.82,-782 334.82,-782 334.82,-782 334.82,-749 334.82,-749 334.82,-749 443.44,-749 531.06,-749"/>
</g>
<!-- q3k&#45;&#45;Infrastruktura::Domeny#Domeny -->
<g id="edge17" class="edge">
<title>q3k&#45;&#45;Infrastruktura::Domeny#Domeny</title>
<path fill="none" stroke="#2bd500" d="M99.56,-790C191.81,-790 479.82,-790 479.82,-790 479.82,-790 479.82,-730.2 479.82,-711.51"/>
</g>
<!-- Marketing&#45;i&#45;media&#45;spoecznociowe#Logo nr. 2 -->
<g id="node22" class="node">
<title>Marketing&#45;i&#45;media&#45;spoecznociowe#Logo nr. 2</title>
<ellipse fill="none" stroke="black" cx="639.91" cy="-663" rx="229.36" ry="18"/>
<text text-anchor="middle" x="639.91" y="-659.3" font-family="Times,serif" font-size="14.00">Marketing&#45;i&#45;media&#45;spoecznociowe#Logo nr. 2</text>
</g>
<!-- q3k&#45;&#45;Marketing&#45;i&#45;media&#45;spoecznociowe#Logo nr. 2 -->
<g id="edge19" class="edge">
<title>q3k&#45;&#45;Marketing&#45;i&#45;media&#45;spoecznociowe#Logo nr. 2</title>
<path fill="none" stroke="#2bd500" d="M98.13,-786C183.04,-786 441.82,-786 441.82,-786 441.82,-786 441.82,-700.85 441.82,-672.24"/>
</g>
<!-- thinkofher -->
<g id="node23" class="node">
<title>thinkofher</title>
<ellipse fill="none" stroke="black" cx="71.49" cy="-835" rx="59.29" ry="18"/>
<text text-anchor="middle" x="71.49" y="-831.3" font-family="Times,serif" font-size="14.00">thinkofher</text>
</g>
<!-- thinkofher&#45;&#45;Infrastruktura::IRC#IRC -->
<g id="edge20" class="edge">
<title>thinkofher&#45;&#45;Infrastruktura::IRC#IRC</title>
<path fill="none" stroke="#0061f2" d="M117.82,-846.3C117.82,-859.04 117.82,-878 117.82,-878 117.82,-878 546.82,-878 546.82,-878 546.82,-878 546.82,-896.08 546.82,-908.79"/>
</g>
<!-- thinkofher&#45;&#45;Kanay&#45;komunikacji# -->
<g id="edge21" class="edge">
<title>thinkofher&#45;&#45;Kanay&#45;komunikacji#</title>
<path fill="none" stroke="#0061f2" d="M130.71,-835C208.91,-835 336.82,-835 336.82,-835 336.82,-835 336.82,-753.5 336.82,-753.5 336.82,-753.5 447.22,-753.5 534.75,-753.5"/>
</g>
<!-- thinkofher&#45;&#45;Marketing&#45;i&#45;media&#45;spoecznociowe# -->
<g id="edge23" class="edge">
<title>thinkofher&#45;&#45;Marketing&#45;i&#45;media&#45;spoecznociowe#</title>
<path fill="none" stroke="#0061f2" d="M122.86,-826C196.64,-826 323.82,-826 323.82,-826 323.82,-826 323.82,-545.45 323.82,-545.45 323.82,-545.45 414.35,-545.45 498.51,-545.45"/>
</g>
<!-- thinkofher&#45;&#45;Infrastruktura::Github#Github -->
<g id="edge24" class="edge">
<title>thinkofher&#45;&#45;Infrastruktura::Github#Github</title>
<path fill="none" stroke="#0061f2" d="M117.82,-823.7C117.82,-812.82 117.82,-798 117.82,-798 117.82,-798 340,-798 494.48,-798"/>
</g>
<!-- thinkofher&#45;&#45;Infrastruktura::Telegram#G贸wny: t.me/hakierspejs -->
<g id="edge25" class="edge">
<title>thinkofher&#45;&#45;Infrastruktura::Telegram#G贸wny: t.me/hakierspejs</title>
<path fill="none" stroke="#0061f2" d="M122.94,-844C190.44,-844 313.13,-844 422.04,-844"/>
</g>
<!-- Bazy&#45;danych# -->
<g id="node24" class="node">
<title>Bazy&#45;danych#</title>
<ellipse fill="none" stroke="black" cx="639.91" cy="-878" rx="77.19" ry="18"/>
<text text-anchor="middle" x="639.91" y="-874.3" font-family="Times,serif" font-size="14.00">Bazy&#45;danych#</text>
</g>
<!-- thinkofher&#45;&#45;Bazy&#45;danych# -->
<g id="edge22" class="edge">
<title>thinkofher&#45;&#45;Bazy&#45;danych#</title>
<path fill="none" stroke="#0061f2" d="M120.82,-845.12C120.82,-856.52 120.82,-873.5 120.82,-873.5 120.82,-873.5 421.23,-873.5 564.98,-873.5"/>
</g>
<!-- cytP450 -->
<g id="node25" class="node">
<title>cytP450</title>
<ellipse fill="none" stroke="black" cx="71.49" cy="-319" rx="48.99" ry="18"/>
<text text-anchor="middle" x="71.49" y="-315.3" font-family="Times,serif" font-size="14.00">cytP450</text>
</g>
<!-- cytP450&#45;&#45;Kanay&#45;komunikacji# -->
<g id="edge28" class="edge">
<title>cytP450&#45;&#45;Kanay&#45;komunikacji#</title>
<path fill="none" stroke="#c60077" d="M97.71,-334.2C122.47,-334.2 155.82,-334.2 155.82,-334.2 155.82,-334.2 155.82,-735.5 155.82,-735.5 155.82,-735.5 433.11,-735.5 567.96,-735.5"/>
</g>
<!-- cytP450&#45;&#45;Infrastruktura::Domeny#Domeny -->
<g id="edge30" class="edge">
<title>cytP450&#45;&#45;Infrastruktura::Domeny#Domeny</title>
<path fill="none" stroke="#c60077" d="M107.09,-331.4C134.53,-331.4 167.82,-331.4 167.82,-331.4 167.82,-331.4 167.82,-695.2 167.82,-695.2 167.82,-695.2 366.62,-695.2 506.2,-695.2"/>
</g>
<!-- cytP450&#45;&#45;Miejsce::Miejsce#Klucze do spejsu -->
<g id="edge33" class="edge">
<title>cytP450&#45;&#45;Miejsce::Miejsce#Klucze do spejsu</title>
<path fill="none" stroke="#c60077" d="M111.35,-308.5C219.74,-308.5 511.82,-308.5 511.82,-308.5 511.82,-308.5 511.82,-282.92 511.82,-267.14"/>
</g>
<!-- Stowarzyszenie#Komisja Rewizyjna -->
<g id="node26" class="node">
<title>Stowarzyszenie#Komisja Rewizyjna</title>
<ellipse fill="none" stroke="black" cx="639.91" cy="-104" rx="178.17" ry="18"/>
<text text-anchor="middle" x="639.91" y="-100.3" font-family="Times,serif" font-size="14.00">Stowarzyszenie#Komisja Rewizyjna</text>
</g>
<!-- cytP450&#45;&#45;Stowarzyszenie#Komisja Rewizyjna -->
<g id="edge26" class="edge">
<title>cytP450&#45;&#45;Stowarzyszenie#Komisja Rewizyjna</title>
<path fill="none" stroke="#c60077" d="M101.56,-304.75C117.5,-304.75 133.82,-304.75 133.82,-304.75 133.82,-304.75 133.82,-104 133.82,-104 133.82,-104 315.78,-104 461.48,-104"/>
</g>
<!-- Przegld&#45;lokali&#45;na&#45;wynajem&#45;w&#45;odzi.&#45;Fundusz&#45;1000&#45;&#45;&#45;1500.#Bot Aleksego -->
<g id="node27" class="node">
<title>Przegld&#45;lokali&#45;na&#45;wynajem&#45;w&#45;odzi.&#45;Fundusz&#45;1000&#45;&#45;&#45;1500.#Bot Aleksego</title>
<ellipse fill="none" stroke="black" cx="639.91" cy="-341" rx="351.74" ry="18"/>
<text text-anchor="middle" x="639.91" y="-337.3" font-family="Times,serif" font-size="14.00">Przegld&#45;lokali&#45;na&#45;wynajem&#45;w&#45;odzi.&#45;Fundusz&#45;1000&#45;&#45;&#45;1500.#Bot Aleksego</text>
</g>
<!-- cytP450&#45;&#45;Przegld&#45;lokali&#45;na&#45;wynajem&#45;w&#45;odzi.&#45;Fundusz&#45;1000&#45;&#45;&#45;1500.#Bot Aleksego -->
<g id="edge27" class="edge">
<title>cytP450&#45;&#45;Przegld&#45;lokali&#45;na&#45;wynajem&#45;w&#45;odzi.&#45;Fundusz&#45;1000&#45;&#45;&#45;1500.#Bot Aleksego</title>
<path fill="none" stroke="#c60077" d="M117.05,-325.8C188.97,-325.8 332.84,-325.8 451.49,-325.8"/>
</g>
<!-- Chciejlista#DIY -->
<g id="node28" class="node">
<title>Chciejlista#DIY</title>
<ellipse fill="none" stroke="black" cx="639.91" cy="-298" rx="83.69" ry="18"/>
<text text-anchor="middle" x="639.91" y="-294.3" font-family="Times,serif" font-size="14.00">Chciejlista#DIY</text>
</g>
<!-- cytP450&#45;&#45;Chciejlista#DIY -->
<g id="edge29" class="edge">
<title>cytP450&#45;&#45;Chciejlista#DIY</title>
<path fill="none" stroke="#c60077" d="M117.05,-312.25C221.63,-312.25 478.39,-312.25 588.45,-312.25"/>
</g>
<!-- Chciejlista#Elektronika (w sensie urzdze konsumenckich) -->
<g id="node29" class="node">
<title>Chciejlista#Elektronika (w sensie urzdze konsumenckich)</title>
<ellipse fill="none" stroke="black" cx="639.91" cy="-427" rx="289.75" ry="18"/>
<text text-anchor="middle" x="639.91" y="-423.3" font-family="Times,serif" font-size="14.00">Chciejlista#Elektronika (w sensie urzdze konsumenckich)</text>
</g>
<!-- cytP450&#45;&#45;Chciejlista#Elektronika (w sensie urzdze konsumenckich) -->
<g id="edge31" class="edge">
<title>cytP450&#45;&#45;Chciejlista#Elektronika (w sensie urzdze konsumenckich)</title>
<path fill="none" stroke="#c60077" d="M112.84,-328.6C172.55,-328.6 275.82,-328.6 275.82,-328.6 275.82,-328.6 275.82,-413.67 275.82,-413.67 275.82,-413.67 358.51,-413.67 445.07,-413.67"/>
</g>
<!-- Zamek#Zamek -->
<g id="node30" class="node">
<title>Zamek#Zamek</title>
<ellipse fill="none" stroke="black" cx="639.91" cy="-384" rx="81.49" ry="18"/>
<text text-anchor="middle" x="639.91" y="-380.3" font-family="Times,serif" font-size="14.00">Zamek#Zamek</text>
</g>
<!-- cytP450&#45;&#45;Zamek#Zamek -->
<g id="edge32" class="edge">
<title>cytP450&#45;&#45;Zamek#Zamek</title>
<path fill="none" stroke="#c60077" d="M109.82,-330.21C109.82,-345.41 109.82,-370.67 109.82,-370.67 109.82,-370.67 449.74,-370.67 585.17,-370.67"/>
</g>
<!-- pmysl -->
<g id="node31" class="node">
<title>pmysl</title>
<ellipse fill="none" stroke="black" cx="71.49" cy="-878" rx="38.19" ry="18"/>
<text text-anchor="middle" x="71.49" y="-874.3" font-family="Times,serif" font-size="14.00">pmysl</text>
</g>
<!-- pmysl&#45;&#45;Infrastruktura::IRC#IRC -->
<g id="edge34" class="edge">
<title>pmysl&#45;&#45;Infrastruktura::IRC#IRC</title>
<path fill="none" stroke="#b6e400" d="M104.97,-887C210.9,-887 531.82,-887 531.82,-887 531.82,-887 531.82,-901.64 531.82,-911.71"/>
</g>
<!-- pmysl&#45;&#45;Kanay&#45;komunikacji# -->
<g id="edge35" class="edge">
<title>pmysl&#45;&#45;Kanay&#45;komunikacji#</title>
<path fill="none" stroke="#b6e400" d="M97.22,-864.5C164.38,-864.5 339.82,-864.5 339.82,-864.5 339.82,-864.5 339.82,-758 339.82,-758 339.82,-758 457.78,-758 545.78,-758"/>
</g>
<!-- pmysl&#45;&#45;Infrastruktura::Github#Github -->
<g id="edge37" class="edge">
<title>pmysl&#45;&#45;Infrastruktura::Github#Github</title>
<path fill="none" stroke="#b6e400" d="M104.74,-869C177.58,-869 344.82,-869 344.82,-869 344.82,-869 344.82,-802 344.82,-802 344.82,-802 432.13,-802 511.77,-802"/>
</g>
<!-- pmysl&#45;&#45;Bazy&#45;danych#Grafana -->
<g id="edge38" class="edge">
<title>pmysl&#45;&#45;Bazy&#45;danych#Grafana</title>
<path fill="none" stroke="#b6e400" d="M97.24,-891.5C158.49,-891.5 307.82,-891.5 307.82,-891.5 307.82,-891.5 307.82,-955 307.82,-955 307.82,-955 442.87,-955 540.72,-955"/>
</g>
<!-- pmysl&#45;&#45;Bazy&#45;danych# -->
<g id="edge36" class="edge">
<title>pmysl&#45;&#45;Bazy&#45;danych#</title>
<path fill="none" stroke="#b6e400" d="M108.79,-882.5C201.04,-882.5 441.34,-882.5 564.59,-882.5"/>
</g>
<!-- kpc -->
<g id="node32" class="node">
<title>kpc</title>
<ellipse fill="none" stroke="black" cx="71.49" cy="-147" rx="27" ry="18"/>
<text text-anchor="middle" x="71.49" y="-143.3" font-family="Times,serif" font-size="14.00">kpc</text>
</g>
<!-- kpc&#45;&#45;Marketing&#45;i&#45;media&#45;spoecznociowe# -->
<g id="edge42" class="edge">
<title>kpc&#45;&#45;Marketing&#45;i&#45;media&#45;spoecznociowe#</title>
<path fill="none" stroke="#00ffff" d="M96.13,-154.71C131.34,-154.71 191.82,-154.71 191.82,-154.71 191.82,-154.71 191.82,-519.27 191.82,-519.27 191.82,-519.27 401.81,-519.27 534.28,-519.27"/>
</g>
<!-- kpc&#45;&#45;Infrastruktura::Telegram#posty: t.me/hakierspejs_spam -->
<g id="edge43" class="edge">
<title>kpc&#45;&#45;Infrastruktura::Telegram#posty: t.me/hakierspejs_spam</title>
<path fill="none" stroke="#00ffff" d="M90.61,-159.86C121.71,-159.86 179.82,-159.86 179.82,-159.86 179.82,-159.86 179.82,-611 179.82,-611 179.82,-611 284.31,-611 393.7,-611"/>
</g>
<!-- kpc&#45;&#45;Miejsce::Miejsce#Klucze do spejsu -->
<g id="edge44" class="edge">
<title>kpc&#45;&#45;Miejsce::Miejsce#Klucze do spejsu</title>
<path fill="none" stroke="#00ffff" d="M98.37,-149.57C159.93,-149.57 305.82,-149.57 305.82,-149.57 305.82,-149.57 305.82,-241.67 305.82,-241.67 305.82,-241.67 427.11,-241.67 523.53,-241.67"/>
</g>
<!-- kpc&#45;&#45;Stowarzyszenie#Komisja Rewizyjna -->
<g id="edge39" class="edge">
<title>kpc&#45;&#45;Stowarzyszenie#Komisja Rewizyjna</title>
<path fill="none" stroke="#00ffff" d="M90.79,-134.14C152.32,-134.14 339.82,-134.14 339.82,-134.14 339.82,-134.14 339.82,-113 339.82,-113 339.82,-113 411.94,-113 485.47,-113"/>
</g>
<!-- Czaty&#45;HS#HS: posty wyklte -->
<g id="node33" class="node">
<title>Czaty&#45;HS#HS: posty wyklte</title>
<ellipse fill="none" stroke="black" cx="639.91" cy="-190" rx="157.87" ry="18"/>
<text text-anchor="middle" x="639.91" y="-186.3" font-family="Times,serif" font-size="14.00">Czaty&#45;HS#HS: posty wyklte</text>
</g>
<!-- kpc&#45;&#45;Czaty&#45;HS#HS: posty wyklte -->
<g id="edge40" class="edge">
<title>kpc&#45;&#45;Czaty&#45;HS#HS: posty wyklte</title>
<path fill="none" stroke="#00ffff" d="M98.39,-144.43C163.23,-144.43 322.82,-144.43 322.82,-144.43 322.82,-144.43 322.82,-184 322.82,-184 322.82,-184 408.41,-184 490.65,-184"/>
</g>
<!-- Infrastruktura::Telegram#Posty wyklte (celowo bez linka) -->
<g id="node34" class="node">
<title>Infrastruktura::Telegram#Posty wyklte (celowo bez linka)</title>
<ellipse fill="none" stroke="black" cx="639.91" cy="-147" rx="284.05" ry="18"/>
<text text-anchor="middle" x="639.91" y="-143.3" font-family="Times,serif" font-size="14.00">Infrastruktura::Telegram#Posty wyklte (celowo bez linka)</text>
</g>
<!-- kpc&#45;&#45;Infrastruktura::Telegram#Posty wyklte (celowo bez linka) -->
<g id="edge41" class="edge">
<title>kpc&#45;&#45;Infrastruktura::Telegram#Posty wyklte (celowo bez linka)</title>
<path fill="none" stroke="#00ffff" d="M95.92,-139.29C146.54,-139.29 267.85,-139.29 383.09,-139.29"/>
</g>
<!-- BluRaf -->
<g id="node35" class="node">
<title>BluRaf</title>
<ellipse fill="none" stroke="black" cx="71.49" cy="-964" rx="42.49" ry="18"/>
<text text-anchor="middle" x="71.49" y="-960.3" font-family="Times,serif" font-size="14.00">BluRaf</text>
</g>
<!-- BluRaf&#45;&#45;Infrastruktura::IRC#IRC -->
<g id="edge45" class="edge">
<title>BluRaf&#45;&#45;Infrastruktura::IRC#IRC</title>
<path fill="none" stroke="#ab00d5" d="M108.26,-973C215.58,-973 520.82,-973 520.82,-973 520.82,-973 520.82,-939.98 520.82,-926.56"/>
</g>
<!-- kujaw -->
<g id="node36" class="node">
<title>kujaw</title>
<ellipse fill="none" stroke="black" cx="71.49" cy="-577" rx="38.19" ry="18"/>
<text text-anchor="middle" x="71.49" y="-573.3" font-family="Times,serif" font-size="14.00">kujaw</text>
</g>
<!-- kujaw&#45;&#45;Marketing&#45;i&#45;media&#45;spoecznociowe# -->
<g id="edge46" class="edge">
<title>kujaw&#45;&#45;Marketing&#45;i&#45;media&#45;spoecznociowe#</title>
<path fill="none" stroke="#f29100" d="M109.52,-574.43C176.81,-574.43 309.82,-574.43 309.82,-574.43 309.82,-574.43 309.82,-529.09 309.82,-529.09 309.82,-529.09 384.79,-529.09 463.27,-529.09"/>
</g>
<!-- kujaw&#45;&#45;Stowarzyszenie#Zarzd -->
<g id="edge47" class="edge">
<title>kujaw&#45;&#45;Stowarzyszenie#Zarzd</title>
<path fill="none" stroke="#f29100" d="M106.48,-569.29C170.91,-569.29 301.82,-569.29 301.82,-569.29 301.82,-569.29 301.82,-500 301.82,-500 301.82,-500 433.89,-500 532.93,-500"/>
</g>
<!-- kujaw&#45;&#45;Miejsce::Miejsce#Klucze do spejsu -->
<g id="edge50" class="edge">
<title>kujaw&#45;&#45;Miejsce::Miejsce#Klucze do spejsu</title>
<path fill="none" stroke="#f29100" d="M98.59,-564.14C137.31,-564.14 203.82,-564.14 203.82,-564.14 203.82,-564.14 203.82,-267 203.82,-267 203.82,-267 382.25,-267 510.84,-267"/>
</g>
<!-- kujaw&#45;&#45;Marketing&#45;i&#45;media&#45;spoecznociowe#Logo nr. 2 -->
<g id="edge48" class="edge">
<title>kujaw&#45;&#45;Marketing&#45;i&#45;media&#45;spoecznociowe#Logo nr. 2</title>
<path fill="none" stroke="#f29100" d="M98.58,-589.86C159.07,-589.86 299.82,-589.86 299.82,-589.86 299.82,-589.86 299.82,-669 299.82,-669 299.82,-669 356.49,-669 423.56,-669"/>
</g>
<!-- Marketing&#45;i&#45;media&#45;spoecznociowe#Naklejki -->
<g id="node37" class="node">
<title>Marketing&#45;i&#45;media&#45;spoecznociowe#Naklejki</title>
<ellipse fill="none" stroke="black" cx="639.91" cy="-577" rx="221.76" ry="18"/>
<text text-anchor="middle" x="639.91" y="-573.3" font-family="Times,serif" font-size="14.00">Marketing&#45;i&#45;media&#45;spoecznociowe#Naklejki</text>
</g>
<!-- kujaw&#45;&#45;Marketing&#45;i&#45;media&#45;spoecznociowe#Naklejki -->
<g id="edge49" class="edge">
<title>kujaw&#45;&#45;Marketing&#45;i&#45;media&#45;spoecznociowe#Naklejki</title>
<path fill="none" stroke="#f29100" d="M109.67,-579.57C173.02,-579.57 304.4,-579.57 420.53,-579.57"/>
</g>
<!-- Polimerek -->
<g id="node38" class="node">
<title>Polimerek</title>
<ellipse fill="none" stroke="black" cx="71.49" cy="-534" rx="57.39" ry="18"/>
<text text-anchor="middle" x="71.49" y="-530.3" font-family="Times,serif" font-size="14.00">Polimerek</text>
</g>
<!-- Polimerek&#45;&#45;Marketing&#45;i&#45;media&#45;spoecznociowe# -->
<g id="edge52" class="edge">
<title>Polimerek&#45;&#45;Marketing&#45;i&#45;media&#45;spoecznociowe#</title>
<path fill="none" stroke="#00c64f" d="M122.69,-525.82C201.69,-525.82 356.71,-525.82 476.53,-525.82"/>
</g>
<!-- Polimerek&#45;&#45;Stowarzyszenie#Zarzd -->
<g id="edge51" class="edge">
<title>Polimerek&#45;&#45;Stowarzyszenie#Zarzd</title>
<path fill="none" stroke="#00c64f" d="M119.82,-524.28C119.82,-512.88 119.82,-495.5 119.82,-495.5 119.82,-495.5 366.69,-495.5 520.26,-495.5"/>
</g>
<!-- Paliguma -->
<g id="node39" class="node">
<title>Paliguma</title>
<ellipse fill="none" stroke="black" cx="71.49" cy="-448" rx="53.89" ry="18"/>
<text text-anchor="middle" x="71.49" y="-444.3" font-family="Times,serif" font-size="14.00">Paliguma</text>
</g>
<!-- Paliguma&#45;&#45;Stowarzyszenie#Zarzd -->
<g id="edge53" class="edge">
<title>Paliguma&#45;&#45;Stowarzyszenie#Zarzd</title>
<path fill="none" stroke="#2e00e4" d="M113.82,-459.34C113.82,-470.7 113.82,-486.5 113.82,-486.5 113.82,-486.5 364.96,-486.5 520.2,-486.5"/>
</g>
<!-- kotlovecrafta -->
<g id="node40" class="node">
<title>kotlovecrafta</title>
<ellipse fill="none" stroke="black" cx="71.49" cy="-405" rx="71.49" ry="18"/>
<text text-anchor="middle" x="71.49" y="-401.3" font-family="Times,serif" font-size="14.00">kotlovecrafta</text>
</g>
<!-- kotlovecrafta&#45;&#45;Marketing&#45;i&#45;media&#45;spoecznociowe# -->
<g id="edge55" class="edge">
<title>kotlovecrafta&#45;&#45;Marketing&#45;i&#45;media&#45;spoecznociowe#</title>
<path fill="none" stroke="#ff0000" d="M135.82,-413.08C135.82,-439.64 135.82,-522.55 135.82,-522.55 135.82,-522.55 349.38,-522.55 498.49,-522.55"/>
</g>
<!-- kotlovecrafta&#45;&#45;Stowarzyszenie#Zarzd -->
<g id="edge54" class="edge">
<title>kotlovecrafta&#45;&#45;Stowarzyszenie#Zarzd</title>
<path fill="none" stroke="#ff0000" d="M119.74,-418.33C185.13,-418.33 293.82,-418.33 293.82,-418.33 293.82,-418.33 293.82,-482 293.82,-482 293.82,-482 431.13,-482 532.77,-482"/>
</g>
<!-- kotlovecrafta&#45;&#45;Miejsce::Miejsce#Klucze do spejsu -->
<g id="edge56" class="edge">
<title>kotlovecrafta&#45;&#45;Miejsce::Miejsce#Klucze do spejsu</title>
<path fill="none" stroke="#ff0000" d="M138.82,-398.94C138.82,-371.95 138.82,-264 138.82,-264 138.82,-264 342.28,-264 489.9,-264"/>
</g>
<!-- rux -->
<g id="node41" class="node">
<title>rux</title>
<ellipse fill="none" stroke="black" cx="71.49" cy="-362" rx="27" ry="18"/>
<text text-anchor="middle" x="71.49" y="-358.3" font-family="Times,serif" font-size="14.00">rux</text>
</g>
<!-- rux&#45;&#45;Stowarzyszenie#Zarzd -->
<g id="edge57" class="edge">
<title>rux&#45;&#45;Stowarzyszenie#Zarzd</title>
<path fill="none" stroke="#2bd500" d="M89.93,-375.33C143.75,-375.33 296.82,-375.33 296.82,-375.33 296.82,-375.33 296.82,-477.5 296.82,-477.5 296.82,-477.5 456.69,-477.5 558.17,-477.5"/>
</g>
<!-- Inoru -->
<g id="node42" class="node">
<title>Inoru</title>
<ellipse fill="none" stroke="black" cx="71.49" cy="-491" rx="36" ry="18"/>
<text text-anchor="middle" x="71.49" y="-487.3" font-family="Times,serif" font-size="14.00">Inoru</text>
</g>
<!-- Inoru&#45;&#45;Stowarzyszenie#Zarzd -->
<g id="edge58" class="edge">
<title>Inoru&#45;&#45;Stowarzyszenie#Zarzd</title>
<path fill="none" stroke="#0061f2" d="M107.48,-491C187.95,-491 385.62,-491 516.14,-491"/>
</g>
<!-- pzduniak -->
<g id="node43" class="node">
<title>pzduniak</title>
<ellipse fill="none" stroke="black" cx="71.49" cy="-104" rx="52.79" ry="18"/>
<text text-anchor="middle" x="71.49" y="-100.3" font-family="Times,serif" font-size="14.00">pzduniak</text>
</g>
<!-- pzduniak&#45;&#45;Stowarzyszenie#Komisja Rewizyjna -->
<g id="edge59" class="edge">
<title>pzduniak&#45;&#45;Stowarzyszenie#Komisja Rewizyjna</title>
<path fill="none" stroke="#c60077" d="M117.53,-95C196.68,-95 361.98,-95 485.55,-95"/>
</g>
<!-- krcz -->
<g id="node44" class="node">
<title>krcz</title>
<ellipse fill="none" stroke="black" cx="71.49" cy="-61" rx="30.59" ry="18"/>
<text text-anchor="middle" x="71.49" y="-57.3" font-family="Times,serif" font-size="14.00">krcz</text>
</g>
<!-- krcz&#45;&#45;Stowarzyszenie#Komisja Rewizyjna -->
<g id="edge60" class="edge">
<title>krcz&#45;&#45;Stowarzyszenie#Komisja Rewizyjna</title>
<path fill="none" stroke="#b6e400" d="M102.21,-61C212.33,-61 580.82,-61 580.82,-61 580.82,-61 580.82,-74.99 580.82,-87.01"/>
</g>
<!-- PiotrP -->
<g id="node45" class="node">
<title>PiotrP</title>
<ellipse fill="none" stroke="black" cx="71.49" cy="-18" rx="40.09" ry="18"/>
<text text-anchor="middle" x="71.49" y="-14.3" font-family="Times,serif" font-size="14.00">PiotrP</text>
</g>
<!-- PiotrP&#45;&#45;Stowarzyszenie#Komisja Rewizyjna -->
<g id="edge61" class="edge">
<title>PiotrP&#45;&#45;Stowarzyszenie#Komisja Rewizyjna</title>
<path fill="none" stroke="#00ffff" d="M112.24,-18C251.47,-18 699.82,-18 699.82,-18 699.82,-18 699.82,-61.95 699.82,-87.01"/>
</g>
<!-- kszmigiel -->
<g id="node46" class="node">
<title>kszmigiel</title>
<ellipse fill="none" stroke="black" cx="71.49" cy="-749" rx="54.69" ry="18"/>
<text text-anchor="middle" x="71.49" y="-745.3" font-family="Times,serif" font-size="14.00">kszmigiel</text>
</g>
<!-- kszmigiel&#45;&#45;Marketing&#45;i&#45;media&#45;spoecznociowe# -->
<g id="edge62" class="edge">
<title>kszmigiel&#45;&#45;Marketing&#45;i&#45;media&#45;spoecznociowe#</title>
<path fill="none" stroke="#ab00d5" d="M118.98,-740C191.32,-740 320.82,-740 320.82,-740 320.82,-740 320.82,-542.18 320.82,-542.18 320.82,-542.18 398.12,-542.18 476.63,-542.18"/>
</g>
<!-- kszmigiel&#45;&#45;Infrastruktura::Github#Github -->
<g id="edge64" class="edge">
<title>kszmigiel&#45;&#45;Infrastruktura::Github#Github</title>
<path fill="none" stroke="#ab00d5" d="M108.82,-762.26C108.82,-775.53 108.82,-794 108.82,-794 108.82,-794 329.78,-794 486.65,-794"/>
</g>
<!-- kszmigiel&#45;&#45;Infrastruktura::Telegram#G贸wny: t.me/hakierspejs -->
<g id="edge66" class="edge">
<title>kszmigiel&#45;&#45;Infrastruktura::Telegram#G贸wny: t.me/hakierspejs</title>
<path fill="none" stroke="#ab00d5" d="M124.61,-744.5C217.54,-744.5 399.82,-744.5 399.82,-744.5 399.82,-744.5 399.82,-810.13 399.82,-829.61"/>
</g>
<!-- kszmigiel&#45;&#45;Infrastruktura::Telegram#posty: t.me/hakierspejs_spam -->
<g id="edge65" class="edge">
<title>kszmigiel&#45;&#45;Infrastruktura::Telegram#posty: t.me/hakierspejs_spam</title>
<path fill="none" stroke="#ab00d5" d="M120.82,-741.13C120.82,-714.43 120.82,-629 120.82,-629 120.82,-629 259.62,-629 393.67,-629"/>
</g>
<!-- kszmigiel&#45;&#45;Marketing&#45;i&#45;media&#45;spoecznociowe#Naklejki -->
<g id="edge63" class="edge">
<title>kszmigiel&#45;&#45;Marketing&#45;i&#45;media&#45;spoecznociowe#Naklejki</title>
<path fill="none" stroke="#ab00d5" d="M115.82,-738.22C115.82,-701.67 115.82,-584.71 115.82,-584.71 115.82,-584.71 291.58,-584.71 439.53,-584.71"/>
</g>
<!-- SP7Q -->
<g id="node47" class="node">
<title>SP7Q</title>
<ellipse fill="none" stroke="black" cx="71.49" cy="-706" rx="36.29" ry="18"/>
<text text-anchor="middle" x="71.49" y="-702.3" font-family="Times,serif" font-size="14.00">SP7Q</text>
</g>
<!-- SP7Q&#45;&#45;Marketing&#45;i&#45;media&#45;spoecznociowe# -->
<g id="edge68" class="edge">
<title>SP7Q&#45;&#45;Marketing&#45;i&#45;media&#45;spoecznociowe#</title>
<path fill="none" stroke="#f29100" d="M107.31,-702.4C175.63,-702.4 317.82,-702.4 317.82,-702.4 317.82,-702.4 317.82,-538.91 317.82,-538.91 317.82,-538.91 388.3,-538.91 463.32,-538.91"/>
</g>
<!-- SP7Q&#45;&#45;Infrastruktura::Github#Github -->
<g id="edge67" class="edge">
<title>SP7Q&#45;&#45;Infrastruktura::Github#Github</title>
<path fill="none" stroke="#f29100" d="M100.85,-716.8C168.93,-716.8 331.82,-716.8 331.82,-716.8 331.82,-716.8 331.82,-778 331.82,-778 331.82,-778 452.55,-778 542.85,-778"/>
</g>
<!-- biniu -->
<g id="node48" class="node">
<title>biniu</title>
<ellipse fill="none" stroke="black" cx="71.49" cy="-663" rx="34.39" ry="18"/>
<text text-anchor="middle" x="71.49" y="-659.3" font-family="Times,serif" font-size="14.00">biniu</text>
</g>
<!-- biniu&#45;&#45;Marketing&#45;i&#45;media&#45;spoecznociowe# -->
<g id="edge69" class="edge">
<title>biniu&#45;&#45;Marketing&#45;i&#45;media&#45;spoecznociowe#</title>
<path fill="none" stroke="#00c64f" d="M104.19,-657C170.77,-657 315.82,-657 315.82,-657 315.82,-657 315.82,-535.64 315.82,-535.64 315.82,-535.64 383.52,-535.64 457.03,-535.64"/>
</g>
<!-- Keij0 -->
<g id="node49" class="node">
<title>Keij0</title>
<ellipse fill="none" stroke="black" cx="71.49" cy="-620" rx="34.39" ry="18"/>
<text text-anchor="middle" x="71.49" y="-616.3" font-family="Times,serif" font-size="14.00">Keij0</text>
</g>
<!-- Keij0&#45;&#45;Marketing&#45;i&#45;media&#45;spoecznociowe# -->
<g id="edge70" class="edge">
<title>Keij0&#45;&#45;Marketing&#45;i&#45;media&#45;spoecznociowe#</title>
<path fill="none" stroke="#2e00e4" d="M106.07,-620C172.8,-620 312.82,-620 312.82,-620 312.82,-620 312.82,-532.36 312.82,-532.36 312.82,-532.36 382.32,-532.36 457.24,-532.36"/>
</g>
<!-- kasesag -->
<g id="node50" class="node">
<title>kasesag</title>
<ellipse fill="none" stroke="black" cx="71.49" cy="-1265" rx="48.19" ry="18"/>
<text text-anchor="middle" x="71.49" y="-1261.3" font-family="Times,serif" font-size="14.00">kasesag</text>
</g>
<!-- Marketing&#45;i&#45;media&#45;spoecznociowe#Przycisk HS&#45;LDZ -->
<g id="node51" class="node">
<title>Marketing&#45;i&#45;media&#45;spoecznociowe#Przycisk HS&#45;LDZ</title>
<ellipse fill="none" stroke="black" cx="639.91" cy="-1265" rx="261.85" ry="18"/>
<text text-anchor="middle" x="639.91" y="-1261.3" font-family="Times,serif" font-size="14.00">Marketing&#45;i&#45;media&#45;spoecznociowe#Przycisk HS&#45;LDZ</text>
</g>
<!-- kasesag&#45;&#45;Marketing&#45;i&#45;media&#45;spoecznociowe#Przycisk HS&#45;LDZ -->
<g id="edge71" class="edge">
<title>kasesag&#45;&#45;Marketing&#45;i&#45;media&#45;spoecznociowe#Przycisk HS&#45;LDZ</title>
<path fill="none" stroke="#ff0000" d="M119.96,-1265C177.95,-1265 279.55,-1265 377.64,-1265"/>
</g>
<!-- hslbridgebot -->
<g id="node52" class="node">
<title>hslbridgebot</title>
<ellipse fill="none" stroke="black" cx="71.49" cy="-1351" rx="69.59" ry="18"/>
<text text-anchor="middle" x="71.49" y="-1347.3" font-family="Times,serif" font-size="14.00">hslbridgebot</text>
</g>
<!-- Mostkowanie&#45;kana贸w#mautrix&#45;telegram (aktualnie u偶ywany) -->
<g id="node53" class="node">
<title>Mostkowanie&#45;kana贸w#mautrix&#45;telegram (aktualnie u偶ywany)</title>
<ellipse fill="none" stroke="black" cx="639.91" cy="-1329" rx="297.85" ry="18"/>
<text text-anchor="middle" x="639.91" y="-1325.3" font-family="Times,serif" font-size="14.00">Mostkowanie&#45;kana贸w#mautrix&#45;telegram (aktualnie u偶ywany)</text>
</g>
<!-- hslbridgebot&#45;&#45;Mostkowanie&#45;kana贸w#mautrix&#45;telegram (aktualnie u偶ywany) -->
<g id="edge72" class="edge">
<title>hslbridgebot&#45;&#45;Mostkowanie&#45;kana贸w#mautrix&#45;telegram (aktualnie u偶ywany)</title>
<path fill="none" stroke="#2bd500" d="M126.77,-1340C191.22,-1340 301.96,-1340 404.11,-1340"/>
</g>
<!-- telegrambot -->
<g id="node54" class="node">
<title>telegrambot</title>
<ellipse fill="none" stroke="black" cx="71.49" cy="-1308" rx="67.69" ry="18"/>
<text text-anchor="middle" x="71.49" y="-1304.3" font-family="Times,serif" font-size="14.00">telegrambot</text>
</g>
<!-- telegrambot&#45;&#45;Mostkowanie&#45;kana贸w#mautrix&#45;telegram (aktualnie u偶ywany) -->
<g id="edge73" class="edge">
<title>telegrambot&#45;&#45;Mostkowanie&#45;kana贸w#mautrix&#45;telegram (aktualnie u偶ywany)</title>
<path fill="none" stroke="#0061f2" d="M126.51,-1318.5C189.62,-1318.5 297.36,-1318.5 397.9,-1318.5"/>
</g>
<!-- Piotrek_P -->
<g id="node55" class="node">
<title>Piotrek_P</title>
<ellipse fill="none" stroke="black" cx="71.49" cy="-276" rx="55.49" ry="18"/>
<text text-anchor="middle" x="71.49" y="-272.3" font-family="Times,serif" font-size="14.00">Piotrek_P</text>
</g>
<!-- Piotrek_P&#45;&#45;Miejsce::Miejsce#Klucze do spejsu -->
<g id="edge74" class="edge">
<title>Piotrek_P&#45;&#45;Miejsce::Miejsce#Klucze do spejsu</title>
<path fill="none" stroke="#c60077" d="M102.05,-261C171.52,-261 345.44,-261 476.85,-261"/>
</g>
<!-- polimerek -->
<g id="node56" class="node">
<title>polimerek</title>
<ellipse fill="none" stroke="black" cx="71.49" cy="-233" rx="57.39" ry="18"/>
<text text-anchor="middle" x="71.49" y="-229.3" font-family="Times,serif" font-size="14.00">polimerek</text>
</g>
<!-- polimerek&#45;&#45;Miejsce::Miejsce#Klucze do spejsu -->
<g id="edge75" class="edge">
<title>polimerek&#45;&#45;Miejsce::Miejsce#Klucze do spejsu</title>
<path fill="none" stroke="#b6e400" d="M110.12,-246.33C186.45,-246.33 360.31,-246.33 488.14,-246.33"/>
</g>
<!-- sp7adg -->
<g id="node57" class="node">
<title>sp7adg</title>
<ellipse fill="none" stroke="black" cx="71.49" cy="-190" rx="44.39" ry="18"/>
<text text-anchor="middle" x="71.49" y="-186.3" font-family="Times,serif" font-size="14.00">sp7adg</text>
</g>
<!-- sp7adg&#45;&#45;Miejsce::Miejsce#Klucze do spejsu -->
<g id="edge76" class="edge">
<title>sp7adg&#45;&#45;Miejsce::Miejsce#Klucze do spejsu</title>
<path fill="none" stroke="#00ffff" d="M113.52,-196C216.82,-196 474.82,-196 474.82,-196 474.82,-196 474.82,-234.95 474.82,-249.56"/>
</g>
</g>
</svg>
