<?xml version="1.0" encoding="UTF-8" standalone="no"?>
<!DOCTYPE svg PUBLIC "-//W3C//DTD SVG 1.1//EN"
 "http://www.w3.org/Graphics/SVG/1.1/DTD/svg11.dtd">
<!-- Generated by graphviz version 2.40.1 (20161225.0304)
 -->
<!-- Title: %3 Pages: 1 -->
<svg width="767pt" height="624pt"
 viewBox="0.00 0.00 766.85 624.00" xmlns="http://www.w3.org/2000/svg" xmlns:xlink="http://www.w3.org/1999/xlink">
<g id="graph0" class="graph" transform="scale(1 1) rotate(0) translate(4 620)">
<title>%3</title>
<polygon fill="#ffffff" stroke="transparent" points="-4,4 -4,-620 762.8454,-620 762.8454,4 -4,4"/>
<!-- q3k -->
<g id="node1" class="node">
<title>q3k</title>
<ellipse fill="none" stroke="#000000" cx="59.7947" cy="-405" rx="28.6953" ry="18"/>
<text text-anchor="middle" x="59.7947" y="-401.3" font-family="Times,serif" font-size="14.00" fill="#000000">q3k</text>
</g>
<!-- Infrastruktura#Domeny -->
<g id="node2" class="node">
<title>Infrastruktura#Domeny</title>
<ellipse fill="none" stroke="#000000" cx="511.2174" cy="-340" rx="124.2781" ry="18"/>
<text text-anchor="middle" x="511.2174" y="-336.3" font-family="Times,serif" font-size="14.00" fill="#000000">Infrastruktura#Domeny</text>
</g>
<!-- q3k&#45;&#45;Infrastruktura#Domeny -->
<g id="edge1" class="edge">
<title>q3k&#45;&#45;Infrastruktura#Domeny</title>
<path fill="none" stroke="#ff0000" d="M59.8454,-386.8066C59.8454,-369.9609 59.8454,-347.5 59.8454,-347.5 59.8454,-347.5 264.4914,-347.5 398.1908,-347.5"/>
</g>
<!-- Infrastruktura#Lista mailingowa -->
<g id="node3" class="node">
<title>Infrastruktura#Lista mailingowa</title>
<ellipse fill="none" stroke="#000000" cx="511.2174" cy="-426" rx="165.1707" ry="18"/>
<text text-anchor="middle" x="511.2174" y="-422.3" font-family="Times,serif" font-size="14.00" fill="#000000">Infrastruktura#Lista mailingowa</text>
</g>
<!-- q3k&#45;&#45;Infrastruktura#Lista mailingowa -->
<g id="edge2" class="edge">
<title>q3k&#45;&#45;Infrastruktura#Lista mailingowa</title>
<path fill="none" stroke="#ff0000" d="M79.7742,-418C128.7884,-418 258.6065,-418 363.1331,-418"/>
</g>
<!-- d33tah -->
<g id="node4" class="node">
<title>d33tah</title>
<ellipse fill="none" stroke="#000000" cx="59.7947" cy="-319" rx="43.5923" ry="18"/>
<text text-anchor="middle" x="59.7947" y="-315.3" font-family="Times,serif" font-size="14.00" fill="#000000">d33tah</text>
</g>
<!-- d33tah&#45;&#45;Infrastruktura#Domeny -->
<g id="edge3" class="edge">
<title>d33tah&#45;&#45;Infrastruktura#Domeny</title>
<path fill="none" stroke="#2bd500" d="M97.8937,-328C168.0393,-328 319.466,-328 418.2575,-328"/>
</g>
<!-- d33tah&#45;&#45;Infrastruktura#Lista mailingowa -->
<g id="edge6" class="edge">
<title>d33tah&#45;&#45;Infrastruktura#Lista mailingowa</title>
<path fill="none" stroke="#2bd500" d="M92.8454,-330.9052C92.8454,-356.1992 92.8454,-413 92.8454,-413 92.8454,-413 273.0232,-413 396.8954,-413"/>
</g>
<!-- Infrastruktura#Github -->
<g id="node5" class="node">
<title>Infrastruktura#Github</title>
<ellipse fill="none" stroke="#000000" cx="511.2174" cy="-598" rx="117.7793" ry="18"/>
<text text-anchor="middle" x="511.2174" y="-594.3" font-family="Times,serif" font-size="14.00" fill="#000000">Infrastruktura#Github</text>
</g>
<!-- d33tah&#45;&#45;Infrastruktura#Github -->
<g id="edge4" class="edge">
<title>d33tah&#45;&#45;Infrastruktura#Github</title>
<path fill="none" stroke="#2bd500" d="M83.9543,-334C105.8941,-334 134.8454,-334 134.8454,-334 134.8454,-334 134.8454,-587.2 134.8454,-587.2 134.8454,-587.2 305.24,-587.2 416.7287,-587.2"/>
</g>
<!-- Infrastruktura#Meetup -->
<g id="node6" class="node">
<title>Infrastruktura#Meetup</title>
<ellipse fill="none" stroke="#000000" cx="511.2174" cy="-512" rx="121.5784" ry="18"/>
<text text-anchor="middle" x="511.2174" y="-508.3" font-family="Times,serif" font-size="14.00" fill="#000000">Infrastruktura#Meetup</text>
</g>
<!-- d33tah&#45;&#45;Infrastruktura#Meetup -->
<g id="edge5" class="edge">
<title>d33tah&#45;&#45;Infrastruktura#Meetup</title>
<path fill="none" stroke="#2bd500" d="M92.4006,-331C122.5912,-331 162.8454,-331 162.8454,-331 162.8454,-331 162.8454,-504.2857 162.8454,-504.2857 162.8454,-504.2857 298.9282,-504.2857 400.9903,-504.2857"/>
</g>
<!-- Infrastruktura#Hakierspejs Łódź -->
<g id="node7" class="node">
<title>Infrastruktura#Hakierspejs Łódź</title>
<ellipse fill="none" stroke="#000000" cx="511.2174" cy="-383" rx="167.0704" ry="18"/>
<text text-anchor="middle" x="511.2174" y="-379.3" font-family="Times,serif" font-size="14.00" fill="#000000">Infrastruktura#Hakierspejs Łódź</text>
</g>
<!-- d33tah&#45;&#45;Infrastruktura#Hakierspejs Łódź -->
<g id="edge7" class="edge">
<title>d33tah&#45;&#45;Infrastruktura#Hakierspejs Łódź</title>
<path fill="none" stroke="#2bd500" d="M99.8454,-326.4518C99.8454,-341.9023 99.8454,-376 99.8454,-376 99.8454,-376 240.3735,-376 357.16,-376"/>
</g>
<!-- Infrastruktura#Shitposty z łódzkiego hakierspejsu -->
<g id="node8" class="node">
<title>Infrastruktura#Shitposty z łódzkiego hakierspejsu</title>
<ellipse fill="none" stroke="#000000" cx="511.2174" cy="-211" rx="247.7561" ry="18"/>
<text text-anchor="middle" x="511.2174" y="-207.3" font-family="Times,serif" font-size="14.00" fill="#000000">Infrastruktura#Shitposty z łódzkiego hakierspejsu</text>
</g>
<!-- d33tah&#45;&#45;Infrastruktura#Shitposty z łódzkiego hakierspejsu -->
<g id="edge8" class="edge">
<title>d33tah&#45;&#45;Infrastruktura#Shitposty z łódzkiego hakierspejsu</title>
<path fill="none" stroke="#2bd500" d="M96.7466,-309.4C165.2037,-309.4 304.8454,-309.4 304.8454,-309.4 304.8454,-309.4 304.8454,-246.3009 304.8454,-221.1599"/>
</g>
<!-- Infrastruktura#IRC -->
<g id="node9" class="node">
<title>Infrastruktura#IRC</title>
<ellipse fill="none" stroke="#000000" cx="511.2174" cy="-254" rx="103.9815" ry="18"/>
<text text-anchor="middle" x="511.2174" y="-250.3" font-family="Times,serif" font-size="14.00" fill="#000000">Infrastruktura#IRC</text>
</g>
<!-- d33tah&#45;&#45;Infrastruktura#IRC -->
<g id="edge9" class="edge">
<title>d33tah&#45;&#45;Infrastruktura#IRC</title>
<path fill="none" stroke="#2bd500" d="M59.8454,-300.9664C59.8454,-283.9403 59.8454,-261 59.8454,-261 59.8454,-261 282.687,-261 415.2169,-261"/>
</g>
<!-- Infrastruktura#Hosting -->
<g id="node10" class="node">
<title>Infrastruktura#Hosting</title>
<ellipse fill="none" stroke="#000000" cx="511.2174" cy="-39" rx="122.6784" ry="18"/>
<text text-anchor="middle" x="511.2174" y="-35.3" font-family="Times,serif" font-size="14.00" fill="#000000">Infrastruktura#Hosting</text>
</g>
<!-- d33tah&#45;&#45;Infrastruktura#Hosting -->
<g id="edge10" class="edge">
<title>d33tah&#45;&#45;Infrastruktura#Hosting</title>
<path fill="none" stroke="#2bd500" d="M83.2129,-303.8C127.8799,-303.8 220.8454,-303.8 220.8454,-303.8 220.8454,-303.8 220.8454,-51.4 220.8454,-51.4 220.8454,-51.4 336.7668,-51.4 422.1229,-51.4"/>
</g>
<!-- Infrastruktura#Pad -->
<g id="node11" class="node">
<title>Infrastruktura#Pad</title>
<ellipse fill="none" stroke="#000000" cx="511.2174" cy="-297" rx="102.8821" ry="18"/>
<text text-anchor="middle" x="511.2174" y="-293.3" font-family="Times,serif" font-size="14.00" fill="#000000">Infrastruktura#Pad</text>
</g>
<!-- d33tah&#45;&#45;Infrastruktura#Pad -->
<g id="edge11" class="edge">
<title>d33tah&#45;&#45;Infrastruktura#Pad</title>
<path fill="none" stroke="#2bd500" d="M100.2527,-312.2C181.4067,-312.2 364.1414,-312.2 456.1226,-312.2"/>
</g>
<!-- Infrastruktura#Forum -->
<g id="node12" class="node">
<title>Infrastruktura#Forum</title>
<ellipse fill="none" stroke="#000000" cx="511.2174" cy="-82" rx="116.1796" ry="18"/>
<text text-anchor="middle" x="511.2174" y="-78.3" font-family="Times,serif" font-size="14.00" fill="#000000">Infrastruktura#Forum</text>
</g>
<!-- d33tah&#45;&#45;Infrastruktura#Forum -->
<g id="edge12" class="edge">
<title>d33tah&#45;&#45;Infrastruktura#Forum</title>
<path fill="none" stroke="#2bd500" d="M91.4951,-306.6C141.9399,-306.6 234.8454,-306.6 234.8454,-306.6 234.8454,-306.6 234.8454,-96.5 234.8454,-96.5 234.8454,-96.5 360.3306,-96.5 442.19,-96.5"/>
</g>
<!-- cytP450 -->
<g id="node13" class="node">
<title>cytP450</title>
<ellipse fill="none" stroke="#000000" cx="59.7947" cy="-104" rx="49.2915" ry="18"/>
<text text-anchor="middle" x="59.7947" y="-100.3" font-family="Times,serif" font-size="14.00" fill="#000000">cytP450</text>
</g>
<!-- cytP450&#45;&#45;Infrastruktura#Domeny -->
<g id="edge13" class="edge">
<title>cytP450&#45;&#45;Infrastruktura#Domeny</title>
<path fill="none" stroke="#0061f2" d="M100.1318,-114.5C138.9655,-114.5 191.8454,-114.5 191.8454,-114.5 191.8454,-114.5 191.8454,-325 191.8454,-325 191.8454,-325 348.4251,-325 442.3117,-325"/>
</g>
<!-- cytP450&#45;&#45;Infrastruktura#Hosting -->
<g id="edge14" class="edge">
<title>cytP450&#45;&#45;Infrastruktura#Hosting</title>
<path fill="none" stroke="#0061f2" d="M89.2141,-89.5C169.2283,-89.5 384.8454,-89.5 384.8454,-89.5 384.8454,-89.5 384.8454,-54.2 384.8454,-54.2 384.8454,-54.2 414.4947,-54.2 445.0706,-54.2"/>
</g>
<!-- cytP450&#45;&#45;Infrastruktura#Forum -->
<g id="edge15" class="edge">
<title>cytP450&#45;&#45;Infrastruktura#Forum</title>
<path fill="none" stroke="#0061f2" d="M99.0658,-93C169.8536,-93 320.6078,-93 418.8399,-93"/>
</g>
<!-- Martti25 -->
<g id="node14" class="node">
<title>Martti25</title>
<ellipse fill="none" stroke="#000000" cx="59.7947" cy="-598" rx="51.9908" ry="18"/>
<text text-anchor="middle" x="59.7947" y="-594.3" font-family="Times,serif" font-size="14.00" fill="#000000">Martti25</text>
</g>
<!-- Martti25&#45;&#45;Infrastruktura#Github -->
<g id="edge16" class="edge">
<title>Martti25&#45;&#45;Infrastruktura#Github</title>
<path fill="none" stroke="#c60077" d="M101.4543,-608.8C172.719,-608.8 319.7257,-608.8 416.8936,-608.8"/>
</g>
<!-- Martti25&#45;&#45;Infrastruktura#Meetup -->
<g id="edge17" class="edge">
<title>Martti25&#45;&#45;Infrastruktura#Meetup</title>
<path fill="none" stroke="#c60077" d="M110.9748,-594.4C167.265,-594.4 249.8454,-594.4 249.8454,-594.4 249.8454,-594.4 249.8454,-524.8571 249.8454,-524.8571 249.8454,-524.8571 349.7227,-524.8571 425.9961,-524.8571"/>
</g>
<!-- Infrastruktura#Konto na Fejsie -->
<g id="node15" class="node">
<title>Infrastruktura#Konto na Fejsie</title>
<ellipse fill="none" stroke="#000000" cx="511.2174" cy="-555" rx="157.0724" ry="18"/>
<text text-anchor="middle" x="511.2174" y="-551.3" font-family="Times,serif" font-size="14.00" fill="#000000">Infrastruktura#Konto na Fejsie</text>
</g>
<!-- Martti25&#45;&#45;Infrastruktura#Konto na Fejsie -->
<g id="edge18" class="edge">
<title>Martti25&#45;&#45;Infrastruktura#Konto na Fejsie</title>
<path fill="none" stroke="#c60077" d="M110.9513,-601.6C199.9413,-601.6 373.8454,-601.6 373.8454,-601.6 373.8454,-601.6 373.8454,-577.5264 373.8454,-563.9849"/>
</g>
<!-- biniu -->
<g id="node16" class="node">
<title>biniu</title>
<ellipse fill="none" stroke="#000000" cx="59.7947" cy="-512" rx="34.394" ry="18"/>
<text text-anchor="middle" x="59.7947" y="-508.3" font-family="Times,serif" font-size="14.00" fill="#000000">biniu</text>
</g>
<!-- biniu&#45;&#45;Infrastruktura#Meetup -->
<g id="edge19" class="edge">
<title>biniu&#45;&#45;Infrastruktura#Meetup</title>
<path fill="none" stroke="#b6e400" d="M94.0953,-514.5714C156.4388,-514.5714 291.0789,-514.5714 390.6117,-514.5714"/>
</g>
<!-- kszmigiel -->
<g id="node17" class="node">
<title>kszmigiel</title>
<ellipse fill="none" stroke="#000000" cx="59.7947" cy="-469" rx="55.4913" ry="18"/>
<text text-anchor="middle" x="59.7947" y="-465.3" font-family="Times,serif" font-size="14.00" fill="#000000">kszmigiel</text>
</g>
<!-- kszmigiel&#45;&#45;Infrastruktura#Meetup -->
<g id="edge20" class="edge">
<title>kszmigiel&#45;&#45;Infrastruktura#Meetup</title>
<path fill="none" stroke="#00ffff" d="M104.8454,-479.6221C104.8454,-491.6004 104.8454,-509.4286 104.8454,-509.4286 104.8454,-509.4286 270.8588,-509.4286 390.6673,-509.4286"/>
</g>
<!-- kszmigiel&#45;&#45;Infrastruktura#Hakierspejs Łódź -->
<g id="edge21" class="edge">
<title>kszmigiel&#45;&#45;Infrastruktura#Hakierspejs Łódź</title>
<path fill="none" stroke="#00ffff" d="M96.8454,-455.5915C96.8454,-434.0188 96.8454,-394 96.8454,-394 96.8454,-394 257.6994,-394 378.9682,-394"/>
</g>
<!-- Infrastruktura#Naklejki -->
<g id="node18" class="node">
<title>Infrastruktura#Naklejki</title>
<ellipse fill="none" stroke="#000000" cx="511.2174" cy="-469" rx="125.3778" ry="18"/>
<text text-anchor="middle" x="511.2174" y="-465.3" font-family="Times,serif" font-size="14.00" fill="#000000">Infrastruktura#Naklejki</text>
</g>
<!-- kszmigiel&#45;&#45;Infrastruktura#Naklejki -->
<g id="edge22" class="edge">
<title>kszmigiel&#45;&#45;Infrastruktura#Naklejki</title>
<path fill="none" stroke="#00ffff" d="M115.148,-469C182.0116,-469 296.5603,-469 385.321,-469"/>
</g>
<!-- nikolaad -->
<g id="node19" class="node">
<title>nikolaad</title>
<ellipse fill="none" stroke="#000000" cx="59.7947" cy="-555" rx="50.0912" ry="18"/>
<text text-anchor="middle" x="59.7947" y="-551.3" font-family="Times,serif" font-size="14.00" fill="#000000">nikolaad</text>
</g>
<!-- nikolaad&#45;&#45;Infrastruktura#Meetup -->
<g id="edge23" class="edge">
<title>nikolaad&#45;&#45;Infrastruktura#Meetup</title>
<path fill="none" stroke="#ab00d5" d="M99.8454,-543.8354C99.8454,-533.4978 99.8454,-519.7143 99.8454,-519.7143 99.8454,-519.7143 279.3892,-519.7143 401.2476,-519.7143"/>
</g>
<!-- nikolaad&#45;&#45;Infrastruktura#Konto na Fejsie -->
<g id="edge24" class="edge">
<title>nikolaad&#45;&#45;Infrastruktura#Konto na Fejsie</title>
<path fill="none" stroke="#ab00d5" d="M107.2516,-561C167.4658,-561 274.1492,-561 362.7648,-561"/>
</g>
<!-- Keij0 -->
<g id="node20" class="node">
<title>Keij0</title>
<ellipse fill="none" stroke="#000000" cx="59.7947" cy="-168" rx="34.394" ry="18"/>
<text text-anchor="middle" x="59.7947" y="-164.3" font-family="Times,serif" font-size="14.00" fill="#000000">Keij0</text>
</g>
<!-- Keij0&#45;&#45;Infrastruktura#Meetup -->
<g id="edge25" class="edge">
<title>Keij0&#45;&#45;Infrastruktura#Meetup</title>
<path fill="none" stroke="#f29100" d="M94.2572,-168C129.1015,-168 177.8454,-168 177.8454,-168 177.8454,-168 177.8454,-499.1429 177.8454,-499.1429 177.8454,-499.1429 327.0253,-499.1429 425.7988,-499.1429"/>
</g>
<!-- Keij0&#45;&#45;Infrastruktura#Hosting -->
<g id="edge26" class="edge">
<title>Keij0&#45;&#45;Infrastruktura#Hosting</title>
<path fill="none" stroke="#f29100" d="M89.9075,-159C132.9291,-159 206.8454,-159 206.8454,-159 206.8454,-159 206.8454,-48.6 206.8454,-48.6 206.8454,-48.6 318.7861,-48.6 406.8957,-48.6"/>
</g>
<!-- BluRaf -->
<g id="node21" class="node">
<title>BluRaf</title>
<ellipse fill="none" stroke="#000000" cx="59.7947" cy="-232" rx="42.4939" ry="18"/>
<text text-anchor="middle" x="59.7947" y="-228.3" font-family="Times,serif" font-size="14.00" fill="#000000">BluRaf</text>
</g>
<!-- BluRaf&#45;&#45;Infrastruktura#Hakierspejs Łódź -->
<g id="edge27" class="edge">
<title>BluRaf&#45;&#45;Infrastruktura#Hakierspejs Łódź</title>
<path fill="none" stroke="#00c64f" d="M93.423,-243C172.9266,-243 365.8454,-243 365.8454,-243 365.8454,-243 365.8454,-342.668 365.8454,-373.8142"/>
</g>
<!-- BluRaf&#45;&#45;Infrastruktura#Shitposty z łódzkiego hakierspejsu -->
<g id="edge28" class="edge">
<title>BluRaf&#45;&#45;Infrastruktura#Shitposty z łódzkiego hakierspejsu</title>
<path fill="none" stroke="#00c64f" d="M94.4675,-221.5C141.1269,-221.5 227.7941,-221.5 310.0587,-221.5"/>
</g>
<!-- BluRaf&#45;&#45;Infrastruktura#IRC -->
<g id="edge29" class="edge">
<title>BluRaf&#45;&#45;Infrastruktura#IRC</title>
<path fill="none" stroke="#00c64f" d="M98.2827,-239.5C176.533,-239.5 354.7691,-239.5 449.4471,-239.5"/>
</g>
<!-- BluRaf&#45;&#45;Infrastruktura#Konto na Fejsie -->
<g id="edge32" class="edge">
<title>BluRaf&#45;&#45;Infrastruktura#Konto na Fejsie</title>
<path fill="none" stroke="#00c64f" d="M85.0749,-246.5C111.4022,-246.5 148.8454,-246.5 148.8454,-246.5 148.8454,-246.5 148.8454,-549 148.8454,-549 148.8454,-549 262.7074,-549 362.7813,-549"/>
</g>
<!-- Infrastruktura#Mumble -->
<g id="node22" class="node">
<title>Infrastruktura#Mumble</title>
<ellipse fill="none" stroke="#000000" cx="511.2174" cy="-168" rx="124.2781" ry="18"/>
<text text-anchor="middle" x="511.2174" y="-164.3" font-family="Times,serif" font-size="14.00" fill="#000000">Infrastruktura#Mumble</text>
</g>
<!-- BluRaf&#45;&#45;Infrastruktura#Mumble -->
<g id="edge30" class="edge">
<title>BluRaf&#45;&#45;Infrastruktura#Mumble</title>
<path fill="none" stroke="#00c64f" d="M99.8454,-226.114C99.8454,-211.9255 99.8454,-177 99.8454,-177 99.8454,-177 281.7858,-177 403.6716,-177"/>
</g>
<!-- Infrastruktura#Konfident -->
<g id="node23" class="node">
<title>Infrastruktura#Konfident</title>
<ellipse fill="none" stroke="#000000" cx="511.2174" cy="-125" rx="130.777" ry="18"/>
<text text-anchor="middle" x="511.2174" y="-121.3" font-family="Times,serif" font-size="14.00" fill="#000000">Infrastruktura#Konfident</text>
</g>
<!-- BluRaf&#45;&#45;Infrastruktura#Konfident -->
<g id="edge31" class="edge">
<title>BluRaf&#45;&#45;Infrastruktura#Konfident</title>
<path fill="none" stroke="#00c64f" d="M96.8454,-223.17C96.8454,-198.8187 96.8454,-132.5 96.8454,-132.5 96.8454,-132.5 269.7674,-132.5 392.1975,-132.5"/>
</g>
<!-- kpc -->
<g id="node24" class="node">
<title>kpc</title>
<ellipse fill="none" stroke="#000000" cx="59.7947" cy="-18" rx="27.8951" ry="18"/>
<text text-anchor="middle" x="59.7947" y="-14.3" font-family="Times,serif" font-size="14.00" fill="#000000">kpc</text>
</g>
<!-- kpc&#45;&#45;Infrastruktura#Hosting -->
<g id="edge33" class="edge">
<title>kpc&#45;&#45;Infrastruktura#Hosting</title>
<path fill="none" stroke="#2e00e4" d="M82.8014,-28.5C142.3621,-28.5 304.3908,-28.5 411.2312,-28.5"/>
</g>
<!-- thinkofher -->
<g id="node25" class="node">
<title>thinkofher</title>
<ellipse fill="none" stroke="#000000" cx="59.7947" cy="-61" rx="59.5901" ry="18"/>
<text text-anchor="middle" x="59.7947" y="-57.3" font-family="Times,serif" font-size="14.00" fill="#000000">thinkofher</text>
</g>
<!-- thinkofher&#45;&#45;Infrastruktura#Hosting -->
<g id="edge34" class="edge">
<title>thinkofher&#45;&#45;Infrastruktura#Hosting</title>
<path fill="none" stroke="#ff0000" d="M91.898,-45.8C154.5424,-45.8 295.7963,-45.8 397.0481,-45.8"/>
</g>
<!-- thinkofher&#45;&#45;Infrastruktura#Forum -->
<g id="edge35" class="edge">
<title>thinkofher&#45;&#45;Infrastruktura#Forum</title>
<path fill="none" stroke="#ff0000" d="M108.5337,-71.5C181.9447,-71.5 322.2891,-71.5 416.3415,-71.5"/>
</g>
</g>
</svg>
