<?xml version="1.0" encoding="UTF-8" standalone="no"?>
<!DOCTYPE svg PUBLIC "-//W3C//DTD SVG 1.1//EN"
 "http://www.w3.org/Graphics/SVG/1.1/DTD/svg11.dtd">
<!-- Generated by graphviz version 2.40.1 (20161225.0304)
 -->
<!-- Title: %3 Pages: 1 -->
<svg width="850pt" height="861pt"
 viewBox="0.00 0.00 850.04 861.00" xmlns="http://www.w3.org/2000/svg" xmlns:xlink="http://www.w3.org/1999/xlink">
<g id="graph0" class="graph" transform="scale(1 1) rotate(0) translate(4 857)">
<title>%3</title>
<polygon fill="#ffffff" stroke="transparent" points="-4,4 -4,-857 846.0381,-857 846.0381,4 -4,4"/>
<!-- 51 -->
<g id="node1" class="node">
<title>51</title>
<ellipse fill="none" stroke="#000000" cx="59.7947" cy="-18" rx="27" ry="18"/>
<text text-anchor="middle" x="59.7947" y="-14.3" font-family="Times,serif" font-size="14.00" fill="#000000">51</text>
</g>
<!-- Miejsce::Miejsce#Stan obecny -->
<g id="node2" class="node">
<title>Miejsce::Miejsce#Stan obecny</title>
<ellipse fill="none" stroke="#000000" cx="552.8137" cy="-18" rx="154.0727" ry="18"/>
<text text-anchor="middle" x="552.8137" y="-14.3" font-family="Times,serif" font-size="14.00" fill="#000000">Miejsce::Miejsce#Stan obecny</text>
</g>
<!-- 51&#45;&#45;Miejsce::Miejsce#Stan obecny -->
<g id="edge1" class="edge">
<title>51&#45;&#45;Miejsce::Miejsce#Stan obecny</title>
<path fill="none" stroke="#ff0000" d="M87.0038,-18C145.4948,-18 286.9654,-18 398.7637,-18"/>
</g>
<!-- d33tah -->
<g id="node3" class="node">
<title>d33tah</title>
<ellipse fill="none" stroke="#000000" cx="59.7947" cy="-448" rx="43.5923" ry="18"/>
<text text-anchor="middle" x="59.7947" y="-444.3" font-family="Times,serif" font-size="14.00" fill="#000000">d33tah</text>
</g>
<!-- Infrastruktura::Telegram#t.me/hakierspejs_spam -->
<g id="node4" class="node">
<title>Infrastruktura::Telegram#t.me/hakierspejs_spam</title>
<ellipse fill="none" stroke="#000000" cx="552.8137" cy="-663" rx="243.1569" ry="18"/>
<text text-anchor="middle" x="552.8137" y="-659.3" font-family="Times,serif" font-size="14.00" fill="#000000">Infrastruktura::Telegram#t.me/hakierspejs_spam</text>
</g>
<!-- d33tah&#45;&#45;Infrastruktura::Telegram#t.me/hakierspejs_spam -->
<g id="edge2" class="edge">
<title>d33tah&#45;&#45;Infrastruktura::Telegram#t.me/hakierspejs_spam</title>
<path fill="none" stroke="#2bd500" d="M100.09,-454.9231C177.8563,-454.9231 341.0381,-454.9231 341.0381,-454.9231 341.0381,-454.9231 341.0381,-614.232 341.0381,-654.0592"/>
</g>
<!-- Infrastruktura::Meetup#Meetup -->
<g id="node5" class="node">
<title>Infrastruktura::Meetup#Meetup</title>
<ellipse fill="none" stroke="#000000" cx="552.8137" cy="-792" rx="163.2712" ry="18"/>
<text text-anchor="middle" x="552.8137" y="-788.3" font-family="Times,serif" font-size="14.00" fill="#000000">Infrastruktura::Meetup#Meetup</text>
</g>
<!-- d33tah&#45;&#45;Infrastruktura::Meetup#Meetup -->
<g id="edge3" class="edge">
<title>d33tah&#45;&#45;Infrastruktura::Meetup#Meetup</title>
<path fill="none" stroke="#2bd500" d="M83.022,-463.2308C112.9125,-463.2308 161.0381,-463.2308 161.0381,-463.2308 161.0381,-463.2308 161.0381,-789.4286 161.0381,-789.4286 161.0381,-789.4286 283.2826,-789.4286 391.2017,-789.4286"/>
</g>
<!-- Infrastruktura::Pad#Pad -->
<g id="node6" class="node">
<title>Infrastruktura::Pad#Pad</title>
<ellipse fill="none" stroke="#000000" cx="552.8137" cy="-448" rx="126.1777" ry="18"/>
<text text-anchor="middle" x="552.8137" y="-444.3" font-family="Times,serif" font-size="14.00" fill="#000000">Infrastruktura::Pad#Pad</text>
</g>
<!-- d33tah&#45;&#45;Infrastruktura::Pad#Pad -->
<g id="edge4" class="edge">
<title>d33tah&#45;&#45;Infrastruktura::Pad#Pad</title>
<path fill="none" stroke="#2bd500" d="M103.5468,-449.3846C175.3656,-449.3846 320.8558,-449.3846 426.8727,-449.3846"/>
</g>
<!-- Infrastruktura::Mariuszbot#Mariuszbot -->
<g id="node7" class="node">
<title>Infrastruktura::Mariuszbot#Mariuszbot</title>
<ellipse fill="none" stroke="#000000" cx="552.8137" cy="-491" rx="196.8651" ry="18"/>
<text text-anchor="middle" x="552.8137" y="-487.3" font-family="Times,serif" font-size="14.00" fill="#000000">Infrastruktura::Mariuszbot#Mariuszbot</text>
</g>
<!-- d33tah&#45;&#45;Infrastruktura::Mariuszbot#Mariuszbot -->
<g id="edge5" class="edge">
<title>d33tah&#45;&#45;Infrastruktura::Mariuszbot#Mariuszbot</title>
<path fill="none" stroke="#2bd500" d="M102.211,-452.1538C191.7797,-452.1538 392.0381,-452.1538 392.0381,-452.1538 392.0381,-452.1538 392.0381,-468.8835 392.0381,-480.3851"/>
</g>
<!-- Infrastruktura::Telegram#t.me/hakierspejs -->
<g id="node8" class="node">
<title>Infrastruktura::Telegram#t.me/hakierspejs</title>
<ellipse fill="none" stroke="#000000" cx="552.8137" cy="-706" rx="213.3623" ry="18"/>
<text text-anchor="middle" x="552.8137" y="-702.3" font-family="Times,serif" font-size="14.00" fill="#000000">Infrastruktura::Telegram#t.me/hakierspejs</text>
</g>
<!-- d33tah&#45;&#45;Infrastruktura::Telegram#t.me/hakierspejs -->
<g id="edge6" class="edge">
<title>d33tah&#45;&#45;Infrastruktura::Telegram#t.me/hakierspejs</title>
<path fill="none" stroke="#2bd500" d="M91.2754,-460.4615C127.4952,-460.4615 182.0381,-460.4615 182.0381,-460.4615 182.0381,-460.4615 182.0381,-701.5 182.0381,-701.5 182.0381,-701.5 261.1485,-701.5 346.2849,-701.5"/>
</g>
<!-- Infrastruktura::Domeny#Domeny -->
<g id="node9" class="node">
<title>Infrastruktura::Domeny#Domeny</title>
<ellipse fill="none" stroke="#000000" cx="552.8137" cy="-276" rx="167.8704" ry="18"/>
<text text-anchor="middle" x="552.8137" y="-272.3" font-family="Times,serif" font-size="14.00" fill="#000000">Infrastruktura::Domeny#Domeny</text>
</g>
<!-- d33tah&#45;&#45;Infrastruktura::Domeny#Domeny -->
<g id="edge7" class="edge">
<title>d33tah&#45;&#45;Infrastruktura::Domeny#Domeny</title>
<path fill="none" stroke="#2bd500" d="M96.5003,-438.3077C141.836,-438.3077 213.0381,-438.3077 213.0381,-438.3077 213.0381,-438.3077 213.0381,-279.6 213.0381,-279.6 213.0381,-279.6 301.6711,-279.6 388.4,-279.6"/>
</g>
<!-- Infrastruktura::VM#Hosting -->
<g id="node10" class="node">
<title>Infrastruktura::VM#Hosting</title>
<ellipse fill="none" stroke="#000000" cx="552.8137" cy="-233" rx="144.8743" ry="18"/>
<text text-anchor="middle" x="552.8137" y="-229.3" font-family="Times,serif" font-size="14.00" fill="#000000">Infrastruktura::VM#Hosting</text>
</g>
<!-- d33tah&#45;&#45;Infrastruktura::VM#Hosting -->
<g id="edge8" class="edge">
<title>d33tah&#45;&#45;Infrastruktura::VM#Hosting</title>
<path fill="none" stroke="#2bd500" d="M91.4703,-435.5385C130.5933,-435.5385 192.0381,-435.5385 192.0381,-435.5385 192.0381,-435.5385 192.0381,-235.5714 192.0381,-235.5714 192.0381,-235.5714 308.5803,-235.5714 409.189,-235.5714"/>
</g>
<!-- Infrastruktura::Grafana#Grafana -->
<g id="node11" class="node">
<title>Infrastruktura::Grafana#Grafana</title>
<ellipse fill="none" stroke="#000000" cx="552.8137" cy="-362" rx="165.9709" ry="18"/>
<text text-anchor="middle" x="552.8137" y="-358.3" font-family="Times,serif" font-size="14.00" fill="#000000">Infrastruktura::Grafana#Grafana</text>
</g>
<!-- d33tah&#45;&#45;Infrastruktura::Grafana#Grafana -->
<g id="edge9" class="edge">
<title>d33tah&#45;&#45;Infrastruktura::Grafana#Grafana</title>
<path fill="none" stroke="#2bd500" d="M102.2091,-443.8462C170.4487,-443.8462 297.0381,-443.8462 297.0381,-443.8462 297.0381,-443.8462 297.0381,-371 297.0381,-371 297.0381,-371 350.9215,-371 409.225,-371"/>
</g>
<!-- Infrastruktura::Lista mailingowa#Lista mailingowa -->
<g id="node12" class="node">
<title>Infrastruktura::Lista mailingowa#Lista mailingowa</title>
<ellipse fill="none" stroke="#000000" cx="552.8137" cy="-405" rx="250.7555" ry="18"/>
<text text-anchor="middle" x="552.8137" y="-401.3" font-family="Times,serif" font-size="14.00" fill="#000000">Infrastruktura::Lista mailingowa#Lista mailingowa</text>
</g>
<!-- d33tah&#45;&#45;Infrastruktura::Lista mailingowa#Lista mailingowa -->
<g id="edge10" class="edge">
<title>d33tah&#45;&#45;Infrastruktura::Lista mailingowa#Lista mailingowa</title>
<path fill="none" stroke="#2bd500" d="M103.2512,-446.6154C173.9428,-446.6154 306.0381,-446.6154 306.0381,-446.6154 306.0381,-446.6154 306.0381,-418.0759 306.0381,-408.2655"/>
</g>
<!-- Infrastruktura::Github#Github -->
<g id="node13" class="node">
<title>Infrastruktura::Github#Github</title>
<ellipse fill="none" stroke="#000000" cx="552.8137" cy="-534" rx="155.1726" ry="18"/>
<text text-anchor="middle" x="552.8137" y="-530.3" font-family="Times,serif" font-size="14.00" fill="#000000">Infrastruktura::Github#Github</text>
</g>
<!-- d33tah&#45;&#45;Infrastruktura::Github#Github -->
<g id="edge11" class="edge">
<title>d33tah&#45;&#45;Infrastruktura::Github#Github</title>
<path fill="none" stroke="#2bd500" d="M60.0381,-466.2384C60.0381,-491.4829 60.0381,-534 60.0381,-534 60.0381,-534 252.8294,-534 397.2347,-534"/>
</g>
<!-- Infrastruktura::IRC#IRC -->
<g id="node14" class="node">
<title>Infrastruktura::IRC#IRC</title>
<ellipse fill="none" stroke="#000000" cx="552.8137" cy="-577" rx="128.0773" ry="18"/>
<text text-anchor="middle" x="552.8137" y="-573.3" font-family="Times,serif" font-size="14.00" fill="#000000">Infrastruktura::IRC#IRC</text>
</g>
<!-- d33tah&#45;&#45;Infrastruktura::IRC#IRC -->
<g id="edge12" class="edge">
<title>d33tah&#45;&#45;Infrastruktura::IRC#IRC</title>
<path fill="none" stroke="#2bd500" d="M96.544,-457.6923C163.8433,-457.6923 300.0381,-457.6923 300.0381,-457.6923 300.0381,-457.6923 300.0381,-571 300.0381,-571 300.0381,-571 366.989,-571 431.9785,-571"/>
</g>
<!-- Infrastruktura::Forum#Forum -->
<g id="node15" class="node">
<title>Infrastruktura::Forum#Forum</title>
<ellipse fill="none" stroke="#000000" cx="552.8137" cy="-190" rx="152.1731" ry="18"/>
<text text-anchor="middle" x="552.8137" y="-186.3" font-family="Times,serif" font-size="14.00" fill="#000000">Infrastruktura::Forum#Forum</text>
</g>
<!-- d33tah&#45;&#45;Infrastruktura::Forum#Forum -->
<g id="edge13" class="edge">
<title>d33tah&#45;&#45;Infrastruktura::Forum#Forum</title>
<path fill="none" stroke="#2bd500" d="M83.1149,-432.7692C115.7351,-432.7692 171.0381,-432.7692 171.0381,-432.7692 171.0381,-432.7692 171.0381,-197 171.0381,-197 171.0381,-197 303.644,-197 412.5518,-197"/>
</g>
<!-- Miejsce::Miejsce#Klucze do spejsu -->
<g id="node16" class="node">
<title>Miejsce::Miejsce#Klucze do spejsu</title>
<ellipse fill="none" stroke="#000000" cx="552.8137" cy="-319" rx="174.6691" ry="18"/>
<text text-anchor="middle" x="552.8137" y="-315.3" font-family="Times,serif" font-size="14.00" fill="#000000">Miejsce::Miejsce#Klucze do spejsu</text>
</g>
<!-- d33tah&#45;&#45;Miejsce::Miejsce#Klucze do spejsu -->
<g id="edge14" class="edge">
<title>d33tah&#45;&#45;Miejsce::Miejsce#Klucze do spejsu</title>
<path fill="none" stroke="#2bd500" d="M100.147,-441.0769C148.488,-441.0769 223.0381,-441.0769 223.0381,-441.0769 223.0381,-441.0769 223.0381,-319 223.0381,-319 223.0381,-319 298.8577,-319 377.7871,-319"/>
</g>
<!-- cytP450 -->
<g id="node17" class="node">
<title>cytP450</title>
<ellipse fill="none" stroke="#000000" cx="59.7947" cy="-276" rx="49.2915" ry="18"/>
<text text-anchor="middle" x="59.7947" y="-272.3" font-family="Times,serif" font-size="14.00" fill="#000000">cytP450</text>
</g>
<!-- cytP450&#45;&#45;Infrastruktura::Domeny#Domeny -->
<g id="edge15" class="edge">
<title>cytP450&#45;&#45;Infrastruktura::Domeny#Domeny</title>
<path fill="none" stroke="#0061f2" d="M99.7229,-265.2C168.2656,-265.2 311.2737,-265.2 418.3982,-265.2"/>
</g>
<!-- cytP450&#45;&#45;Infrastruktura::VM#Hosting -->
<g id="edge16" class="edge">
<title>cytP450&#45;&#45;Infrastruktura::VM#Hosting</title>
<path fill="none" stroke="#0061f2" d="M104.0381,-267.6415C104.0381,-254.4854 104.0381,-230.4286 104.0381,-230.4286 104.0381,-230.4286 277.9742,-230.4286 409.2756,-230.4286"/>
</g>
<!-- cytP450&#45;&#45;Infrastruktura::Forum#Forum -->
<g id="edge17" class="edge">
<title>cytP450&#45;&#45;Infrastruktura::Forum#Forum</title>
<path fill="none" stroke="#0061f2" d="M94.0381,-262.7969C94.0381,-239.0313 94.0381,-191.5 94.0381,-191.5 94.0381,-191.5 267.4152,-191.5 401.0037,-191.5"/>
</g>
<!-- cytP450&#45;&#45;Miejsce::Miejsce#Klucze do spejsu -->
<g id="edge18" class="edge">
<title>cytP450&#45;&#45;Miejsce::Miejsce#Klucze do spejsu</title>
<path fill="none" stroke="#0061f2" d="M108.3867,-272.4C198.4083,-272.4 382.0381,-272.4 382.0381,-272.4 382.0381,-272.4 382.0381,-303.7577 382.0381,-315.0269"/>
</g>
<!-- nuke -->
<g id="node18" class="node">
<title>nuke</title>
<ellipse fill="none" stroke="#000000" cx="59.7947" cy="-362" rx="33.5952" ry="18"/>
<text text-anchor="middle" x="59.7947" y="-358.3" font-family="Times,serif" font-size="14.00" fill="#000000">nuke</text>
</g>
<!-- nuke&#45;&#45;Miejsce::Miejsce#Klucze do spejsu -->
<g id="edge19" class="edge">
<title>nuke&#45;&#45;Miejsce::Miejsce#Klucze do spejsu</title>
<path fill="none" stroke="#c60077" d="M93.7765,-362C176.7679,-362 383.0381,-362 383.0381,-362 383.0381,-362 383.0381,-334.6946 383.0381,-323.6018"/>
</g>
<!-- pmysl -->
<g id="node19" class="node">
<title>pmysl</title>
<ellipse fill="none" stroke="#000000" cx="59.7947" cy="-319" rx="38.1938" ry="18"/>
<text text-anchor="middle" x="59.7947" y="-315.3" font-family="Times,serif" font-size="14.00" fill="#000000">pmysl</text>
</g>
<!-- pmysl&#45;&#45;Infrastruktura::VM#Hosting -->
<g id="edge20" class="edge">
<title>pmysl&#45;&#45;Infrastruktura::VM#Hosting</title>
<path fill="none" stroke="#b6e400" d="M93.4993,-310C158.5462,-310 295.0381,-310 295.0381,-310 295.0381,-310 295.0381,-245.8571 295.0381,-245.8571 295.0381,-245.8571 379.1686,-245.8571 451.304,-245.8571"/>
</g>
<!-- pmysl&#45;&#45;Infrastruktura::Grafana#Grafana -->
<g id="edge21" class="edge">
<title>pmysl&#45;&#45;Infrastruktura::Grafana#Grafana</title>
<path fill="none" stroke="#b6e400" d="M93.0853,-328C159.2647,-328 301.0381,-328 301.0381,-328 301.0381,-328 301.0381,-353 301.0381,-353 301.0381,-353 352.7332,-353 409.2748,-353"/>
</g>
<!-- pmysl&#45;&#45;Infrastruktura::Github#Github -->
<g id="edge22" class="edge">
<title>pmysl&#45;&#45;Infrastruktura::Github#Github</title>
<path fill="none" stroke="#b6e400" d="M85.1886,-332.5C137.8406,-332.5 254.0381,-332.5 254.0381,-332.5 254.0381,-332.5 254.0381,-525 254.0381,-525 254.0381,-525 338.9816,-525 418.2844,-525"/>
</g>
<!-- pmysl&#45;&#45;Infrastruktura::Forum#Forum -->
<g id="edge23" class="edge">
<title>pmysl&#45;&#45;Infrastruktura::Forum#Forum</title>
<path fill="none" stroke="#b6e400" d="M85.5362,-305.5C146.0036,-305.5 292.0381,-305.5 292.0381,-305.5 292.0381,-305.5 292.0381,-202.5 292.0381,-202.5 292.0381,-202.5 371.9908,-202.5 443.3548,-202.5"/>
</g>
<!-- pmysl&#45;&#45;Miejsce::Miejsce#Klucze do spejsu -->
<g id="edge24" class="edge">
<title>pmysl&#45;&#45;Miejsce::Miejsce#Klucze do spejsu</title>
<path fill="none" stroke="#b6e400" d="M97.2559,-314.5C157.76,-314.5 280.6123,-314.5 383.5053,-314.5"/>
</g>
<!-- kszmigiel -->
<g id="node20" class="node">
<title>kszmigiel</title>
<ellipse fill="none" stroke="#000000" cx="59.7947" cy="-706" rx="55.4913" ry="18"/>
<text text-anchor="middle" x="59.7947" y="-702.3" font-family="Times,serif" font-size="14.00" fill="#000000">kszmigiel</text>
</g>
<!-- kszmigiel&#45;&#45;Infrastruktura::Telegram#t.me/hakierspejs_spam -->
<g id="edge25" class="edge">
<title>kszmigiel&#45;&#45;Infrastruktura::Telegram#t.me/hakierspejs_spam</title>
<path fill="none" stroke="#00ffff" d="M115.0755,-706C192.8107,-706 325.0381,-706 325.0381,-706 325.0381,-706 325.0381,-681.306 325.0381,-669.3448"/>
</g>
<!-- kszmigiel&#45;&#45;Infrastruktura::Meetup#Meetup -->
<g id="edge27" class="edge">
<title>kszmigiel&#45;&#45;Infrastruktura::Meetup#Meetup</title>
<path fill="none" stroke="#00ffff" d="M96.4956,-719.5C162.1801,-719.5 293.0381,-719.5 293.0381,-719.5 293.0381,-719.5 293.0381,-784.2857 293.0381,-784.2857 293.0381,-784.2857 346.6059,-784.2857 405.0912,-784.2857"/>
</g>
<!-- kszmigiel&#45;&#45;Infrastruktura::Telegram#t.me/hakierspejs -->
<g id="edge28" class="edge">
<title>kszmigiel&#45;&#45;Infrastruktura::Telegram#t.me/hakierspejs</title>
<path fill="none" stroke="#00ffff" d="M113.4949,-710.5C169.6481,-710.5 261.2887,-710.5 346.3824,-710.5"/>
</g>
<!-- kszmigiel&#45;&#45;Miejsce::Miejsce#Klucze do spejsu -->
<g id="edge29" class="edge">
<title>kszmigiel&#45;&#45;Miejsce::Miejsce#Klucze do spejsu</title>
<path fill="none" stroke="#00ffff" d="M96.5352,-692.5C147.3892,-692.5 233.0381,-692.5 233.0381,-692.5 233.0381,-692.5 233.0381,-323.5 233.0381,-323.5 233.0381,-323.5 306.5586,-323.5 383.0946,-323.5"/>
</g>
<!-- Infrastruktura::Naklejki#Naklejki -->
<g id="node21" class="node">
<title>Infrastruktura::Naklejki#Naklejki</title>
<ellipse fill="none" stroke="#000000" cx="552.8137" cy="-749" rx="170.8697" ry="18"/>
<text text-anchor="middle" x="552.8137" y="-745.3" font-family="Times,serif" font-size="14.00" fill="#000000">Infrastruktura::Naklejki#Naklejki</text>
</g>
<!-- kszmigiel&#45;&#45;Infrastruktura::Naklejki#Naklejki -->
<g id="edge26" class="edge">
<title>kszmigiel&#45;&#45;Infrastruktura::Naklejki#Naklejki</title>
<path fill="none" stroke="#00ffff" d="M107.7202,-715C177.2912,-715 298.0381,-715 298.0381,-715 298.0381,-715 298.0381,-745.4 298.0381,-745.4 298.0381,-745.4 337.3035,-745.4 385.0048,-745.4"/>
</g>
<!-- ksiezak -->
<g id="node22" class="node">
<title>ksiezak</title>
<ellipse fill="none" stroke="#000000" cx="59.7947" cy="-104" rx="46.2923" ry="18"/>
<text text-anchor="middle" x="59.7947" y="-100.3" font-family="Times,serif" font-size="14.00" fill="#000000">ksiezak</text>
</g>
<!-- Współdzielony&#45;kalendarz&#45;i&#45;lista&#45;kontaktów#Założenie konta -->
<g id="node23" class="node">
<title>Współdzielony&#45;kalendarz&#45;i&#45;lista&#45;kontaktów#Założenie konta</title>
<ellipse fill="none" stroke="#000000" cx="552.8137" cy="-61" rx="289.4488" ry="18"/>
<text text-anchor="middle" x="552.8137" y="-57.3" font-family="Times,serif" font-size="14.00" fill="#000000">Współdzielony&#45;kalendarz&#45;i&#45;lista&#45;kontaktów#Założenie konta</text>
</g>
<!-- ksiezak&#45;&#45;Współdzielony&#45;kalendarz&#45;i&#45;lista&#45;kontaktów#Założenie konta -->
<g id="edge30" class="edge">
<title>ksiezak&#45;&#45;Współdzielony&#45;kalendarz&#45;i&#45;lista&#45;kontaktów#Założenie konta</title>
<path fill="none" stroke="#ab00d5" d="M97.0381,-93.1493C97.0381,-80.4109 97.0381,-61 97.0381,-61 97.0381,-61 173.3477,-61 263.5182,-61"/>
</g>
<!-- Infrastruktura::Matrix#hs&#45;ldz&#45;offtopic:hackerspace.pl -->
<g id="node24" class="node">
<title>Infrastruktura::Matrix#hs&#45;ldz&#45;offtopic:hackerspace.pl</title>
<ellipse fill="none" stroke="#000000" cx="552.8137" cy="-147" rx="262.6534" ry="18"/>
<text text-anchor="middle" x="552.8137" y="-143.3" font-family="Times,serif" font-size="14.00" fill="#000000">Infrastruktura::Matrix#hs&#45;ldz&#45;offtopic:hackerspace.pl</text>
</g>
<!-- ksiezak&#45;&#45;Infrastruktura::Matrix#hs&#45;ldz&#45;offtopic:hackerspace.pl -->
<g id="edge31" class="edge">
<title>ksiezak&#45;&#45;Infrastruktura::Matrix#hs&#45;ldz&#45;offtopic:hackerspace.pl</title>
<path fill="none" stroke="#ab00d5" d="M105.1119,-107.6C177.2251,-107.6 310.0381,-107.6 310.0381,-107.6 310.0381,-107.6 310.0381,-128.8487 310.0381,-140.137"/>
</g>
<!-- Infrastruktura::Matrix#hs&#45;ldz:hackerspace.pl -->
<g id="node25" class="node">
<title>Infrastruktura::Matrix#hs&#45;ldz:hackerspace.pl</title>
<ellipse fill="none" stroke="#000000" cx="552.8137" cy="-104" rx="223.6604" ry="18"/>
<text text-anchor="middle" x="552.8137" y="-100.3" font-family="Times,serif" font-size="14.00" fill="#000000">Infrastruktura::Matrix#hs&#45;ldz:hackerspace.pl</text>
</g>
<!-- ksiezak&#45;&#45;Infrastruktura::Matrix#hs&#45;ldz:hackerspace.pl -->
<g id="edge32" class="edge">
<title>ksiezak&#45;&#45;Infrastruktura::Matrix#hs&#45;ldz:hackerspace.pl</title>
<path fill="none" stroke="#ab00d5" d="M96.8513,-93.2C155.3556,-93.2 272.8697,-93.2 373.9416,-93.2"/>
</g>
<!-- kpc -->
<g id="node26" class="node">
<title>kpc</title>
<ellipse fill="none" stroke="#000000" cx="59.7947" cy="-233" rx="27.8951" ry="18"/>
<text text-anchor="middle" x="59.7947" y="-229.3" font-family="Times,serif" font-size="14.00" fill="#000000">kpc</text>
</g>
<!-- kpc&#45;&#45;Infrastruktura::VM#Hosting -->
<g id="edge33" class="edge">
<title>kpc&#45;&#45;Infrastruktura::VM#Hosting</title>
<path fill="none" stroke="#f29100" d="M85.2634,-225.2857C146.6359,-225.2857 306.1759,-225.2857 421.8489,-225.2857"/>
</g>
<!-- Keij0 -->
<g id="node27" class="node">
<title>Keij0</title>
<ellipse fill="none" stroke="#000000" cx="59.7947" cy="-620" rx="34.394" ry="18"/>
<text text-anchor="middle" x="59.7947" y="-616.3" font-family="Times,serif" font-size="14.00" fill="#000000">Keij0</text>
</g>
<!-- Keij0&#45;&#45;Infrastruktura::Meetup#Meetup -->
<g id="edge34" class="edge">
<title>Keij0&#45;&#45;Infrastruktura::Meetup#Meetup</title>
<path fill="none" stroke="#00c64f" d="M92.3652,-626C156.7289,-626 294.0381,-626 294.0381,-626 294.0381,-626 294.0381,-779.1429 294.0381,-779.1429 294.0381,-779.1429 369.2353,-779.1429 438.5577,-779.1429"/>
</g>
<!-- Keij0&#45;&#45;Infrastruktura::VM#Hosting -->
<g id="edge35" class="edge">
<title>Keij0&#45;&#45;Infrastruktura::VM#Hosting</title>
<path fill="none" stroke="#00c64f" d="M92.4282,-614C134.4233,-614 202.0381,-614 202.0381,-614 202.0381,-614 202.0381,-240.7143 202.0381,-240.7143 202.0381,-240.7143 322.0662,-240.7143 421.699,-240.7143"/>
</g>
<!-- thinkofher -->
<g id="node28" class="node">
<title>thinkofher</title>
<ellipse fill="none" stroke="#000000" cx="59.7947" cy="-168" rx="59.5901" ry="18"/>
<text text-anchor="middle" x="59.7947" y="-164.3" font-family="Times,serif" font-size="14.00" fill="#000000">thinkofher</text>
</g>
<!-- thinkofher&#45;&#45;Infrastruktura::VM#Hosting -->
<g id="edge37" class="edge">
<title>thinkofher&#45;&#45;Infrastruktura::VM#Hosting</title>
<path fill="none" stroke="#2e00e4" d="M99.0381,-181.6999C99.0381,-197.149 99.0381,-220.1429 99.0381,-220.1429 99.0381,-220.1429 317.4968,-220.1429 451.2601,-220.1429"/>
</g>
<!-- thinkofher&#45;&#45;Infrastruktura::Forum#Forum -->
<g id="edge36" class="edge">
<title>thinkofher&#45;&#45;Infrastruktura::Forum#Forum</title>
<path fill="none" stroke="#2e00e4" d="M107.5154,-179C181.8856,-179 327.7337,-179 432.2635,-179"/>
</g>
<!-- thinkofher&#45;&#45;Infrastruktura::Matrix#hs&#45;ldz&#45;offtopic:hackerspace.pl -->
<g id="edge39" class="edge">
<title>thinkofher&#45;&#45;Infrastruktura::Matrix#hs&#45;ldz&#45;offtopic:hackerspace.pl</title>
<path fill="none" stroke="#2e00e4" d="M101.4043,-155C150.0976,-155 234.6538,-155 317.517,-155"/>
</g>
<!-- thinkofher&#45;&#45;Infrastruktura::Matrix#hs&#45;ldz:hackerspace.pl -->
<g id="edge38" class="edge">
<title>thinkofher&#45;&#45;Infrastruktura::Matrix#hs&#45;ldz:hackerspace.pl</title>
<path fill="none" stroke="#2e00e4" d="M113.0381,-159.7109C113.0381,-141.6598 113.0381,-100.4 113.0381,-100.4 113.0381,-100.4 223.4119,-100.4 333.5701,-100.4"/>
</g>
<!-- Martti25 -->
<g id="node29" class="node">
<title>Martti25</title>
<ellipse fill="none" stroke="#000000" cx="59.7947" cy="-749" rx="51.9908" ry="18"/>
<text text-anchor="middle" x="59.7947" y="-745.3" font-family="Times,serif" font-size="14.00" fill="#000000">Martti25</text>
</g>
<!-- Martti25&#45;&#45;Infrastruktura::Meetup#Meetup -->
<g id="edge41" class="edge">
<title>Martti25&#45;&#45;Infrastruktura::Meetup#Meetup</title>
<path fill="none" stroke="#ff0000" d="M105.0381,-758.2221C105.0381,-771.5382 105.0381,-794.5714 105.0381,-794.5714 105.0381,-794.5714 262.8965,-794.5714 391.1564,-794.5714"/>
</g>
<!-- Martti25&#45;&#45;Infrastruktura::Telegram#t.me/hakierspejs -->
<g id="edge43" class="edge">
<title>Martti25&#45;&#45;Infrastruktura::Telegram#t.me/hakierspejs</title>
<path fill="none" stroke="#ff0000" d="M111.0251,-752.6C199.1429,-752.6 370.0381,-752.6 370.0381,-752.6 370.0381,-752.6 370.0381,-729.0469 370.0381,-715.4302"/>
</g>
<!-- Martti25&#45;&#45;Infrastruktura::Github#Github -->
<g id="edge40" class="edge">
<title>Martti25&#45;&#45;Infrastruktura::Github#Github</title>
<path fill="none" stroke="#ff0000" d="M101.8344,-738.2C155.9341,-738.2 243.0381,-738.2 243.0381,-738.2 243.0381,-738.2 243.0381,-543 243.0381,-543 243.0381,-543 334.3646,-543 417.8428,-543"/>
</g>
<!-- Infrastruktura::Facebook#Konto na Fejsie -->
<g id="node30" class="node">
<title>Infrastruktura::Facebook#Konto na Fejsie</title>
<ellipse fill="none" stroke="#000000" cx="552.8137" cy="-835" rx="207.1633" ry="18"/>
<text text-anchor="middle" x="552.8137" y="-831.3" font-family="Times,serif" font-size="14.00" fill="#000000">Infrastruktura::Facebook#Konto na Fejsie</text>
</g>
<!-- Martti25&#45;&#45;Infrastruktura::Facebook#Konto na Fejsie -->
<g id="edge42" class="edge">
<title>Martti25&#45;&#45;Infrastruktura::Facebook#Konto na Fejsie</title>
<path fill="none" stroke="#ff0000" d="M101.5782,-759.8C183.659,-759.8 358.0381,-759.8 358.0381,-759.8 358.0381,-759.8 358.0381,-810.403 358.0381,-828.5885"/>
</g>
<!-- nikolaad -->
<g id="node31" class="node">
<title>nikolaad</title>
<ellipse fill="none" stroke="#000000" cx="59.7947" cy="-835" rx="50.0912" ry="18"/>
<text text-anchor="middle" x="59.7947" y="-831.3" font-family="Times,serif" font-size="14.00" fill="#000000">nikolaad</text>
</g>
<!-- nikolaad&#45;&#45;Infrastruktura::Meetup#Meetup -->
<g id="edge44" class="edge">
<title>nikolaad&#45;&#45;Infrastruktura::Meetup#Meetup</title>
<path fill="none" stroke="#2bd500" d="M100.0381,-824.1177C100.0381,-815.4837 100.0381,-804.8571 100.0381,-804.8571 100.0381,-804.8571 304.4282,-804.8571 438.5593,-804.8571"/>
</g>
<!-- nikolaad&#45;&#45;Infrastruktura::Facebook#Konto na Fejsie -->
<g id="edge45" class="edge">
<title>nikolaad&#45;&#45;Infrastruktura::Facebook#Konto na Fejsie</title>
<path fill="none" stroke="#2bd500" d="M107.0674,-841C164.7298,-841 265.8338,-841 357.1892,-841"/>
</g>
<!-- BluRaf -->
<g id="node32" class="node">
<title>BluRaf</title>
<ellipse fill="none" stroke="#000000" cx="59.7947" cy="-577" rx="42.4939" ry="18"/>
<text text-anchor="middle" x="59.7947" y="-573.3" font-family="Times,serif" font-size="14.00" fill="#000000">BluRaf</text>
</g>
<!-- BluRaf&#45;&#45;Infrastruktura::Telegram#t.me/hakierspejs_spam -->
<g id="edge46" class="edge">
<title>BluRaf&#45;&#45;Infrastruktura::Telegram#t.me/hakierspejs_spam</title>
<path fill="none" stroke="#0061f2" d="M99.654,-583C173.927,-583 326.0381,-583 326.0381,-583 326.0381,-583 326.0381,-637.3469 326.0381,-656.4533"/>
</g>
<!-- BluRaf&#45;&#45;Infrastruktura::Telegram#t.me/hakierspejs -->
<g id="edge51" class="edge">
<title>BluRaf&#45;&#45;Infrastruktura::Telegram#t.me/hakierspejs</title>
<path fill="none" stroke="#0061f2" d="M95.0959,-587C161.6454,-587 299.0381,-587 299.0381,-587 299.0381,-587 299.0381,-697 299.0381,-697 299.0381,-697 328.8551,-697 368.0482,-697"/>
</g>
<!-- BluRaf&#45;&#45;Infrastruktura::IRC#IRC -->
<g id="edge52" class="edge">
<title>BluRaf&#45;&#45;Infrastruktura::IRC#IRC</title>
<path fill="none" stroke="#0061f2" d="M101.8292,-575C172.6777,-575 318.5757,-575 425.3107,-575"/>
</g>
<!-- BluRaf&#45;&#45;Infrastruktura::Matrix#hs&#45;ldz&#45;offtopic:hackerspace.pl -->
<g id="edge48" class="edge">
<title>BluRaf&#45;&#45;Infrastruktura::Matrix#hs&#45;ldz&#45;offtopic:hackerspace.pl</title>
<path fill="none" stroke="#0061f2" d="M95.1929,-567C117.0863,-567 141.0381,-567 141.0381,-567 141.0381,-567 141.0381,-160 141.0381,-160 141.0381,-160 260.6953,-160 371.0043,-160"/>
</g>
<!-- BluRaf&#45;&#45;Infrastruktura::Matrix#hs&#45;ldz:hackerspace.pl -->
<g id="edge50" class="edge">
<title>BluRaf&#45;&#45;Infrastruktura::Matrix#hs&#45;ldz:hackerspace.pl</title>
<path fill="none" stroke="#0061f2" d="M86.3507,-563C106.2424,-563 130.0381,-563 130.0381,-563 130.0381,-563 130.0381,-114.8 130.0381,-114.8 130.0381,-114.8 258.5188,-114.8 373.8252,-114.8"/>
</g>
<!-- BluRaf&#45;&#45;Infrastruktura::Facebook#Konto na Fejsie -->
<g id="edge47" class="edge">
<title>BluRaf&#45;&#45;Infrastruktura::Facebook#Konto na Fejsie</title>
<path fill="none" stroke="#0061f2" d="M86.6772,-591C113.5917,-591 151.0381,-591 151.0381,-591 151.0381,-591 151.0381,-829 151.0381,-829 151.0381,-829 255.0442,-829 357.2222,-829"/>
</g>
<!-- Infrastruktura::Mumble#Mumble -->
<g id="node33" class="node">
<title>Infrastruktura::Mumble#Mumble</title>
<ellipse fill="none" stroke="#000000" cx="552.8137" cy="-620" rx="167.8704" ry="18"/>
<text text-anchor="middle" x="552.8137" y="-616.3" font-family="Times,serif" font-size="14.00" fill="#000000">Infrastruktura::Mumble#Mumble</text>
</g>
<!-- BluRaf&#45;&#45;Infrastruktura::Mumble#Mumble -->
<g id="edge49" class="edge">
<title>BluRaf&#45;&#45;Infrastruktura::Mumble#Mumble</title>
<path fill="none" stroke="#0061f2" d="M101.8735,-579C191.2756,-579 392.0381,-579 392.0381,-579 392.0381,-579 392.0381,-603.5264 392.0381,-614.64"/>
</g>
<!-- biniu -->
<g id="node34" class="node">
<title>biniu</title>
<ellipse fill="none" stroke="#000000" cx="59.7947" cy="-792" rx="34.394" ry="18"/>
<text text-anchor="middle" x="59.7947" y="-788.3" font-family="Times,serif" font-size="14.00" fill="#000000">biniu</text>
</g>
<!-- biniu&#45;&#45;Infrastruktura::Meetup#Meetup -->
<g id="edge53" class="edge">
<title>biniu&#45;&#45;Infrastruktura::Meetup#Meetup</title>
<path fill="none" stroke="#c60077" d="M91.0093,-799.7143C152.976,-799.7143 295.0578,-799.7143 405.38,-799.7143"/>
</g>
<!-- kpc21 -->
<g id="node35" class="node">
<title>kpc21</title>
<ellipse fill="none" stroke="#000000" cx="59.7947" cy="-663" rx="39.7935" ry="18"/>
<text text-anchor="middle" x="59.7947" y="-659.3" font-family="Times,serif" font-size="14.00" fill="#000000">kpc21</text>
</g>
<!-- kpc21&#45;&#45;Infrastruktura::Telegram#t.me/hakierspejs_spam -->
<g id="edge54" class="edge">
<title>kpc21&#45;&#45;Infrastruktura::Telegram#t.me/hakierspejs_spam</title>
<path fill="none" stroke="#b6e400" d="M99.7229,-663C146.6025,-663 228.3156,-663 309.5575,-663"/>
</g>
<!-- q3k -->
<g id="node36" class="node">
<title>q3k</title>
<ellipse fill="none" stroke="#000000" cx="59.7947" cy="-405" rx="28.6953" ry="18"/>
<text text-anchor="middle" x="59.7947" y="-401.3" font-family="Times,serif" font-size="14.00" fill="#000000">q3k</text>
</g>
<!-- q3k&#45;&#45;Infrastruktura::Domeny#Domeny -->
<g id="edge56" class="edge">
<title>q3k&#45;&#45;Infrastruktura::Domeny#Domeny</title>
<path fill="none" stroke="#00ffff" d="M86.8948,-399C148.9483,-399 296.0381,-399 296.0381,-399 296.0381,-399 296.0381,-286.8 296.0381,-286.8 296.0381,-286.8 356.2825,-286.8 418.4097,-286.8"/>
</g>
<!-- q3k&#45;&#45;Infrastruktura::Lista mailingowa#Lista mailingowa -->
<g id="edge55" class="edge">
<title>q3k&#45;&#45;Infrastruktura::Lista mailingowa#Lista mailingowa</title>
<path fill="none" stroke="#00ffff" d="M87.0038,-411C131.6669,-411 224.7128,-411 315.986,-411"/>
</g>
</g>
</svg>
