<?xml version="1.0" encoding="UTF-8" standalone="no"?>
<!DOCTYPE svg PUBLIC "-//W3C//DTD SVG 1.1//EN"
 "http://www.w3.org/Graphics/SVG/1.1/DTD/svg11.dtd">
<!-- Generated by graphviz version 2.43.0 (0)
 -->
<!-- Title: %3 Pages: 1 -->
<svg width="1001pt" height="1420pt"
 viewBox="0.00 0.00 1000.82 1420.00" xmlns="http://www.w3.org/2000/svg" xmlns:xlink="http://www.w3.org/1999/xlink">
<g id="graph0" class="graph" transform="scale(1 1) rotate(0) translate(4 1416)">
<title>%3</title>
<polygon fill="white" stroke="transparent" points="-4,4 -4,-1416 996.82,-1416 996.82,4 -4,4"/>
<!-- cytP450 -->
<g id="node1" class="node">
<title>cytP450</title>
<ellipse fill="none" stroke="black" cx="71.49" cy="-1179" rx="48.99" ry="18"/>
<text text-anchor="middle" x="71.49" y="-1175.3" font-family="Times,serif" font-size="14.00">cytP450</text>
</g>
<!-- Zamek#Zamek -->
<g id="node2" class="node">
<title>Zamek#Zamek</title>
<ellipse fill="none" stroke="black" cx="639.91" cy="-1244" rx="81.49" ry="18"/>
<text text-anchor="middle" x="639.91" y="-1240.3" font-family="Times,serif" font-size="14.00">Zamek#Zamek</text>
</g>
<!-- cytP450&#45;&#45;Zamek#Zamek -->
<g id="edge1" class="edge">
<title>cytP450&#45;&#45;Zamek#Zamek</title>
<path fill="none" stroke="#ff0000" d="M104.45,-1192.33C171.14,-1192.33 315.82,-1192.33 315.82,-1192.33 315.82,-1192.33 315.82,-1233 315.82,-1233 315.82,-1233 480.98,-1233 575.49,-1233"/>
</g>
<!-- Infrastruktura::Domeny#Domeny -->
<g id="node3" class="node">
<title>Infrastruktura::Domeny#Domeny</title>
<ellipse fill="none" stroke="black" cx="639.91" cy="-878" rx="167.07" ry="18"/>
<text text-anchor="middle" x="639.91" y="-874.3" font-family="Times,serif" font-size="14.00">Infrastruktura::Domeny#Domeny</text>
</g>
<!-- cytP450&#45;&#45;Infrastruktura::Domeny#Domeny -->
<g id="edge2" class="edge">
<title>cytP450&#45;&#45;Infrastruktura::Domeny#Domeny</title>
<path fill="none" stroke="#ff0000" d="M108.89,-1167.43C159.57,-1167.43 243.82,-1167.43 243.82,-1167.43 243.82,-1167.43 243.82,-887 243.82,-887 243.82,-887 382.08,-887 495.23,-887"/>
</g>
<!-- Chciejlista#Elektronika (w sensie urzdze konsumenckich) -->
<g id="node4" class="node">
<title>Chciejlista#Elektronika (w sensie urzdze konsumenckich)</title>
<ellipse fill="none" stroke="black" cx="639.91" cy="-1201" rx="289.75" ry="18"/>
<text text-anchor="middle" x="639.91" y="-1197.3" font-family="Times,serif" font-size="14.00">Chciejlista#Elektronika (w sensie urzdze konsumenckich)</text>
</g>
<!-- cytP450&#45;&#45;Chciejlista#Elektronika (w sensie urzdze konsumenckich) -->
<g id="edge3" class="edge">
<title>cytP450&#45;&#45;Chciejlista#Elektronika (w sensie urzdze konsumenckich)</title>
<path fill="none" stroke="#ff0000" d="M114.68,-1187.67C184.5,-1187.67 326.34,-1187.67 445.04,-1187.67"/>
</g>
<!-- Przegld&#45;lokali&#45;na&#45;wynajem&#45;w&#45;odzi.&#45;Fundusz&#45;1000&#45;&#45;&#45;1500.#Bot Aleksego -->
<g id="node5" class="node">
<title>Przegld&#45;lokali&#45;na&#45;wynajem&#45;w&#45;odzi.&#45;Fundusz&#45;1000&#45;&#45;&#45;1500.#Bot Aleksego</title>
<ellipse fill="none" stroke="black" cx="639.91" cy="-1158" rx="351.74" ry="18"/>
<text text-anchor="middle" x="639.91" y="-1154.3" font-family="Times,serif" font-size="14.00">Przegld&#45;lokali&#45;na&#45;wynajem&#45;w&#45;odzi.&#45;Fundusz&#45;1000&#45;&#45;&#45;1500.#Bot Aleksego</text>
</g>
<!-- cytP450&#45;&#45;Przegld&#45;lokali&#45;na&#45;wynajem&#45;w&#45;odzi.&#45;Fundusz&#45;1000&#45;&#45;&#45;1500.#Bot Aleksego -->
<g id="edge4" class="edge">
<title>cytP450&#45;&#45;Przegld&#45;lokali&#45;na&#45;wynajem&#45;w&#45;odzi.&#45;Fundusz&#45;1000&#45;&#45;&#45;1500.#Bot Aleksego</title>
<path fill="none" stroke="#ff0000" d="M118.49,-1173.86C195.43,-1173.86 351.85,-1173.86 473.39,-1173.86"/>
</g>
<!-- Miejsce::Miejsce#Klucze do spejsu -->
<g id="node6" class="node">
<title>Miejsce::Miejsce#Klucze do spejsu</title>
<ellipse fill="none" stroke="black" cx="639.91" cy="-1050" rx="172.77" ry="18"/>
<text text-anchor="middle" x="639.91" y="-1046.3" font-family="Times,serif" font-size="14.00">Miejsce::Miejsce#Klucze do spejsu</text>
</g>
<!-- cytP450&#45;&#45;Miejsce::Miejsce#Klucze do spejsu -->
<g id="edge5" class="edge">
<title>cytP450&#45;&#45;Miejsce::Miejsce#Klucze do spejsu</title>
<path fill="none" stroke="#ff0000" d="M116.18,-1171.71C175.49,-1171.71 272.82,-1171.71 272.82,-1171.71 272.82,-1171.71 272.82,-1063.5 272.82,-1063.5 272.82,-1063.5 417.79,-1063.5 525.52,-1063.5"/>
</g>
<!-- Chciejlista#DIY -->
<g id="node7" class="node">
<title>Chciejlista#DIY</title>
<ellipse fill="none" stroke="black" cx="639.91" cy="-1115" rx="83.69" ry="18"/>
<text text-anchor="middle" x="639.91" y="-1111.3" font-family="Times,serif" font-size="14.00">Chciejlista#DIY</text>
</g>
<!-- cytP450&#45;&#45;Chciejlista#DIY -->
<g id="edge6" class="edge">
<title>cytP450&#45;&#45;Chciejlista#DIY</title>
<path fill="none" stroke="#ff0000" d="M94.72,-1163.14C112.79,-1163.14 134.82,-1163.14 134.82,-1163.14 134.82,-1163.14 134.82,-1128 134.82,-1128 134.82,-1128 448.52,-1128 581.47,-1128"/>
</g>
<!-- Kanay&#45;komunikacji# -->
<g id="node8" class="node">
<title>Kanay&#45;komunikacji#</title>
<ellipse fill="none" stroke="black" cx="639.91" cy="-577" rx="108.58" ry="18"/>
<text text-anchor="middle" x="639.91" y="-573.3" font-family="Times,serif" font-size="14.00">Kanay&#45;komunikacji#</text>
</g>
<!-- cytP450&#45;&#45;Kanay&#45;komunikacji# -->
<g id="edge7" class="edge">
<title>cytP450&#45;&#45;Kanay&#45;komunikacji#</title>
<path fill="none" stroke="#ff0000" d="M103.31,-1165.29C137.45,-1165.29 186.82,-1165.29 186.82,-1165.29 186.82,-1165.29 186.82,-592.88 186.82,-592.88 186.82,-592.88 470.32,-592.88 588.81,-592.88"/>
</g>
<!-- Stowarzyszenie#Komisja Rewizyjna -->
<g id="node9" class="node">
<title>Stowarzyszenie#Komisja Rewizyjna</title>
<ellipse fill="none" stroke="black" cx="639.91" cy="-1007" rx="178.17" ry="18"/>
<text text-anchor="middle" x="639.91" y="-1003.3" font-family="Times,serif" font-size="14.00">Stowarzyszenie#Komisja Rewizyjna</text>
</g>
<!-- cytP450&#45;&#45;Stowarzyszenie#Komisja Rewizyjna -->
<g id="edge8" class="edge">
<title>cytP450&#45;&#45;Stowarzyszenie#Komisja Rewizyjna</title>
<path fill="none" stroke="#ff0000" d="M113.07,-1169.57C168.26,-1169.57 258.82,-1169.57 258.82,-1169.57 258.82,-1169.57 258.82,-1016 258.82,-1016 258.82,-1016 379.82,-1016 485.46,-1016"/>
</g>
<!-- d33tah -->
<g id="node10" class="node">
<title>d33tah</title>
<ellipse fill="none" stroke="black" cx="71.49" cy="-577" rx="43.59" ry="18"/>
<text text-anchor="middle" x="71.49" y="-573.3" font-family="Times,serif" font-size="14.00">d33tah</text>
</g>
<!-- d33tah&#45;&#45;Infrastruktura::Domeny#Domeny -->
<g id="edge9" class="edge">
<title>d33tah&#45;&#45;Infrastruktura::Domeny#Domeny</title>
<path fill="none" stroke="#2bd500" d="M108.66,-586.53C151.43,-586.53 215.82,-586.53 215.82,-586.53 215.82,-586.53 215.82,-869 215.82,-869 215.82,-869 372.29,-869 495.15,-869"/>
</g>
<!-- d33tah&#45;&#45;Miejsce::Miejsce#Klucze do spejsu -->
<g id="edge18" class="edge">
<title>d33tah&#45;&#45;Miejsce::Miejsce#Klucze do spejsu</title>
<path fill="none" stroke="#2bd500" d="M104.8,-588.65C143.12,-588.65 200.82,-588.65 200.82,-588.65 200.82,-588.65 200.82,-1036.5 200.82,-1036.5 200.82,-1036.5 395.31,-1036.5 525.4,-1036.5"/>
</g>
<!-- d33tah&#45;&#45;Kanay&#45;komunikacji# -->
<g id="edge20" class="edge">
<title>d33tah&#45;&#45;Kanay&#45;komunikacji#</title>
<path fill="none" stroke="#2bd500" d="M113.29,-582.29C201.61,-582.29 409.49,-582.29 536.06,-582.29"/>
</g>
<!-- Bazy&#45;danych#Pad -->
<g id="node11" class="node">
<title>Bazy&#45;danych#Pad</title>
<ellipse fill="none" stroke="black" cx="639.91" cy="-491" rx="94.48" ry="18"/>
<text text-anchor="middle" x="639.91" y="-487.3" font-family="Times,serif" font-size="14.00">Bazy&#45;danych#Pad</text>
</g>
<!-- d33tah&#45;&#45;Bazy&#45;danych#Pad -->
<g id="edge10" class="edge">
<title>d33tah&#45;&#45;Bazy&#45;danych#Pad</title>
<path fill="none" stroke="#2bd500" d="M114.98,-575.94C207.36,-575.94 414.82,-575.94 414.82,-575.94 414.82,-575.94 414.82,-497 414.82,-497 414.82,-497 488.03,-497 550.95,-497"/>
</g>
<!-- Stowarzyszenie#Zarzd -->
<g id="node12" class="node">
<title>Stowarzyszenie#Zarzd</title>
<ellipse fill="none" stroke="black" cx="639.91" cy="-405" rx="123.48" ry="18"/>
<text text-anchor="middle" x="639.91" y="-401.3" font-family="Times,serif" font-size="14.00">Stowarzyszenie#Zarzd</text>
</g>
<!-- d33tah&#45;&#45;Stowarzyszenie#Zarzd -->
<g id="edge11" class="edge">
<title>d33tah&#45;&#45;Stowarzyszenie#Zarzd</title>
<path fill="none" stroke="#2bd500" d="M114.46,-580.18C227.37,-580.18 523.82,-580.18 523.82,-580.18 523.82,-580.18 523.82,-442.44 523.82,-411.23"/>
</g>
<!-- Infrastruktura::Telegram#Spacerspejs: t.me/joinchat/UYf2ONtNj21J1DS6 -->
<g id="node13" class="node">
<title>Infrastruktura::Telegram#Spacerspejs: t.me/joinchat/UYf2ONtNj21J1DS6</title>
<ellipse fill="none" stroke="black" cx="639.91" cy="-835" rx="352.84" ry="18"/>
<text text-anchor="middle" x="639.91" y="-831.3" font-family="Times,serif" font-size="14.00">Infrastruktura::Telegram#Spacerspejs: t.me/joinchat/UYf2ONtNj21J1DS6</text>
</g>
<!-- d33tah&#45;&#45;Infrastruktura::Telegram#Spacerspejs: t.me/joinchat/UYf2ONtNj21J1DS6 -->
<g id="edge12" class="edge">
<title>d33tah&#45;&#45;Infrastruktura::Telegram#Spacerspejs: t.me/joinchat/UYf2ONtNj21J1DS6</title>
<path fill="none" stroke="#2bd500" d="M111.44,-584.41C182.11,-584.41 321.82,-584.41 321.82,-584.41 321.82,-584.41 321.82,-784.05 321.82,-826.95"/>
</g>
<!-- Infrastruktura::IRC#IRC -->
<g id="node14" class="node">
<title>Infrastruktura::IRC#IRC</title>
<ellipse fill="none" stroke="black" cx="639.91" cy="-362" rx="124.58" ry="18"/>
<text text-anchor="middle" x="639.91" y="-358.3" font-family="Times,serif" font-size="14.00">Infrastruktura::IRC#IRC</text>
</g>
<!-- d33tah&#45;&#45;Infrastruktura::IRC#IRC -->
<g id="edge13" class="edge">
<title>d33tah&#45;&#45;Infrastruktura::IRC#IRC</title>
<path fill="none" stroke="#2bd500" d="M113.32,-571.71C203.84,-571.71 409.82,-571.71 409.82,-571.71 409.82,-571.71 409.82,-374 409.82,-374 409.82,-374 482.88,-374 546.65,-374"/>
</g>
<!-- Infrastruktura::Mariuszbot#Mariuszbot -->
<g id="node15" class="node">
<title>Infrastruktura::Mariuszbot#Mariuszbot</title>
<ellipse fill="none" stroke="black" cx="639.91" cy="-792" rx="196.07" ry="18"/>
<text text-anchor="middle" x="639.91" y="-788.3" font-family="Times,serif" font-size="14.00">Infrastruktura::Mariuszbot#Mariuszbot</text>
</g>
<!-- d33tah&#45;&#45;Infrastruktura::Mariuszbot#Mariuszbot -->
<g id="edge14" class="edge">
<title>d33tah&#45;&#45;Infrastruktura::Mariuszbot#Mariuszbot</title>
<path fill="none" stroke="#2bd500" d="M103.82,-589.18C103.82,-634.66 103.82,-792 103.82,-792 103.82,-792 290.34,-792 443.33,-792"/>
</g>
<!-- Drzwi&#45;frontowe#Ekran  -->
<g id="node16" class="node">
<title>Drzwi&#45;frontowe#Ekran </title>
<ellipse fill="none" stroke="black" cx="639.91" cy="-749" rx="120.78" ry="18"/>
<text text-anchor="middle" x="639.91" y="-745.3" font-family="Times,serif" font-size="14.00">Drzwi&#45;frontowe#Ekran </text>
</g>
<!-- d33tah&#45;&#45;Drzwi&#45;frontowe#Ekran  -->
<g id="edge15" class="edge">
<title>d33tah&#45;&#45;Drzwi&#45;frontowe#Ekran </title>
<path fill="none" stroke="black" d="M105.82,-588.29C105.82,-626.55 105.82,-749 105.82,-749 105.82,-749 361.14,-749 518.71,-749"/>
</g>
<!-- Bazy&#45;danych#Grafana -->
<g id="node20" class="node">
<title>Bazy&#45;danych#Grafana</title>
<ellipse fill="none" stroke="black" cx="639.91" cy="-448" rx="114.28" ry="18"/>
<text text-anchor="middle" x="639.91" y="-444.3" font-family="Times,serif" font-size="14.00">Bazy&#45;danych#Grafana</text>
</g>
<!-- d33tah&#45;&#45;Bazy&#45;danych#Grafana -->
<g id="edge16" class="edge">
<title>d33tah&#45;&#45;Bazy&#45;danych#Grafana</title>
<path fill="none" stroke="#2bd500" d="M114.38,-573.82C206.05,-573.82 412.82,-573.82 412.82,-573.82 412.82,-573.82 412.82,-460.86 412.82,-460.86 412.82,-460.86 494.47,-460.86 559.85,-460.86"/>
</g>
<!-- Marketing&#45;i&#45;media&#45;spoecznociowe# -->
<g id="node21" class="node">
<title>Marketing&#45;i&#45;media&#45;spoecznociowe#</title>
<ellipse fill="none" stroke="black" cx="639.91" cy="-319" rx="183.07" ry="18"/>
<text text-anchor="middle" x="639.91" y="-315.3" font-family="Times,serif" font-size="14.00">Marketing&#45;i&#45;media&#45;spoecznociowe#</text>
</g>
<!-- d33tah&#45;&#45;Marketing&#45;i&#45;media&#45;spoecznociowe# -->
<g id="edge17" class="edge">
<title>d33tah&#45;&#45;Marketing&#45;i&#45;media&#45;spoecznociowe#</title>
<path fill="none" stroke="#2bd500" d="M115.02,-578.06C224.17,-578.06 500.82,-578.06 500.82,-578.06 500.82,-578.06 500.82,-381.48 500.82,-330.8"/>
</g>
<!-- Infrastruktura::Github#Github -->
<g id="node22" class="node">
<title>Infrastruktura::Github#Github</title>
<ellipse fill="none" stroke="black" cx="639.91" cy="-233" rx="154.07" ry="18"/>
<text text-anchor="middle" x="639.91" y="-229.3" font-family="Times,serif" font-size="14.00">Infrastruktura::Github#Github</text>
</g>
<!-- d33tah&#45;&#45;Infrastruktura::Github#Github -->
<g id="edge19" class="edge">
<title>d33tah&#45;&#45;Infrastruktura::Github#Github</title>
<path fill="none" stroke="#2bd500" d="M111.49,-569.59C200.23,-569.59 405.82,-569.59 405.82,-569.59 405.82,-569.59 405.82,-246.5 405.82,-246.5 405.82,-246.5 474.84,-246.5 537.92,-246.5"/>
</g>
<!-- Infrastruktura::Telegram#HS24: t.me/hsl_info -->
<g id="node23" class="node">
<title>Infrastruktura::Telegram#HS24: t.me/hsl_info</title>
<ellipse fill="none" stroke="black" cx="639.91" cy="-706" rx="231.26" ry="18"/>
<text text-anchor="middle" x="639.91" y="-702.3" font-family="Times,serif" font-size="14.00">Infrastruktura::Telegram#HS24: t.me/hsl_info</text>
</g>
<!-- d33tah&#45;&#45;Infrastruktura::Telegram#HS24: t.me/hsl_info -->
<g id="edge21" class="edge">
<title>d33tah&#45;&#45;Infrastruktura::Telegram#HS24: t.me/hsl_info</title>
<path fill="none" stroke="#2bd500" d="M107.82,-587.12C107.82,-617.53 107.82,-706 107.82,-706 107.82,-706 264.97,-706 408.46,-706"/>
</g>
<!-- Infrastruktura::Telegram#posty: t.me/hakierspejs_spam -->
<g id="node24" class="node">
<title>Infrastruktura::Telegram#posty: t.me/hakierspejs_spam</title>
<ellipse fill="none" stroke="black" cx="639.91" cy="-620" rx="284.05" ry="18"/>
<text text-anchor="middle" x="639.91" y="-616.3" font-family="Times,serif" font-size="14.00">Infrastruktura::Telegram#posty: t.me/hakierspejs_spam</text>
</g>
<!-- d33tah&#45;&#45;Infrastruktura::Telegram#posty: t.me/hakierspejs_spam -->
<g id="edge22" class="edge">
<title>d33tah&#45;&#45;Infrastruktura::Telegram#posty: t.me/hakierspejs_spam</title>
<path fill="none" stroke="#2bd500" d="M109.82,-585.58C109.82,-596.51 109.82,-614 109.82,-614 109.82,-614 240.28,-614 371.76,-614"/>
</g>
<!-- Infrastruktura::Telegram#G贸wny: t.me/hakierspejs -->
<g id="node25" class="node">
<title>Infrastruktura::Telegram#G贸wny: t.me/hakierspejs</title>
<ellipse fill="none" stroke="black" cx="639.91" cy="-190" rx="251.56" ry="18"/>
<text text-anchor="middle" x="639.91" y="-186.3" font-family="Times,serif" font-size="14.00">Infrastruktura::Telegram#G贸wny: t.me/hakierspejs</text>
</g>
<!-- d33tah&#45;&#45;Infrastruktura::Telegram#G贸wny: t.me/hakierspejs -->
<g id="edge23" class="edge">
<title>d33tah&#45;&#45;Infrastruktura::Telegram#G贸wny: t.me/hakierspejs</title>
<path fill="none" stroke="#2bd500" d="M108.52,-567.47C194.39,-567.47 399.82,-567.47 399.82,-567.47 399.82,-567.47 399.82,-242.59 399.82,-195.63"/>
</g>
<!-- Bazy&#45;danych#Trello -->
<g id="node26" class="node">
<title>Bazy&#45;danych#Trello</title>
<ellipse fill="none" stroke="black" cx="639.91" cy="-534" rx="103.98" ry="18"/>
<text text-anchor="middle" x="639.91" y="-530.3" font-family="Times,serif" font-size="14.00">Bazy&#45;danych#Trello</text>
</g>
<!-- d33tah&#45;&#45;Bazy&#45;danych#Trello -->
<g id="edge24" class="edge">
<title>d33tah&#45;&#45;Bazy&#45;danych#Trello</title>
<path fill="none" stroke="#2bd500" d="M104.8,-565.35C113.17,-565.35 119.82,-565.35 119.82,-565.35 119.82,-565.35 119.82,-546.86 119.82,-546.86 119.82,-546.86 423.91,-546.86 567.04,-546.86"/>
</g>
<!-- nastpne -->
<g id="node17" class="node">
<title>nastpne</title>
<ellipse fill="none" stroke="black" cx="71.49" cy="-1222" rx="53.09" ry="18"/>
<text text-anchor="middle" x="71.49" y="-1218.3" font-family="Times,serif" font-size="14.00">nastpne</text>
</g>
<!-- spotkanie -->
<g id="node18" class="node">
<title>spotkanie</title>
<ellipse fill="none" stroke="black" cx="71.49" cy="-1265" rx="55.79" ry="18"/>
<text text-anchor="middle" x="71.49" y="-1261.3" font-family="Times,serif" font-size="14.00">spotkanie</text>
</g>
<g id="node19" class="node">
<title></title>
<ellipse fill="none" stroke="#2bd500" cx="71.49" cy="-1308" rx="27" ry="18"/>
</g>
<!-- kujaw -->
<g id="node27" class="node">
<title>kujaw</title>
<ellipse fill="none" stroke="black" cx="71.49" cy="-534" rx="38.19" ry="18"/>
<text text-anchor="middle" x="71.49" y="-530.3" font-family="Times,serif" font-size="14.00">kujaw</text>
</g>
<!-- kujaw&#45;&#45;Miejsce::Miejsce#Klucze do spejsu -->
<g id="edge28" class="edge">
<title>kujaw&#45;&#45;Miejsce::Miejsce#Klucze do spejsu</title>
<path fill="none" stroke="#0061f2" d="M109.55,-536.57C122.52,-536.57 133.82,-536.57 133.82,-536.57 133.82,-536.57 133.82,-1041 133.82,-1041 133.82,-1041 340.89,-1041 490.12,-1041"/>
</g>
<!-- kujaw&#45;&#45;Stowarzyszenie#Zarzd -->
<g id="edge25" class="edge">
<title>kujaw&#45;&#45;Stowarzyszenie#Zarzd</title>
<path fill="none" stroke="#0061f2" d="M109.5,-531.43C218.07,-531.43 521.82,-531.43 521.82,-531.43 521.82,-531.43 521.82,-434.63 521.82,-410.43"/>
</g>
<!-- kujaw&#45;&#45;Marketing&#45;i&#45;media&#45;spoecznociowe# -->
<g id="edge27" class="edge">
<title>kujaw&#45;&#45;Marketing&#45;i&#45;media&#45;spoecznociowe#</title>
<path fill="none" stroke="#0061f2" d="M106.19,-526.29C206.01,-526.29 486.82,-526.29 486.82,-526.29 486.82,-526.29 486.82,-370.4 486.82,-329"/>
</g>
<!-- Marketing&#45;i&#45;media&#45;spoecznociowe#Naklejki -->
<g id="node28" class="node">
<title>Marketing&#45;i&#45;media&#45;spoecznociowe#Naklejki</title>
<ellipse fill="none" stroke="black" cx="639.91" cy="-276" rx="221.76" ry="18"/>
<text text-anchor="middle" x="639.91" y="-272.3" font-family="Times,serif" font-size="14.00">Marketing&#45;i&#45;media&#45;spoecznociowe#Naklejki</text>
</g>
<!-- kujaw&#45;&#45;Marketing&#45;i&#45;media&#45;spoecznociowe#Naklejki -->
<g id="edge26" class="edge">
<title>kujaw&#45;&#45;Marketing&#45;i&#45;media&#45;spoecznociowe#Naklejki</title>
<path fill="none" stroke="#0061f2" d="M98.43,-521.14C183.03,-521.14 437.82,-521.14 437.82,-521.14 437.82,-521.14 437.82,-324.98 437.82,-283.61"/>
</g>
<!-- Marketing&#45;i&#45;media&#45;spoecznociowe#Logo nr. 2 -->
<g id="node29" class="node">
<title>Marketing&#45;i&#45;media&#45;spoecznociowe#Logo nr. 2</title>
<ellipse fill="none" stroke="black" cx="639.91" cy="-663" rx="229.36" ry="18"/>
<text text-anchor="middle" x="639.91" y="-659.3" font-family="Times,serif" font-size="14.00">Marketing&#45;i&#45;media&#45;spoecznociowe#Logo nr. 2</text>
</g>
<!-- kujaw&#45;&#45;Marketing&#45;i&#45;media&#45;spoecznociowe#Logo nr. 2 -->
<g id="edge29" class="edge">
<title>kujaw&#45;&#45;Marketing&#45;i&#45;media&#45;spoecznociowe#Logo nr. 2</title>
<path fill="none" stroke="#0061f2" d="M106.18,-541.71C114.89,-541.71 121.82,-541.71 121.82,-541.71 121.82,-541.71 121.82,-652.2 121.82,-652.2 121.82,-652.2 307.18,-652.2 456.16,-652.2"/>
</g>
<!-- SP7Q -->
<g id="node30" class="node">
<title>SP7Q</title>
<ellipse fill="none" stroke="black" cx="71.49" cy="-276" rx="36.29" ry="18"/>
<text text-anchor="middle" x="71.49" y="-272.3" font-family="Times,serif" font-size="14.00">SP7Q</text>
</g>
<!-- SP7Q&#45;&#45;Stowarzyszenie#Zarzd -->
<g id="edge32" class="edge">
<title>SP7Q&#45;&#45;Stowarzyszenie#Zarzd</title>
<path fill="none" stroke="#c60077" d="M100.86,-286.8C180.19,-286.8 392.82,-286.8 392.82,-286.8 392.82,-286.8 392.82,-396 392.82,-396 392.82,-396 465.93,-396 532.61,-396"/>
</g>
<!-- SP7Q&#45;&#45;Marketing&#45;i&#45;media&#45;spoecznociowe# -->
<g id="edge30" class="edge">
<title>SP7Q&#45;&#45;Marketing&#45;i&#45;media&#45;spoecznociowe#</title>
<path fill="none" stroke="#c60077" d="M107.47,-279.6C195.92,-279.6 416.82,-279.6 416.82,-279.6 416.82,-279.6 416.82,-307 416.82,-307 416.82,-307 456.9,-307 503.07,-307"/>
</g>
<!-- SP7Q&#45;&#45;Infrastruktura::Github#Github -->
<g id="edge31" class="edge">
<title>SP7Q&#45;&#45;Infrastruktura::Github#Github</title>
<path fill="none" stroke="#c60077" d="M107.16,-272.4C192.58,-272.4 401.82,-272.4 401.82,-272.4 401.82,-272.4 401.82,-237.5 401.82,-237.5 401.82,-237.5 442.64,-237.5 490.48,-237.5"/>
</g>
<!-- Polimerek -->
<g id="node31" class="node">
<title>Polimerek</title>
<ellipse fill="none" stroke="black" cx="71.49" cy="-491" rx="57.39" ry="18"/>
<text text-anchor="middle" x="71.49" y="-487.3" font-family="Times,serif" font-size="14.00">Polimerek</text>
</g>
<!-- Polimerek&#45;&#45;Stowarzyszenie#Zarzd -->
<g id="edge33" class="edge">
<title>Polimerek&#45;&#45;Stowarzyszenie#Zarzd</title>
<path fill="none" stroke="#b6e400" d="M125.45,-485C244.43,-485 518.82,-485 518.82,-485 518.82,-485 518.82,-424.84 518.82,-408.86"/>
</g>
<!-- kasesag -->
<g id="node32" class="node">
<title>kasesag</title>
<ellipse fill="none" stroke="black" cx="71.49" cy="-190" rx="48.19" ry="18"/>
<text text-anchor="middle" x="71.49" y="-186.3" font-family="Times,serif" font-size="14.00">kasesag</text>
</g>
<!-- kasesag&#45;&#45;Stowarzyszenie#Zarzd -->
<g id="edge35" class="edge">
<title>kasesag&#45;&#45;Stowarzyszenie#Zarzd</title>
<path fill="none" stroke="#00ffff" d="M116.85,-196C127,-196 134.82,-196 134.82,-196 134.82,-196 134.82,-405 134.82,-405 134.82,-405 366.82,-405 516.35,-405"/>
</g>
<!-- Marketing&#45;i&#45;media&#45;spoecznociowe#Przycisk HS&#45;LDZ -->
<g id="node33" class="node">
<title>Marketing&#45;i&#45;media&#45;spoecznociowe#Przycisk HS&#45;LDZ</title>
<ellipse fill="none" stroke="black" cx="639.91" cy="-104" rx="261.85" ry="18"/>
<text text-anchor="middle" x="639.91" y="-100.3" font-family="Times,serif" font-size="14.00">Marketing&#45;i&#45;media&#45;spoecznociowe#Przycisk HS&#45;LDZ</text>
</g>
<!-- kasesag&#45;&#45;Marketing&#45;i&#45;media&#45;spoecznociowe#Przycisk HS&#45;LDZ -->
<g id="edge34" class="edge">
<title>kasesag&#45;&#45;Marketing&#45;i&#45;media&#45;spoecznociowe#Przycisk HS&#45;LDZ</title>
<path fill="none" stroke="#00ffff" d="M116.91,-184C203.53,-184 383.82,-184 383.82,-184 383.82,-184 383.82,-123.84 383.82,-107.86"/>
</g>
<!-- pzduniak -->
<g id="node34" class="node">
<title>pzduniak</title>
<ellipse fill="none" stroke="black" cx="71.49" cy="-964" rx="52.79" ry="18"/>
<text text-anchor="middle" x="71.49" y="-960.3" font-family="Times,serif" font-size="14.00">pzduniak</text>
</g>
<!-- pzduniak&#45;&#45;Stowarzyszenie#Komisja Rewizyjna -->
<g id="edge36" class="edge">
<title>pzduniak&#45;&#45;Stowarzyszenie#Komisja Rewizyjna</title>
<path fill="none" stroke="#ab00d5" d="M121.41,-970C228.13,-970 468.82,-970 468.82,-970 468.82,-970 468.82,-991.69 468.82,-1001.86"/>
</g>
<!-- krcz -->
<g id="node35" class="node">
<title>krcz</title>
<ellipse fill="none" stroke="black" cx="71.49" cy="-921" rx="30.59" ry="18"/>
<text text-anchor="middle" x="71.49" y="-917.3" font-family="Times,serif" font-size="14.00">krcz</text>
</g>
<!-- krcz&#45;&#45;Stowarzyszenie#Komisja Rewizyjna -->
<g id="edge37" class="edge">
<title>krcz&#45;&#45;Stowarzyszenie#Komisja Rewizyjna</title>
<path fill="none" stroke="#f29100" d="M100.32,-927C166.34,-927 322.82,-927 322.82,-927 322.82,-927 322.82,-998 322.82,-998 322.82,-998 404.91,-998 485.55,-998"/>
</g>
<!-- kpc -->
<g id="node36" class="node">
<title>kpc</title>
<ellipse fill="none" stroke="black" cx="71.49" cy="-835" rx="27" ry="18"/>
<text text-anchor="middle" x="71.49" y="-831.3" font-family="Times,serif" font-size="14.00">kpc</text>
</g>
<!-- kpc&#45;&#45;Miejsce::Miejsce#Klucze do spejsu -->
<g id="edge41" class="edge">
<title>kpc&#45;&#45;Miejsce::Miejsce#Klucze do spejsu</title>
<path fill="none" stroke="#00c64f" d="M96.09,-842.71C113.15,-842.71 132.82,-842.71 132.82,-842.71 132.82,-842.71 132.82,-1045.5 132.82,-1045.5 132.82,-1045.5 324.76,-1045.5 472.46,-1045.5"/>
</g>
<!-- kpc&#45;&#45;Stowarzyszenie#Komisja Rewizyjna -->
<g id="edge43" class="edge">
<title>kpc&#45;&#45;Stowarzyszenie#Komisja Rewizyjna</title>
<path fill="none" stroke="#00c64f" d="M98.49,-837.57C117.22,-837.57 138.82,-837.57 138.82,-837.57 138.82,-837.57 138.82,-1007 138.82,-1007 138.82,-1007 317.52,-1007 461.48,-1007"/>
</g>
<!-- kpc&#45;&#45;Marketing&#45;i&#45;media&#45;spoecznociowe# -->
<g id="edge40" class="edge">
<title>kpc&#45;&#45;Marketing&#45;i&#45;media&#45;spoecznociowe#</title>
<path fill="none" stroke="#00c64f" d="M96.04,-827.29C125.74,-827.29 171.82,-827.29 171.82,-827.29 171.82,-827.29 171.82,-331 171.82,-331 171.82,-331 365.1,-331 503.26,-331"/>
</g>
<!-- kpc&#45;&#45;Infrastruktura::Telegram#posty: t.me/hakierspejs_spam -->
<g id="edge42" class="edge">
<title>kpc&#45;&#45;Infrastruktura::Telegram#posty: t.me/hakierspejs_spam</title>
<path fill="none" stroke="#00c64f" d="M90.53,-822.14C96.62,-822.14 101.82,-822.14 101.82,-822.14 101.82,-822.14 101.82,-626 101.82,-626 101.82,-626 237.13,-626 372.05,-626"/>
</g>
<!-- Infrastruktura::Telegram#Posty wyklte (celowo bez linka) -->
<g id="node37" class="node">
<title>Infrastruktura::Telegram#Posty wyklte (celowo bez linka)</title>
<ellipse fill="none" stroke="black" cx="639.91" cy="-921" rx="284.05" ry="18"/>
<text text-anchor="middle" x="639.91" y="-917.3" font-family="Times,serif" font-size="14.00">Infrastruktura::Telegram#Posty wyklte (celowo bez linka)</text>
</g>
<!-- kpc&#45;&#45;Infrastruktura::Telegram#Posty wyklte (celowo bez linka) -->
<g id="edge38" class="edge">
<title>kpc&#45;&#45;Infrastruktura::Telegram#Posty wyklte (celowo bez linka)</title>
<path fill="none" stroke="#00c64f" d="M90.46,-847.86C102.88,-847.86 116.82,-847.86 116.82,-847.86 116.82,-847.86 116.82,-915 116.82,-915 116.82,-915 243.29,-915 371.85,-915"/>
</g>
<!-- Czaty&#45;HS#HS: posty wyklte -->
<g id="node38" class="node">
<title>Czaty&#45;HS#HS: posty wyklte</title>
<ellipse fill="none" stroke="black" cx="639.91" cy="-964" rx="157.87" ry="18"/>
<text text-anchor="middle" x="639.91" y="-960.3" font-family="Times,serif" font-size="14.00">Czaty&#45;HS#HS: posty wyklte</text>
</g>
<!-- kpc&#45;&#45;Czaty&#45;HS#HS: posty wyklte -->
<g id="edge39" class="edge">
<title>kpc&#45;&#45;Czaty&#45;HS#HS: posty wyklte</title>
<path fill="none" stroke="#00c64f" d="M98.5,-832.43C117.6,-832.43 139.82,-832.43 139.82,-832.43 139.82,-832.43 139.82,-958 139.82,-958 139.82,-958 343.5,-958 490.88,-958"/>
</g>
<!-- PiotrP -->
<g id="node39" class="node">
<title>PiotrP</title>
<ellipse fill="none" stroke="black" cx="71.49" cy="-878" rx="40.09" ry="18"/>
<text text-anchor="middle" x="71.49" y="-874.3" font-family="Times,serif" font-size="14.00">PiotrP</text>
</g>
<!-- PiotrP&#45;&#45;Stowarzyszenie#Komisja Rewizyjna -->
<g id="edge44" class="edge">
<title>PiotrP&#45;&#45;Stowarzyszenie#Komisja Rewizyjna</title>
<path fill="none" stroke="#2e00e4" d="M107.82,-885.91C107.82,-903.13 107.82,-942.5 107.82,-942.5 107.82,-942.5 475.82,-942.5 475.82,-942.5 475.82,-942.5 475.82,-982.66 475.82,-999.6"/>
</g>
<!-- pmysl -->
<g id="node40" class="node">
<title>pmysl</title>
<ellipse fill="none" stroke="black" cx="71.49" cy="-448" rx="38.19" ry="18"/>
<text text-anchor="middle" x="71.49" y="-444.3" font-family="Times,serif" font-size="14.00">pmysl</text>
</g>
<!-- pmysl&#45;&#45;Kanay&#45;komunikacji# -->
<g id="edge49" class="edge">
<title>pmysl&#45;&#45;Kanay&#45;komunikacji#</title>
<path fill="none" stroke="#ff0000" d="M106.28,-455.71C189.04,-455.71 390.82,-455.71 390.82,-455.71 390.82,-455.71 390.82,-561.12 390.82,-561.12 390.82,-561.12 515.68,-561.12 588.6,-561.12"/>
</g>
<!-- pmysl&#45;&#45;Infrastruktura::IRC#IRC -->
<g id="edge46" class="edge">
<title>pmysl&#45;&#45;Infrastruktura::IRC#IRC</title>
<path fill="none" stroke="#ff0000" d="M109.75,-445.43C197.9,-445.43 407.82,-445.43 407.82,-445.43 407.82,-445.43 407.82,-368 407.82,-368 407.82,-368 464.72,-368 522.17,-368"/>
</g>
<!-- pmysl&#45;&#45;Bazy&#45;danych#Grafana -->
<g id="edge47" class="edge">
<title>pmysl&#45;&#45;Bazy&#45;danych#Grafana</title>
<path fill="none" stroke="#ff0000" d="M109.67,-450.57C193.74,-450.57 397.63,-450.57 526.68,-450.57"/>
</g>
<!-- pmysl&#45;&#45;Infrastruktura::Github#Github -->
<g id="edge48" class="edge">
<title>pmysl&#45;&#45;Infrastruktura::Github#Github</title>
<path fill="none" stroke="#ff0000" d="M106.43,-440.29C191.76,-440.29 403.82,-440.29 403.82,-440.29 403.82,-440.29 403.82,-242 403.82,-242 403.82,-242 452.93,-242 506.34,-242"/>
</g>
<!-- Bazy&#45;danych# -->
<g id="node41" class="node">
<title>Bazy&#45;danych#</title>
<ellipse fill="none" stroke="black" cx="639.91" cy="-147" rx="77.19" ry="18"/>
<text text-anchor="middle" x="639.91" y="-143.3" font-family="Times,serif" font-size="14.00">Bazy&#45;danych#</text>
</g>
<!-- pmysl&#45;&#45;Bazy&#45;danych# -->
<g id="edge45" class="edge">
<title>pmysl&#45;&#45;Bazy&#45;danych#</title>
<path fill="none" stroke="#ff0000" d="M98.34,-435.14C123.68,-435.14 157.82,-435.14 157.82,-435.14 157.82,-435.14 157.82,-160.5 157.82,-160.5 157.82,-160.5 463.95,-160.5 588.31,-160.5"/>
</g>
<!-- thinkofher -->
<g id="node42" class="node">
<title>thinkofher</title>
<ellipse fill="none" stroke="black" cx="71.49" cy="-147" rx="59.29" ry="18"/>
<text text-anchor="middle" x="71.49" y="-143.3" font-family="Times,serif" font-size="14.00">thinkofher</text>
</g>
<!-- thinkofher&#45;&#45;Kanay&#45;komunikacji# -->
<g id="edge56" class="edge">
<title>thinkofher&#45;&#45;Kanay&#45;komunikacji#</title>
<path fill="none" stroke="#2bd500" d="M129.1,-142.5C174.37,-142.5 229.82,-142.5 229.82,-142.5 229.82,-142.5 229.82,-563.24 229.82,-563.24 229.82,-563.24 452.75,-563.24 569.88,-563.24"/>
</g>
<!-- thinkofher&#45;&#45;Infrastruktura::IRC#IRC -->
<g id="edge52" class="edge">
<title>thinkofher&#45;&#45;Infrastruktura::IRC#IRC</title>
<path fill="none" stroke="#2bd500" d="M122.81,-156C130.45,-156 135.82,-156 135.82,-156 135.82,-156 135.82,-350 135.82,-350 135.82,-350 401.21,-350 546.86,-350"/>
</g>
<!-- thinkofher&#45;&#45;Marketing&#45;i&#45;media&#45;spoecznociowe# -->
<g id="edge53" class="edge">
<title>thinkofher&#45;&#45;Marketing&#45;i&#45;media&#45;spoecznociowe#</title>
<path fill="none" stroke="#2bd500" d="M128.81,-151.5C133.7,-151.5 136.82,-151.5 136.82,-151.5 136.82,-151.5 136.82,-313 136.82,-313 136.82,-313 321.25,-313 466.77,-313"/>
</g>
<!-- thinkofher&#45;&#45;Infrastruktura::Github#Github -->
<g id="edge54" class="edge">
<title>thinkofher&#45;&#45;Infrastruktura::Github#Github</title>
<path fill="none" stroke="#2bd500" d="M130.89,-147C136.89,-147 140.82,-147 140.82,-147 140.82,-147 140.82,-219.5 140.82,-219.5 140.82,-219.5 392.04,-219.5 538.01,-219.5"/>
</g>
<!-- thinkofher&#45;&#45;Infrastruktura::Telegram#G贸wny: t.me/hakierspejs -->
<g id="edge57" class="edge">
<title>thinkofher&#45;&#45;Infrastruktura::Telegram#G贸wny: t.me/hakierspejs</title>
<path fill="none" stroke="#2bd500" d="M123.11,-138C232.12,-138 475.82,-138 475.82,-138 475.82,-138 475.82,-160.93 475.82,-176.34"/>
</g>
<!-- thinkofher&#45;&#45;Bazy&#45;danych# -->
<g id="edge50" class="edge">
<title>thinkofher&#45;&#45;Bazy&#45;danych#</title>
<path fill="none" stroke="#2bd500" d="M111.01,-133.5C211.47,-133.5 476.55,-133.5 588.67,-133.5"/>
</g>
<!-- Infrastruktura::Matrix#hs&#45;ldz:hackerspace.pl -->
<g id="node43" class="node">
<title>Infrastruktura::Matrix#hs&#45;ldz:hackerspace.pl</title>
<ellipse fill="none" stroke="black" cx="639.91" cy="-61" rx="221.76" ry="18"/>
<text text-anchor="middle" x="639.91" y="-57.3" font-family="Times,serif" font-size="14.00">Infrastruktura::Matrix#hs&#45;ldz:hackerspace.pl</text>
</g>
<!-- thinkofher&#45;&#45;Infrastruktura::Matrix#hs&#45;ldz:hackerspace.pl -->
<g id="edge51" class="edge">
<title>thinkofher&#45;&#45;Infrastruktura::Matrix#hs&#45;ldz:hackerspace.pl</title>
<path fill="none" stroke="#2bd500" d="M91.82,-130.01C91.82,-104.95 91.82,-61 91.82,-61 91.82,-61 266.15,-61 418.17,-61"/>
</g>
<!-- Infrastruktura::Matrix#hs&#45;ldz&#45;offtopic:hackerspace.pl -->
<g id="node44" class="node">
<title>Infrastruktura::Matrix#hs&#45;ldz&#45;offtopic:hackerspace.pl</title>
<ellipse fill="none" stroke="black" cx="639.91" cy="-18" rx="258.85" ry="18"/>
<text text-anchor="middle" x="639.91" y="-14.3" font-family="Times,serif" font-size="14.00">Infrastruktura::Matrix#hs&#45;ldz&#45;offtopic:hackerspace.pl</text>
</g>
<!-- thinkofher&#45;&#45;Infrastruktura::Matrix#hs&#45;ldz&#45;offtopic:hackerspace.pl -->
<g id="edge55" class="edge">
<title>thinkofher&#45;&#45;Infrastruktura::Matrix#hs&#45;ldz&#45;offtopic:hackerspace.pl</title>
<path fill="none" stroke="#2bd500" d="M51.82,-129.87C51.82,-94.78 51.82,-18 51.82,-18 51.82,-18 223.33,-18 381.11,-18"/>
</g>
<!-- Piotrek_P -->
<g id="node45" class="node">
<title>Piotrek_P</title>
<ellipse fill="none" stroke="black" cx="71.49" cy="-1007" rx="55.49" ry="18"/>
<text text-anchor="middle" x="71.49" y="-1003.3" font-family="Times,serif" font-size="14.00">Piotrek_P</text>
</g>
<!-- Piotrek_P&#45;&#45;Miejsce::Miejsce#Klucze do spejsu -->
<g id="edge58" class="edge">
<title>Piotrek_P&#45;&#45;Miejsce::Miejsce#Klucze do spejsu</title>
<path fill="none" stroke="#0061f2" d="M121.82,-1014.49C121.82,-1026.81 121.82,-1050 121.82,-1050 121.82,-1050 316.06,-1050 466.67,-1050"/>
</g>
<!-- polimerek -->
<g id="node46" class="node">
<title>polimerek</title>
<ellipse fill="none" stroke="black" cx="71.49" cy="-1136" rx="57.39" ry="18"/>
<text text-anchor="middle" x="71.49" y="-1132.3" font-family="Times,serif" font-size="14.00">polimerek</text>
</g>
<!-- polimerek&#45;&#45;Miejsce::Miejsce#Klucze do spejsu -->
<g id="edge59" class="edge">
<title>polimerek&#45;&#45;Miejsce::Miejsce#Klucze do spejsu</title>
<path fill="none" stroke="#c60077" d="M111.35,-1123C219.74,-1123 511.82,-1123 511.82,-1123 511.82,-1123 511.82,-1083.21 511.82,-1062.38"/>
</g>
<!-- kotlovecrafta -->
<g id="node47" class="node">
<title>kotlovecrafta</title>
<ellipse fill="none" stroke="black" cx="71.49" cy="-1093" rx="71.49" ry="18"/>
<text text-anchor="middle" x="71.49" y="-1089.3" font-family="Times,serif" font-size="14.00">kotlovecrafta</text>
</g>
<!-- kotlovecrafta&#45;&#45;Miejsce::Miejsce#Klucze do spejsu -->
<g id="edge60" class="edge">
<title>kotlovecrafta&#45;&#45;Miejsce::Miejsce#Klucze do spejsu</title>
<path fill="none" stroke="#b6e400" d="M141.82,-1089.62C141.82,-1081.02 141.82,-1059 141.82,-1059 141.82,-1059 343.44,-1059 490.13,-1059"/>
</g>
<!-- sp7adg -->
<g id="node48" class="node">
<title>sp7adg</title>
<ellipse fill="none" stroke="black" cx="71.49" cy="-1050" rx="44.39" ry="18"/>
<text text-anchor="middle" x="71.49" y="-1046.3" font-family="Times,serif" font-size="14.00">sp7adg</text>
</g>
<!-- sp7adg&#45;&#45;Miejsce::Miejsce#Klucze do spejsu -->
<g id="edge61" class="edge">
<title>sp7adg&#45;&#45;Miejsce::Miejsce#Klucze do spejsu</title>
<path fill="none" stroke="#00ffff" d="M114.68,-1054.5C189.95,-1054.5 348.88,-1054.5 472.32,-1054.5"/>
</g>
<!-- kszmigiel -->
<g id="node49" class="node">
<title>kszmigiel</title>
<ellipse fill="none" stroke="black" cx="71.49" cy="-233" rx="54.69" ry="18"/>
<text text-anchor="middle" x="71.49" y="-229.3" font-family="Times,serif" font-size="14.00">kszmigiel</text>
</g>
<!-- kszmigiel&#45;&#45;Marketing&#45;i&#45;media&#45;spoecznociowe# -->
<g id="edge63" class="edge">
<title>kszmigiel&#45;&#45;Marketing&#45;i&#45;media&#45;spoecznociowe#</title>
<path fill="none" stroke="#ab00d5" d="M118.82,-242.2C118.82,-264.39 118.82,-319 118.82,-319 118.82,-319 306.48,-319 456.56,-319"/>
</g>
<!-- kszmigiel&#45;&#45;Infrastruktura::Github#Github -->
<g id="edge64" class="edge">
<title>kszmigiel&#45;&#45;Infrastruktura::Github#Github</title>
<path fill="none" stroke="#ab00d5" d="M124.46,-228.5C207.14,-228.5 369.89,-228.5 490.5,-228.5"/>
</g>
<!-- kszmigiel&#45;&#45;Infrastruktura::Telegram#posty: t.me/hakierspejs_spam -->
<g id="edge65" class="edge">
<title>kszmigiel&#45;&#45;Infrastruktura::Telegram#posty: t.me/hakierspejs_spam</title>
<path fill="none" stroke="#ab00d5" d="M126.19,-233C211.81,-233 367.82,-233 367.82,-233 367.82,-233 367.82,-568.9 367.82,-614.82"/>
</g>
<!-- kszmigiel&#45;&#45;Infrastruktura::Telegram#G贸wny: t.me/hakierspejs -->
<g id="edge66" class="edge">
<title>kszmigiel&#45;&#45;Infrastruktura::Telegram#G贸wny: t.me/hakierspejs</title>
<path fill="none" stroke="#ab00d5" d="M118.94,-224C209.45,-224 397.82,-224 397.82,-224 397.82,-224 397.82,-204.47 397.82,-195.02"/>
</g>
<!-- kszmigiel&#45;&#45;Marketing&#45;i&#45;media&#45;spoecznociowe#Naklejki -->
<g id="edge62" class="edge">
<title>kszmigiel&#45;&#45;Marketing&#45;i&#45;media&#45;spoecznociowe#Naklejki</title>
<path fill="none" stroke="#ab00d5" d="M122.82,-239.21C122.82,-248.57 122.82,-265.2 122.82,-265.2 122.82,-265.2 312.69,-265.2 462.32,-265.2"/>
</g>
<!-- q3k -->
<g id="node50" class="node">
<title>q3k</title>
<ellipse fill="none" stroke="black" cx="71.49" cy="-663" rx="27.9" ry="18"/>
<text text-anchor="middle" x="71.49" y="-659.3" font-family="Times,serif" font-size="14.00">q3k</text>
</g>
<!-- q3k&#45;&#45;Infrastruktura::Domeny#Domeny -->
<g id="edge67" class="edge">
<title>q3k&#45;&#45;Infrastruktura::Domeny#Domeny</title>
<path fill="none" stroke="#f29100" d="M94.05,-673.8C106.24,-673.8 118.82,-673.8 118.82,-673.8 118.82,-673.8 118.82,-878 118.82,-878 118.82,-878 320.15,-878 472.52,-878"/>
</g>
<!-- q3k&#45;&#45;Kanay&#45;komunikacji# -->
<g id="edge68" class="edge">
<title>q3k&#45;&#45;Kanay&#45;komunikacji#</title>
<path fill="none" stroke="#f29100" d="M98.96,-659.4C111.17,-659.4 122.82,-659.4 122.82,-659.4 122.82,-659.4 122.82,-590.76 122.82,-590.76 122.82,-590.76 428.64,-590.76 569.9,-590.76"/>
</g>
<!-- q3k&#45;&#45;Marketing&#45;i&#45;media&#45;spoecznociowe#Logo nr. 2 -->
<g id="edge69" class="edge">
<title>q3k&#45;&#45;Marketing&#45;i&#45;media&#45;spoecznociowe#Logo nr. 2</title>
<path fill="none" stroke="#f29100" d="M98.91,-666.6C156.12,-666.6 293.05,-666.6 414.82,-666.6"/>
</g>
<!-- BluRaf -->
<g id="node51" class="node">
<title>BluRaf</title>
<ellipse fill="none" stroke="black" cx="71.49" cy="-405" rx="42.49" ry="18"/>
<text text-anchor="middle" x="71.49" y="-401.3" font-family="Times,serif" font-size="14.00">BluRaf</text>
</g>
<!-- BluRaf&#45;&#45;Infrastruktura::IRC#IRC -->
<g id="edge70" class="edge">
<title>BluRaf&#45;&#45;Infrastruktura::IRC#IRC</title>
<path fill="none" stroke="#00c64f" d="M108.27,-414C193.01,-414 394.82,-414 394.82,-414 394.82,-414 394.82,-362 394.82,-362 394.82,-362 454.43,-362 514.85,-362"/>
</g>
<!-- hslbridgebot -->
<g id="node52" class="node">
<title>hslbridgebot</title>
<ellipse fill="none" stroke="black" cx="71.49" cy="-1394" rx="69.59" ry="18"/>
<text text-anchor="middle" x="71.49" y="-1390.3" font-family="Times,serif" font-size="14.00">hslbridgebot</text>
</g>
<!-- Mostkowanie&#45;kana贸w#mautrix&#45;telegram (aktualnie u偶ywany) -->
<g id="node53" class="node">
<title>Mostkowanie&#45;kana贸w#mautrix&#45;telegram (aktualnie u偶ywany)</title>
<ellipse fill="none" stroke="black" cx="639.91" cy="-1373" rx="297.85" ry="18"/>
<text text-anchor="middle" x="639.91" y="-1369.3" font-family="Times,serif" font-size="14.00">Mostkowanie&#45;kana贸w#mautrix&#45;telegram (aktualnie u偶ywany)</text>
</g>
<!-- hslbridgebot&#45;&#45;Mostkowanie&#45;kana贸w#mautrix&#45;telegram (aktualnie u偶ywany) -->
<g id="edge71" class="edge">
<title>hslbridgebot&#45;&#45;Mostkowanie&#45;kana贸w#mautrix&#45;telegram (aktualnie u偶ywany)</title>
<path fill="none" stroke="#2e00e4" d="M128.07,-1383.5C191.4,-1383.5 298.22,-1383.5 397.95,-1383.5"/>
</g>
<!-- telegrambot -->
<g id="node54" class="node">
<title>telegrambot</title>
<ellipse fill="none" stroke="black" cx="71.49" cy="-1351" rx="67.69" ry="18"/>
<text text-anchor="middle" x="71.49" y="-1347.3" font-family="Times,serif" font-size="14.00">telegrambot</text>
</g>
<!-- telegrambot&#45;&#45;Mostkowanie&#45;kana贸w#mautrix&#45;telegram (aktualnie u偶ywany) -->
<g id="edge72" class="edge">
<title>telegrambot&#45;&#45;Mostkowanie&#45;kana贸w#mautrix&#45;telegram (aktualnie u偶ywany)</title>
<path fill="none" stroke="#ff0000" d="M125.22,-1362C189.43,-1362 301.12,-1362 404.09,-1362"/>
</g>
<!-- biniu -->
<g id="node55" class="node">
<title>biniu</title>
<ellipse fill="none" stroke="black" cx="71.49" cy="-362" rx="34.39" ry="18"/>
<text text-anchor="middle" x="71.49" y="-358.3" font-family="Times,serif" font-size="14.00">biniu</text>
</g>
<!-- biniu&#45;&#45;Marketing&#45;i&#45;media&#45;spoecznociowe# -->
<g id="edge73" class="edge">
<title>biniu&#45;&#45;Marketing&#45;i&#45;media&#45;spoecznociowe#</title>
<path fill="none" stroke="#2bd500" d="M104.25,-356C199.87,-356 471.82,-356 471.82,-356 471.82,-356 471.82,-337.3 471.82,-326.49"/>
</g>
<!-- Keij0 -->
<g id="node56" class="node">
<title>Keij0</title>
<ellipse fill="none" stroke="black" cx="71.49" cy="-319" rx="34.39" ry="18"/>
<text text-anchor="middle" x="71.49" y="-315.3" font-family="Times,serif" font-size="14.00">Keij0</text>
</g>
<!-- Keij0&#45;&#45;Marketing&#45;i&#45;media&#45;spoecznociowe# -->
<g id="edge74" class="edge">
<title>Keij0&#45;&#45;Marketing&#45;i&#45;media&#45;spoecznociowe#</title>
<path fill="none" stroke="#0061f2" d="M104.1,-325C173.1,-325 338.13,-325 466.95,-325"/>
</g>
</g>
</svg>
