<?xml version="1.0" encoding="UTF-8" standalone="no"?>
<!DOCTYPE svg PUBLIC "-//W3C//DTD SVG 1.1//EN"
 "http://www.w3.org/Graphics/SVG/1.1/DTD/svg11.dtd">
<!-- Generated by graphviz version 2.40.1 (20161225.0304)
 -->
<!-- Title: %3 Pages: 1 -->
<svg width="850pt" height="861pt"
 viewBox="0.00 0.00 850.04 861.00" xmlns="http://www.w3.org/2000/svg" xmlns:xlink="http://www.w3.org/1999/xlink">
<g id="graph0" class="graph" transform="scale(1 1) rotate(0) translate(4 857)">
<title>%3</title>
<polygon fill="#ffffff" stroke="transparent" points="-4,4 -4,-857 846.0381,-857 846.0381,4 -4,4"/>
<!-- kszmigiel -->
<g id="node1" class="node">
<title>kszmigiel</title>
<ellipse fill="none" stroke="#000000" cx="59.7947" cy="-749" rx="55.4913" ry="18"/>
<text text-anchor="middle" x="59.7947" y="-745.3" font-family="Times,serif" font-size="14.00" fill="#000000">kszmigiel</text>
</g>
<!-- Finanse#Naklejki -->
<g id="node2" class="node">
<title>Finanse#Naklejki</title>
<ellipse fill="none" stroke="#000000" cx="552.8137" cy="-749" rx="94.7833" ry="18"/>
<text text-anchor="middle" x="552.8137" y="-745.3" font-family="Times,serif" font-size="14.00" fill="#000000">Finanse#Naklejki</text>
</g>
<!-- kszmigiel&#45;&#45;Finanse#Naklejki -->
<g id="edge1" class="edge">
<title>kszmigiel&#45;&#45;Finanse#Naklejki</title>
<path fill="none" stroke="#ff0000" d="M107.9651,-758C192.1635,-758 366.988,-758 470.6349,-758"/>
</g>
<!-- Infrastruktura#t.me/hakierspejs -->
<g id="node3" class="node">
<title>Infrastruktura#t.me/hakierspejs</title>
<ellipse fill="none" stroke="#000000" cx="552.8137" cy="-577" rx="163.2712" ry="18"/>
<text text-anchor="middle" x="552.8137" y="-573.3" font-family="Times,serif" font-size="14.00" fill="#000000">Infrastruktura#t.me/hakierspejs</text>
</g>
<!-- kszmigiel&#45;&#45;Infrastruktura#t.me/hakierspejs -->
<g id="edge2" class="edge">
<title>kszmigiel&#45;&#45;Infrastruktura#t.me/hakierspejs</title>
<path fill="none" stroke="#ff0000" d="M115.1099,-749C188.539,-749 309.0381,-749 309.0381,-749 309.0381,-749 309.0381,-584 309.0381,-584 309.0381,-584 352.2243,-584 402.2427,-584"/>
</g>
<!-- Infrastruktura#Meetup -->
<g id="node4" class="node">
<title>Infrastruktura#Meetup</title>
<ellipse fill="none" stroke="#000000" cx="552.8137" cy="-706" rx="121.5784" ry="18"/>
<text text-anchor="middle" x="552.8137" y="-702.3" font-family="Times,serif" font-size="14.00" fill="#000000">Infrastruktura#Meetup</text>
</g>
<!-- kszmigiel&#45;&#45;Infrastruktura#Meetup -->
<g id="edge3" class="edge">
<title>kszmigiel&#45;&#45;Infrastruktura#Meetup</title>
<path fill="none" stroke="#ff0000" d="M105.0381,-738.4575C105.0381,-729.7652 105.0381,-718.8571 105.0381,-718.8571 105.0381,-718.8571 337.6186,-718.8571 467.5366,-718.8571"/>
</g>
<!-- Infrastruktura#Naklejki -->
<g id="node5" class="node">
<title>Infrastruktura#Naklejki</title>
<ellipse fill="none" stroke="#000000" cx="552.8137" cy="-792" rx="125.3778" ry="18"/>
<text text-anchor="middle" x="552.8137" y="-788.3" font-family="Times,serif" font-size="14.00" fill="#000000">Infrastruktura#Naklejki</text>
</g>
<!-- kszmigiel&#45;&#45;Infrastruktura#Naklejki -->
<g id="edge4" class="edge">
<title>kszmigiel&#45;&#45;Infrastruktura#Naklejki</title>
<path fill="none" stroke="#ff0000" d="M111.0381,-756.1006C111.0381,-768.3138 111.0381,-792 111.0381,-792 111.0381,-792 296.5124,-792 427.1051,-792"/>
</g>
<!-- Miejsce::Miejsce#Klucze do spejsu -->
<g id="node6" class="node">
<title>Miejsce::Miejsce#Klucze do spejsu</title>
<ellipse fill="none" stroke="#000000" cx="552.8137" cy="-233" rx="174.6691" ry="18"/>
<text text-anchor="middle" x="552.8137" y="-229.3" font-family="Times,serif" font-size="14.00" fill="#000000">Miejsce::Miejsce#Klucze do spejsu</text>
</g>
<!-- kszmigiel&#45;&#45;Miejsce::Miejsce#Klucze do spejsu -->
<g id="edge5" class="edge">
<title>kszmigiel&#45;&#45;Miejsce::Miejsce#Klucze do spejsu</title>
<path fill="none" stroke="#ff0000" d="M107.6623,-740C179.0326,-740 305.0381,-740 305.0381,-740 305.0381,-740 305.0381,-239 305.0381,-239 305.0381,-239 342.2806,-239 387.8883,-239"/>
</g>
<!-- q3k -->
<g id="node7" class="node">
<title>q3k</title>
<ellipse fill="none" stroke="#000000" cx="59.7947" cy="-18" rx="28.6953" ry="18"/>
<text text-anchor="middle" x="59.7947" y="-14.3" font-family="Times,serif" font-size="14.00" fill="#000000">q3k</text>
</g>
<!-- Infrastruktura#Lista mailingowa -->
<g id="node8" class="node">
<title>Infrastruktura#Lista mailingowa</title>
<ellipse fill="none" stroke="#000000" cx="552.8137" cy="-61" rx="165.1707" ry="18"/>
<text text-anchor="middle" x="552.8137" y="-57.3" font-family="Times,serif" font-size="14.00" fill="#000000">Infrastruktura#Lista mailingowa</text>
</g>
<!-- q3k&#45;&#45;Infrastruktura#Lista mailingowa -->
<g id="edge6" class="edge">
<title>q3k&#45;&#45;Infrastruktura#Lista mailingowa</title>
<path fill="none" stroke="#2bd500" d="M88.0789,-21.6C171.2217,-21.6 409.0381,-21.6 409.0381,-21.6 409.0381,-21.6 409.0381,-40.2227 409.0381,-51.8618"/>
</g>
<!-- Infrastruktura#Domeny -->
<g id="node9" class="node">
<title>Infrastruktura#Domeny</title>
<ellipse fill="none" stroke="#000000" cx="552.8137" cy="-18" rx="124.2781" ry="18"/>
<text text-anchor="middle" x="552.8137" y="-14.3" font-family="Times,serif" font-size="14.00" fill="#000000">Infrastruktura#Domeny</text>
</g>
<!-- q3k&#45;&#45;Infrastruktura#Domeny -->
<g id="edge7" class="edge">
<title>q3k&#45;&#45;Infrastruktura#Domeny</title>
<path fill="none" stroke="#2bd500" d="M82.9128,-7.2C148.0208,-7.2 335.8101,-7.2 453.336,-7.2"/>
</g>
<!-- d33tah -->
<g id="node10" class="node">
<title>d33tah</title>
<ellipse fill="none" stroke="#000000" cx="59.7947" cy="-276" rx="43.5923" ry="18"/>
<text text-anchor="middle" x="59.7947" y="-272.3" font-family="Times,serif" font-size="14.00" fill="#000000">d33tah</text>
</g>
<!-- d33tah&#45;&#45;Infrastruktura#t.me/hakierspejs -->
<g id="edge9" class="edge">
<title>d33tah&#45;&#45;Infrastruktura#t.me/hakierspejs</title>
<path fill="none" stroke="#0061f2" d="M97.6363,-285C169.8142,-285 320.0381,-285 320.0381,-285 320.0381,-285 320.0381,-562.5 320.0381,-562.5 320.0381,-562.5 392.1633,-562.5 456.1181,-562.5"/>
</g>
<!-- d33tah&#45;&#45;Infrastruktura#Meetup -->
<g id="edge10" class="edge">
<title>d33tah&#45;&#45;Infrastruktura#Meetup</title>
<path fill="none" stroke="#0061f2" d="M92.3652,-288C156.7289,-288 294.0381,-288 294.0381,-288 294.0381,-288 294.0381,-693.1429 294.0381,-693.1429 294.0381,-693.1429 392.2993,-693.1429 467.7225,-693.1429"/>
</g>
<!-- d33tah&#45;&#45;Miejsce::Miejsce#Klucze do spejsu -->
<g id="edge14" class="edge">
<title>d33tah&#45;&#45;Miejsce::Miejsce#Klucze do spejsu</title>
<path fill="none" stroke="#0061f2" d="M103.3545,-276C198.2147,-276 415.0381,-276 415.0381,-276 415.0381,-276 415.0381,-257.0379 415.0381,-244.2977"/>
</g>
<!-- d33tah&#45;&#45;Infrastruktura#Lista mailingowa -->
<g id="edge8" class="edge">
<title>d33tah&#45;&#45;Infrastruktura#Lista mailingowa</title>
<path fill="none" stroke="#0061f2" d="M92.4926,-264C152.0286,-264 272.0381,-264 272.0381,-264 272.0381,-264 272.0381,-57.4 272.0381,-57.4 272.0381,-57.4 328.4518,-57.4 390.7053,-57.4"/>
</g>
<!-- d33tah&#45;&#45;Infrastruktura#Domeny -->
<g id="edge15" class="edge">
<title>d33tah&#45;&#45;Infrastruktura#Domeny</title>
<path fill="none" stroke="#0061f2" d="M84.0904,-261C139.0227,-261 268.0381,-261 268.0381,-261 268.0381,-261 268.0381,-28.8 268.0381,-28.8 268.0381,-28.8 371.092,-28.8 453.213,-28.8"/>
</g>
<!-- Infrastruktura#IRC -->
<g id="node11" class="node">
<title>Infrastruktura#IRC</title>
<ellipse fill="none" stroke="#000000" cx="552.8137" cy="-362" rx="103.9815" ry="18"/>
<text text-anchor="middle" x="552.8137" y="-358.3" font-family="Times,serif" font-size="14.00" fill="#000000">Infrastruktura#IRC</text>
</g>
<!-- d33tah&#45;&#45;Infrastruktura#IRC -->
<g id="edge11" class="edge">
<title>d33tah&#45;&#45;Infrastruktura#IRC</title>
<path fill="none" stroke="#0061f2" d="M81.0381,-291.8054C81.0381,-315.1199 81.0381,-356 81.0381,-356 81.0381,-356 316.2245,-356 454.4884,-356"/>
</g>
<!-- Infrastruktura#Hosting -->
<g id="node12" class="node">
<title>Infrastruktura#Hosting</title>
<ellipse fill="none" stroke="#000000" cx="552.8137" cy="-147" rx="122.6784" ry="18"/>
<text text-anchor="middle" x="552.8137" y="-143.3" font-family="Times,serif" font-size="14.00" fill="#000000">Infrastruktura#Hosting</text>
</g>
<!-- d33tah&#45;&#45;Infrastruktura#Hosting -->
<g id="edge12" class="edge">
<title>d33tah&#45;&#45;Infrastruktura#Hosting</title>
<path fill="none" stroke="#0061f2" d="M101.0011,-270C165.506,-270 283.0381,-270 283.0381,-270 283.0381,-270 283.0381,-159.8571 283.0381,-159.8571 283.0381,-159.8571 387.7616,-159.8571 466.7133,-159.8571"/>
</g>
<!-- Infrastruktura#Forum -->
<g id="node13" class="node">
<title>Infrastruktura#Forum</title>
<ellipse fill="none" stroke="#000000" cx="552.8137" cy="-104" rx="116.1796" ry="18"/>
<text text-anchor="middle" x="552.8137" y="-100.3" font-family="Times,serif" font-size="14.00" fill="#000000">Infrastruktura#Forum</text>
</g>
<!-- d33tah&#45;&#45;Infrastruktura#Forum -->
<g id="edge13" class="edge">
<title>d33tah&#45;&#45;Infrastruktura#Forum</title>
<path fill="none" stroke="#0061f2" d="M97.984,-267C160.7987,-267 279.0381,-267 279.0381,-267 279.0381,-267 279.0381,-114.8 279.0381,-114.8 279.0381,-114.8 380.0507,-114.8 459.3614,-114.8"/>
</g>
<!-- Infrastruktura#t.me/hakierspejs_spam -->
<g id="node14" class="node">
<title>Infrastruktura#t.me/hakierspejs_spam</title>
<ellipse fill="none" stroke="#000000" cx="552.8137" cy="-319" rx="193.0657" ry="18"/>
<text text-anchor="middle" x="552.8137" y="-315.3" font-family="Times,serif" font-size="14.00" fill="#000000">Infrastruktura#t.me/hakierspejs_spam</text>
</g>
<!-- d33tah&#45;&#45;Infrastruktura#t.me/hakierspejs_spam -->
<g id="edge16" class="edge">
<title>d33tah&#45;&#45;Infrastruktura#t.me/hakierspejs_spam</title>
<path fill="none" stroke="#0061f2" d="M100.8598,-282C184.9801,-282 369.0381,-282 369.0381,-282 369.0381,-282 369.0381,-302.8125 369.0381,-313.2188"/>
</g>
<!-- Infrastruktura#Grafana -->
<g id="node15" class="node">
<title>Infrastruktura#Grafana</title>
<ellipse fill="none" stroke="#000000" cx="552.8137" cy="-190" rx="122.6784" ry="18"/>
<text text-anchor="middle" x="552.8137" y="-186.3" font-family="Times,serif" font-size="14.00" fill="#000000">Infrastruktura#Grafana</text>
</g>
<!-- d33tah&#45;&#45;Infrastruktura#Grafana -->
<g id="edge17" class="edge">
<title>d33tah&#45;&#45;Infrastruktura#Grafana</title>
<path fill="none" stroke="#0061f2" d="M102.8238,-273C172.4349,-273 302.0381,-273 302.0381,-273 302.0381,-273 302.0381,-193.6 302.0381,-193.6 302.0381,-193.6 367.9561,-193.6 432.2004,-193.6"/>
</g>
<!-- Infrastruktura#Github -->
<g id="node16" class="node">
<title>Infrastruktura#Github</title>
<ellipse fill="none" stroke="#000000" cx="552.8137" cy="-534" rx="117.7793" ry="18"/>
<text text-anchor="middle" x="552.8137" y="-530.3" font-family="Times,serif" font-size="14.00" fill="#000000">Infrastruktura#Github</text>
</g>
<!-- d33tah&#45;&#45;Infrastruktura#Github -->
<g id="edge18" class="edge">
<title>d33tah&#45;&#45;Infrastruktura#Github</title>
<path fill="none" stroke="#0061f2" d="M84.2077,-291C128.1512,-291 216.0381,-291 216.0381,-291 216.0381,-291 216.0381,-526.5 216.0381,-526.5 216.0381,-526.5 347.1803,-526.5 445.7931,-526.5"/>
</g>
<!-- Infrastruktura#Pad -->
<g id="node17" class="node">
<title>Infrastruktura#Pad</title>
<ellipse fill="none" stroke="#000000" cx="552.8137" cy="-276" rx="102.8821" ry="18"/>
<text text-anchor="middle" x="552.8137" y="-272.3" font-family="Times,serif" font-size="14.00" fill="#000000">Infrastruktura#Pad</text>
</g>
<!-- d33tah&#45;&#45;Infrastruktura#Pad -->
<g id="edge19" class="edge">
<title>d33tah&#45;&#45;Infrastruktura#Pad</title>
<path fill="none" stroke="#0061f2" d="M103.1147,-279C180.4206,-279 344.06,-279 451.1608,-279"/>
</g>
<!-- cytP450 -->
<g id="node18" class="node">
<title>cytP450</title>
<ellipse fill="none" stroke="#000000" cx="59.7947" cy="-61" rx="49.2915" ry="18"/>
<text text-anchor="middle" x="59.7947" y="-57.3" font-family="Times,serif" font-size="14.00" fill="#000000">cytP450</text>
</g>
<!-- cytP450&#45;&#45;Miejsce::Miejsce#Klucze do spejsu -->
<g id="edge20" class="edge">
<title>cytP450&#45;&#45;Miejsce::Miejsce#Klucze do spejsu</title>
<path fill="none" stroke="#c60077" d="M99.3508,-50.2C186.0287,-50.2 385.0381,-50.2 385.0381,-50.2 385.0381,-50.2 385.0381,-197.7543 385.0381,-227.7263"/>
</g>
<!-- cytP450&#45;&#45;Infrastruktura#Domeny -->
<g id="edge23" class="edge">
<title>cytP450&#45;&#45;Infrastruktura#Domeny</title>
<path fill="none" stroke="#c60077" d="M99.0381,-49.7194C99.0381,-35.928 99.0381,-14.4 99.0381,-14.4 99.0381,-14.4 296.5039,-14.4 430.9118,-14.4"/>
</g>
<!-- cytP450&#45;&#45;Infrastruktura#Hosting -->
<g id="edge22" class="edge">
<title>cytP450&#45;&#45;Infrastruktura#Hosting</title>
<path fill="none" stroke="#c60077" d="M99.4032,-71.8C167.1487,-71.8 298.0381,-71.8 298.0381,-71.8 298.0381,-71.8 298.0381,-134.1429 298.0381,-134.1429 298.0381,-134.1429 392.6459,-134.1429 466.5583,-134.1429"/>
</g>
<!-- cytP450&#45;&#45;Infrastruktura#Forum -->
<g id="edge21" class="edge">
<title>cytP450&#45;&#45;Infrastruktura#Forum</title>
<path fill="none" stroke="#c60077" d="M108.261,-64.6C184.5458,-64.6 324.0381,-64.6 324.0381,-64.6 324.0381,-64.6 324.0381,-93.2 324.0381,-93.2 324.0381,-93.2 396.173,-93.2 459.4319,-93.2"/>
</g>
<!-- Martti25 -->
<g id="node19" class="node">
<title>Martti25</title>
<ellipse fill="none" stroke="#000000" cx="59.7947" cy="-620" rx="51.9908" ry="18"/>
<text text-anchor="middle" x="59.7947" y="-616.3" font-family="Times,serif" font-size="14.00" fill="#000000">Martti25</text>
</g>
<!-- Martti25&#45;&#45;Infrastruktura#Meetup -->
<g id="edge26" class="edge">
<title>Martti25&#45;&#45;Infrastruktura#Meetup</title>
<path fill="none" stroke="#b6e400" d="M108.8233,-626C175.6267,-626 287.0381,-626 287.0381,-626 287.0381,-626 287.0381,-703.4286 287.0381,-703.4286 287.0381,-703.4286 362.047,-703.4286 432.3679,-703.4286"/>
</g>
<!-- Martti25&#45;&#45;Infrastruktura#Github -->
<g id="edge25" class="edge">
<title>Martti25&#45;&#45;Infrastruktura#Github</title>
<path fill="none" stroke="#b6e400" d="M107.0381,-612.4627C107.0381,-593.8113 107.0381,-547 107.0381,-547 107.0381,-547 342.6763,-547 471.3109,-547"/>
</g>
<!-- Infrastruktura#Konto na Fejsie -->
<g id="node20" class="node">
<title>Infrastruktura#Konto na Fejsie</title>
<ellipse fill="none" stroke="#000000" cx="552.8137" cy="-663" rx="157.0724" ry="18"/>
<text text-anchor="middle" x="552.8137" y="-659.3" font-family="Times,serif" font-size="14.00" fill="#000000">Infrastruktura#Konto na Fejsie</text>
</g>
<!-- Martti25&#45;&#45;Infrastruktura#Konto na Fejsie -->
<g id="edge24" class="edge">
<title>Martti25&#45;&#45;Infrastruktura#Konto na Fejsie</title>
<path fill="none" stroke="#b6e400" d="M108.9228,-614C182.5674,-614 313.0381,-614 313.0381,-614 313.0381,-614 313.0381,-663 313.0381,-663 313.0381,-663 350.1758,-663 395.2198,-663"/>
</g>
<!-- biniu -->
<g id="node21" class="node">
<title>biniu</title>
<ellipse fill="none" stroke="#000000" cx="59.7947" cy="-706" rx="34.394" ry="18"/>
<text text-anchor="middle" x="59.7947" y="-702.3" font-family="Times,serif" font-size="14.00" fill="#000000">biniu</text>
</g>
<!-- biniu&#45;&#45;Infrastruktura#Meetup -->
<g id="edge27" class="edge">
<title>biniu&#45;&#45;Infrastruktura#Meetup</title>
<path fill="none" stroke="#00ffff" d="M91.0093,-713.7143C160.2787,-713.7143 329.6586,-713.7143 442.8774,-713.7143"/>
</g>
<!-- nikolaad -->
<g id="node22" class="node">
<title>nikolaad</title>
<ellipse fill="none" stroke="#000000" cx="59.7947" cy="-663" rx="50.0912" ry="18"/>
<text text-anchor="middle" x="59.7947" y="-659.3" font-family="Times,serif" font-size="14.00" fill="#000000">nikolaad</text>
</g>
<!-- nikolaad&#45;&#45;Infrastruktura#Meetup -->
<g id="edge29" class="edge">
<title>nikolaad&#45;&#45;Infrastruktura#Meetup</title>
<path fill="none" stroke="#ab00d5" d="M100.0381,-674.0316C100.0381,-687.5186 100.0381,-708.5714 100.0381,-708.5714 100.0381,-708.5714 298.2372,-708.5714 432.37,-708.5714"/>
</g>
<!-- nikolaad&#45;&#45;Infrastruktura#Konto na Fejsie -->
<g id="edge28" class="edge">
<title>nikolaad&#45;&#45;Infrastruktura#Konto na Fejsie</title>
<path fill="none" stroke="#ab00d5" d="M103.5468,-672C173.0679,-672 311.6217,-672 416.5797,-672"/>
</g>
<!-- Keij0 -->
<g id="node23" class="node">
<title>Keij0</title>
<ellipse fill="none" stroke="#000000" cx="59.7947" cy="-555" rx="34.394" ry="18"/>
<text text-anchor="middle" x="59.7947" y="-551.3" font-family="Times,serif" font-size="14.00" fill="#000000">Keij0</text>
</g>
<!-- Keij0&#45;&#45;Infrastruktura#Meetup -->
<g id="edge30" class="edge">
<title>Keij0&#45;&#45;Infrastruktura#Meetup</title>
<path fill="none" stroke="#f29100" d="M80.2273,-569.5C136.5764,-569.5 290.0381,-569.5 290.0381,-569.5 290.0381,-569.5 290.0381,-698.2857 290.0381,-698.2857 290.0381,-698.2857 370.8884,-698.2857 442.8958,-698.2857"/>
</g>
<!-- Keij0&#45;&#45;Infrastruktura#Hosting -->
<g id="edge31" class="edge">
<title>Keij0&#45;&#45;Infrastruktura#Hosting</title>
<path fill="none" stroke="#f29100" d="M83.8174,-542C115.7068,-542 168.0381,-542 168.0381,-542 168.0381,-542 168.0381,-154.7143 168.0381,-154.7143 168.0381,-154.7143 328.1241,-154.7143 441.7789,-154.7143"/>
</g>
<!-- BluRaf -->
<g id="node24" class="node">
<title>BluRaf</title>
<ellipse fill="none" stroke="#000000" cx="59.7947" cy="-469" rx="42.4939" ry="18"/>
<text text-anchor="middle" x="59.7947" y="-465.3" font-family="Times,serif" font-size="14.00" fill="#000000">BluRaf</text>
</g>
<!-- BluRaf&#45;&#45;Infrastruktura#t.me/hakierspejs -->
<g id="edge34" class="edge">
<title>BluRaf&#45;&#45;Infrastruktura#t.me/hakierspejs</title>
<path fill="none" stroke="#00c64f" d="M99.0381,-475.6672C99.0381,-497.5823 99.0381,-566 99.0381,-566 99.0381,-566 289.2634,-566 423.3871,-566"/>
</g>
<!-- BluRaf&#45;&#45;Infrastruktura#IRC -->
<g id="edge35" class="edge">
<title>BluRaf&#45;&#45;Infrastruktura#IRC</title>
<path fill="none" stroke="#00c64f" d="M60.0381,-450.9432C60.0381,-421.892 60.0381,-368 60.0381,-368 60.0381,-368 310.8163,-368 454.5729,-368"/>
</g>
<!-- BluRaf&#45;&#45;Infrastruktura#t.me/hakierspejs_spam -->
<g id="edge38" class="edge">
<title>BluRaf&#45;&#45;Infrastruktura#t.me/hakierspejs_spam</title>
<path fill="none" stroke="#00c64f" d="M39.0381,-453.2309C39.0381,-414.719 39.0381,-319 39.0381,-319 39.0381,-319 213.9621,-319 359.6751,-319"/>
</g>
<!-- BluRaf&#45;&#45;Infrastruktura#Konto na Fejsie -->
<g id="edge33" class="edge">
<title>BluRaf&#45;&#45;Infrastruktura#Konto na Fejsie</title>
<path fill="none" stroke="#00c64f" d="M84.9286,-483.5C149.6578,-483.5 317.0381,-483.5 317.0381,-483.5 317.0381,-483.5 317.0381,-654 317.0381,-654 317.0381,-654 364.2042,-654 416.3448,-654"/>
</g>
<!-- Infrastruktura#hs&#45;ldz:hackerspace.pl -->
<g id="node25" class="node">
<title>Infrastruktura#hs&#45;ldz:hackerspace.pl</title>
<ellipse fill="none" stroke="#000000" cx="552.8137" cy="-620" rx="186.5669" ry="18"/>
<text text-anchor="middle" x="552.8137" y="-616.3" font-family="Times,serif" font-size="14.00" fill="#000000">Infrastruktura#hs&#45;ldz:hackerspace.pl</text>
</g>
<!-- BluRaf&#45;&#45;Infrastruktura#hs&#45;ldz:hackerspace.pl -->
<g id="edge32" class="edge">
<title>BluRaf&#45;&#45;Infrastruktura#hs&#45;ldz:hackerspace.pl</title>
<path fill="none" stroke="#00c64f" d="M93.2508,-480C174.9586,-480 378.0381,-480 378.0381,-480 378.0381,-480 378.0381,-586.2326 378.0381,-613.6207"/>
</g>
<!-- Infrastruktura#Mumble -->
<g id="node26" class="node">
<title>Infrastruktura#Mumble</title>
<ellipse fill="none" stroke="#000000" cx="552.8137" cy="-491" rx="124.2781" ry="18"/>
<text text-anchor="middle" x="552.8137" y="-487.3" font-family="Times,serif" font-size="14.00" fill="#000000">Infrastruktura#Mumble</text>
</g>
<!-- BluRaf&#45;&#45;Infrastruktura#Mumble -->
<g id="edge36" class="edge">
<title>BluRaf&#45;&#45;Infrastruktura#Mumble</title>
<path fill="none" stroke="#00c64f" d="M98.4811,-476.5C180.4285,-476.5 372.682,-476.5 478.9538,-476.5"/>
</g>
<!-- Infrastruktura#Konfident -->
<g id="node27" class="node">
<title>Infrastruktura#Konfident</title>
<ellipse fill="none" stroke="#000000" cx="552.8137" cy="-448" rx="130.777" ry="18"/>
<text text-anchor="middle" x="552.8137" y="-444.3" font-family="Times,serif" font-size="14.00" fill="#000000">Infrastruktura#Konfident</text>
</g>
<!-- BluRaf&#45;&#45;Infrastruktura#Konfident -->
<g id="edge37" class="edge">
<title>BluRaf&#45;&#45;Infrastruktura#Konfident</title>
<path fill="none" stroke="#00c64f" d="M97.6624,-461C175.0026,-461 352.9888,-461 462.0612,-461"/>
</g>
<!-- Infrastruktura#hs&#45;ldz&#45;offtopic:hackerspace.pl -->
<g id="node28" class="node">
<title>Infrastruktura#hs&#45;ldz&#45;offtopic:hackerspace.pl</title>
<ellipse fill="none" stroke="#000000" cx="552.8137" cy="-405" rx="225.56" ry="18"/>
<text text-anchor="middle" x="552.8137" y="-401.3" font-family="Times,serif" font-size="14.00" fill="#000000">Infrastruktura#hs&#45;ldz&#45;offtopic:hackerspace.pl</text>
</g>
<!-- BluRaf&#45;&#45;Infrastruktura#hs&#45;ldz&#45;offtopic:hackerspace.pl -->
<g id="edge39" class="edge">
<title>BluRaf&#45;&#45;Infrastruktura#hs&#45;ldz&#45;offtopic:hackerspace.pl</title>
<path fill="none" stroke="#00c64f" d="M89.1849,-456C162.3935,-456 347.0381,-456 347.0381,-456 347.0381,-456 347.0381,-426.7117 347.0381,-412.5252"/>
</g>
<!-- kpc -->
<g id="node29" class="node">
<title>kpc</title>
<ellipse fill="none" stroke="#000000" cx="59.7947" cy="-147" rx="27.8951" ry="18"/>
<text text-anchor="middle" x="59.7947" y="-143.3" font-family="Times,serif" font-size="14.00" fill="#000000">kpc</text>
</g>
<!-- kpc&#45;&#45;Infrastruktura#Hosting -->
<g id="edge40" class="edge">
<title>kpc&#45;&#45;Infrastruktura#Hosting</title>
<path fill="none" stroke="#2e00e4" d="M87.7141,-144.4286C152.4911,-144.4286 316.2186,-144.4286 430.9933,-144.4286"/>
</g>
<!-- thinkofher -->
<g id="node30" class="node">
<title>thinkofher</title>
<ellipse fill="none" stroke="#000000" cx="59.7947" cy="-104" rx="59.5901" ry="18"/>
<text text-anchor="middle" x="59.7947" y="-100.3" font-family="Times,serif" font-size="14.00" fill="#000000">thinkofher</text>
</g>
<!-- thinkofher&#45;&#45;Infrastruktura#Hosting -->
<g id="edge42" class="edge">
<title>thinkofher&#45;&#45;Infrastruktura#Hosting</title>
<path fill="none" stroke="#ff0000" d="M109.0381,-114.396C109.0381,-124.8044 109.0381,-139.2857 109.0381,-139.2857 109.0381,-139.2857 310.24,-139.2857 441.6893,-139.2857"/>
</g>
<!-- thinkofher&#45;&#45;Infrastruktura#Forum -->
<g id="edge41" class="edge">
<title>thinkofher&#45;&#45;Infrastruktura#Forum</title>
<path fill="none" stroke="#ff0000" d="M118.7746,-100.4C197.4969,-100.4 338.5754,-100.4 438.5,-100.4"/>
</g>
<!-- pmysl -->
<g id="node31" class="node">
<title>pmysl</title>
<ellipse fill="none" stroke="#000000" cx="59.7947" cy="-190" rx="38.1938" ry="18"/>
<text text-anchor="middle" x="59.7947" y="-186.3" font-family="Times,serif" font-size="14.00" fill="#000000">pmysl</text>
</g>
<!-- pmysl&#45;&#45;Miejsce::Miejsce#Klucze do spejsu -->
<g id="edge43" class="edge">
<title>pmysl&#45;&#45;Miejsce::Miejsce#Klucze do spejsu</title>
<path fill="none" stroke="#2bd500" d="M90.6927,-200.8C171.3477,-200.8 382.0381,-200.8 382.0381,-200.8 382.0381,-200.8 382.0381,-220.4533 382.0381,-229.0516"/>
</g>
<!-- pmysl&#45;&#45;Infrastruktura#Hosting -->
<g id="edge46" class="edge">
<title>pmysl&#45;&#45;Infrastruktura#Hosting</title>
<path fill="none" stroke="#2bd500" d="M93.0381,-181.0276C93.0381,-169.117 93.0381,-149.5714 93.0381,-149.5714 93.0381,-149.5714 294.896,-149.5714 431.1106,-149.5714"/>
</g>
<!-- pmysl&#45;&#45;Infrastruktura#Forum -->
<g id="edge44" class="edge">
<title>pmysl&#45;&#45;Infrastruktura#Forum</title>
<path fill="none" stroke="#2bd500" d="M90.6338,-179.2C150.1505,-179.2 275.0381,-179.2 275.0381,-179.2 275.0381,-179.2 275.0381,-107.6 275.0381,-107.6 275.0381,-107.6 362.0149,-107.6 438.6292,-107.6"/>
</g>
<!-- pmysl&#45;&#45;Infrastruktura#Grafana -->
<g id="edge45" class="edge">
<title>pmysl&#45;&#45;Infrastruktura#Grafana</title>
<path fill="none" stroke="#2bd500" d="M97.6624,-186.4C168.2945,-186.4 322.8708,-186.4 432.2354,-186.4"/>
</g>
<!-- nuke -->
<g id="node32" class="node">
<title>nuke</title>
<ellipse fill="none" stroke="#000000" cx="59.7947" cy="-233" rx="33.5952" ry="18"/>
<text text-anchor="middle" x="59.7947" y="-229.3" font-family="Times,serif" font-size="14.00" fill="#000000">nuke</text>
</g>
<!-- nuke&#45;&#45;Miejsce::Miejsce#Klucze do spejsu -->
<g id="edge47" class="edge">
<title>nuke&#45;&#45;Miejsce::Miejsce#Klucze do spejsu</title>
<path fill="none" stroke="#0061f2" d="M91.7632,-227C150.8694,-227 280.9693,-227 387.9453,-227"/>
</g>
<!-- ksiezak -->
<g id="node33" class="node">
<title>ksiezak</title>
<ellipse fill="none" stroke="#000000" cx="59.7947" cy="-835" rx="46.2923" ry="18"/>
<text text-anchor="middle" x="59.7947" y="-831.3" font-family="Times,serif" font-size="14.00" fill="#000000">ksiezak</text>
</g>
<!-- Współdzielony&#45;kalendarz&#45;i&#45;lista&#45;kontaktów#Założenie konta -->
<g id="node34" class="node">
<title>Współdzielony&#45;kalendarz&#45;i&#45;lista&#45;kontaktów#Założenie konta</title>
<ellipse fill="none" stroke="#000000" cx="552.8137" cy="-835" rx="289.4488" ry="18"/>
<text text-anchor="middle" x="552.8137" y="-831.3" font-family="Times,serif" font-size="14.00" fill="#000000">Współdzielony&#45;kalendarz&#45;i&#45;lista&#45;kontaktów#Założenie konta</text>
</g>
<!-- ksiezak&#45;&#45;Współdzielony&#45;kalendarz&#45;i&#45;lista&#45;kontaktów#Założenie konta -->
<g id="edge48" class="edge">
<title>ksiezak&#45;&#45;Współdzielony&#45;kalendarz&#45;i&#45;lista&#45;kontaktów#Założenie konta</title>
<path fill="none" stroke="#c60077" d="M106.1767,-835C144.4101,-835 202.167,-835 263.5729,-835"/>
</g>
</g>
</svg>
