<?xml version="1.0" encoding="UTF-8" standalone="no"?>
<!DOCTYPE svg PUBLIC "-//W3C//DTD SVG 1.1//EN"
 "http://www.w3.org/Graphics/SVG/1.1/DTD/svg11.dtd">
<!-- Generated by graphviz version 2.43.0 (0)
 -->
<!-- Title: %3 Pages: 1 -->
<svg width="1001pt" height="1506pt"
 viewBox="0.00 0.00 1000.82 1506.00" xmlns="http://www.w3.org/2000/svg" xmlns:xlink="http://www.w3.org/1999/xlink">
<g id="graph0" class="graph" transform="scale(1 1) rotate(0) translate(4 1502)">
<title>%3</title>
<polygon fill="white" stroke="transparent" points="-4,4 -4,-1502 996.82,-1502 996.82,4 -4,4"/>
<!-- cytP450 -->
<g id="node1" class="node">
<title>cytP450</title>
<ellipse fill="none" stroke="black" cx="71.49" cy="-1071" rx="48.99" ry="18"/>
<text text-anchor="middle" x="71.49" y="-1067.3" font-family="Times,serif" font-size="14.00">cytP450</text>
</g>
<!-- Stowarzyszenie#Komisja Rewizyjna -->
<g id="node2" class="node">
<title>Stowarzyszenie#Komisja Rewizyjna</title>
<ellipse fill="none" stroke="black" cx="639.91" cy="-1222" rx="178.17" ry="18"/>
<text text-anchor="middle" x="639.91" y="-1218.3" font-family="Times,serif" font-size="14.00">Stowarzyszenie#Komisja Rewizyjna</text>
</g>
<!-- cytP450&#45;&#45;Stowarzyszenie#Komisja Rewizyjna -->
<g id="edge1" class="edge">
<title>cytP450&#45;&#45;Stowarzyszenie#Komisja Rewizyjna</title>
<path fill="none" stroke="#ff0000" d="M104.31,-1084.33C118.9,-1084.33 132.82,-1084.33 132.82,-1084.33 132.82,-1084.33 132.82,-1216 132.82,-1216 132.82,-1216 324.15,-1216 471.76,-1216"/>
</g>
<!-- Chciejlista#DIY -->
<g id="node3" class="node">
<title>Chciejlista#DIY</title>
<ellipse fill="none" stroke="black" cx="639.91" cy="-1179" rx="83.69" ry="18"/>
<text text-anchor="middle" x="639.91" y="-1175.3" font-family="Times,serif" font-size="14.00">Chciejlista#DIY</text>
</g>
<!-- cytP450&#45;&#45;Chciejlista#DIY -->
<g id="edge2" class="edge">
<title>cytP450&#45;&#45;Chciejlista#DIY</title>
<path fill="none" stroke="#ff0000" d="M114.82,-1079.47C114.82,-1104.93 114.82,-1179 114.82,-1179 114.82,-1179 407.5,-1179 555.83,-1179"/>
</g>
<!-- Chciejlista#Elektronika (w sensie urzdze konsumenckich) -->
<g id="node4" class="node">
<title>Chciejlista#Elektronika (w sensie urzdze konsumenckich)</title>
<ellipse fill="none" stroke="black" cx="639.91" cy="-1136" rx="289.75" ry="18"/>
<text text-anchor="middle" x="639.91" y="-1132.3" font-family="Times,serif" font-size="14.00">Chciejlista#Elektronika (w sensie urzdze konsumenckich)</text>
</g>
<!-- cytP450&#45;&#45;Chciejlista#Elektronika (w sensie urzdze konsumenckich) -->
<g id="edge3" class="edge">
<title>cytP450&#45;&#45;Chciejlista#Elektronika (w sensie urzdze konsumenckich)</title>
<path fill="none" stroke="#ff0000" d="M116.82,-1077.96C116.82,-1094.72 116.82,-1136 116.82,-1136 116.82,-1136 229.14,-1136 349.68,-1136"/>
</g>
<!-- Kanay&#45;komunikacji# -->
<g id="node5" class="node">
<title>Kanay&#45;komunikacji#</title>
<ellipse fill="none" stroke="black" cx="639.91" cy="-534" rx="108.58" ry="18"/>
<text text-anchor="middle" x="639.91" y="-530.3" font-family="Times,serif" font-size="14.00">Kanay&#45;komunikacji#</text>
</g>
<!-- cytP450&#45;&#45;Kanay&#45;komunikacji# -->
<g id="edge4" class="edge">
<title>cytP450&#45;&#45;Kanay&#45;komunikacji#</title>
<path fill="none" stroke="#ff0000" d="M101.59,-1056.75C154.55,-1056.75 258.82,-1056.75 258.82,-1056.75 258.82,-1056.75 258.82,-541.41 258.82,-541.41 258.82,-541.41 427.86,-541.41 540.78,-541.41"/>
</g>
<!-- Infrastruktura::Domeny#Domeny -->
<g id="node6" class="node">
<title>Infrastruktura::Domeny#Domeny</title>
<ellipse fill="none" stroke="black" cx="639.91" cy="-878" rx="167.07" ry="18"/>
<text text-anchor="middle" x="639.91" y="-874.3" font-family="Times,serif" font-size="14.00">Infrastruktura::Domeny#Domeny</text>
</g>
<!-- cytP450&#45;&#45;Infrastruktura::Domeny#Domeny -->
<g id="edge5" class="edge">
<title>cytP450&#45;&#45;Infrastruktura::Domeny#Domeny</title>
<path fill="none" stroke="#ff0000" d="M111.28,-1060.5C171.23,-1060.5 277.82,-1060.5 277.82,-1060.5 277.82,-1060.5 277.82,-887 277.82,-887 277.82,-887 394.39,-887 495.24,-887"/>
</g>
<!-- Miejsce::Miejsce#Klucze do spejsu -->
<g id="node7" class="node">
<title>Miejsce::Miejsce#Klucze do spejsu</title>
<ellipse fill="none" stroke="black" cx="639.91" cy="-921" rx="172.77" ry="18"/>
<text text-anchor="middle" x="639.91" y="-917.3" font-family="Times,serif" font-size="14.00">Miejsce::Miejsce#Klucze do spejsu</text>
</g>
<!-- cytP450&#45;&#45;Miejsce::Miejsce#Klucze do spejsu -->
<g id="edge6" class="edge">
<title>cytP450&#45;&#45;Miejsce::Miejsce#Klucze do spejsu</title>
<path fill="none" stroke="#ff0000" d="M109.82,-1059.63C109.82,-1036.61 109.82,-986.67 109.82,-986.67 109.82,-986.67 478.82,-986.67 478.82,-986.67 478.82,-986.67 478.82,-944.97 478.82,-928.03"/>
</g>
<!-- Przegld&#45;lokali&#45;na&#45;wynajem&#45;w&#45;odzi.&#45;Fundusz&#45;1000&#45;&#45;&#45;1500.#Bot Aleksego -->
<g id="node8" class="node">
<title>Przegld&#45;lokali&#45;na&#45;wynajem&#45;w&#45;odzi.&#45;Fundusz&#45;1000&#45;&#45;&#45;1500.#Bot Aleksego</title>
<ellipse fill="none" stroke="black" cx="639.91" cy="-1093" rx="351.74" ry="18"/>
<text text-anchor="middle" x="639.91" y="-1089.3" font-family="Times,serif" font-size="14.00">Przegld&#45;lokali&#45;na&#45;wynajem&#45;w&#45;odzi.&#45;Fundusz&#45;1000&#45;&#45;&#45;1500.#Bot Aleksego</text>
</g>
<!-- cytP450&#45;&#45;Przegld&#45;lokali&#45;na&#45;wynajem&#45;w&#45;odzi.&#45;Fundusz&#45;1000&#45;&#45;&#45;1500.#Bot Aleksego -->
<g id="edge7" class="edge">
<title>cytP450&#45;&#45;Przegld&#45;lokali&#45;na&#45;wynajem&#45;w&#45;odzi.&#45;Fundusz&#45;1000&#45;&#45;&#45;1500.#Bot Aleksego</title>
<path fill="none" stroke="#ff0000" d="M114.68,-1079.67C176.54,-1079.67 294.91,-1079.67 403.65,-1079.67"/>
</g>
<!-- Zamek#Zamek -->
<g id="node9" class="node">
<title>Zamek#Zamek</title>
<ellipse fill="none" stroke="black" cx="639.91" cy="-1050" rx="81.49" ry="18"/>
<text text-anchor="middle" x="639.91" y="-1046.3" font-family="Times,serif" font-size="14.00">Zamek#Zamek</text>
</g>
<!-- cytP450&#45;&#45;Zamek#Zamek -->
<g id="edge8" class="edge">
<title>cytP450&#45;&#45;Zamek#Zamek</title>
<path fill="none" stroke="#ff0000" d="M117.05,-1064.25C222.16,-1064.25 480.98,-1064.25 590.1,-1064.25"/>
</g>
<!-- d33tah -->
<g id="node10" class="node">
<title>d33tah</title>
<ellipse fill="none" stroke="black" cx="71.49" cy="-534" rx="43.59" ry="18"/>
<text text-anchor="middle" x="71.49" y="-530.3" font-family="Times,serif" font-size="14.00">d33tah</text>
</g>
<!-- d33tah&#45;&#45;Kanay&#45;komunikacji# -->
<g id="edge16" class="edge">
<title>d33tah&#45;&#45;Kanay&#45;komunikacji#</title>
<path fill="none" stroke="#2bd500" d="M114.68,-537.18C203.03,-537.18 406.67,-537.18 532.84,-537.18"/>
</g>
<!-- d33tah&#45;&#45;Infrastruktura::Domeny#Domeny -->
<g id="edge17" class="edge">
<title>d33tah&#45;&#45;Infrastruktura::Domeny#Domeny</title>
<path fill="none" stroke="#2bd500" d="M99.85,-547.76C167.32,-547.76 331.82,-547.76 331.82,-547.76 331.82,-547.76 331.82,-869 331.82,-869 331.82,-869 414.98,-869 494.89,-869"/>
</g>
<!-- d33tah&#45;&#45;Miejsce::Miejsce#Klucze do spejsu -->
<g id="edge18" class="edge">
<title>d33tah&#45;&#45;Miejsce::Miejsce#Klucze do spejsu</title>
<path fill="none" stroke="#2bd500" d="M92.24,-549.88C151.92,-549.88 319.82,-549.88 319.82,-549.88 319.82,-549.88 319.82,-909 319.82,-909 319.82,-909 421.8,-909 510.64,-909"/>
</g>
<!-- Infrastruktura::Telegram#G贸wny: t.me/hakierspejs -->
<g id="node11" class="node">
<title>Infrastruktura::Telegram#G贸wny: t.me/hakierspejs</title>
<ellipse fill="none" stroke="black" cx="639.91" cy="-276" rx="251.56" ry="18"/>
<text text-anchor="middle" x="639.91" y="-272.3" font-family="Times,serif" font-size="14.00">Infrastruktura::Telegram#G贸wny: t.me/hakierspejs</text>
</g>
<!-- d33tah&#45;&#45;Infrastruktura::Telegram#G贸wny: t.me/hakierspejs -->
<g id="edge9" class="edge">
<title>d33tah&#45;&#45;Infrastruktura::Telegram#G贸wny: t.me/hakierspejs</title>
<path fill="none" stroke="#2bd500" d="M115.28,-532.94C152.8,-532.94 200.82,-532.94 200.82,-532.94 200.82,-532.94 200.82,-283 200.82,-283 200.82,-283 302.6,-283 408.15,-283"/>
</g>
<!-- Stowarzyszenie#Zarzd -->
<g id="node12" class="node">
<title>Stowarzyszenie#Zarzd</title>
<ellipse fill="none" stroke="black" cx="639.91" cy="-362" rx="123.48" ry="18"/>
<text text-anchor="middle" x="639.91" y="-358.3" font-family="Times,serif" font-size="14.00">Stowarzyszenie#Zarzd</text>
</g>
<!-- d33tah&#45;&#45;Stowarzyszenie#Zarzd -->
<g id="edge10" class="edge">
<title>d33tah&#45;&#45;Stowarzyszenie#Zarzd</title>
<path fill="none" stroke="#2bd500" d="M105.03,-522.35C119.35,-522.35 132.82,-522.35 132.82,-522.35 132.82,-522.35 132.82,-365.6 132.82,-365.6 132.82,-365.6 368.77,-365.6 518.77,-365.6"/>
</g>
<!-- Infrastruktura::Telegram#posty: t.me/hakierspejs_spam -->
<g id="node13" class="node">
<title>Infrastruktura::Telegram#posty: t.me/hakierspejs_spam</title>
<ellipse fill="none" stroke="black" cx="639.91" cy="-792" rx="284.05" ry="18"/>
<text text-anchor="middle" x="639.91" y="-788.3" font-family="Times,serif" font-size="14.00">Infrastruktura::Telegram#posty: t.me/hakierspejs_spam</text>
</g>
<!-- d33tah&#45;&#45;Infrastruktura::Telegram#posty: t.me/hakierspejs_spam -->
<g id="edge11" class="edge">
<title>d33tah&#45;&#45;Infrastruktura::Telegram#posty: t.me/hakierspejs_spam</title>
<path fill="none" stroke="#2bd500" d="M104.81,-545.65C185.13,-545.65 382.82,-545.65 382.82,-545.65 382.82,-545.65 382.82,-741.92 382.82,-784.08"/>
</g>
<!-- Bazy&#45;danych#Grafana -->
<g id="node14" class="node">
<title>Bazy&#45;danych#Grafana</title>
<ellipse fill="none" stroke="black" cx="639.91" cy="-319" rx="114.28" ry="18"/>
<text text-anchor="middle" x="639.91" y="-315.3" font-family="Times,serif" font-size="14.00">Bazy&#45;danych#Grafana</text>
</g>
<!-- d33tah&#45;&#45;Bazy&#45;danych#Grafana -->
<g id="edge12" class="edge">
<title>d33tah&#45;&#45;Bazy&#45;danych#Grafana</title>
<path fill="none" stroke="#2bd500" d="M115.2,-535.06C158.95,-535.06 219.82,-535.06 219.82,-535.06 219.82,-535.06 219.82,-325 219.82,-325 219.82,-325 407.53,-325 532,-325"/>
</g>
<!-- Infrastruktura::IRC#IRC -->
<g id="node15" class="node">
<title>Infrastruktura::IRC#IRC</title>
<ellipse fill="none" stroke="black" cx="639.91" cy="-147" rx="124.58" ry="18"/>
<text text-anchor="middle" x="639.91" y="-143.3" font-family="Times,serif" font-size="14.00">Infrastruktura::IRC#IRC</text>
</g>
<!-- d33tah&#45;&#45;Infrastruktura::IRC#IRC -->
<g id="edge13" class="edge">
<title>d33tah&#45;&#45;Infrastruktura::IRC#IRC</title>
<path fill="none" stroke="#2bd500" d="M113.17,-528.71C140.74,-528.71 171.82,-528.71 171.82,-528.71 171.82,-528.71 171.82,-162 171.82,-162 171.82,-162 440.63,-162 570.84,-162"/>
</g>
<!-- Drzwi&#45;frontowe#Ekran  -->
<g id="node16" class="node">
<title>Drzwi&#45;frontowe#Ekran </title>
<ellipse fill="none" stroke="black" cx="639.91" cy="-577" rx="120.78" ry="18"/>
<text text-anchor="middle" x="639.91" y="-573.3" font-family="Times,serif" font-size="14.00">Drzwi&#45;frontowe#Ekran </text>
</g>
<!-- d33tah&#45;&#45;Drzwi&#45;frontowe#Ekran  -->
<g id="edge14" class="edge">
<title>d33tah&#45;&#45;Drzwi&#45;frontowe#Ekran </title>
<path fill="none" stroke="black" d="M113.42,-539.29C225.9,-539.29 525.82,-539.29 525.82,-539.29 525.82,-539.29 525.82,-560.06 525.82,-570.77"/>
</g>
<!-- Infrastruktura::Github#Github -->
<g id="node20" class="node">
<title>Infrastruktura::Github#Github</title>
<ellipse fill="none" stroke="black" cx="639.91" cy="-233" rx="154.07" ry="18"/>
<text text-anchor="middle" x="639.91" y="-229.3" font-family="Times,serif" font-size="14.00">Infrastruktura::Github#Github</text>
</g>
<!-- d33tah&#45;&#45;Infrastruktura::Github#Github -->
<g id="edge15" class="edge">
<title>d33tah&#45;&#45;Infrastruktura::Github#Github</title>
<path fill="none" stroke="#2bd500" d="M114.6,-530.82C149.12,-530.82 191.82,-530.82 191.82,-530.82 191.82,-530.82 191.82,-248.86 191.82,-248.86 191.82,-248.86 439.95,-248.86 566.92,-248.86"/>
</g>
<!-- Infrastruktura::Telegram#Spacerspejs: t.me/joinchat/UYf2ONtNj21J1DS6 -->
<g id="node21" class="node">
<title>Infrastruktura::Telegram#Spacerspejs: t.me/joinchat/UYf2ONtNj21J1DS6</title>
<ellipse fill="none" stroke="black" cx="639.91" cy="-491" rx="352.84" ry="18"/>
<text text-anchor="middle" x="639.91" y="-487.3" font-family="Times,serif" font-size="14.00">Infrastruktura::Telegram#Spacerspejs: t.me/joinchat/UYf2ONtNj21J1DS6</text>
</g>
<!-- d33tah&#45;&#45;Infrastruktura::Telegram#Spacerspejs: t.me/joinchat/UYf2ONtNj21J1DS6 -->
<g id="edge19" class="edge">
<title>d33tah&#45;&#45;Infrastruktura::Telegram#Spacerspejs: t.me/joinchat/UYf2ONtNj21J1DS6</title>
<path fill="none" stroke="#2bd500" d="M110.82,-526.15C110.82,-515.29 110.82,-497 110.82,-497 110.82,-497 201.11,-497 307.08,-497"/>
</g>
<!-- Marketing&#45;i&#45;media&#45;spoecznociowe# -->
<g id="node22" class="node">
<title>Marketing&#45;i&#45;media&#45;spoecznociowe#</title>
<ellipse fill="none" stroke="black" cx="639.91" cy="-405" rx="183.07" ry="18"/>
<text text-anchor="middle" x="639.91" y="-401.3" font-family="Times,serif" font-size="14.00">Marketing&#45;i&#45;media&#45;spoecznociowe#</text>
</g>
<!-- d33tah&#45;&#45;Marketing&#45;i&#45;media&#45;spoecznociowe# -->
<g id="edge20" class="edge">
<title>d33tah&#45;&#45;Marketing&#45;i&#45;media&#45;spoecznociowe#</title>
<path fill="none" stroke="#2bd500" d="M108.54,-524.47C123.73,-524.47 137.82,-524.47 137.82,-524.47 137.82,-524.47 137.82,-409.5 137.82,-409.5 137.82,-409.5 317.75,-409.5 462.18,-409.5"/>
</g>
<!-- Infrastruktura::Mariuszbot#Mariuszbot -->
<g id="node23" class="node">
<title>Infrastruktura::Mariuszbot#Mariuszbot</title>
<ellipse fill="none" stroke="black" cx="639.91" cy="-448" rx="196.07" ry="18"/>
<text text-anchor="middle" x="639.91" y="-444.3" font-family="Times,serif" font-size="14.00">Infrastruktura::Mariuszbot#Mariuszbot</text>
</g>
<!-- d33tah&#45;&#45;Infrastruktura::Mariuszbot#Mariuszbot -->
<g id="edge21" class="edge">
<title>d33tah&#45;&#45;Infrastruktura::Mariuszbot#Mariuszbot</title>
<path fill="none" stroke="#2bd500" d="M111.24,-526.59C126.27,-526.59 139.82,-526.59 139.82,-526.59 139.82,-526.59 139.82,-457 139.82,-457 139.82,-457 324.93,-457 469.9,-457"/>
</g>
<!-- Bazy&#45;danych#Trello -->
<g id="node24" class="node">
<title>Bazy&#45;danych#Trello</title>
<ellipse fill="none" stroke="black" cx="639.91" cy="-706" rx="103.98" ry="18"/>
<text text-anchor="middle" x="639.91" y="-702.3" font-family="Times,serif" font-size="14.00">Bazy&#45;danych#Trello</text>
</g>
<!-- d33tah&#45;&#45;Bazy&#45;danych#Trello -->
<g id="edge22" class="edge">
<title>d33tah&#45;&#45;Bazy&#45;danych#Trello</title>
<path fill="none" stroke="#2bd500" d="M52.82,-550.49C52.82,-593.54 52.82,-706 52.82,-706 52.82,-706 366.92,-706 535.62,-706"/>
</g>
<!-- Infrastruktura::Telegram#HS24: t.me/hsl_info -->
<g id="node25" class="node">
<title>Infrastruktura::Telegram#HS24: t.me/hsl_info</title>
<ellipse fill="none" stroke="black" cx="639.91" cy="-663" rx="231.26" ry="18"/>
<text text-anchor="middle" x="639.91" y="-659.3" font-family="Times,serif" font-size="14.00">Infrastruktura::Telegram#HS24: t.me/hsl_info</text>
</g>
<!-- d33tah&#45;&#45;Infrastruktura::Telegram#HS24: t.me/hsl_info -->
<g id="edge23" class="edge">
<title>d33tah&#45;&#45;Infrastruktura::Telegram#HS24: t.me/hsl_info</title>
<path fill="none" stroke="#2bd500" d="M71.82,-552.21C71.82,-587.77 71.82,-663 71.82,-663 71.82,-663 251.26,-663 408.44,-663"/>
</g>
<!-- Bazy&#45;danych#Pad -->
<g id="node26" class="node">
<title>Bazy&#45;danych#Pad</title>
<ellipse fill="none" stroke="black" cx="639.91" cy="-620" rx="94.48" ry="18"/>
<text text-anchor="middle" x="639.91" y="-616.3" font-family="Times,serif" font-size="14.00">Bazy&#45;danych#Pad</text>
</g>
<!-- d33tah&#45;&#45;Bazy&#45;danych#Pad -->
<g id="edge24" class="edge">
<title>d33tah&#45;&#45;Bazy&#45;danych#Pad</title>
<path fill="none" stroke="#2bd500" d="M90.82,-550.18C90.82,-575.09 90.82,-620 90.82,-620 90.82,-620 388.53,-620 545.52,-620"/>
</g>
<!-- nastpne -->
<g id="node17" class="node">
<title>nastpne</title>
<ellipse fill="none" stroke="black" cx="71.49" cy="-1308" rx="53.09" ry="18"/>
<text text-anchor="middle" x="71.49" y="-1304.3" font-family="Times,serif" font-size="14.00">nastpne</text>
</g>
<!-- spotkanie -->
<g id="node18" class="node">
<title>spotkanie</title>
<ellipse fill="none" stroke="black" cx="71.49" cy="-1351" rx="55.79" ry="18"/>
<text text-anchor="middle" x="71.49" y="-1347.3" font-family="Times,serif" font-size="14.00">spotkanie</text>
</g>
<g id="node19" class="node">
<title></title>
<ellipse fill="none" stroke="#2bd500" cx="71.49" cy="-1394" rx="27" ry="18"/>
</g>
<!-- kujaw -->
<g id="node27" class="node">
<title>kujaw</title>
<ellipse fill="none" stroke="black" cx="71.49" cy="-749" rx="38.19" ry="18"/>
<text text-anchor="middle" x="71.49" y="-745.3" font-family="Times,serif" font-size="14.00">kujaw</text>
</g>
<!-- kujaw&#45;&#45;Miejsce::Miejsce#Klucze do spejsu -->
<g id="edge27" class="edge">
<title>kujaw&#45;&#45;Miejsce::Miejsce#Klucze do spejsu</title>
<path fill="none" stroke="#0061f2" d="M98.35,-761.86C161.45,-761.86 313.82,-761.86 313.82,-761.86 313.82,-761.86 313.82,-915 313.82,-915 313.82,-915 395.35,-915 476.87,-915"/>
</g>
<!-- kujaw&#45;&#45;Stowarzyszenie#Zarzd -->
<g id="edge25" class="edge">
<title>kujaw&#45;&#45;Stowarzyszenie#Zarzd</title>
<path fill="none" stroke="#0061f2" d="M98.35,-736.14C143.52,-736.14 229.82,-736.14 229.82,-736.14 229.82,-736.14 229.82,-372.8 229.82,-372.8 229.82,-372.8 419.54,-372.8 540.9,-372.8"/>
</g>
<!-- kujaw&#45;&#45;Marketing&#45;i&#45;media&#45;spoecznociowe# -->
<g id="edge28" class="edge">
<title>kujaw&#45;&#45;Marketing&#45;i&#45;media&#45;spoecznociowe#</title>
<path fill="none" stroke="#0061f2" d="M106.37,-741.29C155.68,-741.29 239.82,-741.29 239.82,-741.29 239.82,-741.29 239.82,-414 239.82,-414 239.82,-414 369.29,-414 480.92,-414"/>
</g>
<!-- Marketing&#45;i&#45;media&#45;spoecznociowe#Naklejki -->
<g id="node28" class="node">
<title>Marketing&#45;i&#45;media&#45;spoecznociowe#Naklejki</title>
<ellipse fill="none" stroke="black" cx="639.91" cy="-749" rx="221.76" ry="18"/>
<text text-anchor="middle" x="639.91" y="-745.3" font-family="Times,serif" font-size="14.00">Marketing&#45;i&#45;media&#45;spoecznociowe#Naklejki</text>
</g>
<!-- kujaw&#45;&#45;Marketing&#45;i&#45;media&#45;spoecznociowe#Naklejki -->
<g id="edge26" class="edge">
<title>kujaw&#45;&#45;Marketing&#45;i&#45;media&#45;spoecznociowe#Naklejki</title>
<path fill="none" stroke="#0061f2" d="M109.67,-751.57C173.02,-751.57 304.4,-751.57 420.53,-751.57"/>
</g>
<!-- Marketing&#45;i&#45;media&#45;spoecznociowe#Logo nr. 2 -->
<g id="node29" class="node">
<title>Marketing&#45;i&#45;media&#45;spoecznociowe#Logo nr. 2</title>
<ellipse fill="none" stroke="black" cx="639.91" cy="-835" rx="229.36" ry="18"/>
<text text-anchor="middle" x="639.91" y="-831.3" font-family="Times,serif" font-size="14.00">Marketing&#45;i&#45;media&#45;spoecznociowe#Logo nr. 2</text>
</g>
<!-- kujaw&#45;&#45;Marketing&#45;i&#45;media&#45;spoecznociowe#Logo nr. 2 -->
<g id="edge29" class="edge">
<title>kujaw&#45;&#45;Marketing&#45;i&#45;media&#45;spoecznociowe#Logo nr. 2</title>
<path fill="none" stroke="#0061f2" d="M106.26,-756.71C179.68,-756.71 343.82,-756.71 343.82,-756.71 343.82,-756.71 343.82,-826 343.82,-826 343.82,-826 387.44,-826 441.18,-826"/>
</g>
<!-- SP7Q -->
<g id="node30" class="node">
<title>SP7Q</title>
<ellipse fill="none" stroke="black" cx="71.49" cy="-319" rx="36.29" ry="18"/>
<text text-anchor="middle" x="71.49" y="-315.3" font-family="Times,serif" font-size="14.00">SP7Q</text>
</g>
<!-- SP7Q&#45;&#45;Stowarzyszenie#Zarzd -->
<g id="edge31" class="edge">
<title>SP7Q&#45;&#45;Stowarzyszenie#Zarzd</title>
<path fill="none" stroke="#c60077" d="M107.96,-319C215.17,-319 521.82,-319 521.82,-319 521.82,-319 521.82,-345.25 521.82,-356.73"/>
</g>
<!-- SP7Q&#45;&#45;Infrastruktura::Github#Github -->
<g id="edge32" class="edge">
<title>SP7Q&#45;&#45;Infrastruktura::Github#Github</title>
<path fill="none" stroke="#c60077" d="M98.65,-307C108.3,-307 116.82,-307 116.82,-307 116.82,-307 116.82,-244.57 116.82,-244.57 116.82,-244.57 367.59,-244.57 521.86,-244.57"/>
</g>
<!-- SP7Q&#45;&#45;Marketing&#45;i&#45;media&#45;spoecznociowe# -->
<g id="edge30" class="edge">
<title>SP7Q&#45;&#45;Marketing&#45;i&#45;media&#45;spoecznociowe#</title>
<path fill="none" stroke="#c60077" d="M98.74,-331C191.14,-331 486.82,-331 486.82,-331 486.82,-331 486.82,-374.82 486.82,-395.02"/>
</g>
<!-- Polimerek -->
<g id="node31" class="node">
<title>Polimerek</title>
<ellipse fill="none" stroke="black" cx="71.49" cy="-362" rx="57.39" ry="18"/>
<text text-anchor="middle" x="71.49" y="-358.3" font-family="Times,serif" font-size="14.00">Polimerek</text>
</g>
<!-- Polimerek&#45;&#45;Stowarzyszenie#Zarzd -->
<g id="edge33" class="edge">
<title>Polimerek&#45;&#45;Stowarzyszenie#Zarzd</title>
<path fill="none" stroke="#b6e400" d="M127.55,-358.4C217.95,-358.4 397.97,-358.4 518.7,-358.4"/>
</g>
<!-- kasesag -->
<g id="node32" class="node">
<title>kasesag</title>
<ellipse fill="none" stroke="black" cx="71.49" cy="-168" rx="48.19" ry="18"/>
<text text-anchor="middle" x="71.49" y="-164.3" font-family="Times,serif" font-size="14.00">kasesag</text>
</g>
<!-- kasesag&#45;&#45;Stowarzyszenie#Zarzd -->
<g id="edge34" class="edge">
<title>kasesag&#45;&#45;Stowarzyszenie#Zarzd</title>
<path fill="none" stroke="#00ffff" d="M109.79,-179C193.19,-179 383.82,-179 383.82,-179 383.82,-179 383.82,-351.2 383.82,-351.2 383.82,-351.2 468.84,-351.2 540.9,-351.2"/>
</g>
<!-- Marketing&#45;i&#45;media&#45;spoecznociowe#Przycisk HS&#45;LDZ -->
<g id="node33" class="node">
<title>Marketing&#45;i&#45;media&#45;spoecznociowe#Przycisk HS&#45;LDZ</title>
<ellipse fill="none" stroke="black" cx="639.91" cy="-18" rx="261.85" ry="18"/>
<text text-anchor="middle" x="639.91" y="-14.3" font-family="Times,serif" font-size="14.00">Marketing&#45;i&#45;media&#45;spoecznociowe#Przycisk HS&#45;LDZ</text>
</g>
<!-- kasesag&#45;&#45;Marketing&#45;i&#45;media&#45;spoecznociowe#Przycisk HS&#45;LDZ -->
<g id="edge35" class="edge">
<title>kasesag&#45;&#45;Marketing&#45;i&#45;media&#45;spoecznociowe#Przycisk HS&#45;LDZ</title>
<path fill="none" stroke="#00ffff" d="M98.36,-153C110.78,-153 122.82,-153 122.82,-153 122.82,-153 122.82,-18 122.82,-18 122.82,-18 249.83,-18 377.96,-18"/>
</g>
<!-- pzduniak -->
<g id="node34" class="node">
<title>pzduniak</title>
<ellipse fill="none" stroke="black" cx="71.49" cy="-1265" rx="52.79" ry="18"/>
<text text-anchor="middle" x="71.49" y="-1261.3" font-family="Times,serif" font-size="14.00">pzduniak</text>
</g>
<!-- pzduniak&#45;&#45;Stowarzyszenie#Komisja Rewizyjna -->
<g id="edge36" class="edge">
<title>pzduniak&#45;&#45;Stowarzyszenie#Komisja Rewizyjna</title>
<path fill="none" stroke="#ab00d5" d="M118.82,-1256.86C118.82,-1247.67 118.82,-1234 118.82,-1234 118.82,-1234 352.68,-1234 507.07,-1234"/>
</g>
<!-- krcz -->
<g id="node35" class="node">
<title>krcz</title>
<ellipse fill="none" stroke="black" cx="71.49" cy="-1222" rx="30.59" ry="18"/>
<text text-anchor="middle" x="71.49" y="-1218.3" font-family="Times,serif" font-size="14.00">krcz</text>
</g>
<!-- krcz&#45;&#45;Stowarzyszenie#Komisja Rewizyjna -->
<g id="edge37" class="edge">
<title>krcz&#45;&#45;Stowarzyszenie#Komisja Rewizyjna</title>
<path fill="none" stroke="#f29100" d="M100.46,-1228C167.99,-1228 340.14,-1228 471.96,-1228"/>
</g>
<!-- kpc -->
<g id="node36" class="node">
<title>kpc</title>
<ellipse fill="none" stroke="black" cx="71.49" cy="-1007" rx="27" ry="18"/>
<text text-anchor="middle" x="71.49" y="-1003.3" font-family="Times,serif" font-size="14.00">kpc</text>
</g>
<!-- kpc&#45;&#45;Stowarzyszenie#Komisja Rewizyjna -->
<g id="edge38" class="edge">
<title>kpc&#45;&#45;Stowarzyszenie#Komisja Rewizyjna</title>
<path fill="none" stroke="#00c64f" d="M91.75,-1019C130.4,-1019 210.82,-1019 210.82,-1019 210.82,-1019 210.82,-1210 210.82,-1210 210.82,-1210 381.06,-1210 507.08,-1210"/>
</g>
<!-- kpc&#45;&#45;Miejsce::Miejsce#Klucze do spejsu -->
<g id="edge41" class="edge">
<title>kpc&#45;&#45;Miejsce::Miejsce#Klucze do spejsu</title>
<path fill="none" stroke="#00c64f" d="M71.82,-988.7C71.82,-986.13 71.82,-984.33 71.82,-984.33 71.82,-984.33 474.82,-984.33 474.82,-984.33 474.82,-984.33 474.82,-941.72 474.82,-926.4"/>
</g>
<!-- kpc&#45;&#45;Infrastruktura::Telegram#posty: t.me/hakierspejs_spam -->
<g id="edge39" class="edge">
<title>kpc&#45;&#45;Infrastruktura::Telegram#posty: t.me/hakierspejs_spam</title>
<path fill="none" stroke="#00c64f" d="M97.36,-1001C157.33,-1001 300.82,-1001 300.82,-1001 300.82,-1001 300.82,-804 300.82,-804 300.82,-804 359.51,-804 428.05,-804"/>
</g>
<!-- kpc&#45;&#45;Marketing&#45;i&#45;media&#45;spoecznociowe# -->
<g id="edge42" class="edge">
<title>kpc&#45;&#45;Marketing&#45;i&#45;media&#45;spoecznociowe#</title>
<path fill="none" stroke="#00c64f" d="M91.84,-995C138.41,-995 248.82,-995 248.82,-995 248.82,-995 248.82,-418.5 248.82,-418.5 248.82,-418.5 403.75,-418.5 518.58,-418.5"/>
</g>
<!-- Infrastruktura::Telegram#Posty wyklte (celowo bez linka) -->
<g id="node37" class="node">
<title>Infrastruktura::Telegram#Posty wyklte (celowo bez linka)</title>
<ellipse fill="none" stroke="black" cx="639.91" cy="-1007" rx="284.05" ry="18"/>
<text text-anchor="middle" x="639.91" y="-1003.3" font-family="Times,serif" font-size="14.00">Infrastruktura::Telegram#Posty wyklte (celowo bez linka)</text>
</g>
<!-- kpc&#45;&#45;Infrastruktura::Telegram#Posty wyklte (celowo bez linka) -->
<g id="edge40" class="edge">
<title>kpc&#45;&#45;Infrastruktura::Telegram#Posty wyklte (celowo bez linka)</title>
<path fill="none" stroke="#00c64f" d="M97.02,-1013C146.65,-1013 261.06,-1013 372.11,-1013"/>
</g>
<!-- Czaty&#45;HS#HS: posty wyklte -->
<g id="node38" class="node">
<title>Czaty&#45;HS#HS: posty wyklte</title>
<ellipse fill="none" stroke="black" cx="639.91" cy="-964" rx="157.87" ry="18"/>
<text text-anchor="middle" x="639.91" y="-960.3" font-family="Times,serif" font-size="14.00">Czaty&#45;HS#HS: posty wyklte</text>
</g>
<!-- kpc&#45;&#45;Czaty&#45;HS#HS: posty wyklte -->
<g id="edge43" class="edge">
<title>kpc&#45;&#45;Czaty&#45;HS#HS: posty wyklte</title>
<path fill="none" stroke="#00c64f" d="M98.69,-1007C168.72,-1007 349.82,-1007 349.82,-1007 349.82,-1007 349.82,-970 349.82,-970 349.82,-970 419.54,-970 490.62,-970"/>
</g>
<!-- PiotrP -->
<g id="node39" class="node">
<title>PiotrP</title>
<ellipse fill="none" stroke="black" cx="71.49" cy="-1179" rx="40.09" ry="18"/>
<text text-anchor="middle" x="71.49" y="-1175.3" font-family="Times,serif" font-size="14.00">PiotrP</text>
</g>
<!-- PiotrP&#45;&#45;Stowarzyszenie#Komisja Rewizyjna -->
<g id="edge44" class="edge">
<title>PiotrP&#45;&#45;Stowarzyszenie#Komisja Rewizyjna</title>
<path fill="none" stroke="#2e00e4" d="M107.82,-1186.89C107.82,-1199.3 107.82,-1222 107.82,-1222 107.82,-1222 306.99,-1222 461.62,-1222"/>
</g>
<!-- pmysl -->
<g id="node40" class="node">
<title>pmysl</title>
<ellipse fill="none" stroke="black" cx="71.49" cy="-254" rx="38.19" ry="18"/>
<text text-anchor="middle" x="71.49" y="-250.3" font-family="Times,serif" font-size="14.00">pmysl</text>
</g>
<!-- pmysl&#45;&#45;Kanay&#45;komunikacji# -->
<g id="edge48" class="edge">
<title>pmysl&#45;&#45;Kanay&#45;komunikacji#</title>
<path fill="none" stroke="#ff0000" d="M94.58,-268.5C118.63,-268.5 152.82,-268.5 152.82,-268.5 152.82,-268.5 152.82,-520.24 152.82,-520.24 152.82,-520.24 435.07,-520.24 569.86,-520.24"/>
</g>
<!-- pmysl&#45;&#45;Bazy&#45;danych#Grafana -->
<g id="edge47" class="edge">
<title>pmysl&#45;&#45;Bazy&#45;danych#Grafana</title>
<path fill="none" stroke="#ff0000" d="M102.02,-265C181.15,-265 386.82,-265 386.82,-265 386.82,-265 386.82,-313 386.82,-313 386.82,-313 463.06,-313 531.84,-313"/>
</g>
<!-- pmysl&#45;&#45;Infrastruktura::IRC#IRC -->
<g id="edge45" class="edge">
<title>pmysl&#45;&#45;Infrastruktura::IRC#IRC</title>
<path fill="none" stroke="#ff0000" d="M89.81,-238.14C108.52,-238.14 134.82,-238.14 134.82,-238.14 134.82,-238.14 134.82,-159 134.82,-159 134.82,-159 400.74,-159 546.68,-159"/>
</g>
<!-- pmysl&#45;&#45;Infrastruktura::Github#Github -->
<g id="edge46" class="edge">
<title>pmysl&#45;&#45;Infrastruktura::Github#Github</title>
<path fill="none" stroke="#ff0000" d="M101.25,-242.43C175.84,-242.43 374.34,-242.43 508.39,-242.43"/>
</g>
<!-- Bazy&#45;danych# -->
<g id="node41" class="node">
<title>Bazy&#45;danych#</title>
<ellipse fill="none" stroke="black" cx="639.91" cy="-190" rx="77.19" ry="18"/>
<text text-anchor="middle" x="639.91" y="-186.3" font-family="Times,serif" font-size="14.00">Bazy&#45;danych#</text>
</g>
<!-- pmysl&#45;&#45;Bazy&#45;danych# -->
<g id="edge49" class="edge">
<title>pmysl&#45;&#45;Bazy&#45;danych#</title>
<path fill="none" stroke="#ff0000" d="M96.49,-240.29C116.7,-240.29 141.82,-240.29 141.82,-240.29 141.82,-240.29 141.82,-204.25 141.82,-204.25 141.82,-204.25 468.27,-204.25 592.6,-204.25"/>
</g>
<!-- thinkofher -->
<g id="node42" class="node">
<title>thinkofher</title>
<ellipse fill="none" stroke="black" cx="71.49" cy="-211" rx="59.29" ry="18"/>
<text text-anchor="middle" x="71.49" y="-207.3" font-family="Times,serif" font-size="14.00">thinkofher</text>
</g>
<!-- thinkofher&#45;&#45;Kanay&#45;komunikacji# -->
<g id="edge54" class="edge">
<title>thinkofher&#45;&#45;Kanay&#45;komunikacji#</title>
<path fill="none" stroke="#2bd500" d="M106.54,-225.5C132.3,-225.5 162.82,-225.5 162.82,-225.5 162.82,-225.5 162.82,-518.12 162.82,-518.12 162.82,-518.12 465.03,-518.12 588.4,-518.12"/>
</g>
<!-- thinkofher&#45;&#45;Infrastruktura::Telegram#G贸wny: t.me/hakierspejs -->
<g id="edge51" class="edge">
<title>thinkofher&#45;&#45;Infrastruktura::Telegram#G贸wny: t.me/hakierspejs</title>
<path fill="none" stroke="#2bd500" d="M122.82,-220.26C122.82,-234.84 122.82,-261.5 122.82,-261.5 122.82,-261.5 337.96,-261.5 490.69,-261.5"/>
</g>
<!-- thinkofher&#45;&#45;Infrastruktura::IRC#IRC -->
<g id="edge52" class="edge">
<title>thinkofher&#45;&#45;Infrastruktura::IRC#IRC</title>
<path fill="none" stroke="#2bd500" d="M128.82,-206.31C128.82,-193.01 128.82,-156 128.82,-156 128.82,-156 381.85,-156 531.83,-156"/>
</g>
<!-- thinkofher&#45;&#45;Infrastruktura::Github#Github -->
<g id="edge53" class="edge">
<title>thinkofher&#45;&#45;Infrastruktura::Github#Github</title>
<path fill="none" stroke="#2bd500" d="M125.48,-218.5C222.82,-218.5 428.71,-218.5 548.41,-218.5"/>
</g>
<!-- thinkofher&#45;&#45;Marketing&#45;i&#45;media&#45;spoecznociowe# -->
<g id="edge56" class="edge">
<title>thinkofher&#45;&#45;Marketing&#45;i&#45;media&#45;spoecznociowe#</title>
<path fill="none" stroke="#2bd500" d="M118.52,-222C176.6,-222 267.82,-222 267.82,-222 267.82,-222 267.82,-391.5 267.82,-391.5 267.82,-391.5 410.01,-391.5 518.59,-391.5"/>
</g>
<!-- thinkofher&#45;&#45;Bazy&#45;danych# -->
<g id="edge55" class="edge">
<title>thinkofher&#45;&#45;Bazy&#45;danych#</title>
<path fill="none" stroke="#2bd500" d="M119.96,-200.5C222.65,-200.5 462.09,-200.5 576.65,-200.5"/>
</g>
<!-- Infrastruktura::Matrix#hs&#45;ldz:hackerspace.pl -->
<g id="node43" class="node">
<title>Infrastruktura::Matrix#hs&#45;ldz:hackerspace.pl</title>
<ellipse fill="none" stroke="black" cx="639.91" cy="-104" rx="221.76" ry="18"/>
<text text-anchor="middle" x="639.91" y="-100.3" font-family="Times,serif" font-size="14.00">Infrastruktura::Matrix#hs&#45;ldz:hackerspace.pl</text>
</g>
<!-- thinkofher&#45;&#45;Infrastruktura::Matrix#hs&#45;ldz:hackerspace.pl -->
<g id="edge50" class="edge">
<title>thinkofher&#45;&#45;Infrastruktura::Matrix#hs&#45;ldz:hackerspace.pl</title>
<path fill="none" stroke="#2bd500" d="M125.82,-203.75C125.82,-181.3 125.82,-114.5 125.82,-114.5 125.82,-114.5 311.56,-114.5 459.74,-114.5"/>
</g>
<!-- Infrastruktura::Matrix#hs&#45;ldz&#45;offtopic:hackerspace.pl -->
<g id="node44" class="node">
<title>Infrastruktura::Matrix#hs&#45;ldz&#45;offtopic:hackerspace.pl</title>
<ellipse fill="none" stroke="black" cx="639.91" cy="-61" rx="258.85" ry="18"/>
<text text-anchor="middle" x="639.91" y="-57.3" font-family="Times,serif" font-size="14.00">Infrastruktura::Matrix#hs&#45;ldz&#45;offtopic:hackerspace.pl</text>
</g>
<!-- thinkofher&#45;&#45;Infrastruktura::Matrix#hs&#45;ldz&#45;offtopic:hackerspace.pl -->
<g id="edge57" class="edge">
<title>thinkofher&#45;&#45;Infrastruktura::Matrix#hs&#45;ldz&#45;offtopic:hackerspace.pl</title>
<path fill="none" stroke="#2bd500" d="M107.74,-196.75C190.22,-196.75 384.82,-196.75 384.82,-196.75 384.82,-196.75 384.82,-85.26 384.82,-64.36"/>
</g>
<!-- Piotrek_P -->
<g id="node45" class="node">
<title>Piotrek_P</title>
<ellipse fill="none" stroke="black" cx="71.49" cy="-964" rx="55.49" ry="18"/>
<text text-anchor="middle" x="71.49" y="-960.3" font-family="Times,serif" font-size="14.00">Piotrek_P</text>
</g>
<!-- Piotrek_P&#45;&#45;Miejsce::Miejsce#Klucze do spejsu -->
<g id="edge58" class="edge">
<title>Piotrek_P&#45;&#45;Miejsce::Miejsce#Klucze do spejsu</title>
<path fill="none" stroke="#0061f2" d="M123.7,-958C231.94,-958 470.82,-958 470.82,-958 470.82,-958 470.82,-934.5 470.82,-924.96"/>
</g>
<!-- polimerek -->
<g id="node46" class="node">
<title>polimerek</title>
<ellipse fill="none" stroke="black" cx="71.49" cy="-921" rx="57.39" ry="18"/>
<text text-anchor="middle" x="71.49" y="-917.3" font-family="Times,serif" font-size="14.00">polimerek</text>
</g>
<!-- polimerek&#45;&#45;Miejsce::Miejsce#Klucze do spejsu -->
<g id="edge59" class="edge">
<title>polimerek&#45;&#45;Miejsce::Miejsce#Klucze do spejsu</title>
<path fill="none" stroke="#c60077" d="M114.22,-933C197.35,-933 383.84,-933 510.8,-933"/>
</g>
<!-- kotlovecrafta -->
<g id="node47" class="node">
<title>kotlovecrafta</title>
<ellipse fill="none" stroke="black" cx="71.49" cy="-878" rx="71.49" ry="18"/>
<text text-anchor="middle" x="71.49" y="-874.3" font-family="Times,serif" font-size="14.00">kotlovecrafta</text>
</g>
<!-- kotlovecrafta&#45;&#45;Miejsce::Miejsce#Klucze do spejsu -->
<g id="edge60" class="edge">
<title>kotlovecrafta&#45;&#45;Miejsce::Miejsce#Klucze do spejsu</title>
<path fill="none" stroke="#b6e400" d="M135.82,-886.09C135.82,-900.01 135.82,-927 135.82,-927 135.82,-927 329.36,-927 476.59,-927"/>
</g>
<!-- sp7adg -->
<g id="node48" class="node">
<title>sp7adg</title>
<ellipse fill="none" stroke="black" cx="71.49" cy="-835" rx="44.39" ry="18"/>
<text text-anchor="middle" x="71.49" y="-831.3" font-family="Times,serif" font-size="14.00">sp7adg</text>
</g>
<!-- sp7adg&#45;&#45;Miejsce::Miejsce#Klucze do spejsu -->
<g id="edge61" class="edge">
<title>sp7adg&#45;&#45;Miejsce::Miejsce#Klucze do spejsu</title>
<path fill="none" stroke="#00ffff" d="M109.83,-844C176.51,-844 306.82,-844 306.82,-844 306.82,-844 306.82,-921 306.82,-921 306.82,-921 385.6,-921 466.54,-921"/>
</g>
<!-- kszmigiel -->
<g id="node49" class="node">
<title>kszmigiel</title>
<ellipse fill="none" stroke="black" cx="71.49" cy="-448" rx="54.69" ry="18"/>
<text text-anchor="middle" x="71.49" y="-444.3" font-family="Times,serif" font-size="14.00">kszmigiel</text>
</g>
<!-- kszmigiel&#45;&#45;Infrastruktura::Telegram#G贸wny: t.me/hakierspejs -->
<g id="edge62" class="edge">
<title>kszmigiel&#45;&#45;Infrastruktura::Telegram#G贸wny: t.me/hakierspejs</title>
<path fill="none" stroke="#ab00d5" d="M126.21,-448C223.59,-448 416.82,-448 416.82,-448 416.82,-448 416.82,-319.82 416.82,-284.77"/>
</g>
<!-- kszmigiel&#45;&#45;Infrastruktura::Telegram#posty: t.me/hakierspejs_spam -->
<g id="edge64" class="edge">
<title>kszmigiel&#45;&#45;Infrastruktura::Telegram#posty: t.me/hakierspejs_spam</title>
<path fill="none" stroke="#ab00d5" d="M119.82,-456.54C119.82,-508.51 119.82,-780 119.82,-780 119.82,-780 284.1,-780 427.99,-780"/>
</g>
<!-- kszmigiel&#45;&#45;Infrastruktura::Github#Github -->
<g id="edge63" class="edge">
<title>kszmigiel&#45;&#45;Infrastruktura::Github#Github</title>
<path fill="none" stroke="#ab00d5" d="M118.92,-439C148.83,-439 181.82,-439 181.82,-439 181.82,-439 181.82,-246.71 181.82,-246.71 181.82,-246.71 405.16,-246.71 539.94,-246.71"/>
</g>
<!-- kszmigiel&#45;&#45;Marketing&#45;i&#45;media&#45;spoecznociowe# -->
<g id="edge66" class="edge">
<title>kszmigiel&#45;&#45;Marketing&#45;i&#45;media&#45;spoecznociowe#</title>
<path fill="none" stroke="#ab00d5" d="M116.82,-437.93C116.82,-423.98 116.82,-400.5 116.82,-400.5 116.82,-400.5 310.44,-400.5 462.08,-400.5"/>
</g>
<!-- kszmigiel&#45;&#45;Marketing&#45;i&#45;media&#45;spoecznociowe#Naklejki -->
<g id="edge65" class="edge">
<title>kszmigiel&#45;&#45;Marketing&#45;i&#45;media&#45;spoecznociowe#Naklejki</title>
<path fill="none" stroke="#ab00d5" d="M122.82,-454.23C122.82,-497.09 122.82,-746.43 122.82,-746.43 122.82,-746.43 279.41,-746.43 420.24,-746.43"/>
</g>
<!-- q3k -->
<g id="node50" class="node">
<title>q3k</title>
<ellipse fill="none" stroke="black" cx="71.49" cy="-792" rx="27.9" ry="18"/>
<text text-anchor="middle" x="71.49" y="-788.3" font-family="Times,serif" font-size="14.00">q3k</text>
</g>
<!-- q3k&#45;&#45;Kanay&#45;komunikacji# -->
<g id="edge67" class="edge">
<title>q3k&#45;&#45;Kanay&#45;komunikacji#</title>
<path fill="none" stroke="#f29100" d="M97.99,-786C157.15,-786 294.82,-786 294.82,-786 294.82,-786 294.82,-543.53 294.82,-543.53 294.82,-543.53 445.21,-543.53 547.43,-543.53"/>
</g>
<!-- q3k&#45;&#45;Infrastruktura::Domeny#Domeny -->
<g id="edge68" class="edge">
<title>q3k&#45;&#45;Infrastruktura::Domeny#Domeny</title>
<path fill="none" stroke="#f29100" d="M98.23,-798C163.53,-798 325.82,-798 325.82,-798 325.82,-798 325.82,-878 325.82,-878 325.82,-878 397.74,-878 472.75,-878"/>
</g>
<!-- q3k&#45;&#45;Marketing&#45;i&#45;media&#45;spoecznociowe#Logo nr. 2 -->
<g id="edge69" class="edge">
<title>q3k&#45;&#45;Marketing&#45;i&#45;media&#45;spoecznociowe#Logo nr. 2</title>
<path fill="none" stroke="#f29100" d="M99.49,-792C167.87,-792 337.82,-792 337.82,-792 337.82,-792 337.82,-835 337.82,-835 337.82,-835 368.44,-835 410.18,-835"/>
</g>
<!-- BluRaf -->
<g id="node51" class="node">
<title>BluRaf</title>
<ellipse fill="none" stroke="black" cx="71.49" cy="-125" rx="42.49" ry="18"/>
<text text-anchor="middle" x="71.49" y="-121.3" font-family="Times,serif" font-size="14.00">BluRaf</text>
</g>
<!-- BluRaf&#45;&#45;Infrastruktura::IRC#IRC -->
<g id="edge70" class="edge">
<title>BluRaf&#45;&#45;Infrastruktura::IRC#IRC</title>
<path fill="none" stroke="#00c64f" d="M105.35,-136C189.6,-136 411.22,-136 541.12,-136"/>
</g>
<!-- hslbridgebot -->
<g id="node52" class="node">
<title>hslbridgebot</title>
<ellipse fill="none" stroke="black" cx="71.49" cy="-1480" rx="69.59" ry="18"/>
<text text-anchor="middle" x="71.49" y="-1476.3" font-family="Times,serif" font-size="14.00">hslbridgebot</text>
</g>
<!-- Mostkowanie&#45;kana贸w#mautrix&#45;telegram (aktualnie u偶ywany) -->
<g id="node53" class="node">
<title>Mostkowanie&#45;kana贸w#mautrix&#45;telegram (aktualnie u偶ywany)</title>
<ellipse fill="none" stroke="black" cx="639.91" cy="-1459" rx="297.85" ry="18"/>
<text text-anchor="middle" x="639.91" y="-1455.3" font-family="Times,serif" font-size="14.00">Mostkowanie&#45;kana贸w#mautrix&#45;telegram (aktualnie u偶ywany)</text>
</g>
<!-- hslbridgebot&#45;&#45;Mostkowanie&#45;kana贸w#mautrix&#45;telegram (aktualnie u偶ywany) -->
<g id="edge71" class="edge">
<title>hslbridgebot&#45;&#45;Mostkowanie&#45;kana贸w#mautrix&#45;telegram (aktualnie u偶ywany)</title>
<path fill="none" stroke="#2e00e4" d="M128.07,-1469.5C191.4,-1469.5 298.22,-1469.5 397.95,-1469.5"/>
</g>
<!-- telegrambot -->
<g id="node54" class="node">
<title>telegrambot</title>
<ellipse fill="none" stroke="black" cx="71.49" cy="-1437" rx="67.69" ry="18"/>
<text text-anchor="middle" x="71.49" y="-1433.3" font-family="Times,serif" font-size="14.00">telegrambot</text>
</g>
<!-- telegrambot&#45;&#45;Mostkowanie&#45;kana贸w#mautrix&#45;telegram (aktualnie u偶ywany) -->
<g id="edge72" class="edge">
<title>telegrambot&#45;&#45;Mostkowanie&#45;kana贸w#mautrix&#45;telegram (aktualnie u偶ywany)</title>
<path fill="none" stroke="#ff0000" d="M125.22,-1448C189.43,-1448 301.12,-1448 404.09,-1448"/>
</g>
<!-- biniu -->
<g id="node55" class="node">
<title>biniu</title>
<ellipse fill="none" stroke="black" cx="71.49" cy="-491" rx="34.39" ry="18"/>
<text text-anchor="middle" x="71.49" y="-487.3" font-family="Times,serif" font-size="14.00">biniu</text>
</g>
<!-- biniu&#45;&#45;Marketing&#45;i&#45;media&#45;spoecznociowe# -->
<g id="edge73" class="edge">
<title>biniu&#45;&#45;Marketing&#45;i&#45;media&#45;spoecznociowe#</title>
<path fill="none" stroke="#2bd500" d="M104.16,-485C120.49,-485 136.82,-485 136.82,-485 136.82,-485 136.82,-405 136.82,-405 136.82,-405 312.72,-405 456.5,-405"/>
</g>
<!-- Keij0 -->
<g id="node56" class="node">
<title>Keij0</title>
<ellipse fill="none" stroke="black" cx="71.49" cy="-405" rx="34.39" ry="18"/>
<text text-anchor="middle" x="71.49" y="-401.3" font-family="Times,serif" font-size="14.00">Keij0</text>
</g>
<!-- Keij0&#45;&#45;Marketing&#45;i&#45;media&#45;spoecznociowe# -->
<g id="edge74" class="edge">
<title>Keij0&#45;&#45;Marketing&#45;i&#45;media&#45;spoecznociowe#</title>
<path fill="none" stroke="#0061f2" d="M101.65,-396C171.6,-396 348.97,-396 481.11,-396"/>
</g>
</g>
</svg>
