<?xml version="1.0" encoding="UTF-8" standalone="no"?>
<!DOCTYPE svg PUBLIC "-//W3C//DTD SVG 1.1//EN"
 "http://www.w3.org/Graphics/SVG/1.1/DTD/svg11.dtd">
<!-- Generated by graphviz version 2.40.1 (20161225.0304)
 -->
<!-- Title: %3 Pages: 1 -->
<svg width="850pt" height="818pt"
 viewBox="0.00 0.00 850.04 818.00" xmlns="http://www.w3.org/2000/svg" xmlns:xlink="http://www.w3.org/1999/xlink">
<g id="graph0" class="graph" transform="scale(1 1) rotate(0) translate(4 814)">
<title>%3</title>
<polygon fill="#ffffff" stroke="transparent" points="-4,4 -4,-814 846.0381,-814 846.0381,4 -4,4"/>
<!-- d33tah -->
<g id="node1" class="node">
<title>d33tah</title>
<ellipse fill="none" stroke="#000000" cx="59.7947" cy="-534" rx="43.5923" ry="18"/>
<text text-anchor="middle" x="59.7947" y="-530.3" font-family="Times,serif" font-size="14.00" fill="#000000">d33tah</text>
</g>
<!-- Infrastruktura::Forum#Forum -->
<g id="node2" class="node">
<title>Infrastruktura::Forum#Forum</title>
<ellipse fill="none" stroke="#000000" cx="552.8137" cy="-620" rx="152.1731" ry="18"/>
<text text-anchor="middle" x="552.8137" y="-616.3" font-family="Times,serif" font-size="14.00" fill="#000000">Infrastruktura::Forum#Forum</text>
</g>
<!-- d33tah&#45;&#45;Infrastruktura::Forum#Forum -->
<g id="edge1" class="edge">
<title>d33tah&#45;&#45;Infrastruktura::Forum#Forum</title>
<path fill="none" stroke="#ff0000" d="M99.361,-541.7143C167.8011,-541.7143 301.0381,-541.7143 301.0381,-541.7143 301.0381,-541.7143 301.0381,-614 301.0381,-614 301.0381,-614 352.7332,-614 409.2748,-614"/>
</g>
<!-- Infrastruktura::Telegram#t.me/hakierspejs_spam -->
<g id="node3" class="node">
<title>Infrastruktura::Telegram#t.me/hakierspejs_spam</title>
<ellipse fill="none" stroke="#000000" cx="552.8137" cy="-405" rx="243.1569" ry="18"/>
<text text-anchor="middle" x="552.8137" y="-401.3" font-family="Times,serif" font-size="14.00" fill="#000000">Infrastruktura::Telegram#t.me/hakierspejs_spam</text>
</g>
<!-- d33tah&#45;&#45;Infrastruktura::Telegram#t.me/hakierspejs_spam -->
<g id="edge2" class="edge">
<title>d33tah&#45;&#45;Infrastruktura::Telegram#t.me/hakierspejs_spam</title>
<path fill="none" stroke="#ff0000" d="M101.577,-528.8571C180.8061,-528.8571 345.0381,-528.8571 345.0381,-528.8571 345.0381,-528.8571 345.0381,-443.917 345.0381,-414.7189"/>
</g>
<!-- Infrastruktura::Telegram#t.me/hakierspejs -->
<g id="node4" class="node">
<title>Infrastruktura::Telegram#t.me/hakierspejs</title>
<ellipse fill="none" stroke="#000000" cx="552.8137" cy="-319" rx="213.3623" ry="18"/>
<text text-anchor="middle" x="552.8137" y="-315.3" font-family="Times,serif" font-size="14.00" fill="#000000">Infrastruktura::Telegram#t.me/hakierspejs</text>
</g>
<!-- d33tah&#45;&#45;Infrastruktura::Telegram#t.me/hakierspejs -->
<g id="edge3" class="edge">
<title>d33tah&#45;&#45;Infrastruktura::Telegram#t.me/hakierspejs</title>
<path fill="none" stroke="#ff0000" d="M99.3499,-526.2857C152.4075,-526.2857 240.0381,-526.2857 240.0381,-526.2857 240.0381,-526.2857 240.0381,-331.8571 240.0381,-331.8571 240.0381,-331.8571 322.8808,-331.8571 403.2964,-331.8571"/>
</g>
<!-- Infrastruktura::Meetup#Meetup -->
<g id="node5" class="node">
<title>Infrastruktura::Meetup#Meetup</title>
<ellipse fill="none" stroke="#000000" cx="552.8137" cy="-276" rx="163.2712" ry="18"/>
<text text-anchor="middle" x="552.8137" y="-272.3" font-family="Times,serif" font-size="14.00" fill="#000000">Infrastruktura::Meetup#Meetup</text>
</g>
<!-- d33tah&#45;&#45;Infrastruktura::Meetup#Meetup -->
<g id="edge4" class="edge">
<title>d33tah&#45;&#45;Infrastruktura::Meetup#Meetup</title>
<path fill="none" stroke="#ff0000" d="M90.2909,-521.1429C135.7606,-521.1429 216.0381,-521.1429 216.0381,-521.1429 216.0381,-521.1429 216.0381,-268.2857 216.0381,-268.2857 216.0381,-268.2857 314.6116,-268.2857 405.099,-268.2857"/>
</g>
<!-- Miejsce::Miejsce#Klucze do spejsu -->
<g id="node6" class="node">
<title>Miejsce::Miejsce#Klucze do spejsu</title>
<ellipse fill="none" stroke="#000000" cx="552.8137" cy="-706" rx="174.6691" ry="18"/>
<text text-anchor="middle" x="552.8137" y="-702.3" font-family="Times,serif" font-size="14.00" fill="#000000">Miejsce::Miejsce#Klucze do spejsu</text>
</g>
<!-- d33tah&#45;&#45;Miejsce::Miejsce#Klucze do spejsu -->
<g id="edge5" class="edge">
<title>d33tah&#45;&#45;Miejsce::Miejsce#Klucze do spejsu</title>
<path fill="none" stroke="#ff0000" d="M90.5234,-546.8571C122.5248,-546.8571 168.0381,-546.8571 168.0381,-546.8571 168.0381,-546.8571 168.0381,-709.6 168.0381,-709.6 168.0381,-709.6 278.6374,-709.6 381.2441,-709.6"/>
</g>
<!-- Infrastruktura::IRC#IRC -->
<g id="node7" class="node">
<title>Infrastruktura::IRC#IRC</title>
<ellipse fill="none" stroke="#000000" cx="552.8137" cy="-233" rx="128.0773" ry="18"/>
<text text-anchor="middle" x="552.8137" y="-229.3" font-family="Times,serif" font-size="14.00" fill="#000000">Infrastruktura::IRC#IRC</text>
</g>
<!-- d33tah&#45;&#45;Infrastruktura::IRC#IRC -->
<g id="edge6" class="edge">
<title>d33tah&#45;&#45;Infrastruktura::IRC#IRC</title>
<path fill="none" stroke="#ff0000" d="M82.3327,-518.5714C122.9012,-518.5714 204.0381,-518.5714 204.0381,-518.5714 204.0381,-518.5714 204.0381,-243.8 204.0381,-243.8 204.0381,-243.8 347.1757,-243.8 450.0559,-243.8"/>
</g>
<!-- Infrastruktura::Domeny#Domeny -->
<g id="node8" class="node">
<title>Infrastruktura::Domeny#Domeny</title>
<ellipse fill="none" stroke="#000000" cx="552.8137" cy="-749" rx="167.8704" ry="18"/>
<text text-anchor="middle" x="552.8137" y="-745.3" font-family="Times,serif" font-size="14.00" fill="#000000">Infrastruktura::Domeny#Domeny</text>
</g>
<!-- d33tah&#45;&#45;Infrastruktura::Domeny#Domeny -->
<g id="edge7" class="edge">
<title>d33tah&#45;&#45;Infrastruktura::Domeny#Domeny</title>
<path fill="none" stroke="#ff0000" d="M82.603,-549.4286C111.0635,-549.4286 156.0381,-549.4286 156.0381,-549.4286 156.0381,-549.4286 156.0381,-738 156.0381,-738 156.0381,-738 304.5589,-738 419.8655,-738"/>
</g>
<!-- Infrastruktura::Pad#Pad -->
<g id="node9" class="node">
<title>Infrastruktura::Pad#Pad</title>
<ellipse fill="none" stroke="#000000" cx="552.8137" cy="-491" rx="126.1777" ry="18"/>
<text text-anchor="middle" x="552.8137" y="-487.3" font-family="Times,serif" font-size="14.00" fill="#000000">Infrastruktura::Pad#Pad</text>
</g>
<!-- d33tah&#45;&#45;Infrastruktura::Pad#Pad -->
<g id="edge8" class="edge">
<title>d33tah&#45;&#45;Infrastruktura::Pad#Pad</title>
<path fill="none" stroke="#ff0000" d="M96.0381,-523.8896C96.0381,-512.9346 96.0381,-497 96.0381,-497 96.0381,-497 298.3562,-497 433.6959,-497"/>
</g>
<!-- Infrastruktura::Lista mailingowa#Lista mailingowa -->
<g id="node10" class="node">
<title>Infrastruktura::Lista mailingowa#Lista mailingowa</title>
<ellipse fill="none" stroke="#000000" cx="552.8137" cy="-792" rx="250.7555" ry="18"/>
<text text-anchor="middle" x="552.8137" y="-788.3" font-family="Times,serif" font-size="14.00" fill="#000000">Infrastruktura::Lista mailingowa#Lista mailingowa</text>
</g>
<!-- d33tah&#45;&#45;Infrastruktura::Lista mailingowa#Lista mailingowa -->
<g id="edge9" class="edge">
<title>d33tah&#45;&#45;Infrastruktura::Lista mailingowa#Lista mailingowa</title>
<path fill="none" stroke="#ff0000" d="M103.0989,-536.5714C177.5833,-536.5714 322.0381,-536.5714 322.0381,-536.5714 322.0381,-536.5714 322.0381,-743.6482 322.0381,-784.9018"/>
</g>
<!-- Infrastruktura::Github#Github -->
<g id="node11" class="node">
<title>Infrastruktura::Github#Github</title>
<ellipse fill="none" stroke="#000000" cx="552.8137" cy="-534" rx="155.1726" ry="18"/>
<text text-anchor="middle" x="552.8137" y="-530.3" font-family="Times,serif" font-size="14.00" fill="#000000">Infrastruktura::Github#Github</text>
</g>
<!-- d33tah&#45;&#45;Infrastruktura::Github#Github -->
<g id="edge10" class="edge">
<title>d33tah&#45;&#45;Infrastruktura::Github#Github</title>
<path fill="none" stroke="#ff0000" d="M103.1147,-531.4286C168.672,-531.4286 296.3156,-531.4286 398.9146,-531.4286"/>
</g>
<!-- Infrastruktura::Grafana#Grafana -->
<g id="node12" class="node">
<title>Infrastruktura::Grafana#Grafana</title>
<ellipse fill="none" stroke="#000000" cx="552.8137" cy="-663" rx="165.9709" ry="18"/>
<text text-anchor="middle" x="552.8137" y="-659.3" font-family="Times,serif" font-size="14.00" fill="#000000">Infrastruktura::Grafana#Grafana</text>
</g>
<!-- d33tah&#45;&#45;Infrastruktura::Grafana#Grafana -->
<g id="edge11" class="edge">
<title>d33tah&#45;&#45;Infrastruktura::Grafana#Grafana</title>
<path fill="none" stroke="#ff0000" d="M95.5461,-544.2857C130.9906,-544.2857 180.0381,-544.2857 180.0381,-544.2857 180.0381,-544.2857 180.0381,-659.4 180.0381,-659.4 180.0381,-659.4 289.9379,-659.4 390.3933,-659.4"/>
</g>
<!-- Infrastruktura::VM#Hosting -->
<g id="node13" class="node">
<title>Infrastruktura::VM#Hosting</title>
<ellipse fill="none" stroke="#000000" cx="552.8137" cy="-448" rx="144.8743" ry="18"/>
<text text-anchor="middle" x="552.8137" y="-444.3" font-family="Times,serif" font-size="14.00" fill="#000000">Infrastruktura::VM#Hosting</text>
</g>
<!-- d33tah&#45;&#45;Infrastruktura::VM#Hosting -->
<g id="edge12" class="edge">
<title>d33tah&#45;&#45;Infrastruktura::VM#Hosting</title>
<path fill="none" stroke="#ff0000" d="M92.0381,-521.7427C92.0381,-516.9144 92.0381,-512.5 92.0381,-512.5 92.0381,-512.5 421.0381,-512.5 421.0381,-512.5 421.0381,-512.5 421.0381,-473.1323 421.0381,-455.909"/>
</g>
<!-- Infrastruktura::Mariuszbot#Mariuszbot -->
<g id="node14" class="node">
<title>Infrastruktura::Mariuszbot#Mariuszbot</title>
<ellipse fill="none" stroke="#000000" cx="552.8137" cy="-577" rx="196.8651" ry="18"/>
<text text-anchor="middle" x="552.8137" y="-573.3" font-family="Times,serif" font-size="14.00" fill="#000000">Infrastruktura::Mariuszbot#Mariuszbot</text>
</g>
<!-- d33tah&#45;&#45;Infrastruktura::Mariuszbot#Mariuszbot -->
<g id="edge13" class="edge">
<title>d33tah&#45;&#45;Infrastruktura::Mariuszbot#Mariuszbot</title>
<path fill="none" stroke="#ff0000" d="M103.573,-534C190.6011,-534 377.0381,-534 377.0381,-534 377.0381,-534 377.0381,-556.2139 377.0381,-568.7092"/>
</g>
<!-- cytP450 -->
<g id="node15" class="node">
<title>cytP450</title>
<ellipse fill="none" stroke="#000000" cx="59.7947" cy="-663" rx="49.2915" ry="18"/>
<text text-anchor="middle" x="59.7947" y="-659.3" font-family="Times,serif" font-size="14.00" fill="#000000">cytP450</text>
</g>
<!-- cytP450&#45;&#45;Infrastruktura::Forum#Forum -->
<g id="edge16" class="edge">
<title>cytP450&#45;&#45;Infrastruktura::Forum#Forum</title>
<path fill="none" stroke="#2bd500" d="M108.3769,-666.6C177.7856,-666.6 297.0381,-666.6 297.0381,-666.6 297.0381,-666.6 297.0381,-634 297.0381,-634 297.0381,-634 384.5592,-634 457.2086,-634"/>
</g>
<!-- cytP450&#45;&#45;Miejsce::Miejsce#Klucze do spejsu -->
<g id="edge14" class="edge">
<title>cytP450&#45;&#45;Miejsce::Miejsce#Klucze do spejsu</title>
<path fill="none" stroke="#2bd500" d="M99.4307,-673.8C185.746,-673.8 383.0381,-673.8 383.0381,-673.8 383.0381,-673.8 383.0381,-692.675 383.0381,-701.5227"/>
</g>
<!-- cytP450&#45;&#45;Infrastruktura::Domeny#Domeny -->
<g id="edge17" class="edge">
<title>cytP450&#45;&#45;Infrastruktura::Domeny#Domeny</title>
<path fill="none" stroke="#2bd500" d="M102.0381,-672.4064C102.0381,-693.9452 102.0381,-745 102.0381,-745 102.0381,-745 260.1709,-745 389.1172,-745"/>
</g>
<!-- cytP450&#45;&#45;Infrastruktura::VM#Hosting -->
<g id="edge15" class="edge">
<title>cytP450&#45;&#45;Infrastruktura::VM#Hosting</title>
<path fill="none" stroke="#2bd500" d="M99.4549,-652.2C165.7863,-652.2 292.0381,-652.2 292.0381,-652.2 292.0381,-652.2 292.0381,-460 292.0381,-460 292.0381,-460 372.8391,-460 444.4869,-460"/>
</g>
<!-- nuke -->
<g id="node16" class="node">
<title>nuke</title>
<ellipse fill="none" stroke="#000000" cx="59.7947" cy="-706" rx="33.5952" ry="18"/>
<text text-anchor="middle" x="59.7947" y="-702.3" font-family="Times,serif" font-size="14.00" fill="#000000">nuke</text>
</g>
<!-- nuke&#45;&#45;Miejsce::Miejsce#Klucze do spejsu -->
<g id="edge18" class="edge">
<title>nuke&#45;&#45;Miejsce::Miejsce#Klucze do spejsu</title>
<path fill="none" stroke="#0061f2" d="M87.0038,-716.8C147.9677,-716.8 299.0758,-716.8 412.7758,-716.8"/>
</g>
<!-- pmysl -->
<g id="node17" class="node">
<title>pmysl</title>
<ellipse fill="none" stroke="#000000" cx="59.7947" cy="-620" rx="38.1938" ry="18"/>
<text text-anchor="middle" x="59.7947" y="-616.3" font-family="Times,serif" font-size="14.00" fill="#000000">pmysl</text>
</g>
<!-- pmysl&#45;&#45;Infrastruktura::Forum#Forum -->
<g id="edge19" class="edge">
<title>pmysl&#45;&#45;Infrastruktura::Forum#Forum</title>
<path fill="none" stroke="#c60077" d="M98.0708,-622C162.4938,-622 295.9133,-622 401.6577,-622"/>
</g>
<!-- pmysl&#45;&#45;Miejsce::Miejsce#Klucze do spejsu -->
<g id="edge20" class="edge">
<title>pmysl&#45;&#45;Miejsce::Miejsce#Klucze do spejsu</title>
<path fill="none" stroke="#c60077" d="M91.9253,-630C156.9555,-630 298.0381,-630 298.0381,-630 298.0381,-630 298.0381,-702.4 298.0381,-702.4 298.0381,-702.4 335.3743,-702.4 381.4611,-702.4"/>
</g>
<!-- pmysl&#45;&#45;Infrastruktura::Github#Github -->
<g id="edge21" class="edge">
<title>pmysl&#45;&#45;Infrastruktura::Github#Github</title>
<path fill="none" stroke="#c60077" d="M92.1244,-610C115.8815,-610 144.0381,-610 144.0381,-610 144.0381,-610 144.0381,-539.1429 144.0381,-539.1429 144.0381,-539.1429 286.9648,-539.1429 403.7906,-539.1429"/>
</g>
<!-- pmysl&#45;&#45;Infrastruktura::Grafana#Grafana -->
<g id="edge22" class="edge">
<title>pmysl&#45;&#45;Infrastruktura::Grafana#Grafana</title>
<path fill="none" stroke="#c60077" d="M96.2009,-626C182.8294,-626 394.0381,-626 394.0381,-626 394.0381,-626 394.0381,-647.2484 394.0381,-657.5405"/>
</g>
<!-- pmysl&#45;&#45;Infrastruktura::VM#Hosting -->
<g id="edge23" class="edge">
<title>pmysl&#45;&#45;Infrastruktura::VM#Hosting</title>
<path fill="none" stroke="#c60077" d="M84.1424,-606C135.8724,-606 252.0381,-606 252.0381,-606 252.0381,-606 252.0381,-454 252.0381,-454 252.0381,-454 336.6131,-454 416.0675,-454"/>
</g>
<!-- kszmigiel -->
<g id="node18" class="node">
<title>kszmigiel</title>
<ellipse fill="none" stroke="#000000" cx="59.7947" cy="-405" rx="55.4913" ry="18"/>
<text text-anchor="middle" x="59.7947" y="-401.3" font-family="Times,serif" font-size="14.00" fill="#000000">kszmigiel</text>
</g>
<!-- kszmigiel&#45;&#45;Infrastruktura::Telegram#t.me/hakierspejs_spam -->
<g id="edge28" class="edge">
<title>kszmigiel&#45;&#45;Infrastruktura::Telegram#t.me/hakierspejs_spam</title>
<path fill="none" stroke="#b6e400" d="M115.3919,-405C163.5544,-405 236.7689,-405 309.5998,-405"/>
</g>
<!-- kszmigiel&#45;&#45;Infrastruktura::Telegram#t.me/hakierspejs -->
<g id="edge25" class="edge">
<title>kszmigiel&#45;&#45;Infrastruktura::Telegram#t.me/hakierspejs</title>
<path fill="none" stroke="#b6e400" d="M101.0381,-392.9928C101.0381,-388.068 101.0381,-383.5 101.0381,-383.5 101.0381,-383.5 361.0381,-383.5 361.0381,-383.5 361.0381,-383.5 361.0381,-344.1323 361.0381,-326.909"/>
</g>
<!-- kszmigiel&#45;&#45;Infrastruktura::Meetup#Meetup -->
<g id="edge26" class="edge">
<title>kszmigiel&#45;&#45;Infrastruktura::Meetup#Meetup</title>
<path fill="none" stroke="#b6e400" d="M107.8868,-396C176.9609,-396 296.0381,-396 296.0381,-396 296.0381,-396 296.0381,-288.8571 296.0381,-288.8571 296.0381,-288.8571 369.8452,-288.8571 438.3187,-288.8571"/>
</g>
<!-- kszmigiel&#45;&#45;Miejsce::Miejsce#Klucze do spejsu -->
<g id="edge27" class="edge">
<title>kszmigiel&#45;&#45;Miejsce::Miejsce#Klucze do spejsu</title>
<path fill="none" stroke="#b6e400" d="M107.9214,-414C177.7843,-414 299.0381,-414 299.0381,-414 299.0381,-414 299.0381,-695.2 299.0381,-695.2 299.0381,-695.2 354.1045,-695.2 412.9352,-695.2"/>
</g>
<!-- Infrastruktura::Naklejki#Naklejki -->
<g id="node19" class="node">
<title>Infrastruktura::Naklejki#Naklejki</title>
<ellipse fill="none" stroke="#000000" cx="552.8137" cy="-362" rx="170.8697" ry="18"/>
<text text-anchor="middle" x="552.8137" y="-358.3" font-family="Times,serif" font-size="14.00" fill="#000000">Infrastruktura::Naklejki#Naklejki</text>
</g>
<!-- kszmigiel&#45;&#45;Infrastruktura::Naklejki#Naklejki -->
<g id="edge24" class="edge">
<title>kszmigiel&#45;&#45;Infrastruktura::Naklejki#Naklejki</title>
<path fill="none" stroke="#b6e400" d="M106.0381,-394.9828C106.0381,-384.9536 106.0381,-371 106.0381,-371 106.0381,-371 274.6122,-371 404.6645,-371"/>
</g>
<!-- ksiezak -->
<g id="node20" class="node">
<title>ksiezak</title>
<ellipse fill="none" stroke="#000000" cx="59.7947" cy="-61" rx="46.2923" ry="18"/>
<text text-anchor="middle" x="59.7947" y="-57.3" font-family="Times,serif" font-size="14.00" fill="#000000">ksiezak</text>
</g>
<!-- Współdzielony&#45;kalendarz&#45;i&#45;lista&#45;kontaktów#Założenie konta -->
<g id="node21" class="node">
<title>Współdzielony&#45;kalendarz&#45;i&#45;lista&#45;kontaktów#Założenie konta</title>
<ellipse fill="none" stroke="#000000" cx="552.8137" cy="-18" rx="289.4488" ry="18"/>
<text text-anchor="middle" x="552.8137" y="-14.3" font-family="Times,serif" font-size="14.00" fill="#000000">Współdzielony&#45;kalendarz&#45;i&#45;lista&#45;kontaktów#Założenie konta</text>
</g>
<!-- ksiezak&#45;&#45;Współdzielony&#45;kalendarz&#45;i&#45;lista&#45;kontaktów#Założenie konta -->
<g id="edge29" class="edge">
<title>ksiezak&#45;&#45;Współdzielony&#45;kalendarz&#45;i&#45;lista&#45;kontaktów#Założenie konta</title>
<path fill="none" stroke="#00ffff" d="M94.2176,-49C155.4743,-49 277.0381,-49 277.0381,-49 277.0381,-49 277.0381,-32.6353 277.0381,-23.6859"/>
</g>
<!-- Infrastruktura::Matrix#hs&#45;ldz&#45;offtopic:hackerspace.pl -->
<g id="node22" class="node">
<title>Infrastruktura::Matrix#hs&#45;ldz&#45;offtopic:hackerspace.pl</title>
<ellipse fill="none" stroke="#000000" cx="552.8137" cy="-104" rx="262.6534" ry="18"/>
<text text-anchor="middle" x="552.8137" y="-100.3" font-family="Times,serif" font-size="14.00" fill="#000000">Infrastruktura::Matrix#hs&#45;ldz&#45;offtopic:hackerspace.pl</text>
</g>
<!-- ksiezak&#45;&#45;Infrastruktura::Matrix#hs&#45;ldz&#45;offtopic:hackerspace.pl -->
<g id="edge30" class="edge">
<title>ksiezak&#45;&#45;Infrastruktura::Matrix#hs&#45;ldz&#45;offtopic:hackerspace.pl</title>
<path fill="none" stroke="#00ffff" d="M105.9848,-61C178.2912,-61 310.0381,-61 310.0381,-61 310.0381,-61 310.0381,-84.6862 310.0381,-96.8994"/>
</g>
<!-- Infrastruktura::Matrix#hs&#45;ldz:hackerspace.pl -->
<g id="node23" class="node">
<title>Infrastruktura::Matrix#hs&#45;ldz:hackerspace.pl</title>
<ellipse fill="none" stroke="#000000" cx="552.8137" cy="-61" rx="223.6604" ry="18"/>
<text text-anchor="middle" x="552.8137" y="-57.3" font-family="Times,serif" font-size="14.00" fill="#000000">Infrastruktura::Matrix#hs&#45;ldz:hackerspace.pl</text>
</g>
<!-- ksiezak&#45;&#45;Infrastruktura::Matrix#hs&#45;ldz:hackerspace.pl -->
<g id="edge31" class="edge">
<title>ksiezak&#45;&#45;Infrastruktura::Matrix#hs&#45;ldz:hackerspace.pl</title>
<path fill="none" stroke="#00ffff" d="M103.5468,-55C157.4551,-55 252.8716,-55 341.9457,-55"/>
</g>
<!-- kpc -->
<g id="node24" class="node">
<title>kpc</title>
<ellipse fill="none" stroke="#000000" cx="59.7947" cy="-491" rx="27.8951" ry="18"/>
<text text-anchor="middle" x="59.7947" y="-487.3" font-family="Times,serif" font-size="14.00" fill="#000000">kpc</text>
</g>
<!-- kpc&#45;&#45;Infrastruktura::VM#Hosting -->
<g id="edge32" class="edge">
<title>kpc&#45;&#45;Infrastruktura::VM#Hosting</title>
<path fill="none" stroke="#ab00d5" d="M86.2055,-485C168.534,-485 415.0381,-485 415.0381,-485 415.0381,-485 415.0381,-464.1875 415.0381,-453.7813"/>
</g>
<!-- Keij0 -->
<g id="node25" class="node">
<title>Keij0</title>
<ellipse fill="none" stroke="#000000" cx="59.7947" cy="-362" rx="34.394" ry="18"/>
<text text-anchor="middle" x="59.7947" y="-358.3" font-family="Times,serif" font-size="14.00" fill="#000000">Keij0</text>
</g>
<!-- Keij0&#45;&#45;Infrastruktura::Meetup#Meetup -->
<g id="edge33" class="edge">
<title>Keij0&#45;&#45;Infrastruktura::Meetup#Meetup</title>
<path fill="none" stroke="#f29100" d="M90.0671,-353C153.6025,-353 295.0381,-353 295.0381,-353 295.0381,-353 295.0381,-283.7143 295.0381,-283.7143 295.0381,-283.7143 347.5099,-283.7143 405.1059,-283.7143"/>
</g>
<!-- Keij0&#45;&#45;Infrastruktura::VM#Hosting -->
<g id="edge34" class="edge">
<title>Keij0&#45;&#45;Infrastruktura::VM#Hosting</title>
<path fill="none" stroke="#f29100" d="M94.4716,-362C161.0023,-362 300.0381,-362 300.0381,-362 300.0381,-362 300.0381,-442 300.0381,-442 300.0381,-442 356.5091,-442 416.0685,-442"/>
</g>
<!-- thinkofher -->
<g id="node26" class="node">
<title>thinkofher</title>
<ellipse fill="none" stroke="#000000" cx="59.7947" cy="-276" rx="59.5901" ry="18"/>
<text text-anchor="middle" x="59.7947" y="-272.3" font-family="Times,serif" font-size="14.00" fill="#000000">thinkofher</text>
</g>
<!-- thinkofher&#45;&#45;Infrastruktura::Forum#Forum -->
<g id="edge37" class="edge">
<title>thinkofher&#45;&#45;Infrastruktura::Forum#Forum</title>
<path fill="none" stroke="#00c64f" d="M101.8156,-263.1429C151.6481,-263.1429 228.0381,-263.1429 228.0381,-263.1429 228.0381,-263.1429 228.0381,-618 228.0381,-618 228.0381,-618 316.6906,-618 401.3607,-618"/>
</g>
<!-- thinkofher&#45;&#45;Infrastruktura::VM#Hosting -->
<g id="edge35" class="edge">
<title>thinkofher&#45;&#45;Infrastruktura::VM#Hosting</title>
<path fill="none" stroke="#00c64f" d="M119.1184,-273.4286C190.5483,-273.4286 301.0381,-273.4286 301.0381,-273.4286 301.0381,-273.4286 301.0381,-436 301.0381,-436 301.0381,-436 376.3372,-436 444.577,-436"/>
</g>
<!-- thinkofher&#45;&#45;Infrastruktura::Matrix#hs&#45;ldz&#45;offtopic:hackerspace.pl -->
<g id="edge36" class="edge">
<title>thinkofher&#45;&#45;Infrastruktura::Matrix#hs&#45;ldz&#45;offtopic:hackerspace.pl</title>
<path fill="none" stroke="#00c64f" d="M115.0381,-269.0444C115.0381,-236.8659 115.0381,-104 115.0381,-104 115.0381,-104 196.9711,-104 289.9459,-104"/>
</g>
<!-- thinkofher&#45;&#45;Infrastruktura::Matrix#hs&#45;ldz:hackerspace.pl -->
<g id="edge38" class="edge">
<title>thinkofher&#45;&#45;Infrastruktura::Matrix#hs&#45;ldz:hackerspace.pl</title>
<path fill="none" stroke="#00c64f" d="M113.0381,-267.807C113.0381,-229.1659 113.0381,-67 113.0381,-67 113.0381,-67 229.0767,-67 341.9425,-67"/>
</g>
<!-- Martti25 -->
<g id="node27" class="node">
<title>Martti25</title>
<ellipse fill="none" stroke="#000000" cx="59.7947" cy="-319" rx="51.9908" ry="18"/>
<text text-anchor="middle" x="59.7947" y="-315.3" font-family="Times,serif" font-size="14.00" fill="#000000">Martti25</text>
</g>
<!-- Martti25&#45;&#45;Infrastruktura::Telegram#t.me/hakierspejs -->
<g id="edge39" class="edge">
<title>Martti25&#45;&#45;Infrastruktura::Telegram#t.me/hakierspejs</title>
<path fill="none" stroke="#2e00e4" d="M111.6245,-321.5714C166.571,-321.5714 256.9469,-321.5714 341.6404,-321.5714"/>
</g>
<!-- Martti25&#45;&#45;Infrastruktura::Meetup#Meetup -->
<g id="edge40" class="edge">
<title>Martti25&#45;&#45;Infrastruktura::Meetup#Meetup</title>
<path fill="none" stroke="#2e00e4" d="M111.4904,-316.4286C180.4726,-316.4286 294.0381,-316.4286 294.0381,-316.4286 294.0381,-316.4286 294.0381,-278.5714 294.0381,-278.5714 294.0381,-278.5714 338.8241,-278.5714 391.1328,-278.5714"/>
</g>
<!-- Martti25&#45;&#45;Infrastruktura::Github#Github -->
<g id="edge42" class="edge">
<title>Martti25&#45;&#45;Infrastruktura::Github#Github</title>
<path fill="none" stroke="#2e00e4" d="M106.7911,-326.7143C144.8017,-326.7143 192.0381,-326.7143 192.0381,-326.7143 192.0381,-326.7143 192.0381,-523.7143 192.0381,-523.7143 192.0381,-523.7143 321.3261,-523.7143 425.11,-523.7143"/>
</g>
<!-- Infrastruktura::Facebook#Konto na Fejsie -->
<g id="node28" class="node">
<title>Infrastruktura::Facebook#Konto na Fejsie</title>
<ellipse fill="none" stroke="#000000" cx="552.8137" cy="-190" rx="207.1633" ry="18"/>
<text text-anchor="middle" x="552.8137" y="-186.3" font-family="Times,serif" font-size="14.00" fill="#000000">Infrastruktura::Facebook#Konto na Fejsie</text>
</g>
<!-- Martti25&#45;&#45;Infrastruktura::Facebook#Konto na Fejsie -->
<g id="edge41" class="edge">
<title>Martti25&#45;&#45;Infrastruktura::Facebook#Konto na Fejsie</title>
<path fill="none" stroke="#2e00e4" d="M106.7926,-311.2857C174.6548,-311.2857 292.0381,-311.2857 292.0381,-311.2857 292.0381,-311.2857 292.0381,-196 292.0381,-196 292.0381,-196 319.7815,-196 357.1701,-196"/>
</g>
<!-- nikolaad -->
<g id="node29" class="node">
<title>nikolaad</title>
<ellipse fill="none" stroke="#000000" cx="59.7947" cy="-190" rx="50.0912" ry="18"/>
<text text-anchor="middle" x="59.7947" y="-186.3" font-family="Times,serif" font-size="14.00" fill="#000000">nikolaad</text>
</g>
<!-- nikolaad&#45;&#45;Infrastruktura::Meetup#Meetup -->
<g id="edge43" class="edge">
<title>nikolaad&#45;&#45;Infrastruktura::Meetup#Meetup</title>
<path fill="none" stroke="#ff0000" d="M103.0381,-199.1382C103.0381,-210.7773 103.0381,-229.4 103.0381,-229.4 103.0381,-229.4 414.0381,-229.4 414.0381,-229.4 414.0381,-229.4 414.0381,-252.4383 414.0381,-266.1173"/>
</g>
<!-- nikolaad&#45;&#45;Infrastruktura::Facebook#Konto na Fejsie -->
<g id="edge44" class="edge">
<title>nikolaad&#45;&#45;Infrastruktura::Facebook#Konto na Fejsie</title>
<path fill="none" stroke="#ff0000" d="M107.0674,-184C164.7298,-184 265.8338,-184 357.1892,-184"/>
</g>
<!-- BluRaf -->
<g id="node30" class="node">
<title>BluRaf</title>
<ellipse fill="none" stroke="#000000" cx="59.7947" cy="-147" rx="42.4939" ry="18"/>
<text text-anchor="middle" x="59.7947" y="-143.3" font-family="Times,serif" font-size="14.00" fill="#000000">BluRaf</text>
</g>
<!-- BluRaf&#45;&#45;Infrastruktura::Telegram#t.me/hakierspejs_spam -->
<g id="edge45" class="edge">
<title>BluRaf&#45;&#45;Infrastruktura::Telegram#t.me/hakierspejs_spam</title>
<path fill="none" stroke="#2bd500" d="M100.9479,-151.5C175.4499,-151.5 325.0381,-151.5 325.0381,-151.5 325.0381,-151.5 325.0381,-358.8003 325.0381,-398.4789"/>
</g>
<!-- BluRaf&#45;&#45;Infrastruktura::Telegram#t.me/hakierspejs -->
<g id="edge46" class="edge">
<title>BluRaf&#45;&#45;Infrastruktura::Telegram#t.me/hakierspejs</title>
<path fill="none" stroke="#2bd500" d="M96.3939,-156C164.9897,-156 306.0381,-156 306.0381,-156 306.0381,-156 306.0381,-306.1429 306.0381,-306.1429 306.0381,-306.1429 351.6006,-306.1429 403.5703,-306.1429"/>
</g>
<!-- BluRaf&#45;&#45;Infrastruktura::IRC#IRC -->
<g id="edge47" class="edge">
<title>BluRaf&#45;&#45;Infrastruktura::IRC#IRC</title>
<path fill="none" stroke="#2bd500" d="M87.8928,-160.5C102.7867,-160.5 118.0381,-160.5 118.0381,-160.5 118.0381,-160.5 118.0381,-222.2 118.0381,-222.2 118.0381,-222.2 321.7898,-222.2 450.3285,-222.2"/>
</g>
<!-- BluRaf&#45;&#45;Infrastruktura::Matrix#hs&#45;ldz&#45;offtopic:hackerspace.pl -->
<g id="edge50" class="edge">
<title>BluRaf&#45;&#45;Infrastruktura::Matrix#hs&#45;ldz&#45;offtopic:hackerspace.pl</title>
<path fill="none" stroke="#2bd500" d="M96.4956,-138C162.1801,-138 293.0381,-138 293.0381,-138 293.0381,-138 293.0381,-114.6831 293.0381,-106.6679"/>
</g>
<!-- BluRaf&#45;&#45;Infrastruktura::Matrix#hs&#45;ldz:hackerspace.pl -->
<g id="edge49" class="edge">
<title>BluRaf&#45;&#45;Infrastruktura::Matrix#hs&#45;ldz:hackerspace.pl</title>
<path fill="none" stroke="#2bd500" d="M87.9327,-133.5C108.2175,-133.5 132.0381,-133.5 132.0381,-133.5 132.0381,-133.5 132.0381,-73 132.0381,-73 132.0381,-73 268.4297,-73 385.9077,-73"/>
</g>
<!-- BluRaf&#45;&#45;Infrastruktura::Facebook#Konto na Fejsie -->
<g id="edge51" class="edge">
<title>BluRaf&#45;&#45;Infrastruktura::Facebook#Konto na Fejsie</title>
<path fill="none" stroke="#2bd500" d="M102.055,-147C186.0656,-147 366.0381,-147 366.0381,-147 366.0381,-147 366.0381,-169.6994 366.0381,-182.1131"/>
</g>
<!-- Infrastruktura::Mumble#Mumble -->
<g id="node31" class="node">
<title>Infrastruktura::Mumble#Mumble</title>
<ellipse fill="none" stroke="#000000" cx="552.8137" cy="-147" rx="167.8704" ry="18"/>
<text text-anchor="middle" x="552.8137" y="-143.3" font-family="Times,serif" font-size="14.00" fill="#000000">Infrastruktura::Mumble#Mumble</text>
</g>
<!-- BluRaf&#45;&#45;Infrastruktura::Mumble#Mumble -->
<g id="edge48" class="edge">
<title>BluRaf&#45;&#45;Infrastruktura::Mumble#Mumble</title>
<path fill="none" stroke="#2bd500" d="M100.9812,-142.5C164.1037,-142.5 288.197,-142.5 390.3877,-142.5"/>
</g>
<!-- biniu -->
<g id="node32" class="node">
<title>biniu</title>
<ellipse fill="none" stroke="#000000" cx="59.7947" cy="-233" rx="34.394" ry="18"/>
<text text-anchor="middle" x="59.7947" y="-229.3" font-family="Times,serif" font-size="14.00" fill="#000000">biniu</text>
</g>
<!-- biniu&#45;&#45;Infrastruktura::Meetup#Meetup -->
<g id="edge52" class="edge">
<title>biniu&#45;&#45;Infrastruktura::Meetup#Meetup</title>
<path fill="none" stroke="#0061f2" d="M93.5469,-236.6C179.8897,-236.6 402.0381,-236.6 402.0381,-236.6 402.0381,-236.6 402.0381,-257.399 402.0381,-268.7734"/>
</g>
<!-- kpc21 -->
<g id="node33" class="node">
<title>kpc21</title>
<ellipse fill="none" stroke="#000000" cx="59.7947" cy="-448" rx="39.7935" ry="18"/>
<text text-anchor="middle" x="59.7947" y="-444.3" font-family="Times,serif" font-size="14.00" fill="#000000">kpc21</text>
</g>
<!-- kpc21&#45;&#45;Infrastruktura::Telegram#t.me/hakierspejs_spam -->
<g id="edge53" class="edge">
<title>kpc21&#45;&#45;Infrastruktura::Telegram#t.me/hakierspejs_spam</title>
<path fill="none" stroke="#c60077" d="M99.5266,-448C175.31,-448 333.0381,-448 333.0381,-448 333.0381,-448 333.0381,-425.3006 333.0381,-412.8869"/>
</g>
<!-- q3k -->
<g id="node34" class="node">
<title>q3k</title>
<ellipse fill="none" stroke="#000000" cx="59.7947" cy="-770" rx="28.6953" ry="18"/>
<text text-anchor="middle" x="59.7947" y="-766.3" font-family="Times,serif" font-size="14.00" fill="#000000">q3k</text>
</g>
<!-- q3k&#45;&#45;Infrastruktura::Domeny#Domeny -->
<g id="edge54" class="edge">
<title>q3k&#45;&#45;Infrastruktura::Domeny#Domeny</title>
<path fill="none" stroke="#b6e400" d="M83.2424,-759.5C142.1347,-759.5 299.8813,-759.5 416.3674,-759.5"/>
</g>
<!-- q3k&#45;&#45;Infrastruktura::Lista mailingowa#Lista mailingowa -->
<g id="edge55" class="edge">
<title>q3k&#45;&#45;Infrastruktura::Lista mailingowa#Lista mailingowa</title>
<path fill="none" stroke="#b6e400" d="M82.5852,-781C131.0662,-781 248.6233,-781 354.0602,-781"/>
</g>
</g>
</svg>
