<?xml version="1.0" encoding="UTF-8" standalone="no"?>
<!DOCTYPE svg PUBLIC "-//W3C//DTD SVG 1.1//EN"
 "http://www.w3.org/Graphics/SVG/1.1/DTD/svg11.dtd">
<!-- Generated by graphviz version 2.43.0 (0)
 -->
<!-- Title: %3 Pages: 1 -->
<svg width="1001pt" height="1441pt"
 viewBox="0.00 0.00 1000.82 1441.00" xmlns="http://www.w3.org/2000/svg" xmlns:xlink="http://www.w3.org/1999/xlink">
<g id="graph0" class="graph" transform="scale(1 1) rotate(0) translate(4 1437)">
<title>%3</title>
<polygon fill="white" stroke="transparent" points="-4,4 -4,-1437 996.82,-1437 996.82,4 -4,4"/>
<!-- cytP450 -->
<g id="node1" class="node">
<title>cytP450</title>
<ellipse fill="none" stroke="black" cx="71.49" cy="-1093" rx="48.99" ry="18"/>
<text text-anchor="middle" x="71.49" y="-1089.3" font-family="Times,serif" font-size="14.00">cytP450</text>
</g>
<!-- Miejsce::Miejsce#Klucze do spejsu -->
<g id="node2" class="node">
<title>Miejsce::Miejsce#Klucze do spejsu</title>
<ellipse fill="none" stroke="black" cx="639.91" cy="-1222" rx="172.77" ry="18"/>
<text text-anchor="middle" x="639.91" y="-1218.3" font-family="Times,serif" font-size="14.00">Miejsce::Miejsce#Klucze do spejsu</text>
</g>
<!-- cytP450&#45;&#45;Miejsce::Miejsce#Klucze do spejsu -->
<g id="edge1" class="edge">
<title>cytP450&#45;&#45;Miejsce::Miejsce#Klucze do spejsu</title>
<path fill="none" stroke="#ff0000" d="M103.75,-1106.5C118.96,-1106.5 133.82,-1106.5 133.82,-1106.5 133.82,-1106.5 133.82,-1211 133.82,-1211 133.82,-1211 353.07,-1211 502.95,-1211"/>
</g>
<!-- Infrastruktura::Domeny#Domeny -->
<g id="node3" class="node">
<title>Infrastruktura::Domeny#Domeny</title>
<ellipse fill="none" stroke="black" cx="639.91" cy="-878" rx="167.07" ry="18"/>
<text text-anchor="middle" x="639.91" y="-874.3" font-family="Times,serif" font-size="14.00">Infrastruktura::Domeny#Domeny</text>
</g>
<!-- cytP450&#45;&#45;Infrastruktura::Domeny#Domeny -->
<g id="edge2" class="edge">
<title>cytP450&#45;&#45;Infrastruktura::Domeny#Domeny</title>
<path fill="none" stroke="#ff0000" d="M120.41,-1093C181.15,-1093 276.82,-1093 276.82,-1093 276.82,-1093 276.82,-887 276.82,-887 276.82,-887 393.91,-887 495.1,-887"/>
</g>
<!-- Zamek#Zamek -->
<g id="node4" class="node">
<title>Zamek#Zamek</title>
<ellipse fill="none" stroke="black" cx="639.91" cy="-1050" rx="81.49" ry="18"/>
<text text-anchor="middle" x="639.91" y="-1046.3" font-family="Times,serif" font-size="14.00">Zamek#Zamek</text>
</g>
<!-- cytP450&#45;&#45;Zamek#Zamek -->
<g id="edge3" class="edge">
<title>cytP450&#45;&#45;Zamek#Zamek</title>
<path fill="none" stroke="#ff0000" d="M113.81,-1084C129.17,-1084 142.82,-1084 142.82,-1084 142.82,-1084 142.82,-1050 142.82,-1050 142.82,-1050 417.72,-1050 558.66,-1050"/>
</g>
<!-- Kanay&#45;komunikacji# -->
<g id="node5" class="node">
<title>Kanay&#45;komunikacji#</title>
<ellipse fill="none" stroke="black" cx="639.91" cy="-491" rx="108.58" ry="18"/>
<text text-anchor="middle" x="639.91" y="-487.3" font-family="Times,serif" font-size="14.00">Kanay&#45;komunikacji#</text>
</g>
<!-- cytP450&#45;&#45;Kanay&#45;komunikacji# -->
<g id="edge4" class="edge">
<title>cytP450&#45;&#45;Kanay&#45;komunikacji#</title>
<path fill="none" stroke="#ff0000" d="M118.78,-1088.5C176.59,-1088.5 266.82,-1088.5 266.82,-1088.5 266.82,-1088.5 266.82,-495.5 266.82,-495.5 266.82,-495.5 424.17,-495.5 534.49,-495.5"/>
</g>
<!-- Chciejlista#Elektronika (w sensie urzdze konsumenckich) -->
<g id="node6" class="node">
<title>Chciejlista#Elektronika (w sensie urzdze konsumenckich)</title>
<ellipse fill="none" stroke="black" cx="639.91" cy="-1179" rx="289.75" ry="18"/>
<text text-anchor="middle" x="639.91" y="-1175.3" font-family="Times,serif" font-size="14.00">Chciejlista#Elektronika (w sensie urzdze konsumenckich)</text>
</g>
<!-- cytP450&#45;&#45;Chciejlista#Elektronika (w sensie urzdze konsumenckich) -->
<g id="edge5" class="edge">
<title>cytP450&#45;&#45;Chciejlista#Elektronika (w sensie urzdze konsumenckich)</title>
<path fill="none" stroke="#ff0000" d="M113.88,-1102C126.88,-1102 137.82,-1102 137.82,-1102 137.82,-1102 137.82,-1168 137.82,-1168 137.82,-1168 277.97,-1168 410.17,-1168"/>
</g>
<!-- Stowarzyszenie#Komisja Rewizyjna -->
<g id="node7" class="node">
<title>Stowarzyszenie#Komisja Rewizyjna</title>
<ellipse fill="none" stroke="black" cx="639.91" cy="-1007" rx="178.17" ry="18"/>
<text text-anchor="middle" x="639.91" y="-1003.3" font-family="Times,serif" font-size="14.00">Stowarzyszenie#Komisja Rewizyjna</text>
</g>
<!-- cytP450&#45;&#45;Stowarzyszenie#Komisja Rewizyjna -->
<g id="edge6" class="edge">
<title>cytP450&#45;&#45;Stowarzyszenie#Komisja Rewizyjna</title>
<path fill="none" stroke="#ff0000" d="M103.78,-1079.5C120.24,-1079.5 136.82,-1079.5 136.82,-1079.5 136.82,-1079.5 136.82,-1019 136.82,-1019 136.82,-1019 358.02,-1019 507.07,-1019"/>
</g>
<!-- Chciejlista#DIY -->
<g id="node8" class="node">
<title>Chciejlista#DIY</title>
<ellipse fill="none" stroke="black" cx="639.91" cy="-1136" rx="83.69" ry="18"/>
<text text-anchor="middle" x="639.91" y="-1132.3" font-family="Times,serif" font-size="14.00">Chciejlista#DIY</text>
</g>
<!-- cytP450&#45;&#45;Chciejlista#DIY -->
<g id="edge7" class="edge">
<title>cytP450&#45;&#45;Chciejlista#DIY</title>
<path fill="none" stroke="#ff0000" d="M71.82,-1111.17C71.82,-1119.9 71.82,-1128.5 71.82,-1128.5 71.82,-1128.5 408.66,-1128.5 563.59,-1128.5"/>
</g>
<!-- Przegld&#45;lokali&#45;na&#45;wynajem&#45;w&#45;odzi.&#45;Fundusz&#45;1000&#45;&#45;&#45;1500.#Bot Aleksego -->
<g id="node9" class="node">
<title>Przegld&#45;lokali&#45;na&#45;wynajem&#45;w&#45;odzi.&#45;Fundusz&#45;1000&#45;&#45;&#45;1500.#Bot Aleksego</title>
<ellipse fill="none" stroke="black" cx="639.91" cy="-1093" rx="351.74" ry="18"/>
<text text-anchor="middle" x="639.91" y="-1089.3" font-family="Times,serif" font-size="14.00">Przegld&#45;lokali&#45;na&#45;wynajem&#45;w&#45;odzi.&#45;Fundusz&#45;1000&#45;&#45;&#45;1500.#Bot Aleksego</text>
</g>
<!-- cytP450&#45;&#45;Przegld&#45;lokali&#45;na&#45;wynajem&#45;w&#45;odzi.&#45;Fundusz&#45;1000&#45;&#45;&#45;1500.#Bot Aleksego -->
<g id="edge8" class="edge">
<title>cytP450&#45;&#45;Przegld&#45;lokali&#45;na&#45;wynajem&#45;w&#45;odzi.&#45;Fundusz&#45;1000&#45;&#45;&#45;1500.#Bot Aleksego</title>
<path fill="none" stroke="#ff0000" d="M118.98,-1097.5C161.47,-1097.5 227.92,-1097.5 299.32,-1097.5"/>
</g>
<!-- d33tah -->
<g id="node10" class="node">
<title>d33tah</title>
<ellipse fill="none" stroke="black" cx="71.49" cy="-534" rx="43.59" ry="18"/>
<text text-anchor="middle" x="71.49" y="-530.3" font-family="Times,serif" font-size="14.00">d33tah</text>
</g>
<!-- d33tah&#45;&#45;Miejsce::Miejsce#Klucze do spejsu -->
<g id="edge10" class="edge">
<title>d33tah&#45;&#45;Miejsce::Miejsce#Klucze do spejsu</title>
<path fill="none" stroke="#2bd500" d="M27.64,-534C16.11,-534 6.82,-534 6.82,-534 6.82,-534 6.82,-1221.5 6.82,-1221.5 6.82,-1221.5 279.47,-1221.5 466.91,-1221.5"/>
</g>
<!-- d33tah&#45;&#45;Infrastruktura::Domeny#Domeny -->
<g id="edge17" class="edge">
<title>d33tah&#45;&#45;Infrastruktura::Domeny#Domeny</title>
<path fill="none" stroke="#2bd500" d="M93.29,-549.6C150.19,-549.6 298.82,-549.6 298.82,-549.6 298.82,-549.6 298.82,-869 298.82,-869 298.82,-869 401.93,-869 494.76,-869"/>
</g>
<!-- d33tah&#45;&#45;Kanay&#45;komunikacji# -->
<g id="edge19" class="edge">
<title>d33tah&#45;&#45;Kanay&#45;komunikacji#</title>
<path fill="none" stroke="#2bd500" d="M115.01,-535.2C190.28,-535.2 336.82,-535.2 336.82,-535.2 336.82,-535.2 336.82,-500 336.82,-500 336.82,-500 456.7,-500 545.67,-500"/>
</g>
<!-- Stowarzyszenie#Zarzd -->
<g id="node11" class="node">
<title>Stowarzyszenie#Zarzd</title>
<ellipse fill="none" stroke="black" cx="639.91" cy="-362" rx="123.48" ry="18"/>
<text text-anchor="middle" x="639.91" y="-358.3" font-family="Times,serif" font-size="14.00">Stowarzyszenie#Zarzd</text>
</g>
<!-- d33tah&#45;&#45;Stowarzyszenie#Zarzd -->
<g id="edge9" class="edge">
<title>d33tah&#45;&#45;Stowarzyszenie#Zarzd</title>
<path fill="none" stroke="#2bd500" d="M114.48,-530.4C160.15,-530.4 225.82,-530.4 225.82,-530.4 225.82,-530.4 225.82,-369.71 225.82,-369.71 225.82,-369.71 405.48,-369.71 528.12,-369.71"/>
</g>
<!-- Infrastruktura::Telegram#G贸wny: t.me/hakierspejs -->
<g id="node12" class="node">
<title>Infrastruktura::Telegram#G贸wny: t.me/hakierspejs</title>
<ellipse fill="none" stroke="black" cx="639.91" cy="-276" rx="251.56" ry="18"/>
<text text-anchor="middle" x="639.91" y="-272.3" font-family="Times,serif" font-size="14.00">Infrastruktura::Telegram#G贸wny: t.me/hakierspejs</text>
</g>
<!-- d33tah&#45;&#45;Infrastruktura::Telegram#G贸wny: t.me/hakierspejs -->
<g id="edge11" class="edge">
<title>d33tah&#45;&#45;Infrastruktura::Telegram#G贸wny: t.me/hakierspejs</title>
<path fill="none" stroke="#2bd500" d="M110.06,-525.6C149.44,-525.6 204.82,-525.6 204.82,-525.6 204.82,-525.6 204.82,-286.67 204.82,-286.67 204.82,-286.67 323.59,-286.67 437.01,-286.67"/>
</g>
<!-- Bazy&#45;danych#Trello -->
<g id="node13" class="node">
<title>Bazy&#45;danych#Trello</title>
<ellipse fill="none" stroke="black" cx="639.91" cy="-577" rx="103.98" ry="18"/>
<text text-anchor="middle" x="639.91" y="-573.3" font-family="Times,serif" font-size="14.00">Bazy&#45;danych#Trello</text>
</g>
<!-- d33tah&#45;&#45;Bazy&#45;danych#Trello -->
<g id="edge12" class="edge">
<title>d33tah&#45;&#45;Bazy&#45;danych#Trello</title>
<path fill="none" stroke="#2bd500" d="M71.82,-552.49C71.82,-564.14 71.82,-577 71.82,-577 71.82,-577 371.71,-577 535.71,-577"/>
</g>
<!-- Infrastruktura::Github#Github -->
<g id="node14" class="node">
<title>Infrastruktura::Github#Github</title>
<ellipse fill="none" stroke="black" cx="639.91" cy="-233" rx="154.07" ry="18"/>
<text text-anchor="middle" x="639.91" y="-229.3" font-family="Times,serif" font-size="14.00">Infrastruktura::Github#Github</text>
</g>
<!-- d33tah&#45;&#45;Infrastruktura::Github#Github -->
<g id="edge13" class="edge">
<title>d33tah&#45;&#45;Infrastruktura::Github#Github</title>
<path fill="none" stroke="#2bd500" d="M106.51,-523.2C142.97,-523.2 194.82,-523.2 194.82,-523.2 194.82,-523.2 194.82,-248.86 194.82,-248.86 194.82,-248.86 440.64,-248.86 566.91,-248.86"/>
</g>
<!-- Infrastruktura::Mariuszbot#Mariuszbot -->
<g id="node15" class="node">
<title>Infrastruktura::Mariuszbot#Mariuszbot</title>
<ellipse fill="none" stroke="black" cx="639.91" cy="-534" rx="196.07" ry="18"/>
<text text-anchor="middle" x="639.91" y="-530.3" font-family="Times,serif" font-size="14.00">Infrastruktura::Mariuszbot#Mariuszbot</text>
</g>
<!-- d33tah&#45;&#45;Infrastruktura::Mariuszbot#Mariuszbot -->
<g id="edge14" class="edge">
<title>d33tah&#45;&#45;Infrastruktura::Mariuszbot#Mariuszbot</title>
<path fill="none" stroke="#2bd500" d="M114.22,-537.6C184.31,-537.6 327.89,-537.6 447.3,-537.6"/>
</g>
<!-- Infrastruktura::Telegram#Spacerspejs: t.me/joinchat/UYf2ONtNj21J1DS6 -->
<g id="node16" class="node">
<title>Infrastruktura::Telegram#Spacerspejs: t.me/joinchat/UYf2ONtNj21J1DS6</title>
<ellipse fill="none" stroke="black" cx="639.91" cy="-448" rx="352.84" ry="18"/>
<text text-anchor="middle" x="639.91" y="-444.3" font-family="Times,serif" font-size="14.00">Infrastruktura::Telegram#Spacerspejs: t.me/joinchat/UYf2ONtNj21J1DS6</text>
</g>
<!-- d33tah&#45;&#45;Infrastruktura::Telegram#Spacerspejs: t.me/joinchat/UYf2ONtNj21J1DS6 -->
<g id="edge15" class="edge">
<title>d33tah&#45;&#45;Infrastruktura::Telegram#Spacerspejs: t.me/joinchat/UYf2ONtNj21J1DS6</title>
<path fill="none" stroke="#2bd500" d="M114.98,-532.8C188.11,-532.8 327.82,-532.8 327.82,-532.8 327.82,-532.8 327.82,-477.89 327.82,-456.44"/>
</g>
<!-- Marketing&#45;i&#45;media&#45;spoecznociowe# -->
<g id="node17" class="node">
<title>Marketing&#45;i&#45;media&#45;spoecznociowe#</title>
<ellipse fill="none" stroke="black" cx="639.91" cy="-405" rx="183.07" ry="18"/>
<text text-anchor="middle" x="639.91" y="-401.3" font-family="Times,serif" font-size="14.00">Marketing&#45;i&#45;media&#45;spoecznociowe#</text>
</g>
<!-- d33tah&#45;&#45;Marketing&#45;i&#45;media&#45;spoecznociowe# -->
<g id="edge16" class="edge">
<title>d33tah&#45;&#45;Marketing&#45;i&#45;media&#45;spoecznociowe#</title>
<path fill="none" stroke="#2bd500" d="M93.36,-518.4C114.01,-518.4 141.82,-518.4 141.82,-518.4 141.82,-518.4 141.82,-409.5 141.82,-409.5 141.82,-409.5 319.15,-409.5 462.2,-409.5"/>
</g>
<!-- Drzwi&#45;frontowe#Ekran  -->
<g id="node18" class="node">
<title>Drzwi&#45;frontowe#Ekran </title>
<ellipse fill="none" stroke="black" cx="639.91" cy="-792" rx="120.78" ry="18"/>
<text text-anchor="middle" x="639.91" y="-788.3" font-family="Times,serif" font-size="14.00">Drzwi&#45;frontowe#Ekran </text>
</g>
<!-- d33tah&#45;&#45;Drzwi&#45;frontowe#Ekran  -->
<g id="edge18" class="edge">
<title>d33tah&#45;&#45;Drzwi&#45;frontowe#Ekran </title>
<path fill="none" stroke="black" d="M101.43,-547.2C165.02,-547.2 307.82,-547.2 307.82,-547.2 307.82,-547.2 307.82,-792 307.82,-792 307.82,-792 423.74,-792 518.61,-792"/>
</g>
<!-- Bazy&#45;danych#Pad -->
<g id="node22" class="node">
<title>Bazy&#45;danych#Pad</title>
<ellipse fill="none" stroke="black" cx="639.91" cy="-706" rx="94.48" ry="18"/>
<text text-anchor="middle" x="639.91" y="-702.3" font-family="Times,serif" font-size="14.00">Bazy&#45;danych#Pad</text>
</g>
<!-- d33tah&#45;&#45;Bazy&#45;danych#Pad -->
<g id="edge20" class="edge">
<title>d33tah&#45;&#45;Bazy&#45;danych#Pad</title>
<path fill="none" stroke="#2bd500" d="M106.53,-544.8C174.53,-544.8 317.82,-544.8 317.82,-544.8 317.82,-544.8 317.82,-706 317.82,-706 317.82,-706 450.41,-706 545.45,-706"/>
</g>
<!-- Infrastruktura::Telegram#posty: t.me/hakierspejs_spam -->
<g id="node23" class="node">
<title>Infrastruktura::Telegram#posty: t.me/hakierspejs_spam</title>
<ellipse fill="none" stroke="black" cx="639.91" cy="-749" rx="284.05" ry="18"/>
<text text-anchor="middle" x="639.91" y="-745.3" font-family="Times,serif" font-size="14.00">Infrastruktura::Telegram#posty: t.me/hakierspejs_spam</text>
</g>
<!-- d33tah&#45;&#45;Infrastruktura::Telegram#posty: t.me/hakierspejs_spam -->
<g id="edge21" class="edge">
<title>d33tah&#45;&#45;Infrastruktura::Telegram#posty: t.me/hakierspejs_spam</title>
<path fill="none" stroke="#2bd500" d="M110.29,-542.4C193.75,-542.4 382.82,-542.4 382.82,-542.4 382.82,-542.4 382.82,-703.42 382.82,-741.15"/>
</g>
<!-- Bazy&#45;danych#Grafana -->
<g id="node24" class="node">
<title>Bazy&#45;danych#Grafana</title>
<ellipse fill="none" stroke="black" cx="639.91" cy="-319" rx="114.28" ry="18"/>
<text text-anchor="middle" x="639.91" y="-315.3" font-family="Times,serif" font-size="14.00">Bazy&#45;danych#Grafana</text>
</g>
<!-- d33tah&#45;&#45;Bazy&#45;danych#Grafana -->
<g id="edge22" class="edge">
<title>d33tah&#45;&#45;Bazy&#45;danych#Grafana</title>
<path fill="none" stroke="#2bd500" d="M112.85,-528C155.5,-528 215.82,-528 215.82,-528 215.82,-528 215.82,-328 215.82,-328 215.82,-328 415.42,-328 540.75,-328"/>
</g>
<!-- Infrastruktura::IRC#IRC -->
<g id="node25" class="node">
<title>Infrastruktura::IRC#IRC</title>
<ellipse fill="none" stroke="black" cx="639.91" cy="-147" rx="124.58" ry="18"/>
<text text-anchor="middle" x="639.91" y="-143.3" font-family="Times,serif" font-size="14.00">Infrastruktura::IRC#IRC</text>
</g>
<!-- d33tah&#45;&#45;Infrastruktura::IRC#IRC -->
<g id="edge23" class="edge">
<title>d33tah&#45;&#45;Infrastruktura::IRC#IRC</title>
<path fill="none" stroke="#2bd500" d="M101.22,-520.8C124.8,-520.8 153.82,-520.8 153.82,-520.8 153.82,-520.8 153.82,-162 153.82,-162 153.82,-162 436.58,-162 570.78,-162"/>
</g>
<!-- Infrastruktura::Telegram#HS24: t.me/hsl_info -->
<g id="node26" class="node">
<title>Infrastruktura::Telegram#HS24: t.me/hsl_info</title>
<ellipse fill="none" stroke="black" cx="639.91" cy="-620" rx="231.26" ry="18"/>
<text text-anchor="middle" x="639.91" y="-616.3" font-family="Times,serif" font-size="14.00">Infrastruktura::Telegram#HS24: t.me/hsl_info</text>
</g>
<!-- d33tah&#45;&#45;Infrastruktura::Telegram#HS24: t.me/hsl_info -->
<g id="edge24" class="edge">
<title>d33tah&#45;&#45;Infrastruktura::Telegram#HS24: t.me/hsl_info</title>
<path fill="none" stroke="#2bd500" d="M112.6,-540C206.14,-540 426.82,-540 426.82,-540 426.82,-540 426.82,-593.32 426.82,-612.9"/>
</g>
<!-- nastpne -->
<g id="node19" class="node">
<title>nastpne</title>
<ellipse fill="none" stroke="black" cx="71.49" cy="-1329" rx="53.09" ry="18"/>
<text text-anchor="middle" x="71.49" y="-1325.3" font-family="Times,serif" font-size="14.00">nastpne</text>
</g>
<!-- spotkanie -->
<g id="node20" class="node">
<title>spotkanie</title>
<ellipse fill="none" stroke="black" cx="71.49" cy="-1372" rx="55.79" ry="18"/>
<text text-anchor="middle" x="71.49" y="-1368.3" font-family="Times,serif" font-size="14.00">spotkanie</text>
</g>
<g id="node21" class="node">
<title></title>
<ellipse fill="none" stroke="#2bd500" cx="71.49" cy="-1415" rx="27" ry="18"/>
</g>
<!-- kujaw -->
<g id="node27" class="node">
<title>kujaw</title>
<ellipse fill="none" stroke="black" cx="71.49" cy="-663" rx="38.19" ry="18"/>
<text text-anchor="middle" x="71.49" y="-659.3" font-family="Times,serif" font-size="14.00">kujaw</text>
</g>
<!-- kujaw&#45;&#45;Miejsce::Miejsce#Klucze do spejsu -->
<g id="edge26" class="edge">
<title>kujaw&#45;&#45;Miejsce::Miejsce#Klucze do spejsu</title>
<path fill="none" stroke="#0061f2" d="M100.27,-675C117.4,-675 135.82,-675 135.82,-675 135.82,-675 135.82,-1206.33 135.82,-1206.33 135.82,-1206.33 410.94,-1206.33 554.68,-1206.33"/>
</g>
<!-- kujaw&#45;&#45;Stowarzyszenie#Zarzd -->
<g id="edge25" class="edge">
<title>kujaw&#45;&#45;Stowarzyszenie#Zarzd</title>
<path fill="none" stroke="#0061f2" d="M100.12,-651C147.2,-651 235.82,-651 235.82,-651 235.82,-651 235.82,-374.86 235.82,-374.86 235.82,-374.86 434.49,-374.86 553.22,-374.86"/>
</g>
<!-- kujaw&#45;&#45;Marketing&#45;i&#45;media&#45;spoecznociowe# -->
<g id="edge27" class="edge">
<title>kujaw&#45;&#45;Marketing&#45;i&#45;media&#45;spoecznociowe#</title>
<path fill="none" stroke="#0061f2" d="M107.82,-657C159.18,-657 246.82,-657 246.82,-657 246.82,-657 246.82,-414 246.82,-414 246.82,-414 372.06,-414 481.16,-414"/>
</g>
<!-- Marketing&#45;i&#45;media&#45;spoecznociowe#Naklejki -->
<g id="node28" class="node">
<title>Marketing&#45;i&#45;media&#45;spoecznociowe#Naklejki</title>
<ellipse fill="none" stroke="black" cx="639.91" cy="-663" rx="221.76" ry="18"/>
<text text-anchor="middle" x="639.91" y="-659.3" font-family="Times,serif" font-size="14.00">Marketing&#45;i&#45;media&#45;spoecznociowe#Naklejki</text>
</g>
<!-- kujaw&#45;&#45;Marketing&#45;i&#45;media&#45;spoecznociowe#Naklejki -->
<g id="edge28" class="edge">
<title>kujaw&#45;&#45;Marketing&#45;i&#45;media&#45;spoecznociowe#Naklejki</title>
<path fill="none" stroke="#0061f2" d="M107.92,-669C172.42,-669 311.23,-669 430.88,-669"/>
</g>
<!-- Marketing&#45;i&#45;media&#45;spoecznociowe#Logo nr. 2 -->
<g id="node29" class="node">
<title>Marketing&#45;i&#45;media&#45;spoecznociowe#Logo nr. 2</title>
<ellipse fill="none" stroke="black" cx="639.91" cy="-835" rx="229.36" ry="18"/>
<text text-anchor="middle" x="639.91" y="-831.3" font-family="Times,serif" font-size="14.00">Marketing&#45;i&#45;media&#45;spoecznociowe#Logo nr. 2</text>
</g>
<!-- kujaw&#45;&#45;Marketing&#45;i&#45;media&#45;spoecznociowe#Logo nr. 2 -->
<g id="edge29" class="edge">
<title>kujaw&#45;&#45;Marketing&#45;i&#45;media&#45;spoecznociowe#Logo nr. 2</title>
<path fill="none" stroke="#0061f2" d="M104.82,-672.25C104.82,-707.97 104.82,-835 104.82,-835 104.82,-835 265.14,-835 410.27,-835"/>
</g>
<!-- SP7Q -->
<g id="node30" class="node">
<title>SP7Q</title>
<ellipse fill="none" stroke="black" cx="71.49" cy="-362" rx="36.29" ry="18"/>
<text text-anchor="middle" x="71.49" y="-358.3" font-family="Times,serif" font-size="14.00">SP7Q</text>
</g>
<!-- SP7Q&#45;&#45;Stowarzyszenie#Zarzd -->
<g id="edge30" class="edge">
<title>SP7Q&#45;&#45;Stowarzyszenie#Zarzd</title>
<path fill="none" stroke="#c60077" d="M107.92,-359.43C188.96,-359.43 387.3,-359.43 517.57,-359.43"/>
</g>
<!-- SP7Q&#45;&#45;Infrastruktura::Github#Github -->
<g id="edge31" class="edge">
<title>SP7Q&#45;&#45;Infrastruktura::Github#Github</title>
<path fill="none" stroke="#c60077" d="M104.46,-354.29C121.93,-354.29 139.82,-354.29 139.82,-354.29 139.82,-354.29 139.82,-244.57 139.82,-244.57 139.82,-244.57 373.85,-244.57 521.71,-244.57"/>
</g>
<!-- SP7Q&#45;&#45;Marketing&#45;i&#45;media&#45;spoecznociowe# -->
<g id="edge32" class="edge">
<title>SP7Q&#45;&#45;Marketing&#45;i&#45;media&#45;spoecznociowe#</title>
<path fill="none" stroke="#c60077" d="M107.63,-364.57C208.67,-364.57 486.82,-364.57 486.82,-364.57 486.82,-364.57 486.82,-382.82 486.82,-394.8"/>
</g>
<!-- Polimerek -->
<g id="node31" class="node">
<title>Polimerek</title>
<ellipse fill="none" stroke="black" cx="71.49" cy="-319" rx="57.39" ry="18"/>
<text text-anchor="middle" x="71.49" y="-315.3" font-family="Times,serif" font-size="14.00">Polimerek</text>
</g>
<!-- Polimerek&#45;&#45;Stowarzyszenie#Zarzd -->
<g id="edge33" class="edge">
<title>Polimerek&#45;&#45;Stowarzyszenie#Zarzd</title>
<path fill="none" stroke="#b6e400" d="M128.99,-319C250.39,-319 521.82,-319 521.82,-319 521.82,-319 521.82,-345.25 521.82,-356.73"/>
</g>
<!-- kasesag -->
<g id="node32" class="node">
<title>kasesag</title>
<ellipse fill="none" stroke="black" cx="71.49" cy="-168" rx="48.19" ry="18"/>
<text text-anchor="middle" x="71.49" y="-164.3" font-family="Times,serif" font-size="14.00">kasesag</text>
</g>
<!-- kasesag&#45;&#45;Stowarzyszenie#Zarzd -->
<g id="edge34" class="edge">
<title>kasesag&#45;&#45;Stowarzyszenie#Zarzd</title>
<path fill="none" stroke="#00ffff" d="M109.64,-179C122.11,-179 132.82,-179 132.82,-179 132.82,-179 132.82,-349.14 132.82,-349.14 132.82,-349.14 408.48,-349.14 553.31,-349.14"/>
</g>
<!-- Marketing&#45;i&#45;media&#45;spoecznociowe#Przycisk HS&#45;LDZ -->
<g id="node33" class="node">
<title>Marketing&#45;i&#45;media&#45;spoecznociowe#Przycisk HS&#45;LDZ</title>
<ellipse fill="none" stroke="black" cx="639.91" cy="-18" rx="261.85" ry="18"/>
<text text-anchor="middle" x="639.91" y="-14.3" font-family="Times,serif" font-size="14.00">Marketing&#45;i&#45;media&#45;spoecznociowe#Przycisk HS&#45;LDZ</text>
</g>
<!-- kasesag&#45;&#45;Marketing&#45;i&#45;media&#45;spoecznociowe#Przycisk HS&#45;LDZ -->
<g id="edge35" class="edge">
<title>kasesag&#45;&#45;Marketing&#45;i&#45;media&#45;spoecznociowe#Przycisk HS&#45;LDZ</title>
<path fill="none" stroke="#00ffff" d="M98.36,-153C110.78,-153 122.82,-153 122.82,-153 122.82,-153 122.82,-18 122.82,-18 122.82,-18 249.83,-18 377.96,-18"/>
</g>
<!-- pzduniak -->
<g id="node34" class="node">
<title>pzduniak</title>
<ellipse fill="none" stroke="black" cx="71.49" cy="-1050" rx="52.79" ry="18"/>
<text text-anchor="middle" x="71.49" y="-1046.3" font-family="Times,serif" font-size="14.00">pzduniak</text>
</g>
<!-- pzduniak&#45;&#45;Stowarzyszenie#Komisja Rewizyjna -->
<g id="edge36" class="edge">
<title>pzduniak&#45;&#45;Stowarzyszenie#Komisja Rewizyjna</title>
<path fill="none" stroke="#ab00d5" d="M122.82,-1045.76C122.82,-1036.04 122.82,-1013 122.82,-1013 122.82,-1013 320.73,-1013 471.67,-1013"/>
</g>
<!-- krcz -->
<g id="node35" class="node">
<title>krcz</title>
<ellipse fill="none" stroke="black" cx="71.49" cy="-1007" rx="30.59" ry="18"/>
<text text-anchor="middle" x="71.49" y="-1003.3" font-family="Times,serif" font-size="14.00">krcz</text>
</g>
<!-- krcz&#45;&#45;Stowarzyszenie#Komisja Rewizyjna -->
<g id="edge37" class="edge">
<title>krcz&#45;&#45;Stowarzyszenie#Komisja Rewizyjna</title>
<path fill="none" stroke="#f29100" d="M102.05,-1007C168.87,-1007 332.31,-1007 461.62,-1007"/>
</g>
<!-- kpc -->
<g id="node36" class="node">
<title>kpc</title>
<ellipse fill="none" stroke="black" cx="71.49" cy="-921" rx="27" ry="18"/>
<text text-anchor="middle" x="71.49" y="-917.3" font-family="Times,serif" font-size="14.00">kpc</text>
</g>
<!-- kpc&#45;&#45;Miejsce::Miejsce#Klucze do spejsu -->
<g id="edge38" class="edge">
<title>kpc&#45;&#45;Miejsce::Miejsce#Klucze do spejsu</title>
<path fill="none" stroke="#00c64f" d="M96.16,-928.71C113.94,-928.71 134.82,-928.71 134.82,-928.71 134.82,-928.71 134.82,-1208.67 134.82,-1208.67 134.82,-1208.67 374.57,-1208.67 523.71,-1208.67"/>
</g>
<!-- kpc&#45;&#45;Stowarzyszenie#Komisja Rewizyjna -->
<g id="edge41" class="edge">
<title>kpc&#45;&#45;Stowarzyszenie#Komisja Rewizyjna</title>
<path fill="none" stroke="#00c64f" d="M90.43,-933.86C104.34,-933.86 120.82,-933.86 120.82,-933.86 120.82,-933.86 120.82,-995 120.82,-995 120.82,-995 353.11,-995 506.9,-995"/>
</g>
<!-- kpc&#45;&#45;Marketing&#45;i&#45;media&#45;spoecznociowe# -->
<g id="edge39" class="edge">
<title>kpc&#45;&#45;Marketing&#45;i&#45;media&#45;spoecznociowe#</title>
<path fill="none" stroke="#00c64f" d="M90.63,-908.14C137.98,-908.14 256.82,-908.14 256.82,-908.14 256.82,-908.14 256.82,-418.5 256.82,-418.5 256.82,-418.5 406.23,-418.5 518.43,-418.5"/>
</g>
<!-- kpc&#45;&#45;Infrastruktura::Telegram#posty: t.me/hakierspejs_spam -->
<g id="edge40" class="edge">
<title>kpc&#45;&#45;Infrastruktura::Telegram#posty: t.me/hakierspejs_spam</title>
<path fill="none" stroke="#00c64f" d="M96.06,-913.29C168.27,-913.29 374.82,-913.29 374.82,-913.29 374.82,-913.29 374.82,-786.38 374.82,-755.64"/>
</g>
<!-- Infrastruktura::Telegram#Posty wyklte (celowo bez linka) -->
<g id="node37" class="node">
<title>Infrastruktura::Telegram#Posty wyklte (celowo bez linka)</title>
<ellipse fill="none" stroke="black" cx="639.91" cy="-964" rx="284.05" ry="18"/>
<text text-anchor="middle" x="639.91" y="-960.3" font-family="Times,serif" font-size="14.00">Infrastruktura::Telegram#Posty wyklte (celowo bez linka)</text>
</g>
<!-- kpc&#45;&#45;Infrastruktura::Telegram#Posty wyklte (celowo bez linka) -->
<g id="edge42" class="edge">
<title>kpc&#45;&#45;Infrastruktura::Telegram#Posty wyklte (celowo bez linka)</title>
<path fill="none" stroke="#00c64f" d="M98.34,-923.57C175.57,-923.57 392.82,-923.57 392.82,-923.57 392.82,-923.57 392.82,-943.12 392.82,-955.03"/>
</g>
<!-- Czaty&#45;HS#HS: posty wyklte -->
<g id="node38" class="node">
<title>Czaty&#45;HS#HS: posty wyklte</title>
<ellipse fill="none" stroke="black" cx="639.91" cy="-921" rx="157.87" ry="18"/>
<text text-anchor="middle" x="639.91" y="-917.3" font-family="Times,serif" font-size="14.00">Czaty&#45;HS#HS: posty wyklte</text>
</g>
<!-- kpc&#45;&#45;Czaty&#45;HS#HS: posty wyklte -->
<g id="edge43" class="edge">
<title>kpc&#45;&#45;Czaty&#45;HS#HS: posty wyklte</title>
<path fill="none" stroke="#00c64f" d="M98.53,-918.43C166.59,-918.43 349.18,-918.43 483.58,-918.43"/>
</g>
<!-- PiotrP -->
<g id="node39" class="node">
<title>PiotrP</title>
<ellipse fill="none" stroke="black" cx="71.49" cy="-964" rx="40.09" ry="18"/>
<text text-anchor="middle" x="71.49" y="-960.3" font-family="Times,serif" font-size="14.00">PiotrP</text>
</g>
<!-- PiotrP&#45;&#45;Stowarzyszenie#Komisja Rewizyjna -->
<g id="edge44" class="edge">
<title>PiotrP&#45;&#45;Stowarzyszenie#Komisja Rewizyjna</title>
<path fill="none" stroke="#2e00e4" d="M107.82,-971.85C107.82,-982.71 107.82,-1001 107.82,-1001 107.82,-1001 315.99,-1001 471.92,-1001"/>
</g>
<!-- pmysl -->
<g id="node40" class="node">
<title>pmysl</title>
<ellipse fill="none" stroke="black" cx="71.49" cy="-254" rx="38.19" ry="18"/>
<text text-anchor="middle" x="71.49" y="-250.3" font-family="Times,serif" font-size="14.00">pmysl</text>
</g>
<!-- pmysl&#45;&#45;Kanay&#45;komunikacji# -->
<g id="edge46" class="edge">
<title>pmysl&#45;&#45;Kanay&#45;komunikacji#</title>
<path fill="none" stroke="#ff0000" d="M94.32,-268.5C121.66,-268.5 163.82,-268.5 163.82,-268.5 163.82,-268.5 163.82,-482 163.82,-482 163.82,-482 407.1,-482 545.85,-482"/>
</g>
<!-- pmysl&#45;&#45;Infrastruktura::Github#Github -->
<g id="edge45" class="edge">
<title>pmysl&#45;&#45;Infrastruktura::Github#Github</title>
<path fill="none" stroke="#ff0000" d="M101.25,-242.43C175.84,-242.43 374.34,-242.43 508.39,-242.43"/>
</g>
<!-- pmysl&#45;&#45;Bazy&#45;danych#Grafana -->
<g id="edge48" class="edge">
<title>pmysl&#45;&#45;Bazy&#45;danych#Grafana</title>
<path fill="none" stroke="#ff0000" d="M102.02,-265C181.15,-265 386.82,-265 386.82,-265 386.82,-265 386.82,-310 386.82,-310 386.82,-310 469.71,-310 540.61,-310"/>
</g>
<!-- pmysl&#45;&#45;Infrastruktura::IRC#IRC -->
<g id="edge49" class="edge">
<title>pmysl&#45;&#45;Infrastruktura::IRC#IRC</title>
<path fill="none" stroke="#ff0000" d="M89.69,-238.14C109.02,-238.14 136.82,-238.14 136.82,-238.14 136.82,-238.14 136.82,-159 136.82,-159 136.82,-159 401.33,-159 546.75,-159"/>
</g>
<!-- Bazy&#45;danych# -->
<g id="node41" class="node">
<title>Bazy&#45;danych#</title>
<ellipse fill="none" stroke="black" cx="639.91" cy="-190" rx="77.19" ry="18"/>
<text text-anchor="middle" x="639.91" y="-186.3" font-family="Times,serif" font-size="14.00">Bazy&#45;danych#</text>
</g>
<!-- pmysl&#45;&#45;Bazy&#45;danych# -->
<g id="edge47" class="edge">
<title>pmysl&#45;&#45;Bazy&#45;danych#</title>
<path fill="none" stroke="#ff0000" d="M96.57,-240.29C115.71,-240.29 138.82,-240.29 138.82,-240.29 138.82,-240.29 138.82,-204.25 138.82,-204.25 138.82,-204.25 467.24,-204.25 592.31,-204.25"/>
</g>
<!-- thinkofher -->
<g id="node42" class="node">
<title>thinkofher</title>
<ellipse fill="none" stroke="black" cx="71.49" cy="-211" rx="59.29" ry="18"/>
<text text-anchor="middle" x="71.49" y="-207.3" font-family="Times,serif" font-size="14.00">thinkofher</text>
</g>
<!-- thinkofher&#45;&#45;Kanay&#45;komunikacji# -->
<g id="edge54" class="edge">
<title>thinkofher&#45;&#45;Kanay&#45;komunikacji#</title>
<path fill="none" stroke="#2bd500" d="M118.32,-222C145.66,-222 174.82,-222 174.82,-222 174.82,-222 174.82,-477.5 174.82,-477.5 174.82,-477.5 437.46,-477.5 568,-477.5"/>
</g>
<!-- thinkofher&#45;&#45;Infrastruktura::Telegram#G贸wny: t.me/hakierspejs -->
<g id="edge51" class="edge">
<title>thinkofher&#45;&#45;Infrastruktura::Telegram#G贸wny: t.me/hakierspejs</title>
<path fill="none" stroke="#2bd500" d="M119.82,-221.71C119.82,-236.53 119.82,-261.5 119.82,-261.5 119.82,-261.5 336.86,-261.5 490.52,-261.5"/>
</g>
<!-- thinkofher&#45;&#45;Infrastruktura::Github#Github -->
<g id="edge50" class="edge">
<title>thinkofher&#45;&#45;Infrastruktura::Github#Github</title>
<path fill="none" stroke="#2bd500" d="M125.48,-218.5C222.82,-218.5 428.71,-218.5 548.41,-218.5"/>
</g>
<!-- thinkofher&#45;&#45;Marketing&#45;i&#45;media&#45;spoecznociowe# -->
<g id="edge52" class="edge">
<title>thinkofher&#45;&#45;Marketing&#45;i&#45;media&#45;spoecznociowe#</title>
<path fill="none" stroke="#2bd500" d="M106.59,-225.5C119.86,-225.5 131.82,-225.5 131.82,-225.5 131.82,-225.5 131.82,-391.5 131.82,-391.5 131.82,-391.5 368.23,-391.5 518.53,-391.5"/>
</g>
<!-- thinkofher&#45;&#45;Infrastruktura::IRC#IRC -->
<g id="edge57" class="edge">
<title>thinkofher&#45;&#45;Infrastruktura::IRC#IRC</title>
<path fill="none" stroke="#2bd500" d="M128.82,-206.31C128.82,-193.01 128.82,-156 128.82,-156 128.82,-156 381.85,-156 531.83,-156"/>
</g>
<!-- thinkofher&#45;&#45;Bazy&#45;danych# -->
<g id="edge55" class="edge">
<title>thinkofher&#45;&#45;Bazy&#45;danych#</title>
<path fill="none" stroke="#2bd500" d="M119.96,-200.5C222.65,-200.5 462.09,-200.5 576.65,-200.5"/>
</g>
<!-- Infrastruktura::Matrix#hs&#45;ldz&#45;offtopic:hackerspace.pl -->
<g id="node43" class="node">
<title>Infrastruktura::Matrix#hs&#45;ldz&#45;offtopic:hackerspace.pl</title>
<ellipse fill="none" stroke="black" cx="639.91" cy="-61" rx="258.85" ry="18"/>
<text text-anchor="middle" x="639.91" y="-57.3" font-family="Times,serif" font-size="14.00">Infrastruktura::Matrix#hs&#45;ldz&#45;offtopic:hackerspace.pl</text>
</g>
<!-- thinkofher&#45;&#45;Infrastruktura::Matrix#hs&#45;ldz&#45;offtopic:hackerspace.pl -->
<g id="edge53" class="edge">
<title>thinkofher&#45;&#45;Infrastruktura::Matrix#hs&#45;ldz&#45;offtopic:hackerspace.pl</title>
<path fill="none" stroke="#2bd500" d="M107.93,-196.75C190.32,-196.75 383.82,-196.75 383.82,-196.75 383.82,-196.75 383.82,-83.33 383.82,-63.84"/>
</g>
<!-- Infrastruktura::Matrix#hs&#45;ldz:hackerspace.pl -->
<g id="node44" class="node">
<title>Infrastruktura::Matrix#hs&#45;ldz:hackerspace.pl</title>
<ellipse fill="none" stroke="black" cx="639.91" cy="-104" rx="221.76" ry="18"/>
<text text-anchor="middle" x="639.91" y="-100.3" font-family="Times,serif" font-size="14.00">Infrastruktura::Matrix#hs&#45;ldz:hackerspace.pl</text>
</g>
<!-- thinkofher&#45;&#45;Infrastruktura::Matrix#hs&#45;ldz:hackerspace.pl -->
<g id="edge56" class="edge">
<title>thinkofher&#45;&#45;Infrastruktura::Matrix#hs&#45;ldz:hackerspace.pl</title>
<path fill="none" stroke="#2bd500" d="M125.82,-203.75C125.82,-181.3 125.82,-114.5 125.82,-114.5 125.82,-114.5 311.56,-114.5 459.74,-114.5"/>
</g>
<!-- Piotrek_P -->
<g id="node45" class="node">
<title>Piotrek_P</title>
<ellipse fill="none" stroke="black" cx="71.49" cy="-1157" rx="55.49" ry="18"/>
<text text-anchor="middle" x="71.49" y="-1153.3" font-family="Times,serif" font-size="14.00">Piotrek_P</text>
</g>
<!-- Piotrek_P&#45;&#45;Miejsce::Miejsce#Klucze do spejsu -->
<g id="edge58" class="edge">
<title>Piotrek_P&#45;&#45;Miejsce::Miejsce#Klucze do spejsu</title>
<path fill="none" stroke="#0061f2" d="M121.82,-1164.83C121.82,-1180.31 121.82,-1213.33 121.82,-1213.33 121.82,-1213.33 335.42,-1213.33 488.31,-1213.33"/>
</g>
<!-- polimerek -->
<g id="node46" class="node">
<title>polimerek</title>
<ellipse fill="none" stroke="black" cx="71.49" cy="-1286" rx="57.39" ry="18"/>
<text text-anchor="middle" x="71.49" y="-1282.3" font-family="Times,serif" font-size="14.00">polimerek</text>
</g>
<!-- polimerek&#45;&#45;Miejsce::Miejsce#Klucze do spejsu -->
<g id="edge59" class="edge">
<title>polimerek&#45;&#45;Miejsce::Miejsce#Klucze do spejsu</title>
<path fill="none" stroke="#c60077" d="M128.69,-1286C273.06,-1286 640.82,-1286 640.82,-1286 640.82,-1286 640.82,-1259.09 640.82,-1240.17"/>
</g>
<!-- kotlovecrafta -->
<g id="node47" class="node">
<title>kotlovecrafta</title>
<ellipse fill="none" stroke="black" cx="71.49" cy="-1243" rx="71.49" ry="18"/>
<text text-anchor="middle" x="71.49" y="-1239.3" font-family="Times,serif" font-size="14.00">kotlovecrafta</text>
</g>
<!-- kotlovecrafta&#45;&#45;Miejsce::Miejsce#Klucze do spejsu -->
<g id="edge60" class="edge">
<title>kotlovecrafta&#45;&#45;Miejsce::Miejsce#Klucze do spejsu</title>
<path fill="none" stroke="#b6e400" d="M129.65,-1232.5C215.95,-1232.5 380.5,-1232.5 499.45,-1232.5"/>
</g>
<!-- sp7adg -->
<g id="node48" class="node">
<title>sp7adg</title>
<ellipse fill="none" stroke="black" cx="71.49" cy="-1200" rx="44.39" ry="18"/>
<text text-anchor="middle" x="71.49" y="-1196.3" font-family="Times,serif" font-size="14.00">sp7adg</text>
</g>
<!-- sp7adg&#45;&#45;Miejsce::Miejsce#Klucze do spejsu -->
<g id="edge61" class="edge">
<title>sp7adg&#45;&#45;Miejsce::Miejsce#Klucze do spejsu</title>
<path fill="none" stroke="#00ffff" d="M93.43,-1215.67C156.17,-1215.67 340.66,-1215.67 478.03,-1215.67"/>
</g>
<!-- kszmigiel -->
<g id="node49" class="node">
<title>kszmigiel</title>
<ellipse fill="none" stroke="black" cx="71.49" cy="-491" rx="54.69" ry="18"/>
<text text-anchor="middle" x="71.49" y="-487.3" font-family="Times,serif" font-size="14.00">kszmigiel</text>
</g>
<!-- kszmigiel&#45;&#45;Infrastruktura::Telegram#G贸wny: t.me/hakierspejs -->
<g id="edge63" class="edge">
<title>kszmigiel&#45;&#45;Infrastruktura::Telegram#G贸wny: t.me/hakierspejs</title>
<path fill="none" stroke="#ab00d5" d="M124.39,-486.5C133.88,-486.5 140.82,-486.5 140.82,-486.5 140.82,-486.5 140.82,-279.33 140.82,-279.33 140.82,-279.33 267.06,-279.33 392.56,-279.33"/>
</g>
<!-- kszmigiel&#45;&#45;Infrastruktura::Github#Github -->
<g id="edge62" class="edge">
<title>kszmigiel&#45;&#45;Infrastruktura::Github#Github</title>
<path fill="none" stroke="#ab00d5" d="M126.17,-491C155.15,-491 184.82,-491 184.82,-491 184.82,-491 184.82,-246.71 184.82,-246.71 184.82,-246.71 406.08,-246.71 540.04,-246.71"/>
</g>
<!-- kszmigiel&#45;&#45;Marketing&#45;i&#45;media&#45;spoecznociowe# -->
<g id="edge64" class="edge">
<title>kszmigiel&#45;&#45;Marketing&#45;i&#45;media&#45;spoecznociowe#</title>
<path fill="none" stroke="#ab00d5" d="M120.82,-483.06C120.82,-461.77 120.82,-405 120.82,-405 120.82,-405 307.15,-405 456.53,-405"/>
</g>
<!-- kszmigiel&#45;&#45;Infrastruktura::Telegram#posty: t.me/hakierspejs_spam -->
<g id="edge65" class="edge">
<title>kszmigiel&#45;&#45;Infrastruktura::Telegram#posty: t.me/hakierspejs_spam</title>
<path fill="none" stroke="#ab00d5" d="M117.82,-500.8C117.82,-547.93 117.82,-749 117.82,-749 117.82,-749 233.26,-749 355.57,-749"/>
</g>
<!-- kszmigiel&#45;&#45;Marketing&#45;i&#45;media&#45;spoecznociowe#Naklejki -->
<g id="edge66" class="edge">
<title>kszmigiel&#45;&#45;Marketing&#45;i&#45;media&#45;spoecznociowe#Naklejki</title>
<path fill="none" stroke="#ab00d5" d="M118.82,-500.25C118.82,-535.97 118.82,-663 118.82,-663 118.82,-663 276.34,-663 418.17,-663"/>
</g>
<!-- q3k -->
<g id="node50" class="node">
<title>q3k</title>
<ellipse fill="none" stroke="black" cx="71.49" cy="-835" rx="27.9" ry="18"/>
<text text-anchor="middle" x="71.49" y="-831.3" font-family="Times,serif" font-size="14.00">q3k</text>
</g>
<!-- q3k&#45;&#45;Infrastruktura::Domeny#Domeny -->
<g id="edge67" class="edge">
<title>q3k&#45;&#45;Infrastruktura::Domeny#Domeny</title>
<path fill="none" stroke="#f29100" d="M71.82,-853.49C71.82,-865.14 71.82,-878 71.82,-878 71.82,-878 304.97,-878 472.54,-878"/>
</g>
<!-- q3k&#45;&#45;Kanay&#45;komunikacji# -->
<g id="edge68" class="edge">
<title>q3k&#45;&#45;Kanay&#45;komunikacji#</title>
<path fill="none" stroke="#f29100" d="M95.93,-826C163.31,-826 346.82,-826 346.82,-826 346.82,-826 346.82,-504.5 346.82,-504.5 346.82,-504.5 481.06,-504.5 567.83,-504.5"/>
</g>
<!-- q3k&#45;&#45;Marketing&#45;i&#45;media&#45;spoecznociowe#Logo nr. 2 -->
<g id="edge69" class="edge">
<title>q3k&#45;&#45;Marketing&#45;i&#45;media&#45;spoecznociowe#Logo nr. 2</title>
<path fill="none" stroke="#f29100" d="M95.92,-844C155.15,-844 311.13,-844 440.95,-844"/>
</g>
<!-- BluRaf -->
<g id="node51" class="node">
<title>BluRaf</title>
<ellipse fill="none" stroke="black" cx="71.49" cy="-125" rx="42.49" ry="18"/>
<text text-anchor="middle" x="71.49" y="-121.3" font-family="Times,serif" font-size="14.00">BluRaf</text>
</g>
<!-- BluRaf&#45;&#45;Infrastruktura::IRC#IRC -->
<g id="edge70" class="edge">
<title>BluRaf&#45;&#45;Infrastruktura::IRC#IRC</title>
<path fill="none" stroke="#00c64f" d="M105.35,-136C189.6,-136 411.22,-136 541.12,-136"/>
</g>
<!-- biniu -->
<g id="node52" class="node">
<title>biniu</title>
<ellipse fill="none" stroke="black" cx="71.49" cy="-448" rx="34.39" ry="18"/>
<text text-anchor="middle" x="71.49" y="-444.3" font-family="Times,serif" font-size="14.00">biniu</text>
</g>
<!-- biniu&#45;&#45;Marketing&#45;i&#45;media&#45;spoecznociowe# -->
<g id="edge71" class="edge">
<title>biniu&#45;&#45;Marketing&#45;i&#45;media&#45;spoecznociowe#</title>
<path fill="none" stroke="#2e00e4" d="M106.06,-448C111.2,-448 114.82,-448 114.82,-448 114.82,-448 114.82,-400.5 114.82,-400.5 114.82,-400.5 309.81,-400.5 462.14,-400.5"/>
</g>
<!-- Keij0 -->
<g id="node53" class="node">
<title>Keij0</title>
<ellipse fill="none" stroke="black" cx="71.49" cy="-405" rx="34.39" ry="18"/>
<text text-anchor="middle" x="71.49" y="-401.3" font-family="Times,serif" font-size="14.00">Keij0</text>
</g>
<!-- Keij0&#45;&#45;Marketing&#45;i&#45;media&#45;spoecznociowe# -->
<g id="edge72" class="edge">
<title>Keij0&#45;&#45;Marketing&#45;i&#45;media&#45;spoecznociowe#</title>
<path fill="none" stroke="#ff0000" d="M101.65,-396C171.6,-396 348.97,-396 481.11,-396"/>
</g>
</g>
</svg>
