<?xml version="1.0" encoding="UTF-8" standalone="no"?>
<!DOCTYPE svg PUBLIC "-//W3C//DTD SVG 1.1//EN"
 "http://www.w3.org/Graphics/SVG/1.1/DTD/svg11.dtd">
<!-- Generated by graphviz version 2.43.0 (0)
 -->
<!-- Title: %3 Pages: 1 -->
<svg width="976pt" height="1248pt"
 viewBox="0.00 0.00 976.13 1248.00" xmlns="http://www.w3.org/2000/svg" xmlns:xlink="http://www.w3.org/1999/xlink">
<g id="graph0" class="graph" transform="scale(1 1) rotate(0) translate(4 1244)">
<title>%3</title>
<polygon fill="white" stroke="transparent" points="-4,4 -4,-1244 972.13,-1244 972.13,4 -4,4"/>
<!-- d33tah -->
<g id="node1" class="node">
<title>d33tah</title>
<ellipse fill="none" stroke="black" cx="59.14" cy="-792" rx="43.59" ry="18"/>
<text text-anchor="middle" x="59.14" y="-788.3" font-family="Times,serif" font-size="14.00">d33tah</text>
</g>
<!-- Infrastruktura::Mariuszbot#Mariuszbot -->
<g id="node2" class="node">
<title>Infrastruktura::Mariuszbot#Mariuszbot</title>
<ellipse fill="none" stroke="black" cx="615.21" cy="-921" rx="196.07" ry="18"/>
<text text-anchor="middle" x="615.21" y="-917.3" font-family="Times,serif" font-size="14.00">Infrastruktura::Mariuszbot#Mariuszbot</text>
</g>
<!-- d33tah&#45;&#45;Infrastruktura::Mariuszbot#Mariuszbot -->
<g id="edge1" class="edge">
<title>d33tah&#45;&#45;Infrastruktura::Mariuszbot#Mariuszbot</title>
<path fill="none" stroke="#ff0000" d="M102.68,-794.25C199.89,-794.25 426.13,-794.25 426.13,-794.25 426.13,-794.25 426.13,-892.16 426.13,-915.87"/>
</g>
<!-- Bazy&#45;danych#Trello -->
<g id="node3" class="node">
<title>Bazy&#45;danych#Trello</title>
<ellipse fill="none" stroke="black" cx="615.21" cy="-878" rx="103.98" ry="18"/>
<text text-anchor="middle" x="615.21" y="-874.3" font-family="Times,serif" font-size="14.00">Bazy&#45;danych#Trello</text>
</g>
<!-- d33tah&#45;&#45;Bazy&#45;danych#Trello -->
<g id="edge2" class="edge">
<title>d33tah&#45;&#45;Bazy&#45;danych#Trello</title>
<path fill="none" stroke="#ff0000" d="M80.34,-807.75C93.96,-807.75 109.13,-807.75 109.13,-807.75 109.13,-807.75 109.13,-881.6 109.13,-881.6 109.13,-881.6 365.27,-881.6 513.1,-881.6"/>
</g>
<!-- Infrastruktura::Telegram#G贸wny: t.me/hakierspejs -->
<g id="node4" class="node">
<title>Infrastruktura::Telegram#G贸wny: t.me/hakierspejs</title>
<ellipse fill="none" stroke="black" cx="615.21" cy="-706" rx="251.56" ry="18"/>
<text text-anchor="middle" x="615.21" y="-702.3" font-family="Times,serif" font-size="14.00">Infrastruktura::Telegram#G贸wny: t.me/hakierspejs</text>
</g>
<!-- d33tah&#45;&#45;Infrastruktura::Telegram#G贸wny: t.me/hakierspejs -->
<g id="edge3" class="edge">
<title>d33tah&#45;&#45;Infrastruktura::Telegram#G贸wny: t.me/hakierspejs</title>
<path fill="none" stroke="#ff0000" d="M96.13,-782.48C96.13,-762.24 96.13,-716.8 96.13,-716.8 96.13,-716.8 267.86,-716.8 413.77,-716.8"/>
</g>
<!-- Kanay&#45;komunikacji# -->
<g id="node5" class="node">
<title>Kanay&#45;komunikacji#</title>
<ellipse fill="none" stroke="black" cx="615.21" cy="-448" rx="108.58" ry="18"/>
<text text-anchor="middle" x="615.21" y="-444.3" font-family="Times,serif" font-size="14.00">Kanay&#45;komunikacji#</text>
</g>
<!-- d33tah&#45;&#45;Kanay&#45;komunikacji# -->
<g id="edge4" class="edge">
<title>d33tah&#45;&#45;Kanay&#45;komunikacji#</title>
<path fill="none" stroke="#ff0000" d="M97.06,-783C161.17,-783 284.13,-783 284.13,-783 284.13,-783 284.13,-455 284.13,-455 284.13,-455 417.53,-455 514.97,-455"/>
</g>
<!-- Drzwi&#45;frontowe#Ekran  -->
<g id="node6" class="node">
<title>Drzwi&#45;frontowe#Ekran </title>
<ellipse fill="none" stroke="black" cx="615.21" cy="-835" rx="120.78" ry="18"/>
<text text-anchor="middle" x="615.21" y="-831.3" font-family="Times,serif" font-size="14.00">Drzwi&#45;frontowe#Ekran </text>
</g>
<!-- d33tah&#45;&#45;Drzwi&#45;frontowe#Ekran  -->
<g id="edge5" class="edge">
<title>d33tah&#45;&#45;Drzwi&#45;frontowe#Ekran </title>
<path fill="none" stroke="black" d="M88.18,-805.5C100.08,-805.5 111.13,-805.5 111.13,-805.5 111.13,-805.5 111.13,-844 111.13,-844 111.13,-844 362.77,-844 510.46,-844"/>
</g>
<!-- Stowarzyszenie#Zarzd -->
<g id="node10" class="node">
<title>Stowarzyszenie#Zarzd</title>
<ellipse fill="none" stroke="black" cx="615.21" cy="-1136" rx="123.48" ry="18"/>
<text text-anchor="middle" x="615.21" y="-1132.3" font-family="Times,serif" font-size="14.00">Stowarzyszenie#Zarzd</text>
</g>
<!-- d33tah&#45;&#45;Stowarzyszenie#Zarzd -->
<g id="edge6" class="edge">
<title>d33tah&#45;&#45;Stowarzyszenie#Zarzd</title>
<path fill="none" stroke="#ff0000" d="M93.33,-803.25C122.63,-803.25 160.13,-803.25 160.13,-803.25 160.13,-803.25 160.13,-1136 160.13,-1136 160.13,-1136 356.7,-1136 491.46,-1136"/>
</g>
<!-- Bazy&#45;danych#Pad -->
<g id="node11" class="node">
<title>Bazy&#45;danych#Pad</title>
<ellipse fill="none" stroke="black" cx="615.21" cy="-1093" rx="94.48" ry="18"/>
<text text-anchor="middle" x="615.21" y="-1089.3" font-family="Times,serif" font-size="14.00">Bazy&#45;danych#Pad</text>
</g>
<!-- d33tah&#45;&#45;Bazy&#45;danych#Pad -->
<g id="edge7" class="edge">
<title>d33tah&#45;&#45;Bazy&#45;danych#Pad</title>
<path fill="none" stroke="#ff0000" d="M97.09,-801C132.57,-801 180.13,-801 180.13,-801 180.13,-801 180.13,-1082.2 180.13,-1082.2 180.13,-1082.2 414.77,-1082.2 539.42,-1082.2"/>
</g>
<!-- Infrastruktura::Github#Github -->
<g id="node12" class="node">
<title>Infrastruktura::Github#Github</title>
<ellipse fill="none" stroke="black" cx="615.21" cy="-663" rx="154.07" ry="18"/>
<text text-anchor="middle" x="615.21" y="-659.3" font-family="Times,serif" font-size="14.00">Infrastruktura::Github#Github</text>
</g>
<!-- d33tah&#45;&#45;Infrastruktura::Github#Github -->
<g id="edge8" class="edge">
<title>d33tah&#45;&#45;Infrastruktura::Github#Github</title>
<path fill="none" stroke="#ff0000" d="M101.41,-787.5C174.12,-787.5 315.13,-787.5 315.13,-787.5 315.13,-787.5 315.13,-672 315.13,-672 315.13,-672 401.38,-672 481.4,-672"/>
</g>
<!-- Infrastruktura::Telegram#Spacerspejs: t.me/joinchat/UYf2ONtNj21J1DS6 -->
<g id="node13" class="node">
<title>Infrastruktura::Telegram#Spacerspejs: t.me/joinchat/UYf2ONtNj21J1DS6</title>
<ellipse fill="none" stroke="black" cx="615.21" cy="-1007" rx="352.84" ry="18"/>
<text text-anchor="middle" x="615.21" y="-1003.3" font-family="Times,serif" font-size="14.00">Infrastruktura::Telegram#Spacerspejs: t.me/joinchat/UYf2ONtNj21J1DS6</text>
</g>
<!-- d33tah&#45;&#45;Infrastruktura::Telegram#Spacerspejs: t.me/joinchat/UYf2ONtNj21J1DS6 -->
<g id="edge9" class="edge">
<title>d33tah&#45;&#45;Infrastruktura::Telegram#Spacerspejs: t.me/joinchat/UYf2ONtNj21J1DS6</title>
<path fill="none" stroke="#ff0000" d="M99.58,-798.75C161.86,-798.75 274.13,-798.75 274.13,-798.75 274.13,-798.75 274.13,-971.26 274.13,-1002.26"/>
</g>
<!-- Infrastruktura::Telegram#posty: t.me/hakierspejs_spam -->
<g id="node14" class="node">
<title>Infrastruktura::Telegram#posty: t.me/hakierspejs_spam</title>
<ellipse fill="none" stroke="black" cx="615.21" cy="-577" rx="284.05" ry="18"/>
<text text-anchor="middle" x="615.21" y="-573.3" font-family="Times,serif" font-size="14.00">Infrastruktura::Telegram#posty: t.me/hakierspejs_spam</text>
</g>
<!-- d33tah&#45;&#45;Infrastruktura::Telegram#posty: t.me/hakierspejs_spam -->
<g id="edge10" class="edge">
<title>d33tah&#45;&#45;Infrastruktura::Telegram#posty: t.me/hakierspejs_spam</title>
<path fill="none" stroke="#ff0000" d="M102.52,-789.75C184.3,-789.75 353.13,-789.75 353.13,-789.75 353.13,-789.75 353.13,-620.99 353.13,-584.08"/>
</g>
<!-- Infrastruktura::Domeny#Domeny -->
<g id="node15" class="node">
<title>Infrastruktura::Domeny#Domeny</title>
<ellipse fill="none" stroke="black" cx="615.21" cy="-792" rx="167.07" ry="18"/>
<text text-anchor="middle" x="615.21" y="-788.3" font-family="Times,serif" font-size="14.00">Infrastruktura::Domeny#Domeny</text>
</g>
<!-- d33tah&#45;&#45;Infrastruktura::Domeny#Domeny -->
<g id="edge11" class="edge">
<title>d33tah&#45;&#45;Infrastruktura::Domeny#Domeny</title>
<path fill="none" stroke="#ff0000" d="M102.78,-792C176.26,-792 328.37,-792 447.88,-792"/>
</g>
<!-- Miejsce::Miejsce#Klucze do spejsu -->
<g id="node16" class="node">
<title>Miejsce::Miejsce#Klucze do spejsu</title>
<ellipse fill="none" stroke="black" cx="615.21" cy="-405" rx="172.77" ry="18"/>
<text text-anchor="middle" x="615.21" y="-401.3" font-family="Times,serif" font-size="14.00">Miejsce::Miejsce#Klucze do spejsu</text>
</g>
<!-- d33tah&#45;&#45;Miejsce::Miejsce#Klucze do spejsu -->
<g id="edge12" class="edge">
<title>d33tah&#45;&#45;Miejsce::Miejsce#Klucze do spejsu</title>
<path fill="none" stroke="#ff0000" d="M88.28,-778.5C135.16,-778.5 222.13,-778.5 222.13,-778.5 222.13,-778.5 222.13,-420.5 222.13,-420.5 222.13,-420.5 411.1,-420.5 526.99,-420.5"/>
</g>
<!-- Marketing&#45;i&#45;media&#45;spoecznociowe# -->
<g id="node17" class="node">
<title>Marketing&#45;i&#45;media&#45;spoecznociowe#</title>
<ellipse fill="none" stroke="black" cx="615.21" cy="-749" rx="183.07" ry="18"/>
<text text-anchor="middle" x="615.21" y="-745.3" font-family="Times,serif" font-size="14.00">Marketing&#45;i&#45;media&#45;spoecznociowe#</text>
</g>
<!-- d33tah&#45;&#45;Marketing&#45;i&#45;media&#45;spoecznociowe# -->
<g id="edge13" class="edge">
<title>d33tah&#45;&#45;Marketing&#45;i&#45;media&#45;spoecznociowe#</title>
<path fill="none" stroke="#ff0000" d="M101.13,-787.02C101.13,-778.46 101.13,-761.86 101.13,-761.86 101.13,-761.86 334.54,-761.86 486.81,-761.86"/>
</g>
<!-- Infrastruktura::Telegram#HS24: t.me/hsl_info -->
<g id="node18" class="node">
<title>Infrastruktura::Telegram#HS24: t.me/hsl_info</title>
<ellipse fill="none" stroke="black" cx="615.21" cy="-964" rx="231.26" ry="18"/>
<text text-anchor="middle" x="615.21" y="-960.3" font-family="Times,serif" font-size="14.00">Infrastruktura::Telegram#HS24: t.me/hsl_info</text>
</g>
<!-- d33tah&#45;&#45;Infrastruktura::Telegram#HS24: t.me/hsl_info -->
<g id="edge14" class="edge">
<title>d33tah&#45;&#45;Infrastruktura::Telegram#HS24: t.me/hsl_info</title>
<path fill="none" stroke="#ff0000" d="M101.55,-796.5C193.31,-796.5 402.13,-796.5 402.13,-796.5 402.13,-796.5 402.13,-924.74 402.13,-956.8"/>
</g>
<!-- Infrastruktura::IRC#IRC -->
<g id="node19" class="node">
<title>Infrastruktura::IRC#IRC</title>
<ellipse fill="none" stroke="black" cx="615.21" cy="-362" rx="124.58" ry="18"/>
<text text-anchor="middle" x="615.21" y="-358.3" font-family="Times,serif" font-size="14.00">Infrastruktura::IRC#IRC</text>
</g>
<!-- d33tah&#45;&#45;Infrastruktura::IRC#IRC -->
<g id="edge15" class="edge">
<title>d33tah&#45;&#45;Infrastruktura::IRC#IRC</title>
<path fill="none" stroke="#ff0000" d="M93.34,-780.75C155.61,-780.75 281.13,-780.75 281.13,-780.75 281.13,-780.75 281.13,-372.8 281.13,-372.8 281.13,-372.8 416.57,-372.8 514.97,-372.8"/>
</g>
<!-- Bazy&#45;danych#Grafana -->
<g id="node20" class="node">
<title>Bazy&#45;danych#Grafana</title>
<ellipse fill="none" stroke="black" cx="615.21" cy="-620" rx="114.28" ry="18"/>
<text text-anchor="middle" x="615.21" y="-616.3" font-family="Times,serif" font-size="14.00">Bazy&#45;danych#Grafana</text>
</g>
<!-- d33tah&#45;&#45;Bazy&#45;danych#Grafana -->
<g id="edge16" class="edge">
<title>d33tah&#45;&#45;Bazy&#45;danych#Grafana</title>
<path fill="none" stroke="#ff0000" d="M99.54,-785.25C166.72,-785.25 294.13,-785.25 294.13,-785.25 294.13,-785.25 294.13,-626 294.13,-626 294.13,-626 413.74,-626 506.95,-626"/>
</g>
<!-- nastpne -->
<g id="node7" class="node">
<title>nastpne</title>
<ellipse fill="none" stroke="black" cx="59.14" cy="-1136" rx="53.09" ry="18"/>
<text text-anchor="middle" x="59.14" y="-1132.3" font-family="Times,serif" font-size="14.00">nastpne</text>
</g>
<!-- spotkanie -->
<g id="node8" class="node">
<title>spotkanie</title>
<ellipse fill="none" stroke="black" cx="59.14" cy="-1179" rx="55.79" ry="18"/>
<text text-anchor="middle" x="59.14" y="-1175.3" font-family="Times,serif" font-size="14.00">spotkanie</text>
</g>
<g id="node9" class="node">
<title></title>
<ellipse fill="none" stroke="#ff0000" cx="59.14" cy="-1222" rx="27" ry="18"/>
</g>
<!-- cytP450 -->
<g id="node21" class="node">
<title>cytP450</title>
<ellipse fill="none" stroke="black" cx="59.14" cy="-147" rx="48.99" ry="18"/>
<text text-anchor="middle" x="59.14" y="-143.3" font-family="Times,serif" font-size="14.00">cytP450</text>
</g>
<!-- cytP450&#45;&#45;Kanay&#45;komunikacji# -->
<g id="edge17" class="edge">
<title>cytP450&#45;&#45;Kanay&#45;komunikacji#</title>
<path fill="none" stroke="#2bd500" d="M108.03,-147C181.31,-147 311.13,-147 311.13,-147 311.13,-147 311.13,-432.8 311.13,-432.8 311.13,-432.8 468.64,-432.8 556.94,-432.8"/>
</g>
<!-- cytP450&#45;&#45;Infrastruktura::Domeny#Domeny -->
<g id="edge19" class="edge">
<title>cytP450&#45;&#45;Infrastruktura::Domeny#Domeny</title>
<path fill="none" stroke="#2bd500" d="M105.11,-153C169.06,-153 277.13,-153 277.13,-153 277.13,-153 277.13,-776.25 277.13,-776.25 277.13,-776.25 434.21,-776.25 534.23,-776.25"/>
</g>
<!-- cytP450&#45;&#45;Miejsce::Miejsce#Klucze do spejsu -->
<g id="edge21" class="edge">
<title>cytP450&#45;&#45;Miejsce::Miejsce#Klucze do spejsu</title>
<path fill="none" stroke="#2bd500" d="M95.73,-159C149.13,-159 242.13,-159 242.13,-159 242.13,-159 242.13,-397.5 242.13,-397.5 242.13,-397.5 355.91,-397.5 457.8,-397.5"/>
</g>
<!-- Chciejlista#DIY -->
<g id="node22" class="node">
<title>Chciejlista#DIY</title>
<ellipse fill="none" stroke="black" cx="615.21" cy="-147" rx="83.69" ry="18"/>
<text text-anchor="middle" x="615.21" y="-143.3" font-family="Times,serif" font-size="14.00">Chciejlista#DIY</text>
</g>
<!-- cytP450&#45;&#45;Chciejlista#DIY -->
<g id="edge18" class="edge">
<title>cytP450&#45;&#45;Chciejlista#DIY</title>
<path fill="none" stroke="#2bd500" d="M105.12,-141C199.84,-141 417.69,-141 535.73,-141"/>
</g>
<!-- Stowarzyszenie#Komisja Rewizyjna -->
<g id="node23" class="node">
<title>Stowarzyszenie#Komisja Rewizyjna</title>
<ellipse fill="none" stroke="black" cx="615.21" cy="-190" rx="178.17" ry="18"/>
<text text-anchor="middle" x="615.21" y="-186.3" font-family="Times,serif" font-size="14.00">Stowarzyszenie#Komisja Rewizyjna</text>
</g>
<!-- cytP450&#45;&#45;Stowarzyszenie#Komisja Rewizyjna -->
<g id="edge20" class="edge">
<title>cytP450&#45;&#45;Stowarzyszenie#Komisja Rewizyjna</title>
<path fill="none" stroke="#2bd500" d="M99.13,-157.39C99.13,-167.38 99.13,-181 99.13,-181 99.13,-181 308.67,-181 460.72,-181"/>
</g>
<!-- Przegld&#45;lokali&#45;na&#45;wynajem&#45;w&#45;odzi.&#45;Fundusz&#45;1000&#45;&#45;&#45;1500.#Bot Aleksego -->
<g id="node24" class="node">
<title>Przegld&#45;lokali&#45;na&#45;wynajem&#45;w&#45;odzi.&#45;Fundusz&#45;1000&#45;&#45;&#45;1500.#Bot Aleksego</title>
<ellipse fill="none" stroke="black" cx="615.21" cy="-104" rx="351.74" ry="18"/>
<text text-anchor="middle" x="615.21" y="-100.3" font-family="Times,serif" font-size="14.00">Przegld&#45;lokali&#45;na&#45;wynajem&#45;w&#45;odzi.&#45;Fundusz&#45;1000&#45;&#45;&#45;1500.#Bot Aleksego</text>
</g>
<!-- cytP450&#45;&#45;Przegld&#45;lokali&#45;na&#45;wynajem&#45;w&#45;odzi.&#45;Fundusz&#45;1000&#45;&#45;&#45;1500.#Bot Aleksego -->
<g id="edge22" class="edge">
<title>cytP450&#45;&#45;Przegld&#45;lokali&#45;na&#45;wynajem&#45;w&#45;odzi.&#45;Fundusz&#45;1000&#45;&#45;&#45;1500.#Bot Aleksego</title>
<path fill="none" stroke="#2bd500" d="M95.7,-135C169.25,-135 328.13,-135 328.13,-135 328.13,-135 328.13,-123.49 328.13,-114.5"/>
</g>
<!-- Zamek#Zamek -->
<g id="node25" class="node">
<title>Zamek#Zamek</title>
<ellipse fill="none" stroke="black" cx="615.21" cy="-61" rx="81.49" ry="18"/>
<text text-anchor="middle" x="615.21" y="-57.3" font-family="Times,serif" font-size="14.00">Zamek#Zamek</text>
</g>
<!-- cytP450&#45;&#45;Zamek#Zamek -->
<g id="edge23" class="edge">
<title>cytP450&#45;&#45;Zamek#Zamek</title>
<path fill="none" stroke="#2bd500" d="M76.13,-130.01C76.13,-104.95 76.13,-61 76.13,-61 76.13,-61 383.32,-61 533.92,-61"/>
</g>
<!-- Chciejlista#Elektronika (w sensie urzdze konsumenckich) -->
<g id="node26" class="node">
<title>Chciejlista#Elektronika (w sensie urzdze konsumenckich)</title>
<ellipse fill="none" stroke="black" cx="615.21" cy="-18" rx="289.75" ry="18"/>
<text text-anchor="middle" x="615.21" y="-14.3" font-family="Times,serif" font-size="14.00">Chciejlista#Elektronika (w sensie urzdze konsumenckich)</text>
</g>
<!-- cytP450&#45;&#45;Chciejlista#Elektronika (w sensie urzdze konsumenckich) -->
<g id="edge24" class="edge">
<title>cytP450&#45;&#45;Chciejlista#Elektronika (w sensie urzdze konsumenckich)</title>
<path fill="none" stroke="#2bd500" d="M43.13,-129.87C43.13,-94.78 43.13,-18 43.13,-18 43.13,-18 183.37,-18 324.98,-18"/>
</g>
<!-- pmysl -->
<g id="node27" class="node">
<title>pmysl</title>
<ellipse fill="none" stroke="black" cx="59.14" cy="-426" rx="38.19" ry="18"/>
<text text-anchor="middle" x="59.14" y="-422.3" font-family="Times,serif" font-size="14.00">pmysl</text>
</g>
<!-- pmysl&#45;&#45;Kanay&#45;komunikacji# -->
<g id="edge25" class="edge">
<title>pmysl&#45;&#45;Kanay&#45;komunikacji#</title>
<path fill="none" stroke="#0061f2" d="M91.85,-435.6C177.93,-435.6 412.63,-435.6 536.4,-435.6"/>
</g>
<!-- pmysl&#45;&#45;Infrastruktura::Github#Github -->
<g id="edge26" class="edge">
<title>pmysl&#45;&#45;Infrastruktura::Github#Github</title>
<path fill="none" stroke="#0061f2" d="M79.78,-441.2C138.29,-441.2 301.13,-441.2 301.13,-441.2 301.13,-441.2 301.13,-654 301.13,-654 301.13,-654 396.07,-654 481.55,-654"/>
</g>
<!-- pmysl&#45;&#45;Miejsce::Miejsce#Klucze do spejsu -->
<g id="edge27" class="edge">
<title>pmysl&#45;&#45;Miejsce::Miejsce#Klucze do spejsu</title>
<path fill="none" stroke="#0061f2" d="M90.63,-415.5C163.12,-415.5 345.46,-415.5 474.75,-415.5"/>
</g>
<!-- pmysl&#45;&#45;Infrastruktura::IRC#IRC -->
<g id="edge29" class="edge">
<title>pmysl&#45;&#45;Infrastruktura::IRC#IRC</title>
<path fill="none" stroke="#0061f2" d="M85.94,-413C96.93,-413 107.13,-413 107.13,-413 107.13,-413 107.13,-358.4 107.13,-358.4 107.13,-358.4 342.52,-358.4 492.86,-358.4"/>
</g>
<!-- pmysl&#45;&#45;Bazy&#45;danych#Grafana -->
<g id="edge30" class="edge">
<title>pmysl&#45;&#45;Bazy&#45;danych#Grafana</title>
<path fill="none" stroke="#0061f2" d="M87.36,-438.4C151.97,-438.4 305.13,-438.4 305.13,-438.4 305.13,-438.4 305.13,-614 305.13,-614 305.13,-614 417.7,-614 507.19,-614"/>
</g>
<!-- Bazy&#45;danych# -->
<g id="node28" class="node">
<title>Bazy&#45;danych#</title>
<ellipse fill="none" stroke="black" cx="615.21" cy="-319" rx="77.19" ry="18"/>
<text text-anchor="middle" x="615.21" y="-315.3" font-family="Times,serif" font-size="14.00">Bazy&#45;danych#</text>
</g>
<!-- pmysl&#45;&#45;Bazy&#45;danych# -->
<g id="edge28" class="edge">
<title>pmysl&#45;&#45;Bazy&#45;danych#</title>
<path fill="none" stroke="#0061f2" d="M78.82,-410.5C90.53,-410.5 103.13,-410.5 103.13,-410.5 103.13,-410.5 103.13,-313 103.13,-313 103.13,-313 400.63,-313 542.11,-313"/>
</g>
<!-- kszmigiel -->
<g id="node29" class="node">
<title>kszmigiel</title>
<ellipse fill="none" stroke="black" cx="59.14" cy="-663" rx="54.69" ry="18"/>
<text text-anchor="middle" x="59.14" y="-659.3" font-family="Times,serif" font-size="14.00">kszmigiel</text>
</g>
<!-- kszmigiel&#45;&#45;Infrastruktura::Telegram#G贸wny: t.me/hakierspejs -->
<g id="edge31" class="edge">
<title>kszmigiel&#45;&#45;Infrastruktura::Telegram#G贸wny: t.me/hakierspejs</title>
<path fill="none" stroke="#c60077" d="M110.13,-669.48C110.13,-682.28 110.13,-709.6 110.13,-709.6 110.13,-709.6 240.37,-709.6 368.59,-709.6"/>
</g>
<!-- kszmigiel&#45;&#45;Stowarzyszenie#Zarzd -->
<g id="edge32" class="edge">
<title>kszmigiel&#45;&#45;Stowarzyszenie#Zarzd</title>
<path fill="none" stroke="#c60077" d="M104.13,-673.54C104.13,-739.2 104.13,-1089.4 104.13,-1089.4 104.13,-1089.4 507.13,-1089.4 507.13,-1089.4 507.13,-1089.4 507.13,-1113.47 507.13,-1127.02"/>
</g>
<!-- kszmigiel&#45;&#45;Infrastruktura::Github#Github -->
<g id="edge33" class="edge">
<title>kszmigiel&#45;&#45;Infrastruktura::Github#Github</title>
<path fill="none" stroke="#c60077" d="M112.21,-667.5C192.77,-667.5 348.91,-667.5 465.97,-667.5"/>
</g>
<!-- kszmigiel&#45;&#45;Infrastruktura::Telegram#posty: t.me/hakierspejs_spam -->
<g id="edge34" class="edge">
<title>kszmigiel&#45;&#45;Infrastruktura::Telegram#posty: t.me/hakierspejs_spam</title>
<path fill="none" stroke="#c60077" d="M114.04,-663C196.33,-663 342.13,-663 342.13,-663 342.13,-663 342.13,-600.64 342.13,-582.12"/>
</g>
<!-- kszmigiel&#45;&#45;Miejsce::Miejsce#Klucze do spejsu -->
<g id="edge35" class="edge">
<title>kszmigiel&#45;&#45;Miejsce::Miejsce#Klucze do spejsu</title>
<path fill="none" stroke="#c60077" d="M95.34,-649.5C137.41,-649.5 201.13,-649.5 201.13,-649.5 201.13,-649.5 201.13,-418 201.13,-418 201.13,-418 373.14,-418 495.44,-418"/>
</g>
<!-- kszmigiel&#45;&#45;Marketing&#45;i&#45;media&#45;spoecznociowe# -->
<g id="edge36" class="edge">
<title>kszmigiel&#45;&#45;Marketing&#45;i&#45;media&#45;spoecznociowe#</title>
<path fill="none" stroke="#c60077" d="M107.13,-671.61C107.13,-692.93 107.13,-746.43 107.13,-746.43 107.13,-746.43 287.72,-746.43 433.57,-746.43"/>
</g>
<!-- Marketing&#45;i&#45;media&#45;spoecznociowe#Naklejki -->
<g id="node30" class="node">
<title>Marketing&#45;i&#45;media&#45;spoecznociowe#Naklejki</title>
<ellipse fill="none" stroke="black" cx="615.21" cy="-1050" rx="221.76" ry="18"/>
<text text-anchor="middle" x="615.21" y="-1046.3" font-family="Times,serif" font-size="14.00">Marketing&#45;i&#45;media&#45;spoecznociowe#Naklejki</text>
</g>
<!-- kszmigiel&#45;&#45;Marketing&#45;i&#45;media&#45;spoecznociowe#Naklejki -->
<g id="edge37" class="edge">
<title>kszmigiel&#45;&#45;Marketing&#45;i&#45;media&#45;spoecznociowe#Naklejki</title>
<path fill="none" stroke="#c60077" d="M106.13,-672.42C106.13,-731.09 106.13,-1044 106.13,-1044 106.13,-1044 265.53,-1044 405.94,-1044"/>
</g>
<!-- q3k -->
<g id="node31" class="node">
<title>q3k</title>
<ellipse fill="none" stroke="black" cx="59.14" cy="-878" rx="27.9" ry="18"/>
<text text-anchor="middle" x="59.14" y="-874.3" font-family="Times,serif" font-size="14.00">q3k</text>
</g>
<!-- q3k&#45;&#45;Kanay&#45;komunikacji# -->
<g id="edge38" class="edge">
<title>q3k&#45;&#45;Kanay&#45;komunikacji#</title>
<path fill="none" stroke="#b6e400" d="M81.52,-867.2C139.14,-867.2 288.13,-867.2 288.13,-867.2 288.13,-867.2 288.13,-460.5 288.13,-460.5 288.13,-460.5 440.1,-460.5 536.86,-460.5"/>
</g>
<!-- q3k&#45;&#45;Infrastruktura::Domeny#Domeny -->
<g id="edge40" class="edge">
<title>q3k&#45;&#45;Infrastruktura::Domeny#Domeny</title>
<path fill="none" stroke="#b6e400" d="M86.56,-874.4C178.8,-874.4 472.13,-874.4 472.13,-874.4 472.13,-874.4 472.13,-823.1 472.13,-801.45"/>
</g>
<!-- Marketing&#45;i&#45;media&#45;spoecznociowe#Logo nr 2 -->
<g id="node32" class="node">
<title>Marketing&#45;i&#45;media&#45;spoecznociowe#Logo nr 2</title>
<ellipse fill="none" stroke="black" cx="615.21" cy="-1179" rx="227.46" ry="18"/>
<text text-anchor="middle" x="615.21" y="-1175.3" font-family="Times,serif" font-size="14.00">Marketing&#45;i&#45;media&#45;spoecznociowe#Logo nr 2</text>
</g>
<!-- q3k&#45;&#45;Marketing&#45;i&#45;media&#45;spoecznociowe#Logo nr 2 -->
<g id="edge39" class="edge">
<title>q3k&#45;&#45;Marketing&#45;i&#45;media&#45;spoecznociowe#Logo nr 2</title>
<path fill="none" stroke="#b6e400" d="M81.85,-888.8C105.5,-888.8 139.13,-888.8 139.13,-888.8 139.13,-888.8 139.13,-1179 139.13,-1179 139.13,-1179 265.22,-1179 387.63,-1179"/>
</g>
<!-- thinkofher -->
<g id="node33" class="node">
<title>thinkofher</title>
<ellipse fill="none" stroke="black" cx="59.14" cy="-512" rx="59.29" ry="18"/>
<text text-anchor="middle" x="59.14" y="-508.3" font-family="Times,serif" font-size="14.00">thinkofher</text>
</g>
<!-- thinkofher&#45;&#45;Infrastruktura::Telegram#G贸wny: t.me/hakierspejs -->
<g id="edge41" class="edge">
<title>thinkofher&#45;&#45;Infrastruktura::Telegram#G贸wny: t.me/hakierspejs</title>
<path fill="none" stroke="#00ffff" d="M102.24,-524.4C169.32,-524.4 291.13,-524.4 291.13,-524.4 291.13,-524.4 291.13,-695.2 291.13,-695.2 291.13,-695.2 347.74,-695.2 413.65,-695.2"/>
</g>
<!-- thinkofher&#45;&#45;Kanay&#45;komunikacji# -->
<g id="edge45" class="edge">
<title>thinkofher&#45;&#45;Kanay&#45;komunikacji#</title>
<path fill="none" stroke="#00ffff" d="M110.13,-502.78C110.13,-485.39 110.13,-449.5 110.13,-449.5 110.13,-449.5 358.45,-449.5 506.86,-449.5"/>
</g>
<!-- thinkofher&#45;&#45;Infrastruktura::Github#Github -->
<g id="edge43" class="edge">
<title>thinkofher&#45;&#45;Infrastruktura::Github#Github</title>
<path fill="none" stroke="#00ffff" d="M109.24,-521.6C179.32,-521.6 298.13,-521.6 298.13,-521.6 298.13,-521.6 298.13,-658.5 298.13,-658.5 298.13,-658.5 383.71,-658.5 465.95,-658.5"/>
</g>
<!-- thinkofher&#45;&#45;Marketing&#45;i&#45;media&#45;spoecznociowe# -->
<g id="edge47" class="edge">
<title>thinkofher&#45;&#45;Marketing&#45;i&#45;media&#45;spoecznociowe#</title>
<path fill="none" stroke="#00ffff" d="M91.19,-527.2C149.53,-527.2 267.13,-527.2 267.13,-527.2 267.13,-527.2 267.13,-741.29 267.13,-741.29 267.13,-741.29 359.85,-741.29 449.58,-741.29"/>
</g>
<!-- thinkofher&#45;&#45;Infrastruktura::IRC#IRC -->
<g id="edge48" class="edge">
<title>thinkofher&#45;&#45;Infrastruktura::IRC#IRC</title>
<path fill="none" stroke="#00ffff" d="M109.13,-501.94C109.13,-468.86 109.13,-365.6 109.13,-365.6 109.13,-365.6 342.92,-365.6 492.7,-365.6"/>
</g>
<!-- thinkofher&#45;&#45;Bazy&#45;danych# -->
<g id="edge46" class="edge">
<title>thinkofher&#45;&#45;Bazy&#45;danych#</title>
<path fill="none" stroke="#00ffff" d="M105.13,-500.58C105.13,-459.98 105.13,-325 105.13,-325 105.13,-325 401.08,-325 542.13,-325"/>
</g>
<!-- Infrastruktura::Matrix#hs&#45;ldz&#45;offtopic:hackerspace.pl -->
<g id="node34" class="node">
<title>Infrastruktura::Matrix#hs&#45;ldz&#45;offtopic:hackerspace.pl</title>
<ellipse fill="none" stroke="black" cx="615.21" cy="-534" rx="258.85" ry="18"/>
<text text-anchor="middle" x="615.21" y="-530.3" font-family="Times,serif" font-size="14.00">Infrastruktura::Matrix#hs&#45;ldz&#45;offtopic:hackerspace.pl</text>
</g>
<!-- thinkofher&#45;&#45;Infrastruktura::Matrix#hs&#45;ldz&#45;offtopic:hackerspace.pl -->
<g id="edge42" class="edge">
<title>thinkofher&#45;&#45;Infrastruktura::Matrix#hs&#45;ldz&#45;offtopic:hackerspace.pl</title>
<path fill="none" stroke="#00ffff" d="M113.98,-518.8C197.48,-518.8 359.16,-518.8 476.36,-518.8"/>
</g>
<!-- Infrastruktura::Matrix#hs&#45;ldz:hackerspace.pl -->
<g id="node35" class="node">
<title>Infrastruktura::Matrix#hs&#45;ldz:hackerspace.pl</title>
<ellipse fill="none" stroke="black" cx="615.21" cy="-491" rx="221.76" ry="18"/>
<text text-anchor="middle" x="615.21" y="-487.3" font-family="Times,serif" font-size="14.00">Infrastruktura::Matrix#hs&#45;ldz:hackerspace.pl</text>
</g>
<!-- thinkofher&#45;&#45;Infrastruktura::Matrix#hs&#45;ldz:hackerspace.pl -->
<g id="edge44" class="edge">
<title>thinkofher&#45;&#45;Infrastruktura::Matrix#hs&#45;ldz:hackerspace.pl</title>
<path fill="none" stroke="#00ffff" d="M107.52,-501.5C179.92,-501.5 320.23,-501.5 435.02,-501.5"/>
</g>
<!-- BluRaf -->
<g id="node36" class="node">
<title>BluRaf</title>
<ellipse fill="none" stroke="black" cx="59.14" cy="-362" rx="42.49" ry="18"/>
<text text-anchor="middle" x="59.14" y="-358.3" font-family="Times,serif" font-size="14.00">BluRaf</text>
</g>
<!-- BluRaf&#45;&#45;Infrastruktura::IRC#IRC -->
<g id="edge49" class="edge">
<title>BluRaf&#45;&#45;Infrastruktura::IRC#IRC</title>
<path fill="none" stroke="#ab00d5" d="M93.09,-351.2C175.39,-351.2 388.08,-351.2 515.17,-351.2"/>
</g>
<!-- biniu -->
<g id="node37" class="node">
<title>biniu</title>
<ellipse fill="none" stroke="black" cx="59.14" cy="-749" rx="34.39" ry="18"/>
<text text-anchor="middle" x="59.14" y="-745.3" font-family="Times,serif" font-size="14.00">biniu</text>
</g>
<!-- biniu&#45;&#45;Marketing&#45;i&#45;media&#45;spoecznociowe# -->
<g id="edge50" class="edge">
<title>biniu&#45;&#45;Marketing&#45;i&#45;media&#45;spoecznociowe#</title>
<path fill="none" stroke="#f29100" d="M90.63,-756.71C158.53,-756.71 322.79,-756.71 449.56,-756.71"/>
</g>
<!-- Keij0 -->
<g id="node38" class="node">
<title>Keij0</title>
<ellipse fill="none" stroke="black" cx="59.14" cy="-706" rx="34.39" ry="18"/>
<text text-anchor="middle" x="59.14" y="-702.3" font-family="Times,serif" font-size="14.00">Keij0</text>
</g>
<!-- Keij0&#45;&#45;Marketing&#45;i&#45;media&#45;spoecznociowe# -->
<g id="edge51" class="edge">
<title>Keij0&#45;&#45;Marketing&#45;i&#45;media&#45;spoecznociowe#</title>
<path fill="none" stroke="#00c64f" d="M93.23,-702.4C96.78,-702.4 99.13,-702.4 99.13,-702.4 99.13,-702.4 99.13,-751.57 99.13,-751.57 99.13,-751.57 284.98,-751.57 433.62,-751.57"/>
</g>
<!-- SP7Q -->
<g id="node39" class="node">
<title>SP7Q</title>
<ellipse fill="none" stroke="black" cx="59.14" cy="-835" rx="36.29" ry="18"/>
<text text-anchor="middle" x="59.14" y="-831.3" font-family="Times,serif" font-size="14.00">SP7Q</text>
</g>
<!-- SP7Q&#45;&#45;Stowarzyszenie#Zarzd -->
<g id="edge54" class="edge">
<title>SP7Q&#45;&#45;Stowarzyszenie#Zarzd</title>
<path fill="none" stroke="#2e00e4" d="M92.13,-842.87C92.13,-883.91 92.13,-1071.5 92.13,-1071.5 92.13,-1071.5 514.13,-1071.5 514.13,-1071.5 514.13,-1071.5 514.13,-1107.4 514.13,-1125.64"/>
</g>
<!-- SP7Q&#45;&#45;Infrastruktura::Github#Github -->
<g id="edge52" class="edge">
<title>SP7Q&#45;&#45;Infrastruktura::Github#Github</title>
<path fill="none" stroke="#2e00e4" d="M90.9,-826C160.06,-826 318.13,-826 318.13,-826 318.13,-826 318.13,-676.5 318.13,-676.5 318.13,-676.5 427.03,-676.5 512.97,-676.5"/>
</g>
<!-- SP7Q&#45;&#45;Marketing&#45;i&#45;media&#45;spoecznociowe# -->
<g id="edge53" class="edge">
<title>SP7Q&#45;&#45;Marketing&#45;i&#45;media&#45;spoecznociowe#</title>
<path fill="none" stroke="#2e00e4" d="M95.83,-835C190.94,-835 438.13,-835 438.13,-835 438.13,-835 438.13,-772.64 438.13,-754.12"/>
</g>
<!-- kpc -->
<g id="node40" class="node">
<title>kpc</title>
<ellipse fill="none" stroke="black" cx="59.14" cy="-276" rx="27" ry="18"/>
<text text-anchor="middle" x="59.14" y="-272.3" font-family="Times,serif" font-size="14.00">kpc</text>
</g>
<!-- kpc&#45;&#45;Infrastruktura::Telegram#posty: t.me/hakierspejs_spam -->
<g id="edge56" class="edge">
<title>kpc&#45;&#45;Infrastruktura::Telegram#posty: t.me/hakierspejs_spam</title>
<path fill="none" stroke="#ff0000" d="M84.85,-282C148.47,-282 308.13,-282 308.13,-282 308.13,-282 308.13,-577 308.13,-577 308.13,-577 316.69,-577 330.96,-577"/>
</g>
<!-- kpc&#45;&#45;Marketing&#45;i&#45;media&#45;spoecznociowe# -->
<g id="edge58" class="edge">
<title>kpc&#45;&#45;Marketing&#45;i&#45;media&#45;spoecznociowe#</title>
<path fill="none" stroke="#ff0000" d="M79.47,-288C132.53,-288 271.13,-288 271.13,-288 271.13,-288 271.13,-736.14 271.13,-736.14 271.13,-736.14 388.86,-736.14 486.6,-736.14"/>
</g>
<!-- kpc&#45;&#45;Stowarzyszenie#Komisja Rewizyjna -->
<g id="edge57" class="edge">
<title>kpc&#45;&#45;Stowarzyszenie#Komisja Rewizyjna</title>
<path fill="none" stroke="#ff0000" d="M79.7,-264C141.46,-264 321.13,-264 321.13,-264 321.13,-264 321.13,-199 321.13,-199 321.13,-199 389.85,-199 460.85,-199"/>
</g>
<!-- Infrastruktura::Telegram#Posty wyklte (celowo bez linka) -->
<g id="node41" class="node">
<title>Infrastruktura::Telegram#Posty wyklte (celowo bez linka)</title>
<ellipse fill="none" stroke="black" cx="615.21" cy="-276" rx="284.05" ry="18"/>
<text text-anchor="middle" x="615.21" y="-272.3" font-family="Times,serif" font-size="14.00">Infrastruktura::Telegram#Posty wyklte (celowo bez linka)</text>
</g>
<!-- kpc&#45;&#45;Infrastruktura::Telegram#Posty wyklte (celowo bez linka) -->
<g id="edge55" class="edge">
<title>kpc&#45;&#45;Infrastruktura::Telegram#Posty wyklte (celowo bez linka)</title>
<path fill="none" stroke="#ff0000" d="M86.34,-276C132.57,-276 231.19,-276 330.88,-276"/>
</g>
<!-- Czaty&#45;HS#HS: posty wyklte -->
<g id="node42" class="node">
<title>Czaty&#45;HS#HS: posty wyklte</title>
<ellipse fill="none" stroke="black" cx="615.21" cy="-233" rx="157.87" ry="18"/>
<text text-anchor="middle" x="615.21" y="-229.3" font-family="Times,serif" font-size="14.00">Czaty&#45;HS#HS: posty wyklte</text>
</g>
<!-- kpc&#45;&#45;Czaty&#45;HS#HS: posty wyklte -->
<g id="edge59" class="edge">
<title>kpc&#45;&#45;Czaty&#45;HS#HS: posty wyklte</title>
<path fill="none" stroke="#ff0000" d="M84.65,-270C151.22,-270 325.13,-270 325.13,-270 325.13,-270 325.13,-239 325.13,-239 325.13,-239 394.84,-239 465.92,-239"/>
</g>
<!-- kujaw -->
<g id="node43" class="node">
<title>kujaw</title>
<ellipse fill="none" stroke="black" cx="59.14" cy="-1093" rx="38.19" ry="18"/>
<text text-anchor="middle" x="59.14" y="-1089.3" font-family="Times,serif" font-size="14.00">kujaw</text>
</g>
<!-- kujaw&#45;&#45;Stowarzyszenie#Zarzd -->
<g id="edge63" class="edge">
<title>kujaw&#45;&#45;Stowarzyszenie#Zarzd</title>
<path fill="none" stroke="#2bd500" d="M97.04,-1096.6C203.76,-1096.6 499.13,-1096.6 499.13,-1096.6 499.13,-1096.6 499.13,-1118.76 499.13,-1129.84"/>
</g>
<!-- kujaw&#45;&#45;Marketing&#45;i&#45;media&#45;spoecznociowe# -->
<g id="edge61" class="edge">
<title>kujaw&#45;&#45;Marketing&#45;i&#45;media&#45;spoecznociowe#</title>
<path fill="none" stroke="#2bd500" d="M90.13,-1082.32C90.13,-1041.76 90.13,-899.5 90.13,-899.5 90.13,-899.5 443.13,-899.5 443.13,-899.5 443.13,-899.5 443.13,-784.27 443.13,-755.47"/>
</g>
<!-- kujaw&#45;&#45;Marketing&#45;i&#45;media&#45;spoecznociowe#Naklejki -->
<g id="edge62" class="edge">
<title>kujaw&#45;&#45;Marketing&#45;i&#45;media&#45;spoecznociowe#Naklejki</title>
<path fill="none" stroke="#2bd500" d="M94.13,-1085.51C94.13,-1074.7 94.13,-1056 94.13,-1056 94.13,-1056 261.01,-1056 405.89,-1056"/>
</g>
<!-- kujaw&#45;&#45;Marketing&#45;i&#45;media&#45;spoecznociowe#Logo nr 2 -->
<g id="edge60" class="edge">
<title>kujaw&#45;&#45;Marketing&#45;i&#45;media&#45;spoecznociowe#Logo nr 2</title>
<path fill="none" stroke="#2bd500" d="M89.92,-1103.8C181.04,-1103.8 443.13,-1103.8 443.13,-1103.8 443.13,-1103.8 443.13,-1145.66 443.13,-1166.92"/>
</g>
<!-- pzduniak -->
<g id="node44" class="node">
<title>pzduniak</title>
<ellipse fill="none" stroke="black" cx="59.14" cy="-233" rx="52.79" ry="18"/>
<text text-anchor="middle" x="59.14" y="-229.3" font-family="Times,serif" font-size="14.00">pzduniak</text>
</g>
<!-- pzduniak&#45;&#45;Stowarzyszenie#Komisja Rewizyjna -->
<g id="edge64" class="edge">
<title>pzduniak&#45;&#45;Stowarzyszenie#Komisja Rewizyjna</title>
<path fill="none" stroke="#0061f2" d="M108.8,-227C213.67,-227 448.13,-227 448.13,-227 448.13,-227 448.13,-207.05 448.13,-196.44"/>
</g>
<!-- krcz -->
<g id="node45" class="node">
<title>krcz</title>
<ellipse fill="none" stroke="black" cx="59.14" cy="-190" rx="30.59" ry="18"/>
<text text-anchor="middle" x="59.14" y="-186.3" font-family="Times,serif" font-size="14.00">krcz</text>
</g>
<!-- krcz&#45;&#45;Stowarzyszenie#Komisja Rewizyjna -->
<g id="edge65" class="edge">
<title>krcz&#45;&#45;Stowarzyszenie#Komisja Rewizyjna</title>
<path fill="none" stroke="#c60077" d="M89.83,-190C155.01,-190 311.52,-190 436.88,-190"/>
</g>
</g>
</svg>
