<?xml version="1.0" encoding="UTF-8" standalone="no"?>
<!DOCTYPE svg PUBLIC "-//W3C//DTD SVG 1.1//EN"
 "http://www.w3.org/Graphics/SVG/1.1/DTD/svg11.dtd">
<!-- Generated by graphviz version 2.43.0 (0)
 -->
<!-- Title: %3 Pages: 1 -->
<svg width="994pt" height="1355pt"
 viewBox="0.00 0.00 994.00 1355.00" xmlns="http://www.w3.org/2000/svg" xmlns:xlink="http://www.w3.org/1999/xlink">
<g id="graph0" class="graph" transform="scale(1 1) rotate(0) translate(4 1351)">
<title>%3</title>
<polygon fill="white" stroke="transparent" points="-4,4 -4,-1351 990,-1351 990,4 -4,4"/>
<!-- cytP450 -->
<g id="node1" class="node">
<title>cytP450</title>
<ellipse fill="none" stroke="black" cx="77.02" cy="-1028" rx="48.99" ry="18"/>
<text text-anchor="middle" x="77.02" y="-1024.3" font-family="Times,serif" font-size="14.00">cytP450</text>
</g>
<!-- Zamek#Zamek -->
<g id="node2" class="node">
<title>Zamek#Zamek</title>
<ellipse fill="none" stroke="black" cx="633.08" cy="-1136" rx="81.49" ry="18"/>
<text text-anchor="middle" x="633.08" y="-1132.3" font-family="Times,serif" font-size="14.00">Zamek#Zamek</text>
</g>
<!-- cytP450&#45;&#45;Zamek#Zamek -->
<g id="edge1" class="edge">
<title>cytP450&#45;&#45;Zamek#Zamek</title>
<path fill="none" stroke="#ff0000" d="M117,-1038.38C117,-1064.05 117,-1128.5 117,-1128.5 117,-1128.5 416.44,-1128.5 559.14,-1128.5"/>
</g>
<!-- Stowarzyszenie#Komisja Rewizyjna -->
<g id="node3" class="node">
<title>Stowarzyszenie#Komisja Rewizyjna</title>
<ellipse fill="none" stroke="black" cx="633.08" cy="-1179" rx="178.17" ry="18"/>
<text text-anchor="middle" x="633.08" y="-1175.3" font-family="Times,serif" font-size="14.00">Stowarzyszenie#Komisja Rewizyjna</text>
</g>
<!-- cytP450&#45;&#45;Stowarzyszenie#Komisja Rewizyjna -->
<g id="edge2" class="edge">
<title>cytP450&#45;&#45;Stowarzyszenie#Komisja Rewizyjna</title>
<path fill="none" stroke="#ff0000" d="M113,-1040.42C113,-1074.69 113,-1168 113,-1168 113,-1168 337.98,-1168 492,-1168"/>
</g>
<!-- Miejsce::Miejsce#Klucze do spejsu -->
<g id="node4" class="node">
<title>Miejsce::Miejsce#Klucze do spejsu</title>
<ellipse fill="none" stroke="black" cx="633.08" cy="-835" rx="172.77" ry="18"/>
<text text-anchor="middle" x="633.08" y="-831.3" font-family="Times,serif" font-size="14.00">Miejsce::Miejsce#Klucze do spejsu</text>
</g>
<!-- cytP450&#45;&#45;Miejsce::Miejsce#Klucze do spejsu -->
<g id="edge3" class="edge">
<title>cytP450&#45;&#45;Miejsce::Miejsce#Klucze do spejsu</title>
<path fill="none" stroke="#ff0000" d="M108,-1014.01C108,-971.34 108,-845.8 108,-845.8 108,-845.8 338.87,-845.8 494.44,-845.8"/>
</g>
<!-- Infrastruktura::Domeny#Domeny -->
<g id="node5" class="node">
<title>Infrastruktura::Domeny#Domeny</title>
<ellipse fill="none" stroke="black" cx="633.08" cy="-878" rx="167.07" ry="18"/>
<text text-anchor="middle" x="633.08" y="-874.3" font-family="Times,serif" font-size="14.00">Infrastruktura::Domeny#Domeny</text>
</g>
<!-- cytP450&#45;&#45;Infrastruktura::Domeny#Domeny -->
<g id="edge4" class="edge">
<title>cytP450&#45;&#45;Infrastruktura::Domeny#Domeny</title>
<path fill="none" stroke="#ff0000" d="M110,-1014.6C110,-980.09 110,-890.86 110,-890.86 110,-890.86 361.82,-890.86 516.02,-890.86"/>
</g>
<!-- Przegld&#45;lokali&#45;na&#45;wynajem&#45;w&#45;odzi.&#45;Fundusz&#45;1000&#45;&#45;&#45;1500.#Bot Aleksego -->
<g id="node6" class="node">
<title>Przegld&#45;lokali&#45;na&#45;wynajem&#45;w&#45;odzi.&#45;Fundusz&#45;1000&#45;&#45;&#45;1500.#Bot Aleksego</title>
<ellipse fill="none" stroke="black" cx="633.08" cy="-1093" rx="351.74" ry="18"/>
<text text-anchor="middle" x="633.08" y="-1089.3" font-family="Times,serif" font-size="14.00">Przegld&#45;lokali&#45;na&#45;wynajem&#45;w&#45;odzi.&#45;Fundusz&#45;1000&#45;&#45;&#45;1500.#Bot Aleksego</text>
</g>
<!-- cytP450&#45;&#45;Przegld&#45;lokali&#45;na&#45;wynajem&#45;w&#45;odzi.&#45;Fundusz&#45;1000&#45;&#45;&#45;1500.#Bot Aleksego -->
<g id="edge5" class="edge">
<title>cytP450&#45;&#45;Przegld&#45;lokali&#45;na&#45;wynajem&#45;w&#45;odzi.&#45;Fundusz&#45;1000&#45;&#45;&#45;1500.#Bot Aleksego</title>
<path fill="none" stroke="#ff0000" d="M122,-1034.96C122,-1051.72 122,-1093 122,-1093 122,-1093 192.57,-1093 281.26,-1093"/>
</g>
<!-- Chciejlista#Elektronika (w sensie urzdze konsumenckich) -->
<g id="node7" class="node">
<title>Chciejlista#Elektronika (w sensie urzdze konsumenckich)</title>
<ellipse fill="none" stroke="black" cx="633.08" cy="-1050" rx="289.75" ry="18"/>
<text text-anchor="middle" x="633.08" y="-1046.3" font-family="Times,serif" font-size="14.00">Chciejlista#Elektronika (w sensie urzdze konsumenckich)</text>
</g>
<!-- cytP450&#45;&#45;Chciejlista#Elektronika (w sensie urzdze konsumenckich) -->
<g id="edge6" class="edge">
<title>cytP450&#45;&#45;Chciejlista#Elektronika (w sensie urzdze konsumenckich)</title>
<path fill="none" stroke="#ff0000" d="M115.68,-1039C175.4,-1039 294.62,-1039 403.58,-1039"/>
</g>
<!-- Kanay&#45;komunikacji# -->
<g id="node8" class="node">
<title>Kanay&#45;komunikacji#</title>
<ellipse fill="none" stroke="black" cx="633.08" cy="-577" rx="108.58" ry="18"/>
<text text-anchor="middle" x="633.08" y="-573.3" font-family="Times,serif" font-size="14.00">Kanay&#45;komunikacji#</text>
</g>
<!-- cytP450&#45;&#45;Kanay&#45;komunikacji# -->
<g id="edge7" class="edge">
<title>cytP450&#45;&#45;Kanay&#45;komunikacji#</title>
<path fill="none" stroke="#ff0000" d="M110.87,-1015C163.01,-1015 257,-1015 257,-1015 257,-1015 257,-589 257,-589 257,-589 441.38,-589 551.94,-589"/>
</g>
<!-- Chciejlista#DIY -->
<g id="node9" class="node">
<title>Chciejlista#DIY</title>
<ellipse fill="none" stroke="black" cx="633.08" cy="-1007" rx="83.69" ry="18"/>
<text text-anchor="middle" x="633.08" y="-1003.3" font-family="Times,serif" font-size="14.00">Chciejlista#DIY</text>
</g>
<!-- cytP450&#45;&#45;Chciejlista#DIY -->
<g id="edge8" class="edge">
<title>cytP450&#45;&#45;Chciejlista#DIY</title>
<path fill="none" stroke="#ff0000" d="M121.12,-1020C220.78,-1020 463.4,-1020 575.08,-1020"/>
</g>
<!-- thinkofher -->
<g id="node10" class="node">
<title>thinkofher</title>
<ellipse fill="none" stroke="black" cx="77.02" cy="-147" rx="59.29" ry="18"/>
<text text-anchor="middle" x="77.02" y="-143.3" font-family="Times,serif" font-size="14.00">thinkofher</text>
</g>
<!-- thinkofher&#45;&#45;Kanay&#45;komunikacji# -->
<g id="edge12" class="edge">
<title>thinkofher&#45;&#45;Kanay&#45;komunikacji#</title>
<path fill="none" stroke="#2bd500" d="M121.49,-135C179.31,-135 273,-135 273,-135 273,-135 273,-565 273,-565 273,-565 445.62,-565 551.82,-565"/>
</g>
<!-- Infrastruktura::Matrix#hs&#45;ldz&#45;offtopic:hackerspace.pl -->
<g id="node11" class="node">
<title>Infrastruktura::Matrix#hs&#45;ldz&#45;offtopic:hackerspace.pl</title>
<ellipse fill="none" stroke="black" cx="633.08" cy="-61" rx="258.85" ry="18"/>
<text text-anchor="middle" x="633.08" y="-57.3" font-family="Times,serif" font-size="14.00">Infrastruktura::Matrix#hs&#45;ldz&#45;offtopic:hackerspace.pl</text>
</g>
<!-- thinkofher&#45;&#45;Infrastruktura::Matrix#hs&#45;ldz&#45;offtopic:hackerspace.pl -->
<g id="edge9" class="edge">
<title>thinkofher&#45;&#45;Infrastruktura::Matrix#hs&#45;ldz&#45;offtopic:hackerspace.pl</title>
<path fill="none" stroke="#2bd500" d="M132.92,-141C219.97,-141 378,-141 378,-141 378,-141 378,-78.65 378,-64.04"/>
</g>
<!-- Bazy&#45;danych# -->
<g id="node12" class="node">
<title>Bazy&#45;danych#</title>
<ellipse fill="none" stroke="black" cx="633.08" cy="-104" rx="77.19" ry="18"/>
<text text-anchor="middle" x="633.08" y="-100.3" font-family="Times,serif" font-size="14.00">Bazy&#45;danych#</text>
</g>
<!-- thinkofher&#45;&#45;Bazy&#45;danych# -->
<g id="edge10" class="edge">
<title>thinkofher&#45;&#45;Bazy&#45;danych#</title>
<path fill="none" stroke="#2bd500" d="M131,-139.51C131,-127.19 131,-104 131,-104 131,-104 414.89,-104 555.73,-104"/>
</g>
<!-- Marketing&#45;i&#45;media&#45;spoecznociowe# -->
<g id="node13" class="node">
<title>Marketing&#45;i&#45;media&#45;spoecznociowe#</title>
<ellipse fill="none" stroke="black" cx="633.08" cy="-319" rx="183.07" ry="18"/>
<text text-anchor="middle" x="633.08" y="-315.3" font-family="Times,serif" font-size="14.00">Marketing&#45;i&#45;media&#45;spoecznociowe#</text>
</g>
<!-- thinkofher&#45;&#45;Marketing&#45;i&#45;media&#45;spoecznociowe# -->
<g id="edge11" class="edge">
<title>thinkofher&#45;&#45;Marketing&#45;i&#45;media&#45;spoecznociowe#</title>
<path fill="none" stroke="#2bd500" d="M123,-158.4C123,-194.74 123,-305.5 123,-305.5 123,-305.5 360.68,-305.5 511.55,-305.5"/>
</g>
<!-- Infrastruktura::Matrix#hs&#45;ldz:hackerspace.pl -->
<g id="node14" class="node">
<title>Infrastruktura::Matrix#hs&#45;ldz:hackerspace.pl</title>
<ellipse fill="none" stroke="black" cx="633.08" cy="-18" rx="221.76" ry="18"/>
<text text-anchor="middle" x="633.08" y="-14.3" font-family="Times,serif" font-size="14.00">Infrastruktura::Matrix#hs&#45;ldz:hackerspace.pl</text>
</g>
<!-- thinkofher&#45;&#45;Infrastruktura::Matrix#hs&#45;ldz:hackerspace.pl -->
<g id="edge13" class="edge">
<title>thinkofher&#45;&#45;Infrastruktura::Matrix#hs&#45;ldz:hackerspace.pl</title>
<path fill="none" stroke="#2bd500" d="M125,-136.44C125,-105.63 125,-18 125,-18 125,-18 274.52,-18 411.34,-18"/>
</g>
<!-- Infrastruktura::Telegram#G贸wny: t.me/hakierspejs -->
<g id="node15" class="node">
<title>Infrastruktura::Telegram#G贸wny: t.me/hakierspejs</title>
<ellipse fill="none" stroke="black" cx="633.08" cy="-233" rx="251.56" ry="18"/>
<text text-anchor="middle" x="633.08" y="-229.3" font-family="Times,serif" font-size="14.00">Infrastruktura::Telegram#G贸wny: t.me/hakierspejs</text>
</g>
<!-- thinkofher&#45;&#45;Infrastruktura::Telegram#G贸wny: t.me/hakierspejs -->
<g id="edge14" class="edge">
<title>thinkofher&#45;&#45;Infrastruktura::Telegram#G贸wny: t.me/hakierspejs</title>
<path fill="none" stroke="#2bd500" d="M127,-156.75C127,-177.47 127,-224 127,-224 127,-224 278.08,-224 415.15,-224"/>
</g>
<!-- Infrastruktura::Github#Github -->
<g id="node16" class="node">
<title>Infrastruktura::Github#Github</title>
<ellipse fill="none" stroke="black" cx="633.08" cy="-190" rx="154.07" ry="18"/>
<text text-anchor="middle" x="633.08" y="-186.3" font-family="Times,serif" font-size="14.00">Infrastruktura::Github#Github</text>
</g>
<!-- thinkofher&#45;&#45;Infrastruktura::Github#Github -->
<g id="edge15" class="edge">
<title>thinkofher&#45;&#45;Infrastruktura::Github#Github</title>
<path fill="none" stroke="#2bd500" d="M130,-155.12C130,-168.47 130,-193.6 130,-193.6 130,-193.6 333.95,-193.6 482.14,-193.6"/>
</g>
<!-- Infrastruktura::IRC#IRC -->
<g id="node17" class="node">
<title>Infrastruktura::IRC#IRC</title>
<ellipse fill="none" stroke="black" cx="633.08" cy="-147" rx="124.58" ry="18"/>
<text text-anchor="middle" x="633.08" y="-143.3" font-family="Times,serif" font-size="14.00">Infrastruktura::IRC#IRC</text>
</g>
<!-- thinkofher&#45;&#45;Infrastruktura::IRC#IRC -->
<g id="edge16" class="edge">
<title>thinkofher&#45;&#45;Infrastruktura::IRC#IRC</title>
<path fill="none" stroke="#2bd500" d="M136.26,-147C224.41,-147 392.15,-147 508.18,-147"/>
</g>
<!-- kpc -->
<g id="node18" class="node">
<title>kpc</title>
<ellipse fill="none" stroke="black" cx="77.02" cy="-878" rx="27" ry="18"/>
<text text-anchor="middle" x="77.02" y="-874.3" font-family="Times,serif" font-size="14.00">kpc</text>
</g>
<!-- kpc&#45;&#45;Stowarzyszenie#Komisja Rewizyjna -->
<g id="edge19" class="edge">
<title>kpc&#45;&#45;Stowarzyszenie#Komisja Rewizyjna</title>
<path fill="none" stroke="#0061f2" d="M104.02,-880.57C125.86,-880.57 153,-880.57 153,-880.57 153,-880.57 153,-1164.5 153,-1164.5 153,-1164.5 386.08,-1164.5 527.43,-1164.5"/>
</g>
<!-- kpc&#45;&#45;Miejsce::Miejsce#Klucze do spejsu -->
<g id="edge21" class="edge">
<title>kpc&#45;&#45;Miejsce::Miejsce#Klucze do spejsu</title>
<path fill="none" stroke="#0061f2" d="M78,-859.68C78,-849.4 78,-838.6 78,-838.6 78,-838.6 300.28,-838.6 463.52,-838.6"/>
</g>
<!-- kpc&#45;&#45;Marketing&#45;i&#45;media&#45;spoecznociowe# -->
<g id="edge22" class="edge">
<title>kpc&#45;&#45;Marketing&#45;i&#45;media&#45;spoecznociowe#</title>
<path fill="none" stroke="#0061f2" d="M96.06,-865.14C136.03,-865.14 225,-865.14 225,-865.14 225,-865.14 225,-332.5 225,-332.5 225,-332.5 391.46,-332.5 511.75,-332.5"/>
</g>
<!-- Infrastruktura::Telegram#posty: t.me/hakierspejs_spam -->
<g id="node19" class="node">
<title>Infrastruktura::Telegram#posty: t.me/hakierspejs_spam</title>
<ellipse fill="none" stroke="black" cx="633.08" cy="-749" rx="284.05" ry="18"/>
<text text-anchor="middle" x="633.08" y="-745.3" font-family="Times,serif" font-size="14.00">Infrastruktura::Telegram#posty: t.me/hakierspejs_spam</text>
</g>
<!-- kpc&#45;&#45;Infrastruktura::Telegram#posty: t.me/hakierspejs_spam -->
<g id="edge17" class="edge">
<title>kpc&#45;&#45;Infrastruktura::Telegram#posty: t.me/hakierspejs_spam</title>
<path fill="none" stroke="#0061f2" d="M103.99,-875.43C177.87,-875.43 378,-875.43 378,-875.43 378,-875.43 378,-785.42 378,-757.3"/>
</g>
<!-- Czaty&#45;HS#HS: posty wyklte -->
<g id="node20" class="node">
<title>Czaty&#45;HS#HS: posty wyklte</title>
<ellipse fill="none" stroke="black" cx="633.08" cy="-964" rx="157.87" ry="18"/>
<text text-anchor="middle" x="633.08" y="-960.3" font-family="Times,serif" font-size="14.00">Czaty&#45;HS#HS: posty wyklte</text>
</g>
<!-- kpc&#45;&#45;Czaty&#45;HS#HS: posty wyklte -->
<g id="edge18" class="edge">
<title>kpc&#45;&#45;Czaty&#45;HS#HS: posty wyklte</title>
<path fill="none" stroke="#0061f2" d="M69,-895.4C69,-920.53 69,-964 69,-964 69,-964 307.97,-964 474.83,-964"/>
</g>
<!-- Infrastruktura::Telegram#Posty wyklte (celowo bez linka) -->
<g id="node21" class="node">
<title>Infrastruktura::Telegram#Posty wyklte (celowo bez linka)</title>
<ellipse fill="none" stroke="black" cx="633.08" cy="-921" rx="284.05" ry="18"/>
<text text-anchor="middle" x="633.08" y="-917.3" font-family="Times,serif" font-size="14.00">Infrastruktura::Telegram#Posty wyklte (celowo bez linka)</text>
</g>
<!-- kpc&#45;&#45;Infrastruktura::Telegram#Posty wyklte (celowo bez linka) -->
<g id="edge20" class="edge">
<title>kpc&#45;&#45;Infrastruktura::Telegram#Posty wyklte (celowo bez linka)</title>
<path fill="none" stroke="#0061f2" d="M87,-894.99C87,-907.01 87,-921 87,-921 87,-921 216.16,-921 348.84,-921"/>
</g>
<!-- d33tah -->
<g id="node22" class="node">
<title>d33tah</title>
<ellipse fill="none" stroke="black" cx="77.02" cy="-469" rx="43.59" ry="18"/>
<text text-anchor="middle" x="77.02" y="-465.3" font-family="Times,serif" font-size="14.00">d33tah</text>
</g>
<!-- d33tah&#45;&#45;Miejsce::Miejsce#Klucze do spejsu -->
<g id="edge27" class="edge">
<title>d33tah&#45;&#45;Miejsce::Miejsce#Klucze do spejsu</title>
<path fill="none" stroke="#c60077" d="M33.11,-469C15.81,-469 0,-469 0,-469 0,-469 0,-831.4 0,-831.4 0,-831.4 275.9,-831.4 463.43,-831.4"/>
</g>
<!-- d33tah&#45;&#45;Infrastruktura::Domeny#Domeny -->
<g id="edge29" class="edge">
<title>d33tah&#45;&#45;Infrastruktura::Domeny#Domeny</title>
<path fill="none" stroke="#c60077" d="M58,-485.2C58,-535.31 58,-684.5 58,-684.5 58,-684.5 323,-684.5 323,-684.5 323,-684.5 323,-870.29 323,-870.29 323,-870.29 403.27,-870.29 482.13,-870.29"/>
</g>
<!-- d33tah&#45;&#45;Kanay&#45;komunikacji# -->
<g id="edge32" class="edge">
<title>d33tah&#45;&#45;Kanay&#45;komunikacji#</title>
<path fill="none" stroke="#c60077" d="M78,-487.32C78,-518.13 78,-577 78,-577 78,-577 362.81,-577 524.41,-577"/>
</g>
<!-- d33tah&#45;&#45;Marketing&#45;i&#45;media&#45;spoecznociowe# -->
<g id="edge30" class="edge">
<title>d33tah&#45;&#45;Marketing&#45;i&#45;media&#45;spoecznociowe#</title>
<path fill="none" stroke="#c60077" d="M108.71,-456.62C143.05,-456.62 193,-456.62 193,-456.62 193,-456.62 193,-323.5 193,-323.5 193,-323.5 333.21,-323.5 455.35,-323.5"/>
</g>
<!-- d33tah&#45;&#45;Infrastruktura::Telegram#G贸wny: t.me/hakierspejs -->
<g id="edge33" class="edge">
<title>d33tah&#45;&#45;Infrastruktura::Telegram#G贸wny: t.me/hakierspejs</title>
<path fill="none" stroke="#c60077" d="M115.33,-460.38C199.27,-460.38 392,-460.38 392,-460.38 392,-460.38 392,-272.02 392,-238.18"/>
</g>
<!-- d33tah&#45;&#45;Infrastruktura::Github#Github -->
<g id="edge37" class="edge">
<title>d33tah&#45;&#45;Infrastruktura::Github#Github</title>
<path fill="none" stroke="#c60077" d="M96.77,-452.88C125.91,-452.88 177,-452.88 177,-452.88 177,-452.88 177,-204.4 177,-204.4 177,-204.4 407.2,-204.4 540.51,-204.4"/>
</g>
<!-- d33tah&#45;&#45;Infrastruktura::IRC#IRC -->
<g id="edge38" class="edge">
<title>d33tah&#45;&#45;Infrastruktura::IRC#IRC</title>
<path fill="none" stroke="#c60077" d="M120.84,-469.5C134,-469.5 145,-469.5 145,-469.5 145,-469.5 145,-153 145,-153 145,-153 370.81,-153 515.24,-153"/>
</g>
<!-- d33tah&#45;&#45;Infrastruktura::Telegram#posty: t.me/hakierspejs_spam -->
<g id="edge23" class="edge">
<title>d33tah&#45;&#45;Infrastruktura::Telegram#posty: t.me/hakierspejs_spam</title>
<path fill="none" stroke="#c60077" d="M100.41,-484.2C125.26,-484.2 161,-484.2 161,-484.2 161,-484.2 161,-755 161,-755 161,-755 258.56,-755 364.97,-755"/>
</g>
<!-- Stowarzyszenie#Zarzd -->
<g id="node23" class="node">
<title>Stowarzyszenie#Zarzd</title>
<ellipse fill="none" stroke="black" cx="633.08" cy="-362" rx="123.48" ry="18"/>
<text text-anchor="middle" x="633.08" y="-358.3" font-family="Times,serif" font-size="14.00">Stowarzyszenie#Zarzd</text>
</g>
<!-- d33tah&#45;&#45;Stowarzyszenie#Zarzd -->
<g id="edge24" class="edge">
<title>d33tah&#45;&#45;Stowarzyszenie#Zarzd</title>
<path fill="none" stroke="#c60077" d="M112.55,-458.5C149.18,-458.5 201,-458.5 201,-458.5 201,-458.5 201,-371 201,-371 201,-371 398.04,-371 526,-371"/>
</g>
<!-- Infrastruktura::Telegram#HS24: t.me/hsl_info -->
<g id="node24" class="node">
<title>Infrastruktura::Telegram#HS24: t.me/hsl_info</title>
<ellipse fill="none" stroke="black" cx="633.08" cy="-405" rx="231.26" ry="18"/>
<text text-anchor="middle" x="633.08" y="-401.3" font-family="Times,serif" font-size="14.00">Infrastruktura::Telegram#HS24: t.me/hsl_info</text>
</g>
<!-- d33tah&#45;&#45;Infrastruktura::Telegram#HS24: t.me/hsl_info -->
<g id="edge25" class="edge">
<title>d33tah&#45;&#45;Infrastruktura::Telegram#HS24: t.me/hsl_info</title>
<path fill="none" stroke="#c60077" d="M117.71,-462.25C208.56,-462.25 420,-462.25 420,-462.25 420,-462.25 420,-427.31 420,-412.02"/>
</g>
<!-- Bazy&#45;danych#Grafana -->
<g id="node25" class="node">
<title>Bazy&#45;danych#Grafana</title>
<ellipse fill="none" stroke="black" cx="633.08" cy="-276" rx="114.28" ry="18"/>
<text text-anchor="middle" x="633.08" y="-272.3" font-family="Times,serif" font-size="14.00">Bazy&#45;danych#Grafana</text>
</g>
<!-- d33tah&#45;&#45;Bazy&#45;danych#Grafana -->
<g id="edge26" class="edge">
<title>d33tah&#45;&#45;Bazy&#45;danych#Grafana</title>
<path fill="none" stroke="#c60077" d="M103.71,-454.75C135.69,-454.75 185,-454.75 185,-454.75 185,-454.75 185,-282 185,-282 185,-282 392.6,-282 525.18,-282"/>
</g>
<!-- Infrastruktura::Telegram#Spacerspejs: t.me/joinchat/UYf2ONtNj21J1DS6 -->
<g id="node26" class="node">
<title>Infrastruktura::Telegram#Spacerspejs: t.me/joinchat/UYf2ONtNj21J1DS6</title>
<ellipse fill="none" stroke="black" cx="633.08" cy="-663" rx="352.84" ry="18"/>
<text text-anchor="middle" x="633.08" y="-659.3" font-family="Times,serif" font-size="14.00">Infrastruktura::Telegram#Spacerspejs: t.me/joinchat/UYf2ONtNj21J1DS6</text>
</g>
<!-- d33tah&#45;&#45;Infrastruktura::Telegram#Spacerspejs: t.me/joinchat/UYf2ONtNj21J1DS6 -->
<g id="edge28" class="edge">
<title>d33tah&#45;&#45;Infrastruktura::Telegram#Spacerspejs: t.me/joinchat/UYf2ONtNj21J1DS6</title>
<path fill="none" stroke="#c60077" d="M108.8,-481.4C176.34,-481.4 328,-481.4 328,-481.4 328,-481.4 328,-616.74 328,-653.74"/>
</g>
<!-- Infrastruktura::Mariuszbot#Mariuszbot -->
<g id="node27" class="node">
<title>Infrastruktura::Mariuszbot#Mariuszbot</title>
<ellipse fill="none" stroke="black" cx="633.08" cy="-620" rx="196.07" ry="18"/>
<text text-anchor="middle" x="633.08" y="-616.3" font-family="Times,serif" font-size="14.00">Infrastruktura::Mariuszbot#Mariuszbot</text>
</g>
<!-- d33tah&#45;&#45;Infrastruktura::Mariuszbot#Mariuszbot -->
<g id="edge31" class="edge">
<title>d33tah&#45;&#45;Infrastruktura::Mariuszbot#Mariuszbot</title>
<path fill="none" stroke="#c60077" d="M114.1,-478.6C212.9,-478.6 475,-478.6 475,-478.6 475,-478.6 475,-575.57 475,-608.9"/>
</g>
<!-- Bazy&#45;danych#Trello -->
<g id="node28" class="node">
<title>Bazy&#45;danych#Trello</title>
<ellipse fill="none" stroke="black" cx="633.08" cy="-534" rx="103.98" ry="18"/>
<text text-anchor="middle" x="633.08" y="-530.3" font-family="Times,serif" font-size="14.00">Bazy&#45;danych#Trello</text>
</g>
<!-- d33tah&#45;&#45;Bazy&#45;danych#Trello -->
<g id="edge34" class="edge">
<title>d33tah&#45;&#45;Bazy&#45;danych#Trello</title>
<path fill="none" stroke="#c60077" d="M97,-485.07C97,-504.32 97,-534 97,-534 97,-534 373.19,-534 529.08,-534"/>
</g>
<!-- Drzwi&#45;frontowe#Ekran  -->
<g id="node29" class="node">
<title>Drzwi&#45;frontowe#Ekran </title>
<ellipse fill="none" stroke="black" cx="633.08" cy="-491" rx="120.78" ry="18"/>
<text text-anchor="middle" x="633.08" y="-487.3" font-family="Times,serif" font-size="14.00">Drzwi&#45;frontowe#Ekran </text>
</g>
<!-- d33tah&#45;&#45;Drzwi&#45;frontowe#Ekran  -->
<g id="edge35" class="edge">
<title>d33tah&#45;&#45;Drzwi&#45;frontowe#Ekran </title>
<path fill="none" stroke="black" d="M117.46,-475.8C212.8,-475.8 452.33,-475.8 568.25,-475.8"/>
</g>
<!-- Bazy&#45;danych#Pad -->
<g id="node33" class="node">
<title>Bazy&#45;danych#Pad</title>
<ellipse fill="none" stroke="black" cx="633.08" cy="-448" rx="94.48" ry="18"/>
<text text-anchor="middle" x="633.08" y="-444.3" font-family="Times,serif" font-size="14.00">Bazy&#45;danych#Pad</text>
</g>
<!-- d33tah&#45;&#45;Bazy&#45;danych#Pad -->
<g id="edge36" class="edge">
<title>d33tah&#45;&#45;Bazy&#45;danych#Pad</title>
<path fill="none" stroke="#c60077" d="M119.27,-464.12C222.68,-464.12 487.55,-464.12 590.89,-464.12"/>
</g>
<!-- nastpne -->
<g id="node30" class="node">
<title>nastpne</title>
<ellipse fill="none" stroke="black" cx="77.02" cy="-1243" rx="53.09" ry="18"/>
<text text-anchor="middle" x="77.02" y="-1239.3" font-family="Times,serif" font-size="14.00">nastpne</text>
</g>
<!-- spotkanie -->
<g id="node31" class="node">
<title>spotkanie</title>
<ellipse fill="none" stroke="black" cx="77.02" cy="-1286" rx="55.79" ry="18"/>
<text text-anchor="middle" x="77.02" y="-1282.3" font-family="Times,serif" font-size="14.00">spotkanie</text>
</g>
<g id="node32" class="node">
<title></title>
<ellipse fill="none" stroke="#c60077" cx="77.02" cy="-1329" rx="27" ry="18"/>
</g>
<!-- pmysl -->
<g id="node34" class="node">
<title>pmysl</title>
<ellipse fill="none" stroke="black" cx="77.02" cy="-190" rx="38.19" ry="18"/>
<text text-anchor="middle" x="77.02" y="-186.3" font-family="Times,serif" font-size="14.00">pmysl</text>
</g>
<!-- pmysl&#45;&#45;Kanay&#45;komunikacji# -->
<g id="edge41" class="edge">
<title>pmysl&#45;&#45;Kanay&#45;komunikacji#</title>
<path fill="none" stroke="#b6e400" d="M108.06,-179.2C161.45,-179.2 265,-179.2 265,-179.2 265,-179.2 265,-571 265,-571 265,-571 421.64,-571 530.55,-571"/>
</g>
<!-- pmysl&#45;&#45;Bazy&#45;danych# -->
<g id="edge39" class="edge">
<title>pmysl&#45;&#45;Bazy&#45;danych#</title>
<path fill="none" stroke="#b6e400" d="M115.57,-190C207.32,-190 431,-190 431,-190 431,-190 431,-113 431,-113 431,-113 507.25,-113 566.07,-113"/>
</g>
<!-- pmysl&#45;&#45;Infrastruktura::Github#Github -->
<g id="edge42" class="edge">
<title>pmysl&#45;&#45;Infrastruktura::Github#Github</title>
<path fill="none" stroke="#b6e400" d="M100.2,-175.6C174.35,-175.6 408.56,-175.6 540.46,-175.6"/>
</g>
<!-- pmysl&#45;&#45;Infrastruktura::IRC#IRC -->
<g id="edge43" class="edge">
<title>pmysl&#45;&#45;Infrastruktura::IRC#IRC</title>
<path fill="none" stroke="#b6e400" d="M114.78,-186.4C196,-186.4 380,-186.4 380,-186.4 380,-186.4 380,-159 380,-159 380,-159 467.76,-159 539.92,-159"/>
</g>
<!-- pmysl&#45;&#45;Bazy&#45;danych#Grafana -->
<g id="edge40" class="edge">
<title>pmysl&#45;&#45;Bazy&#45;danych#Grafana</title>
<path fill="none" stroke="#b6e400" d="M112.39,-182.8C119.59,-182.8 125,-182.8 125,-182.8 125,-182.8 125,-270 125,-270 125,-270 375.84,-270 525.02,-270"/>
</g>
<!-- kszmigiel -->
<g id="node35" class="node">
<title>kszmigiel</title>
<ellipse fill="none" stroke="black" cx="77.02" cy="-362" rx="54.69" ry="18"/>
<text text-anchor="middle" x="77.02" y="-358.3" font-family="Times,serif" font-size="14.00">kszmigiel</text>
</g>
<!-- kszmigiel&#45;&#45;Marketing&#45;i&#45;media&#45;spoecznociowe# -->
<g id="edge46" class="edge">
<title>kszmigiel&#45;&#45;Marketing&#45;i&#45;media&#45;spoecznociowe#</title>
<path fill="none" stroke="#00ffff" d="M129,-356.38C129,-344.72 129,-319 129,-319 129,-319 305.54,-319 449.67,-319"/>
</g>
<!-- kszmigiel&#45;&#45;Infrastruktura::Telegram#G贸wny: t.me/hakierspejs -->
<g id="edge48" class="edge">
<title>kszmigiel&#45;&#45;Infrastruktura::Telegram#G贸wny: t.me/hakierspejs</title>
<path fill="none" stroke="#00ffff" d="M119,-350.1C119,-318.16 119,-233 119,-233 119,-233 251.06,-233 381.31,-233"/>
</g>
<!-- kszmigiel&#45;&#45;Infrastruktura::Github#Github -->
<g id="edge49" class="edge">
<title>kszmigiel&#45;&#45;Infrastruktura::Github#Github</title>
<path fill="none" stroke="#00ffff" d="M113.37,-348.5C139.08,-348.5 169,-348.5 169,-348.5 169,-348.5 169,-200.8 169,-200.8 169,-200.8 372.15,-200.8 509.63,-200.8"/>
</g>
<!-- kszmigiel&#45;&#45;Infrastruktura::Telegram#posty: t.me/hakierspejs_spam -->
<g id="edge44" class="edge">
<title>kszmigiel&#45;&#45;Infrastruktura::Telegram#posty: t.me/hakierspejs_spam</title>
<path fill="none" stroke="#00ffff" d="M130.26,-366.5C178.14,-366.5 241,-366.5 241,-366.5 241,-366.5 241,-743 241,-743 241,-743 296.14,-743 365.06,-743"/>
</g>
<!-- kszmigiel&#45;&#45;Stowarzyszenie#Zarzd -->
<g id="edge45" class="edge">
<title>kszmigiel&#45;&#45;Stowarzyszenie#Zarzd</title>
<path fill="none" stroke="#00ffff" d="M130.08,-357.5C217.63,-357.5 394.46,-357.5 513.35,-357.5"/>
</g>
<!-- Marketing&#45;i&#45;media&#45;spoecznociowe#Naklejki -->
<g id="node36" class="node">
<title>Marketing&#45;i&#45;media&#45;spoecznociowe#Naklejki</title>
<ellipse fill="none" stroke="black" cx="633.08" cy="-706" rx="221.76" ry="18"/>
<text text-anchor="middle" x="633.08" y="-702.3" font-family="Times,serif" font-size="14.00">Marketing&#45;i&#45;media&#45;spoecznociowe#Naklejki</text>
</g>
<!-- kszmigiel&#45;&#45;Marketing&#45;i&#45;media&#45;spoecznociowe#Naklejki -->
<g id="edge47" class="edge">
<title>kszmigiel&#45;&#45;Marketing&#45;i&#45;media&#45;spoecznociowe#Naklejki</title>
<path fill="none" stroke="#00ffff" d="M131.84,-362C168.11,-362 209,-362 209,-362 209,-362 209,-709.6 209,-709.6 209,-709.6 311.53,-709.6 415.76,-709.6"/>
</g>
<!-- SP7Q -->
<g id="node37" class="node">
<title>SP7Q</title>
<ellipse fill="none" stroke="black" cx="77.02" cy="-276" rx="36.29" ry="18"/>
<text text-anchor="middle" x="77.02" y="-272.3" font-family="Times,serif" font-size="14.00">SP7Q</text>
</g>
<!-- SP7Q&#45;&#45;Marketing&#45;i&#45;media&#45;spoecznociowe# -->
<g id="edge52" class="edge">
<title>SP7Q&#45;&#45;Marketing&#45;i&#45;media&#45;spoecznociowe#</title>
<path fill="none" stroke="#ab00d5" d="M113.58,-276C213.72,-276 485,-276 485,-276 485,-276 485,-295.41 485,-308.15"/>
</g>
<!-- SP7Q&#45;&#45;Infrastruktura::Github#Github -->
<g id="edge51" class="edge">
<title>SP7Q&#45;&#45;Infrastruktura::Github#Github</title>
<path fill="none" stroke="#ab00d5" d="M104.58,-264C111.99,-264 118,-264 118,-264 118,-264 118,-197.2 118,-197.2 118,-197.2 339.17,-197.2 491.65,-197.2"/>
</g>
<!-- SP7Q&#45;&#45;Stowarzyszenie#Zarzd -->
<g id="edge50" class="edge">
<title>SP7Q&#45;&#45;Stowarzyszenie#Zarzd</title>
<path fill="none" stroke="#ab00d5" d="M104.17,-288C178.01,-288 377,-288 377,-288 377,-288 377,-353 377,-353 377,-353 455.79,-353 525.96,-353"/>
</g>
<!-- kujaw -->
<g id="node38" class="node">
<title>kujaw</title>
<ellipse fill="none" stroke="black" cx="77.02" cy="-706" rx="38.19" ry="18"/>
<text text-anchor="middle" x="77.02" y="-702.3" font-family="Times,serif" font-size="14.00">kujaw</text>
</g>
<!-- kujaw&#45;&#45;Miejsce::Miejsce#Klucze do spejsu -->
<g id="edge54" class="edge">
<title>kujaw&#45;&#45;Miejsce::Miejsce#Klucze do spejsu</title>
<path fill="none" stroke="#f29100" d="M112,-713.39C112,-739.27 112,-824.2 112,-824.2 112,-824.2 340.1,-824.2 494.47,-824.2"/>
</g>
<!-- kujaw&#45;&#45;Marketing&#45;i&#45;media&#45;spoecznociowe# -->
<g id="edge55" class="edge">
<title>kujaw&#45;&#45;Marketing&#45;i&#45;media&#45;spoecznociowe#</title>
<path fill="none" stroke="#f29100" d="M107.74,-695.2C148.94,-695.2 217,-695.2 217,-695.2 217,-695.2 217,-328 217,-328 217,-328 356.77,-328 474.29,-328"/>
</g>
<!-- kujaw&#45;&#45;Stowarzyszenie#Zarzd -->
<g id="edge53" class="edge">
<title>kujaw&#45;&#45;Stowarzyszenie#Zarzd</title>
<path fill="none" stroke="#f29100" d="M114.78,-702.4C160.94,-702.4 233,-702.4 233,-702.4 233,-702.4 233,-375.5 233,-375.5 233,-375.5 434.1,-375.5 551.15,-375.5"/>
</g>
<!-- kujaw&#45;&#45;Marketing&#45;i&#45;media&#45;spoecznociowe#Naklejki -->
<g id="edge56" class="edge">
<title>kujaw&#45;&#45;Marketing&#45;i&#45;media&#45;spoecznociowe#Naklejki</title>
<path fill="none" stroke="#f29100" d="M107.71,-716.8C173.05,-716.8 330.22,-716.8 455.73,-716.8"/>
</g>
<!-- Marketing&#45;i&#45;media&#45;spoecznociowe#Logo nr 2 -->
<g id="node39" class="node">
<title>Marketing&#45;i&#45;media&#45;spoecznociowe#Logo nr 2</title>
<ellipse fill="none" stroke="black" cx="633.08" cy="-792" rx="227.46" ry="18"/>
<text text-anchor="middle" x="633.08" y="-788.3" font-family="Times,serif" font-size="14.00">Marketing&#45;i&#45;media&#45;spoecznociowe#Logo nr 2</text>
</g>
<!-- kujaw&#45;&#45;Marketing&#45;i&#45;media&#45;spoecznociowe#Logo nr 2 -->
<g id="edge57" class="edge">
<title>kujaw&#45;&#45;Marketing&#45;i&#45;media&#45;spoecznociowe#Logo nr 2</title>
<path fill="none" stroke="#f29100" d="M114,-710.91C114,-728.65 114,-788.4 114,-788.4 114,-788.4 269.24,-788.4 409.93,-788.4"/>
</g>
<!-- q3k -->
<g id="node40" class="node">
<title>q3k</title>
<ellipse fill="none" stroke="black" cx="77.02" cy="-792" rx="27.9" ry="18"/>
<text text-anchor="middle" x="77.02" y="-788.3" font-family="Times,serif" font-size="14.00">q3k</text>
</g>
<!-- q3k&#45;&#45;Infrastruktura::Domeny#Domeny -->
<g id="edge59" class="edge">
<title>q3k&#45;&#45;Infrastruktura::Domeny#Domeny</title>
<path fill="none" stroke="#00c64f" d="M99.51,-802.8C156.67,-802.8 303,-802.8 303,-802.8 303,-802.8 303,-885.71 303,-885.71 303,-885.71 395.13,-885.71 482.05,-885.71"/>
</g>
<!-- q3k&#45;&#45;Kanay&#45;komunikacji# -->
<g id="edge58" class="edge">
<title>q3k&#45;&#45;Kanay&#45;komunikacji#</title>
<path fill="none" stroke="#00c64f" d="M99.5,-781.2C146.12,-781.2 249,-781.2 249,-781.2 249,-781.2 249,-583 249,-583 249,-583 416.88,-583 530.66,-583"/>
</g>
<!-- q3k&#45;&#45;Marketing&#45;i&#45;media&#45;spoecznociowe#Logo nr 2 -->
<g id="edge60" class="edge">
<title>q3k&#45;&#45;Marketing&#45;i&#45;media&#45;spoecznociowe#Logo nr 2</title>
<path fill="none" stroke="#00c64f" d="M104.59,-795.6C160.53,-795.6 292.04,-795.6 409.87,-795.6"/>
</g>
<!-- BluRaf -->
<g id="node41" class="node">
<title>BluRaf</title>
<ellipse fill="none" stroke="black" cx="77.02" cy="-104" rx="42.49" ry="18"/>
<text text-anchor="middle" x="77.02" y="-100.3" font-family="Times,serif" font-size="14.00">BluRaf</text>
</g>
<!-- BluRaf&#45;&#45;Infrastruktura::IRC#IRC -->
<g id="edge61" class="edge">
<title>BluRaf&#45;&#45;Infrastruktura::IRC#IRC</title>
<path fill="none" stroke="#2e00e4" d="M113.95,-95C222.5,-95 533,-95 533,-95 533,-95 533,-120.99 533,-136.23"/>
</g>
<!-- biniu -->
<g id="node42" class="node">
<title>biniu</title>
<ellipse fill="none" stroke="black" cx="77.02" cy="-233" rx="34.39" ry="18"/>
<text text-anchor="middle" x="77.02" y="-229.3" font-family="Times,serif" font-size="14.00">biniu</text>
</g>
<!-- biniu&#45;&#45;Marketing&#45;i&#45;media&#45;spoecznociowe# -->
<g id="edge62" class="edge">
<title>biniu&#45;&#45;Marketing&#45;i&#45;media&#45;spoecznociowe#</title>
<path fill="none" stroke="#ff0000" d="M107.08,-242C114.82,-242 121,-242 121,-242 121,-242 121,-310 121,-310 121,-310 323.85,-310 474.21,-310"/>
</g>
<!-- Keij0 -->
<g id="node43" class="node">
<title>Keij0</title>
<ellipse fill="none" stroke="black" cx="77.02" cy="-319" rx="34.39" ry="18"/>
<text text-anchor="middle" x="77.02" y="-315.3" font-family="Times,serif" font-size="14.00">Keij0</text>
</g>
<!-- Keij0&#45;&#45;Marketing&#45;i&#45;media&#45;spoecznociowe# -->
<g id="edge63" class="edge">
<title>Keij0&#45;&#45;Marketing&#45;i&#45;media&#45;spoecznociowe#</title>
<path fill="none" stroke="#2bd500" d="M110.55,-314.5C177.47,-314.5 331.79,-314.5 455.48,-314.5"/>
</g>
<!-- pzduniak -->
<g id="node44" class="node">
<title>pzduniak</title>
<ellipse fill="none" stroke="black" cx="77.02" cy="-1200" rx="52.79" ry="18"/>
<text text-anchor="middle" x="77.02" y="-1196.3" font-family="Times,serif" font-size="14.00">pzduniak</text>
</g>
<!-- pzduniak&#45;&#45;Stowarzyszenie#Komisja Rewizyjna -->
<g id="edge64" class="edge">
<title>pzduniak&#45;&#45;Stowarzyszenie#Komisja Rewizyjna</title>
<path fill="none" stroke="#0061f2" d="M120.19,-1189.5C198.21,-1189.5 365.95,-1189.5 488.43,-1189.5"/>
</g>
<!-- krcz -->
<g id="node45" class="node">
<title>krcz</title>
<ellipse fill="none" stroke="black" cx="77.02" cy="-1157" rx="30.59" ry="18"/>
<text text-anchor="middle" x="77.02" y="-1153.3" font-family="Times,serif" font-size="14.00">krcz</text>
</g>
<!-- krcz&#45;&#45;Stowarzyszenie#Komisja Rewizyjna -->
<g id="edge65" class="edge">
<title>krcz&#45;&#45;Stowarzyszenie#Komisja Rewizyjna</title>
<path fill="none" stroke="#c60077" d="M95.2,-1171.5C152.67,-1171.5 334.6,-1171.5 471.08,-1171.5"/>
</g>
</g>
</svg>
