<?xml version="1.0" encoding="UTF-8" standalone="no"?>
<!DOCTYPE svg PUBLIC "-//W3C//DTD SVG 1.1//EN"
 "http://www.w3.org/Graphics/SVG/1.1/DTD/svg11.dtd">
<!-- Generated by graphviz version 2.43.0 (0)
 -->
<!-- Title: %3 Pages: 1 -->
<svg width="976pt" height="1355pt"
 viewBox="0.00 0.00 976.13 1355.00" xmlns="http://www.w3.org/2000/svg" xmlns:xlink="http://www.w3.org/1999/xlink">
<g id="graph0" class="graph" transform="scale(1 1) rotate(0) translate(4 1351)">
<title>%3</title>
<polygon fill="white" stroke="transparent" points="-4,4 -4,-1351 972.13,-1351 972.13,4 -4,4"/>
<!-- cytP450 -->
<g id="node1" class="node">
<title>cytP450</title>
<ellipse fill="none" stroke="black" cx="59.14" cy="-1028" rx="48.99" ry="18"/>
<text text-anchor="middle" x="59.14" y="-1024.3" font-family="Times,serif" font-size="14.00">cytP450</text>
</g>
<!-- Stowarzyszenie#Komisja Rewizyjna -->
<g id="node2" class="node">
<title>Stowarzyszenie#Komisja Rewizyjna</title>
<ellipse fill="none" stroke="black" cx="615.21" cy="-1179" rx="178.17" ry="18"/>
<text text-anchor="middle" x="615.21" y="-1175.3" font-family="Times,serif" font-size="14.00">Stowarzyszenie#Komisja Rewizyjna</text>
</g>
<!-- cytP450&#45;&#45;Stowarzyszenie#Komisja Rewizyjna -->
<g id="edge1" class="edge">
<title>cytP450&#45;&#45;Stowarzyszenie#Komisja Rewizyjna</title>
<path fill="none" stroke="#ff0000" d="M95.13,-1040.42C95.13,-1074.69 95.13,-1168 95.13,-1168 95.13,-1168 320.11,-1168 474.12,-1168"/>
</g>
<!-- Zamek#Zamek -->
<g id="node3" class="node">
<title>Zamek#Zamek</title>
<ellipse fill="none" stroke="black" cx="615.21" cy="-1136" rx="81.49" ry="18"/>
<text text-anchor="middle" x="615.21" y="-1132.3" font-family="Times,serif" font-size="14.00">Zamek#Zamek</text>
</g>
<!-- cytP450&#45;&#45;Zamek#Zamek -->
<g id="edge2" class="edge">
<title>cytP450&#45;&#45;Zamek#Zamek</title>
<path fill="none" stroke="#ff0000" d="M99.13,-1038.38C99.13,-1064.05 99.13,-1128.5 99.13,-1128.5 99.13,-1128.5 398.57,-1128.5 541.27,-1128.5"/>
</g>
<!-- Kanay&#45;komunikacji# -->
<g id="node4" class="node">
<title>Kanay&#45;komunikacji#</title>
<ellipse fill="none" stroke="black" cx="615.21" cy="-749" rx="108.58" ry="18"/>
<text text-anchor="middle" x="615.21" y="-745.3" font-family="Times,serif" font-size="14.00">Kanay&#45;komunikacji#</text>
</g>
<!-- cytP450&#45;&#45;Kanay&#45;komunikacji# -->
<g id="edge3" class="edge">
<title>cytP450&#45;&#45;Kanay&#45;komunikacji#</title>
<path fill="none" stroke="#ff0000" d="M89.13,-1013.73C89.13,-958.58 89.13,-762.5 89.13,-762.5 89.13,-762.5 399.08,-762.5 543.16,-762.5"/>
</g>
<!-- Infrastruktura::Domeny#Domeny -->
<g id="node5" class="node">
<title>Infrastruktura::Domeny#Domeny</title>
<ellipse fill="none" stroke="black" cx="615.21" cy="-878" rx="167.07" ry="18"/>
<text text-anchor="middle" x="615.21" y="-874.3" font-family="Times,serif" font-size="14.00">Infrastruktura::Domeny#Domeny</text>
</g>
<!-- cytP450&#45;&#45;Infrastruktura::Domeny#Domeny -->
<g id="edge4" class="edge">
<title>cytP450&#45;&#45;Infrastruktura::Domeny#Domeny</title>
<path fill="none" stroke="#ff0000" d="M91.13,-1014.35C91.13,-979.66 91.13,-890.86 91.13,-890.86 91.13,-890.86 343.79,-890.86 498.25,-890.86"/>
</g>
<!-- Chciejlista#DIY -->
<g id="node6" class="node">
<title>Chciejlista#DIY</title>
<ellipse fill="none" stroke="black" cx="615.21" cy="-1093" rx="83.69" ry="18"/>
<text text-anchor="middle" x="615.21" y="-1089.3" font-family="Times,serif" font-size="14.00">Chciejlista#DIY</text>
</g>
<!-- cytP450&#45;&#45;Chciejlista#DIY -->
<g id="edge5" class="edge">
<title>cytP450&#45;&#45;Chciejlista#DIY</title>
<path fill="none" stroke="#ff0000" d="M104.13,-1034.96C104.13,-1051.72 104.13,-1093 104.13,-1093 104.13,-1093 386.02,-1093 531.1,-1093"/>
</g>
<!-- Chciejlista#Elektronika (w sensie urzdze konsumenckich) -->
<g id="node7" class="node">
<title>Chciejlista#Elektronika (w sensie urzdze konsumenckich)</title>
<ellipse fill="none" stroke="black" cx="615.21" cy="-1050" rx="289.75" ry="18"/>
<text text-anchor="middle" x="615.21" y="-1046.3" font-family="Times,serif" font-size="14.00">Chciejlista#Elektronika (w sensie urzdze konsumenckich)</text>
</g>
<!-- cytP450&#45;&#45;Chciejlista#Elektronika (w sensie urzdze konsumenckich) -->
<g id="edge6" class="edge">
<title>cytP450&#45;&#45;Chciejlista#Elektronika (w sensie urzdze konsumenckich)</title>
<path fill="none" stroke="#ff0000" d="M97.8,-1039C157.53,-1039 276.75,-1039 385.71,-1039"/>
</g>
<!-- Miejsce::Miejsce#Klucze do spejsu -->
<g id="node8" class="node">
<title>Miejsce::Miejsce#Klucze do spejsu</title>
<ellipse fill="none" stroke="black" cx="615.21" cy="-835" rx="172.77" ry="18"/>
<text text-anchor="middle" x="615.21" y="-831.3" font-family="Times,serif" font-size="14.00">Miejsce::Miejsce#Klucze do spejsu</text>
</g>
<!-- cytP450&#45;&#45;Miejsce::Miejsce#Klucze do spejsu -->
<g id="edge7" class="edge">
<title>cytP450&#45;&#45;Miejsce::Miejsce#Klucze do spejsu</title>
<path fill="none" stroke="#ff0000" d="M90.13,-1014.01C90.13,-971.34 90.13,-845.8 90.13,-845.8 90.13,-845.8 321,-845.8 476.56,-845.8"/>
</g>
<!-- Przegld&#45;lokali&#45;na&#45;wynajem&#45;w&#45;odzi.&#45;Fundusz&#45;1000&#45;&#45;&#45;1500.#Bot Aleksego -->
<g id="node9" class="node">
<title>Przegld&#45;lokali&#45;na&#45;wynajem&#45;w&#45;odzi.&#45;Fundusz&#45;1000&#45;&#45;&#45;1500.#Bot Aleksego</title>
<ellipse fill="none" stroke="black" cx="615.21" cy="-1007" rx="351.74" ry="18"/>
<text text-anchor="middle" x="615.21" y="-1003.3" font-family="Times,serif" font-size="14.00">Przegld&#45;lokali&#45;na&#45;wynajem&#45;w&#45;odzi.&#45;Fundusz&#45;1000&#45;&#45;&#45;1500.#Bot Aleksego</text>
</g>
<!-- cytP450&#45;&#45;Przegld&#45;lokali&#45;na&#45;wynajem&#45;w&#45;odzi.&#45;Fundusz&#45;1000&#45;&#45;&#45;1500.#Bot Aleksego -->
<g id="edge8" class="edge">
<title>cytP450&#45;&#45;Przegld&#45;lokali&#45;na&#45;wynajem&#45;w&#45;odzi.&#45;Fundusz&#45;1000&#45;&#45;&#45;1500.#Bot Aleksego</title>
<path fill="none" stroke="#ff0000" d="M99.14,-1017.5C148.94,-1017.5 238.58,-1017.5 329.34,-1017.5"/>
</g>
<!-- thinkofher -->
<g id="node10" class="node">
<title>thinkofher</title>
<ellipse fill="none" stroke="black" cx="59.14" cy="-254" rx="59.29" ry="18"/>
<text text-anchor="middle" x="59.14" y="-250.3" font-family="Times,serif" font-size="14.00">thinkofher</text>
</g>
<!-- thinkofher&#45;&#45;Kanay&#45;komunikacji# -->
<g id="edge12" class="edge">
<title>thinkofher&#45;&#45;Kanay&#45;komunikacji#</title>
<path fill="none" stroke="#2bd500" d="M45.13,-271.64C45.13,-289.66 45.13,-315 45.13,-315 45.13,-315 134.13,-315 134.13,-315 134.13,-315 134.13,-735.5 134.13,-735.5 134.13,-735.5 408.98,-735.5 543.19,-735.5"/>
</g>
<!-- Infrastruktura::Matrix#hs&#45;ldz:hackerspace.pl -->
<g id="node11" class="node">
<title>Infrastruktura::Matrix#hs&#45;ldz:hackerspace.pl</title>
<ellipse fill="none" stroke="black" cx="615.21" cy="-276" rx="221.76" ry="18"/>
<text text-anchor="middle" x="615.21" y="-272.3" font-family="Times,serif" font-size="14.00">Infrastruktura::Matrix#hs&#45;ldz:hackerspace.pl</text>
</g>
<!-- thinkofher&#45;&#45;Infrastruktura::Matrix#hs&#45;ldz:hackerspace.pl -->
<g id="edge9" class="edge">
<title>thinkofher&#45;&#45;Infrastruktura::Matrix#hs&#45;ldz:hackerspace.pl</title>
<path fill="none" stroke="#2bd500" d="M111.46,-262.67C191.82,-262.67 348.67,-262.67 466.1,-262.67"/>
</g>
<!-- Infrastruktura::IRC#IRC -->
<g id="node12" class="node">
<title>Infrastruktura::IRC#IRC</title>
<ellipse fill="none" stroke="black" cx="615.21" cy="-362" rx="124.58" ry="18"/>
<text text-anchor="middle" x="615.21" y="-358.3" font-family="Times,serif" font-size="14.00">Infrastruktura::IRC#IRC</text>
</g>
<!-- thinkofher&#45;&#45;Infrastruktura::IRC#IRC -->
<g id="edge10" class="edge">
<title>thinkofher&#45;&#45;Infrastruktura::IRC#IRC</title>
<path fill="none" stroke="#2bd500" d="M99.16,-267.33C184.19,-267.33 375.13,-267.33 375.13,-267.33 375.13,-267.33 375.13,-348.67 375.13,-348.67 375.13,-348.67 462.01,-348.67 531.24,-348.67"/>
</g>
<!-- Infrastruktura::Matrix#hs&#45;ldz&#45;offtopic:hackerspace.pl -->
<g id="node13" class="node">
<title>Infrastruktura::Matrix#hs&#45;ldz&#45;offtopic:hackerspace.pl</title>
<ellipse fill="none" stroke="black" cx="615.21" cy="-233" rx="258.85" ry="18"/>
<text text-anchor="middle" x="615.21" y="-229.3" font-family="Times,serif" font-size="14.00">Infrastruktura::Matrix#hs&#45;ldz&#45;offtopic:hackerspace.pl</text>
</g>
<!-- thinkofher&#45;&#45;Infrastruktura::Matrix#hs&#45;ldz&#45;offtopic:hackerspace.pl -->
<g id="edge11" class="edge">
<title>thinkofher&#45;&#45;Infrastruktura::Matrix#hs&#45;ldz&#45;offtopic:hackerspace.pl</title>
<path fill="none" stroke="#2bd500" d="M113.98,-247.25C192.96,-247.25 341.88,-247.25 456.95,-247.25"/>
</g>
<!-- Infrastruktura::Telegram#G贸wny: t.me/hakierspejs -->
<g id="node14" class="node">
<title>Infrastruktura::Telegram#G贸wny: t.me/hakierspejs</title>
<ellipse fill="none" stroke="black" cx="615.21" cy="-190" rx="251.56" ry="18"/>
<text text-anchor="middle" x="615.21" y="-186.3" font-family="Times,serif" font-size="14.00">Infrastruktura::Telegram#G贸wny: t.me/hakierspejs</text>
</g>
<!-- thinkofher&#45;&#45;Infrastruktura::Telegram#G贸wny: t.me/hakierspejs -->
<g id="edge13" class="edge">
<title>thinkofher&#45;&#45;Infrastruktura::Telegram#G贸wny: t.me/hakierspejs</title>
<path fill="none" stroke="#2bd500" d="M103.13,-241.75C103.13,-225.81 103.13,-200 103.13,-200 103.13,-200 264.31,-200 405.82,-200"/>
</g>
<!-- Infrastruktura::Github#Github -->
<g id="node15" class="node">
<title>Infrastruktura::Github#Github</title>
<ellipse fill="none" stroke="black" cx="615.21" cy="-147" rx="154.07" ry="18"/>
<text text-anchor="middle" x="615.21" y="-143.3" font-family="Times,serif" font-size="14.00">Infrastruktura::Github#Github</text>
</g>
<!-- thinkofher&#45;&#45;Infrastruktura::Github#Github -->
<g id="edge14" class="edge">
<title>thinkofher&#45;&#45;Infrastruktura::Github#Github</title>
<path fill="none" stroke="#2bd500" d="M107.5,-243.5C146.23,-243.5 194.13,-243.5 194.13,-243.5 194.13,-243.5 194.13,-147 194.13,-147 194.13,-147 340.87,-147 461.1,-147"/>
</g>
<!-- Bazy&#45;danych# -->
<g id="node16" class="node">
<title>Bazy&#45;danych#</title>
<ellipse fill="none" stroke="black" cx="615.21" cy="-319" rx="77.19" ry="18"/>
<text text-anchor="middle" x="615.21" y="-315.3" font-family="Times,serif" font-size="14.00">Bazy&#45;danych#</text>
</g>
<!-- thinkofher&#45;&#45;Bazy&#45;danych# -->
<g id="edge15" class="edge">
<title>thinkofher&#45;&#45;Bazy&#45;danych#</title>
<path fill="none" stroke="#2bd500" d="M74.13,-271.68C74.13,-287.43 74.13,-308 74.13,-308 74.13,-308 412.27,-308 553.93,-308"/>
</g>
<!-- Marketing&#45;i&#45;media&#45;spoecznociowe# -->
<g id="node17" class="node">
<title>Marketing&#45;i&#45;media&#45;spoecznociowe#</title>
<ellipse fill="none" stroke="black" cx="615.21" cy="-61" rx="183.07" ry="18"/>
<text text-anchor="middle" x="615.21" y="-57.3" font-family="Times,serif" font-size="14.00">Marketing&#45;i&#45;media&#45;spoecznociowe#</text>
</g>
<!-- thinkofher&#45;&#45;Marketing&#45;i&#45;media&#45;spoecznociowe# -->
<g id="edge16" class="edge">
<title>thinkofher&#45;&#45;Marketing&#45;i&#45;media&#45;spoecznociowe#</title>
<path fill="none" stroke="#2bd500" d="M95.35,-239.75C123.26,-239.75 157.13,-239.75 157.13,-239.75 157.13,-239.75 157.13,-65.5 157.13,-65.5 157.13,-65.5 308.68,-65.5 437.45,-65.5"/>
</g>
<!-- kpc -->
<g id="node18" class="node">
<title>kpc</title>
<ellipse fill="none" stroke="black" cx="59.14" cy="-878" rx="27" ry="18"/>
<text text-anchor="middle" x="59.14" y="-874.3" font-family="Times,serif" font-size="14.00">kpc</text>
</g>
<!-- kpc&#45;&#45;Stowarzyszenie#Komisja Rewizyjna -->
<g id="edge17" class="edge">
<title>kpc&#45;&#45;Stowarzyszenie#Komisja Rewizyjna</title>
<path fill="none" stroke="#0061f2" d="M83.74,-885.71C107.89,-885.71 141.13,-885.71 141.13,-885.71 141.13,-885.71 141.13,-1164.5 141.13,-1164.5 141.13,-1164.5 369.68,-1164.5 509.41,-1164.5"/>
</g>
<!-- kpc&#45;&#45;Miejsce::Miejsce#Klucze do spejsu -->
<g id="edge20" class="edge">
<title>kpc&#45;&#45;Miejsce::Miejsce#Klucze do spejsu</title>
<path fill="none" stroke="#0061f2" d="M60.13,-859.68C60.13,-849.4 60.13,-838.6 60.13,-838.6 60.13,-838.6 282.41,-838.6 445.65,-838.6"/>
</g>
<!-- kpc&#45;&#45;Marketing&#45;i&#45;media&#45;spoecznociowe# -->
<g id="edge21" class="edge">
<title>kpc&#45;&#45;Marketing&#45;i&#45;media&#45;spoecznociowe#</title>
<path fill="none" stroke="#0061f2" d="M78.06,-865.14C110.22,-865.14 172.13,-865.14 172.13,-865.14 172.13,-865.14 172.13,-74.5 172.13,-74.5 172.13,-74.5 362.66,-74.5 493.84,-74.5"/>
</g>
<!-- Infrastruktura::Telegram#posty: t.me/hakierspejs_spam -->
<g id="node19" class="node">
<title>Infrastruktura::Telegram#posty: t.me/hakierspejs_spam</title>
<ellipse fill="none" stroke="black" cx="615.21" cy="-663" rx="284.05" ry="18"/>
<text text-anchor="middle" x="615.21" y="-659.3" font-family="Times,serif" font-size="14.00">Infrastruktura::Telegram#posty: t.me/hakierspejs_spam</text>
</g>
<!-- kpc&#45;&#45;Infrastruktura::Telegram#posty: t.me/hakierspejs_spam -->
<g id="edge18" class="edge">
<title>kpc&#45;&#45;Infrastruktura::Telegram#posty: t.me/hakierspejs_spam</title>
<path fill="none" stroke="#0061f2" d="M86.12,-875.43C160,-875.43 360.13,-875.43 360.13,-875.43 360.13,-875.43 360.13,-709.87 360.13,-671.07"/>
</g>
<!-- Czaty&#45;HS#HS: posty wyklte -->
<g id="node20" class="node">
<title>Czaty&#45;HS#HS: posty wyklte</title>
<ellipse fill="none" stroke="black" cx="615.21" cy="-964" rx="157.87" ry="18"/>
<text text-anchor="middle" x="615.21" y="-960.3" font-family="Times,serif" font-size="14.00">Czaty&#45;HS#HS: posty wyklte</text>
</g>
<!-- kpc&#45;&#45;Czaty&#45;HS#HS: posty wyklte -->
<g id="edge19" class="edge">
<title>kpc&#45;&#45;Czaty&#45;HS#HS: posty wyklte</title>
<path fill="none" stroke="#0061f2" d="M51.13,-895.4C51.13,-920.53 51.13,-964 51.13,-964 51.13,-964 290.1,-964 456.95,-964"/>
</g>
<!-- Infrastruktura::Telegram#Posty wyklte (celowo bez linka) -->
<g id="node21" class="node">
<title>Infrastruktura::Telegram#Posty wyklte (celowo bez linka)</title>
<ellipse fill="none" stroke="black" cx="615.21" cy="-921" rx="284.05" ry="18"/>
<text text-anchor="middle" x="615.21" y="-917.3" font-family="Times,serif" font-size="14.00">Infrastruktura::Telegram#Posty wyklte (celowo bez linka)</text>
</g>
<!-- kpc&#45;&#45;Infrastruktura::Telegram#Posty wyklte (celowo bez linka) -->
<g id="edge22" class="edge">
<title>kpc&#45;&#45;Infrastruktura::Telegram#Posty wyklte (celowo bez linka)</title>
<path fill="none" stroke="#0061f2" d="M69.13,-894.99C69.13,-907.01 69.13,-921 69.13,-921 69.13,-921 198.28,-921 330.97,-921"/>
</g>
<!-- d33tah -->
<g id="node22" class="node">
<title>d33tah</title>
<ellipse fill="none" stroke="black" cx="59.14" cy="-512" rx="43.59" ry="18"/>
<text text-anchor="middle" x="59.14" y="-508.3" font-family="Times,serif" font-size="14.00">d33tah</text>
</g>
<!-- d33tah&#45;&#45;Kanay&#45;komunikacji# -->
<g id="edge30" class="edge">
<title>d33tah&#45;&#45;Kanay&#45;komunikacji#</title>
<path fill="none" stroke="#c60077" d="M98.13,-520.16C98.13,-561.83 98.13,-749 98.13,-749 98.13,-749 354.83,-749 506.5,-749"/>
</g>
<!-- d33tah&#45;&#45;Infrastruktura::Domeny#Domeny -->
<g id="edge31" class="edge">
<title>d33tah&#45;&#45;Infrastruktura::Domeny#Domeny</title>
<path fill="none" stroke="#c60077" d="M94.13,-522.72C94.13,-582.34 94.13,-870.29 94.13,-870.29 94.13,-870.29 310.27,-870.29 464.14,-870.29"/>
</g>
<!-- d33tah&#45;&#45;Miejsce::Miejsce#Klucze do spejsu -->
<g id="edge37" class="edge">
<title>d33tah&#45;&#45;Miejsce::Miejsce#Klucze do spejsu</title>
<path fill="none" stroke="#c60077" d="M95.13,-522.27C95.13,-576.94 95.13,-831.4 95.13,-831.4 95.13,-831.4 293.86,-831.4 445.63,-831.4"/>
</g>
<!-- d33tah&#45;&#45;Infrastruktura::IRC#IRC -->
<g id="edge26" class="edge">
<title>d33tah&#45;&#45;Infrastruktura::IRC#IRC</title>
<path fill="none" stroke="#c60077" d="M99.28,-504.71C156.61,-504.71 255.13,-504.71 255.13,-504.71 255.13,-504.71 255.13,-377 255.13,-377 255.13,-377 441.65,-377 546.21,-377"/>
</g>
<!-- d33tah&#45;&#45;Infrastruktura::Telegram#G贸wny: t.me/hakierspejs -->
<g id="edge32" class="edge">
<title>d33tah&#45;&#45;Infrastruktura::Telegram#G贸wny: t.me/hakierspejs</title>
<path fill="none" stroke="#c60077" d="M96.58,-502.57C143.3,-502.57 217.13,-502.57 217.13,-502.57 217.13,-502.57 217.13,-204 217.13,-204 217.13,-204 345.94,-204 457.02,-204"/>
</g>
<!-- d33tah&#45;&#45;Infrastruktura::Github#Github -->
<g id="edge36" class="edge">
<title>d33tah&#45;&#45;Infrastruktura::Github#Github</title>
<path fill="none" stroke="#c60077" d="M92.65,-500.43C137.13,-500.43 210.13,-500.43 210.13,-500.43 210.13,-500.43 210.13,-159 210.13,-159 210.13,-159 380.45,-159 500.21,-159"/>
</g>
<!-- d33tah&#45;&#45;Marketing&#45;i&#45;media&#45;spoecznociowe# -->
<g id="edge38" class="edge">
<title>d33tah&#45;&#45;Marketing&#45;i&#45;media&#45;spoecznociowe#</title>
<path fill="none" stroke="#c60077" d="M79.89,-496.14C110.48,-496.14 164.13,-496.14 164.13,-496.14 164.13,-496.14 164.13,-70 164.13,-70 164.13,-70 326.3,-70 456.17,-70"/>
</g>
<!-- d33tah&#45;&#45;Infrastruktura::Telegram#posty: t.me/hakierspejs_spam -->
<g id="edge27" class="edge">
<title>d33tah&#45;&#45;Infrastruktura::Telegram#posty: t.me/hakierspejs_spam</title>
<path fill="none" stroke="#c60077" d="M99.13,-519.15C99.13,-549.87 99.13,-669 99.13,-669 99.13,-669 221.68,-669 347.34,-669"/>
</g>
<!-- Infrastruktura::Mariuszbot#Mariuszbot -->
<g id="node23" class="node">
<title>Infrastruktura::Mariuszbot#Mariuszbot</title>
<ellipse fill="none" stroke="black" cx="615.21" cy="-792" rx="196.07" ry="18"/>
<text text-anchor="middle" x="615.21" y="-788.3" font-family="Times,serif" font-size="14.00">Infrastruktura::Mariuszbot#Mariuszbot</text>
</g>
<!-- d33tah&#45;&#45;Infrastruktura::Mariuszbot#Mariuszbot -->
<g id="edge23" class="edge">
<title>d33tah&#45;&#45;Infrastruktura::Mariuszbot#Mariuszbot</title>
<path fill="none" stroke="#c60077" d="M97.13,-521C97.13,-568.93 97.13,-792 97.13,-792 97.13,-792 272.04,-792 418.61,-792"/>
</g>
<!-- Infrastruktura::Telegram#HS24: t.me/hsl_info -->
<g id="node24" class="node">
<title>Infrastruktura::Telegram#HS24: t.me/hsl_info</title>
<ellipse fill="none" stroke="black" cx="615.21" cy="-620" rx="231.26" ry="18"/>
<text text-anchor="middle" x="615.21" y="-616.3" font-family="Times,serif" font-size="14.00">Infrastruktura::Telegram#HS24: t.me/hsl_info</text>
</g>
<!-- d33tah&#45;&#45;Infrastruktura::Telegram#HS24: t.me/hsl_info -->
<g id="edge24" class="edge">
<title>d33tah&#45;&#45;Infrastruktura::Telegram#HS24: t.me/hsl_info</title>
<path fill="none" stroke="#c60077" d="M100.13,-518.12C100.13,-540.96 100.13,-620 100.13,-620 100.13,-620 246.84,-620 383.66,-620"/>
</g>
<!-- Bazy&#45;danych#Pad -->
<g id="node25" class="node">
<title>Bazy&#45;danych#Pad</title>
<ellipse fill="none" stroke="black" cx="615.21" cy="-577" rx="94.48" ry="18"/>
<text text-anchor="middle" x="615.21" y="-573.3" font-family="Times,serif" font-size="14.00">Bazy&#45;danych#Pad</text>
</g>
<!-- d33tah&#45;&#45;Bazy&#45;danych#Pad -->
<g id="edge25" class="edge">
<title>d33tah&#45;&#45;Bazy&#45;danych#Pad</title>
<path fill="none" stroke="#c60077" d="M102.13,-515.14C102.13,-528.12 102.13,-577 102.13,-577 102.13,-577 372.62,-577 520.8,-577"/>
</g>
<!-- Bazy&#45;danych#Grafana -->
<g id="node26" class="node">
<title>Bazy&#45;danych#Grafana</title>
<ellipse fill="none" stroke="black" cx="615.21" cy="-405" rx="114.28" ry="18"/>
<text text-anchor="middle" x="615.21" y="-401.3" font-family="Times,serif" font-size="14.00">Bazy&#45;danych#Grafana</text>
</g>
<!-- d33tah&#45;&#45;Bazy&#45;danych#Grafana -->
<g id="edge28" class="edge">
<title>d33tah&#45;&#45;Bazy&#45;danych#Grafana</title>
<path fill="none" stroke="#c60077" d="M47.13,-494.58C47.13,-465.93 47.13,-412 47.13,-412 47.13,-412 345.4,-412 509.69,-412"/>
</g>
<!-- Drzwi&#45;frontowe#Ekran  -->
<g id="node27" class="node">
<title>Drzwi&#45;frontowe#Ekran </title>
<ellipse fill="none" stroke="black" cx="615.21" cy="-534" rx="120.78" ry="18"/>
<text text-anchor="middle" x="615.21" y="-530.3" font-family="Times,serif" font-size="14.00">Drzwi&#45;frontowe#Ekran </text>
</g>
<!-- d33tah&#45;&#45;Drzwi&#45;frontowe#Ekran  -->
<g id="edge29" class="edge">
<title>d33tah&#45;&#45;Drzwi&#45;frontowe#Ekran </title>
<path fill="none" stroke="black" d="M93.93,-523C177.74,-523 393.23,-523 519.36,-523"/>
</g>
<!-- Infrastruktura::Telegram#Spacerspejs: t.me/joinchat/UYf2ONtNj21J1DS6 -->
<g id="node31" class="node">
<title>Infrastruktura::Telegram#Spacerspejs: t.me/joinchat/UYf2ONtNj21J1DS6</title>
<ellipse fill="none" stroke="black" cx="615.21" cy="-491" rx="352.84" ry="18"/>
<text text-anchor="middle" x="615.21" y="-487.3" font-family="Times,serif" font-size="14.00">Infrastruktura::Telegram#Spacerspejs: t.me/joinchat/UYf2ONtNj21J1DS6</text>
</g>
<!-- d33tah&#45;&#45;Infrastruktura::Telegram#Spacerspejs: t.me/joinchat/UYf2ONtNj21J1DS6 -->
<g id="edge33" class="edge">
<title>d33tah&#45;&#45;Infrastruktura::Telegram#Spacerspejs: t.me/joinchat/UYf2ONtNj21J1DS6</title>
<path fill="none" stroke="#c60077" d="M100.94,-506.86C173.74,-506.86 327.57,-506.86 448.12,-506.86"/>
</g>
<!-- Bazy&#45;danych#Trello -->
<g id="node32" class="node">
<title>Bazy&#45;danych#Trello</title>
<ellipse fill="none" stroke="black" cx="615.21" cy="-448" rx="103.98" ry="18"/>
<text text-anchor="middle" x="615.21" y="-444.3" font-family="Times,serif" font-size="14.00">Bazy&#45;danych#Trello</text>
</g>
<!-- d33tah&#45;&#45;Bazy&#45;danych#Trello -->
<g id="edge34" class="edge">
<title>d33tah&#45;&#45;Bazy&#45;danych#Trello</title>
<path fill="none" stroke="#c60077" d="M72.13,-494.51C72.13,-475.56 72.13,-448 72.13,-448 72.13,-448 353.45,-448 511.14,-448"/>
</g>
<!-- Stowarzyszenie#Zarzd -->
<g id="node33" class="node">
<title>Stowarzyszenie#Zarzd</title>
<ellipse fill="none" stroke="black" cx="615.21" cy="-104" rx="123.48" ry="18"/>
<text text-anchor="middle" x="615.21" y="-100.3" font-family="Times,serif" font-size="14.00">Stowarzyszenie#Zarzd</text>
</g>
<!-- d33tah&#45;&#45;Stowarzyszenie#Zarzd -->
<g id="edge35" class="edge">
<title>d33tah&#45;&#45;Stowarzyszenie#Zarzd</title>
<path fill="none" stroke="#c60077" d="M87.55,-498.29C125.25,-498.29 187.13,-498.29 187.13,-498.29 187.13,-498.29 187.13,-116.86 187.13,-116.86 187.13,-116.86 403.49,-116.86 528.58,-116.86"/>
</g>
<!-- nastpne -->
<g id="node28" class="node">
<title>nastpne</title>
<ellipse fill="none" stroke="black" cx="59.14" cy="-1243" rx="53.09" ry="18"/>
<text text-anchor="middle" x="59.14" y="-1239.3" font-family="Times,serif" font-size="14.00">nastpne</text>
</g>
<!-- spotkanie -->
<g id="node29" class="node">
<title>spotkanie</title>
<ellipse fill="none" stroke="black" cx="59.14" cy="-1286" rx="55.79" ry="18"/>
<text text-anchor="middle" x="59.14" y="-1282.3" font-family="Times,serif" font-size="14.00">spotkanie</text>
</g>
<g id="node30" class="node">
<title></title>
<ellipse fill="none" stroke="#c60077" cx="59.14" cy="-1329" rx="27" ry="18"/>
</g>
<!-- pmysl -->
<g id="node34" class="node">
<title>pmysl</title>
<ellipse fill="none" stroke="black" cx="59.14" cy="-383" rx="38.19" ry="18"/>
<text text-anchor="middle" x="59.14" y="-379.3" font-family="Times,serif" font-size="14.00">pmysl</text>
</g>
<!-- pmysl&#45;&#45;Kanay&#45;komunikacji# -->
<g id="edge41" class="edge">
<title>pmysl&#45;&#45;Kanay&#45;komunikacji#</title>
<path fill="none" stroke="#b6e400" d="M85.23,-396.33C104.04,-396.33 126.13,-396.33 126.13,-396.33 126.13,-396.33 126.13,-740 126.13,-740 126.13,-740 379.13,-740 521.2,-740"/>
</g>
<!-- pmysl&#45;&#45;Infrastruktura::IRC#IRC -->
<g id="edge40" class="edge">
<title>pmysl&#45;&#45;Infrastruktura::IRC#IRC</title>
<path fill="none" stroke="#b6e400" d="M92.68,-374C176.15,-374 395.62,-374 521.99,-374"/>
</g>
<!-- pmysl&#45;&#45;Infrastruktura::Github#Github -->
<g id="edge42" class="edge">
<title>pmysl&#45;&#45;Infrastruktura::Github#Github</title>
<path fill="none" stroke="#b6e400" d="M80.55,-368C120.44,-368 202.13,-368 202.13,-368 202.13,-368 202.13,-153 202.13,-153 202.13,-153 350.88,-153 469.86,-153"/>
</g>
<!-- pmysl&#45;&#45;Bazy&#45;danych# -->
<g id="edge43" class="edge">
<title>pmysl&#45;&#45;Bazy&#45;danych#</title>
<path fill="none" stroke="#b6e400" d="M87.85,-371C140.71,-371 248.13,-371 248.13,-371 248.13,-371 248.13,-329.5 248.13,-329.5 248.13,-329.5 447.15,-329.5 552.1,-329.5"/>
</g>
<!-- pmysl&#45;&#45;Bazy&#45;danych#Grafana -->
<g id="edge39" class="edge">
<title>pmysl&#45;&#45;Bazy&#45;danych#Grafana</title>
<path fill="none" stroke="#b6e400" d="M93.09,-391.67C180.57,-391.67 415.42,-391.67 538.13,-391.67"/>
</g>
<!-- kszmigiel -->
<g id="node35" class="node">
<title>kszmigiel</title>
<ellipse fill="none" stroke="black" cx="59.14" cy="-147" rx="54.69" ry="18"/>
<text text-anchor="middle" x="59.14" y="-143.3" font-family="Times,serif" font-size="14.00">kszmigiel</text>
</g>
<!-- kszmigiel&#45;&#45;Infrastruktura::Telegram#G贸wny: t.me/hakierspejs -->
<g id="edge47" class="edge">
<title>kszmigiel&#45;&#45;Infrastruktura::Telegram#G贸wny: t.me/hakierspejs</title>
<path fill="none" stroke="#00ffff" d="M109.13,-154.52C109.13,-166.36 109.13,-188 109.13,-188 109.13,-188 237.63,-188 365.13,-188"/>
</g>
<!-- kszmigiel&#45;&#45;Infrastruktura::Github#Github -->
<g id="edge48" class="edge">
<title>kszmigiel&#45;&#45;Infrastruktura::Github#Github</title>
<path fill="none" stroke="#00ffff" d="M100.03,-135C183.43,-135 375.78,-135 500.4,-135"/>
</g>
<!-- kszmigiel&#45;&#45;Marketing&#45;i&#45;media&#45;spoecznociowe# -->
<g id="edge49" class="edge">
<title>kszmigiel&#45;&#45;Marketing&#45;i&#45;media&#45;spoecznociowe#</title>
<path fill="none" stroke="#00ffff" d="M105.13,-136.97C105.13,-113.41 105.13,-56.5 105.13,-56.5 105.13,-56.5 290.31,-56.5 437.52,-56.5"/>
</g>
<!-- kszmigiel&#45;&#45;Infrastruktura::Telegram#posty: t.me/hakierspejs_spam -->
<g id="edge45" class="edge">
<title>kszmigiel&#45;&#45;Infrastruktura::Telegram#posty: t.me/hakierspejs_spam</title>
<path fill="none" stroke="#00ffff" d="M111.01,-141C164.49,-141 240.13,-141 240.13,-141 240.13,-141 240.13,-657 240.13,-657 240.13,-657 286.87,-657 347.36,-657"/>
</g>
<!-- kszmigiel&#45;&#45;Stowarzyszenie#Zarzd -->
<g id="edge46" class="edge">
<title>kszmigiel&#45;&#45;Stowarzyszenie#Zarzd</title>
<path fill="none" stroke="#00ffff" d="M110.13,-140.32C110.13,-128.84 110.13,-106.57 110.13,-106.57 110.13,-106.57 343.46,-106.57 492.94,-106.57"/>
</g>
<!-- Marketing&#45;i&#45;media&#45;spoecznociowe#Naklejki -->
<g id="node36" class="node">
<title>Marketing&#45;i&#45;media&#45;spoecznociowe#Naklejki</title>
<ellipse fill="none" stroke="black" cx="615.21" cy="-18" rx="221.76" ry="18"/>
<text text-anchor="middle" x="615.21" y="-14.3" font-family="Times,serif" font-size="14.00">Marketing&#45;i&#45;media&#45;spoecznociowe#Naklejki</text>
</g>
<!-- kszmigiel&#45;&#45;Marketing&#45;i&#45;media&#45;spoecznociowe#Naklejki -->
<g id="edge44" class="edge">
<title>kszmigiel&#45;&#45;Marketing&#45;i&#45;media&#45;spoecznociowe#Naklejki</title>
<path fill="none" stroke="#00ffff" d="M100.13,-134.75C100.13,-100.98 100.13,-9 100.13,-9 100.13,-9 276.67,-9 423.04,-9"/>
</g>
<!-- SP7Q -->
<g id="node37" class="node">
<title>SP7Q</title>
<ellipse fill="none" stroke="black" cx="59.14" cy="-104" rx="36.29" ry="18"/>
<text text-anchor="middle" x="59.14" y="-100.3" font-family="Times,serif" font-size="14.00">SP7Q</text>
</g>
<!-- SP7Q&#45;&#45;Infrastruktura::Github#Github -->
<g id="edge51" class="edge">
<title>SP7Q&#45;&#45;Infrastruktura::Github#Github</title>
<path fill="none" stroke="#ab00d5" d="M95.51,-101.43C197.2,-101.43 477.13,-101.43 477.13,-101.43 477.13,-101.43 477.13,-125.49 477.13,-138.64"/>
</g>
<!-- SP7Q&#45;&#45;Marketing&#45;i&#45;media&#45;spoecznociowe# -->
<g id="edge50" class="edge">
<title>SP7Q&#45;&#45;Marketing&#45;i&#45;media&#45;spoecznociowe#</title>
<path fill="none" stroke="#ab00d5" d="M84.9,-91.14C171.56,-91.14 447.13,-91.14 447.13,-91.14 447.13,-91.14 447.13,-77.22 447.13,-68.3"/>
</g>
<!-- SP7Q&#45;&#45;Stowarzyszenie#Zarzd -->
<g id="edge52" class="edge">
<title>SP7Q&#45;&#45;Stowarzyszenie#Zarzd</title>
<path fill="none" stroke="#ab00d5" d="M92.26,-96.29C171.53,-96.29 375.08,-96.29 503.59,-96.29"/>
</g>
<!-- kujaw -->
<g id="node38" class="node">
<title>kujaw</title>
<ellipse fill="none" stroke="black" cx="59.14" cy="-190" rx="38.19" ry="18"/>
<text text-anchor="middle" x="59.14" y="-186.3" font-family="Times,serif" font-size="14.00">kujaw</text>
</g>
<!-- kujaw&#45;&#45;Miejsce::Miejsce#Klucze do spejsu -->
<g id="edge55" class="edge">
<title>kujaw&#45;&#45;Miejsce::Miejsce#Klucze do spejsu</title>
<path fill="none" stroke="#f29100" d="M95.57,-196C144.43,-196 225.13,-196 225.13,-196 225.13,-196 225.13,-824.2 225.13,-824.2 225.13,-824.2 364.69,-824.2 476.86,-824.2"/>
</g>
<!-- kujaw&#45;&#45;Marketing&#45;i&#45;media&#45;spoecznociowe# -->
<g id="edge56" class="edge">
<title>kujaw&#45;&#45;Marketing&#45;i&#45;media&#45;spoecznociowe#</title>
<path fill="none" stroke="#f29100" d="M83.26,-176C109.91,-176 149.13,-176 149.13,-176 149.13,-176 149.13,-61 149.13,-61 149.13,-61 301.24,-61 431.67,-61"/>
</g>
<!-- kujaw&#45;&#45;Stowarzyszenie#Zarzd -->
<g id="edge54" class="edge">
<title>kujaw&#45;&#45;Stowarzyszenie#Zarzd</title>
<path fill="none" stroke="#f29100" d="M91.3,-180C126.84,-180 179.13,-180 179.13,-180 179.13,-180 179.13,-111.71 179.13,-111.71 179.13,-111.71 374.27,-111.71 503.47,-111.71"/>
</g>
<!-- kujaw&#45;&#45;Marketing&#45;i&#45;media&#45;spoecznociowe#Naklejki -->
<g id="edge53" class="edge">
<title>kujaw&#45;&#45;Marketing&#45;i&#45;media&#45;spoecznociowe#Naklejki</title>
<path fill="none" stroke="#f29100" d="M95.33,-184C175.12,-184 359.13,-184 359.13,-184 359.13,-184 359.13,-18 359.13,-18 359.13,-18 372.61,-18 393.4,-18"/>
</g>
<!-- Marketing&#45;i&#45;media&#45;spoecznociowe#Logo nr 2 -->
<g id="node39" class="node">
<title>Marketing&#45;i&#45;media&#45;spoecznociowe#Logo nr 2</title>
<ellipse fill="none" stroke="black" cx="615.21" cy="-706" rx="227.46" ry="18"/>
<text text-anchor="middle" x="615.21" y="-702.3" font-family="Times,serif" font-size="14.00">Marketing&#45;i&#45;media&#45;spoecznociowe#Logo nr 2</text>
</g>
<!-- kujaw&#45;&#45;Marketing&#45;i&#45;media&#45;spoecznociowe#Logo nr 2 -->
<g id="edge57" class="edge">
<title>kujaw&#45;&#45;Marketing&#45;i&#45;media&#45;spoecznociowe#Logo nr 2</title>
<path fill="none" stroke="#f29100" d="M97.54,-192C148.5,-192 232.13,-192 232.13,-192 232.13,-192 232.13,-706 232.13,-706 232.13,-706 305.29,-706 387.66,-706"/>
</g>
<!-- q3k -->
<g id="node40" class="node">
<title>q3k</title>
<ellipse fill="none" stroke="black" cx="59.14" cy="-749" rx="27.9" ry="18"/>
<text text-anchor="middle" x="59.14" y="-745.3" font-family="Times,serif" font-size="14.00">q3k</text>
</g>
<!-- q3k&#45;&#45;Kanay&#45;komunikacji# -->
<g id="edge59" class="edge">
<title>q3k&#45;&#45;Kanay&#45;komunikacji#</title>
<path fill="none" stroke="#00c64f" d="M83.4,-758C158.39,-758 389.39,-758 520.95,-758"/>
</g>
<!-- q3k&#45;&#45;Infrastruktura::Domeny#Domeny -->
<g id="edge60" class="edge">
<title>q3k&#45;&#45;Infrastruktura::Domeny#Domeny</title>
<path fill="none" stroke="#00c64f" d="M86.25,-753.5C90.29,-753.5 93.13,-753.5 93.13,-753.5 93.13,-753.5 93.13,-880.57 93.13,-880.57 93.13,-880.57 296.75,-880.57 449.66,-880.57"/>
</g>
<!-- q3k&#45;&#45;Marketing&#45;i&#45;media&#45;spoecznociowe#Logo nr 2 -->
<g id="edge58" class="edge">
<title>q3k&#45;&#45;Marketing&#45;i&#45;media&#45;spoecznociowe#Logo nr 2</title>
<path fill="none" stroke="#00c64f" d="M86.21,-744.5C167.54,-744.5 404.13,-744.5 404.13,-744.5 404.13,-744.5 404.13,-724.18 404.13,-713.06"/>
</g>
<!-- BluRaf -->
<g id="node41" class="node">
<title>BluRaf</title>
<ellipse fill="none" stroke="black" cx="59.14" cy="-340" rx="42.49" ry="18"/>
<text text-anchor="middle" x="59.14" y="-336.3" font-family="Times,serif" font-size="14.00">BluRaf</text>
</g>
<!-- BluRaf&#45;&#45;Infrastruktura::IRC#IRC -->
<g id="edge61" class="edge">
<title>BluRaf&#45;&#45;Infrastruktura::IRC#IRC</title>
<path fill="none" stroke="#2e00e4" d="M87.87,-353.33C164.15,-353.33 374.89,-353.33 505.71,-353.33"/>
</g>
<!-- biniu -->
<g id="node42" class="node">
<title>biniu</title>
<ellipse fill="none" stroke="black" cx="59.14" cy="-61" rx="34.39" ry="18"/>
<text text-anchor="middle" x="59.14" y="-57.3" font-family="Times,serif" font-size="14.00">biniu</text>
</g>
<!-- biniu&#45;&#45;Marketing&#45;i&#45;media&#45;spoecznociowe# -->
<g id="edge62" class="edge">
<title>biniu&#45;&#45;Marketing&#45;i&#45;media&#45;spoecznociowe#</title>
<path fill="none" stroke="#ff0000" d="M89.04,-52C157.11,-52 327.71,-52 456.33,-52"/>
</g>
<!-- Keij0 -->
<g id="node43" class="node">
<title>Keij0</title>
<ellipse fill="none" stroke="black" cx="59.14" cy="-18" rx="34.39" ry="18"/>
<text text-anchor="middle" x="59.14" y="-14.3" font-family="Times,serif" font-size="14.00">Keij0</text>
</g>
<!-- Keij0&#45;&#45;Marketing&#45;i&#45;media&#45;spoecznociowe# -->
<g id="edge63" class="edge">
<title>Keij0&#45;&#45;Marketing&#45;i&#45;media&#45;spoecznociowe#</title>
<path fill="none" stroke="#2bd500" d="M89.03,-27C165.46,-27 362.13,-27 362.13,-27 362.13,-27 362.13,-47.5 362.13,-47.5 362.13,-47.5 428.9,-47.5 493.86,-47.5"/>
</g>
<!-- pzduniak -->
<g id="node44" class="node">
<title>pzduniak</title>
<ellipse fill="none" stroke="black" cx="59.14" cy="-1200" rx="52.79" ry="18"/>
<text text-anchor="middle" x="59.14" y="-1196.3" font-family="Times,serif" font-size="14.00">pzduniak</text>
</g>
<!-- pzduniak&#45;&#45;Stowarzyszenie#Komisja Rewizyjna -->
<g id="edge64" class="edge">
<title>pzduniak&#45;&#45;Stowarzyszenie#Komisja Rewizyjna</title>
<path fill="none" stroke="#0061f2" d="M102.32,-1189.5C180.34,-1189.5 348.08,-1189.5 470.56,-1189.5"/>
</g>
<!-- krcz -->
<g id="node45" class="node">
<title>krcz</title>
<ellipse fill="none" stroke="black" cx="59.14" cy="-1157" rx="30.59" ry="18"/>
<text text-anchor="middle" x="59.14" y="-1153.3" font-family="Times,serif" font-size="14.00">krcz</text>
</g>
<!-- krcz&#45;&#45;Stowarzyszenie#Komisja Rewizyjna -->
<g id="edge65" class="edge">
<title>krcz&#45;&#45;Stowarzyszenie#Komisja Rewizyjna</title>
<path fill="none" stroke="#c60077" d="M77.33,-1171.5C134.79,-1171.5 316.73,-1171.5 453.21,-1171.5"/>
</g>
</g>
</svg>
