<?xml version="1.0" encoding="UTF-8" standalone="no"?>
<!DOCTYPE svg PUBLIC "-//W3C//DTD SVG 1.1//EN"
 "http://www.w3.org/Graphics/SVG/1.1/DTD/svg11.dtd">
<!-- Generated by graphviz version 2.40.1 (20161225.0304)
 -->
<!-- Title: %3 Pages: 1 -->
<svg width="850pt" height="882pt"
 viewBox="0.00 0.00 850.04 882.00" xmlns="http://www.w3.org/2000/svg" xmlns:xlink="http://www.w3.org/1999/xlink">
<g id="graph0" class="graph" transform="scale(1 1) rotate(0) translate(4 878)">
<title>%3</title>
<polygon fill="#ffffff" stroke="transparent" points="-4,4 -4,-878 846.0381,-878 846.0381,4 -4,4"/>
<!-- kszmigiel -->
<g id="node1" class="node">
<title>kszmigiel</title>
<ellipse fill="none" stroke="#000000" cx="59.7947" cy="-770" rx="55.4913" ry="18"/>
<text text-anchor="middle" x="59.7947" y="-766.3" font-family="Times,serif" font-size="14.00" fill="#000000">kszmigiel</text>
</g>
<!-- Miejsce::Miejsce#Klucze do spejsu -->
<g id="node2" class="node">
<title>Miejsce::Miejsce#Klucze do spejsu</title>
<ellipse fill="none" stroke="#000000" cx="552.8137" cy="-620" rx="174.6691" ry="18"/>
<text text-anchor="middle" x="552.8137" y="-616.3" font-family="Times,serif" font-size="14.00" fill="#000000">Miejsce::Miejsce#Klucze do spejsu</text>
</g>
<!-- kszmigiel&#45;&#45;Miejsce::Miejsce#Klucze do spejsu -->
<g id="edge1" class="edge">
<title>kszmigiel&#45;&#45;Miejsce::Miejsce#Klucze do spejsu</title>
<path fill="none" stroke="#ff0000" d="M114.1996,-773.6C207.2526,-773.6 387.0381,-773.6 387.0381,-773.6 387.0381,-773.6 387.0381,-653.8906 387.0381,-625.8337"/>
</g>
<!-- Infrastruktura#t.me/hakierspejs -->
<g id="node3" class="node">
<title>Infrastruktura#t.me/hakierspejs</title>
<ellipse fill="none" stroke="#000000" cx="552.8137" cy="-405" rx="163.2712" ry="18"/>
<text text-anchor="middle" x="552.8137" y="-401.3" font-family="Times,serif" font-size="14.00" fill="#000000">Infrastruktura#t.me/hakierspejs</text>
</g>
<!-- kszmigiel&#45;&#45;Infrastruktura#t.me/hakierspejs -->
<g id="edge2" class="edge">
<title>kszmigiel&#45;&#45;Infrastruktura#t.me/hakierspejs</title>
<path fill="none" stroke="#ff0000" d="M104.1549,-759.2C126.5526,-759.2 149.0381,-759.2 149.0381,-759.2 149.0381,-759.2 149.0381,-413 149.0381,-413 149.0381,-413 290.9169,-413 406.4706,-413"/>
</g>
<!-- Infrastruktura#Meetup -->
<g id="node4" class="node">
<title>Infrastruktura#Meetup</title>
<ellipse fill="none" stroke="#000000" cx="552.8137" cy="-727" rx="121.5784" ry="18"/>
<text text-anchor="middle" x="552.8137" y="-723.3" font-family="Times,serif" font-size="14.00" fill="#000000">Infrastruktura#Meetup</text>
</g>
<!-- kszmigiel&#45;&#45;Infrastruktura#Meetup -->
<g id="edge3" class="edge">
<title>kszmigiel&#45;&#45;Infrastruktura#Meetup</title>
<path fill="none" stroke="#ff0000" d="M114.1373,-766.4C189.3552,-766.4 316.0381,-766.4 316.0381,-766.4 316.0381,-766.4 316.0381,-736 316.0381,-736 316.0381,-736 384.0965,-736 447.2366,-736"/>
</g>
<!-- Infrastruktura#Naklejki -->
<g id="node5" class="node">
<title>Infrastruktura#Naklejki</title>
<ellipse fill="none" stroke="#000000" cx="552.8137" cy="-770" rx="125.3778" ry="18"/>
<text text-anchor="middle" x="552.8137" y="-766.3" font-family="Times,serif" font-size="14.00" fill="#000000">Infrastruktura#Naklejki</text>
</g>
<!-- kszmigiel&#45;&#45;Infrastruktura#Naklejki -->
<g id="edge4" class="edge">
<title>kszmigiel&#45;&#45;Infrastruktura#Naklejki</title>
<path fill="none" stroke="#ff0000" d="M104.4164,-780.8C182.5189,-780.8 345.8044,-780.8 452.2859,-780.8"/>
</g>
<!-- Finanse#Naklejki -->
<g id="node6" class="node">
<title>Finanse#Naklejki</title>
<ellipse fill="none" stroke="#000000" cx="552.8137" cy="-813" rx="94.7833" ry="18"/>
<text text-anchor="middle" x="552.8137" y="-809.3" font-family="Times,serif" font-size="14.00" fill="#000000">Finanse#Naklejki</text>
</g>
<!-- kszmigiel&#45;&#45;Finanse#Naklejki -->
<g id="edge5" class="edge">
<title>kszmigiel&#45;&#45;Finanse#Naklejki</title>
<path fill="none" stroke="#ff0000" d="M111.0381,-776.8132C111.0381,-790.2771 111.0381,-819 111.0381,-819 111.0381,-819 334.0191,-819 463.1477,-819"/>
</g>
<!-- q3k -->
<g id="node7" class="node">
<title>q3k</title>
<ellipse fill="none" stroke="#000000" cx="59.7947" cy="-297" rx="28.6953" ry="18"/>
<text text-anchor="middle" x="59.7947" y="-293.3" font-family="Times,serif" font-size="14.00" fill="#000000">q3k</text>
</g>
<!-- Infrastruktura#Domeny -->
<g id="node8" class="node">
<title>Infrastruktura#Domeny</title>
<ellipse fill="none" stroke="#000000" cx="552.8137" cy="-319" rx="124.2781" ry="18"/>
<text text-anchor="middle" x="552.8137" y="-315.3" font-family="Times,serif" font-size="14.00" fill="#000000">Infrastruktura#Domeny</text>
</g>
<!-- q3k&#45;&#45;Infrastruktura#Domeny -->
<g id="edge6" class="edge">
<title>q3k&#45;&#45;Infrastruktura#Domeny</title>
<path fill="none" stroke="#2bd500" d="M82.5852,-308C147.5894,-308 336.7788,-308 454.4272,-308"/>
</g>
<!-- Infrastruktura#Lista mailingowa -->
<g id="node9" class="node">
<title>Infrastruktura#Lista mailingowa</title>
<ellipse fill="none" stroke="#000000" cx="552.8137" cy="-276" rx="165.1707" ry="18"/>
<text text-anchor="middle" x="552.8137" y="-272.3" font-family="Times,serif" font-size="14.00" fill="#000000">Infrastruktura#Lista mailingowa</text>
</g>
<!-- q3k&#45;&#45;Infrastruktura#Lista mailingowa -->
<g id="edge7" class="edge">
<title>q3k&#45;&#45;Infrastruktura#Lista mailingowa</title>
<path fill="none" stroke="#2bd500" d="M79.7322,-284C133.8218,-284 287.1628,-284 404.7469,-284"/>
</g>
<!-- d33tah -->
<g id="node10" class="node">
<title>d33tah</title>
<ellipse fill="none" stroke="#000000" cx="59.7947" cy="-383" rx="43.5923" ry="18"/>
<text text-anchor="middle" x="59.7947" y="-379.3" font-family="Times,serif" font-size="14.00" fill="#000000">d33tah</text>
</g>
<!-- d33tah&#45;&#45;Miejsce::Miejsce#Klucze do spejsu -->
<g id="edge9" class="edge">
<title>d33tah&#45;&#45;Miejsce::Miejsce#Klucze do spejsu</title>
<path fill="none" stroke="#0061f2" d="M97.219,-392.25C182.9125,-392.25 386.0381,-392.25 386.0381,-392.25 386.0381,-392.25 386.0381,-579.2986 386.0381,-614.3702"/>
</g>
<!-- d33tah&#45;&#45;Infrastruktura#t.me/hakierspejs -->
<g id="edge13" class="edge">
<title>d33tah&#45;&#45;Infrastruktura#t.me/hakierspejs</title>
<path fill="none" stroke="#0061f2" d="M99.7229,-390.5C176.6329,-390.5 347.2984,-390.5 455.8245,-390.5"/>
</g>
<!-- d33tah&#45;&#45;Infrastruktura#Meetup -->
<g id="edge16" class="edge">
<title>d33tah&#45;&#45;Infrastruktura#Meetup</title>
<path fill="none" stroke="#0061f2" d="M103.6725,-383.5C146.7494,-383.5 206.0381,-383.5 206.0381,-383.5 206.0381,-383.5 206.0381,-722.5 206.0381,-722.5 206.0381,-722.5 334.3966,-722.5 434.9274,-722.5"/>
</g>
<!-- d33tah&#45;&#45;Infrastruktura#Domeny -->
<g id="edge17" class="edge">
<title>d33tah&#45;&#45;Infrastruktura#Domeny</title>
<path fill="none" stroke="#0061f2" d="M100.0381,-376.0408C100.0381,-360.1056 100.0381,-322.3333 100.0381,-322.3333 100.0381,-322.3333 296.4858,-322.3333 430.5844,-322.3333"/>
</g>
<!-- d33tah&#45;&#45;Infrastruktura#Lista mailingowa -->
<g id="edge11" class="edge">
<title>d33tah&#45;&#45;Infrastruktura#Lista mailingowa</title>
<path fill="none" stroke="#0061f2" d="M94.0381,-371.8478C94.0381,-346.9482 94.0381,-289 94.0381,-289 94.0381,-289 302.6446,-289 438.524,-289"/>
</g>
<!-- Infrastruktura#Hosting -->
<g id="node11" class="node">
<title>Infrastruktura#Hosting</title>
<ellipse fill="none" stroke="#000000" cx="552.8137" cy="-534" rx="122.6784" ry="18"/>
<text text-anchor="middle" x="552.8137" y="-530.3" font-family="Times,serif" font-size="14.00" fill="#000000">Infrastruktura#Hosting</text>
</g>
<!-- d33tah&#45;&#45;Infrastruktura#Hosting -->
<g id="edge8" class="edge">
<title>d33tah&#45;&#45;Infrastruktura#Hosting</title>
<path fill="none" stroke="#0061f2" d="M90.5576,-395.75C151.3493,-395.75 281.0381,-395.75 281.0381,-395.75 281.0381,-395.75 281.0381,-518.3333 281.0381,-518.3333 281.0381,-518.3333 412.0618,-518.3333 492.1602,-518.3333"/>
</g>
<!-- Infrastruktura#t.me/hakierspejs_spam -->
<g id="node12" class="node">
<title>Infrastruktura#t.me/hakierspejs_spam</title>
<ellipse fill="none" stroke="#000000" cx="552.8137" cy="-233" rx="193.0657" ry="18"/>
<text text-anchor="middle" x="552.8137" y="-229.3" font-family="Times,serif" font-size="14.00" fill="#000000">Infrastruktura#t.me/hakierspejs_spam</text>
</g>
<!-- d33tah&#45;&#45;Infrastruktura#t.me/hakierspejs_spam -->
<g id="edge10" class="edge">
<title>d33tah&#45;&#45;Infrastruktura#t.me/hakierspejs_spam</title>
<path fill="none" stroke="#0061f2" d="M90.0093,-370C167.823,-370 369.0381,-370 369.0381,-370 369.0381,-370 369.0381,-264.1708 369.0381,-238.5402"/>
</g>
<!-- Infrastruktura#Pad -->
<g id="node13" class="node">
<title>Infrastruktura#Pad</title>
<ellipse fill="none" stroke="#000000" cx="552.8137" cy="-362" rx="102.8821" ry="18"/>
<text text-anchor="middle" x="552.8137" y="-358.3" font-family="Times,serif" font-size="14.00" fill="#000000">Infrastruktura#Pad</text>
</g>
<!-- d33tah&#45;&#45;Infrastruktura#Pad -->
<g id="edge12" class="edge">
<title>d33tah&#45;&#45;Infrastruktura#Pad</title>
<path fill="none" stroke="#0061f2" d="M98.8932,-375C181.7952,-375 376.247,-375 481.7373,-375"/>
</g>
<!-- Infrastruktura#Github -->
<g id="node14" class="node">
<title>Infrastruktura#Github</title>
<ellipse fill="none" stroke="#000000" cx="552.8137" cy="-577" rx="117.7793" ry="18"/>
<text text-anchor="middle" x="552.8137" y="-573.3" font-family="Times,serif" font-size="14.00" fill="#000000">Infrastruktura#Github</text>
</g>
<!-- d33tah&#45;&#45;Infrastruktura#Github -->
<g id="edge14" class="edge">
<title>d33tah&#45;&#45;Infrastruktura#Github</title>
<path fill="none" stroke="#0061f2" d="M85.9971,-397.5C142.3565,-397.5 270.0381,-397.5 270.0381,-397.5 270.0381,-397.5 270.0381,-566 270.0381,-566 270.0381,-566 377.0724,-566 459.4387,-566"/>
</g>
<!-- Infrastruktura#IRC -->
<g id="node15" class="node">
<title>Infrastruktura#IRC</title>
<ellipse fill="none" stroke="#000000" cx="552.8137" cy="-190" rx="103.9815" ry="18"/>
<text text-anchor="middle" x="552.8137" y="-186.3" font-family="Times,serif" font-size="14.00" fill="#000000">Infrastruktura#IRC</text>
</g>
<!-- d33tah&#45;&#45;Infrastruktura#IRC -->
<g id="edge15" class="edge">
<title>d33tah&#45;&#45;Infrastruktura#IRC</title>
<path fill="none" stroke="#0061f2" d="M92.0381,-370.796C92.0381,-329.416 92.0381,-197 92.0381,-197 92.0381,-197 321.7408,-197 456.7809,-197"/>
</g>
<!-- Infrastruktura#Forum -->
<g id="node16" class="node">
<title>Infrastruktura#Forum</title>
<ellipse fill="none" stroke="#000000" cx="552.8137" cy="-491" rx="116.1796" ry="18"/>
<text text-anchor="middle" x="552.8137" y="-487.3" font-family="Times,serif" font-size="14.00" fill="#000000">Infrastruktura#Forum</text>
</g>
<!-- d33tah&#45;&#45;Infrastruktura#Forum -->
<g id="edge18" class="edge">
<title>d33tah&#45;&#45;Infrastruktura#Forum</title>
<path fill="none" stroke="#0061f2" d="M94.4617,-394C159.4361,-394 293.0381,-394 293.0381,-394 293.0381,-394 293.0381,-476.5 293.0381,-476.5 293.0381,-476.5 406.5851,-476.5 483.5399,-476.5"/>
</g>
<!-- Infrastruktura#Grafana -->
<g id="node17" class="node">
<title>Infrastruktura#Grafana</title>
<ellipse fill="none" stroke="#000000" cx="552.8137" cy="-448" rx="122.6784" ry="18"/>
<text text-anchor="middle" x="552.8137" y="-444.3" font-family="Times,serif" font-size="14.00" fill="#000000">Infrastruktura#Grafana</text>
</g>
<!-- d33tah&#45;&#45;Infrastruktura#Grafana -->
<g id="edge19" class="edge">
<title>d33tah&#45;&#45;Infrastruktura#Grafana</title>
<path fill="none" stroke="#0061f2" d="M78.5383,-399.25C95.2329,-399.25 117.0381,-399.25 117.0381,-399.25 117.0381,-399.25 117.0381,-432.8 117.0381,-432.8 117.0381,-432.8 364.7219,-432.8 486.6288,-432.8"/>
</g>
<!-- cytP450 -->
<g id="node18" class="node">
<title>cytP450</title>
<ellipse fill="none" stroke="#000000" cx="59.7947" cy="-426" rx="49.2915" ry="18"/>
<text text-anchor="middle" x="59.7947" y="-422.3" font-family="Times,serif" font-size="14.00" fill="#000000">cytP450</text>
</g>
<!-- cytP450&#45;&#45;Miejsce::Miejsce#Klucze do spejsu -->
<g id="edge23" class="edge">
<title>cytP450&#45;&#45;Miejsce::Miejsce#Klucze do spejsu</title>
<path fill="none" stroke="#c60077" d="M101.7217,-435.6C189.1835,-435.6 383.0381,-435.6 383.0381,-435.6 383.0381,-435.6 383.0381,-587.0457 383.0381,-615.4418"/>
</g>
<!-- cytP450&#45;&#45;Infrastruktura#Domeny -->
<g id="edge21" class="edge">
<title>cytP450&#45;&#45;Infrastruktura#Domeny</title>
<path fill="none" stroke="#c60077" d="M104.246,-418C109.4991,-418 113.0381,-418 113.0381,-418 113.0381,-418 113.0381,-329.6667 113.0381,-329.6667 113.0381,-329.6667 322.9727,-329.6667 452.7468,-329.6667"/>
</g>
<!-- cytP450&#45;&#45;Infrastruktura#Hosting -->
<g id="edge20" class="edge">
<title>cytP450&#45;&#45;Infrastruktura#Hosting</title>
<path fill="none" stroke="#c60077" d="M86.3104,-441.2C144.0536,-441.2 276.0381,-441.2 276.0381,-441.2 276.0381,-441.2 276.0381,-520.6667 276.0381,-520.6667 276.0381,-520.6667 388.5904,-520.6667 470.1468,-520.6667"/>
</g>
<!-- cytP450&#45;&#45;Infrastruktura#Forum -->
<g id="edge22" class="edge">
<title>cytP450&#45;&#45;Infrastruktura#Forum</title>
<path fill="none" stroke="#c60077" d="M95.8021,-438.4C159.8786,-438.4 287.0381,-438.4 287.0381,-438.4 287.0381,-438.4 287.0381,-480 287.0381,-480 287.0381,-480 383.8418,-480 460.6042,-480"/>
</g>
<!-- Martti25 -->
<g id="node19" class="node">
<title>Martti25</title>
<ellipse fill="none" stroke="#000000" cx="59.7947" cy="-684" rx="51.9908" ry="18"/>
<text text-anchor="middle" x="59.7947" y="-680.3" font-family="Times,serif" font-size="14.00" fill="#000000">Martti25</text>
</g>
<!-- Martti25&#45;&#45;Infrastruktura#Meetup -->
<g id="edge26" class="edge">
<title>Martti25&#45;&#45;Infrastruktura#Meetup</title>
<path fill="none" stroke="#b6e400" d="M105.0758,-693C174.435,-693 299.0381,-693 299.0381,-693 299.0381,-693 299.0381,-718 299.0381,-718 299.0381,-718 377.6701,-718 447.3947,-718"/>
</g>
<!-- Martti25&#45;&#45;Infrastruktura#Github -->
<g id="edge24" class="edge">
<title>Martti25&#45;&#45;Infrastruktura#Github</title>
<path fill="none" stroke="#b6e400" d="M105.0381,-675.0945C105.0381,-651.2051 105.0381,-587.5 105.0381,-587.5 105.0381,-587.5 325.4901,-587.5 457.0294,-587.5"/>
</g>
<!-- Infrastruktura#Konto na Fejsie -->
<g id="node20" class="node">
<title>Infrastruktura#Konto na Fejsie</title>
<ellipse fill="none" stroke="#000000" cx="552.8137" cy="-684" rx="157.0724" ry="18"/>
<text text-anchor="middle" x="552.8137" y="-680.3" font-family="Times,serif" font-size="14.00" fill="#000000">Infrastruktura#Konto na Fejsie</text>
</g>
<!-- Martti25&#45;&#45;Infrastruktura#Konto na Fejsie -->
<g id="edge25" class="edge">
<title>Martti25&#45;&#45;Infrastruktura#Konto na Fejsie</title>
<path fill="none" stroke="#b6e400" d="M112.0896,-684C179.0013,-684 297.9037,-684 395.3552,-684"/>
</g>
<!-- biniu -->
<g id="node21" class="node">
<title>biniu</title>
<ellipse fill="none" stroke="#000000" cx="59.7947" cy="-813" rx="34.394" ry="18"/>
<text text-anchor="middle" x="59.7947" y="-809.3" font-family="Times,serif" font-size="14.00" fill="#000000">biniu</text>
</g>
<!-- biniu&#45;&#45;Infrastruktura#Meetup -->
<g id="edge27" class="edge">
<title>biniu&#45;&#45;Infrastruktura#Meetup</title>
<path fill="none" stroke="#00ffff" d="M92.4778,-807C162.7767,-807 322.0381,-807 322.0381,-807 322.0381,-807 322.0381,-740.5 322.0381,-740.5 322.0381,-740.5 405.5506,-740.5 472.0996,-740.5"/>
</g>
<!-- nikolaad -->
<g id="node22" class="node">
<title>nikolaad</title>
<ellipse fill="none" stroke="#000000" cx="59.7947" cy="-727" rx="50.0912" ry="18"/>
<text text-anchor="middle" x="59.7947" y="-723.3" font-family="Times,serif" font-size="14.00" fill="#000000">nikolaad</text>
</g>
<!-- nikolaad&#45;&#45;Infrastruktura#Meetup -->
<g id="edge29" class="edge">
<title>nikolaad&#45;&#45;Infrastruktura#Meetup</title>
<path fill="none" stroke="#ab00d5" d="M108.4165,-731.5C183.7255,-731.5 330.7526,-731.5 435.044,-731.5"/>
</g>
<!-- nikolaad&#45;&#45;Infrastruktura#Konto na Fejsie -->
<g id="edge28" class="edge">
<title>nikolaad&#45;&#45;Infrastruktura#Konto na Fejsie</title>
<path fill="none" stroke="#ab00d5" d="M92.9329,-713.5C180.619,-713.5 412.0381,-713.5 412.0381,-713.5 412.0381,-713.5 412.0381,-700.7954 412.0381,-692.061"/>
</g>
<!-- Keij0 -->
<g id="node23" class="node">
<title>Keij0</title>
<ellipse fill="none" stroke="#000000" cx="59.7947" cy="-641" rx="34.394" ry="18"/>
<text text-anchor="middle" x="59.7947" y="-637.3" font-family="Times,serif" font-size="14.00" fill="#000000">Keij0</text>
</g>
<!-- Keij0&#45;&#45;Infrastruktura#Meetup -->
<g id="edge31" class="edge">
<title>Keij0&#45;&#45;Infrastruktura#Meetup</title>
<path fill="none" stroke="#f29100" d="M91.1713,-648.5C126.2015,-648.5 178.0381,-648.5 178.0381,-648.5 178.0381,-648.5 178.0381,-727 178.0381,-727 178.0381,-727 321.7027,-727 431.1348,-727"/>
</g>
<!-- Keij0&#45;&#45;Infrastruktura#Hosting -->
<g id="edge30" class="edge">
<title>Keij0&#45;&#45;Infrastruktura#Hosting</title>
<path fill="none" stroke="#f29100" d="M88.206,-630.5C95.8475,-630.5 102.0381,-630.5 102.0381,-630.5 102.0381,-630.5 102.0381,-547 102.0381,-547 102.0381,-547 337.1296,-547 467.7614,-547"/>
</g>
<!-- BluRaf -->
<g id="node24" class="node">
<title>BluRaf</title>
<ellipse fill="none" stroke="#000000" cx="59.7947" cy="-168" rx="42.4939" ry="18"/>
<text text-anchor="middle" x="59.7947" y="-164.3" font-family="Times,serif" font-size="14.00" fill="#000000">BluRaf</text>
</g>
<!-- BluRaf&#45;&#45;Infrastruktura#t.me/hakierspejs -->
<g id="edge34" class="edge">
<title>BluRaf&#45;&#45;Infrastruktura#t.me/hakierspejs</title>
<path fill="none" stroke="#00c64f" d="M93.284,-179C161.473,-179 310.0381,-179 310.0381,-179 310.0381,-179 310.0381,-388.75 310.0381,-388.75 310.0381,-388.75 410.8921,-388.75 482.5929,-388.75"/>
</g>
<!-- BluRaf&#45;&#45;Infrastruktura#t.me/hakierspejs_spam -->
<g id="edge32" class="edge">
<title>BluRaf&#45;&#45;Infrastruktura#t.me/hakierspejs_spam</title>
<path fill="none" stroke="#00c64f" d="M97.0381,-176.4976C97.0381,-194.1166 97.0381,-233 97.0381,-233 97.0381,-233 235.3022,-233 359.5238,-233"/>
</g>
<!-- BluRaf&#45;&#45;Infrastruktura#IRC -->
<g id="edge37" class="edge">
<title>BluRaf&#45;&#45;Infrastruktura#IRC</title>
<path fill="none" stroke="#00c64f" d="M98.4811,-175.5C183.6065,-175.5 387.7595,-175.5 490.9185,-175.5"/>
</g>
<!-- BluRaf&#45;&#45;Infrastruktura#Konto na Fejsie -->
<g id="edge35" class="edge">
<title>BluRaf&#45;&#45;Infrastruktura#Konto na Fejsie</title>
<path fill="none" stroke="#00c64f" d="M85.1163,-182.5C147.7756,-182.5 305.0381,-182.5 305.0381,-182.5 305.0381,-182.5 305.0381,-675 305.0381,-675 305.0381,-675 358.8025,-675 416.2423,-675"/>
</g>
<!-- Infrastruktura#hs&#45;ldz:hackerspace.pl -->
<g id="node25" class="node">
<title>Infrastruktura#hs&#45;ldz:hackerspace.pl</title>
<ellipse fill="none" stroke="#000000" cx="552.8137" cy="-104" rx="186.5669" ry="18"/>
<text text-anchor="middle" x="552.8137" y="-100.3" font-family="Times,serif" font-size="14.00" fill="#000000">Infrastruktura#hs&#45;ldz:hackerspace.pl</text>
</g>
<!-- BluRaf&#45;&#45;Infrastruktura#hs&#45;ldz:hackerspace.pl -->
<g id="edge33" class="edge">
<title>BluRaf&#45;&#45;Infrastruktura#hs&#45;ldz:hackerspace.pl</title>
<path fill="none" stroke="#00c64f" d="M94.4089,-157.5C180.063,-157.5 395.0381,-157.5 395.0381,-157.5 395.0381,-157.5 395.0381,-129.2577 395.0381,-113.8127"/>
</g>
<!-- Infrastruktura#hs&#45;ldz&#45;offtopic:hackerspace.pl -->
<g id="node26" class="node">
<title>Infrastruktura#hs&#45;ldz&#45;offtopic:hackerspace.pl</title>
<ellipse fill="none" stroke="#000000" cx="552.8137" cy="-61" rx="225.56" ry="18"/>
<text text-anchor="middle" x="552.8137" y="-57.3" font-family="Times,serif" font-size="14.00" fill="#000000">Infrastruktura#hs&#45;ldz&#45;offtopic:hackerspace.pl</text>
</g>
<!-- BluRaf&#45;&#45;Infrastruktura#hs&#45;ldz&#45;offtopic:hackerspace.pl -->
<g id="edge36" class="edge">
<title>BluRaf&#45;&#45;Infrastruktura#hs&#45;ldz&#45;offtopic:hackerspace.pl</title>
<path fill="none" stroke="#00c64f" d="M85.7729,-153.75C155.9417,-153.75 344.0381,-153.75 344.0381,-153.75 344.0381,-153.75 344.0381,-89.5414 344.0381,-67.9713"/>
</g>
<!-- Infrastruktura#Mumble -->
<g id="node27" class="node">
<title>Infrastruktura#Mumble</title>
<ellipse fill="none" stroke="#000000" cx="552.8137" cy="-18" rx="124.2781" ry="18"/>
<text text-anchor="middle" x="552.8137" y="-14.3" font-family="Times,serif" font-size="14.00" fill="#000000">Infrastruktura#Mumble</text>
</g>
<!-- BluRaf&#45;&#45;Infrastruktura#Mumble -->
<g id="edge38" class="edge">
<title>BluRaf&#45;&#45;Infrastruktura#Mumble</title>
<path fill="none" stroke="#00c64f" d="M60.0381,-149.9065C60.0381,-110.0111 60.0381,-18 60.0381,-18 60.0381,-18 282.4849,-18 428.4656,-18"/>
</g>
<!-- Infrastruktura#Konfident -->
<g id="node28" class="node">
<title>Infrastruktura#Konfident</title>
<ellipse fill="none" stroke="#000000" cx="552.8137" cy="-147" rx="130.777" ry="18"/>
<text text-anchor="middle" x="552.8137" y="-143.3" font-family="Times,serif" font-size="14.00" fill="#000000">Infrastruktura#Konfident</text>
</g>
<!-- BluRaf&#45;&#45;Infrastruktura#Konfident -->
<g id="edge39" class="edge">
<title>BluRaf&#45;&#45;Infrastruktura#Konfident</title>
<path fill="none" stroke="#00c64f" d="M99.3071,-161.25C180.0816,-161.25 365.5014,-161.25 472.5614,-161.25"/>
</g>
<!-- kpc -->
<g id="node29" class="node">
<title>kpc</title>
<ellipse fill="none" stroke="#000000" cx="59.7947" cy="-555" rx="27.8951" ry="18"/>
<text text-anchor="middle" x="59.7947" y="-551.3" font-family="Times,serif" font-size="14.00" fill="#000000">kpc</text>
</g>
<!-- kpc&#45;&#45;Infrastruktura#Hosting -->
<g id="edge40" class="edge">
<title>kpc&#45;&#45;Infrastruktura#Hosting</title>
<path fill="none" stroke="#2e00e4" d="M79.4259,-542C139.2429,-542 322.4687,-542 442.6382,-542"/>
</g>
<!-- thinkofher -->
<g id="node30" class="node">
<title>thinkofher</title>
<ellipse fill="none" stroke="#000000" cx="59.7947" cy="-469" rx="59.5901" ry="18"/>
<text text-anchor="middle" x="59.7947" y="-465.3" font-family="Times,serif" font-size="14.00" fill="#000000">thinkofher</text>
</g>
<!-- thinkofher&#45;&#45;Infrastruktura#Hosting -->
<g id="edge41" class="edge">
<title>thinkofher&#45;&#45;Infrastruktura#Hosting</title>
<path fill="none" stroke="#ff0000" d="M109.0381,-479.4117C109.0381,-495.1035 109.0381,-523 109.0381,-523 109.0381,-523 324.7926,-523 455.4253,-523"/>
</g>
<!-- thinkofher&#45;&#45;Infrastruktura#Forum -->
<g id="edge42" class="edge">
<title>thinkofher&#45;&#45;Infrastruktura#Forum</title>
<path fill="none" stroke="#ff0000" d="M95.2514,-483.5C167.8363,-483.5 335.8527,-483.5 446.8241,-483.5"/>
</g>
<!-- pmysl -->
<g id="node31" class="node">
<title>pmysl</title>
<ellipse fill="none" stroke="#000000" cx="59.7947" cy="-512" rx="38.1938" ry="18"/>
<text text-anchor="middle" x="59.7947" y="-508.3" font-family="Times,serif" font-size="14.00" fill="#000000">pmysl</text>
</g>
<!-- pmysl&#45;&#45;Miejsce::Miejsce#Klucze do spejsu -->
<g id="edge46" class="edge">
<title>pmysl&#45;&#45;Miejsce::Miejsce#Klucze do spejsu</title>
<path fill="none" stroke="#2bd500" d="M78.9279,-527.6667C148.0856,-527.6667 381.0381,-527.6667 381.0381,-527.6667 381.0381,-527.6667 381.0381,-599.6274 381.0381,-616.4932"/>
</g>
<!-- pmysl&#45;&#45;Infrastruktura#Hosting -->
<g id="edge43" class="edge">
<title>pmysl&#45;&#45;Infrastruktura#Hosting</title>
<path fill="none" stroke="#2bd500" d="M85.6074,-525.3333C151.4855,-525.3333 328.8382,-525.3333 445.0958,-525.3333"/>
</g>
<!-- pmysl&#45;&#45;Infrastruktura#Forum -->
<g id="edge44" class="edge">
<title>pmysl&#45;&#45;Infrastruktura#Forum</title>
<path fill="none" stroke="#2bd500" d="M94.4628,-504C172.2727,-504 362.5331,-504 471.8999,-504"/>
</g>
<!-- pmysl&#45;&#45;Infrastruktura#Grafana -->
<g id="edge45" class="edge">
<title>pmysl&#45;&#45;Infrastruktura#Grafana</title>
<path fill="none" stroke="#2bd500" d="M86.4104,-499C135.4342,-499 235.0381,-499 235.0381,-499 235.0381,-499 235.0381,-458.5 235.0381,-458.5 235.0381,-458.5 359.5574,-458.5 452.7037,-458.5"/>
</g>
<!-- nuke -->
<g id="node32" class="node">
<title>nuke</title>
<ellipse fill="none" stroke="#000000" cx="59.7947" cy="-598" rx="33.5952" ry="18"/>
<text text-anchor="middle" x="59.7947" y="-594.3" font-family="Times,serif" font-size="14.00" fill="#000000">nuke</text>
</g>
<!-- nuke&#45;&#45;Miejsce::Miejsce#Klucze do spejsu -->
<g id="edge47" class="edge">
<title>nuke&#45;&#45;Miejsce::Miejsce#Klucze do spejsu</title>
<path fill="none" stroke="#0061f2" d="M86.6517,-609C147.6374,-609 300.1219,-609 414.1999,-609"/>
</g>
<!-- ksiezak -->
<g id="node33" class="node">
<title>ksiezak</title>
<ellipse fill="none" stroke="#000000" cx="59.7947" cy="-856" rx="46.2923" ry="18"/>
<text text-anchor="middle" x="59.7947" y="-852.3" font-family="Times,serif" font-size="14.00" fill="#000000">ksiezak</text>
</g>
<!-- Współdzielony&#45;kalendarz&#45;i&#45;lista&#45;kontaktów#Założenie konta -->
<g id="node34" class="node">
<title>Współdzielony&#45;kalendarz&#45;i&#45;lista&#45;kontaktów#Założenie konta</title>
<ellipse fill="none" stroke="#000000" cx="552.8137" cy="-856" rx="289.4488" ry="18"/>
<text text-anchor="middle" x="552.8137" y="-852.3" font-family="Times,serif" font-size="14.00" fill="#000000">Współdzielony&#45;kalendarz&#45;i&#45;lista&#45;kontaktów#Założenie konta</text>
</g>
<!-- ksiezak&#45;&#45;Współdzielony&#45;kalendarz&#45;i&#45;lista&#45;kontaktów#Założenie konta -->
<g id="edge48" class="edge">
<title>ksiezak&#45;&#45;Współdzielony&#45;kalendarz&#45;i&#45;lista&#45;kontaktów#Założenie konta</title>
<path fill="none" stroke="#c60077" d="M106.1767,-856C144.4101,-856 202.167,-856 263.5729,-856"/>
</g>
</g>
</svg>
