<?xml version="1.0" encoding="UTF-8" standalone="no"?>
<!DOCTYPE svg PUBLIC "-//W3C//DTD SVG 1.1//EN"
 "http://www.w3.org/Graphics/SVG/1.1/DTD/svg11.dtd">
<!-- Generated by graphviz version 2.43.0 (0)
 -->
<!-- Title: %3 Pages: 1 -->
<svg width="994pt" height="1205pt"
 viewBox="0.00 0.00 994.00 1205.00" xmlns="http://www.w3.org/2000/svg" xmlns:xlink="http://www.w3.org/1999/xlink">
<g id="graph0" class="graph" transform="scale(1 1) rotate(0) translate(4 1201)">
<title>%3</title>
<polygon fill="white" stroke="transparent" points="-4,4 -4,-1201 990,-1201 990,4 -4,4"/>
<!-- thinkofher -->
<g id="node1" class="node">
<title>thinkofher</title>
<ellipse fill="none" stroke="black" cx="77.02" cy="-964" rx="59.29" ry="18"/>
<text text-anchor="middle" x="77.02" y="-960.3" font-family="Times,serif" font-size="14.00">thinkofher</text>
</g>
<!-- Infrastruktura::Telegram#G贸wny: t.me/hakierspejs -->
<g id="node2" class="node">
<title>Infrastruktura::Telegram#G贸wny: t.me/hakierspejs</title>
<ellipse fill="none" stroke="black" cx="633.08" cy="-878" rx="251.56" ry="18"/>
<text text-anchor="middle" x="633.08" y="-874.3" font-family="Times,serif" font-size="14.00">Infrastruktura::Telegram#G贸wny: t.me/hakierspejs</text>
</g>
<!-- thinkofher&#45;&#45;Infrastruktura::Telegram#G贸wny: t.me/hakierspejs -->
<g id="edge1" class="edge">
<title>thinkofher&#45;&#45;Infrastruktura::Telegram#G贸wny: t.me/hakierspejs</title>
<path fill="none" stroke="#ff0000" d="M122,-952.11C122,-931.19 122,-890 122,-890 122,-890 299.52,-890 445.31,-890"/>
</g>
<!-- Marketing&#45;i&#45;media&#45;spoecznociowe# -->
<g id="node3" class="node">
<title>Marketing&#45;i&#45;media&#45;spoecznociowe#</title>
<ellipse fill="none" stroke="black" cx="633.08" cy="-835" rx="183.07" ry="18"/>
<text text-anchor="middle" x="633.08" y="-831.3" font-family="Times,serif" font-size="14.00">Marketing&#45;i&#45;media&#45;spoecznociowe#</text>
</g>
<!-- thinkofher&#45;&#45;Marketing&#45;i&#45;media&#45;spoecznociowe# -->
<g id="edge2" class="edge">
<title>thinkofher&#45;&#45;Marketing&#45;i&#45;media&#45;spoecznociowe#</title>
<path fill="none" stroke="#ff0000" d="M135.88,-962C191.99,-962 268,-962 268,-962 268,-962 268,-839.5 268,-839.5 268,-839.5 362.51,-839.5 455.35,-839.5"/>
</g>
<!-- Kanay&#45;komunikacji# -->
<g id="node4" class="node">
<title>Kanay&#45;komunikacji#</title>
<ellipse fill="none" stroke="black" cx="633.08" cy="-749" rx="108.58" ry="18"/>
<text text-anchor="middle" x="633.08" y="-745.3" font-family="Times,serif" font-size="14.00">Kanay&#45;komunikacji#</text>
</g>
<!-- thinkofher&#45;&#45;Kanay&#45;komunikacji# -->
<g id="edge3" class="edge">
<title>thinkofher&#45;&#45;Kanay&#45;komunikacji#</title>
<path fill="none" stroke="#ff0000" d="M126.4,-954C179.38,-954 256,-954 256,-954 256,-954 256,-761 256,-761 256,-761 440.87,-761 551.72,-761"/>
</g>
<!-- Stowarzyszenie#Zarzd -->
<g id="node5" class="node">
<title>Stowarzyszenie#Zarzd</title>
<ellipse fill="none" stroke="black" cx="633.08" cy="-792" rx="123.48" ry="18"/>
<text text-anchor="middle" x="633.08" y="-788.3" font-family="Times,serif" font-size="14.00">Stowarzyszenie#Zarzd</text>
</g>
<!-- thinkofher&#45;&#45;Stowarzyszenie#Zarzd -->
<g id="edge4" class="edge">
<title>thinkofher&#45;&#45;Stowarzyszenie#Zarzd</title>
<path fill="none" stroke="#ff0000" d="M133.02,-958C187.47,-958 262,-958 262,-958 262,-958 262,-801 262,-801 262,-801 416.15,-801 525.75,-801"/>
</g>
<!-- Infrastruktura::IRC#IRC -->
<g id="node6" class="node">
<title>Infrastruktura::IRC#IRC</title>
<ellipse fill="none" stroke="black" cx="633.08" cy="-1050" rx="124.58" ry="18"/>
<text text-anchor="middle" x="633.08" y="-1046.3" font-family="Times,serif" font-size="14.00">Infrastruktura::IRC#IRC</text>
</g>
<!-- thinkofher&#45;&#45;Infrastruktura::IRC#IRC -->
<g id="edge5" class="edge">
<title>thinkofher&#45;&#45;Infrastruktura::IRC#IRC</title>
<path fill="none" stroke="#ff0000" d="M123,-975.58C123,-999.59 123,-1052.57 123,-1052.57 123,-1052.57 358.31,-1052.57 509.28,-1052.57"/>
</g>
<!-- Infrastruktura::Github#Github -->
<g id="node7" class="node">
<title>Infrastruktura::Github#Github</title>
<ellipse fill="none" stroke="black" cx="633.08" cy="-964" rx="154.07" ry="18"/>
<text text-anchor="middle" x="633.08" y="-960.3" font-family="Times,serif" font-size="14.00">Infrastruktura::Github#Github</text>
</g>
<!-- thinkofher&#45;&#45;Infrastruktura::Github#Github -->
<g id="edge6" class="edge">
<title>thinkofher&#45;&#45;Infrastruktura::Github#Github</title>
<path fill="none" stroke="#ff0000" d="M132.88,-970C215.09,-970 371.46,-970 487.57,-970"/>
</g>
<!-- Infrastruktura::Matrix#hs&#45;ldz&#45;offtopic:hackerspace.pl -->
<g id="node8" class="node">
<title>Infrastruktura::Matrix#hs&#45;ldz&#45;offtopic:hackerspace.pl</title>
<ellipse fill="none" stroke="black" cx="633.08" cy="-1136" rx="258.85" ry="18"/>
<text text-anchor="middle" x="633.08" y="-1132.3" font-family="Times,serif" font-size="14.00">Infrastruktura::Matrix#hs&#45;ldz&#45;offtopic:hackerspace.pl</text>
</g>
<!-- thinkofher&#45;&#45;Infrastruktura::Matrix#hs&#45;ldz&#45;offtopic:hackerspace.pl -->
<g id="edge7" class="edge">
<title>thinkofher&#45;&#45;Infrastruktura::Matrix#hs&#45;ldz&#45;offtopic:hackerspace.pl</title>
<path fill="none" stroke="#ff0000" d="M114.39,-978C197.82,-978 392,-978 392,-978 392,-978 392,-1098.97 392,-1129.21"/>
</g>
<!-- Bazy&#45;danych# -->
<g id="node9" class="node">
<title>Bazy&#45;danych#</title>
<ellipse fill="none" stroke="black" cx="633.08" cy="-1007" rx="77.19" ry="18"/>
<text text-anchor="middle" x="633.08" y="-1003.3" font-family="Times,serif" font-size="14.00">Bazy&#45;danych#</text>
</g>
<!-- thinkofher&#45;&#45;Bazy&#45;danych# -->
<g id="edge8" class="edge">
<title>thinkofher&#45;&#45;Bazy&#45;danych#</title>
<path fill="none" stroke="#ff0000" d="M127,-973.92C127,-988.23 127,-1013 127,-1013 127,-1013 419.88,-1013 560.03,-1013"/>
</g>
<!-- Infrastruktura::Matrix#hs&#45;ldz:hackerspace.pl -->
<g id="node10" class="node">
<title>Infrastruktura::Matrix#hs&#45;ldz:hackerspace.pl</title>
<ellipse fill="none" stroke="black" cx="633.08" cy="-1093" rx="221.76" ry="18"/>
<text text-anchor="middle" x="633.08" y="-1089.3" font-family="Times,serif" font-size="14.00">Infrastruktura::Matrix#hs&#45;ldz:hackerspace.pl</text>
</g>
<!-- thinkofher&#45;&#45;Infrastruktura::Matrix#hs&#45;ldz:hackerspace.pl -->
<g id="edge9" class="edge">
<title>thinkofher&#45;&#45;Infrastruktura::Matrix#hs&#45;ldz:hackerspace.pl</title>
<path fill="none" stroke="#ff0000" d="M126.4,-974C226.94,-974 446,-974 446,-974 446,-974 446,-1054.84 446,-1083.26"/>
</g>
<!-- d33tah -->
<g id="node11" class="node">
<title>d33tah</title>
<ellipse fill="none" stroke="black" cx="77.02" cy="-684" rx="43.59" ry="18"/>
<text text-anchor="middle" x="77.02" y="-680.3" font-family="Times,serif" font-size="14.00">d33tah</text>
</g>
<!-- d33tah&#45;&#45;Infrastruktura::Telegram#G贸wny: t.me/hakierspejs -->
<g id="edge10" class="edge">
<title>d33tah&#45;&#45;Infrastruktura::Telegram#G贸wny: t.me/hakierspejs</title>
<path fill="none" stroke="#2bd500" d="M109.54,-696C190.02,-696 392,-696 392,-696 392,-696 392,-842.91 392,-872.75"/>
</g>
<!-- d33tah&#45;&#45;Marketing&#45;i&#45;media&#45;spoecznociowe# -->
<g id="edge12" class="edge">
<title>d33tah&#45;&#45;Marketing&#45;i&#45;media&#45;spoecznociowe#</title>
<path fill="none" stroke="#2bd500" d="M113.31,-694C214.08,-694 490,-694 490,-694 490,-694 490,-789.79 490,-823.46"/>
</g>
<!-- d33tah&#45;&#45;Kanay&#45;komunikacji# -->
<g id="edge11" class="edge">
<title>d33tah&#45;&#45;Kanay&#45;komunikacji#</title>
<path fill="none" stroke="#2bd500" d="M117,-691.2C117,-708.13 117,-749 117,-749 117,-749 372.85,-749 524.26,-749"/>
</g>
<!-- d33tah&#45;&#45;Stowarzyszenie#Zarzd -->
<g id="edge16" class="edge">
<title>d33tah&#45;&#45;Stowarzyszenie#Zarzd</title>
<path fill="none" stroke="#2bd500" d="M116.15,-692C224.08,-692 518,-692 518,-692 518,-692 518,-763.19 518,-785.44"/>
</g>
<!-- d33tah&#45;&#45;Infrastruktura::IRC#IRC -->
<g id="edge17" class="edge">
<title>d33tah&#45;&#45;Infrastruktura::IRC#IRC</title>
<path fill="none" stroke="#2bd500" d="M120.51,-685.67C186.42,-685.67 304,-685.67 304,-685.67 304,-685.67 304,-1047.43 304,-1047.43 304,-1047.43 415.85,-1047.43 509.14,-1047.43"/>
</g>
<!-- d33tah&#45;&#45;Infrastruktura::Github#Github -->
<g id="edge20" class="edge">
<title>d33tah&#45;&#45;Infrastruktura::Github#Github</title>
<path fill="none" stroke="#2bd500" d="M104.84,-698C170.18,-698 328,-698 328,-698 328,-698 328,-950 328,-950 328,-950 446.8,-950 536.13,-950"/>
</g>
<!-- Bazy&#45;danych#Grafana -->
<g id="node12" class="node">
<title>Bazy&#45;danych#Grafana</title>
<ellipse fill="none" stroke="black" cx="633.08" cy="-921" rx="114.28" ry="18"/>
<text text-anchor="middle" x="633.08" y="-917.3" font-family="Times,serif" font-size="14.00">Bazy&#45;danych#Grafana</text>
</g>
<!-- d33tah&#45;&#45;Bazy&#45;danych#Grafana -->
<g id="edge13" class="edge">
<title>d33tah&#45;&#45;Bazy&#45;danych#Grafana</title>
<path fill="none" stroke="#2bd500" d="M97.22,-700C130.45,-700 193,-700 193,-700 193,-700 193,-912 193,-912 193,-912 403.97,-912 533.77,-912"/>
</g>
<!-- Infrastruktura::Telegram#Spacerspejs: t.me/joinchat/UYf2ONtNj21J1DS6 -->
<g id="node13" class="node">
<title>Infrastruktura::Telegram#Spacerspejs: t.me/joinchat/UYf2ONtNj21J1DS6</title>
<ellipse fill="none" stroke="black" cx="633.08" cy="-577" rx="352.84" ry="18"/>
<text text-anchor="middle" x="633.08" y="-573.3" font-family="Times,serif" font-size="14.00">Infrastruktura::Telegram#Spacerspejs: t.me/joinchat/UYf2ONtNj21J1DS6</text>
</g>
<!-- d33tah&#45;&#45;Infrastruktura::Telegram#Spacerspejs: t.me/joinchat/UYf2ONtNj21J1DS6 -->
<g id="edge14" class="edge">
<title>d33tah&#45;&#45;Infrastruktura::Telegram#Spacerspejs: t.me/joinchat/UYf2ONtNj21J1DS6</title>
<path fill="none" stroke="#2bd500" d="M114.25,-674.57C189.17,-674.57 351,-674.57 351,-674.57 351,-674.57 351,-613.82 351,-588.19"/>
</g>
<!-- Bazy&#45;danych#Pad -->
<g id="node14" class="node">
<title>Bazy&#45;danych#Pad</title>
<ellipse fill="none" stroke="black" cx="633.08" cy="-534" rx="94.48" ry="18"/>
<text text-anchor="middle" x="633.08" y="-530.3" font-family="Times,serif" font-size="14.00">Bazy&#45;danych#Pad</text>
</g>
<!-- d33tah&#45;&#45;Bazy&#45;danych#Pad -->
<g id="edge15" class="edge">
<title>d33tah&#45;&#45;Bazy&#45;danych#Pad</title>
<path fill="none" stroke="#2bd500" d="M110.61,-672.43C134.36,-672.43 162,-672.43 162,-672.43 162,-672.43 162,-544.8 162,-544.8 162,-544.8 424.57,-544.8 557.66,-544.8"/>
</g>
<!-- Drzwi&#45;frontowe#Ekran  -->
<g id="node15" class="node">
<title>Drzwi&#45;frontowe#Ekran </title>
<ellipse fill="none" stroke="black" cx="633.08" cy="-491" rx="120.78" ry="18"/>
<text text-anchor="middle" x="633.08" y="-487.3" font-family="Times,serif" font-size="14.00">Drzwi&#45;frontowe#Ekran </text>
</g>
<!-- d33tah&#45;&#45;Drzwi&#45;frontowe#Ekran  -->
<g id="edge18" class="edge">
<title>d33tah&#45;&#45;Drzwi&#45;frontowe#Ekran </title>
<path fill="none" stroke="black" d="M105.61,-670.29C127.87,-670.29 155,-670.29 155,-670.29 155,-670.29 155,-491 155,-491 155,-491 370.5,-491 512.13,-491"/>
</g>
<!-- Bazy&#45;danych#Trello -->
<g id="node19" class="node">
<title>Bazy&#45;danych#Trello</title>
<ellipse fill="none" stroke="black" cx="633.08" cy="-706" rx="103.98" ry="18"/>
<text text-anchor="middle" x="633.08" y="-702.3" font-family="Times,serif" font-size="14.00">Bazy&#45;danych#Trello</text>
</g>
<!-- d33tah&#45;&#45;Bazy&#45;danych#Trello -->
<g id="edge19" class="edge">
<title>d33tah&#45;&#45;Bazy&#45;danych#Trello</title>
<path fill="none" stroke="#2bd500" d="M118.36,-690C219.29,-690 477.86,-690 585.23,-690"/>
</g>
<!-- Infrastruktura::Mariuszbot#Mariuszbot -->
<g id="node20" class="node">
<title>Infrastruktura::Mariuszbot#Mariuszbot</title>
<ellipse fill="none" stroke="black" cx="633.08" cy="-663" rx="196.07" ry="18"/>
<text text-anchor="middle" x="633.08" y="-659.3" font-family="Times,serif" font-size="14.00">Infrastruktura::Mariuszbot#Mariuszbot</text>
</g>
<!-- d33tah&#45;&#45;Infrastruktura::Mariuszbot#Mariuszbot -->
<g id="edge21" class="edge">
<title>d33tah&#45;&#45;Infrastruktura::Mariuszbot#Mariuszbot</title>
<path fill="none" stroke="#2bd500" d="M118.81,-678.86C207.78,-678.86 417.75,-678.86 540.11,-678.86"/>
</g>
<!-- Infrastruktura::Telegram#HS24: t.me/hsl_info -->
<g id="node21" class="node">
<title>Infrastruktura::Telegram#HS24: t.me/hsl_info</title>
<ellipse fill="none" stroke="black" cx="633.08" cy="-620" rx="231.26" ry="18"/>
<text text-anchor="middle" x="633.08" y="-616.3" font-family="Times,serif" font-size="14.00">Infrastruktura::Telegram#HS24: t.me/hsl_info</text>
</g>
<!-- d33tah&#45;&#45;Infrastruktura::Telegram#HS24: t.me/hsl_info -->
<g id="edge22" class="edge">
<title>d33tah&#45;&#45;Infrastruktura::Telegram#HS24: t.me/hsl_info</title>
<path fill="none" stroke="#2bd500" d="M117.03,-676.71C207.51,-676.71 420,-676.71 420,-676.71 420,-676.71 420,-642.79 420,-627.41"/>
</g>
<!-- Infrastruktura::Telegram#posty: t.me/hakierspejs_spam -->
<g id="node22" class="node">
<title>Infrastruktura::Telegram#posty: t.me/hakierspejs_spam</title>
<ellipse fill="none" stroke="black" cx="633.08" cy="-405" rx="284.05" ry="18"/>
<text text-anchor="middle" x="633.08" y="-401.3" font-family="Times,serif" font-size="14.00">Infrastruktura::Telegram#posty: t.me/hakierspejs_spam</text>
</g>
<!-- d33tah&#45;&#45;Infrastruktura::Telegram#posty: t.me/hakierspejs_spam -->
<g id="edge23" class="edge">
<title>d33tah&#45;&#45;Infrastruktura::Telegram#posty: t.me/hakierspejs_spam</title>
<path fill="none" stroke="#2bd500" d="M120.66,-683.33C132.93,-683.33 143,-683.33 143,-683.33 143,-683.33 143,-417 143,-417 143,-417 288.79,-417 421.33,-417"/>
</g>
<!-- Miejsce::Miejsce#Klucze do spejsu -->
<g id="node23" class="node">
<title>Miejsce::Miejsce#Klucze do spejsu</title>
<ellipse fill="none" stroke="black" cx="633.08" cy="-448" rx="172.77" ry="18"/>
<text text-anchor="middle" x="633.08" y="-444.3" font-family="Times,serif" font-size="14.00">Miejsce::Miejsce#Klucze do spejsu</text>
</g>
<!-- d33tah&#45;&#45;Miejsce::Miejsce#Klucze do spejsu -->
<g id="edge24" class="edge">
<title>d33tah&#45;&#45;Miejsce::Miejsce#Klucze do spejsu</title>
<path fill="none" stroke="#2bd500" d="M97.84,-668.14C119.1,-668.14 149,-668.14 149,-668.14 149,-668.14 149,-451.6 149,-451.6 149,-451.6 323.89,-451.6 463.43,-451.6"/>
</g>
<!-- Infrastruktura::Domeny#Domeny -->
<g id="node24" class="node">
<title>Infrastruktura::Domeny#Domeny</title>
<ellipse fill="none" stroke="black" cx="633.08" cy="-276" rx="167.07" ry="18"/>
<text text-anchor="middle" x="633.08" y="-272.3" font-family="Times,serif" font-size="14.00">Infrastruktura::Domeny#Domeny</text>
</g>
<!-- d33tah&#45;&#45;Infrastruktura::Domeny#Domeny -->
<g id="edge25" class="edge">
<title>d33tah&#45;&#45;Infrastruktura::Domeny#Domeny</title>
<path fill="none" stroke="#2bd500" d="M33.11,-684C15.81,-684 0,-684 0,-684 0,-684 0,-276 0,-276 0,-276 278.36,-276 465.92,-276"/>
</g>
<!-- nastpne -->
<g id="node16" class="node">
<title>nastpne</title>
<ellipse fill="none" stroke="black" cx="77.02" cy="-1093" rx="53.09" ry="18"/>
<text text-anchor="middle" x="77.02" y="-1089.3" font-family="Times,serif" font-size="14.00">nastpne</text>
</g>
<!-- spotkanie -->
<g id="node17" class="node">
<title>spotkanie</title>
<ellipse fill="none" stroke="black" cx="77.02" cy="-1136" rx="55.79" ry="18"/>
<text text-anchor="middle" x="77.02" y="-1132.3" font-family="Times,serif" font-size="14.00">spotkanie</text>
</g>
<g id="node18" class="node">
<title></title>
<ellipse fill="none" stroke="#2bd500" cx="77.02" cy="-1179" rx="27" ry="18"/>
</g>
<!-- kszmigiel -->
<g id="node25" class="node">
<title>kszmigiel</title>
<ellipse fill="none" stroke="black" cx="77.02" cy="-534" rx="54.69" ry="18"/>
<text text-anchor="middle" x="77.02" y="-530.3" font-family="Times,serif" font-size="14.00">kszmigiel</text>
</g>
<!-- kszmigiel&#45;&#45;Infrastruktura::Telegram#G贸wny: t.me/hakierspejs -->
<g id="edge26" class="edge">
<title>kszmigiel&#45;&#45;Infrastruktura::Telegram#G贸wny: t.me/hakierspejs</title>
<path fill="none" stroke="#0061f2" d="M130.6,-537.6C166.04,-537.6 206,-537.6 206,-537.6 206,-537.6 206,-866 206,-866 206,-866 330.78,-866 445.45,-866"/>
</g>
<!-- kszmigiel&#45;&#45;Marketing&#45;i&#45;media&#45;spoecznociowe# -->
<g id="edge27" class="edge">
<title>kszmigiel&#45;&#45;Marketing&#45;i&#45;media&#45;spoecznociowe#</title>
<path fill="none" stroke="#0061f2" d="M130.75,-530.4C168.4,-530.4 212,-530.4 212,-530.4 212,-530.4 212,-830.5 212,-830.5 212,-830.5 340.42,-830.5 455.42,-830.5"/>
</g>
<!-- kszmigiel&#45;&#45;Stowarzyszenie#Zarzd -->
<g id="edge28" class="edge">
<title>kszmigiel&#45;&#45;Stowarzyszenie#Zarzd</title>
<path fill="none" stroke="#0061f2" d="M120.73,-523.2C166.25,-523.2 231,-523.2 231,-523.2 231,-523.2 231,-783 231,-783 231,-783 407.01,-783 526.12,-783"/>
</g>
<!-- kszmigiel&#45;&#45;Infrastruktura::Telegram#posty: t.me/hakierspejs_spam -->
<g id="edge29" class="edge">
<title>kszmigiel&#45;&#45;Infrastruktura::Telegram#posty: t.me/hakierspejs_spam</title>
<path fill="none" stroke="#0061f2" d="M123,-523.93C123,-494.56 123,-411 123,-411 123,-411 241.95,-411 364.97,-411"/>
</g>
<!-- kszmigiel&#45;&#45;Miejsce::Miejsce#Klucze do spejsu -->
<g id="edge30" class="edge">
<title>kszmigiel&#45;&#45;Miejsce::Miejsce#Klucze do spejsu</title>
<path fill="none" stroke="#0061f2" d="M125,-525.41C125,-502.98 125,-444.4 125,-444.4 125,-444.4 315.79,-444.4 463.54,-444.4"/>
</g>
<!-- Marketing&#45;i&#45;media&#45;spoecznociowe#Naklejki -->
<g id="node26" class="node">
<title>Marketing&#45;i&#45;media&#45;spoecznociowe#Naklejki</title>
<ellipse fill="none" stroke="black" cx="633.08" cy="-362" rx="221.76" ry="18"/>
<text text-anchor="middle" x="633.08" y="-358.3" font-family="Times,serif" font-size="14.00">Marketing&#45;i&#45;media&#45;spoecznociowe#Naklejki</text>
</g>
<!-- kszmigiel&#45;&#45;Marketing&#45;i&#45;media&#45;spoecznociowe#Naklejki -->
<g id="edge31" class="edge">
<title>kszmigiel&#45;&#45;Marketing&#45;i&#45;media&#45;spoecznociowe#Naklejki</title>
<path fill="none" stroke="#0061f2" d="M119,-522.28C119,-484.9 119,-371 119,-371 119,-371 294.91,-371 440.93,-371"/>
</g>
<!-- cytP450 -->
<g id="node27" class="node">
<title>cytP450</title>
<ellipse fill="none" stroke="black" cx="77.02" cy="-147" rx="48.99" ry="18"/>
<text text-anchor="middle" x="77.02" y="-143.3" font-family="Times,serif" font-size="14.00">cytP450</text>
</g>
<!-- cytP450&#45;&#45;Kanay&#45;komunikacji# -->
<g id="edge32" class="edge">
<title>cytP450&#45;&#45;Kanay&#45;komunikacji#</title>
<path fill="none" stroke="#c60077" d="M119.33,-156C168.51,-156 243,-156 243,-156 243,-156 243,-737 243,-737 243,-737 437.46,-737 551.78,-737"/>
</g>
<!-- cytP450&#45;&#45;Miejsce::Miejsce#Klucze do spejsu -->
<g id="edge37" class="edge">
<title>cytP450&#45;&#45;Miejsce::Miejsce#Klucze do spejsu</title>
<path fill="none" stroke="#c60077" d="M118,-156.99C118,-208.02 118,-437.2 118,-437.2 118,-437.2 342.14,-437.2 494.71,-437.2"/>
</g>
<!-- cytP450&#45;&#45;Infrastruktura::Domeny#Domeny -->
<g id="edge38" class="edge">
<title>cytP450&#45;&#45;Infrastruktura::Domeny#Domeny</title>
<path fill="none" stroke="#c60077" d="M121,-154.87C121,-181.57 121,-267 121,-267 121,-267 336.96,-267 488.39,-267"/>
</g>
<!-- Stowarzyszenie#Komisja Rewizyjna -->
<g id="node28" class="node">
<title>Stowarzyszenie#Komisja Rewizyjna</title>
<ellipse fill="none" stroke="black" cx="633.08" cy="-18" rx="178.17" ry="18"/>
<text text-anchor="middle" x="633.08" y="-14.3" font-family="Times,serif" font-size="14.00">Stowarzyszenie#Komisja Rewizyjna</text>
</g>
<!-- cytP450&#45;&#45;Stowarzyszenie#Komisja Rewizyjna -->
<g id="edge33" class="edge">
<title>cytP450&#45;&#45;Stowarzyszenie#Komisja Rewizyjna</title>
<path fill="none" stroke="#c60077" d="M119.27,-138C145.41,-138 174,-138 174,-138 174,-138 174,-18 174,-18 174,-18 325.89,-18 454.93,-18"/>
</g>
<!-- Chciejlista#Elektronika (w sensie urzdze konsumenckich) -->
<g id="node29" class="node">
<title>Chciejlista#Elektronika (w sensie urzdze konsumenckich)</title>
<ellipse fill="none" stroke="black" cx="633.08" cy="-104" rx="289.75" ry="18"/>
<text text-anchor="middle" x="633.08" y="-100.3" font-family="Times,serif" font-size="14.00">Chciejlista#Elektronika (w sensie urzdze konsumenckich)</text>
</g>
<!-- cytP450&#45;&#45;Chciejlista#Elektronika (w sensie urzdze konsumenckich) -->
<g id="edge34" class="edge">
<title>cytP450&#45;&#45;Chciejlista#Elektronika (w sensie urzdze konsumenckich)</title>
<path fill="none" stroke="#c60077" d="M94,-130.01C94,-117.99 94,-104 94,-104 94,-104 215.43,-104 343.03,-104"/>
</g>
<!-- Chciejlista#DIY -->
<g id="node30" class="node">
<title>Chciejlista#DIY</title>
<ellipse fill="none" stroke="black" cx="633.08" cy="-61" rx="83.69" ry="18"/>
<text text-anchor="middle" x="633.08" y="-57.3" font-family="Times,serif" font-size="14.00">Chciejlista#DIY</text>
</g>
<!-- cytP450&#45;&#45;Chciejlista#DIY -->
<g id="edge35" class="edge">
<title>cytP450&#45;&#45;Chciejlista#DIY</title>
<path fill="none" stroke="#c60077" d="M61,-129.6C61,-104.47 61,-61 61,-61 61,-61 389.96,-61 548.98,-61"/>
</g>
<!-- Przegld&#45;lokali&#45;na&#45;wynajem&#45;w&#45;odzi.&#45;Fundusz&#45;1000&#45;&#45;&#45;1500.#Bot Aleksego -->
<g id="node31" class="node">
<title>Przegld&#45;lokali&#45;na&#45;wynajem&#45;w&#45;odzi.&#45;Fundusz&#45;1000&#45;&#45;&#45;1500.#Bot Aleksego</title>
<ellipse fill="none" stroke="black" cx="633.08" cy="-147" rx="351.74" ry="18"/>
<text text-anchor="middle" x="633.08" y="-143.3" font-family="Times,serif" font-size="14.00">Przegld&#45;lokali&#45;na&#45;wynajem&#45;w&#45;odzi.&#45;Fundusz&#45;1000&#45;&#45;&#45;1500.#Bot Aleksego</text>
</g>
<!-- cytP450&#45;&#45;Przegld&#45;lokali&#45;na&#45;wynajem&#45;w&#45;odzi.&#45;Fundusz&#45;1000&#45;&#45;&#45;1500.#Bot Aleksego -->
<g id="edge36" class="edge">
<title>cytP450&#45;&#45;Przegld&#45;lokali&#45;na&#45;wynajem&#45;w&#45;odzi.&#45;Fundusz&#45;1000&#45;&#45;&#45;1500.#Bot Aleksego</title>
<path fill="none" stroke="#c60077" d="M125.88,-147C163.71,-147 219.87,-147 281.2,-147"/>
</g>
<!-- Keij0 -->
<g id="node32" class="node">
<title>Keij0</title>
<ellipse fill="none" stroke="black" cx="77.02" cy="-362" rx="34.39" ry="18"/>
<text text-anchor="middle" x="77.02" y="-358.3" font-family="Times,serif" font-size="14.00">Keij0</text>
</g>
<!-- Keij0&#45;&#45;Marketing&#45;i&#45;media&#45;spoecznociowe# -->
<g id="edge39" class="edge">
<title>Keij0&#45;&#45;Marketing&#45;i&#45;media&#45;spoecznociowe#</title>
<path fill="none" stroke="#b6e400" d="M111.48,-362C154.92,-362 224,-362 224,-362 224,-362 224,-821.5 224,-821.5 224,-821.5 391.12,-821.5 511.73,-821.5"/>
</g>
<!-- Keij0&#45;&#45;Stowarzyszenie#Komisja Rewizyjna -->
<g id="edge40" class="edge">
<title>Keij0&#45;&#45;Stowarzyszenie#Komisja Rewizyjna</title>
<path fill="none" stroke="#b6e400" d="M107.08,-353C137.48,-353 180,-353 180,-353 180,-353 180,-27 180,-27 180,-27 347.44,-27 478.74,-27"/>
</g>
<!-- pzduniak -->
<g id="node33" class="node">
<title>pzduniak</title>
<ellipse fill="none" stroke="black" cx="77.02" cy="-18" rx="52.79" ry="18"/>
<text text-anchor="middle" x="77.02" y="-14.3" font-family="Times,serif" font-size="14.00">pzduniak</text>
</g>
<!-- pzduniak&#45;&#45;Stowarzyszenie#Komisja Rewizyjna -->
<g id="edge41" class="edge">
<title>pzduniak&#45;&#45;Stowarzyszenie#Komisja Rewizyjna</title>
<path fill="none" stroke="#00ffff" d="M123,-9C200.08,-9 358.74,-9 478.76,-9"/>
</g>
<!-- marti -->
<g id="node34" class="node">
<title>marti</title>
<ellipse fill="none" stroke="black" cx="77.02" cy="-878" rx="36.29" ry="18"/>
<text text-anchor="middle" x="77.02" y="-874.3" font-family="Times,serif" font-size="14.00">marti</text>
</g>
<!-- marti&#45;&#45;Infrastruktura::Telegram#G贸wny: t.me/hakierspejs -->
<g id="edge42" class="edge">
<title>marti&#45;&#45;Infrastruktura::Telegram#G贸wny: t.me/hakierspejs</title>
<path fill="none" stroke="#ab00d5" d="M113.5,-878C168.53,-878 277.41,-878 381.35,-878"/>
</g>
<!-- marti&#45;&#45;Marketing&#45;i&#45;media&#45;spoecznociowe# -->
<g id="edge43" class="edge">
<title>marti&#45;&#45;Marketing&#45;i&#45;media&#45;spoecznociowe#</title>
<path fill="none" stroke="#ab00d5" d="M111.48,-872C190.89,-872 380,-872 380,-872 380,-872 380,-848.5 380,-848.5 380,-848.5 446.78,-848.5 511.73,-848.5"/>
</g>
<!-- marti&#45;&#45;Infrastruktura::Github#Github -->
<g id="edge44" class="edge">
<title>marti&#45;&#45;Infrastruktura::Github#Github</title>
<path fill="none" stroke="#ab00d5" d="M111.52,-884C143.77,-884 187,-884 187,-884 187,-884 187,-966 187,-966 187,-966 350.79,-966 479.88,-966"/>
</g>
<!-- biniu -->
<g id="node35" class="node">
<title>biniu</title>
<ellipse fill="none" stroke="black" cx="77.02" cy="-792" rx="34.39" ry="18"/>
<text text-anchor="middle" x="77.02" y="-788.3" font-family="Times,serif" font-size="14.00">biniu</text>
</g>
<!-- biniu&#45;&#45;Marketing&#45;i&#45;media&#45;spoecznociowe# -->
<g id="edge45" class="edge">
<title>biniu&#45;&#45;Marketing&#45;i&#45;media&#45;spoecznociowe#</title>
<path fill="none" stroke="#f29100" d="M111.55,-792C207.44,-792 470,-792 470,-792 470,-792 470,-814.21 470,-826.71"/>
</g>
<!-- nikolaad -->
<g id="node36" class="node">
<title>nikolaad</title>
<ellipse fill="none" stroke="black" cx="77.02" cy="-835" rx="50.09" ry="18"/>
<text text-anchor="middle" x="77.02" y="-831.3" font-family="Times,serif" font-size="14.00">nikolaad</text>
</g>
<!-- nikolaad&#45;&#45;Marketing&#45;i&#45;media&#45;spoecznociowe# -->
<g id="edge46" class="edge">
<title>nikolaad&#45;&#45;Marketing&#45;i&#45;media&#45;spoecznociowe#</title>
<path fill="none" stroke="#00c64f" d="M127.35,-835C199.6,-835 336.47,-835 449.63,-835"/>
</g>
<!-- BluRaf -->
<g id="node37" class="node">
<title>BluRaf</title>
<ellipse fill="none" stroke="black" cx="77.02" cy="-1050" rx="42.49" ry="18"/>
<text text-anchor="middle" x="77.02" y="-1046.3" font-family="Times,serif" font-size="14.00">BluRaf</text>
</g>
<!-- BluRaf&#45;&#45;Marketing&#45;i&#45;media&#45;spoecznociowe# -->
<g id="edge48" class="edge">
<title>BluRaf&#45;&#45;Marketing&#45;i&#45;media&#45;spoecznociowe#</title>
<path fill="none" stroke="#2e00e4" d="M106.94,-1037.14C162.04,-1037.14 274,-1037.14 274,-1037.14 274,-1037.14 274,-844 274,-844 274,-844 378.16,-844 474.28,-844"/>
</g>
<!-- BluRaf&#45;&#45;Infrastruktura::IRC#IRC -->
<g id="edge49" class="edge">
<title>BluRaf&#45;&#45;Infrastruktura::IRC#IRC</title>
<path fill="none" stroke="#2e00e4" d="M115.24,-1057.71C197.56,-1057.71 394.35,-1057.71 520.24,-1057.71"/>
</g>
<!-- Kanay&#45;komunikacji#Mumble -->
<g id="node38" class="node">
<title>Kanay&#45;komunikacji#Mumble</title>
<ellipse fill="none" stroke="black" cx="633.08" cy="-1179" rx="146.77" ry="18"/>
<text text-anchor="middle" x="633.08" y="-1175.3" font-family="Times,serif" font-size="14.00">Kanay&#45;komunikacji#Mumble</text>
</g>
<!-- BluRaf&#45;&#45;Kanay&#45;komunikacji#Mumble -->
<g id="edge47" class="edge">
<title>BluRaf&#45;&#45;Kanay&#45;komunikacji#Mumble</title>
<path fill="none" stroke="#2e00e4" d="M106.81,-1062.86C133.34,-1062.86 168,-1062.86 168,-1062.86 168,-1062.86 168,-1179 168,-1179 168,-1179 349.67,-1179 485.93,-1179"/>
</g>
<!-- kujaw -->
<g id="node39" class="node">
<title>kujaw</title>
<ellipse fill="none" stroke="black" cx="77.02" cy="-405" rx="38.19" ry="18"/>
<text text-anchor="middle" x="77.02" y="-401.3" font-family="Times,serif" font-size="14.00">kujaw</text>
</g>
<!-- kujaw&#45;&#45;Marketing&#45;i&#45;media&#45;spoecznociowe# -->
<g id="edge50" class="edge">
<title>kujaw&#45;&#45;Marketing&#45;i&#45;media&#45;spoecznociowe#</title>
<path fill="none" stroke="#ff0000" d="M115.54,-405C157.28,-405 218,-405 218,-405 218,-405 218,-826 218,-826 218,-826 356.97,-826 474.08,-826"/>
</g>
<!-- Marketing&#45;i&#45;media&#45;spoecznociowe#Logo nr 2 -->
<g id="node40" class="node">
<title>Marketing&#45;i&#45;media&#45;spoecznociowe#Logo nr 2</title>
<ellipse fill="none" stroke="black" cx="633.08" cy="-319" rx="227.46" ry="18"/>
<text text-anchor="middle" x="633.08" y="-315.3" font-family="Times,serif" font-size="14.00">Marketing&#45;i&#45;media&#45;spoecznociowe#Logo nr 2</text>
</g>
<!-- kujaw&#45;&#45;Marketing&#45;i&#45;media&#45;spoecznociowe#Logo nr 2 -->
<g id="edge51" class="edge">
<title>kujaw&#45;&#45;Marketing&#45;i&#45;media&#45;spoecznociowe#Logo nr 2</title>
<path fill="none" stroke="#ff0000" d="M113.37,-399C182.7,-399 327,-399 327,-399 327,-399 327,-328 327,-328 327,-328 376.55,-328 435.77,-328"/>
</g>
<!-- q3k -->
<g id="node41" class="node">
<title>q3k</title>
<ellipse fill="none" stroke="black" cx="77.02" cy="-319" rx="27.9" ry="18"/>
<text text-anchor="middle" x="77.02" y="-315.3" font-family="Times,serif" font-size="14.00">q3k</text>
</g>
<!-- q3k&#45;&#45;Kanay&#45;komunikacji# -->
<g id="edge52" class="edge">
<title>q3k&#45;&#45;Kanay&#45;komunikacji#</title>
<path fill="none" stroke="#2bd500" d="M105.25,-319C151.18,-319 237,-319 237,-319 237,-319 237,-743 237,-743 237,-743 413.21,-743 530.57,-743"/>
</g>
<!-- q3k&#45;&#45;Infrastruktura::Domeny#Domeny -->
<g id="edge53" class="edge">
<title>q3k&#45;&#45;Infrastruktura::Domeny#Domeny</title>
<path fill="none" stroke="#2bd500" d="M78,-300.81C78,-292.72 78,-285 78,-285 78,-285 323.86,-285 488.33,-285"/>
</g>
<!-- q3k&#45;&#45;Marketing&#45;i&#45;media&#45;spoecznociowe#Logo nr 2 -->
<g id="edge54" class="edge">
<title>q3k&#45;&#45;Marketing&#45;i&#45;media&#45;spoecznociowe#Logo nr 2</title>
<path fill="none" stroke="#2bd500" d="M101.27,-310C159.12,-310 309.81,-310 436.07,-310"/>
</g>
<!-- pmysl -->
<g id="node42" class="node">
<title>pmysl</title>
<ellipse fill="none" stroke="black" cx="77.02" cy="-921" rx="38.19" ry="18"/>
<text text-anchor="middle" x="77.02" y="-917.3" font-family="Times,serif" font-size="14.00">pmysl</text>
</g>
<!-- pmysl&#45;&#45;Kanay&#45;komunikacji# -->
<g id="edge55" class="edge">
<title>pmysl&#45;&#45;Kanay&#45;komunikacji#</title>
<path fill="none" stroke="#0061f2" d="M114.34,-916.5C164.92,-916.5 249,-916.5 249,-916.5 249,-916.5 249,-755 249,-755 249,-755 416.88,-755 530.66,-755"/>
</g>
<!-- pmysl&#45;&#45;Infrastruktura::IRC#IRC -->
<g id="edge57" class="edge">
<title>pmysl&#45;&#45;Infrastruktura::IRC#IRC</title>
<path fill="none" stroke="#0061f2" d="M110.27,-930C193.1,-930 402,-930 402,-930 402,-930 402,-1042.29 402,-1042.29 402,-1042.29 461.59,-1042.29 520.25,-1042.29"/>
</g>
<!-- pmysl&#45;&#45;Infrastruktura::Github#Github -->
<g id="edge59" class="edge">
<title>pmysl&#45;&#45;Infrastruktura::Github#Github</title>
<path fill="none" stroke="#0061f2" d="M114.47,-925.5C217.74,-925.5 499,-925.5 499,-925.5 499,-925.5 499,-943.7 499,-955.07"/>
</g>
<!-- pmysl&#45;&#45;Bazy&#45;danych# -->
<g id="edge58" class="edge">
<title>pmysl&#45;&#45;Bazy&#45;danych#</title>
<path fill="none" stroke="#0061f2" d="M102.59,-934.5C175.14,-934.5 377,-934.5 377,-934.5 377,-934.5 377,-1001 377,-1001 377,-1001 484.35,-1001 560.04,-1001"/>
</g>
<!-- pmysl&#45;&#45;Bazy&#45;danych#Grafana -->
<g id="edge56" class="edge">
<title>pmysl&#45;&#45;Bazy&#45;danych#Grafana</title>
<path fill="none" stroke="#0061f2" d="M115.68,-921C197.88,-921 392.77,-921 518.5,-921"/>
</g>
<!-- pmysl&#45;&#45;Miejsce::Miejsce#Klucze do spejsu -->
<g id="edge60" class="edge">
<title>pmysl&#45;&#45;Miejsce::Miejsce#Klucze do spejsu</title>
<path fill="none" stroke="#0061f2" d="M102.59,-907.5C138.36,-907.5 199,-907.5 199,-907.5 199,-907.5 199,-458.8 199,-458.8 199,-458.8 367.5,-458.8 494.54,-458.8"/>
</g>
<!-- kpc -->
<g id="node43" class="node">
<title>kpc</title>
<ellipse fill="none" stroke="black" cx="77.02" cy="-233" rx="27" ry="18"/>
<text text-anchor="middle" x="77.02" y="-229.3" font-family="Times,serif" font-size="14.00">kpc</text>
</g>
<!-- kpc&#45;&#45;Infrastruktura::Telegram#posty: t.me/hakierspejs_spam -->
<g id="edge61" class="edge">
<title>kpc&#45;&#45;Infrastruktura::Telegram#posty: t.me/hakierspejs_spam</title>
<path fill="none" stroke="#c60077" d="M102.61,-239C161.98,-239 304,-239 304,-239 304,-239 304,-393 304,-393 304,-393 357.27,-393 420.95,-393"/>
</g>
<!-- Infrastruktura::Telegram#Posty wyklte (celowo bez linka) -->
<g id="node44" class="node">
<title>Infrastruktura::Telegram#Posty wyklte (celowo bez linka)</title>
<ellipse fill="none" stroke="black" cx="633.08" cy="-233" rx="284.05" ry="18"/>
<text text-anchor="middle" x="633.08" y="-229.3" font-family="Times,serif" font-size="14.00">Infrastruktura::Telegram#Posty wyklte (celowo bez linka)</text>
</g>
<!-- kpc&#45;&#45;Infrastruktura::Telegram#Posty wyklte (celowo bez linka) -->
<g id="edge62" class="edge">
<title>kpc&#45;&#45;Infrastruktura::Telegram#Posty wyklte (celowo bez linka)</title>
<path fill="none" stroke="#c60077" d="M102.72,-227C150.78,-227 259.02,-227 365.27,-227"/>
</g>
<!-- Czaty&#45;HS#HS: posty wyklte -->
<g id="node45" class="node">
<title>Czaty&#45;HS#HS: posty wyklte</title>
<ellipse fill="none" stroke="black" cx="633.08" cy="-190" rx="157.87" ry="18"/>
<text text-anchor="middle" x="633.08" y="-186.3" font-family="Times,serif" font-size="14.00">Czaty&#45;HS#HS: posty wyklte</text>
</g>
<!-- kpc&#45;&#45;Czaty&#45;HS#HS: posty wyklte -->
<g id="edge63" class="edge">
<title>kpc&#45;&#45;Czaty&#45;HS#HS: posty wyklte</title>
<path fill="none" stroke="#c60077" d="M78,-214.51C78,-202.86 78,-190 78,-190 78,-190 311.04,-190 475.13,-190"/>
</g>
</g>
</svg>
