<?xml version="1.0" encoding="UTF-8" standalone="no"?>
<!DOCTYPE svg PUBLIC "-//W3C//DTD SVG 1.1//EN"
 "http://www.w3.org/Graphics/SVG/1.1/DTD/svg11.dtd">
<!-- Generated by graphviz version 2.43.0 (0)
 -->
<!-- Title: %3 Pages: 1 -->
<svg width="976pt" height="1334pt"
 viewBox="0.00 0.00 976.13 1334.00" xmlns="http://www.w3.org/2000/svg" xmlns:xlink="http://www.w3.org/1999/xlink">
<g id="graph0" class="graph" transform="scale(1 1) rotate(0) translate(4 1330)">
<title>%3</title>
<polygon fill="white" stroke="transparent" points="-4,4 -4,-1330 972.13,-1330 972.13,4 -4,4"/>
<!-- q3k -->
<g id="node1" class="node">
<title>q3k</title>
<ellipse fill="none" stroke="black" cx="59.14" cy="-534" rx="27.9" ry="18"/>
<text text-anchor="middle" x="59.14" y="-530.3" font-family="Times,serif" font-size="14.00">q3k</text>
</g>
<!-- Kanay&#45;komunikacji# -->
<g id="node2" class="node">
<title>Kanay&#45;komunikacji#</title>
<ellipse fill="none" stroke="black" cx="615.21" cy="-534" rx="108.58" ry="18"/>
<text text-anchor="middle" x="615.21" y="-530.3" font-family="Times,serif" font-size="14.00">Kanay&#45;komunikacji#</text>
</g>
<!-- q3k&#45;&#45;Kanay&#45;komunikacji# -->
<g id="edge1" class="edge">
<title>q3k&#45;&#45;Kanay&#45;komunikacji#</title>
<path fill="none" stroke="#ff0000" d="M87.1,-531.43C163.08,-531.43 376.45,-531.43 507.56,-531.43"/>
</g>
<!-- Marketing&#45;i&#45;media&#45;spoecznociowe#Logo nr 2 -->
<g id="node3" class="node">
<title>Marketing&#45;i&#45;media&#45;spoecznociowe#Logo nr 2</title>
<ellipse fill="none" stroke="black" cx="615.21" cy="-620" rx="227.46" ry="18"/>
<text text-anchor="middle" x="615.21" y="-616.3" font-family="Times,serif" font-size="14.00">Marketing&#45;i&#45;media&#45;spoecznociowe#Logo nr 2</text>
</g>
<!-- q3k&#45;&#45;Marketing&#45;i&#45;media&#45;spoecznociowe#Logo nr 2 -->
<g id="edge2" class="edge">
<title>q3k&#45;&#45;Marketing&#45;i&#45;media&#45;spoecznociowe#Logo nr 2</title>
<path fill="none" stroke="#ff0000" d="M60.13,-552.15C60.13,-575.76 60.13,-614 60.13,-614 60.13,-614 244.4,-614 400.6,-614"/>
</g>
<!-- Infrastruktura::Domeny#Domeny -->
<g id="node4" class="node">
<title>Infrastruktura::Domeny#Domeny</title>
<ellipse fill="none" stroke="black" cx="615.21" cy="-319" rx="167.07" ry="18"/>
<text text-anchor="middle" x="615.21" y="-315.3" font-family="Times,serif" font-size="14.00">Infrastruktura::Domeny#Domeny</text>
</g>
<!-- q3k&#45;&#45;Infrastruktura::Domeny#Domeny -->
<g id="edge3" class="edge">
<title>q3k&#45;&#45;Infrastruktura::Domeny#Domeny</title>
<path fill="none" stroke="#ff0000" d="M84.44,-526.29C87.25,-526.29 89.13,-526.29 89.13,-526.29 89.13,-526.29 89.13,-328 89.13,-328 89.13,-328 314.68,-328 470.41,-328"/>
</g>
<!-- d33tah -->
<g id="node5" class="node">
<title>d33tah</title>
<ellipse fill="none" stroke="black" cx="59.14" cy="-685" rx="43.59" ry="18"/>
<text text-anchor="middle" x="59.14" y="-681.3" font-family="Times,serif" font-size="14.00">d33tah</text>
</g>
<!-- d33tah&#45;&#45;Kanay&#45;komunikacji# -->
<g id="edge10" class="edge">
<title>d33tah&#45;&#45;Kanay&#45;komunikacji#</title>
<path fill="none" stroke="#2bd500" d="M101.13,-680.06C101.13,-654.31 101.13,-536.57 101.13,-536.57 101.13,-536.57 357.05,-536.57 507.75,-536.57"/>
</g>
<!-- d33tah&#45;&#45;Infrastruktura::Domeny#Domeny -->
<g id="edge14" class="edge">
<title>d33tah&#45;&#45;Infrastruktura::Domeny#Domeny</title>
<path fill="none" stroke="#2bd500" d="M91.13,-672.45C91.13,-609.66 91.13,-332.5 91.13,-332.5 91.13,-332.5 350.94,-332.5 504.7,-332.5"/>
</g>
<!-- Stowarzyszenie#Zarzd -->
<g id="node6" class="node">
<title>Stowarzyszenie#Zarzd</title>
<ellipse fill="none" stroke="black" cx="615.21" cy="-1093" rx="123.48" ry="18"/>
<text text-anchor="middle" x="615.21" y="-1089.3" font-family="Times,serif" font-size="14.00">Stowarzyszenie#Zarzd</text>
</g>
<!-- d33tah&#45;&#45;Stowarzyszenie#Zarzd -->
<g id="edge4" class="edge">
<title>d33tah&#45;&#45;Stowarzyszenie#Zarzd</title>
<path fill="none" stroke="#2bd500" d="M87.53,-698.71C127.65,-698.71 196.13,-698.71 196.13,-698.71 196.13,-698.71 196.13,-1085.29 196.13,-1085.29 196.13,-1085.29 379.31,-1085.29 503.45,-1085.29"/>
</g>
<!-- Infrastruktura::Telegram#posty: t.me/hakierspejs_spam -->
<g id="node7" class="node">
<title>Infrastruktura::Telegram#posty: t.me/hakierspejs_spam</title>
<ellipse fill="none" stroke="black" cx="615.21" cy="-577" rx="284.05" ry="18"/>
<text text-anchor="middle" x="615.21" y="-573.3" font-family="Times,serif" font-size="14.00">Infrastruktura::Telegram#posty: t.me/hakierspejs_spam</text>
</g>
<!-- d33tah&#45;&#45;Infrastruktura::Telegram#posty: t.me/hakierspejs_spam -->
<g id="edge5" class="edge">
<title>d33tah&#45;&#45;Infrastruktura::Telegram#posty: t.me/hakierspejs_spam</title>
<path fill="none" stroke="#2bd500" d="M88.42,-671.67C160.39,-671.67 340.13,-671.67 340.13,-671.67 340.13,-671.67 340.13,-600.48 340.13,-581.57"/>
</g>
<!-- Marketing&#45;i&#45;media&#45;spoecznociowe# -->
<g id="node8" class="node">
<title>Marketing&#45;i&#45;media&#45;spoecznociowe#</title>
<ellipse fill="none" stroke="black" cx="615.21" cy="-1136" rx="183.07" ry="18"/>
<text text-anchor="middle" x="615.21" y="-1132.3" font-family="Times,serif" font-size="14.00">Marketing&#45;i&#45;media&#45;spoecznociowe#</text>
</g>
<!-- d33tah&#45;&#45;Marketing&#45;i&#45;media&#45;spoecznociowe# -->
<g id="edge6" class="edge">
<title>d33tah&#45;&#45;Marketing&#45;i&#45;media&#45;spoecznociowe#</title>
<path fill="none" stroke="#2bd500" d="M79.78,-700.86C107.17,-700.86 152.13,-700.86 152.13,-700.86 152.13,-700.86 152.13,-1131.5 152.13,-1131.5 152.13,-1131.5 306.9,-1131.5 437.49,-1131.5"/>
</g>
<!-- Bazy&#45;danych#Pad -->
<g id="node9" class="node">
<title>Bazy&#45;danych#Pad</title>
<ellipse fill="none" stroke="black" cx="615.21" cy="-663" rx="94.48" ry="18"/>
<text text-anchor="middle" x="615.21" y="-659.3" font-family="Times,serif" font-size="14.00">Bazy&#45;danych#Pad</text>
</g>
<!-- d33tah&#45;&#45;Bazy&#45;danych#Pad -->
<g id="edge7" class="edge">
<title>d33tah&#45;&#45;Bazy&#45;danych#Pad</title>
<path fill="none" stroke="#2bd500" d="M97.37,-676.33C191.47,-676.33 435.13,-676.33 551.51,-676.33"/>
</g>
<!-- Infrastruktura::Telegram#HS24: t.me/hsl_info -->
<g id="node10" class="node">
<title>Infrastruktura::Telegram#HS24: t.me/hsl_info</title>
<ellipse fill="none" stroke="black" cx="615.21" cy="-491" rx="231.26" ry="18"/>
<text text-anchor="middle" x="615.21" y="-487.3" font-family="Times,serif" font-size="14.00">Infrastruktura::Telegram#HS24: t.me/hsl_info</text>
</g>
<!-- d33tah&#45;&#45;Infrastruktura::Telegram#HS24: t.me/hsl_info -->
<g id="edge8" class="edge">
<title>d33tah&#45;&#45;Infrastruktura::Telegram#HS24: t.me/hsl_info</title>
<path fill="none" stroke="#2bd500" d="M100.13,-678.55C100.13,-644.88 100.13,-491 100.13,-491 100.13,-491 246.84,-491 383.66,-491"/>
</g>
<!-- Infrastruktura::Telegram#G贸wny: t.me/hakierspejs -->
<g id="node11" class="node">
<title>Infrastruktura::Telegram#G贸wny: t.me/hakierspejs</title>
<ellipse fill="none" stroke="black" cx="615.21" cy="-921" rx="251.56" ry="18"/>
<text text-anchor="middle" x="615.21" y="-917.3" font-family="Times,serif" font-size="14.00">Infrastruktura::Telegram#G贸wny: t.me/hakierspejs</text>
</g>
<!-- d33tah&#45;&#45;Infrastruktura::Telegram#G贸wny: t.me/hakierspejs -->
<g id="edge9" class="edge">
<title>d33tah&#45;&#45;Infrastruktura::Telegram#G贸wny: t.me/hakierspejs</title>
<path fill="none" stroke="#2bd500" d="M98.97,-692.29C184.1,-692.29 376.13,-692.29 376.13,-692.29 376.13,-692.29 376.13,-880.13 376.13,-915.35"/>
</g>
<!-- Bazy&#45;danych#Grafana -->
<g id="node12" class="node">
<title>Bazy&#45;danych#Grafana</title>
<ellipse fill="none" stroke="black" cx="615.21" cy="-792" rx="114.28" ry="18"/>
<text text-anchor="middle" x="615.21" y="-788.3" font-family="Times,serif" font-size="14.00">Bazy&#45;danych#Grafana</text>
</g>
<!-- d33tah&#45;&#45;Bazy&#45;danych#Grafana -->
<g id="edge11" class="edge">
<title>d33tah&#45;&#45;Bazy&#45;danych#Grafana</title>
<path fill="none" stroke="#2bd500" d="M45.13,-702.42C45.13,-731.07 45.13,-785 45.13,-785 45.13,-785 344.86,-785 509.65,-785"/>
</g>
<!-- Infrastruktura::Mariuszbot#Mariuszbot -->
<g id="node13" class="node">
<title>Infrastruktura::Mariuszbot#Mariuszbot</title>
<ellipse fill="none" stroke="black" cx="615.21" cy="-448" rx="196.07" ry="18"/>
<text text-anchor="middle" x="615.21" y="-444.3" font-family="Times,serif" font-size="14.00">Infrastruktura::Mariuszbot#Mariuszbot</text>
</g>
<!-- d33tah&#45;&#45;Infrastruktura::Mariuszbot#Mariuszbot -->
<g id="edge12" class="edge">
<title>d33tah&#45;&#45;Infrastruktura::Mariuszbot#Mariuszbot</title>
<path fill="none" stroke="#2bd500" d="M98.13,-676.84C98.13,-635.17 98.13,-448 98.13,-448 98.13,-448 272.41,-448 418.62,-448"/>
</g>
<!-- Infrastruktura::IRC#IRC -->
<g id="node14" class="node">
<title>Infrastruktura::IRC#IRC</title>
<ellipse fill="none" stroke="black" cx="615.21" cy="-835" rx="124.58" ry="18"/>
<text text-anchor="middle" x="615.21" y="-831.3" font-family="Times,serif" font-size="14.00">Infrastruktura::IRC#IRC</text>
</g>
<!-- d33tah&#45;&#45;Infrastruktura::IRC#IRC -->
<g id="edge13" class="edge">
<title>d33tah&#45;&#45;Infrastruktura::IRC#IRC</title>
<path fill="none" stroke="#2bd500" d="M96.35,-694.43C152.43,-694.43 252.13,-694.43 252.13,-694.43 252.13,-694.43 252.13,-822 252.13,-822 252.13,-822 421.31,-822 528.7,-822"/>
</g>
<!-- Bazy&#45;danych#Trello -->
<g id="node15" class="node">
<title>Bazy&#45;danych#Trello</title>
<ellipse fill="none" stroke="black" cx="615.21" cy="-749" rx="103.98" ry="18"/>
<text text-anchor="middle" x="615.21" y="-745.3" font-family="Times,serif" font-size="14.00">Bazy&#45;danych#Trello</text>
</g>
<!-- d33tah&#45;&#45;Bazy&#45;danych#Trello -->
<g id="edge15" class="edge">
<title>d33tah&#45;&#45;Bazy&#45;danych#Trello</title>
<path fill="none" stroke="#2bd500" d="M74.13,-702.15C74.13,-721.11 74.13,-749 74.13,-749 74.13,-749 354.03,-749 511.2,-749"/>
</g>
<!-- Infrastruktura::Github#Github -->
<g id="node16" class="node">
<title>Infrastruktura::Github#Github</title>
<ellipse fill="none" stroke="black" cx="615.21" cy="-1050" rx="154.07" ry="18"/>
<text text-anchor="middle" x="615.21" y="-1046.3" font-family="Times,serif" font-size="14.00">Infrastruktura::Github#Github</text>
</g>
<!-- d33tah&#45;&#45;Infrastruktura::Github#Github -->
<g id="edge16" class="edge">
<title>d33tah&#45;&#45;Infrastruktura::Github#Github</title>
<path fill="none" stroke="#2bd500" d="M92.52,-696.57C145.06,-696.57 241.13,-696.57 241.13,-696.57 241.13,-696.57 241.13,-1042.29 241.13,-1042.29 241.13,-1042.29 369.56,-1042.29 475.91,-1042.29"/>
</g>
<!-- Drzwi&#45;frontowe#Ekran  -->
<g id="node17" class="node">
<title>Drzwi&#45;frontowe#Ekran </title>
<ellipse fill="none" stroke="black" cx="615.21" cy="-706" rx="120.78" ry="18"/>
<text text-anchor="middle" x="615.21" y="-702.3" font-family="Times,serif" font-size="14.00">Drzwi&#45;frontowe#Ekran </text>
</g>
<!-- d33tah&#45;&#45;Drzwi&#45;frontowe#Ekran  -->
<g id="edge17" class="edge">
<title>d33tah&#45;&#45;Drzwi&#45;frontowe#Ekran </title>
<path fill="none" stroke="black" d="M100.94,-690.14C199.32,-690.14 445.64,-690.14 557.87,-690.14"/>
</g>
<!-- Miejsce::Miejsce#Klucze do spejsu -->
<g id="node21" class="node">
<title>Miejsce::Miejsce#Klucze do spejsu</title>
<ellipse fill="none" stroke="black" cx="615.21" cy="-362" rx="172.77" ry="18"/>
<text text-anchor="middle" x="615.21" y="-358.3" font-family="Times,serif" font-size="14.00">Miejsce::Miejsce#Klucze do spejsu</text>
</g>
<!-- d33tah&#45;&#45;Miejsce::Miejsce#Klucze do spejsu -->
<g id="edge18" class="edge">
<title>d33tah&#45;&#45;Miejsce::Miejsce#Klucze do spejsu</title>
<path fill="none" stroke="#2bd500" d="M93.13,-673.63C93.13,-616.73 93.13,-365.6 93.13,-365.6 93.13,-365.6 293.26,-365.6 445.7,-365.6"/>
</g>
<!-- Infrastruktura::Telegram#Spacerspejs: t.me/joinchat/UYf2ONtNj21J1DS6 -->
<g id="node22" class="node">
<title>Infrastruktura::Telegram#Spacerspejs: t.me/joinchat/UYf2ONtNj21J1DS6</title>
<ellipse fill="none" stroke="black" cx="615.21" cy="-405" rx="352.84" ry="18"/>
<text text-anchor="middle" x="615.21" y="-401.3" font-family="Times,serif" font-size="14.00">Infrastruktura::Telegram#Spacerspejs: t.me/joinchat/UYf2ONtNj21J1DS6</text>
</g>
<!-- d33tah&#45;&#45;Infrastruktura::Telegram#Spacerspejs: t.me/joinchat/UYf2ONtNj21J1DS6 -->
<g id="edge19" class="edge">
<title>d33tah&#45;&#45;Infrastruktura::Telegram#Spacerspejs: t.me/joinchat/UYf2ONtNj21J1DS6</title>
<path fill="none" stroke="#2bd500" d="M94.13,-674.02C94.13,-622.26 94.13,-405 94.13,-405 94.13,-405 169.13,-405 262.23,-405"/>
</g>
<!-- nastpne -->
<g id="node18" class="node">
<title>nastpne</title>
<ellipse fill="none" stroke="black" cx="59.14" cy="-1222" rx="53.09" ry="18"/>
<text text-anchor="middle" x="59.14" y="-1218.3" font-family="Times,serif" font-size="14.00">nastpne</text>
</g>
<!-- spotkanie -->
<g id="node19" class="node">
<title>spotkanie</title>
<ellipse fill="none" stroke="black" cx="59.14" cy="-1265" rx="55.79" ry="18"/>
<text text-anchor="middle" x="59.14" y="-1261.3" font-family="Times,serif" font-size="14.00">spotkanie</text>
</g>
<g id="node20" class="node">
<title></title>
<ellipse fill="none" stroke="#2bd500" cx="59.14" cy="-1308" rx="27" ry="18"/>
</g>
<!-- cytP450 -->
<g id="node23" class="node">
<title>cytP450</title>
<ellipse fill="none" stroke="black" cx="59.14" cy="-147" rx="48.99" ry="18"/>
<text text-anchor="middle" x="59.14" y="-143.3" font-family="Times,serif" font-size="14.00">cytP450</text>
</g>
<!-- cytP450&#45;&#45;Kanay&#45;komunikacji# -->
<g id="edge23" class="edge">
<title>cytP450&#45;&#45;Kanay&#45;komunikacji#</title>
<path fill="none" stroke="#0061f2" d="M98.39,-157.8C131.7,-157.8 174.13,-157.8 174.13,-157.8 174.13,-157.8 174.13,-521.14 174.13,-521.14 174.13,-521.14 412.95,-521.14 539.13,-521.14"/>
</g>
<!-- cytP450&#45;&#45;Infrastruktura::Domeny#Domeny -->
<g id="edge24" class="edge">
<title>cytP450&#45;&#45;Infrastruktura::Domeny#Domeny</title>
<path fill="none" stroke="#0061f2" d="M107.19,-143.4C150.4,-143.4 207.13,-143.4 207.13,-143.4 207.13,-143.4 207.13,-305.5 207.13,-305.5 207.13,-305.5 383.66,-305.5 504.51,-305.5"/>
</g>
<!-- cytP450&#45;&#45;Miejsce::Miejsce#Klucze do spejsu -->
<g id="edge25" class="edge">
<title>cytP450&#45;&#45;Miejsce::Miejsce#Klucze do spejsu</title>
<path fill="none" stroke="#0061f2" d="M107.13,-150.6C142.74,-150.6 185.13,-150.6 185.13,-150.6 185.13,-150.6 185.13,-351.2 185.13,-351.2 185.13,-351.2 351.03,-351.2 476.76,-351.2"/>
</g>
<!-- Stowarzyszenie#Komisja Rewizyjna -->
<g id="node24" class="node">
<title>Stowarzyszenie#Komisja Rewizyjna</title>
<ellipse fill="none" stroke="black" cx="615.21" cy="-190" rx="178.17" ry="18"/>
<text text-anchor="middle" x="615.21" y="-186.3" font-family="Times,serif" font-size="14.00">Stowarzyszenie#Komisja Rewizyjna</text>
</g>
<!-- cytP450&#45;&#45;Stowarzyszenie#Komisja Rewizyjna -->
<g id="edge20" class="edge">
<title>cytP450&#45;&#45;Stowarzyszenie#Komisja Rewizyjna</title>
<path fill="none" stroke="#0061f2" d="M99.13,-157.39C99.13,-167.38 99.13,-181 99.13,-181 99.13,-181 308.67,-181 460.72,-181"/>
</g>
<!-- Przegld&#45;lokali&#45;na&#45;wynajem&#45;w&#45;odzi.&#45;Fundusz&#45;1000&#45;&#45;&#45;1500.#Bot Aleksego -->
<g id="node25" class="node">
<title>Przegld&#45;lokali&#45;na&#45;wynajem&#45;w&#45;odzi.&#45;Fundusz&#45;1000&#45;&#45;&#45;1500.#Bot Aleksego</title>
<ellipse fill="none" stroke="black" cx="615.21" cy="-147" rx="351.74" ry="18"/>
<text text-anchor="middle" x="615.21" y="-143.3" font-family="Times,serif" font-size="14.00">Przegld&#45;lokali&#45;na&#45;wynajem&#45;w&#45;odzi.&#45;Fundusz&#45;1000&#45;&#45;&#45;1500.#Bot Aleksego</text>
</g>
<!-- cytP450&#45;&#45;Przegld&#45;lokali&#45;na&#45;wynajem&#45;w&#45;odzi.&#45;Fundusz&#45;1000&#45;&#45;&#45;1500.#Bot Aleksego -->
<g id="edge21" class="edge">
<title>cytP450&#45;&#45;Przegld&#45;lokali&#45;na&#45;wynajem&#45;w&#45;odzi.&#45;Fundusz&#45;1000&#45;&#45;&#45;1500.#Bot Aleksego</title>
<path fill="none" stroke="#0061f2" d="M98.25,-136.2C148.68,-136.2 240.99,-136.2 333.8,-136.2"/>
</g>
<!-- Chciejlista#DIY -->
<g id="node26" class="node">
<title>Chciejlista#DIY</title>
<ellipse fill="none" stroke="black" cx="615.21" cy="-104" rx="83.69" ry="18"/>
<text text-anchor="middle" x="615.21" y="-100.3" font-family="Times,serif" font-size="14.00">Chciejlista#DIY</text>
</g>
<!-- cytP450&#45;&#45;Chciejlista#DIY -->
<g id="edge22" class="edge">
<title>cytP450&#45;&#45;Chciejlista#DIY</title>
<path fill="none" stroke="#0061f2" d="M84.13,-131.48C84.13,-119.16 84.13,-104 84.13,-104 84.13,-104 381.69,-104 531.35,-104"/>
</g>
<!-- Chciejlista#Elektronika (w sensie urzdze konsumenckich) -->
<g id="node27" class="node">
<title>Chciejlista#Elektronika (w sensie urzdze konsumenckich)</title>
<ellipse fill="none" stroke="black" cx="615.21" cy="-61" rx="289.75" ry="18"/>
<text text-anchor="middle" x="615.21" y="-57.3" font-family="Times,serif" font-size="14.00">Chciejlista#Elektronika (w sensie urzdze konsumenckich)</text>
</g>
<!-- cytP450&#45;&#45;Chciejlista#Elektronika (w sensie urzdze konsumenckich) -->
<g id="edge26" class="edge">
<title>cytP450&#45;&#45;Chciejlista#Elektronika (w sensie urzdze konsumenckich)</title>
<path fill="none" stroke="#0061f2" d="M60.13,-128.76C60.13,-103.52 60.13,-61 60.13,-61 60.13,-61 190.62,-61 325.07,-61"/>
</g>
<!-- Zamek#Zamek -->
<g id="node28" class="node">
<title>Zamek#Zamek</title>
<ellipse fill="none" stroke="black" cx="615.21" cy="-18" rx="81.49" ry="18"/>
<text text-anchor="middle" x="615.21" y="-14.3" font-family="Times,serif" font-size="14.00">Zamek#Zamek</text>
</g>
<!-- cytP450&#45;&#45;Zamek#Zamek -->
<g id="edge27" class="edge">
<title>cytP450&#45;&#45;Zamek#Zamek</title>
<path fill="none" stroke="#0061f2" d="M35.13,-131.18C35.13,-96.74 35.13,-18 35.13,-18 35.13,-18 374.29,-18 533.94,-18"/>
</g>
<!-- thinkofher -->
<g id="node29" class="node">
<title>thinkofher</title>
<ellipse fill="none" stroke="black" cx="59.14" cy="-943" rx="59.29" ry="18"/>
<text text-anchor="middle" x="59.14" y="-939.3" font-family="Times,serif" font-size="14.00">thinkofher</text>
</g>
<!-- thinkofher&#45;&#45;Kanay&#45;komunikacji# -->
<g id="edge31" class="edge">
<title>thinkofher&#45;&#45;Kanay&#45;komunikacji#</title>
<path fill="none" stroke="#c60077" d="M106.13,-931.99C106.13,-868.01 106.13,-546.86 106.13,-546.86 106.13,-546.86 396.98,-546.86 538.99,-546.86"/>
</g>
<!-- thinkofher&#45;&#45;Marketing&#45;i&#45;media&#45;spoecznociowe# -->
<g id="edge28" class="edge">
<title>thinkofher&#45;&#45;Marketing&#45;i&#45;media&#45;spoecznociowe#</title>
<path fill="none" stroke="#c60077" d="M107.31,-953.5C125.15,-953.5 141.13,-953.5 141.13,-953.5 141.13,-953.5 141.13,-1136 141.13,-1136 141.13,-1136 298.51,-1136 431.92,-1136"/>
</g>
<!-- thinkofher&#45;&#45;Infrastruktura::Telegram#G贸wny: t.me/hakierspejs -->
<g id="edge29" class="edge">
<title>thinkofher&#45;&#45;Infrastruktura::Telegram#G贸wny: t.me/hakierspejs</title>
<path fill="none" stroke="#c60077" d="M99.14,-929.67C160.96,-929.67 284.15,-929.67 394.67,-929.67"/>
</g>
<!-- thinkofher&#45;&#45;Infrastruktura::IRC#IRC -->
<g id="edge32" class="edge">
<title>thinkofher&#45;&#45;Infrastruktura::IRC#IRC</title>
<path fill="none" stroke="#c60077" d="M109.13,-933.07C109.13,-909.13 109.13,-850.2 109.13,-850.2 109.13,-850.2 410.72,-850.2 548.27,-850.2"/>
</g>
<!-- thinkofher&#45;&#45;Infrastruktura::Github#Github -->
<g id="edge33" class="edge">
<title>thinkofher&#45;&#45;Infrastruktura::Github#Github</title>
<path fill="none" stroke="#c60077" d="M114.3,-949.75C160.22,-949.75 218.13,-949.75 218.13,-949.75 218.13,-949.75 218.13,-1057.71 218.13,-1057.71 218.13,-1057.71 361.36,-1057.71 475.77,-1057.71"/>
</g>
<!-- Infrastruktura::Matrix#hs&#45;ldz&#45;offtopic:hackerspace.pl -->
<g id="node30" class="node">
<title>Infrastruktura::Matrix#hs&#45;ldz&#45;offtopic:hackerspace.pl</title>
<ellipse fill="none" stroke="black" cx="615.21" cy="-964" rx="258.85" ry="18"/>
<text text-anchor="middle" x="615.21" y="-960.3" font-family="Times,serif" font-size="14.00">Infrastruktura::Matrix#hs&#45;ldz&#45;offtopic:hackerspace.pl</text>
</g>
<!-- thinkofher&#45;&#45;Infrastruktura::Matrix#hs&#45;ldz&#45;offtopic:hackerspace.pl -->
<g id="edge30" class="edge">
<title>thinkofher&#45;&#45;Infrastruktura::Matrix#hs&#45;ldz&#45;offtopic:hackerspace.pl</title>
<path fill="none" stroke="#c60077" d="M95.63,-957.25C152.71,-957.25 267.74,-957.25 375.09,-957.25"/>
</g>
<!-- Infrastruktura::Matrix#hs&#45;ldz:hackerspace.pl -->
<g id="node31" class="node">
<title>Infrastruktura::Matrix#hs&#45;ldz:hackerspace.pl</title>
<ellipse fill="none" stroke="black" cx="615.21" cy="-1007" rx="221.76" ry="18"/>
<text text-anchor="middle" x="615.21" y="-1003.3" font-family="Times,serif" font-size="14.00">Infrastruktura::Matrix#hs&#45;ldz:hackerspace.pl</text>
</g>
<!-- thinkofher&#45;&#45;Infrastruktura::Matrix#hs&#45;ldz:hackerspace.pl -->
<g id="edge34" class="edge">
<title>thinkofher&#45;&#45;Infrastruktura::Matrix#hs&#45;ldz:hackerspace.pl</title>
<path fill="none" stroke="#c60077" d="M106.13,-953.98C106.13,-971.65 106.13,-1004.43 106.13,-1004.43 106.13,-1004.43 257.84,-1004.43 395.62,-1004.43"/>
</g>
<!-- Bazy&#45;danych# -->
<g id="node32" class="node">
<title>Bazy&#45;danych#</title>
<ellipse fill="none" stroke="black" cx="615.21" cy="-878" rx="77.19" ry="18"/>
<text text-anchor="middle" x="615.21" y="-874.3" font-family="Times,serif" font-size="14.00">Bazy&#45;danych#</text>
</g>
<!-- thinkofher&#45;&#45;Bazy&#45;danych# -->
<g id="edge35" class="edge">
<title>thinkofher&#45;&#45;Bazy&#45;danych#</title>
<path fill="none" stroke="#c60077" d="M111.13,-934.02C111.13,-917.84 111.13,-885.5 111.13,-885.5 111.13,-885.5 406.23,-885.5 544.85,-885.5"/>
</g>
<!-- BluRaf -->
<g id="node33" class="node">
<title>BluRaf</title>
<ellipse fill="none" stroke="black" cx="59.14" cy="-814" rx="42.49" ry="18"/>
<text text-anchor="middle" x="59.14" y="-810.3" font-family="Times,serif" font-size="14.00">BluRaf</text>
</g>
<!-- BluRaf&#45;&#45;Infrastruktura::IRC#IRC -->
<g id="edge36" class="edge">
<title>BluRaf&#45;&#45;Infrastruktura::IRC#IRC</title>
<path fill="none" stroke="#b6e400" d="M88.65,-827C165.1,-827 372.75,-827 503.28,-827"/>
</g>
<!-- pmysl -->
<g id="node34" class="node">
<title>pmysl</title>
<ellipse fill="none" stroke="black" cx="59.14" cy="-857" rx="38.19" ry="18"/>
<text text-anchor="middle" x="59.14" y="-853.3" font-family="Times,serif" font-size="14.00">pmysl</text>
</g>
<!-- pmysl&#45;&#45;Kanay&#45;komunikacji# -->
<g id="edge37" class="edge">
<title>pmysl&#45;&#45;Kanay&#45;komunikacji#</title>
<path fill="none" stroke="#00ffff" d="M79.71,-841.8C91.96,-841.8 105.13,-841.8 105.13,-841.8 105.13,-841.8 105.13,-541.71 105.13,-541.71 105.13,-541.71 368.64,-541.71 516.86,-541.71"/>
</g>
<!-- pmysl&#45;&#45;Bazy&#45;danych#Grafana -->
<g id="edge38" class="edge">
<title>pmysl&#45;&#45;Bazy&#45;danych#Grafana</title>
<path fill="none" stroke="#00ffff" d="M87.07,-844.6C98.07,-844.6 108.13,-844.6 108.13,-844.6 108.13,-844.6 108.13,-803 108.13,-803 108.13,-803 378.7,-803 524.55,-803"/>
</g>
<!-- pmysl&#45;&#45;Infrastruktura::IRC#IRC -->
<g id="edge39" class="edge">
<title>pmysl&#45;&#45;Infrastruktura::IRC#IRC</title>
<path fill="none" stroke="#00ffff" d="M91.85,-847.4C175.26,-847.4 398.17,-847.4 524.53,-847.4"/>
</g>
<!-- pmysl&#45;&#45;Infrastruktura::Github#Github -->
<g id="edge40" class="edge">
<title>pmysl&#45;&#45;Infrastruktura::Github#Github</title>
<path fill="none" stroke="#00ffff" d="M85.7,-870C133.51,-870 229.13,-870 229.13,-870 229.13,-870 229.13,-1047.43 229.13,-1047.43 229.13,-1047.43 354.7,-1047.43 462.62,-1047.43"/>
</g>
<!-- pmysl&#45;&#45;Bazy&#45;danych# -->
<g id="edge41" class="edge">
<title>pmysl&#45;&#45;Bazy&#45;danych#</title>
<path fill="none" stroke="#00ffff" d="M93.51,-865C187.28,-865 448.08,-865 561.44,-865"/>
</g>
<!-- kujaw -->
<g id="node35" class="node">
<title>kujaw</title>
<ellipse fill="none" stroke="black" cx="59.14" cy="-1007" rx="38.19" ry="18"/>
<text text-anchor="middle" x="59.14" y="-1003.3" font-family="Times,serif" font-size="14.00">kujaw</text>
</g>
<!-- kujaw&#45;&#45;Marketing&#45;i&#45;media&#45;spoecznociowe#Logo nr 2 -->
<g id="edge46" class="edge">
<title>kujaw&#45;&#45;Marketing&#45;i&#45;media&#45;spoecznociowe#Logo nr 2</title>
<path fill="none" stroke="#ab00d5" d="M94.05,-999.29C170.53,-999.29 346.13,-999.29 346.13,-999.29 346.13,-999.29 346.13,-626 346.13,-626 346.13,-626 368.61,-626 400.58,-626"/>
</g>
<!-- kujaw&#45;&#45;Stowarzyszenie#Zarzd -->
<g id="edge43" class="edge">
<title>kujaw&#45;&#45;Stowarzyszenie#Zarzd</title>
<path fill="none" stroke="#ab00d5" d="M97.32,-1009.57C176.46,-1009.57 351.13,-1009.57 351.13,-1009.57 351.13,-1009.57 351.13,-1080.14 351.13,-1080.14 351.13,-1080.14 451.72,-1080.14 528.74,-1080.14"/>
</g>
<!-- kujaw&#45;&#45;Marketing&#45;i&#45;media&#45;spoecznociowe# -->
<g id="edge44" class="edge">
<title>kujaw&#45;&#45;Marketing&#45;i&#45;media&#45;spoecznociowe#</title>
<path fill="none" stroke="#ab00d5" d="M94.07,-1014.71C168.73,-1014.71 337.13,-1014.71 337.13,-1014.71 337.13,-1014.71 337.13,-1122.5 337.13,-1122.5 337.13,-1122.5 418.81,-1122.5 493.64,-1122.5"/>
</g>
<!-- kujaw&#45;&#45;Miejsce::Miejsce#Klucze do spejsu -->
<g id="edge45" class="edge">
<title>kujaw&#45;&#45;Miejsce::Miejsce#Klucze do spejsu</title>
<path fill="none" stroke="#ab00d5" d="M86.39,-994.14C106.4,-994.14 130.13,-994.14 130.13,-994.14 130.13,-994.14 130.13,-372.8 130.13,-372.8 130.13,-372.8 333.48,-372.8 476.85,-372.8"/>
</g>
<!-- Marketing&#45;i&#45;media&#45;spoecznociowe#Naklejki -->
<g id="node36" class="node">
<title>Marketing&#45;i&#45;media&#45;spoecznociowe#Naklejki</title>
<ellipse fill="none" stroke="black" cx="615.21" cy="-1179" rx="221.76" ry="18"/>
<text text-anchor="middle" x="615.21" y="-1175.3" font-family="Times,serif" font-size="14.00">Marketing&#45;i&#45;media&#45;spoecznociowe#Naklejki</text>
</g>
<!-- kujaw&#45;&#45;Marketing&#45;i&#45;media&#45;spoecznociowe#Naklejki -->
<g id="edge42" class="edge">
<title>kujaw&#45;&#45;Marketing&#45;i&#45;media&#45;spoecznociowe#Naklejki</title>
<path fill="none" stroke="#ab00d5" d="M86.01,-1019.86C155.2,-1019.86 334.13,-1019.86 334.13,-1019.86 334.13,-1019.86 334.13,-1170 334.13,-1170 334.13,-1170 373.65,-1170 423.06,-1170"/>
</g>
<!-- kszmigiel -->
<g id="node37" class="node">
<title>kszmigiel</title>
<ellipse fill="none" stroke="black" cx="59.14" cy="-1050" rx="54.69" ry="18"/>
<text text-anchor="middle" x="59.14" y="-1046.3" font-family="Times,serif" font-size="14.00">kszmigiel</text>
</g>
<!-- kszmigiel&#45;&#45;Stowarzyszenie#Zarzd -->
<g id="edge48" class="edge">
<title>kszmigiel&#45;&#45;Stowarzyszenie#Zarzd</title>
<path fill="none" stroke="#f29100" d="M109.13,-1057.53C109.13,-1070.47 109.13,-1095.57 109.13,-1095.57 109.13,-1095.57 342.92,-1095.57 492.7,-1095.57"/>
</g>
<!-- kszmigiel&#45;&#45;Infrastruktura::Telegram#posty: t.me/hakierspejs_spam -->
<g id="edge49" class="edge">
<title>kszmigiel&#45;&#45;Infrastruktura::Telegram#posty: t.me/hakierspejs_spam</title>
<path fill="none" stroke="#f29100" d="M97.44,-1037.14C174.96,-1037.14 343.13,-1037.14 343.13,-1037.14 343.13,-1037.14 343.13,-632.72 343.13,-582.17"/>
</g>
<!-- kszmigiel&#45;&#45;Marketing&#45;i&#45;media&#45;spoecznociowe# -->
<g id="edge50" class="edge">
<title>kszmigiel&#45;&#45;Marketing&#45;i&#45;media&#45;spoecznociowe#</title>
<path fill="none" stroke="#f29100" d="M104.13,-1060.38C104.13,-1084.15 104.13,-1140.5 104.13,-1140.5 104.13,-1140.5 289.98,-1140.5 437.53,-1140.5"/>
</g>
<!-- kszmigiel&#45;&#45;Infrastruktura::Telegram#G贸wny: t.me/hakierspejs -->
<g id="edge51" class="edge">
<title>kszmigiel&#45;&#45;Infrastruktura::Telegram#G贸wny: t.me/hakierspejs</title>
<path fill="none" stroke="#f29100" d="M113.5,-1052.57C197.21,-1052.57 348.13,-1052.57 348.13,-1052.57 348.13,-1052.57 348.13,-934.33 348.13,-934.33 348.13,-934.33 393.06,-934.33 446.06,-934.33"/>
</g>
<!-- kszmigiel&#45;&#45;Infrastruktura::Github#Github -->
<g id="edge52" class="edge">
<title>kszmigiel&#45;&#45;Infrastruktura::Github#Github</title>
<path fill="none" stroke="#f29100" d="M97.37,-1062.86C180.79,-1062.86 381.78,-1062.86 507.4,-1062.86"/>
</g>
<!-- kszmigiel&#45;&#45;Marketing&#45;i&#45;media&#45;spoecznociowe#Naklejki -->
<g id="edge47" class="edge">
<title>kszmigiel&#45;&#45;Marketing&#45;i&#45;media&#45;spoecznociowe#Naklejki</title>
<path fill="none" stroke="#f29100" d="M100.13,-1061.9C100.13,-1093.84 100.13,-1179 100.13,-1179 100.13,-1179 253.9,-1179 393.4,-1179"/>
</g>
<!-- SP7Q -->
<g id="node38" class="node">
<title>SP7Q</title>
<ellipse fill="none" stroke="black" cx="59.14" cy="-1093" rx="36.29" ry="18"/>
<text text-anchor="middle" x="59.14" y="-1089.3" font-family="Times,serif" font-size="14.00">SP7Q</text>
</g>
<!-- SP7Q&#45;&#45;Stowarzyszenie#Zarzd -->
<g id="edge54" class="edge">
<title>SP7Q&#45;&#45;Stowarzyszenie#Zarzd</title>
<path fill="none" stroke="#00c64f" d="M92.26,-1100.71C171.53,-1100.71 375.08,-1100.71 503.59,-1100.71"/>
</g>
<!-- SP7Q&#45;&#45;Marketing&#45;i&#45;media&#45;spoecznociowe# -->
<g id="edge55" class="edge">
<title>SP7Q&#45;&#45;Marketing&#45;i&#45;media&#45;spoecznociowe#</title>
<path fill="none" stroke="#00c64f" d="M84.9,-1105.86C171.56,-1105.86 447.13,-1105.86 447.13,-1105.86 447.13,-1105.86 447.13,-1119.78 447.13,-1128.7"/>
</g>
<!-- SP7Q&#45;&#45;Infrastruktura::Github#Github -->
<g id="edge53" class="edge">
<title>SP7Q&#45;&#45;Infrastruktura::Github#Github</title>
<path fill="none" stroke="#00c64f" d="M95.51,-1090.43C197.2,-1090.43 477.13,-1090.43 477.13,-1090.43 477.13,-1090.43 477.13,-1069.99 477.13,-1058.18"/>
</g>
<!-- pzduniak -->
<g id="node39" class="node">
<title>pzduniak</title>
<ellipse fill="none" stroke="black" cx="59.14" cy="-233" rx="52.79" ry="18"/>
<text text-anchor="middle" x="59.14" y="-229.3" font-family="Times,serif" font-size="14.00">pzduniak</text>
</g>
<!-- pzduniak&#45;&#45;Stowarzyszenie#Komisja Rewizyjna -->
<g id="edge56" class="edge">
<title>pzduniak&#45;&#45;Stowarzyszenie#Komisja Rewizyjna</title>
<path fill="none" stroke="#2e00e4" d="M108.8,-227C213.67,-227 448.13,-227 448.13,-227 448.13,-227 448.13,-207.05 448.13,-196.44"/>
</g>
<!-- krcz -->
<g id="node40" class="node">
<title>krcz</title>
<ellipse fill="none" stroke="black" cx="59.14" cy="-190" rx="30.59" ry="18"/>
<text text-anchor="middle" x="59.14" y="-186.3" font-family="Times,serif" font-size="14.00">krcz</text>
</g>
<!-- krcz&#45;&#45;Stowarzyszenie#Komisja Rewizyjna -->
<g id="edge57" class="edge">
<title>krcz&#45;&#45;Stowarzyszenie#Komisja Rewizyjna</title>
<path fill="none" stroke="#ff0000" d="M89.83,-190C155.01,-190 311.52,-190 436.88,-190"/>
</g>
<!-- kpc -->
<g id="node41" class="node">
<title>kpc</title>
<ellipse fill="none" stroke="black" cx="59.14" cy="-319" rx="27" ry="18"/>
<text text-anchor="middle" x="59.14" y="-315.3" font-family="Times,serif" font-size="14.00">kpc</text>
</g>
<!-- kpc&#45;&#45;Infrastruktura::Telegram#posty: t.me/hakierspejs_spam -->
<g id="edge59" class="edge">
<title>kpc&#45;&#45;Infrastruktura::Telegram#posty: t.me/hakierspejs_spam</title>
<path fill="none" stroke="#2bd500" d="M85.63,-323.5C91.56,-323.5 96.13,-323.5 96.13,-323.5 96.13,-323.5 96.13,-577 96.13,-577 96.13,-577 209.95,-577 330.99,-577"/>
</g>
<!-- kpc&#45;&#45;Marketing&#45;i&#45;media&#45;spoecznociowe# -->
<g id="edge60" class="edge">
<title>kpc&#45;&#45;Marketing&#45;i&#45;media&#45;spoecznociowe#</title>
<path fill="none" stroke="#2bd500" d="M86.19,-319C117,-319 163.13,-319 163.13,-319 163.13,-319 163.13,-1127 163.13,-1127 163.13,-1127 326.19,-1127 456.46,-1127"/>
</g>
<!-- kpc&#45;&#45;Miejsce::Miejsce#Klucze do spejsu -->
<g id="edge63" class="edge">
<title>kpc&#45;&#45;Miejsce::Miejsce#Klucze do spejsu</title>
<path fill="none" stroke="#2bd500" d="M60.13,-337.32C60.13,-347.6 60.13,-358.4 60.13,-358.4 60.13,-358.4 282.41,-358.4 445.65,-358.4"/>
</g>
<!-- kpc&#45;&#45;Stowarzyszenie#Komisja Rewizyjna -->
<g id="edge58" class="edge">
<title>kpc&#45;&#45;Stowarzyszenie#Komisja Rewizyjna</title>
<path fill="none" stroke="#2bd500" d="M82.58,-310C140.57,-310 286.13,-310 286.13,-310 286.13,-310 286.13,-199 286.13,-199 286.13,-199 375.28,-199 460.78,-199"/>
</g>
<!-- Infrastruktura::Telegram#Posty wyklte (celowo bez linka) -->
<g id="node42" class="node">
<title>Infrastruktura::Telegram#Posty wyklte (celowo bez linka)</title>
<ellipse fill="none" stroke="black" cx="615.21" cy="-276" rx="284.05" ry="18"/>
<text text-anchor="middle" x="615.21" y="-272.3" font-family="Times,serif" font-size="14.00">Infrastruktura::Telegram#Posty wyklte (celowo bez linka)</text>
</g>
<!-- kpc&#45;&#45;Infrastruktura::Telegram#Posty wyklte (celowo bez linka) -->
<g id="edge61" class="edge">
<title>kpc&#45;&#45;Infrastruktura::Telegram#Posty wyklte (celowo bez linka)</title>
<path fill="none" stroke="#2bd500" d="M60.13,-300.51C60.13,-288.86 60.13,-276 60.13,-276 60.13,-276 194.59,-276 331.16,-276"/>
</g>
<!-- Czaty&#45;HS#HS: posty wyklte -->
<g id="node43" class="node">
<title>Czaty&#45;HS#HS: posty wyklte</title>
<ellipse fill="none" stroke="black" cx="615.21" cy="-233" rx="157.87" ry="18"/>
<text text-anchor="middle" x="615.21" y="-229.3" font-family="Times,serif" font-size="14.00">Czaty&#45;HS#HS: posty wyklte</text>
</g>
<!-- kpc&#45;&#45;Czaty&#45;HS#HS: posty wyklte -->
<g id="edge62" class="edge">
<title>kpc&#45;&#45;Czaty&#45;HS#HS: posty wyklte</title>
<path fill="none" stroke="#2bd500" d="M85.42,-314.5C149.61,-314.5 309.13,-314.5 309.13,-314.5 309.13,-314.5 309.13,-239 309.13,-239 309.13,-239 388.36,-239 466.2,-239"/>
</g>
<!-- biniu -->
<g id="node44" class="node">
<title>biniu</title>
<ellipse fill="none" stroke="black" cx="59.14" cy="-1136" rx="34.39" ry="18"/>
<text text-anchor="middle" x="59.14" y="-1132.3" font-family="Times,serif" font-size="14.00">biniu</text>
</g>
<!-- biniu&#45;&#45;Marketing&#45;i&#45;media&#45;spoecznociowe# -->
<g id="edge64" class="edge">
<title>biniu&#45;&#45;Marketing&#45;i&#45;media&#45;spoecznociowe#</title>
<path fill="none" stroke="#0061f2" d="M89.04,-1145C157.11,-1145 327.71,-1145 456.33,-1145"/>
</g>
<!-- Keij0 -->
<g id="node45" class="node">
<title>Keij0</title>
<ellipse fill="none" stroke="black" cx="59.14" cy="-1179" rx="34.39" ry="18"/>
<text text-anchor="middle" x="59.14" y="-1175.3" font-family="Times,serif" font-size="14.00">Keij0</text>
</g>
<!-- Keij0&#45;&#45;Marketing&#45;i&#45;media&#45;spoecznociowe# -->
<g id="edge65" class="edge">
<title>Keij0&#45;&#45;Marketing&#45;i&#45;media&#45;spoecznociowe#</title>
<path fill="none" stroke="#c60077" d="M89.05,-1188C164.05,-1188 354.13,-1188 354.13,-1188 354.13,-1188 354.13,-1149.5 354.13,-1149.5 354.13,-1149.5 425.66,-1149.5 493.84,-1149.5"/>
</g>
</g>
</svg>
