<?xml version="1.0" encoding="UTF-8" standalone="no"?>
<!DOCTYPE svg PUBLIC "-//W3C//DTD SVG 1.1//EN"
 "http://www.w3.org/Graphics/SVG/1.1/DTD/svg11.dtd">
<!-- Generated by graphviz version 2.43.0 (0)
 -->
<!-- Title: %3 Pages: 1 -->
<svg width="994pt" height="1248pt"
 viewBox="0.00 0.00 994.00 1248.00" xmlns="http://www.w3.org/2000/svg" xmlns:xlink="http://www.w3.org/1999/xlink">
<g id="graph0" class="graph" transform="scale(1 1) rotate(0) translate(4 1244)">
<title>%3</title>
<polygon fill="white" stroke="transparent" points="-4,4 -4,-1244 990,-1244 990,4 -4,4"/>
<!-- thinkofher -->
<g id="node1" class="node">
<title>thinkofher</title>
<ellipse fill="none" stroke="black" cx="77.02" cy="-1007" rx="59.29" ry="18"/>
<text text-anchor="middle" x="77.02" y="-1003.3" font-family="Times,serif" font-size="14.00">thinkofher</text>
</g>
<!-- Bazy&#45;danych# -->
<g id="node2" class="node">
<title>Bazy&#45;danych#</title>
<ellipse fill="none" stroke="black" cx="633.08" cy="-1093" rx="77.19" ry="18"/>
<text text-anchor="middle" x="633.08" y="-1089.3" font-family="Times,serif" font-size="14.00">Bazy&#45;danych#</text>
</g>
<!-- thinkofher&#45;&#45;Bazy&#45;danych# -->
<g id="edge1" class="edge">
<title>thinkofher&#45;&#45;Bazy&#45;danych#</title>
<path fill="none" stroke="#ff0000" d="M114.4,-1021C194.82,-1021 377,-1021 377,-1021 377,-1021 377,-1099 377,-1099 377,-1099 484.35,-1099 560.04,-1099"/>
</g>
<!-- Infrastruktura::Matrix#hs&#45;ldz&#45;offtopic:hackerspace.pl -->
<g id="node3" class="node">
<title>Infrastruktura::Matrix#hs&#45;ldz&#45;offtopic:hackerspace.pl</title>
<ellipse fill="none" stroke="black" cx="633.08" cy="-1136" rx="258.85" ry="18"/>
<text text-anchor="middle" x="633.08" y="-1132.3" font-family="Times,serif" font-size="14.00">Infrastruktura::Matrix#hs&#45;ldz&#45;offtopic:hackerspace.pl</text>
</g>
<!-- thinkofher&#45;&#45;Infrastruktura::Matrix#hs&#45;ldz&#45;offtopic:hackerspace.pl -->
<g id="edge2" class="edge">
<title>thinkofher&#45;&#45;Infrastruktura::Matrix#hs&#45;ldz&#45;offtopic:hackerspace.pl</title>
<path fill="none" stroke="#ff0000" d="M126.27,-1017C218.04,-1017 406,-1017 406,-1017 406,-1017 406,-1099.38 406,-1127.06"/>
</g>
<!-- Infrastruktura::IRC#IRC -->
<g id="node4" class="node">
<title>Infrastruktura::IRC#IRC</title>
<ellipse fill="none" stroke="black" cx="633.08" cy="-1050" rx="124.58" ry="18"/>
<text text-anchor="middle" x="633.08" y="-1046.3" font-family="Times,serif" font-size="14.00">Infrastruktura::IRC#IRC</text>
</g>
<!-- thinkofher&#45;&#45;Infrastruktura::IRC#IRC -->
<g id="edge3" class="edge">
<title>thinkofher&#45;&#45;Infrastruktura::IRC#IRC</title>
<path fill="none" stroke="#ff0000" d="M125,-1017.57C125,-1031.03 125,-1052.57 125,-1052.57 125,-1052.57 359.05,-1052.57 509.44,-1052.57"/>
</g>
<!-- Infrastruktura::Matrix#hs&#45;ldz:hackerspace.pl -->
<g id="node5" class="node">
<title>Infrastruktura::Matrix#hs&#45;ldz:hackerspace.pl</title>
<ellipse fill="none" stroke="black" cx="633.08" cy="-1179" rx="221.76" ry="18"/>
<text text-anchor="middle" x="633.08" y="-1175.3" font-family="Times,serif" font-size="14.00">Infrastruktura::Matrix#hs&#45;ldz:hackerspace.pl</text>
</g>
<!-- thinkofher&#45;&#45;Infrastruktura::Matrix#hs&#45;ldz:hackerspace.pl -->
<g id="edge4" class="edge">
<title>thinkofher&#45;&#45;Infrastruktura::Matrix#hs&#45;ldz:hackerspace.pl</title>
<path fill="none" stroke="#ff0000" d="M133.11,-1001C163.13,-1001 194,-1001 194,-1001 194,-1001 194,-1179 194,-1179 194,-1179 302.27,-1179 411.29,-1179"/>
</g>
<!-- Kanay&#45;komunikacji# -->
<g id="node6" class="node">
<title>Kanay&#45;komunikacji#</title>
<ellipse fill="none" stroke="black" cx="633.08" cy="-792" rx="108.58" ry="18"/>
<text text-anchor="middle" x="633.08" y="-788.3" font-family="Times,serif" font-size="14.00">Kanay&#45;komunikacji#</text>
</g>
<!-- thinkofher&#45;&#45;Kanay&#45;komunikacji# -->
<g id="edge5" class="edge">
<title>thinkofher&#45;&#45;Kanay&#45;komunikacji#</title>
<path fill="none" stroke="#ff0000" d="M114.25,-993C142.67,-993 177,-993 177,-993 177,-993 177,-802.8 177,-802.8 177,-802.8 413.89,-802.8 546.22,-802.8"/>
</g>
<!-- Infrastruktura::Telegram#G贸wny: t.me/hakierspejs -->
<g id="node7" class="node">
<title>Infrastruktura::Telegram#G贸wny: t.me/hakierspejs</title>
<ellipse fill="none" stroke="black" cx="633.08" cy="-921" rx="251.56" ry="18"/>
<text text-anchor="middle" x="633.08" y="-917.3" font-family="Times,serif" font-size="14.00">Infrastruktura::Telegram#G贸wny: t.me/hakierspejs</text>
</g>
<!-- thinkofher&#45;&#45;Infrastruktura::Telegram#G贸wny: t.me/hakierspejs -->
<g id="edge6" class="edge">
<title>thinkofher&#45;&#45;Infrastruktura::Telegram#G贸wny: t.me/hakierspejs</title>
<path fill="none" stroke="#ff0000" d="M125,-996.4C125,-975.94 125,-933 125,-933 125,-933 300.6,-933 445.33,-933"/>
</g>
<!-- Marketing&#45;i&#45;media&#45;spoecznociowe# -->
<g id="node8" class="node">
<title>Marketing&#45;i&#45;media&#45;spoecznociowe#</title>
<ellipse fill="none" stroke="black" cx="633.08" cy="-878" rx="183.07" ry="18"/>
<text text-anchor="middle" x="633.08" y="-874.3" font-family="Times,serif" font-size="14.00">Marketing&#45;i&#45;media&#45;spoecznociowe#</text>
</g>
<!-- thinkofher&#45;&#45;Marketing&#45;i&#45;media&#45;spoecznociowe# -->
<g id="edge7" class="edge">
<title>thinkofher&#45;&#45;Marketing&#45;i&#45;media&#45;spoecznociowe#</title>
<path fill="none" stroke="#ff0000" d="M123,-995.59C123,-965.81 123,-888 123,-888 123,-888 330.11,-888 480.39,-888"/>
</g>
<!-- Stowarzyszenie#Zarzd -->
<g id="node9" class="node">
<title>Stowarzyszenie#Zarzd</title>
<ellipse fill="none" stroke="black" cx="633.08" cy="-835" rx="123.48" ry="18"/>
<text text-anchor="middle" x="633.08" y="-831.3" font-family="Times,serif" font-size="14.00">Stowarzyszenie#Zarzd</text>
</g>
<!-- thinkofher&#45;&#45;Stowarzyszenie#Zarzd -->
<g id="edge8" class="edge">
<title>thinkofher&#45;&#45;Stowarzyszenie#Zarzd</title>
<path fill="none" stroke="#ff0000" d="M126.46,-997C156.46,-997 189,-997 189,-997 189,-997 189,-841 189,-841 189,-841 384.83,-841 516.4,-841"/>
</g>
<!-- Infrastruktura::Github#Github -->
<g id="node10" class="node">
<title>Infrastruktura::Github#Github</title>
<ellipse fill="none" stroke="black" cx="633.08" cy="-1007" rx="154.07" ry="18"/>
<text text-anchor="middle" x="633.08" y="-1003.3" font-family="Times,serif" font-size="14.00">Infrastruktura::Github#Github</text>
</g>
<!-- thinkofher&#45;&#45;Infrastruktura::Github#Github -->
<g id="edge9" class="edge">
<title>thinkofher&#45;&#45;Infrastruktura::Github#Github</title>
<path fill="none" stroke="#ff0000" d="M132.88,-1013C215.09,-1013 371.46,-1013 487.57,-1013"/>
</g>
<!-- d33tah -->
<g id="node11" class="node">
<title>d33tah</title>
<ellipse fill="none" stroke="black" cx="77.02" cy="-728" rx="43.59" ry="18"/>
<text text-anchor="middle" x="77.02" y="-724.3" font-family="Times,serif" font-size="14.00">d33tah</text>
</g>
<!-- d33tah&#45;&#45;Infrastruktura::IRC#IRC -->
<g id="edge17" class="edge">
<title>d33tah&#45;&#45;Infrastruktura::IRC#IRC</title>
<path fill="none" stroke="#2bd500" d="M120.72,-727.5C156.07,-727.5 200,-727.5 200,-727.5 200,-727.5 200,-1047.43 200,-1047.43 200,-1047.43 381.55,-1047.43 509.56,-1047.43"/>
</g>
<!-- d33tah&#45;&#45;Kanay&#45;komunikacji# -->
<g id="edge18" class="edge">
<title>d33tah&#45;&#45;Kanay&#45;komunikacji#</title>
<path fill="none" stroke="#2bd500" d="M117.39,-734.75C228.75,-734.75 532,-734.75 532,-734.75 532,-734.75 532,-770.39 532,-785.43"/>
</g>
<!-- d33tah&#45;&#45;Infrastruktura::Telegram#G贸wny: t.me/hakierspejs -->
<g id="edge19" class="edge">
<title>d33tah&#45;&#45;Infrastruktura::Telegram#G贸wny: t.me/hakierspejs</title>
<path fill="none" stroke="#2bd500" d="M108.64,-740.38C191.76,-740.38 410,-740.38 410,-740.38 410,-740.38 410,-876.21 410,-912.29"/>
</g>
<!-- d33tah&#45;&#45;Marketing&#45;i&#45;media&#45;spoecznociowe# -->
<g id="edge21" class="edge">
<title>d33tah&#45;&#45;Marketing&#45;i&#45;media&#45;spoecznociowe#</title>
<path fill="none" stroke="#2bd500" d="M112.43,-738.5C210.76,-738.5 480,-738.5 480,-738.5 480,-738.5 480,-835.98 480,-867.97"/>
</g>
<!-- d33tah&#45;&#45;Stowarzyszenie#Zarzd -->
<g id="edge23" class="edge">
<title>d33tah&#45;&#45;Stowarzyszenie#Zarzd</title>
<path fill="none" stroke="#2bd500" d="M115.38,-736.62C222.67,-736.62 518,-736.62 518,-736.62 518,-736.62 518,-806.01 518,-828.24"/>
</g>
<!-- d33tah&#45;&#45;Infrastruktura::Github#Github -->
<g id="edge25" class="edge">
<title>d33tah&#45;&#45;Infrastruktura::Github#Github</title>
<path fill="none" stroke="#2bd500" d="M103.88,-742.25C168.62,-742.25 328,-742.25 328,-742.25 328,-742.25 328,-1009 328,-1009 328,-1009 403.68,-1009 479.65,-1009"/>
</g>
<!-- Infrastruktura::Telegram#Spacerspejs: t.me/joinchat/UYf2ONtNj21J1DS6 -->
<g id="node12" class="node">
<title>Infrastruktura::Telegram#Spacerspejs: t.me/joinchat/UYf2ONtNj21J1DS6</title>
<ellipse fill="none" stroke="black" cx="633.08" cy="-620" rx="352.84" ry="18"/>
<text text-anchor="middle" x="633.08" y="-616.3" font-family="Times,serif" font-size="14.00">Infrastruktura::Telegram#Spacerspejs: t.me/joinchat/UYf2ONtNj21J1DS6</text>
</g>
<!-- d33tah&#45;&#45;Infrastruktura::Telegram#Spacerspejs: t.me/joinchat/UYf2ONtNj21J1DS6 -->
<g id="edge10" class="edge">
<title>d33tah&#45;&#45;Infrastruktura::Telegram#Spacerspejs: t.me/joinchat/UYf2ONtNj21J1DS6</title>
<path fill="none" stroke="#2bd500" d="M78,-709.94C78,-680.89 78,-627 78,-627 78,-627 186.63,-627 307.78,-627"/>
</g>
<!-- Infrastruktura::Telegram#HS24: t.me/hsl_info -->
<g id="node13" class="node">
<title>Infrastruktura::Telegram#HS24: t.me/hsl_info</title>
<ellipse fill="none" stroke="black" cx="633.08" cy="-577" rx="231.26" ry="18"/>
<text text-anchor="middle" x="633.08" y="-573.3" font-family="Times,serif" font-size="14.00">Infrastruktura::Telegram#HS24: t.me/hsl_info</text>
</g>
<!-- d33tah&#45;&#45;Infrastruktura::Telegram#HS24: t.me/hsl_info -->
<g id="edge11" class="edge">
<title>d33tah&#45;&#45;Infrastruktura::Telegram#HS24: t.me/hsl_info</title>
<path fill="none" stroke="#2bd500" d="M114.21,-718.4C168.48,-718.4 263,-718.4 263,-718.4 263,-718.4 263,-587.5 263,-587.5 263,-587.5 353.54,-587.5 445.06,-587.5"/>
</g>
<!-- Bazy&#45;danych#Trello -->
<g id="node14" class="node">
<title>Bazy&#45;danych#Trello</title>
<ellipse fill="none" stroke="black" cx="633.08" cy="-534" rx="103.98" ry="18"/>
<text text-anchor="middle" x="633.08" y="-530.3" font-family="Times,serif" font-size="14.00">Bazy&#45;danych#Trello</text>
</g>
<!-- d33tah&#45;&#45;Bazy&#45;danych#Trello -->
<g id="edge12" class="edge">
<title>d33tah&#45;&#45;Bazy&#45;danych#Trello</title>
<path fill="none" stroke="#2bd500" d="M108.78,-715.6C133.98,-715.6 165,-715.6 165,-715.6 165,-715.6 165,-534 165,-534 165,-534 390.98,-534 528.91,-534"/>
</g>
<!-- Bazy&#45;danych#Pad -->
<g id="node15" class="node">
<title>Bazy&#45;danych#Pad</title>
<ellipse fill="none" stroke="black" cx="633.08" cy="-749" rx="94.48" ry="18"/>
<text text-anchor="middle" x="633.08" y="-745.3" font-family="Times,serif" font-size="14.00">Bazy&#45;danych#Pad</text>
</g>
<!-- d33tah&#45;&#45;Bazy&#45;danych#Pad -->
<g id="edge13" class="edge">
<title>d33tah&#45;&#45;Bazy&#45;danych#Pad</title>
<path fill="none" stroke="#2bd500" d="M119.27,-732.88C222.68,-732.88 487.55,-732.88 590.89,-732.88"/>
</g>
<!-- Bazy&#45;danych#Grafana -->
<g id="node16" class="node">
<title>Bazy&#45;danych#Grafana</title>
<ellipse fill="none" stroke="black" cx="633.08" cy="-964" rx="114.28" ry="18"/>
<text text-anchor="middle" x="633.08" y="-960.3" font-family="Times,serif" font-size="14.00">Bazy&#45;danych#Grafana</text>
</g>
<!-- d33tah&#45;&#45;Bazy&#45;danych#Grafana -->
<g id="edge14" class="edge">
<title>d33tah&#45;&#45;Bazy&#45;danych#Grafana</title>
<path fill="none" stroke="#2bd500" d="M96.44,-744.12C119.25,-744.12 154,-744.12 154,-744.12 154,-744.12 154,-955 154,-955 154,-955 393.49,-955 533.82,-955"/>
</g>
<!-- Infrastruktura::Mariuszbot#Mariuszbot -->
<g id="node17" class="node">
<title>Infrastruktura::Mariuszbot#Mariuszbot</title>
<ellipse fill="none" stroke="black" cx="633.08" cy="-706" rx="196.07" ry="18"/>
<text text-anchor="middle" x="633.08" y="-702.3" font-family="Times,serif" font-size="14.00">Infrastruktura::Mariuszbot#Mariuszbot</text>
</g>
<!-- d33tah&#45;&#45;Infrastruktura::Mariuszbot#Mariuszbot -->
<g id="edge15" class="edge">
<title>d33tah&#45;&#45;Infrastruktura::Mariuszbot#Mariuszbot</title>
<path fill="none" stroke="#2bd500" d="M117.46,-721.2C202.74,-721.2 403.4,-721.2 527.75,-721.2"/>
</g>
<!-- Miejsce::Miejsce#Klucze do spejsu -->
<g id="node18" class="node">
<title>Miejsce::Miejsce#Klucze do spejsu</title>
<ellipse fill="none" stroke="black" cx="633.08" cy="-491" rx="172.77" ry="18"/>
<text text-anchor="middle" x="633.08" y="-487.3" font-family="Times,serif" font-size="14.00">Miejsce::Miejsce#Klucze do spejsu</text>
</g>
<!-- d33tah&#45;&#45;Miejsce::Miejsce#Klucze do spejsu -->
<g id="edge16" class="edge">
<title>d33tah&#45;&#45;Miejsce::Miejsce#Klucze do spejsu</title>
<path fill="none" stroke="#2bd500" d="M100.65,-712.8C121.3,-712.8 148,-712.8 148,-712.8 148,-712.8 148,-494.6 148,-494.6 148,-494.6 323.54,-494.6 463.42,-494.6"/>
</g>
<!-- Drzwi&#45;frontowe#Ekran  -->
<g id="node19" class="node">
<title>Drzwi&#45;frontowe#Ekran </title>
<ellipse fill="none" stroke="black" cx="633.08" cy="-663" rx="120.78" ry="18"/>
<text text-anchor="middle" x="633.08" y="-659.3" font-family="Times,serif" font-size="14.00">Drzwi&#45;frontowe#Ekran </text>
</g>
<!-- d33tah&#45;&#45;Drzwi&#45;frontowe#Ekran  -->
<g id="edge20" class="edge">
<title>d33tah&#45;&#45;Drzwi&#45;frontowe#Ekran </title>
<path fill="none" stroke="black" d="M99,-712.27C99,-693.03 99,-663 99,-663 99,-663 354.31,-663 511.89,-663"/>
</g>
<!-- Infrastruktura::Domeny#Domeny -->
<g id="node23" class="node">
<title>Infrastruktura::Domeny#Domeny</title>
<ellipse fill="none" stroke="black" cx="633.08" cy="-319" rx="167.07" ry="18"/>
<text text-anchor="middle" x="633.08" y="-315.3" font-family="Times,serif" font-size="14.00">Infrastruktura::Domeny#Domeny</text>
</g>
<!-- d33tah&#45;&#45;Infrastruktura::Domeny#Domeny -->
<g id="edge22" class="edge">
<title>d33tah&#45;&#45;Infrastruktura::Domeny#Domeny</title>
<path fill="none" stroke="#2bd500" d="M56,-712.14C56,-705.37 56,-699 56,-699 56,-699 142,-699 142,-699 142,-699 142,-325 142,-325 142,-325 331.74,-325 475.34,-325"/>
</g>
<!-- Infrastruktura::Telegram#posty: t.me/hakierspejs_spam -->
<g id="node24" class="node">
<title>Infrastruktura::Telegram#posty: t.me/hakierspejs_spam</title>
<ellipse fill="none" stroke="black" cx="633.08" cy="-405" rx="284.05" ry="18"/>
<text text-anchor="middle" x="633.08" y="-401.3" font-family="Times,serif" font-size="14.00">Infrastruktura::Telegram#posty: t.me/hakierspejs_spam</text>
</g>
<!-- d33tah&#45;&#45;Infrastruktura::Telegram#posty: t.me/hakierspejs_spam -->
<g id="edge24" class="edge">
<title>d33tah&#45;&#45;Infrastruktura::Telegram#posty: t.me/hakierspejs_spam</title>
<path fill="none" stroke="#2bd500" d="M33.11,-728C15.81,-728 0,-728 0,-728 0,-728 0,-401 0,-401 0,-401 185.64,-401 355.86,-401"/>
</g>
<!-- nastpne -->
<g id="node20" class="node">
<title>nastpne</title>
<ellipse fill="none" stroke="black" cx="77.02" cy="-1093" rx="53.09" ry="18"/>
<text text-anchor="middle" x="77.02" y="-1089.3" font-family="Times,serif" font-size="14.00">nastpne</text>
</g>
<!-- spotkanie -->
<g id="node21" class="node">
<title>spotkanie</title>
<ellipse fill="none" stroke="black" cx="77.02" cy="-1136" rx="55.79" ry="18"/>
<text text-anchor="middle" x="77.02" y="-1132.3" font-family="Times,serif" font-size="14.00">spotkanie</text>
</g>
<g id="node22" class="node">
<title></title>
<ellipse fill="none" stroke="#2bd500" cx="77.02" cy="-1179" rx="27" ry="18"/>
</g>
<!-- kszmigiel -->
<g id="node25" class="node">
<title>kszmigiel</title>
<ellipse fill="none" stroke="black" cx="77.02" cy="-598" rx="54.69" ry="18"/>
<text text-anchor="middle" x="77.02" y="-594.3" font-family="Times,serif" font-size="14.00">kszmigiel</text>
</g>
<!-- kszmigiel&#45;&#45;Infrastruktura::Telegram#G贸wny: t.me/hakierspejs -->
<g id="edge28" class="edge">
<title>kszmigiel&#45;&#45;Infrastruktura::Telegram#G贸wny: t.me/hakierspejs</title>
<path fill="none" stroke="#0061f2" d="M109.57,-612.5C147.78,-612.5 206,-612.5 206,-612.5 206,-612.5 206,-909 206,-909 206,-909 330.78,-909 445.45,-909"/>
</g>
<!-- kszmigiel&#45;&#45;Marketing&#45;i&#45;media&#45;spoecznociowe# -->
<g id="edge29" class="edge">
<title>kszmigiel&#45;&#45;Marketing&#45;i&#45;media&#45;spoecznociowe#</title>
<path fill="none" stroke="#0061f2" d="M120.47,-609C159.93,-609 212,-609 212,-609 212,-609 212,-872 212,-872 212,-872 343.85,-872 459.99,-872"/>
</g>
<!-- kszmigiel&#45;&#45;Stowarzyszenie#Zarzd -->
<g id="edge30" class="edge">
<title>kszmigiel&#45;&#45;Stowarzyszenie#Zarzd</title>
<path fill="none" stroke="#0061f2" d="M126.78,-605.5C171.11,-605.5 229,-605.5 229,-605.5 229,-605.5 229,-829 229,-829 229,-829 397.12,-829 516.48,-829"/>
</g>
<!-- kszmigiel&#45;&#45;Miejsce::Miejsce#Klucze do spejsu -->
<g id="edge26" class="edge">
<title>kszmigiel&#45;&#45;Miejsce::Miejsce#Klucze do spejsu</title>
<path fill="none" stroke="#0061f2" d="M127,-590.74C127,-566.14 127,-487.4 127,-487.4 127,-487.4 316.44,-487.4 463.51,-487.4"/>
</g>
<!-- kszmigiel&#45;&#45;Infrastruktura::Telegram#posty: t.me/hakierspejs_spam -->
<g id="edge31" class="edge">
<title>kszmigiel&#45;&#45;Infrastruktura::Telegram#posty: t.me/hakierspejs_spam</title>
<path fill="none" stroke="#0061f2" d="M122,-587.54C122,-549.13 122,-418 122,-418 122,-418 292.53,-418 436.58,-418"/>
</g>
<!-- Marketing&#45;i&#45;media&#45;spoecznociowe#Naklejki -->
<g id="node26" class="node">
<title>Marketing&#45;i&#45;media&#45;spoecznociowe#Naklejki</title>
<ellipse fill="none" stroke="black" cx="633.08" cy="-448" rx="221.76" ry="18"/>
<text text-anchor="middle" x="633.08" y="-444.3" font-family="Times,serif" font-size="14.00">Marketing&#45;i&#45;media&#45;spoecznociowe#Naklejki</text>
</g>
<!-- kszmigiel&#45;&#45;Marketing&#45;i&#45;media&#45;spoecznociowe#Naklejki -->
<g id="edge27" class="edge">
<title>kszmigiel&#45;&#45;Marketing&#45;i&#45;media&#45;spoecznociowe#Naklejki</title>
<path fill="none" stroke="#0061f2" d="M124,-588.62C124,-556.8 124,-455 124,-455 124,-455 287.04,-455 428.59,-455"/>
</g>
<!-- cytP450 -->
<g id="node27" class="node">
<title>cytP450</title>
<ellipse fill="none" stroke="black" cx="77.02" cy="-233" rx="48.99" ry="18"/>
<text text-anchor="middle" x="77.02" y="-229.3" font-family="Times,serif" font-size="14.00">cytP450</text>
</g>
<!-- cytP450&#45;&#45;Kanay&#45;komunikacji# -->
<g id="edge36" class="edge">
<title>cytP450&#45;&#45;Kanay&#45;komunikacji#</title>
<path fill="none" stroke="#c60077" d="M113.59,-245C161.65,-245 240,-245 240,-245 240,-245 240,-781.2 240,-781.2 240,-781.2 430.04,-781.2 545.84,-781.2"/>
</g>
<!-- cytP450&#45;&#45;Miejsce::Miejsce#Klucze do spejsu -->
<g id="edge33" class="edge">
<title>cytP450&#45;&#45;Miejsce::Miejsce#Klucze do spejsu</title>
<path fill="none" stroke="#c60077" d="M123.19,-239C173.23,-239 246,-239 246,-239 246,-239 246,-480.2 246,-480.2 246,-480.2 383.59,-480.2 494.7,-480.2"/>
</g>
<!-- cytP450&#45;&#45;Infrastruktura::Domeny#Domeny -->
<g id="edge38" class="edge">
<title>cytP450&#45;&#45;Infrastruktura::Domeny#Domeny</title>
<path fill="none" stroke="#c60077" d="M125.96,-233C182.84,-233 269,-233 269,-233 269,-233 269,-307 269,-307 269,-307 403.12,-307 508.55,-307"/>
</g>
<!-- Zamek#Zamek -->
<g id="node28" class="node">
<title>Zamek#Zamek</title>
<ellipse fill="none" stroke="black" cx="633.08" cy="-190" rx="81.49" ry="18"/>
<text text-anchor="middle" x="633.08" y="-186.3" font-family="Times,serif" font-size="14.00">Zamek#Zamek</text>
</g>
<!-- cytP450&#45;&#45;Zamek#Zamek -->
<g id="edge32" class="edge">
<title>cytP450&#45;&#45;Zamek#Zamek</title>
<path fill="none" stroke="#c60077" d="M121,-225.11C121,-212.7 121,-190 121,-190 121,-190 407.17,-190 551.66,-190"/>
</g>
<!-- Chciejlista#DIY -->
<g id="node29" class="node">
<title>Chciejlista#DIY</title>
<ellipse fill="none" stroke="black" cx="633.08" cy="-147" rx="83.69" ry="18"/>
<text text-anchor="middle" x="633.08" y="-143.3" font-family="Times,serif" font-size="14.00">Chciejlista#DIY</text>
</g>
<!-- cytP450&#45;&#45;Chciejlista#DIY -->
<g id="edge34" class="edge">
<title>cytP450&#45;&#45;Chciejlista#DIY</title>
<path fill="none" stroke="#c60077" d="M115,-221.4C115,-197.93 115,-147 115,-147 115,-147 402.26,-147 548.98,-147"/>
</g>
<!-- Chciejlista#Elektronika (w sensie urzdze konsumenckich) -->
<g id="node30" class="node">
<title>Chciejlista#Elektronika (w sensie urzdze konsumenckich)</title>
<ellipse fill="none" stroke="black" cx="633.08" cy="-104" rx="289.75" ry="18"/>
<text text-anchor="middle" x="633.08" y="-100.3" font-family="Times,serif" font-size="14.00">Chciejlista#Elektronika (w sensie urzdze konsumenckich)</text>
</g>
<!-- cytP450&#45;&#45;Chciejlista#Elektronika (w sensie urzdze konsumenckich) -->
<g id="edge35" class="edge">
<title>cytP450&#45;&#45;Chciejlista#Elektronika (w sensie urzdze konsumenckich)</title>
<path fill="none" stroke="#c60077" d="M110,-219.68C110,-186.72 110,-104 110,-104 110,-104 222.32,-104 342.86,-104"/>
</g>
<!-- Przegld&#45;lokali&#45;na&#45;wynajem&#45;w&#45;odzi.&#45;Fundusz&#45;1000&#45;&#45;&#45;1500.#Bot Aleksego -->
<g id="node31" class="node">
<title>Przegld&#45;lokali&#45;na&#45;wynajem&#45;w&#45;odzi.&#45;Fundusz&#45;1000&#45;&#45;&#45;1500.#Bot Aleksego</title>
<ellipse fill="none" stroke="black" cx="633.08" cy="-233" rx="351.74" ry="18"/>
<text text-anchor="middle" x="633.08" y="-229.3" font-family="Times,serif" font-size="14.00">Przegld&#45;lokali&#45;na&#45;wynajem&#45;w&#45;odzi.&#45;Fundusz&#45;1000&#45;&#45;&#45;1500.#Bot Aleksego</text>
</g>
<!-- cytP450&#45;&#45;Przegld&#45;lokali&#45;na&#45;wynajem&#45;w&#45;odzi.&#45;Fundusz&#45;1000&#45;&#45;&#45;1500.#Bot Aleksego -->
<g id="edge37" class="edge">
<title>cytP450&#45;&#45;Przegld&#45;lokali&#45;na&#45;wynajem&#45;w&#45;odzi.&#45;Fundusz&#45;1000&#45;&#45;&#45;1500.#Bot Aleksego</title>
<path fill="none" stroke="#c60077" d="M113.5,-221C166.66,-221 270.06,-221 370.72,-221"/>
</g>
<!-- Stowarzyszenie#Komisja Rewizyjna -->
<g id="node32" class="node">
<title>Stowarzyszenie#Komisja Rewizyjna</title>
<ellipse fill="none" stroke="black" cx="633.08" cy="-276" rx="178.17" ry="18"/>
<text text-anchor="middle" x="633.08" y="-272.3" font-family="Times,serif" font-size="14.00">Stowarzyszenie#Komisja Rewizyjna</text>
</g>
<!-- cytP450&#45;&#45;Stowarzyszenie#Komisja Rewizyjna -->
<g id="edge39" class="edge">
<title>cytP450&#45;&#45;Stowarzyszenie#Komisja Rewizyjna</title>
<path fill="none" stroke="#c60077" d="M123.19,-227C181.69,-227 275,-227 275,-227 275,-227 275,-270 275,-270 275,-270 372.01,-270 465.05,-270"/>
</g>
<!-- Keij0 -->
<g id="node33" class="node">
<title>Keij0</title>
<ellipse fill="none" stroke="black" cx="77.02" cy="-319" rx="34.39" ry="18"/>
<text text-anchor="middle" x="77.02" y="-315.3" font-family="Times,serif" font-size="14.00">Keij0</text>
</g>
<!-- Keij0&#45;&#45;Marketing&#45;i&#45;media&#45;spoecznociowe# -->
<g id="edge40" class="edge">
<title>Keij0&#45;&#45;Marketing&#45;i&#45;media&#45;spoecznociowe#</title>
<path fill="none" stroke="#b6e400" d="M111.61,-319C154.78,-319 223,-319 223,-319 223,-319 223,-864 223,-864 223,-864 396.47,-864 517.76,-864"/>
</g>
<!-- Keij0&#45;&#45;Stowarzyszenie#Komisja Rewizyjna -->
<g id="edge41" class="edge">
<title>Keij0&#45;&#45;Stowarzyszenie#Komisja Rewizyjna</title>
<path fill="none" stroke="#b6e400" d="M109.76,-313C202.61,-313 461,-313 461,-313 461,-313 461,-290.87 461,-280.84"/>
</g>
<!-- pzduniak -->
<g id="node34" class="node">
<title>pzduniak</title>
<ellipse fill="none" stroke="black" cx="77.02" cy="-276" rx="52.79" ry="18"/>
<text text-anchor="middle" x="77.02" y="-272.3" font-family="Times,serif" font-size="14.00">pzduniak</text>
</g>
<!-- pzduniak&#45;&#45;Stowarzyszenie#Komisja Rewizyjna -->
<g id="edge42" class="edge">
<title>pzduniak&#45;&#45;Stowarzyszenie#Komisja Rewizyjna</title>
<path fill="none" stroke="#00ffff" d="M126.85,-282C202.29,-282 349,-282 465.14,-282"/>
</g>
<!-- marti -->
<g id="node35" class="node">
<title>marti</title>
<ellipse fill="none" stroke="black" cx="77.02" cy="-921" rx="36.29" ry="18"/>
<text text-anchor="middle" x="77.02" y="-917.3" font-family="Times,serif" font-size="14.00">marti</text>
</g>
<!-- marti&#45;&#45;Infrastruktura::Telegram#G贸wny: t.me/hakierspejs -->
<g id="edge44" class="edge">
<title>marti&#45;&#45;Infrastruktura::Telegram#G贸wny: t.me/hakierspejs</title>
<path fill="none" stroke="#ab00d5" d="M113.5,-921C168.53,-921 277.41,-921 381.35,-921"/>
</g>
<!-- marti&#45;&#45;Marketing&#45;i&#45;media&#45;spoecznociowe# -->
<g id="edge43" class="edge">
<title>marti&#45;&#45;Marketing&#45;i&#45;media&#45;spoecznociowe#</title>
<path fill="none" stroke="#ab00d5" d="M111.67,-915C117.12,-915 121,-915 121,-915 121,-915 121,-884 121,-884 121,-884 311.46,-884 460.07,-884"/>
</g>
<!-- marti&#45;&#45;Infrastruktura::Github#Github -->
<g id="edge45" class="edge">
<title>marti&#45;&#45;Infrastruktura::Github#Github</title>
<path fill="none" stroke="#ab00d5" d="M111.48,-927C190.89,-927 380,-927 380,-927 380,-927 380,-1005 380,-1005 380,-1005 426.51,-1005 479.66,-1005"/>
</g>
<!-- biniu -->
<g id="node36" class="node">
<title>biniu</title>
<ellipse fill="none" stroke="black" cx="77.02" cy="-878" rx="34.39" ry="18"/>
<text text-anchor="middle" x="77.02" y="-874.3" font-family="Times,serif" font-size="14.00">biniu</text>
</g>
<!-- biniu&#45;&#45;Marketing&#45;i&#45;media&#45;spoecznociowe# -->
<g id="edge46" class="edge">
<title>biniu&#45;&#45;Marketing&#45;i&#45;media&#45;spoecznociowe#</title>
<path fill="none" stroke="#f29100" d="M111.38,-880C177.86,-880 328.3,-880 450.63,-880"/>
</g>
<!-- nikolaad -->
<g id="node37" class="node">
<title>nikolaad</title>
<ellipse fill="none" stroke="black" cx="77.02" cy="-835" rx="50.09" ry="18"/>
<text text-anchor="middle" x="77.02" y="-831.3" font-family="Times,serif" font-size="14.00">nikolaad</text>
</g>
<!-- nikolaad&#45;&#45;Marketing&#45;i&#45;media&#45;spoecznociowe# -->
<g id="edge47" class="edge">
<title>nikolaad&#45;&#45;Marketing&#45;i&#45;media&#45;spoecznociowe#</title>
<path fill="none" stroke="#00c64f" d="M118,-845.35C118,-857.49 118,-876 118,-876 118,-876 302.59,-876 450.76,-876"/>
</g>
<!-- BluRaf -->
<g id="node38" class="node">
<title>BluRaf</title>
<ellipse fill="none" stroke="black" cx="77.02" cy="-1050" rx="42.49" ry="18"/>
<text text-anchor="middle" x="77.02" y="-1046.3" font-family="Times,serif" font-size="14.00">BluRaf</text>
</g>
<!-- BluRaf&#45;&#45;Infrastruktura::IRC#IRC -->
<g id="edge49" class="edge">
<title>BluRaf&#45;&#45;Infrastruktura::IRC#IRC</title>
<path fill="none" stroke="#2e00e4" d="M115.24,-1057.71C197.56,-1057.71 394.35,-1057.71 520.24,-1057.71"/>
</g>
<!-- BluRaf&#45;&#45;Marketing&#45;i&#45;media&#45;spoecznociowe# -->
<g id="edge48" class="edge">
<title>BluRaf&#45;&#45;Marketing&#45;i&#45;media&#45;spoecznociowe#</title>
<path fill="none" stroke="#2e00e4" d="M106.9,-1037.14C158.31,-1037.14 258,-1037.14 258,-1037.14 258,-1037.14 258,-892 258,-892 258,-892 407.51,-892 517.74,-892"/>
</g>
<!-- Kanay&#45;komunikacji#Mumble -->
<g id="node39" class="node">
<title>Kanay&#45;komunikacji#Mumble</title>
<ellipse fill="none" stroke="black" cx="633.08" cy="-1222" rx="146.77" ry="18"/>
<text text-anchor="middle" x="633.08" y="-1218.3" font-family="Times,serif" font-size="14.00">Kanay&#45;komunikacji#Mumble</text>
</g>
<!-- BluRaf&#45;&#45;Kanay&#45;komunikacji#Mumble -->
<g id="edge50" class="edge">
<title>BluRaf&#45;&#45;Kanay&#45;komunikacji#Mumble</title>
<path fill="none" stroke="#2e00e4" d="M106.82,-1062.86C138.17,-1062.86 183,-1062.86 183,-1062.86 183,-1062.86 183,-1222 183,-1222 183,-1222 354.72,-1222 486.02,-1222"/>
</g>
<!-- kujaw -->
<g id="node40" class="node">
<title>kujaw</title>
<ellipse fill="none" stroke="black" cx="77.02" cy="-426" rx="38.19" ry="18"/>
<text text-anchor="middle" x="77.02" y="-422.3" font-family="Times,serif" font-size="14.00">kujaw</text>
</g>
<!-- kujaw&#45;&#45;Marketing&#45;i&#45;media&#45;spoecznociowe# -->
<g id="edge51" class="edge">
<title>kujaw&#45;&#45;Marketing&#45;i&#45;media&#45;spoecznociowe#</title>
<path fill="none" stroke="#ff0000" d="M107.39,-437C148.56,-437 217,-437 217,-437 217,-437 217,-868 217,-868 217,-868 361.76,-868 480.51,-868"/>
</g>
<!-- Marketing&#45;i&#45;media&#45;spoecznociowe#Logo nr 2 -->
<g id="node41" class="node">
<title>Marketing&#45;i&#45;media&#45;spoecznociowe#Logo nr 2</title>
<ellipse fill="none" stroke="black" cx="633.08" cy="-362" rx="227.46" ry="18"/>
<text text-anchor="middle" x="633.08" y="-358.3" font-family="Times,serif" font-size="14.00">Marketing&#45;i&#45;media&#45;spoecznociowe#Logo nr 2</text>
</g>
<!-- kujaw&#45;&#45;Marketing&#45;i&#45;media&#45;spoecznociowe#Logo nr 2 -->
<g id="edge52" class="edge">
<title>kujaw&#45;&#45;Marketing&#45;i&#45;media&#45;spoecznociowe#Logo nr 2</title>
<path fill="none" stroke="#ff0000" d="M103.84,-413C112.07,-413 119,-413 119,-413 119,-413 119,-372.8 119,-372.8 119,-372.8 302.93,-372.8 450.75,-372.8"/>
</g>
<!-- q3k -->
<g id="node42" class="node">
<title>q3k</title>
<ellipse fill="none" stroke="black" cx="77.02" cy="-362" rx="27.9" ry="18"/>
<text text-anchor="middle" x="77.02" y="-358.3" font-family="Times,serif" font-size="14.00">q3k</text>
</g>
<!-- q3k&#45;&#45;Kanay&#45;komunikacji# -->
<g id="edge55" class="edge">
<title>q3k&#45;&#45;Kanay&#45;komunikacji#</title>
<path fill="none" stroke="#2bd500" d="M104.54,-365.6C149.8,-365.6 235,-365.6 235,-365.6 235,-365.6 235,-788.4 235,-788.4 235,-788.4 408.74,-788.4 526.66,-788.4"/>
</g>
<!-- q3k&#45;&#45;Infrastruktura::Domeny#Domeny -->
<g id="edge53" class="edge">
<title>q3k&#45;&#45;Infrastruktura::Domeny#Domeny</title>
<path fill="none" stroke="#2bd500" d="M99.5,-351.2C158.99,-351.2 316,-351.2 316,-351.2 316,-351.2 316,-331 316,-331 316,-331 419.49,-331 508.22,-331"/>
</g>
<!-- q3k&#45;&#45;Marketing&#45;i&#45;media&#45;spoecznociowe#Logo nr 2 -->
<g id="edge54" class="edge">
<title>q3k&#45;&#45;Marketing&#45;i&#45;media&#45;spoecznociowe#Logo nr 2</title>
<path fill="none" stroke="#2bd500" d="M104.59,-358.4C160.53,-358.4 292.04,-358.4 409.87,-358.4"/>
</g>
<!-- pmysl -->
<g id="node43" class="node">
<title>pmysl</title>
<ellipse fill="none" stroke="black" cx="77.02" cy="-964" rx="38.19" ry="18"/>
<text text-anchor="middle" x="77.02" y="-960.3" font-family="Times,serif" font-size="14.00">pmysl</text>
</g>
<!-- pmysl&#45;&#45;Bazy&#45;danych# -->
<g id="edge56" class="edge">
<title>pmysl&#45;&#45;Bazy&#45;danych#</title>
<path fill="none" stroke="#0061f2" d="M102.48,-977.5C183.64,-977.5 431,-977.5 431,-977.5 431,-977.5 431,-1087 431,-1087 431,-1087 502.24,-1087 560.13,-1087"/>
</g>
<!-- pmysl&#45;&#45;Infrastruktura::IRC#IRC -->
<g id="edge59" class="edge">
<title>pmysl&#45;&#45;Infrastruktura::IRC#IRC</title>
<path fill="none" stroke="#0061f2" d="M110.23,-973C202.46,-973 455,-973 455,-973 455,-973 455,-1042.29 455,-1042.29 455,-1042.29 484.96,-1042.29 520.3,-1042.29"/>
</g>
<!-- pmysl&#45;&#45;Kanay&#45;komunikacji# -->
<g id="edge60" class="edge">
<title>pmysl&#45;&#45;Kanay&#45;komunikacji#</title>
<path fill="none" stroke="#0061f2" d="M114.16,-959.5C140.43,-959.5 171,-959.5 171,-959.5 171,-959.5 171,-795.6 171,-795.6 171,-795.6 390.03,-795.6 526.49,-795.6"/>
</g>
<!-- pmysl&#45;&#45;Infrastruktura::Github#Github -->
<g id="edge61" class="edge">
<title>pmysl&#45;&#45;Infrastruktura::Github#Github</title>
<path fill="none" stroke="#0061f2" d="M114.47,-968.5C217.74,-968.5 499,-968.5 499,-968.5 499,-968.5 499,-986.7 499,-998.07"/>
</g>
<!-- pmysl&#45;&#45;Bazy&#45;danych#Grafana -->
<g id="edge57" class="edge">
<title>pmysl&#45;&#45;Bazy&#45;danych#Grafana</title>
<path fill="none" stroke="#0061f2" d="M115.68,-964C197.88,-964 392.77,-964 518.5,-964"/>
</g>
<!-- pmysl&#45;&#45;Miejsce::Miejsce#Klucze do spejsu -->
<g id="edge58" class="edge">
<title>pmysl&#45;&#45;Miejsce::Miejsce#Klucze do spejsu</title>
<path fill="none" stroke="#0061f2" d="M102.82,-950.5C127.18,-950.5 160,-950.5 160,-950.5 160,-950.5 160,-501.8 160,-501.8 160,-501.8 355.04,-501.8 494.66,-501.8"/>
</g>
<!-- kpc -->
<g id="node44" class="node">
<title>kpc</title>
<ellipse fill="none" stroke="black" cx="77.02" cy="-61" rx="27" ry="18"/>
<text text-anchor="middle" x="77.02" y="-57.3" font-family="Times,serif" font-size="14.00">kpc</text>
</g>
<!-- kpc&#45;&#45;Infrastruktura::Telegram#posty: t.me/hakierspejs_spam -->
<g id="edge64" class="edge">
<title>kpc&#45;&#45;Infrastruktura::Telegram#posty: t.me/hakierspejs_spam</title>
<path fill="none" stroke="#c60077" d="M102.84,-67C151.51,-67 252,-67 252,-67 252,-67 252,-394 252,-394 252,-394 325.59,-394 408.1,-394"/>
</g>
<!-- Czaty&#45;HS#HS: posty wyklte -->
<g id="node45" class="node">
<title>Czaty&#45;HS#HS: posty wyklte</title>
<ellipse fill="none" stroke="black" cx="633.08" cy="-18" rx="157.87" ry="18"/>
<text text-anchor="middle" x="633.08" y="-14.3" font-family="Times,serif" font-size="14.00">Czaty&#45;HS#HS: posty wyklte</text>
</g>
<!-- kpc&#45;&#45;Czaty&#45;HS#HS: posty wyklte -->
<g id="edge62" class="edge">
<title>kpc&#45;&#45;Czaty&#45;HS#HS: posty wyklte</title>
<path fill="none" stroke="#c60077" d="M78,-42.51C78,-30.86 78,-18 78,-18 78,-18 311.04,-18 475.13,-18"/>
</g>
<!-- Infrastruktura::Telegram#Posty wyklte (celowo bez linka) -->
<g id="node46" class="node">
<title>Infrastruktura::Telegram#Posty wyklte (celowo bez linka)</title>
<ellipse fill="none" stroke="black" cx="633.08" cy="-61" rx="284.05" ry="18"/>
<text text-anchor="middle" x="633.08" y="-57.3" font-family="Times,serif" font-size="14.00">Infrastruktura::Telegram#Posty wyklte (celowo bez linka)</text>
</g>
<!-- kpc&#45;&#45;Infrastruktura::Telegram#Posty wyklte (celowo bez linka) -->
<g id="edge63" class="edge">
<title>kpc&#45;&#45;Infrastruktura::Telegram#Posty wyklte (celowo bez linka)</title>
<path fill="none" stroke="#c60077" d="M102.72,-55C150.78,-55 259.02,-55 365.27,-55"/>
</g>
</g>
</svg>
