<?xml version="1.0" encoding="UTF-8" standalone="no"?>
<!DOCTYPE svg PUBLIC "-//W3C//DTD SVG 1.1//EN"
 "http://www.w3.org/Graphics/SVG/1.1/DTD/svg11.dtd">
<!-- Generated by graphviz version 2.40.1 (20161225.0304)
 -->
<!-- Title: %3 Pages: 1 -->
<svg width="723pt" height="818pt"
 viewBox="0.00 0.00 722.65 818.00" xmlns="http://www.w3.org/2000/svg" xmlns:xlink="http://www.w3.org/1999/xlink">
<g id="graph0" class="graph" transform="scale(1 1) rotate(0) translate(4 814)">
<title>%3</title>
<polygon fill="#ffffff" stroke="transparent" points="-4,4 -4,-814 718.6494,-814 718.6494,4 -4,4"/>
<!-- q3k -->
<g id="node1" class="node">
<title>q3k</title>
<ellipse fill="none" stroke="#000000" cx="59.7947" cy="-749" rx="28.6953" ry="18"/>
<text text-anchor="middle" x="59.7947" y="-745.3" font-family="Times,serif" font-size="14.00" fill="#000000">q3k</text>
</g>
<!-- Infrastruktura#Domeny -->
<g id="node2" class="node">
<title>Infrastruktura#Domeny</title>
<ellipse fill="none" stroke="#000000" cx="489.1194" cy="-792" rx="124.2781" ry="18"/>
<text text-anchor="middle" x="489.1194" y="-788.3" font-family="Times,serif" font-size="14.00" fill="#000000">Infrastruktura#Domeny</text>
</g>
<!-- q3k&#45;&#45;Infrastruktura#Domeny -->
<g id="edge1" class="edge">
<title>q3k&#45;&#45;Infrastruktura#Domeny</title>
<path fill="none" stroke="#ff0000" d="M60.6494,-767.1871C60.6494,-782.1824 60.6494,-801 60.6494,-801 60.6494,-801 254.6303,-801 381.5514,-801"/>
</g>
<!-- Infrastruktura#Lista mailingowa -->
<g id="node3" class="node">
<title>Infrastruktura#Lista mailingowa</title>
<ellipse fill="none" stroke="#000000" cx="489.1194" cy="-749" rx="165.1707" ry="18"/>
<text text-anchor="middle" x="489.1194" y="-745.3" font-family="Times,serif" font-size="14.00" fill="#000000">Infrastruktura#Lista mailingowa</text>
</g>
<!-- q3k&#45;&#45;Infrastruktura#Lista mailingowa -->
<g id="edge2" class="edge">
<title>q3k&#45;&#45;Infrastruktura#Lista mailingowa</title>
<path fill="none" stroke="#ff0000" d="M86.9766,-755C135.9148,-755 242.2345,-755 333.2654,-755"/>
</g>
<!-- d33tah -->
<g id="node4" class="node">
<title>d33tah</title>
<ellipse fill="none" stroke="#000000" cx="59.7947" cy="-534" rx="43.5923" ry="18"/>
<text text-anchor="middle" x="59.7947" y="-530.3" font-family="Times,serif" font-size="14.00" fill="#000000">d33tah</text>
</g>
<!-- d33tah&#45;&#45;Infrastruktura#Domeny -->
<g id="edge10" class="edge">
<title>d33tah&#45;&#45;Infrastruktura#Domeny</title>
<path fill="none" stroke="#2bd500" d="M83.9775,-549C105.5166,-549 133.6494,-549 133.6494,-549 133.6494,-549 133.6494,-783 133.6494,-783 133.6494,-783 276.878,-783 381.502,-783"/>
</g>
<!-- d33tah&#45;&#45;Infrastruktura#Lista mailingowa -->
<g id="edge6" class="edge">
<title>d33tah&#45;&#45;Infrastruktura#Lista mailingowa</title>
<path fill="none" stroke="#2bd500" d="M92.6307,-546C117.2264,-546 146.6494,-546 146.6494,-546 146.6494,-546 146.6494,-743 146.6494,-743 146.6494,-743 242.9485,-743 333.417,-743"/>
</g>
<!-- Infrastruktura#Github -->
<g id="node5" class="node">
<title>Infrastruktura#Github</title>
<ellipse fill="none" stroke="#000000" cx="489.1194" cy="-491" rx="117.7793" ry="18"/>
<text text-anchor="middle" x="489.1194" y="-487.3" font-family="Times,serif" font-size="14.00" fill="#000000">Infrastruktura#Github</text>
</g>
<!-- d33tah&#45;&#45;Infrastruktura#Github -->
<g id="edge3" class="edge">
<title>d33tah&#45;&#45;Infrastruktura#Github</title>
<path fill="none" stroke="#2bd500" d="M99.6494,-526.5317C99.6494,-517.0195 99.6494,-501.8 99.6494,-501.8 99.6494,-501.8 279.5748,-501.8 394.8396,-501.8"/>
</g>
<!-- Miejsce::Miejsce#Klucze do spejsu -->
<g id="node6" class="node">
<title>Miejsce::Miejsce#Klucze do spejsu</title>
<ellipse fill="none" stroke="#000000" cx="489.1194" cy="-663" rx="174.6691" ry="18"/>
<text text-anchor="middle" x="489.1194" y="-659.3" font-family="Times,serif" font-size="14.00" fill="#000000">Miejsce::Miejsce#Klucze do spejsu</text>
</g>
<!-- d33tah&#45;&#45;Miejsce::Miejsce#Klucze do spejsu -->
<g id="edge4" class="edge">
<title>d33tah&#45;&#45;Miejsce::Miejsce#Klucze do spejsu</title>
<path fill="none" stroke="#2bd500" d="M101.1279,-540C174.6818,-540 320.6494,-540 320.6494,-540 320.6494,-540 320.6494,-635.0146 320.6494,-658.0259"/>
</g>
<!-- Infrastruktura#Hosting -->
<g id="node7" class="node">
<title>Infrastruktura#Hosting</title>
<ellipse fill="none" stroke="#000000" cx="489.1194" cy="-620" rx="122.6784" ry="18"/>
<text text-anchor="middle" x="489.1194" y="-616.3" font-family="Times,serif" font-size="14.00" fill="#000000">Infrastruktura#Hosting</text>
</g>
<!-- d33tah&#45;&#45;Infrastruktura#Hosting -->
<g id="edge5" class="edge">
<title>d33tah&#45;&#45;Infrastruktura#Hosting</title>
<path fill="none" stroke="#2bd500" d="M102.9661,-537C178.4918,-537 326.6494,-537 326.6494,-537 326.6494,-537 326.6494,-612.2857 326.6494,-612.2857 326.6494,-612.2857 349.4967,-612.2857 378.0559,-612.2857"/>
</g>
<!-- Infrastruktura#Forum -->
<g id="node8" class="node">
<title>Infrastruktura#Forum</title>
<ellipse fill="none" stroke="#000000" cx="489.1194" cy="-706" rx="116.1796" ry="18"/>
<text text-anchor="middle" x="489.1194" y="-702.3" font-family="Times,serif" font-size="14.00" fill="#000000">Infrastruktura#Forum</text>
</g>
<!-- d33tah&#45;&#45;Infrastruktura#Forum -->
<g id="edge7" class="edge">
<title>d33tah&#45;&#45;Infrastruktura#Forum</title>
<path fill="none" stroke="#2bd500" d="M97.7373,-543C138.8496,-543 198.6494,-543 198.6494,-543 198.6494,-543 198.6494,-693.1429 198.6494,-693.1429 198.6494,-693.1429 321.5205,-693.1429 407.4343,-693.1429"/>
</g>
<!-- Infrastruktura#IRC -->
<g id="node9" class="node">
<title>Infrastruktura#IRC</title>
<ellipse fill="none" stroke="#000000" cx="489.1194" cy="-276" rx="103.9815" ry="18"/>
<text text-anchor="middle" x="489.1194" y="-272.3" font-family="Times,serif" font-size="14.00" fill="#000000">Infrastruktura#IRC</text>
</g>
<!-- d33tah&#45;&#45;Infrastruktura#IRC -->
<g id="edge8" class="edge">
<title>d33tah&#45;&#45;Infrastruktura#IRC</title>
<path fill="none" stroke="#2bd500" d="M92.416,-522C143.7611,-522 237.6494,-522 237.6494,-522 237.6494,-522 237.6494,-283 237.6494,-283 237.6494,-283 321.982,-283 392.973,-283"/>
</g>
<!-- Infrastruktura#Grafana -->
<g id="node10" class="node">
<title>Infrastruktura#Grafana</title>
<ellipse fill="none" stroke="#000000" cx="489.1194" cy="-577" rx="122.6784" ry="18"/>
<text text-anchor="middle" x="489.1194" y="-573.3" font-family="Times,serif" font-size="14.00" fill="#000000">Infrastruktura#Grafana</text>
</g>
<!-- d33tah&#45;&#45;Infrastruktura#Grafana -->
<g id="edge9" class="edge">
<title>d33tah&#45;&#45;Infrastruktura#Grafana</title>
<path fill="none" stroke="#2bd500" d="M103.5985,-534C191.1986,-534 379.6494,-534 379.6494,-534 379.6494,-534 379.6494,-556.2139 379.6494,-568.7092"/>
</g>
<!-- Infrastruktura#t.me/hakierspejs_spam -->
<g id="node11" class="node">
<title>Infrastruktura#t.me/hakierspejs_spam</title>
<ellipse fill="none" stroke="#000000" cx="489.1194" cy="-319" rx="193.0657" ry="18"/>
<text text-anchor="middle" x="489.1194" y="-315.3" font-family="Times,serif" font-size="14.00" fill="#000000">Infrastruktura#t.me/hakierspejs_spam</text>
</g>
<!-- d33tah&#45;&#45;Infrastruktura#t.me/hakierspejs_spam -->
<g id="edge11" class="edge">
<title>d33tah&#45;&#45;Infrastruktura#t.me/hakierspejs_spam</title>
<path fill="none" stroke="#2bd500" d="M97.6707,-525C166.6349,-525 305.6494,-525 305.6494,-525 305.6494,-525 305.6494,-358.7189 305.6494,-324.943"/>
</g>
<!-- Infrastruktura#t.me/hakierspejs -->
<g id="node12" class="node">
<title>Infrastruktura#t.me/hakierspejs</title>
<ellipse fill="none" stroke="#000000" cx="489.1194" cy="-233" rx="163.2712" ry="18"/>
<text text-anchor="middle" x="489.1194" y="-229.3" font-family="Times,serif" font-size="14.00" fill="#000000">Infrastruktura#t.me/hakierspejs</text>
</g>
<!-- d33tah&#45;&#45;Infrastruktura#t.me/hakierspejs -->
<g id="edge12" class="edge">
<title>d33tah&#45;&#45;Infrastruktura#t.me/hakierspejs</title>
<path fill="none" stroke="#2bd500" d="M84.1196,-519C129.9767,-519 224.6494,-519 224.6494,-519 224.6494,-519 224.6494,-246 224.6494,-246 224.6494,-246 304.311,-246 376.1932,-246"/>
</g>
<!-- Infrastruktura#Pad -->
<g id="node13" class="node">
<title>Infrastruktura#Pad</title>
<ellipse fill="none" stroke="#000000" cx="489.1194" cy="-534" rx="102.8821" ry="18"/>
<text text-anchor="middle" x="489.1194" y="-530.3" font-family="Times,serif" font-size="14.00" fill="#000000">Infrastruktura#Pad</text>
</g>
<!-- d33tah&#45;&#45;Infrastruktura#Pad -->
<g id="edge13" class="edge">
<title>d33tah&#45;&#45;Infrastruktura#Pad</title>
<path fill="none" stroke="#2bd500" d="M102.9257,-531C168.9499,-531 296.9267,-531 387.4323,-531"/>
</g>
<!-- Infrastruktura#Meetup -->
<g id="node14" class="node">
<title>Infrastruktura#Meetup</title>
<ellipse fill="none" stroke="#000000" cx="489.1194" cy="-448" rx="121.5784" ry="18"/>
<text text-anchor="middle" x="489.1194" y="-444.3" font-family="Times,serif" font-size="14.00" fill="#000000">Infrastruktura#Meetup</text>
</g>
<!-- d33tah&#45;&#45;Infrastruktura#Meetup -->
<g id="edge14" class="edge">
<title>d33tah&#45;&#45;Infrastruktura#Meetup</title>
<path fill="none" stroke="#2bd500" d="M101.0551,-528C180.2171,-528 345.6494,-528 345.6494,-528 345.6494,-528 345.6494,-461.5 345.6494,-461.5 345.6494,-461.5 375.8737,-461.5 408.5774,-461.5"/>
</g>
<!-- cytP450 -->
<g id="node15" class="node">
<title>cytP450</title>
<ellipse fill="none" stroke="#000000" cx="59.7947" cy="-706" rx="49.2915" ry="18"/>
<text text-anchor="middle" x="59.7947" y="-702.3" font-family="Times,serif" font-size="14.00" fill="#000000">cytP450</text>
</g>
<!-- cytP450&#45;&#45;Infrastruktura#Domeny -->
<g id="edge16" class="edge">
<title>cytP450&#45;&#45;Infrastruktura#Domeny</title>
<path fill="none" stroke="#0061f2" d="M99.6494,-716.892C99.6494,-740.0334 99.6494,-792 99.6494,-792 99.6494,-792 250.8367,-792 364.8178,-792"/>
</g>
<!-- cytP450&#45;&#45;Miejsce::Miejsce#Klucze do spejsu -->
<g id="edge17" class="edge">
<title>cytP450&#45;&#45;Miejsce::Miejsce#Klucze do spejsu</title>
<path fill="none" stroke="#0061f2" d="M108.9769,-708.5714C184.3114,-708.5714 319.6494,-708.5714 319.6494,-708.5714 319.6494,-708.5714 319.6494,-679.0629 319.6494,-667.5362"/>
</g>
<!-- cytP450&#45;&#45;Infrastruktura#Hosting -->
<g id="edge15" class="edge">
<title>cytP450&#45;&#45;Infrastruktura#Hosting</title>
<path fill="none" stroke="#0061f2" d="M108.9445,-703.4286C165.4934,-703.4286 250.6494,-703.4286 250.6494,-703.4286 250.6494,-703.4286 250.6494,-632.8571 250.6494,-632.8571 250.6494,-632.8571 334.7194,-632.8571 403.0262,-632.8571"/>
</g>
<!-- cytP450&#45;&#45;Infrastruktura#Forum -->
<g id="edge18" class="edge">
<title>cytP450&#45;&#45;Infrastruktura#Forum</title>
<path fill="none" stroke="#0061f2" d="M94.5645,-718.8571C162.237,-718.8571 313.2647,-718.8571 407.6003,-718.8571"/>
</g>
<!-- Martti25 -->
<g id="node16" class="node">
<title>Martti25</title>
<ellipse fill="none" stroke="#000000" cx="59.7947" cy="-448" rx="51.9908" ry="18"/>
<text text-anchor="middle" x="59.7947" y="-444.3" font-family="Times,serif" font-size="14.00" fill="#000000">Martti25</text>
</g>
<!-- Martti25&#45;&#45;Infrastruktura#Github -->
<g id="edge19" class="edge">
<title>Martti25&#45;&#45;Infrastruktura#Github</title>
<path fill="none" stroke="#c60077" d="M109.6494,-453.1509C109.6494,-463.8307 109.6494,-487.4 109.6494,-487.4 109.6494,-487.4 262.0781,-487.4 373.7203,-487.4"/>
</g>
<!-- Martti25&#45;&#45;Infrastruktura#Meetup -->
<g id="edge21" class="edge">
<title>Martti25&#45;&#45;Infrastruktura#Meetup</title>
<path fill="none" stroke="#c60077" d="M110.3062,-452.5C174.0326,-452.5 285.6343,-452.5 371.2516,-452.5"/>
</g>
<!-- Infrastruktura#Konto na Fejsie -->
<g id="node17" class="node">
<title>Infrastruktura#Konto na Fejsie</title>
<ellipse fill="none" stroke="#000000" cx="489.1194" cy="-190" rx="157.0724" ry="18"/>
<text text-anchor="middle" x="489.1194" y="-186.3" font-family="Times,serif" font-size="14.00" fill="#000000">Infrastruktura#Konto na Fejsie</text>
</g>
<!-- Martti25&#45;&#45;Infrastruktura#Konto na Fejsie -->
<g id="edge20" class="edge">
<title>Martti25&#45;&#45;Infrastruktura#Konto na Fejsie</title>
<path fill="none" stroke="#c60077" d="M94.268,-434.5C127.4565,-434.5 172.6494,-434.5 172.6494,-434.5 172.6494,-434.5 172.6494,-196 172.6494,-196 172.6494,-196 258.3901,-196 340.6141,-196"/>
</g>
<!-- biniu -->
<g id="node18" class="node">
<title>biniu</title>
<ellipse fill="none" stroke="#000000" cx="59.7947" cy="-405" rx="34.394" ry="18"/>
<text text-anchor="middle" x="59.7947" y="-401.3" font-family="Times,serif" font-size="14.00" fill="#000000">biniu</text>
</g>
<!-- biniu&#45;&#45;Infrastruktura#Meetup -->
<g id="edge22" class="edge">
<title>biniu&#45;&#45;Infrastruktura#Meetup</title>
<path fill="none" stroke="#b6e400" d="M92.4246,-411C168.583,-411 351.6494,-411 351.6494,-411 351.6494,-411 351.6494,-443.5 351.6494,-443.5 351.6494,-443.5 359.4546,-443.5 371.3455,-443.5"/>
</g>
<!-- kszmigiel -->
<g id="node19" class="node">
<title>kszmigiel</title>
<ellipse fill="none" stroke="#000000" cx="59.7947" cy="-362" rx="55.4913" ry="18"/>
<text text-anchor="middle" x="59.7947" y="-358.3" font-family="Times,serif" font-size="14.00" fill="#000000">kszmigiel</text>
</g>
<!-- kszmigiel&#45;&#45;Infrastruktura#t.me/hakierspejs -->
<g id="edge23" class="edge">
<title>kszmigiel&#45;&#45;Infrastruktura#t.me/hakierspejs</title>
<path fill="none" stroke="#00ffff" d="M107.8425,-353C152.3311,-353 211.6494,-353 211.6494,-353 211.6494,-353 211.6494,-241 211.6494,-241 211.6494,-241 275.964,-241 342.6654,-241"/>
</g>
<!-- kszmigiel&#45;&#45;Infrastruktura#Meetup -->
<g id="edge26" class="edge">
<title>kszmigiel&#45;&#45;Infrastruktura#Meetup</title>
<path fill="none" stroke="#00ffff" d="M107.6502,-371C191.8468,-371 357.6494,-371 357.6494,-371 357.6494,-371 357.6494,-439 357.6494,-439 357.6494,-439 368.3397,-439 383.6236,-439"/>
</g>
<!-- Infrastruktura#Naklejki -->
<g id="node20" class="node">
<title>Infrastruktura#Naklejki</title>
<ellipse fill="none" stroke="#000000" cx="489.1194" cy="-405" rx="125.3778" ry="18"/>
<text text-anchor="middle" x="489.1194" y="-401.3" font-family="Times,serif" font-size="14.00" fill="#000000">Infrastruktura#Naklejki</text>
</g>
<!-- kszmigiel&#45;&#45;Infrastruktura#Naklejki -->
<g id="edge24" class="edge">
<title>kszmigiel&#45;&#45;Infrastruktura#Naklejki</title>
<path fill="none" stroke="#00ffff" d="M103.6494,-373.3023C103.6494,-384.1833 103.6494,-399 103.6494,-399 103.6494,-399 257.5354,-399 370.846,-399"/>
</g>
<!-- Finanse#Naklejki -->
<g id="node21" class="node">
<title>Finanse#Naklejki</title>
<ellipse fill="none" stroke="#000000" cx="489.1194" cy="-362" rx="94.7833" ry="18"/>
<text text-anchor="middle" x="489.1194" y="-358.3" font-family="Times,serif" font-size="14.00" fill="#000000">Finanse#Naklejki</text>
</g>
<!-- kszmigiel&#45;&#45;Finanse#Naklejki -->
<g id="edge25" class="edge">
<title>kszmigiel&#45;&#45;Finanse#Naklejki</title>
<path fill="none" stroke="#00ffff" d="M115.0425,-362C185.4753,-362 308.3632,-362 393.9944,-362"/>
</g>
<!-- nikolaad -->
<g id="node22" class="node">
<title>nikolaad</title>
<ellipse fill="none" stroke="#000000" cx="59.7947" cy="-254" rx="50.0912" ry="18"/>
<text text-anchor="middle" x="59.7947" y="-250.3" font-family="Times,serif" font-size="14.00" fill="#000000">nikolaad</text>
</g>
<!-- nikolaad&#45;&#45;Infrastruktura#Meetup -->
<g id="edge28" class="edge">
<title>nikolaad&#45;&#45;Infrastruktura#Meetup</title>
<path fill="none" stroke="#ab00d5" d="M103.8831,-262.6667C130.6328,-262.6667 159.6494,-262.6667 159.6494,-262.6667 159.6494,-262.6667 159.6494,-448 159.6494,-448 159.6494,-448 273.5193,-448 367.373,-448"/>
</g>
<!-- nikolaad&#45;&#45;Infrastruktura#Konto na Fejsie -->
<g id="edge27" class="edge">
<title>nikolaad&#45;&#45;Infrastruktura#Konto na Fejsie</title>
<path fill="none" stroke="#ab00d5" d="M106.6494,-247.54C106.6494,-230.2109 106.6494,-184 106.6494,-184 106.6494,-184 233.1894,-184 340.6991,-184"/>
</g>
<!-- Keij0 -->
<g id="node23" class="node">
<title>Keij0</title>
<ellipse fill="none" stroke="#000000" cx="59.7947" cy="-491" rx="34.394" ry="18"/>
<text text-anchor="middle" x="59.7947" y="-487.3" font-family="Times,serif" font-size="14.00" fill="#000000">Keij0</text>
</g>
<!-- Keij0&#45;&#45;Infrastruktura#Hosting -->
<g id="edge29" class="edge">
<title>Keij0&#45;&#45;Infrastruktura#Hosting</title>
<path fill="none" stroke="#f29100" d="M93.6493,-494.6C166.9193,-494.6 333.6494,-494.6 333.6494,-494.6 333.6494,-494.6 333.6494,-607.1429 333.6494,-607.1429 333.6494,-607.1429 366.9616,-607.1429 402.7462,-607.1429"/>
</g>
<!-- Keij0&#45;&#45;Infrastruktura#Meetup -->
<g id="edge30" class="edge">
<title>Keij0&#45;&#45;Infrastruktura#Meetup</title>
<path fill="none" stroke="#f29100" d="M87.3941,-480.2C157.9972,-480.2 339.6494,-480.2 339.6494,-480.2 339.6494,-480.2 339.6494,-457 339.6494,-457 339.6494,-457 358.9535,-457 383.6869,-457"/>
</g>
<!-- BluRaf -->
<g id="node24" class="node">
<title>BluRaf</title>
<ellipse fill="none" stroke="#000000" cx="59.7947" cy="-147" rx="42.4939" ry="18"/>
<text text-anchor="middle" x="59.7947" y="-143.3" font-family="Times,serif" font-size="14.00" fill="#000000">BluRaf</text>
</g>
<!-- BluRaf&#45;&#45;Infrastruktura#IRC -->
<g id="edge33" class="edge">
<title>BluRaf&#45;&#45;Infrastruktura#IRC</title>
<path fill="none" stroke="#00c64f" d="M98.225,-154.7143C169.4209,-154.7143 314.6494,-154.7143 314.6494,-154.7143 314.6494,-154.7143 314.6494,-267.3333 314.6494,-267.3333 314.6494,-267.3333 355.5834,-267.3333 397.7966,-267.3333"/>
</g>
<!-- BluRaf&#45;&#45;Infrastruktura#t.me/hakierspejs_spam -->
<g id="edge36" class="edge">
<title>BluRaf&#45;&#45;Infrastruktura#t.me/hakierspejs_spam</title>
<path fill="none" stroke="#00c64f" d="M89.8124,-159.8571C156.0001,-159.8571 308.6494,-159.8571 308.6494,-159.8571 308.6494,-159.8571 308.6494,-282.7912 308.6494,-312.5643"/>
</g>
<!-- BluRaf&#45;&#45;Infrastruktura#t.me/hakierspejs -->
<g id="edge37" class="edge">
<title>BluRaf&#45;&#45;Infrastruktura#t.me/hakierspejs</title>
<path fill="none" stroke="#00c64f" d="M60.6494,-165.2068C60.6494,-188.3965 60.6494,-225.5 60.6494,-225.5 60.6494,-225.5 216.9641,-225.5 340.7642,-225.5"/>
</g>
<!-- BluRaf&#45;&#45;Infrastruktura#Konto na Fejsie -->
<g id="edge34" class="edge">
<title>BluRaf&#45;&#45;Infrastruktura#Konto na Fejsie</title>
<path fill="none" stroke="#00c64f" d="M101.7966,-149.5714C181.9098,-149.5714 348.6494,-149.5714 348.6494,-149.5714 348.6494,-149.5714 348.6494,-170.0053 348.6494,-181.8187"/>
</g>
<!-- Infrastruktura#hs&#45;ldz:hackerspace.pl -->
<g id="node25" class="node">
<title>Infrastruktura#hs&#45;ldz:hackerspace.pl</title>
<ellipse fill="none" stroke="#000000" cx="489.1194" cy="-104" rx="186.5669" ry="18"/>
<text text-anchor="middle" x="489.1194" y="-100.3" font-family="Times,serif" font-size="14.00" fill="#000000">Infrastruktura#hs&#45;ldz:hackerspace.pl</text>
</g>
<!-- BluRaf&#45;&#45;Infrastruktura#hs&#45;ldz:hackerspace.pl -->
<g id="edge31" class="edge">
<title>BluRaf&#45;&#45;Infrastruktura#hs&#45;ldz:hackerspace.pl</title>
<path fill="none" stroke="#00c64f" d="M98.0046,-139.2857C170.4595,-139.2857 320.6494,-139.2857 320.6494,-139.2857 320.6494,-139.2857 320.6494,-122.2265 320.6494,-111.831"/>
</g>
<!-- Infrastruktura#Konfident -->
<g id="node26" class="node">
<title>Infrastruktura#Konfident</title>
<ellipse fill="none" stroke="#000000" cx="489.1194" cy="-61" rx="130.777" ry="18"/>
<text text-anchor="middle" x="489.1194" y="-57.3" font-family="Times,serif" font-size="14.00" fill="#000000">Infrastruktura#Konfident</text>
</g>
<!-- BluRaf&#45;&#45;Infrastruktura#Konfident -->
<g id="edge32" class="edge">
<title>BluRaf&#45;&#45;Infrastruktura#Konfident</title>
<path fill="none" stroke="#00c64f" d="M60.6494,-128.7616C60.6494,-103.5171 60.6494,-61 60.6494,-61 60.6494,-61 232.2309,-61 358.2361,-61"/>
</g>
<!-- Infrastruktura#hs&#45;ldz&#45;offtopic:hackerspace.pl -->
<g id="node27" class="node">
<title>Infrastruktura#hs&#45;ldz&#45;offtopic:hackerspace.pl</title>
<ellipse fill="none" stroke="#000000" cx="489.1194" cy="-18" rx="225.56" ry="18"/>
<text text-anchor="middle" x="489.1194" y="-14.3" font-family="Times,serif" font-size="14.00" fill="#000000">Infrastruktura#hs&#45;ldz&#45;offtopic:hackerspace.pl</text>
</g>
<!-- BluRaf&#45;&#45;Infrastruktura#hs&#45;ldz&#45;offtopic:hackerspace.pl -->
<g id="edge35" class="edge">
<title>BluRaf&#45;&#45;Infrastruktura#hs&#45;ldz&#45;offtopic:hackerspace.pl</title>
<path fill="none" stroke="#00c64f" d="M89.5801,-134.1429C149.864,-134.1429 280.6494,-134.1429 280.6494,-134.1429 280.6494,-134.1429 280.6494,-49.9209 280.6494,-24.9174"/>
</g>
<!-- Infrastruktura#Mumble -->
<g id="node28" class="node">
<title>Infrastruktura#Mumble</title>
<ellipse fill="none" stroke="#000000" cx="489.1194" cy="-147" rx="124.2781" ry="18"/>
<text text-anchor="middle" x="489.1194" y="-143.3" font-family="Times,serif" font-size="14.00" fill="#000000">Infrastruktura#Mumble</text>
</g>
<!-- BluRaf&#45;&#45;Infrastruktura#Mumble -->
<g id="edge38" class="edge">
<title>BluRaf&#45;&#45;Infrastruktura#Mumble</title>
<path fill="none" stroke="#00c64f" d="M101.7418,-144.4286C162.4028,-144.4286 277.0821,-144.4286 365.9877,-144.4286"/>
</g>
<!-- kpc -->
<g id="node29" class="node">
<title>kpc</title>
<ellipse fill="none" stroke="#000000" cx="59.7947" cy="-620" rx="27.8951" ry="18"/>
<text text-anchor="middle" x="59.7947" y="-616.3" font-family="Times,serif" font-size="14.00" fill="#000000">kpc</text>
</g>
<!-- kpc&#45;&#45;Infrastruktura#Hosting -->
<g id="edge39" class="edge">
<title>kpc&#45;&#45;Infrastruktura#Hosting</title>
<path fill="none" stroke="#2e00e4" d="M87.6331,-622.5714C143.1911,-622.5714 270.7811,-622.5714 367.3245,-622.5714"/>
</g>
<!-- thinkofher -->
<g id="node30" class="node">
<title>thinkofher</title>
<ellipse fill="none" stroke="#000000" cx="59.7947" cy="-663" rx="59.5901" ry="18"/>
<text text-anchor="middle" x="59.7947" y="-659.3" font-family="Times,serif" font-size="14.00" fill="#000000">thinkofher</text>
</g>
<!-- thinkofher&#45;&#45;Infrastruktura#Hosting -->
<g id="edge40" class="edge">
<title>thinkofher&#45;&#45;Infrastruktura#Hosting</title>
<path fill="none" stroke="#ff0000" d="M106.6494,-651.4461C106.6494,-641.1553 106.6494,-627.7143 106.6494,-627.7143 106.6494,-627.7143 265.0542,-627.7143 377.9794,-627.7143"/>
</g>
<!-- thinkofher&#45;&#45;Infrastruktura#Forum -->
<g id="edge41" class="edge">
<title>thinkofher&#45;&#45;Infrastruktura#Forum</title>
<path fill="none" stroke="#ff0000" d="M114.6494,-670.4831C114.6494,-684.5901 114.6494,-713.7143 114.6494,-713.7143 114.6494,-713.7143 273.0532,-713.7143 383.8121,-713.7143"/>
</g>
<!-- pmysl -->
<g id="node31" class="node">
<title>pmysl</title>
<ellipse fill="none" stroke="#000000" cx="59.7947" cy="-577" rx="38.1938" ry="18"/>
<text text-anchor="middle" x="59.7947" y="-573.3" font-family="Times,serif" font-size="14.00" fill="#000000">pmysl</text>
</g>
<!-- pmysl&#45;&#45;Infrastruktura#Hosting -->
<g id="edge43" class="edge">
<title>pmysl&#45;&#45;Infrastruktura#Hosting</title>
<path fill="none" stroke="#2bd500" d="M93.6494,-585.5739C93.6494,-597.4413 93.6494,-617.4286 93.6494,-617.4286 93.6494,-617.4286 251.2837,-617.4286 367.5082,-617.4286"/>
</g>
<!-- pmysl&#45;&#45;Infrastruktura#Forum -->
<g id="edge44" class="edge">
<title>pmysl&#45;&#45;Infrastruktura#Forum</title>
<path fill="none" stroke="#2bd500" d="M96.1971,-583C133.3668,-583 185.6494,-583 185.6494,-583 185.6494,-583 185.6494,-698.2857 185.6494,-698.2857 185.6494,-698.2857 296.1826,-698.2857 383.832,-698.2857"/>
</g>
<!-- pmysl&#45;&#45;Infrastruktura#Grafana -->
<g id="edge42" class="edge">
<title>pmysl&#45;&#45;Infrastruktura#Grafana</title>
<path fill="none" stroke="#2bd500" d="M96.0287,-571C156.4737,-571 280.3796,-571 373.012,-571"/>
</g>
</g>
</svg>
