<?xml version="1.0" encoding="UTF-8" standalone="no"?>
<!DOCTYPE svg PUBLIC "-//W3C//DTD SVG 1.1//EN"
 "http://www.w3.org/Graphics/SVG/1.1/DTD/svg11.dtd">
<!-- Generated by graphviz version 2.43.0 (0)
 -->
<!-- Title: %3 Pages: 1 -->
<svg width="976pt" height="1162pt"
 viewBox="0.00 0.00 976.13 1162.00" xmlns="http://www.w3.org/2000/svg" xmlns:xlink="http://www.w3.org/1999/xlink">
<g id="graph0" class="graph" transform="scale(1 1) rotate(0) translate(4 1158)">
<title>%3</title>
<polygon fill="white" stroke="transparent" points="-4,4 -4,-1158 972.13,-1158 972.13,4 -4,4"/>
<!-- cytP450 -->
<g id="node1" class="node">
<title>cytP450</title>
<ellipse fill="none" stroke="black" cx="59.14" cy="-1028" rx="48.99" ry="18"/>
<text text-anchor="middle" x="59.14" y="-1024.3" font-family="Times,serif" font-size="14.00">cytP450</text>
</g>
<!-- Chciejlista#Elektronika (w sensie urzdze konsumenckich) -->
<g id="node2" class="node">
<title>Chciejlista#Elektronika (w sensie urzdze konsumenckich)</title>
<ellipse fill="none" stroke="black" cx="615.21" cy="-1136" rx="289.75" ry="18"/>
<text text-anchor="middle" x="615.21" y="-1132.3" font-family="Times,serif" font-size="14.00">Chciejlista#Elektronika (w sensie urzdze konsumenckich)</text>
</g>
<!-- cytP450&#45;&#45;Chciejlista#Elektronika (w sensie urzdze konsumenckich) -->
<g id="edge1" class="edge">
<title>cytP450&#45;&#45;Chciejlista#Elektronika (w sensie urzdze konsumenckich)</title>
<path fill="none" stroke="#ff0000" d="M43.13,-1045.35C43.13,-1075.88 43.13,-1136 43.13,-1136 43.13,-1136 183.37,-1136 324.98,-1136"/>
</g>
<!-- Stowarzyszenie#Komisja Rewizyjna -->
<g id="node3" class="node">
<title>Stowarzyszenie#Komisja Rewizyjna</title>
<ellipse fill="none" stroke="black" cx="615.21" cy="-1007" rx="178.17" ry="18"/>
<text text-anchor="middle" x="615.21" y="-1003.3" font-family="Times,serif" font-size="14.00">Stowarzyszenie#Komisja Rewizyjna</text>
</g>
<!-- cytP450&#45;&#45;Stowarzyszenie#Komisja Rewizyjna -->
<g id="edge2" class="edge">
<title>cytP450&#45;&#45;Stowarzyszenie#Komisja Rewizyjna</title>
<path fill="none" stroke="#ff0000" d="M105.12,-1022C194.96,-1022 395.58,-1022 516.72,-1022"/>
</g>
<!-- Chciejlista#DIY -->
<g id="node4" class="node">
<title>Chciejlista#DIY</title>
<ellipse fill="none" stroke="black" cx="615.21" cy="-1093" rx="83.69" ry="18"/>
<text text-anchor="middle" x="615.21" y="-1089.3" font-family="Times,serif" font-size="14.00">Chciejlista#DIY</text>
</g>
<!-- cytP450&#45;&#45;Chciejlista#DIY -->
<g id="edge3" class="edge">
<title>cytP450&#45;&#45;Chciejlista#DIY</title>
<path fill="none" stroke="#ff0000" d="M76.13,-1045.08C76.13,-1064.34 76.13,-1093 76.13,-1093 76.13,-1093 379.76,-1093 531.27,-1093"/>
</g>
<!-- Przegld&#45;lokali&#45;na&#45;wynajem&#45;w&#45;odzi.&#45;Fundusz&#45;1000&#45;&#45;&#45;1500.#Bot Aleksego -->
<g id="node5" class="node">
<title>Przegld&#45;lokali&#45;na&#45;wynajem&#45;w&#45;odzi.&#45;Fundusz&#45;1000&#45;&#45;&#45;1500.#Bot Aleksego</title>
<ellipse fill="none" stroke="black" cx="615.21" cy="-1050" rx="351.74" ry="18"/>
<text text-anchor="middle" x="615.21" y="-1046.3" font-family="Times,serif" font-size="14.00">Przegld&#45;lokali&#45;na&#45;wynajem&#45;w&#45;odzi.&#45;Fundusz&#45;1000&#45;&#45;&#45;1500.#Bot Aleksego</text>
</g>
<!-- cytP450&#45;&#45;Przegld&#45;lokali&#45;na&#45;wynajem&#45;w&#45;odzi.&#45;Fundusz&#45;1000&#45;&#45;&#45;1500.#Bot Aleksego -->
<g id="edge4" class="edge">
<title>cytP450&#45;&#45;Przegld&#45;lokali&#45;na&#45;wynajem&#45;w&#45;odzi.&#45;Fundusz&#45;1000&#45;&#45;&#45;1500.#Bot Aleksego</title>
<path fill="none" stroke="#ff0000" d="M97.8,-1039C148.66,-1039 242.66,-1039 336.73,-1039"/>
</g>
<!-- Miejsce::Miejsce#Klucze do spejsu -->
<g id="node6" class="node">
<title>Miejsce::Miejsce#Klucze do spejsu</title>
<ellipse fill="none" stroke="black" cx="615.21" cy="-577" rx="172.77" ry="18"/>
<text text-anchor="middle" x="615.21" y="-573.3" font-family="Times,serif" font-size="14.00">Miejsce::Miejsce#Klucze do spejsu</text>
</g>
<!-- cytP450&#45;&#45;Miejsce::Miejsce#Klucze do spejsu -->
<g id="edge5" class="edge">
<title>cytP450&#45;&#45;Miejsce::Miejsce#Klucze do spejsu</title>
<path fill="none" stroke="#ff0000" d="M86.2,-1013C116.71,-1013 162.13,-1013 162.13,-1013 162.13,-1013 162.13,-583 162.13,-583 162.13,-583 322.12,-583 451.96,-583"/>
</g>
<!-- Infrastruktura::Domeny#Domeny -->
<g id="node7" class="node">
<title>Infrastruktura::Domeny#Domeny</title>
<ellipse fill="none" stroke="black" cx="615.21" cy="-964" rx="167.07" ry="18"/>
<text text-anchor="middle" x="615.21" y="-960.3" font-family="Times,serif" font-size="14.00">Infrastruktura::Domeny#Domeny</text>
</g>
<!-- cytP450&#45;&#45;Infrastruktura::Domeny#Domeny -->
<g id="edge6" class="edge">
<title>cytP450&#45;&#45;Infrastruktura::Domeny#Domeny</title>
<path fill="none" stroke="#ff0000" d="M101.56,-1019C157.27,-1019 248.13,-1019 248.13,-1019 248.13,-1019 248.13,-974.5 248.13,-974.5 248.13,-974.5 374.79,-974.5 479.3,-974.5"/>
</g>
<!-- Kanay&#45;komunikacji# -->
<g id="node8" class="node">
<title>Kanay&#45;komunikacji#</title>
<ellipse fill="none" stroke="black" cx="615.21" cy="-663" rx="108.58" ry="18"/>
<text text-anchor="middle" x="615.21" y="-659.3" font-family="Times,serif" font-size="14.00">Kanay&#45;komunikacji#</text>
</g>
<!-- cytP450&#45;&#45;Kanay&#45;komunikacji# -->
<g id="edge7" class="edge">
<title>cytP450&#45;&#45;Kanay&#45;komunikacji#</title>
<path fill="none" stroke="#ff0000" d="M95.83,-1016C147.14,-1016 234.13,-1016 234.13,-1016 234.13,-1016 234.13,-675 234.13,-675 234.13,-675 422,-675 533.92,-675"/>
</g>
<!-- kpc -->
<g id="node9" class="node">
<title>kpc</title>
<ellipse fill="none" stroke="black" cx="59.14" cy="-61" rx="27" ry="18"/>
<text text-anchor="middle" x="59.14" y="-57.3" font-family="Times,serif" font-size="14.00">kpc</text>
</g>
<!-- Infrastruktura::Telegram#posty: t.me/hakierspejs_spam -->
<g id="node10" class="node">
<title>Infrastruktura::Telegram#posty: t.me/hakierspejs_spam</title>
<ellipse fill="none" stroke="black" cx="615.21" cy="-147" rx="284.05" ry="18"/>
<text text-anchor="middle" x="615.21" y="-143.3" font-family="Times,serif" font-size="14.00">Infrastruktura::Telegram#posty: t.me/hakierspejs_spam</text>
</g>
<!-- kpc&#45;&#45;Infrastruktura::Telegram#posty: t.me/hakierspejs_spam -->
<g id="edge8" class="edge">
<title>kpc&#45;&#45;Infrastruktura::Telegram#posty: t.me/hakierspejs_spam</title>
<path fill="none" stroke="#2bd500" d="M60.13,-79.2C60.13,-101.46 60.13,-136.2 60.13,-136.2 60.13,-136.2 234.54,-136.2 387.83,-136.2"/>
</g>
<!-- Czaty&#45;HS#HS: posty wyklte -->
<g id="node11" class="node">
<title>Czaty&#45;HS#HS: posty wyklte</title>
<ellipse fill="none" stroke="black" cx="615.21" cy="-61" rx="157.87" ry="18"/>
<text text-anchor="middle" x="615.21" y="-57.3" font-family="Times,serif" font-size="14.00">Czaty&#45;HS#HS: posty wyklte</text>
</g>
<!-- kpc&#45;&#45;Czaty&#45;HS#HS: posty wyklte -->
<g id="edge9" class="edge">
<title>kpc&#45;&#45;Czaty&#45;HS#HS: posty wyklte</title>
<path fill="none" stroke="#2bd500" d="M86.34,-61C152.63,-61 326.65,-61 457.09,-61"/>
</g>
<!-- Infrastruktura::Telegram#Posty wyklte (celowo bez linka) -->
<g id="node12" class="node">
<title>Infrastruktura::Telegram#Posty wyklte (celowo bez linka)</title>
<ellipse fill="none" stroke="black" cx="615.21" cy="-18" rx="284.05" ry="18"/>
<text text-anchor="middle" x="615.21" y="-14.3" font-family="Times,serif" font-size="14.00">Infrastruktura::Telegram#Posty wyklte (celowo bez linka)</text>
</g>
<!-- kpc&#45;&#45;Infrastruktura::Telegram#Posty wyklte (celowo bez linka) -->
<g id="edge10" class="edge">
<title>kpc&#45;&#45;Infrastruktura::Telegram#Posty wyklte (celowo bez linka)</title>
<path fill="none" stroke="#2bd500" d="M60.13,-42.51C60.13,-30.86 60.13,-18 60.13,-18 60.13,-18 194.59,-18 331.16,-18"/>
</g>
<!-- d33tah -->
<g id="node13" class="node">
<title>d33tah</title>
<ellipse fill="none" stroke="black" cx="59.14" cy="-620" rx="43.59" ry="18"/>
<text text-anchor="middle" x="59.14" y="-616.3" font-family="Times,serif" font-size="14.00">d33tah</text>
</g>
<!-- d33tah&#45;&#45;Miejsce::Miejsce#Klucze do spejsu -->
<g id="edge22" class="edge">
<title>d33tah&#45;&#45;Miejsce::Miejsce#Klucze do spejsu</title>
<path fill="none" stroke="#0061f2" d="M102.95,-620C209.24,-620 472.13,-620 472.13,-620 472.13,-620 472.13,-600.14 472.13,-587.41"/>
</g>
<!-- d33tah&#45;&#45;Infrastruktura::Domeny#Domeny -->
<g id="edge23" class="edge">
<title>d33tah&#45;&#45;Infrastruktura::Domeny#Domeny</title>
<path fill="none" stroke="#0061f2" d="M80.35,-635.75C117.66,-635.75 191.13,-635.75 191.13,-635.75 191.13,-635.75 191.13,-953 191.13,-953 191.13,-953 358.34,-953 482.77,-953"/>
</g>
<!-- d33tah&#45;&#45;Kanay&#45;komunikacji# -->
<g id="edge25" class="edge">
<title>d33tah&#45;&#45;Kanay&#45;komunikacji#</title>
<path fill="none" stroke="#0061f2" d="M60.13,-638.49C60.13,-650.14 60.13,-663 60.13,-663 60.13,-663 344.94,-663 506.53,-663"/>
</g>
<!-- d33tah&#45;&#45;Infrastruktura::Telegram#posty: t.me/hakierspejs_spam -->
<g id="edge21" class="edge">
<title>d33tah&#45;&#45;Infrastruktura::Telegram#posty: t.me/hakierspejs_spam</title>
<path fill="none" stroke="#0061f2" d="M80.54,-604.25C102.39,-604.25 133.13,-604.25 133.13,-604.25 133.13,-604.25 133.13,-157.8 133.13,-157.8 133.13,-157.8 263,-157.8 387.93,-157.8"/>
</g>
<!-- Infrastruktura::Telegram#HS24: t.me/hsl_info -->
<g id="node14" class="node">
<title>Infrastruktura::Telegram#HS24: t.me/hsl_info</title>
<ellipse fill="none" stroke="black" cx="615.21" cy="-835" rx="231.26" ry="18"/>
<text text-anchor="middle" x="615.21" y="-831.3" font-family="Times,serif" font-size="14.00">Infrastruktura::Telegram#HS24: t.me/hsl_info</text>
</g>
<!-- d33tah&#45;&#45;Infrastruktura::Telegram#HS24: t.me/hsl_info -->
<g id="edge11" class="edge">
<title>d33tah&#45;&#45;Infrastruktura::Telegram#HS24: t.me/hsl_info</title>
<path fill="none" stroke="#0061f2" d="M99.84,-626.75C190.69,-626.75 402.13,-626.75 402.13,-626.75 402.13,-626.75 402.13,-790.49 402.13,-827.59"/>
</g>
<!-- Marketing&#45;i&#45;media&#45;spoecznociowe# -->
<g id="node15" class="node">
<title>Marketing&#45;i&#45;media&#45;spoecznociowe#</title>
<ellipse fill="none" stroke="black" cx="615.21" cy="-491" rx="183.07" ry="18"/>
<text text-anchor="middle" x="615.21" y="-487.3" font-family="Times,serif" font-size="14.00">Marketing&#45;i&#45;media&#45;spoecznociowe#</text>
</g>
<!-- d33tah&#45;&#45;Marketing&#45;i&#45;media&#45;spoecznociowe# -->
<g id="edge12" class="edge">
<title>d33tah&#45;&#45;Marketing&#45;i&#45;media&#45;spoecznociowe#</title>
<path fill="none" stroke="#0061f2" d="M101.4,-615.5C200.04,-615.5 437.13,-615.5 437.13,-615.5 437.13,-615.5 437.13,-517.61 437.13,-495.43"/>
</g>
<!-- Infrastruktura::Telegram#G贸wny: t.me/hakierspejs -->
<g id="node16" class="node">
<title>Infrastruktura::Telegram#G贸wny: t.me/hakierspejs</title>
<ellipse fill="none" stroke="black" cx="615.21" cy="-233" rx="251.56" ry="18"/>
<text text-anchor="middle" x="615.21" y="-229.3" font-family="Times,serif" font-size="14.00">Infrastruktura::Telegram#G贸wny: t.me/hakierspejs</text>
</g>
<!-- d33tah&#45;&#45;Infrastruktura::Telegram#G贸wny: t.me/hakierspejs -->
<g id="edge13" class="edge">
<title>d33tah&#45;&#45;Infrastruktura::Telegram#G贸wny: t.me/hakierspejs</title>
<path fill="none" stroke="#0061f2" d="M87.95,-606.5C113.61,-606.5 147.13,-606.5 147.13,-606.5 147.13,-606.5 147.13,-240.71 147.13,-240.71 147.13,-240.71 268.53,-240.71 387.68,-240.71"/>
</g>
<!-- Stowarzyszenie#Zarzd -->
<g id="node17" class="node">
<title>Stowarzyszenie#Zarzd</title>
<ellipse fill="none" stroke="black" cx="615.21" cy="-362" rx="123.48" ry="18"/>
<text text-anchor="middle" x="615.21" y="-358.3" font-family="Times,serif" font-size="14.00">Stowarzyszenie#Zarzd</text>
</g>
<!-- d33tah&#45;&#45;Stowarzyszenie#Zarzd -->
<g id="edge14" class="edge">
<title>d33tah&#45;&#45;Stowarzyszenie#Zarzd</title>
<path fill="none" stroke="#0061f2" d="M93.38,-608.75C170.3,-608.75 350.13,-608.75 350.13,-608.75 350.13,-608.75 350.13,-368 350.13,-368 350.13,-368 427.44,-368 498.55,-368"/>
</g>
<!-- Infrastruktura::Github#Github -->
<g id="node18" class="node">
<title>Infrastruktura::Github#Github</title>
<ellipse fill="none" stroke="black" cx="615.21" cy="-534" rx="154.07" ry="18"/>
<text text-anchor="middle" x="615.21" y="-530.3" font-family="Times,serif" font-size="14.00">Infrastruktura::Github#Github</text>
</g>
<!-- d33tah&#45;&#45;Infrastruktura::Github#Github -->
<g id="edge15" class="edge">
<title>d33tah&#45;&#45;Infrastruktura::Github#Github</title>
<path fill="none" stroke="#0061f2" d="M99.82,-613.25C181.15,-613.25 356.13,-613.25 356.13,-613.25 356.13,-613.25 356.13,-546 356.13,-546 356.13,-546 430.87,-546 500.06,-546"/>
</g>
<!-- Bazy&#45;danych#Grafana -->
<g id="node19" class="node">
<title>Bazy&#45;danych#Grafana</title>
<ellipse fill="none" stroke="black" cx="615.21" cy="-620" rx="114.28" ry="18"/>
<text text-anchor="middle" x="615.21" y="-616.3" font-family="Times,serif" font-size="14.00">Bazy&#45;danych#Grafana</text>
</g>
<!-- d33tah&#45;&#45;Bazy&#45;danych#Grafana -->
<g id="edge16" class="edge">
<title>d33tah&#45;&#45;Bazy&#45;danych#Grafana</title>
<path fill="none" stroke="#0061f2" d="M102.78,-622.25C187.84,-622.25 378.29,-622.25 501.53,-622.25"/>
</g>
<!-- Infrastruktura::Mariuszbot#Mariuszbot -->
<g id="node20" class="node">
<title>Infrastruktura::Mariuszbot#Mariuszbot</title>
<ellipse fill="none" stroke="black" cx="615.21" cy="-792" rx="196.07" ry="18"/>
<text text-anchor="middle" x="615.21" y="-788.3" font-family="Times,serif" font-size="14.00">Infrastruktura::Mariuszbot#Mariuszbot</text>
</g>
<!-- d33tah&#45;&#45;Infrastruktura::Mariuszbot#Mariuszbot -->
<g id="edge17" class="edge">
<title>d33tah&#45;&#45;Infrastruktura::Mariuszbot#Mariuszbot</title>
<path fill="none" stroke="#0061f2" d="M101.6,-624.5C198.2,-624.5 426.13,-624.5 426.13,-624.5 426.13,-624.5 426.13,-759.7 426.13,-787.17"/>
</g>
<!-- Bazy&#45;danych#Trello -->
<g id="node21" class="node">
<title>Bazy&#45;danych#Trello</title>
<ellipse fill="none" stroke="black" cx="615.21" cy="-749" rx="103.98" ry="18"/>
<text text-anchor="middle" x="615.21" y="-745.3" font-family="Times,serif" font-size="14.00">Bazy&#45;danych#Trello</text>
</g>
<!-- d33tah&#45;&#45;Bazy&#45;danych#Trello -->
<g id="edge18" class="edge">
<title>d33tah&#45;&#45;Bazy&#45;danych#Trello</title>
<path fill="none" stroke="#0061f2" d="M93.39,-631.25C167.49,-631.25 336.13,-631.25 336.13,-631.25 336.13,-631.25 336.13,-749 336.13,-749 336.13,-749 431.62,-749 510.89,-749"/>
</g>
<!-- Infrastruktura::IRC#IRC -->
<g id="node22" class="node">
<title>Infrastruktura::IRC#IRC</title>
<ellipse fill="none" stroke="black" cx="615.21" cy="-448" rx="124.58" ry="18"/>
<text text-anchor="middle" x="615.21" y="-444.3" font-family="Times,serif" font-size="14.00">Infrastruktura::IRC#IRC</text>
</g>
<!-- d33tah&#45;&#45;Infrastruktura::IRC#IRC -->
<g id="edge19" class="edge">
<title>d33tah&#45;&#45;Infrastruktura::IRC#IRC</title>
<path fill="none" stroke="#0061f2" d="M97.15,-611C176.42,-611 352.13,-611 352.13,-611 352.13,-611 352.13,-460 352.13,-460 352.13,-460 446.41,-460 522.09,-460"/>
</g>
<!-- Bazy&#45;danych#Pad -->
<g id="node23" class="node">
<title>Bazy&#45;danych#Pad</title>
<ellipse fill="none" stroke="black" cx="615.21" cy="-706" rx="94.48" ry="18"/>
<text text-anchor="middle" x="615.21" y="-702.3" font-family="Times,serif" font-size="14.00">Bazy&#45;danych#Pad</text>
</g>
<!-- d33tah&#45;&#45;Bazy&#45;danych#Pad -->
<g id="edge20" class="edge">
<title>d33tah&#45;&#45;Bazy&#45;danych#Pad</title>
<path fill="none" stroke="#0061f2" d="M96.92,-629C172.93,-629 337.13,-629 337.13,-629 337.13,-629 337.13,-715 337.13,-715 337.13,-715 451.25,-715 533.28,-715"/>
</g>
<!-- Infrastruktura::Telegram#Spacerspejs: t.me/joinchat/UYf2ONtNj21J1DS6 -->
<g id="node24" class="node">
<title>Infrastruktura::Telegram#Spacerspejs: t.me/joinchat/UYf2ONtNj21J1DS6</title>
<ellipse fill="none" stroke="black" cx="615.21" cy="-878" rx="352.84" ry="18"/>
<text text-anchor="middle" x="615.21" y="-874.3" font-family="Times,serif" font-size="14.00">Infrastruktura::Telegram#Spacerspejs: t.me/joinchat/UYf2ONtNj21J1DS6</text>
</g>
<!-- d33tah&#45;&#45;Infrastruktura::Telegram#Spacerspejs: t.me/joinchat/UYf2ONtNj21J1DS6 -->
<g id="edge24" class="edge">
<title>d33tah&#45;&#45;Infrastruktura::Telegram#Spacerspejs: t.me/joinchat/UYf2ONtNj21J1DS6</title>
<path fill="none" stroke="#0061f2" d="M88.33,-633.5C151.87,-633.5 297.13,-633.5 297.13,-633.5 297.13,-633.5 297.13,-828.29 297.13,-870.14"/>
</g>
<!-- kszmigiel -->
<g id="node25" class="node">
<title>kszmigiel</title>
<ellipse fill="none" stroke="black" cx="59.14" cy="-319" rx="54.69" ry="18"/>
<text text-anchor="middle" x="59.14" y="-315.3" font-family="Times,serif" font-size="14.00">kszmigiel</text>
</g>
<!-- kszmigiel&#45;&#45;Miejsce::Miejsce#Klucze do spejsu -->
<g id="edge31" class="edge">
<title>kszmigiel&#45;&#45;Miejsce::Miejsce#Klucze do spejsu</title>
<path fill="none" stroke="#c60077" d="M110.86,-325C192.27,-325 341.13,-325 341.13,-325 341.13,-325 341.13,-563 341.13,-563 341.13,-563 429.97,-563 506.49,-563"/>
</g>
<!-- kszmigiel&#45;&#45;Infrastruktura::Telegram#posty: t.me/hakierspejs_spam -->
<g id="edge30" class="edge">
<title>kszmigiel&#45;&#45;Infrastruktura::Telegram#posty: t.me/hakierspejs_spam</title>
<path fill="none" stroke="#c60077" d="M105.13,-308.97C105.13,-272.72 105.13,-150.6 105.13,-150.6 105.13,-150.6 217.44,-150.6 336.66,-150.6"/>
</g>
<!-- kszmigiel&#45;&#45;Marketing&#45;i&#45;media&#45;spoecznociowe# -->
<g id="edge26" class="edge">
<title>kszmigiel&#45;&#45;Marketing&#45;i&#45;media&#45;spoecznociowe#</title>
<path fill="none" stroke="#c60077" d="M110.93,-313C193.35,-313 345.13,-313 345.13,-313 345.13,-313 345.13,-487.4 345.13,-487.4 345.13,-487.4 385.72,-487.4 435.44,-487.4"/>
</g>
<!-- kszmigiel&#45;&#45;Infrastruktura::Telegram#G贸wny: t.me/hakierspejs -->
<g id="edge28" class="edge">
<title>kszmigiel&#45;&#45;Infrastruktura::Telegram#G贸wny: t.me/hakierspejs</title>
<path fill="none" stroke="#c60077" d="M111.13,-313.27C111.13,-294.42 111.13,-235.57 111.13,-235.57 111.13,-235.57 239.12,-235.57 366.12,-235.57"/>
</g>
<!-- kszmigiel&#45;&#45;Stowarzyszenie#Zarzd -->
<g id="edge29" class="edge">
<title>kszmigiel&#45;&#45;Stowarzyszenie#Zarzd</title>
<path fill="none" stroke="#c60077" d="M60.13,-337.07C60.13,-346.46 60.13,-356 60.13,-356 60.13,-356 335.7,-356 498.51,-356"/>
</g>
<!-- Marketing&#45;i&#45;media&#45;spoecznociowe#Naklejki -->
<g id="node26" class="node">
<title>Marketing&#45;i&#45;media&#45;spoecznociowe#Naklejki</title>
<ellipse fill="none" stroke="black" cx="615.21" cy="-190" rx="221.76" ry="18"/>
<text text-anchor="middle" x="615.21" y="-186.3" font-family="Times,serif" font-size="14.00">Marketing&#45;i&#45;media&#45;spoecznociowe#Naklejki</text>
</g>
<!-- kszmigiel&#45;&#45;Marketing&#45;i&#45;media&#45;spoecznociowe#Naklejki -->
<g id="edge27" class="edge">
<title>kszmigiel&#45;&#45;Marketing&#45;i&#45;media&#45;spoecznociowe#Naklejki</title>
<path fill="none" stroke="#c60077" d="M108.13,-310.93C108.13,-282.69 108.13,-190 108.13,-190 108.13,-190 257.08,-190 393.53,-190"/>
</g>
<!-- thinkofher -->
<g id="node27" class="node">
<title>thinkofher</title>
<ellipse fill="none" stroke="black" cx="59.14" cy="-405" rx="59.29" ry="18"/>
<text text-anchor="middle" x="59.14" y="-401.3" font-family="Times,serif" font-size="14.00">thinkofher</text>
</g>
<!-- thinkofher&#45;&#45;Kanay&#45;komunikacji# -->
<g id="edge38" class="edge">
<title>thinkofher&#45;&#45;Kanay&#45;komunikacji#</title>
<path fill="none" stroke="#b6e400" d="M98.47,-418.5C176.65,-418.5 344.13,-418.5 344.13,-418.5 344.13,-418.5 344.13,-651 344.13,-651 344.13,-651 454.36,-651 534.24,-651"/>
</g>
<!-- thinkofher&#45;&#45;Marketing&#45;i&#45;media&#45;spoecznociowe# -->
<g id="edge32" class="edge">
<title>thinkofher&#45;&#45;Marketing&#45;i&#45;media&#45;spoecznociowe#</title>
<path fill="none" stroke="#b6e400" d="M110.49,-414C220.93,-414 471.13,-414 471.13,-414 471.13,-414 471.13,-458.22 471.13,-479.64"/>
</g>
<!-- thinkofher&#45;&#45;Stowarzyszenie#Zarzd -->
<g id="edge34" class="edge">
<title>thinkofher&#45;&#45;Stowarzyszenie#Zarzd</title>
<path fill="none" stroke="#b6e400" d="M116.43,-400.5C238.9,-400.5 515.13,-400.5 515.13,-400.5 515.13,-400.5 515.13,-384.31 515.13,-372.93"/>
</g>
<!-- thinkofher&#45;&#45;Infrastruktura::IRC#IRC -->
<g id="edge37" class="edge">
<title>thinkofher&#45;&#45;Infrastruktura::IRC#IRC</title>
<path fill="none" stroke="#b6e400" d="M102.13,-417.53C102.13,-428.26 102.13,-442 102.13,-442 102.13,-442 346.02,-442 497.5,-442"/>
</g>
<!-- Bazy&#45;danych# -->
<g id="node28" class="node">
<title>Bazy&#45;danych#</title>
<ellipse fill="none" stroke="black" cx="615.21" cy="-405" rx="77.19" ry="18"/>
<text text-anchor="middle" x="615.21" y="-401.3" font-family="Times,serif" font-size="14.00">Bazy&#45;danych#</text>
</g>
<!-- thinkofher&#45;&#45;Bazy&#45;danych# -->
<g id="edge33" class="edge">
<title>thinkofher&#45;&#45;Bazy&#45;danych#</title>
<path fill="none" stroke="#b6e400" d="M118.39,-405C219.41,-405 424.96,-405 537.42,-405"/>
</g>
<!-- Infrastruktura::Matrix#hs&#45;ldz:hackerspace.pl -->
<g id="node29" class="node">
<title>Infrastruktura::Matrix#hs&#45;ldz:hackerspace.pl</title>
<ellipse fill="none" stroke="black" cx="615.21" cy="-276" rx="221.76" ry="18"/>
<text text-anchor="middle" x="615.21" y="-272.3" font-family="Times,serif" font-size="14.00">Infrastruktura::Matrix#hs&#45;ldz:hackerspace.pl</text>
</g>
<!-- thinkofher&#45;&#45;Infrastruktura::Matrix#hs&#45;ldz:hackerspace.pl -->
<g id="edge35" class="edge">
<title>thinkofher&#45;&#45;Infrastruktura::Matrix#hs&#45;ldz:hackerspace.pl</title>
<path fill="none" stroke="#b6e400" d="M98.54,-391.5C174.58,-391.5 334.13,-391.5 334.13,-391.5 334.13,-391.5 334.13,-276 334.13,-276 334.13,-276 358.74,-276 393.39,-276"/>
</g>
<!-- Infrastruktura::Matrix#hs&#45;ldz&#45;offtopic:hackerspace.pl -->
<g id="node30" class="node">
<title>Infrastruktura::Matrix#hs&#45;ldz&#45;offtopic:hackerspace.pl</title>
<ellipse fill="none" stroke="black" cx="615.21" cy="-319" rx="258.85" ry="18"/>
<text text-anchor="middle" x="615.21" y="-315.3" font-family="Times,serif" font-size="14.00">Infrastruktura::Matrix#hs&#45;ldz&#45;offtopic:hackerspace.pl</text>
</g>
<!-- thinkofher&#45;&#45;Infrastruktura::Matrix#hs&#45;ldz&#45;offtopic:hackerspace.pl -->
<g id="edge36" class="edge">
<title>thinkofher&#45;&#45;Infrastruktura::Matrix#hs&#45;ldz&#45;offtopic:hackerspace.pl</title>
<path fill="none" stroke="#b6e400" d="M110.66,-396C199.27,-396 371.13,-396 371.13,-396 371.13,-396 371.13,-343.19 371.13,-325.04"/>
</g>
<!-- Keij0 -->
<g id="node31" class="node">
<title>Keij0</title>
<ellipse fill="none" stroke="black" cx="59.14" cy="-835" rx="34.39" ry="18"/>
<text text-anchor="middle" x="59.14" y="-831.3" font-family="Times,serif" font-size="14.00">Keij0</text>
</g>
<!-- Keij0&#45;&#45;Stowarzyszenie#Komisja Rewizyjna -->
<g id="edge40" class="edge">
<title>Keij0&#45;&#45;Stowarzyszenie#Komisja Rewizyjna</title>
<path fill="none" stroke="#00ffff" d="M91.73,-841C126.34,-841 176.13,-841 176.13,-841 176.13,-841 176.13,-993.67 176.13,-993.67 176.13,-993.67 365.5,-993.67 495.52,-993.67"/>
</g>
<!-- Keij0&#45;&#45;Marketing&#45;i&#45;media&#45;spoecznociowe# -->
<g id="edge39" class="edge">
<title>Keij0&#45;&#45;Marketing&#45;i&#45;media&#45;spoecznociowe#</title>
<path fill="none" stroke="#00ffff" d="M91.73,-829C168.27,-829 353.13,-829 353.13,-829 353.13,-829 353.13,-501.8 353.13,-501.8 353.13,-501.8 408.57,-501.8 468.46,-501.8"/>
</g>
<!-- pzduniak -->
<g id="node32" class="node">
<title>pzduniak</title>
<ellipse fill="none" stroke="black" cx="59.14" cy="-985" rx="52.79" ry="18"/>
<text text-anchor="middle" x="59.14" y="-981.3" font-family="Times,serif" font-size="14.00">pzduniak</text>
</g>
<!-- pzduniak&#45;&#45;Stowarzyszenie#Komisja Rewizyjna -->
<g id="edge41" class="edge">
<title>pzduniak&#45;&#45;Stowarzyszenie#Komisja Rewizyjna</title>
<path fill="none" stroke="#ab00d5" d="M94.77,-998.33C166.81,-998.33 333.56,-998.33 459.03,-998.33"/>
</g>
<!-- marti -->
<g id="node33" class="node">
<title>marti</title>
<ellipse fill="none" stroke="black" cx="59.14" cy="-534" rx="36.29" ry="18"/>
<text text-anchor="middle" x="59.14" y="-530.3" font-family="Times,serif" font-size="14.00">marti</text>
</g>
<!-- marti&#45;&#45;Marketing&#45;i&#45;media&#45;spoecznociowe# -->
<g id="edge42" class="edge">
<title>marti&#45;&#45;Marketing&#45;i&#45;media&#45;spoecznociowe#</title>
<path fill="none" stroke="#f29100" d="M93.51,-528C186.32,-528 435.13,-528 435.13,-528 435.13,-528 435.13,-503.57 435.13,-494.41"/>
</g>
<!-- marti&#45;&#45;Infrastruktura::Telegram#G贸wny: t.me/hakierspejs -->
<g id="edge44" class="edge">
<title>marti&#45;&#45;Infrastruktura::Telegram#G贸wny: t.me/hakierspejs</title>
<path fill="none" stroke="#f29100" d="M86.42,-522C155.72,-522 333.13,-522 333.13,-522 333.13,-522 333.13,-245.86 333.13,-245.86 333.13,-245.86 381.95,-245.86 438.97,-245.86"/>
</g>
<!-- marti&#45;&#45;Infrastruktura::Github#Github -->
<g id="edge43" class="edge">
<title>marti&#45;&#45;Infrastruktura::Github#Github</title>
<path fill="none" stroke="#f29100" d="M95.63,-534C168.48,-534 335.7,-534 460.89,-534"/>
</g>
<!-- pmysl -->
<g id="node34" class="node">
<title>pmysl</title>
<ellipse fill="none" stroke="black" cx="59.14" cy="-577" rx="38.19" ry="18"/>
<text text-anchor="middle" x="59.14" y="-573.3" font-family="Times,serif" font-size="14.00">pmysl</text>
</g>
<!-- pmysl&#45;&#45;Miejsce::Miejsce#Klucze do spejsu -->
<g id="edge49" class="edge">
<title>pmysl&#45;&#45;Miejsce::Miejsce#Klucze do spejsu</title>
<path fill="none" stroke="#00c64f" d="M97.37,-579C167.66,-579 321.44,-579 443.25,-579"/>
</g>
<!-- pmysl&#45;&#45;Kanay&#45;komunikacji# -->
<g id="edge50" class="edge">
<title>pmysl&#45;&#45;Kanay&#45;komunikacji#</title>
<path fill="none" stroke="#00c64f" d="M83.41,-591C151.29,-591 338.13,-591 338.13,-591 338.13,-591 338.13,-657 338.13,-657 338.13,-657 433.89,-657 512.82,-657"/>
</g>
<!-- pmysl&#45;&#45;Infrastruktura::Github#Github -->
<g id="edge46" class="edge">
<title>pmysl&#45;&#45;Infrastruktura::Github#Github</title>
<path fill="none" stroke="#00c64f" d="M97.41,-575C177.22,-575 354.13,-575 354.13,-575 354.13,-575 354.13,-540 354.13,-540 354.13,-540 409.83,-540 469.78,-540"/>
</g>
<!-- pmysl&#45;&#45;Bazy&#45;danych#Grafana -->
<g id="edge47" class="edge">
<title>pmysl&#45;&#45;Bazy&#45;danych#Grafana</title>
<path fill="none" stroke="#00c64f" d="M91.1,-587C164.75,-587 340.13,-587 340.13,-587 340.13,-587 340.13,-617.75 340.13,-617.75 340.13,-617.75 425.66,-617.75 501.34,-617.75"/>
</g>
<!-- pmysl&#45;&#45;Infrastruktura::IRC#IRC -->
<g id="edge48" class="edge">
<title>pmysl&#45;&#45;Infrastruktura::IRC#IRC</title>
<path fill="none" stroke="#00c64f" d="M95.58,-571C173.46,-571 349.13,-571 349.13,-571 349.13,-571 349.13,-454 349.13,-454 349.13,-454 426.17,-454 497.34,-454"/>
</g>
<!-- pmysl&#45;&#45;Bazy&#45;danych# -->
<g id="edge45" class="edge">
<title>pmysl&#45;&#45;Bazy&#45;danych#</title>
<path fill="none" stroke="#00c64f" d="M91.06,-567C165.06,-567 342.13,-567 342.13,-567 342.13,-567 342.13,-409.5 342.13,-409.5 342.13,-409.5 459.38,-409.5 540.23,-409.5"/>
</g>
<!-- q3k -->
<g id="node35" class="node">
<title>q3k</title>
<ellipse fill="none" stroke="black" cx="59.14" cy="-921" rx="27.9" ry="18"/>
<text text-anchor="middle" x="59.14" y="-917.3" font-family="Times,serif" font-size="14.00">q3k</text>
</g>
<!-- q3k&#45;&#45;Infrastruktura::Domeny#Domeny -->
<g id="edge51" class="edge">
<title>q3k&#45;&#45;Infrastruktura::Domeny#Domeny</title>
<path fill="none" stroke="#2e00e4" d="M60.13,-939.13C60.13,-949.31 60.13,-960 60.13,-960 60.13,-960 288.28,-960 452.04,-960"/>
</g>
<!-- q3k&#45;&#45;Kanay&#45;komunikacji# -->
<g id="edge53" class="edge">
<title>q3k&#45;&#45;Kanay&#45;komunikacji#</title>
<path fill="none" stroke="#2e00e4" d="M83.44,-912C128.2,-912 219.13,-912 219.13,-912 219.13,-912 219.13,-669 219.13,-669 219.13,-669 395.33,-669 512.69,-669"/>
</g>
<!-- Marketing&#45;i&#45;media&#45;spoecznociowe#Logo nr 2 -->
<g id="node36" class="node">
<title>Marketing&#45;i&#45;media&#45;spoecznociowe#Logo nr 2</title>
<ellipse fill="none" stroke="black" cx="615.21" cy="-921" rx="227.46" ry="18"/>
<text text-anchor="middle" x="615.21" y="-917.3" font-family="Times,serif" font-size="14.00">Marketing&#45;i&#45;media&#45;spoecznociowe#Logo nr 2</text>
</g>
<!-- q3k&#45;&#45;Marketing&#45;i&#45;media&#45;spoecznociowe#Logo nr 2 -->
<g id="edge52" class="edge">
<title>q3k&#45;&#45;Marketing&#45;i&#45;media&#45;spoecznociowe#Logo nr 2</title>
<path fill="none" stroke="#2e00e4" d="M83.4,-930C141.25,-930 291.94,-930 418.2,-930"/>
</g>
<!-- BluRaf -->
<g id="node37" class="node">
<title>BluRaf</title>
<ellipse fill="none" stroke="black" cx="59.14" cy="-233" rx="42.49" ry="18"/>
<text text-anchor="middle" x="59.14" y="-229.3" font-family="Times,serif" font-size="14.00">BluRaf</text>
</g>
<!-- BluRaf&#45;&#45;Infrastruktura::Telegram#posty: t.me/hakierspejs_spam -->
<g id="edge58" class="edge">
<title>BluRaf&#45;&#45;Infrastruktura::Telegram#posty: t.me/hakierspejs_spam</title>
<path fill="none" stroke="#ff0000" d="M97.13,-225.05C97.13,-203.12 97.13,-143.4 97.13,-143.4 97.13,-143.4 214.07,-143.4 336.83,-143.4"/>
</g>
<!-- BluRaf&#45;&#45;Marketing&#45;i&#45;media&#45;spoecznociowe# -->
<g id="edge54" class="edge">
<title>BluRaf&#45;&#45;Marketing&#45;i&#45;media&#45;spoecznociowe#</title>
<path fill="none" stroke="#ff0000" d="M101.18,-230.43C180.89,-230.43 346.13,-230.43 346.13,-230.43 346.13,-230.43 346.13,-480.2 346.13,-480.2 346.13,-480.2 405.5,-480.2 468.46,-480.2"/>
</g>
<!-- BluRaf&#45;&#45;Infrastruktura::Telegram#G贸wny: t.me/hakierspejs -->
<g id="edge55" class="edge">
<title>BluRaf&#45;&#45;Infrastruktura::Telegram#G贸wny: t.me/hakierspejs</title>
<path fill="none" stroke="#ff0000" d="M89.04,-220.14C154.12,-220.14 312.92,-220.14 439.16,-220.14"/>
</g>
<!-- BluRaf&#45;&#45;Infrastruktura::IRC#IRC -->
<g id="edge56" class="edge">
<title>BluRaf&#45;&#45;Infrastruktura::IRC#IRC</title>
<path fill="none" stroke="#ff0000" d="M97.52,-225.29C176.13,-225.29 348.13,-225.29 348.13,-225.29 348.13,-225.29 348.13,-436 348.13,-436 348.13,-436 445.09,-436 522.17,-436"/>
</g>
<!-- Kanay&#45;komunikacji#Mumble -->
<g id="node38" class="node">
<title>Kanay&#45;komunikacji#Mumble</title>
<ellipse fill="none" stroke="black" cx="615.21" cy="-104" rx="146.77" ry="18"/>
<text text-anchor="middle" x="615.21" y="-100.3" font-family="Times,serif" font-size="14.00">Kanay&#45;komunikacji#Mumble</text>
</g>
<!-- BluRaf&#45;&#45;Kanay&#45;komunikacji#Mumble -->
<g id="edge57" class="edge">
<title>BluRaf&#45;&#45;Kanay&#45;komunikacji#Mumble</title>
<path fill="none" stroke="#ff0000" d="M92.13,-221.55C92.13,-189.98 92.13,-104 92.13,-104 92.13,-104 313.39,-104 468.11,-104"/>
</g>
<!-- biniu -->
<g id="node39" class="node">
<title>biniu</title>
<ellipse fill="none" stroke="black" cx="59.14" cy="-448" rx="34.39" ry="18"/>
<text text-anchor="middle" x="59.14" y="-444.3" font-family="Times,serif" font-size="14.00">biniu</text>
</g>
<!-- biniu&#45;&#45;Marketing&#45;i&#45;media&#45;spoecznociowe# -->
<g id="edge59" class="edge">
<title>biniu&#45;&#45;Marketing&#45;i&#45;media&#45;spoecznociowe#</title>
<path fill="none" stroke="#2bd500" d="M93.67,-448C189.57,-448 452.13,-448 452.13,-448 452.13,-448 452.13,-470.21 452.13,-482.71"/>
</g>
<!-- nikolaad -->
<g id="node40" class="node">
<title>nikolaad</title>
<ellipse fill="none" stroke="black" cx="59.14" cy="-491" rx="50.09" ry="18"/>
<text text-anchor="middle" x="59.14" y="-487.3" font-family="Times,serif" font-size="14.00">nikolaad</text>
</g>
<!-- nikolaad&#45;&#45;Marketing&#45;i&#45;media&#45;spoecznociowe# -->
<g id="edge60" class="edge">
<title>nikolaad&#45;&#45;Marketing&#45;i&#45;media&#45;spoecznociowe#</title>
<path fill="none" stroke="#0061f2" d="M108.49,-494.6C181.25,-494.6 321.06,-494.6 435.42,-494.6"/>
</g>
<!-- kujaw -->
<g id="node41" class="node">
<title>kujaw</title>
<ellipse fill="none" stroke="black" cx="59.14" cy="-706" rx="38.19" ry="18"/>
<text text-anchor="middle" x="59.14" y="-702.3" font-family="Times,serif" font-size="14.00">kujaw</text>
</g>
<!-- kujaw&#45;&#45;Marketing&#45;i&#45;media&#45;spoecznociowe# -->
<g id="edge61" class="edge">
<title>kujaw&#45;&#45;Marketing&#45;i&#45;media&#45;spoecznociowe#</title>
<path fill="none" stroke="#c60077" d="M92.62,-697C185.59,-697 440.13,-697 440.13,-697 440.13,-697 440.13,-529.27 440.13,-496.51"/>
</g>
<!-- kujaw&#45;&#45;Marketing&#45;i&#45;media&#45;spoecznociowe#Logo nr 2 -->
<g id="edge62" class="edge">
<title>kujaw&#45;&#45;Marketing&#45;i&#45;media&#45;spoecznociowe#Logo nr 2</title>
<path fill="none" stroke="#c60077" d="M97.5,-706C140.75,-706 205.13,-706 205.13,-706 205.13,-706 205.13,-921 205.13,-921 205.13,-921 293.18,-921 387.68,-921"/>
</g>
</g>
</svg>
