<?xml version="1.0" encoding="UTF-8" standalone="no"?>
<!DOCTYPE svg PUBLIC "-//W3C//DTD SVG 1.1//EN"
 "http://www.w3.org/Graphics/SVG/1.1/DTD/svg11.dtd">
<!-- Generated by graphviz version 2.43.0 (0)
 -->
<!-- Title: %3 Pages: 1 -->
<svg width="976pt" height="1248pt"
 viewBox="0.00 0.00 976.13 1248.00" xmlns="http://www.w3.org/2000/svg" xmlns:xlink="http://www.w3.org/1999/xlink">
<g id="graph0" class="graph" transform="scale(1 1) rotate(0) translate(4 1244)">
<title>%3</title>
<polygon fill="white" stroke="transparent" points="-4,4 -4,-1244 972.13,-1244 972.13,4 -4,4"/>
<!-- d33tah -->
<g id="node1" class="node">
<title>d33tah</title>
<ellipse fill="none" stroke="black" cx="59.14" cy="-910" rx="43.59" ry="18"/>
<text text-anchor="middle" x="59.14" y="-906.3" font-family="Times,serif" font-size="14.00">d33tah</text>
</g>
<!-- Infrastruktura::Mariuszbot#Mariuszbot -->
<g id="node2" class="node">
<title>Infrastruktura::Mariuszbot#Mariuszbot</title>
<ellipse fill="none" stroke="black" cx="615.21" cy="-1093" rx="196.07" ry="18"/>
<text text-anchor="middle" x="615.21" y="-1089.3" font-family="Times,serif" font-size="14.00">Infrastruktura::Mariuszbot#Mariuszbot</text>
</g>
<!-- d33tah&#45;&#45;Infrastruktura::Mariuszbot#Mariuszbot -->
<g id="edge1" class="edge">
<title>d33tah&#45;&#45;Infrastruktura::Mariuszbot#Mariuszbot</title>
<path fill="none" stroke="#ff0000" d="M90.42,-922.64C129.45,-922.64 191.13,-922.64 191.13,-922.64 191.13,-922.64 191.13,-1093 191.13,-1093 191.13,-1093 307.75,-1093 418.69,-1093"/>
</g>
<!-- Drzwi&#45;frontowe#Ekran  -->
<g id="node3" class="node">
<title>Drzwi&#45;frontowe#Ekran </title>
<ellipse fill="none" stroke="black" cx="615.21" cy="-1050" rx="120.78" ry="18"/>
<text text-anchor="middle" x="615.21" y="-1046.3" font-family="Times,serif" font-size="14.00">Drzwi&#45;frontowe#Ekran </text>
</g>
<!-- d33tah&#45;&#45;Drzwi&#45;frontowe#Ekran  -->
<g id="edge2" class="edge">
<title>d33tah&#45;&#45;Drzwi&#45;frontowe#Ekran </title>
<path fill="none" stroke="black" d="M94,-920.86C136.61,-920.86 203.13,-920.86 203.13,-920.86 203.13,-920.86 203.13,-1044.5 203.13,-1044.5 203.13,-1044.5 377.96,-1044.5 499.87,-1044.5"/>
</g>
<!-- Miejsce::Miejsce#Klucze do spejsu -->
<g id="node7" class="node">
<title>Miejsce::Miejsce#Klucze do spejsu</title>
<ellipse fill="none" stroke="black" cx="615.21" cy="-620" rx="172.77" ry="18"/>
<text text-anchor="middle" x="615.21" y="-616.3" font-family="Times,serif" font-size="14.00">Miejsce::Miejsce#Klucze do spejsu</text>
</g>
<!-- d33tah&#45;&#45;Miejsce::Miejsce#Klucze do spejsu -->
<g id="edge3" class="edge">
<title>d33tah&#45;&#45;Miejsce::Miejsce#Klucze do spejsu</title>
<path fill="none" stroke="#ff0000" d="M91.09,-897.75C152.75,-897.75 282.13,-897.75 282.13,-897.75 282.13,-897.75 282.13,-633.5 282.13,-633.5 282.13,-633.5 404.23,-633.5 500.58,-633.5"/>
</g>
<!-- Stowarzyszenie#Zarzd -->
<g id="node8" class="node">
<title>Stowarzyszenie#Zarzd</title>
<ellipse fill="none" stroke="black" cx="615.21" cy="-749" rx="123.48" ry="18"/>
<text text-anchor="middle" x="615.21" y="-745.3" font-family="Times,serif" font-size="14.00">Stowarzyszenie#Zarzd</text>
</g>
<!-- d33tah&#45;&#45;Stowarzyszenie#Zarzd -->
<g id="edge4" class="edge">
<title>d33tah&#45;&#45;Stowarzyszenie#Zarzd</title>
<path fill="none" stroke="#ff0000" d="M94.61,-899.5C165.97,-899.5 320.13,-899.5 320.13,-899.5 320.13,-899.5 320.13,-761.86 320.13,-761.86 320.13,-761.86 441.6,-761.86 528.67,-761.86"/>
</g>
<!-- Infrastruktura::IRC#IRC -->
<g id="node9" class="node">
<title>Infrastruktura::IRC#IRC</title>
<ellipse fill="none" stroke="black" cx="615.21" cy="-878" rx="124.58" ry="18"/>
<text text-anchor="middle" x="615.21" y="-874.3" font-family="Times,serif" font-size="14.00">Infrastruktura::IRC#IRC</text>
</g>
<!-- d33tah&#45;&#45;Infrastruktura::IRC#IRC -->
<g id="edge5" class="edge">
<title>d33tah&#45;&#45;Infrastruktura::IRC#IRC</title>
<path fill="none" stroke="#ff0000" d="M60.13,-891.84C60.13,-886.96 60.13,-883 60.13,-883 60.13,-883 331.89,-883 495.11,-883"/>
</g>
<!-- Kanay&#45;komunikacji# -->
<g id="node10" class="node">
<title>Kanay&#45;komunikacji#</title>
<ellipse fill="none" stroke="black" cx="615.21" cy="-577" rx="108.58" ry="18"/>
<text text-anchor="middle" x="615.21" y="-573.3" font-family="Times,serif" font-size="14.00">Kanay&#45;komunikacji#</text>
</g>
<!-- d33tah&#45;&#45;Kanay&#45;komunikacji# -->
<g id="edge6" class="edge">
<title>d33tah&#45;&#45;Kanay&#45;komunikacji#</title>
<path fill="none" stroke="#ff0000" d="M101.28,-904.79C157.79,-904.79 251.13,-904.79 251.13,-904.79 251.13,-904.79 251.13,-584.2 251.13,-584.2 251.13,-584.2 407.92,-584.2 515.72,-584.2"/>
</g>
<!-- Infrastruktura::Telegram#G贸wny: t.me/hakierspejs -->
<g id="node11" class="node">
<title>Infrastruktura::Telegram#G贸wny: t.me/hakierspejs</title>
<ellipse fill="none" stroke="black" cx="615.21" cy="-792" rx="251.56" ry="18"/>
<text text-anchor="middle" x="615.21" y="-788.3" font-family="Times,serif" font-size="14.00">Infrastruktura::Telegram#G贸wny: t.me/hakierspejs</text>
</g>
<!-- d33tah&#45;&#45;Infrastruktura::Telegram#G贸wny: t.me/hakierspejs -->
<g id="edge7" class="edge">
<title>d33tah&#45;&#45;Infrastruktura::Telegram#G贸wny: t.me/hakierspejs</title>
<path fill="none" stroke="#ff0000" d="M97.45,-901.25C181.4,-901.25 374.13,-901.25 374.13,-901.25 374.13,-901.25 374.13,-819.09 374.13,-797.27"/>
</g>
<!-- Bazy&#45;danych#Grafana -->
<g id="node12" class="node">
<title>Bazy&#45;danych#Grafana</title>
<ellipse fill="none" stroke="black" cx="615.21" cy="-964" rx="114.28" ry="18"/>
<text text-anchor="middle" x="615.21" y="-960.3" font-family="Times,serif" font-size="14.00">Bazy&#45;danych#Grafana</text>
</g>
<!-- d33tah&#45;&#45;Bazy&#45;danych#Grafana -->
<g id="edge8" class="edge">
<title>d33tah&#45;&#45;Bazy&#45;danych#Grafana</title>
<path fill="none" stroke="#ff0000" d="M96.9,-919.07C143.07,-919.07 215.13,-919.07 215.13,-919.07 215.13,-919.07 215.13,-962.67 215.13,-962.67 215.13,-962.67 382.84,-962.67 501.1,-962.67"/>
</g>
<!-- Marketing&#45;i&#45;media&#45;spoecznociowe# -->
<g id="node13" class="node">
<title>Marketing&#45;i&#45;media&#45;spoecznociowe#</title>
<ellipse fill="none" stroke="black" cx="615.21" cy="-448" rx="183.07" ry="18"/>
<text text-anchor="middle" x="615.21" y="-444.3" font-family="Times,serif" font-size="14.00">Marketing&#45;i&#45;media&#45;spoecznociowe#</text>
</g>
<!-- d33tah&#45;&#45;Marketing&#45;i&#45;media&#45;spoecznociowe# -->
<g id="edge9" class="edge">
<title>d33tah&#45;&#45;Marketing&#45;i&#45;media&#45;spoecznociowe#</title>
<path fill="none" stroke="#ff0000" d="M102.62,-908.36C176.14,-908.36 317.13,-908.36 317.13,-908.36 317.13,-908.36 317.13,-462.73 317.13,-462.73 317.13,-462.73 423.95,-462.73 509.7,-462.73"/>
</g>
<!-- Infrastruktura::Telegram#HS24: t.me/hsl_info -->
<g id="node14" class="node">
<title>Infrastruktura::Telegram#HS24: t.me/hsl_info</title>
<ellipse fill="none" stroke="black" cx="615.21" cy="-1007" rx="231.26" ry="18"/>
<text text-anchor="middle" x="615.21" y="-1003.3" font-family="Times,serif" font-size="14.00">Infrastruktura::Telegram#HS24: t.me/hsl_info</text>
</g>
<!-- d33tah&#45;&#45;Infrastruktura::Telegram#HS24: t.me/hsl_info -->
<g id="edge10" class="edge">
<title>d33tah&#45;&#45;Infrastruktura::Telegram#HS24: t.me/hsl_info</title>
<path fill="none" stroke="#ff0000" d="M100.9,-915.5C196.5,-915.5 423.13,-915.5 423.13,-915.5 423.13,-915.5 423.13,-973.04 423.13,-996.86"/>
</g>
<!-- Infrastruktura::Telegram#Spacerspejs: t.me/joinchat/UYf2ONtNj21J1DS6 -->
<g id="node15" class="node">
<title>Infrastruktura::Telegram#Spacerspejs: t.me/joinchat/UYf2ONtNj21J1DS6</title>
<ellipse fill="none" stroke="black" cx="615.21" cy="-1222" rx="352.84" ry="18"/>
<text text-anchor="middle" x="615.21" y="-1218.3" font-family="Times,serif" font-size="14.00">Infrastruktura::Telegram#Spacerspejs: t.me/joinchat/UYf2ONtNj21J1DS6</text>
</g>
<!-- d33tah&#45;&#45;Infrastruktura::Telegram#Spacerspejs: t.me/joinchat/UYf2ONtNj21J1DS6 -->
<g id="edge11" class="edge">
<title>d33tah&#45;&#45;Infrastruktura::Telegram#Spacerspejs: t.me/joinchat/UYf2ONtNj21J1DS6</title>
<path fill="none" stroke="#ff0000" d="M99.33,-917.29C160.54,-917.29 270.13,-917.29 270.13,-917.29 270.13,-917.29 270.13,-1182.87 270.13,-1218.15"/>
</g>
<!-- Bazy&#45;danych#Trello -->
<g id="node16" class="node">
<title>Bazy&#45;danych#Trello</title>
<ellipse fill="none" stroke="black" cx="615.21" cy="-1179" rx="103.98" ry="18"/>
<text text-anchor="middle" x="615.21" y="-1175.3" font-family="Times,serif" font-size="14.00">Bazy&#45;danych#Trello</text>
</g>
<!-- d33tah&#45;&#45;Bazy&#45;danych#Trello -->
<g id="edge12" class="edge">
<title>d33tah&#45;&#45;Bazy&#45;danych#Trello</title>
<path fill="none" stroke="#ff0000" d="M78.11,-926.21C106.08,-926.21 155.13,-926.21 155.13,-926.21 155.13,-926.21 155.13,-1179 155.13,-1179 155.13,-1179 375.38,-1179 511.1,-1179"/>
</g>
<!-- Infrastruktura::Github#Github -->
<g id="node17" class="node">
<title>Infrastruktura::Github#Github</title>
<ellipse fill="none" stroke="black" cx="615.21" cy="-921" rx="154.07" ry="18"/>
<text text-anchor="middle" x="615.21" y="-917.3" font-family="Times,serif" font-size="14.00">Infrastruktura::Github#Github</text>
</g>
<!-- d33tah&#45;&#45;Infrastruktura::Github#Github -->
<g id="edge13" class="edge">
<title>d33tah&#45;&#45;Infrastruktura::Github#Github</title>
<path fill="none" stroke="#ff0000" d="M101.85,-913.71C180.44,-913.71 351.15,-913.71 474.16,-913.71"/>
</g>
<!-- Infrastruktura::Domeny#Domeny -->
<g id="node18" class="node">
<title>Infrastruktura::Domeny#Domeny</title>
<ellipse fill="none" stroke="black" cx="615.21" cy="-319" rx="167.07" ry="18"/>
<text text-anchor="middle" x="615.21" y="-315.3" font-family="Times,serif" font-size="14.00">Infrastruktura::Domeny#Domeny</text>
</g>
<!-- d33tah&#45;&#45;Infrastruktura::Domeny#Domeny -->
<g id="edge14" class="edge">
<title>d33tah&#45;&#45;Infrastruktura::Domeny#Domeny</title>
<path fill="none" stroke="#ff0000" d="M101.99,-906.57C162.87,-906.57 267.13,-906.57 267.13,-906.57 267.13,-906.57 267.13,-331 267.13,-331 267.13,-331 390.65,-331 490.53,-331"/>
</g>
<!-- Infrastruktura::Telegram#posty: t.me/hakierspejs_spam -->
<g id="node19" class="node">
<title>Infrastruktura::Telegram#posty: t.me/hakierspejs_spam</title>
<ellipse fill="none" stroke="black" cx="615.21" cy="-491" rx="284.05" ry="18"/>
<text text-anchor="middle" x="615.21" y="-487.3" font-family="Times,serif" font-size="14.00">Infrastruktura::Telegram#posty: t.me/hakierspejs_spam</text>
</g>
<!-- d33tah&#45;&#45;Infrastruktura::Telegram#posty: t.me/hakierspejs_spam -->
<g id="edge15" class="edge">
<title>d33tah&#45;&#45;Infrastruktura::Telegram#posty: t.me/hakierspejs_spam</title>
<path fill="none" stroke="#ff0000" d="M102.72,-910.14C183.45,-910.14 348.13,-910.14 348.13,-910.14 348.13,-910.14 348.13,-549.39 348.13,-497.25"/>
</g>
<!-- Bazy&#45;danych#Pad -->
<g id="node20" class="node">
<title>Bazy&#45;danych#Pad</title>
<ellipse fill="none" stroke="black" cx="615.21" cy="-1136" rx="94.48" ry="18"/>
<text text-anchor="middle" x="615.21" y="-1132.3" font-family="Times,serif" font-size="14.00">Bazy&#45;danych#Pad</text>
</g>
<!-- d33tah&#45;&#45;Bazy&#45;danych#Pad -->
<g id="edge16" class="edge">
<title>d33tah&#45;&#45;Bazy&#45;danych#Pad</title>
<path fill="none" stroke="#ff0000" d="M85.48,-924.43C120.79,-924.43 179.13,-924.43 179.13,-924.43 179.13,-924.43 179.13,-1136 179.13,-1136 179.13,-1136 392.63,-1136 520.85,-1136"/>
</g>
<!-- nastpne -->
<g id="node4" class="node">
<title>nastpne</title>
<ellipse fill="none" stroke="black" cx="59.14" cy="-953" rx="53.09" ry="18"/>
<text text-anchor="middle" x="59.14" y="-949.3" font-family="Times,serif" font-size="14.00">nastpne</text>
</g>
<!-- spotkanie -->
<g id="node5" class="node">
<title>spotkanie</title>
<ellipse fill="none" stroke="black" cx="59.14" cy="-996" rx="55.79" ry="18"/>
<text text-anchor="middle" x="59.14" y="-992.3" font-family="Times,serif" font-size="14.00">spotkanie</text>
</g>
<g id="node6" class="node">
<title></title>
<ellipse fill="none" stroke="#ff0000" cx="59.14" cy="-1039" rx="27" ry="18"/>
</g>
<!-- pmysl -->
<g id="node21" class="node">
<title>pmysl</title>
<ellipse fill="none" stroke="black" cx="59.14" cy="-856" rx="38.19" ry="18"/>
<text text-anchor="middle" x="59.14" y="-852.3" font-family="Times,serif" font-size="14.00">pmysl</text>
</g>
<!-- pmysl&#45;&#45;Miejsce::Miejsce#Klucze do spejsu -->
<g id="edge17" class="edge">
<title>pmysl&#45;&#45;Miejsce::Miejsce#Klucze do spejsu</title>
<path fill="none" stroke="#2bd500" d="M90.38,-845.5C122.27,-845.5 167.13,-845.5 167.13,-845.5 167.13,-845.5 167.13,-629 167.13,-629 167.13,-629 335.12,-629 465.38,-629"/>
</g>
<!-- pmysl&#45;&#45;Infrastruktura::IRC#IRC -->
<g id="edge19" class="edge">
<title>pmysl&#45;&#45;Infrastruktura::IRC#IRC</title>
<path fill="none" stroke="#2bd500" d="M89.83,-867C169.86,-867 387.62,-867 516.29,-867"/>
</g>
<!-- pmysl&#45;&#45;Kanay&#45;komunikacji# -->
<g id="edge18" class="edge">
<title>pmysl&#45;&#45;Kanay&#45;komunikacji#</title>
<path fill="none" stroke="#2bd500" d="M82.99,-841.75C107.81,-841.75 143.13,-841.75 143.13,-841.75 143.13,-841.75 143.13,-580.6 143.13,-580.6 143.13,-580.6 369.44,-580.6 508.68,-580.6"/>
</g>
<!-- pmysl&#45;&#45;Bazy&#45;danych#Grafana -->
<g id="edge20" class="edge">
<title>pmysl&#45;&#45;Bazy&#45;danych#Grafana</title>
<path fill="none" stroke="#2bd500" d="M78.09,-871.67C122.02,-871.67 227.13,-871.67 227.13,-871.67 227.13,-871.67 227.13,-954.33 227.13,-954.33 227.13,-954.33 403.33,-954.33 518.28,-954.33"/>
</g>
<!-- pmysl&#45;&#45;Infrastruktura::Github#Github -->
<g id="edge22" class="edge">
<title>pmysl&#45;&#45;Infrastruktura::Github#Github</title>
<path fill="none" stroke="#2bd500" d="M84.91,-869.33C175.83,-869.33 476.13,-869.33 476.13,-869.33 476.13,-869.33 476.13,-898.4 476.13,-912.93"/>
</g>
<!-- Bazy&#45;danych# -->
<g id="node22" class="node">
<title>Bazy&#45;danych#</title>
<ellipse fill="none" stroke="black" cx="615.21" cy="-835" rx="77.19" ry="18"/>
<text text-anchor="middle" x="615.21" y="-831.3" font-family="Times,serif" font-size="14.00">Bazy&#45;danych#</text>
</g>
<!-- pmysl&#45;&#45;Bazy&#45;danych# -->
<g id="edge21" class="edge">
<title>pmysl&#45;&#45;Bazy&#45;danych#</title>
<path fill="none" stroke="#2bd500" d="M94.77,-849.25C191.38,-849.25 458.34,-849.25 567.62,-849.25"/>
</g>
<!-- thinkofher -->
<g id="node23" class="node">
<title>thinkofher</title>
<ellipse fill="none" stroke="black" cx="59.14" cy="-749" rx="59.29" ry="18"/>
<text text-anchor="middle" x="59.14" y="-745.3" font-family="Times,serif" font-size="14.00">thinkofher</text>
</g>
<!-- thinkofher&#45;&#45;Stowarzyszenie#Zarzd -->
<g id="edge31" class="edge">
<title>thinkofher&#45;&#45;Stowarzyszenie#Zarzd</title>
<path fill="none" stroke="#0061f2" d="M112.71,-756.71C202.4,-756.71 384.77,-756.71 503.38,-756.71"/>
</g>
<!-- thinkofher&#45;&#45;Infrastruktura::IRC#IRC -->
<g id="edge24" class="edge">
<title>thinkofher&#45;&#45;Infrastruktura::IRC#IRC</title>
<path fill="none" stroke="#0061f2" d="M107.13,-759.67C107.13,-788.31 107.13,-864.67 107.13,-864.67 107.13,-864.67 387,-864.67 531.31,-864.67"/>
</g>
<!-- thinkofher&#45;&#45;Kanay&#45;komunikacji# -->
<g id="edge23" class="edge">
<title>thinkofher&#45;&#45;Kanay&#45;komunikacji#</title>
<path fill="none" stroke="#0061f2" d="M117.81,-746.43C182.97,-746.43 279.13,-746.43 279.13,-746.43 279.13,-746.43 279.13,-591.4 279.13,-591.4 279.13,-591.4 452.28,-591.4 550.01,-591.4"/>
</g>
<!-- thinkofher&#45;&#45;Infrastruktura::Telegram#G贸wny: t.me/hakierspejs -->
<g id="edge25" class="edge">
<title>thinkofher&#45;&#45;Infrastruktura::Telegram#G贸wny: t.me/hakierspejs</title>
<path fill="none" stroke="#0061f2" d="M111.13,-757.74C111.13,-769.35 111.13,-788.4 111.13,-788.4 111.13,-788.4 240.87,-788.4 368.71,-788.4"/>
</g>
<!-- thinkofher&#45;&#45;Marketing&#45;i&#45;media&#45;spoecznociowe# -->
<g id="edge28" class="edge">
<title>thinkofher&#45;&#45;Marketing&#45;i&#45;media&#45;spoecznociowe#</title>
<path fill="none" stroke="#0061f2" d="M100.75,-736.14C172.32,-736.14 311.13,-736.14 311.13,-736.14 311.13,-736.14 311.13,-456.18 311.13,-456.18 311.13,-456.18 379.62,-456.18 451.6,-456.18"/>
</g>
<!-- thinkofher&#45;&#45;Infrastruktura::Github#Github -->
<g id="edge29" class="edge">
<title>thinkofher&#45;&#45;Infrastruktura::Github#Github</title>
<path fill="none" stroke="#0061f2" d="M105.13,-760.42C105.13,-800.37 105.13,-931.5 105.13,-931.5 105.13,-931.5 338.74,-931.5 489.77,-931.5"/>
</g>
<!-- thinkofher&#45;&#45;Bazy&#45;danych# -->
<g id="edge27" class="edge">
<title>thinkofher&#45;&#45;Bazy&#45;danych#</title>
<path fill="none" stroke="#0061f2" d="M109.13,-758.63C109.13,-779.59 109.13,-827.5 109.13,-827.5 109.13,-827.5 405.78,-827.5 544.84,-827.5"/>
</g>
<!-- Infrastruktura::Matrix#hs&#45;ldz:hackerspace.pl -->
<g id="node24" class="node">
<title>Infrastruktura::Matrix#hs&#45;ldz:hackerspace.pl</title>
<ellipse fill="none" stroke="black" cx="615.21" cy="-706" rx="221.76" ry="18"/>
<text text-anchor="middle" x="615.21" y="-702.3" font-family="Times,serif" font-size="14.00">Infrastruktura::Matrix#hs&#45;ldz:hackerspace.pl</text>
</g>
<!-- thinkofher&#45;&#45;Infrastruktura::Matrix#hs&#45;ldz:hackerspace.pl -->
<g id="edge26" class="edge">
<title>thinkofher&#45;&#45;Infrastruktura::Matrix#hs&#45;ldz:hackerspace.pl</title>
<path fill="none" stroke="#0061f2" d="M111.13,-740.3C111.13,-727.73 111.13,-706 111.13,-706 111.13,-706 258.14,-706 393.38,-706"/>
</g>
<!-- Infrastruktura::Matrix#hs&#45;ldz&#45;offtopic:hackerspace.pl -->
<g id="node25" class="node">
<title>Infrastruktura::Matrix#hs&#45;ldz&#45;offtopic:hackerspace.pl</title>
<ellipse fill="none" stroke="black" cx="615.21" cy="-663" rx="258.85" ry="18"/>
<text text-anchor="middle" x="615.21" y="-659.3" font-family="Times,serif" font-size="14.00">Infrastruktura::Matrix#hs&#45;ldz&#45;offtopic:hackerspace.pl</text>
</g>
<!-- thinkofher&#45;&#45;Infrastruktura::Matrix#hs&#45;ldz&#45;offtopic:hackerspace.pl -->
<g id="edge30" class="edge">
<title>thinkofher&#45;&#45;Infrastruktura::Matrix#hs&#45;ldz&#45;offtopic:hackerspace.pl</title>
<path fill="none" stroke="#0061f2" d="M117.89,-751.57C205.48,-751.57 360.13,-751.57 360.13,-751.57 360.13,-751.57 360.13,-682.54 360.13,-666.36"/>
</g>
<!-- BluRaf -->
<g id="node26" class="node">
<title>BluRaf</title>
<ellipse fill="none" stroke="black" cx="59.14" cy="-620" rx="42.49" ry="18"/>
<text text-anchor="middle" x="59.14" y="-616.3" font-family="Times,serif" font-size="14.00">BluRaf</text>
</g>
<!-- BluRaf&#45;&#45;Infrastruktura::IRC#IRC -->
<g id="edge32" class="edge">
<title>BluRaf&#45;&#45;Infrastruktura::IRC#IRC</title>
<path fill="none" stroke="#c60077" d="M100.07,-624.5C165.19,-624.5 285.13,-624.5 285.13,-624.5 285.13,-624.5 285.13,-862.33 285.13,-862.33 285.13,-862.33 457.97,-862.33 553.51,-862.33"/>
</g>
<!-- BluRaf&#45;&#45;Marketing&#45;i&#45;media&#45;spoecznociowe# -->
<g id="edge34" class="edge">
<title>BluRaf&#45;&#45;Marketing&#45;i&#45;media&#45;spoecznociowe#</title>
<path fill="none" stroke="#c60077" d="M95.88,-611C165.14,-611 308.13,-611 308.13,-611 308.13,-611 308.13,-452.91 308.13,-452.91 308.13,-452.91 370.36,-452.91 438.8,-452.91"/>
</g>
<!-- Kanay&#45;komunikacji#Mumble -->
<g id="node27" class="node">
<title>Kanay&#45;komunikacji#Mumble</title>
<ellipse fill="none" stroke="black" cx="615.21" cy="-534" rx="146.77" ry="18"/>
<text text-anchor="middle" x="615.21" y="-530.3" font-family="Times,serif" font-size="14.00">Kanay&#45;komunikacji#Mumble</text>
</g>
<!-- BluRaf&#45;&#45;Kanay&#45;komunikacji#Mumble -->
<g id="edge33" class="edge">
<title>BluRaf&#45;&#45;Kanay&#45;komunikacji#Mumble</title>
<path fill="none" stroke="#c60077" d="M100.21,-615.5C163.12,-615.5 276.13,-615.5 276.13,-615.5 276.13,-615.5 276.13,-540 276.13,-540 276.13,-540 382.67,-540 476.31,-540"/>
</g>
<!-- kszmigiel -->
<g id="node28" class="node">
<title>kszmigiel</title>
<ellipse fill="none" stroke="black" cx="59.14" cy="-577" rx="54.69" ry="18"/>
<text text-anchor="middle" x="59.14" y="-573.3" font-family="Times,serif" font-size="14.00">kszmigiel</text>
</g>
<!-- kszmigiel&#45;&#45;Miejsce::Miejsce#Klucze do spejsu -->
<g id="edge36" class="edge">
<title>kszmigiel&#45;&#45;Miejsce::Miejsce#Klucze do spejsu</title>
<path fill="none" stroke="#b6e400" d="M108.13,-585.29C108.13,-597.79 108.13,-620 108.13,-620 108.13,-620 295.22,-620 442.12,-620"/>
</g>
<!-- kszmigiel&#45;&#45;Stowarzyszenie#Zarzd -->
<g id="edge40" class="edge">
<title>kszmigiel&#45;&#45;Stowarzyszenie#Zarzd</title>
<path fill="none" stroke="#b6e400" d="M102.83,-587.8C169.03,-587.8 287.13,-587.8 287.13,-587.8 287.13,-587.8 287.13,-741.29 287.13,-741.29 287.13,-741.29 408.18,-741.29 503.22,-741.29"/>
</g>
<!-- kszmigiel&#45;&#45;Infrastruktura::Telegram#G贸wny: t.me/hakierspejs -->
<g id="edge37" class="edge">
<title>kszmigiel&#45;&#45;Infrastruktura::Telegram#G贸wny: t.me/hakierspejs</title>
<path fill="none" stroke="#b6e400" d="M105.13,-586.92C105.13,-613.53 105.13,-684.5 105.13,-684.5 105.13,-684.5 379.13,-684.5 379.13,-684.5 379.13,-684.5 379.13,-762.45 379.13,-785.6"/>
</g>
<!-- kszmigiel&#45;&#45;Marketing&#45;i&#45;media&#45;spoecznociowe# -->
<g id="edge38" class="edge">
<title>kszmigiel&#45;&#45;Marketing&#45;i&#45;media&#45;spoecznociowe#</title>
<path fill="none" stroke="#b6e400" d="M112.82,-573.4C185.2,-573.4 305.13,-573.4 305.13,-573.4 305.13,-573.4 305.13,-449.64 305.13,-449.64 305.13,-449.64 365.28,-449.64 432.59,-449.64"/>
</g>
<!-- kszmigiel&#45;&#45;Infrastruktura::Telegram#posty: t.me/hakierspejs_spam -->
<g id="edge39" class="edge">
<title>kszmigiel&#45;&#45;Infrastruktura::Telegram#posty: t.me/hakierspejs_spam</title>
<path fill="none" stroke="#b6e400" d="M113.99,-577C195.76,-577 340.13,-577 340.13,-577 340.13,-577 340.13,-513.49 340.13,-495.62"/>
</g>
<!-- Marketing&#45;i&#45;media&#45;spoecznociowe#Naklejki -->
<g id="node29" class="node">
<title>Marketing&#45;i&#45;media&#45;spoecznociowe#Naklejki</title>
<ellipse fill="none" stroke="black" cx="615.21" cy="-405" rx="221.76" ry="18"/>
<text text-anchor="middle" x="615.21" y="-401.3" font-family="Times,serif" font-size="14.00">Marketing&#45;i&#45;media&#45;spoecznociowe#Naklejki</text>
</g>
<!-- kszmigiel&#45;&#45;Marketing&#45;i&#45;media&#45;spoecznociowe#Naklejki -->
<g id="edge35" class="edge">
<title>kszmigiel&#45;&#45;Marketing&#45;i&#45;media&#45;spoecznociowe#Naklejki</title>
<path fill="none" stroke="#b6e400" d="M109.2,-569.8C180.33,-569.8 302.13,-569.8 302.13,-569.8 302.13,-569.8 302.13,-415.8 302.13,-415.8 302.13,-415.8 366.96,-415.8 437.63,-415.8"/>
</g>
<!-- cytP450 -->
<g id="node30" class="node">
<title>cytP450</title>
<ellipse fill="none" stroke="black" cx="59.14" cy="-233" rx="48.99" ry="18"/>
<text text-anchor="middle" x="59.14" y="-229.3" font-family="Times,serif" font-size="14.00">cytP450</text>
</g>
<!-- cytP450&#45;&#45;Miejsce::Miejsce#Klucze do spejsu -->
<g id="edge42" class="edge">
<title>cytP450&#45;&#45;Miejsce::Miejsce#Klucze do spejsu</title>
<path fill="none" stroke="#00ffff" d="M95.49,-245C160.54,-245 290.13,-245 290.13,-245 290.13,-245 290.13,-606.5 290.13,-606.5 290.13,-606.5 407,-606.5 500.6,-606.5"/>
</g>
<!-- cytP450&#45;&#45;Kanay&#45;komunikacji# -->
<g id="edge43" class="edge">
<title>cytP450&#45;&#45;Kanay&#45;komunikacji#</title>
<path fill="none" stroke="#00ffff" d="M105.12,-239C174.03,-239 296.13,-239 296.13,-239 296.13,-239 296.13,-562.6 296.13,-562.6 296.13,-562.6 456.52,-562.6 549.87,-562.6"/>
</g>
<!-- cytP450&#45;&#45;Infrastruktura::Domeny#Domeny -->
<g id="edge44" class="edge">
<title>cytP450&#45;&#45;Infrastruktura::Domeny#Domeny</title>
<path fill="none" stroke="#00ffff" d="M108,-233C178.17,-233 299.13,-233 299.13,-233 299.13,-233 299.13,-307 299.13,-307 299.13,-307 401.93,-307 490.28,-307"/>
</g>
<!-- Chciejlista#DIY -->
<g id="node31" class="node">
<title>Chciejlista#DIY</title>
<ellipse fill="none" stroke="black" cx="615.21" cy="-104" rx="83.69" ry="18"/>
<text text-anchor="middle" x="615.21" y="-100.3" font-family="Times,serif" font-size="14.00">Chciejlista#DIY</text>
</g>
<!-- cytP450&#45;&#45;Chciejlista#DIY -->
<g id="edge41" class="edge">
<title>cytP450&#45;&#45;Chciejlista#DIY</title>
<path fill="none" stroke="#00ffff" d="M92.13,-219.68C92.13,-186.72 92.13,-104 92.13,-104 92.13,-104 383.3,-104 531.17,-104"/>
</g>
<!-- Stowarzyszenie#Komisja Rewizyjna -->
<g id="node32" class="node">
<title>Stowarzyszenie#Komisja Rewizyjna</title>
<ellipse fill="none" stroke="black" cx="615.21" cy="-276" rx="178.17" ry="18"/>
<text text-anchor="middle" x="615.21" y="-272.3" font-family="Times,serif" font-size="14.00">Stowarzyszenie#Komisja Rewizyjna</text>
</g>
<!-- cytP450&#45;&#45;Stowarzyszenie#Komisja Rewizyjna -->
<g id="edge45" class="edge">
<title>cytP450&#45;&#45;Stowarzyszenie#Komisja Rewizyjna</title>
<path fill="none" stroke="#00ffff" d="M105.13,-227C180.76,-227 323.13,-227 323.13,-227 323.13,-227 323.13,-270 323.13,-270 323.13,-270 382.07,-270 447,-270"/>
</g>
<!-- Chciejlista#Elektronika (w sensie urzdze konsumenckich) -->
<g id="node33" class="node">
<title>Chciejlista#Elektronika (w sensie urzdze konsumenckich)</title>
<ellipse fill="none" stroke="black" cx="615.21" cy="-233" rx="289.75" ry="18"/>
<text text-anchor="middle" x="615.21" y="-229.3" font-family="Times,serif" font-size="14.00">Chciejlista#Elektronika (w sensie urzdze konsumenckich)</text>
</g>
<!-- cytP450&#45;&#45;Chciejlista#Elektronika (w sensie urzdze konsumenckich) -->
<g id="edge46" class="edge">
<title>cytP450&#45;&#45;Chciejlista#Elektronika (w sensie urzdze konsumenckich)</title>
<path fill="none" stroke="#00ffff" d="M95.63,-221C157,-221 285.35,-221 399.13,-221"/>
</g>
<!-- Przegld&#45;lokali&#45;na&#45;wynajem&#45;w&#45;odzi.&#45;Fundusz&#45;1000&#45;&#45;&#45;1500.#Bot Aleksego -->
<g id="node34" class="node">
<title>Przegld&#45;lokali&#45;na&#45;wynajem&#45;w&#45;odzi.&#45;Fundusz&#45;1000&#45;&#45;&#45;1500.#Bot Aleksego</title>
<ellipse fill="none" stroke="black" cx="615.21" cy="-190" rx="351.74" ry="18"/>
<text text-anchor="middle" x="615.21" y="-186.3" font-family="Times,serif" font-size="14.00">Przegld&#45;lokali&#45;na&#45;wynajem&#45;w&#45;odzi.&#45;Fundusz&#45;1000&#45;&#45;&#45;1500.#Bot Aleksego</text>
</g>
<!-- cytP450&#45;&#45;Przegld&#45;lokali&#45;na&#45;wynajem&#45;w&#45;odzi.&#45;Fundusz&#45;1000&#45;&#45;&#45;1500.#Bot Aleksego -->
<g id="edge47" class="edge">
<title>cytP450&#45;&#45;Przegld&#45;lokali&#45;na&#45;wynajem&#45;w&#45;odzi.&#45;Fundusz&#45;1000&#45;&#45;&#45;1500.#Bot Aleksego</title>
<path fill="none" stroke="#00ffff" d="M103.13,-225.11C103.13,-212.7 103.13,-190 103.13,-190 103.13,-190 174.2,-190 263.4,-190"/>
</g>
<!-- Zamek#Zamek -->
<g id="node35" class="node">
<title>Zamek#Zamek</title>
<ellipse fill="none" stroke="black" cx="615.21" cy="-147" rx="81.49" ry="18"/>
<text text-anchor="middle" x="615.21" y="-143.3" font-family="Times,serif" font-size="14.00">Zamek#Zamek</text>
</g>
<!-- cytP450&#45;&#45;Zamek#Zamek -->
<g id="edge48" class="edge">
<title>cytP450&#45;&#45;Zamek#Zamek</title>
<path fill="none" stroke="#00ffff" d="M97.13,-221.4C97.13,-197.93 97.13,-147 97.13,-147 97.13,-147 387.79,-147 533.69,-147"/>
</g>
<!-- Keij0 -->
<g id="node36" class="node">
<title>Keij0</title>
<ellipse fill="none" stroke="black" cx="59.14" cy="-319" rx="34.39" ry="18"/>
<text text-anchor="middle" x="59.14" y="-315.3" font-family="Times,serif" font-size="14.00">Keij0</text>
</g>
<!-- Keij0&#45;&#45;Marketing&#45;i&#45;media&#45;spoecznociowe# -->
<g id="edge50" class="edge">
<title>Keij0&#45;&#45;Marketing&#45;i&#45;media&#45;spoecznociowe#</title>
<path fill="none" stroke="#ab00d5" d="M93.78,-319C100.82,-319 106.13,-319 106.13,-319 106.13,-319 106.13,-433.27 106.13,-433.27 106.13,-433.27 360.61,-433.27 509.73,-433.27"/>
</g>
<!-- Keij0&#45;&#45;Stowarzyszenie#Komisja Rewizyjna -->
<g id="edge49" class="edge">
<title>Keij0&#45;&#45;Stowarzyszenie#Komisja Rewizyjna</title>
<path fill="none" stroke="#ab00d5" d="M91.88,-313C184.74,-313 443.13,-313 443.13,-313 443.13,-313 443.13,-290.87 443.13,-280.84"/>
</g>
<!-- pzduniak -->
<g id="node37" class="node">
<title>pzduniak</title>
<ellipse fill="none" stroke="black" cx="59.14" cy="-276" rx="52.79" ry="18"/>
<text text-anchor="middle" x="59.14" y="-272.3" font-family="Times,serif" font-size="14.00">pzduniak</text>
</g>
<!-- pzduniak&#45;&#45;Stowarzyszenie#Komisja Rewizyjna -->
<g id="edge51" class="edge">
<title>pzduniak&#45;&#45;Stowarzyszenie#Komisja Rewizyjna</title>
<path fill="none" stroke="#f29100" d="M108.98,-282C184.42,-282 331.13,-282 447.26,-282"/>
</g>
<!-- marti -->
<g id="node38" class="node">
<title>marti</title>
<ellipse fill="none" stroke="black" cx="59.14" cy="-792" rx="36.29" ry="18"/>
<text text-anchor="middle" x="59.14" y="-788.3" font-family="Times,serif" font-size="14.00">marti</text>
</g>
<!-- marti&#45;&#45;Infrastruktura::Telegram#G贸wny: t.me/hakierspejs -->
<g id="edge52" class="edge">
<title>marti&#45;&#45;Infrastruktura::Telegram#G贸wny: t.me/hakierspejs</title>
<path fill="none" stroke="#00c64f" d="M95.2,-795.6C150.98,-795.6 262.8,-795.6 368.5,-795.6"/>
</g>
<!-- marti&#45;&#45;Marketing&#45;i&#45;media&#45;spoecznociowe# -->
<g id="edge54" class="edge">
<title>marti&#45;&#45;Marketing&#45;i&#45;media&#45;spoecznociowe#</title>
<path fill="none" stroke="#00c64f" d="M88.39,-781.2C155.37,-781.2 314.13,-781.2 314.13,-781.2 314.13,-781.2 314.13,-459.45 314.13,-459.45 314.13,-459.45 395.39,-459.45 473.48,-459.45"/>
</g>
<!-- marti&#45;&#45;Infrastruktura::Github#Github -->
<g id="edge53" class="edge">
<title>marti&#45;&#45;Infrastruktura::Github#Github</title>
<path fill="none" stroke="#00c64f" d="M88.46,-802.8C139.46,-802.8 239.13,-802.8 239.13,-802.8 239.13,-802.8 239.13,-911.93 239.13,-911.93 239.13,-911.93 373.9,-911.93 482.09,-911.93"/>
</g>
<!-- biniu -->
<g id="node39" class="node">
<title>biniu</title>
<ellipse fill="none" stroke="black" cx="59.14" cy="-534" rx="34.39" ry="18"/>
<text text-anchor="middle" x="59.14" y="-530.3" font-family="Times,serif" font-size="14.00">biniu</text>
</g>
<!-- biniu&#45;&#45;Marketing&#45;i&#45;media&#45;spoecznociowe# -->
<g id="edge55" class="edge">
<title>biniu&#45;&#45;Marketing&#45;i&#45;media&#45;spoecznociowe#</title>
<path fill="none" stroke="#2e00e4" d="M91.64,-528C151.5,-528 273.13,-528 273.13,-528 273.13,-528 273.13,-446.36 273.13,-446.36 273.13,-446.36 351.14,-446.36 432.65,-446.36"/>
</g>
<!-- nikolaad -->
<g id="node40" class="node">
<title>nikolaad</title>
<ellipse fill="none" stroke="black" cx="59.14" cy="-491" rx="50.09" ry="18"/>
<text text-anchor="middle" x="59.14" y="-487.3" font-family="Times,serif" font-size="14.00">nikolaad</text>
</g>
<!-- nikolaad&#45;&#45;Marketing&#45;i&#45;media&#45;spoecznociowe# -->
<g id="edge56" class="edge">
<title>nikolaad&#45;&#45;Marketing&#45;i&#45;media&#45;spoecznociowe#</title>
<path fill="none" stroke="#ff0000" d="M108.13,-487.24C108.13,-475.95 108.13,-443.09 108.13,-443.09 108.13,-443.09 292.22,-443.09 438.57,-443.09"/>
</g>
<!-- SP7Q -->
<g id="node41" class="node">
<title>SP7Q</title>
<ellipse fill="none" stroke="black" cx="59.14" cy="-448" rx="36.29" ry="18"/>
<text text-anchor="middle" x="59.14" y="-444.3" font-family="Times,serif" font-size="14.00">SP7Q</text>
</g>
<!-- SP7Q&#45;&#45;Marketing&#45;i&#45;media&#45;spoecznociowe# -->
<g id="edge57" class="edge">
<title>SP7Q&#45;&#45;Marketing&#45;i&#45;media&#45;spoecznociowe#</title>
<path fill="none" stroke="#2bd500" d="M91.85,-439.82C160.88,-439.82 325.47,-439.82 451.8,-439.82"/>
</g>
<!-- kujaw -->
<g id="node42" class="node">
<title>kujaw</title>
<ellipse fill="none" stroke="black" cx="59.14" cy="-405" rx="38.19" ry="18"/>
<text text-anchor="middle" x="59.14" y="-401.3" font-family="Times,serif" font-size="14.00">kujaw</text>
</g>
<!-- kujaw&#45;&#45;Marketing&#45;i&#45;media&#45;spoecznociowe# -->
<g id="edge60" class="edge">
<title>kujaw&#45;&#45;Marketing&#45;i&#45;media&#45;spoecznociowe#</title>
<path fill="none" stroke="#0061f2" d="M97.1,-401.4C101.32,-401.4 104.13,-401.4 104.13,-401.4 104.13,-401.4 104.13,-436.55 104.13,-436.55 104.13,-436.55 322.27,-436.55 473.52,-436.55"/>
</g>
<!-- kujaw&#45;&#45;Marketing&#45;i&#45;media&#45;spoecznociowe#Naklejki -->
<g id="edge58" class="edge">
<title>kujaw&#45;&#45;Marketing&#45;i&#45;media&#45;spoecznociowe#Naklejki</title>
<path fill="none" stroke="#0061f2" d="M96.93,-408.6C158.59,-408.6 285.29,-408.6 397.98,-408.6"/>
</g>
<!-- Marketing&#45;i&#45;media&#45;spoecznociowe#Logo nr 2 -->
<g id="node43" class="node">
<title>Marketing&#45;i&#45;media&#45;spoecznociowe#Logo nr 2</title>
<ellipse fill="none" stroke="black" cx="615.21" cy="-362" rx="227.46" ry="18"/>
<text text-anchor="middle" x="615.21" y="-358.3" font-family="Times,serif" font-size="14.00">Marketing&#45;i&#45;media&#45;spoecznociowe#Logo nr 2</text>
</g>
<!-- kujaw&#45;&#45;Marketing&#45;i&#45;media&#45;spoecznociowe#Logo nr 2 -->
<g id="edge59" class="edge">
<title>kujaw&#45;&#45;Marketing&#45;i&#45;media&#45;spoecznociowe#Logo nr 2</title>
<path fill="none" stroke="#0061f2" d="M89.92,-394.2C96.81,-394.2 102.13,-394.2 102.13,-394.2 102.13,-394.2 102.13,-372.8 102.13,-372.8 102.13,-372.8 285.4,-372.8 432.87,-372.8"/>
</g>
<!-- q3k -->
<g id="node44" class="node">
<title>q3k</title>
<ellipse fill="none" stroke="black" cx="59.14" cy="-362" rx="27.9" ry="18"/>
<text text-anchor="middle" x="59.14" y="-358.3" font-family="Times,serif" font-size="14.00">q3k</text>
</g>
<!-- q3k&#45;&#45;Kanay&#45;komunikacji# -->
<g id="edge61" class="edge">
<title>q3k&#45;&#45;Kanay&#45;komunikacji#</title>
<path fill="none" stroke="#c60077" d="M86.9,-365.6C148.88,-365.6 293.13,-365.6 293.13,-365.6 293.13,-365.6 293.13,-566.2 293.13,-566.2 293.13,-566.2 432.66,-566.2 528.05,-566.2"/>
</g>
<!-- q3k&#45;&#45;Infrastruktura::Domeny#Domeny -->
<g id="edge62" class="edge">
<title>q3k&#45;&#45;Infrastruktura::Domeny#Domeny</title>
<path fill="none" stroke="#c60077" d="M81.55,-351.2C91.12,-351.2 100.13,-351.2 100.13,-351.2 100.13,-351.2 100.13,-325 100.13,-325 100.13,-325 306.07,-325 457.52,-325"/>
</g>
<!-- q3k&#45;&#45;Marketing&#45;i&#45;media&#45;spoecznociowe#Logo nr 2 -->
<g id="edge63" class="edge">
<title>q3k&#45;&#45;Marketing&#45;i&#45;media&#45;spoecznociowe#Logo nr 2</title>
<path fill="none" stroke="#c60077" d="M86.72,-358.4C142.66,-358.4 274.17,-358.4 392,-358.4"/>
</g>
<!-- kpc -->
<g id="node45" class="node">
<title>kpc</title>
<ellipse fill="none" stroke="black" cx="59.14" cy="-61" rx="27" ry="18"/>
<text text-anchor="middle" x="59.14" y="-57.3" font-family="Times,serif" font-size="14.00">kpc</text>
</g>
<!-- kpc&#45;&#45;Infrastruktura::Telegram#posty: t.me/hakierspejs_spam -->
<g id="edge64" class="edge">
<title>kpc&#45;&#45;Infrastruktura::Telegram#posty: t.me/hakierspejs_spam</title>
<path fill="none" stroke="#b6e400" d="M84.73,-67C105.42,-67 131.13,-67 131.13,-67 131.13,-67 131.13,-491 131.13,-491 131.13,-491 225.65,-491 331.17,-491"/>
</g>
<!-- Infrastruktura::Telegram#Posty wyklte (celowo bez linka) -->
<g id="node46" class="node">
<title>Infrastruktura::Telegram#Posty wyklte (celowo bez linka)</title>
<ellipse fill="none" stroke="black" cx="615.21" cy="-18" rx="284.05" ry="18"/>
<text text-anchor="middle" x="615.21" y="-14.3" font-family="Times,serif" font-size="14.00">Infrastruktura::Telegram#Posty wyklte (celowo bez linka)</text>
</g>
<!-- kpc&#45;&#45;Infrastruktura::Telegram#Posty wyklte (celowo bez linka) -->
<g id="edge65" class="edge">
<title>kpc&#45;&#45;Infrastruktura::Telegram#Posty wyklte (celowo bez linka)</title>
<path fill="none" stroke="#b6e400" d="M60.13,-42.51C60.13,-30.86 60.13,-18 60.13,-18 60.13,-18 194.59,-18 331.16,-18"/>
</g>
<!-- Czaty&#45;HS#HS: posty wyklte -->
<g id="node47" class="node">
<title>Czaty&#45;HS#HS: posty wyklte</title>
<ellipse fill="none" stroke="black" cx="615.21" cy="-61" rx="157.87" ry="18"/>
<text text-anchor="middle" x="615.21" y="-57.3" font-family="Times,serif" font-size="14.00">Czaty&#45;HS#HS: posty wyklte</text>
</g>
<!-- kpc&#45;&#45;Czaty&#45;HS#HS: posty wyklte -->
<g id="edge66" class="edge">
<title>kpc&#45;&#45;Czaty&#45;HS#HS: posty wyklte</title>
<path fill="none" stroke="#b6e400" d="M84.85,-55C151.49,-55 333.86,-55 466.16,-55"/>
</g>
</g>
</svg>
