<?xml version="1.0" encoding="UTF-8" standalone="no"?>
<!DOCTYPE svg PUBLIC "-//W3C//DTD SVG 1.1//EN"
 "http://www.w3.org/Graphics/SVG/1.1/DTD/svg11.dtd">
<!-- Generated by graphviz version 2.40.1 (20161225.0304)
 -->
<!-- Title: %3 Pages: 1 -->
<svg width="850pt" height="861pt"
 viewBox="0.00 0.00 850.04 861.00" xmlns="http://www.w3.org/2000/svg" xmlns:xlink="http://www.w3.org/1999/xlink">
<g id="graph0" class="graph" transform="scale(1 1) rotate(0) translate(4 857)">
<title>%3</title>
<polygon fill="#ffffff" stroke="transparent" points="-4,4 -4,-857 846.0381,-857 846.0381,4 -4,4"/>
<!-- kszmigiel -->
<g id="node1" class="node">
<title>kszmigiel</title>
<ellipse fill="none" stroke="#000000" cx="59.7947" cy="-674" rx="55.4913" ry="18"/>
<text text-anchor="middle" x="59.7947" y="-670.3" font-family="Times,serif" font-size="14.00" fill="#000000">kszmigiel</text>
</g>
<!-- Finanse#Naklejki -->
<g id="node2" class="node">
<title>Finanse#Naklejki</title>
<ellipse fill="none" stroke="#000000" cx="552.8137" cy="-749" rx="94.7833" ry="18"/>
<text text-anchor="middle" x="552.8137" y="-745.3" font-family="Times,serif" font-size="14.00" fill="#000000">Finanse#Naklejki</text>
</g>
<!-- kszmigiel&#45;&#45;Finanse#Naklejki -->
<g id="edge1" class="edge">
<title>kszmigiel&#45;&#45;Finanse#Naklejki</title>
<path fill="none" stroke="#ff0000" d="M100.5145,-686.25C157.4729,-686.25 254.0381,-686.25 254.0381,-686.25 254.0381,-686.25 254.0381,-737.25 254.0381,-737.25 254.0381,-737.25 392.4619,-737.25 480.8693,-737.25"/>
</g>
<!-- Miejsce::Miejsce#Klucze do spejsu -->
<g id="node3" class="node">
<title>Miejsce::Miejsce#Klucze do spejsu</title>
<ellipse fill="none" stroke="#000000" cx="552.8137" cy="-319" rx="174.6691" ry="18"/>
<text text-anchor="middle" x="552.8137" y="-315.3" font-family="Times,serif" font-size="14.00" fill="#000000">Miejsce::Miejsce#Klucze do spejsu</text>
</g>
<!-- kszmigiel&#45;&#45;Miejsce::Miejsce#Klucze do spejsu -->
<g id="edge2" class="edge">
<title>kszmigiel&#45;&#45;Miejsce::Miejsce#Klucze do spejsu</title>
<path fill="none" stroke="#ff0000" d="M98.243,-661C149.2819,-661 233.0381,-661 233.0381,-661 233.0381,-661 233.0381,-333.25 233.0381,-333.25 233.0381,-333.25 352.9274,-333.25 445.8885,-333.25"/>
</g>
<!-- Infrastruktura#Naklejki -->
<g id="node4" class="node">
<title>Infrastruktura#Naklejki</title>
<ellipse fill="none" stroke="#000000" cx="552.8137" cy="-706" rx="125.3778" ry="18"/>
<text text-anchor="middle" x="552.8137" y="-702.3" font-family="Times,serif" font-size="14.00" fill="#000000">Infrastruktura#Naklejki</text>
</g>
<!-- kszmigiel&#45;&#45;Infrastruktura#Naklejki -->
<g id="edge3" class="edge">
<title>kszmigiel&#45;&#45;Infrastruktura#Naklejki</title>
<path fill="none" stroke="#ff0000" d="M108.0774,-682.75C208.7973,-682.75 432.0381,-682.75 432.0381,-682.75 432.0381,-682.75 432.0381,-694.2444 432.0381,-701.0693"/>
</g>
<!-- Infrastruktura#t.me/hakierspejs_spam -->
<g id="node5" class="node">
<title>Infrastruktura#t.me/hakierspejs_spam</title>
<ellipse fill="none" stroke="#000000" cx="552.8137" cy="-577" rx="193.0657" ry="18"/>
<text text-anchor="middle" x="552.8137" y="-573.3" font-family="Times,serif" font-size="14.00" fill="#000000">Infrastruktura#t.me/hakierspejs_spam</text>
</g>
<!-- kszmigiel&#45;&#45;Infrastruktura#t.me/hakierspejs_spam -->
<g id="edge4" class="edge">
<title>kszmigiel&#45;&#45;Infrastruktura#t.me/hakierspejs_spam</title>
<path fill="none" stroke="#ff0000" d="M109.3983,-666C198.1751,-666 375.0381,-666 375.0381,-666 375.0381,-666 375.0381,-605.539 375.0381,-584.2832"/>
</g>
<!-- Infrastruktura#Meetup -->
<g id="node6" class="node">
<title>Infrastruktura#Meetup</title>
<ellipse fill="none" stroke="#000000" cx="552.8137" cy="-792" rx="121.5784" ry="18"/>
<text text-anchor="middle" x="552.8137" y="-788.3" font-family="Times,serif" font-size="14.00" fill="#000000">Infrastruktura#Meetup</text>
</g>
<!-- kszmigiel&#45;&#45;Infrastruktura#Meetup -->
<g id="edge5" class="edge">
<title>kszmigiel&#45;&#45;Infrastruktura#Meetup</title>
<path fill="none" stroke="#ff0000" d="M104.7945,-684.5C174.0975,-684.5 299.0381,-684.5 299.0381,-684.5 299.0381,-684.5 299.0381,-786 299.0381,-786 299.0381,-786 370.9239,-786 438.1764,-786"/>
</g>
<!-- Infrastruktura#t.me/hakierspejs -->
<g id="node7" class="node">
<title>Infrastruktura#t.me/hakierspejs</title>
<ellipse fill="none" stroke="#000000" cx="552.8137" cy="-620" rx="163.2712" ry="18"/>
<text text-anchor="middle" x="552.8137" y="-616.3" font-family="Times,serif" font-size="14.00" fill="#000000">Infrastruktura#t.me/hakierspejs</text>
</g>
<!-- kszmigiel&#45;&#45;Infrastruktura#t.me/hakierspejs -->
<g id="edge6" class="edge">
<title>kszmigiel&#45;&#45;Infrastruktura#t.me/hakierspejs</title>
<path fill="none" stroke="#ff0000" d="M114.4462,-671C213.3849,-671 412.0381,-671 412.0381,-671 412.0381,-671 412.0381,-644.0775 412.0381,-629.3542"/>
</g>
<!-- q3k -->
<g id="node8" class="node">
<title>q3k</title>
<ellipse fill="none" stroke="#000000" cx="59.7947" cy="-147" rx="28.6953" ry="18"/>
<text text-anchor="middle" x="59.7947" y="-143.3" font-family="Times,serif" font-size="14.00" fill="#000000">q3k</text>
</g>
<!-- Infrastruktura#Lista mailingowa -->
<g id="node9" class="node">
<title>Infrastruktura#Lista mailingowa</title>
<ellipse fill="none" stroke="#000000" cx="552.8137" cy="-233" rx="165.1707" ry="18"/>
<text text-anchor="middle" x="552.8137" y="-229.3" font-family="Times,serif" font-size="14.00" fill="#000000">Infrastruktura#Lista mailingowa</text>
</g>
<!-- q3k&#45;&#45;Infrastruktura#Lista mailingowa -->
<g id="edge7" class="edge">
<title>q3k&#45;&#45;Infrastruktura#Lista mailingowa</title>
<path fill="none" stroke="#2bd500" d="M88.6719,-147C172.3462,-147 409.0381,-147 409.0381,-147 409.0381,-147 409.0381,-202.1476 409.0381,-224.1204"/>
</g>
<!-- Infrastruktura#Domeny -->
<g id="node10" class="node">
<title>Infrastruktura#Domeny</title>
<ellipse fill="none" stroke="#000000" cx="552.8137" cy="-147" rx="124.2781" ry="18"/>
<text text-anchor="middle" x="552.8137" y="-143.3" font-family="Times,serif" font-size="14.00" fill="#000000">Infrastruktura#Domeny</text>
</g>
<!-- q3k&#45;&#45;Infrastruktura#Domeny -->
<g id="edge8" class="edge">
<title>q3k&#45;&#45;Infrastruktura#Domeny</title>
<path fill="none" stroke="#2bd500" d="M84.5815,-138C149.6536,-138 328.3811,-138 445.2448,-138"/>
</g>
<!-- d33tah -->
<g id="node11" class="node">
<title>d33tah</title>
<ellipse fill="none" stroke="#000000" cx="59.7947" cy="-405" rx="43.5923" ry="18"/>
<text text-anchor="middle" x="59.7947" y="-401.3" font-family="Times,serif" font-size="14.00" fill="#000000">d33tah</text>
</g>
<!-- d33tah&#45;&#45;Miejsce::Miejsce#Klucze do spejsu -->
<g id="edge10" class="edge">
<title>d33tah&#45;&#45;Miejsce::Miejsce#Klucze do spejsu</title>
<path fill="none" stroke="#0061f2" d="M98.8955,-396.8182C147.1897,-396.8182 223.0381,-396.8182 223.0381,-396.8182 223.0381,-396.8182 223.0381,-329.5 223.0381,-329.5 223.0381,-329.5 321.3129,-329.5 410.5664,-329.5"/>
</g>
<!-- d33tah&#45;&#45;Infrastruktura#t.me/hakierspejs_spam -->
<g id="edge14" class="edge">
<title>d33tah&#45;&#45;Infrastruktura#t.me/hakierspejs_spam</title>
<path fill="none" stroke="#0061f2" d="M98.861,-413.1818C144.2632,-413.1818 213.0381,-413.1818 213.0381,-413.1818 213.0381,-413.1818 213.0381,-564 213.0381,-564 213.0381,-564 323.9311,-564 419.0131,-564"/>
</g>
<!-- d33tah&#45;&#45;Infrastruktura#Meetup -->
<g id="edge20" class="edge">
<title>d33tah&#45;&#45;Infrastruktura#Meetup</title>
<path fill="none" stroke="#0061f2" d="M101.9535,-409.9091C172.0722,-409.9091 305.0381,-409.9091 305.0381,-409.9091 305.0381,-409.9091 305.0381,-780 305.0381,-780 305.0381,-780 391.2431,-780 461.9582,-780"/>
</g>
<!-- d33tah&#45;&#45;Infrastruktura#t.me/hakierspejs -->
<g id="edge21" class="edge">
<title>d33tah&#45;&#45;Infrastruktura#t.me/hakierspejs</title>
<path fill="none" stroke="#0061f2" d="M93.5044,-416.4545C135.5677,-416.4545 202.0381,-416.4545 202.0381,-416.4545 202.0381,-416.4545 202.0381,-607 202.0381,-607 202.0381,-607 337.3524,-607 439.8953,-607"/>
</g>
<!-- d33tah&#45;&#45;Infrastruktura#Lista mailingowa -->
<g id="edge15" class="edge">
<title>d33tah&#45;&#45;Infrastruktura#Lista mailingowa</title>
<path fill="none" stroke="#0061f2" d="M85.0815,-390.2727C115.0691,-390.2727 161.0381,-390.2727 161.0381,-390.2727 161.0381,-390.2727 161.0381,-243.5 161.0381,-243.5 161.0381,-243.5 305.1237,-243.5 418.5349,-243.5"/>
</g>
<!-- d33tah&#45;&#45;Infrastruktura#Domeny -->
<g id="edge19" class="edge">
<title>d33tah&#45;&#45;Infrastruktura#Domeny</title>
<path fill="none" stroke="#0061f2" d="M101.9296,-400.0909C166.1214,-400.0909 281.0381,-400.0909 281.0381,-400.0909 281.0381,-400.0909 281.0381,-156 281.0381,-156 281.0381,-156 369.1324,-156 445.0104,-156"/>
</g>
<!-- Infrastruktura#Pad -->
<g id="node12" class="node">
<title>Infrastruktura#Pad</title>
<ellipse fill="none" stroke="#000000" cx="552.8137" cy="-448" rx="102.8821" ry="18"/>
<text text-anchor="middle" x="552.8137" y="-444.3" font-family="Times,serif" font-size="14.00" fill="#000000">Infrastruktura#Pad</text>
</g>
<!-- d33tah&#45;&#45;Infrastruktura#Pad -->
<g id="edge9" class="edge">
<title>d33tah&#45;&#45;Infrastruktura#Pad</title>
<path fill="none" stroke="#0061f2" d="M74.0381,-422.4897C74.0381,-434.3945 74.0381,-448 74.0381,-448 74.0381,-448 309.4243,-448 450.1043,-448"/>
</g>
<!-- Infrastruktura#Hosting -->
<g id="node13" class="node">
<title>Infrastruktura#Hosting</title>
<ellipse fill="none" stroke="#000000" cx="552.8137" cy="-276" rx="122.6784" ry="18"/>
<text text-anchor="middle" x="552.8137" y="-272.3" font-family="Times,serif" font-size="14.00" fill="#000000">Infrastruktura#Hosting</text>
</g>
<!-- d33tah&#45;&#45;Infrastruktura#Hosting -->
<g id="edge11" class="edge">
<title>d33tah&#45;&#45;Infrastruktura#Hosting</title>
<path fill="none" stroke="#0061f2" d="M93.4733,-393.5455C126.2151,-393.5455 171.0381,-393.5455 171.0381,-393.5455 171.0381,-393.5455 171.0381,-288 171.0381,-288 171.0381,-288 347.9161,-288 460.8831,-288"/>
</g>
<!-- Infrastruktura#Github -->
<g id="node14" class="node">
<title>Infrastruktura#Github</title>
<ellipse fill="none" stroke="#000000" cx="552.8137" cy="-663" rx="117.7793" ry="18"/>
<text text-anchor="middle" x="552.8137" y="-659.3" font-family="Times,serif" font-size="14.00" fill="#000000">Infrastruktura#Github</text>
</g>
<!-- d33tah&#45;&#45;Infrastruktura#Github -->
<g id="edge12" class="edge">
<title>d33tah&#45;&#45;Infrastruktura#Github</title>
<path fill="none" stroke="#0061f2" d="M85.0553,-419.7273C108.9044,-419.7273 141.0381,-419.7273 141.0381,-419.7273 141.0381,-419.7273 141.0381,-650.5 141.0381,-650.5 141.0381,-650.5 347.4509,-650.5 467.9928,-650.5"/>
</g>
<!-- Infrastruktura#IRC -->
<g id="node15" class="node">
<title>Infrastruktura#IRC</title>
<ellipse fill="none" stroke="#000000" cx="552.8137" cy="-491" rx="103.9815" ry="18"/>
<text text-anchor="middle" x="552.8137" y="-487.3" font-family="Times,serif" font-size="14.00" fill="#000000">Infrastruktura#IRC</text>
</g>
<!-- d33tah&#45;&#45;Infrastruktura#IRC -->
<g id="edge13" class="edge">
<title>d33tah&#45;&#45;Infrastruktura#IRC</title>
<path fill="none" stroke="#0061f2" d="M46.0381,-422.1418C46.0381,-445.3764 46.0381,-484 46.0381,-484 46.0381,-484 309.9778,-484 456.8973,-484"/>
</g>
<!-- Infrastruktura#Lelegram (na shitpostach) -->
<g id="node16" class="node">
<title>Infrastruktura#Lelegram (na shitpostach)</title>
<ellipse fill="none" stroke="#000000" cx="552.8137" cy="-405" rx="207.9631" ry="18"/>
<text text-anchor="middle" x="552.8137" y="-401.3" font-family="Times,serif" font-size="14.00" fill="#000000">Infrastruktura#Lelegram (na shitpostach)</text>
</g>
<!-- d33tah&#45;&#45;Infrastruktura#Lelegram (na shitpostach) -->
<g id="edge16" class="edge">
<title>d33tah&#45;&#45;Infrastruktura#Lelegram (na shitpostach)</title>
<path fill="none" stroke="#0061f2" d="M103.5468,-406.6364C158.1621,-406.6364 255.3814,-406.6364 345.4469,-406.6364"/>
</g>
<!-- Infrastruktura#Forum -->
<g id="node17" class="node">
<title>Infrastruktura#Forum</title>
<ellipse fill="none" stroke="#000000" cx="552.8137" cy="-190" rx="116.1796" ry="18"/>
<text text-anchor="middle" x="552.8137" y="-186.3" font-family="Times,serif" font-size="14.00" fill="#000000">Infrastruktura#Forum</text>
</g>
<!-- d33tah&#45;&#45;Infrastruktura#Forum -->
<g id="edge17" class="edge">
<title>d33tah&#45;&#45;Infrastruktura#Forum</title>
<path fill="none" stroke="#0061f2" d="M103.3406,-403.3636C169.3246,-403.3636 287.0381,-403.3636 287.0381,-403.3636 287.0381,-403.3636 287.0381,-202.8 287.0381,-202.8 287.0381,-202.8 392.8124,-202.8 470.9036,-202.8"/>
</g>
<!-- Infrastruktura#Grafana -->
<g id="node18" class="node">
<title>Infrastruktura#Grafana</title>
<ellipse fill="none" stroke="#000000" cx="552.8137" cy="-362" rx="122.6784" ry="18"/>
<text text-anchor="middle" x="552.8137" y="-358.3" font-family="Times,serif" font-size="14.00" fill="#000000">Infrastruktura#Grafana</text>
</g>
<!-- d33tah&#45;&#45;Infrastruktura#Grafana -->
<g id="edge18" class="edge">
<title>d33tah&#45;&#45;Infrastruktura#Grafana</title>
<path fill="none" stroke="#0061f2" d="M60.0381,-387C60.0381,-378 60.0381,-369 60.0381,-369 60.0381,-369 293.9451,-369 439.4518,-369"/>
</g>
<!-- cytP450 -->
<g id="node19" class="node">
<title>cytP450</title>
<ellipse fill="none" stroke="#000000" cx="59.7947" cy="-200" rx="49.2915" ry="18"/>
<text text-anchor="middle" x="59.7947" y="-196.3" font-family="Times,serif" font-size="14.00" fill="#000000">cytP450</text>
</g>
<!-- cytP450&#45;&#45;Miejsce::Miejsce#Klucze do spejsu -->
<g id="edge24" class="edge">
<title>cytP450&#45;&#45;Miejsce::Miejsce#Klucze do spejsu</title>
<path fill="none" stroke="#c60077" d="M97.8253,-211.5C183.2721,-211.5 383.0381,-211.5 383.0381,-211.5 383.0381,-211.5 383.0381,-294.5412 383.0381,-314.6527"/>
</g>
<!-- cytP450&#45;&#45;Infrastruktura#Domeny -->
<g id="edge23" class="edge">
<title>cytP450&#45;&#45;Infrastruktura#Domeny</title>
<path fill="none" stroke="#c60077" d="M94.5734,-187.2C187.2311,-187.2 433.0381,-187.2 433.0381,-187.2 433.0381,-187.2 433.0381,-162.6639 433.0381,-151.9293"/>
</g>
<!-- cytP450&#45;&#45;Infrastruktura#Hosting -->
<g id="edge22" class="edge">
<title>cytP450&#45;&#45;Infrastruktura#Hosting</title>
<path fill="none" stroke="#c60077" d="M93.0381,-213.468C93.0381,-232.5069 93.0381,-265 93.0381,-265 93.0381,-265 320.3441,-265 455.3071,-265"/>
</g>
<!-- cytP450&#45;&#45;Infrastruktura#Forum -->
<g id="edge25" class="edge">
<title>cytP450&#45;&#45;Infrastruktura#Forum</title>
<path fill="none" stroke="#c60077" d="M104.8538,-192.4C179.5542,-192.4 331.3092,-192.4 437.3908,-192.4"/>
</g>
<!-- Martti25 -->
<g id="node20" class="node">
<title>Martti25</title>
<ellipse fill="none" stroke="#000000" cx="59.7947" cy="-738" rx="51.9908" ry="18"/>
<text text-anchor="middle" x="59.7947" y="-734.3" font-family="Times,serif" font-size="14.00" fill="#000000">Martti25</text>
</g>
<!-- Martti25&#45;&#45;Infrastruktura#Meetup -->
<g id="edge27" class="edge">
<title>Martti25&#45;&#45;Infrastruktura#Meetup</title>
<path fill="none" stroke="#b6e400" d="M109.3699,-743.5C213.418,-743.5 445.0381,-743.5 445.0381,-743.5 445.0381,-743.5 445.0381,-769.6564 445.0381,-783.5519"/>
</g>
<!-- Martti25&#45;&#45;Infrastruktura#t.me/hakierspejs -->
<g id="edge29" class="edge">
<title>Martti25&#45;&#45;Infrastruktura#t.me/hakierspejs</title>
<path fill="none" stroke="#b6e400" d="M104.3289,-728.6667C200.7123,-728.6667 420.0381,-728.6667 420.0381,-728.6667 420.0381,-728.6667 420.0381,-658.3026 420.0381,-630.8167"/>
</g>
<!-- Martti25&#45;&#45;Infrastruktura#Github -->
<g id="edge28" class="edge">
<title>Martti25&#45;&#45;Infrastruktura#Github</title>
<path fill="none" stroke="#b6e400" d="M99.5558,-726.3333C153.4491,-726.3333 243.0381,-726.3333 243.0381,-726.3333 243.0381,-726.3333 243.0381,-676 243.0381,-676 243.0381,-676 379.6426,-676 471.4238,-676"/>
</g>
<!-- Infrastruktura#Konto na Fejsie -->
<g id="node21" class="node">
<title>Infrastruktura#Konto na Fejsie</title>
<ellipse fill="none" stroke="#000000" cx="552.8137" cy="-835" rx="157.0724" ry="18"/>
<text text-anchor="middle" x="552.8137" y="-831.3" font-family="Times,serif" font-size="14.00" fill="#000000">Infrastruktura#Konto na Fejsie</text>
</g>
<!-- Martti25&#45;&#45;Infrastruktura#Konto na Fejsie -->
<g id="edge26" class="edge">
<title>Martti25&#45;&#45;Infrastruktura#Konto na Fejsie</title>
<path fill="none" stroke="#b6e400" d="M99.2838,-749.75C189.7054,-749.75 404.0381,-749.75 404.0381,-749.75 404.0381,-749.75 404.0381,-809.88 404.0381,-829.1404"/>
</g>
<!-- biniu -->
<g id="node22" class="node">
<title>biniu</title>
<ellipse fill="none" stroke="#000000" cx="59.7947" cy="-792" rx="34.394" ry="18"/>
<text text-anchor="middle" x="59.7947" y="-788.3" font-family="Times,serif" font-size="14.00" fill="#000000">biniu</text>
</g>
<!-- biniu&#45;&#45;Infrastruktura#Meetup -->
<g id="edge30" class="edge">
<title>biniu&#45;&#45;Infrastruktura#Meetup</title>
<path fill="none" stroke="#00ffff" d="M92.5249,-798C161.7223,-798 325.7222,-798 438.0467,-798"/>
</g>
<!-- nikolaad -->
<g id="node23" class="node">
<title>nikolaad</title>
<ellipse fill="none" stroke="#000000" cx="59.7947" cy="-835" rx="50.0912" ry="18"/>
<text text-anchor="middle" x="59.7947" y="-831.3" font-family="Times,serif" font-size="14.00" fill="#000000">nikolaad</text>
</g>
<!-- nikolaad&#45;&#45;Infrastruktura#Meetup -->
<g id="edge32" class="edge">
<title>nikolaad&#45;&#45;Infrastruktura#Meetup</title>
<path fill="none" stroke="#ab00d5" d="M103.0381,-825.8666C103.0381,-816.7224 103.0381,-804 103.0381,-804 103.0381,-804 330.6815,-804 462.0656,-804"/>
</g>
<!-- nikolaad&#45;&#45;Infrastruktura#Konto na Fejsie -->
<g id="edge31" class="edge">
<title>nikolaad&#45;&#45;Infrastruktura#Konto na Fejsie</title>
<path fill="none" stroke="#ab00d5" d="M107.0674,-841C174.9126,-841 302.8971,-841 404.3826,-841"/>
</g>
<!-- Keij0 -->
<g id="node24" class="node">
<title>Keij0</title>
<ellipse fill="none" stroke="#000000" cx="59.7947" cy="-556" rx="34.394" ry="18"/>
<text text-anchor="middle" x="59.7947" y="-552.3" font-family="Times,serif" font-size="14.00" fill="#000000">Keij0</text>
</g>
<!-- Keij0&#45;&#45;Infrastruktura#Meetup -->
<g id="edge34" class="edge">
<title>Keij0&#45;&#45;Infrastruktura#Meetup</title>
<path fill="none" stroke="#f29100" d="M83.9685,-569C104.2874,-569 130.0381,-569 130.0381,-569 130.0381,-569 130.0381,-792 130.0381,-792 130.0381,-792 306.2004,-792 431.0967,-792"/>
</g>
<!-- Keij0&#45;&#45;Infrastruktura#Hosting -->
<g id="edge33" class="edge">
<title>Keij0&#45;&#45;Infrastruktura#Hosting</title>
<path fill="none" stroke="#f29100" d="M87.2285,-545C123.2699,-545 182.0381,-545 182.0381,-545 182.0381,-545 182.0381,-291 182.0381,-291 182.0381,-291 377.768,-291 484.8078,-291"/>
</g>
<!-- BluRaf -->
<g id="node25" class="node">
<title>BluRaf</title>
<ellipse fill="none" stroke="#000000" cx="59.7947" cy="-513" rx="42.4939" ry="18"/>
<text text-anchor="middle" x="59.7947" y="-509.3" font-family="Times,serif" font-size="14.00" fill="#000000">BluRaf</text>
</g>
<!-- BluRaf&#45;&#45;Infrastruktura#t.me/hakierspejs_spam -->
<g id="edge38" class="edge">
<title>BluRaf&#45;&#45;Infrastruktura#t.me/hakierspejs_spam</title>
<path fill="none" stroke="#00c64f" d="M96.6306,-522C183.7177,-522 395.0381,-522 395.0381,-522 395.0381,-522 395.0381,-550.4131 395.0381,-566.3954"/>
</g>
<!-- BluRaf&#45;&#45;Infrastruktura#t.me/hakierspejs -->
<g id="edge41" class="edge">
<title>BluRaf&#45;&#45;Infrastruktura#t.me/hakierspejs</title>
<path fill="none" stroke="#00c64f" d="M83.4372,-528C121.475,-528 192.0381,-528 192.0381,-528 192.0381,-528 192.0381,-612 192.0381,-612 192.0381,-612 306.5864,-612 406.5925,-612"/>
</g>
<!-- BluRaf&#45;&#45;Infrastruktura#IRC -->
<g id="edge37" class="edge">
<title>BluRaf&#45;&#45;Infrastruktura#IRC</title>
<path fill="none" stroke="#00c64f" d="M98.4811,-505.5C183.6065,-505.5 387.7595,-505.5 490.9185,-505.5"/>
</g>
<!-- BluRaf&#45;&#45;Infrastruktura#Konto na Fejsie -->
<g id="edge40" class="edge">
<title>BluRaf&#45;&#45;Infrastruktura#Konto na Fejsie</title>
<path fill="none" stroke="#00c64f" d="M91.7021,-525C151.8539,-525 276.0381,-525 276.0381,-525 276.0381,-525 276.0381,-829 276.0381,-829 276.0381,-829 338.6397,-829 404.2981,-829"/>
</g>
<!-- Infrastruktura#Mumble -->
<g id="node26" class="node">
<title>Infrastruktura#Mumble</title>
<ellipse fill="none" stroke="#000000" cx="552.8137" cy="-534" rx="124.2781" ry="18"/>
<text text-anchor="middle" x="552.8137" y="-530.3" font-family="Times,serif" font-size="14.00" fill="#000000">Infrastruktura#Mumble</text>
</g>
<!-- BluRaf&#45;&#45;Infrastruktura#Mumble -->
<g id="edge35" class="edge">
<title>BluRaf&#45;&#45;Infrastruktura#Mumble</title>
<path fill="none" stroke="#00c64f" d="M99.7229,-519C183.7393,-519 379.6376,-519 484.1932,-519"/>
</g>
<!-- Infrastruktura#hs&#45;ldz:hackerspace.pl -->
<g id="node27" class="node">
<title>Infrastruktura#hs&#45;ldz:hackerspace.pl</title>
<ellipse fill="none" stroke="#000000" cx="552.8137" cy="-104" rx="186.5669" ry="18"/>
<text text-anchor="middle" x="552.8137" y="-100.3" font-family="Times,serif" font-size="14.00" fill="#000000">Infrastruktura#hs&#45;ldz:hackerspace.pl</text>
</g>
<!-- BluRaf&#45;&#45;Infrastruktura#hs&#45;ldz:hackerspace.pl -->
<g id="edge36" class="edge">
<title>BluRaf&#45;&#45;Infrastruktura#hs&#45;ldz:hackerspace.pl</title>
<path fill="none" stroke="#00c64f" d="M85.155,-498.5C141.0733,-498.5 270.0381,-498.5 270.0381,-498.5 270.0381,-498.5 270.0381,-107.6 270.0381,-107.6 270.0381,-107.6 315.3706,-107.6 369.7342,-107.6"/>
</g>
<!-- Infrastruktura#hs&#45;ldz&#45;offtopic:hackerspace.pl -->
<g id="node28" class="node">
<title>Infrastruktura#hs&#45;ldz&#45;offtopic:hackerspace.pl</title>
<ellipse fill="none" stroke="#000000" cx="552.8137" cy="-61" rx="225.56" ry="18"/>
<text text-anchor="middle" x="552.8137" y="-57.3" font-family="Times,serif" font-size="14.00" fill="#000000">Infrastruktura#hs&#45;ldz&#45;offtopic:hackerspace.pl</text>
</g>
<!-- BluRaf&#45;&#45;Infrastruktura#hs&#45;ldz&#45;offtopic:hackerspace.pl -->
<g id="edge39" class="edge">
<title>BluRaf&#45;&#45;Infrastruktura#hs&#45;ldz&#45;offtopic:hackerspace.pl</title>
<path fill="none" stroke="#00c64f" d="M93.2367,-502C166.975,-502 337.0381,-502 337.0381,-502 337.0381,-502 337.0381,-116.0157 337.0381,-66.2599"/>
</g>
<!-- kpc21 -->
<g id="node29" class="node">
<title>kpc21</title>
<ellipse fill="none" stroke="#000000" cx="59.7947" cy="-599" rx="39.7935" ry="18"/>
<text text-anchor="middle" x="59.7947" y="-595.3" font-family="Times,serif" font-size="14.00" fill="#000000">kpc21</text>
</g>
<!-- kpc21&#45;&#45;Infrastruktura#t.me/hakierspejs_spam -->
<g id="edge42" class="edge">
<title>kpc21&#45;&#45;Infrastruktura#t.me/hakierspejs_spam</title>
<path fill="none" stroke="#2e00e4" d="M91.3852,-588C152.5403,-588 290.7011,-588 399.9952,-588"/>
</g>
<!-- ksiezak -->
<g id="node30" class="node">
<title>ksiezak</title>
<ellipse fill="none" stroke="#000000" cx="59.7947" cy="-61" rx="46.2923" ry="18"/>
<text text-anchor="middle" x="59.7947" y="-57.3" font-family="Times,serif" font-size="14.00" fill="#000000">ksiezak</text>
</g>
<!-- ksiezak&#45;&#45;Infrastruktura#hs&#45;ldz:hackerspace.pl -->
<g id="edge43" class="edge">
<title>ksiezak&#45;&#45;Infrastruktura#hs&#45;ldz:hackerspace.pl</title>
<path fill="none" stroke="#ff0000" d="M96.8116,-71.8C169.0991,-71.8 322.0381,-71.8 322.0381,-71.8 322.0381,-71.8 322.0381,-93.2 322.0381,-93.2 322.0381,-93.2 359.0343,-93.2 403.4009,-93.2"/>
</g>
<!-- ksiezak&#45;&#45;Infrastruktura#hs&#45;ldz&#45;offtopic:hackerspace.pl -->
<g id="edge44" class="edge">
<title>ksiezak&#45;&#45;Infrastruktura#hs&#45;ldz&#45;offtopic:hackerspace.pl</title>
<path fill="none" stroke="#ff0000" d="M105.293,-57.4C157.3793,-57.4 246.5126,-57.4 331.5866,-57.4"/>
</g>
<!-- Współdzielony&#45;kalendarz&#45;i&#45;lista&#45;kontaktów#Założenie konta -->
<g id="node31" class="node">
<title>Współdzielony&#45;kalendarz&#45;i&#45;lista&#45;kontaktów#Założenie konta</title>
<ellipse fill="none" stroke="#000000" cx="552.8137" cy="-18" rx="289.4488" ry="18"/>
<text text-anchor="middle" x="552.8137" y="-14.3" font-family="Times,serif" font-size="14.00" fill="#000000">Współdzielony&#45;kalendarz&#45;i&#45;lista&#45;kontaktów#Założenie konta</text>
</g>
<!-- ksiezak&#45;&#45;Współdzielony&#45;kalendarz&#45;i&#45;lista&#45;kontaktów#Założenie konta -->
<g id="edge45" class="edge">
<title>ksiezak&#45;&#45;Współdzielony&#45;kalendarz&#45;i&#45;lista&#45;kontaktów#Założenie konta</title>
<path fill="none" stroke="#ff0000" d="M96.781,-50.2C167.7427,-50.2 316.0381,-50.2 316.0381,-50.2 316.0381,-50.2 316.0381,-37.9344 316.0381,-28.5435"/>
</g>
<!-- thinkofher -->
<g id="node32" class="node">
<title>thinkofher</title>
<ellipse fill="none" stroke="#000000" cx="59.7947" cy="-104" rx="59.5901" ry="18"/>
<text text-anchor="middle" x="59.7947" y="-100.3" font-family="Times,serif" font-size="14.00" fill="#000000">thinkofher</text>
</g>
<!-- thinkofher&#45;&#45;Infrastruktura#Hosting -->
<g id="edge48" class="edge">
<title>thinkofher&#45;&#45;Infrastruktura#Hosting</title>
<path fill="none" stroke="#2bd500" d="M107.8401,-114.8C176.119,-114.8 293.0381,-114.8 293.0381,-114.8 293.0381,-114.8 293.0381,-261.5 293.0381,-261.5 293.0381,-261.5 402.9252,-261.5 479.7604,-261.5"/>
</g>
<!-- thinkofher&#45;&#45;Infrastruktura#Forum -->
<g id="edge49" class="edge">
<title>thinkofher&#45;&#45;Infrastruktura#Forum</title>
<path fill="none" stroke="#2bd500" d="M99.0381,-117.7307C99.0381,-138.8771 99.0381,-177 99.0381,-177 99.0381,-177 341.8136,-177 472.2106,-177"/>
</g>
<!-- thinkofher&#45;&#45;Infrastruktura#hs&#45;ldz:hackerspace.pl -->
<g id="edge46" class="edge">
<title>thinkofher&#45;&#45;Infrastruktura#hs&#45;ldz:hackerspace.pl</title>
<path fill="none" stroke="#2bd500" d="M118.7746,-100.4C180.6918,-100.4 281.1839,-100.4 369.8868,-100.4"/>
</g>
<!-- thinkofher&#45;&#45;Infrastruktura#hs&#45;ldz&#45;offtopic:hackerspace.pl -->
<g id="edge47" class="edge">
<title>thinkofher&#45;&#45;Infrastruktura#hs&#45;ldz&#45;offtopic:hackerspace.pl</title>
<path fill="none" stroke="#2bd500" d="M113.0381,-95.6443C113.0381,-84.0788 113.0381,-64.6 113.0381,-64.6 113.0381,-64.6 222.1247,-64.6 331.6375,-64.6"/>
</g>
<!-- kpc -->
<g id="node33" class="node">
<title>kpc</title>
<ellipse fill="none" stroke="#000000" cx="59.7947" cy="-254" rx="27.8951" ry="18"/>
<text text-anchor="middle" x="59.7947" y="-250.3" font-family="Times,serif" font-size="14.00" fill="#000000">kpc</text>
</g>
<!-- kpc&#45;&#45;Infrastruktura#Hosting -->
<g id="edge50" class="edge">
<title>kpc&#45;&#45;Infrastruktura#Hosting</title>
<path fill="none" stroke="#0061f2" d="M76.4808,-268.5C132.7454,-268.5 318.8044,-268.5 441.0478,-268.5"/>
</g>
<!-- pmysl -->
<g id="node34" class="node">
<title>pmysl</title>
<ellipse fill="none" stroke="#000000" cx="59.7947" cy="-297" rx="38.1938" ry="18"/>
<text text-anchor="middle" x="59.7947" y="-293.3" font-family="Times,serif" font-size="14.00" fill="#000000">pmysl</text>
</g>
<!-- pmysl&#45;&#45;Miejsce::Miejsce#Klucze do spejsu -->
<g id="edge53" class="edge">
<title>pmysl&#45;&#45;Miejsce::Miejsce#Klucze do spejsu</title>
<path fill="none" stroke="#c60077" d="M93.6819,-305.6667C162.9724,-305.6667 323.7267,-305.6667 435.3375,-305.6667"/>
</g>
<!-- pmysl&#45;&#45;Infrastruktura#Hosting -->
<g id="edge51" class="edge">
<title>pmysl&#45;&#45;Infrastruktura#Hosting</title>
<path fill="none" stroke="#c60077" d="M88.4325,-285C156.6626,-285 331.6657,-285 446.2818,-285"/>
</g>
<!-- pmysl&#45;&#45;Infrastruktura#Forum -->
<g id="edge54" class="edge">
<title>pmysl&#45;&#45;Infrastruktura#Forum</title>
<path fill="none" stroke="#c60077" d="M81.4181,-282C108.4,-282 151.0381,-282 151.0381,-282 151.0381,-282 151.0381,-197.6 151.0381,-197.6 151.0381,-197.6 328.2127,-197.6 447.2519,-197.6"/>
</g>
<!-- pmysl&#45;&#45;Infrastruktura#Grafana -->
<g id="edge52" class="edge">
<title>pmysl&#45;&#45;Infrastruktura#Grafana</title>
<path fill="none" stroke="#c60077" d="M85.6326,-310.3333C149.5694,-310.3333 310.0381,-310.3333 310.0381,-310.3333 310.0381,-310.3333 310.0381,-351 310.0381,-351 310.0381,-351 387.9244,-351 455.4664,-351"/>
</g>
<!-- nuke -->
<g id="node35" class="node">
<title>nuke</title>
<ellipse fill="none" stroke="#000000" cx="59.7947" cy="-340" rx="33.5952" ry="18"/>
<text text-anchor="middle" x="59.7947" y="-336.3" font-family="Times,serif" font-size="14.00" fill="#000000">nuke</text>
</g>
<!-- nuke&#45;&#45;Miejsce::Miejsce#Klucze do spejsu -->
<g id="edge55" class="edge">
<title>nuke&#45;&#45;Miejsce::Miejsce#Klucze do spejsu</title>
<path fill="none" stroke="#b6e400" d="M80.6642,-325.75C133.3569,-325.75 275.746,-325.75 390.4838,-325.75"/>
</g>
</g>
</svg>
