<?xml version="1.0" encoding="UTF-8" standalone="no"?>
<!DOCTYPE svg PUBLIC "-//W3C//DTD SVG 1.1//EN"
 "http://www.w3.org/Graphics/SVG/1.1/DTD/svg11.dtd">
<!-- Generated by graphviz version 2.43.0 (0)
 -->
<!-- Title: %3 Pages: 1 -->
<svg width="976pt" height="1291pt"
 viewBox="0.00 0.00 976.13 1291.00" xmlns="http://www.w3.org/2000/svg" xmlns:xlink="http://www.w3.org/1999/xlink">
<g id="graph0" class="graph" transform="scale(1 1) rotate(0) translate(4 1287)">
<title>%3</title>
<polygon fill="white" stroke="transparent" points="-4,4 -4,-1287 972.13,-1287 972.13,4 -4,4"/>
<!-- d33tah -->
<g id="node1" class="node">
<title>d33tah</title>
<ellipse fill="none" stroke="black" cx="59.14" cy="-813" rx="43.59" ry="18"/>
<text text-anchor="middle" x="59.14" y="-809.3" font-family="Times,serif" font-size="14.00">d33tah</text>
</g>
<!-- Bazy&#45;danych#Pad -->
<g id="node2" class="node">
<title>Bazy&#45;danych#Pad</title>
<ellipse fill="none" stroke="black" cx="615.21" cy="-1050" rx="94.48" ry="18"/>
<text text-anchor="middle" x="615.21" y="-1046.3" font-family="Times,serif" font-size="14.00">Bazy&#45;danych#Pad</text>
</g>
<!-- d33tah&#45;&#45;Bazy&#45;danych#Pad -->
<g id="edge1" class="edge">
<title>d33tah&#45;&#45;Bazy&#45;danych#Pad</title>
<path fill="none" stroke="#ff0000" d="M79.22,-829C92.36,-829 107.13,-829 107.13,-829 107.13,-829 107.13,-1050 107.13,-1050 107.13,-1050 373.9,-1050 520.83,-1050"/>
</g>
<!-- Infrastruktura::Domeny#Domeny -->
<g id="node3" class="node">
<title>Infrastruktura::Domeny#Domeny</title>
<ellipse fill="none" stroke="black" cx="615.21" cy="-319" rx="167.07" ry="18"/>
<text text-anchor="middle" x="615.21" y="-315.3" font-family="Times,serif" font-size="14.00">Infrastruktura::Domeny#Domeny</text>
</g>
<!-- d33tah&#45;&#45;Infrastruktura::Domeny#Domeny -->
<g id="edge2" class="edge">
<title>d33tah&#45;&#45;Infrastruktura::Domeny#Domeny</title>
<path fill="none" stroke="#ff0000" d="M102.76,-813.5C165.07,-813.5 272.13,-813.5 272.13,-813.5 272.13,-813.5 272.13,-328 272.13,-328 272.13,-328 376.57,-328 470.21,-328"/>
</g>
<!-- Infrastruktura::Mariuszbot#Mariuszbot -->
<g id="node4" class="node">
<title>Infrastruktura::Mariuszbot#Mariuszbot</title>
<ellipse fill="none" stroke="black" cx="615.21" cy="-964" rx="196.07" ry="18"/>
<text text-anchor="middle" x="615.21" y="-960.3" font-family="Times,serif" font-size="14.00">Infrastruktura::Mariuszbot#Mariuszbot</text>
</g>
<!-- d33tah&#45;&#45;Infrastruktura::Mariuszbot#Mariuszbot -->
<g id="edge3" class="edge">
<title>d33tah&#45;&#45;Infrastruktura::Mariuszbot#Mariuszbot</title>
<path fill="none" stroke="#ff0000" d="M86.72,-827C98.74,-827 110.13,-827 110.13,-827 110.13,-827 110.13,-949.5 110.13,-949.5 110.13,-949.5 349.54,-949.5 498.7,-949.5"/>
</g>
<!-- Bazy&#45;danych#Trello -->
<g id="node5" class="node">
<title>Bazy&#45;danych#Trello</title>
<ellipse fill="none" stroke="black" cx="615.21" cy="-921" rx="103.98" ry="18"/>
<text text-anchor="middle" x="615.21" y="-917.3" font-family="Times,serif" font-size="14.00">Bazy&#45;danych#Trello</text>
</g>
<!-- d33tah&#45;&#45;Bazy&#45;danych#Trello -->
<g id="edge4" class="edge">
<title>d33tah&#45;&#45;Bazy&#45;danych#Trello</title>
<path fill="none" stroke="#ff0000" d="M72.13,-830.34C72.13,-858.24 72.13,-910 72.13,-910 72.13,-910 380.8,-910 532.73,-910"/>
</g>
<!-- Kanay&#45;komunikacji# -->
<g id="node6" class="node">
<title>Kanay&#45;komunikacji#</title>
<ellipse fill="none" stroke="black" cx="615.21" cy="-577" rx="108.58" ry="18"/>
<text text-anchor="middle" x="615.21" y="-573.3" font-family="Times,serif" font-size="14.00">Kanay&#45;komunikacji#</text>
</g>
<!-- d33tah&#45;&#45;Kanay&#45;komunikacji# -->
<g id="edge5" class="edge">
<title>d33tah&#45;&#45;Kanay&#45;komunikacji#</title>
<path fill="none" stroke="#ff0000" d="M84.59,-798.33C119.81,-798.33 179.13,-798.33 179.13,-798.33 179.13,-798.33 179.13,-587 179.13,-587 179.13,-587 397.12,-587 524.85,-587"/>
</g>
<!-- Stowarzyszenie#Zarzd -->
<g id="node7" class="node">
<title>Stowarzyszenie#Zarzd</title>
<ellipse fill="none" stroke="black" cx="615.21" cy="-534" rx="123.48" ry="18"/>
<text text-anchor="middle" x="615.21" y="-530.3" font-family="Times,serif" font-size="14.00">Stowarzyszenie#Zarzd</text>
</g>
<!-- d33tah&#45;&#45;Stowarzyszenie#Zarzd -->
<g id="edge6" class="edge">
<title>d33tah&#45;&#45;Stowarzyszenie#Zarzd</title>
<path fill="none" stroke="#ff0000" d="M77.68,-796.67C99.01,-796.67 131.13,-796.67 131.13,-796.67 131.13,-796.67 131.13,-537.6 131.13,-537.6 131.13,-537.6 350.6,-537.6 493.99,-537.6"/>
</g>
<!-- Infrastruktura::Telegram#HS24: t.me/hsl_info -->
<g id="node8" class="node">
<title>Infrastruktura::Telegram#HS24: t.me/hsl_info</title>
<ellipse fill="none" stroke="black" cx="615.21" cy="-878" rx="231.26" ry="18"/>
<text text-anchor="middle" x="615.21" y="-874.3" font-family="Times,serif" font-size="14.00">Infrastruktura::Telegram#HS24: t.me/hsl_info</text>
</g>
<!-- d33tah&#45;&#45;Infrastruktura::Telegram#HS24: t.me/hsl_info -->
<g id="edge7" class="edge">
<title>d33tah&#45;&#45;Infrastruktura::Telegram#HS24: t.me/hsl_info</title>
<path fill="none" stroke="#ff0000" d="M98.29,-821C185.7,-821 389.13,-821 389.13,-821 389.13,-821 389.13,-860.83 389.13,-873.9"/>
</g>
<!-- Bazy&#45;danych#Grafana -->
<g id="node9" class="node">
<title>Bazy&#45;danych#Grafana</title>
<ellipse fill="none" stroke="black" cx="615.21" cy="-1179" rx="114.28" ry="18"/>
<text text-anchor="middle" x="615.21" y="-1175.3" font-family="Times,serif" font-size="14.00">Bazy&#45;danych#Grafana</text>
</g>
<!-- d33tah&#45;&#45;Bazy&#45;danych#Grafana -->
<g id="edge8" class="edge">
<title>d33tah&#45;&#45;Bazy&#45;danych#Grafana</title>
<path fill="none" stroke="#ff0000" d="M47.13,-830.64C47.13,-860.31 47.13,-917 47.13,-917 47.13,-917 155.13,-917 155.13,-917 155.13,-917 155.13,-1173 155.13,-1173 155.13,-1173 371.35,-1173 507.34,-1173"/>
</g>
<!-- Drzwi&#45;frontowe#Ekran  -->
<g id="node10" class="node">
<title>Drzwi&#45;frontowe#Ekran </title>
<ellipse fill="none" stroke="black" cx="615.21" cy="-835" rx="120.78" ry="18"/>
<text text-anchor="middle" x="615.21" y="-831.3" font-family="Times,serif" font-size="14.00">Drzwi&#45;frontowe#Ekran </text>
</g>
<!-- d33tah&#45;&#45;Drzwi&#45;frontowe#Ekran  -->
<g id="edge9" class="edge">
<title>d33tah&#45;&#45;Drzwi&#45;frontowe#Ekran </title>
<path fill="none" stroke="black" d="M100.49,-819C199.03,-819 447.82,-819 559.47,-819"/>
</g>
<!-- Infrastruktura::Telegram#posty: t.me/hakierspejs_spam -->
<g id="node14" class="node">
<title>Infrastruktura::Telegram#posty: t.me/hakierspejs_spam</title>
<ellipse fill="none" stroke="black" cx="615.21" cy="-491" rx="284.05" ry="18"/>
<text text-anchor="middle" x="615.21" y="-487.3" font-family="Times,serif" font-size="14.00">Infrastruktura::Telegram#posty: t.me/hakierspejs_spam</text>
</g>
<!-- d33tah&#45;&#45;Infrastruktura::Telegram#posty: t.me/hakierspejs_spam -->
<g id="edge10" class="edge">
<title>d33tah&#45;&#45;Infrastruktura::Telegram#posty: t.me/hakierspejs_spam</title>
<path fill="none" stroke="#ff0000" d="M96.11,-803.33C173.22,-803.33 344.13,-803.33 344.13,-803.33 344.13,-803.33 344.13,-537.9 344.13,-496.42"/>
</g>
<!-- Infrastruktura::IRC#IRC -->
<g id="node15" class="node">
<title>Infrastruktura::IRC#IRC</title>
<ellipse fill="none" stroke="black" cx="615.21" cy="-1136" rx="124.58" ry="18"/>
<text text-anchor="middle" x="615.21" y="-1132.3" font-family="Times,serif" font-size="14.00">Infrastruktura::IRC#IRC</text>
</g>
<!-- d33tah&#45;&#45;Infrastruktura::IRC#IRC -->
<g id="edge11" class="edge">
<title>d33tah&#45;&#45;Infrastruktura::IRC#IRC</title>
<path fill="none" stroke="#ff0000" d="M91.84,-825C123.62,-825 167.13,-825 167.13,-825 167.13,-825 167.13,-1125.2 167.13,-1125.2 167.13,-1125.2 383.15,-1125.2 515.21,-1125.2"/>
</g>
<!-- Infrastruktura::Github#Github -->
<g id="node16" class="node">
<title>Infrastruktura::Github#Github</title>
<ellipse fill="none" stroke="black" cx="615.21" cy="-792" rx="154.07" ry="18"/>
<text text-anchor="middle" x="615.21" y="-788.3" font-family="Times,serif" font-size="14.00">Infrastruktura::Github#Github</text>
</g>
<!-- d33tah&#45;&#45;Infrastruktura::Github#Github -->
<g id="edge12" class="edge">
<title>d33tah&#45;&#45;Infrastruktura::Github#Github</title>
<path fill="none" stroke="#ff0000" d="M100.03,-806.67C189.32,-806.67 403.51,-806.67 525.74,-806.67"/>
</g>
<!-- Infrastruktura::Telegram#G贸wny: t.me/hakierspejs -->
<g id="node17" class="node">
<title>Infrastruktura::Telegram#G贸wny: t.me/hakierspejs</title>
<ellipse fill="none" stroke="black" cx="615.21" cy="-706" rx="251.56" ry="18"/>
<text text-anchor="middle" x="615.21" y="-702.3" font-family="Times,serif" font-size="14.00">Infrastruktura::Telegram#G贸wny: t.me/hakierspejs</text>
</g>
<!-- d33tah&#45;&#45;Infrastruktura::Telegram#G贸wny: t.me/hakierspejs -->
<g id="edge13" class="edge">
<title>d33tah&#45;&#45;Infrastruktura::Telegram#G贸wny: t.me/hakierspejs</title>
<path fill="none" stroke="#ff0000" d="M98.4,-805C182.84,-805 374.13,-805 374.13,-805 374.13,-805 374.13,-731.89 374.13,-711.32"/>
</g>
<!-- Miejsce::Miejsce#Klucze do spejsu -->
<g id="node18" class="node">
<title>Miejsce::Miejsce#Klucze do spejsu</title>
<ellipse fill="none" stroke="black" cx="615.21" cy="-663" rx="172.77" ry="18"/>
<text text-anchor="middle" x="615.21" y="-659.3" font-family="Times,serif" font-size="14.00">Miejsce::Miejsce#Klucze do spejsu</text>
</g>
<!-- d33tah&#45;&#45;Miejsce::Miejsce#Klucze do spejsu -->
<g id="edge14" class="edge">
<title>d33tah&#45;&#45;Miejsce::Miejsce#Klucze do spejsu</title>
<path fill="none" stroke="#ff0000" d="M89.57,-800C137.97,-800 227.13,-800 227.13,-800 227.13,-800 227.13,-666.6 227.13,-666.6 227.13,-666.6 341.13,-666.6 445.55,-666.6"/>
</g>
<!-- Marketing&#45;i&#45;media&#45;spoecznociowe# -->
<g id="node19" class="node">
<title>Marketing&#45;i&#45;media&#45;spoecznociowe#</title>
<ellipse fill="none" stroke="black" cx="615.21" cy="-448" rx="183.07" ry="18"/>
<text text-anchor="middle" x="615.21" y="-444.3" font-family="Times,serif" font-size="14.00">Marketing&#45;i&#45;media&#45;spoecznociowe#</text>
</g>
<!-- d33tah&#45;&#45;Marketing&#45;i&#45;media&#45;spoecznociowe# -->
<g id="edge15" class="edge">
<title>d33tah&#45;&#45;Marketing&#45;i&#45;media&#45;spoecznociowe#</title>
<path fill="none" stroke="#ff0000" d="M93.12,-801.67C164.41,-801.67 323.13,-801.67 323.13,-801.67 323.13,-801.67 323.13,-462 323.13,-462 323.13,-462 418.13,-462 499.77,-462"/>
</g>
<!-- Infrastruktura::Telegram#Spacerspejs: t.me/joinchat/UYf2ONtNj21J1DS6 -->
<g id="node20" class="node">
<title>Infrastruktura::Telegram#Spacerspejs: t.me/joinchat/UYf2ONtNj21J1DS6</title>
<ellipse fill="none" stroke="black" cx="615.21" cy="-1093" rx="352.84" ry="18"/>
<text text-anchor="middle" x="615.21" y="-1089.3" font-family="Times,serif" font-size="14.00">Infrastruktura::Telegram#Spacerspejs: t.me/joinchat/UYf2ONtNj21J1DS6</text>
</g>
<!-- d33tah&#45;&#45;Infrastruktura::Telegram#Spacerspejs: t.me/joinchat/UYf2ONtNj21J1DS6 -->
<g id="edge16" class="edge">
<title>d33tah&#45;&#45;Infrastruktura::Telegram#Spacerspejs: t.me/joinchat/UYf2ONtNj21J1DS6</title>
<path fill="none" stroke="#ff0000" d="M95.63,-823C157.68,-823 277.13,-823 277.13,-823 277.13,-823 277.13,-1048.59 277.13,-1087.36"/>
</g>
<!-- nastpne -->
<g id="node11" class="node">
<title>nastpne</title>
<ellipse fill="none" stroke="black" cx="59.14" cy="-1179" rx="53.09" ry="18"/>
<text text-anchor="middle" x="59.14" y="-1175.3" font-family="Times,serif" font-size="14.00">nastpne</text>
</g>
<!-- spotkanie -->
<g id="node12" class="node">
<title>spotkanie</title>
<ellipse fill="none" stroke="black" cx="59.14" cy="-1222" rx="55.79" ry="18"/>
<text text-anchor="middle" x="59.14" y="-1218.3" font-family="Times,serif" font-size="14.00">spotkanie</text>
</g>
<g id="node13" class="node">
<title></title>
<ellipse fill="none" stroke="#ff0000" cx="59.14" cy="-1265" rx="27" ry="18"/>
</g>
<!-- kszmigiel -->
<g id="node21" class="node">
<title>kszmigiel</title>
<ellipse fill="none" stroke="black" cx="59.14" cy="-534" rx="54.69" ry="18"/>
<text text-anchor="middle" x="59.14" y="-530.3" font-family="Times,serif" font-size="14.00">kszmigiel</text>
</g>
<!-- kszmigiel&#45;&#45;Stowarzyszenie#Zarzd -->
<g id="edge18" class="edge">
<title>kszmigiel&#45;&#45;Stowarzyszenie#Zarzd</title>
<path fill="none" stroke="#2bd500" d="M112.71,-530.4C200.09,-530.4 375.42,-530.4 494.07,-530.4"/>
</g>
<!-- kszmigiel&#45;&#45;Infrastruktura::Telegram#posty: t.me/hakierspejs_spam -->
<g id="edge19" class="edge">
<title>kszmigiel&#45;&#45;Infrastruktura::Telegram#posty: t.me/hakierspejs_spam</title>
<path fill="none" stroke="#2bd500" d="M109.13,-526.51C109.13,-515.7 109.13,-497 109.13,-497 109.13,-497 225.96,-497 347.35,-497"/>
</g>
<!-- kszmigiel&#45;&#45;Infrastruktura::Github#Github -->
<g id="edge20" class="edge">
<title>kszmigiel&#45;&#45;Infrastruktura::Github#Github</title>
<path fill="none" stroke="#2bd500" d="M103.01,-544.8C149.15,-544.8 215.13,-544.8 215.13,-544.8 215.13,-544.8 215.13,-779.25 215.13,-779.25 215.13,-779.25 387.94,-779.25 506.41,-779.25"/>
</g>
<!-- kszmigiel&#45;&#45;Infrastruktura::Telegram#G贸wny: t.me/hakierspejs -->
<g id="edge21" class="edge">
<title>kszmigiel&#45;&#45;Infrastruktura::Telegram#G贸wny: t.me/hakierspejs</title>
<path fill="none" stroke="#2bd500" d="M100.13,-546.1C100.13,-584.09 100.13,-698.5 100.13,-698.5 100.13,-698.5 248.72,-698.5 386.29,-698.5"/>
</g>
<!-- kszmigiel&#45;&#45;Miejsce::Miejsce#Klucze do spejsu -->
<g id="edge22" class="edge">
<title>kszmigiel&#45;&#45;Miejsce::Miejsce#Klucze do spejsu</title>
<path fill="none" stroke="#2bd500" d="M110.13,-540.74C110.13,-566.79 110.13,-659.4 110.13,-659.4 110.13,-659.4 298.89,-659.4 445.62,-659.4"/>
</g>
<!-- kszmigiel&#45;&#45;Marketing&#45;i&#45;media&#45;spoecznociowe# -->
<g id="edge23" class="edge">
<title>kszmigiel&#45;&#45;Marketing&#45;i&#45;media&#45;spoecznociowe#</title>
<path fill="none" stroke="#2bd500" d="M105.13,-524.25C105.13,-501.33 105.13,-446 105.13,-446 105.13,-446 286.43,-446 432.86,-446"/>
</g>
<!-- Marketing&#45;i&#45;media&#45;spoecznociowe#Naklejki -->
<g id="node22" class="node">
<title>Marketing&#45;i&#45;media&#45;spoecznociowe#Naklejki</title>
<ellipse fill="none" stroke="black" cx="615.21" cy="-405" rx="221.76" ry="18"/>
<text text-anchor="middle" x="615.21" y="-401.3" font-family="Times,serif" font-size="14.00">Marketing&#45;i&#45;media&#45;spoecznociowe#Naklejki</text>
</g>
<!-- kszmigiel&#45;&#45;Marketing&#45;i&#45;media&#45;spoecznociowe#Naklejki -->
<g id="edge17" class="edge">
<title>kszmigiel&#45;&#45;Marketing&#45;i&#45;media&#45;spoecznociowe#Naklejki</title>
<path fill="none" stroke="#2bd500" d="M101.13,-522.23C101.13,-489.78 101.13,-401.4 101.13,-401.4 101.13,-401.4 257.63,-401.4 397.94,-401.4"/>
</g>
<!-- thinkofher -->
<g id="node23" class="node">
<title>thinkofher</title>
<ellipse fill="none" stroke="black" cx="59.14" cy="-727" rx="59.29" ry="18"/>
<text text-anchor="middle" x="59.14" y="-723.3" font-family="Times,serif" font-size="14.00">thinkofher</text>
</g>
<!-- thinkofher&#45;&#45;Kanay&#45;komunikacji# -->
<g id="edge26" class="edge">
<title>thinkofher&#45;&#45;Kanay&#45;komunikacji#</title>
<path fill="none" stroke="#0061f2" d="M105.13,-715.22C105.13,-680.82 105.13,-583 105.13,-583 105.13,-583 363.65,-583 512.6,-583"/>
</g>
<!-- thinkofher&#45;&#45;Infrastruktura::IRC#IRC -->
<g id="edge27" class="edge">
<title>thinkofher&#45;&#45;Infrastruktura::IRC#IRC</title>
<path fill="none" stroke="#0061f2" d="M106.13,-738.27C106.13,-803.74 106.13,-1132.4 106.13,-1132.4 106.13,-1132.4 341.99,-1132.4 492.62,-1132.4"/>
</g>
<!-- thinkofher&#45;&#45;Infrastruktura::Github#Github -->
<g id="edge25" class="edge">
<title>thinkofher&#45;&#45;Infrastruktura::Github#Github</title>
<path fill="none" stroke="#0061f2" d="M111.13,-735.73C111.13,-752.97 111.13,-789.75 111.13,-789.75 111.13,-789.75 313.92,-789.75 462.26,-789.75"/>
</g>
<!-- thinkofher&#45;&#45;Infrastruktura::Telegram#G贸wny: t.me/hakierspejs -->
<g id="edge30" class="edge">
<title>thinkofher&#45;&#45;Infrastruktura::Telegram#G贸wny: t.me/hakierspejs</title>
<path fill="none" stroke="#0061f2" d="M113.98,-720.25C193.99,-720.25 345.77,-720.25 461.43,-720.25"/>
</g>
<!-- thinkofher&#45;&#45;Marketing&#45;i&#45;media&#45;spoecznociowe# -->
<g id="edge31" class="edge">
<title>thinkofher&#45;&#45;Marketing&#45;i&#45;media&#45;spoecznociowe#</title>
<path fill="none" stroke="#0061f2" d="M95.29,-712.75C166.73,-712.75 319.13,-712.75 319.13,-712.75 319.13,-712.75 319.13,-458 319.13,-458 319.13,-458 390,-458 462.4,-458"/>
</g>
<!-- Bazy&#45;danych# -->
<g id="node24" class="node">
<title>Bazy&#45;danych#</title>
<ellipse fill="none" stroke="black" cx="615.21" cy="-1007" rx="77.19" ry="18"/>
<text text-anchor="middle" x="615.21" y="-1003.3" font-family="Times,serif" font-size="14.00">Bazy&#45;danych#</text>
</g>
<!-- thinkofher&#45;&#45;Bazy&#45;danych# -->
<g id="edge24" class="edge">
<title>thinkofher&#45;&#45;Bazy&#45;danych#</title>
<path fill="none" stroke="#0061f2" d="M109.13,-736.75C109.13,-785.56 109.13,-1001 109.13,-1001 109.13,-1001 402.01,-1001 542.16,-1001"/>
</g>
<!-- Infrastruktura::Matrix#hs&#45;ldz:hackerspace.pl -->
<g id="node25" class="node">
<title>Infrastruktura::Matrix#hs&#45;ldz:hackerspace.pl</title>
<ellipse fill="none" stroke="black" cx="615.21" cy="-749" rx="221.76" ry="18"/>
<text text-anchor="middle" x="615.21" y="-745.3" font-family="Times,serif" font-size="14.00">Infrastruktura::Matrix#hs&#45;ldz:hackerspace.pl</text>
</g>
<!-- thinkofher&#45;&#45;Infrastruktura::Matrix#hs&#45;ldz:hackerspace.pl -->
<g id="edge28" class="edge">
<title>thinkofher&#45;&#45;Infrastruktura::Matrix#hs&#45;ldz:hackerspace.pl</title>
<path fill="none" stroke="#0061f2" d="M106.08,-738C179,-738 323.23,-738 439.62,-738"/>
</g>
<!-- Infrastruktura::Matrix#hs&#45;ldz&#45;offtopic:hackerspace.pl -->
<g id="node26" class="node">
<title>Infrastruktura::Matrix#hs&#45;ldz&#45;offtopic:hackerspace.pl</title>
<ellipse fill="none" stroke="black" cx="615.21" cy="-620" rx="258.85" ry="18"/>
<text text-anchor="middle" x="615.21" y="-616.3" font-family="Times,serif" font-size="14.00">Infrastruktura::Matrix#hs&#45;ldz&#45;offtopic:hackerspace.pl</text>
</g>
<!-- thinkofher&#45;&#45;Infrastruktura::Matrix#hs&#45;ldz&#45;offtopic:hackerspace.pl -->
<g id="edge29" class="edge">
<title>thinkofher&#45;&#45;Infrastruktura::Matrix#hs&#45;ldz&#45;offtopic:hackerspace.pl</title>
<path fill="none" stroke="#0061f2" d="M107.5,-716.5C192.58,-716.5 360.13,-716.5 360.13,-716.5 360.13,-716.5 360.13,-639.95 360.13,-623.21"/>
</g>
<!-- kpc -->
<g id="node27" class="node">
<title>kpc</title>
<ellipse fill="none" stroke="black" cx="59.14" cy="-276" rx="27" ry="18"/>
<text text-anchor="middle" x="59.14" y="-272.3" font-family="Times,serif" font-size="14.00">kpc</text>
</g>
<!-- kpc&#45;&#45;Infrastruktura::Telegram#posty: t.me/hakierspejs_spam -->
<g id="edge34" class="edge">
<title>kpc&#45;&#45;Infrastruktura::Telegram#posty: t.me/hakierspejs_spam</title>
<path fill="none" stroke="#c60077" d="M84.71,-282C155.72,-282 350.13,-282 350.13,-282 350.13,-282 350.13,-449.24 350.13,-484.52"/>
</g>
<!-- kpc&#45;&#45;Marketing&#45;i&#45;media&#45;spoecznociowe# -->
<g id="edge36" class="edge">
<title>kpc&#45;&#45;Marketing&#45;i&#45;media&#45;spoecznociowe#</title>
<path fill="none" stroke="#c60077" d="M79.44,-288C137.84,-288 302.13,-288 302.13,-288 302.13,-288 302.13,-434 302.13,-434 302.13,-434 410.69,-434 499.96,-434"/>
</g>
<!-- Czaty&#45;HS#HS: posty wyklte -->
<g id="node28" class="node">
<title>Czaty&#45;HS#HS: posty wyklte</title>
<ellipse fill="none" stroke="black" cx="615.21" cy="-276" rx="157.87" ry="18"/>
<text text-anchor="middle" x="615.21" y="-272.3" font-family="Times,serif" font-size="14.00">Czaty&#45;HS#HS: posty wyklte</text>
</g>
<!-- kpc&#45;&#45;Czaty&#45;HS#HS: posty wyklte -->
<g id="edge32" class="edge">
<title>kpc&#45;&#45;Czaty&#45;HS#HS: posty wyklte</title>
<path fill="none" stroke="#c60077" d="M86.34,-276C152.63,-276 326.65,-276 457.09,-276"/>
</g>
<!-- Infrastruktura::Telegram#Posty wyklte (celowo bez linka) -->
<g id="node29" class="node">
<title>Infrastruktura::Telegram#Posty wyklte (celowo bez linka)</title>
<ellipse fill="none" stroke="black" cx="615.21" cy="-233" rx="284.05" ry="18"/>
<text text-anchor="middle" x="615.21" y="-229.3" font-family="Times,serif" font-size="14.00">Infrastruktura::Telegram#Posty wyklte (celowo bez linka)</text>
</g>
<!-- kpc&#45;&#45;Infrastruktura::Telegram#Posty wyklte (celowo bez linka) -->
<g id="edge33" class="edge">
<title>kpc&#45;&#45;Infrastruktura::Telegram#Posty wyklte (celowo bez linka)</title>
<path fill="none" stroke="#c60077" d="M84.78,-270C159.04,-270 369.13,-270 369.13,-270 369.13,-270 369.13,-253.3 369.13,-242.34"/>
</g>
<!-- Stowarzyszenie#Komisja Rewizyjna -->
<g id="node30" class="node">
<title>Stowarzyszenie#Komisja Rewizyjna</title>
<ellipse fill="none" stroke="black" cx="615.21" cy="-190" rx="178.17" ry="18"/>
<text text-anchor="middle" x="615.21" y="-186.3" font-family="Times,serif" font-size="14.00">Stowarzyszenie#Komisja Rewizyjna</text>
</g>
<!-- kpc&#45;&#45;Stowarzyszenie#Komisja Rewizyjna -->
<g id="edge35" class="edge">
<title>kpc&#45;&#45;Stowarzyszenie#Komisja Rewizyjna</title>
<path fill="none" stroke="#c60077" d="M79.59,-264C136.76,-264 294.13,-264 294.13,-264 294.13,-264 294.13,-200.8 294.13,-200.8 294.13,-200.8 386.75,-200.8 472.51,-200.8"/>
</g>
<!-- cytP450 -->
<g id="node31" class="node">
<title>cytP450</title>
<ellipse fill="none" stroke="black" cx="59.14" cy="-147" rx="48.99" ry="18"/>
<text text-anchor="middle" x="59.14" y="-143.3" font-family="Times,serif" font-size="14.00">cytP450</text>
</g>
<!-- cytP450&#45;&#45;Infrastruktura::Domeny#Domeny -->
<g id="edge44" class="edge">
<title>cytP450&#45;&#45;Infrastruktura::Domeny#Domeny</title>
<path fill="none" stroke="#b6e400" d="M107.94,-147C179.92,-147 306.13,-147 306.13,-147 306.13,-147 306.13,-310 306.13,-310 306.13,-310 389.87,-310 470.17,-310"/>
</g>
<!-- cytP450&#45;&#45;Kanay&#45;komunikacji# -->
<g id="edge39" class="edge">
<title>cytP450&#45;&#45;Kanay&#45;komunikacji#</title>
<path fill="none" stroke="#b6e400" d="M105.15,-153C171.22,-153 285.13,-153 285.13,-153 285.13,-153 285.13,-563 285.13,-563 285.13,-563 450.13,-563 546.82,-563"/>
</g>
<!-- cytP450&#45;&#45;Miejsce::Miejsce#Klucze do spejsu -->
<g id="edge43" class="edge">
<title>cytP450&#45;&#45;Miejsce::Miejsce#Klucze do spejsu</title>
<path fill="none" stroke="#b6e400" d="M95.55,-159C155.42,-159 268.13,-159 268.13,-159 268.13,-159 268.13,-652.2 268.13,-652.2 268.13,-652.2 379.86,-652.2 476.54,-652.2"/>
</g>
<!-- cytP450&#45;&#45;Stowarzyszenie#Komisja Rewizyjna -->
<g id="edge42" class="edge">
<title>cytP450&#45;&#45;Stowarzyszenie#Komisja Rewizyjna</title>
<path fill="none" stroke="#b6e400" d="M102.13,-155.8C102.13,-165.33 102.13,-179.2 102.13,-179.2 102.13,-179.2 320.8,-179.2 472.63,-179.2"/>
</g>
<!-- Chciejlista#DIY -->
<g id="node32" class="node">
<title>Chciejlista#DIY</title>
<ellipse fill="none" stroke="black" cx="615.21" cy="-147" rx="83.69" ry="18"/>
<text text-anchor="middle" x="615.21" y="-143.3" font-family="Times,serif" font-size="14.00">Chciejlista#DIY</text>
</g>
<!-- cytP450&#45;&#45;Chciejlista#DIY -->
<g id="edge37" class="edge">
<title>cytP450&#45;&#45;Chciejlista#DIY</title>
<path fill="none" stroke="#b6e400" d="M105.12,-141C199.84,-141 417.69,-141 535.73,-141"/>
</g>
<!-- Przegld&#45;lokali&#45;na&#45;wynajem&#45;w&#45;odzi.&#45;Fundusz&#45;1000&#45;&#45;&#45;1500.#Bot Aleksego -->
<g id="node33" class="node">
<title>Przegld&#45;lokali&#45;na&#45;wynajem&#45;w&#45;odzi.&#45;Fundusz&#45;1000&#45;&#45;&#45;1500.#Bot Aleksego</title>
<ellipse fill="none" stroke="black" cx="615.21" cy="-104" rx="351.74" ry="18"/>
<text text-anchor="middle" x="615.21" y="-100.3" font-family="Times,serif" font-size="14.00">Przegld&#45;lokali&#45;na&#45;wynajem&#45;w&#45;odzi.&#45;Fundusz&#45;1000&#45;&#45;&#45;1500.#Bot Aleksego</text>
</g>
<!-- cytP450&#45;&#45;Przegld&#45;lokali&#45;na&#45;wynajem&#45;w&#45;odzi.&#45;Fundusz&#45;1000&#45;&#45;&#45;1500.#Bot Aleksego -->
<g id="edge38" class="edge">
<title>cytP450&#45;&#45;Przegld&#45;lokali&#45;na&#45;wynajem&#45;w&#45;odzi.&#45;Fundusz&#45;1000&#45;&#45;&#45;1500.#Bot Aleksego</title>
<path fill="none" stroke="#b6e400" d="M95.56,-135C168.84,-135 327.13,-135 327.13,-135 327.13,-135 327.13,-123.49 327.13,-114.5"/>
</g>
<!-- Chciejlista#Elektronika (w sensie urzdze konsumenckich) -->
<g id="node34" class="node">
<title>Chciejlista#Elektronika (w sensie urzdze konsumenckich)</title>
<ellipse fill="none" stroke="black" cx="615.21" cy="-61" rx="289.75" ry="18"/>
<text text-anchor="middle" x="615.21" y="-57.3" font-family="Times,serif" font-size="14.00">Chciejlista#Elektronika (w sensie urzdze konsumenckich)</text>
</g>
<!-- cytP450&#45;&#45;Chciejlista#Elektronika (w sensie urzdze konsumenckich) -->
<g id="edge40" class="edge">
<title>cytP450&#45;&#45;Chciejlista#Elektronika (w sensie urzdze konsumenckich)</title>
<path fill="none" stroke="#b6e400" d="M76.13,-130.01C76.13,-104.95 76.13,-61 76.13,-61 76.13,-61 197.56,-61 325.15,-61"/>
</g>
<!-- Zamek#Zamek -->
<g id="node35" class="node">
<title>Zamek#Zamek</title>
<ellipse fill="none" stroke="black" cx="615.21" cy="-18" rx="81.49" ry="18"/>
<text text-anchor="middle" x="615.21" y="-14.3" font-family="Times,serif" font-size="14.00">Zamek#Zamek</text>
</g>
<!-- cytP450&#45;&#45;Zamek#Zamek -->
<g id="edge41" class="edge">
<title>cytP450&#45;&#45;Zamek#Zamek</title>
<path fill="none" stroke="#b6e400" d="M43.13,-129.87C43.13,-94.78 43.13,-18 43.13,-18 43.13,-18 375.91,-18 533.85,-18"/>
</g>
<!-- biniu -->
<g id="node36" class="node">
<title>biniu</title>
<ellipse fill="none" stroke="black" cx="59.14" cy="-491" rx="34.39" ry="18"/>
<text text-anchor="middle" x="59.14" y="-487.3" font-family="Times,serif" font-size="14.00">biniu</text>
</g>
<!-- biniu&#45;&#45;Marketing&#45;i&#45;media&#45;spoecznociowe# -->
<g id="edge45" class="edge">
<title>biniu&#45;&#45;Marketing&#45;i&#45;media&#45;spoecznociowe#</title>
<path fill="none" stroke="#00ffff" d="M91.7,-485C159.61,-485 310.13,-485 310.13,-485 310.13,-485 310.13,-450 310.13,-450 310.13,-450 367.74,-450 432.9,-450"/>
</g>
<!-- Keij0 -->
<g id="node37" class="node">
<title>Keij0</title>
<ellipse fill="none" stroke="black" cx="59.14" cy="-448" rx="34.39" ry="18"/>
<text text-anchor="middle" x="59.14" y="-444.3" font-family="Times,serif" font-size="14.00">Keij0</text>
</g>
<!-- Keij0&#45;&#45;Marketing&#45;i&#45;media&#45;spoecznociowe# -->
<g id="edge46" class="edge">
<title>Keij0&#45;&#45;Marketing&#45;i&#45;media&#45;spoecznociowe#</title>
<path fill="none" stroke="#ab00d5" d="M91.85,-442C159.13,-442 317.21,-442 442.14,-442"/>
</g>
<!-- SP7Q -->
<g id="node38" class="node">
<title>SP7Q</title>
<ellipse fill="none" stroke="black" cx="59.14" cy="-577" rx="36.29" ry="18"/>
<text text-anchor="middle" x="59.14" y="-573.3" font-family="Times,serif" font-size="14.00">SP7Q</text>
</g>
<!-- SP7Q&#45;&#45;Stowarzyszenie#Zarzd -->
<g id="edge48" class="edge">
<title>SP7Q&#45;&#45;Stowarzyszenie#Zarzd</title>
<path fill="none" stroke="#f29100" d="M95.61,-575C201.26,-575 500.13,-575 500.13,-575 500.13,-575 500.13,-552.42 500.13,-540.77"/>
</g>
<!-- SP7Q&#45;&#45;Infrastruktura::Github#Github -->
<g id="edge47" class="edge">
<title>SP7Q&#45;&#45;Infrastruktura::Github#Github</title>
<path fill="none" stroke="#f29100" d="M95.48,-579C138.13,-579 203.13,-579 203.13,-579 203.13,-579 203.13,-784.5 203.13,-784.5 203.13,-784.5 355.66,-784.5 475.12,-784.5"/>
</g>
<!-- SP7Q&#45;&#45;Marketing&#45;i&#45;media&#45;spoecznociowe# -->
<g id="edge49" class="edge">
<title>SP7Q&#45;&#45;Marketing&#45;i&#45;media&#45;spoecznociowe#</title>
<path fill="none" stroke="#f29100" d="M93.67,-571C163.54,-571 315.13,-571 315.13,-571 315.13,-571 315.13,-454 315.13,-454 315.13,-454 375.68,-454 442.39,-454"/>
</g>
<!-- kujaw -->
<g id="node39" class="node">
<title>kujaw</title>
<ellipse fill="none" stroke="black" cx="59.14" cy="-405" rx="38.19" ry="18"/>
<text text-anchor="middle" x="59.14" y="-401.3" font-family="Times,serif" font-size="14.00">kujaw</text>
</g>
<!-- kujaw&#45;&#45;Stowarzyszenie#Zarzd -->
<g id="edge50" class="edge">
<title>kujaw&#45;&#45;Stowarzyszenie#Zarzd</title>
<path fill="none" stroke="#00c64f" d="M90.16,-415.8C152.94,-415.8 289.13,-415.8 289.13,-415.8 289.13,-415.8 289.13,-523.2 289.13,-523.2 289.13,-523.2 420.11,-523.2 516.04,-523.2"/>
</g>
<!-- kujaw&#45;&#45;Marketing&#45;i&#45;media&#45;spoecznociowe# -->
<g id="edge53" class="edge">
<title>kujaw&#45;&#45;Marketing&#45;i&#45;media&#45;spoecznociowe#</title>
<path fill="none" stroke="#00c64f" d="M96.75,-408.6C164.05,-408.6 298.13,-408.6 298.13,-408.6 298.13,-408.6 298.13,-438 298.13,-438 298.13,-438 381.47,-438 462.7,-438"/>
</g>
<!-- kujaw&#45;&#45;Marketing&#45;i&#45;media&#45;spoecznociowe#Naklejki -->
<g id="edge52" class="edge">
<title>kujaw&#45;&#45;Marketing&#45;i&#45;media&#45;spoecznociowe#Naklejki</title>
<path fill="none" stroke="#00c64f" d="M89.83,-394.2C155.18,-394.2 312.34,-394.2 437.86,-394.2"/>
</g>
<!-- Marketing&#45;i&#45;media&#45;spoecznociowe#Logo nr 2 -->
<g id="node40" class="node">
<title>Marketing&#45;i&#45;media&#45;spoecznociowe#Logo nr 2</title>
<ellipse fill="none" stroke="black" cx="615.21" cy="-362" rx="227.46" ry="18"/>
<text text-anchor="middle" x="615.21" y="-358.3" font-family="Times,serif" font-size="14.00">Marketing&#45;i&#45;media&#45;spoecznociowe#Logo nr 2</text>
</g>
<!-- kujaw&#45;&#45;Marketing&#45;i&#45;media&#45;spoecznociowe#Logo nr 2 -->
<g id="edge51" class="edge">
<title>kujaw&#45;&#45;Marketing&#45;i&#45;media&#45;spoecznociowe#Logo nr 2</title>
<path fill="none" stroke="#00c64f" d="M93.13,-396.42C93.13,-386.35 93.13,-371 93.13,-371 93.13,-371 270.28,-371 418.2,-371"/>
</g>
<!-- q3k -->
<g id="node41" class="node">
<title>q3k</title>
<ellipse fill="none" stroke="black" cx="59.14" cy="-362" rx="27.9" ry="18"/>
<text text-anchor="middle" x="59.14" y="-358.3" font-family="Times,serif" font-size="14.00">q3k</text>
</g>
<!-- q3k&#45;&#45;Infrastruktura::Domeny#Domeny -->
<g id="edge55" class="edge">
<title>q3k&#45;&#45;Infrastruktura::Domeny#Domeny</title>
<path fill="none" stroke="#2e00e4" d="M60.13,-343.51C60.13,-331.86 60.13,-319 60.13,-319 60.13,-319 284.47,-319 447.91,-319"/>
</g>
<!-- q3k&#45;&#45;Kanay&#45;komunikacji# -->
<g id="edge56" class="edge">
<title>q3k&#45;&#45;Kanay&#45;komunikacji#</title>
<path fill="none" stroke="#2e00e4" d="M87.26,-362C146.99,-362 281.13,-362 281.13,-362 281.13,-362 281.13,-567 281.13,-567 281.13,-567 425.86,-567 524.8,-567"/>
</g>
<!-- q3k&#45;&#45;Marketing&#45;i&#45;media&#45;spoecznociowe#Logo nr 2 -->
<g id="edge54" class="edge">
<title>q3k&#45;&#45;Marketing&#45;i&#45;media&#45;spoecznociowe#Logo nr 2</title>
<path fill="none" stroke="#2e00e4" d="M83.4,-353C141.25,-353 291.94,-353 418.2,-353"/>
</g>
<!-- pmysl -->
<g id="node42" class="node">
<title>pmysl</title>
<ellipse fill="none" stroke="black" cx="59.14" cy="-942" rx="38.19" ry="18"/>
<text text-anchor="middle" x="59.14" y="-938.3" font-family="Times,serif" font-size="14.00">pmysl</text>
</g>
<!-- pmysl&#45;&#45;Kanay&#45;komunikacji# -->
<g id="edge58" class="edge">
<title>pmysl&#45;&#45;Kanay&#45;komunikacji#</title>
<path fill="none" stroke="#ff0000" d="M82.74,-927.75C120.7,-927.75 191.13,-927.75 191.13,-927.75 191.13,-927.75 191.13,-591 191.13,-591 191.13,-591 426.58,-591 546.6,-591"/>
</g>
<!-- pmysl&#45;&#45;Bazy&#45;danych#Grafana -->
<g id="edge60" class="edge">
<title>pmysl&#45;&#45;Bazy&#45;danych#Grafana</title>
<path fill="none" stroke="#ff0000" d="M89.94,-953C113.91,-953 143.13,-953 143.13,-953 143.13,-953 143.13,-1185 143.13,-1185 143.13,-1185 367.85,-1185 507.2,-1185"/>
</g>
<!-- pmysl&#45;&#45;Infrastruktura::IRC#IRC -->
<g id="edge59" class="edge">
<title>pmysl&#45;&#45;Infrastruktura::IRC#IRC</title>
<path fill="none" stroke="#ff0000" d="M81.9,-956.5C93.06,-956.5 104.13,-956.5 104.13,-956.5 104.13,-956.5 104.13,-1139.6 104.13,-1139.6 104.13,-1139.6 341.59,-1139.6 492.79,-1139.6"/>
</g>
<!-- pmysl&#45;&#45;Infrastruktura::Github#Github -->
<g id="edge62" class="edge">
<title>pmysl&#45;&#45;Infrastruktura::Github#Github</title>
<path fill="none" stroke="#ff0000" d="M94.81,-935.25C150.32,-935.25 251.13,-935.25 251.13,-935.25 251.13,-935.25 251.13,-808.33 251.13,-808.33 251.13,-808.33 445.4,-808.33 550.12,-808.33"/>
</g>
<!-- pmysl&#45;&#45;Miejsce::Miejsce#Klucze do spejsu -->
<g id="edge61" class="edge">
<title>pmysl&#45;&#45;Miejsce::Miejsce#Klucze do spejsu</title>
<path fill="none" stroke="#ff0000" d="M90.5,-931.5C142.06,-931.5 239.13,-931.5 239.13,-931.5 239.13,-931.5 239.13,-673.8 239.13,-673.8 239.13,-673.8 369.54,-673.8 476.77,-673.8"/>
</g>
<!-- pmysl&#45;&#45;Bazy&#45;danych# -->
<g id="edge57" class="edge">
<title>pmysl&#45;&#45;Bazy&#45;danych#</title>
<path fill="none" stroke="#ff0000" d="M60.13,-960.28C60.13,-981.32 60.13,-1013 60.13,-1013 60.13,-1013 391.34,-1013 542.07,-1013"/>
</g>
<!-- pzduniak -->
<g id="node43" class="node">
<title>pzduniak</title>
<ellipse fill="none" stroke="black" cx="59.14" cy="-233" rx="52.79" ry="18"/>
<text text-anchor="middle" x="59.14" y="-229.3" font-family="Times,serif" font-size="14.00">pzduniak</text>
</g>
<!-- pzduniak&#45;&#45;Stowarzyszenie#Komisja Rewizyjna -->
<g id="edge63" class="edge">
<title>pzduniak&#45;&#45;Stowarzyszenie#Komisja Rewizyjna</title>
<path fill="none" stroke="#2bd500" d="M96.13,-220.1C96.13,-208.61 96.13,-193.6 96.13,-193.6 96.13,-193.6 289.81,-193.6 440.56,-193.6"/>
</g>
<!-- krcz -->
<g id="node44" class="node">
<title>krcz</title>
<ellipse fill="none" stroke="black" cx="59.14" cy="-190" rx="30.59" ry="18"/>
<text text-anchor="middle" x="59.14" y="-186.3" font-family="Times,serif" font-size="14.00">krcz</text>
</g>
<!-- krcz&#45;&#45;Stowarzyszenie#Komisja Rewizyjna -->
<g id="edge64" class="edge">
<title>krcz&#45;&#45;Stowarzyszenie#Komisja Rewizyjna</title>
<path fill="none" stroke="#0061f2" d="M89.44,-186.4C154.99,-186.4 314.28,-186.4 440.47,-186.4"/>
</g>
<!-- BluRaf -->
<g id="node45" class="node">
<title>BluRaf</title>
<ellipse fill="none" stroke="black" cx="59.14" cy="-1136" rx="42.49" ry="18"/>
<text text-anchor="middle" x="59.14" y="-1132.3" font-family="Times,serif" font-size="14.00">BluRaf</text>
</g>
<!-- BluRaf&#45;&#45;Infrastruktura::IRC#IRC -->
<g id="edge65" class="edge">
<title>BluRaf&#45;&#45;Infrastruktura::IRC#IRC</title>
<path fill="none" stroke="#c60077" d="M93.09,-1146.8C175.39,-1146.8 388.08,-1146.8 515.17,-1146.8"/>
</g>
</g>
</svg>
