<?xml version="1.0" encoding="UTF-8" standalone="no"?>
<!DOCTYPE svg PUBLIC "-//W3C//DTD SVG 1.1//EN"
 "http://www.w3.org/Graphics/SVG/1.1/DTD/svg11.dtd">
<!-- Generated by graphviz version 2.43.0 (0)
 -->
<!-- Title: %3 Pages: 1 -->
<svg width="976pt" height="1334pt"
 viewBox="0.00 0.00 976.13 1334.00" xmlns="http://www.w3.org/2000/svg" xmlns:xlink="http://www.w3.org/1999/xlink">
<g id="graph0" class="graph" transform="scale(1 1) rotate(0) translate(4 1330)">
<title>%3</title>
<polygon fill="white" stroke="transparent" points="-4,4 -4,-1330 972.13,-1330 972.13,4 -4,4"/>
<!-- d33tah -->
<g id="node1" class="node">
<title>d33tah</title>
<ellipse fill="none" stroke="black" cx="59.14" cy="-685" rx="43.59" ry="18"/>
<text text-anchor="middle" x="59.14" y="-681.3" font-family="Times,serif" font-size="14.00">d33tah</text>
</g>
<!-- Infrastruktura::Telegram#posty: t.me/hakierspejs_spam -->
<g id="node2" class="node">
<title>Infrastruktura::Telegram#posty: t.me/hakierspejs_spam</title>
<ellipse fill="none" stroke="black" cx="615.21" cy="-1007" rx="284.05" ry="18"/>
<text text-anchor="middle" x="615.21" y="-1003.3" font-family="Times,serif" font-size="14.00">Infrastruktura::Telegram#posty: t.me/hakierspejs_spam</text>
</g>
<!-- d33tah&#45;&#45;Infrastruktura::Telegram#posty: t.me/hakierspejs_spam -->
<g id="edge1" class="edge">
<title>d33tah&#45;&#45;Infrastruktura::Telegram#posty: t.me/hakierspejs_spam</title>
<path fill="none" stroke="#ff0000" d="M89.48,-698C124.73,-698 178.13,-698 178.13,-698 178.13,-698 178.13,-999.29 178.13,-999.29 178.13,-999.29 263.29,-999.29 358.43,-999.29"/>
</g>
<!-- Miejsce::Miejsce#Klucze do spejsu -->
<g id="node3" class="node">
<title>Miejsce::Miejsce#Klucze do spejsu</title>
<ellipse fill="none" stroke="black" cx="615.21" cy="-491" rx="172.77" ry="18"/>
<text text-anchor="middle" x="615.21" y="-487.3" font-family="Times,serif" font-size="14.00">Miejsce::Miejsce#Klucze do spejsu</text>
</g>
<!-- d33tah&#45;&#45;Miejsce::Miejsce#Klucze do spejsu -->
<g id="edge2" class="edge">
<title>d33tah&#45;&#45;Miejsce::Miejsce#Klucze do spejsu</title>
<path fill="none" stroke="#ff0000" d="M40.13,-668.79C40.13,-622.17 40.13,-491 40.13,-491 40.13,-491 272.91,-491 442.28,-491"/>
</g>
<!-- Infrastruktura::Telegram#HS24: t.me/hsl_info -->
<g id="node4" class="node">
<title>Infrastruktura::Telegram#HS24: t.me/hsl_info</title>
<ellipse fill="none" stroke="black" cx="615.21" cy="-663" rx="231.26" ry="18"/>
<text text-anchor="middle" x="615.21" y="-659.3" font-family="Times,serif" font-size="14.00">Infrastruktura::Telegram#HS24: t.me/hsl_info</text>
</g>
<!-- d33tah&#45;&#45;Infrastruktura::Telegram#HS24: t.me/hsl_info -->
<g id="edge3" class="edge">
<title>d33tah&#45;&#45;Infrastruktura::Telegram#HS24: t.me/hsl_info</title>
<path fill="none" stroke="#ff0000" d="M100.03,-678.67C183.62,-678.67 376.65,-678.67 501.24,-678.67"/>
</g>
<!-- Bazy&#45;danych#Grafana -->
<g id="node5" class="node">
<title>Bazy&#45;danych#Grafana</title>
<ellipse fill="none" stroke="black" cx="615.21" cy="-448" rx="114.28" ry="18"/>
<text text-anchor="middle" x="615.21" y="-444.3" font-family="Times,serif" font-size="14.00">Bazy&#45;danych#Grafana</text>
</g>
<!-- d33tah&#45;&#45;Bazy&#45;danych#Grafana -->
<g id="edge4" class="edge">
<title>d33tah&#45;&#45;Bazy&#45;danych#Grafana</title>
<path fill="none" stroke="#ff0000" d="M97.36,-676.33C169.4,-676.33 318.13,-676.33 318.13,-676.33 318.13,-676.33 318.13,-452.5 318.13,-452.5 318.13,-452.5 419.78,-452.5 504.16,-452.5"/>
</g>
<!-- Drzwi&#45;frontowe#Ekran  -->
<g id="node6" class="node">
<title>Drzwi&#45;frontowe#Ekran </title>
<ellipse fill="none" stroke="black" cx="615.21" cy="-534" rx="120.78" ry="18"/>
<text text-anchor="middle" x="615.21" y="-530.3" font-family="Times,serif" font-size="14.00">Drzwi&#45;frontowe#Ekran </text>
</g>
<!-- d33tah&#45;&#45;Drzwi&#45;frontowe#Ekran  -->
<g id="edge5" class="edge">
<title>d33tah&#45;&#45;Drzwi&#45;frontowe#Ekran </title>
<path fill="none" stroke="black" d="M60.13,-666.79C60.13,-626.62 60.13,-534 60.13,-534 60.13,-534 330.75,-534 494.08,-534"/>
</g>
<!-- Infrastruktura::Github#Github -->
<g id="node10" class="node">
<title>Infrastruktura::Github#Github</title>
<ellipse fill="none" stroke="black" cx="615.21" cy="-878" rx="154.07" ry="18"/>
<text text-anchor="middle" x="615.21" y="-874.3" font-family="Times,serif" font-size="14.00">Infrastruktura::Github#Github</text>
</g>
<!-- d33tah&#45;&#45;Infrastruktura::Github#Github -->
<g id="edge6" class="edge">
<title>d33tah&#45;&#45;Infrastruktura::Github#Github</title>
<path fill="none" stroke="#ff0000" d="M93.13,-696.34C93.13,-737.34 93.13,-875.43 93.13,-875.43 93.13,-875.43 308.37,-875.43 462.45,-875.43"/>
</g>
<!-- Marketing&#45;i&#45;media&#45;spoecznociowe# -->
<g id="node11" class="node">
<title>Marketing&#45;i&#45;media&#45;spoecznociowe#</title>
<ellipse fill="none" stroke="black" cx="615.21" cy="-1093" rx="183.07" ry="18"/>
<text text-anchor="middle" x="615.21" y="-1089.3" font-family="Times,serif" font-size="14.00">Marketing&#45;i&#45;media&#45;spoecznociowe#</text>
</g>
<!-- d33tah&#45;&#45;Marketing&#45;i&#45;media&#45;spoecznociowe# -->
<g id="edge7" class="edge">
<title>d33tah&#45;&#45;Marketing&#45;i&#45;media&#45;spoecznociowe#</title>
<path fill="none" stroke="#ff0000" d="M81.53,-700.5C111.55,-700.5 161.13,-700.5 161.13,-700.5 161.13,-700.5 161.13,-1080.54 161.13,-1080.54 161.13,-1080.54 348.62,-1080.54 482.65,-1080.54"/>
</g>
<!-- Infrastruktura::Telegram#G贸wny: t.me/hakierspejs -->
<g id="node12" class="node">
<title>Infrastruktura::Telegram#G贸wny: t.me/hakierspejs</title>
<ellipse fill="none" stroke="black" cx="615.21" cy="-706" rx="251.56" ry="18"/>
<text text-anchor="middle" x="615.21" y="-702.3" font-family="Times,serif" font-size="14.00">Infrastruktura::Telegram#G贸wny: t.me/hakierspejs</text>
</g>
<!-- d33tah&#45;&#45;Infrastruktura::Telegram#G贸wny: t.me/hakierspejs -->
<g id="edge8" class="edge">
<title>d33tah&#45;&#45;Infrastruktura::Telegram#G贸wny: t.me/hakierspejs</title>
<path fill="none" stroke="#ff0000" d="M98.25,-693C168.52,-693 320.1,-693 441.05,-693"/>
</g>
<!-- Kanay&#45;komunikacji# -->
<g id="node13" class="node">
<title>Kanay&#45;komunikacji#</title>
<ellipse fill="none" stroke="black" cx="615.21" cy="-319" rx="108.58" ry="18"/>
<text text-anchor="middle" x="615.21" y="-315.3" font-family="Times,serif" font-size="14.00">Kanay&#45;komunikacji#</text>
</g>
<!-- d33tah&#45;&#45;Kanay&#45;komunikacji# -->
<g id="edge9" class="edge">
<title>d33tah&#45;&#45;Kanay&#45;komunikacji#</title>
<path fill="none" stroke="#ff0000" d="M93.84,-674C161.2,-674 303.13,-674 303.13,-674 303.13,-674 303.13,-331.86 303.13,-331.86 303.13,-331.86 446.47,-331.86 538.86,-331.86"/>
</g>
<!-- Bazy&#45;danych#Trello -->
<g id="node14" class="node">
<title>Bazy&#45;danych#Trello</title>
<ellipse fill="none" stroke="black" cx="615.21" cy="-835" rx="103.98" ry="18"/>
<text text-anchor="middle" x="615.21" y="-831.3" font-family="Times,serif" font-size="14.00">Bazy&#45;danych#Trello</text>
</g>
<!-- d33tah&#45;&#45;Bazy&#45;danych#Trello -->
<g id="edge10" class="edge">
<title>d33tah&#45;&#45;Bazy&#45;danych#Trello</title>
<path fill="none" stroke="#ff0000" d="M95.13,-695.31C95.13,-729.2 95.13,-835 95.13,-835 95.13,-835 359.44,-835 511.21,-835"/>
</g>
<!-- Infrastruktura::Mariuszbot#Mariuszbot -->
<g id="node15" class="node">
<title>Infrastruktura::Mariuszbot#Mariuszbot</title>
<ellipse fill="none" stroke="black" cx="615.21" cy="-792" rx="196.07" ry="18"/>
<text text-anchor="middle" x="615.21" y="-788.3" font-family="Times,serif" font-size="14.00">Infrastruktura::Mariuszbot#Mariuszbot</text>
</g>
<!-- d33tah&#45;&#45;Infrastruktura::Mariuszbot#Mariuszbot -->
<g id="edge11" class="edge">
<title>d33tah&#45;&#45;Infrastruktura::Mariuszbot#Mariuszbot</title>
<path fill="none" stroke="#ff0000" d="M98.13,-693.04C98.13,-717.93 98.13,-792 98.13,-792 98.13,-792 272.41,-792 418.62,-792"/>
</g>
<!-- Infrastruktura::Domeny#Domeny -->
<g id="node16" class="node">
<title>Infrastruktura::Domeny#Domeny</title>
<ellipse fill="none" stroke="black" cx="615.21" cy="-190" rx="167.07" ry="18"/>
<text text-anchor="middle" x="615.21" y="-186.3" font-family="Times,serif" font-size="14.00">Infrastruktura::Domeny#Domeny</text>
</g>
<!-- d33tah&#45;&#45;Infrastruktura::Domeny#Domeny -->
<g id="edge12" class="edge">
<title>d33tah&#45;&#45;Infrastruktura::Domeny#Domeny</title>
<path fill="none" stroke="#ff0000" d="M88.76,-671.67C147.28,-671.67 272.13,-671.67 272.13,-671.67 272.13,-671.67 272.13,-200.67 272.13,-200.67 272.13,-200.67 384.48,-200.67 480.6,-200.67"/>
</g>
<!-- Infrastruktura::Telegram#Spacerspejs: t.me/joinchat/UYf2ONtNj21J1DS6 -->
<g id="node17" class="node">
<title>Infrastruktura::Telegram#Spacerspejs: t.me/joinchat/UYf2ONtNj21J1DS6</title>
<ellipse fill="none" stroke="black" cx="615.21" cy="-749" rx="352.84" ry="18"/>
<text text-anchor="middle" x="615.21" y="-745.3" font-family="Times,serif" font-size="14.00">Infrastruktura::Telegram#Spacerspejs: t.me/joinchat/UYf2ONtNj21J1DS6</text>
</g>
<!-- d33tah&#45;&#45;Infrastruktura::Telegram#Spacerspejs: t.me/joinchat/UYf2ONtNj21J1DS6 -->
<g id="edge13" class="edge">
<title>d33tah&#45;&#45;Infrastruktura::Telegram#Spacerspejs: t.me/joinchat/UYf2ONtNj21J1DS6</title>
<path fill="none" stroke="#ff0000" d="M100.13,-691.37C100.13,-707.56 100.13,-749 100.13,-749 100.13,-749 172,-749 262.04,-749"/>
</g>
<!-- Bazy&#45;danych#Pad -->
<g id="node18" class="node">
<title>Bazy&#45;danych#Pad</title>
<ellipse fill="none" stroke="black" cx="615.21" cy="-577" rx="94.48" ry="18"/>
<text text-anchor="middle" x="615.21" y="-573.3" font-family="Times,serif" font-size="14.00">Bazy&#45;danych#Pad</text>
</g>
<!-- d33tah&#45;&#45;Bazy&#45;danych#Pad -->
<g id="edge14" class="edge">
<title>d33tah&#45;&#45;Bazy&#45;danych#Pad</title>
<path fill="none" stroke="#ff0000" d="M79.13,-668.6C79.13,-638.38 79.13,-577 79.13,-577 79.13,-577 367.09,-577 520.91,-577"/>
</g>
<!-- Stowarzyszenie#Zarzd -->
<g id="node19" class="node">
<title>Stowarzyszenie#Zarzd</title>
<ellipse fill="none" stroke="black" cx="615.21" cy="-964" rx="123.48" ry="18"/>
<text text-anchor="middle" x="615.21" y="-960.3" font-family="Times,serif" font-size="14.00">Stowarzyszenie#Zarzd</text>
</g>
<!-- d33tah&#45;&#45;Stowarzyszenie#Zarzd -->
<g id="edge15" class="edge">
<title>d33tah&#45;&#45;Stowarzyszenie#Zarzd</title>
<path fill="none" stroke="#ff0000" d="M94.52,-695.5C132.09,-695.5 186.13,-695.5 186.13,-695.5 186.13,-695.5 186.13,-954 186.13,-954 186.13,-954 385.49,-954 512.43,-954"/>
</g>
<!-- Infrastruktura::IRC#IRC -->
<g id="node20" class="node">
<title>Infrastruktura::IRC#IRC</title>
<ellipse fill="none" stroke="black" cx="615.21" cy="-405" rx="124.58" ry="18"/>
<text text-anchor="middle" x="615.21" y="-401.3" font-family="Times,serif" font-size="14.00">Infrastruktura::IRC#IRC</text>
</g>
<!-- d33tah&#45;&#45;Infrastruktura::IRC#IRC -->
<g id="edge16" class="edge">
<title>d33tah&#45;&#45;Infrastruktura::IRC#IRC</title>
<path fill="none" stroke="#ff0000" d="M80.77,-669.33C94.66,-669.33 110.13,-669.33 110.13,-669.33 110.13,-669.33 110.13,-411 110.13,-411 110.13,-411 348.18,-411 497.43,-411"/>
</g>
<!-- nastpne -->
<g id="node7" class="node">
<title>nastpne</title>
<ellipse fill="none" stroke="black" cx="59.14" cy="-1222" rx="53.09" ry="18"/>
<text text-anchor="middle" x="59.14" y="-1218.3" font-family="Times,serif" font-size="14.00">nastpne</text>
</g>
<!-- spotkanie -->
<g id="node8" class="node">
<title>spotkanie</title>
<ellipse fill="none" stroke="black" cx="59.14" cy="-1265" rx="55.79" ry="18"/>
<text text-anchor="middle" x="59.14" y="-1261.3" font-family="Times,serif" font-size="14.00">spotkanie</text>
</g>
<g id="node9" class="node">
<title></title>
<ellipse fill="none" stroke="#ff0000" cx="59.14" cy="-1308" rx="27" ry="18"/>
</g>
<!-- pmysl -->
<g id="node21" class="node">
<title>pmysl</title>
<ellipse fill="none" stroke="black" cx="59.14" cy="-448" rx="38.19" ry="18"/>
<text text-anchor="middle" x="59.14" y="-444.3" font-family="Times,serif" font-size="14.00">pmysl</text>
</g>
<!-- pmysl&#45;&#45;Miejsce::Miejsce#Klucze do spejsu -->
<g id="edge17" class="edge">
<title>pmysl&#45;&#45;Miejsce::Miejsce#Klucze do spejsu</title>
<path fill="none" stroke="#2bd500" d="M92.53,-457C189.97,-457 467.13,-457 467.13,-457 467.13,-457 467.13,-471.64 467.13,-481.71"/>
</g>
<!-- pmysl&#45;&#45;Bazy&#45;danych#Grafana -->
<g id="edge18" class="edge">
<title>pmysl&#45;&#45;Bazy&#45;danych#Grafana</title>
<path fill="none" stroke="#2bd500" d="M97.8,-448C180.01,-448 374.89,-448 500.63,-448"/>
</g>
<!-- pmysl&#45;&#45;Infrastruktura::Github#Github -->
<g id="edge19" class="edge">
<title>pmysl&#45;&#45;Infrastruktura::Github#Github</title>
<path fill="none" stroke="#2bd500" d="M84.65,-461.5C130.05,-461.5 220.13,-461.5 220.13,-461.5 220.13,-461.5 220.13,-865.14 220.13,-865.14 220.13,-865.14 390.27,-865.14 507.25,-865.14"/>
</g>
<!-- pmysl&#45;&#45;Kanay&#45;komunikacji# -->
<g id="edge20" class="edge">
<title>pmysl&#45;&#45;Kanay&#45;komunikacji#</title>
<path fill="none" stroke="#2bd500" d="M84.85,-434.5C146.01,-434.5 295.13,-434.5 295.13,-434.5 295.13,-434.5 295.13,-326.71 295.13,-326.71 295.13,-326.71 422.91,-326.71 517,-326.71"/>
</g>
<!-- pmysl&#45;&#45;Infrastruktura::IRC#IRC -->
<g id="edge22" class="edge">
<title>pmysl&#45;&#45;Infrastruktura::IRC#IRC</title>
<path fill="none" stroke="#2bd500" d="M96.4,-443.5C202.08,-443.5 496.13,-443.5 496.13,-443.5 496.13,-443.5 496.13,-421.39 496.13,-410.68"/>
</g>
<!-- Bazy&#45;danych# -->
<g id="node22" class="node">
<title>Bazy&#45;danych#</title>
<ellipse fill="none" stroke="black" cx="615.21" cy="-362" rx="77.19" ry="18"/>
<text text-anchor="middle" x="615.21" y="-358.3" font-family="Times,serif" font-size="14.00">Bazy&#45;danych#</text>
</g>
<!-- pmysl&#45;&#45;Bazy&#45;danych# -->
<g id="edge21" class="edge">
<title>pmysl&#45;&#45;Bazy&#45;danych#</title>
<path fill="none" stroke="#2bd500" d="M92.47,-439C160.75,-439 310.13,-439 310.13,-439 310.13,-439 310.13,-365.6 310.13,-365.6 310.13,-365.6 449.05,-365.6 539.4,-365.6"/>
</g>
<!-- thinkofher -->
<g id="node23" class="node">
<title>thinkofher</title>
<ellipse fill="none" stroke="black" cx="59.14" cy="-362" rx="59.29" ry="18"/>
<text text-anchor="middle" x="59.14" y="-358.3" font-family="Times,serif" font-size="14.00">thinkofher</text>
</g>
<!-- thinkofher&#45;&#45;Infrastruktura::Github#Github -->
<g id="edge23" class="edge">
<title>thinkofher&#45;&#45;Infrastruktura::Github#Github</title>
<path fill="none" stroke="#0061f2" d="M105.13,-373.57C105.13,-449.23 105.13,-870.29 105.13,-870.29 105.13,-870.29 324.8,-870.29 475.83,-870.29"/>
</g>
<!-- thinkofher&#45;&#45;Marketing&#45;i&#45;media&#45;spoecznociowe# -->
<g id="edge26" class="edge">
<title>thinkofher&#45;&#45;Marketing&#45;i&#45;media&#45;spoecznociowe#</title>
<path fill="none" stroke="#0061f2" d="M106.74,-351.2C136.47,-351.2 169.13,-351.2 169.13,-351.2 169.13,-351.2 169.13,-1077.77 169.13,-1077.77 169.13,-1077.77 386,-1077.77 517.31,-1077.77"/>
</g>
<!-- thinkofher&#45;&#45;Infrastruktura::Telegram#G贸wny: t.me/hakierspejs -->
<g id="edge27" class="edge">
<title>thinkofher&#45;&#45;Infrastruktura::Telegram#G贸wny: t.me/hakierspejs</title>
<path fill="none" stroke="#0061f2" d="M108.13,-372.19C108.13,-427.64 108.13,-690.5 108.13,-690.5 108.13,-690.5 337.03,-690.5 487.25,-690.5"/>
</g>
<!-- thinkofher&#45;&#45;Kanay&#45;komunikacji# -->
<g id="edge28" class="edge">
<title>thinkofher&#45;&#45;Kanay&#45;komunikacji#</title>
<path fill="none" stroke="#0061f2" d="M116.13,-357.04C116.13,-346.25 116.13,-321.57 116.13,-321.57 116.13,-321.57 360.81,-321.57 507.53,-321.57"/>
</g>
<!-- thinkofher&#45;&#45;Infrastruktura::IRC#IRC -->
<g id="edge30" class="edge">
<title>thinkofher&#45;&#45;Infrastruktura::IRC#IRC</title>
<path fill="none" stroke="#0061f2" d="M106.65,-372.8C220.42,-372.8 499.13,-372.8 499.13,-372.8 499.13,-372.8 499.13,-388.72 499.13,-398.17"/>
</g>
<!-- thinkofher&#45;&#45;Bazy&#45;danych# -->
<g id="edge29" class="edge">
<title>thinkofher&#45;&#45;Bazy&#45;danych#</title>
<path fill="none" stroke="#0061f2" d="M117.34,-358.4C218.58,-358.4 427.01,-358.4 539.41,-358.4"/>
</g>
<!-- Infrastruktura::Matrix#hs&#45;ldz:hackerspace.pl -->
<g id="node24" class="node">
<title>Infrastruktura::Matrix#hs&#45;ldz:hackerspace.pl</title>
<ellipse fill="none" stroke="black" cx="615.21" cy="-233" rx="221.76" ry="18"/>
<text text-anchor="middle" x="615.21" y="-229.3" font-family="Times,serif" font-size="14.00">Infrastruktura::Matrix#hs&#45;ldz:hackerspace.pl</text>
</g>
<!-- thinkofher&#45;&#45;Infrastruktura::Matrix#hs&#45;ldz:hackerspace.pl -->
<g id="edge24" class="edge">
<title>thinkofher&#45;&#45;Infrastruktura::Matrix#hs&#45;ldz:hackerspace.pl</title>
<path fill="none" stroke="#0061f2" d="M111.13,-353.13C111.13,-323.99 111.13,-233 111.13,-233 111.13,-233 258.14,-233 393.38,-233"/>
</g>
<!-- Infrastruktura::Matrix#hs&#45;ldz&#45;offtopic:hackerspace.pl -->
<g id="node25" class="node">
<title>Infrastruktura::Matrix#hs&#45;ldz&#45;offtopic:hackerspace.pl</title>
<ellipse fill="none" stroke="black" cx="615.21" cy="-276" rx="258.85" ry="18"/>
<text text-anchor="middle" x="615.21" y="-272.3" font-family="Times,serif" font-size="14.00">Infrastruktura::Matrix#hs&#45;ldz&#45;offtopic:hackerspace.pl</text>
</g>
<!-- thinkofher&#45;&#45;Infrastruktura::Matrix#hs&#45;ldz&#45;offtopic:hackerspace.pl -->
<g id="edge25" class="edge">
<title>thinkofher&#45;&#45;Infrastruktura::Matrix#hs&#45;ldz&#45;offtopic:hackerspace.pl</title>
<path fill="none" stroke="#0061f2" d="M113.13,-354.37C113.13,-333.32 113.13,-276 113.13,-276 113.13,-276 233.55,-276 356.45,-276"/>
</g>
<!-- cytP450 -->
<g id="node26" class="node">
<title>cytP450</title>
<ellipse fill="none" stroke="black" cx="59.14" cy="-168" rx="48.99" ry="18"/>
<text text-anchor="middle" x="59.14" y="-164.3" font-family="Times,serif" font-size="14.00">cytP450</text>
</g>
<!-- cytP450&#45;&#45;Miejsce::Miejsce#Klucze do spejsu -->
<g id="edge31" class="edge">
<title>cytP450&#45;&#45;Miejsce::Miejsce#Klucze do spejsu</title>
<path fill="none" stroke="#c60077" d="M97.97,-179C161.12,-179 279.13,-179 279.13,-179 279.13,-179 279.13,-482 279.13,-482 279.13,-482 375.73,-482 465.35,-482"/>
</g>
<!-- cytP450&#45;&#45;Kanay&#45;komunikacji# -->
<g id="edge34" class="edge">
<title>cytP450&#45;&#45;Kanay&#45;komunikacji#</title>
<path fill="none" stroke="#c60077" d="M98.13,-178.84C98.13,-211.41 98.13,-306.14 98.13,-306.14 98.13,-306.14 395.46,-306.14 539.19,-306.14"/>
</g>
<!-- cytP450&#45;&#45;Infrastruktura::Domeny#Domeny -->
<g id="edge36" class="edge">
<title>cytP450&#45;&#45;Infrastruktura::Domeny#Domeny</title>
<path fill="none" stroke="#c60077" d="M103.71,-175.5C192.69,-175.5 394.25,-175.5 516.1,-175.5"/>
</g>
<!-- Zamek#Zamek -->
<g id="node27" class="node">
<title>Zamek#Zamek</title>
<ellipse fill="none" stroke="black" cx="615.21" cy="-147" rx="81.49" ry="18"/>
<text text-anchor="middle" x="615.21" y="-143.3" font-family="Times,serif" font-size="14.00">Zamek#Zamek</text>
</g>
<!-- cytP450&#45;&#45;Zamek#Zamek -->
<g id="edge32" class="edge">
<title>cytP450&#45;&#45;Zamek#Zamek</title>
<path fill="none" stroke="#c60077" d="M104.65,-161.25C207.75,-161.25 458.5,-161.25 565.5,-161.25"/>
</g>
<!-- Stowarzyszenie#Komisja Rewizyjna -->
<g id="node28" class="node">
<title>Stowarzyszenie#Komisja Rewizyjna</title>
<ellipse fill="none" stroke="black" cx="615.21" cy="-921" rx="178.17" ry="18"/>
<text text-anchor="middle" x="615.21" y="-917.3" font-family="Times,serif" font-size="14.00">Stowarzyszenie#Komisja Rewizyjna</text>
</g>
<!-- cytP450&#45;&#45;Stowarzyszenie#Komisja Rewizyjna -->
<g id="edge33" class="edge">
<title>cytP450&#45;&#45;Stowarzyszenie#Komisja Rewizyjna</title>
<path fill="none" stroke="#c60077" d="M88.32,-182.5C128.27,-182.5 195.13,-182.5 195.13,-182.5 195.13,-182.5 195.13,-912 195.13,-912 195.13,-912 341.04,-912 460.87,-912"/>
</g>
<!-- Chciejlista#Elektronika (w sensie urzdze konsumenckich) -->
<g id="node29" class="node">
<title>Chciejlista#Elektronika (w sensie urzdze konsumenckich)</title>
<ellipse fill="none" stroke="black" cx="615.21" cy="-104" rx="289.75" ry="18"/>
<text text-anchor="middle" x="615.21" y="-100.3" font-family="Times,serif" font-size="14.00">Chciejlista#Elektronika (w sensie urzdze konsumenckich)</text>
</g>
<!-- cytP450&#45;&#45;Chciejlista#Elektronika (w sensie urzdze konsumenckich) -->
<g id="edge35" class="edge">
<title>cytP450&#45;&#45;Chciejlista#Elektronika (w sensie urzdze konsumenckich)</title>
<path fill="none" stroke="#c60077" d="M98.95,-157.5C176.68,-157.5 341.13,-157.5 341.13,-157.5 341.13,-157.5 341.13,-124.19 341.13,-110.14"/>
</g>
<!-- Chciejlista#DIY -->
<g id="node30" class="node">
<title>Chciejlista#DIY</title>
<ellipse fill="none" stroke="black" cx="615.21" cy="-61" rx="83.69" ry="18"/>
<text text-anchor="middle" x="615.21" y="-57.3" font-family="Times,serif" font-size="14.00">Chciejlista#DIY</text>
</g>
<!-- cytP450&#45;&#45;Chciejlista#DIY -->
<g id="edge37" class="edge">
<title>cytP450&#45;&#45;Chciejlista#DIY</title>
<path fill="none" stroke="#c60077" d="M60.13,-149.85C60.13,-119.32 60.13,-61 60.13,-61 60.13,-61 376.03,-61 531.2,-61"/>
</g>
<!-- Przegld&#45;lokali&#45;na&#45;wynajem&#45;w&#45;odzi.&#45;Fundusz&#45;1000&#45;&#45;&#45;1500.#Bot Aleksego -->
<g id="node31" class="node">
<title>Przegld&#45;lokali&#45;na&#45;wynajem&#45;w&#45;odzi.&#45;Fundusz&#45;1000&#45;&#45;&#45;1500.#Bot Aleksego</title>
<ellipse fill="none" stroke="black" cx="615.21" cy="-18" rx="351.74" ry="18"/>
<text text-anchor="middle" x="615.21" y="-14.3" font-family="Times,serif" font-size="14.00">Przegld&#45;lokali&#45;na&#45;wynajem&#45;w&#45;odzi.&#45;Fundusz&#45;1000&#45;&#45;&#45;1500.#Bot Aleksego</text>
</g>
<!-- cytP450&#45;&#45;Przegld&#45;lokali&#45;na&#45;wynajem&#45;w&#45;odzi.&#45;Fundusz&#45;1000&#45;&#45;&#45;1500.#Bot Aleksego -->
<g id="edge38" class="edge">
<title>cytP450&#45;&#45;Przegld&#45;lokali&#45;na&#45;wynajem&#45;w&#45;odzi.&#45;Fundusz&#45;1000&#45;&#45;&#45;1500.#Bot Aleksego</title>
<path fill="none" stroke="#c60077" d="M88.95,-153.75C150.75,-153.75 287.13,-153.75 287.13,-153.75 287.13,-153.75 287.13,-51.66 287.13,-24.55"/>
</g>
<!-- q3k -->
<g id="node32" class="node">
<title>q3k</title>
<ellipse fill="none" stroke="black" cx="59.14" cy="-319" rx="27.9" ry="18"/>
<text text-anchor="middle" x="59.14" y="-315.3" font-family="Times,serif" font-size="14.00">q3k</text>
</g>
<!-- q3k&#45;&#45;Kanay&#45;komunikacji# -->
<g id="edge41" class="edge">
<title>q3k&#45;&#45;Kanay&#45;komunikacji#</title>
<path fill="none" stroke="#b6e400" d="M84.48,-311.29C159.85,-311.29 385.57,-311.29 517.1,-311.29"/>
</g>
<!-- q3k&#45;&#45;Infrastruktura::Domeny#Domeny -->
<g id="edge40" class="edge">
<title>q3k&#45;&#45;Infrastruktura::Domeny#Domeny</title>
<path fill="none" stroke="#b6e400" d="M60.13,-301C60.13,-266.25 60.13,-193.33 60.13,-193.33 60.13,-193.33 287.24,-193.33 450.92,-193.33"/>
</g>
<!-- Marketing&#45;i&#45;media&#45;spoecznociowe#Logo nr 2 -->
<g id="node33" class="node">
<title>Marketing&#45;i&#45;media&#45;spoecznociowe#Logo nr 2</title>
<ellipse fill="none" stroke="black" cx="615.21" cy="-620" rx="227.46" ry="18"/>
<text text-anchor="middle" x="615.21" y="-616.3" font-family="Times,serif" font-size="14.00">Marketing&#45;i&#45;media&#45;spoecznociowe#Logo nr 2</text>
</g>
<!-- q3k&#45;&#45;Marketing&#45;i&#45;media&#45;spoecznociowe#Logo nr 2 -->
<g id="edge39" class="edge">
<title>q3k&#45;&#45;Marketing&#45;i&#45;media&#45;spoecznociowe#Logo nr 2</title>
<path fill="none" stroke="#b6e400" d="M87.08,-316.43C171,-316.43 415.13,-316.43 415.13,-316.43 415.13,-316.43 415.13,-561.47 415.13,-611.24"/>
</g>
<!-- kszmigiel -->
<g id="node34" class="node">
<title>kszmigiel</title>
<ellipse fill="none" stroke="black" cx="59.14" cy="-964" rx="54.69" ry="18"/>
<text text-anchor="middle" x="59.14" y="-960.3" font-family="Times,serif" font-size="14.00">kszmigiel</text>
</g>
<!-- kszmigiel&#45;&#45;Infrastruktura::Telegram#posty: t.me/hakierspejs_spam -->
<g id="edge42" class="edge">
<title>kszmigiel&#45;&#45;Infrastruktura::Telegram#posty: t.me/hakierspejs_spam</title>
<path fill="none" stroke="#00ffff" d="M110.13,-970.68C110.13,-982.16 110.13,-1004.43 110.13,-1004.43 110.13,-1004.43 217.89,-1004.43 333.87,-1004.43"/>
</g>
<!-- kszmigiel&#45;&#45;Miejsce::Miejsce#Klucze do spejsu -->
<g id="edge43" class="edge">
<title>kszmigiel&#45;&#45;Miejsce::Miejsce#Klucze do spejsu</title>
<path fill="none" stroke="#00ffff" d="M93.63,-950C136.23,-950 203.13,-950 203.13,-950 203.13,-950 203.13,-500 203.13,-500 203.13,-500 347.45,-500 465.27,-500"/>
</g>
<!-- kszmigiel&#45;&#45;Infrastruktura::Github#Github -->
<g id="edge44" class="edge">
<title>kszmigiel&#45;&#45;Infrastruktura::Github#Github</title>
<path fill="none" stroke="#00ffff" d="M113.46,-962C203.81,-962 375.13,-962 375.13,-962 375.13,-962 375.13,-890.86 375.13,-890.86 375.13,-890.86 443.38,-890.86 507.11,-890.86"/>
</g>
<!-- kszmigiel&#45;&#45;Marketing&#45;i&#45;media&#45;spoecznociowe# -->
<g id="edge45" class="edge">
<title>kszmigiel&#45;&#45;Marketing&#45;i&#45;media&#45;spoecznociowe#</title>
<path fill="none" stroke="#00ffff" d="M110.81,-970C132.65,-970 153.13,-970 153.13,-970 153.13,-970 153.13,-1086.08 153.13,-1086.08 153.13,-1086.08 313.89,-1086.08 445.77,-1086.08"/>
</g>
<!-- kszmigiel&#45;&#45;Infrastruktura::Telegram#G贸wny: t.me/hakierspejs -->
<g id="edge46" class="edge">
<title>kszmigiel&#45;&#45;Infrastruktura::Telegram#G贸wny: t.me/hakierspejs</title>
<path fill="none" stroke="#00ffff" d="M111.07,-958C161.06,-958 229.13,-958 229.13,-958 229.13,-958 229.13,-713.5 229.13,-713.5 229.13,-713.5 303.19,-713.5 386.44,-713.5"/>
</g>
<!-- kszmigiel&#45;&#45;Stowarzyszenie#Zarzd -->
<g id="edge47" class="edge">
<title>kszmigiel&#45;&#45;Stowarzyszenie#Zarzd</title>
<path fill="none" stroke="#00ffff" d="M113.47,-966C200.65,-966 373.96,-966 492.24,-966"/>
</g>
<!-- Marketing&#45;i&#45;media&#45;spoecznociowe#Naklejki -->
<g id="node35" class="node">
<title>Marketing&#45;i&#45;media&#45;spoecznociowe#Naklejki</title>
<ellipse fill="none" stroke="black" cx="615.21" cy="-1050" rx="221.76" ry="18"/>
<text text-anchor="middle" x="615.21" y="-1046.3" font-family="Times,serif" font-size="14.00">Marketing&#45;i&#45;media&#45;spoecznociowe#Naklejki</text>
</g>
<!-- kszmigiel&#45;&#45;Marketing&#45;i&#45;media&#45;spoecznociowe#Naklejki -->
<g id="edge48" class="edge">
<title>kszmigiel&#45;&#45;Marketing&#45;i&#45;media&#45;spoecznociowe#Naklejki</title>
<path fill="none" stroke="#00ffff" d="M108.13,-972.25C108.13,-993.77 108.13,-1050 108.13,-1050 108.13,-1050 257.08,-1050 393.53,-1050"/>
</g>
<!-- kpc -->
<g id="node36" class="node">
<title>kpc</title>
<ellipse fill="none" stroke="black" cx="59.14" cy="-1093" rx="27" ry="18"/>
<text text-anchor="middle" x="59.14" y="-1089.3" font-family="Times,serif" font-size="14.00">kpc</text>
</g>
<!-- kpc&#45;&#45;Infrastruktura::Telegram#posty: t.me/hakierspejs_spam -->
<g id="edge49" class="edge">
<title>kpc&#45;&#45;Infrastruktura::Telegram#posty: t.me/hakierspejs_spam</title>
<path fill="none" stroke="#ab00d5" d="M86.19,-1091.62C162.35,-1091.62 373.13,-1091.62 373.13,-1091.62 373.13,-1091.62 373.13,-1038.93 373.13,-1016.71"/>
</g>
<!-- kpc&#45;&#45;Marketing&#45;i&#45;media&#45;spoecznociowe# -->
<g id="edge52" class="edge">
<title>kpc&#45;&#45;Marketing&#45;i&#45;media&#45;spoecznociowe#</title>
<path fill="none" stroke="#ab00d5" d="M85.59,-1097.15C147.97,-1097.15 308.67,-1097.15 436.82,-1097.15"/>
</g>
<!-- kpc&#45;&#45;Stowarzyszenie#Komisja Rewizyjna -->
<g id="edge51" class="edge">
<title>kpc&#45;&#45;Stowarzyszenie#Komisja Rewizyjna</title>
<path fill="none" stroke="#ab00d5" d="M82.07,-1083.31C132,-1083.31 246.13,-1083.31 246.13,-1083.31 246.13,-1083.31 246.13,-930 246.13,-930 246.13,-930 359.69,-930 460.82,-930"/>
</g>
<!-- Czaty&#45;HS#HS: posty wyklte -->
<g id="node37" class="node">
<title>Czaty&#45;HS#HS: posty wyklte</title>
<ellipse fill="none" stroke="black" cx="615.21" cy="-1136" rx="157.87" ry="18"/>
<text text-anchor="middle" x="615.21" y="-1132.3" font-family="Times,serif" font-size="14.00">Czaty&#45;HS#HS: posty wyklte</text>
</g>
<!-- kpc&#45;&#45;Czaty&#45;HS#HS: posty wyklte -->
<g id="edge50" class="edge">
<title>kpc&#45;&#45;Czaty&#45;HS#HS: posty wyklte</title>
<path fill="none" stroke="#ab00d5" d="M73.94,-1108.23C85.68,-1108.23 100.13,-1108.23 100.13,-1108.23 100.13,-1108.23 100.13,-1136 100.13,-1136 100.13,-1136 305.76,-1136 457.17,-1136"/>
</g>
<!-- Infrastruktura::Telegram#Posty wyklte (celowo bez linka) -->
<g id="node38" class="node">
<title>Infrastruktura::Telegram#Posty wyklte (celowo bez linka)</title>
<ellipse fill="none" stroke="black" cx="615.21" cy="-1179" rx="284.05" ry="18"/>
<text text-anchor="middle" x="615.21" y="-1175.3" font-family="Times,serif" font-size="14.00">Infrastruktura::Telegram#Posty wyklte (celowo bez linka)</text>
</g>
<!-- kpc&#45;&#45;Infrastruktura::Telegram#Posty wyklte (celowo bez linka) -->
<g id="edge53" class="edge">
<title>kpc&#45;&#45;Infrastruktura::Telegram#Posty wyklte (celowo bez linka)</title>
<path fill="none" stroke="#ab00d5" d="M84.12,-1099.92C154.98,-1099.92 352.13,-1099.92 352.13,-1099.92 352.13,-1099.92 352.13,-1152.63 352.13,-1171.98"/>
</g>
<!-- biniu -->
<g id="node39" class="node">
<title>biniu</title>
<ellipse fill="none" stroke="black" cx="59.14" cy="-1179" rx="34.39" ry="18"/>
<text text-anchor="middle" x="59.14" y="-1175.3" font-family="Times,serif" font-size="14.00">biniu</text>
</g>
<!-- biniu&#45;&#45;Marketing&#45;i&#45;media&#45;spoecznociowe# -->
<g id="edge54" class="edge">
<title>biniu&#45;&#45;Marketing&#45;i&#45;media&#45;spoecznociowe#</title>
<path fill="none" stroke="#f29100" d="M94,-1179C150.09,-1179 254.13,-1179 254.13,-1179 254.13,-1179 254.13,-1105.46 254.13,-1105.46 254.13,-1105.46 379.75,-1105.46 482.81,-1105.46"/>
</g>
<!-- Keij0 -->
<g id="node40" class="node">
<title>Keij0</title>
<ellipse fill="none" stroke="black" cx="59.14" cy="-1136" rx="34.39" ry="18"/>
<text text-anchor="middle" x="59.14" y="-1132.3" font-family="Times,serif" font-size="14.00">Keij0</text>
</g>
<!-- Keij0&#45;&#45;Marketing&#45;i&#45;media&#45;spoecznociowe# -->
<g id="edge55" class="edge">
<title>Keij0&#45;&#45;Marketing&#45;i&#45;media&#45;spoecznociowe#</title>
<path fill="none" stroke="#00c64f" d="M90.13,-1127.94C90.13,-1118.08 90.13,-1102.69 90.13,-1102.69 90.13,-1102.69 305.62,-1102.69 460.51,-1102.69"/>
</g>
<!-- SP7Q -->
<g id="node41" class="node">
<title>SP7Q</title>
<ellipse fill="none" stroke="black" cx="59.14" cy="-1050" rx="36.29" ry="18"/>
<text text-anchor="middle" x="59.14" y="-1046.3" font-family="Times,serif" font-size="14.00">SP7Q</text>
</g>
<!-- SP7Q&#45;&#45;Infrastruktura::Github#Github -->
<g id="edge58" class="edge">
<title>SP7Q&#45;&#45;Infrastruktura::Github#Github</title>
<path fill="none" stroke="#2e00e4" d="M86.56,-1038C136.49,-1038 237.13,-1038 237.13,-1038 237.13,-1038 237.13,-885.71 237.13,-885.71 237.13,-885.71 368.01,-885.71 475.77,-885.71"/>
</g>
<!-- SP7Q&#45;&#45;Marketing&#45;i&#45;media&#45;spoecznociowe# -->
<g id="edge56" class="edge">
<title>SP7Q&#45;&#45;Marketing&#45;i&#45;media&#45;spoecznociowe#</title>
<path fill="none" stroke="#2e00e4" d="M86.5,-1062C95.44,-1062 103.13,-1062 103.13,-1062 103.13,-1062 103.13,-1094.38 103.13,-1094.38 103.13,-1094.38 285.14,-1094.38 432.14,-1094.38"/>
</g>
<!-- SP7Q&#45;&#45;Stowarzyszenie#Zarzd -->
<g id="edge57" class="edge">
<title>SP7Q&#45;&#45;Stowarzyszenie#Zarzd</title>
<path fill="none" stroke="#2e00e4" d="M93.71,-1044C117.24,-1044 144.13,-1044 144.13,-1044 144.13,-1044 144.13,-978 144.13,-978 144.13,-978 403.62,-978 537.42,-978"/>
</g>
<!-- kujaw -->
<g id="node42" class="node">
<title>kujaw</title>
<ellipse fill="none" stroke="black" cx="59.14" cy="-1007" rx="38.19" ry="18"/>
<text text-anchor="middle" x="59.14" y="-1003.3" font-family="Times,serif" font-size="14.00">kujaw</text>
</g>
<!-- kujaw&#45;&#45;Marketing&#45;i&#45;media&#45;spoecznociowe# -->
<g id="edge60" class="edge">
<title>kujaw&#45;&#45;Marketing&#45;i&#45;media&#45;spoecznociowe#</title>
<path fill="none" stroke="#ff0000" d="M86.01,-1019.86C105.02,-1019.86 127.13,-1019.86 127.13,-1019.86 127.13,-1019.86 127.13,-1088.85 127.13,-1088.85 127.13,-1088.85 297.22,-1088.85 436.58,-1088.85"/>
</g>
<!-- kujaw&#45;&#45;Stowarzyszenie#Zarzd -->
<g id="edge61" class="edge">
<title>kujaw&#45;&#45;Stowarzyszenie#Zarzd</title>
<path fill="none" stroke="#ff0000" d="M94.03,-1014.71C114.4,-1014.71 136.13,-1014.71 136.13,-1014.71 136.13,-1014.71 136.13,-974 136.13,-974 136.13,-974 371.66,-974 512.43,-974"/>
</g>
<!-- kujaw&#45;&#45;Marketing&#45;i&#45;media&#45;spoecznociowe#Logo nr 2 -->
<g id="edge59" class="edge">
<title>kujaw&#45;&#45;Marketing&#45;i&#45;media&#45;spoecznociowe#Logo nr 2</title>
<path fill="none" stroke="#ff0000" d="M86.14,-994.14C130.06,-994.14 212.13,-994.14 212.13,-994.14 212.13,-994.14 212.13,-620 212.13,-620 212.13,-620 296.14,-620 387.46,-620"/>
</g>
<!-- kujaw&#45;&#45;Marketing&#45;i&#45;media&#45;spoecznociowe#Naklejki -->
<g id="edge62" class="edge">
<title>kujaw&#45;&#45;Marketing&#45;i&#45;media&#45;spoecznociowe#Naklejki</title>
<path fill="none" stroke="#ff0000" d="M97.12,-1009.57C101.88,-1009.57 105.13,-1009.57 105.13,-1009.57 105.13,-1009.57 105.13,-1056 105.13,-1056 105.13,-1056 265.12,-1056 405.9,-1056"/>
</g>
<!-- pzduniak -->
<g id="node43" class="node">
<title>pzduniak</title>
<ellipse fill="none" stroke="black" cx="59.14" cy="-921" rx="52.79" ry="18"/>
<text text-anchor="middle" x="59.14" y="-917.3" font-family="Times,serif" font-size="14.00">pzduniak</text>
</g>
<!-- pzduniak&#45;&#45;Stowarzyszenie#Komisja Rewizyjna -->
<g id="edge63" class="edge">
<title>pzduniak&#45;&#45;Stowarzyszenie#Komisja Rewizyjna</title>
<path fill="none" stroke="#2bd500" d="M111.96,-921C185.97,-921 324.13,-921 436.99,-921"/>
</g>
<!-- krcz -->
<g id="node44" class="node">
<title>krcz</title>
<ellipse fill="none" stroke="black" cx="59.14" cy="-878" rx="30.59" ry="18"/>
<text text-anchor="middle" x="59.14" y="-874.3" font-family="Times,serif" font-size="14.00">krcz</text>
</g>
<!-- krcz&#45;&#45;Stowarzyszenie#Komisja Rewizyjna -->
<g id="edge64" class="edge">
<title>krcz&#45;&#45;Stowarzyszenie#Komisja Rewizyjna</title>
<path fill="none" stroke="#0061f2" d="M89.5,-880.57C181.36,-880.57 450.13,-880.57 450.13,-880.57 450.13,-880.57 450.13,-902.37 450.13,-913.96"/>
</g>
<!-- BluRaf -->
<g id="node45" class="node">
<title>BluRaf</title>
<ellipse fill="none" stroke="black" cx="59.14" cy="-405" rx="42.49" ry="18"/>
<text text-anchor="middle" x="59.14" y="-401.3" font-family="Times,serif" font-size="14.00">BluRaf</text>
</g>
<!-- BluRaf&#45;&#45;Infrastruktura::IRC#IRC -->
<g id="edge65" class="edge">
<title>BluRaf&#45;&#45;Infrastruktura::IRC#IRC</title>
<path fill="none" stroke="#c60077" d="M99.14,-399C181.38,-399 372.23,-399 497.37,-399"/>
</g>
</g>
</svg>
