<?xml version="1.0" encoding="UTF-8" standalone="no"?>
<!DOCTYPE svg PUBLIC "-//W3C//DTD SVG 1.1//EN"
 "http://www.w3.org/Graphics/SVG/1.1/DTD/svg11.dtd">
<!-- Generated by graphviz version 2.42.4 (0)
 -->
<!-- Pages: 1 -->
<svg width="1001pt" height="1463pt"
 viewBox="0.00 0.00 1000.82 1463.00" xmlns="http://www.w3.org/2000/svg" xmlns:xlink="http://www.w3.org/1999/xlink">
<g id="graph0" class="graph" transform="scale(1 1) rotate(0) translate(4 1459)">
<polygon fill="white" stroke="transparent" points="-4,4 -4,-1459 996.82,-1459 996.82,4 -4,4"/>
<!-- d33tah -->
<g id="node1" class="node">
<title>d33tah</title>
<ellipse fill="none" stroke="black" cx="71.49" cy="-835" rx="43.59" ry="18"/>
<text text-anchor="middle" x="71.49" y="-831.3" font-family="Times,serif" font-size="14.00">d33tah</text>
</g>
<!-- Stowarzyszenie#Zarzd -->
<g id="node2" class="node">
<title>Stowarzyszenie#Zarzd</title>
<ellipse fill="none" stroke="black" cx="639.91" cy="-1136" rx="123.48" ry="18"/>
<text text-anchor="middle" x="639.91" y="-1132.3" font-family="Times,serif" font-size="14.00">Stowarzyszenie#Zarzd</text>
</g>
<!-- d33tah&#45;&#45;Stowarzyszenie#Zarzd -->
<g id="edge1" class="edge">
<title>d33tah&#45;&#45;Stowarzyszenie#Zarzd</title>
<path fill="none" stroke="#ff0000" d="M92.43,-850.88C118.55,-850.88 159.82,-850.88 159.82,-850.88 159.82,-850.88 159.82,-1133.43 159.82,-1133.43 159.82,-1133.43 375.28,-1133.43 517.52,-1133.43"/>
</g>
<!-- Infrastruktura::Telegram#G贸wny: t.me/hakierspejs -->
<g id="node3" class="node">
<title>Infrastruktura::Telegram#G贸wny: t.me/hakierspejs</title>
<ellipse fill="none" stroke="black" cx="639.91" cy="-663" rx="251.56" ry="18"/>
<text text-anchor="middle" x="639.91" y="-659.3" font-family="Times,serif" font-size="14.00">Infrastruktura::Telegram#G贸wny: t.me/hakierspejs</text>
</g>
<!-- d33tah&#45;&#45;Infrastruktura::Telegram#G贸wny: t.me/hakierspejs -->
<g id="edge2" class="edge">
<title>d33tah&#45;&#45;Infrastruktura::Telegram#G贸wny: t.me/hakierspejs</title>
<path fill="none" stroke="#ff0000" d="M113.16,-829.71C209.17,-829.71 437.82,-829.71 437.82,-829.71 437.82,-829.71 437.82,-711.03 437.82,-673.94"/>
</g>
<!-- Bazy&#45;danych#Grafana -->
<g id="node4" class="node">
<title>Bazy&#45;danych#Grafana</title>
<ellipse fill="none" stroke="black" cx="639.91" cy="-835" rx="114.28" ry="18"/>
<text text-anchor="middle" x="639.91" y="-831.3" font-family="Times,serif" font-size="14.00">Bazy&#45;danych#Grafana</text>
</g>
<!-- d33tah&#45;&#45;Bazy&#45;danych#Grafana -->
<g id="edge3" class="edge">
<title>d33tah&#45;&#45;Bazy&#45;danych#Grafana</title>
<path fill="none" stroke="#ff0000" d="M114.68,-838.18C201.73,-838.18 400.72,-838.18 527.25,-838.18"/>
</g>
<!-- Bazy&#45;danych#Pad -->
<g id="node5" class="node">
<title>Bazy&#45;danych#Pad</title>
<ellipse fill="none" stroke="black" cx="639.91" cy="-921" rx="94.48" ry="18"/>
<text text-anchor="middle" x="639.91" y="-917.3" font-family="Times,serif" font-size="14.00">Bazy&#45;danych#Pad</text>
</g>
<!-- d33tah&#45;&#45;Bazy&#45;danych#Pad -->
<g id="edge4" class="edge">
<title>d33tah&#45;&#45;Bazy&#45;danych#Pad</title>
<path fill="none" stroke="#ff0000" d="M71.82,-853.24C71.82,-878.48 71.82,-921 71.82,-921 71.82,-921 383.92,-921 545.46,-921"/>
</g>
<!-- Infrastruktura::Telegram#Spacerspejs: t.me/joinchat/UYf2ONtNj21J1DS6 -->
<g id="node6" class="node">
<title>Infrastruktura::Telegram#Spacerspejs: t.me/joinchat/UYf2ONtNj21J1DS6</title>
<ellipse fill="none" stroke="black" cx="639.91" cy="-878" rx="352.84" ry="18"/>
<text text-anchor="middle" x="639.91" y="-874.3" font-family="Times,serif" font-size="14.00">Infrastruktura::Telegram#Spacerspejs: t.me/joinchat/UYf2ONtNj21J1DS6</text>
</g>
<!-- d33tah&#45;&#45;Infrastruktura::Telegram#Spacerspejs: t.me/joinchat/UYf2ONtNj21J1DS6 -->
<g id="edge5" class="edge">
<title>d33tah&#45;&#45;Infrastruktura::Telegram#Spacerspejs: t.me/joinchat/UYf2ONtNj21J1DS6</title>
<path fill="none" stroke="#ff0000" d="M113.31,-840.29C191.68,-840.29 352.82,-840.29 352.82,-840.29 352.82,-840.29 352.82,-856.15 352.82,-867.3"/>
</g>
<!-- Kanay&#45;komunikacji# -->
<g id="node7" class="node">
<title>Kanay&#45;komunikacji#</title>
<ellipse fill="none" stroke="black" cx="639.91" cy="-620" rx="108.58" ry="18"/>
<text text-anchor="middle" x="639.91" y="-616.3" font-family="Times,serif" font-size="14.00">Kanay&#45;komunikacji#</text>
</g>
<!-- d33tah&#45;&#45;Kanay&#45;komunikacji# -->
<g id="edge6" class="edge">
<title>d33tah&#45;&#45;Kanay&#45;komunikacji#</title>
<path fill="none" stroke="#ff0000" d="M108.49,-825.47C183.37,-825.47 345.82,-825.47 345.82,-825.47 345.82,-825.47 345.82,-632.86 345.82,-632.86 345.82,-632.86 476.66,-632.86 563.79,-632.86"/>
</g>
<!-- Infrastruktura::IRC#IRC -->
<g id="node8" class="node">
<title>Infrastruktura::IRC#IRC</title>
<ellipse fill="none" stroke="black" cx="639.91" cy="-792" rx="124.58" ry="18"/>
<text text-anchor="middle" x="639.91" y="-788.3" font-family="Times,serif" font-size="14.00">Infrastruktura::IRC#IRC</text>
</g>
<!-- d33tah&#45;&#45;Infrastruktura::IRC#IRC -->
<g id="edge7" class="edge">
<title>d33tah&#45;&#45;Infrastruktura::IRC#IRC</title>
<path fill="none" stroke="#ff0000" d="M114.99,-836.06C227.75,-836.06 520.82,-836.06 520.82,-836.06 520.82,-836.06 520.82,-809.17 520.82,-797.4"/>
</g>
<!-- Infrastruktura::Telegram#posty: t.me/hakierspejs_spam -->
<g id="node9" class="node">
<title>Infrastruktura::Telegram#posty: t.me/hakierspejs_spam</title>
<ellipse fill="none" stroke="black" cx="639.91" cy="-534" rx="284.05" ry="18"/>
<text text-anchor="middle" x="639.91" y="-530.3" font-family="Times,serif" font-size="14.00">Infrastruktura::Telegram#posty: t.me/hakierspejs_spam</text>
</g>
<!-- d33tah&#45;&#45;Infrastruktura::Telegram#posty: t.me/hakierspejs_spam -->
<g id="edge8" class="edge">
<title>d33tah&#45;&#45;Infrastruktura::Telegram#posty: t.me/hakierspejs_spam</title>
<path fill="none" stroke="#ff0000" d="M111.2,-827.59C193.02,-827.59 372.82,-827.59 372.82,-827.59 372.82,-827.59 372.82,-582.29 372.82,-540.13"/>
</g>
<!-- Miejsce::Miejsce#Klucze do spejsu -->
<g id="node10" class="node">
<title>Miejsce::Miejsce#Klucze do spejsu</title>
<ellipse fill="none" stroke="black" cx="639.91" cy="-362" rx="172.77" ry="18"/>
<text text-anchor="middle" x="639.91" y="-358.3" font-family="Times,serif" font-size="14.00">Miejsce::Miejsce#Klucze do spejsu</text>
</g>
<!-- d33tah&#45;&#45;Miejsce::Miejsce#Klucze do spejsu -->
<g id="edge9" class="edge">
<title>d33tah&#45;&#45;Miejsce::Miejsce#Klucze do spejsu</title>
<path fill="none" stroke="#ff0000" d="M92.15,-819.12C150.76,-819.12 313.82,-819.12 313.82,-819.12 313.82,-819.12 313.82,-376 313.82,-376 313.82,-376 436.08,-376 530.87,-376"/>
</g>
<!-- Infrastruktura::Mariuszbot#Mariuszbot -->
<g id="node11" class="node">
<title>Infrastruktura::Mariuszbot#Mariuszbot</title>
<ellipse fill="none" stroke="black" cx="639.91" cy="-1093" rx="196.07" ry="18"/>
<text text-anchor="middle" x="639.91" y="-1089.3" font-family="Times,serif" font-size="14.00">Infrastruktura::Mariuszbot#Mariuszbot</text>
</g>
<!-- d33tah&#45;&#45;Infrastruktura::Mariuszbot#Mariuszbot -->
<g id="edge10" class="edge">
<title>d33tah&#45;&#45;Infrastruktura::Mariuszbot#Mariuszbot</title>
<path fill="none" stroke="#ff0000" d="M99.74,-848.76C139.67,-848.76 207.82,-848.76 207.82,-848.76 207.82,-848.76 207.82,-1093 207.82,-1093 207.82,-1093 329.32,-1093 443.46,-1093"/>
</g>
<!-- Infrastruktura::Github#Github -->
<g id="node12" class="node">
<title>Infrastruktura::Github#Github</title>
<ellipse fill="none" stroke="black" cx="639.91" cy="-706" rx="154.07" ry="18"/>
<text text-anchor="middle" x="639.91" y="-702.3" font-family="Times,serif" font-size="14.00">Infrastruktura::Github#Github</text>
</g>
<!-- d33tah&#45;&#45;Infrastruktura::Github#Github -->
<g id="edge11" class="edge">
<title>d33tah&#45;&#45;Infrastruktura::Github#Github</title>
<path fill="none" stroke="#ff0000" d="M114.73,-831.82C224.59,-831.82 505.82,-831.82 505.82,-831.82 505.82,-831.82 505.82,-743.9 505.82,-715.05"/>
</g>
<!-- Drzwi&#45;frontowe#Ekran  -->
<g id="node13" class="node">
<title>Drzwi&#45;frontowe#Ekran </title>
<ellipse fill="none" stroke="black" cx="639.91" cy="-1050" rx="120.78" ry="18"/>
<text text-anchor="middle" x="639.91" y="-1046.3" font-family="Times,serif" font-size="14.00">Drzwi&#45;frontowe#Ekran </text>
</g>
<!-- d33tah&#45;&#45;Drzwi&#45;frontowe#Ekran  -->
<g id="edge12" class="edge">
<title>d33tah&#45;&#45;Drzwi&#45;frontowe#Ekran </title>
<path fill="none" stroke="black" d="M104.92,-846.65C149.76,-846.65 223.82,-846.65 223.82,-846.65 223.82,-846.65 223.82,-1050 223.82,-1050 223.82,-1050 396.15,-1050 519,-1050"/>
</g>
<!-- Bazy&#45;danych#Trello -->
<g id="node17" class="node">
<title>Bazy&#45;danych#Trello</title>
<ellipse fill="none" stroke="black" cx="639.91" cy="-1007" rx="103.98" ry="18"/>
<text text-anchor="middle" x="639.91" y="-1003.3" font-family="Times,serif" font-size="14.00">Bazy&#45;danych#Trello</text>
</g>
<!-- d33tah&#45;&#45;Bazy&#45;danych#Trello -->
<g id="edge13" class="edge">
<title>d33tah&#45;&#45;Bazy&#45;danych#Trello</title>
<path fill="none" stroke="#ff0000" d="M108.85,-844.53C158.44,-844.53 239.82,-844.53 239.82,-844.53 239.82,-844.53 239.82,-1007 239.82,-1007 239.82,-1007 417.29,-1007 535.83,-1007"/>
</g>
<!-- Marketing&#45;i&#45;media&#45;spoecznociowe# -->
<g id="node18" class="node">
<title>Marketing&#45;i&#45;media&#45;spoecznociowe#</title>
<ellipse fill="none" stroke="black" cx="639.91" cy="-577" rx="183.07" ry="18"/>
<text text-anchor="middle" x="639.91" y="-573.3" font-family="Times,serif" font-size="14.00">Marketing&#45;i&#45;media&#45;spoecznociowe#</text>
</g>
<!-- d33tah&#45;&#45;Marketing&#45;i&#45;media&#45;spoecznociowe# -->
<g id="edge14" class="edge">
<title>d33tah&#45;&#45;Marketing&#45;i&#45;media&#45;spoecznociowe#</title>
<path fill="none" stroke="#ff0000" d="M104.84,-823.35C175.7,-823.35 334.82,-823.35 334.82,-823.35 334.82,-823.35 334.82,-591.73 334.82,-591.73 334.82,-591.73 446.3,-591.73 534.49,-591.73"/>
</g>
<!-- Infrastruktura::Domeny#Domeny -->
<g id="node19" class="node">
<title>Infrastruktura::Domeny#Domeny</title>
<ellipse fill="none" stroke="black" cx="639.91" cy="-405" rx="167.07" ry="18"/>
<text text-anchor="middle" x="639.91" y="-401.3" font-family="Times,serif" font-size="14.00">Infrastruktura::Domeny#Domeny</text>
</g>
<!-- d33tah&#45;&#45;Infrastruktura::Domeny#Domeny -->
<g id="edge15" class="edge">
<title>d33tah&#45;&#45;Infrastruktura::Domeny#Domeny</title>
<path fill="none" stroke="#ff0000" d="M99.64,-821.24C164.08,-821.24 316.82,-821.24 316.82,-821.24 316.82,-821.24 316.82,-405 316.82,-405 316.82,-405 393.85,-405 472.69,-405"/>
</g>
<!-- Infrastruktura::Telegram#HS24: t.me/hsl_info -->
<g id="node20" class="node">
<title>Infrastruktura::Telegram#HS24: t.me/hsl_info</title>
<ellipse fill="none" stroke="black" cx="639.91" cy="-964" rx="231.26" ry="18"/>
<text text-anchor="middle" x="639.91" y="-960.3" font-family="Times,serif" font-size="14.00">Infrastruktura::Telegram#HS24: t.me/hsl_info</text>
</g>
<!-- d33tah&#45;&#45;Infrastruktura::Telegram#HS24: t.me/hsl_info -->
<g id="edge16" class="edge">
<title>d33tah&#45;&#45;Infrastruktura::Telegram#HS24: t.me/hsl_info</title>
<path fill="none" stroke="#ff0000" d="M111.49,-842.41C165.7,-842.41 255.82,-842.41 255.82,-842.41 255.82,-842.41 255.82,-964 255.82,-964 255.82,-964 327.22,-964 408.45,-964"/>
</g>
<!-- nastpne -->
<g id="node14" class="node">
<title>nastpne</title>
<ellipse fill="none" stroke="black" cx="71.49" cy="-1222" rx="53.09" ry="18"/>
<text text-anchor="middle" x="71.49" y="-1218.3" font-family="Times,serif" font-size="14.00">nastpne</text>
</g>
<!-- spotkanie -->
<g id="node15" class="node">
<title>spotkanie</title>
<ellipse fill="none" stroke="black" cx="71.49" cy="-1265" rx="55.79" ry="18"/>
<text text-anchor="middle" x="71.49" y="-1261.3" font-family="Times,serif" font-size="14.00">spotkanie</text>
</g>
<g id="node16" class="node">
<title></title>
<ellipse fill="none" stroke="#ff0000" cx="71.49" cy="-1308" rx="27" ry="18"/>
</g>
<!-- q3k -->
<g id="node21" class="node">
<title>q3k</title>
<ellipse fill="none" stroke="black" cx="71.49" cy="-405" rx="27.9" ry="18"/>
<text text-anchor="middle" x="71.49" y="-401.3" font-family="Times,serif" font-size="14.00">q3k</text>
</g>
<!-- q3k&#45;&#45;Kanay&#45;komunikacji# -->
<g id="edge17" class="edge">
<title>q3k&#45;&#45;Kanay&#45;komunikacji#</title>
<path fill="none" stroke="#2bd500" d="M92.38,-417C149.97,-417 306.82,-417 306.82,-417 306.82,-417 306.82,-612.29 306.82,-612.29 306.82,-612.29 443.52,-612.29 541.77,-612.29"/>
</g>
<!-- q3k&#45;&#45;Infrastruktura::Domeny#Domeny -->
<g id="edge19" class="edge">
<title>q3k&#45;&#45;Infrastruktura::Domeny#Domeny</title>
<path fill="none" stroke="#2bd500" d="M98.15,-399C165.69,-399 347.77,-399 482.29,-399"/>
</g>
<!-- Marketing&#45;i&#45;media&#45;spoecznociowe#Logo nr. 2 -->
<g id="node22" class="node">
<title>Marketing&#45;i&#45;media&#45;spoecznociowe#Logo nr. 2</title>
<ellipse fill="none" stroke="black" cx="639.91" cy="-448" rx="229.36" ry="18"/>
<text text-anchor="middle" x="639.91" y="-444.3" font-family="Times,serif" font-size="14.00">Marketing&#45;i&#45;media&#45;spoecznociowe#Logo nr. 2</text>
</g>
<!-- q3k&#45;&#45;Marketing&#45;i&#45;media&#45;spoecznociowe#Logo nr. 2 -->
<g id="edge18" class="edge">
<title>q3k&#45;&#45;Marketing&#45;i&#45;media&#45;spoecznociowe#Logo nr. 2</title>
<path fill="none" stroke="#2bd500" d="M97.91,-411C182.14,-411 438.82,-411 438.82,-411 438.82,-411 438.82,-428.09 438.82,-439.04"/>
</g>
<!-- thinkofher -->
<g id="node23" class="node">
<title>thinkofher</title>
<ellipse fill="none" stroke="black" cx="71.49" cy="-706" rx="59.29" ry="18"/>
<text text-anchor="middle" x="71.49" y="-702.3" font-family="Times,serif" font-size="14.00">thinkofher</text>
</g>
<!-- thinkofher&#45;&#45;Infrastruktura::Telegram#G贸wny: t.me/hakierspejs -->
<g id="edge20" class="edge">
<title>thinkofher&#45;&#45;Infrastruktura::Telegram#G贸wny: t.me/hakierspejs</title>
<path fill="none" stroke="#0061f2" d="M119.82,-695.46C119.82,-686.07 119.82,-673.8 119.82,-673.8 119.82,-673.8 292.19,-673.8 438.46,-673.8"/>
</g>
<!-- thinkofher&#45;&#45;Kanay&#45;komunikacji# -->
<g id="edge21" class="edge">
<title>thinkofher&#45;&#45;Kanay&#45;komunikacji#</title>
<path fill="none" stroke="#0061f2" d="M130.82,-706C209.58,-706 338.82,-706 338.82,-706 338.82,-706 338.82,-622.57 338.82,-622.57 338.82,-622.57 445.67,-622.57 532.06,-622.57"/>
</g>
<!-- thinkofher&#45;&#45;Infrastruktura::IRC#IRC -->
<g id="edge22" class="edge">
<title>thinkofher&#45;&#45;Infrastruktura::IRC#IRC</title>
<path fill="none" stroke="#0061f2" d="M122.82,-715.18C122.82,-736.19 122.82,-786 122.82,-786 122.82,-786 369.66,-786 522.25,-786"/>
</g>
<!-- thinkofher&#45;&#45;Infrastruktura::Github#Github -->
<g id="edge23" class="edge">
<title>thinkofher&#45;&#45;Infrastruktura::Github#Github</title>
<path fill="none" stroke="#0061f2" d="M115.62,-718C202.61,-718 398.72,-718 524.89,-718"/>
</g>
<!-- thinkofher&#45;&#45;Marketing&#45;i&#45;media&#45;spoecznociowe# -->
<g id="edge24" class="edge">
<title>thinkofher&#45;&#45;Marketing&#45;i&#45;media&#45;spoecznociowe#</title>
<path fill="none" stroke="#0061f2" d="M127.34,-700C203.84,-700 331.82,-700 331.82,-700 331.82,-700 331.82,-588.45 331.82,-588.45 331.82,-588.45 417.5,-588.45 498.49,-588.45"/>
</g>
<!-- Bazy&#45;danych# -->
<g id="node24" class="node">
<title>Bazy&#45;danych#</title>
<ellipse fill="none" stroke="black" cx="639.91" cy="-749" rx="77.19" ry="18"/>
<text text-anchor="middle" x="639.91" y="-745.3" font-family="Times,serif" font-size="14.00">Bazy&#45;danych#</text>
</g>
<!-- thinkofher&#45;&#45;Bazy&#45;danych# -->
<g id="edge25" class="edge">
<title>thinkofher&#45;&#45;Bazy&#45;danych#</title>
<path fill="none" stroke="#0061f2" d="M125.82,-713.42C125.82,-725.09 125.82,-746.43 125.82,-746.43 125.82,-746.43 419.91,-746.43 563.22,-746.43"/>
</g>
<!-- cytP450 -->
<g id="node25" class="node">
<title>cytP450</title>
<ellipse fill="none" stroke="black" cx="71.49" cy="-233" rx="48.99" ry="18"/>
<text text-anchor="middle" x="71.49" y="-229.3" font-family="Times,serif" font-size="14.00">cytP450</text>
</g>
<!-- cytP450&#45;&#45;Kanay&#45;komunikacji# -->
<g id="edge28" class="edge">
<title>cytP450&#45;&#45;Kanay&#45;komunikacji#</title>
<path fill="none" stroke="#c60077" d="M118.71,-237.5C152.42,-237.5 191.82,-237.5 191.82,-237.5 191.82,-237.5 191.82,-617.43 191.82,-617.43 191.82,-617.43 399.72,-617.43 532.29,-617.43"/>
</g>
<!-- cytP450&#45;&#45;Miejsce::Miejsce#Klucze do spejsu -->
<g id="edge31" class="edge">
<title>cytP450&#45;&#45;Miejsce::Miejsce#Klucze do spejsu</title>
<path fill="none" stroke="#c60077" d="M113.75,-242C127.28,-242 138.82,-242 138.82,-242 138.82,-242 138.82,-352 138.82,-352 138.82,-352 347.93,-352 495.98,-352"/>
</g>
<!-- cytP450&#45;&#45;Infrastruktura::Domeny#Domeny -->
<g id="edge33" class="edge">
<title>cytP450&#45;&#45;Infrastruktura::Domeny#Domeny</title>
<path fill="none" stroke="#c60077" d="M103.75,-246.5C118.96,-246.5 133.82,-246.5 133.82,-246.5 133.82,-246.5 133.82,-393 133.82,-393 133.82,-393 365.28,-393 515.13,-393"/>
</g>
<!-- Przegld&#45;lokali&#45;na&#45;wynajem&#45;w&#45;odzi.&#45;Fundusz&#45;1000&#45;&#45;&#45;1500.#Bot Aleksego -->
<g id="node26" class="node">
<title>Przegld&#45;lokali&#45;na&#45;wynajem&#45;w&#45;odzi.&#45;Fundusz&#45;1000&#45;&#45;&#45;1500.#Bot Aleksego</title>
<ellipse fill="none" stroke="black" cx="639.91" cy="-319" rx="351.74" ry="18"/>
<text text-anchor="middle" x="639.91" y="-315.3" font-family="Times,serif" font-size="14.00">Przegld&#45;lokali&#45;na&#45;wynajem&#45;w&#45;odzi.&#45;Fundusz&#45;1000&#45;&#45;&#45;1500.#Bot Aleksego</text>
</g>
<!-- cytP450&#45;&#45;Przegld&#45;lokali&#45;na&#45;wynajem&#45;w&#45;odzi.&#45;Fundusz&#45;1000&#45;&#45;&#45;1500.#Bot Aleksego -->
<g id="edge26" class="edge">
<title>cytP450&#45;&#45;Przegld&#45;lokali&#45;na&#45;wynajem&#45;w&#45;odzi.&#45;Fundusz&#45;1000&#45;&#45;&#45;1500.#Bot Aleksego</title>
<path fill="none" stroke="#c60077" d="M120.41,-233C187.76,-233 300.82,-233 300.82,-233 300.82,-233 300.82,-295.36 300.82,-313.88"/>
</g>
<!-- Zamek#Zamek -->
<g id="node27" class="node">
<title>Zamek#Zamek</title>
<ellipse fill="none" stroke="black" cx="639.91" cy="-276" rx="81.49" ry="18"/>
<text text-anchor="middle" x="639.91" y="-272.3" font-family="Times,serif" font-size="14.00">Zamek#Zamek</text>
</g>
<!-- cytP450&#45;&#45;Zamek#Zamek -->
<g id="edge27" class="edge">
<title>cytP450&#45;&#45;Zamek#Zamek</title>
<path fill="none" stroke="#c60077" d="M118.8,-228.5C195.33,-228.5 337.82,-228.5 337.82,-228.5 337.82,-228.5 337.82,-282 337.82,-282 337.82,-282 473.79,-282 563.29,-282"/>
</g>
<!-- Chciejlista#DIY -->
<g id="node28" class="node">
<title>Chciejlista#DIY</title>
<ellipse fill="none" stroke="black" cx="639.91" cy="-233" rx="83.69" ry="18"/>
<text text-anchor="middle" x="639.91" y="-229.3" font-family="Times,serif" font-size="14.00">Chciejlista#DIY</text>
</g>
<!-- cytP450&#45;&#45;Chciejlista#DIY -->
<g id="edge29" class="edge">
<title>cytP450&#45;&#45;Chciejlista#DIY</title>
<path fill="none" stroke="#c60077" d="M113.75,-224C210.11,-224 447,-224 567.29,-224"/>
</g>
<!-- Chciejlista#Elektronika (w sensie urzdze konsumenckich) -->
<g id="node29" class="node">
<title>Chciejlista#Elektronika (w sensie urzdze konsumenckich)</title>
<ellipse fill="none" stroke="black" cx="639.91" cy="-190" rx="289.75" ry="18"/>
<text text-anchor="middle" x="639.91" y="-186.3" font-family="Times,serif" font-size="14.00">Chciejlista#Elektronika (w sensie urzdze konsumenckich)</text>
</g>
<!-- cytP450&#45;&#45;Chciejlista#Elektronika (w sensie urzdze konsumenckich) -->
<g id="edge30" class="edge">
<title>cytP450&#45;&#45;Chciejlista#Elektronika (w sensie urzdze konsumenckich)</title>
<path fill="none" stroke="#c60077" d="M118.82,-228.59C118.82,-218.97 118.82,-197 118.82,-197 118.82,-197 244.56,-197 372.5,-197"/>
</g>
<!-- Stowarzyszenie#Komisja Rewizyjna -->
<g id="node30" class="node">
<title>Stowarzyszenie#Komisja Rewizyjna</title>
<ellipse fill="none" stroke="black" cx="639.91" cy="-61" rx="178.17" ry="18"/>
<text text-anchor="middle" x="639.91" y="-57.3" font-family="Times,serif" font-size="14.00">Stowarzyszenie#Komisja Rewizyjna</text>
</g>
<!-- cytP450&#45;&#45;Stowarzyszenie#Komisja Rewizyjna -->
<g id="edge32" class="edge">
<title>cytP450&#45;&#45;Stowarzyszenie#Komisja Rewizyjna</title>
<path fill="none" stroke="#c60077" d="M103.96,-219.5C172.53,-219.5 325.82,-219.5 325.82,-219.5 325.82,-219.5 325.82,-73 325.82,-73 325.82,-73 421.44,-73 507.16,-73"/>
</g>
<!-- pmysl -->
<g id="node31" class="node">
<title>pmysl</title>
<ellipse fill="none" stroke="black" cx="71.49" cy="-749" rx="38.19" ry="18"/>
<text text-anchor="middle" x="71.49" y="-745.3" font-family="Times,serif" font-size="14.00">pmysl</text>
</g>
<!-- pmysl&#45;&#45;Bazy&#45;danych#Grafana -->
<g id="edge34" class="edge">
<title>pmysl&#45;&#45;Bazy&#45;danych#Grafana</title>
<path fill="none" stroke="#b6e400" d="M98.48,-761.86C109.11,-761.86 118.82,-761.86 118.82,-761.86 118.82,-761.86 118.82,-833.94 118.82,-833.94 118.82,-833.94 372.16,-833.94 525.55,-833.94"/>
</g>
<!-- pmysl&#45;&#45;Kanay&#45;komunikacji# -->
<g id="edge35" class="edge">
<title>pmysl&#45;&#45;Kanay&#45;komunikacji#</title>
<path fill="none" stroke="#b6e400" d="M98.4,-736.14C166.78,-736.14 341.82,-736.14 341.82,-736.14 341.82,-736.14 341.82,-627.71 341.82,-627.71 341.82,-627.71 454.65,-627.71 541.48,-627.71"/>
</g>
<!-- pmysl&#45;&#45;Infrastruktura::IRC#IRC -->
<g id="edge36" class="edge">
<title>pmysl&#45;&#45;Infrastruktura::IRC#IRC</title>
<path fill="none" stroke="#b6e400" d="M106.31,-756.71C214.85,-756.71 539.82,-756.71 539.82,-756.71 539.82,-756.71 539.82,-770.84 539.82,-781.22"/>
</g>
<!-- pmysl&#45;&#45;Infrastruktura::Github#Github -->
<g id="edge37" class="edge">
<title>pmysl&#45;&#45;Infrastruktura::Github#Github</title>
<path fill="none" stroke="#b6e400" d="M106.22,-741.29C207.56,-741.29 495.82,-741.29 495.82,-741.29 495.82,-741.29 495.82,-722.66 495.82,-712.47"/>
</g>
<!-- pmysl&#45;&#45;Bazy&#45;danych# -->
<g id="edge38" class="edge">
<title>pmysl&#45;&#45;Bazy&#45;danych#</title>
<path fill="none" stroke="#b6e400" d="M109.67,-751.57C202.14,-751.57 439.58,-751.57 562.93,-751.57"/>
</g>
<!-- kpc -->
<g id="node32" class="node">
<title>kpc</title>
<ellipse fill="none" stroke="black" cx="71.49" cy="-168" rx="27" ry="18"/>
<text text-anchor="middle" x="71.49" y="-164.3" font-family="Times,serif" font-size="14.00">kpc</text>
</g>
<!-- kpc&#45;&#45;Infrastruktura::Telegram#posty: t.me/hakierspejs_spam -->
<g id="edge40" class="edge">
<title>kpc&#45;&#45;Infrastruktura::Telegram#posty: t.me/hakierspejs_spam</title>
<path fill="none" stroke="#00ffff" d="M92.94,-179C110.63,-179 132.82,-179 132.82,-179 132.82,-179 132.82,-523.2 132.82,-523.2 132.82,-523.2 277.52,-523.2 412.32,-523.2"/>
</g>
<!-- kpc&#45;&#45;Miejsce::Miejsce#Klucze do spejsu -->
<g id="edge39" class="edge">
<title>kpc&#45;&#45;Miejsce::Miejsce#Klucze do spejsu</title>
<path fill="none" stroke="#00ffff" d="M96.16,-175.5C115.74,-175.5 139.82,-175.5 139.82,-175.5 139.82,-175.5 139.82,-348 139.82,-348 139.82,-348 383.98,-348 531.09,-348"/>
</g>
<!-- kpc&#45;&#45;Marketing&#45;i&#45;media&#45;spoecznociowe# -->
<g id="edge43" class="edge">
<title>kpc&#45;&#45;Marketing&#45;i&#45;media&#45;spoecznociowe#</title>
<path fill="none" stroke="#00ffff" d="M87.71,-182.5C105.27,-182.5 130.82,-182.5 130.82,-182.5 130.82,-182.5 130.82,-568.82 130.82,-568.82 130.82,-568.82 327.52,-568.82 476.38,-568.82"/>
</g>
<!-- kpc&#45;&#45;Stowarzyszenie#Komisja Rewizyjna -->
<g id="edge42" class="edge">
<title>kpc&#45;&#45;Stowarzyszenie#Komisja Rewizyjna</title>
<path fill="none" stroke="#00ffff" d="M88.12,-153.75C100.34,-153.75 114.82,-153.75 114.82,-153.75 114.82,-153.75 114.82,-61 114.82,-61 114.82,-61 309.49,-61 461.77,-61"/>
</g>
<!-- Czaty&#45;HS#HS: posty wyklte -->
<g id="node33" class="node">
<title>Czaty&#45;HS#HS: posty wyklte</title>
<ellipse fill="none" stroke="black" cx="639.91" cy="-147" rx="157.87" ry="18"/>
<text text-anchor="middle" x="639.91" y="-143.3" font-family="Times,serif" font-size="14.00">Czaty&#45;HS#HS: posty wyklte</text>
</g>
<!-- kpc&#45;&#45;Czaty&#45;HS#HS: posty wyklte -->
<g id="edge41" class="edge">
<title>kpc&#45;&#45;Czaty&#45;HS#HS: posty wyklte</title>
<path fill="none" stroke="#00ffff" d="M96.65,-161.25C173.62,-161.25 408.85,-161.25 543.19,-161.25"/>
</g>
<!-- Infrastruktura::Telegram#Posty wyklte (celowo bez linka) -->
<g id="node34" class="node">
<title>Infrastruktura::Telegram#Posty wyklte (celowo bez linka)</title>
<ellipse fill="none" stroke="black" cx="639.91" cy="-104" rx="284.05" ry="18"/>
<text text-anchor="middle" x="639.91" y="-100.3" font-family="Times,serif" font-size="14.00">Infrastruktura::Telegram#Posty wyklte (celowo bez linka)</text>
</g>
<!-- kpc&#45;&#45;Infrastruktura::Telegram#Posty wyklte (celowo bez linka) -->
<g id="edge44" class="edge">
<title>kpc&#45;&#45;Infrastruktura::Telegram#Posty wyklte (celowo bez linka)</title>
<path fill="none" stroke="#00ffff" d="M93.55,-157.5C170.12,-157.5 419.82,-157.5 419.82,-157.5 419.82,-157.5 419.82,-131.34 419.82,-115.61"/>
</g>
<!-- BluRaf -->
<g id="node35" class="node">
<title>BluRaf</title>
<ellipse fill="none" stroke="black" cx="71.49" cy="-792" rx="42.49" ry="18"/>
<text text-anchor="middle" x="71.49" y="-788.3" font-family="Times,serif" font-size="14.00">BluRaf</text>
</g>
<!-- BluRaf&#45;&#45;Infrastruktura::IRC#IRC -->
<g id="edge45" class="edge">
<title>BluRaf&#45;&#45;Infrastruktura::IRC#IRC</title>
<path fill="none" stroke="#ab00d5" d="M111.46,-798C195.61,-798 393.84,-798 522.15,-798"/>
</g>
<!-- kujaw -->
<g id="node36" class="node">
<title>kujaw</title>
<ellipse fill="none" stroke="black" cx="71.49" cy="-448" rx="38.19" ry="18"/>
<text text-anchor="middle" x="71.49" y="-444.3" font-family="Times,serif" font-size="14.00">kujaw</text>
</g>
<!-- kujaw&#45;&#45;Stowarzyszenie#Zarzd -->
<g id="edge46" class="edge">
<title>kujaw&#45;&#45;Stowarzyszenie#Zarzd</title>
<path fill="none" stroke="#f29100" d="M100.28,-460C131.16,-460 175.82,-460 175.82,-460 175.82,-460 175.82,-1128.29 175.82,-1128.29 175.82,-1128.29 390.84,-1128.29 528.16,-1128.29"/>
</g>
<!-- kujaw&#45;&#45;Miejsce::Miejsce#Klucze do spejsu -->
<g id="edge49" class="edge">
<title>kujaw&#45;&#45;Miejsce::Miejsce#Klucze do spejsu</title>
<path fill="none" stroke="#f29100" d="M100.43,-436C160.42,-436 292.82,-436 292.82,-436 292.82,-436 292.82,-368 292.82,-368 292.82,-368 386.68,-368 476.78,-368"/>
</g>
<!-- kujaw&#45;&#45;Marketing&#45;i&#45;media&#45;spoecznociowe# -->
<g id="edge50" class="edge">
<title>kujaw&#45;&#45;Marketing&#45;i&#45;media&#45;spoecznociowe#</title>
<path fill="none" stroke="#f29100" d="M107.79,-454C177.84,-454 324.82,-454 324.82,-454 324.82,-454 324.82,-562.27 324.82,-562.27 324.82,-562.27 442.58,-562.27 534.11,-562.27"/>
</g>
<!-- kujaw&#45;&#45;Marketing&#45;i&#45;media&#45;spoecznociowe#Logo nr. 2 -->
<g id="edge47" class="edge">
<title>kujaw&#45;&#45;Marketing&#45;i&#45;media&#45;spoecznociowe#Logo nr. 2</title>
<path fill="none" stroke="#f29100" d="M107.92,-442C171.07,-442 305.46,-442 423.36,-442"/>
</g>
<!-- Marketing&#45;i&#45;media&#45;spoecznociowe#Naklejki -->
<g id="node37" class="node">
<title>Marketing&#45;i&#45;media&#45;spoecznociowe#Naklejki</title>
<ellipse fill="none" stroke="black" cx="639.91" cy="-491" rx="221.76" ry="18"/>
<text text-anchor="middle" x="639.91" y="-487.3" font-family="Times,serif" font-size="14.00">Marketing&#45;i&#45;media&#45;spoecznociowe#Naklejki</text>
</g>
<!-- kujaw&#45;&#45;Marketing&#45;i&#45;media&#45;spoecznociowe#Naklejki -->
<g id="edge48" class="edge">
<title>kujaw&#45;&#45;Marketing&#45;i&#45;media&#45;spoecznociowe#Naklejki</title>
<path fill="none" stroke="#f29100" d="M110.06,-448C186.26,-448 348.82,-448 348.82,-448 348.82,-448 348.82,-482 348.82,-482 348.82,-482 393.46,-482 447.78,-482"/>
</g>
<!-- Polimerek -->
<g id="node38" class="node">
<title>Polimerek</title>
<ellipse fill="none" stroke="black" cx="71.49" cy="-964" rx="57.39" ry="18"/>
<text text-anchor="middle" x="71.49" y="-960.3" font-family="Times,serif" font-size="14.00">Polimerek</text>
</g>
<!-- Polimerek&#45;&#45;Stowarzyszenie#Zarzd -->
<g id="edge51" class="edge">
<title>Polimerek&#45;&#45;Stowarzyszenie#Zarzd</title>
<path fill="none" stroke="#00c64f" d="M121.03,-973C192.18,-973 314.82,-973 314.82,-973 314.82,-973 314.82,-1123.14 314.82,-1123.14 314.82,-1123.14 456.92,-1123.14 553.22,-1123.14"/>
</g>
<!-- Polimerek&#45;&#45;Marketing&#45;i&#45;media&#45;spoecznociowe# -->
<g id="edge52" class="edge">
<title>Polimerek&#45;&#45;Marketing&#45;i&#45;media&#45;spoecznociowe#</title>
<path fill="none" stroke="#00c64f" d="M121.27,-955C180.6,-955 271.82,-955 271.82,-955 271.82,-955 271.82,-581.91 271.82,-581.91 271.82,-581.91 368.95,-581.91 463.41,-581.91"/>
</g>
<!-- Paliguma -->
<g id="node39" class="node">
<title>Paliguma</title>
<ellipse fill="none" stroke="black" cx="71.49" cy="-1093" rx="53.89" ry="18"/>
<text text-anchor="middle" x="71.49" y="-1089.3" font-family="Times,serif" font-size="14.00">Paliguma</text>
</g>
<!-- Paliguma&#45;&#45;Stowarzyszenie#Zarzd -->
<g id="edge53" class="edge">
<title>Paliguma&#45;&#45;Stowarzyszenie#Zarzd</title>
<path fill="none" stroke="#2e00e4" d="M116.82,-1102.78C116.82,-1117.52 116.82,-1143.71 116.82,-1143.71 116.82,-1143.71 374.35,-1143.71 528.01,-1143.71"/>
</g>
<!-- kotlovecrafta -->
<g id="node40" class="node">
<title>kotlovecrafta</title>
<ellipse fill="none" stroke="black" cx="71.49" cy="-620" rx="71.49" ry="18"/>
<text text-anchor="middle" x="71.49" y="-616.3" font-family="Times,serif" font-size="14.00">kotlovecrafta</text>
</g>
<!-- kotlovecrafta&#45;&#45;Stowarzyszenie#Zarzd -->
<g id="edge54" class="edge">
<title>kotlovecrafta&#45;&#45;Stowarzyszenie#Zarzd</title>
<path fill="none" stroke="#ff0000" d="M135.82,-628.15C135.82,-694.12 135.82,-1138.57 135.82,-1138.57 135.82,-1138.57 368.36,-1138.57 517.56,-1138.57"/>
</g>
<!-- kotlovecrafta&#45;&#45;Miejsce::Miejsce#Klucze do spejsu -->
<g id="edge55" class="edge">
<title>kotlovecrafta&#45;&#45;Miejsce::Miejsce#Klucze do spejsu</title>
<path fill="none" stroke="#ff0000" d="M121.75,-607.14C191.67,-607.14 309.82,-607.14 309.82,-607.14 309.82,-607.14 309.82,-372 309.82,-372 309.82,-372 407.14,-372 496.09,-372"/>
</g>
<!-- kotlovecrafta&#45;&#45;Marketing&#45;i&#45;media&#45;spoecznociowe# -->
<g id="edge56" class="edge">
<title>kotlovecrafta&#45;&#45;Marketing&#45;i&#45;media&#45;spoecznociowe#</title>
<path fill="none" stroke="#ff0000" d="M141.82,-616.75C141.82,-607 141.82,-578.64 141.82,-578.64 141.82,-578.64 315.11,-578.64 457.27,-578.64"/>
</g>
<!-- rux -->
<g id="node41" class="node">
<title>rux</title>
<ellipse fill="none" stroke="black" cx="71.49" cy="-1179" rx="27" ry="18"/>
<text text-anchor="middle" x="71.49" y="-1175.3" font-family="Times,serif" font-size="14.00">rux</text>
</g>
<!-- rux&#45;&#45;Stowarzyszenie#Zarzd -->
<g id="edge57" class="edge">
<title>rux&#45;&#45;Stowarzyszenie#Zarzd</title>
<path fill="none" stroke="#2bd500" d="M98.57,-1179C211.71,-1179 640.82,-1179 640.82,-1179 640.82,-1179 640.82,-1166.14 640.82,-1154.49"/>
</g>
<!-- Inoru -->
<g id="node42" class="node">
<title>Inoru</title>
<ellipse fill="none" stroke="black" cx="71.49" cy="-1136" rx="36" ry="18"/>
<text text-anchor="middle" x="71.49" y="-1132.3" font-family="Times,serif" font-size="14.00">Inoru</text>
</g>
<!-- Inoru&#45;&#45;Stowarzyszenie#Zarzd -->
<g id="edge58" class="edge">
<title>Inoru&#45;&#45;Stowarzyszenie#Zarzd</title>
<path fill="none" stroke="#0061f2" d="M96.65,-1148.86C175.61,-1148.86 421.1,-1148.86 553.38,-1148.86"/>
</g>
<!-- pzduniak -->
<g id="node43" class="node">
<title>pzduniak</title>
<ellipse fill="none" stroke="black" cx="71.49" cy="-18" rx="52.79" ry="18"/>
<text text-anchor="middle" x="71.49" y="-14.3" font-family="Times,serif" font-size="14.00">pzduniak</text>
</g>
<!-- pzduniak&#45;&#45;Stowarzyszenie#Komisja Rewizyjna -->
<g id="edge59" class="edge">
<title>pzduniak&#45;&#45;Stowarzyszenie#Komisja Rewizyjna</title>
<path fill="none" stroke="#c60077" d="M116.82,-27.47C116.82,-36.59 116.82,-49 116.82,-49 116.82,-49 351.92,-49 506.9,-49"/>
</g>
<!-- krcz -->
<g id="node44" class="node">
<title>krcz</title>
<ellipse fill="none" stroke="black" cx="71.49" cy="-104" rx="30.59" ry="18"/>
<text text-anchor="middle" x="71.49" y="-100.3" font-family="Times,serif" font-size="14.00">krcz</text>
</g>
<!-- krcz&#45;&#45;Stowarzyszenie#Komisja Rewizyjna -->
<g id="edge60" class="edge">
<title>krcz&#45;&#45;Stowarzyszenie#Komisja Rewizyjna</title>
<path fill="none" stroke="#b6e400" d="M102.19,-104C167.39,-104 313.82,-104 313.82,-104 313.82,-104 313.82,-67 313.82,-67 313.82,-67 391.88,-67 471.61,-67"/>
</g>
<!-- PiotrP -->
<g id="node45" class="node">
<title>PiotrP</title>
<ellipse fill="none" stroke="black" cx="71.49" cy="-61" rx="40.09" ry="18"/>
<text text-anchor="middle" x="71.49" y="-57.3" font-family="Times,serif" font-size="14.00">PiotrP</text>
</g>
<!-- PiotrP&#45;&#45;Stowarzyszenie#Komisja Rewizyjna -->
<g id="edge61" class="edge">
<title>PiotrP&#45;&#45;Stowarzyszenie#Komisja Rewizyjna</title>
<path fill="none" stroke="#00ffff" d="M109.67,-55C182.6,-55 345.71,-55 471.9,-55"/>
</g>
<!-- kszmigiel -->
<g id="node46" class="node">
<title>kszmigiel</title>
<ellipse fill="none" stroke="black" cx="71.49" cy="-534" rx="54.69" ry="18"/>
<text text-anchor="middle" x="71.49" y="-530.3" font-family="Times,serif" font-size="14.00">kszmigiel</text>
</g>
<!-- kszmigiel&#45;&#45;Infrastruktura::Telegram#G贸wny: t.me/hakierspejs -->
<g id="edge62" class="edge">
<title>kszmigiel&#45;&#45;Infrastruktura::Telegram#G贸wny: t.me/hakierspejs</title>
<path fill="none" stroke="#ab00d5" d="M125.15,-537.6C193.48,-537.6 302.82,-537.6 302.82,-537.6 302.82,-537.6 302.82,-652.2 302.82,-652.2 302.82,-652.2 366.48,-652.2 438.47,-652.2"/>
</g>
<!-- kszmigiel&#45;&#45;Infrastruktura::Telegram#posty: t.me/hakierspejs_spam -->
<g id="edge64" class="edge">
<title>kszmigiel&#45;&#45;Infrastruktura::Telegram#posty: t.me/hakierspejs_spam</title>
<path fill="none" stroke="#ab00d5" d="M125.22,-530.4C180.64,-530.4 271.44,-530.4 361.47,-530.4"/>
</g>
<!-- kszmigiel&#45;&#45;Infrastruktura::Github#Github -->
<g id="edge65" class="edge">
<title>kszmigiel&#45;&#45;Infrastruktura::Github#Github</title>
<path fill="none" stroke="#ab00d5" d="M115.25,-544.8C181.55,-544.8 299.82,-544.8 299.82,-544.8 299.82,-544.8 299.82,-694 299.82,-694 299.82,-694 426.11,-694 524.77,-694"/>
</g>
<!-- kszmigiel&#45;&#45;Marketing&#45;i&#45;media&#45;spoecznociowe# -->
<g id="edge66" class="edge">
<title>kszmigiel&#45;&#45;Marketing&#45;i&#45;media&#45;spoecznociowe#</title>
<path fill="none" stroke="#ab00d5" d="M116.82,-544.41C116.82,-555.69 116.82,-572.09 116.82,-572.09 116.82,-572.09 311.69,-572.09 463.54,-572.09"/>
</g>
<!-- kszmigiel&#45;&#45;Marketing&#45;i&#45;media&#45;spoecznociowe#Naklejki -->
<g id="edge63" class="edge">
<title>kszmigiel&#45;&#45;Marketing&#45;i&#45;media&#45;spoecznociowe#Naklejki</title>
<path fill="none" stroke="#ab00d5" d="M118.82,-524.71C118.82,-514.64 118.82,-500 118.82,-500 118.82,-500 299.22,-500 447.72,-500"/>
</g>
<!-- SP7Q -->
<g id="node47" class="node">
<title>SP7Q</title>
<ellipse fill="none" stroke="black" cx="71.49" cy="-663" rx="36.29" ry="18"/>
<text text-anchor="middle" x="71.49" y="-659.3" font-family="Times,serif" font-size="14.00">SP7Q</text>
</g>
<!-- SP7Q&#45;&#45;Infrastruktura::Github#Github -->
<g id="edge68" class="edge">
<title>SP7Q&#45;&#45;Infrastruktura::Github#Github</title>
<path fill="none" stroke="#f29100" d="M107.54,-666.6C170.95,-666.6 295.82,-666.6 295.82,-666.6 295.82,-666.6 295.82,-712 295.82,-712 295.82,-712 400.58,-712 494.48,-712"/>
</g>
<!-- SP7Q&#45;&#45;Marketing&#45;i&#45;media&#45;spoecznociowe# -->
<g id="edge67" class="edge">
<title>SP7Q&#45;&#45;Marketing&#45;i&#45;media&#45;spoecznociowe#</title>
<path fill="none" stroke="#f29100" d="M107.41,-659.4C177.95,-659.4 327.82,-659.4 327.82,-659.4 327.82,-659.4 327.82,-585.18 327.82,-585.18 327.82,-585.18 401.04,-585.18 476.55,-585.18"/>
</g>
<!-- biniu -->
<g id="node48" class="node">
<title>biniu</title>
<ellipse fill="none" stroke="black" cx="71.49" cy="-491" rx="34.39" ry="18"/>
<text text-anchor="middle" x="71.49" y="-487.3" font-family="Times,serif" font-size="14.00">biniu</text>
</g>
<!-- biniu&#45;&#45;Marketing&#45;i&#45;media&#45;spoecznociowe# -->
<g id="edge69" class="edge">
<title>biniu&#45;&#45;Marketing&#45;i&#45;media&#45;spoecznociowe#</title>
<path fill="none" stroke="#00c64f" d="M106.16,-491C174.67,-491 320.82,-491 320.82,-491 320.82,-491 320.82,-565.55 320.82,-565.55 320.82,-565.55 412.88,-565.55 498.09,-565.55"/>
</g>
<!-- Keij0 -->
<g id="node49" class="node">
<title>Keij0</title>
<ellipse fill="none" stroke="black" cx="71.49" cy="-577" rx="34.39" ry="18"/>
<text text-anchor="middle" x="71.49" y="-573.3" font-family="Times,serif" font-size="14.00">Keij0</text>
</g>
<!-- Keij0&#45;&#45;Marketing&#45;i&#45;media&#45;spoecznociowe# -->
<g id="edge70" class="edge">
<title>Keij0&#45;&#45;Marketing&#45;i&#45;media&#45;spoecznociowe#</title>
<path fill="none" stroke="#2e00e4" d="M106.19,-575.36C174.65,-575.36 331.37,-575.36 457.38,-575.36"/>
</g>
<!-- kasesag -->
<g id="node50" class="node">
<title>kasesag</title>
<ellipse fill="none" stroke="black" cx="71.49" cy="-1351" rx="48.19" ry="18"/>
<text text-anchor="middle" x="71.49" y="-1347.3" font-family="Times,serif" font-size="14.00">kasesag</text>
</g>
<!-- Marketing&#45;i&#45;media&#45;spoecznociowe#Przycisk HS&#45;LDZ -->
<g id="node51" class="node">
<title>Marketing&#45;i&#45;media&#45;spoecznociowe#Przycisk HS&#45;LDZ</title>
<ellipse fill="none" stroke="black" cx="639.91" cy="-1351" rx="261.85" ry="18"/>
<text text-anchor="middle" x="639.91" y="-1347.3" font-family="Times,serif" font-size="14.00">Marketing&#45;i&#45;media&#45;spoecznociowe#Przycisk HS&#45;LDZ</text>
</g>
<!-- kasesag&#45;&#45;Marketing&#45;i&#45;media&#45;spoecznociowe#Przycisk HS&#45;LDZ -->
<g id="edge71" class="edge">
<title>kasesag&#45;&#45;Marketing&#45;i&#45;media&#45;spoecznociowe#Przycisk HS&#45;LDZ</title>
<path fill="none" stroke="#ff0000" d="M119.96,-1351C177.95,-1351 279.55,-1351 377.64,-1351"/>
</g>
<!-- hslbridgebot -->
<g id="node52" class="node">
<title>hslbridgebot</title>
<ellipse fill="none" stroke="black" cx="71.49" cy="-1437" rx="69.59" ry="18"/>
<text text-anchor="middle" x="71.49" y="-1433.3" font-family="Times,serif" font-size="14.00">hslbridgebot</text>
</g>
<!-- Mostkowanie&#45;kana贸w#mautrix&#45;telegram (aktualnie u偶ywany) -->
<g id="node53" class="node">
<title>Mostkowanie&#45;kana贸w#mautrix&#45;telegram (aktualnie u偶ywany)</title>
<ellipse fill="none" stroke="black" cx="639.91" cy="-1415" rx="297.85" ry="18"/>
<text text-anchor="middle" x="639.91" y="-1411.3" font-family="Times,serif" font-size="14.00">Mostkowanie&#45;kana贸w#mautrix&#45;telegram (aktualnie u偶ywany)</text>
</g>
<!-- hslbridgebot&#45;&#45;Mostkowanie&#45;kana贸w#mautrix&#45;telegram (aktualnie u偶ywany) -->
<g id="edge72" class="edge">
<title>hslbridgebot&#45;&#45;Mostkowanie&#45;kana贸w#mautrix&#45;telegram (aktualnie u偶ywany)</title>
<path fill="none" stroke="#2bd500" d="M126.77,-1426C191.22,-1426 301.96,-1426 404.11,-1426"/>
</g>
<!-- telegrambot -->
<g id="node54" class="node">
<title>telegrambot</title>
<ellipse fill="none" stroke="black" cx="71.49" cy="-1394" rx="67.69" ry="18"/>
<text text-anchor="middle" x="71.49" y="-1390.3" font-family="Times,serif" font-size="14.00">telegrambot</text>
</g>
<!-- telegrambot&#45;&#45;Mostkowanie&#45;kana贸w#mautrix&#45;telegram (aktualnie u偶ywany) -->
<g id="edge73" class="edge">
<title>telegrambot&#45;&#45;Mostkowanie&#45;kana贸w#mautrix&#45;telegram (aktualnie u偶ywany)</title>
<path fill="none" stroke="#0061f2" d="M126.51,-1404.5C189.62,-1404.5 297.36,-1404.5 397.9,-1404.5"/>
</g>
<!-- Piotrek_P -->
<g id="node55" class="node">
<title>Piotrek_P</title>
<ellipse fill="none" stroke="black" cx="71.49" cy="-276" rx="55.49" ry="18"/>
<text text-anchor="middle" x="71.49" y="-272.3" font-family="Times,serif" font-size="14.00">Piotrek_P</text>
</g>
<!-- Piotrek_P&#45;&#45;Miejsce::Miejsce#Klucze do spejsu -->
<g id="edge74" class="edge">
<title>Piotrek_P&#45;&#45;Miejsce::Miejsce#Klucze do spejsu</title>
<path fill="none" stroke="#c60077" d="M123.6,-270C131.37,-270 136.82,-270 136.82,-270 136.82,-270 136.82,-356 136.82,-356 136.82,-356 329.67,-356 476.57,-356"/>
</g>
<!-- polimerek -->
<g id="node56" class="node">
<title>polimerek</title>
<ellipse fill="none" stroke="black" cx="71.49" cy="-362" rx="57.39" ry="18"/>
<text text-anchor="middle" x="71.49" y="-358.3" font-family="Times,serif" font-size="14.00">polimerek</text>
</g>
<!-- polimerek&#45;&#45;Miejsce::Miejsce#Klucze do spejsu -->
<g id="edge75" class="edge">
<title>polimerek&#45;&#45;Miejsce::Miejsce#Klucze do spejsu</title>
<path fill="none" stroke="#b6e400" d="M128.34,-364C206.92,-364 352.16,-364 467.86,-364"/>
</g>
<!-- sp7adg -->
<g id="node57" class="node">
<title>sp7adg</title>
<ellipse fill="none" stroke="black" cx="71.49" cy="-319" rx="44.39" ry="18"/>
<text text-anchor="middle" x="71.49" y="-315.3" font-family="Times,serif" font-size="14.00">sp7adg</text>
</g>
<!-- sp7adg&#45;&#45;Miejsce::Miejsce#Klucze do spejsu -->
<g id="edge76" class="edge">
<title>sp7adg&#45;&#45;Miejsce::Miejsce#Klucze do spejsu</title>
<path fill="none" stroke="#00ffff" d="M115.82,-319C126.97,-319 135.82,-319 135.82,-319 135.82,-319 135.82,-360 135.82,-360 135.82,-360 321.81,-360 467.84,-360"/>
</g>
</g>
</svg>
