<?xml version="1.0" encoding="UTF-8" standalone="no"?>
<!DOCTYPE svg PUBLIC "-//W3C//DTD SVG 1.1//EN"
 "http://www.w3.org/Graphics/SVG/1.1/DTD/svg11.dtd">
<!-- Generated by graphviz version 2.43.0 (0)
 -->
<!-- Title: %3 Pages: 1 -->
<svg width="1001pt" height="1377pt"
 viewBox="0.00 0.00 1000.82 1377.00" xmlns="http://www.w3.org/2000/svg" xmlns:xlink="http://www.w3.org/1999/xlink">
<g id="graph0" class="graph" transform="scale(1 1) rotate(0) translate(4 1373)">
<title>%3</title>
<polygon fill="white" stroke="transparent" points="-4,4 -4,-1373 996.82,-1373 996.82,4 -4,4"/>
<!-- cytP450 -->
<g id="node1" class="node">
<title>cytP450</title>
<ellipse fill="none" stroke="black" cx="71.49" cy="-1136" rx="48.99" ry="18"/>
<text text-anchor="middle" x="71.49" y="-1132.3" font-family="Times,serif" font-size="14.00">cytP450</text>
</g>
<!-- Kanay&#45;komunikacji# -->
<g id="node2" class="node">
<title>Kanay&#45;komunikacji#</title>
<ellipse fill="none" stroke="black" cx="639.91" cy="-964" rx="108.58" ry="18"/>
<text text-anchor="middle" x="639.91" y="-960.3" font-family="Times,serif" font-size="14.00">Kanay&#45;komunikacji#</text>
</g>
<!-- cytP450&#45;&#45;Kanay&#45;komunikacji# -->
<g id="edge1" class="edge">
<title>cytP450&#45;&#45;Kanay&#45;komunikacji#</title>
<path fill="none" stroke="#ff0000" d="M117.63,-1130C177.62,-1130 274.82,-1130 274.82,-1130 274.82,-1130 274.82,-977.5 274.82,-977.5 274.82,-977.5 461.38,-977.5 567.78,-977.5"/>
</g>
<!-- Przegld&#45;lokali&#45;na&#45;wynajem&#45;w&#45;odzi.&#45;Fundusz&#45;1000&#45;&#45;&#45;1500.#Bot Aleksego -->
<g id="node3" class="node">
<title>Przegld&#45;lokali&#45;na&#45;wynajem&#45;w&#45;odzi.&#45;Fundusz&#45;1000&#45;&#45;&#45;1500.#Bot Aleksego</title>
<ellipse fill="none" stroke="black" cx="639.91" cy="-1093" rx="351.74" ry="18"/>
<text text-anchor="middle" x="639.91" y="-1089.3" font-family="Times,serif" font-size="14.00">Przegld&#45;lokali&#45;na&#45;wynajem&#45;w&#45;odzi.&#45;Fundusz&#45;1000&#45;&#45;&#45;1500.#Bot Aleksego</text>
</g>
<!-- cytP450&#45;&#45;Przegld&#45;lokali&#45;na&#45;wynajem&#45;w&#45;odzi.&#45;Fundusz&#45;1000&#45;&#45;&#45;1500.#Bot Aleksego -->
<g id="edge2" class="edge">
<title>cytP450&#45;&#45;Przegld&#45;lokali&#45;na&#45;wynajem&#45;w&#45;odzi.&#45;Fundusz&#45;1000&#45;&#45;&#45;1500.#Bot Aleksego</title>
<path fill="none" stroke="#ff0000" d="M120.04,-1138C193.6,-1138 324.82,-1138 324.82,-1138 324.82,-1138 324.82,-1114.24 324.82,-1101.25"/>
</g>
<!-- Infrastruktura::Domeny#Domeny -->
<g id="node4" class="node">
<title>Infrastruktura::Domeny#Domeny</title>
<ellipse fill="none" stroke="black" cx="639.91" cy="-1007" rx="167.07" ry="18"/>
<text text-anchor="middle" x="639.91" y="-1003.3" font-family="Times,serif" font-size="14.00">Infrastruktura::Domeny#Domeny</text>
</g>
<!-- cytP450&#45;&#45;Infrastruktura::Domeny#Domeny -->
<g id="edge3" class="edge">
<title>cytP450&#45;&#45;Infrastruktura::Domeny#Domeny</title>
<path fill="none" stroke="#ff0000" d="M120.04,-1134C181.88,-1134 280.82,-1134 280.82,-1134 280.82,-1134 280.82,-1013 280.82,-1013 280.82,-1013 385.93,-1013 482.41,-1013"/>
</g>
<!-- Stowarzyszenie#Komisja Rewizyjna -->
<g id="node5" class="node">
<title>Stowarzyszenie#Komisja Rewizyjna</title>
<ellipse fill="none" stroke="black" cx="639.91" cy="-1050" rx="178.17" ry="18"/>
<text text-anchor="middle" x="639.91" y="-1046.3" font-family="Times,serif" font-size="14.00">Stowarzyszenie#Komisja Rewizyjna</text>
</g>
<!-- cytP450&#45;&#45;Stowarzyszenie#Komisja Rewizyjna -->
<g id="edge4" class="edge">
<title>cytP450&#45;&#45;Stowarzyszenie#Komisja Rewizyjna</title>
<path fill="none" stroke="#ff0000" d="M102.16,-1122C117.49,-1122 132.82,-1122 132.82,-1122 132.82,-1122 132.82,-1062 132.82,-1062 132.82,-1062 356.77,-1062 507.01,-1062"/>
</g>
<!-- Chciejlista#Elektronika (w sensie urzdze konsumenckich) -->
<g id="node6" class="node">
<title>Chciejlista#Elektronika (w sensie urzdze konsumenckich)</title>
<ellipse fill="none" stroke="black" cx="639.91" cy="-1222" rx="289.75" ry="18"/>
<text text-anchor="middle" x="639.91" y="-1218.3" font-family="Times,serif" font-size="14.00">Chciejlista#Elektronika (w sensie urzdze konsumenckich)</text>
</g>
<!-- cytP450&#45;&#45;Chciejlista#Elektronika (w sensie urzdze konsumenckich) -->
<g id="edge5" class="edge">
<title>cytP450&#45;&#45;Chciejlista#Elektronika (w sensie urzdze konsumenckich)</title>
<path fill="none" stroke="#ff0000" d="M112.05,-1146C210.45,-1146 453.82,-1146 453.82,-1146 453.82,-1146 453.82,-1186.12 453.82,-1208.06"/>
</g>
<!-- Zamek#Zamek -->
<g id="node7" class="node">
<title>Zamek#Zamek</title>
<ellipse fill="none" stroke="black" cx="639.91" cy="-1179" rx="81.49" ry="18"/>
<text text-anchor="middle" x="639.91" y="-1175.3" font-family="Times,serif" font-size="14.00">Zamek#Zamek</text>
</g>
<!-- cytP450&#45;&#45;Zamek#Zamek -->
<g id="edge6" class="edge">
<title>cytP450&#45;&#45;Zamek#Zamek</title>
<path fill="none" stroke="#ff0000" d="M102.26,-1150C166.05,-1150 306.82,-1150 306.82,-1150 306.82,-1150 306.82,-1179 306.82,-1179 306.82,-1179 459.82,-1179 558.43,-1179"/>
</g>
<!-- Miejsce::Miejsce#Klucze do spejsu -->
<g id="node8" class="node">
<title>Miejsce::Miejsce#Klucze do spejsu</title>
<ellipse fill="none" stroke="black" cx="639.91" cy="-921" rx="172.77" ry="18"/>
<text text-anchor="middle" x="639.91" y="-917.3" font-family="Times,serif" font-size="14.00">Miejsce::Miejsce#Klucze do spejsu</text>
</g>
<!-- cytP450&#45;&#45;Miejsce::Miejsce#Klucze do spejsu -->
<g id="edge7" class="edge">
<title>cytP450&#45;&#45;Miejsce::Miejsce#Klucze do spejsu</title>
<path fill="none" stroke="#ff0000" d="M112.17,-1126C169.68,-1126 267.82,-1126 267.82,-1126 267.82,-1126 267.82,-935 267.82,-935 267.82,-935 421.23,-935 531.03,-935"/>
</g>
<!-- Chciejlista#DIY -->
<g id="node9" class="node">
<title>Chciejlista#DIY</title>
<ellipse fill="none" stroke="black" cx="639.91" cy="-1136" rx="83.69" ry="18"/>
<text text-anchor="middle" x="639.91" y="-1132.3" font-family="Times,serif" font-size="14.00">Chciejlista#DIY</text>
</g>
<!-- cytP450&#45;&#45;Chciejlista#DIY -->
<g id="edge8" class="edge">
<title>cytP450&#45;&#45;Chciejlista#DIY</title>
<path fill="none" stroke="#ff0000" d="M117.53,-1142C214.39,-1142 440.25,-1142 560.79,-1142"/>
</g>
<!-- thinkofher -->
<g id="node10" class="node">
<title>thinkofher</title>
<ellipse fill="none" stroke="black" cx="71.49" cy="-706" rx="59.29" ry="18"/>
<text text-anchor="middle" x="71.49" y="-702.3" font-family="Times,serif" font-size="14.00">thinkofher</text>
</g>
<!-- thinkofher&#45;&#45;Kanay&#45;komunikacji# -->
<g id="edge16" class="edge">
<title>thinkofher&#45;&#45;Kanay&#45;komunikacji#</title>
<path fill="none" stroke="#2bd500" d="M110.64,-719.5C138.06,-719.5 169.82,-719.5 169.82,-719.5 169.82,-719.5 169.82,-959.5 169.82,-959.5 169.82,-959.5 396.13,-959.5 534.7,-959.5"/>
</g>
<!-- Infrastruktura::Telegram#G贸wny: t.me/hakierspejs -->
<g id="node11" class="node">
<title>Infrastruktura::Telegram#G贸wny: t.me/hakierspejs</title>
<ellipse fill="none" stroke="black" cx="639.91" cy="-534" rx="251.56" ry="18"/>
<text text-anchor="middle" x="639.91" y="-530.3" font-family="Times,serif" font-size="14.00">Infrastruktura::Telegram#G贸wny: t.me/hakierspejs</text>
</g>
<!-- thinkofher&#45;&#45;Infrastruktura::Telegram#G贸wny: t.me/hakierspejs -->
<g id="edge9" class="edge">
<title>thinkofher&#45;&#45;Infrastruktura::Telegram#G贸wny: t.me/hakierspejs</title>
<path fill="none" stroke="#2bd500" d="M116.82,-694.4C116.82,-656.84 116.82,-541 116.82,-541 116.82,-541 268,-541 407.81,-541"/>
</g>
<!-- Infrastruktura::Github#Github -->
<g id="node12" class="node">
<title>Infrastruktura::Github#Github</title>
<ellipse fill="none" stroke="black" cx="639.91" cy="-620" rx="154.07" ry="18"/>
<text text-anchor="middle" x="639.91" y="-616.3" font-family="Times,serif" font-size="14.00">Infrastruktura::Github#Github</text>
</g>
<!-- thinkofher&#45;&#45;Infrastruktura::Github#Github -->
<g id="edge10" class="edge">
<title>thinkofher&#45;&#45;Infrastruktura::Github#Github</title>
<path fill="none" stroke="#2bd500" d="M123.82,-697.44C123.82,-676.8 123.82,-626 123.82,-626 123.82,-626 341.8,-626 494.43,-626"/>
</g>
<!-- Bazy&#45;danych# -->
<g id="node13" class="node">
<title>Bazy&#45;danych#</title>
<ellipse fill="none" stroke="black" cx="639.91" cy="-878" rx="77.19" ry="18"/>
<text text-anchor="middle" x="639.91" y="-874.3" font-family="Times,serif" font-size="14.00">Bazy&#45;danych#</text>
</g>
<!-- thinkofher&#45;&#45;Bazy&#45;danych# -->
<g id="edge11" class="edge">
<title>thinkofher&#45;&#45;Bazy&#45;danych#</title>
<path fill="none" stroke="#2bd500" d="M122.72,-715C170.62,-715 234.82,-715 234.82,-715 234.82,-715 234.82,-872 234.82,-872 234.82,-872 449.82,-872 566.55,-872"/>
</g>
<!-- Infrastruktura::Matrix#hs&#45;ldz&#45;offtopic:hackerspace.pl -->
<g id="node14" class="node">
<title>Infrastruktura::Matrix#hs&#45;ldz&#45;offtopic:hackerspace.pl</title>
<ellipse fill="none" stroke="black" cx="639.91" cy="-835" rx="258.85" ry="18"/>
<text text-anchor="middle" x="639.91" y="-831.3" font-family="Times,serif" font-size="14.00">Infrastruktura::Matrix#hs&#45;ldz&#45;offtopic:hackerspace.pl</text>
</g>
<!-- thinkofher&#45;&#45;Infrastruktura::Matrix#hs&#45;ldz&#45;offtopic:hackerspace.pl -->
<g id="edge12" class="edge">
<title>thinkofher&#45;&#45;Infrastruktura::Matrix#hs&#45;ldz&#45;offtopic:hackerspace.pl</title>
<path fill="none" stroke="#2bd500" d="M128.78,-710.5C218.95,-710.5 383.82,-710.5 383.82,-710.5 383.82,-710.5 383.82,-814.52 383.82,-832.4"/>
</g>
<!-- Infrastruktura::IRC#IRC -->
<g id="node15" class="node">
<title>Infrastruktura::IRC#IRC</title>
<ellipse fill="none" stroke="black" cx="639.91" cy="-663" rx="124.58" ry="18"/>
<text text-anchor="middle" x="639.91" y="-659.3" font-family="Times,serif" font-size="14.00">Infrastruktura::IRC#IRC</text>
</g>
<!-- thinkofher&#45;&#45;Infrastruktura::IRC#IRC -->
<g id="edge13" class="edge">
<title>thinkofher&#45;&#45;Infrastruktura::IRC#IRC</title>
<path fill="none" stroke="#2bd500" d="M124.82,-698.03C124.82,-686.51 124.82,-666.6 124.82,-666.6 124.82,-666.6 365.18,-666.6 517.51,-666.6"/>
</g>
<!-- Marketing&#45;i&#45;media&#45;spoecznociowe# -->
<g id="node16" class="node">
<title>Marketing&#45;i&#45;media&#45;spoecznociowe#</title>
<ellipse fill="none" stroke="black" cx="639.91" cy="-147" rx="183.07" ry="18"/>
<text text-anchor="middle" x="639.91" y="-143.3" font-family="Times,serif" font-size="14.00">Marketing&#45;i&#45;media&#45;spoecznociowe#</text>
</g>
<!-- thinkofher&#45;&#45;Marketing&#45;i&#45;media&#45;spoecznociowe# -->
<g id="edge14" class="edge">
<title>thinkofher&#45;&#45;Marketing&#45;i&#45;media&#45;spoecznociowe#</title>
<path fill="none" stroke="#2bd500" d="M110.82,-692.5C164.69,-692.5 254.82,-692.5 254.82,-692.5 254.82,-692.5 254.82,-160.5 254.82,-160.5 254.82,-160.5 405.72,-160.5 518.59,-160.5"/>
</g>
<!-- Infrastruktura::Matrix#hs&#45;ldz:hackerspace.pl -->
<g id="node17" class="node">
<title>Infrastruktura::Matrix#hs&#45;ldz:hackerspace.pl</title>
<ellipse fill="none" stroke="black" cx="639.91" cy="-792" rx="221.76" ry="18"/>
<text text-anchor="middle" x="639.91" y="-788.3" font-family="Times,serif" font-size="14.00">Infrastruktura::Matrix#hs&#45;ldz:hackerspace.pl</text>
</g>
<!-- thinkofher&#45;&#45;Infrastruktura::Matrix#hs&#45;ldz:hackerspace.pl -->
<g id="edge15" class="edge">
<title>thinkofher&#45;&#45;Infrastruktura::Matrix#hs&#45;ldz:hackerspace.pl</title>
<path fill="none" stroke="#2bd500" d="M130.81,-706C222.15,-706 386.82,-706 386.82,-706 386.82,-706 386.82,-798 386.82,-798 386.82,-798 404.68,-798 430.91,-798"/>
</g>
<!-- d33tah -->
<g id="node18" class="node">
<title>d33tah</title>
<ellipse fill="none" stroke="black" cx="71.49" cy="-512" rx="43.59" ry="18"/>
<text text-anchor="middle" x="71.49" y="-508.3" font-family="Times,serif" font-size="14.00">d33tah</text>
</g>
<!-- d33tah&#45;&#45;Kanay&#45;komunikacji# -->
<g id="edge17" class="edge">
<title>d33tah&#45;&#45;Kanay&#45;komunikacji#</title>
<path fill="none" stroke="#0061f2" d="M102.23,-524.75C133.01,-524.75 175.82,-524.75 175.82,-524.75 175.82,-524.75 175.82,-950.5 175.82,-950.5 175.82,-950.5 437.55,-950.5 567.9,-950.5"/>
</g>
<!-- d33tah&#45;&#45;Infrastruktura::Domeny#Domeny -->
<g id="edge21" class="edge">
<title>d33tah&#45;&#45;Infrastruktura::Domeny#Domeny</title>
<path fill="none" stroke="#0061f2" d="M97.56,-526.5C122.65,-526.5 156.82,-526.5 156.82,-526.5 156.82,-526.5 156.82,-1001 156.82,-1001 156.82,-1001 341.42,-1001 482.4,-1001"/>
</g>
<!-- d33tah&#45;&#45;Miejsce::Miejsce#Klucze do spejsu -->
<g id="edge32" class="edge">
<title>d33tah&#45;&#45;Miejsce::Miejsce#Klucze do spejsu</title>
<path fill="none" stroke="#0061f2" d="M106.15,-523C146.83,-523 208.82,-523 208.82,-523 208.82,-523 208.82,-915 208.82,-915 208.82,-915 354.61,-915 476.63,-915"/>
</g>
<!-- d33tah&#45;&#45;Infrastruktura::Telegram#G贸wny: t.me/hakierspejs -->
<g id="edge23" class="edge">
<title>d33tah&#45;&#45;Infrastruktura::Telegram#G贸wny: t.me/hakierspejs</title>
<path fill="none" stroke="#0061f2" d="M111.46,-519.5C188.98,-519.5 363.29,-519.5 490.6,-519.5"/>
</g>
<!-- d33tah&#45;&#45;Infrastruktura::Github#Github -->
<g id="edge30" class="edge">
<title>d33tah&#45;&#45;Infrastruktura::Github#Github</title>
<path fill="none" stroke="#0061f2" d="M57.82,-529.35C57.82,-559.88 57.82,-620 57.82,-620 57.82,-620 313.38,-620 485.83,-620"/>
</g>
<!-- d33tah&#45;&#45;Infrastruktura::IRC#IRC -->
<g id="edge28" class="edge">
<title>d33tah&#45;&#45;Infrastruktura::IRC#IRC</title>
<path fill="none" stroke="#0061f2" d="M90.47,-528.25C103.64,-528.25 118.82,-528.25 118.82,-528.25 118.82,-528.25 118.82,-652.2 118.82,-652.2 118.82,-652.2 388.75,-652.2 540.05,-652.2"/>
</g>
<!-- d33tah&#45;&#45;Marketing&#45;i&#45;media&#45;spoecznociowe# -->
<g id="edge29" class="edge">
<title>d33tah&#45;&#45;Marketing&#45;i&#45;media&#45;spoecznociowe#</title>
<path fill="none" stroke="#0061f2" d="M109.26,-503C143.56,-503 188.82,-503 188.82,-503 188.82,-503 188.82,-156 188.82,-156 188.82,-156 351,-156 480.87,-156"/>
</g>
<!-- Drzwi&#45;frontowe#Ekran  -->
<g id="node19" class="node">
<title>Drzwi&#45;frontowe#Ekran </title>
<ellipse fill="none" stroke="black" cx="639.91" cy="-448" rx="120.78" ry="18"/>
<text text-anchor="middle" x="639.91" y="-444.3" font-family="Times,serif" font-size="14.00">Drzwi&#45;frontowe#Ekran </text>
</g>
<!-- d33tah&#45;&#45;Drzwi&#45;frontowe#Ekran  -->
<g id="edge18" class="edge">
<title>d33tah&#45;&#45;Drzwi&#45;frontowe#Ekran </title>
<path fill="none" stroke="black" d="M111.82,-505.15C111.82,-488.64 111.82,-448 111.82,-448 111.82,-448 362.85,-448 518.75,-448"/>
</g>
<!-- Bazy&#45;danych#Pad -->
<g id="node23" class="node">
<title>Bazy&#45;danych#Pad</title>
<ellipse fill="none" stroke="black" cx="639.91" cy="-405" rx="94.48" ry="18"/>
<text text-anchor="middle" x="639.91" y="-401.3" font-family="Times,serif" font-size="14.00">Bazy&#45;danych#Pad</text>
</g>
<!-- d33tah&#45;&#45;Bazy&#45;danych#Pad -->
<g id="edge19" class="edge">
<title>d33tah&#45;&#45;Bazy&#45;danych#Pad</title>
<path fill="none" stroke="#0061f2" d="M108.82,-502.5C108.82,-476.32 108.82,-405 108.82,-405 108.82,-405 392.96,-405 545.57,-405"/>
</g>
<!-- Bazy&#45;danych#Grafana -->
<g id="node24" class="node">
<title>Bazy&#45;danych#Grafana</title>
<ellipse fill="none" stroke="black" cx="639.91" cy="-749" rx="114.28" ry="18"/>
<text text-anchor="middle" x="639.91" y="-745.3" font-family="Times,serif" font-size="14.00">Bazy&#45;danych#Grafana</text>
</g>
<!-- d33tah&#45;&#45;Bazy&#45;danych#Grafana -->
<g id="edge20" class="edge">
<title>d33tah&#45;&#45;Bazy&#45;danych#Grafana</title>
<path fill="none" stroke="#0061f2" d="M108.87,-521.25C159.01,-521.25 241.82,-521.25 241.82,-521.25 241.82,-521.25 241.82,-736.14 241.82,-736.14 241.82,-736.14 443.58,-736.14 559.83,-736.14"/>
</g>
<!-- Infrastruktura::Mariuszbot#Mariuszbot -->
<g id="node25" class="node">
<title>Infrastruktura::Mariuszbot#Mariuszbot</title>
<ellipse fill="none" stroke="black" cx="639.91" cy="-362" rx="196.07" ry="18"/>
<text text-anchor="middle" x="639.91" y="-358.3" font-family="Times,serif" font-size="14.00">Infrastruktura::Mariuszbot#Mariuszbot</text>
</g>
<!-- d33tah&#45;&#45;Infrastruktura::Mariuszbot#Mariuszbot -->
<g id="edge22" class="edge">
<title>d33tah&#45;&#45;Infrastruktura::Mariuszbot#Mariuszbot</title>
<path fill="none" stroke="#0061f2" d="M105.82,-500.73C105.82,-465.84 105.82,-362 105.82,-362 105.82,-362 291.03,-362 443.31,-362"/>
</g>
<!-- Infrastruktura::Telegram#HS24: t.me/hsl_info -->
<g id="node26" class="node">
<title>Infrastruktura::Telegram#HS24: t.me/hsl_info</title>
<ellipse fill="none" stroke="black" cx="639.91" cy="-319" rx="231.26" ry="18"/>
<text text-anchor="middle" x="639.91" y="-315.3" font-family="Times,serif" font-size="14.00">Infrastruktura::Telegram#HS24: t.me/hsl_info</text>
</g>
<!-- d33tah&#45;&#45;Infrastruktura::Telegram#HS24: t.me/hsl_info -->
<g id="edge24" class="edge">
<title>d33tah&#45;&#45;Infrastruktura::Telegram#HS24: t.me/hsl_info</title>
<path fill="none" stroke="#0061f2" d="M101.82,-498.8C101.82,-457.35 101.82,-332.5 101.82,-332.5 101.82,-332.5 327.73,-332.5 486.79,-332.5"/>
</g>
<!-- Infrastruktura::Telegram#posty: t.me/hakierspejs_spam -->
<g id="node27" class="node">
<title>Infrastruktura::Telegram#posty: t.me/hakierspejs_spam</title>
<ellipse fill="none" stroke="black" cx="639.91" cy="-276" rx="284.05" ry="18"/>
<text text-anchor="middle" x="639.91" y="-272.3" font-family="Times,serif" font-size="14.00">Infrastruktura::Telegram#posty: t.me/hakierspejs_spam</text>
</g>
<!-- d33tah&#45;&#45;Infrastruktura::Telegram#posty: t.me/hakierspejs_spam -->
<g id="edge25" class="edge">
<title>d33tah&#45;&#45;Infrastruktura::Telegram#posty: t.me/hakierspejs_spam</title>
<path fill="none" stroke="#0061f2" d="M104.19,-500C122.55,-500 141.82,-500 141.82,-500 141.82,-500 141.82,-282 141.82,-282 141.82,-282 254.02,-282 371.91,-282"/>
</g>
<!-- Bazy&#45;danych#Trello -->
<g id="node28" class="node">
<title>Bazy&#45;danych#Trello</title>
<ellipse fill="none" stroke="black" cx="639.91" cy="-577" rx="103.98" ry="18"/>
<text text-anchor="middle" x="639.91" y="-573.3" font-family="Times,serif" font-size="14.00">Bazy&#45;danych#Trello</text>
</g>
<!-- d33tah&#45;&#45;Bazy&#45;danych#Trello -->
<g id="edge26" class="edge">
<title>d33tah&#45;&#45;Bazy&#45;danych#Trello</title>
<path fill="none" stroke="#0061f2" d="M85.82,-529.08C85.82,-548.34 85.82,-577 85.82,-577 85.82,-577 375.18,-577 535.69,-577"/>
</g>
<!-- Infrastruktura::Telegram#Spacerspejs: t.me/joinchat/UYf2ONtNj21J1DS6 -->
<g id="node29" class="node">
<title>Infrastruktura::Telegram#Spacerspejs: t.me/joinchat/UYf2ONtNj21J1DS6</title>
<ellipse fill="none" stroke="black" cx="639.91" cy="-491" rx="352.84" ry="18"/>
<text text-anchor="middle" x="639.91" y="-487.3" font-family="Times,serif" font-size="14.00">Infrastruktura::Telegram#Spacerspejs: t.me/joinchat/UYf2ONtNj21J1DS6</text>
</g>
<!-- d33tah&#45;&#45;Infrastruktura::Telegram#Spacerspejs: t.me/joinchat/UYf2ONtNj21J1DS6 -->
<g id="edge27" class="edge">
<title>d33tah&#45;&#45;Infrastruktura::Telegram#Spacerspejs: t.me/joinchat/UYf2ONtNj21J1DS6</title>
<path fill="none" stroke="#0061f2" d="M112.83,-506C181.87,-506 324.88,-506 444.53,-506"/>
</g>
<!-- Stowarzyszenie#Zarzd -->
<g id="node30" class="node">
<title>Stowarzyszenie#Zarzd</title>
<ellipse fill="none" stroke="black" cx="639.91" cy="-61" rx="123.48" ry="18"/>
<text text-anchor="middle" x="639.91" y="-57.3" font-family="Times,serif" font-size="14.00">Stowarzyszenie#Zarzd</text>
</g>
<!-- d33tah&#45;&#45;Stowarzyszenie#Zarzd -->
<g id="edge31" class="edge">
<title>d33tah&#45;&#45;Stowarzyszenie#Zarzd</title>
<path fill="none" stroke="#0061f2" d="M95.8,-497C115.09,-497 138.82,-497 138.82,-497 138.82,-497 138.82,-73 138.82,-73 138.82,-73 402.99,-73 547.71,-73"/>
</g>
<!-- nastpne -->
<g id="node20" class="node">
<title>nastpne</title>
<ellipse fill="none" stroke="black" cx="71.49" cy="-1179" rx="53.09" ry="18"/>
<text text-anchor="middle" x="71.49" y="-1175.3" font-family="Times,serif" font-size="14.00">nastpne</text>
</g>
<!-- spotkanie -->
<g id="node21" class="node">
<title>spotkanie</title>
<ellipse fill="none" stroke="black" cx="71.49" cy="-1222" rx="55.79" ry="18"/>
<text text-anchor="middle" x="71.49" y="-1218.3" font-family="Times,serif" font-size="14.00">spotkanie</text>
</g>
<g id="node22" class="node">
<title></title>
<ellipse fill="none" stroke="#0061f2" cx="71.49" cy="-1265" rx="27" ry="18"/>
</g>
<!-- q3k -->
<g id="node31" class="node">
<title>q3k</title>
<ellipse fill="none" stroke="black" cx="71.49" cy="-964" rx="27.9" ry="18"/>
<text text-anchor="middle" x="71.49" y="-960.3" font-family="Times,serif" font-size="14.00">q3k</text>
</g>
<!-- q3k&#45;&#45;Kanay&#45;komunikacji# -->
<g id="edge34" class="edge">
<title>q3k&#45;&#45;Kanay&#45;komunikacji#</title>
<path fill="none" stroke="#c60077" d="M98.91,-968.5C176.47,-968.5 400.51,-968.5 534.72,-968.5"/>
</g>
<!-- q3k&#45;&#45;Infrastruktura::Domeny#Domeny -->
<g id="edge33" class="edge">
<title>q3k&#45;&#45;Infrastruktura::Domeny#Domeny</title>
<path fill="none" stroke="#c60077" d="M95.92,-973C187.17,-973 502.82,-973 502.82,-973 502.82,-973 502.82,-986.62 502.82,-996.61"/>
</g>
<!-- Marketing&#45;i&#45;media&#45;spoecznociowe#Logo nr. 2 -->
<g id="node32" class="node">
<title>Marketing&#45;i&#45;media&#45;spoecznociowe#Logo nr. 2</title>
<ellipse fill="none" stroke="black" cx="639.91" cy="-706" rx="229.36" ry="18"/>
<text text-anchor="middle" x="639.91" y="-702.3" font-family="Times,serif" font-size="14.00">Marketing&#45;i&#45;media&#45;spoecznociowe#Logo nr. 2</text>
</g>
<!-- q3k&#45;&#45;Marketing&#45;i&#45;media&#45;spoecznociowe#Logo nr. 2 -->
<g id="edge35" class="edge">
<title>q3k&#45;&#45;Marketing&#45;i&#45;media&#45;spoecznociowe#Logo nr. 2</title>
<path fill="none" stroke="#c60077" d="M95.86,-955C146.99,-955 260.82,-955 260.82,-955 260.82,-955 260.82,-701.5 260.82,-701.5 260.82,-701.5 335.01,-701.5 417.75,-701.5"/>
</g>
<!-- pmysl -->
<g id="node33" class="node">
<title>pmysl</title>
<ellipse fill="none" stroke="black" cx="71.49" cy="-749" rx="38.19" ry="18"/>
<text text-anchor="middle" x="71.49" y="-745.3" font-family="Times,serif" font-size="14.00">pmysl</text>
</g>
<!-- pmysl&#45;&#45;Kanay&#45;komunikacji# -->
<g id="edge36" class="edge">
<title>pmysl&#45;&#45;Kanay&#45;komunikacji#</title>
<path fill="none" stroke="#b6e400" d="M98.4,-761.86C125.34,-761.86 162.82,-761.86 162.82,-761.86 162.82,-761.86 162.82,-964 162.82,-964 162.82,-964 390.57,-964 531.35,-964"/>
</g>
<!-- pmysl&#45;&#45;Infrastruktura::Github#Github -->
<g id="edge39" class="edge">
<title>pmysl&#45;&#45;Infrastruktura::Github#Github</title>
<path fill="none" stroke="#b6e400" d="M106.3,-741.29C120.58,-741.29 133.82,-741.29 133.82,-741.29 133.82,-741.29 133.82,-632 133.82,-632 133.82,-632 375.75,-632 525.07,-632"/>
</g>
<!-- pmysl&#45;&#45;Bazy&#45;danych# -->
<g id="edge37" class="edge">
<title>pmysl&#45;&#45;Bazy&#45;danych#</title>
<path fill="none" stroke="#b6e400" d="M106.41,-756.71C152.76,-756.71 228.82,-756.71 228.82,-756.71 228.82,-756.71 228.82,-884 228.82,-884 228.82,-884 448.76,-884 566.89,-884"/>
</g>
<!-- pmysl&#45;&#45;Infrastruktura::IRC#IRC -->
<g id="edge38" class="edge">
<title>pmysl&#45;&#45;Infrastruktura::IRC#IRC</title>
<path fill="none" stroke="#b6e400" d="M109.6,-746.43C193.1,-746.43 384.82,-746.43 384.82,-746.43 384.82,-746.43 384.82,-673.8 384.82,-673.8 384.82,-673.8 468.36,-673.8 539.82,-673.8"/>
</g>
<!-- pmysl&#45;&#45;Bazy&#45;danych#Grafana -->
<g id="edge40" class="edge">
<title>pmysl&#45;&#45;Bazy&#45;danych#Grafana</title>
<path fill="none" stroke="#b6e400" d="M109.67,-751.57C193.74,-751.57 397.63,-751.57 526.68,-751.57"/>
</g>
<!-- kujaw -->
<g id="node34" class="node">
<title>kujaw</title>
<ellipse fill="none" stroke="black" cx="71.49" cy="-190" rx="38.19" ry="18"/>
<text text-anchor="middle" x="71.49" y="-186.3" font-family="Times,serif" font-size="14.00">kujaw</text>
</g>
<!-- kujaw&#45;&#45;Miejsce::Miejsce#Klucze do spejsu -->
<g id="edge45" class="edge">
<title>kujaw&#45;&#45;Miejsce::Miejsce#Klucze do spejsu</title>
<path fill="none" stroke="#00ffff" d="M106.36,-197.71C150.77,-197.71 221.82,-197.71 221.82,-197.71 221.82,-197.71 221.82,-907 221.82,-907 221.82,-907 407.28,-907 531.15,-907"/>
</g>
<!-- kujaw&#45;&#45;Marketing&#45;i&#45;media&#45;spoecznociowe# -->
<g id="edge43" class="edge">
<title>kujaw&#45;&#45;Marketing&#45;i&#45;media&#45;spoecznociowe#</title>
<path fill="none" stroke="#00ffff" d="M109.69,-187.43C209.39,-187.43 469.82,-187.43 469.82,-187.43 469.82,-187.43 469.82,-165.63 469.82,-154.04"/>
</g>
<!-- kujaw&#45;&#45;Stowarzyszenie#Zarzd -->
<g id="edge44" class="edge">
<title>kujaw&#45;&#45;Stowarzyszenie#Zarzd</title>
<path fill="none" stroke="#00ffff" d="M98.44,-177.14C116.44,-177.14 136.82,-177.14 136.82,-177.14 136.82,-177.14 136.82,-67 136.82,-67 136.82,-67 374.61,-67 523.22,-67"/>
</g>
<!-- kujaw&#45;&#45;Marketing&#45;i&#45;media&#45;spoecznociowe#Logo nr. 2 -->
<g id="edge42" class="edge">
<title>kujaw&#45;&#45;Marketing&#45;i&#45;media&#45;spoecznociowe#Logo nr. 2</title>
<path fill="none" stroke="#00ffff" d="M109.75,-192.57C161.62,-192.57 247.82,-192.57 247.82,-192.57 247.82,-192.57 247.82,-697 247.82,-697 247.82,-697 343.94,-697 440.99,-697"/>
</g>
<!-- Marketing&#45;i&#45;media&#45;spoecznociowe#Naklejki -->
<g id="node35" class="node">
<title>Marketing&#45;i&#45;media&#45;spoecznociowe#Naklejki</title>
<ellipse fill="none" stroke="black" cx="639.91" cy="-104" rx="221.76" ry="18"/>
<text text-anchor="middle" x="639.91" y="-100.3" font-family="Times,serif" font-size="14.00">Marketing&#45;i&#45;media&#45;spoecznociowe#Naklejki</text>
</g>
<!-- kujaw&#45;&#45;Marketing&#45;i&#45;media&#45;spoecznociowe#Naklejki -->
<g id="edge41" class="edge">
<title>kujaw&#45;&#45;Marketing&#45;i&#45;media&#45;spoecznociowe#Naklejki</title>
<path fill="none" stroke="#00ffff" d="M106.29,-182.29C197.73,-182.29 437.82,-182.29 437.82,-182.29 437.82,-182.29 437.82,-131.1 437.82,-111.51"/>
</g>
<!-- kpc -->
<g id="node36" class="node">
<title>kpc</title>
<ellipse fill="none" stroke="black" cx="71.49" cy="-319" rx="27" ry="18"/>
<text text-anchor="middle" x="71.49" y="-315.3" font-family="Times,serif" font-size="14.00">kpc</text>
</g>
<!-- kpc&#45;&#45;Stowarzyszenie#Komisja Rewizyjna -->
<g id="edge47" class="edge">
<title>kpc&#45;&#45;Stowarzyszenie#Komisja Rewizyjna</title>
<path fill="none" stroke="#ab00d5" d="M95,-328C118.07,-328 149.82,-328 149.82,-328 149.82,-328 149.82,-1038 149.82,-1038 149.82,-1038 361.83,-1038 506.96,-1038"/>
</g>
<!-- kpc&#45;&#45;Miejsce::Miejsce#Klucze do spejsu -->
<g id="edge51" class="edge">
<title>kpc&#45;&#45;Miejsce::Miejsce#Klucze do spejsu</title>
<path fill="none" stroke="#ab00d5" d="M97.97,-323.5C139.63,-323.5 215.82,-323.5 215.82,-323.5 215.82,-323.5 215.82,-911 215.82,-911 215.82,-911 373.05,-911 496.04,-911"/>
</g>
<!-- kpc&#45;&#45;Marketing&#45;i&#45;media&#45;spoecznociowe# -->
<g id="edge50" class="edge">
<title>kpc&#45;&#45;Marketing&#45;i&#45;media&#45;spoecznociowe#</title>
<path fill="none" stroke="#ab00d5" d="M97.88,-314.5C130.8,-314.5 182.82,-314.5 182.82,-314.5 182.82,-314.5 182.82,-151.5 182.82,-151.5 182.82,-151.5 333.79,-151.5 462.2,-151.5"/>
</g>
<!-- kpc&#45;&#45;Infrastruktura::Telegram#posty: t.me/hakierspejs_spam -->
<g id="edge48" class="edge">
<title>kpc&#45;&#45;Infrastruktura::Telegram#posty: t.me/hakierspejs_spam</title>
<path fill="none" stroke="#ab00d5" d="M98.58,-319C174.32,-319 382.82,-319 382.82,-319 382.82,-319 382.82,-296.3 382.82,-283.89"/>
</g>
<!-- Czaty&#45;HS#HS: posty wyklte -->
<g id="node37" class="node">
<title>Czaty&#45;HS#HS: posty wyklte</title>
<ellipse fill="none" stroke="black" cx="639.91" cy="-190" rx="157.87" ry="18"/>
<text text-anchor="middle" x="639.91" y="-186.3" font-family="Times,serif" font-size="14.00">Czaty&#45;HS#HS: posty wyklte</text>
</g>
<!-- kpc&#45;&#45;Czaty&#45;HS#HS: posty wyklte -->
<g id="edge46" class="edge">
<title>kpc&#45;&#45;Czaty&#45;HS#HS: posty wyklte</title>
<path fill="none" stroke="#ab00d5" d="M89.45,-305.5C109.69,-305.5 139.82,-305.5 139.82,-305.5 139.82,-305.5 139.82,-202.86 139.82,-202.86 139.82,-202.86 381.93,-202.86 529.23,-202.86"/>
</g>
<!-- Infrastruktura::Telegram#Posty wyklte (celowo bez linka) -->
<g id="node38" class="node">
<title>Infrastruktura::Telegram#Posty wyklte (celowo bez linka)</title>
<ellipse fill="none" stroke="black" cx="639.91" cy="-233" rx="284.05" ry="18"/>
<text text-anchor="middle" x="639.91" y="-229.3" font-family="Times,serif" font-size="14.00">Infrastruktura::Telegram#Posty wyklte (celowo bez linka)</text>
</g>
<!-- kpc&#45;&#45;Infrastruktura::Telegram#Posty wyklte (celowo bez linka) -->
<g id="edge49" class="edge">
<title>kpc&#45;&#45;Infrastruktura::Telegram#Posty wyklte (celowo bez linka)</title>
<path fill="none" stroke="#ab00d5" d="M94.97,-310C115.08,-310 140.82,-310 140.82,-310 140.82,-310 140.82,-239 140.82,-239 140.82,-239 253.71,-239 372.1,-239"/>
</g>
<!-- Piotrek_P -->
<g id="node39" class="node">
<title>Piotrek_P</title>
<ellipse fill="none" stroke="black" cx="71.49" cy="-792" rx="55.49" ry="18"/>
<text text-anchor="middle" x="71.49" y="-788.3" font-family="Times,serif" font-size="14.00">Piotrek_P</text>
</g>
<!-- Piotrek_P&#45;&#45;Miejsce::Miejsce#Klucze do spejsu -->
<g id="edge52" class="edge">
<title>Piotrek_P&#45;&#45;Miejsce::Miejsce#Klucze do spejsu</title>
<path fill="none" stroke="#f29100" d="M123.78,-786C160.4,-786 202.82,-786 202.82,-786 202.82,-786 202.82,-919 202.82,-919 202.82,-919 345.48,-919 467.79,-919"/>
</g>
<!-- polimerek -->
<g id="node40" class="node">
<title>polimerek</title>
<ellipse fill="none" stroke="black" cx="71.49" cy="-921" rx="57.39" ry="18"/>
<text text-anchor="middle" x="71.49" y="-917.3" font-family="Times,serif" font-size="14.00">polimerek</text>
</g>
<!-- polimerek&#45;&#45;Miejsce::Miejsce#Klucze do spejsu -->
<g id="edge53" class="edge">
<title>polimerek&#45;&#45;Miejsce::Miejsce#Klucze do spejsu</title>
<path fill="none" stroke="#00c64f" d="M119.47,-931C201.63,-931 372.38,-931 495.94,-931"/>
</g>
<!-- kotlovecrafta -->
<g id="node41" class="node">
<title>kotlovecrafta</title>
<ellipse fill="none" stroke="black" cx="71.49" cy="-878" rx="71.49" ry="18"/>
<text text-anchor="middle" x="71.49" y="-874.3" font-family="Times,serif" font-size="14.00">kotlovecrafta</text>
</g>
<!-- kotlovecrafta&#45;&#45;Miejsce::Miejsce#Klucze do spejsu -->
<g id="edge54" class="edge">
<title>kotlovecrafta&#45;&#45;Miejsce::Miejsce#Klucze do spejsu</title>
<path fill="none" stroke="#2e00e4" d="M135.82,-886.09C135.82,-900.01 135.82,-927 135.82,-927 135.82,-927 329.36,-927 476.59,-927"/>
</g>
<!-- sp7adg -->
<g id="node42" class="node">
<title>sp7adg</title>
<ellipse fill="none" stroke="black" cx="71.49" cy="-835" rx="44.39" ry="18"/>
<text text-anchor="middle" x="71.49" y="-831.3" font-family="Times,serif" font-size="14.00">sp7adg</text>
</g>
<!-- sp7adg&#45;&#45;Miejsce::Miejsce#Klucze do spejsu -->
<g id="edge55" class="edge">
<title>sp7adg&#45;&#45;Miejsce::Miejsce#Klucze do spejsu</title>
<path fill="none" stroke="#ff0000" d="M116.03,-835C151.7,-835 195.82,-835 195.82,-835 195.82,-835 195.82,-923 195.82,-923 195.82,-923 343,-923 467.89,-923"/>
</g>
<!-- BluRaf -->
<g id="node43" class="node">
<title>BluRaf</title>
<ellipse fill="none" stroke="black" cx="71.49" cy="-663" rx="42.49" ry="18"/>
<text text-anchor="middle" x="71.49" y="-659.3" font-family="Times,serif" font-size="14.00">BluRaf</text>
</g>
<!-- BluRaf&#45;&#45;Infrastruktura::IRC#IRC -->
<g id="edge56" class="edge">
<title>BluRaf&#45;&#45;Infrastruktura::IRC#IRC</title>
<path fill="none" stroke="#2bd500" d="M113.29,-659.4C197.45,-659.4 390.15,-659.4 517.63,-659.4"/>
</g>
<!-- biniu -->
<g id="node44" class="node">
<title>biniu</title>
<ellipse fill="none" stroke="black" cx="71.49" cy="-233" rx="34.39" ry="18"/>
<text text-anchor="middle" x="71.49" y="-229.3" font-family="Times,serif" font-size="14.00">biniu</text>
</g>
<!-- biniu&#45;&#45;Marketing&#45;i&#45;media&#45;spoecznociowe# -->
<g id="edge57" class="edge">
<title>biniu&#45;&#45;Marketing&#45;i&#45;media&#45;spoecznociowe#</title>
<path fill="none" stroke="#0061f2" d="M104.44,-227C111.47,-227 116.82,-227 116.82,-227 116.82,-227 116.82,-142.5 116.82,-142.5 116.82,-142.5 310.44,-142.5 462.08,-142.5"/>
</g>
<!-- kszmigiel -->
<g id="node45" class="node">
<title>kszmigiel</title>
<ellipse fill="none" stroke="black" cx="71.49" cy="-276" rx="54.69" ry="18"/>
<text text-anchor="middle" x="71.49" y="-272.3" font-family="Times,serif" font-size="14.00">kszmigiel</text>
</g>
<!-- kszmigiel&#45;&#45;Infrastruktura::Telegram#G贸wny: t.me/hakierspejs -->
<g id="edge59" class="edge">
<title>kszmigiel&#45;&#45;Infrastruktura::Telegram#G贸wny: t.me/hakierspejs</title>
<path fill="none" stroke="#c60077" d="M121.82,-282.97C121.82,-322.61 121.82,-517.75 121.82,-517.75 121.82,-517.75 379.74,-517.75 531.61,-517.75"/>
</g>
<!-- kszmigiel&#45;&#45;Infrastruktura::Github#Github -->
<g id="edge62" class="edge">
<title>kszmigiel&#45;&#45;Infrastruktura::Github#Github</title>
<path fill="none" stroke="#c60077" d="M119.82,-284.69C119.82,-337.6 119.82,-614 119.82,-614 119.82,-614 340.48,-614 494.34,-614"/>
</g>
<!-- kszmigiel&#45;&#45;Marketing&#45;i&#45;media&#45;spoecznociowe# -->
<g id="edge61" class="edge">
<title>kszmigiel&#45;&#45;Marketing&#45;i&#45;media&#45;spoecznociowe#</title>
<path fill="none" stroke="#c60077" d="M119.82,-267.54C119.82,-238.84 119.82,-147 119.82,-147 119.82,-147 306.81,-147 456.54,-147"/>
</g>
<!-- kszmigiel&#45;&#45;Infrastruktura::Telegram#posty: t.me/hakierspejs_spam -->
<g id="edge60" class="edge">
<title>kszmigiel&#45;&#45;Infrastruktura::Telegram#posty: t.me/hakierspejs_spam</title>
<path fill="none" stroke="#c60077" d="M123.19,-270C180.53,-270 277.45,-270 371.97,-270"/>
</g>
<!-- kszmigiel&#45;&#45;Marketing&#45;i&#45;media&#45;spoecznociowe#Naklejki -->
<g id="edge58" class="edge">
<title>kszmigiel&#45;&#45;Marketing&#45;i&#45;media&#45;spoecznociowe#Naklejki</title>
<path fill="none" stroke="#c60077" d="M113.82,-264.43C113.82,-226.38 113.82,-107.6 113.82,-107.6 113.82,-107.6 277.69,-107.6 422.51,-107.6"/>
</g>
<!-- Keij0 -->
<g id="node46" class="node">
<title>Keij0</title>
<ellipse fill="none" stroke="black" cx="71.49" cy="-147" rx="34.39" ry="18"/>
<text text-anchor="middle" x="71.49" y="-143.3" font-family="Times,serif" font-size="14.00">Keij0</text>
</g>
<!-- Keij0&#45;&#45;Marketing&#45;i&#45;media&#45;spoecznociowe# -->
<g id="edge63" class="edge">
<title>Keij0&#45;&#45;Marketing&#45;i&#45;media&#45;spoecznociowe#</title>
<path fill="none" stroke="#b6e400" d="M101.65,-138C171.6,-138 348.97,-138 481.11,-138"/>
</g>
<!-- SP7Q -->
<g id="node47" class="node">
<title>SP7Q</title>
<ellipse fill="none" stroke="black" cx="71.49" cy="-104" rx="36.29" ry="18"/>
<text text-anchor="middle" x="71.49" y="-100.3" font-family="Times,serif" font-size="14.00">SP7Q</text>
</g>
<!-- SP7Q&#45;&#45;Infrastruktura::Github#Github -->
<g id="edge65" class="edge">
<title>SP7Q&#45;&#45;Infrastruktura::Github#Github</title>
<path fill="none" stroke="#00ffff" d="M107.17,-100.4C120.66,-100.4 132.82,-100.4 132.82,-100.4 132.82,-100.4 132.82,-608 132.82,-608 132.82,-608 375.23,-608 524.84,-608"/>
</g>
<!-- SP7Q&#45;&#45;Marketing&#45;i&#45;media&#45;spoecznociowe# -->
<g id="edge64" class="edge">
<title>SP7Q&#45;&#45;Marketing&#45;i&#45;media&#45;spoecznociowe#</title>
<path fill="none" stroke="#00ffff" d="M100.72,-114.8C112.71,-114.8 123.82,-114.8 123.82,-114.8 123.82,-114.8 123.82,-133.5 123.82,-133.5 123.82,-133.5 366.02,-133.5 518.58,-133.5"/>
</g>
<!-- SP7Q&#45;&#45;Stowarzyszenie#Zarzd -->
<g id="edge66" class="edge">
<title>SP7Q&#45;&#45;Stowarzyszenie#Zarzd</title>
<path fill="none" stroke="#00ffff" d="M100.65,-93.2C117.67,-93.2 135.82,-93.2 135.82,-93.2 135.82,-93.2 135.82,-61 135.82,-61 135.82,-61 367.03,-61 516.27,-61"/>
</g>
<!-- kasesag -->
<g id="node48" class="node">
<title>kasesag</title>
<ellipse fill="none" stroke="black" cx="71.49" cy="-18" rx="48.19" ry="18"/>
<text text-anchor="middle" x="71.49" y="-14.3" font-family="Times,serif" font-size="14.00">kasesag</text>
</g>
<!-- kasesag&#45;&#45;Stowarzyszenie#Zarzd -->
<g id="edge68" class="edge">
<title>kasesag&#45;&#45;Stowarzyszenie#Zarzd</title>
<path fill="none" stroke="#ab00d5" d="M116.85,-24C127,-24 134.82,-24 134.82,-24 134.82,-24 134.82,-49 134.82,-49 134.82,-49 402.17,-49 547.85,-49"/>
</g>
<!-- Marketing&#45;i&#45;media&#45;spoecznociowe#Przycisk HS&#45;LDZ -->
<g id="node49" class="node">
<title>Marketing&#45;i&#45;media&#45;spoecznociowe#Przycisk HS&#45;LDZ</title>
<ellipse fill="none" stroke="black" cx="639.91" cy="-18" rx="261.85" ry="18"/>
<text text-anchor="middle" x="639.91" y="-14.3" font-family="Times,serif" font-size="14.00">Marketing&#45;i&#45;media&#45;spoecznociowe#Przycisk HS&#45;LDZ</text>
</g>
<!-- kasesag&#45;&#45;Marketing&#45;i&#45;media&#45;spoecznociowe#Przycisk HS&#45;LDZ -->
<g id="edge67" class="edge">
<title>kasesag&#45;&#45;Marketing&#45;i&#45;media&#45;spoecznociowe#Przycisk HS&#45;LDZ</title>
<path fill="none" stroke="#ab00d5" d="M117.05,-12C177.44,-12 288.58,-12 392.91,-12"/>
</g>
<!-- hslbridgebot -->
<g id="node50" class="node">
<title>hslbridgebot</title>
<ellipse fill="none" stroke="black" cx="71.49" cy="-1351" rx="69.59" ry="18"/>
<text text-anchor="middle" x="71.49" y="-1347.3" font-family="Times,serif" font-size="14.00">hslbridgebot</text>
</g>
<!-- Mostkowanie&#45;kana贸w#mautrix&#45;telegram (aktualnie u偶ywany) -->
<g id="node51" class="node">
<title>Mostkowanie&#45;kana贸w#mautrix&#45;telegram (aktualnie u偶ywany)</title>
<ellipse fill="none" stroke="black" cx="639.91" cy="-1330" rx="297.85" ry="18"/>
<text text-anchor="middle" x="639.91" y="-1326.3" font-family="Times,serif" font-size="14.00">Mostkowanie&#45;kana贸w#mautrix&#45;telegram (aktualnie u偶ywany)</text>
</g>
<!-- hslbridgebot&#45;&#45;Mostkowanie&#45;kana贸w#mautrix&#45;telegram (aktualnie u偶ywany) -->
<g id="edge69" class="edge">
<title>hslbridgebot&#45;&#45;Mostkowanie&#45;kana贸w#mautrix&#45;telegram (aktualnie u偶ywany)</title>
<path fill="none" stroke="#f29100" d="M128.07,-1340.5C191.4,-1340.5 298.22,-1340.5 397.95,-1340.5"/>
</g>
<!-- telegrambot -->
<g id="node52" class="node">
<title>telegrambot</title>
<ellipse fill="none" stroke="black" cx="71.49" cy="-1308" rx="67.69" ry="18"/>
<text text-anchor="middle" x="71.49" y="-1304.3" font-family="Times,serif" font-size="14.00">telegrambot</text>
</g>
<!-- telegrambot&#45;&#45;Mostkowanie&#45;kana贸w#mautrix&#45;telegram (aktualnie u偶ywany) -->
<g id="edge70" class="edge">
<title>telegrambot&#45;&#45;Mostkowanie&#45;kana贸w#mautrix&#45;telegram (aktualnie u偶ywany)</title>
<path fill="none" stroke="#00c64f" d="M125.22,-1319C189.43,-1319 301.12,-1319 404.09,-1319"/>
</g>
<!-- Polimerek -->
<g id="node53" class="node">
<title>Polimerek</title>
<ellipse fill="none" stroke="black" cx="71.49" cy="-61" rx="57.39" ry="18"/>
<text text-anchor="middle" x="71.49" y="-57.3" font-family="Times,serif" font-size="14.00">Polimerek</text>
</g>
<!-- Polimerek&#45;&#45;Stowarzyszenie#Zarzd -->
<g id="edge71" class="edge">
<title>Polimerek&#45;&#45;Stowarzyszenie#Zarzd</title>
<path fill="none" stroke="#2e00e4" d="M125.48,-55C216.31,-55 401.65,-55 523.28,-55"/>
</g>
<!-- pzduniak -->
<g id="node54" class="node">
<title>pzduniak</title>
<ellipse fill="none" stroke="black" cx="71.49" cy="-1093" rx="52.79" ry="18"/>
<text text-anchor="middle" x="71.49" y="-1089.3" font-family="Times,serif" font-size="14.00">pzduniak</text>
</g>
<!-- pzduniak&#45;&#45;Stowarzyszenie#Komisja Rewizyjna -->
<g id="edge72" class="edge">
<title>pzduniak&#45;&#45;Stowarzyszenie#Komisja Rewizyjna</title>
<path fill="none" stroke="#ff0000" d="M118.82,-1084.79C118.82,-1073.89 118.82,-1056 118.82,-1056 118.82,-1056 319.52,-1056 471.8,-1056"/>
</g>
<!-- krcz -->
<g id="node55" class="node">
<title>krcz</title>
<ellipse fill="none" stroke="black" cx="71.49" cy="-1050" rx="30.59" ry="18"/>
<text text-anchor="middle" x="71.49" y="-1046.3" font-family="Times,serif" font-size="14.00">krcz</text>
</g>
<!-- krcz&#45;&#45;Stowarzyszenie#Komisja Rewizyjna -->
<g id="edge73" class="edge">
<title>krcz&#45;&#45;Stowarzyszenie#Komisja Rewizyjna</title>
<path fill="none" stroke="#2bd500" d="M102.05,-1050C168.87,-1050 332.31,-1050 461.62,-1050"/>
</g>
<!-- PiotrP -->
<g id="node56" class="node">
<title>PiotrP</title>
<ellipse fill="none" stroke="black" cx="71.49" cy="-1007" rx="40.09" ry="18"/>
<text text-anchor="middle" x="71.49" y="-1003.3" font-family="Times,serif" font-size="14.00">PiotrP</text>
</g>
<!-- PiotrP&#45;&#45;Stowarzyszenie#Komisja Rewizyjna -->
<g id="edge74" class="edge">
<title>PiotrP&#45;&#45;Stowarzyszenie#Komisja Rewizyjna</title>
<path fill="none" stroke="#0061f2" d="M107.82,-1014.85C107.82,-1025.71 107.82,-1044 107.82,-1044 107.82,-1044 315.99,-1044 471.92,-1044"/>
</g>
</g>
</svg>
