<?xml version="1.0" encoding="UTF-8" standalone="no"?>
<!DOCTYPE svg PUBLIC "-//W3C//DTD SVG 1.1//EN"
 "http://www.w3.org/Graphics/SVG/1.1/DTD/svg11.dtd">
<!-- Generated by graphviz version 2.43.0 (0)
 -->
<!-- Title: %3 Pages: 1 -->
<svg width="976pt" height="1312pt"
 viewBox="0.00 0.00 976.13 1312.00" xmlns="http://www.w3.org/2000/svg" xmlns:xlink="http://www.w3.org/1999/xlink">
<g id="graph0" class="graph" transform="scale(1 1) rotate(0) translate(4 1308)">
<title>%3</title>
<polygon fill="white" stroke="transparent" points="-4,4 -4,-1308 972.13,-1308 972.13,4 -4,4"/>
<!-- d33tah -->
<g id="node1" class="node">
<title>d33tah</title>
<ellipse fill="none" stroke="black" cx="59.14" cy="-791" rx="43.59" ry="18"/>
<text text-anchor="middle" x="59.14" y="-787.3" font-family="Times,serif" font-size="14.00">d33tah</text>
</g>
<!-- Infrastruktura::Telegram#G贸wny: t.me/hakierspejs -->
<g id="node2" class="node">
<title>Infrastruktura::Telegram#G贸wny: t.me/hakierspejs</title>
<ellipse fill="none" stroke="black" cx="615.21" cy="-770" rx="251.56" ry="18"/>
<text text-anchor="middle" x="615.21" y="-766.3" font-family="Times,serif" font-size="14.00">Infrastruktura::Telegram#G贸wny: t.me/hakierspejs</text>
</g>
<!-- d33tah&#45;&#45;Infrastruktura::Telegram#G贸wny: t.me/hakierspejs -->
<g id="edge1" class="edge">
<title>d33tah&#45;&#45;Infrastruktura::Telegram#G贸wny: t.me/hakierspejs</title>
<path fill="none" stroke="#ff0000" d="M98.25,-783C168.52,-783 320.1,-783 441.05,-783"/>
</g>
<!-- Drzwi&#45;frontowe#Ekran  -->
<g id="node3" class="node">
<title>Drzwi&#45;frontowe#Ekran </title>
<ellipse fill="none" stroke="black" cx="615.21" cy="-942" rx="120.78" ry="18"/>
<text text-anchor="middle" x="615.21" y="-938.3" font-family="Times,serif" font-size="14.00">Drzwi&#45;frontowe#Ekran </text>
</g>
<!-- d33tah&#45;&#45;Drzwi&#45;frontowe#Ekran  -->
<g id="edge2" class="edge">
<title>d33tah&#45;&#45;Drzwi&#45;frontowe#Ekran </title>
<path fill="none" stroke="black" d="M91.82,-803C131.77,-803 194.13,-803 194.13,-803 194.13,-803 194.13,-942 194.13,-942 194.13,-942 369.85,-942 494.26,-942"/>
</g>
<!-- Infrastruktura::Telegram#HS24: t.me/hsl_info -->
<g id="node7" class="node">
<title>Infrastruktura::Telegram#HS24: t.me/hsl_info</title>
<ellipse fill="none" stroke="black" cx="615.21" cy="-899" rx="231.26" ry="18"/>
<text text-anchor="middle" x="615.21" y="-895.3" font-family="Times,serif" font-size="14.00">Infrastruktura::Telegram#HS24: t.me/hsl_info</text>
</g>
<!-- d33tah&#45;&#45;Infrastruktura::Telegram#HS24: t.me/hsl_info -->
<g id="edge3" class="edge">
<title>d33tah&#45;&#45;Infrastruktura::Telegram#HS24: t.me/hsl_info</title>
<path fill="none" stroke="#ff0000" d="M95.6,-801C137.96,-801 202.13,-801 202.13,-801 202.13,-801 202.13,-899 202.13,-899 202.13,-899 289.33,-899 383.61,-899"/>
</g>
<!-- Infrastruktura::Telegram#Spacerspejs: t.me/joinchat/UYf2ONtNj21J1DS6 -->
<g id="node8" class="node">
<title>Infrastruktura::Telegram#Spacerspejs: t.me/joinchat/UYf2ONtNj21J1DS6</title>
<ellipse fill="none" stroke="black" cx="615.21" cy="-813" rx="352.84" ry="18"/>
<text text-anchor="middle" x="615.21" y="-809.3" font-family="Times,serif" font-size="14.00">Infrastruktura::Telegram#Spacerspejs: t.me/joinchat/UYf2ONtNj21J1DS6</text>
</g>
<!-- d33tah&#45;&#45;Infrastruktura::Telegram#Spacerspejs: t.me/joinchat/UYf2ONtNj21J1DS6 -->
<g id="edge4" class="edge">
<title>d33tah&#45;&#45;Infrastruktura::Telegram#Spacerspejs: t.me/joinchat/UYf2ONtNj21J1DS6</title>
<path fill="none" stroke="#ff0000" d="M100.49,-797C174.17,-797 331.87,-797 453.42,-797"/>
</g>
<!-- Stowarzyszenie#Zarzd -->
<g id="node9" class="node">
<title>Stowarzyszenie#Zarzd</title>
<ellipse fill="none" stroke="black" cx="615.21" cy="-1157" rx="123.48" ry="18"/>
<text text-anchor="middle" x="615.21" y="-1153.3" font-family="Times,serif" font-size="14.00">Stowarzyszenie#Zarzd</text>
</g>
<!-- d33tah&#45;&#45;Stowarzyszenie#Zarzd -->
<g id="edge5" class="edge">
<title>d33tah&#45;&#45;Stowarzyszenie#Zarzd</title>
<path fill="none" stroke="#ff0000" d="M102.76,-792.67C119.26,-792.67 134.13,-792.67 134.13,-792.67 134.13,-792.67 134.13,-1148 134.13,-1148 134.13,-1148 366.38,-1148 508.14,-1148"/>
</g>
<!-- Marketing&#45;i&#45;media&#45;spoecznociowe# -->
<g id="node10" class="node">
<title>Marketing&#45;i&#45;media&#45;spoecznociowe#</title>
<ellipse fill="none" stroke="black" cx="615.21" cy="-1071" rx="183.07" ry="18"/>
<text text-anchor="middle" x="615.21" y="-1067.3" font-family="Times,serif" font-size="14.00">Marketing&#45;i&#45;media&#45;spoecznociowe#</text>
</g>
<!-- d33tah&#45;&#45;Marketing&#45;i&#45;media&#45;spoecznociowe# -->
<g id="edge6" class="edge">
<title>d33tah&#45;&#45;Marketing&#45;i&#45;media&#45;spoecznociowe#</title>
<path fill="none" stroke="#ff0000" d="M102.82,-790.33C125.74,-790.33 149.13,-790.33 149.13,-790.33 149.13,-790.33 149.13,-1069 149.13,-1069 149.13,-1069 302.28,-1069 433.01,-1069"/>
</g>
<!-- Kanay&#45;komunikacji# -->
<g id="node11" class="node">
<title>Kanay&#45;komunikacji#</title>
<ellipse fill="none" stroke="black" cx="615.21" cy="-512" rx="108.58" ry="18"/>
<text text-anchor="middle" x="615.21" y="-508.3" font-family="Times,serif" font-size="14.00">Kanay&#45;komunikacji#</text>
</g>
<!-- d33tah&#45;&#45;Kanay&#45;komunikacji# -->
<g id="edge7" class="edge">
<title>d33tah&#45;&#45;Kanay&#45;komunikacji#</title>
<path fill="none" stroke="#ff0000" d="M89.34,-778C118.13,-778 157.13,-778 157.13,-778 157.13,-778 157.13,-524 157.13,-524 157.13,-524 402.53,-524 534.1,-524"/>
</g>
<!-- Bazy&#45;danych#Trello -->
<g id="node12" class="node">
<title>Bazy&#45;danych#Trello</title>
<ellipse fill="none" stroke="black" cx="615.21" cy="-684" rx="103.98" ry="18"/>
<text text-anchor="middle" x="615.21" y="-680.3" font-family="Times,serif" font-size="14.00">Bazy&#45;danych#Trello</text>
</g>
<!-- d33tah&#45;&#45;Bazy&#45;danych#Trello -->
<g id="edge8" class="edge">
<title>d33tah&#45;&#45;Bazy&#45;danych#Trello</title>
<path fill="none" stroke="#ff0000" d="M100.13,-784.63C100.13,-761.59 100.13,-684 100.13,-684 100.13,-684 360.47,-684 510.97,-684"/>
</g>
<!-- Infrastruktura::IRC#IRC -->
<g id="node13" class="node">
<title>Infrastruktura::IRC#IRC</title>
<ellipse fill="none" stroke="black" cx="615.21" cy="-340" rx="124.58" ry="18"/>
<text text-anchor="middle" x="615.21" y="-336.3" font-family="Times,serif" font-size="14.00">Infrastruktura::IRC#IRC</text>
</g>
<!-- d33tah&#45;&#45;Infrastruktura::IRC#IRC -->
<g id="edge9" class="edge">
<title>d33tah&#45;&#45;Infrastruktura::IRC#IRC</title>
<path fill="none" stroke="#ff0000" d="M81.45,-775.5C100.93,-775.5 126.13,-775.5 126.13,-775.5 126.13,-775.5 126.13,-336.4 126.13,-336.4 126.13,-336.4 347.87,-336.4 492.74,-336.4"/>
</g>
<!-- Infrastruktura::Domeny#Domeny -->
<g id="node14" class="node">
<title>Infrastruktura::Domeny#Domeny</title>
<ellipse fill="none" stroke="black" cx="615.21" cy="-555" rx="167.07" ry="18"/>
<text text-anchor="middle" x="615.21" y="-551.3" font-family="Times,serif" font-size="14.00">Infrastruktura::Domeny#Domeny</text>
</g>
<!-- d33tah&#45;&#45;Infrastruktura::Domeny#Domeny -->
<g id="edge10" class="edge">
<title>d33tah&#45;&#45;Infrastruktura::Domeny#Domeny</title>
<path fill="none" stroke="#ff0000" d="M91.13,-778.64C91.13,-731.68 91.13,-567 91.13,-567 91.13,-567 335.68,-567 490.68,-567"/>
</g>
<!-- Infrastruktura::Telegram#posty: t.me/hakierspejs_spam -->
<g id="node15" class="node">
<title>Infrastruktura::Telegram#posty: t.me/hakierspejs_spam</title>
<ellipse fill="none" stroke="black" cx="615.21" cy="-727" rx="284.05" ry="18"/>
<text text-anchor="middle" x="615.21" y="-723.3" font-family="Times,serif" font-size="14.00">Infrastruktura::Telegram#posty: t.me/hakierspejs_spam</text>
</g>
<!-- d33tah&#45;&#45;Infrastruktura::Telegram#posty: t.me/hakierspejs_spam -->
<g id="edge11" class="edge">
<title>d33tah&#45;&#45;Infrastruktura::Telegram#posty: t.me/hakierspejs_spam</title>
<path fill="none" stroke="#ff0000" d="M94.58,-780.5C171.75,-780.5 348.13,-780.5 348.13,-780.5 348.13,-780.5 348.13,-747.19 348.13,-733.14"/>
</g>
<!-- Infrastruktura::Github#Github -->
<g id="node16" class="node">
<title>Infrastruktura::Github#Github</title>
<ellipse fill="none" stroke="black" cx="615.21" cy="-856" rx="154.07" ry="18"/>
<text text-anchor="middle" x="615.21" y="-852.3" font-family="Times,serif" font-size="14.00">Infrastruktura::Github#Github</text>
</g>
<!-- d33tah&#45;&#45;Infrastruktura::Github#Github -->
<g id="edge12" class="edge">
<title>d33tah&#45;&#45;Infrastruktura::Github#Github</title>
<path fill="none" stroke="#ff0000" d="M98.42,-799C143.15,-799 210.13,-799 210.13,-799 210.13,-799 210.13,-853.43 210.13,-853.43 210.13,-853.43 347.81,-853.43 462.64,-853.43"/>
</g>
<!-- Bazy&#45;danych#Grafana -->
<g id="node17" class="node">
<title>Bazy&#45;danych#Grafana</title>
<ellipse fill="none" stroke="black" cx="615.21" cy="-598" rx="114.28" ry="18"/>
<text text-anchor="middle" x="615.21" y="-594.3" font-family="Times,serif" font-size="14.00">Bazy&#45;danych#Grafana</text>
</g>
<!-- d33tah&#45;&#45;Bazy&#45;danych#Grafana -->
<g id="edge13" class="edge">
<title>d33tah&#45;&#45;Bazy&#45;danych#Grafana</title>
<path fill="none" stroke="#ff0000" d="M94.13,-780.14C94.13,-740.23 94.13,-604 94.13,-604 94.13,-604 354.61,-604 507.24,-604"/>
</g>
<!-- Infrastruktura::Mariuszbot#Mariuszbot -->
<g id="node18" class="node">
<title>Infrastruktura::Mariuszbot#Mariuszbot</title>
<ellipse fill="none" stroke="black" cx="615.21" cy="-1028" rx="196.07" ry="18"/>
<text text-anchor="middle" x="615.21" y="-1024.3" font-family="Times,serif" font-size="14.00">Infrastruktura::Mariuszbot#Mariuszbot</text>
</g>
<!-- d33tah&#45;&#45;Infrastruktura::Mariuszbot#Mariuszbot -->
<g id="edge14" class="edge">
<title>d33tah&#45;&#45;Infrastruktura::Mariuszbot#Mariuszbot</title>
<path fill="none" stroke="#ff0000" d="M79.23,-807C113.38,-807 179.13,-807 179.13,-807 179.13,-807 179.13,-1017.2 179.13,-1017.2 179.13,-1017.2 333.12,-1017.2 458.08,-1017.2"/>
</g>
<!-- Bazy&#45;danych#Pad -->
<g id="node19" class="node">
<title>Bazy&#45;danych#Pad</title>
<ellipse fill="none" stroke="black" cx="615.21" cy="-985" rx="94.48" ry="18"/>
<text text-anchor="middle" x="615.21" y="-981.3" font-family="Times,serif" font-size="14.00">Bazy&#45;danych#Pad</text>
</g>
<!-- d33tah&#45;&#45;Bazy&#45;danych#Pad -->
<g id="edge15" class="edge">
<title>d33tah&#45;&#45;Bazy&#45;danych#Pad</title>
<path fill="none" stroke="#ff0000" d="M86.6,-805C124.21,-805 187.13,-805 187.13,-805 187.13,-805 187.13,-985 187.13,-985 187.13,-985 394.67,-985 520.73,-985"/>
</g>
<!-- Miejsce::Miejsce#Klucze do spejsu -->
<g id="node20" class="node">
<title>Miejsce::Miejsce#Klucze do spejsu</title>
<ellipse fill="none" stroke="black" cx="615.21" cy="-641" rx="172.77" ry="18"/>
<text text-anchor="middle" x="615.21" y="-637.3" font-family="Times,serif" font-size="14.00">Miejsce::Miejsce#Klucze do spejsu</text>
</g>
<!-- d33tah&#45;&#45;Miejsce::Miejsce#Klucze do spejsu -->
<g id="edge16" class="edge">
<title>d33tah&#45;&#45;Miejsce::Miejsce#Klucze do spejsu</title>
<path fill="none" stroke="#ff0000" d="M97.13,-781.84C97.13,-749.79 97.13,-644.6 97.13,-644.6 97.13,-644.6 294.47,-644.6 445.57,-644.6"/>
</g>
<!-- nastpne -->
<g id="node4" class="node">
<title>nastpne</title>
<ellipse fill="none" stroke="black" cx="59.14" cy="-1200" rx="53.09" ry="18"/>
<text text-anchor="middle" x="59.14" y="-1196.3" font-family="Times,serif" font-size="14.00">nastpne</text>
</g>
<!-- spotkanie -->
<g id="node5" class="node">
<title>spotkanie</title>
<ellipse fill="none" stroke="black" cx="59.14" cy="-1243" rx="55.79" ry="18"/>
<text text-anchor="middle" x="59.14" y="-1239.3" font-family="Times,serif" font-size="14.00">spotkanie</text>
</g>
<g id="node6" class="node">
<title></title>
<ellipse fill="none" stroke="#ff0000" cx="59.14" cy="-1286" rx="27" ry="18"/>
</g>
<!-- cytP450 -->
<g id="node21" class="node">
<title>cytP450</title>
<ellipse fill="none" stroke="black" cx="59.14" cy="-275" rx="48.99" ry="18"/>
<text text-anchor="middle" x="59.14" y="-271.3" font-family="Times,serif" font-size="14.00">cytP450</text>
</g>
<!-- cytP450&#45;&#45;Kanay&#45;komunikacji# -->
<g id="edge18" class="edge">
<title>cytP450&#45;&#45;Kanay&#45;komunikacji#</title>
<path fill="none" stroke="#2bd500" d="M100.71,-284.6C158.24,-284.6 255.13,-284.6 255.13,-284.6 255.13,-284.6 255.13,-500 255.13,-500 255.13,-500 427.75,-500 533.95,-500"/>
</g>
<!-- cytP450&#45;&#45;Infrastruktura::Domeny#Domeny -->
<g id="edge21" class="edge">
<title>cytP450&#45;&#45;Infrastruktura::Domeny#Domeny</title>
<path fill="none" stroke="#2bd500" d="M94.69,-287.4C149.43,-287.4 248.13,-287.4 248.13,-287.4 248.13,-287.4 248.13,-543 248.13,-543 248.13,-543 384.22,-543 490.68,-543"/>
</g>
<!-- cytP450&#45;&#45;Miejsce::Miejsce#Klucze do spejsu -->
<g id="edge24" class="edge">
<title>cytP450&#45;&#45;Miejsce::Miejsce#Klucze do spejsu</title>
<path fill="none" stroke="#2bd500" d="M85.46,-290.2C135.66,-290.2 240.13,-290.2 240.13,-290.2 240.13,-290.2 240.13,-637.4 240.13,-637.4 240.13,-637.4 346.37,-637.4 445.77,-637.4"/>
</g>
<!-- Przegld&#45;lokali&#45;na&#45;wynajem&#45;w&#45;odzi.&#45;Fundusz&#45;1000&#45;&#45;&#45;1500.#Bot Aleksego -->
<g id="node22" class="node">
<title>Przegld&#45;lokali&#45;na&#45;wynajem&#45;w&#45;odzi.&#45;Fundusz&#45;1000&#45;&#45;&#45;1500.#Bot Aleksego</title>
<ellipse fill="none" stroke="black" cx="615.21" cy="-297" rx="351.74" ry="18"/>
<text text-anchor="middle" x="615.21" y="-293.3" font-family="Times,serif" font-size="14.00">Przegld&#45;lokali&#45;na&#45;wynajem&#45;w&#45;odzi.&#45;Fundusz&#45;1000&#45;&#45;&#45;1500.#Bot Aleksego</text>
</g>
<!-- cytP450&#45;&#45;Przegld&#45;lokali&#45;na&#45;wynajem&#45;w&#45;odzi.&#45;Fundusz&#45;1000&#45;&#45;&#45;1500.#Bot Aleksego -->
<g id="edge17" class="edge">
<title>cytP450&#45;&#45;Przegld&#45;lokali&#45;na&#45;wynajem&#45;w&#45;odzi.&#45;Fundusz&#45;1000&#45;&#45;&#45;1500.#Bot Aleksego</title>
<path fill="none" stroke="#2bd500" d="M104.65,-281.8C174.49,-281.8 312.07,-281.8 426.83,-281.8"/>
</g>
<!-- Chciejlista#Elektronika (w sensie urzdze konsumenckich) -->
<g id="node23" class="node">
<title>Chciejlista#Elektronika (w sensie urzdze konsumenckich)</title>
<ellipse fill="none" stroke="black" cx="615.21" cy="-254" rx="289.75" ry="18"/>
<text text-anchor="middle" x="615.21" y="-250.3" font-family="Times,serif" font-size="14.00">Chciejlista#Elektronika (w sensie urzdze konsumenckich)</text>
</g>
<!-- cytP450&#45;&#45;Chciejlista#Elektronika (w sensie urzdze konsumenckich) -->
<g id="edge19" class="edge">
<title>cytP450&#45;&#45;Chciejlista#Elektronika (w sensie urzdze konsumenckich)</title>
<path fill="none" stroke="#2bd500" d="M99.14,-264.5C158.15,-264.5 273.11,-264.5 379.58,-264.5"/>
</g>
<!-- Zamek#Zamek -->
<g id="node24" class="node">
<title>Zamek#Zamek</title>
<ellipse fill="none" stroke="black" cx="615.21" cy="-211" rx="81.49" ry="18"/>
<text text-anchor="middle" x="615.21" y="-207.3" font-family="Times,serif" font-size="14.00">Zamek#Zamek</text>
</g>
<!-- cytP450&#45;&#45;Zamek#Zamek -->
<g id="edge20" class="edge">
<title>cytP450&#45;&#45;Zamek#Zamek</title>
<path fill="none" stroke="#2bd500" d="M104.13,-267.66C104.13,-250.85 104.13,-211 104.13,-211 104.13,-211 389.74,-211 533.94,-211"/>
</g>
<!-- Stowarzyszenie#Komisja Rewizyjna -->
<g id="node25" class="node">
<title>Stowarzyszenie#Komisja Rewizyjna</title>
<ellipse fill="none" stroke="black" cx="615.21" cy="-39" rx="178.17" ry="18"/>
<text text-anchor="middle" x="615.21" y="-35.3" font-family="Times,serif" font-size="14.00">Stowarzyszenie#Komisja Rewizyjna</text>
</g>
<!-- cytP450&#45;&#45;Stowarzyszenie#Komisja Rewizyjna -->
<g id="edge22" class="edge">
<title>cytP450&#45;&#45;Stowarzyszenie#Komisja Rewizyjna</title>
<path fill="none" stroke="#2bd500" d="M95.13,-262.58C95.13,-215.41 95.13,-50 95.13,-50 95.13,-50 320.11,-50 474.12,-50"/>
</g>
<!-- Chciejlista#DIY -->
<g id="node26" class="node">
<title>Chciejlista#DIY</title>
<ellipse fill="none" stroke="black" cx="615.21" cy="-168" rx="83.69" ry="18"/>
<text text-anchor="middle" x="615.21" y="-164.3" font-family="Times,serif" font-size="14.00">Chciejlista#DIY</text>
</g>
<!-- cytP450&#45;&#45;Chciejlista#DIY -->
<g id="edge23" class="edge">
<title>cytP450&#45;&#45;Chciejlista#DIY</title>
<path fill="none" stroke="#2bd500" d="M99.13,-264.35C99.13,-237.28 99.13,-168 99.13,-168 99.13,-168 384.9,-168 531.14,-168"/>
</g>
<!-- pmysl -->
<g id="node27" class="node">
<title>pmysl</title>
<ellipse fill="none" stroke="black" cx="59.14" cy="-469" rx="38.19" ry="18"/>
<text text-anchor="middle" x="59.14" y="-465.3" font-family="Times,serif" font-size="14.00">pmysl</text>
</g>
<!-- pmysl&#45;&#45;Kanay&#45;komunikacji# -->
<g id="edge26" class="edge">
<title>pmysl&#45;&#45;Kanay&#45;komunikacji#</title>
<path fill="none" stroke="#0061f2" d="M95.35,-463C161.26,-463 294.13,-463 294.13,-463 294.13,-463 294.13,-497 294.13,-497 294.13,-497 462.26,-497 555.19,-497"/>
</g>
<!-- pmysl&#45;&#45;Infrastruktura::IRC#IRC -->
<g id="edge29" class="edge">
<title>pmysl&#45;&#45;Infrastruktura::IRC#IRC</title>
<path fill="none" stroke="#0061f2" d="M87.89,-457C148.97,-457 286.13,-457 286.13,-457 286.13,-457 286.13,-343.6 286.13,-343.6 286.13,-343.6 399.11,-343.6 492.67,-343.6"/>
</g>
<!-- pmysl&#45;&#45;Infrastruktura::Github#Github -->
<g id="edge27" class="edge">
<title>pmysl&#45;&#45;Infrastruktura::Github#Github</title>
<path fill="none" stroke="#0061f2" d="M88.06,-481C135.61,-481 225.13,-481 225.13,-481 225.13,-481 225.13,-843.14 225.13,-843.14 225.13,-843.14 391.87,-843.14 507.33,-843.14"/>
</g>
<!-- pmysl&#45;&#45;Bazy&#45;danych#Grafana -->
<g id="edge28" class="edge">
<title>pmysl&#45;&#45;Bazy&#45;danych#Grafana</title>
<path fill="none" stroke="#0061f2" d="M97.71,-469C160.8,-469 279.13,-469 279.13,-469 279.13,-469 279.13,-592 279.13,-592 279.13,-592 408.77,-592 507.02,-592"/>
</g>
<!-- pmysl&#45;&#45;Miejsce::Miejsce#Klucze do spejsu -->
<g id="edge30" class="edge">
<title>pmysl&#45;&#45;Miejsce::Miejsce#Klucze do spejsu</title>
<path fill="none" stroke="#0061f2" d="M95.59,-475C156.19,-475 271.13,-475 271.13,-475 271.13,-475 271.13,-630.2 271.13,-630.2 271.13,-630.2 381.13,-630.2 476.74,-630.2"/>
</g>
<!-- Bazy&#45;danych# -->
<g id="node28" class="node">
<title>Bazy&#45;danych#</title>
<ellipse fill="none" stroke="black" cx="615.21" cy="-383" rx="77.19" ry="18"/>
<text text-anchor="middle" x="615.21" y="-379.3" font-family="Times,serif" font-size="14.00">Bazy&#45;danych#</text>
</g>
<!-- pmysl&#45;&#45;Bazy&#45;danych# -->
<g id="edge25" class="edge">
<title>pmysl&#45;&#45;Bazy&#45;danych#</title>
<path fill="none" stroke="#0061f2" d="M60.13,-450.82C60.13,-424.01 60.13,-377 60.13,-377 60.13,-377 391.34,-377 542.07,-377"/>
</g>
<!-- kszmigiel -->
<g id="node29" class="node">
<title>kszmigiel</title>
<ellipse fill="none" stroke="black" cx="59.14" cy="-856" rx="54.69" ry="18"/>
<text text-anchor="middle" x="59.14" y="-852.3" font-family="Times,serif" font-size="14.00">kszmigiel</text>
</g>
<!-- kszmigiel&#45;&#45;Infrastruktura::Telegram#G贸wny: t.me/hakierspejs -->
<g id="edge32" class="edge">
<title>kszmigiel&#45;&#45;Infrastruktura::Telegram#G贸wny: t.me/hakierspejs</title>
<path fill="none" stroke="#c60077" d="M112.13,-851.37C112.13,-835.69 112.13,-785.5 112.13,-785.5 112.13,-785.5 338.24,-785.5 487.28,-785.5"/>
</g>
<!-- kszmigiel&#45;&#45;Stowarzyszenie#Zarzd -->
<g id="edge33" class="edge">
<title>kszmigiel&#45;&#45;Stowarzyszenie#Zarzd</title>
<path fill="none" stroke="#c60077" d="M103.13,-866.71C103.13,-920.33 103.13,-1157 103.13,-1157 103.13,-1157 340.04,-1157 491.57,-1157"/>
</g>
<!-- kszmigiel&#45;&#45;Marketing&#45;i&#45;media&#45;spoecznociowe# -->
<g id="edge34" class="edge">
<title>kszmigiel&#45;&#45;Marketing&#45;i&#45;media&#45;spoecznociowe#</title>
<path fill="none" stroke="#c60077" d="M108.13,-863.98C108.13,-903.13 108.13,-1073 108.13,-1073 108.13,-1073 287.48,-1073 432.86,-1073"/>
</g>
<!-- kszmigiel&#45;&#45;Infrastruktura::Telegram#posty: t.me/hakierspejs_spam -->
<g id="edge36" class="edge">
<title>kszmigiel&#45;&#45;Infrastruktura::Telegram#posty: t.me/hakierspejs_spam</title>
<path fill="none" stroke="#c60077" d="M110.13,-849.39C110.13,-823.84 110.13,-733 110.13,-733 110.13,-733 226.25,-733 347.14,-733"/>
</g>
<!-- kszmigiel&#45;&#45;Infrastruktura::Github#Github -->
<g id="edge35" class="edge">
<title>kszmigiel&#45;&#45;Infrastruktura::Github#Github</title>
<path fill="none" stroke="#c60077" d="M113.22,-858.57C193.32,-858.57 346.55,-858.57 462.74,-858.57"/>
</g>
<!-- kszmigiel&#45;&#45;Miejsce::Miejsce#Klucze do spejsu -->
<g id="edge37" class="edge">
<title>kszmigiel&#45;&#45;Miejsce::Miejsce#Klucze do spejsu</title>
<path fill="none" stroke="#c60077" d="M107.13,-847.23C107.13,-808.14 107.13,-651.8 107.13,-651.8 107.13,-651.8 326.26,-651.8 476.71,-651.8"/>
</g>
<!-- Marketing&#45;i&#45;media&#45;spoecznociowe#Naklejki -->
<g id="node30" class="node">
<title>Marketing&#45;i&#45;media&#45;spoecznociowe#Naklejki</title>
<ellipse fill="none" stroke="black" cx="615.21" cy="-1200" rx="221.76" ry="18"/>
<text text-anchor="middle" x="615.21" y="-1196.3" font-family="Times,serif" font-size="14.00">Marketing&#45;i&#45;media&#45;spoecznociowe#Naklejki</text>
</g>
<!-- kszmigiel&#45;&#45;Marketing&#45;i&#45;media&#45;spoecznociowe#Naklejki -->
<g id="edge31" class="edge">
<title>kszmigiel&#45;&#45;Marketing&#45;i&#45;media&#45;spoecznociowe#Naklejki</title>
<path fill="none" stroke="#c60077" d="M108.74,-863.71C178.49,-863.71 297.13,-863.71 297.13,-863.71 297.13,-863.71 297.13,-1200 297.13,-1200 297.13,-1200 339.56,-1200 393.42,-1200"/>
</g>
<!-- q3k -->
<g id="node31" class="node">
<title>q3k</title>
<ellipse fill="none" stroke="black" cx="59.14" cy="-555" rx="27.9" ry="18"/>
<text text-anchor="middle" x="59.14" y="-551.3" font-family="Times,serif" font-size="14.00">q3k</text>
</g>
<!-- q3k&#45;&#45;Kanay&#45;komunikacji# -->
<g id="edge39" class="edge">
<title>q3k&#45;&#45;Kanay&#45;komunikacji#</title>
<path fill="none" stroke="#b6e400" d="M85.52,-549C152.55,-549 324.13,-549 324.13,-549 324.13,-549 324.13,-527 324.13,-527 324.13,-527 469.64,-527 554.9,-527"/>
</g>
<!-- q3k&#45;&#45;Infrastruktura::Domeny#Domeny -->
<g id="edge40" class="edge">
<title>q3k&#45;&#45;Infrastruktura::Domeny#Domeny</title>
<path fill="none" stroke="#b6e400" d="M87.1,-555C152.4,-555 319.18,-555 448,-555"/>
</g>
<!-- Marketing&#45;i&#45;media&#45;spoecznociowe#Logo nr 2 -->
<g id="node32" class="node">
<title>Marketing&#45;i&#45;media&#45;spoecznociowe#Logo nr 2</title>
<ellipse fill="none" stroke="black" cx="615.21" cy="-1114" rx="227.46" ry="18"/>
<text text-anchor="middle" x="615.21" y="-1110.3" font-family="Times,serif" font-size="14.00">Marketing&#45;i&#45;media&#45;spoecznociowe#Logo nr 2</text>
</g>
<!-- q3k&#45;&#45;Marketing&#45;i&#45;media&#45;spoecznociowe#Logo nr 2 -->
<g id="edge38" class="edge">
<title>q3k&#45;&#45;Marketing&#45;i&#45;media&#45;spoecznociowe#Logo nr 2</title>
<path fill="none" stroke="#b6e400" d="M85.54,-561C109.5,-561 141.13,-561 141.13,-561 141.13,-561 141.13,-1108 141.13,-1108 141.13,-1108 275.17,-1108 400.71,-1108"/>
</g>
<!-- thinkofher -->
<g id="node33" class="node">
<title>thinkofher</title>
<ellipse fill="none" stroke="black" cx="59.14" cy="-512" rx="59.29" ry="18"/>
<text text-anchor="middle" x="59.14" y="-508.3" font-family="Times,serif" font-size="14.00">thinkofher</text>
</g>
<!-- thinkofher&#45;&#45;Infrastruktura::Telegram#G贸wny: t.me/hakierspejs -->
<g id="edge41" class="edge">
<title>thinkofher&#45;&#45;Infrastruktura::Telegram#G贸wny: t.me/hakierspejs</title>
<path fill="none" stroke="#00ffff" d="M105.13,-523.41C105.13,-572.42 105.13,-762.5 105.13,-762.5 105.13,-762.5 250.68,-762.5 386.28,-762.5"/>
</g>
<!-- thinkofher&#45;&#45;Marketing&#45;i&#45;media&#45;spoecznociowe# -->
<g id="edge43" class="edge">
<title>thinkofher&#45;&#45;Marketing&#45;i&#45;media&#45;spoecznociowe#</title>
<path fill="none" stroke="#00ffff" d="M115.02,-506C140.09,-506 164.13,-506 164.13,-506 164.13,-506 164.13,-1065 164.13,-1065 164.13,-1065 314.89,-1065 442.1,-1065"/>
</g>
<!-- thinkofher&#45;&#45;Kanay&#45;komunikacji# -->
<g id="edge44" class="edge">
<title>thinkofher&#45;&#45;Kanay&#45;komunikacji#</title>
<path fill="none" stroke="#00ffff" d="M110.46,-521C203.82,-521 402.72,-521 521.06,-521"/>
</g>
<!-- thinkofher&#45;&#45;Infrastruktura::IRC#IRC -->
<g id="edge46" class="edge">
<title>thinkofher&#45;&#45;Infrastruktura::IRC#IRC</title>
<path fill="none" stroke="#00ffff" d="M117.65,-509C189.55,-509 302.13,-509 302.13,-509 302.13,-509 302.13,-350.8 302.13,-350.8 302.13,-350.8 423.66,-350.8 515.29,-350.8"/>
</g>
<!-- thinkofher&#45;&#45;Infrastruktura::Github#Github -->
<g id="edge47" class="edge">
<title>thinkofher&#45;&#45;Infrastruktura::Github#Github</title>
<path fill="none" stroke="#00ffff" d="M110.44,-503C156.57,-503 217.13,-503 217.13,-503 217.13,-503 217.13,-848.29 217.13,-848.29 217.13,-848.29 361.18,-848.29 475.98,-848.29"/>
</g>
<!-- thinkofher&#45;&#45;Bazy&#45;danych# -->
<g id="edge42" class="edge">
<title>thinkofher&#45;&#45;Bazy&#45;danych#</title>
<path fill="none" stroke="#00ffff" d="M118.39,-512C192.31,-512 309.13,-512 309.13,-512 309.13,-512 309.13,-389 309.13,-389 309.13,-389 451.75,-389 542.28,-389"/>
</g>
<!-- Infrastruktura::Matrix#hs&#45;ldz:hackerspace.pl -->
<g id="node34" class="node">
<title>Infrastruktura::Matrix#hs&#45;ldz:hackerspace.pl</title>
<ellipse fill="none" stroke="black" cx="615.21" cy="-426" rx="221.76" ry="18"/>
<text text-anchor="middle" x="615.21" y="-422.3" font-family="Times,serif" font-size="14.00">Infrastruktura::Matrix#hs&#45;ldz:hackerspace.pl</text>
</g>
<!-- thinkofher&#45;&#45;Infrastruktura::Matrix#hs&#45;ldz:hackerspace.pl -->
<g id="edge45" class="edge">
<title>thinkofher&#45;&#45;Infrastruktura::Matrix#hs&#45;ldz:hackerspace.pl</title>
<path fill="none" stroke="#00ffff" d="M117.68,-515C193.8,-515 317.13,-515 317.13,-515 317.13,-515 317.13,-426 317.13,-426 317.13,-426 349.8,-426 393.5,-426"/>
</g>
<!-- Infrastruktura::Matrix#hs&#45;ldz&#45;offtopic:hackerspace.pl -->
<g id="node35" class="node">
<title>Infrastruktura::Matrix#hs&#45;ldz&#45;offtopic:hackerspace.pl</title>
<ellipse fill="none" stroke="black" cx="615.21" cy="-469" rx="258.85" ry="18"/>
<text text-anchor="middle" x="615.21" y="-465.3" font-family="Times,serif" font-size="14.00">Infrastruktura::Matrix#hs&#45;ldz&#45;offtopic:hackerspace.pl</text>
</g>
<!-- thinkofher&#45;&#45;Infrastruktura::Matrix#hs&#45;ldz&#45;offtopic:hackerspace.pl -->
<g id="edge48" class="edge">
<title>thinkofher&#45;&#45;Infrastruktura::Matrix#hs&#45;ldz&#45;offtopic:hackerspace.pl</title>
<path fill="none" stroke="#00ffff" d="M115.07,-518C211.8,-518 400.13,-518 400.13,-518 400.13,-518 400.13,-493.78 400.13,-479.39"/>
</g>
<!-- BluRaf -->
<g id="node36" class="node">
<title>BluRaf</title>
<ellipse fill="none" stroke="black" cx="59.14" cy="-340" rx="42.49" ry="18"/>
<text text-anchor="middle" x="59.14" y="-336.3" font-family="Times,serif" font-size="14.00">BluRaf</text>
</g>
<!-- BluRaf&#45;&#45;Infrastruktura::IRC#IRC -->
<g id="edge49" class="edge">
<title>BluRaf&#45;&#45;Infrastruktura::IRC#IRC</title>
<path fill="none" stroke="#ab00d5" d="M93.09,-329.2C175.39,-329.2 388.08,-329.2 515.17,-329.2"/>
</g>
<!-- biniu -->
<g id="node37" class="node">
<title>biniu</title>
<ellipse fill="none" stroke="black" cx="59.14" cy="-1114" rx="34.39" ry="18"/>
<text text-anchor="middle" x="59.14" y="-1110.3" font-family="Times,serif" font-size="14.00">biniu</text>
</g>
<!-- biniu&#45;&#45;Marketing&#45;i&#45;media&#45;spoecznociowe# -->
<g id="edge50" class="edge">
<title>biniu&#45;&#45;Marketing&#45;i&#45;media&#45;spoecznociowe#</title>
<path fill="none" stroke="#f29100" d="M91.85,-1120C167.68,-1120 349.13,-1120 349.13,-1120 349.13,-1120 349.13,-1081 349.13,-1081 349.13,-1081 403.29,-1081 462.74,-1081"/>
</g>
<!-- Keij0 -->
<g id="node38" class="node">
<title>Keij0</title>
<ellipse fill="none" stroke="black" cx="59.14" cy="-1071" rx="34.39" ry="18"/>
<text text-anchor="middle" x="59.14" y="-1067.3" font-family="Times,serif" font-size="14.00">Keij0</text>
</g>
<!-- Keij0&#45;&#45;Marketing&#45;i&#45;media&#45;spoecznociowe# -->
<g id="edge51" class="edge">
<title>Keij0&#45;&#45;Marketing&#45;i&#45;media&#45;spoecznociowe#</title>
<path fill="none" stroke="#00c64f" d="M91.85,-1077C159.13,-1077 317.21,-1077 442.14,-1077"/>
</g>
<!-- SP7Q -->
<g id="node39" class="node">
<title>SP7Q</title>
<ellipse fill="none" stroke="black" cx="59.14" cy="-1028" rx="36.29" ry="18"/>
<text text-anchor="middle" x="59.14" y="-1024.3" font-family="Times,serif" font-size="14.00">SP7Q</text>
</g>
<!-- SP7Q&#45;&#45;Stowarzyszenie#Zarzd -->
<g id="edge52" class="edge">
<title>SP7Q&#45;&#45;Stowarzyszenie#Zarzd</title>
<path fill="none" stroke="#2e00e4" d="M88.51,-1038.8C155.75,-1038.8 315.13,-1038.8 315.13,-1038.8 315.13,-1038.8 315.13,-1143.5 315.13,-1143.5 315.13,-1143.5 444.36,-1143.5 533.21,-1143.5"/>
</g>
<!-- SP7Q&#45;&#45;Marketing&#45;i&#45;media&#45;spoecznociowe# -->
<g id="edge53" class="edge">
<title>SP7Q&#45;&#45;Marketing&#45;i&#45;media&#45;spoecznociowe#</title>
<path fill="none" stroke="#2e00e4" d="M94.83,-1031.6C168.83,-1031.6 332.13,-1031.6 332.13,-1031.6 332.13,-1031.6 332.13,-1057 332.13,-1057 332.13,-1057 421.38,-1057 499.66,-1057"/>
</g>
<!-- SP7Q&#45;&#45;Infrastruktura::Github#Github -->
<g id="edge54" class="edge">
<title>SP7Q&#45;&#45;Infrastruktura::Github#Github</title>
<path fill="none" stroke="#2e00e4" d="M95.14,-1024.4C157.76,-1024.4 280.13,-1024.4 280.13,-1024.4 280.13,-1024.4 280.13,-868.86 280.13,-868.86 280.13,-868.86 409.39,-868.86 507.34,-868.86"/>
</g>
<!-- kpc -->
<g id="node40" class="node">
<title>kpc</title>
<ellipse fill="none" stroke="black" cx="59.14" cy="-125" rx="27" ry="18"/>
<text text-anchor="middle" x="59.14" y="-121.3" font-family="Times,serif" font-size="14.00">kpc</text>
</g>
<!-- kpc&#45;&#45;Marketing&#45;i&#45;media&#45;spoecznociowe# -->
<g id="edge55" class="edge">
<title>kpc&#45;&#45;Marketing&#45;i&#45;media&#45;spoecznociowe#</title>
<path fill="none" stroke="#ff0000" d="M80.93,-135.8C113.76,-135.8 172.13,-135.8 172.13,-135.8 172.13,-135.8 172.13,-1061 172.13,-1061 172.13,-1061 334.56,-1061 462.72,-1061"/>
</g>
<!-- kpc&#45;&#45;Infrastruktura::Telegram#posty: t.me/hakierspejs_spam -->
<g id="edge57" class="edge">
<title>kpc&#45;&#45;Infrastruktura::Telegram#posty: t.me/hakierspejs_spam</title>
<path fill="none" stroke="#ff0000" d="M85.79,-128.6C134.32,-128.6 232.13,-128.6 232.13,-128.6 232.13,-128.6 232.13,-721 232.13,-721 232.13,-721 282.82,-721 347.32,-721"/>
</g>
<!-- kpc&#45;&#45;Stowarzyszenie#Komisja Rewizyjna -->
<g id="edge58" class="edge">
<title>kpc&#45;&#45;Stowarzyszenie#Komisja Rewizyjna</title>
<path fill="none" stroke="#ff0000" d="M80.92,-114.2C139.34,-114.2 295.13,-114.2 295.13,-114.2 295.13,-114.2 295.13,-53.5 295.13,-53.5 295.13,-53.5 416.28,-53.5 509.51,-53.5"/>
</g>
<!-- Infrastruktura::Telegram#Posty wyklte (celowo bez linka) -->
<g id="node41" class="node">
<title>Infrastruktura::Telegram#Posty wyklte (celowo bez linka)</title>
<ellipse fill="none" stroke="black" cx="615.21" cy="-125" rx="284.05" ry="18"/>
<text text-anchor="middle" x="615.21" y="-121.3" font-family="Times,serif" font-size="14.00">Infrastruktura::Telegram#Posty wyklte (celowo bez linka)</text>
</g>
<!-- kpc&#45;&#45;Infrastruktura::Telegram#Posty wyklte (celowo bez linka) -->
<g id="edge56" class="edge">
<title>kpc&#45;&#45;Infrastruktura::Telegram#Posty wyklte (celowo bez linka)</title>
<path fill="none" stroke="#ff0000" d="M85.96,-121.4C132.93,-121.4 234.81,-121.4 336.76,-121.4"/>
</g>
<!-- Czaty&#45;HS#HS: posty wyklte -->
<g id="node42" class="node">
<title>Czaty&#45;HS#HS: posty wyklte</title>
<ellipse fill="none" stroke="black" cx="615.21" cy="-82" rx="157.87" ry="18"/>
<text text-anchor="middle" x="615.21" y="-78.3" font-family="Times,serif" font-size="14.00">Czaty&#45;HS#HS: posty wyklte</text>
</g>
<!-- kpc&#45;&#45;Czaty&#45;HS#HS: posty wyklte -->
<g id="edge59" class="edge">
<title>kpc&#45;&#45;Czaty&#45;HS#HS: posty wyklte</title>
<path fill="none" stroke="#ff0000" d="M60.13,-106.83C60.13,-98.1 60.13,-89.5 60.13,-89.5 60.13,-89.5 307.07,-89.5 471.54,-89.5"/>
</g>
<!-- kujaw -->
<g id="node43" class="node">
<title>kujaw</title>
<ellipse fill="none" stroke="black" cx="59.14" cy="-1157" rx="38.19" ry="18"/>
<text text-anchor="middle" x="59.14" y="-1153.3" font-family="Times,serif" font-size="14.00">kujaw</text>
</g>
<!-- kujaw&#45;&#45;Stowarzyszenie#Zarzd -->
<g id="edge60" class="edge">
<title>kujaw&#45;&#45;Stowarzyszenie#Zarzd</title>
<path fill="none" stroke="#2bd500" d="M92.68,-1166C173.16,-1166 380.05,-1166 508.04,-1166"/>
</g>
<!-- kujaw&#45;&#45;Marketing&#45;i&#45;media&#45;spoecznociowe# -->
<g id="edge61" class="edge">
<title>kujaw&#45;&#45;Marketing&#45;i&#45;media&#45;spoecznociowe#</title>
<path fill="none" stroke="#2bd500" d="M96.29,-1152.5C178.21,-1152.5 367.13,-1152.5 367.13,-1152.5 367.13,-1152.5 367.13,-1085 367.13,-1085 367.13,-1085 435.1,-1085 499.88,-1085"/>
</g>
<!-- kujaw&#45;&#45;Marketing&#45;i&#45;media&#45;spoecznociowe#Naklejki -->
<g id="edge63" class="edge">
<title>kujaw&#45;&#45;Marketing&#45;i&#45;media&#45;spoecznociowe#Naklejki</title>
<path fill="none" stroke="#2bd500" d="M84.77,-1170.5C173.05,-1170.5 459.13,-1170.5 459.13,-1170.5 459.13,-1170.5 459.13,-1179.07 459.13,-1186.97"/>
</g>
<!-- kujaw&#45;&#45;Marketing&#45;i&#45;media&#45;spoecznociowe#Logo nr 2 -->
<g id="edge62" class="edge">
<title>kujaw&#45;&#45;Marketing&#45;i&#45;media&#45;spoecznociowe#Logo nr 2</title>
<path fill="none" stroke="#2bd500" d="M96.45,-1161.5C190.01,-1161.5 427.13,-1161.5 427.13,-1161.5 427.13,-1161.5 427.13,-1138.54 427.13,-1124.54"/>
</g>
<!-- pzduniak -->
<g id="node44" class="node">
<title>pzduniak</title>
<ellipse fill="none" stroke="black" cx="59.14" cy="-18" rx="52.79" ry="18"/>
<text text-anchor="middle" x="59.14" y="-14.3" font-family="Times,serif" font-size="14.00">pzduniak</text>
</g>
<!-- pzduniak&#45;&#45;Stowarzyszenie#Komisja Rewizyjna -->
<g id="edge64" class="edge">
<title>pzduniak&#45;&#45;Stowarzyszenie#Komisja Rewizyjna</title>
<path fill="none" stroke="#0061f2" d="M102.32,-28.5C180.34,-28.5 348.08,-28.5 470.56,-28.5"/>
</g>
<!-- krcz -->
<g id="node45" class="node">
<title>krcz</title>
<ellipse fill="none" stroke="black" cx="59.14" cy="-61" rx="30.59" ry="18"/>
<text text-anchor="middle" x="59.14" y="-57.3" font-family="Times,serif" font-size="14.00">krcz</text>
</g>
<!-- krcz&#45;&#45;Stowarzyszenie#Komisja Rewizyjna -->
<g id="edge65" class="edge">
<title>krcz&#45;&#45;Stowarzyszenie#Komisja Rewizyjna</title>
<path fill="none" stroke="#c60077" d="M77.33,-46.5C134.79,-46.5 316.73,-46.5 453.21,-46.5"/>
</g>
</g>
</svg>
