<?xml version="1.0" encoding="UTF-8" standalone="no"?>
<!DOCTYPE svg PUBLIC "-//W3C//DTD SVG 1.1//EN"
 "http://www.w3.org/Graphics/SVG/1.1/DTD/svg11.dtd">
<!-- Generated by graphviz version 2.43.0 (0)
 -->
<!-- Title: %3 Pages: 1 -->
<svg width="976pt" height="1312pt"
 viewBox="0.00 0.00 976.13 1312.00" xmlns="http://www.w3.org/2000/svg" xmlns:xlink="http://www.w3.org/1999/xlink">
<g id="graph0" class="graph" transform="scale(1 1) rotate(0) translate(4 1308)">
<title>%3</title>
<polygon fill="white" stroke="transparent" points="-4,4 -4,-1308 972.13,-1308 972.13,4 -4,4"/>
<!-- d33tah -->
<g id="node1" class="node">
<title>d33tah</title>
<ellipse fill="none" stroke="black" cx="59.14" cy="-834" rx="43.59" ry="18"/>
<text text-anchor="middle" x="59.14" y="-830.3" font-family="Times,serif" font-size="14.00">d33tah</text>
</g>
<!-- Drzwi&#45;frontowe#Ekran  -->
<g id="node2" class="node">
<title>Drzwi&#45;frontowe#Ekran </title>
<ellipse fill="none" stroke="black" cx="615.21" cy="-1114" rx="120.78" ry="18"/>
<text text-anchor="middle" x="615.21" y="-1110.3" font-family="Times,serif" font-size="14.00">Drzwi&#45;frontowe#Ekran </text>
</g>
<!-- d33tah&#45;&#45;Drzwi&#45;frontowe#Ekran  -->
<g id="edge1" class="edge">
<title>d33tah&#45;&#45;Drzwi&#45;frontowe#Ekran </title>
<path fill="none" stroke="black" d="M95.59,-844C135.87,-844 195.13,-844 195.13,-844 195.13,-844 195.13,-1114 195.13,-1114 195.13,-1114 370.17,-1114 494.27,-1114"/>
</g>
<!-- Infrastruktura::IRC#IRC -->
<g id="node6" class="node">
<title>Infrastruktura::IRC#IRC</title>
<ellipse fill="none" stroke="black" cx="615.21" cy="-1157" rx="124.58" ry="18"/>
<text text-anchor="middle" x="615.21" y="-1153.3" font-family="Times,serif" font-size="14.00">Infrastruktura::IRC#IRC</text>
</g>
<!-- d33tah&#45;&#45;Infrastruktura::IRC#IRC -->
<g id="edge2" class="edge">
<title>d33tah&#45;&#45;Infrastruktura::IRC#IRC</title>
<path fill="none" stroke="#ff0000" d="M91.85,-846C129.47,-846 186.13,-846 186.13,-846 186.13,-846 186.13,-1146.2 186.13,-1146.2 186.13,-1146.2 388.36,-1146.2 515.15,-1146.2"/>
</g>
<!-- Bazy&#45;danych#Trello -->
<g id="node7" class="node">
<title>Bazy&#45;danych#Trello</title>
<ellipse fill="none" stroke="black" cx="615.21" cy="-1028" rx="103.98" ry="18"/>
<text text-anchor="middle" x="615.21" y="-1024.3" font-family="Times,serif" font-size="14.00">Bazy&#45;danych#Trello</text>
</g>
<!-- d33tah&#45;&#45;Bazy&#45;danych#Trello -->
<g id="edge3" class="edge">
<title>d33tah&#45;&#45;Bazy&#45;danych#Trello</title>
<path fill="none" stroke="#ff0000" d="M79.19,-850C93.09,-850 109.13,-850 109.13,-850 109.13,-850 109.13,-1028 109.13,-1028 109.13,-1028 362.81,-1028 510.96,-1028"/>
</g>
<!-- Bazy&#45;danych#Grafana -->
<g id="node8" class="node">
<title>Bazy&#45;danych#Grafana</title>
<ellipse fill="none" stroke="black" cx="615.21" cy="-1200" rx="114.28" ry="18"/>
<text text-anchor="middle" x="615.21" y="-1196.3" font-family="Times,serif" font-size="14.00">Bazy&#45;danych#Grafana</text>
</g>
<!-- d33tah&#45;&#45;Bazy&#45;danych#Grafana -->
<g id="edge4" class="edge">
<title>d33tah&#45;&#45;Bazy&#45;danych#Grafana</title>
<path fill="none" stroke="#ff0000" d="M72.13,-851.5C72.13,-876.78 72.13,-920.5 72.13,-920.5 72.13,-920.5 323.13,-920.5 323.13,-920.5 323.13,-920.5 323.13,-1194 323.13,-1194 323.13,-1194 424.07,-1194 507.28,-1194"/>
</g>
<!-- Kanay&#45;komunikacji# -->
<g id="node9" class="node">
<title>Kanay&#45;komunikacji#</title>
<ellipse fill="none" stroke="black" cx="615.21" cy="-641" rx="108.58" ry="18"/>
<text text-anchor="middle" x="615.21" y="-637.3" font-family="Times,serif" font-size="14.00">Kanay&#45;komunikacji#</text>
</g>
<!-- d33tah&#45;&#45;Kanay&#45;komunikacji# -->
<g id="edge5" class="edge">
<title>d33tah&#45;&#45;Kanay&#45;komunikacji#</title>
<path fill="none" stroke="#ff0000" d="M84.56,-819.33C130.84,-819.33 224.13,-819.33 224.13,-819.33 224.13,-819.33 224.13,-647 224.13,-647 224.13,-647 396.84,-647 512.71,-647"/>
</g>
<!-- Infrastruktura::Github#Github -->
<g id="node10" class="node">
<title>Infrastruktura::Github#Github</title>
<ellipse fill="none" stroke="black" cx="615.21" cy="-813" rx="154.07" ry="18"/>
<text text-anchor="middle" x="615.21" y="-809.3" font-family="Times,serif" font-size="14.00">Infrastruktura::Github#Github</text>
</g>
<!-- d33tah&#45;&#45;Infrastruktura::Github#Github -->
<g id="edge6" class="edge">
<title>d33tah&#45;&#45;Infrastruktura::Github#Github</title>
<path fill="none" stroke="#ff0000" d="M100.03,-827.67C189.32,-827.67 403.51,-827.67 525.74,-827.67"/>
</g>
<!-- Miejsce::Miejsce#Klucze do spejsu -->
<g id="node11" class="node">
<title>Miejsce::Miejsce#Klucze do spejsu</title>
<ellipse fill="none" stroke="black" cx="615.21" cy="-770" rx="172.77" ry="18"/>
<text text-anchor="middle" x="615.21" y="-766.3" font-family="Times,serif" font-size="14.00">Miejsce::Miejsce#Klucze do spejsu</text>
</g>
<!-- d33tah&#45;&#45;Miejsce::Miejsce#Klucze do spejsu -->
<g id="edge7" class="edge">
<title>d33tah&#45;&#45;Miejsce::Miejsce#Klucze do spejsu</title>
<path fill="none" stroke="#ff0000" d="M98.26,-826C197.66,-826 452.13,-826 452.13,-826 452.13,-826 452.13,-790.44 452.13,-775.99"/>
</g>
<!-- Infrastruktura::Mariuszbot#Mariuszbot -->
<g id="node12" class="node">
<title>Infrastruktura::Mariuszbot#Mariuszbot</title>
<ellipse fill="none" stroke="black" cx="615.21" cy="-985" rx="196.07" ry="18"/>
<text text-anchor="middle" x="615.21" y="-981.3" font-family="Times,serif" font-size="14.00">Infrastruktura::Mariuszbot#Mariuszbot</text>
</g>
<!-- d33tah&#45;&#45;Infrastruktura::Mariuszbot#Mariuszbot -->
<g id="edge8" class="edge">
<title>d33tah&#45;&#45;Infrastruktura::Mariuszbot#Mariuszbot</title>
<path fill="none" stroke="#ff0000" d="M86.72,-848C98.74,-848 110.13,-848 110.13,-848 110.13,-848 110.13,-987 110.13,-987 110.13,-987 277.8,-987 419.93,-987"/>
</g>
<!-- Infrastruktura::Telegram#HS24: t.me/hsl_info -->
<g id="node13" class="node">
<title>Infrastruktura::Telegram#HS24: t.me/hsl_info</title>
<ellipse fill="none" stroke="black" cx="615.21" cy="-942" rx="231.26" ry="18"/>
<text text-anchor="middle" x="615.21" y="-938.3" font-family="Times,serif" font-size="14.00">Infrastruktura::Telegram#HS24: t.me/hsl_info</text>
</g>
<!-- d33tah&#45;&#45;Infrastruktura::Telegram#HS24: t.me/hsl_info -->
<g id="edge9" class="edge">
<title>d33tah&#45;&#45;Infrastruktura::Telegram#HS24: t.me/hsl_info</title>
<path fill="none" stroke="#ff0000" d="M47.13,-851.35C47.13,-881.88 47.13,-942 47.13,-942 47.13,-942 226.56,-942 383.74,-942"/>
</g>
<!-- Infrastruktura::Telegram#Spacerspejs: t.me/joinchat/UYf2ONtNj21J1DS6 -->
<g id="node14" class="node">
<title>Infrastruktura::Telegram#Spacerspejs: t.me/joinchat/UYf2ONtNj21J1DS6</title>
<ellipse fill="none" stroke="black" cx="615.21" cy="-899" rx="352.84" ry="18"/>
<text text-anchor="middle" x="615.21" y="-895.3" font-family="Times,serif" font-size="14.00">Infrastruktura::Telegram#Spacerspejs: t.me/joinchat/UYf2ONtNj21J1DS6</text>
</g>
<!-- d33tah&#45;&#45;Infrastruktura::Telegram#Spacerspejs: t.me/joinchat/UYf2ONtNj21J1DS6 -->
<g id="edge10" class="edge">
<title>d33tah&#45;&#45;Infrastruktura::Telegram#Spacerspejs: t.me/joinchat/UYf2ONtNj21J1DS6</title>
<path fill="none" stroke="#ff0000" d="M98.39,-842C160.17,-842 273.13,-842 273.13,-842 273.13,-842 273.13,-881.09 273.13,-894.53"/>
</g>
<!-- Marketing&#45;i&#45;media&#45;spoecznociowe# -->
<g id="node15" class="node">
<title>Marketing&#45;i&#45;media&#45;spoecznociowe#</title>
<ellipse fill="none" stroke="black" cx="615.21" cy="-469" rx="183.07" ry="18"/>
<text text-anchor="middle" x="615.21" y="-465.3" font-family="Times,serif" font-size="14.00">Marketing&#45;i&#45;media&#45;spoecznociowe#</text>
</g>
<!-- d33tah&#45;&#45;Marketing&#45;i&#45;media&#45;spoecznociowe# -->
<g id="edge11" class="edge">
<title>d33tah&#45;&#45;Marketing&#45;i&#45;media&#45;spoecznociowe#</title>
<path fill="none" stroke="#ff0000" d="M89.55,-821C151.84,-821 288.13,-821 288.13,-821 288.13,-821 288.13,-483 288.13,-483 288.13,-483 405.72,-483 499.89,-483"/>
</g>
<!-- Stowarzyszenie#Zarzd -->
<g id="node16" class="node">
<title>Stowarzyszenie#Zarzd</title>
<ellipse fill="none" stroke="black" cx="615.21" cy="-555" rx="123.48" ry="18"/>
<text text-anchor="middle" x="615.21" y="-551.3" font-family="Times,serif" font-size="14.00">Stowarzyszenie#Zarzd</text>
</g>
<!-- d33tah&#45;&#45;Stowarzyszenie#Zarzd -->
<g id="edge12" class="edge">
<title>d33tah&#45;&#45;Stowarzyszenie#Zarzd</title>
<path fill="none" stroke="#ff0000" d="M77.46,-817.67C108.27,-817.67 167.13,-817.67 167.13,-817.67 167.13,-817.67 167.13,-552.43 167.13,-552.43 167.13,-552.43 360.1,-552.43 492.77,-552.43"/>
</g>
<!-- Infrastruktura::Telegram#posty: t.me/hakierspejs_spam -->
<g id="node17" class="node">
<title>Infrastruktura::Telegram#posty: t.me/hakierspejs_spam</title>
<ellipse fill="none" stroke="black" cx="615.21" cy="-512" rx="284.05" ry="18"/>
<text text-anchor="middle" x="615.21" y="-508.3" font-family="Times,serif" font-size="14.00">Infrastruktura::Telegram#posty: t.me/hakierspejs_spam</text>
</g>
<!-- d33tah&#45;&#45;Infrastruktura::Telegram#posty: t.me/hakierspejs_spam -->
<g id="edge13" class="edge">
<title>d33tah&#45;&#45;Infrastruktura::Telegram#posty: t.me/hakierspejs_spam</title>
<path fill="none" stroke="#ff0000" d="M93.24,-822.67C168.88,-822.67 344.13,-822.67 344.13,-822.67 344.13,-822.67 344.13,-558.65 344.13,-517.39"/>
</g>
<!-- Infrastruktura::Telegram#G贸wny: t.me/hakierspejs -->
<g id="node18" class="node">
<title>Infrastruktura::Telegram#G贸wny: t.me/hakierspejs</title>
<ellipse fill="none" stroke="black" cx="615.21" cy="-684" rx="251.56" ry="18"/>
<text text-anchor="middle" x="615.21" y="-680.3" font-family="Times,serif" font-size="14.00">Infrastruktura::Telegram#G贸wny: t.me/hakierspejs</text>
</g>
<!-- d33tah&#45;&#45;Infrastruktura::Telegram#G贸wny: t.me/hakierspejs -->
<g id="edge14" class="edge">
<title>d33tah&#45;&#45;Infrastruktura::Telegram#G贸wny: t.me/hakierspejs</title>
<path fill="none" stroke="#ff0000" d="M96.16,-824.33C180.39,-824.33 379.13,-824.33 379.13,-824.33 379.13,-824.33 379.13,-717.85 379.13,-690.39"/>
</g>
<!-- Bazy&#45;danych#Pad -->
<g id="node19" class="node">
<title>Bazy&#45;danych#Pad</title>
<ellipse fill="none" stroke="black" cx="615.21" cy="-856" rx="94.48" ry="18"/>
<text text-anchor="middle" x="615.21" y="-852.3" font-family="Times,serif" font-size="14.00">Bazy&#45;danych#Pad</text>
</g>
<!-- d33tah&#45;&#45;Bazy&#45;danych#Pad -->
<g id="edge15" class="edge">
<title>d33tah&#45;&#45;Bazy&#45;danych#Pad</title>
<path fill="none" stroke="#ff0000" d="M100.49,-840C202.8,-840 467.11,-840 571.68,-840"/>
</g>
<!-- Infrastruktura::Domeny#Domeny -->
<g id="node20" class="node">
<title>Infrastruktura::Domeny#Domeny</title>
<ellipse fill="none" stroke="black" cx="615.21" cy="-340" rx="167.07" ry="18"/>
<text text-anchor="middle" x="615.21" y="-336.3" font-family="Times,serif" font-size="14.00">Infrastruktura::Domeny#Domeny</text>
</g>
<!-- d33tah&#45;&#45;Infrastruktura::Domeny#Domeny -->
<g id="edge16" class="edge">
<title>d33tah&#45;&#45;Infrastruktura::Domeny#Domeny</title>
<path fill="none" stroke="#ff0000" d="M102.91,-834.5C164.45,-834.5 269.13,-834.5 269.13,-834.5 269.13,-834.5 269.13,-349 269.13,-349 269.13,-349 375.61,-349 470.44,-349"/>
</g>
<!-- nastpne -->
<g id="node3" class="node">
<title>nastpne</title>
<ellipse fill="none" stroke="black" cx="59.14" cy="-1200" rx="53.09" ry="18"/>
<text text-anchor="middle" x="59.14" y="-1196.3" font-family="Times,serif" font-size="14.00">nastpne</text>
</g>
<!-- spotkanie -->
<g id="node4" class="node">
<title>spotkanie</title>
<ellipse fill="none" stroke="black" cx="59.14" cy="-1243" rx="55.79" ry="18"/>
<text text-anchor="middle" x="59.14" y="-1239.3" font-family="Times,serif" font-size="14.00">spotkanie</text>
</g>
<g id="node5" class="node">
<title></title>
<ellipse fill="none" stroke="#ff0000" cx="59.14" cy="-1286" rx="27" ry="18"/>
</g>
<!-- kszmigiel -->
<g id="node21" class="node">
<title>kszmigiel</title>
<ellipse fill="none" stroke="black" cx="59.14" cy="-555" rx="54.69" ry="18"/>
<text text-anchor="middle" x="59.14" y="-551.3" font-family="Times,serif" font-size="14.00">kszmigiel</text>
</g>
<!-- kszmigiel&#45;&#45;Infrastruktura::Github#Github -->
<g id="edge17" class="edge">
<title>kszmigiel&#45;&#45;Infrastruktura::Github#Github</title>
<path fill="none" stroke="#2bd500" d="M108.5,-562.71C154.2,-562.71 215.13,-562.71 215.13,-562.71 215.13,-562.71 215.13,-800.25 215.13,-800.25 215.13,-800.25 387.94,-800.25 506.41,-800.25"/>
</g>
<!-- kszmigiel&#45;&#45;Miejsce::Miejsce#Klucze do spejsu -->
<g id="edge18" class="edge">
<title>kszmigiel&#45;&#45;Miejsce::Miejsce#Klucze do spejsu</title>
<path fill="none" stroke="#2bd500" d="M113.44,-557.57C183.68,-557.57 297.13,-557.57 297.13,-557.57 297.13,-557.57 297.13,-770 297.13,-770 297.13,-770 367.6,-770 442.21,-770"/>
</g>
<!-- kszmigiel&#45;&#45;Marketing&#45;i&#45;media&#45;spoecznociowe# -->
<g id="edge19" class="edge">
<title>kszmigiel&#45;&#45;Marketing&#45;i&#45;media&#45;spoecznociowe#</title>
<path fill="none" stroke="#2bd500" d="M102.13,-543.85C102.13,-520.18 102.13,-467 102.13,-467 102.13,-467 285.4,-467 432.87,-467"/>
</g>
<!-- kszmigiel&#45;&#45;Stowarzyszenie#Zarzd -->
<g id="edge21" class="edge">
<title>kszmigiel&#45;&#45;Stowarzyszenie#Zarzd</title>
<path fill="none" stroke="#2bd500" d="M108.49,-547.29C196.6,-547.29 383.04,-547.29 503.53,-547.29"/>
</g>
<!-- kszmigiel&#45;&#45;Infrastruktura::Telegram#posty: t.me/hakierspejs_spam -->
<g id="edge22" class="edge">
<title>kszmigiel&#45;&#45;Infrastruktura::Telegram#posty: t.me/hakierspejs_spam</title>
<path fill="none" stroke="#2bd500" d="M106.13,-545.71C106.13,-535.64 106.13,-521 106.13,-521 106.13,-521 238.92,-521 368.87,-521"/>
</g>
<!-- kszmigiel&#45;&#45;Infrastruktura::Telegram#G贸wny: t.me/hakierspejs -->
<g id="edge23" class="edge">
<title>kszmigiel&#45;&#45;Infrastruktura::Telegram#G贸wny: t.me/hakierspejs</title>
<path fill="none" stroke="#2bd500" d="M102.13,-566.21C102.13,-596.29 102.13,-676.5 102.13,-676.5 102.13,-676.5 249.61,-676.5 386.43,-676.5"/>
</g>
<!-- Marketing&#45;i&#45;media&#45;spoecznociowe#Naklejki -->
<g id="node22" class="node">
<title>Marketing&#45;i&#45;media&#45;spoecznociowe#Naklejki</title>
<ellipse fill="none" stroke="black" cx="615.21" cy="-426" rx="221.76" ry="18"/>
<text text-anchor="middle" x="615.21" y="-422.3" font-family="Times,serif" font-size="14.00">Marketing&#45;i&#45;media&#45;spoecznociowe#Naklejki</text>
</g>
<!-- kszmigiel&#45;&#45;Marketing&#45;i&#45;media&#45;spoecznociowe#Naklejki -->
<g id="edge20" class="edge">
<title>kszmigiel&#45;&#45;Marketing&#45;i&#45;media&#45;spoecznociowe#Naklejki</title>
<path fill="none" stroke="#2bd500" d="M100.13,-542.76C100.13,-509.94 100.13,-422.4 100.13,-422.4 100.13,-422.4 257.21,-422.4 397.89,-422.4"/>
</g>
<!-- thinkofher -->
<g id="node23" class="node">
<title>thinkofher</title>
<ellipse fill="none" stroke="black" cx="59.14" cy="-705" rx="59.29" ry="18"/>
<text text-anchor="middle" x="59.14" y="-701.3" font-family="Times,serif" font-size="14.00">thinkofher</text>
</g>
<!-- thinkofher&#45;&#45;Infrastruktura::IRC#IRC -->
<g id="edge24" class="edge">
<title>thinkofher&#45;&#45;Infrastruktura::IRC#IRC</title>
<path fill="none" stroke="#0061f2" d="M106.13,-716.08C106.13,-785.13 106.13,-1153.4 106.13,-1153.4 106.13,-1153.4 341.99,-1153.4 492.62,-1153.4"/>
</g>
<!-- thinkofher&#45;&#45;Kanay&#45;komunikacji# -->
<g id="edge25" class="edge">
<title>thinkofher&#45;&#45;Kanay&#45;komunikacji#</title>
<path fill="none" stroke="#0061f2" d="M108.13,-694.72C108.13,-676.63 108.13,-641 108.13,-641 108.13,-641 357.43,-641 506.43,-641"/>
</g>
<!-- thinkofher&#45;&#45;Infrastruktura::Github#Github -->
<g id="edge26" class="edge">
<title>thinkofher&#45;&#45;Infrastruktura::Github#Github</title>
<path fill="none" stroke="#0061f2" d="M111.13,-713.65C111.13,-738.91 111.13,-810.75 111.13,-810.75 111.13,-810.75 313.92,-810.75 462.26,-810.75"/>
</g>
<!-- thinkofher&#45;&#45;Marketing&#45;i&#45;media&#45;spoecznociowe# -->
<g id="edge28" class="edge">
<title>thinkofher&#45;&#45;Marketing&#45;i&#45;media&#45;spoecznociowe#</title>
<path fill="none" stroke="#0061f2" d="M95.35,-690.75C123.26,-690.75 157.13,-690.75 157.13,-690.75 157.13,-690.75 157.13,-471 157.13,-471 157.13,-471 305.1,-471 432.85,-471"/>
</g>
<!-- thinkofher&#45;&#45;Infrastruktura::Telegram#G贸wny: t.me/hakierspejs -->
<g id="edge30" class="edge">
<title>thinkofher&#45;&#45;Infrastruktura::Telegram#G贸wny: t.me/hakierspejs</title>
<path fill="none" stroke="#0061f2" d="M113.98,-698.25C193.99,-698.25 345.77,-698.25 461.43,-698.25"/>
</g>
<!-- Infrastruktura::Matrix#hs&#45;ldz&#45;offtopic:hackerspace.pl -->
<g id="node24" class="node">
<title>Infrastruktura::Matrix#hs&#45;ldz&#45;offtopic:hackerspace.pl</title>
<ellipse fill="none" stroke="black" cx="615.21" cy="-598" rx="258.85" ry="18"/>
<text text-anchor="middle" x="615.21" y="-594.3" font-family="Times,serif" font-size="14.00">Infrastruktura::Matrix#hs&#45;ldz&#45;offtopic:hackerspace.pl</text>
</g>
<!-- thinkofher&#45;&#45;Infrastruktura::Matrix#hs&#45;ldz&#45;offtopic:hackerspace.pl -->
<g id="edge27" class="edge">
<title>thinkofher&#45;&#45;Infrastruktura::Matrix#hs&#45;ldz&#45;offtopic:hackerspace.pl</title>
<path fill="none" stroke="#0061f2" d="M107.5,-694.5C192.58,-694.5 360.13,-694.5 360.13,-694.5 360.13,-694.5 360.13,-617.95 360.13,-601.21"/>
</g>
<!-- Bazy&#45;danych# -->
<g id="node25" class="node">
<title>Bazy&#45;danych#</title>
<ellipse fill="none" stroke="black" cx="615.21" cy="-1071" rx="77.19" ry="18"/>
<text text-anchor="middle" x="615.21" y="-1067.3" font-family="Times,serif" font-size="14.00">Bazy&#45;danych#</text>
</g>
<!-- thinkofher&#45;&#45;Bazy&#45;danych# -->
<g id="edge29" class="edge">
<title>thinkofher&#45;&#45;Bazy&#45;danych#</title>
<path fill="none" stroke="#0061f2" d="M107.13,-715.77C107.13,-775.67 107.13,-1065 107.13,-1065 107.13,-1065 401.55,-1065 542.14,-1065"/>
</g>
<!-- Infrastruktura::Matrix#hs&#45;ldz:hackerspace.pl -->
<g id="node26" class="node">
<title>Infrastruktura::Matrix#hs&#45;ldz:hackerspace.pl</title>
<ellipse fill="none" stroke="black" cx="615.21" cy="-727" rx="221.76" ry="18"/>
<text text-anchor="middle" x="615.21" y="-723.3" font-family="Times,serif" font-size="14.00">Infrastruktura::Matrix#hs&#45;ldz:hackerspace.pl</text>
</g>
<!-- thinkofher&#45;&#45;Infrastruktura::Matrix#hs&#45;ldz:hackerspace.pl -->
<g id="edge31" class="edge">
<title>thinkofher&#45;&#45;Infrastruktura::Matrix#hs&#45;ldz:hackerspace.pl</title>
<path fill="none" stroke="#0061f2" d="M106.08,-716C179,-716 323.23,-716 439.62,-716"/>
</g>
<!-- kpc -->
<g id="node27" class="node">
<title>kpc</title>
<ellipse fill="none" stroke="black" cx="59.14" cy="-125" rx="27" ry="18"/>
<text text-anchor="middle" x="59.14" y="-121.3" font-family="Times,serif" font-size="14.00">kpc</text>
</g>
<!-- kpc&#45;&#45;Marketing&#45;i&#45;media&#45;spoecznociowe# -->
<g id="edge34" class="edge">
<title>kpc&#45;&#45;Marketing&#45;i&#45;media&#45;spoecznociowe#</title>
<path fill="none" stroke="#c60077" d="M85.88,-128.6C108.8,-128.6 138.13,-128.6 138.13,-128.6 138.13,-128.6 138.13,-459 138.13,-459 138.13,-459 323.03,-459 462.62,-459"/>
</g>
<!-- kpc&#45;&#45;Infrastruktura::Telegram#posty: t.me/hakierspejs_spam -->
<g id="edge35" class="edge">
<title>kpc&#45;&#45;Infrastruktura::Telegram#posty: t.me/hakierspejs_spam</title>
<path fill="none" stroke="#c60077" d="M80.97,-135.8C101.18,-135.8 128.13,-135.8 128.13,-135.8 128.13,-135.8 128.13,-503 128.13,-503 128.13,-503 248.24,-503 369.17,-503"/>
</g>
<!-- Infrastruktura::Telegram#Posty wyklte (celowo bez linka) -->
<g id="node28" class="node">
<title>Infrastruktura::Telegram#Posty wyklte (celowo bez linka)</title>
<ellipse fill="none" stroke="black" cx="615.21" cy="-125" rx="284.05" ry="18"/>
<text text-anchor="middle" x="615.21" y="-121.3" font-family="Times,serif" font-size="14.00">Infrastruktura::Telegram#Posty wyklte (celowo bez linka)</text>
</g>
<!-- kpc&#45;&#45;Infrastruktura::Telegram#Posty wyklte (celowo bez linka) -->
<g id="edge32" class="edge">
<title>kpc&#45;&#45;Infrastruktura::Telegram#Posty wyklte (celowo bez linka)</title>
<path fill="none" stroke="#c60077" d="M85.96,-121.4C132.93,-121.4 234.81,-121.4 336.76,-121.4"/>
</g>
<!-- Czaty&#45;HS#HS: posty wyklte -->
<g id="node29" class="node">
<title>Czaty&#45;HS#HS: posty wyklte</title>
<ellipse fill="none" stroke="black" cx="615.21" cy="-82" rx="157.87" ry="18"/>
<text text-anchor="middle" x="615.21" y="-78.3" font-family="Times,serif" font-size="14.00">Czaty&#45;HS#HS: posty wyklte</text>
</g>
<!-- kpc&#45;&#45;Czaty&#45;HS#HS: posty wyklte -->
<g id="edge33" class="edge">
<title>kpc&#45;&#45;Czaty&#45;HS#HS: posty wyklte</title>
<path fill="none" stroke="#c60077" d="M60.13,-106.83C60.13,-98.1 60.13,-89.5 60.13,-89.5 60.13,-89.5 307.07,-89.5 471.54,-89.5"/>
</g>
<!-- Stowarzyszenie#Komisja Rewizyjna -->
<g id="node30" class="node">
<title>Stowarzyszenie#Komisja Rewizyjna</title>
<ellipse fill="none" stroke="black" cx="615.21" cy="-39" rx="178.17" ry="18"/>
<text text-anchor="middle" x="615.21" y="-35.3" font-family="Times,serif" font-size="14.00">Stowarzyszenie#Komisja Rewizyjna</text>
</g>
<!-- kpc&#45;&#45;Stowarzyszenie#Komisja Rewizyjna -->
<g id="edge36" class="edge">
<title>kpc&#45;&#45;Stowarzyszenie#Komisja Rewizyjna</title>
<path fill="none" stroke="#c60077" d="M80.77,-114.2C139.6,-114.2 298.13,-114.2 298.13,-114.2 298.13,-114.2 298.13,-53.5 298.13,-53.5 298.13,-53.5 417.39,-53.5 509.62,-53.5"/>
</g>
<!-- cytP450 -->
<g id="node31" class="node">
<title>cytP450</title>
<ellipse fill="none" stroke="black" cx="59.14" cy="-275" rx="48.99" ry="18"/>
<text text-anchor="middle" x="59.14" y="-271.3" font-family="Times,serif" font-size="14.00">cytP450</text>
</g>
<!-- cytP450&#45;&#45;Kanay&#45;komunikacji# -->
<g id="edge37" class="edge">
<title>cytP450&#45;&#45;Kanay&#45;komunikacji#</title>
<path fill="none" stroke="#b6e400" d="M97.96,-286C168.65,-286 311.13,-286 311.13,-286 311.13,-286 311.13,-629 311.13,-629 311.13,-629 444.04,-629 534.12,-629"/>
</g>
<!-- cytP450&#45;&#45;Miejsce::Miejsce#Klucze do spejsu -->
<g id="edge39" class="edge">
<title>cytP450&#45;&#45;Miejsce::Miejsce#Klucze do spejsu</title>
<path fill="none" stroke="#b6e400" d="M88.45,-289.5C153.08,-289.5 302.13,-289.5 302.13,-289.5 302.13,-289.5 302.13,-761 302.13,-761 302.13,-761 384.74,-761 465.09,-761"/>
</g>
<!-- cytP450&#45;&#45;Infrastruktura::Domeny#Domeny -->
<g id="edge44" class="edge">
<title>cytP450&#45;&#45;Infrastruktura::Domeny#Domeny</title>
<path fill="none" stroke="#b6e400" d="M104.13,-282.32C104.13,-297.5 104.13,-331 104.13,-331 104.13,-331 319.35,-331 470.46,-331"/>
</g>
<!-- cytP450&#45;&#45;Stowarzyszenie#Komisja Rewizyjna -->
<g id="edge43" class="edge">
<title>cytP450&#45;&#45;Stowarzyszenie#Komisja Rewizyjna</title>
<path fill="none" stroke="#b6e400" d="M92.91,-262C117.72,-262 147.13,-262 147.13,-262 147.13,-262 147.13,-50 147.13,-50 147.13,-50 336.31,-50 474.13,-50"/>
</g>
<!-- Chciejlista#DIY -->
<g id="node32" class="node">
<title>Chciejlista#DIY</title>
<ellipse fill="none" stroke="black" cx="615.21" cy="-211" rx="83.69" ry="18"/>
<text text-anchor="middle" x="615.21" y="-207.3" font-family="Times,serif" font-size="14.00">Chciejlista#DIY</text>
</g>
<!-- cytP450&#45;&#45;Chciejlista#DIY -->
<g id="edge38" class="edge">
<title>cytP450&#45;&#45;Chciejlista#DIY</title>
<path fill="none" stroke="#b6e400" d="M101.13,-265.83C101.13,-248.13 101.13,-211 101.13,-211 101.13,-211 385.42,-211 531.18,-211"/>
</g>
<!-- Przegld&#45;lokali&#45;na&#45;wynajem&#45;w&#45;odzi.&#45;Fundusz&#45;1000&#45;&#45;&#45;1500.#Bot Aleksego -->
<g id="node33" class="node">
<title>Przegld&#45;lokali&#45;na&#45;wynajem&#45;w&#45;odzi.&#45;Fundusz&#45;1000&#45;&#45;&#45;1500.#Bot Aleksego</title>
<ellipse fill="none" stroke="black" cx="615.21" cy="-168" rx="351.74" ry="18"/>
<text text-anchor="middle" x="615.21" y="-164.3" font-family="Times,serif" font-size="14.00">Przegld&#45;lokali&#45;na&#45;wynajem&#45;w&#45;odzi.&#45;Fundusz&#45;1000&#45;&#45;&#45;1500.#Bot Aleksego</text>
</g>
<!-- cytP450&#45;&#45;Przegld&#45;lokali&#45;na&#45;wynajem&#45;w&#45;odzi.&#45;Fundusz&#45;1000&#45;&#45;&#45;1500.#Bot Aleksego -->
<g id="edge40" class="edge">
<title>cytP450&#45;&#45;Przegld&#45;lokali&#45;na&#45;wynajem&#45;w&#45;odzi.&#45;Fundusz&#45;1000&#45;&#45;&#45;1500.#Bot Aleksego</title>
<path fill="none" stroke="#b6e400" d="M94.13,-262.31C94.13,-233.96 94.13,-168 94.13,-168 94.13,-168 169.71,-168 263.31,-168"/>
</g>
<!-- Chciejlista#Elektronika (w sensie urzdze konsumenckich) -->
<g id="node34" class="node">
<title>Chciejlista#Elektronika (w sensie urzdze konsumenckich)</title>
<ellipse fill="none" stroke="black" cx="615.21" cy="-297" rx="289.75" ry="18"/>
<text text-anchor="middle" x="615.21" y="-293.3" font-family="Times,serif" font-size="14.00">Chciejlista#Elektronika (w sensie urzdze konsumenckich)</text>
</g>
<!-- cytP450&#45;&#45;Chciejlista#Elektronika (w sensie urzdze konsumenckich) -->
<g id="edge41" class="edge">
<title>cytP450&#45;&#45;Chciejlista#Elektronika (w sensie urzdze konsumenckich)</title>
<path fill="none" stroke="#b6e400" d="M103.71,-282.5C176.58,-282.5 324.96,-282.5 443.23,-282.5"/>
</g>
<!-- Zamek#Zamek -->
<g id="node35" class="node">
<title>Zamek#Zamek</title>
<ellipse fill="none" stroke="black" cx="615.21" cy="-254" rx="81.49" ry="18"/>
<text text-anchor="middle" x="615.21" y="-250.3" font-family="Times,serif" font-size="14.00">Zamek#Zamek</text>
</g>
<!-- cytP450&#45;&#45;Zamek#Zamek -->
<g id="edge42" class="edge">
<title>cytP450&#45;&#45;Zamek#Zamek</title>
<path fill="none" stroke="#b6e400" d="M103.24,-267C203.42,-267 448.04,-267 558.92,-267"/>
</g>
<!-- biniu -->
<g id="node36" class="node">
<title>biniu</title>
<ellipse fill="none" stroke="black" cx="59.14" cy="-512" rx="34.39" ry="18"/>
<text text-anchor="middle" x="59.14" y="-508.3" font-family="Times,serif" font-size="14.00">biniu</text>
</g>
<!-- biniu&#45;&#45;Marketing&#45;i&#45;media&#45;spoecznociowe# -->
<g id="edge45" class="edge">
<title>biniu&#45;&#45;Marketing&#45;i&#45;media&#45;spoecznociowe#</title>
<path fill="none" stroke="#00ffff" d="M93.84,-512C155.59,-512 278.13,-512 278.13,-512 278.13,-512 278.13,-475 278.13,-475 278.13,-475 359.46,-475 442.22,-475"/>
</g>
<!-- Keij0 -->
<g id="node37" class="node">
<title>Keij0</title>
<ellipse fill="none" stroke="black" cx="59.14" cy="-469" rx="34.39" ry="18"/>
<text text-anchor="middle" x="59.14" y="-465.3" font-family="Times,serif" font-size="14.00">Keij0</text>
</g>
<!-- Keij0&#45;&#45;Marketing&#45;i&#45;media&#45;spoecznociowe# -->
<g id="edge46" class="edge">
<title>Keij0&#45;&#45;Marketing&#45;i&#45;media&#45;spoecznociowe#</title>
<path fill="none" stroke="#ab00d5" d="M91.85,-463C159.13,-463 317.21,-463 442.14,-463"/>
</g>
<!-- SP7Q -->
<g id="node38" class="node">
<title>SP7Q</title>
<ellipse fill="none" stroke="black" cx="59.14" cy="-598" rx="36.29" ry="18"/>
<text text-anchor="middle" x="59.14" y="-594.3" font-family="Times,serif" font-size="14.00">SP7Q</text>
</g>
<!-- SP7Q&#45;&#45;Infrastruktura::Github#Github -->
<g id="edge47" class="edge">
<title>SP7Q&#45;&#45;Infrastruktura::Github#Github</title>
<path fill="none" stroke="#f29100" d="M90.82,-607C133.76,-607 205.13,-607 205.13,-607 205.13,-607 205.13,-805.5 205.13,-805.5 205.13,-805.5 356.19,-805.5 474.94,-805.5"/>
</g>
<!-- SP7Q&#45;&#45;Marketing&#45;i&#45;media&#45;spoecznociowe# -->
<g id="edge49" class="edge">
<title>SP7Q&#45;&#45;Marketing&#45;i&#45;media&#45;spoecznociowe#</title>
<path fill="none" stroke="#f29100" d="M90.76,-589C152.5,-589 283.13,-589 283.13,-589 283.13,-589 283.13,-479 283.13,-479 283.13,-479 375.48,-479 462.77,-479"/>
</g>
<!-- SP7Q&#45;&#45;Stowarzyszenie#Zarzd -->
<g id="edge48" class="edge">
<title>SP7Q&#45;&#45;Stowarzyszenie#Zarzd</title>
<path fill="none" stroke="#f29100" d="M95.55,-598C161.07,-598 292.13,-598 292.13,-598 292.13,-598 292.13,-567.86 292.13,-567.86 292.13,-567.86 432.93,-567.86 528.63,-567.86"/>
</g>
<!-- kujaw -->
<g id="node39" class="node">
<title>kujaw</title>
<ellipse fill="none" stroke="black" cx="59.14" cy="-426" rx="38.19" ry="18"/>
<text text-anchor="middle" x="59.14" y="-422.3" font-family="Times,serif" font-size="14.00">kujaw</text>
</g>
<!-- kujaw&#45;&#45;Marketing&#45;i&#45;media&#45;spoecznociowe# -->
<g id="edge53" class="edge">
<title>kujaw&#45;&#45;Marketing&#45;i&#45;media&#45;spoecznociowe#</title>
<path fill="none" stroke="#00c64f" d="M96.96,-429.6C169.51,-429.6 321.13,-429.6 321.13,-429.6 321.13,-429.6 321.13,-455 321.13,-455 321.13,-455 417.43,-455 499.82,-455"/>
</g>
<!-- kujaw&#45;&#45;Stowarzyszenie#Zarzd -->
<g id="edge52" class="edge">
<title>kujaw&#45;&#45;Stowarzyszenie#Zarzd</title>
<path fill="none" stroke="#00c64f" d="M89.89,-436.8C158.1,-436.8 316.13,-436.8 316.13,-436.8 316.13,-436.8 316.13,-542.14 316.13,-542.14 316.13,-542.14 440.37,-542.14 528.7,-542.14"/>
</g>
<!-- kujaw&#45;&#45;Marketing&#45;i&#45;media&#45;spoecznociowe#Naklejki -->
<g id="edge51" class="edge">
<title>kujaw&#45;&#45;Marketing&#45;i&#45;media&#45;spoecznociowe#Naklejki</title>
<path fill="none" stroke="#00c64f" d="M89.83,-415.2C155.18,-415.2 312.34,-415.2 437.86,-415.2"/>
</g>
<!-- Marketing&#45;i&#45;media&#45;spoecznociowe#Logo nr 2 -->
<g id="node40" class="node">
<title>Marketing&#45;i&#45;media&#45;spoecznociowe#Logo nr 2</title>
<ellipse fill="none" stroke="black" cx="615.21" cy="-383" rx="227.46" ry="18"/>
<text text-anchor="middle" x="615.21" y="-379.3" font-family="Times,serif" font-size="14.00">Marketing&#45;i&#45;media&#45;spoecznociowe#Logo nr 2</text>
</g>
<!-- kujaw&#45;&#45;Marketing&#45;i&#45;media&#45;spoecznociowe#Logo nr 2 -->
<g id="edge50" class="edge">
<title>kujaw&#45;&#45;Marketing&#45;i&#45;media&#45;spoecznociowe#Logo nr 2</title>
<path fill="none" stroke="#00c64f" d="M93.13,-417.42C93.13,-407.35 93.13,-392 93.13,-392 93.13,-392 270.28,-392 418.2,-392"/>
</g>
<!-- q3k -->
<g id="node41" class="node">
<title>q3k</title>
<ellipse fill="none" stroke="black" cx="59.14" cy="-383" rx="27.9" ry="18"/>
<text text-anchor="middle" x="59.14" y="-379.3" font-family="Times,serif" font-size="14.00">q3k</text>
</g>
<!-- q3k&#45;&#45;Kanay&#45;komunikacji# -->
<g id="edge54" class="edge">
<title>q3k&#45;&#45;Kanay&#45;komunikacji#</title>
<path fill="none" stroke="#2e00e4" d="M87.11,-383C151.96,-383 307.13,-383 307.13,-383 307.13,-383 307.13,-635 307.13,-635 307.13,-635 423,-635 512.62,-635"/>
</g>
<!-- q3k&#45;&#45;Infrastruktura::Domeny#Domeny -->
<g id="edge55" class="edge">
<title>q3k&#45;&#45;Infrastruktura::Domeny#Domeny</title>
<path fill="none" stroke="#2e00e4" d="M60.13,-364.51C60.13,-352.86 60.13,-340 60.13,-340 60.13,-340 284.47,-340 447.91,-340"/>
</g>
<!-- q3k&#45;&#45;Marketing&#45;i&#45;media&#45;spoecznociowe#Logo nr 2 -->
<g id="edge56" class="edge">
<title>q3k&#45;&#45;Marketing&#45;i&#45;media&#45;spoecznociowe#Logo nr 2</title>
<path fill="none" stroke="#2e00e4" d="M83.4,-374C141.25,-374 291.94,-374 418.2,-374"/>
</g>
<!-- pmysl -->
<g id="node42" class="node">
<title>pmysl</title>
<ellipse fill="none" stroke="black" cx="59.14" cy="-984" rx="38.19" ry="18"/>
<text text-anchor="middle" x="59.14" y="-980.3" font-family="Times,serif" font-size="14.00">pmysl</text>
</g>
<!-- pmysl&#45;&#45;Infrastruktura::IRC#IRC -->
<g id="edge57" class="edge">
<title>pmysl&#45;&#45;Infrastruktura::IRC#IRC</title>
<path fill="none" stroke="#ff0000" d="M85.83,-997C95.52,-997 104.13,-997 104.13,-997 104.13,-997 104.13,-1160.6 104.13,-1160.6 104.13,-1160.6 341.59,-1160.6 492.79,-1160.6"/>
</g>
<!-- pmysl&#45;&#45;Bazy&#45;danych#Grafana -->
<g id="edge58" class="edge">
<title>pmysl&#45;&#45;Bazy&#45;danych#Grafana</title>
<path fill="none" stroke="#ff0000" d="M93.61,-992C128.12,-992 176.13,-992 176.13,-992 176.13,-992 176.13,-1206 176.13,-1206 176.13,-1206 377.23,-1206 507.23,-1206"/>
</g>
<!-- pmysl&#45;&#45;Kanay&#45;komunikacji# -->
<g id="edge59" class="edge">
<title>pmysl&#45;&#45;Kanay&#45;komunikacji#</title>
<path fill="none" stroke="#ff0000" d="M88.04,-972C137.74,-972 234.13,-972 234.13,-972 234.13,-972 234.13,-653 234.13,-653 234.13,-653 422,-653 533.92,-653"/>
</g>
<!-- pmysl&#45;&#45;Infrastruktura::Github#Github -->
<g id="edge60" class="edge">
<title>pmysl&#45;&#45;Infrastruktura::Github#Github</title>
<path fill="none" stroke="#ff0000" d="M97.47,-982C154,-982 253.13,-982 253.13,-982 253.13,-982 253.13,-829.33 253.13,-829.33 253.13,-829.33 445.81,-829.33 550.06,-829.33"/>
</g>
<!-- pmysl&#45;&#45;Miejsce::Miejsce#Klucze do spejsu -->
<g id="edge61" class="edge">
<title>pmysl&#45;&#45;Miejsce::Miejsce#Klucze do spejsu</title>
<path fill="none" stroke="#ff0000" d="M94.62,-977C148.08,-977 243.13,-977 243.13,-977 243.13,-977 243.13,-779 243.13,-779 243.13,-779 362.09,-779 465.48,-779"/>
</g>
<!-- pmysl&#45;&#45;Bazy&#45;danych# -->
<g id="edge62" class="edge">
<title>pmysl&#45;&#45;Bazy&#45;danych#</title>
<path fill="none" stroke="#ff0000" d="M60.13,-1002.37C60.13,-1029.48 60.13,-1077 60.13,-1077 60.13,-1077 391.34,-1077 542.07,-1077"/>
</g>
<!-- pzduniak -->
<g id="node43" class="node">
<title>pzduniak</title>
<ellipse fill="none" stroke="black" cx="59.14" cy="-61" rx="52.79" ry="18"/>
<text text-anchor="middle" x="59.14" y="-57.3" font-family="Times,serif" font-size="14.00">pzduniak</text>
</g>
<!-- pzduniak&#45;&#45;Stowarzyszenie#Komisja Rewizyjna -->
<g id="edge63" class="edge">
<title>pzduniak&#45;&#45;Stowarzyszenie#Komisja Rewizyjna</title>
<path fill="none" stroke="#2bd500" d="M90.63,-46.5C159.16,-46.5 325.85,-46.5 453.09,-46.5"/>
</g>
<!-- krcz -->
<g id="node44" class="node">
<title>krcz</title>
<ellipse fill="none" stroke="black" cx="59.14" cy="-18" rx="30.59" ry="18"/>
<text text-anchor="middle" x="59.14" y="-14.3" font-family="Times,serif" font-size="14.00">krcz</text>
</g>
<!-- krcz&#45;&#45;Stowarzyszenie#Komisja Rewizyjna -->
<g id="edge64" class="edge">
<title>krcz&#45;&#45;Stowarzyszenie#Komisja Rewizyjna</title>
<path fill="none" stroke="#0061f2" d="M84.12,-28.5C150.84,-28.5 337.25,-28.5 470.35,-28.5"/>
</g>
<!-- BluRaf -->
<g id="node45" class="node">
<title>BluRaf</title>
<ellipse fill="none" stroke="black" cx="59.14" cy="-1157" rx="42.49" ry="18"/>
<text text-anchor="middle" x="59.14" y="-1153.3" font-family="Times,serif" font-size="14.00">BluRaf</text>
</g>
<!-- BluRaf&#45;&#45;Infrastruktura::IRC#IRC -->
<g id="edge65" class="edge">
<title>BluRaf&#45;&#45;Infrastruktura::IRC#IRC</title>
<path fill="none" stroke="#c60077" d="M93.09,-1167.8C175.39,-1167.8 388.08,-1167.8 515.17,-1167.8"/>
</g>
</g>
</svg>
