<?xml version="1.0" encoding="UTF-8" standalone="no"?>
<!DOCTYPE svg PUBLIC "-//W3C//DTD SVG 1.1//EN"
 "http://www.w3.org/Graphics/SVG/1.1/DTD/svg11.dtd">
<!-- Generated by graphviz version 2.42.4 (0)
 -->
<!-- Pages: 1 -->
<svg width="1001pt" height="1463pt"
 viewBox="0.00 0.00 1000.82 1463.00" xmlns="http://www.w3.org/2000/svg" xmlns:xlink="http://www.w3.org/1999/xlink">
<g id="graph0" class="graph" transform="scale(1 1) rotate(0) translate(4 1459)">
<polygon fill="white" stroke="transparent" points="-4,4 -4,-1459 996.82,-1459 996.82,4 -4,4"/>
<!-- d33tah -->
<g id="node1" class="node">
<title>d33tah</title>
<ellipse fill="none" stroke="black" cx="71.49" cy="-749" rx="43.59" ry="18"/>
<text text-anchor="middle" x="71.49" y="-745.3" font-family="Times,serif" font-size="14.00">d33tah</text>
</g>
<!-- Infrastruktura::Domeny#Domeny -->
<g id="node2" class="node">
<title>Infrastruktura::Domeny#Domeny</title>
<ellipse fill="none" stroke="black" cx="639.91" cy="-1050" rx="167.07" ry="18"/>
<text text-anchor="middle" x="639.91" y="-1046.3" font-family="Times,serif" font-size="14.00">Infrastruktura::Domeny#Domeny</text>
</g>
<!-- d33tah&#45;&#45;Infrastruktura::Domeny#Domeny -->
<g id="edge1" class="edge">
<title>d33tah&#45;&#45;Infrastruktura::Domeny#Domeny</title>
<path fill="none" stroke="#ff0000" d="M101.82,-761.92C101.82,-818.43 101.82,-1041 101.82,-1041 101.82,-1041 335.63,-1041 495,-1041"/>
</g>
<!-- Infrastruktura::Telegram#HSŁ24: t.me/hsl_info -->
<g id="node3" class="node">
<title>Infrastruktura::Telegram#HSŁ24: t.me/hsl_info</title>
<ellipse fill="none" stroke="black" cx="639.91" cy="-1007" rx="231.26" ry="18"/>
<text text-anchor="middle" x="639.91" y="-1003.3" font-family="Times,serif" font-size="14.00">Infrastruktura::Telegram#HSŁ24: t.me/hsl_info</text>
</g>
<!-- d33tah&#45;&#45;Infrastruktura::Telegram#HSŁ24: t.me/hsl_info -->
<g id="edge2" class="edge">
<title>d33tah&#45;&#45;Infrastruktura::Telegram#HSŁ24: t.me/hsl_info</title>
<path fill="none" stroke="#ff0000" d="M103.82,-761.1C103.82,-812.11 103.82,-1007 103.82,-1007 103.82,-1007 263.29,-1007 408.28,-1007"/>
</g>
<!-- Bazy&#45;danych#Trello -->
<g id="node4" class="node">
<title>Bazy&#45;danych#Trello</title>
<ellipse fill="none" stroke="black" cx="639.91" cy="-964" rx="103.98" ry="18"/>
<text text-anchor="middle" x="639.91" y="-960.3" font-family="Times,serif" font-size="14.00">Bazy&#45;danych#Trello</text>
</g>
<!-- d33tah&#45;&#45;Bazy&#45;danych#Trello -->
<g id="edge3" class="edge">
<title>d33tah&#45;&#45;Bazy&#45;danych#Trello</title>
<path fill="none" stroke="#ff0000" d="M104.82,-760.87C104.82,-805.94 104.82,-964 104.82,-964 104.82,-964 380.12,-964 535.78,-964"/>
</g>
<!-- Infrastruktura::Telegram#🦄posty: t.me/hakierspejs_spam -->
<g id="node5" class="node">
<title>Infrastruktura::Telegram#🦄posty: t.me/hakierspejs_spam</title>
<ellipse fill="none" stroke="black" cx="639.91" cy="-448" rx="284.05" ry="18"/>
<text text-anchor="middle" x="639.91" y="-444.3" font-family="Times,serif" font-size="14.00">Infrastruktura::Telegram#🦄posty: t.me/hakierspejs_spam</text>
</g>
<!-- d33tah&#45;&#45;Infrastruktura::Telegram#🦄posty: t.me/hakierspejs_spam -->
<g id="edge4" class="edge">
<title>d33tah&#45;&#45;Infrastruktura::Telegram#🦄posty: t.me/hakierspejs_spam</title>
<path fill="none" stroke="#ff0000" d="M111.29,-741.29C168.14,-741.29 265.82,-741.29 265.82,-741.29 265.82,-741.29 265.82,-457 265.82,-457 265.82,-457 323.62,-457 393.78,-457"/>
</g>
<!-- Kanały&#45;komunikacji# -->
<g id="node6" class="node">
<title>Kanały&#45;komunikacji#</title>
<ellipse fill="none" stroke="black" cx="639.91" cy="-792" rx="108.58" ry="18"/>
<text text-anchor="middle" x="639.91" y="-788.3" font-family="Times,serif" font-size="14.00">Kanały&#45;komunikacji#</text>
</g>
<!-- d33tah&#45;&#45;Kanały&#45;komunikacji# -->
<g id="edge5" class="edge">
<title>d33tah&#45;&#45;Kanały&#45;komunikacji#</title>
<path fill="none" stroke="#ff0000" d="M113.82,-753.54C113.82,-765.06 113.82,-794.57 113.82,-794.57 113.82,-794.57 378.26,-794.57 532.18,-794.57"/>
</g>
<!-- Bazy&#45;danych#Pad -->
<g id="node7" class="node">
<title>Bazy&#45;danych#Pad</title>
<ellipse fill="none" stroke="black" cx="639.91" cy="-921" rx="94.48" ry="18"/>
<text text-anchor="middle" x="639.91" y="-917.3" font-family="Times,serif" font-size="14.00">Bazy&#45;danych#Pad</text>
</g>
<!-- d33tah&#45;&#45;Bazy&#45;danych#Pad -->
<g id="edge6" class="edge">
<title>d33tah&#45;&#45;Bazy&#45;danych#Pad</title>
<path fill="none" stroke="#ff0000" d="M106.82,-759.76C106.82,-797.41 106.82,-921 106.82,-921 106.82,-921 392.41,-921 545.52,-921"/>
</g>
<!-- Marketing&#45;i&#45;media&#45;społecznościowe# -->
<g id="node8" class="node">
<title>Marketing&#45;i&#45;media&#45;społecznościowe#</title>
<ellipse fill="none" stroke="black" cx="639.91" cy="-362" rx="183.07" ry="18"/>
<text text-anchor="middle" x="639.91" y="-358.3" font-family="Times,serif" font-size="14.00">Marketing&#45;i&#45;media&#45;społecznościowe#</text>
</g>
<!-- d33tah&#45;&#45;Marketing&#45;i&#45;media&#45;społecznościowe# -->
<g id="edge7" class="edge">
<title>d33tah&#45;&#45;Marketing&#45;i&#45;media&#45;społecznościowe#</title>
<path fill="none" stroke="#ff0000" d="M102.17,-736.14C155.54,-736.14 259.82,-736.14 259.82,-736.14 259.82,-736.14 259.82,-376.4 259.82,-376.4 259.82,-376.4 417.48,-376.4 529.72,-376.4"/>
</g>
<!-- Infrastruktura::Telegram#Główny: t.me/hakierspejs -->
<g id="node9" class="node">
<title>Infrastruktura::Telegram#Główny: t.me/hakierspejs</title>
<ellipse fill="none" stroke="black" cx="639.91" cy="-577" rx="251.56" ry="18"/>
<text text-anchor="middle" x="639.91" y="-573.3" font-family="Times,serif" font-size="14.00">Infrastruktura::Telegram#Główny: t.me/hakierspejs</text>
</g>
<!-- d33tah&#45;&#45;Infrastruktura::Telegram#Główny: t.me/hakierspejs -->
<g id="edge8" class="edge">
<title>d33tah&#45;&#45;Infrastruktura::Telegram#Główny: t.me/hakierspejs</title>
<path fill="none" stroke="#ff0000" d="M114.69,-751.57C158.79,-751.57 220.82,-751.57 220.82,-751.57 220.82,-751.57 220.82,-590.83 220.82,-590.83 220.82,-590.83 360.66,-590.83 478.78,-590.83"/>
</g>
<!-- Infrastruktura::IRC#IRC -->
<g id="node10" class="node">
<title>Infrastruktura::IRC#IRC</title>
<ellipse fill="none" stroke="black" cx="639.91" cy="-663" rx="124.58" ry="18"/>
<text text-anchor="middle" x="639.91" y="-659.3" font-family="Times,serif" font-size="14.00">Infrastruktura::IRC#IRC</text>
</g>
<!-- d33tah&#45;&#45;Infrastruktura::IRC#IRC -->
<g id="edge9" class="edge">
<title>d33tah&#45;&#45;Infrastruktura::IRC#IRC</title>
<path fill="none" stroke="#ff0000" d="M111.08,-756.71C170.75,-756.71 276.82,-756.71 276.82,-756.71 276.82,-756.71 276.82,-673.5 276.82,-673.5 276.82,-673.5 430.87,-673.5 538.28,-673.5"/>
</g>
<!-- Infrastruktura::Mariuszbot#Mariuszbot -->
<g id="node11" class="node">
<title>Infrastruktura::Mariuszbot#Mariuszbot</title>
<ellipse fill="none" stroke="black" cx="639.91" cy="-878" rx="196.07" ry="18"/>
<text text-anchor="middle" x="639.91" y="-874.3" font-family="Times,serif" font-size="14.00">Infrastruktura::Mariuszbot#Mariuszbot</text>
</g>
<!-- d33tah&#45;&#45;Infrastruktura::Mariuszbot#Mariuszbot -->
<g id="edge10" class="edge">
<title>d33tah&#45;&#45;Infrastruktura::Mariuszbot#Mariuszbot</title>
<path fill="none" stroke="#ff0000" d="M108.82,-758.28C108.82,-787.86 108.82,-878 108.82,-878 108.82,-878 292.07,-878 443.28,-878"/>
</g>
<!-- Infrastruktura::Github#Github -->
<g id="node12" class="node">
<title>Infrastruktura::Github#Github</title>
<ellipse fill="none" stroke="black" cx="639.91" cy="-534" rx="154.07" ry="18"/>
<text text-anchor="middle" x="639.91" y="-530.3" font-family="Times,serif" font-size="14.00">Infrastruktura::Github#Github</text>
</g>
<!-- d33tah&#45;&#45;Infrastruktura::Github#Github -->
<g id="edge11" class="edge">
<title>d33tah&#45;&#45;Infrastruktura::Github#Github</title>
<path fill="none" stroke="#ff0000" d="M114.75,-746.43C173.37,-746.43 270.82,-746.43 270.82,-746.43 270.82,-746.43 270.82,-544 270.82,-544 270.82,-544 405.04,-544 511.6,-544"/>
</g>
<!-- Drzwi&#45;frontowe#Ekran  -->
<g id="node13" class="node">
<title>Drzwi&#45;frontowe#Ekran </title>
<ellipse fill="none" stroke="black" cx="639.91" cy="-835" rx="120.78" ry="18"/>
<text text-anchor="middle" x="639.91" y="-831.3" font-family="Times,serif" font-size="14.00">Drzwi&#45;frontowe#Ekran </text>
</g>
<!-- d33tah&#45;&#45;Drzwi&#45;frontowe#Ekran  -->
<g id="edge12" class="edge">
<title>d33tah&#45;&#45;Drzwi&#45;frontowe#Ekran </title>
<path fill="none" stroke="black" d="M110.82,-756.94C110.82,-778.23 110.82,-835 110.82,-835 110.82,-835 362.68,-835 518.86,-835"/>
</g>
<!-- Bazy&#45;danych#Grafana -->
<g id="node17" class="node">
<title>Bazy&#45;danych#Grafana</title>
<ellipse fill="none" stroke="black" cx="639.91" cy="-706" rx="114.28" ry="18"/>
<text text-anchor="middle" x="639.91" y="-702.3" font-family="Times,serif" font-size="14.00">Bazy&#45;danych#Grafana</text>
</g>
<!-- d33tah&#45;&#45;Bazy&#45;danych#Grafana -->
<g id="edge13" class="edge">
<title>d33tah&#45;&#45;Bazy&#45;danych#Grafana</title>
<path fill="none" stroke="#ff0000" d="M71.82,-730.91C71.82,-724.34 71.82,-718.5 71.82,-718.5 71.82,-718.5 399.75,-718.5 557.3,-718.5"/>
</g>
<!-- Infrastruktura::Telegram#Spacerspejs: t.me/joinchat/UYf2ONtNj21J1DS6 -->
<g id="node18" class="node">
<title>Infrastruktura::Telegram#Spacerspejs: t.me/joinchat/UYf2ONtNj21J1DS6</title>
<ellipse fill="none" stroke="black" cx="639.91" cy="-749" rx="352.84" ry="18"/>
<text text-anchor="middle" x="639.91" y="-745.3" font-family="Times,serif" font-size="14.00">Infrastruktura::Telegram#Spacerspejs: t.me/joinchat/UYf2ONtNj21J1DS6</text>
</g>
<!-- d33tah&#45;&#45;Infrastruktura::Telegram#Spacerspejs: t.me/joinchat/UYf2ONtNj21J1DS6 -->
<g id="edge14" class="edge">
<title>d33tah&#45;&#45;Infrastruktura::Telegram#Spacerspejs: t.me/joinchat/UYf2ONtNj21J1DS6</title>
<path fill="none" stroke="#ff0000" d="M102.05,-761.86C157.4,-761.86 279.04,-761.86 392.66,-761.86"/>
</g>
<!-- następne -->
<g id="node14" class="node">
<title>następne</title>
<ellipse fill="none" stroke="black" cx="71.49" cy="-1136" rx="53.09" ry="18"/>
<text text-anchor="middle" x="71.49" y="-1132.3" font-family="Times,serif" font-size="14.00">następne</text>
</g>
<!-- spotkanie -->
<g id="node15" class="node">
<title>spotkanie</title>
<ellipse fill="none" stroke="black" cx="71.49" cy="-1179" rx="55.79" ry="18"/>
<text text-anchor="middle" x="71.49" y="-1175.3" font-family="Times,serif" font-size="14.00">spotkanie</text>
</g>
<g id="node16" class="node">
<title></title>
<ellipse fill="none" stroke="#ff0000" cx="71.49" cy="-1222" rx="27" ry="18"/>
</g>
<!-- q3k -->
<g id="node19" class="node">
<title>q3k</title>
<ellipse fill="none" stroke="black" cx="71.49" cy="-792" rx="27.9" ry="18"/>
<text text-anchor="middle" x="71.49" y="-788.3" font-family="Times,serif" font-size="14.00">q3k</text>
</g>
<!-- q3k&#45;&#45;Infrastruktura::Domeny#Domeny -->
<g id="edge15" class="edge">
<title>q3k&#45;&#45;Infrastruktura::Domeny#Domeny</title>
<path fill="none" stroke="#2bd500" d="M71.82,-810.14C71.82,-868.87 71.82,-1050 71.82,-1050 71.82,-1050 304.97,-1050 472.54,-1050"/>
</g>
<!-- q3k&#45;&#45;Kanały&#45;komunikacji# -->
<g id="edge17" class="edge">
<title>q3k&#45;&#45;Kanały&#45;komunikacji#</title>
<path fill="none" stroke="#2bd500" d="M97.02,-799.71C174.09,-799.71 407.33,-799.71 541.69,-799.71"/>
</g>
<!-- Marketing&#45;i&#45;media&#45;społecznościowe#Logo nr. 2 -->
<g id="node20" class="node">
<title>Marketing&#45;i&#45;media&#45;społecznościowe#Logo nr. 2</title>
<ellipse fill="none" stroke="black" cx="639.91" cy="-491" rx="229.36" ry="18"/>
<text text-anchor="middle" x="639.91" y="-487.3" font-family="Times,serif" font-size="14.00">Marketing&#45;i&#45;media&#45;społecznościowe#Logo nr. 2</text>
</g>
<!-- q3k&#45;&#45;Marketing&#45;i&#45;media&#45;społecznościowe#Logo nr. 2 -->
<g id="edge16" class="edge">
<title>q3k&#45;&#45;Marketing&#45;i&#45;media&#45;społecznościowe#Logo nr. 2</title>
<path fill="none" stroke="#2bd500" d="M91.15,-779.14C133.97,-779.14 231.82,-779.14 231.82,-779.14 231.82,-779.14 231.82,-494.6 231.82,-494.6 231.82,-494.6 320.37,-494.6 414.98,-494.6"/>
</g>
<!-- cytP450 -->
<g id="node21" class="node">
<title>cytP450</title>
<ellipse fill="none" stroke="black" cx="71.49" cy="-1093" rx="48.99" ry="18"/>
<text text-anchor="middle" x="71.49" y="-1089.3" font-family="Times,serif" font-size="14.00">cytP450</text>
</g>
<!-- cytP450&#45;&#45;Infrastruktura::Domeny#Domeny -->
<g id="edge18" class="edge">
<title>cytP450&#45;&#45;Infrastruktura::Domeny#Domeny</title>
<path fill="none" stroke="#0061f2" d="M111.82,-1082.61C111.82,-1072.62 111.82,-1059 111.82,-1059 111.82,-1059 338.57,-1059 494.91,-1059"/>
</g>
<!-- cytP450&#45;&#45;Kanały&#45;komunikacji# -->
<g id="edge20" class="edge">
<title>cytP450&#45;&#45;Kanały&#45;komunikacji#</title>
<path fill="none" stroke="#0061f2" d="M108,-1081C156.96,-1081 237.82,-1081 237.82,-1081 237.82,-1081 237.82,-804.86 237.82,-804.86 237.82,-804.86 447.24,-804.86 563.8,-804.86"/>
</g>
<!-- Chciejlista#Elektronika (w sensie urządzeń konsumenckich) -->
<g id="node22" class="node">
<title>Chciejlista#Elektronika (w sensie urządzeń konsumenckich)</title>
<ellipse fill="none" stroke="black" cx="639.91" cy="-1179" rx="289.75" ry="18"/>
<text text-anchor="middle" x="639.91" y="-1175.3" font-family="Times,serif" font-size="14.00">Chciejlista#Elektronika (w sensie urządzeń konsumenckich)</text>
</g>
<!-- cytP450&#45;&#45;Chciejlista#Elektronika (w sensie urządzeń konsumenckich) -->
<g id="edge19" class="edge">
<title>cytP450&#45;&#45;Chciejlista#Elektronika (w sensie urządzeń konsumenckich)</title>
<path fill="none" stroke="#0061f2" d="M117.47,-1099C149.99,-1099 187.82,-1099 187.82,-1099 187.82,-1099 187.82,-1179 187.82,-1179 187.82,-1179 261.72,-1179 349.76,-1179"/>
</g>
<!-- Zamek#Zamek -->
<g id="node23" class="node">
<title>Zamek#Zamek</title>
<ellipse fill="none" stroke="black" cx="639.91" cy="-1136" rx="81.49" ry="18"/>
<text text-anchor="middle" x="639.91" y="-1132.3" font-family="Times,serif" font-size="14.00">Zamek#Zamek</text>
</g>
<!-- cytP450&#45;&#45;Zamek#Zamek -->
<g id="edge21" class="edge">
<title>cytP450&#45;&#45;Zamek#Zamek</title>
<path fill="none" stroke="#0061f2" d="M120.28,-1093C182.41,-1093 281.82,-1093 281.82,-1093 281.82,-1093 281.82,-1136 281.82,-1136 281.82,-1136 453,-1136 558.65,-1136"/>
</g>
<!-- Przegląd&#45;lokali&#45;na&#45;wynajem&#45;w&#45;Łodzi.&#45;Fundusz&#45;1000&#45;&#45;&#45;1500.#Bot Aleksego -->
<g id="node24" class="node">
<title>Przegląd&#45;lokali&#45;na&#45;wynajem&#45;w&#45;Łodzi.&#45;Fundusz&#45;1000&#45;&#45;&#45;1500.#Bot Aleksego</title>
<ellipse fill="none" stroke="black" cx="639.91" cy="-1093" rx="351.74" ry="18"/>
<text text-anchor="middle" x="639.91" y="-1089.3" font-family="Times,serif" font-size="14.00">Przegląd&#45;lokali&#45;na&#45;wynajem&#45;w&#45;Łodzi.&#45;Fundusz&#45;1000&#45;&#45;&#45;1500.#Bot Aleksego</text>
</g>
<!-- cytP450&#45;&#45;Przegląd&#45;lokali&#45;na&#45;wynajem&#45;w&#45;Łodzi.&#45;Fundusz&#45;1000&#45;&#45;&#45;1500.#Bot Aleksego -->
<g id="edge22" class="edge">
<title>cytP450&#45;&#45;Przegląd&#45;lokali&#45;na&#45;wynajem&#45;w&#45;Łodzi.&#45;Fundusz&#45;1000&#45;&#45;&#45;1500.#Bot Aleksego</title>
<path fill="none" stroke="#0061f2" d="M117.53,-1087C161.67,-1087 232.58,-1087 308.12,-1087"/>
</g>
<!-- Chciejlista#DIY -->
<g id="node25" class="node">
<title>Chciejlista#DIY</title>
<ellipse fill="none" stroke="black" cx="639.91" cy="-1222" rx="83.69" ry="18"/>
<text text-anchor="middle" x="639.91" y="-1218.3" font-family="Times,serif" font-size="14.00">Chciejlista#DIY</text>
</g>
<!-- cytP450&#45;&#45;Chciejlista#DIY -->
<g id="edge23" class="edge">
<title>cytP450&#45;&#45;Chciejlista#DIY</title>
<path fill="none" stroke="#0061f2" d="M107.93,-1105C132.26,-1105 159.82,-1105 159.82,-1105 159.82,-1105 159.82,-1222 159.82,-1222 159.82,-1222 418.39,-1222 556.01,-1222"/>
</g>
<!-- hakierspejs -->
<g id="node26" class="node">
<title>hakierspejs</title>
<ellipse fill="none" stroke="black" cx="71.49" cy="-1286" rx="63.89" ry="18"/>
<text text-anchor="middle" x="71.49" y="-1282.3" font-family="Times,serif" font-size="14.00">hakierspejs</text>
</g>
<!-- Finanse#Płacenie składek -->
<g id="node27" class="node">
<title>Finanse#Płacenie składek</title>
<ellipse fill="none" stroke="black" cx="639.91" cy="-1308" rx="131.88" ry="18"/>
<text text-anchor="middle" x="639.91" y="-1304.3" font-family="Times,serif" font-size="14.00">Finanse#Płacenie składek</text>
</g>
<!-- hakierspejs&#45;&#45;Finanse#Płacenie składek -->
<g id="edge24" class="edge">
<title>hakierspejs&#45;&#45;Finanse#Płacenie składek</title>
<path fill="none" stroke="#c60077" d="M121.94,-1297C214.38,-1297 412.71,-1297 535.36,-1297"/>
</g>
<!-- Regulamin_składek# -->
<g id="node28" class="node">
<title>Regulamin_składek#</title>
<ellipse fill="none" stroke="black" cx="639.91" cy="-1265" rx="107.78" ry="18"/>
<text text-anchor="middle" x="639.91" y="-1261.3" font-family="Times,serif" font-size="14.00">Regulamin_składek#</text>
</g>
<!-- hakierspejs&#45;&#45;Regulamin_składek# -->
<g id="edge25" class="edge">
<title>hakierspejs&#45;&#45;Regulamin_składek#</title>
<path fill="none" stroke="#c60077" d="M123.44,-1275.5C220.94,-1275.5 432.29,-1275.5 552.21,-1275.5"/>
</g>
<!-- kujaw -->
<g id="node29" class="node">
<title>kujaw</title>
<ellipse fill="none" stroke="black" cx="71.49" cy="-448" rx="38.19" ry="18"/>
<text text-anchor="middle" x="71.49" y="-444.3" font-family="Times,serif" font-size="14.00">kujaw</text>
</g>
<!-- kujaw&#45;&#45;Marketing&#45;i&#45;media&#45;społecznościowe# -->
<g id="edge29" class="edge">
<title>kujaw&#45;&#45;Marketing&#45;i&#45;media&#45;społecznościowe#</title>
<path fill="none" stroke="#b6e400" d="M108.63,-443.5C138.95,-443.5 176.82,-443.5 176.82,-443.5 176.82,-443.5 176.82,-362 176.82,-362 176.82,-362 327.19,-362 456.55,-362"/>
</g>
<!-- kujaw&#45;&#45;Marketing&#45;i&#45;media&#45;społecznościowe#Logo nr. 2 -->
<g id="edge26" class="edge">
<title>kujaw&#45;&#45;Marketing&#45;i&#45;media&#45;społecznościowe#Logo nr. 2</title>
<path fill="none" stroke="#b6e400" d="M97.03,-461.5C109.06,-461.5 120.82,-461.5 120.82,-461.5 120.82,-461.5 120.82,-487.4 120.82,-487.4 120.82,-487.4 274.68,-487.4 414.87,-487.4"/>
</g>
<!-- Marketing&#45;i&#45;media&#45;społecznościowe#Naklejki -->
<g id="node30" class="node">
<title>Marketing&#45;i&#45;media&#45;społecznościowe#Naklejki</title>
<ellipse fill="none" stroke="black" cx="639.91" cy="-405" rx="221.76" ry="18"/>
<text text-anchor="middle" x="639.91" y="-401.3" font-family="Times,serif" font-size="14.00">Marketing&#45;i&#45;media&#45;społecznościowe#Naklejki</text>
</g>
<!-- kujaw&#45;&#45;Marketing&#45;i&#45;media&#45;społecznościowe#Naklejki -->
<g id="edge27" class="edge">
<title>kujaw&#45;&#45;Marketing&#45;i&#45;media&#45;społecznościowe#Naklejki</title>
<path fill="none" stroke="#b6e400" d="M110.04,-448C147.52,-448 198.82,-448 198.82,-448 198.82,-448 198.82,-399 198.82,-399 198.82,-399 316.76,-399 430.67,-399"/>
</g>
<!-- Miejsce::Miejsce#Klucze do spejsu -->
<g id="node31" class="node">
<title>Miejsce::Miejsce#Klucze do spejsu</title>
<ellipse fill="none" stroke="black" cx="639.91" cy="-169" rx="172.77" ry="18"/>
<text text-anchor="middle" x="639.91" y="-165.3" font-family="Times,serif" font-size="14.00">Miejsce::Miejsce#Klucze do spejsu</text>
</g>
<!-- kujaw&#45;&#45;Miejsce::Miejsce#Klucze do spejsu -->
<g id="edge28" class="edge">
<title>kujaw&#45;&#45;Miejsce::Miejsce#Klucze do spejsu</title>
<path fill="none" stroke="#b6e400" d="M97.07,-434.5C126.5,-434.5 170.82,-434.5 170.82,-434.5 170.82,-434.5 170.82,-184 170.82,-184 170.82,-184 406.94,-184 544.13,-184"/>
</g>
<!-- kpc -->
<g id="node32" class="node">
<title>kpc</title>
<ellipse fill="none" stroke="black" cx="71.49" cy="-276" rx="27" ry="18"/>
<text text-anchor="middle" x="71.49" y="-272.3" font-family="Times,serif" font-size="14.00">kpc</text>
</g>
<!-- kpc&#45;&#45;Infrastruktura::Telegram#🦄posty: t.me/hakierspejs_spam -->
<g id="edge30" class="edge">
<title>kpc&#45;&#45;Infrastruktura::Telegram#🦄posty: t.me/hakierspejs_spam</title>
<path fill="none" stroke="#00ffff" d="M98.11,-279.6C120.48,-279.6 148.82,-279.6 148.82,-279.6 148.82,-279.6 148.82,-439 148.82,-439 148.82,-439 271.12,-439 393.65,-439"/>
</g>
<!-- kpc&#45;&#45;Marketing&#45;i&#45;media&#45;społecznościowe# -->
<g id="edge32" class="edge">
<title>kpc&#45;&#45;Marketing&#45;i&#45;media&#45;społecznościowe#</title>
<path fill="none" stroke="#00ffff" d="M93.55,-286.8C102.96,-286.8 111.82,-286.8 111.82,-286.8 111.82,-286.8 111.82,-351.2 111.82,-351.2 111.82,-351.2 336.89,-351.2 493.16,-351.2"/>
</g>
<!-- kpc&#45;&#45;Miejsce::Miejsce#Klucze do spejsu -->
<g id="edge31" class="edge">
<title>kpc&#45;&#45;Miejsce::Miejsce#Klucze do spejsu</title>
<path fill="none" stroke="#00ffff" d="M93.37,-265.2C121.24,-265.2 165.82,-265.2 165.82,-265.2 165.82,-265.2 165.82,-181 165.82,-181 165.82,-181 370.6,-181 510.99,-181"/>
</g>
<!-- Infrastruktura::Telegram#Posty wyklęte (celowo bez linka) -->
<g id="node33" class="node">
<title>Infrastruktura::Telegram#Posty wyklęte (celowo bez linka)</title>
<ellipse fill="none" stroke="black" cx="639.91" cy="-276" rx="284.05" ry="18"/>
<text text-anchor="middle" x="639.91" y="-272.3" font-family="Times,serif" font-size="14.00">Infrastruktura::Telegram#Posty wyklęte (celowo bez linka)</text>
</g>
<!-- kpc&#45;&#45;Infrastruktura::Telegram#Posty wyklęte (celowo bez linka) -->
<g id="edge33" class="edge">
<title>kpc&#45;&#45;Infrastruktura::Telegram#Posty wyklęte (celowo bez linka)</title>
<path fill="none" stroke="#00ffff" d="M98.15,-272.4C146.76,-272.4 254.71,-272.4 361.55,-272.4"/>
</g>
<!-- Piotrek_P -->
<g id="node34" class="node">
<title>Piotrek_P</title>
<ellipse fill="none" stroke="black" cx="71.49" cy="-104" rx="55.49" ry="18"/>
<text text-anchor="middle" x="71.49" y="-100.3" font-family="Times,serif" font-size="14.00">Piotrek_P</text>
</g>
<!-- Piotrek_P&#45;&#45;Miejsce::Miejsce#Klucze do spejsu -->
<g id="edge34" class="edge">
<title>Piotrek_P&#45;&#45;Miejsce::Miejsce#Klucze do spejsu</title>
<path fill="none" stroke="#ab00d5" d="M116.82,-114.46C116.82,-129.55 116.82,-155.67 116.82,-155.67 116.82,-155.67 369.36,-155.67 523.49,-155.67"/>
</g>
<!-- polimerek -->
<g id="node35" class="node">
<title>polimerek</title>
<ellipse fill="none" stroke="black" cx="71.49" cy="-61" rx="57.39" ry="18"/>
<text text-anchor="middle" x="71.49" y="-57.3" font-family="Times,serif" font-size="14.00">polimerek</text>
</g>
<!-- polimerek&#45;&#45;Miejsce::Miejsce#Klucze do spejsu -->
<g id="edge35" class="edge">
<title>polimerek&#45;&#45;Miejsce::Miejsce#Klucze do spejsu</title>
<path fill="none" stroke="#f29100" d="M129.16,-61C262.88,-61 582.82,-61 582.82,-61 582.82,-61 582.82,-121.12 582.82,-151.65"/>
</g>
<!-- kotlovecrafta -->
<g id="node36" class="node">
<title>kotlovecrafta</title>
<ellipse fill="none" stroke="black" cx="71.49" cy="-233" rx="71.49" ry="18"/>
<text text-anchor="middle" x="71.49" y="-229.3" font-family="Times,serif" font-size="14.00">kotlovecrafta</text>
</g>
<!-- kotlovecrafta&#45;&#45;Marketing&#45;i&#45;media&#45;społecznościowe# -->
<g id="edge37" class="edge">
<title>kotlovecrafta&#45;&#45;Marketing&#45;i&#45;media&#45;społecznościowe#</title>
<path fill="none" stroke="#00c64f" d="M117.82,-247.05C117.82,-277.65 117.82,-347.6 117.82,-347.6 117.82,-347.6 376.65,-347.6 529.82,-347.6"/>
</g>
<!-- kotlovecrafta&#45;&#45;Miejsce::Miejsce#Klucze do spejsu -->
<g id="edge36" class="edge">
<title>kotlovecrafta&#45;&#45;Miejsce::Miejsce#Klucze do spejsu</title>
<path fill="none" stroke="#00c64f" d="M136.82,-225.35C136.82,-210.24 136.82,-178 136.82,-178 136.82,-178 341.72,-178 489.99,-178"/>
</g>
<!-- sp7adg -->
<g id="node37" class="node">
<title>sp7adg</title>
<ellipse fill="none" stroke="black" cx="71.49" cy="-18" rx="44.39" ry="18"/>
<text text-anchor="middle" x="71.49" y="-14.3" font-family="Times,serif" font-size="14.00">sp7adg</text>
</g>
<!-- sp7adg&#45;&#45;Miejsce::Miejsce#Klucze do spejsu -->
<g id="edge38" class="edge">
<title>sp7adg&#45;&#45;Miejsce::Miejsce#Klucze do spejsu</title>
<path fill="none" stroke="#2e00e4" d="M116.04,-18C259.13,-18 697.82,-18 697.82,-18 697.82,-18 697.82,-112.48 697.82,-151.97"/>
</g>
<!-- inoru -->
<g id="node38" class="node">
<title>inoru</title>
<ellipse fill="none" stroke="black" cx="71.49" cy="-190" rx="35.19" ry="18"/>
<text text-anchor="middle" x="71.49" y="-186.3" font-family="Times,serif" font-size="14.00">inoru</text>
</g>
<!-- inoru&#45;&#45;Miejsce::Miejsce#Klucze do spejsu -->
<g id="edge39" class="edge">
<title>inoru&#45;&#45;Miejsce::Miejsce#Klucze do spejsu</title>
<path fill="none" stroke="#ff0000" d="M91.06,-175C151.19,-175 337.59,-175 476.58,-175"/>
</g>
<!-- Octia -->
<g id="node39" class="node">
<title>Octia</title>
<ellipse fill="none" stroke="black" cx="71.49" cy="-147" rx="35.19" ry="18"/>
<text text-anchor="middle" x="71.49" y="-143.3" font-family="Times,serif" font-size="14.00">Octia</text>
</g>
<!-- Octia&#45;&#45;Miejsce::Miejsce#Klucze do spejsu -->
<g id="edge40" class="edge">
<title>Octia&#45;&#45;Miejsce::Miejsce#Klucze do spejsu</title>
<path fill="none" stroke="#2bd500" d="M95.19,-160.33C161.17,-160.33 351.09,-160.33 488.12,-160.33"/>
</g>
<!-- thinkofher -->
<g id="node40" class="node">
<title>thinkofher</title>
<ellipse fill="none" stroke="black" cx="71.49" cy="-588" rx="59.29" ry="18"/>
<text text-anchor="middle" x="71.49" y="-584.3" font-family="Times,serif" font-size="14.00">thinkofher</text>
</g>
<!-- thinkofher&#45;&#45;Kanały&#45;komunikacji# -->
<g id="edge41" class="edge">
<title>thinkofher&#45;&#45;Kanały&#45;komunikacji#</title>
<path fill="none" stroke="#0061f2" d="M130.66,-586.67C174.56,-586.67 226.82,-586.67 226.82,-586.67 226.82,-586.67 226.82,-784.29 226.82,-784.29 226.82,-784.29 419.58,-784.29 541.75,-784.29"/>
</g>
<!-- thinkofher&#45;&#45;Marketing&#45;i&#45;media&#45;społecznościowe# -->
<g id="edge42" class="edge">
<title>thinkofher&#45;&#45;Marketing&#45;i&#45;media&#45;społecznościowe#</title>
<path fill="none" stroke="#0061f2" d="M109.72,-574.17C163.18,-574.17 253.82,-574.17 253.82,-574.17 253.82,-574.17 253.82,-372.8 253.82,-372.8 253.82,-372.8 383.96,-372.8 493.12,-372.8"/>
</g>
<!-- thinkofher&#45;&#45;Infrastruktura::Telegram#Główny: t.me/hakierspejs -->
<g id="edge44" class="edge">
<title>thinkofher&#45;&#45;Infrastruktura::Telegram#Główny: t.me/hakierspejs</title>
<path fill="none" stroke="#0061f2" d="M127.81,-582.5C191.61,-582.5 299.82,-582.5 400.38,-582.5"/>
</g>
<!-- thinkofher&#45;&#45;Infrastruktura::IRC#IRC -->
<g id="edge43" class="edge">
<title>thinkofher&#45;&#45;Infrastruktura::IRC#IRC</title>
<path fill="none" stroke="#0061f2" d="M119.85,-598.5C239.51,-598.5 539.82,-598.5 539.82,-598.5 539.82,-598.5 539.82,-633.66 539.82,-652.06"/>
</g>
<!-- thinkofher&#45;&#45;Infrastruktura::Github#Github -->
<g id="edge46" class="edge">
<title>thinkofher&#45;&#45;Infrastruktura::Github#Github</title>
<path fill="none" stroke="#0061f2" d="M121.43,-578.33C161.06,-578.33 209.82,-578.33 209.82,-578.33 209.82,-578.33 209.82,-536 209.82,-536 209.82,-536 363.2,-536 486.76,-536"/>
</g>
<!-- Bazy&#45;danych# -->
<g id="node41" class="node">
<title>Bazy&#45;danych#</title>
<ellipse fill="none" stroke="black" cx="639.91" cy="-620" rx="77.19" ry="18"/>
<text text-anchor="middle" x="639.91" y="-616.3" font-family="Times,serif" font-size="14.00">Bazy&#45;danych#</text>
</g>
<!-- thinkofher&#45;&#45;Bazy&#45;danych# -->
<g id="edge45" class="edge">
<title>thinkofher&#45;&#45;Bazy&#45;danych#</title>
<path fill="none" stroke="#0061f2" d="M84.82,-605.77C84.82,-610.99 84.82,-615.33 84.82,-615.33 84.82,-615.33 413.53,-615.33 565.05,-615.33"/>
</g>
<!-- BluRaf -->
<g id="node42" class="node">
<title>BluRaf</title>
<ellipse fill="none" stroke="black" cx="71.49" cy="-695" rx="42.49" ry="18"/>
<text text-anchor="middle" x="71.49" y="-691.3" font-family="Times,serif" font-size="14.00">BluRaf</text>
</g>
<!-- BluRaf&#45;&#45;Infrastruktura::IRC#IRC -->
<g id="edge47" class="edge">
<title>BluRaf&#45;&#45;Infrastruktura::IRC#IRC</title>
<path fill="none" stroke="#c60077" d="M106.01,-684.5C211.22,-684.5 520.82,-684.5 520.82,-684.5 520.82,-684.5 520.82,-674.79 520.82,-668.43"/>
</g>
<!-- pmysl -->
<g id="node43" class="node">
<title>pmysl</title>
<ellipse fill="none" stroke="black" cx="71.49" cy="-652" rx="38.19" ry="18"/>
<text text-anchor="middle" x="71.49" y="-648.3" font-family="Times,serif" font-size="14.00">pmysl</text>
</g>
<!-- pmysl&#45;&#45;Kanały&#45;komunikacji# -->
<g id="edge48" class="edge">
<title>pmysl&#45;&#45;Kanały&#45;komunikacji#</title>
<path fill="none" stroke="#b6e400" d="M100.64,-663.75C124.67,-663.75 154.82,-663.75 154.82,-663.75 154.82,-663.75 154.82,-789.43 154.82,-789.43 154.82,-789.43 389.34,-789.43 532.25,-789.43"/>
</g>
<!-- pmysl&#45;&#45;Infrastruktura::IRC#IRC -->
<g id="edge49" class="edge">
<title>pmysl&#45;&#45;Infrastruktura::IRC#IRC</title>
<path fill="none" stroke="#b6e400" d="M110.12,-651.25C198.63,-651.25 418.28,-651.25 545.23,-651.25"/>
</g>
<!-- pmysl&#45;&#45;Infrastruktura::Github#Github -->
<g id="edge51" class="edge">
<title>pmysl&#45;&#45;Infrastruktura::Github#Github</title>
<path fill="none" stroke="#b6e400" d="M102.81,-641.5C145.26,-641.5 215.82,-641.5 215.82,-641.5 215.82,-641.5 215.82,-540 215.82,-540 215.82,-540 371.79,-540 494.55,-540"/>
</g>
<!-- pmysl&#45;&#45;Bazy&#45;danych#Grafana -->
<g id="edge52" class="edge">
<title>pmysl&#45;&#45;Bazy&#45;danych#Grafana</title>
<path fill="none" stroke="#b6e400" d="M108.2,-657.5C144.23,-657.5 193.82,-657.5 193.82,-657.5 193.82,-657.5 193.82,-700.5 193.82,-700.5 193.82,-700.5 398.72,-700.5 530.78,-700.5"/>
</g>
<!-- pmysl&#45;&#45;Bazy&#45;danych# -->
<g id="edge50" class="edge">
<title>pmysl&#45;&#45;Bazy&#45;danych#</title>
<path fill="none" stroke="#b6e400" d="M58.82,-634.84C58.82,-629.35 58.82,-624.67 58.82,-624.67 58.82,-624.67 408.19,-624.67 565.13,-624.67"/>
</g>
<!-- kszmigiel -->
<g id="node44" class="node">
<title>kszmigiel</title>
<ellipse fill="none" stroke="black" cx="71.49" cy="-534" rx="54.69" ry="18"/>
<text text-anchor="middle" x="71.49" y="-530.3" font-family="Times,serif" font-size="14.00">kszmigiel</text>
</g>
<!-- kszmigiel&#45;&#45;Infrastruktura::Telegram#🦄posty: t.me/hakierspejs_spam -->
<g id="edge54" class="edge">
<title>kszmigiel&#45;&#45;Infrastruktura::Telegram#🦄posty: t.me/hakierspejs_spam</title>
<path fill="none" stroke="#00ffff" d="M115.82,-523.35C115.82,-501.25 115.82,-452.5 115.82,-452.5 115.82,-452.5 238.29,-452.5 364.82,-452.5"/>
</g>
<!-- kszmigiel&#45;&#45;Marketing&#45;i&#45;media&#45;społecznościowe# -->
<g id="edge55" class="edge">
<title>kszmigiel&#45;&#45;Marketing&#45;i&#45;media&#45;społecznościowe#</title>
<path fill="none" stroke="#00ffff" d="M106.11,-520C157.71,-520 248.82,-520 248.82,-520 248.82,-520 248.82,-369.2 248.82,-369.2 248.82,-369.2 365.79,-369.2 471.78,-369.2"/>
</g>
<!-- kszmigiel&#45;&#45;Infrastruktura::Telegram#Główny: t.me/hakierspejs -->
<g id="edge56" class="edge">
<title>kszmigiel&#45;&#45;Infrastruktura::Telegram#Główny: t.me/hakierspejs</title>
<path fill="none" stroke="#00ffff" d="M106.01,-548C190.31,-548 399.82,-548 399.82,-548 399.82,-548 399.82,-562.98 399.82,-571.41"/>
</g>
<!-- kszmigiel&#45;&#45;Infrastruktura::Github#Github -->
<g id="edge57" class="edge">
<title>kszmigiel&#45;&#45;Infrastruktura::Github#Github</title>
<path fill="none" stroke="#00ffff" d="M126,-532C208.24,-532 367.16,-532 486.6,-532"/>
</g>
<!-- kszmigiel&#45;&#45;Marketing&#45;i&#45;media&#45;społecznościowe#Naklejki -->
<g id="edge53" class="edge">
<title>kszmigiel&#45;&#45;Marketing&#45;i&#45;media&#45;społecznościowe#Naklejki</title>
<path fill="none" stroke="#00ffff" d="M117.01,-524C155.63,-524 204.82,-524 204.82,-524 204.82,-524 204.82,-411 204.82,-411 204.82,-411 319.19,-411 430.65,-411"/>
</g>
<!-- biniu -->
<g id="node45" class="node">
<title>biniu</title>
<ellipse fill="none" stroke="black" cx="71.49" cy="-362" rx="34.39" ry="18"/>
<text text-anchor="middle" x="71.49" y="-358.3" font-family="Times,serif" font-size="14.00">biniu</text>
</g>
<!-- biniu&#45;&#45;Marketing&#45;i&#45;media&#45;społecznościowe# -->
<g id="edge58" class="edge">
<title>biniu&#45;&#45;Marketing&#45;i&#45;media&#45;społecznościowe#</title>
<path fill="none" stroke="#ab00d5" d="M103.27,-354.8C172.65,-354.8 341.88,-354.8 471.9,-354.8"/>
</g>
<!-- Keij0 -->
<g id="node46" class="node">
<title>Keij0</title>
<ellipse fill="none" stroke="black" cx="71.49" cy="-319" rx="34.39" ry="18"/>
<text text-anchor="middle" x="71.49" y="-315.3" font-family="Times,serif" font-size="14.00">Keij0</text>
</g>
<!-- Keij0&#45;&#45;Marketing&#45;i&#45;media&#45;społecznościowe# -->
<g id="edge59" class="edge">
<title>Keij0&#45;&#45;Marketing&#45;i&#45;media&#45;społecznościowe#</title>
<path fill="none" stroke="#f29100" d="M106.25,-319C229.86,-319 640.82,-319 640.82,-319 640.82,-319 640.82,-331.86 640.82,-343.51"/>
</g>
<!-- SP7Q -->
<g id="node47" class="node">
<title>SP7Q</title>
<ellipse fill="none" stroke="black" cx="71.49" cy="-491" rx="36.29" ry="18"/>
<text text-anchor="middle" x="71.49" y="-487.3" font-family="Times,serif" font-size="14.00">SP7Q</text>
</g>
<!-- SP7Q&#45;&#45;Marketing&#45;i&#45;media&#45;społecznościowe# -->
<g id="edge61" class="edge">
<title>SP7Q&#45;&#45;Marketing&#45;i&#45;media&#45;społecznościowe#</title>
<path fill="none" stroke="#00c64f" d="M100.77,-480.2C133.46,-480.2 181.82,-480.2 181.82,-480.2 181.82,-480.2 181.82,-365.6 181.82,-365.6 181.82,-365.6 331.84,-365.6 460.17,-365.6"/>
</g>
<!-- SP7Q&#45;&#45;Infrastruktura::Github#Github -->
<g id="edge60" class="edge">
<title>SP7Q&#45;&#45;Infrastruktura::Github#Github</title>
<path fill="none" stroke="#00c64f" d="M100.95,-501.8C149.93,-501.8 242.82,-501.8 242.82,-501.8 242.82,-501.8 242.82,-528 242.82,-528 242.82,-528 381.2,-528 494.58,-528"/>
</g>
<!-- Polimerek -->
<g id="node48" class="node">
<title>Polimerek</title>
<ellipse fill="none" stroke="black" cx="71.49" cy="-405" rx="57.39" ry="18"/>
<text text-anchor="middle" x="71.49" y="-401.3" font-family="Times,serif" font-size="14.00">Polimerek</text>
</g>
<!-- Polimerek&#45;&#45;Marketing&#45;i&#45;media&#45;społecznościowe# -->
<g id="edge62" class="edge">
<title>Polimerek&#45;&#45;Marketing&#45;i&#45;media&#45;społecznościowe#</title>
<path fill="none" stroke="#2e00e4" d="M123.82,-397.72C123.82,-384.61 123.82,-358.4 123.82,-358.4 123.82,-358.4 311.19,-358.4 460.13,-358.4"/>
</g>
<!-- kasesag -->
<g id="node49" class="node">
<title>kasesag</title>
<ellipse fill="none" stroke="black" cx="71.49" cy="-1351" rx="48.19" ry="18"/>
<text text-anchor="middle" x="71.49" y="-1347.3" font-family="Times,serif" font-size="14.00">kasesag</text>
</g>
<!-- Marketing&#45;i&#45;media&#45;społecznościowe#Przycisk HS&#45;LDZ -->
<g id="node50" class="node">
<title>Marketing&#45;i&#45;media&#45;społecznościowe#Przycisk HS&#45;LDZ</title>
<ellipse fill="none" stroke="black" cx="639.91" cy="-1351" rx="261.85" ry="18"/>
<text text-anchor="middle" x="639.91" y="-1347.3" font-family="Times,serif" font-size="14.00">Marketing&#45;i&#45;media&#45;społecznościowe#Przycisk HS&#45;LDZ</text>
</g>
<!-- kasesag&#45;&#45;Marketing&#45;i&#45;media&#45;społecznościowe#Przycisk HS&#45;LDZ -->
<g id="edge63" class="edge">
<title>kasesag&#45;&#45;Marketing&#45;i&#45;media&#45;społecznościowe#Przycisk HS&#45;LDZ</title>
<path fill="none" stroke="#ff0000" d="M119.96,-1351C177.95,-1351 279.55,-1351 377.64,-1351"/>
</g>
<!-- hslbridgebot -->
<g id="node51" class="node">
<title>hslbridgebot</title>
<ellipse fill="none" stroke="black" cx="71.49" cy="-1437" rx="69.59" ry="18"/>
<text text-anchor="middle" x="71.49" y="-1433.3" font-family="Times,serif" font-size="14.00">hslbridgebot</text>
</g>
<!-- Mostkowanie&#45;kanałów#mautrix&#45;telegram (aktualnie używany) -->
<g id="node52" class="node">
<title>Mostkowanie&#45;kanałów#mautrix&#45;telegram (aktualnie używany)</title>
<ellipse fill="none" stroke="black" cx="639.91" cy="-1416" rx="297.85" ry="18"/>
<text text-anchor="middle" x="639.91" y="-1412.3" font-family="Times,serif" font-size="14.00">Mostkowanie&#45;kanałów#mautrix&#45;telegram (aktualnie używany)</text>
</g>
<!-- hslbridgebot&#45;&#45;Mostkowanie&#45;kanałów#mautrix&#45;telegram (aktualnie używany) -->
<g id="edge64" class="edge">
<title>hslbridgebot&#45;&#45;Mostkowanie&#45;kanałów#mautrix&#45;telegram (aktualnie używany)</title>
<path fill="none" stroke="#2bd500" d="M128.07,-1426.5C191.4,-1426.5 298.22,-1426.5 397.95,-1426.5"/>
</g>
<!-- telegrambot -->
<g id="node53" class="node">
<title>telegrambot</title>
<ellipse fill="none" stroke="black" cx="71.49" cy="-1394" rx="67.69" ry="18"/>
<text text-anchor="middle" x="71.49" y="-1390.3" font-family="Times,serif" font-size="14.00">telegrambot</text>
</g>
<!-- telegrambot&#45;&#45;Mostkowanie&#45;kanałów#mautrix&#45;telegram (aktualnie używany) -->
<g id="edge65" class="edge">
<title>telegrambot&#45;&#45;Mostkowanie&#45;kanałów#mautrix&#45;telegram (aktualnie używany)</title>
<path fill="none" stroke="#0061f2" d="M125.22,-1405C189.43,-1405 301.12,-1405 404.09,-1405"/>
</g>
</g>
</svg>
