<?xml version="1.0" encoding="UTF-8" standalone="no"?>
<!DOCTYPE svg PUBLIC "-//W3C//DTD SVG 1.1//EN"
 "http://www.w3.org/Graphics/SVG/1.1/DTD/svg11.dtd">
<!-- Generated by graphviz version 2.40.1 (20161225.0304)
 -->
<!-- Title: %3 Pages: 1 -->
<svg width="602pt" height="560pt"
 viewBox="0.00 0.00 601.76 560.00" xmlns="http://www.w3.org/2000/svg" xmlns:xlink="http://www.w3.org/1999/xlink">
<g id="graph0" class="graph" transform="scale(1 1) rotate(0) translate(4 556)">
<title>%3</title>
<polygon fill="#ffffff" stroke="transparent" points="-4,4 -4,-556 597.7601,-556 597.7601,4 -4,4"/>
<!-- q3k -->
<g id="node1" class="node">
<title>q3k</title>
<ellipse fill="none" stroke="#000000" cx="59.7947" cy="-512" rx="28.6953" ry="18"/>
<text text-anchor="middle" x="59.7947" y="-508.3" font-family="Times,serif" font-size="14.00" fill="#000000">q3k</text>
</g>
<!-- Infrastruktura#Domeny -->
<g id="node2" class="node">
<title>Infrastruktura#Domeny</title>
<ellipse fill="none" stroke="#000000" cx="428.6747" cy="-405" rx="124.2781" ry="18"/>
<text text-anchor="middle" x="428.6747" y="-401.3" font-family="Times,serif" font-size="14.00" fill="#000000">Infrastruktura#Domeny</text>
</g>
<!-- q3k&#45;&#45;Infrastruktura#Domeny -->
<g id="edge1" class="edge">
<title>q3k&#45;&#45;Infrastruktura#Domeny</title>
<path fill="none" stroke="#ff0000" d="M83.1915,-501.5C134.7803,-501.5 253.7601,-501.5 253.7601,-501.5 253.7601,-501.5 253.7601,-415.8 253.7601,-415.8 253.7601,-415.8 289.8289,-415.8 329.2088,-415.8"/>
</g>
<!-- Infrastruktura#Lista mailingowa -->
<g id="node3" class="node">
<title>Infrastruktura#Lista mailingowa</title>
<ellipse fill="none" stroke="#000000" cx="428.6747" cy="-534" rx="165.1707" ry="18"/>
<text text-anchor="middle" x="428.6747" y="-530.3" font-family="Times,serif" font-size="14.00" fill="#000000">Infrastruktura#Lista mailingowa</text>
</g>
<!-- q3k&#45;&#45;Infrastruktura#Lista mailingowa -->
<g id="edge2" class="edge">
<title>q3k&#45;&#45;Infrastruktura#Lista mailingowa</title>
<path fill="none" stroke="#ff0000" d="M79.1079,-525.3333C117.2802,-525.3333 205.4754,-525.3333 283.7222,-525.3333"/>
</g>
<!-- d33tah -->
<g id="node4" class="node">
<title>d33tah</title>
<ellipse fill="none" stroke="#000000" cx="59.7947" cy="-448" rx="43.5923" ry="18"/>
<text text-anchor="middle" x="59.7947" y="-444.3" font-family="Times,serif" font-size="14.00" fill="#000000">d33tah</text>
</g>
<!-- d33tah&#45;&#45;Infrastruktura#Domeny -->
<g id="edge3" class="edge">
<title>d33tah&#45;&#45;Infrastruktura#Domeny</title>
<path fill="none" stroke="#2bd500" d="M99.2283,-455.7143C171.0287,-455.7143 315.7601,-455.7143 315.7601,-455.7143 315.7601,-455.7143 315.7601,-426.5901 315.7601,-412.4831"/>
</g>
<!-- d33tah&#45;&#45;Infrastruktura#Lista mailingowa -->
<g id="edge8" class="edge">
<title>d33tah&#45;&#45;Infrastruktura#Lista mailingowa</title>
<path fill="none" stroke="#2bd500" d="M93.7601,-459.3542C93.7601,-479.7917 93.7601,-520.6667 93.7601,-520.6667 93.7601,-520.6667 220.1276,-520.6667 317.6182,-520.6667"/>
</g>
<!-- Infrastruktura#Github -->
<g id="node5" class="node">
<title>Infrastruktura#Github</title>
<ellipse fill="none" stroke="#000000" cx="428.6747" cy="-362" rx="117.7793" ry="18"/>
<text text-anchor="middle" x="428.6747" y="-358.3" font-family="Times,serif" font-size="14.00" fill="#000000">Infrastruktura#Github</text>
</g>
<!-- d33tah&#45;&#45;Infrastruktura#Github -->
<g id="edge4" class="edge">
<title>d33tah&#45;&#45;Infrastruktura#Github</title>
<path fill="none" stroke="#2bd500" d="M102.9264,-450.5714C157.301,-450.5714 243.7601,-450.5714 243.7601,-450.5714 243.7601,-450.5714 243.7601,-368 243.7601,-368 243.7601,-368 278.3683,-368 317.6405,-368"/>
</g>
<!-- Infrastruktura#Meetup -->
<g id="node6" class="node">
<title>Infrastruktura#Meetup</title>
<ellipse fill="none" stroke="#000000" cx="428.6747" cy="-319" rx="121.5784" ry="18"/>
<text text-anchor="middle" x="428.6747" y="-315.3" font-family="Times,serif" font-size="14.00" fill="#000000">Infrastruktura#Meetup</text>
</g>
<!-- d33tah&#45;&#45;Infrastruktura#Meetup -->
<g id="edge5" class="edge">
<title>d33tah&#45;&#45;Infrastruktura#Meetup</title>
<path fill="none" stroke="#2bd500" d="M103.0051,-445.4286C141.4918,-445.4286 191.7601,-445.4286 191.7601,-445.4286 191.7601,-445.4286 191.7601,-331.8571 191.7601,-331.8571 191.7601,-331.8571 275.5567,-331.8571 343.4778,-331.8571"/>
</g>
<!-- Infrastruktura#Telegram -->
<g id="node7" class="node">
<title>Infrastruktura#Telegram</title>
<ellipse fill="none" stroke="#000000" cx="428.6747" cy="-491" rx="129.9769" ry="18"/>
<text text-anchor="middle" x="428.6747" y="-487.3" font-family="Times,serif" font-size="14.00" fill="#000000">Infrastruktura#Telegram</text>
</g>
<!-- d33tah&#45;&#45;Infrastruktura#Telegram -->
<g id="edge6" class="edge">
<title>d33tah&#45;&#45;Infrastruktura#Telegram</title>
<path fill="none" stroke="#2bd500" d="M98.7601,-456.2336C98.7601,-466.7207 98.7601,-483.5 98.7601,-483.5 98.7601,-483.5 215.8343,-483.5 310.4998,-483.5"/>
</g>
<!-- Infrastruktura#IRC -->
<g id="node8" class="node">
<title>Infrastruktura#IRC</title>
<ellipse fill="none" stroke="#000000" cx="428.6747" cy="-147" rx="103.9815" ry="18"/>
<text text-anchor="middle" x="428.6747" y="-143.3" font-family="Times,serif" font-size="14.00" fill="#000000">Infrastruktura#IRC</text>
</g>
<!-- d33tah&#45;&#45;Infrastruktura#IRC -->
<g id="edge7" class="edge">
<title>d33tah&#45;&#45;Infrastruktura#IRC</title>
<path fill="none" stroke="#2bd500" d="M90.3023,-435.1429C109.5363,-435.1429 130.7601,-435.1429 130.7601,-435.1429 130.7601,-435.1429 130.7601,-147 130.7601,-147 130.7601,-147 238.5687,-147 324.4787,-147"/>
</g>
<!-- Infrastruktura#Pad -->
<g id="node9" class="node">
<title>Infrastruktura#Pad</title>
<ellipse fill="none" stroke="#000000" cx="428.6747" cy="-448" rx="102.8821" ry="18"/>
<text text-anchor="middle" x="428.6747" y="-444.3" font-family="Times,serif" font-size="14.00" fill="#000000">Infrastruktura#Pad</text>
</g>
<!-- d33tah&#45;&#45;Infrastruktura#Pad -->
<g id="edge9" class="edge">
<title>d33tah&#45;&#45;Infrastruktura#Pad</title>
<path fill="none" stroke="#2bd500" d="M90.2955,-460.8571C148.2942,-460.8571 275.8974,-460.8571 356.7712,-460.8571"/>
</g>
<!-- Infrastruktura#Hosting -->
<g id="node10" class="node">
<title>Infrastruktura#Hosting</title>
<ellipse fill="none" stroke="#000000" cx="428.6747" cy="-190" rx="122.6784" ry="18"/>
<text text-anchor="middle" x="428.6747" y="-186.3" font-family="Times,serif" font-size="14.00" fill="#000000">Infrastruktura#Hosting</text>
</g>
<!-- d33tah&#45;&#45;Infrastruktura#Hosting -->
<g id="edge10" class="edge">
<title>d33tah&#45;&#45;Infrastruktura#Hosting</title>
<path fill="none" stroke="#2bd500" d="M99.3934,-440.2857C135.0065,-440.2857 181.7601,-440.2857 181.7601,-440.2857 181.7601,-440.2857 181.7601,-202 181.7601,-202 181.7601,-202 266.8143,-202 337.0837,-202"/>
</g>
<!-- cytP450 -->
<g id="node11" class="node">
<title>cytP450</title>
<ellipse fill="none" stroke="#000000" cx="59.7947" cy="-276" rx="49.2915" ry="18"/>
<text text-anchor="middle" x="59.7947" y="-272.3" font-family="Times,serif" font-size="14.00" fill="#000000">cytP450</text>
</g>
<!-- cytP450&#45;&#45;Infrastruktura#Domeny -->
<g id="edge11" class="edge">
<title>cytP450&#45;&#45;Infrastruktura#Domeny</title>
<path fill="none" stroke="#0061f2" d="M106.4235,-282C124.4215,-282 140.7601,-282 140.7601,-282 140.7601,-282 140.7601,-394.2 140.7601,-394.2 140.7601,-394.2 245.9672,-394.2 329.1877,-394.2"/>
</g>
<!-- cytP450&#45;&#45;Infrastruktura#Hosting -->
<g id="edge12" class="edge">
<title>cytP450&#45;&#45;Infrastruktura#Hosting</title>
<path fill="none" stroke="#0061f2" d="M106.6294,-270C137.3108,-270 171.7601,-270 171.7601,-270 171.7601,-270 171.7601,-196 171.7601,-196 171.7601,-196 244.535,-196 312.6194,-196"/>
</g>
<!-- Martti25 -->
<g id="node12" class="node">
<title>Martti25</title>
<ellipse fill="none" stroke="#000000" cx="59.7947" cy="-405" rx="51.9908" ry="18"/>
<text text-anchor="middle" x="59.7947" y="-401.3" font-family="Times,serif" font-size="14.00" fill="#000000">Martti25</text>
</g>
<!-- Martti25&#45;&#45;Infrastruktura#Github -->
<g id="edge13" class="edge">
<title>Martti25&#45;&#45;Infrastruktura#Github</title>
<path fill="none" stroke="#c60077" d="M110.7545,-408.6C161.775,-408.6 232.7601,-408.6 232.7601,-408.6 232.7601,-408.6 232.7601,-356 232.7601,-356 232.7601,-356 273.3333,-356 317.5517,-356"/>
</g>
<!-- Martti25&#45;&#45;Infrastruktura#Meetup -->
<g id="edge14" class="edge">
<title>Martti25&#45;&#45;Infrastruktura#Meetup</title>
<path fill="none" stroke="#c60077" d="M110.869,-401.4C135.9116,-401.4 160.7601,-401.4 160.7601,-401.4 160.7601,-401.4 160.7601,-326.7143 160.7601,-326.7143 160.7601,-326.7143 244.6492,-326.7143 318.5438,-326.7143"/>
</g>
<!-- biniu -->
<g id="node13" class="node">
<title>biniu</title>
<ellipse fill="none" stroke="#000000" cx="59.7947" cy="-319" rx="34.394" ry="18"/>
<text text-anchor="middle" x="59.7947" y="-315.3" font-family="Times,serif" font-size="14.00" fill="#000000">biniu</text>
</g>
<!-- biniu&#45;&#45;Infrastruktura#Meetup -->
<g id="edge15" class="edge">
<title>biniu&#45;&#45;Infrastruktura#Meetup</title>
<path fill="none" stroke="#b6e400" d="M94.1668,-316.4286C142.6369,-316.4286 233.511,-316.4286 308.3213,-316.4286"/>
</g>
<!-- kszmigiel -->
<g id="node14" class="node">
<title>kszmigiel</title>
<ellipse fill="none" stroke="#000000" cx="59.7947" cy="-233" rx="55.4913" ry="18"/>
<text text-anchor="middle" x="59.7947" y="-229.3" font-family="Times,serif" font-size="14.00" fill="#000000">kszmigiel</text>
</g>
<!-- kszmigiel&#45;&#45;Infrastruktura#Meetup -->
<g id="edge16" class="edge">
<title>kszmigiel&#45;&#45;Infrastruktura#Meetup</title>
<path fill="none" stroke="#00ffff" d="M111.9187,-239C132.2435,-239 150.7601,-239 150.7601,-239 150.7601,-239 150.7601,-311.2857 150.7601,-311.2857 150.7601,-311.2857 241.1536,-311.2857 318.8355,-311.2857"/>
</g>
<!-- Infrastruktura#Naklejki -->
<g id="node15" class="node">
<title>Infrastruktura#Naklejki</title>
<ellipse fill="none" stroke="#000000" cx="428.6747" cy="-233" rx="125.3778" ry="18"/>
<text text-anchor="middle" x="428.6747" y="-229.3" font-family="Times,serif" font-size="14.00" fill="#000000">Infrastruktura#Naklejki</text>
</g>
<!-- kszmigiel&#45;&#45;Infrastruktura#Naklejki -->
<g id="edge17" class="edge">
<title>kszmigiel&#45;&#45;Infrastruktura#Naklejki</title>
<path fill="none" stroke="#00ffff" d="M112.2545,-227C163.5729,-227 243.5179,-227 310.2084,-227"/>
</g>
<!-- nikolaad -->
<g id="node16" class="node">
<title>nikolaad</title>
<ellipse fill="none" stroke="#000000" cx="59.7947" cy="-362" rx="50.0912" ry="18"/>
<text text-anchor="middle" x="59.7947" y="-358.3" font-family="Times,serif" font-size="14.00" fill="#000000">nikolaad</text>
</g>
<!-- nikolaad&#45;&#45;Infrastruktura#Meetup -->
<g id="edge18" class="edge">
<title>nikolaad&#45;&#45;Infrastruktura#Meetup</title>
<path fill="none" stroke="#ab00d5" d="M101.7601,-351.7982C101.7601,-339.8215 101.7601,-321.5714 101.7601,-321.5714 101.7601,-321.5714 215.1225,-321.5714 308.3365,-321.5714"/>
</g>
<!-- Keij0 -->
<g id="node17" class="node">
<title>Keij0</title>
<ellipse fill="none" stroke="#000000" cx="59.7947" cy="-190" rx="34.394" ry="18"/>
<text text-anchor="middle" x="59.7947" y="-186.3" font-family="Times,serif" font-size="14.00" fill="#000000">Keij0</text>
</g>
<!-- Keij0&#45;&#45;Infrastruktura#Meetup -->
<g id="edge19" class="edge">
<title>Keij0&#45;&#45;Infrastruktura#Meetup</title>
<path fill="none" stroke="#f29100" d="M94.4026,-190C136.7136,-190 202.7601,-190 202.7601,-190 202.7601,-190 202.7601,-306.1429 202.7601,-306.1429 202.7601,-306.1429 279.5481,-306.1429 343.588,-306.1429"/>
</g>
<!-- Keij0&#45;&#45;Infrastruktura#Hosting -->
<g id="edge20" class="edge">
<title>Keij0&#45;&#45;Infrastruktura#Hosting</title>
<path fill="none" stroke="#f29100" d="M92.5303,-184C141.4607,-184 236.0956,-184 312.5185,-184"/>
</g>
<!-- BluRaf -->
<g id="node18" class="node">
<title>BluRaf</title>
<ellipse fill="none" stroke="#000000" cx="59.7947" cy="-61" rx="42.4939" ry="18"/>
<text text-anchor="middle" x="59.7947" y="-57.3" font-family="Times,serif" font-size="14.00" fill="#000000">BluRaf</text>
</g>
<!-- BluRaf&#45;&#45;Infrastruktura#IRC -->
<g id="edge22" class="edge">
<title>BluRaf&#45;&#45;Infrastruktura#IRC</title>
<path fill="none" stroke="#00c64f" d="M99.6605,-67C147.9062,-67 222.7601,-67 222.7601,-67 222.7601,-67 222.7601,-138 222.7601,-138 222.7601,-138 283.0309,-138 338.3576,-138"/>
</g>
<!-- Infrastruktura#Mumble -->
<g id="node19" class="node">
<title>Infrastruktura#Mumble</title>
<ellipse fill="none" stroke="#000000" cx="428.6747" cy="-104" rx="124.2781" ry="18"/>
<text text-anchor="middle" x="428.6747" y="-100.3" font-family="Times,serif" font-size="14.00" fill="#000000">Infrastruktura#Mumble</text>
</g>
<!-- BluRaf&#45;&#45;Infrastruktura#Mumble -->
<g id="edge21" class="edge">
<title>BluRaf&#45;&#45;Infrastruktura#Mumble</title>
<path fill="none" stroke="#00c64f" d="M95.7601,-70.7213C95.7601,-81.6838 95.7601,-98 95.7601,-98 95.7601,-98 215.4534,-98 311.3015,-98"/>
</g>
<!-- Infrastruktura#Shitposty -->
<g id="node20" class="node">
<title>Infrastruktura#Shitposty</title>
<ellipse fill="none" stroke="#000000" cx="428.6747" cy="-61" rx="129.9769" ry="18"/>
<text text-anchor="middle" x="428.6747" y="-57.3" font-family="Times,serif" font-size="14.00" fill="#000000">Infrastruktura#Shitposty</text>
</g>
<!-- BluRaf&#45;&#45;Infrastruktura#Shitposty -->
<g id="edge23" class="edge">
<title>BluRaf&#45;&#45;Infrastruktura#Shitposty</title>
<path fill="none" stroke="#00c64f" d="M99.9735,-55C149.0835,-55 234.4713,-55 305.9091,-55"/>
</g>
<!-- Infrastruktura#Konfident -->
<g id="node21" class="node">
<title>Infrastruktura#Konfident</title>
<ellipse fill="none" stroke="#000000" cx="428.6747" cy="-18" rx="130.777" ry="18"/>
<text text-anchor="middle" x="428.6747" y="-14.3" font-family="Times,serif" font-size="14.00" fill="#000000">Infrastruktura#Konfident</text>
</g>
<!-- BluRaf&#45;&#45;Infrastruktura#Konfident -->
<g id="edge24" class="edge">
<title>BluRaf&#45;&#45;Infrastruktura#Konfident</title>
<path fill="none" stroke="#00c64f" d="M60.7601,-42.5146C60.7601,-30.8601 60.7601,-18 60.7601,-18 60.7601,-18 192.1766,-18 297.9259,-18"/>
</g>
<!-- kpc -->
<g id="node22" class="node">
<title>kpc</title>
<ellipse fill="none" stroke="#000000" cx="59.7947" cy="-104" rx="27.8951" ry="18"/>
<text text-anchor="middle" x="59.7947" y="-100.3" font-family="Times,serif" font-size="14.00" fill="#000000">kpc</text>
</g>
<!-- kpc&#45;&#45;Infrastruktura#Hosting -->
<g id="edge25" class="edge">
<title>kpc&#45;&#45;Infrastruktura#Hosting</title>
<path fill="none" stroke="#2e00e4" d="M86.4392,-110C130.2648,-110 212.7601,-110 212.7601,-110 212.7601,-110 212.7601,-178 212.7601,-178 212.7601,-178 278.26,-178 337.1075,-178"/>
</g>
<!-- thinkofher -->
<g id="node23" class="node">
<title>thinkofher</title>
<ellipse fill="none" stroke="#000000" cx="59.7947" cy="-147" rx="59.5901" ry="18"/>
<text text-anchor="middle" x="59.7947" y="-143.3" font-family="Times,serif" font-size="14.00" fill="#000000">thinkofher</text>
</g>
<!-- thinkofher&#45;&#45;Infrastruktura#Hosting -->
<g id="edge26" class="edge">
<title>thinkofher&#45;&#45;Infrastruktura#Hosting</title>
<path fill="none" stroke="#ff0000" d="M111.5931,-156C186.387,-156 315.7601,-156 315.7601,-156 315.7601,-156 315.7601,-172.8091 315.7601,-182.7895"/>
</g>
</g>
</svg>
