<?xml version="1.0" encoding="UTF-8" standalone="no"?>
<!DOCTYPE svg PUBLIC "-//W3C//DTD SVG 1.1//EN"
 "http://www.w3.org/Graphics/SVG/1.1/DTD/svg11.dtd">
<!-- Generated by graphviz version 2.43.0 (0)
 -->
<!-- Title: %3 Pages: 1 -->
<svg width="976pt" height="1334pt"
 viewBox="0.00 0.00 976.13 1334.00" xmlns="http://www.w3.org/2000/svg" xmlns:xlink="http://www.w3.org/1999/xlink">
<g id="graph0" class="graph" transform="scale(1 1) rotate(0) translate(4 1330)">
<title>%3</title>
<polygon fill="white" stroke="transparent" points="-4,4 -4,-1330 972.13,-1330 972.13,4 -4,4"/>
<!-- d33tah -->
<g id="node1" class="node">
<title>d33tah</title>
<ellipse fill="none" stroke="black" cx="59.14" cy="-642" rx="43.59" ry="18"/>
<text text-anchor="middle" x="59.14" y="-638.3" font-family="Times,serif" font-size="14.00">d33tah</text>
</g>
<!-- Kanay&#45;komunikacji# -->
<g id="node2" class="node">
<title>Kanay&#45;komunikacji#</title>
<ellipse fill="none" stroke="black" cx="615.21" cy="-534" rx="108.58" ry="18"/>
<text text-anchor="middle" x="615.21" y="-530.3" font-family="Times,serif" font-size="14.00">Kanay&#45;komunikacji#</text>
</g>
<!-- d33tah&#45;&#45;Kanay&#45;komunikacji# -->
<g id="edge1" class="edge">
<title>d33tah&#45;&#45;Kanay&#45;komunikacji#</title>
<path fill="none" stroke="#ff0000" d="M60.13,-623.68C60.13,-592.87 60.13,-534 60.13,-534 60.13,-534 344.94,-534 506.53,-534"/>
</g>
<!-- Infrastruktura::Telegram#HS24: t.me/hsl_info -->
<g id="node3" class="node">
<title>Infrastruktura::Telegram#HS24: t.me/hsl_info</title>
<ellipse fill="none" stroke="black" cx="615.21" cy="-491" rx="231.26" ry="18"/>
<text text-anchor="middle" x="615.21" y="-487.3" font-family="Times,serif" font-size="14.00">Infrastruktura::Telegram#HS24: t.me/hsl_info</text>
</g>
<!-- d33tah&#45;&#45;Infrastruktura::Telegram#HS24: t.me/hsl_info -->
<g id="edge2" class="edge">
<title>d33tah&#45;&#45;Infrastruktura::Telegram#HS24: t.me/hsl_info</title>
<path fill="none" stroke="#ff0000" d="M38.13,-626.13C38.13,-587.36 38.13,-491 38.13,-491 38.13,-491 223.26,-491 383.81,-491"/>
</g>
<!-- Bazy&#45;danych#Trello -->
<g id="node4" class="node">
<title>Bazy&#45;danych#Trello</title>
<ellipse fill="none" stroke="black" cx="615.21" cy="-448" rx="103.98" ry="18"/>
<text text-anchor="middle" x="615.21" y="-444.3" font-family="Times,serif" font-size="14.00">Bazy&#45;danych#Trello</text>
</g>
<!-- d33tah&#45;&#45;Bazy&#45;danych#Trello -->
<g id="edge3" class="edge">
<title>d33tah&#45;&#45;Bazy&#45;danych#Trello</title>
<path fill="none" stroke="#ff0000" d="M91.08,-629.6C114.1,-629.6 141.13,-629.6 141.13,-629.6 141.13,-629.6 141.13,-458.8 141.13,-458.8 141.13,-458.8 395.78,-458.8 531.82,-458.8"/>
</g>
<!-- Miejsce::Miejsce#Klucze do spejsu -->
<g id="node5" class="node">
<title>Miejsce::Miejsce#Klucze do spejsu</title>
<ellipse fill="none" stroke="black" cx="615.21" cy="-706" rx="172.77" ry="18"/>
<text text-anchor="middle" x="615.21" y="-702.3" font-family="Times,serif" font-size="14.00">Miejsce::Miejsce#Klucze do spejsu</text>
</g>
<!-- d33tah&#45;&#45;Miejsce::Miejsce#Klucze do spejsu -->
<g id="edge4" class="edge">
<title>d33tah&#45;&#45;Miejsce::Miejsce#Klucze do spejsu</title>
<path fill="none" stroke="#ff0000" d="M72.13,-659.49C72.13,-678.44 72.13,-706 72.13,-706 72.13,-706 283.27,-706 442.25,-706"/>
</g>
<!-- Infrastruktura::Github#Github -->
<g id="node6" class="node">
<title>Infrastruktura::Github#Github</title>
<ellipse fill="none" stroke="black" cx="615.21" cy="-835" rx="154.07" ry="18"/>
<text text-anchor="middle" x="615.21" y="-831.3" font-family="Times,serif" font-size="14.00">Infrastruktura::Github#Github</text>
</g>
<!-- d33tah&#45;&#45;Infrastruktura::Github#Github -->
<g id="edge5" class="edge">
<title>d33tah&#45;&#45;Infrastruktura::Github#Github</title>
<path fill="none" stroke="#ff0000" d="M79.89,-657.86C110.48,-657.86 164.13,-657.86 164.13,-657.86 164.13,-657.86 164.13,-831.4 164.13,-831.4 164.13,-831.4 332.98,-831.4 464.06,-831.4"/>
</g>
<!-- Bazy&#45;danych#Pad -->
<g id="node7" class="node">
<title>Bazy&#45;danych#Pad</title>
<ellipse fill="none" stroke="black" cx="615.21" cy="-405" rx="94.48" ry="18"/>
<text text-anchor="middle" x="615.21" y="-401.3" font-family="Times,serif" font-size="14.00">Bazy&#45;danych#Pad</text>
</g>
<!-- d33tah&#45;&#45;Bazy&#45;danych#Pad -->
<g id="edge6" class="edge">
<title>d33tah&#45;&#45;Bazy&#45;danych#Pad</title>
<path fill="none" stroke="#ff0000" d="M82.87,-626.8C104.84,-626.8 134.13,-626.8 134.13,-626.8 134.13,-626.8 134.13,-405 134.13,-405 134.13,-405 380.63,-405 520.74,-405"/>
</g>
<!-- Infrastruktura::Telegram#posty: t.me/hakierspejs_spam -->
<g id="node8" class="node">
<title>Infrastruktura::Telegram#posty: t.me/hakierspejs_spam</title>
<ellipse fill="none" stroke="black" cx="615.21" cy="-1136" rx="284.05" ry="18"/>
<text text-anchor="middle" x="615.21" y="-1132.3" font-family="Times,serif" font-size="14.00">Infrastruktura::Telegram#posty: t.me/hakierspejs_spam</text>
</g>
<!-- d33tah&#45;&#45;Infrastruktura::Telegram#posty: t.me/hakierspejs_spam -->
<g id="edge7" class="edge">
<title>d33tah&#45;&#45;Infrastruktura::Telegram#posty: t.me/hakierspejs_spam</title>
<path fill="none" stroke="#ff0000" d="M96.48,-651.43C172.5,-651.43 338.13,-651.43 338.13,-651.43 338.13,-651.43 338.13,-1084.45 338.13,-1131.81"/>
</g>
<!-- Infrastruktura::Mariuszbot#Mariuszbot -->
<g id="node9" class="node">
<title>Infrastruktura::Mariuszbot#Mariuszbot</title>
<ellipse fill="none" stroke="black" cx="615.21" cy="-663" rx="196.07" ry="18"/>
<text text-anchor="middle" x="615.21" y="-659.3" font-family="Times,serif" font-size="14.00">Infrastruktura::Mariuszbot#Mariuszbot</text>
</g>
<!-- d33tah&#45;&#45;Infrastruktura::Mariuszbot#Mariuszbot -->
<g id="edge8" class="edge">
<title>d33tah&#45;&#45;Infrastruktura::Mariuszbot#Mariuszbot</title>
<path fill="none" stroke="#ff0000" d="M100.94,-647.14C189.91,-647.14 399.88,-647.14 522.24,-647.14"/>
</g>
<!-- Drzwi&#45;frontowe#Ekran  -->
<g id="node10" class="node">
<title>Drzwi&#45;frontowe#Ekran </title>
<ellipse fill="none" stroke="black" cx="615.21" cy="-620" rx="120.78" ry="18"/>
<text text-anchor="middle" x="615.21" y="-616.3" font-family="Times,serif" font-size="14.00">Drzwi&#45;frontowe#Ekran </text>
</g>
<!-- d33tah&#45;&#45;Drzwi&#45;frontowe#Ekran  -->
<g id="edge9" class="edge">
<title>d33tah&#45;&#45;Drzwi&#45;frontowe#Ekran </title>
<path fill="none" stroke="black" d="M99.58,-635.2C194.93,-635.2 434.46,-635.2 550.37,-635.2"/>
</g>
<!-- Stowarzyszenie#Zarzd -->
<g id="node14" class="node">
<title>Stowarzyszenie#Zarzd</title>
<ellipse fill="none" stroke="black" cx="615.21" cy="-1007" rx="123.48" ry="18"/>
<text text-anchor="middle" x="615.21" y="-1003.3" font-family="Times,serif" font-size="14.00">Stowarzyszenie#Zarzd</text>
</g>
<!-- d33tah&#45;&#45;Stowarzyszenie#Zarzd -->
<g id="edge10" class="edge">
<title>d33tah&#45;&#45;Stowarzyszenie#Zarzd</title>
<path fill="none" stroke="#ff0000" d="M92.64,-653.57C155.78,-653.57 286.13,-653.57 286.13,-653.57 286.13,-653.57 286.13,-1007 286.13,-1007 286.13,-1007 397.98,-1007 491.27,-1007"/>
</g>
<!-- Infrastruktura::Telegram#Spacerspejs: t.me/joinchat/UYf2ONtNj21J1DS6 -->
<g id="node15" class="node">
<title>Infrastruktura::Telegram#Spacerspejs: t.me/joinchat/UYf2ONtNj21J1DS6</title>
<ellipse fill="none" stroke="black" cx="615.21" cy="-577" rx="352.84" ry="18"/>
<text text-anchor="middle" x="615.21" y="-573.3" font-family="Times,serif" font-size="14.00">Infrastruktura::Telegram#Spacerspejs: t.me/joinchat/UYf2ONtNj21J1DS6</text>
</g>
<!-- d33tah&#45;&#45;Infrastruktura::Telegram#Spacerspejs: t.me/joinchat/UYf2ONtNj21J1DS6 -->
<g id="edge11" class="edge">
<title>d33tah&#45;&#45;Infrastruktura::Telegram#Spacerspejs: t.me/joinchat/UYf2ONtNj21J1DS6</title>
<path fill="none" stroke="#ff0000" d="M96.03,-632.4C165.57,-632.4 309.13,-632.4 309.13,-632.4 309.13,-632.4 309.13,-601.88 309.13,-586.15"/>
</g>
<!-- Infrastruktura::Domeny#Domeny -->
<g id="node16" class="node">
<title>Infrastruktura::Domeny#Domeny</title>
<ellipse fill="none" stroke="black" cx="615.21" cy="-276" rx="167.07" ry="18"/>
<text text-anchor="middle" x="615.21" y="-272.3" font-family="Times,serif" font-size="14.00">Infrastruktura::Domeny#Domeny</text>
</g>
<!-- d33tah&#45;&#45;Infrastruktura::Domeny#Domeny -->
<g id="edge12" class="edge">
<title>d33tah&#45;&#45;Infrastruktura::Domeny#Domeny</title>
<path fill="none" stroke="#ff0000" d="M81.13,-626.13C81.13,-601.16 81.13,-555.5 81.13,-555.5 81.13,-555.5 285.13,-555.5 285.13,-555.5 285.13,-555.5 285.13,-282 285.13,-282 285.13,-282 372.55,-282 457.42,-282"/>
</g>
<!-- Bazy&#45;danych#Grafana -->
<g id="node17" class="node">
<title>Bazy&#45;danych#Grafana</title>
<ellipse fill="none" stroke="black" cx="615.21" cy="-792" rx="114.28" ry="18"/>
<text text-anchor="middle" x="615.21" y="-788.3" font-family="Times,serif" font-size="14.00">Bazy&#45;danych#Grafana</text>
</g>
<!-- d33tah&#45;&#45;Bazy&#45;danych#Grafana -->
<g id="edge13" class="edge">
<title>d33tah&#45;&#45;Bazy&#45;danych#Grafana</title>
<path fill="none" stroke="#ff0000" d="M87.39,-655.71C129.06,-655.71 202.13,-655.71 202.13,-655.71 202.13,-655.71 202.13,-777 202.13,-777 202.13,-777 435.7,-777 551.57,-777"/>
</g>
<!-- Infrastruktura::Telegram#G贸wny: t.me/hakierspejs -->
<g id="node18" class="node">
<title>Infrastruktura::Telegram#G贸wny: t.me/hakierspejs</title>
<ellipse fill="none" stroke="black" cx="615.21" cy="-921" rx="251.56" ry="18"/>
<text text-anchor="middle" x="615.21" y="-917.3" font-family="Times,serif" font-size="14.00">Infrastruktura::Telegram#G贸wny: t.me/hakierspejs</text>
</g>
<!-- d33tah&#45;&#45;Infrastruktura::Telegram#G贸wny: t.me/hakierspejs -->
<g id="edge14" class="edge">
<title>d33tah&#45;&#45;Infrastruktura::Telegram#G贸wny: t.me/hakierspejs</title>
<path fill="none" stroke="#ff0000" d="M99.17,-649.29C190.24,-649.29 405.13,-649.29 405.13,-649.29 405.13,-649.29 405.13,-861.99 405.13,-911.01"/>
</g>
<!-- Marketing&#45;i&#45;media&#45;spoecznociowe# -->
<g id="node19" class="node">
<title>Marketing&#45;i&#45;media&#45;spoecznociowe#</title>
<ellipse fill="none" stroke="black" cx="615.21" cy="-319" rx="183.07" ry="18"/>
<text text-anchor="middle" x="615.21" y="-315.3" font-family="Times,serif" font-size="14.00">Marketing&#45;i&#45;media&#45;spoecznociowe#</text>
</g>
<!-- d33tah&#45;&#45;Marketing&#45;i&#45;media&#45;spoecznociowe# -->
<g id="edge15" class="edge">
<title>d33tah&#45;&#45;Marketing&#45;i&#45;media&#45;spoecznociowe#</title>
<path fill="none" stroke="#ff0000" d="M102.7,-641.5C115.49,-641.5 126.13,-641.5 126.13,-641.5 126.13,-641.5 126.13,-321 126.13,-321 126.13,-321 293.76,-321 432.74,-321"/>
</g>
<!-- Infrastruktura::IRC#IRC -->
<g id="node20" class="node">
<title>Infrastruktura::IRC#IRC</title>
<ellipse fill="none" stroke="black" cx="615.21" cy="-749" rx="124.58" ry="18"/>
<text text-anchor="middle" x="615.21" y="-745.3" font-family="Times,serif" font-size="14.00">Infrastruktura::IRC#IRC</text>
</g>
<!-- d33tah&#45;&#45;Infrastruktura::IRC#IRC -->
<g id="edge16" class="edge">
<title>d33tah&#45;&#45;Infrastruktura::IRC#IRC</title>
<path fill="none" stroke="#ff0000" d="M47.13,-659.59C47.13,-689.16 47.13,-745.67 47.13,-745.67 47.13,-745.67 325.25,-745.67 492.29,-745.67"/>
</g>
<!-- nastpne -->
<g id="node11" class="node">
<title>nastpne</title>
<ellipse fill="none" stroke="black" cx="59.14" cy="-1222" rx="53.09" ry="18"/>
<text text-anchor="middle" x="59.14" y="-1218.3" font-family="Times,serif" font-size="14.00">nastpne</text>
</g>
<!-- spotkanie -->
<g id="node12" class="node">
<title>spotkanie</title>
<ellipse fill="none" stroke="black" cx="59.14" cy="-1265" rx="55.79" ry="18"/>
<text text-anchor="middle" x="59.14" y="-1261.3" font-family="Times,serif" font-size="14.00">spotkanie</text>
</g>
<g id="node13" class="node">
<title></title>
<ellipse fill="none" stroke="#ff0000" cx="59.14" cy="-1308" rx="27" ry="18"/>
</g>
<!-- pmysl -->
<g id="node21" class="node">
<title>pmysl</title>
<ellipse fill="none" stroke="black" cx="59.14" cy="-771" rx="38.19" ry="18"/>
<text text-anchor="middle" x="59.14" y="-767.3" font-family="Times,serif" font-size="14.00">pmysl</text>
</g>
<!-- pmysl&#45;&#45;Kanay&#45;komunikacji# -->
<g id="edge17" class="edge">
<title>pmysl&#45;&#45;Kanay&#45;komunikacji#</title>
<path fill="none" stroke="#2bd500" d="M80.01,-755.8C106.6,-755.8 149.13,-755.8 149.13,-755.8 149.13,-755.8 149.13,-540 149.13,-540 149.13,-540 375.41,-540 512.64,-540"/>
</g>
<!-- pmysl&#45;&#45;Miejsce::Miejsce#Klucze do spejsu -->
<g id="edge19" class="edge">
<title>pmysl&#45;&#45;Miejsce::Miejsce#Klucze do spejsu</title>
<path fill="none" stroke="#2bd500" d="M87.09,-758.6C176.87,-758.6 452.13,-758.6 452.13,-758.6 452.13,-758.6 452.13,-725.85 452.13,-712.03"/>
</g>
<!-- pmysl&#45;&#45;Infrastruktura::Github#Github -->
<g id="edge20" class="edge">
<title>pmysl&#45;&#45;Infrastruktura::Github#Github</title>
<path fill="none" stroke="#2bd500" d="M87.81,-783C182.01,-783 476.13,-783 476.13,-783 476.13,-783 476.13,-812.25 476.13,-826.88"/>
</g>
<!-- pmysl&#45;&#45;Bazy&#45;danych#Grafana -->
<g id="edge21" class="edge">
<title>pmysl&#45;&#45;Bazy&#45;danych#Grafana</title>
<path fill="none" stroke="#2bd500" d="M92.68,-780C177.91,-780 404.94,-780 529.86,-780"/>
</g>
<!-- pmysl&#45;&#45;Infrastruktura::IRC#IRC -->
<g id="edge22" class="edge">
<title>pmysl&#45;&#45;Infrastruktura::IRC#IRC</title>
<path fill="none" stroke="#2bd500" d="M91.85,-761.4C175.26,-761.4 398.17,-761.4 524.53,-761.4"/>
</g>
<!-- Bazy&#45;danych# -->
<g id="node22" class="node">
<title>Bazy&#45;danych#</title>
<ellipse fill="none" stroke="black" cx="615.21" cy="-878" rx="77.19" ry="18"/>
<text text-anchor="middle" x="615.21" y="-874.3" font-family="Times,serif" font-size="14.00">Bazy&#45;danych#</text>
</g>
<!-- pmysl&#45;&#45;Bazy&#45;danych# -->
<g id="edge18" class="edge">
<title>pmysl&#45;&#45;Bazy&#45;danych#</title>
<path fill="none" stroke="#2bd500" d="M80.41,-786C109.22,-786 157.13,-786 157.13,-786 157.13,-786 157.13,-873.09 157.13,-873.09 157.13,-873.09 410.79,-873.09 540.59,-873.09"/>
</g>
<!-- thinkofher -->
<g id="node23" class="node">
<title>thinkofher</title>
<ellipse fill="none" stroke="black" cx="59.14" cy="-878" rx="59.29" ry="18"/>
<text text-anchor="middle" x="59.14" y="-874.3" font-family="Times,serif" font-size="14.00">thinkofher</text>
</g>
<!-- thinkofher&#45;&#45;Kanay&#45;komunikacji# -->
<g id="edge23" class="edge">
<title>thinkofher&#45;&#45;Kanay&#45;komunikacji#</title>
<path fill="none" stroke="#0061f2" d="M104.84,-866.55C144,-866.55 194.13,-866.55 194.13,-866.55 194.13,-866.55 194.13,-546 194.13,-546 194.13,-546 411.66,-546 534.02,-546"/>
</g>
<!-- thinkofher&#45;&#45;Infrastruktura::Github#Github -->
<g id="edge28" class="edge">
<title>thinkofher&#45;&#45;Infrastruktura::Github#Github</title>
<path fill="none" stroke="#0061f2" d="M118.16,-876.36C238.32,-876.36 500.13,-876.36 500.13,-876.36 500.13,-876.36 500.13,-859.39 500.13,-847.19"/>
</g>
<!-- thinkofher&#45;&#45;Stowarzyszenie#Zarzd -->
<g id="edge26" class="edge">
<title>thinkofher&#45;&#45;Stowarzyszenie#Zarzd</title>
<path fill="none" stroke="#0061f2" d="M104.78,-889.45C185.98,-889.45 347.13,-889.45 347.13,-889.45 347.13,-889.45 347.13,-998 347.13,-998 347.13,-998 433.43,-998 508.1,-998"/>
</g>
<!-- thinkofher&#45;&#45;Infrastruktura::Telegram#G贸wny: t.me/hakierspejs -->
<g id="edge29" class="edge">
<title>thinkofher&#45;&#45;Infrastruktura::Telegram#G贸wny: t.me/hakierspejs</title>
<path fill="none" stroke="#0061f2" d="M116.17,-882.91C207.92,-882.91 378.13,-882.91 378.13,-882.91 378.13,-882.91 378.13,-903.89 378.13,-914.71"/>
</g>
<!-- thinkofher&#45;&#45;Marketing&#45;i&#45;media&#45;spoecznociowe# -->
<g id="edge30" class="edge">
<title>thinkofher&#45;&#45;Marketing&#45;i&#45;media&#45;spoecznociowe#</title>
<path fill="none" stroke="#0061f2" d="M93.21,-863.27C128.68,-863.27 179.13,-863.27 179.13,-863.27 179.13,-863.27 179.13,-329 179.13,-329 179.13,-329 336.93,-329 462.69,-329"/>
</g>
<!-- thinkofher&#45;&#45;Infrastruktura::IRC#IRC -->
<g id="edge31" class="edge">
<title>thinkofher&#45;&#45;Infrastruktura::IRC#IRC</title>
<path fill="none" stroke="#0061f2" d="M112.08,-869.82C194.49,-869.82 344.13,-869.82 344.13,-869.82 344.13,-869.82 344.13,-764.2 344.13,-764.2 344.13,-764.2 467.92,-764.2 548.2,-764.2"/>
</g>
<!-- thinkofher&#45;&#45;Bazy&#45;danych# -->
<g id="edge25" class="edge">
<title>thinkofher&#45;&#45;Bazy&#45;danych#</title>
<path fill="none" stroke="#0061f2" d="M118.13,-879.64C219.17,-879.64 425.33,-879.64 537.8,-879.64"/>
</g>
<!-- Infrastruktura::Matrix#hs&#45;ldz&#45;offtopic:hackerspace.pl -->
<g id="node24" class="node">
<title>Infrastruktura::Matrix#hs&#45;ldz&#45;offtopic:hackerspace.pl</title>
<ellipse fill="none" stroke="black" cx="615.21" cy="-964" rx="258.85" ry="18"/>
<text text-anchor="middle" x="615.21" y="-960.3" font-family="Times,serif" font-size="14.00">Infrastruktura::Matrix#hs&#45;ldz&#45;offtopic:hackerspace.pl</text>
</g>
<!-- thinkofher&#45;&#45;Infrastruktura::Matrix#hs&#45;ldz&#45;offtopic:hackerspace.pl -->
<g id="edge24" class="edge">
<title>thinkofher&#45;&#45;Infrastruktura::Matrix#hs&#45;ldz&#45;offtopic:hackerspace.pl</title>
<path fill="none" stroke="#0061f2" d="M112.02,-886.18C196.16,-886.18 351.13,-886.18 351.13,-886.18 351.13,-886.18 351.13,-960.4 351.13,-960.4 351.13,-960.4 354.88,-960.4 361.48,-960.4"/>
</g>
<!-- Infrastruktura::Matrix#hs&#45;ldz:hackerspace.pl -->
<g id="node25" class="node">
<title>Infrastruktura::Matrix#hs&#45;ldz:hackerspace.pl</title>
<ellipse fill="none" stroke="black" cx="615.21" cy="-1050" rx="221.76" ry="18"/>
<text text-anchor="middle" x="615.21" y="-1046.3" font-family="Times,serif" font-size="14.00">Infrastruktura::Matrix#hs&#45;ldz:hackerspace.pl</text>
</g>
<!-- thinkofher&#45;&#45;Infrastruktura::Matrix#hs&#45;ldz:hackerspace.pl -->
<g id="edge27" class="edge">
<title>thinkofher&#45;&#45;Infrastruktura::Matrix#hs&#45;ldz:hackerspace.pl</title>
<path fill="none" stroke="#0061f2" d="M93.16,-892.73C168.16,-892.73 341.13,-892.73 341.13,-892.73 341.13,-892.73 341.13,-1050 341.13,-1050 341.13,-1050 362.51,-1050 393.32,-1050"/>
</g>
<!-- BluRaf -->
<g id="node26" class="node">
<title>BluRaf</title>
<ellipse fill="none" stroke="black" cx="59.14" cy="-448" rx="42.49" ry="18"/>
<text text-anchor="middle" x="59.14" y="-444.3" font-family="Times,serif" font-size="14.00">BluRaf</text>
</g>
<!-- BluRaf&#45;&#45;Marketing&#45;i&#45;media&#45;spoecznociowe# -->
<g id="edge33" class="edge">
<title>BluRaf&#45;&#45;Marketing&#45;i&#45;media&#45;spoecznociowe#</title>
<path fill="none" stroke="#c60077" d="M93.08,-437.2C189.32,-437.2 457.13,-437.2 457.13,-437.2 457.13,-437.2 457.13,-356.14 457.13,-328.27"/>
</g>
<!-- BluRaf&#45;&#45;Infrastruktura::IRC#IRC -->
<g id="edge34" class="edge">
<title>BluRaf&#45;&#45;Infrastruktura::IRC#IRC</title>
<path fill="none" stroke="#c60077" d="M100.8,-451.6C145.49,-451.6 210.13,-451.6 210.13,-451.6 210.13,-451.6 210.13,-738.33 210.13,-738.33 210.13,-738.33 394.59,-738.33 514.56,-738.33"/>
</g>
<!-- Kanay&#45;komunikacji#Mumble -->
<g id="node27" class="node">
<title>Kanay&#45;komunikacji#Mumble</title>
<ellipse fill="none" stroke="black" cx="615.21" cy="-362" rx="146.77" ry="18"/>
<text text-anchor="middle" x="615.21" y="-358.3" font-family="Times,serif" font-size="14.00">Kanay&#45;komunikacji#Mumble</text>
</g>
<!-- BluRaf&#45;&#45;Kanay&#45;komunikacji#Mumble -->
<g id="edge32" class="edge">
<title>BluRaf&#45;&#45;Kanay&#45;komunikacji#Mumble</title>
<path fill="none" stroke="#c60077" d="M100.86,-444.4C209.02,-444.4 490.13,-444.4 490.13,-444.4 490.13,-444.4 490.13,-393.1 490.13,-371.45"/>
</g>
<!-- kszmigiel -->
<g id="node28" class="node">
<title>kszmigiel</title>
<ellipse fill="none" stroke="black" cx="59.14" cy="-964" rx="54.69" ry="18"/>
<text text-anchor="middle" x="59.14" y="-960.3" font-family="Times,serif" font-size="14.00">kszmigiel</text>
</g>
<!-- kszmigiel&#45;&#45;Miejsce::Miejsce#Klucze do spejsu -->
<g id="edge35" class="edge">
<title>kszmigiel&#45;&#45;Miejsce::Miejsce#Klucze do spejsu</title>
<path fill="none" stroke="#b6e400" d="M112.91,-967.6C197.99,-967.6 354.13,-967.6 354.13,-967.6 354.13,-967.6 354.13,-715 354.13,-715 354.13,-715 407.04,-715 465.23,-715"/>
</g>
<!-- kszmigiel&#45;&#45;Infrastruktura::Telegram#posty: t.me/hakierspejs_spam -->
<g id="edge36" class="edge">
<title>kszmigiel&#45;&#45;Infrastruktura::Telegram#posty: t.me/hakierspejs_spam</title>
<path fill="none" stroke="#b6e400" d="M102.87,-974.8C180.69,-974.8 335.13,-974.8 335.13,-974.8 335.13,-974.8 335.13,-1110.64 335.13,-1132.92"/>
</g>
<!-- kszmigiel&#45;&#45;Stowarzyszenie#Zarzd -->
<g id="edge37" class="edge">
<title>kszmigiel&#45;&#45;Stowarzyszenie#Zarzd</title>
<path fill="none" stroke="#b6e400" d="M104.13,-974.27C104.13,-989.43 104.13,-1016 104.13,-1016 104.13,-1016 358.2,-1016 508.07,-1016"/>
</g>
<!-- kszmigiel&#45;&#45;Infrastruktura::Telegram#G贸wny: t.me/hakierspejs -->
<g id="edge39" class="edge">
<title>kszmigiel&#45;&#45;Infrastruktura::Telegram#G贸wny: t.me/hakierspejs</title>
<path fill="none" stroke="#b6e400" d="M60.13,-945.51C60.13,-933.86 60.13,-921 60.13,-921 60.13,-921 216.79,-921 363.65,-921"/>
</g>
<!-- kszmigiel&#45;&#45;Marketing&#45;i&#45;media&#45;spoecznociowe# -->
<g id="edge40" class="edge">
<title>kszmigiel&#45;&#45;Marketing&#45;i&#45;media&#45;spoecznociowe#</title>
<path fill="none" stroke="#b6e400" d="M102.83,-953.2C139.91,-953.2 187.13,-953.2 187.13,-953.2 187.13,-953.2 187.13,-333 187.13,-333 187.13,-333 373.14,-333 499.93,-333"/>
</g>
<!-- Marketing&#45;i&#45;media&#45;spoecznociowe#Naklejki -->
<g id="node29" class="node">
<title>Marketing&#45;i&#45;media&#45;spoecznociowe#Naklejki</title>
<ellipse fill="none" stroke="black" cx="615.21" cy="-1093" rx="221.76" ry="18"/>
<text text-anchor="middle" x="615.21" y="-1089.3" font-family="Times,serif" font-size="14.00">Marketing&#45;i&#45;media&#45;spoecznociowe#Naklejki</text>
</g>
<!-- kszmigiel&#45;&#45;Marketing&#45;i&#45;media&#45;spoecznociowe#Naklejki -->
<g id="edge38" class="edge">
<title>kszmigiel&#45;&#45;Marketing&#45;i&#45;media&#45;spoecznociowe#Naklejki</title>
<path fill="none" stroke="#b6e400" d="M95.13,-977.81C95.13,-1011.08 95.13,-1093 95.13,-1093 95.13,-1093 252.06,-1093 393.52,-1093"/>
</g>
<!-- cytP450 -->
<g id="node30" class="node">
<title>cytP450</title>
<ellipse fill="none" stroke="black" cx="59.14" cy="-104" rx="48.99" ry="18"/>
<text text-anchor="middle" x="59.14" y="-100.3" font-family="Times,serif" font-size="14.00">cytP450</text>
</g>
<!-- cytP450&#45;&#45;Kanay&#45;komunikacji# -->
<g id="edge41" class="edge">
<title>cytP450&#45;&#45;Kanay&#45;komunikacji#</title>
<path fill="none" stroke="#00ffff" d="M103.19,-111.71C152.36,-111.71 225.13,-111.71 225.13,-111.71 225.13,-111.71 225.13,-528 225.13,-528 225.13,-528 397.14,-528 512.72,-528"/>
</g>
<!-- cytP450&#45;&#45;Miejsce::Miejsce#Klucze do spejsu -->
<g id="edge42" class="edge">
<title>cytP450&#45;&#45;Miejsce::Miejsce#Klucze do spejsu</title>
<path fill="none" stroke="#00ffff" d="M93.42,-116.86C139.89,-116.86 217.13,-116.86 217.13,-116.86 217.13,-116.86 217.13,-697 217.13,-697 217.13,-697 352.43,-697 465.28,-697"/>
</g>
<!-- cytP450&#45;&#45;Infrastruktura::Domeny#Domeny -->
<g id="edge45" class="edge">
<title>cytP450&#45;&#45;Infrastruktura::Domeny#Domeny</title>
<path fill="none" stroke="#00ffff" d="M107.79,-106.57C158.95,-106.57 232.13,-106.57 232.13,-106.57 232.13,-106.57 232.13,-264 232.13,-264 232.13,-264 378.74,-264 490.57,-264"/>
</g>
<!-- Chciejlista#DIY -->
<g id="node31" class="node">
<title>Chciejlista#DIY</title>
<ellipse fill="none" stroke="black" cx="615.21" cy="-18" rx="83.69" ry="18"/>
<text text-anchor="middle" x="615.21" y="-14.3" font-family="Times,serif" font-size="14.00">Chciejlista#DIY</text>
</g>
<!-- cytP450&#45;&#45;Chciejlista#DIY -->
<g id="edge43" class="edge">
<title>cytP450&#45;&#45;Chciejlista#DIY</title>
<path fill="none" stroke="#00ffff" d="M43.13,-86.6C43.13,-61.47 43.13,-18 43.13,-18 43.13,-18 372.09,-18 531.1,-18"/>
</g>
<!-- Stowarzyszenie#Komisja Rewizyjna -->
<g id="node32" class="node">
<title>Stowarzyszenie#Komisja Rewizyjna</title>
<ellipse fill="none" stroke="black" cx="615.21" cy="-190" rx="178.17" ry="18"/>
<text text-anchor="middle" x="615.21" y="-186.3" font-family="Times,serif" font-size="14.00">Stowarzyszenie#Komisja Rewizyjna</text>
</g>
<!-- cytP450&#45;&#45;Stowarzyszenie#Komisja Rewizyjna -->
<g id="edge44" class="edge">
<title>cytP450&#45;&#45;Stowarzyszenie#Komisja Rewizyjna</title>
<path fill="none" stroke="#00ffff" d="M107.64,-101.43C161.25,-101.43 240.13,-101.43 240.13,-101.43 240.13,-101.43 240.13,-179.2 240.13,-179.2 240.13,-179.2 366.55,-179.2 472.6,-179.2"/>
</g>
<!-- Chciejlista#Elektronika (w sensie urzdze konsumenckich) -->
<g id="node33" class="node">
<title>Chciejlista#Elektronika (w sensie urzdze konsumenckich)</title>
<ellipse fill="none" stroke="black" cx="615.21" cy="-147" rx="289.75" ry="18"/>
<text text-anchor="middle" x="615.21" y="-143.3" font-family="Times,serif" font-size="14.00">Chciejlista#Elektronika (w sensie urzdze konsumenckich)</text>
</g>
<!-- cytP450&#45;&#45;Chciejlista#Elektronika (w sensie urzdze konsumenckich) -->
<g id="edge46" class="edge">
<title>cytP450&#45;&#45;Chciejlista#Elektronika (w sensie urzdze konsumenckich)</title>
<path fill="none" stroke="#00ffff" d="M103.62,-96.29C161.44,-96.29 255.13,-96.29 255.13,-96.29 255.13,-96.29 255.13,-147 255.13,-147 255.13,-147 283.81,-147 324.98,-147"/>
</g>
<!-- Przegld&#45;lokali&#45;na&#45;wynajem&#45;w&#45;odzi.&#45;Fundusz&#45;1000&#45;&#45;&#45;1500.#Bot Aleksego -->
<g id="node34" class="node">
<title>Przegld&#45;lokali&#45;na&#45;wynajem&#45;w&#45;odzi.&#45;Fundusz&#45;1000&#45;&#45;&#45;1500.#Bot Aleksego</title>
<ellipse fill="none" stroke="black" cx="615.21" cy="-104" rx="351.74" ry="18"/>
<text text-anchor="middle" x="615.21" y="-100.3" font-family="Times,serif" font-size="14.00">Przegld&#45;lokali&#45;na&#45;wynajem&#45;w&#45;odzi.&#45;Fundusz&#45;1000&#45;&#45;&#45;1500.#Bot Aleksego</text>
</g>
<!-- cytP450&#45;&#45;Przegld&#45;lokali&#45;na&#45;wynajem&#45;w&#45;odzi.&#45;Fundusz&#45;1000&#45;&#45;&#45;1500.#Bot Aleksego -->
<g id="edge47" class="edge">
<title>cytP450&#45;&#45;Przegld&#45;lokali&#45;na&#45;wynajem&#45;w&#45;odzi.&#45;Fundusz&#45;1000&#45;&#45;&#45;1500.#Bot Aleksego</title>
<path fill="none" stroke="#00ffff" d="M93.51,-91.14C148.74,-91.14 261.92,-91.14 368.79,-91.14"/>
</g>
<!-- Zamek#Zamek -->
<g id="node35" class="node">
<title>Zamek#Zamek</title>
<ellipse fill="none" stroke="black" cx="615.21" cy="-61" rx="81.49" ry="18"/>
<text text-anchor="middle" x="615.21" y="-57.3" font-family="Times,serif" font-size="14.00">Zamek#Zamek</text>
</g>
<!-- cytP450&#45;&#45;Zamek#Zamek -->
<g id="edge48" class="edge">
<title>cytP450&#45;&#45;Zamek#Zamek</title>
<path fill="none" stroke="#00ffff" d="M76.13,-87.01C76.13,-74.99 76.13,-61 76.13,-61 76.13,-61 383.32,-61 533.92,-61"/>
</g>
<!-- Keij0 -->
<g id="node36" class="node">
<title>Keij0</title>
<ellipse fill="none" stroke="black" cx="59.14" cy="-190" rx="34.39" ry="18"/>
<text text-anchor="middle" x="59.14" y="-186.3" font-family="Times,serif" font-size="14.00">Keij0</text>
</g>
<!-- Keij0&#45;&#45;Marketing&#45;i&#45;media&#45;spoecznociowe# -->
<g id="edge50" class="edge">
<title>Keij0&#45;&#45;Marketing&#45;i&#45;media&#45;spoecznociowe#</title>
<path fill="none" stroke="#ab00d5" d="M86.75,-200.8C95.59,-200.8 103.13,-200.8 103.13,-200.8 103.13,-200.8 103.13,-305 103.13,-305 103.13,-305 348.96,-305 499.97,-305"/>
</g>
<!-- Keij0&#45;&#45;Stowarzyszenie#Komisja Rewizyjna -->
<g id="edge49" class="edge">
<title>Keij0&#45;&#45;Stowarzyszenie#Komisja Rewizyjna</title>
<path fill="none" stroke="#ab00d5" d="M93.09,-193.6C160.77,-193.6 316.63,-193.6 440.54,-193.6"/>
</g>
<!-- pzduniak -->
<g id="node37" class="node">
<title>pzduniak</title>
<ellipse fill="none" stroke="black" cx="59.14" cy="-147" rx="52.79" ry="18"/>
<text text-anchor="middle" x="59.14" y="-143.3" font-family="Times,serif" font-size="14.00">pzduniak</text>
</g>
<!-- pzduniak&#45;&#45;Stowarzyszenie#Komisja Rewizyjna -->
<g id="edge51" class="edge">
<title>pzduniak&#45;&#45;Stowarzyszenie#Komisja Rewizyjna</title>
<path fill="none" stroke="#f29100" d="M107.13,-154.6C107.13,-166.05 107.13,-186.4 107.13,-186.4 107.13,-186.4 293.69,-186.4 440.71,-186.4"/>
</g>
<!-- marti -->
<g id="node38" class="node">
<title>marti</title>
<ellipse fill="none" stroke="black" cx="59.14" cy="-835" rx="36.29" ry="18"/>
<text text-anchor="middle" x="59.14" y="-831.3" font-family="Times,serif" font-size="14.00">marti</text>
</g>
<!-- marti&#45;&#45;Infrastruktura::Github#Github -->
<g id="edge52" class="edge">
<title>marti&#45;&#45;Infrastruktura::Github#Github</title>
<path fill="none" stroke="#00c64f" d="M95.2,-838.6C168.42,-838.6 338.25,-838.6 464.01,-838.6"/>
</g>
<!-- marti&#45;&#45;Infrastruktura::Telegram#G贸wny: t.me/hakierspejs -->
<g id="edge53" class="edge">
<title>marti&#45;&#45;Infrastruktura::Telegram#G贸wny: t.me/hakierspejs</title>
<path fill="none" stroke="#00c64f" d="M88.4,-845.8C169.66,-845.8 392.13,-845.8 392.13,-845.8 392.13,-845.8 392.13,-893.09 392.13,-912.66"/>
</g>
<!-- marti&#45;&#45;Marketing&#45;i&#45;media&#45;spoecznociowe# -->
<g id="edge54" class="edge">
<title>marti&#45;&#45;Marketing&#45;i&#45;media&#45;spoecznociowe#</title>
<path fill="none" stroke="#00c64f" d="M88.53,-824.2C122.01,-824.2 172.13,-824.2 172.13,-824.2 172.13,-824.2 172.13,-325 172.13,-325 172.13,-325 317.97,-325 442.32,-325"/>
</g>
<!-- biniu -->
<g id="node39" class="node">
<title>biniu</title>
<ellipse fill="none" stroke="black" cx="59.14" cy="-319" rx="34.39" ry="18"/>
<text text-anchor="middle" x="59.14" y="-315.3" font-family="Times,serif" font-size="14.00">biniu</text>
</g>
<!-- biniu&#45;&#45;Marketing&#45;i&#45;media&#45;spoecznociowe# -->
<g id="edge55" class="edge">
<title>biniu&#45;&#45;Marketing&#45;i&#45;media&#45;spoecznociowe#</title>
<path fill="none" stroke="#2e00e4" d="M91.85,-313C159.13,-313 317.21,-313 442.14,-313"/>
</g>
<!-- nikolaad -->
<g id="node40" class="node">
<title>nikolaad</title>
<ellipse fill="none" stroke="black" cx="59.14" cy="-405" rx="50.09" ry="18"/>
<text text-anchor="middle" x="59.14" y="-401.3" font-family="Times,serif" font-size="14.00">nikolaad</text>
</g>
<!-- nikolaad&#45;&#45;Marketing&#45;i&#45;media&#45;spoecznociowe# -->
<g id="edge56" class="edge">
<title>nikolaad&#45;&#45;Marketing&#45;i&#45;media&#45;spoecznociowe#</title>
<path fill="none" stroke="#ff0000" d="M105.13,-397.8C105.13,-376.78 105.13,-317 105.13,-317 105.13,-317 286.43,-317 432.86,-317"/>
</g>
<!-- SP7Q -->
<g id="node41" class="node">
<title>SP7Q</title>
<ellipse fill="none" stroke="black" cx="59.14" cy="-362" rx="36.29" ry="18"/>
<text text-anchor="middle" x="59.14" y="-358.3" font-family="Times,serif" font-size="14.00">SP7Q</text>
</g>
<!-- SP7Q&#45;&#45;Marketing&#45;i&#45;media&#45;spoecznociowe# -->
<g id="edge57" class="edge">
<title>SP7Q&#45;&#45;Marketing&#45;i&#45;media&#45;spoecznociowe#</title>
<path fill="none" stroke="#2bd500" d="M95.71,-362C191.81,-362 444.13,-362 444.13,-362 444.13,-362 444.13,-337.81 444.13,-325.72"/>
</g>
<!-- kujaw -->
<g id="node42" class="node">
<title>kujaw</title>
<ellipse fill="none" stroke="black" cx="59.14" cy="-233" rx="38.19" ry="18"/>
<text text-anchor="middle" x="59.14" y="-229.3" font-family="Times,serif" font-size="14.00">kujaw</text>
</g>
<!-- kujaw&#45;&#45;Marketing&#45;i&#45;media&#45;spoecznociowe# -->
<g id="edge59" class="edge">
<title>kujaw&#45;&#45;Marketing&#45;i&#45;media&#45;spoecznociowe#</title>
<path fill="none" stroke="#0061f2" d="M95.43,-227C98.3,-227 100.13,-227 100.13,-227 100.13,-227 100.13,-309 100.13,-309 100.13,-309 310.87,-309 462.76,-309"/>
</g>
<!-- Marketing&#45;i&#45;media&#45;spoecznociowe#Logo nr 2 -->
<g id="node43" class="node">
<title>Marketing&#45;i&#45;media&#45;spoecznociowe#Logo nr 2</title>
<ellipse fill="none" stroke="black" cx="615.21" cy="-233" rx="227.46" ry="18"/>
<text text-anchor="middle" x="615.21" y="-229.3" font-family="Times,serif" font-size="14.00">Marketing&#45;i&#45;media&#45;spoecznociowe#Logo nr 2</text>
</g>
<!-- kujaw&#45;&#45;Marketing&#45;i&#45;media&#45;spoecznociowe#Logo nr 2 -->
<g id="edge58" class="edge">
<title>kujaw&#45;&#45;Marketing&#45;i&#45;media&#45;spoecznociowe#Logo nr 2</title>
<path fill="none" stroke="#0061f2" d="M95.63,-239C157.24,-239 286.37,-239 400.47,-239"/>
</g>
<!-- q3k -->
<g id="node44" class="node">
<title>q3k</title>
<ellipse fill="none" stroke="black" cx="59.14" cy="-276" rx="27.9" ry="18"/>
<text text-anchor="middle" x="59.14" y="-272.3" font-family="Times,serif" font-size="14.00">q3k</text>
</g>
<!-- q3k&#45;&#45;Kanay&#45;komunikacji# -->
<g id="edge61" class="edge">
<title>q3k&#45;&#45;Kanay&#45;komunikacji#</title>
<path fill="none" stroke="#c60077" d="M80.12,-288C139.6,-288 305.13,-288 305.13,-288 305.13,-288 305.13,-522 305.13,-522 305.13,-522 442.27,-522 534.14,-522"/>
</g>
<!-- q3k&#45;&#45;Infrastruktura::Domeny#Domeny -->
<g id="edge62" class="edge">
<title>q3k&#45;&#45;Infrastruktura::Domeny#Domeny</title>
<path fill="none" stroke="#c60077" d="M87.1,-276C152.4,-276 319.18,-276 448,-276"/>
</g>
<!-- q3k&#45;&#45;Marketing&#45;i&#45;media&#45;spoecznociowe#Logo nr 2 -->
<g id="edge60" class="edge">
<title>q3k&#45;&#45;Marketing&#45;i&#45;media&#45;spoecznociowe#Logo nr 2</title>
<path fill="none" stroke="#c60077" d="M85.53,-270C167.15,-270 410.13,-270 410.13,-270 410.13,-270 410.13,-251.71 410.13,-240.85"/>
</g>
<!-- kpc -->
<g id="node45" class="node">
<title>kpc</title>
<ellipse fill="none" stroke="black" cx="59.14" cy="-1179" rx="27" ry="18"/>
<text text-anchor="middle" x="59.14" y="-1175.3" font-family="Times,serif" font-size="14.00">kpc</text>
</g>
<!-- kpc&#45;&#45;Infrastruktura::Telegram#posty: t.me/hakierspejs_spam -->
<g id="edge64" class="edge">
<title>kpc&#45;&#45;Infrastruktura::Telegram#posty: t.me/hakierspejs_spam</title>
<path fill="none" stroke="#b6e400" d="M60.13,-1160.51C60.13,-1148.86 60.13,-1136 60.13,-1136 60.13,-1136 194.59,-1136 331.16,-1136"/>
</g>
<!-- Infrastruktura::Telegram#Posty wyklte (celowo bez linka) -->
<g id="node46" class="node">
<title>Infrastruktura::Telegram#Posty wyklte (celowo bez linka)</title>
<ellipse fill="none" stroke="black" cx="615.21" cy="-1179" rx="284.05" ry="18"/>
<text text-anchor="middle" x="615.21" y="-1175.3" font-family="Times,serif" font-size="14.00">Infrastruktura::Telegram#Posty wyklte (celowo bez linka)</text>
</g>
<!-- kpc&#45;&#45;Infrastruktura::Telegram#Posty wyklte (celowo bez linka) -->
<g id="edge63" class="edge">
<title>kpc&#45;&#45;Infrastruktura::Telegram#Posty wyklte (celowo bez linka)</title>
<path fill="none" stroke="#b6e400" d="M84.85,-1173C132.91,-1173 241.15,-1173 347.4,-1173"/>
</g>
<!-- Czaty&#45;HS#HS: posty wyklte -->
<g id="node47" class="node">
<title>Czaty&#45;HS#HS: posty wyklte</title>
<ellipse fill="none" stroke="black" cx="615.21" cy="-1222" rx="157.87" ry="18"/>
<text text-anchor="middle" x="615.21" y="-1218.3" font-family="Times,serif" font-size="14.00">Czaty&#45;HS#HS: posty wyklte</text>
</g>
<!-- kpc&#45;&#45;Czaty&#45;HS#HS: posty wyklte -->
<g id="edge65" class="edge">
<title>kpc&#45;&#45;Czaty&#45;HS#HS: posty wyklte</title>
<path fill="none" stroke="#b6e400" d="M84.63,-1185C136.22,-1185 248.13,-1185 248.13,-1185 248.13,-1185 248.13,-1222 248.13,-1222 248.13,-1222 357.71,-1222 457.14,-1222"/>
</g>
</g>
</svg>
