<?xml version="1.0" encoding="UTF-8" standalone="no"?>
<!DOCTYPE svg PUBLIC "-//W3C//DTD SVG 1.1//EN"
 "http://www.w3.org/Graphics/SVG/1.1/DTD/svg11.dtd">
<!-- Generated by graphviz version 2.43.0 (0)
 -->
<!-- Title: %3 Pages: 1 -->
<svg width="1001pt" height="1462pt"
 viewBox="0.00 0.00 1000.82 1462.00" xmlns="http://www.w3.org/2000/svg" xmlns:xlink="http://www.w3.org/1999/xlink">
<g id="graph0" class="graph" transform="scale(1 1) rotate(0) translate(4 1458)">
<title>%3</title>
<polygon fill="white" stroke="transparent" points="-4,4 -4,-1458 996.82,-1458 996.82,4 -4,4"/>
<!-- cytP450 -->
<g id="node1" class="node">
<title>cytP450</title>
<ellipse fill="none" stroke="black" cx="71.49" cy="-1114" rx="48.99" ry="18"/>
<text text-anchor="middle" x="71.49" y="-1110.3" font-family="Times,serif" font-size="14.00">cytP450</text>
</g>
<!-- Miejsce::Miejsce#Klucze do spejsu -->
<g id="node2" class="node">
<title>Miejsce::Miejsce#Klucze do spejsu</title>
<ellipse fill="none" stroke="black" cx="639.91" cy="-1243" rx="172.77" ry="18"/>
<text text-anchor="middle" x="639.91" y="-1239.3" font-family="Times,serif" font-size="14.00">Miejsce::Miejsce#Klucze do spejsu</text>
</g>
<!-- cytP450&#45;&#45;Miejsce::Miejsce#Klucze do spejsu -->
<g id="edge1" class="edge">
<title>cytP450&#45;&#45;Miejsce::Miejsce#Klucze do spejsu</title>
<path fill="none" stroke="#ff0000" d="M104.13,-1127.5C169.41,-1127.5 309.82,-1127.5 309.82,-1127.5 309.82,-1127.5 309.82,-1227 309.82,-1227 309.82,-1227 462.75,-1227 560.42,-1227"/>
</g>
<!-- Przegld&#45;lokali&#45;na&#45;wynajem&#45;w&#45;odzi.&#45;Fundusz&#45;1000&#45;&#45;&#45;1500.#Bot Aleksego -->
<g id="node3" class="node">
<title>Przegld&#45;lokali&#45;na&#45;wynajem&#45;w&#45;odzi.&#45;Fundusz&#45;1000&#45;&#45;&#45;1500.#Bot Aleksego</title>
<ellipse fill="none" stroke="black" cx="639.91" cy="-1071" rx="351.74" ry="18"/>
<text text-anchor="middle" x="639.91" y="-1067.3" font-family="Times,serif" font-size="14.00">Przegld&#45;lokali&#45;na&#45;wynajem&#45;w&#45;odzi.&#45;Fundusz&#45;1000&#45;&#45;&#45;1500.#Bot Aleksego</text>
</g>
<!-- cytP450&#45;&#45;Przegld&#45;lokali&#45;na&#45;wynajem&#45;w&#45;odzi.&#45;Fundusz&#45;1000&#45;&#45;&#45;1500.#Bot Aleksego -->
<g id="edge2" class="edge">
<title>cytP450&#45;&#45;Przegld&#45;lokali&#45;na&#45;wynajem&#45;w&#45;odzi.&#45;Fundusz&#45;1000&#45;&#45;&#45;1500.#Bot Aleksego</title>
<path fill="none" stroke="#ff0000" d="M120.39,-1114C195.28,-1114 329.82,-1114 329.82,-1114 329.82,-1114 329.82,-1092.27 329.82,-1079.7"/>
</g>
<!-- Chciejlista#Elektronika (w sensie urzdze konsumenckich) -->
<g id="node4" class="node">
<title>Chciejlista#Elektronika (w sensie urzdze konsumenckich)</title>
<ellipse fill="none" stroke="black" cx="639.91" cy="-1200" rx="289.75" ry="18"/>
<text text-anchor="middle" x="639.91" y="-1196.3" font-family="Times,serif" font-size="14.00">Chciejlista#Elektronika (w sensie urzdze konsumenckich)</text>
</g>
<!-- cytP450&#45;&#45;Chciejlista#Elektronika (w sensie urzdze konsumenckich) -->
<g id="edge3" class="edge">
<title>cytP450&#45;&#45;Chciejlista#Elektronika (w sensie urzdze konsumenckich)</title>
<path fill="none" stroke="#ff0000" d="M113.87,-1123C213.42,-1123 453.82,-1123 453.82,-1123 453.82,-1123 453.82,-1163.65 453.82,-1185.88"/>
</g>
<!-- Kanay&#45;komunikacji# -->
<g id="node5" class="node">
<title>Kanay&#45;komunikacji#</title>
<ellipse fill="none" stroke="black" cx="639.91" cy="-856" rx="108.58" ry="18"/>
<text text-anchor="middle" x="639.91" y="-852.3" font-family="Times,serif" font-size="14.00">Kanay&#45;komunikacji#</text>
</g>
<!-- cytP450&#45;&#45;Kanay&#45;komunikacji# -->
<g id="edge4" class="edge">
<title>cytP450&#45;&#45;Kanay&#45;komunikacji#</title>
<path fill="none" stroke="#ff0000" d="M113.84,-1105C151.56,-1105 200.82,-1105 200.82,-1105 200.82,-1105 200.82,-865 200.82,-865 200.82,-865 416.7,-865 545.71,-865"/>
</g>
<!-- Zamek#Zamek -->
<g id="node6" class="node">
<title>Zamek#Zamek</title>
<ellipse fill="none" stroke="black" cx="639.91" cy="-1157" rx="81.49" ry="18"/>
<text text-anchor="middle" x="639.91" y="-1153.3" font-family="Times,serif" font-size="14.00">Zamek#Zamek</text>
</g>
<!-- cytP450&#45;&#45;Zamek#Zamek -->
<g id="edge5" class="edge">
<title>cytP450&#45;&#45;Zamek#Zamek</title>
<path fill="none" stroke="#ff0000" d="M71.82,-1132.17C71.82,-1140.9 71.82,-1149.5 71.82,-1149.5 71.82,-1149.5 412.08,-1149.5 565.93,-1149.5"/>
</g>
<!-- Stowarzyszenie#Komisja Rewizyjna -->
<g id="node7" class="node">
<title>Stowarzyszenie#Komisja Rewizyjna</title>
<ellipse fill="none" stroke="black" cx="639.91" cy="-1028" rx="178.17" ry="18"/>
<text text-anchor="middle" x="639.91" y="-1024.3" font-family="Times,serif" font-size="14.00">Stowarzyszenie#Komisja Rewizyjna</text>
</g>
<!-- cytP450&#45;&#45;Stowarzyszenie#Komisja Rewizyjna -->
<g id="edge6" class="edge">
<title>cytP450&#45;&#45;Stowarzyszenie#Komisja Rewizyjna</title>
<path fill="none" stroke="#ff0000" d="M103.78,-1100.5C122.27,-1100.5 141.82,-1100.5 141.82,-1100.5 141.82,-1100.5 141.82,-1040 141.82,-1040 141.82,-1040 359.53,-1040 507.08,-1040"/>
</g>
<!-- Infrastruktura::Domeny#Domeny -->
<g id="node8" class="node">
<title>Infrastruktura::Domeny#Domeny</title>
<ellipse fill="none" stroke="black" cx="639.91" cy="-985" rx="167.07" ry="18"/>
<text text-anchor="middle" x="639.91" y="-981.3" font-family="Times,serif" font-size="14.00">Infrastruktura::Domeny#Domeny</text>
</g>
<!-- cytP450&#45;&#45;Infrastruktura::Domeny#Domeny -->
<g id="edge7" class="edge">
<title>cytP450&#45;&#45;Infrastruktura::Domeny#Domeny</title>
<path fill="none" stroke="#ff0000" d="M118.7,-1109.5C178.2,-1109.5 272.82,-1109.5 272.82,-1109.5 272.82,-1109.5 272.82,-994 272.82,-994 272.82,-994 392.42,-994 495.09,-994"/>
</g>
<!-- Chciejlista#DIY -->
<g id="node9" class="node">
<title>Chciejlista#DIY</title>
<ellipse fill="none" stroke="black" cx="639.91" cy="-1114" rx="83.69" ry="18"/>
<text text-anchor="middle" x="639.91" y="-1110.3" font-family="Times,serif" font-size="14.00">Chciejlista#DIY</text>
</g>
<!-- cytP450&#45;&#45;Chciejlista#DIY -->
<g id="edge8" class="edge">
<title>cytP450&#45;&#45;Chciejlista#DIY</title>
<path fill="none" stroke="#ff0000" d="M118.98,-1118.5C215.97,-1118.5 437.81,-1118.5 558.34,-1118.5"/>
</g>
<!-- d33tah -->
<g id="node10" class="node">
<title>d33tah</title>
<ellipse fill="none" stroke="black" cx="71.49" cy="-705" rx="43.59" ry="18"/>
<text text-anchor="middle" x="71.49" y="-701.3" font-family="Times,serif" font-size="14.00">d33tah</text>
</g>
<!-- d33tah&#45;&#45;Miejsce::Miejsce#Klucze do spejsu -->
<g id="edge14" class="edge">
<title>d33tah&#45;&#45;Miejsce::Miejsce#Klucze do spejsu</title>
<path fill="none" stroke="#2bd500" d="M106.1,-716C120.01,-716 132.82,-716 132.82,-716 132.82,-716 132.82,-1233 132.82,-1233 132.82,-1233 346.04,-1233 495.95,-1233"/>
</g>
<!-- d33tah&#45;&#45;Kanay&#45;komunikacji# -->
<g id="edge16" class="edge">
<title>d33tah&#45;&#45;Kanay&#45;komunikacji#</title>
<path fill="none" stroke="#2bd500" d="M105.82,-716.35C105.82,-751.47 105.82,-856 105.82,-856 105.82,-856 375.03,-856 531.18,-856"/>
</g>
<!-- d33tah&#45;&#45;Infrastruktura::Domeny#Domeny -->
<g id="edge22" class="edge">
<title>d33tah&#45;&#45;Infrastruktura::Domeny#Domeny</title>
<path fill="none" stroke="#2bd500" d="M97.37,-719.5C108.42,-719.5 118.82,-719.5 118.82,-719.5 118.82,-719.5 118.82,-976 118.82,-976 118.82,-976 340.9,-976 495.1,-976"/>
</g>
<!-- Infrastruktura::Mariuszbot#Mariuszbot -->
<g id="node11" class="node">
<title>Infrastruktura::Mariuszbot#Mariuszbot</title>
<ellipse fill="none" stroke="black" cx="639.91" cy="-770" rx="196.07" ry="18"/>
<text text-anchor="middle" x="639.91" y="-766.3" font-family="Times,serif" font-size="14.00">Infrastruktura::Mariuszbot#Mariuszbot</text>
</g>
<!-- d33tah&#45;&#45;Infrastruktura::Mariuszbot#Mariuszbot -->
<g id="edge9" class="edge">
<title>d33tah&#45;&#45;Infrastruktura::Mariuszbot#Mariuszbot</title>
<path fill="none" stroke="#2bd500" d="M109.82,-713.77C109.82,-731.51 109.82,-770 109.82,-770 109.82,-770 292.42,-770 443.28,-770"/>
</g>
<!-- Bazy&#45;danych#Trello -->
<g id="node12" class="node">
<title>Bazy&#45;danych#Trello</title>
<ellipse fill="none" stroke="black" cx="639.91" cy="-727" rx="103.98" ry="18"/>
<text text-anchor="middle" x="639.91" y="-723.3" font-family="Times,serif" font-size="14.00">Bazy&#45;danych#Trello</text>
</g>
<!-- d33tah&#45;&#45;Bazy&#45;danych#Trello -->
<g id="edge10" class="edge">
<title>d33tah&#45;&#45;Bazy&#45;danych#Trello</title>
<path fill="none" stroke="#2bd500" d="M111.46,-712.5C209.26,-712.5 461.13,-712.5 578.28,-712.5"/>
</g>
<!-- Bazy&#45;danych#Pad -->
<g id="node13" class="node">
<title>Bazy&#45;danych#Pad</title>
<ellipse fill="none" stroke="black" cx="639.91" cy="-684" rx="94.48" ry="18"/>
<text text-anchor="middle" x="639.91" y="-680.3" font-family="Times,serif" font-size="14.00">Bazy&#45;danych#Pad</text>
</g>
<!-- d33tah&#45;&#45;Bazy&#45;danych#Pad -->
<g id="edge11" class="edge">
<title>d33tah&#45;&#45;Bazy&#45;danych#Pad</title>
<path fill="none" stroke="#2bd500" d="M113.75,-700.12C219.11,-700.12 492.51,-700.12 597.76,-700.12"/>
</g>
<!-- Infrastruktura::Telegram#posty: t.me/hakierspejs_spam -->
<g id="node14" class="node">
<title>Infrastruktura::Telegram#posty: t.me/hakierspejs_spam</title>
<ellipse fill="none" stroke="black" cx="639.91" cy="-340" rx="284.05" ry="18"/>
<text text-anchor="middle" x="639.91" y="-336.3" font-family="Times,serif" font-size="14.00">Infrastruktura::Telegram#posty: t.me/hakierspejs_spam</text>
</g>
<!-- d33tah&#45;&#45;Infrastruktura::Telegram#posty: t.me/hakierspejs_spam -->
<g id="edge12" class="edge">
<title>d33tah&#45;&#45;Infrastruktura::Telegram#posty: t.me/hakierspejs_spam</title>
<path fill="none" stroke="#2bd500" d="M106.95,-694.5C186.6,-694.5 372.82,-694.5 372.82,-694.5 372.82,-694.5 372.82,-393.23 372.82,-346.15"/>
</g>
<!-- Marketing&#45;i&#45;media&#45;spoecznociowe# -->
<g id="node15" class="node">
<title>Marketing&#45;i&#45;media&#45;spoecznociowe#</title>
<ellipse fill="none" stroke="black" cx="639.91" cy="-125" rx="183.07" ry="18"/>
<text text-anchor="middle" x="639.91" y="-121.3" font-family="Times,serif" font-size="14.00">Marketing&#45;i&#45;media&#45;spoecznociowe#</text>
</g>
<!-- d33tah&#45;&#45;Marketing&#45;i&#45;media&#45;spoecznociowe# -->
<g id="edge13" class="edge">
<title>d33tah&#45;&#45;Marketing&#45;i&#45;media&#45;spoecznociowe#</title>
<path fill="none" stroke="#2bd500" d="M98.24,-690.75C132.31,-690.75 186.82,-690.75 186.82,-690.75 186.82,-690.75 186.82,-125.5 186.82,-125.5 186.82,-125.5 330.93,-125.5 456.6,-125.5"/>
</g>
<!-- Stowarzyszenie#Zarzd -->
<g id="node16" class="node">
<title>Stowarzyszenie#Zarzd</title>
<ellipse fill="none" stroke="black" cx="639.91" cy="-82" rx="123.48" ry="18"/>
<text text-anchor="middle" x="639.91" y="-78.3" font-family="Times,serif" font-size="14.00">Stowarzyszenie#Zarzd</text>
</g>
<!-- d33tah&#45;&#45;Stowarzyszenie#Zarzd -->
<g id="edge15" class="edge">
<title>d33tah&#45;&#45;Stowarzyszenie#Zarzd</title>
<path fill="none" stroke="#2bd500" d="M115.34,-705.5C124.7,-705.5 131.82,-705.5 131.82,-705.5 131.82,-705.5 131.82,-96.5 131.82,-96.5 131.82,-96.5 425.87,-96.5 566.57,-96.5"/>
</g>
<!-- Infrastruktura::Telegram#HS24: t.me/hsl_info -->
<g id="node17" class="node">
<title>Infrastruktura::Telegram#HS24: t.me/hsl_info</title>
<ellipse fill="none" stroke="black" cx="639.91" cy="-942" rx="231.26" ry="18"/>
<text text-anchor="middle" x="639.91" y="-938.3" font-family="Times,serif" font-size="14.00">Infrastruktura::Telegram#HS24: t.me/hsl_info</text>
</g>
<!-- d33tah&#45;&#45;Infrastruktura::Telegram#HS24: t.me/hsl_info -->
<g id="edge17" class="edge">
<title>d33tah&#45;&#45;Infrastruktura::Telegram#HS24: t.me/hsl_info</title>
<path fill="none" stroke="#2bd500" d="M101.82,-718.08C101.82,-767.76 101.82,-942 101.82,-942 101.82,-942 262.46,-942 408.2,-942"/>
</g>
<!-- Infrastruktura::Telegram#Spacerspejs: t.me/joinchat/UYf2ONtNj21J1DS6 -->
<g id="node18" class="node">
<title>Infrastruktura::Telegram#Spacerspejs: t.me/joinchat/UYf2ONtNj21J1DS6</title>
<ellipse fill="none" stroke="black" cx="639.91" cy="-899" rx="352.84" ry="18"/>
<text text-anchor="middle" x="639.91" y="-895.3" font-family="Times,serif" font-size="14.00">Infrastruktura::Telegram#Spacerspejs: t.me/joinchat/UYf2ONtNj21J1DS6</text>
</g>
<!-- d33tah&#45;&#45;Infrastruktura::Telegram#Spacerspejs: t.me/joinchat/UYf2ONtNj21J1DS6 -->
<g id="edge18" class="edge">
<title>d33tah&#45;&#45;Infrastruktura::Telegram#Spacerspejs: t.me/joinchat/UYf2ONtNj21J1DS6</title>
<path fill="none" stroke="#2bd500" d="M103.82,-717.14C103.82,-759.61 103.82,-899 103.82,-899 103.82,-899 186.44,-899 286.81,-899"/>
</g>
<!-- Infrastruktura::IRC#IRC -->
<g id="node19" class="node">
<title>Infrastruktura::IRC#IRC</title>
<ellipse fill="none" stroke="black" cx="639.91" cy="-598" rx="124.58" ry="18"/>
<text text-anchor="middle" x="639.91" y="-594.3" font-family="Times,serif" font-size="14.00">Infrastruktura::IRC#IRC</text>
</g>
<!-- d33tah&#45;&#45;Infrastruktura::IRC#IRC -->
<g id="edge19" class="edge">
<title>d33tah&#45;&#45;Infrastruktura::IRC#IRC</title>
<path fill="none" stroke="#2bd500" d="M109.8,-696.38C218.46,-696.38 520.82,-696.38 520.82,-696.38 520.82,-696.38 520.82,-624.38 520.82,-603.57"/>
</g>
<!-- Infrastruktura::Telegram#G贸wny: t.me/hakierspejs -->
<g id="node20" class="node">
<title>Infrastruktura::Telegram#G贸wny: t.me/hakierspejs</title>
<ellipse fill="none" stroke="black" cx="639.91" cy="-426" rx="251.56" ry="18"/>
<text text-anchor="middle" x="639.91" y="-422.3" font-family="Times,serif" font-size="14.00">Infrastruktura::Telegram#G贸wny: t.me/hakierspejs</text>
</g>
<!-- d33tah&#45;&#45;Infrastruktura::Telegram#G贸wny: t.me/hakierspejs -->
<g id="edge20" class="edge">
<title>d33tah&#45;&#45;Infrastruktura::Telegram#G贸wny: t.me/hakierspejs</title>
<path fill="none" stroke="#2bd500" d="M91.18,-688.88C111.67,-688.88 140.82,-688.88 140.82,-688.88 140.82,-688.88 140.82,-441 140.82,-441 140.82,-441 352.89,-441 500.55,-441"/>
</g>
<!-- Bazy&#45;danych#Grafana -->
<g id="node21" class="node">
<title>Bazy&#45;danych#Grafana</title>
<ellipse fill="none" stroke="black" cx="639.91" cy="-641" rx="114.28" ry="18"/>
<text text-anchor="middle" x="639.91" y="-637.3" font-family="Times,serif" font-size="14.00">Bazy&#45;danych#Grafana</text>
</g>
<!-- d33tah&#45;&#45;Bazy&#45;danych#Grafana -->
<g id="edge21" class="edge">
<title>d33tah&#45;&#45;Bazy&#45;danych#Grafana</title>
<path fill="none" stroke="#2bd500" d="M112.26,-698.25C224.67,-698.25 530.82,-698.25 530.82,-698.25 530.82,-698.25 530.82,-661.18 530.82,-646.7"/>
</g>
<!-- Infrastruktura::Github#Github -->
<g id="node22" class="node">
<title>Infrastruktura::Github#Github</title>
<ellipse fill="none" stroke="black" cx="639.91" cy="-297" rx="154.07" ry="18"/>
<text text-anchor="middle" x="639.91" y="-293.3" font-family="Times,serif" font-size="14.00">Infrastruktura::Github#Github</text>
</g>
<!-- d33tah&#45;&#45;Infrastruktura::Github#Github -->
<g id="edge23" class="edge">
<title>d33tah&#45;&#45;Infrastruktura::Github#Github</title>
<path fill="none" stroke="#2bd500" d="M103.27,-692.62C156.72,-692.62 258.82,-692.62 258.82,-692.62 258.82,-692.62 258.82,-309 258.82,-309 258.82,-309 412.85,-309 525.05,-309"/>
</g>
<!-- Drzwi&#45;frontowe#Ekran  -->
<g id="node23" class="node">
<title>Drzwi&#45;frontowe#Ekran </title>
<ellipse fill="none" stroke="black" cx="639.91" cy="-813" rx="120.78" ry="18"/>
<text text-anchor="middle" x="639.91" y="-809.3" font-family="Times,serif" font-size="14.00">Drzwi&#45;frontowe#Ekran </text>
</g>
<!-- d33tah&#45;&#45;Drzwi&#45;frontowe#Ekran  -->
<g id="edge24" class="edge">
<title>d33tah&#45;&#45;Drzwi&#45;frontowe#Ekran </title>
<path fill="none" stroke="black" d="M107.82,-714.97C107.82,-741.7 107.82,-813 107.82,-813 107.82,-813 361.82,-813 518.84,-813"/>
</g>
<!-- nastpne -->
<g id="node24" class="node">
<title>nastpne</title>
<ellipse fill="none" stroke="black" cx="71.49" cy="-1350" rx="53.09" ry="18"/>
<text text-anchor="middle" x="71.49" y="-1346.3" font-family="Times,serif" font-size="14.00">nastpne</text>
</g>
<!-- spotkanie -->
<g id="node25" class="node">
<title>spotkanie</title>
<ellipse fill="none" stroke="black" cx="71.49" cy="-1393" rx="55.79" ry="18"/>
<text text-anchor="middle" x="71.49" y="-1389.3" font-family="Times,serif" font-size="14.00">spotkanie</text>
</g>
<g id="node26" class="node">
<title></title>
<ellipse fill="none" stroke="#2bd500" cx="71.49" cy="-1436" rx="27" ry="18"/>
</g>
<!-- kujaw -->
<g id="node27" class="node">
<title>kujaw</title>
<ellipse fill="none" stroke="black" cx="71.49" cy="-233" rx="38.19" ry="18"/>
<text text-anchor="middle" x="71.49" y="-229.3" font-family="Times,serif" font-size="14.00">kujaw</text>
</g>
<!-- kujaw&#45;&#45;Miejsce::Miejsce#Klucze do spejsu -->
<g id="edge27" class="edge">
<title>kujaw&#45;&#45;Miejsce::Miejsce#Klucze do spejsu</title>
<path fill="none" stroke="#0061f2" d="M98.29,-246C115.18,-246 133.82,-246 133.82,-246 133.82,-246 133.82,-1231 133.82,-1231 133.82,-1231 360.95,-1231 510.89,-1231"/>
</g>
<!-- kujaw&#45;&#45;Marketing&#45;i&#45;media&#45;spoecznociowe# -->
<g id="edge26" class="edge">
<title>kujaw&#45;&#45;Marketing&#45;i&#45;media&#45;spoecznociowe#</title>
<path fill="none" stroke="#0061f2" d="M103.96,-223.4C111.22,-223.4 116.82,-223.4 116.82,-223.4 116.82,-223.4 116.82,-135 116.82,-135 116.82,-135 332.81,-135 487.2,-135"/>
</g>
<!-- kujaw&#45;&#45;Stowarzyszenie#Zarzd -->
<g id="edge28" class="edge">
<title>kujaw&#45;&#45;Stowarzyszenie#Zarzd</title>
<path fill="none" stroke="#0061f2" d="M92.16,-217.8C102.49,-217.8 112.82,-217.8 112.82,-217.8 112.82,-217.8 112.82,-93 112.82,-93 112.82,-93 389.57,-93 542,-93"/>
</g>
<!-- Marketing&#45;i&#45;media&#45;spoecznociowe#Logo nr. 2 -->
<g id="node28" class="node">
<title>Marketing&#45;i&#45;media&#45;spoecznociowe#Logo nr. 2</title>
<ellipse fill="none" stroke="black" cx="639.91" cy="-555" rx="229.36" ry="18"/>
<text text-anchor="middle" x="639.91" y="-551.3" font-family="Times,serif" font-size="14.00">Marketing&#45;i&#45;media&#45;spoecznociowe#Logo nr. 2</text>
</g>
<!-- kujaw&#45;&#45;Marketing&#45;i&#45;media&#45;spoecznociowe#Logo nr. 2 -->
<g id="edge25" class="edge">
<title>kujaw&#45;&#45;Marketing&#45;i&#45;media&#45;spoecznociowe#Logo nr. 2</title>
<path fill="none" stroke="#0061f2" d="M106.12,-241C120.91,-241 134.82,-241 134.82,-241 134.82,-241 134.82,-547.5 134.82,-547.5 134.82,-547.5 292.15,-547.5 431.19,-547.5"/>
</g>
<!-- Marketing&#45;i&#45;media&#45;spoecznociowe#Naklejki -->
<g id="node29" class="node">
<title>Marketing&#45;i&#45;media&#45;spoecznociowe#Naklejki</title>
<ellipse fill="none" stroke="black" cx="639.91" cy="-168" rx="221.76" ry="18"/>
<text text-anchor="middle" x="639.91" y="-164.3" font-family="Times,serif" font-size="14.00">Marketing&#45;i&#45;media&#45;spoecznociowe#Naklejki</text>
</g>
<!-- kujaw&#45;&#45;Marketing&#45;i&#45;media&#45;spoecznociowe#Naklejki -->
<g id="edge29" class="edge">
<title>kujaw&#45;&#45;Marketing&#45;i&#45;media&#45;spoecznociowe#Naklejki</title>
<path fill="none" stroke="#0061f2" d="M107.27,-226.2C115.46,-226.2 121.82,-226.2 121.82,-226.2 121.82,-226.2 121.82,-179 121.82,-179 121.82,-179 313.9,-179 464.15,-179"/>
</g>
<!-- SP7Q -->
<g id="node30" class="node">
<title>SP7Q</title>
<ellipse fill="none" stroke="black" cx="71.49" cy="-104" rx="36.29" ry="18"/>
<text text-anchor="middle" x="71.49" y="-100.3" font-family="Times,serif" font-size="14.00">SP7Q</text>
</g>
<!-- SP7Q&#45;&#45;Marketing&#45;i&#45;media&#45;spoecznociowe# -->
<g id="edge30" class="edge">
<title>SP7Q&#45;&#45;Marketing&#45;i&#45;media&#45;spoecznociowe#</title>
<path fill="none" stroke="#c60077" d="M104.51,-112C182.35,-112 380.7,-112 512.88,-112"/>
</g>
<!-- SP7Q&#45;&#45;Stowarzyszenie#Zarzd -->
<g id="edge31" class="edge">
<title>SP7Q&#45;&#45;Stowarzyszenie#Zarzd</title>
<path fill="none" stroke="#c60077" d="M93.08,-89.5C163.35,-89.5 388.95,-89.5 527.46,-89.5"/>
</g>
<!-- SP7Q&#45;&#45;Infrastruktura::Github#Github -->
<g id="edge32" class="edge">
<title>SP7Q&#45;&#45;Infrastruktura::Github#Github</title>
<path fill="none" stroke="#c60077" d="M96.92,-117C114.9,-117 135.82,-117 135.82,-117 135.82,-117 135.82,-285 135.82,-285 135.82,-285 376.12,-285 524.89,-285"/>
</g>
<!-- Polimerek -->
<g id="node31" class="node">
<title>Polimerek</title>
<ellipse fill="none" stroke="black" cx="71.49" cy="-61" rx="57.39" ry="18"/>
<text text-anchor="middle" x="71.49" y="-57.3" font-family="Times,serif" font-size="14.00">Polimerek</text>
</g>
<!-- Polimerek&#45;&#45;Stowarzyszenie#Zarzd -->
<g id="edge33" class="edge">
<title>Polimerek&#45;&#45;Stowarzyszenie#Zarzd</title>
<path fill="none" stroke="#b6e400" d="M111.46,-74C197.13,-74 401.02,-74 529.02,-74"/>
</g>
<!-- kasesag -->
<g id="node32" class="node">
<title>kasesag</title>
<ellipse fill="none" stroke="black" cx="71.49" cy="-18" rx="48.19" ry="18"/>
<text text-anchor="middle" x="71.49" y="-14.3" font-family="Times,serif" font-size="14.00">kasesag</text>
</g>
<!-- kasesag&#45;&#45;Stowarzyszenie#Zarzd -->
<g id="edge34" class="edge">
<title>kasesag&#45;&#45;Stowarzyszenie#Zarzd</title>
<path fill="none" stroke="#00ffff" d="M117.07,-24C131.05,-24 142.82,-24 142.82,-24 142.82,-24 142.82,-69 142.82,-69 142.82,-69 412.33,-69 554.45,-69"/>
</g>
<!-- Marketing&#45;i&#45;media&#45;spoecznociowe#Przycisk HS&#45;LDZ -->
<g id="node33" class="node">
<title>Marketing&#45;i&#45;media&#45;spoecznociowe#Przycisk HS&#45;LDZ</title>
<ellipse fill="none" stroke="black" cx="639.91" cy="-18" rx="261.85" ry="18"/>
<text text-anchor="middle" x="639.91" y="-14.3" font-family="Times,serif" font-size="14.00">Marketing&#45;i&#45;media&#45;spoecznociowe#Przycisk HS&#45;LDZ</text>
</g>
<!-- kasesag&#45;&#45;Marketing&#45;i&#45;media&#45;spoecznociowe#Przycisk HS&#45;LDZ -->
<g id="edge35" class="edge">
<title>kasesag&#45;&#45;Marketing&#45;i&#45;media&#45;spoecznociowe#Przycisk HS&#45;LDZ</title>
<path fill="none" stroke="#00ffff" d="M117.05,-12C177.44,-12 288.58,-12 392.91,-12"/>
</g>
<!-- pzduniak -->
<g id="node34" class="node">
<title>pzduniak</title>
<ellipse fill="none" stroke="black" cx="71.49" cy="-1071" rx="52.79" ry="18"/>
<text text-anchor="middle" x="71.49" y="-1067.3" font-family="Times,serif" font-size="14.00">pzduniak</text>
</g>
<!-- pzduniak&#45;&#45;Stowarzyszenie#Komisja Rewizyjna -->
<g id="edge36" class="edge">
<title>pzduniak&#45;&#45;Stowarzyszenie#Komisja Rewizyjna</title>
<path fill="none" stroke="#ab00d5" d="M123.82,-1069.01C123.82,-1061.33 123.82,-1034 123.82,-1034 123.82,-1034 321.34,-1034 471.99,-1034"/>
</g>
<!-- krcz -->
<g id="node35" class="node">
<title>krcz</title>
<ellipse fill="none" stroke="black" cx="71.49" cy="-1028" rx="30.59" ry="18"/>
<text text-anchor="middle" x="71.49" y="-1024.3" font-family="Times,serif" font-size="14.00">krcz</text>
</g>
<!-- krcz&#45;&#45;Stowarzyszenie#Komisja Rewizyjna -->
<g id="edge37" class="edge">
<title>krcz&#45;&#45;Stowarzyszenie#Komisja Rewizyjna</title>
<path fill="none" stroke="#f29100" d="M102.05,-1028C168.87,-1028 332.31,-1028 461.62,-1028"/>
</g>
<!-- kpc -->
<g id="node36" class="node">
<title>kpc</title>
<ellipse fill="none" stroke="black" cx="71.49" cy="-340" rx="27" ry="18"/>
<text text-anchor="middle" x="71.49" y="-336.3" font-family="Times,serif" font-size="14.00">kpc</text>
</g>
<!-- kpc&#45;&#45;Miejsce::Miejsce#Klucze do spejsu -->
<g id="edge41" class="edge">
<title>kpc&#45;&#45;Miejsce::Miejsce#Klucze do spejsu</title>
<path fill="none" stroke="#00c64f" d="M89.38,-353.5C114.67,-353.5 157.82,-353.5 157.82,-353.5 157.82,-353.5 157.82,-1229 157.82,-1229 157.82,-1229 388.93,-1229 531.12,-1229"/>
</g>
<!-- kpc&#45;&#45;Stowarzyszenie#Komisja Rewizyjna -->
<g id="edge43" class="edge">
<title>kpc&#45;&#45;Stowarzyszenie#Komisja Rewizyjna</title>
<path fill="none" stroke="#00c64f" d="M95.02,-349C124.67,-349 171.82,-349 171.82,-349 171.82,-349 171.82,-1016 171.82,-1016 171.82,-1016 368.64,-1016 507.02,-1016"/>
</g>
<!-- kpc&#45;&#45;Infrastruktura::Telegram#posty: t.me/hakierspejs_spam -->
<g id="edge38" class="edge">
<title>kpc&#45;&#45;Infrastruktura::Telegram#posty: t.me/hakierspejs_spam</title>
<path fill="none" stroke="#00c64f" d="M97.77,-344.5C146.68,-344.5 256.56,-344.5 364.7,-344.5"/>
</g>
<!-- kpc&#45;&#45;Marketing&#45;i&#45;media&#45;spoecznociowe# -->
<g id="edge39" class="edge">
<title>kpc&#45;&#45;Marketing&#45;i&#45;media&#45;spoecznociowe#</title>
<path fill="none" stroke="#00c64f" d="M97.97,-335.5C139.63,-335.5 215.82,-335.5 215.82,-335.5 215.82,-335.5 215.82,-139 215.82,-139 215.82,-139 399.01,-139 524.58,-139"/>
</g>
<!-- Czaty&#45;HS#HS: posty wyklte -->
<g id="node37" class="node">
<title>Czaty&#45;HS#HS: posty wyklte</title>
<ellipse fill="none" stroke="black" cx="639.91" cy="-254" rx="157.87" ry="18"/>
<text text-anchor="middle" x="639.91" y="-250.3" font-family="Times,serif" font-size="14.00">Czaty&#45;HS#HS: posty wyklte</text>
</g>
<!-- kpc&#45;&#45;Czaty&#45;HS#HS: posty wyklte -->
<g id="edge40" class="edge">
<title>kpc&#45;&#45;Czaty&#45;HS#HS: posty wyklte</title>
<path fill="none" stroke="#00c64f" d="M95.04,-331C114.46,-331 138.82,-331 138.82,-331 138.82,-331 138.82,-261.5 138.82,-261.5 138.82,-261.5 348.25,-261.5 496.32,-261.5"/>
</g>
<!-- Infrastruktura::Telegram#Posty wyklte (celowo bez linka) -->
<g id="node38" class="node">
<title>Infrastruktura::Telegram#Posty wyklte (celowo bez linka)</title>
<ellipse fill="none" stroke="black" cx="639.91" cy="-211" rx="284.05" ry="18"/>
<text text-anchor="middle" x="639.91" y="-207.3" font-family="Times,serif" font-size="14.00">Infrastruktura::Telegram#Posty wyklte (celowo bez linka)</text>
</g>
<!-- kpc&#45;&#45;Infrastruktura::Telegram#Posty wyklte (celowo bez linka) -->
<g id="edge42" class="edge">
<title>kpc&#45;&#45;Infrastruktura::Telegram#Posty wyklte (celowo bez linka)</title>
<path fill="none" stroke="#00c64f" d="M89.69,-326.5C109.02,-326.5 136.82,-326.5 136.82,-326.5 136.82,-326.5 136.82,-220.6 136.82,-220.6 136.82,-220.6 270.07,-220.6 399.42,-220.6"/>
</g>
<!-- PiotrP -->
<g id="node39" class="node">
<title>PiotrP</title>
<ellipse fill="none" stroke="black" cx="71.49" cy="-985" rx="40.09" ry="18"/>
<text text-anchor="middle" x="71.49" y="-981.3" font-family="Times,serif" font-size="14.00">PiotrP</text>
</g>
<!-- PiotrP&#45;&#45;Stowarzyszenie#Komisja Rewizyjna -->
<g id="edge44" class="edge">
<title>PiotrP&#45;&#45;Stowarzyszenie#Komisja Rewizyjna</title>
<path fill="none" stroke="#2e00e4" d="M107.82,-992.85C107.82,-1003.71 107.82,-1022 107.82,-1022 107.82,-1022 315.99,-1022 471.92,-1022"/>
</g>
<!-- pmysl -->
<g id="node40" class="node">
<title>pmysl</title>
<ellipse fill="none" stroke="black" cx="71.49" cy="-619" rx="38.19" ry="18"/>
<text text-anchor="middle" x="71.49" y="-615.3" font-family="Times,serif" font-size="14.00">pmysl</text>
</g>
<!-- pmysl&#45;&#45;Kanay&#45;komunikacji# -->
<g id="edge45" class="edge">
<title>pmysl&#45;&#45;Kanay&#45;komunikacji#</title>
<path fill="none" stroke="#ff0000" d="M97.36,-632.33C108.85,-632.33 119.82,-632.33 119.82,-632.33 119.82,-632.33 119.82,-851.5 119.82,-851.5 119.82,-851.5 382.69,-851.5 534.66,-851.5"/>
</g>
<!-- pmysl&#45;&#45;Infrastruktura::IRC#IRC -->
<g id="edge46" class="edge">
<title>pmysl&#45;&#45;Infrastruktura::IRC#IRC</title>
<path fill="none" stroke="#ff0000" d="M107.05,-612.25C197.71,-612.25 439.08,-612.25 563.45,-612.25"/>
</g>
<!-- pmysl&#45;&#45;Bazy&#45;danych#Grafana -->
<g id="edge47" class="edge">
<title>pmysl&#45;&#45;Bazy&#45;danych#Grafana</title>
<path fill="none" stroke="#ff0000" d="M105.35,-627.67C194.5,-627.67 437.46,-627.67 562.81,-627.67"/>
</g>
<!-- pmysl&#45;&#45;Infrastruktura::Github#Github -->
<g id="edge48" class="edge">
<title>pmysl&#45;&#45;Infrastruktura::Github#Github</title>
<path fill="none" stroke="#ff0000" d="M102.7,-608.5C152.36,-608.5 243.82,-608.5 243.82,-608.5 243.82,-608.5 243.82,-303 243.82,-303 243.82,-303 381.63,-303 494.67,-303"/>
</g>
<!-- Bazy&#45;danych# -->
<g id="node41" class="node">
<title>Bazy&#45;danych#</title>
<ellipse fill="none" stroke="black" cx="639.91" cy="-512" rx="77.19" ry="18"/>
<text text-anchor="middle" x="639.91" y="-508.3" font-family="Times,serif" font-size="14.00">Bazy&#45;danych#</text>
</g>
<!-- pmysl&#45;&#45;Bazy&#45;danych# -->
<g id="edge49" class="edge">
<title>pmysl&#45;&#45;Bazy&#45;danych#</title>
<path fill="none" stroke="#ff0000" d="M95,-604.75C107.71,-604.75 120.82,-604.75 120.82,-604.75 120.82,-604.75 120.82,-518 120.82,-518 120.82,-518 423.94,-518 566.91,-518"/>
</g>
<!-- thinkofher -->
<g id="node42" class="node">
<title>thinkofher</title>
<ellipse fill="none" stroke="black" cx="71.49" cy="-447" rx="59.29" ry="18"/>
<text text-anchor="middle" x="71.49" y="-443.3" font-family="Times,serif" font-size="14.00">thinkofher</text>
</g>
<!-- thinkofher&#45;&#45;Kanay&#45;komunikacji# -->
<g id="edge52" class="edge">
<title>thinkofher&#45;&#45;Kanay&#45;komunikacji#</title>
<path fill="none" stroke="#2bd500" d="M111.36,-460.33C191.56,-460.33 364.82,-460.33 364.82,-460.33 364.82,-460.33 364.82,-842.5 364.82,-842.5 364.82,-842.5 486.49,-842.5 567.99,-842.5"/>
</g>
<!-- thinkofher&#45;&#45;Marketing&#45;i&#45;media&#45;spoecznociowe# -->
<g id="edge51" class="edge">
<title>thinkofher&#45;&#45;Marketing&#45;i&#45;media&#45;spoecznociowe#</title>
<path fill="none" stroke="#2bd500" d="M115.6,-435C162.45,-435 229.82,-435 229.82,-435 229.82,-435 229.82,-141 229.82,-141 229.82,-141 435.96,-141 555.93,-141"/>
</g>
<!-- thinkofher&#45;&#45;Infrastruktura::IRC#IRC -->
<g id="edge54" class="edge">
<title>thinkofher&#45;&#45;Infrastruktura::IRC#IRC</title>
<path fill="none" stroke="#2bd500" d="M116.82,-458.74C116.82,-492.03 116.82,-584.67 116.82,-584.67 116.82,-584.67 408,-584.67 555.86,-584.67"/>
</g>
<!-- thinkofher&#45;&#45;Infrastruktura::Telegram#G贸wny: t.me/hakierspejs -->
<g id="edge55" class="edge">
<title>thinkofher&#45;&#45;Infrastruktura::Telegram#G贸wny: t.me/hakierspejs</title>
<path fill="none" stroke="#2bd500" d="M122.94,-438C196.79,-438 336.71,-438 452.38,-438"/>
</g>
<!-- thinkofher&#45;&#45;Infrastruktura::Github#Github -->
<g id="edge56" class="edge">
<title>thinkofher&#45;&#45;Infrastruktura::Github#Github</title>
<path fill="none" stroke="#2bd500" d="M104.46,-432C121.93,-432 139.82,-432 139.82,-432 139.82,-432 139.82,-297 139.82,-297 139.82,-297 338.85,-297 485.78,-297"/>
</g>
<!-- thinkofher&#45;&#45;Bazy&#45;danych# -->
<g id="edge57" class="edge">
<title>thinkofher&#45;&#45;Bazy&#45;danych#</title>
<path fill="none" stroke="#2bd500" d="M122.82,-455.96C122.82,-472.47 122.82,-506 122.82,-506 122.82,-506 424.38,-506 566.92,-506"/>
</g>
<!-- Infrastruktura::Matrix#hs&#45;ldz:hackerspace.pl -->
<g id="node43" class="node">
<title>Infrastruktura::Matrix#hs&#45;ldz:hackerspace.pl</title>
<ellipse fill="none" stroke="black" cx="639.91" cy="-383" rx="221.76" ry="18"/>
<text text-anchor="middle" x="639.91" y="-379.3" font-family="Times,serif" font-size="14.00">Infrastruktura::Matrix#hs&#45;ldz:hackerspace.pl</text>
</g>
<!-- thinkofher&#45;&#45;Infrastruktura::Matrix#hs&#45;ldz:hackerspace.pl -->
<g id="edge50" class="edge">
<title>thinkofher&#45;&#45;Infrastruktura::Matrix#hs&#45;ldz:hackerspace.pl</title>
<path fill="none" stroke="#2bd500" d="M112.82,-434.05C112.82,-415.35 112.82,-383 112.82,-383 112.82,-383 273.86,-383 417.9,-383"/>
</g>
<!-- Infrastruktura::Matrix#hs&#45;ldz&#45;offtopic:hackerspace.pl -->
<g id="node44" class="node">
<title>Infrastruktura::Matrix#hs&#45;ldz&#45;offtopic:hackerspace.pl</title>
<ellipse fill="none" stroke="black" cx="639.91" cy="-469" rx="258.85" ry="18"/>
<text text-anchor="middle" x="639.91" y="-465.3" font-family="Times,serif" font-size="14.00">Infrastruktura::Matrix#hs&#45;ldz&#45;offtopic:hackerspace.pl</text>
</g>
<!-- thinkofher&#45;&#45;Infrastruktura::Matrix#hs&#45;ldz&#45;offtopic:hackerspace.pl -->
<g id="edge53" class="edge">
<title>thinkofher&#45;&#45;Infrastruktura::Matrix#hs&#45;ldz&#45;offtopic:hackerspace.pl</title>
<path fill="none" stroke="#2bd500" d="M123.44,-455.67C200.39,-455.67 348.24,-455.67 466.09,-455.67"/>
</g>
<!-- Piotrek_P -->
<g id="node45" class="node">
<title>Piotrek_P</title>
<ellipse fill="none" stroke="black" cx="71.49" cy="-1178" rx="55.49" ry="18"/>
<text text-anchor="middle" x="71.49" y="-1174.3" font-family="Times,serif" font-size="14.00">Piotrek_P</text>
</g>
<!-- Piotrek_P&#45;&#45;Miejsce::Miejsce#Klucze do spejsu -->
<g id="edge58" class="edge">
<title>Piotrek_P&#45;&#45;Miejsce::Miejsce#Klucze do spejsu</title>
<path fill="none" stroke="#0061f2" d="M121.82,-1185.45C121.82,-1200.9 121.82,-1235 121.82,-1235 121.82,-1235 332.18,-1235 484.82,-1235"/>
</g>
<!-- polimerek -->
<g id="node46" class="node">
<title>polimerek</title>
<ellipse fill="none" stroke="black" cx="71.49" cy="-1307" rx="57.39" ry="18"/>
<text text-anchor="middle" x="71.49" y="-1303.3" font-family="Times,serif" font-size="14.00">polimerek</text>
</g>
<!-- polimerek&#45;&#45;Miejsce::Miejsce#Klucze do spejsu -->
<g id="edge59" class="edge">
<title>polimerek&#45;&#45;Miejsce::Miejsce#Klucze do spejsu</title>
<path fill="none" stroke="#c60077" d="M128.69,-1307C273.06,-1307 640.82,-1307 640.82,-1307 640.82,-1307 640.82,-1280.09 640.82,-1261.17"/>
</g>
<!-- kotlovecrafta -->
<g id="node47" class="node">
<title>kotlovecrafta</title>
<ellipse fill="none" stroke="black" cx="71.49" cy="-1264" rx="71.49" ry="18"/>
<text text-anchor="middle" x="71.49" y="-1260.3" font-family="Times,serif" font-size="14.00">kotlovecrafta</text>
</g>
<!-- kotlovecrafta&#45;&#45;Miejsce::Miejsce#Klucze do spejsu -->
<g id="edge60" class="edge">
<title>kotlovecrafta&#45;&#45;Miejsce::Miejsce#Klucze do spejsu</title>
<path fill="none" stroke="#b6e400" d="M129.65,-1253.5C215.95,-1253.5 380.5,-1253.5 499.45,-1253.5"/>
</g>
<!-- sp7adg -->
<g id="node48" class="node">
<title>sp7adg</title>
<ellipse fill="none" stroke="black" cx="71.49" cy="-1221" rx="44.39" ry="18"/>
<text text-anchor="middle" x="71.49" y="-1217.3" font-family="Times,serif" font-size="14.00">sp7adg</text>
</g>
<!-- sp7adg&#45;&#45;Miejsce::Miejsce#Klucze do spejsu -->
<g id="edge61" class="edge">
<title>sp7adg&#45;&#45;Miejsce::Miejsce#Klucze do spejsu</title>
<path fill="none" stroke="#00ffff" d="M92.06,-1237C153.26,-1237 338.56,-1237 476.82,-1237"/>
</g>
<!-- kszmigiel -->
<g id="node49" class="node">
<title>kszmigiel</title>
<ellipse fill="none" stroke="black" cx="71.49" cy="-297" rx="54.69" ry="18"/>
<text text-anchor="middle" x="71.49" y="-293.3" font-family="Times,serif" font-size="14.00">kszmigiel</text>
</g>
<!-- kszmigiel&#45;&#45;Infrastruktura::Telegram#posty: t.me/hakierspejs_spam -->
<g id="edge62" class="edge">
<title>kszmigiel&#45;&#45;Infrastruktura::Telegram#posty: t.me/hakierspejs_spam</title>
<path fill="none" stroke="#ab00d5" d="M119.82,-305.7C119.82,-318.27 119.82,-340 119.82,-340 119.82,-340 234.1,-340 355.52,-340"/>
</g>
<!-- kszmigiel&#45;&#45;Marketing&#45;i&#45;media&#45;spoecznociowe# -->
<g id="edge63" class="edge">
<title>kszmigiel&#45;&#45;Marketing&#45;i&#45;media&#45;spoecznociowe#</title>
<path fill="none" stroke="#ab00d5" d="M119.82,-288.4C119.82,-255.16 119.82,-137 119.82,-137 119.82,-137 349.17,-137 503.26,-137"/>
</g>
<!-- kszmigiel&#45;&#45;Infrastruktura::Telegram#G贸wny: t.me/hakierspejs -->
<g id="edge65" class="edge">
<title>kszmigiel&#45;&#45;Infrastruktura::Telegram#G贸wny: t.me/hakierspejs</title>
<path fill="none" stroke="#ab00d5" d="M105.82,-311.41C105.82,-343.6 105.82,-418.5 105.82,-418.5 105.82,-418.5 266.12,-418.5 411.08,-418.5"/>
</g>
<!-- kszmigiel&#45;&#45;Infrastruktura::Github#Github -->
<g id="edge64" class="edge">
<title>kszmigiel&#45;&#45;Infrastruktura::Github#Github</title>
<path fill="none" stroke="#ab00d5" d="M123.19,-291C206.39,-291 372.95,-291 494.55,-291"/>
</g>
<!-- kszmigiel&#45;&#45;Marketing&#45;i&#45;media&#45;spoecznociowe#Naklejki -->
<g id="edge66" class="edge">
<title>kszmigiel&#45;&#45;Marketing&#45;i&#45;media&#45;spoecznociowe#Naklejki</title>
<path fill="none" stroke="#ab00d5" d="M123.82,-291.78C123.82,-269.38 123.82,-182.5 123.82,-182.5 123.82,-182.5 355.44,-182.5 508.34,-182.5"/>
</g>
<!-- q3k -->
<g id="node50" class="node">
<title>q3k</title>
<ellipse fill="none" stroke="black" cx="71.49" cy="-856" rx="27.9" ry="18"/>
<text text-anchor="middle" x="71.49" y="-852.3" font-family="Times,serif" font-size="14.00">q3k</text>
</g>
<!-- q3k&#45;&#45;Kanay&#45;komunikacji# -->
<g id="edge68" class="edge">
<title>q3k&#45;&#45;Kanay&#45;komunikacji#</title>
<path fill="none" stroke="#f29100" d="M98.91,-860.5C176.47,-860.5 400.51,-860.5 534.72,-860.5"/>
</g>
<!-- q3k&#45;&#45;Infrastruktura::Domeny#Domeny -->
<g id="edge67" class="edge">
<title>q3k&#45;&#45;Infrastruktura::Domeny#Domeny</title>
<path fill="none" stroke="#f29100" d="M90.07,-869.5C102.96,-869.5 117.82,-869.5 117.82,-869.5 117.82,-869.5 117.82,-985 117.82,-985 117.82,-985 319.86,-985 472.56,-985"/>
</g>
<!-- q3k&#45;&#45;Marketing&#45;i&#45;media&#45;spoecznociowe#Logo nr. 2 -->
<g id="edge69" class="edge">
<title>q3k&#45;&#45;Marketing&#45;i&#45;media&#45;spoecznociowe#Logo nr. 2</title>
<path fill="none" stroke="#f29100" d="M95.71,-847C175.91,-847 427.82,-847 427.82,-847 427.82,-847 427.82,-606.15 427.82,-561.93"/>
</g>
<!-- BluRaf -->
<g id="node51" class="node">
<title>BluRaf</title>
<ellipse fill="none" stroke="black" cx="71.49" cy="-576" rx="42.49" ry="18"/>
<text text-anchor="middle" x="71.49" y="-572.3" font-family="Times,serif" font-size="14.00">BluRaf</text>
</g>
<!-- BluRaf&#45;&#45;Infrastruktura::IRC#IRC -->
<g id="edge70" class="edge">
<title>BluRaf&#45;&#45;Infrastruktura::IRC#IRC</title>
<path fill="none" stroke="#00c64f" d="M100.07,-589.33C177.85,-589.33 396.48,-589.33 530.45,-589.33"/>
</g>
<!-- biniu -->
<g id="node52" class="node">
<title>biniu</title>
<ellipse fill="none" stroke="black" cx="71.49" cy="-190" rx="34.39" ry="18"/>
<text text-anchor="middle" x="71.49" y="-186.3" font-family="Times,serif" font-size="14.00">biniu</text>
</g>
<!-- biniu&#45;&#45;Marketing&#45;i&#45;media&#45;spoecznociowe# -->
<g id="edge71" class="edge">
<title>biniu&#45;&#45;Marketing&#45;i&#45;media&#45;spoecznociowe#</title>
<path fill="none" stroke="#2e00e4" d="M92.14,-175.5C103.3,-175.5 114.82,-175.5 114.82,-175.5 114.82,-175.5 114.82,-133 114.82,-133 114.82,-133 321.54,-133 475.57,-133"/>
</g>
<!-- Keij0 -->
<g id="node53" class="node">
<title>Keij0</title>
<ellipse fill="none" stroke="black" cx="71.49" cy="-147" rx="34.39" ry="18"/>
<text text-anchor="middle" x="71.49" y="-143.3" font-family="Times,serif" font-size="14.00">Keij0</text>
</g>
<!-- Keij0&#45;&#45;Marketing&#45;i&#45;media&#45;spoecznociowe# -->
<g id="edge72" class="edge">
<title>Keij0&#45;&#45;Marketing&#45;i&#45;media&#45;spoecznociowe#</title>
<path fill="none" stroke="#ff0000" d="M87.29,-131C141.75,-131 326.09,-131 467.04,-131"/>
</g>
</g>
</svg>
