<?xml version="1.0" encoding="UTF-8" standalone="no"?>
<!DOCTYPE svg PUBLIC "-//W3C//DTD SVG 1.1//EN"
 "http://www.w3.org/Graphics/SVG/1.1/DTD/svg11.dtd">
<!-- Generated by graphviz version 2.42.4 (0)
 -->
<!-- Pages: 1 -->
<svg width="1001pt" height="1549pt"
 viewBox="0.00 0.00 1000.82 1549.00" xmlns="http://www.w3.org/2000/svg" xmlns:xlink="http://www.w3.org/1999/xlink">
<g id="graph0" class="graph" transform="scale(1 1) rotate(0) translate(4 1545)">
<polygon fill="white" stroke="transparent" points="-4,4 -4,-1545 996.82,-1545 996.82,4 -4,4"/>
<!-- d33tah -->
<g id="node1" class="node">
<title>d33tah</title>
<ellipse fill="none" stroke="black" cx="71.49" cy="-1050" rx="43.59" ry="18"/>
<text text-anchor="middle" x="71.49" y="-1046.3" font-family="Times,serif" font-size="14.00">d33tah</text>
</g>
<!-- Infrastruktura::Telegram#posty: t.me/hakierspejs_spam -->
<g id="node2" class="node">
<title>Infrastruktura::Telegram#posty: t.me/hakierspejs_spam</title>
<ellipse fill="none" stroke="black" cx="639.91" cy="-792" rx="284.05" ry="18"/>
<text text-anchor="middle" x="639.91" y="-788.3" font-family="Times,serif" font-size="14.00">Infrastruktura::Telegram#posty: t.me/hakierspejs_spam</text>
</g>
<!-- d33tah&#45;&#45;Infrastruktura::Telegram#posty: t.me/hakierspejs_spam -->
<g id="edge1" class="edge">
<title>d33tah&#45;&#45;Infrastruktura::Telegram#posty: t.me/hakierspejs_spam</title>
<path fill="none" stroke="#ff0000" d="M112.13,-1043.25C194.38,-1043.25 372.82,-1043.25 372.82,-1043.25 372.82,-1043.25 372.82,-836.9 372.82,-798.21"/>
</g>
<!-- Infrastruktura::Domeny#Domeny -->
<g id="node3" class="node">
<title>Infrastruktura::Domeny#Domeny</title>
<ellipse fill="none" stroke="black" cx="639.91" cy="-749" rx="167.07" ry="18"/>
<text text-anchor="middle" x="639.91" y="-745.3" font-family="Times,serif" font-size="14.00">Infrastruktura::Domeny#Domeny</text>
</g>
<!-- d33tah&#45;&#45;Infrastruktura::Domeny#Domeny -->
<g id="edge2" class="edge">
<title>d33tah&#45;&#45;Infrastruktura::Domeny#Domeny</title>
<path fill="none" stroke="#ff0000" d="M109.37,-1041C183.77,-1041 341.82,-1041 341.82,-1041 341.82,-1041 341.82,-755 341.82,-755 341.82,-755 410.64,-755 482.14,-755"/>
</g>
<!-- Infrastruktura::Mariuszbot#Mariuszbot -->
<g id="node4" class="node">
<title>Infrastruktura::Mariuszbot#Mariuszbot</title>
<ellipse fill="none" stroke="black" cx="639.91" cy="-1136" rx="196.07" ry="18"/>
<text text-anchor="middle" x="639.91" y="-1132.3" font-family="Times,serif" font-size="14.00">Infrastruktura::Mariuszbot#Mariuszbot</text>
</g>
<!-- d33tah&#45;&#45;Infrastruktura::Mariuszbot#Mariuszbot -->
<g id="edge3" class="edge">
<title>d33tah&#45;&#45;Infrastruktura::Mariuszbot#Mariuszbot</title>
<path fill="none" stroke="#ff0000" d="M112.05,-1056.75C181.04,-1056.75 313.82,-1056.75 313.82,-1056.75 313.82,-1056.75 313.82,-1125 313.82,-1125 313.82,-1125 400.52,-1125 484.51,-1125"/>
</g>
<!-- Infrastruktura::Telegram#HS24: t.me/hsl_info -->
<g id="node5" class="node">
<title>Infrastruktura::Telegram#HS24: t.me/hsl_info</title>
<ellipse fill="none" stroke="black" cx="639.91" cy="-1093" rx="231.26" ry="18"/>
<text text-anchor="middle" x="639.91" y="-1089.3" font-family="Times,serif" font-size="14.00">Infrastruktura::Telegram#HS24: t.me/hsl_info</text>
</g>
<!-- d33tah&#45;&#45;Infrastruktura::Telegram#HS24: t.me/hsl_info -->
<g id="edge4" class="edge">
<title>d33tah&#45;&#45;Infrastruktura::Telegram#HS24: t.me/hsl_info</title>
<path fill="none" stroke="#ff0000" d="M71.82,-1068.17C71.82,-1076.9 71.82,-1085.5 71.82,-1085.5 71.82,-1085.5 267.51,-1085.5 429.18,-1085.5"/>
</g>
<!-- Infrastruktura::Telegram#Spacerspejs: t.me/joinchat/UYf2ONtNj21J1DS6 -->
<g id="node6" class="node">
<title>Infrastruktura::Telegram#Spacerspejs: t.me/joinchat/UYf2ONtNj21J1DS6</title>
<ellipse fill="none" stroke="black" cx="639.91" cy="-1308" rx="352.84" ry="18"/>
<text text-anchor="middle" x="639.91" y="-1304.3" font-family="Times,serif" font-size="14.00">Infrastruktura::Telegram#Spacerspejs: t.me/joinchat/UYf2ONtNj21J1DS6</text>
</g>
<!-- d33tah&#45;&#45;Infrastruktura::Telegram#Spacerspejs: t.me/joinchat/UYf2ONtNj21J1DS6 -->
<g id="edge5" class="edge">
<title>d33tah&#45;&#45;Infrastruktura::Telegram#Spacerspejs: t.me/joinchat/UYf2ONtNj21J1DS6</title>
<path fill="none" stroke="#ff0000" d="M100.43,-1063.5C160.42,-1063.5 292.82,-1063.5 292.82,-1063.5 292.82,-1063.5 292.82,-1274.83 292.82,-1304.54"/>
</g>
<!-- Drzwi&#45;frontowe#Ekran  -->
<g id="node7" class="node">
<title>Drzwi&#45;frontowe#Ekran </title>
<ellipse fill="none" stroke="black" cx="639.91" cy="-1265" rx="120.78" ry="18"/>
<text text-anchor="middle" x="639.91" y="-1261.3" font-family="Times,serif" font-size="14.00">Drzwi&#45;frontowe#Ekran </text>
</g>
<!-- d33tah&#45;&#45;Drzwi&#45;frontowe#Ekran  -->
<g id="edge6" class="edge">
<title>d33tah&#45;&#45;Drzwi&#45;frontowe#Ekran </title>
<path fill="none" stroke="black" d="M105.56,-1061.25C168.32,-1061.25 295.82,-1061.25 295.82,-1061.25 295.82,-1061.25 295.82,-1265 295.82,-1265 295.82,-1265 419.53,-1265 518.6,-1265"/>
</g>
<!-- Bazy&#45;danych#Trello -->
<g id="node11" class="node">
<title>Bazy&#45;danych#Trello</title>
<ellipse fill="none" stroke="black" cx="639.91" cy="-1222" rx="103.98" ry="18"/>
<text text-anchor="middle" x="639.91" y="-1218.3" font-family="Times,serif" font-size="14.00">Bazy&#45;danych#Trello</text>
</g>
<!-- d33tah&#45;&#45;Bazy&#45;danych#Trello -->
<g id="edge7" class="edge">
<title>d33tah&#45;&#45;Bazy&#45;danych#Trello</title>
<path fill="none" stroke="#ff0000" d="M109.45,-1059C174.38,-1059 299.82,-1059 299.82,-1059 299.82,-1059 299.82,-1211 299.82,-1211 299.82,-1211 456.93,-1211 557.58,-1211"/>
</g>
<!-- Bazy&#45;danych#Grafana -->
<g id="node12" class="node">
<title>Bazy&#45;danych#Grafana</title>
<ellipse fill="none" stroke="black" cx="639.91" cy="-1050" rx="114.28" ry="18"/>
<text text-anchor="middle" x="639.91" y="-1046.3" font-family="Times,serif" font-size="14.00">Bazy&#45;danych#Grafana</text>
</g>
<!-- d33tah&#45;&#45;Bazy&#45;danych#Grafana -->
<g id="edge8" class="edge">
<title>d33tah&#45;&#45;Bazy&#45;danych#Grafana</title>
<path fill="none" stroke="#ff0000" d="M113.75,-1054.5C200.72,-1054.5 402.16,-1054.5 529.04,-1054.5"/>
</g>
<!-- Infrastruktura::Github#Github -->
<g id="node13" class="node">
<title>Infrastruktura::Github#Github</title>
<ellipse fill="none" stroke="black" cx="639.91" cy="-921" rx="154.07" ry="18"/>
<text text-anchor="middle" x="639.91" y="-917.3" font-family="Times,serif" font-size="14.00">Infrastruktura::Github#Github</text>
</g>
<!-- d33tah&#45;&#45;Infrastruktura::Github#Github -->
<g id="edge9" class="edge">
<title>d33tah&#45;&#45;Infrastruktura::Github#Github</title>
<path fill="none" stroke="#ff0000" d="M114.73,-1047.75C224.59,-1047.75 505.82,-1047.75 505.82,-1047.75 505.82,-1047.75 505.82,-959.18 505.82,-930.12"/>
</g>
<!-- Infrastruktura::IRC#IRC -->
<g id="node14" class="node">
<title>Infrastruktura::IRC#IRC</title>
<ellipse fill="none" stroke="black" cx="639.91" cy="-1007" rx="124.58" ry="18"/>
<text text-anchor="middle" x="639.91" y="-1003.3" font-family="Times,serif" font-size="14.00">Infrastruktura::IRC#IRC</text>
</g>
<!-- d33tah&#45;&#45;Infrastruktura::IRC#IRC -->
<g id="edge10" class="edge">
<title>d33tah&#45;&#45;Infrastruktura::IRC#IRC</title>
<path fill="none" stroke="#ff0000" d="M114.99,-1052.25C227.75,-1052.25 520.82,-1052.25 520.82,-1052.25 520.82,-1052.25 520.82,-1024.63 520.82,-1012.55"/>
</g>
<!-- Marketing&#45;i&#45;media&#45;spoecznociowe# -->
<g id="node15" class="node">
<title>Marketing&#45;i&#45;media&#45;spoecznociowe#</title>
<ellipse fill="none" stroke="black" cx="639.91" cy="-620" rx="183.07" ry="18"/>
<text text-anchor="middle" x="639.91" y="-616.3" font-family="Times,serif" font-size="14.00">Marketing&#45;i&#45;media&#45;spoecznociowe#</text>
</g>
<!-- d33tah&#45;&#45;Marketing&#45;i&#45;media&#45;spoecznociowe# -->
<g id="edge11" class="edge">
<title>d33tah&#45;&#45;Marketing&#45;i&#45;media&#45;spoecznociowe#</title>
<path fill="none" stroke="#ff0000" d="M105.62,-1038.75C177.69,-1038.75 338.82,-1038.75 338.82,-1038.75 338.82,-1038.75 338.82,-634.4 338.82,-634.4 338.82,-634.4 443.92,-634.4 529.93,-634.4"/>
</g>
<!-- Bazy&#45;danych#Pad -->
<g id="node16" class="node">
<title>Bazy&#45;danych#Pad</title>
<ellipse fill="none" stroke="black" cx="639.91" cy="-1179" rx="94.48" ry="18"/>
<text text-anchor="middle" x="639.91" y="-1175.3" font-family="Times,serif" font-size="14.00">Bazy&#45;danych#Pad</text>
</g>
<!-- d33tah&#45;&#45;Bazy&#45;danych#Pad -->
<g id="edge12" class="edge">
<title>d33tah&#45;&#45;Bazy&#45;danych#Pad</title>
<path fill="none" stroke="#ff0000" d="M92.77,-1065.75C124.83,-1065.75 181.82,-1065.75 181.82,-1065.75 181.82,-1065.75 181.82,-1171.5 181.82,-1171.5 181.82,-1171.5 421.37,-1171.5 554.01,-1171.5"/>
</g>
<!-- Infrastruktura::Telegram#G贸wny: t.me/hakierspejs -->
<g id="node17" class="node">
<title>Infrastruktura::Telegram#G贸wny: t.me/hakierspejs</title>
<ellipse fill="none" stroke="black" cx="639.91" cy="-878" rx="251.56" ry="18"/>
<text text-anchor="middle" x="639.91" y="-874.3" font-family="Times,serif" font-size="14.00">Infrastruktura::Telegram#G贸wny: t.me/hakierspejs</text>
</g>
<!-- d33tah&#45;&#45;Infrastruktura::Telegram#G贸wny: t.me/hakierspejs -->
<g id="edge13" class="edge">
<title>d33tah&#45;&#45;Infrastruktura::Telegram#G贸wny: t.me/hakierspejs</title>
<path fill="none" stroke="#ff0000" d="M113.67,-1045.5C202.72,-1045.5 401.82,-1045.5 401.82,-1045.5 401.82,-1045.5 401.82,-913.8 401.82,-883.96"/>
</g>
<!-- Kanay&#45;komunikacji# -->
<g id="node18" class="node">
<title>Kanay&#45;komunikacji#</title>
<ellipse fill="none" stroke="black" cx="639.91" cy="-835" rx="108.58" ry="18"/>
<text text-anchor="middle" x="639.91" y="-831.3" font-family="Times,serif" font-size="14.00">Kanay&#45;komunikacji#</text>
</g>
<!-- d33tah&#45;&#45;Kanay&#45;komunikacji# -->
<g id="edge14" class="edge">
<title>d33tah&#45;&#45;Kanay&#45;komunikacji#</title>
<path fill="none" stroke="#ff0000" d="M100.57,-1036.5C141.67,-1036.5 211.82,-1036.5 211.82,-1036.5 211.82,-1036.5 211.82,-848 211.82,-848 211.82,-848 441.47,-848 564.36,-848"/>
</g>
<!-- Stowarzyszenie#Zarzd -->
<g id="node19" class="node">
<title>Stowarzyszenie#Zarzd</title>
<ellipse fill="none" stroke="black" cx="639.91" cy="-276" rx="123.48" ry="18"/>
<text text-anchor="middle" x="639.91" y="-272.3" font-family="Times,serif" font-size="14.00">Stowarzyszenie#Zarzd</text>
</g>
<!-- d33tah&#45;&#45;Stowarzyszenie#Zarzd -->
<g id="edge15" class="edge">
<title>d33tah&#45;&#45;Stowarzyszenie#Zarzd</title>
<path fill="none" stroke="#ff0000" d="M92.75,-1034.25C130.16,-1034.25 203.82,-1034.25 203.82,-1034.25 203.82,-1034.25 203.82,-283.71 203.82,-283.71 203.82,-283.71 398.97,-283.71 528.17,-283.71"/>
</g>
<!-- nastpne -->
<g id="node8" class="node">
<title>nastpne</title>
<ellipse fill="none" stroke="black" cx="71.49" cy="-1114" rx="53.09" ry="18"/>
<text text-anchor="middle" x="71.49" y="-1110.3" font-family="Times,serif" font-size="14.00">nastpne</text>
</g>
<!-- spotkanie -->
<g id="node9" class="node">
<title>spotkanie</title>
<ellipse fill="none" stroke="black" cx="71.49" cy="-1200" rx="55.79" ry="18"/>
<text text-anchor="middle" x="71.49" y="-1196.3" font-family="Times,serif" font-size="14.00">spotkanie</text>
</g>
<g id="node10" class="node">
<title></title>
<ellipse fill="none" stroke="#ff0000" cx="71.49" cy="-1329" rx="27" ry="18"/>
</g>
<!-- q3k -->
<g id="node20" class="node">
<title>q3k</title>
<ellipse fill="none" stroke="black" cx="71.49" cy="-749" rx="27.9" ry="18"/>
<text text-anchor="middle" x="71.49" y="-745.3" font-family="Times,serif" font-size="14.00">q3k</text>
</g>
<!-- q3k&#45;&#45;Infrastruktura::Domeny#Domeny -->
<g id="edge16" class="edge">
<title>q3k&#45;&#45;Infrastruktura::Domeny#Domeny</title>
<path fill="none" stroke="#2bd500" d="M99.68,-749C166.77,-749 340.23,-749 472.65,-749"/>
</g>
<!-- q3k&#45;&#45;Kanay&#45;komunikacji# -->
<g id="edge18" class="edge">
<title>q3k&#45;&#45;Kanay&#45;komunikacji#</title>
<path fill="none" stroke="#2bd500" d="M92.38,-761C137.86,-761 241.82,-761 241.82,-761 241.82,-761 241.82,-824.33 241.82,-824.33 241.82,-824.33 434.82,-824.33 552.05,-824.33"/>
</g>
<!-- Marketing&#45;i&#45;media&#45;spoecznociowe#Logo nr. 2 -->
<g id="node21" class="node">
<title>Marketing&#45;i&#45;media&#45;spoecznociowe#Logo nr. 2</title>
<ellipse fill="none" stroke="black" cx="639.91" cy="-534" rx="229.36" ry="18"/>
<text text-anchor="middle" x="639.91" y="-530.3" font-family="Times,serif" font-size="14.00">Marketing&#45;i&#45;media&#45;spoecznociowe#Logo nr. 2</text>
</g>
<!-- q3k&#45;&#45;Marketing&#45;i&#45;media&#45;spoecznociowe#Logo nr. 2 -->
<g id="edge17" class="edge">
<title>q3k&#45;&#45;Marketing&#45;i&#45;media&#45;spoecznociowe#Logo nr. 2</title>
<path fill="none" stroke="#2bd500" d="M97.89,-743C164.07,-743 331.82,-743 331.82,-743 331.82,-743 331.82,-543 331.82,-543 331.82,-543 381.46,-543 440.88,-543"/>
</g>
<!-- thinkofher -->
<g id="node22" class="node">
<title>thinkofher</title>
<ellipse fill="none" stroke="black" cx="71.49" cy="-910" rx="59.29" ry="18"/>
<text text-anchor="middle" x="71.49" y="-906.3" font-family="Times,serif" font-size="14.00">thinkofher</text>
</g>
<!-- thinkofher&#45;&#45;Infrastruktura::Github#Github -->
<g id="edge20" class="edge">
<title>thinkofher&#45;&#45;Infrastruktura::Github#Github</title>
<path fill="none" stroke="#0061f2" d="M116.57,-921.75C195.41,-921.75 361.76,-921.75 485.86,-921.75"/>
</g>
<!-- thinkofher&#45;&#45;Infrastruktura::IRC#IRC -->
<g id="edge21" class="edge">
<title>thinkofher&#45;&#45;Infrastruktura::IRC#IRC</title>
<path fill="none" stroke="#0061f2" d="M118.82,-920.8C118.82,-944.9 118.82,-1001 118.82,-1001 118.82,-1001 368.28,-1001 521.99,-1001"/>
</g>
<!-- thinkofher&#45;&#45;Marketing&#45;i&#45;media&#45;spoecznociowe# -->
<g id="edge22" class="edge">
<title>thinkofher&#45;&#45;Marketing&#45;i&#45;media&#45;spoecznociowe#</title>
<path fill="none" stroke="#0061f2" d="M116.76,-898.33C192.05,-898.33 334.82,-898.33 334.82,-898.33 334.82,-898.33 334.82,-630.8 334.82,-630.8 334.82,-630.8 415.02,-630.8 493.17,-630.8"/>
</g>
<!-- thinkofher&#45;&#45;Infrastruktura::Telegram#G贸wny: t.me/hakierspejs -->
<g id="edge23" class="edge">
<title>thinkofher&#45;&#45;Infrastruktura::Telegram#G贸wny: t.me/hakierspejs</title>
<path fill="none" stroke="#0061f2" d="M122.17,-900.67C213.39,-900.67 395.82,-900.67 395.82,-900.67 395.82,-900.67 395.82,-888.96 395.82,-882.37"/>
</g>
<!-- thinkofher&#45;&#45;Kanay&#45;komunikacji# -->
<g id="edge24" class="edge">
<title>thinkofher&#45;&#45;Kanay&#45;komunikacji#</title>
<path fill="none" stroke="#0061f2" d="M120.82,-899.99C120.82,-880.21 120.82,-838 120.82,-838 120.82,-838 380.67,-838 532.67,-838"/>
</g>
<!-- Bazy&#45;danych# -->
<g id="node23" class="node">
<title>Bazy&#45;danych#</title>
<ellipse fill="none" stroke="black" cx="639.91" cy="-964" rx="77.19" ry="18"/>
<text text-anchor="middle" x="639.91" y="-960.3" font-family="Times,serif" font-size="14.00">Bazy&#45;danych#</text>
</g>
<!-- thinkofher&#45;&#45;Bazy&#45;danych# -->
<g id="edge19" class="edge">
<title>thinkofher&#45;&#45;Bazy&#45;danych#</title>
<path fill="none" stroke="#0061f2" d="M121.82,-919.82C121.82,-933.4 121.82,-956.29 121.82,-956.29 121.82,-956.29 428.23,-956.29 569.77,-956.29"/>
</g>
<!-- cytP450 -->
<g id="node24" class="node">
<title>cytP450</title>
<ellipse fill="none" stroke="black" cx="71.49" cy="-448" rx="48.99" ry="18"/>
<text text-anchor="middle" x="71.49" y="-444.3" font-family="Times,serif" font-size="14.00">cytP450</text>
</g>
<!-- cytP450&#45;&#45;Infrastruktura::Domeny#Domeny -->
<g id="edge27" class="edge">
<title>cytP450&#45;&#45;Infrastruktura::Domeny#Domeny</title>
<path fill="none" stroke="#c60077" d="M115.76,-455.71C183.93,-455.71 306.82,-455.71 306.82,-455.71 306.82,-455.71 306.82,-737 306.82,-737 306.82,-737 420.8,-737 515.41,-737"/>
</g>
<!-- cytP450&#45;&#45;Kanay&#45;komunikacji# -->
<g id="edge31" class="edge">
<title>cytP450&#45;&#45;Kanay&#45;komunikacji#</title>
<path fill="none" stroke="#c60077" d="M105.88,-460.86C157.7,-460.86 249.82,-460.86 249.82,-460.86 249.82,-460.86 249.82,-820.67 249.82,-820.67 249.82,-820.67 463,-820.67 574.18,-820.67"/>
</g>
<!-- Stowarzyszenie#Komisja Rewizyjna -->
<g id="node25" class="node">
<title>Stowarzyszenie#Komisja Rewizyjna</title>
<ellipse fill="none" stroke="black" cx="639.91" cy="-491" rx="178.17" ry="18"/>
<text text-anchor="middle" x="639.91" y="-487.3" font-family="Times,serif" font-size="14.00">Stowarzyszenie#Komisja Rewizyjna</text>
</g>
<!-- cytP450&#45;&#45;Stowarzyszenie#Komisja Rewizyjna -->
<g id="edge25" class="edge">
<title>cytP450&#45;&#45;Stowarzyszenie#Komisja Rewizyjna</title>
<path fill="none" stroke="#c60077" d="M117.82,-453.69C117.82,-462.64 117.82,-479 117.82,-479 117.82,-479 352.47,-479 507.15,-479"/>
</g>
<!-- Chciejlista#Elektronika (w sensie urzdze konsumenckich) -->
<g id="node26" class="node">
<title>Chciejlista#Elektronika (w sensie urzdze konsumenckich)</title>
<ellipse fill="none" stroke="black" cx="639.91" cy="-319" rx="289.75" ry="18"/>
<text text-anchor="middle" x="639.91" y="-315.3" font-family="Times,serif" font-size="14.00">Chciejlista#Elektronika (w sensie urzdze konsumenckich)</text>
</g>
<!-- cytP450&#45;&#45;Chciejlista#Elektronika (w sensie urzdze konsumenckich) -->
<g id="edge26" class="edge">
<title>cytP450&#45;&#45;Chciejlista#Elektronika (w sensie urzdze konsumenckich)</title>
<path fill="none" stroke="#c60077" d="M105.66,-435.14C149.19,-435.14 218.82,-435.14 218.82,-435.14 218.82,-435.14 218.82,-325 218.82,-325 218.82,-325 285.84,-325 366.39,-325"/>
</g>
<!-- Zamek#Zamek -->
<g id="node27" class="node">
<title>Zamek#Zamek</title>
<ellipse fill="none" stroke="black" cx="639.91" cy="-448" rx="81.49" ry="18"/>
<text text-anchor="middle" x="639.91" y="-444.3" font-family="Times,serif" font-size="14.00">Zamek#Zamek</text>
</g>
<!-- cytP450&#45;&#45;Zamek#Zamek -->
<g id="edge28" class="edge">
<title>cytP450&#45;&#45;Zamek#Zamek</title>
<path fill="none" stroke="#c60077" d="M119.96,-450.57C217.68,-450.57 439.25,-450.57 559.18,-450.57"/>
</g>
<!-- Chciejlista#DIY -->
<g id="node28" class="node">
<title>Chciejlista#DIY</title>
<ellipse fill="none" stroke="black" cx="639.91" cy="-405" rx="83.69" ry="18"/>
<text text-anchor="middle" x="639.91" y="-401.3" font-family="Times,serif" font-size="14.00">Chciejlista#DIY</text>
</g>
<!-- cytP450&#45;&#45;Chciejlista#DIY -->
<g id="edge29" class="edge">
<title>cytP450&#45;&#45;Chciejlista#DIY</title>
<path fill="none" stroke="#c60077" d="M119.8,-445.43C199.26,-445.43 348.82,-445.43 348.82,-445.43 348.82,-445.43 348.82,-414 348.82,-414 348.82,-414 480.99,-414 567.2,-414"/>
</g>
<!-- Przegld&#45;lokali&#45;na&#45;wynajem&#45;w&#45;odzi.&#45;Fundusz&#45;1000&#45;&#45;&#45;1500.#Bot Aleksego -->
<g id="node29" class="node">
<title>Przegld&#45;lokali&#45;na&#45;wynajem&#45;w&#45;odzi.&#45;Fundusz&#45;1000&#45;&#45;&#45;1500.#Bot Aleksego</title>
<ellipse fill="none" stroke="black" cx="639.91" cy="-362" rx="351.74" ry="18"/>
<text text-anchor="middle" x="639.91" y="-358.3" font-family="Times,serif" font-size="14.00">Przegld&#45;lokali&#45;na&#45;wynajem&#45;w&#45;odzi.&#45;Fundusz&#45;1000&#45;&#45;&#45;1500.#Bot Aleksego</text>
</g>
<!-- cytP450&#45;&#45;Przegld&#45;lokali&#45;na&#45;wynajem&#45;w&#45;odzi.&#45;Fundusz&#45;1000&#45;&#45;&#45;1500.#Bot Aleksego -->
<g id="edge30" class="edge">
<title>cytP450&#45;&#45;Przegld&#45;lokali&#45;na&#45;wynajem&#45;w&#45;odzi.&#45;Fundusz&#45;1000&#45;&#45;&#45;1500.#Bot Aleksego</title>
<path fill="none" stroke="#c60077" d="M115.76,-440.29C184.69,-440.29 309.82,-440.29 309.82,-440.29 309.82,-440.29 309.82,-387.1 309.82,-368.41"/>
</g>
<!-- pmysl -->
<g id="node30" class="node">
<title>pmysl</title>
<ellipse fill="none" stroke="black" cx="71.49" cy="-964" rx="38.19" ry="18"/>
<text text-anchor="middle" x="71.49" y="-960.3" font-family="Times,serif" font-size="14.00">pmysl</text>
</g>
<!-- pmysl&#45;&#45;Bazy&#45;danych#Grafana -->
<g id="edge33" class="edge">
<title>pmysl&#45;&#45;Bazy&#45;danych#Grafana</title>
<path fill="none" stroke="#b6e400" d="M98.69,-976.86C162.56,-976.86 316.82,-976.86 316.82,-976.86 316.82,-976.86 316.82,-1050 316.82,-1050 316.82,-1050 432.23,-1050 525.09,-1050"/>
</g>
<!-- pmysl&#45;&#45;Infrastruktura::Github#Github -->
<g id="edge34" class="edge">
<title>pmysl&#45;&#45;Infrastruktura::Github#Github</title>
<path fill="none" stroke="#b6e400" d="M109.52,-961.43C213.68,-961.43 495.82,-961.43 495.82,-961.43 495.82,-961.43 495.82,-939.16 495.82,-927.68"/>
</g>
<!-- pmysl&#45;&#45;Infrastruktura::IRC#IRC -->
<g id="edge35" class="edge">
<title>pmysl&#45;&#45;Infrastruktura::IRC#IRC</title>
<path fill="none" stroke="#b6e400" d="M106.31,-971.71C214.85,-971.71 539.82,-971.71 539.82,-971.71 539.82,-971.71 539.82,-985.84 539.82,-996.22"/>
</g>
<!-- pmysl&#45;&#45;Kanay&#45;komunikacji# -->
<g id="edge36" class="edge">
<title>pmysl&#45;&#45;Kanay&#45;komunikacji#</title>
<path fill="none" stroke="#b6e400" d="M98.38,-951.14C128.7,-951.14 173.82,-951.14 173.82,-951.14 173.82,-951.14 173.82,-843 173.82,-843 173.82,-843 405.85,-843 542.48,-843"/>
</g>
<!-- pmysl&#45;&#45;Bazy&#45;danych# -->
<g id="edge32" class="edge">
<title>pmysl&#45;&#45;Bazy&#45;danych#</title>
<path fill="none" stroke="#b6e400" d="M109.67,-966.57C202.14,-966.57 439.58,-966.57 562.93,-966.57"/>
</g>
<!-- kpc -->
<g id="node31" class="node">
<title>kpc</title>
<ellipse fill="none" stroke="black" cx="71.49" cy="-706" rx="27" ry="18"/>
<text text-anchor="middle" x="71.49" y="-702.3" font-family="Times,serif" font-size="14.00">kpc</text>
</g>
<!-- kpc&#45;&#45;Infrastruktura::Telegram#posty: t.me/hakierspejs_spam -->
<g id="edge38" class="edge">
<title>kpc&#45;&#45;Infrastruktura::Telegram#posty: t.me/hakierspejs_spam</title>
<path fill="none" stroke="#00ffff" d="M90.42,-718.86C145.67,-718.86 302.82,-718.86 302.82,-718.86 302.82,-718.86 302.82,-783 302.82,-783 302.82,-783 341.98,-783 393.6,-783"/>
</g>
<!-- kpc&#45;&#45;Marketing&#45;i&#45;media&#45;spoecznociowe# -->
<g id="edge40" class="edge">
<title>kpc&#45;&#45;Marketing&#45;i&#45;media&#45;spoecznociowe#</title>
<path fill="none" stroke="#00ffff" d="M98.44,-703.43C164.25,-703.43 327.82,-703.43 327.82,-703.43 327.82,-703.43 327.82,-627.2 327.82,-627.2 327.82,-627.2 397.83,-627.2 471.53,-627.2"/>
</g>
<!-- kpc&#45;&#45;Stowarzyszenie#Komisja Rewizyjna -->
<g id="edge37" class="edge">
<title>kpc&#45;&#45;Stowarzyszenie#Komisja Rewizyjna</title>
<path fill="none" stroke="#00ffff" d="M96.25,-698.29C159.99,-698.29 324.82,-698.29 324.82,-698.29 324.82,-698.29 324.82,-503 324.82,-503 324.82,-503 420.75,-503 506.74,-503"/>
</g>
<!-- Miejsce::Miejsce#Klucze do spejsu -->
<g id="node32" class="node">
<title>Miejsce::Miejsce#Klucze do spejsu</title>
<ellipse fill="none" stroke="black" cx="639.91" cy="-147" rx="172.77" ry="18"/>
<text text-anchor="middle" x="639.91" y="-143.3" font-family="Times,serif" font-size="14.00">Miejsce::Miejsce#Klucze do spejsu</text>
</g>
<!-- kpc&#45;&#45;Miejsce::Miejsce#Klucze do spejsu -->
<g id="edge39" class="edge">
<title>kpc&#45;&#45;Miejsce::Miejsce#Klucze do spejsu</title>
<path fill="none" stroke="#00ffff" d="M90.44,-693.14C116.13,-693.14 158.82,-693.14 158.82,-693.14 158.82,-693.14 158.82,-157.8 158.82,-157.8 158.82,-157.8 359.28,-157.8 501.4,-157.8"/>
</g>
<!-- Infrastruktura::Telegram#Posty wyklte (celowo bez linka) -->
<g id="node33" class="node">
<title>Infrastruktura::Telegram#Posty wyklte (celowo bez linka)</title>
<ellipse fill="none" stroke="black" cx="639.91" cy="-706" rx="284.05" ry="18"/>
<text text-anchor="middle" x="639.91" y="-702.3" font-family="Times,serif" font-size="14.00">Infrastruktura::Telegram#Posty wyklte (celowo bez linka)</text>
</g>
<!-- kpc&#45;&#45;Infrastruktura::Telegram#Posty wyklte (celowo bez linka) -->
<g id="edge41" class="edge">
<title>kpc&#45;&#45;Infrastruktura::Telegram#Posty wyklte (celowo bez linka)</title>
<path fill="none" stroke="#00ffff" d="M95.92,-713.71C146.54,-713.71 267.85,-713.71 383.09,-713.71"/>
</g>
<!-- Czaty&#45;HS#HS: posty wyklte -->
<g id="node34" class="node">
<title>Czaty&#45;HS#HS: posty wyklte</title>
<ellipse fill="none" stroke="black" cx="639.91" cy="-663" rx="157.87" ry="18"/>
<text text-anchor="middle" x="639.91" y="-659.3" font-family="Times,serif" font-size="14.00">Czaty&#45;HS#HS: posty wyklte</text>
</g>
<!-- kpc&#45;&#45;Czaty&#45;HS#HS: posty wyklte -->
<g id="edge42" class="edge">
<title>kpc&#45;&#45;Czaty&#45;HS#HS: posty wyklte</title>
<path fill="none" stroke="#00ffff" d="M98.3,-708.57C167.33,-708.57 345.82,-708.57 345.82,-708.57 345.82,-708.57 345.82,-669 345.82,-669 345.82,-669 417.92,-669 490.71,-669"/>
</g>
<!-- hakierspejs -->
<g id="node35" class="node">
<title>hakierspejs</title>
<ellipse fill="none" stroke="black" cx="71.49" cy="-1383" rx="63.89" ry="18"/>
<text text-anchor="middle" x="71.49" y="-1379.3" font-family="Times,serif" font-size="14.00">hakierspejs</text>
</g>
<!-- Finanse#Pacenie skadek -->
<g id="node36" class="node">
<title>Finanse#Pacenie skadek</title>
<ellipse fill="none" stroke="black" cx="639.91" cy="-1394" rx="131.88" ry="18"/>
<text text-anchor="middle" x="639.91" y="-1390.3" font-family="Times,serif" font-size="14.00">Finanse#Pacenie skadek</text>
</g>
<!-- hakierspejs&#45;&#45;Finanse#Pacenie skadek -->
<g id="edge43" class="edge">
<title>hakierspejs&#45;&#45;Finanse#Pacenie skadek</title>
<path fill="none" stroke="#ab00d5" d="M132.32,-1388.5C222.97,-1388.5 395.51,-1388.5 514.05,-1388.5"/>
</g>
<!-- Regulamin_skadek# -->
<g id="node37" class="node">
<title>Regulamin_skadek#</title>
<ellipse fill="none" stroke="black" cx="639.91" cy="-1351" rx="107.78" ry="18"/>
<text text-anchor="middle" x="639.91" y="-1347.3" font-family="Times,serif" font-size="14.00">Regulamin_skadek#</text>
</g>
<!-- hakierspejs&#45;&#45;Regulamin_skadek# -->
<g id="edge44" class="edge">
<title>hakierspejs&#45;&#45;Regulamin_skadek#</title>
<path fill="none" stroke="#ab00d5" d="M113.82,-1369.5C113.82,-1362.75 113.82,-1356 113.82,-1356 113.82,-1356 382.65,-1356 535.97,-1356"/>
</g>
<!-- BluRaf -->
<g id="node38" class="node">
<title>BluRaf</title>
<ellipse fill="none" stroke="black" cx="71.49" cy="-1007" rx="42.49" ry="18"/>
<text text-anchor="middle" x="71.49" y="-1003.3" font-family="Times,serif" font-size="14.00">BluRaf</text>
</g>
<!-- BluRaf&#45;&#45;Infrastruktura::IRC#IRC -->
<g id="edge45" class="edge">
<title>BluRaf&#45;&#45;Infrastruktura::IRC#IRC</title>
<path fill="none" stroke="#f29100" d="M111.46,-1013C195.61,-1013 393.84,-1013 522.15,-1013"/>
</g>
<!-- kujaw -->
<g id="node39" class="node">
<title>kujaw</title>
<ellipse fill="none" stroke="black" cx="71.49" cy="-362" rx="38.19" ry="18"/>
<text text-anchor="middle" x="71.49" y="-358.3" font-family="Times,serif" font-size="14.00">kujaw</text>
</g>
<!-- kujaw&#45;&#45;Marketing&#45;i&#45;media&#45;spoecznociowe# -->
<g id="edge48" class="edge">
<title>kujaw&#45;&#45;Marketing&#45;i&#45;media&#45;spoecznociowe#</title>
<path fill="none" stroke="#00c64f" d="M100.45,-374C152.58,-374 256.82,-374 256.82,-374 256.82,-374 256.82,-612.8 256.82,-612.8 256.82,-612.8 368.95,-612.8 471.88,-612.8"/>
</g>
<!-- kujaw&#45;&#45;Stowarzyszenie#Zarzd -->
<g id="edge50" class="edge">
<title>kujaw&#45;&#45;Stowarzyszenie#Zarzd</title>
<path fill="none" stroke="#00c64f" d="M107.65,-356C142.13,-356 188.82,-356 188.82,-356 188.82,-356 188.82,-273.43 188.82,-273.43 188.82,-273.43 383.96,-273.43 517.54,-273.43"/>
</g>
<!-- kujaw&#45;&#45;Marketing&#45;i&#45;media&#45;spoecznociowe#Logo nr. 2 -->
<g id="edge46" class="edge">
<title>kujaw&#45;&#45;Marketing&#45;i&#45;media&#45;spoecznociowe#Logo nr. 2</title>
<path fill="none" stroke="#00c64f" d="M110.19,-362C170.44,-362 279.82,-362 279.82,-362 279.82,-362 279.82,-525 279.82,-525 279.82,-525 357.79,-525 441.17,-525"/>
</g>
<!-- kujaw&#45;&#45;Miejsce::Miejsce#Klucze do spejsu -->
<g id="edge47" class="edge">
<title>kujaw&#45;&#45;Miejsce::Miejsce#Klucze do spejsu</title>
<path fill="none" stroke="#00c64f" d="M100.13,-350C122.86,-350 150.82,-350 150.82,-350 150.82,-350 150.82,-150.6 150.82,-150.6 150.82,-150.6 328.96,-150.6 470.22,-150.6"/>
</g>
<!-- Marketing&#45;i&#45;media&#45;spoecznociowe#Naklejki -->
<g id="node40" class="node">
<title>Marketing&#45;i&#45;media&#45;spoecznociowe#Naklejki</title>
<ellipse fill="none" stroke="black" cx="639.91" cy="-577" rx="221.76" ry="18"/>
<text text-anchor="middle" x="639.91" y="-573.3" font-family="Times,serif" font-size="14.00">Marketing&#45;i&#45;media&#45;spoecznociowe#Naklejki</text>
</g>
<!-- kujaw&#45;&#45;Marketing&#45;i&#45;media&#45;spoecznociowe#Naklejki -->
<g id="edge49" class="edge">
<title>kujaw&#45;&#45;Marketing&#45;i&#45;media&#45;spoecznociowe#Naklejki</title>
<path fill="none" stroke="#00c64f" d="M107.95,-368C165.97,-368 272.82,-368 272.82,-368 272.82,-368 272.82,-577 272.82,-577 272.82,-577 340.75,-577 418.17,-577"/>
</g>
<!-- Polimerek -->
<g id="node41" class="node">
<title>Polimerek</title>
<ellipse fill="none" stroke="black" cx="71.49" cy="-405" rx="57.39" ry="18"/>
<text text-anchor="middle" x="71.49" y="-401.3" font-family="Times,serif" font-size="14.00">Polimerek</text>
</g>
<!-- Polimerek&#45;&#45;Marketing&#45;i&#45;media&#45;spoecznociowe# -->
<g id="edge51" class="edge">
<title>Polimerek&#45;&#45;Marketing&#45;i&#45;media&#45;spoecznociowe#</title>
<path fill="none" stroke="#2e00e4" d="M128.76,-405C211.02,-405 352.82,-405 352.82,-405 352.82,-405 352.82,-605.6 352.82,-605.6 352.82,-605.6 448.78,-605.6 529.73,-605.6"/>
</g>
<!-- Polimerek&#45;&#45;Stowarzyszenie#Zarzd -->
<g id="edge52" class="edge">
<title>Polimerek&#45;&#45;Stowarzyszenie#Zarzd</title>
<path fill="none" stroke="#2e00e4" d="M121.03,-396C156.06,-396 196.82,-396 196.82,-396 196.82,-396 196.82,-278.57 196.82,-278.57 196.82,-278.57 386.51,-278.57 517.66,-278.57"/>
</g>
<!-- Paliguma -->
<g id="node42" class="node">
<title>Paliguma</title>
<ellipse fill="none" stroke="black" cx="71.49" cy="-319" rx="53.89" ry="18"/>
<text text-anchor="middle" x="71.49" y="-315.3" font-family="Times,serif" font-size="14.00">Paliguma</text>
</g>
<!-- Paliguma&#45;&#45;Stowarzyszenie#Zarzd -->
<g id="edge53" class="edge">
<title>Paliguma&#45;&#45;Stowarzyszenie#Zarzd</title>
<path fill="none" stroke="#ff0000" d="M122.65,-313C195.34,-313 319.82,-313 319.82,-313 319.82,-313 319.82,-288.86 319.82,-288.86 319.82,-288.86 458.49,-288.86 553.29,-288.86"/>
</g>
<!-- kotlovecrafta -->
<g id="node43" class="node">
<title>kotlovecrafta</title>
<ellipse fill="none" stroke="black" cx="71.49" cy="-276" rx="71.49" ry="18"/>
<text text-anchor="middle" x="71.49" y="-272.3" font-family="Times,serif" font-size="14.00">kotlovecrafta</text>
</g>
<!-- kotlovecrafta&#45;&#45;Marketing&#45;i&#45;media&#45;spoecznociowe# -->
<g id="edge54" class="edge">
<title>kotlovecrafta&#45;&#45;Marketing&#45;i&#45;media&#45;spoecznociowe#</title>
<path fill="none" stroke="#2bd500" d="M121.53,-263.14C178.82,-263.14 264.82,-263.14 264.82,-263.14 264.82,-263.14 264.82,-609.2 264.82,-609.2 264.82,-609.2 388.08,-609.2 493.28,-609.2"/>
</g>
<!-- kotlovecrafta&#45;&#45;Stowarzyszenie#Zarzd -->
<g id="edge56" class="edge">
<title>kotlovecrafta&#45;&#45;Stowarzyszenie#Zarzd</title>
<path fill="none" stroke="#2bd500" d="M136.14,-268.29C231.51,-268.29 411.21,-268.29 528.2,-268.29"/>
</g>
<!-- kotlovecrafta&#45;&#45;Miejsce::Miejsce#Klucze do spejsu -->
<g id="edge55" class="edge">
<title>kotlovecrafta&#45;&#45;Miejsce::Miejsce#Klucze do spejsu</title>
<path fill="none" stroke="#2bd500" d="M136.82,-268.49C136.82,-240.44 136.82,-143.4 136.82,-143.4 136.82,-143.4 324.24,-143.4 470.29,-143.4"/>
</g>
<!-- rux -->
<g id="node44" class="node">
<title>rux</title>
<ellipse fill="none" stroke="black" cx="71.49" cy="-233" rx="27" ry="18"/>
<text text-anchor="middle" x="71.49" y="-229.3" font-family="Times,serif" font-size="14.00">rux</text>
</g>
<!-- rux&#45;&#45;Stowarzyszenie#Zarzd -->
<g id="edge57" class="edge">
<title>rux&#45;&#45;Stowarzyszenie#Zarzd</title>
<path fill="none" stroke="#0061f2" d="M98.73,-233C206.72,-233 598.82,-233 598.82,-233 598.82,-233 598.82,-246.99 598.82,-259.01"/>
</g>
<!-- Inoru -->
<g id="node45" class="node">
<title>Inoru</title>
<ellipse fill="none" stroke="black" cx="71.49" cy="-190" rx="36" ry="18"/>
<text text-anchor="middle" x="71.49" y="-186.3" font-family="Times,serif" font-size="14.00">Inoru</text>
</g>
<!-- Inoru&#45;&#45;Stowarzyszenie#Zarzd -->
<g id="edge58" class="edge">
<title>Inoru&#45;&#45;Stowarzyszenie#Zarzd</title>
<path fill="none" stroke="#c60077" d="M107.39,-190C238.22,-190 681.82,-190 681.82,-190 681.82,-190 681.82,-233.95 681.82,-259.01"/>
</g>
<!-- pzduniak -->
<g id="node46" class="node">
<title>pzduniak</title>
<ellipse fill="none" stroke="black" cx="71.49" cy="-577" rx="52.79" ry="18"/>
<text text-anchor="middle" x="71.49" y="-573.3" font-family="Times,serif" font-size="14.00">pzduniak</text>
</g>
<!-- pzduniak&#45;&#45;Stowarzyszenie#Komisja Rewizyjna -->
<g id="edge59" class="edge">
<title>pzduniak&#45;&#45;Stowarzyszenie#Komisja Rewizyjna</title>
<path fill="none" stroke="#b6e400" d="M114.82,-566.45C114.82,-543.49 114.82,-491 114.82,-491 114.82,-491 309.49,-491 461.77,-491"/>
</g>
<!-- krcz -->
<g id="node47" class="node">
<title>krcz</title>
<ellipse fill="none" stroke="black" cx="71.49" cy="-534" rx="30.59" ry="18"/>
<text text-anchor="middle" x="71.49" y="-530.3" font-family="Times,serif" font-size="14.00">krcz</text>
</g>
<!-- krcz&#45;&#45;Stowarzyszenie#Komisja Rewizyjna -->
<g id="edge60" class="edge">
<title>krcz&#45;&#45;Stowarzyszenie#Komisja Rewizyjna</title>
<path fill="none" stroke="#00ffff" d="M102.07,-534C168.65,-534 320.82,-534 320.82,-534 320.82,-534 320.82,-497 320.82,-497 320.82,-497 395.08,-497 471.96,-497"/>
</g>
<!-- PiotrP -->
<g id="node48" class="node">
<title>PiotrP</title>
<ellipse fill="none" stroke="black" cx="71.49" cy="-491" rx="40.09" ry="18"/>
<text text-anchor="middle" x="71.49" y="-487.3" font-family="Times,serif" font-size="14.00">PiotrP</text>
</g>
<!-- PiotrP&#45;&#45;Stowarzyszenie#Komisja Rewizyjna -->
<g id="edge61" class="edge">
<title>PiotrP&#45;&#45;Stowarzyszenie#Komisja Rewizyjna</title>
<path fill="none" stroke="#ab00d5" d="M109.67,-485C182.6,-485 345.71,-485 471.9,-485"/>
</g>
<!-- kszmigiel -->
<g id="node49" class="node">
<title>kszmigiel</title>
<ellipse fill="none" stroke="black" cx="71.49" cy="-792" rx="54.69" ry="18"/>
<text text-anchor="middle" x="71.49" y="-788.3" font-family="Times,serif" font-size="14.00">kszmigiel</text>
</g>
<!-- kszmigiel&#45;&#45;Infrastruktura::Telegram#posty: t.me/hakierspejs_spam -->
<g id="edge62" class="edge">
<title>kszmigiel&#45;&#45;Infrastruktura::Telegram#posty: t.me/hakierspejs_spam</title>
<path fill="none" stroke="#f29100" d="M126.25,-792C180.58,-792 268.17,-792 355.75,-792"/>
</g>
<!-- kszmigiel&#45;&#45;Infrastruktura::Github#Github -->
<g id="edge63" class="edge">
<title>kszmigiel&#45;&#45;Infrastruktura::Github#Github</title>
<path fill="none" stroke="#f29100" d="M119.17,-801C167.38,-801 234.82,-801 234.82,-801 234.82,-801 234.82,-909.25 234.82,-909.25 234.82,-909.25 403.36,-909.25 523.01,-909.25"/>
</g>
<!-- kszmigiel&#45;&#45;Marketing&#45;i&#45;media&#45;spoecznociowe# -->
<g id="edge64" class="edge">
<title>kszmigiel&#45;&#45;Marketing&#45;i&#45;media&#45;spoecznociowe#</title>
<path fill="none" stroke="#f29100" d="M112.82,-780.18C112.82,-741.32 112.82,-620 112.82,-620 112.82,-620 304.18,-620 456.3,-620"/>
</g>
<!-- kszmigiel&#45;&#45;Infrastruktura::Telegram#G贸wny: t.me/hakierspejs -->
<g id="edge66" class="edge">
<title>kszmigiel&#45;&#45;Infrastruktura::Telegram#G贸wny: t.me/hakierspejs</title>
<path fill="none" stroke="#f29100" d="M114.82,-803.24C114.82,-826.55 114.82,-878 114.82,-878 114.82,-878 253.37,-878 388.13,-878"/>
</g>
<!-- kszmigiel&#45;&#45;Marketing&#45;i&#45;media&#45;spoecznociowe#Naklejki -->
<g id="edge65" class="edge">
<title>kszmigiel&#45;&#45;Marketing&#45;i&#45;media&#45;spoecznociowe#Naklejki</title>
<path fill="none" stroke="#f29100" d="M118.82,-782.83C118.82,-756.84 118.82,-684.5 118.82,-684.5 118.82,-684.5 437.82,-684.5 437.82,-684.5 437.82,-684.5 437.82,-609.38 437.82,-584.73"/>
</g>
<!-- SP7Q -->
<g id="node50" class="node">
<title>SP7Q</title>
<ellipse fill="none" stroke="black" cx="71.49" cy="-846" rx="36.29" ry="18"/>
<text text-anchor="middle" x="71.49" y="-842.3" font-family="Times,serif" font-size="14.00">SP7Q</text>
</g>
<!-- SP7Q&#45;&#45;Infrastruktura::Github#Github -->
<g id="edge67" class="edge">
<title>SP7Q&#45;&#45;Infrastruktura::Github#Github</title>
<path fill="none" stroke="#00c64f" d="M101.08,-856.5C146.14,-856.5 226.82,-856.5 226.82,-856.5 226.82,-856.5 226.82,-915.5 226.82,-915.5 226.82,-915.5 374.37,-915.5 493.11,-915.5"/>
</g>
<!-- SP7Q&#45;&#45;Marketing&#45;i&#45;media&#45;spoecznociowe# -->
<g id="edge68" class="edge">
<title>SP7Q&#45;&#45;Marketing&#45;i&#45;media&#45;spoecznociowe#</title>
<path fill="none" stroke="#00c64f" d="M96.77,-833C124.71,-833 165.82,-833 165.82,-833 165.82,-833 165.82,-623.6 165.82,-623.6 165.82,-623.6 325.89,-623.6 460,-623.6"/>
</g>
<!-- biniu -->
<g id="node51" class="node">
<title>biniu</title>
<ellipse fill="none" stroke="black" cx="71.49" cy="-663" rx="34.39" ry="18"/>
<text text-anchor="middle" x="71.49" y="-659.3" font-family="Times,serif" font-size="14.00">biniu</text>
</g>
<!-- biniu&#45;&#45;Marketing&#45;i&#45;media&#45;spoecznociowe# -->
<g id="edge69" class="edge">
<title>biniu&#45;&#45;Marketing&#45;i&#45;media&#45;spoecznociowe#</title>
<path fill="none" stroke="#2e00e4" d="M104.09,-657C199.22,-657 469.82,-657 469.82,-657 469.82,-657 469.82,-637.47 469.82,-626.79"/>
</g>
<!-- Keij0 -->
<g id="node52" class="node">
<title>Keij0</title>
<ellipse fill="none" stroke="black" cx="71.49" cy="-620" rx="34.39" ry="18"/>
<text text-anchor="middle" x="71.49" y="-616.3" font-family="Times,serif" font-size="14.00">Keij0</text>
</g>
<!-- Keij0&#45;&#45;Marketing&#45;i&#45;media&#45;spoecznociowe# -->
<g id="edge70" class="edge">
<title>Keij0&#45;&#45;Marketing&#45;i&#45;media&#45;spoecznociowe#</title>
<path fill="none" stroke="#ff0000" d="M105.35,-616.4C173.82,-616.4 333.04,-616.4 460.01,-616.4"/>
</g>
<!-- kasesag -->
<g id="node53" class="node">
<title>kasesag</title>
<ellipse fill="none" stroke="black" cx="71.49" cy="-1437" rx="48.19" ry="18"/>
<text text-anchor="middle" x="71.49" y="-1433.3" font-family="Times,serif" font-size="14.00">kasesag</text>
</g>
<!-- Marketing&#45;i&#45;media&#45;spoecznociowe#Przycisk HS&#45;LDZ -->
<g id="node54" class="node">
<title>Marketing&#45;i&#45;media&#45;spoecznociowe#Przycisk HS&#45;LDZ</title>
<ellipse fill="none" stroke="black" cx="639.91" cy="-1437" rx="261.85" ry="18"/>
<text text-anchor="middle" x="639.91" y="-1433.3" font-family="Times,serif" font-size="14.00">Marketing&#45;i&#45;media&#45;spoecznociowe#Przycisk HS&#45;LDZ</text>
</g>
<!-- kasesag&#45;&#45;Marketing&#45;i&#45;media&#45;spoecznociowe#Przycisk HS&#45;LDZ -->
<g id="edge71" class="edge">
<title>kasesag&#45;&#45;Marketing&#45;i&#45;media&#45;spoecznociowe#Przycisk HS&#45;LDZ</title>
<path fill="none" stroke="#2bd500" d="M119.96,-1437C177.95,-1437 279.55,-1437 377.64,-1437"/>
</g>
<!-- hslbridgebot -->
<g id="node55" class="node">
<title>hslbridgebot</title>
<ellipse fill="none" stroke="black" cx="71.49" cy="-1523" rx="69.59" ry="18"/>
<text text-anchor="middle" x="71.49" y="-1519.3" font-family="Times,serif" font-size="14.00">hslbridgebot</text>
</g>
<!-- Mostkowanie&#45;kana贸w#mautrix&#45;telegram (aktualnie u偶ywany) -->
<g id="node56" class="node">
<title>Mostkowanie&#45;kana贸w#mautrix&#45;telegram (aktualnie u偶ywany)</title>
<ellipse fill="none" stroke="black" cx="639.91" cy="-1501" rx="297.85" ry="18"/>
<text text-anchor="middle" x="639.91" y="-1497.3" font-family="Times,serif" font-size="14.00">Mostkowanie&#45;kana贸w#mautrix&#45;telegram (aktualnie u偶ywany)</text>
</g>
<!-- hslbridgebot&#45;&#45;Mostkowanie&#45;kana贸w#mautrix&#45;telegram (aktualnie u偶ywany) -->
<g id="edge72" class="edge">
<title>hslbridgebot&#45;&#45;Mostkowanie&#45;kana贸w#mautrix&#45;telegram (aktualnie u偶ywany)</title>
<path fill="none" stroke="#0061f2" d="M126.77,-1512C191.22,-1512 301.96,-1512 404.11,-1512"/>
</g>
<!-- telegrambot -->
<g id="node57" class="node">
<title>telegrambot</title>
<ellipse fill="none" stroke="black" cx="71.49" cy="-1480" rx="67.69" ry="18"/>
<text text-anchor="middle" x="71.49" y="-1476.3" font-family="Times,serif" font-size="14.00">telegrambot</text>
</g>
<!-- telegrambot&#45;&#45;Mostkowanie&#45;kana贸w#mautrix&#45;telegram (aktualnie u偶ywany) -->
<g id="edge73" class="edge">
<title>telegrambot&#45;&#45;Mostkowanie&#45;kana贸w#mautrix&#45;telegram (aktualnie u偶ywany)</title>
<path fill="none" stroke="#c60077" d="M126.51,-1490.5C189.62,-1490.5 297.36,-1490.5 397.9,-1490.5"/>
</g>
<!-- Piotrek_P -->
<g id="node58" class="node">
<title>Piotrek_P</title>
<ellipse fill="none" stroke="black" cx="71.49" cy="-147" rx="55.49" ry="18"/>
<text text-anchor="middle" x="71.49" y="-143.3" font-family="Times,serif" font-size="14.00">Piotrek_P</text>
</g>
<!-- Piotrek_P&#45;&#45;Miejsce::Miejsce#Klucze do spejsu -->
<g id="edge74" class="edge">
<title>Piotrek_P&#45;&#45;Miejsce::Miejsce#Klucze do spejsu</title>
<path fill="none" stroke="#b6e400" d="M116.1,-136.2C198.08,-136.2 375.82,-136.2 501.45,-136.2"/>
</g>
<!-- polimerek -->
<g id="node59" class="node">
<title>polimerek</title>
<ellipse fill="none" stroke="black" cx="71.49" cy="-104" rx="57.39" ry="18"/>
<text text-anchor="middle" x="71.49" y="-100.3" font-family="Times,serif" font-size="14.00">polimerek</text>
</g>
<!-- polimerek&#45;&#45;Miejsce::Miejsce#Klucze do spejsu -->
<g id="edge75" class="edge">
<title>polimerek&#45;&#45;Miejsce::Miejsce#Klucze do spejsu</title>
<path fill="none" stroke="#00ffff" d="M128.72,-104C256.48,-104 553.82,-104 553.82,-104 553.82,-104 553.82,-118.76 553.82,-130.99"/>
</g>
<!-- sp7adg -->
<g id="node60" class="node">
<title>sp7adg</title>
<ellipse fill="none" stroke="black" cx="71.49" cy="-61" rx="44.39" ry="18"/>
<text text-anchor="middle" x="71.49" y="-57.3" font-family="Times,serif" font-size="14.00">sp7adg</text>
</g>
<!-- sp7adg&#45;&#45;Miejsce::Miejsce#Klucze do spejsu -->
<g id="edge76" class="edge">
<title>sp7adg&#45;&#45;Miejsce::Miejsce#Klucze do spejsu</title>
<path fill="none" stroke="#ab00d5" d="M115.69,-61C249.46,-61 640.82,-61 640.82,-61 640.82,-61 640.82,-103.52 640.82,-128.76"/>
</g>
<!-- inouru -->
<g id="node61" class="node">
<title>inouru</title>
<ellipse fill="none" stroke="black" cx="71.49" cy="-18" rx="40.89" ry="18"/>
<text text-anchor="middle" x="71.49" y="-14.3" font-family="Times,serif" font-size="14.00">inouru</text>
</g>
<!-- inouru&#45;&#45;Miejsce::Miejsce#Klucze do spejsu -->
<g id="edge77" class="edge">
<title>inouru&#45;&#45;Miejsce::Miejsce#Klucze do spejsu</title>
<path fill="none" stroke="#f29100" d="M112.49,-18C255.96,-18 726.82,-18 726.82,-18 726.82,-18 726.82,-97.13 726.82,-131.44"/>
</g>
</g>
</svg>
