<?xml version="1.0" encoding="UTF-8" standalone="no"?>
<!DOCTYPE svg PUBLIC "-//W3C//DTD SVG 1.1//EN"
 "http://www.w3.org/Graphics/SVG/1.1/DTD/svg11.dtd">
<!-- Generated by graphviz version 2.42.4 (0)
 -->
<!-- Pages: 1 -->
<svg width="1001pt" height="1504pt"
 viewBox="0.00 0.00 1000.82 1504.00" xmlns="http://www.w3.org/2000/svg" xmlns:xlink="http://www.w3.org/1999/xlink">
<g id="graph0" class="graph" transform="scale(1 1) rotate(0) translate(4 1500)">
<polygon fill="white" stroke="transparent" points="-4,4 -4,-1500 996.82,-1500 996.82,4 -4,4"/>
<!-- d33tah -->
<g id="node1" class="node">
<title>d33tah</title>
<ellipse fill="none" stroke="black" cx="71.49" cy="-1005" rx="43.59" ry="18"/>
<text text-anchor="middle" x="71.49" y="-1001.3" font-family="Times,serif" font-size="14.00">d33tah</text>
</g>
<!-- Drzwi&#45;frontowe#Ekran  -->
<g id="node2" class="node">
<title>Drzwi&#45;frontowe#Ekran </title>
<ellipse fill="none" stroke="black" cx="639.91" cy="-1306" rx="120.78" ry="18"/>
<text text-anchor="middle" x="639.91" y="-1302.3" font-family="Times,serif" font-size="14.00">Drzwi&#45;frontowe#Ekran </text>
</g>
<!-- d33tah&#45;&#45;Drzwi&#45;frontowe#Ekran  -->
<g id="edge1" class="edge">
<title>d33tah&#45;&#45;Drzwi&#45;frontowe#Ekran </title>
<path fill="none" stroke="black" d="M100.31,-1018.5C128.05,-1018.5 165.82,-1018.5 165.82,-1018.5 165.82,-1018.5 165.82,-1298 165.82,-1298 165.82,-1298 391.5,-1298 531.44,-1298"/>
</g>
<!-- Infrastruktura::Telegram#posty: t.me/hakierspejs_spam -->
<g id="node6" class="node">
<title>Infrastruktura::Telegram#posty: t.me/hakierspejs_spam</title>
<ellipse fill="none" stroke="black" cx="639.91" cy="-747" rx="284.05" ry="18"/>
<text text-anchor="middle" x="639.91" y="-743.3" font-family="Times,serif" font-size="14.00">Infrastruktura::Telegram#posty: t.me/hakierspejs_spam</text>
</g>
<!-- d33tah&#45;&#45;Infrastruktura::Telegram#posty: t.me/hakierspejs_spam -->
<g id="edge2" class="edge">
<title>d33tah&#45;&#45;Infrastruktura::Telegram#posty: t.me/hakierspejs_spam</title>
<path fill="none" stroke="#ff0000" d="M113.71,-1000.5C196.64,-1000.5 372.82,-1000.5 372.82,-1000.5 372.82,-1000.5 372.82,-792.3 372.82,-753.27"/>
</g>
<!-- Bazy&#45;danych#Grafana -->
<g id="node7" class="node">
<title>Bazy&#45;danych#Grafana</title>
<ellipse fill="none" stroke="black" cx="639.91" cy="-1048" rx="114.28" ry="18"/>
<text text-anchor="middle" x="639.91" y="-1044.3" font-family="Times,serif" font-size="14.00">Bazy&#45;danych#Grafana</text>
</g>
<!-- d33tah&#45;&#45;Bazy&#45;danych#Grafana -->
<g id="edge3" class="edge">
<title>d33tah&#45;&#45;Bazy&#45;danych#Grafana</title>
<path fill="none" stroke="#ff0000" d="M92.76,-1020.75C104.94,-1020.75 117.82,-1020.75 117.82,-1020.75 117.82,-1020.75 117.82,-1048 117.82,-1048 117.82,-1048 371.65,-1048 525.33,-1048"/>
</g>
<!-- Infrastruktura::Telegram#Spacerspejs: t.me/joinchat/UYf2ONtNj21J1DS6 -->
<g id="node8" class="node">
<title>Infrastruktura::Telegram#Spacerspejs: t.me/joinchat/UYf2ONtNj21J1DS6</title>
<ellipse fill="none" stroke="black" cx="639.91" cy="-1263" rx="352.84" ry="18"/>
<text text-anchor="middle" x="639.91" y="-1259.3" font-family="Times,serif" font-size="14.00">Infrastruktura::Telegram#Spacerspejs: t.me/joinchat/UYf2ONtNj21J1DS6</text>
</g>
<!-- d33tah&#45;&#45;Infrastruktura::Telegram#Spacerspejs: t.me/joinchat/UYf2ONtNj21J1DS6 -->
<g id="edge4" class="edge">
<title>d33tah&#45;&#45;Infrastruktura::Telegram#Spacerspejs: t.me/joinchat/UYf2ONtNj21J1DS6</title>
<path fill="none" stroke="#ff0000" d="M109.21,-1014C172.64,-1014 293.82,-1014 293.82,-1014 293.82,-1014 293.82,-1227.41 293.82,-1259.09"/>
</g>
<!-- Infrastruktura::Github#Github -->
<g id="node9" class="node">
<title>Infrastruktura::Github#Github</title>
<ellipse fill="none" stroke="black" cx="639.91" cy="-876" rx="154.07" ry="18"/>
<text text-anchor="middle" x="639.91" y="-872.3" font-family="Times,serif" font-size="14.00">Infrastruktura::Github#Github</text>
</g>
<!-- d33tah&#45;&#45;Infrastruktura::Github#Github -->
<g id="edge5" class="edge">
<title>d33tah&#45;&#45;Infrastruktura::Github#Github</title>
<path fill="none" stroke="#ff0000" d="M111.93,-998.25C185.97,-998.25 335.82,-998.25 335.82,-998.25 335.82,-998.25 335.82,-885.43 335.82,-885.43 335.82,-885.43 426.12,-885.43 508.3,-885.43"/>
</g>
<!-- Bazy&#45;danych#Trello -->
<g id="node10" class="node">
<title>Bazy&#45;danych#Trello</title>
<ellipse fill="none" stroke="black" cx="639.91" cy="-1220" rx="103.98" ry="18"/>
<text text-anchor="middle" x="639.91" y="-1216.3" font-family="Times,serif" font-size="14.00">Bazy&#45;danych#Trello</text>
</g>
<!-- d33tah&#45;&#45;Bazy&#45;danych#Trello -->
<g id="edge6" class="edge">
<title>d33tah&#45;&#45;Bazy&#45;danych#Trello</title>
<path fill="none" stroke="#ff0000" d="M105.57,-1016.25C144.78,-1016.25 203.82,-1016.25 203.82,-1016.25 203.82,-1016.25 203.82,-1217.5 203.82,-1217.5 203.82,-1217.5 407.9,-1217.5 536.84,-1217.5"/>
</g>
<!-- Stowarzyszenie#Zarzd -->
<g id="node11" class="node">
<title>Stowarzyszenie#Zarzd</title>
<ellipse fill="none" stroke="black" cx="639.91" cy="-274" rx="123.48" ry="18"/>
<text text-anchor="middle" x="639.91" y="-270.3" font-family="Times,serif" font-size="14.00">Stowarzyszenie#Zarzd</text>
</g>
<!-- d33tah&#45;&#45;Stowarzyszenie#Zarzd -->
<g id="edge7" class="edge">
<title>d33tah&#45;&#45;Stowarzyszenie#Zarzd</title>
<path fill="none" stroke="#ff0000" d="M92.74,-989.25C126.55,-989.25 188.82,-989.25 188.82,-989.25 188.82,-989.25 188.82,-283.5 188.82,-283.5 188.82,-283.5 401.73,-283.5 535,-283.5"/>
</g>
<!-- Marketing&#45;i&#45;media&#45;spoecznociowe# -->
<g id="node12" class="node">
<title>Marketing&#45;i&#45;media&#45;spoecznociowe#</title>
<ellipse fill="none" stroke="black" cx="639.91" cy="-704" rx="183.07" ry="18"/>
<text text-anchor="middle" x="639.91" y="-700.3" font-family="Times,serif" font-size="14.00">Marketing&#45;i&#45;media&#45;spoecznociowe#</text>
</g>
<!-- d33tah&#45;&#45;Marketing&#45;i&#45;media&#45;spoecznociowe# -->
<g id="edge8" class="edge">
<title>d33tah&#45;&#45;Marketing&#45;i&#45;media&#45;spoecznociowe#</title>
<path fill="none" stroke="#ff0000" d="M100.32,-991.5C147.21,-991.5 234.82,-991.5 234.82,-991.5 234.82,-991.5 234.82,-709.62 234.82,-709.62 234.82,-709.62 355.97,-709.62 465.76,-709.62"/>
</g>
<!-- Infrastruktura::Telegram#HS24: t.me/hsl_info -->
<g id="node13" class="node">
<title>Infrastruktura::Telegram#HS24: t.me/hsl_info</title>
<ellipse fill="none" stroke="black" cx="639.91" cy="-1177" rx="231.26" ry="18"/>
<text text-anchor="middle" x="639.91" y="-1173.3" font-family="Times,serif" font-size="14.00">Infrastruktura::Telegram#HS24: t.me/hsl_info</text>
</g>
<!-- d33tah&#45;&#45;Infrastruktura::Telegram#HS24: t.me/hsl_info -->
<g id="edge9" class="edge">
<title>d33tah&#45;&#45;Infrastruktura::Telegram#HS24: t.me/hsl_info</title>
<path fill="none" stroke="#ff0000" d="M114,-1009.5C208.32,-1009.5 426.82,-1009.5 426.82,-1009.5 426.82,-1009.5 426.82,-1137.74 426.82,-1169.8"/>
</g>
<!-- Infrastruktura::IRC#IRC -->
<g id="node14" class="node">
<title>Infrastruktura::IRC#IRC</title>
<ellipse fill="none" stroke="black" cx="639.91" cy="-1005" rx="124.58" ry="18"/>
<text text-anchor="middle" x="639.91" y="-1001.3" font-family="Times,serif" font-size="14.00">Infrastruktura::IRC#IRC</text>
</g>
<!-- d33tah&#45;&#45;Infrastruktura::IRC#IRC -->
<g id="edge10" class="edge">
<title>d33tah&#45;&#45;Infrastruktura::IRC#IRC</title>
<path fill="none" stroke="#ff0000" d="M115.15,-1005C199.64,-1005 388.31,-1005 514.85,-1005"/>
</g>
<!-- Bazy&#45;danych#Pad -->
<g id="node15" class="node">
<title>Bazy&#45;danych#Pad</title>
<ellipse fill="none" stroke="black" cx="639.91" cy="-1134" rx="94.48" ry="18"/>
<text text-anchor="middle" x="639.91" y="-1130.3" font-family="Times,serif" font-size="14.00">Bazy&#45;danych#Pad</text>
</g>
<!-- d33tah&#45;&#45;Bazy&#45;danych#Pad -->
<g id="edge11" class="edge">
<title>d33tah&#45;&#45;Bazy&#45;danych#Pad</title>
<path fill="none" stroke="#ff0000" d="M111.96,-1011.75C177.06,-1011.75 297.82,-1011.75 297.82,-1011.75 297.82,-1011.75 297.82,-1121 297.82,-1121 297.82,-1121 475.02,-1121 574.35,-1121"/>
</g>
<!-- Infrastruktura::Domeny#Domeny -->
<g id="node16" class="node">
<title>Infrastruktura::Domeny#Domeny</title>
<ellipse fill="none" stroke="black" cx="639.91" cy="-790" rx="167.07" ry="18"/>
<text text-anchor="middle" x="639.91" y="-786.3" font-family="Times,serif" font-size="14.00">Infrastruktura::Domeny#Domeny</text>
</g>
<!-- d33tah&#45;&#45;Infrastruktura::Domeny#Domeny -->
<g id="edge12" class="edge">
<title>d33tah&#45;&#45;Infrastruktura::Domeny#Domeny</title>
<path fill="none" stroke="#ff0000" d="M105.61,-993.75C173.02,-993.75 316.82,-993.75 316.82,-993.75 316.82,-993.75 316.82,-793.33 316.82,-793.33 316.82,-793.33 395.71,-793.33 475.53,-793.33"/>
</g>
<!-- Infrastruktura::Mariuszbot#Mariuszbot -->
<g id="node17" class="node">
<title>Infrastruktura::Mariuszbot#Mariuszbot</title>
<ellipse fill="none" stroke="black" cx="639.91" cy="-1091" rx="196.07" ry="18"/>
<text text-anchor="middle" x="639.91" y="-1087.3" font-family="Times,serif" font-size="14.00">Infrastruktura::Mariuszbot#Mariuszbot</text>
</g>
<!-- d33tah&#45;&#45;Infrastruktura::Mariuszbot#Mariuszbot -->
<g id="edge13" class="edge">
<title>d33tah&#45;&#45;Infrastruktura::Mariuszbot#Mariuszbot</title>
<path fill="none" stroke="#ff0000" d="M114.81,-1007.25C219.89,-1007.25 479.82,-1007.25 479.82,-1007.25 479.82,-1007.25 479.82,-1057.86 479.82,-1080.39"/>
</g>
<!-- Kanay&#45;komunikacji# -->
<g id="node18" class="node">
<title>Kanay&#45;komunikacji#</title>
<ellipse fill="none" stroke="black" cx="639.91" cy="-833" rx="108.58" ry="18"/>
<text text-anchor="middle" x="639.91" y="-829.3" font-family="Times,serif" font-size="14.00">Kanay&#45;komunikacji#</text>
</g>
<!-- d33tah&#45;&#45;Kanay&#45;komunikacji# -->
<g id="edge14" class="edge">
<title>d33tah&#45;&#45;Kanay&#45;komunikacji#</title>
<path fill="none" stroke="#ff0000" d="M109.44,-996C180.57,-996 326.82,-996 326.82,-996 326.82,-996 326.82,-843 326.82,-843 326.82,-843 456.89,-843 549.35,-843"/>
</g>
<!-- Infrastruktura::Telegram#G贸wny: t.me/hakierspejs -->
<g id="node19" class="node">
<title>Infrastruktura::Telegram#G贸wny: t.me/hakierspejs</title>
<ellipse fill="none" stroke="black" cx="639.91" cy="-919" rx="251.56" ry="18"/>
<text text-anchor="middle" x="639.91" y="-915.3" font-family="Times,serif" font-size="14.00">Infrastruktura::Telegram#G贸wny: t.me/hakierspejs</text>
</g>
<!-- d33tah&#45;&#45;Infrastruktura::Telegram#G贸wny: t.me/hakierspejs -->
<g id="edge15" class="edge">
<title>d33tah&#45;&#45;Infrastruktura::Telegram#G贸wny: t.me/hakierspejs</title>
<path fill="none" stroke="#ff0000" d="M114.96,-1002.75C204,-1002.75 398.82,-1002.75 398.82,-1002.75 398.82,-1002.75 398.82,-943.13 398.82,-924.5"/>
</g>
<!-- nastpne -->
<g id="node3" class="node">
<title>nastpne</title>
<ellipse fill="none" stroke="black" cx="71.49" cy="-1108" rx="53.09" ry="18"/>
<text text-anchor="middle" x="71.49" y="-1104.3" font-family="Times,serif" font-size="14.00">nastpne</text>
</g>
<!-- spotkanie -->
<g id="node4" class="node">
<title>spotkanie</title>
<ellipse fill="none" stroke="black" cx="71.49" cy="-1215" rx="55.79" ry="18"/>
<text text-anchor="middle" x="71.49" y="-1211.3" font-family="Times,serif" font-size="14.00">spotkanie</text>
</g>
<g id="node5" class="node">
<title></title>
<ellipse fill="none" stroke="#ff0000" cx="71.49" cy="-1290" rx="27" ry="18"/>
</g>
<!-- q3k -->
<g id="node20" class="node">
<title>q3k</title>
<ellipse fill="none" stroke="black" cx="71.49" cy="-786" rx="27.9" ry="18"/>
<text text-anchor="middle" x="71.49" y="-782.3" font-family="Times,serif" font-size="14.00">q3k</text>
</g>
<!-- q3k&#45;&#45;Infrastruktura::Domeny#Domeny -->
<g id="edge16" class="edge">
<title>q3k&#45;&#45;Infrastruktura::Domeny#Domeny</title>
<path fill="none" stroke="#2bd500" d="M99.29,-788C166.27,-788 340.85,-788 473.66,-788"/>
</g>
<!-- q3k&#45;&#45;Kanay&#45;komunikacji# -->
<g id="edge18" class="edge">
<title>q3k&#45;&#45;Kanay&#45;komunikacji#</title>
<path fill="none" stroke="#2bd500" d="M91.67,-798.67C155.02,-798.67 345.82,-798.67 345.82,-798.67 345.82,-798.67 345.82,-823 345.82,-823 345.82,-823 462.86,-823 549.27,-823"/>
</g>
<!-- Marketing&#45;i&#45;media&#45;spoecznociowe#Logo nr. 2 -->
<g id="node21" class="node">
<title>Marketing&#45;i&#45;media&#45;spoecznociowe#Logo nr. 2</title>
<ellipse fill="none" stroke="black" cx="639.91" cy="-575" rx="229.36" ry="18"/>
<text text-anchor="middle" x="639.91" y="-571.3" font-family="Times,serif" font-size="14.00">Marketing&#45;i&#45;media&#45;spoecznociowe#Logo nr. 2</text>
</g>
<!-- q3k&#45;&#45;Marketing&#45;i&#45;media&#45;spoecznociowe#Logo nr. 2 -->
<g id="edge17" class="edge">
<title>q3k&#45;&#45;Marketing&#45;i&#45;media&#45;spoecznociowe#Logo nr. 2</title>
<path fill="none" stroke="#2bd500" d="M96.11,-777.33C139.91,-777.33 226.82,-777.33 226.82,-777.33 226.82,-777.33 226.82,-588.67 226.82,-588.67 226.82,-588.67 372.21,-588.67 490.48,-588.67"/>
</g>
<!-- thinkofher -->
<g id="node22" class="node">
<title>thinkofher</title>
<ellipse fill="none" stroke="black" cx="71.49" cy="-918" rx="59.29" ry="18"/>
<text text-anchor="middle" x="71.49" y="-914.3" font-family="Times,serif" font-size="14.00">thinkofher</text>
</g>
<!-- thinkofher&#45;&#45;Infrastruktura::Github#Github -->
<g id="edge20" class="edge">
<title>thinkofher&#45;&#45;Infrastruktura::Github#Github</title>
<path fill="none" stroke="#0061f2" d="M130.08,-915C191.7,-915 279.82,-915 279.82,-915 279.82,-915 279.82,-876.29 279.82,-876.29 279.82,-876.29 387.9,-876.29 485.63,-876.29"/>
</g>
<!-- thinkofher&#45;&#45;Marketing&#45;i&#45;media&#45;spoecznociowe# -->
<g id="edge21" class="edge">
<title>thinkofher&#45;&#45;Marketing&#45;i&#45;media&#45;spoecznociowe#</title>
<path fill="none" stroke="#0061f2" d="M129.3,-922C200.69,-922 312.82,-922 312.82,-922 312.82,-922 312.82,-718.25 312.82,-718.25 312.82,-718.25 433.12,-718.25 527.8,-718.25"/>
</g>
<!-- thinkofher&#45;&#45;Infrastruktura::IRC#IRC -->
<g id="edge22" class="edge">
<title>thinkofher&#45;&#45;Infrastruktura::IRC#IRC</title>
<path fill="none" stroke="#0061f2" d="M123.82,-926.63C123.82,-932.98 123.82,-940.5 123.82,-940.5 123.82,-940.5 546.82,-940.5 546.82,-940.5 546.82,-940.5 546.82,-974.18 546.82,-992.87"/>
</g>
<!-- thinkofher&#45;&#45;Kanay&#45;komunikacji# -->
<g id="edge23" class="edge">
<title>thinkofher&#45;&#45;Kanay&#45;komunikacji#</title>
<path fill="none" stroke="#0061f2" d="M120.74,-908C180.35,-908 272.82,-908 272.82,-908 272.82,-908 272.82,-835 272.82,-835 272.82,-835 423.47,-835 531.75,-835"/>
</g>
<!-- thinkofher&#45;&#45;Infrastruktura::Telegram#G贸wny: t.me/hakierspejs -->
<g id="edge24" class="edge">
<title>thinkofher&#45;&#45;Infrastruktura::Telegram#G贸wny: t.me/hakierspejs</title>
<path fill="none" stroke="#0061f2" d="M118.49,-929C186.65,-929 317.19,-929 430.6,-929"/>
</g>
<!-- Bazy&#45;danych# -->
<g id="node23" class="node">
<title>Bazy&#45;danych#</title>
<ellipse fill="none" stroke="black" cx="639.91" cy="-962" rx="77.19" ry="18"/>
<text text-anchor="middle" x="639.91" y="-958.3" font-family="Times,serif" font-size="14.00">Bazy&#45;danych#</text>
</g>
<!-- thinkofher&#45;&#45;Bazy&#45;danych# -->
<g id="edge19" class="edge">
<title>thinkofher&#45;&#45;Bazy&#45;danych#</title>
<path fill="none" stroke="#0061f2" d="M121.82,-927.61C121.82,-939.85 121.82,-959.43 121.82,-959.43 121.82,-959.43 418.97,-959.43 563.18,-959.43"/>
</g>
<!-- cytP450 -->
<g id="node24" class="node">
<title>cytP450</title>
<ellipse fill="none" stroke="black" cx="71.49" cy="-641" rx="48.99" ry="18"/>
<text text-anchor="middle" x="71.49" y="-637.3" font-family="Times,serif" font-size="14.00">cytP450</text>
</g>
<!-- cytP450&#45;&#45;Infrastruktura::Domeny#Domeny -->
<g id="edge28" class="edge">
<title>cytP450&#45;&#45;Infrastruktura::Domeny#Domeny</title>
<path fill="none" stroke="#c60077" d="M114.82,-649.44C114.82,-679.94 114.82,-782.67 114.82,-782.67 114.82,-782.67 332.29,-782.67 487.33,-782.67"/>
</g>
<!-- cytP450&#45;&#45;Kanay&#45;komunikacji# -->
<g id="edge30" class="edge">
<title>cytP450&#45;&#45;Kanay&#45;komunikacji#</title>
<path fill="none" stroke="#c60077" d="M110.82,-651.8C110.82,-691.5 110.82,-827 110.82,-827 110.82,-827 383.41,-827 537.27,-827"/>
</g>
<!-- Przegld&#45;lokali&#45;na&#45;wynajem&#45;w&#45;odzi.&#45;Fundusz&#45;1000&#45;&#45;&#45;1500.#Bot Aleksego -->
<g id="node25" class="node">
<title>Przegld&#45;lokali&#45;na&#45;wynajem&#45;w&#45;odzi.&#45;Fundusz&#45;1000&#45;&#45;&#45;1500.#Bot Aleksego</title>
<ellipse fill="none" stroke="black" cx="639.91" cy="-532" rx="351.74" ry="18"/>
<text text-anchor="middle" x="639.91" y="-528.3" font-family="Times,serif" font-size="14.00">Przegld&#45;lokali&#45;na&#45;wynajem&#45;w&#45;odzi.&#45;Fundusz&#45;1000&#45;&#45;&#45;1500.#Bot Aleksego</text>
</g>
<!-- cytP450&#45;&#45;Przegld&#45;lokali&#45;na&#45;wynajem&#45;w&#45;odzi.&#45;Fundusz&#45;1000&#45;&#45;&#45;1500.#Bot Aleksego -->
<g id="edge25" class="edge">
<title>cytP450&#45;&#45;Przegld&#45;lokali&#45;na&#45;wynajem&#45;w&#45;odzi.&#45;Fundusz&#45;1000&#45;&#45;&#45;1500.#Bot Aleksego</title>
<path fill="none" stroke="#c60077" d="M111.79,-630.8C178.07,-630.8 302.82,-630.8 302.82,-630.8 302.82,-630.8 302.82,-557.83 302.82,-537.31"/>
</g>
<!-- Zamek#Zamek -->
<g id="node26" class="node">
<title>Zamek#Zamek</title>
<ellipse fill="none" stroke="black" cx="639.91" cy="-489" rx="81.49" ry="18"/>
<text text-anchor="middle" x="639.91" y="-485.3" font-family="Times,serif" font-size="14.00">Zamek#Zamek</text>
</g>
<!-- cytP450&#45;&#45;Zamek#Zamek -->
<g id="edge26" class="edge">
<title>cytP450&#45;&#45;Zamek#Zamek</title>
<path fill="none" stroke="#c60077" d="M106.04,-628.2C149.58,-628.2 218.82,-628.2 218.82,-628.2 218.82,-628.2 218.82,-495.67 218.82,-495.67 218.82,-495.67 442.91,-495.67 564.14,-495.67"/>
</g>
<!-- Stowarzyszenie#Komisja Rewizyjna -->
<g id="node27" class="node">
<title>Stowarzyszenie#Komisja Rewizyjna</title>
<ellipse fill="none" stroke="black" cx="639.91" cy="-403" rx="178.17" ry="18"/>
<text text-anchor="middle" x="639.91" y="-399.3" font-family="Times,serif" font-size="14.00">Stowarzyszenie#Komisja Rewizyjna</text>
</g>
<!-- cytP450&#45;&#45;Stowarzyszenie#Komisja Rewizyjna -->
<g id="edge27" class="edge">
<title>cytP450&#45;&#45;Stowarzyszenie#Komisja Rewizyjna</title>
<path fill="none" stroke="#c60077" d="M116.03,-648.33C152.06,-648.33 196.82,-648.33 196.82,-648.33 196.82,-648.33 196.82,-414.2 196.82,-414.2 196.82,-414.2 370.44,-414.2 500.32,-414.2"/>
</g>
<!-- Chciejlista#Elektronika (w sensie urzdze konsumenckich) -->
<g id="node28" class="node">
<title>Chciejlista#Elektronika (w sensie urzdze konsumenckich)</title>
<ellipse fill="none" stroke="black" cx="639.91" cy="-661" rx="289.75" ry="18"/>
<text text-anchor="middle" x="639.91" y="-657.3" font-family="Times,serif" font-size="14.00">Chciejlista#Elektronika (w sensie urzdze konsumenckich)</text>
</g>
<!-- cytP450&#45;&#45;Chciejlista#Elektronika (w sensie urzdze konsumenckich) -->
<g id="edge29" class="edge">
<title>cytP450&#45;&#45;Chciejlista#Elektronika (w sensie urzdze konsumenckich)</title>
<path fill="none" stroke="#c60077" d="M106.19,-653.67C160.25,-653.67 269.33,-653.67 374.88,-653.67"/>
</g>
<!-- Chciejlista#DIY -->
<g id="node29" class="node">
<title>Chciejlista#DIY</title>
<ellipse fill="none" stroke="black" cx="639.91" cy="-446" rx="83.69" ry="18"/>
<text text-anchor="middle" x="639.91" y="-442.3" font-family="Times,serif" font-size="14.00">Chciejlista#DIY</text>
</g>
<!-- cytP450&#45;&#45;Chciejlista#DIY -->
<g id="edge31" class="edge">
<title>cytP450&#45;&#45;Chciejlista#DIY</title>
<path fill="none" stroke="#c60077" d="M96.91,-625.6C137.35,-625.6 211.82,-625.6 211.82,-625.6 211.82,-625.6 211.82,-447 211.82,-447 211.82,-447 431.47,-447 556.1,-447"/>
</g>
<!-- pmysl -->
<g id="node30" class="node">
<title>pmysl</title>
<ellipse fill="none" stroke="black" cx="71.49" cy="-962" rx="38.19" ry="18"/>
<text text-anchor="middle" x="71.49" y="-958.3" font-family="Times,serif" font-size="14.00">pmysl</text>
</g>
<!-- pmysl&#45;&#45;Bazy&#45;danych#Grafana -->
<g id="edge36" class="edge">
<title>pmysl&#45;&#45;Bazy&#45;danych#Grafana</title>
<path fill="none" stroke="#b6e400" d="M98.49,-974.86C109.56,-974.86 119.82,-974.86 119.82,-974.86 119.82,-974.86 119.82,-1039 119.82,-1039 119.82,-1039 389.6,-1039 540.55,-1039"/>
</g>
<!-- pmysl&#45;&#45;Infrastruktura::Github#Github -->
<g id="edge33" class="edge">
<title>pmysl&#45;&#45;Infrastruktura::Github#Github</title>
<path fill="none" stroke="#b6e400" d="M106.33,-954.29C177.27,-954.29 331.82,-954.29 331.82,-954.29 331.82,-954.29 331.82,-880.86 331.82,-880.86 331.82,-880.86 412.5,-880.86 491.28,-880.86"/>
</g>
<!-- pmysl&#45;&#45;Infrastruktura::IRC#IRC -->
<g id="edge34" class="edge">
<title>pmysl&#45;&#45;Infrastruktura::IRC#IRC</title>
<path fill="none" stroke="#b6e400" d="M106.47,-969.71C213.9,-969.71 531.82,-969.71 531.82,-969.71 531.82,-969.71 531.82,-985.27 531.82,-995.73"/>
</g>
<!-- pmysl&#45;&#45;Kanay&#45;komunikacji# -->
<g id="edge35" class="edge">
<title>pmysl&#45;&#45;Kanay&#45;komunikacji#</title>
<path fill="none" stroke="#b6e400" d="M98.76,-949.14C163.64,-949.14 321.82,-949.14 321.82,-949.14 321.82,-949.14 321.82,-839 321.82,-839 321.82,-839 444.53,-839 537.51,-839"/>
</g>
<!-- pmysl&#45;&#45;Bazy&#45;danych# -->
<g id="edge32" class="edge">
<title>pmysl&#45;&#45;Bazy&#45;danych#</title>
<path fill="none" stroke="#b6e400" d="M109.67,-964.57C202.14,-964.57 439.58,-964.57 562.93,-964.57"/>
</g>
<!-- kpc -->
<g id="node31" class="node">
<title>kpc</title>
<ellipse fill="none" stroke="black" cx="71.49" cy="-362" rx="27" ry="18"/>
<text text-anchor="middle" x="71.49" y="-358.3" font-family="Times,serif" font-size="14.00">kpc</text>
</g>
<!-- kpc&#45;&#45;Infrastruktura::Telegram#posty: t.me/hakierspejs_spam -->
<g id="edge38" class="edge">
<title>kpc&#45;&#45;Infrastruktura::Telegram#posty: t.me/hakierspejs_spam</title>
<path fill="none" stroke="#00ffff" d="M93.08,-373.14C118.94,-373.14 158.82,-373.14 158.82,-373.14 158.82,-373.14 158.82,-742.5 158.82,-742.5 158.82,-742.5 256.96,-742.5 364.59,-742.5"/>
</g>
<!-- kpc&#45;&#45;Marketing&#45;i&#45;media&#45;spoecznociowe# -->
<g id="edge40" class="edge">
<title>kpc&#45;&#45;Marketing&#45;i&#45;media&#45;spoecznociowe#</title>
<path fill="none" stroke="#00ffff" d="M96.87,-368.29C147.63,-368.29 256.82,-368.29 256.82,-368.29 256.82,-368.29 256.82,-692.75 256.82,-692.75 256.82,-692.75 387.91,-692.75 496.72,-692.75"/>
</g>
<!-- kpc&#45;&#45;Stowarzyszenie#Komisja Rewizyjna -->
<g id="edge42" class="edge">
<title>kpc&#45;&#45;Stowarzyszenie#Komisja Rewizyjna</title>
<path fill="none" stroke="#00ffff" d="M98.5,-363.43C167.13,-363.43 342.82,-363.43 342.82,-363.43 342.82,-363.43 342.82,-393.8 342.82,-393.8 342.82,-393.8 413.94,-393.8 486.58,-393.8"/>
</g>
<!-- Infrastruktura::Telegram#Posty wyklte (celowo bez linka) -->
<g id="node32" class="node">
<title>Infrastruktura::Telegram#Posty wyklte (celowo bez linka)</title>
<ellipse fill="none" stroke="black" cx="639.91" cy="-360" rx="284.05" ry="18"/>
<text text-anchor="middle" x="639.91" y="-356.3" font-family="Times,serif" font-size="14.00">Infrastruktura::Telegram#Posty wyklte (celowo bez linka)</text>
</g>
<!-- kpc&#45;&#45;Infrastruktura::Telegram#Posty wyklte (celowo bez linka) -->
<g id="edge37" class="edge">
<title>kpc&#45;&#45;Infrastruktura::Telegram#Posty wyklte (celowo bez linka)</title>
<path fill="none" stroke="#00ffff" d="M98.15,-358.57C146,-358.57 251.31,-358.57 356.49,-358.57"/>
</g>
<!-- Czaty&#45;HS#HS: posty wyklte -->
<g id="node33" class="node">
<title>Czaty&#45;HS#HS: posty wyklte</title>
<ellipse fill="none" stroke="black" cx="639.91" cy="-317" rx="157.87" ry="18"/>
<text text-anchor="middle" x="639.91" y="-313.3" font-family="Times,serif" font-size="14.00">Czaty&#45;HS#HS: posty wyklte</text>
</g>
<!-- kpc&#45;&#45;Czaty&#45;HS#HS: posty wyklte -->
<g id="edge39" class="edge">
<title>kpc&#45;&#45;Czaty&#45;HS#HS: posty wyklte</title>
<path fill="none" stroke="#00ffff" d="M95.8,-353.71C160.1,-353.71 329.82,-353.71 329.82,-353.71 329.82,-353.71 329.82,-323.67 329.82,-323.67 329.82,-323.67 412.89,-323.67 493.04,-323.67"/>
</g>
<!-- Miejsce::Miejsce#Klucze do spejsu -->
<g id="node34" class="node">
<title>Miejsce::Miejsce#Klucze do spejsu</title>
<ellipse fill="none" stroke="black" cx="639.91" cy="-147" rx="172.77" ry="18"/>
<text text-anchor="middle" x="639.91" y="-143.3" font-family="Times,serif" font-size="14.00">Miejsce::Miejsce#Klucze do spejsu</text>
</g>
<!-- kpc&#45;&#45;Miejsce::Miejsce#Klucze do spejsu -->
<g id="edge41" class="edge">
<title>kpc&#45;&#45;Miejsce::Miejsce#Klucze do spejsu</title>
<path fill="none" stroke="#00ffff" d="M89.95,-348.86C144.61,-348.86 301.82,-348.86 301.82,-348.86 301.82,-348.86 301.82,-156 301.82,-156 301.82,-156 399.71,-156 490.14,-156"/>
</g>
<!-- hakierspejs -->
<g id="node35" class="node">
<title>hakierspejs</title>
<ellipse fill="none" stroke="black" cx="71.49" cy="-1349" rx="63.89" ry="18"/>
<text text-anchor="middle" x="71.49" y="-1345.3" font-family="Times,serif" font-size="14.00">hakierspejs</text>
</g>
<!-- Finanse#Pacenie skadek -->
<g id="node36" class="node">
<title>Finanse#Pacenie skadek</title>
<ellipse fill="none" stroke="black" cx="639.91" cy="-1349" rx="131.88" ry="18"/>
<text text-anchor="middle" x="639.91" y="-1345.3" font-family="Times,serif" font-size="14.00">Finanse#Pacenie skadek</text>
</g>
<!-- hakierspejs&#45;&#45;Finanse#Pacenie skadek -->
<g id="edge43" class="edge">
<title>hakierspejs&#45;&#45;Finanse#Pacenie skadek</title>
<path fill="none" stroke="#ab00d5" d="M135.32,-1349C225.15,-1349 390.97,-1349 507.96,-1349"/>
</g>
<!-- BluRaf -->
<g id="node37" class="node">
<title>BluRaf</title>
<ellipse fill="none" stroke="black" cx="71.49" cy="-1048" rx="42.49" ry="18"/>
<text text-anchor="middle" x="71.49" y="-1044.3" font-family="Times,serif" font-size="14.00">BluRaf</text>
</g>
<!-- BluRaf&#45;&#45;Infrastruktura::IRC#IRC -->
<g id="edge44" class="edge">
<title>BluRaf&#45;&#45;Infrastruktura::IRC#IRC</title>
<path fill="none" stroke="#f29100" d="M108.26,-1057C215.58,-1057 520.82,-1057 520.82,-1057 520.82,-1057 520.82,-1023.98 520.82,-1010.56"/>
</g>
<!-- kujaw -->
<g id="node38" class="node">
<title>kujaw</title>
<ellipse fill="none" stroke="black" cx="71.49" cy="-555" rx="38.19" ry="18"/>
<text text-anchor="middle" x="71.49" y="-551.3" font-family="Times,serif" font-size="14.00">kujaw</text>
</g>
<!-- kujaw&#45;&#45;Stowarzyszenie#Zarzd -->
<g id="edge46" class="edge">
<title>kujaw&#45;&#45;Stowarzyszenie#Zarzd</title>
<path fill="none" stroke="#00c64f" d="M101.09,-543.5C131.31,-543.5 173.82,-543.5 173.82,-543.5 173.82,-543.5 173.82,-275 173.82,-275 173.82,-275 378.45,-275 516.53,-275"/>
</g>
<!-- kujaw&#45;&#45;Marketing&#45;i&#45;media&#45;spoecznociowe# -->
<g id="edge47" class="edge">
<title>kujaw&#45;&#45;Marketing&#45;i&#45;media&#45;spoecznociowe#</title>
<path fill="none" stroke="#00c64f" d="M95.92,-569C144.76,-569 249.82,-569 249.82,-569 249.82,-569 249.82,-696.12 249.82,-696.12 249.82,-696.12 368.58,-696.12 475.04,-696.12"/>
</g>
<!-- kujaw&#45;&#45;Marketing&#45;i&#45;media&#45;spoecznociowe#Logo nr. 2 -->
<g id="edge49" class="edge">
<title>kujaw&#45;&#45;Marketing&#45;i&#45;media&#45;spoecznociowe#Logo nr. 2</title>
<path fill="none" stroke="#00c64f" d="M107.92,-561C184.49,-561 365.77,-561 495.42,-561"/>
</g>
<!-- kujaw&#45;&#45;Miejsce::Miejsce#Klucze do spejsu -->
<g id="edge48" class="edge">
<title>kujaw&#45;&#45;Miejsce::Miejsce#Klucze do spejsu</title>
<path fill="none" stroke="#00c64f" d="M71.82,-536.82C71.82,-530.75 71.82,-525.5 71.82,-525.5 71.82,-525.5 150.82,-525.5 150.82,-525.5 150.82,-525.5 150.82,-147 150.82,-147 150.82,-147 326.09,-147 466.79,-147"/>
</g>
<!-- Marketing&#45;i&#45;media&#45;spoecznociowe#Naklejki -->
<g id="node39" class="node">
<title>Marketing&#45;i&#45;media&#45;spoecznociowe#Naklejki</title>
<ellipse fill="none" stroke="black" cx="639.91" cy="-618" rx="221.76" ry="18"/>
<text text-anchor="middle" x="639.91" y="-614.3" font-family="Times,serif" font-size="14.00">Marketing&#45;i&#45;media&#45;spoecznociowe#Naklejki</text>
</g>
<!-- kujaw&#45;&#45;Marketing&#45;i&#45;media&#45;spoecznociowe#Naklejki -->
<g id="edge45" class="edge">
<title>kujaw&#45;&#45;Marketing&#45;i&#45;media&#45;spoecznociowe#Naklejki</title>
<path fill="none" stroke="#00c64f" d="M103.45,-565C174.79,-565 340.82,-565 340.82,-565 340.82,-565 340.82,-610.67 340.82,-610.67 340.82,-610.67 383.76,-610.67 437.1,-610.67"/>
</g>
<!-- Polimerek -->
<g id="node40" class="node">
<title>Polimerek</title>
<ellipse fill="none" stroke="black" cx="71.49" cy="-598" rx="57.39" ry="18"/>
<text text-anchor="middle" x="71.49" y="-594.3" font-family="Times,serif" font-size="14.00">Polimerek</text>
</g>
<!-- Polimerek&#45;&#45;Stowarzyszenie#Zarzd -->
<g id="edge50" class="edge">
<title>Polimerek&#45;&#45;Stowarzyszenie#Zarzd</title>
<path fill="none" stroke="#2e00e4" d="M108.85,-584.33C140.85,-584.33 181.82,-584.33 181.82,-584.33 181.82,-584.33 181.82,-279.25 181.82,-279.25 181.82,-279.25 385.91,-279.25 521.64,-279.25"/>
</g>
<!-- Polimerek&#45;&#45;Marketing&#45;i&#45;media&#45;spoecznociowe# -->
<g id="edge51" class="edge">
<title>Polimerek&#45;&#45;Marketing&#45;i&#45;media&#45;spoecznociowe#</title>
<path fill="none" stroke="#2e00e4" d="M123.99,-605.33C174.04,-605.33 241.82,-605.33 241.82,-605.33 241.82,-605.33 241.82,-699.5 241.82,-699.5 241.82,-699.5 356.25,-699.5 462.4,-699.5"/>
</g>
<!-- Paliguma -->
<g id="node41" class="node">
<title>Paliguma</title>
<ellipse fill="none" stroke="black" cx="71.49" cy="-319" rx="53.89" ry="18"/>
<text text-anchor="middle" x="71.49" y="-315.3" font-family="Times,serif" font-size="14.00">Paliguma</text>
</g>
<!-- Paliguma&#45;&#45;Stowarzyszenie#Zarzd -->
<g id="edge52" class="edge">
<title>Paliguma&#45;&#45;Stowarzyszenie#Zarzd</title>
<path fill="none" stroke="#ff0000" d="M121.82,-312.33C193.35,-312.33 315.82,-312.33 315.82,-312.33 315.82,-312.33 315.82,-287.75 315.82,-287.75 315.82,-287.75 464.25,-287.75 560.21,-287.75"/>
</g>
<!-- kotlovecrafta -->
<g id="node42" class="node">
<title>kotlovecrafta</title>
<ellipse fill="none" stroke="black" cx="71.49" cy="-276" rx="71.49" ry="18"/>
<text text-anchor="middle" x="71.49" y="-272.3" font-family="Times,serif" font-size="14.00">kotlovecrafta</text>
</g>
<!-- kotlovecrafta&#45;&#45;Stowarzyszenie#Zarzd -->
<g id="edge53" class="edge">
<title>kotlovecrafta&#45;&#45;Stowarzyszenie#Zarzd</title>
<path fill="none" stroke="#2bd500" d="M140.06,-270.75C233.66,-270.75 402.97,-270.75 518.35,-270.75"/>
</g>
<!-- kotlovecrafta&#45;&#45;Marketing&#45;i&#45;media&#45;spoecznociowe# -->
<g id="edge54" class="edge">
<title>kotlovecrafta&#45;&#45;Marketing&#45;i&#45;media&#45;spoecznociowe#</title>
<path fill="none" stroke="#2bd500" d="M117.8,-262.25C175,-262.25 264.82,-262.25 264.82,-262.25 264.82,-262.25 264.82,-689.38 264.82,-689.38 264.82,-689.38 422.06,-689.38 532.92,-689.38"/>
</g>
<!-- kotlovecrafta&#45;&#45;Miejsce::Miejsce#Klucze do spejsu -->
<g id="edge55" class="edge">
<title>kotlovecrafta&#45;&#45;Miejsce::Miejsce#Klucze do spejsu</title>
<path fill="none" stroke="#2bd500" d="M132.31,-266.5C244.99,-266.5 474.82,-266.5 474.82,-266.5 474.82,-266.5 474.82,-175.82 474.82,-152.45"/>
</g>
<!-- rux -->
<g id="node43" class="node">
<title>rux</title>
<ellipse fill="none" stroke="black" cx="71.49" cy="-233" rx="27" ry="18"/>
<text text-anchor="middle" x="71.49" y="-229.3" font-family="Times,serif" font-size="14.00">rux</text>
</g>
<!-- rux&#45;&#45;Stowarzyszenie#Zarzd -->
<g id="edge56" class="edge">
<title>rux&#45;&#45;Stowarzyszenie#Zarzd</title>
<path fill="none" stroke="#0061f2" d="M98.73,-233C206.72,-233 598.82,-233 598.82,-233 598.82,-233 598.82,-245.61 598.82,-256.85"/>
</g>
<!-- Inoru -->
<g id="node44" class="node">
<title>Inoru</title>
<ellipse fill="none" stroke="black" cx="71.49" cy="-190" rx="36" ry="18"/>
<text text-anchor="middle" x="71.49" y="-186.3" font-family="Times,serif" font-size="14.00">Inoru</text>
</g>
<!-- Inoru&#45;&#45;Stowarzyszenie#Zarzd -->
<g id="edge57" class="edge">
<title>Inoru&#45;&#45;Stowarzyszenie#Zarzd</title>
<path fill="none" stroke="#c60077" d="M107.39,-190C238.22,-190 681.82,-190 681.82,-190 681.82,-190 681.82,-232.46 681.82,-257"/>
</g>
<!-- pzduniak -->
<g id="node45" class="node">
<title>pzduniak</title>
<ellipse fill="none" stroke="black" cx="71.49" cy="-448" rx="52.79" ry="18"/>
<text text-anchor="middle" x="71.49" y="-444.3" font-family="Times,serif" font-size="14.00">pzduniak</text>
</g>
<!-- pzduniak&#45;&#45;Stowarzyszenie#Komisja Rewizyjna -->
<g id="edge58" class="edge">
<title>pzduniak&#45;&#45;Stowarzyszenie#Komisja Rewizyjna</title>
<path fill="none" stroke="#b6e400" d="M113.82,-436.91C113.82,-424.88 113.82,-407.4 113.82,-407.4 113.82,-407.4 313.59,-407.4 466.92,-407.4"/>
</g>
<!-- krcz -->
<g id="node46" class="node">
<title>krcz</title>
<ellipse fill="none" stroke="black" cx="71.49" cy="-405" rx="30.59" ry="18"/>
<text text-anchor="middle" x="71.49" y="-401.3" font-family="Times,serif" font-size="14.00">krcz</text>
</g>
<!-- krcz&#45;&#45;Stowarzyszenie#Komisja Rewizyjna -->
<g id="edge59" class="edge">
<title>krcz&#45;&#45;Stowarzyszenie#Komisja Rewizyjna</title>
<path fill="none" stroke="#00ffff" d="M101.25,-400.6C167.84,-400.6 333.21,-400.6 463.29,-400.6"/>
</g>
<!-- PiotrP -->
<g id="node47" class="node">
<title>PiotrP</title>
<ellipse fill="none" stroke="black" cx="71.49" cy="-491" rx="40.09" ry="18"/>
<text text-anchor="middle" x="71.49" y="-487.3" font-family="Times,serif" font-size="14.00">PiotrP</text>
</g>
<!-- PiotrP&#45;&#45;Stowarzyszenie#Komisja Rewizyjna -->
<g id="edge60" class="edge">
<title>PiotrP&#45;&#45;Stowarzyszenie#Komisja Rewizyjna</title>
<path fill="none" stroke="#ab00d5" d="M109.24,-484.33C215.57,-484.33 509.82,-484.33 509.82,-484.33 509.82,-484.33 509.82,-438.11 509.82,-415.35"/>
</g>
<!-- kszmigiel -->
<g id="node48" class="node">
<title>kszmigiel</title>
<ellipse fill="none" stroke="black" cx="71.49" cy="-872" rx="54.69" ry="18"/>
<text text-anchor="middle" x="71.49" y="-868.3" font-family="Times,serif" font-size="14.00">kszmigiel</text>
</g>
<!-- kszmigiel&#45;&#45;Infrastruktura::Telegram#posty: t.me/hakierspejs_spam -->
<g id="edge61" class="edge">
<title>kszmigiel&#45;&#45;Infrastruktura::Telegram#posty: t.me/hakierspejs_spam</title>
<path fill="none" stroke="#f29100" d="M118.82,-862.88C118.82,-836.25 118.82,-760.5 118.82,-760.5 118.82,-760.5 302.53,-760.5 451.78,-760.5"/>
</g>
<!-- kszmigiel&#45;&#45;Infrastruktura::Github#Github -->
<g id="edge63" class="edge">
<title>kszmigiel&#45;&#45;Infrastruktura::Github#Github</title>
<path fill="none" stroke="#f29100" d="M124.2,-867.14C210.35,-867.14 383.9,-867.14 505.79,-867.14"/>
</g>
<!-- kszmigiel&#45;&#45;Marketing&#45;i&#45;media&#45;spoecznociowe# -->
<g id="edge64" class="edge">
<title>kszmigiel&#45;&#45;Marketing&#45;i&#45;media&#45;spoecznociowe#</title>
<path fill="none" stroke="#f29100" d="M112.82,-860.08C112.82,-822.07 112.82,-706.25 112.82,-706.25 112.82,-706.25 305.43,-706.25 457.78,-706.25"/>
</g>
<!-- kszmigiel&#45;&#45;Infrastruktura::Telegram#G贸wny: t.me/hakierspejs -->
<g id="edge65" class="edge">
<title>kszmigiel&#45;&#45;Infrastruktura::Telegram#G贸wny: t.me/hakierspejs</title>
<path fill="none" stroke="#f29100" d="M126.46,-871.71C227.12,-871.71 430.82,-871.71 430.82,-871.71 430.82,-871.71 430.82,-895.09 430.82,-908.97"/>
</g>
<!-- kszmigiel&#45;&#45;Marketing&#45;i&#45;media&#45;spoecznociowe#Naklejki -->
<g id="edge62" class="edge">
<title>kszmigiel&#45;&#45;Marketing&#45;i&#45;media&#45;spoecznociowe#Naklejki</title>
<path fill="none" stroke="#f29100" d="M118.19,-862.57C187.06,-862.57 307.82,-862.57 307.82,-862.57 307.82,-862.57 307.82,-633.4 307.82,-633.4 307.82,-633.4 429.17,-633.4 525.16,-633.4"/>
</g>
<!-- SP7Q -->
<g id="node49" class="node">
<title>SP7Q</title>
<ellipse fill="none" stroke="black" cx="71.49" cy="-829" rx="36.29" ry="18"/>
<text text-anchor="middle" x="71.49" y="-825.3" font-family="Times,serif" font-size="14.00">SP7Q</text>
</g>
<!-- SP7Q&#45;&#45;Infrastruktura::Github#Github -->
<g id="edge67" class="edge">
<title>SP7Q&#45;&#45;Infrastruktura::Github#Github</title>
<path fill="none" stroke="#00c64f" d="M108.03,-831C213.14,-831 508.82,-831 508.82,-831 508.82,-831 508.82,-853.25 508.82,-866.46"/>
</g>
<!-- SP7Q&#45;&#45;Marketing&#45;i&#45;media&#45;spoecznociowe# -->
<g id="edge66" class="edge">
<title>SP7Q&#45;&#45;Marketing&#45;i&#45;media&#45;spoecznociowe#</title>
<path fill="none" stroke="#00c64f" d="M101.98,-819C110.18,-819 116.82,-819 116.82,-819 116.82,-819 116.82,-716.5 116.82,-716.5 116.82,-716.5 352.95,-716.5 507.91,-716.5"/>
</g>
<!-- biniu -->
<g id="node50" class="node">
<title>biniu</title>
<ellipse fill="none" stroke="black" cx="71.49" cy="-738" rx="34.39" ry="18"/>
<text text-anchor="middle" x="71.49" y="-734.3" font-family="Times,serif" font-size="14.00">biniu</text>
</g>
<!-- biniu&#45;&#45;Marketing&#45;i&#45;media&#45;spoecznociowe# -->
<g id="edge68" class="edge">
<title>biniu&#45;&#45;Marketing&#45;i&#45;media&#45;spoecznociowe#</title>
<path fill="none" stroke="#2e00e4" d="M71.82,-719.68C71.82,-716.8 71.82,-714.75 71.82,-714.75 71.82,-714.75 324.55,-714.75 492.87,-714.75"/>
</g>
<!-- Keij0 -->
<g id="node51" class="node">
<title>Keij0</title>
<ellipse fill="none" stroke="black" cx="71.49" cy="-695" rx="34.39" ry="18"/>
<text text-anchor="middle" x="71.49" y="-691.3" font-family="Times,serif" font-size="14.00">Keij0</text>
</g>
<!-- Keij0&#45;&#45;Marketing&#45;i&#45;media&#45;spoecznociowe# -->
<g id="edge69" class="edge">
<title>Keij0&#45;&#45;Marketing&#45;i&#45;media&#45;spoecznociowe#</title>
<path fill="none" stroke="#ff0000" d="M102.86,-702.88C169.37,-702.88 328.92,-702.88 456.94,-702.88"/>
</g>
<!-- kasesag -->
<g id="node52" class="node">
<title>kasesag</title>
<ellipse fill="none" stroke="black" cx="71.49" cy="-1392" rx="48.19" ry="18"/>
<text text-anchor="middle" x="71.49" y="-1388.3" font-family="Times,serif" font-size="14.00">kasesag</text>
</g>
<!-- Marketing&#45;i&#45;media&#45;spoecznociowe#Przycisk HS&#45;LDZ -->
<g id="node53" class="node">
<title>Marketing&#45;i&#45;media&#45;spoecznociowe#Przycisk HS&#45;LDZ</title>
<ellipse fill="none" stroke="black" cx="639.91" cy="-1392" rx="261.85" ry="18"/>
<text text-anchor="middle" x="639.91" y="-1388.3" font-family="Times,serif" font-size="14.00">Marketing&#45;i&#45;media&#45;spoecznociowe#Przycisk HS&#45;LDZ</text>
</g>
<!-- kasesag&#45;&#45;Marketing&#45;i&#45;media&#45;spoecznociowe#Przycisk HS&#45;LDZ -->
<g id="edge70" class="edge">
<title>kasesag&#45;&#45;Marketing&#45;i&#45;media&#45;spoecznociowe#Przycisk HS&#45;LDZ</title>
<path fill="none" stroke="#2bd500" d="M119.96,-1392C177.95,-1392 279.55,-1392 377.64,-1392"/>
</g>
<!-- hslbridgebot -->
<g id="node54" class="node">
<title>hslbridgebot</title>
<ellipse fill="none" stroke="black" cx="71.49" cy="-1478" rx="69.59" ry="18"/>
<text text-anchor="middle" x="71.49" y="-1474.3" font-family="Times,serif" font-size="14.00">hslbridgebot</text>
</g>
<!-- Mostkowanie&#45;kana贸w#mautrix&#45;telegram (aktualnie u偶ywany) -->
<g id="node55" class="node">
<title>Mostkowanie&#45;kana贸w#mautrix&#45;telegram (aktualnie u偶ywany)</title>
<ellipse fill="none" stroke="black" cx="639.91" cy="-1456" rx="297.85" ry="18"/>
<text text-anchor="middle" x="639.91" y="-1452.3" font-family="Times,serif" font-size="14.00">Mostkowanie&#45;kana贸w#mautrix&#45;telegram (aktualnie u偶ywany)</text>
</g>
<!-- hslbridgebot&#45;&#45;Mostkowanie&#45;kana贸w#mautrix&#45;telegram (aktualnie u偶ywany) -->
<g id="edge71" class="edge">
<title>hslbridgebot&#45;&#45;Mostkowanie&#45;kana贸w#mautrix&#45;telegram (aktualnie u偶ywany)</title>
<path fill="none" stroke="#0061f2" d="M126.77,-1467C191.22,-1467 301.96,-1467 404.11,-1467"/>
</g>
<!-- telegrambot -->
<g id="node56" class="node">
<title>telegrambot</title>
<ellipse fill="none" stroke="black" cx="71.49" cy="-1435" rx="67.69" ry="18"/>
<text text-anchor="middle" x="71.49" y="-1431.3" font-family="Times,serif" font-size="14.00">telegrambot</text>
</g>
<!-- telegrambot&#45;&#45;Mostkowanie&#45;kana贸w#mautrix&#45;telegram (aktualnie u偶ywany) -->
<g id="edge72" class="edge">
<title>telegrambot&#45;&#45;Mostkowanie&#45;kana贸w#mautrix&#45;telegram (aktualnie u偶ywany)</title>
<path fill="none" stroke="#c60077" d="M126.51,-1445.5C189.62,-1445.5 297.36,-1445.5 397.9,-1445.5"/>
</g>
<!-- Piotrek_P -->
<g id="node57" class="node">
<title>Piotrek_P</title>
<ellipse fill="none" stroke="black" cx="71.49" cy="-147" rx="55.49" ry="18"/>
<text text-anchor="middle" x="71.49" y="-143.3" font-family="Times,serif" font-size="14.00">Piotrek_P</text>
</g>
<!-- Piotrek_P&#45;&#45;Miejsce::Miejsce#Klucze do spejsu -->
<g id="edge73" class="edge">
<title>Piotrek_P&#45;&#45;Miejsce::Miejsce#Klucze do spejsu</title>
<path fill="none" stroke="#b6e400" d="M119.47,-138C200.36,-138 367.12,-138 490.17,-138"/>
</g>
<!-- polimerek -->
<g id="node58" class="node">
<title>polimerek</title>
<ellipse fill="none" stroke="black" cx="71.49" cy="-104" rx="57.39" ry="18"/>
<text text-anchor="middle" x="71.49" y="-100.3" font-family="Times,serif" font-size="14.00">polimerek</text>
</g>
<!-- polimerek&#45;&#45;Miejsce::Miejsce#Klucze do spejsu -->
<g id="edge74" class="edge">
<title>polimerek&#45;&#45;Miejsce::Miejsce#Klucze do spejsu</title>
<path fill="none" stroke="#00ffff" d="M128.72,-104C256.48,-104 553.82,-104 553.82,-104 553.82,-104 553.82,-118.76 553.82,-130.99"/>
</g>
<!-- sp7adg -->
<g id="node59" class="node">
<title>sp7adg</title>
<ellipse fill="none" stroke="black" cx="71.49" cy="-61" rx="44.39" ry="18"/>
<text text-anchor="middle" x="71.49" y="-57.3" font-family="Times,serif" font-size="14.00">sp7adg</text>
</g>
<!-- sp7adg&#45;&#45;Miejsce::Miejsce#Klucze do spejsu -->
<g id="edge75" class="edge">
<title>sp7adg&#45;&#45;Miejsce::Miejsce#Klucze do spejsu</title>
<path fill="none" stroke="#ab00d5" d="M115.69,-61C249.46,-61 640.82,-61 640.82,-61 640.82,-61 640.82,-103.52 640.82,-128.76"/>
</g>
<!-- inouru -->
<g id="node60" class="node">
<title>inouru</title>
<ellipse fill="none" stroke="black" cx="71.49" cy="-18" rx="40.89" ry="18"/>
<text text-anchor="middle" x="71.49" y="-14.3" font-family="Times,serif" font-size="14.00">inouru</text>
</g>
<!-- inouru&#45;&#45;Miejsce::Miejsce#Klucze do spejsu -->
<g id="edge76" class="edge">
<title>inouru&#45;&#45;Miejsce::Miejsce#Klucze do spejsu</title>
<path fill="none" stroke="#f29100" d="M112.49,-18C255.96,-18 726.82,-18 726.82,-18 726.82,-18 726.82,-97.13 726.82,-131.44"/>
</g>
</g>
</svg>
