<?xml version="1.0" encoding="UTF-8" standalone="no"?>
<!DOCTYPE svg PUBLIC "-//W3C//DTD SVG 1.1//EN"
 "http://www.w3.org/Graphics/SVG/1.1/DTD/svg11.dtd">
<!-- Generated by graphviz version 2.40.1 (20161225.0304)
 -->
<!-- Title: %3 Pages: 1 -->
<svg width="850pt" height="861pt"
 viewBox="0.00 0.00 850.04 861.00" xmlns="http://www.w3.org/2000/svg" xmlns:xlink="http://www.w3.org/1999/xlink">
<g id="graph0" class="graph" transform="scale(1 1) rotate(0) translate(4 857)">
<title>%3</title>
<polygon fill="#ffffff" stroke="transparent" points="-4,4 -4,-857 846.0381,-857 846.0381,4 -4,4"/>
<!-- kszmigiel -->
<g id="node1" class="node">
<title>kszmigiel</title>
<ellipse fill="none" stroke="#000000" cx="59.7947" cy="-749" rx="55.4913" ry="18"/>
<text text-anchor="middle" x="59.7947" y="-745.3" font-family="Times,serif" font-size="14.00" fill="#000000">kszmigiel</text>
</g>
<!-- Finanse#Naklejki -->
<g id="node2" class="node">
<title>Finanse#Naklejki</title>
<ellipse fill="none" stroke="#000000" cx="552.8137" cy="-792" rx="94.7833" ry="18"/>
<text text-anchor="middle" x="552.8137" y="-788.3" font-family="Times,serif" font-size="14.00" fill="#000000">Finanse#Naklejki</text>
</g>
<!-- kszmigiel&#45;&#45;Finanse#Naklejki -->
<g id="edge1" class="edge">
<title>kszmigiel&#45;&#45;Finanse#Naklejki</title>
<path fill="none" stroke="#ff0000" d="M111.0381,-756.1006C111.0381,-768.3138 111.0381,-792 111.0381,-792 111.0381,-792 327.9311,-792 457.7704,-792"/>
</g>
<!-- Miejsce::Miejsce#Klucze do spejsu -->
<g id="node3" class="node">
<title>Miejsce::Miejsce#Klucze do spejsu</title>
<ellipse fill="none" stroke="#000000" cx="552.8137" cy="-577" rx="174.6691" ry="18"/>
<text text-anchor="middle" x="552.8137" y="-573.3" font-family="Times,serif" font-size="14.00" fill="#000000">Miejsce::Miejsce#Klucze do spejsu</text>
</g>
<!-- kszmigiel&#45;&#45;Miejsce::Miejsce#Klucze do spejsu -->
<g id="edge2" class="edge">
<title>kszmigiel&#45;&#45;Miejsce::Miejsce#Klucze do spejsu</title>
<path fill="none" stroke="#ff0000" d="M115.3071,-749C208.6711,-749 387.0381,-749 387.0381,-749 387.0381,-749 387.0381,-612.5674 387.0381,-582.7227"/>
</g>
<!-- Infrastruktura#Naklejki -->
<g id="node4" class="node">
<title>Infrastruktura#Naklejki</title>
<ellipse fill="none" stroke="#000000" cx="552.8137" cy="-749" rx="125.3778" ry="18"/>
<text text-anchor="middle" x="552.8137" y="-745.3" font-family="Times,serif" font-size="14.00" fill="#000000">Infrastruktura#Naklejki</text>
</g>
<!-- kszmigiel&#45;&#45;Infrastruktura#Naklejki -->
<g id="edge3" class="edge">
<title>kszmigiel&#45;&#45;Infrastruktura#Naklejki</title>
<path fill="none" stroke="#ff0000" d="M107.9651,-758C185.258,-758 338.9214,-758 443.7863,-758"/>
</g>
<!-- Infrastruktura#t.me/hakierspejs -->
<g id="node5" class="node">
<title>Infrastruktura#t.me/hakierspejs</title>
<ellipse fill="none" stroke="#000000" cx="552.8137" cy="-448" rx="163.2712" ry="18"/>
<text text-anchor="middle" x="552.8137" y="-444.3" font-family="Times,serif" font-size="14.00" fill="#000000">Infrastruktura#t.me/hakierspejs</text>
</g>
<!-- kszmigiel&#45;&#45;Infrastruktura#t.me/hakierspejs -->
<g id="edge4" class="edge">
<title>kszmigiel&#45;&#45;Infrastruktura#t.me/hakierspejs</title>
<path fill="none" stroke="#ff0000" d="M107.7626,-740C176.2936,-740 294.0381,-740 294.0381,-740 294.0381,-740 294.0381,-449.3846 294.0381,-449.3846 294.0381,-449.3846 338.1955,-449.3846 390.0288,-449.3846"/>
</g>
<!-- Infrastruktura#Meetup -->
<g id="node6" class="node">
<title>Infrastruktura#Meetup</title>
<ellipse fill="none" stroke="#000000" cx="552.8137" cy="-706" rx="121.5784" ry="18"/>
<text text-anchor="middle" x="552.8137" y="-702.3" font-family="Times,serif" font-size="14.00" fill="#000000">Infrastruktura#Meetup</text>
</g>
<!-- kszmigiel&#45;&#45;Infrastruktura#Meetup -->
<g id="edge5" class="edge">
<title>kszmigiel&#45;&#45;Infrastruktura#Meetup</title>
<path fill="none" stroke="#ff0000" d="M105.0381,-738.4575C105.0381,-729.7652 105.0381,-718.8571 105.0381,-718.8571 105.0381,-718.8571 337.6186,-718.8571 467.5366,-718.8571"/>
</g>
<!-- q3k -->
<g id="node7" class="node">
<title>q3k</title>
<ellipse fill="none" stroke="#000000" cx="59.7947" cy="-276" rx="28.6953" ry="18"/>
<text text-anchor="middle" x="59.7947" y="-272.3" font-family="Times,serif" font-size="14.00" fill="#000000">q3k</text>
</g>
<!-- Infrastruktura#Domeny -->
<g id="node8" class="node">
<title>Infrastruktura#Domeny</title>
<ellipse fill="none" stroke="#000000" cx="552.8137" cy="-276" rx="124.2781" ry="18"/>
<text text-anchor="middle" x="552.8137" y="-272.3" font-family="Times,serif" font-size="14.00" fill="#000000">Infrastruktura#Domeny</text>
</g>
<!-- q3k&#45;&#45;Infrastruktura#Domeny -->
<g id="edge6" class="edge">
<title>q3k&#45;&#45;Infrastruktura#Domeny</title>
<path fill="none" stroke="#2bd500" d="M82.9128,-265.2C148.0208,-265.2 335.8101,-265.2 453.336,-265.2"/>
</g>
<!-- Infrastruktura#Lista mailingowa -->
<g id="node9" class="node">
<title>Infrastruktura#Lista mailingowa</title>
<ellipse fill="none" stroke="#000000" cx="552.8137" cy="-319" rx="165.1707" ry="18"/>
<text text-anchor="middle" x="552.8137" y="-315.3" font-family="Times,serif" font-size="14.00" fill="#000000">Infrastruktura#Lista mailingowa</text>
</g>
<!-- q3k&#45;&#45;Infrastruktura#Lista mailingowa -->
<g id="edge7" class="edge">
<title>q3k&#45;&#45;Infrastruktura#Lista mailingowa</title>
<path fill="none" stroke="#2bd500" d="M88.0789,-272.4C171.2217,-272.4 409.0381,-272.4 409.0381,-272.4 409.0381,-272.4 409.0381,-296.4736 409.0381,-310.0151"/>
</g>
<!-- d33tah -->
<g id="node10" class="node">
<title>d33tah</title>
<ellipse fill="none" stroke="#000000" cx="59.7947" cy="-448" rx="43.5923" ry="18"/>
<text text-anchor="middle" x="59.7947" y="-444.3" font-family="Times,serif" font-size="14.00" fill="#000000">d33tah</text>
</g>
<!-- d33tah&#45;&#45;Miejsce::Miejsce#Klucze do spejsu -->
<g id="edge11" class="edge">
<title>d33tah&#45;&#45;Miejsce::Miejsce#Klucze do spejsu</title>
<path fill="none" stroke="#0061f2" d="M102.1839,-452.1538C190.0739,-452.1538 384.0381,-452.1538 384.0381,-452.1538 384.0381,-452.1538 384.0381,-549.4537 384.0381,-572.2583"/>
</g>
<!-- d33tah&#45;&#45;Infrastruktura#t.me/hakierspejs -->
<g id="edge16" class="edge">
<title>d33tah&#45;&#45;Infrastruktura#t.me/hakierspejs</title>
<path fill="none" stroke="#0061f2" d="M103.5468,-446.6154C167.353,-446.6154 289.309,-446.6154 390.0719,-446.6154"/>
</g>
<!-- d33tah&#45;&#45;Infrastruktura#Meetup -->
<g id="edge14" class="edge">
<title>d33tah&#45;&#45;Infrastruktura#Meetup</title>
<path fill="none" stroke="#0061f2" d="M83.0723,-463.2308C143.0205,-463.2308 298.0381,-463.2308 298.0381,-463.2308 298.0381,-463.2308 298.0381,-693.1429 298.0381,-693.1429 298.0381,-693.1429 393.5578,-693.1429 467.6229,-693.1429"/>
</g>
<!-- d33tah&#45;&#45;Infrastruktura#Domeny -->
<g id="edge15" class="edge">
<title>d33tah&#45;&#45;Infrastruktura#Domeny</title>
<path fill="none" stroke="#0061f2" d="M96.5204,-438.3077C167.8168,-438.3077 318.0381,-438.3077 318.0381,-438.3077 318.0381,-438.3077 318.0381,-286.8 318.0381,-286.8 318.0381,-286.8 389.2596,-286.8 453.2477,-286.8"/>
</g>
<!-- d33tah&#45;&#45;Infrastruktura#Lista mailingowa -->
<g id="edge18" class="edge">
<title>d33tah&#45;&#45;Infrastruktura#Lista mailingowa</title>
<path fill="none" stroke="#0061f2" d="M94.0381,-436.7463C94.0381,-431.5443 94.0381,-426.5 94.0381,-426.5 94.0381,-426.5 410.0381,-426.5 410.0381,-426.5 410.0381,-426.5 410.0381,-354.1619 410.0381,-328.1654"/>
</g>
<!-- Infrastruktura#t.me/hakierspejs_spam -->
<g id="node11" class="node">
<title>Infrastruktura#t.me/hakierspejs_spam</title>
<ellipse fill="none" stroke="#000000" cx="552.8137" cy="-190" rx="193.0657" ry="18"/>
<text text-anchor="middle" x="552.8137" y="-186.3" font-family="Times,serif" font-size="14.00" fill="#000000">Infrastruktura#t.me/hakierspejs_spam</text>
</g>
<!-- d33tah&#45;&#45;Infrastruktura#t.me/hakierspejs_spam -->
<g id="edge8" class="edge">
<title>d33tah&#45;&#45;Infrastruktura#t.me/hakierspejs_spam</title>
<path fill="none" stroke="#0061f2" d="M102.469,-443.8462C187.3026,-443.8462 369.0381,-443.8462 369.0381,-443.8462 369.0381,-443.8462 369.0381,-233.564 369.0381,-195.7789"/>
</g>
<!-- Infrastruktura#IRC -->
<g id="node12" class="node">
<title>Infrastruktura#IRC</title>
<ellipse fill="none" stroke="#000000" cx="552.8137" cy="-233" rx="103.9815" ry="18"/>
<text text-anchor="middle" x="552.8137" y="-229.3" font-family="Times,serif" font-size="14.00" fill="#000000">Infrastruktura#IRC</text>
</g>
<!-- d33tah&#45;&#45;Infrastruktura#IRC -->
<g id="edge9" class="edge">
<title>d33tah&#45;&#45;Infrastruktura#IRC</title>
<path fill="none" stroke="#0061f2" d="M91.2249,-435.5385C159.2479,-435.5385 314.0381,-435.5385 314.0381,-435.5385 314.0381,-435.5385 314.0381,-239 314.0381,-239 314.0381,-239 388.8032,-239 454.6609,-239"/>
</g>
<!-- Infrastruktura#Grafana -->
<g id="node13" class="node">
<title>Infrastruktura#Grafana</title>
<ellipse fill="none" stroke="#000000" cx="552.8137" cy="-534" rx="122.6784" ry="18"/>
<text text-anchor="middle" x="552.8137" y="-530.3" font-family="Times,serif" font-size="14.00" fill="#000000">Infrastruktura#Grafana</text>
</g>
<!-- d33tah&#45;&#45;Infrastruktura#Grafana -->
<g id="edge10" class="edge">
<title>d33tah&#45;&#45;Infrastruktura#Grafana</title>
<path fill="none" stroke="#0061f2" d="M96.6912,-457.6923C165.8441,-457.6923 308.0381,-457.6923 308.0381,-457.6923 308.0381,-457.6923 308.0381,-528 308.0381,-528 308.0381,-528 373.6103,-528 436.8773,-528"/>
</g>
<!-- Infrastruktura#Pad -->
<g id="node14" class="node">
<title>Infrastruktura#Pad</title>
<ellipse fill="none" stroke="#000000" cx="552.8137" cy="-491" rx="102.8821" ry="18"/>
<text text-anchor="middle" x="552.8137" y="-487.3" font-family="Times,serif" font-size="14.00" fill="#000000">Infrastruktura#Pad</text>
</g>
<!-- d33tah&#45;&#45;Infrastruktura#Pad -->
<g id="edge12" class="edge">
<title>d33tah&#45;&#45;Infrastruktura#Pad</title>
<path fill="none" stroke="#0061f2" d="M100.1439,-454.9231C164.705,-454.9231 284.0381,-454.9231 284.0381,-454.9231 284.0381,-454.9231 284.0381,-491 284.0381,-491 284.0381,-491 374.1743,-491 450.0507,-491"/>
</g>
<!-- Infrastruktura#Github -->
<g id="node15" class="node">
<title>Infrastruktura#Github</title>
<ellipse fill="none" stroke="#000000" cx="552.8137" cy="-620" rx="117.7793" ry="18"/>
<text text-anchor="middle" x="552.8137" y="-616.3" font-family="Times,serif" font-size="14.00" fill="#000000">Infrastruktura#Github</text>
</g>
<!-- d33tah&#45;&#45;Infrastruktura#Github -->
<g id="edge13" class="edge">
<title>d33tah&#45;&#45;Infrastruktura#Github</title>
<path fill="none" stroke="#0061f2" d="M91.2252,-460.4615C157.1915,-460.4615 304.0381,-460.4615 304.0381,-460.4615 304.0381,-460.4615 304.0381,-609.2 304.0381,-609.2 304.0381,-609.2 388.0308,-609.2 458.4076,-609.2"/>
</g>
<!-- Infrastruktura#Forum -->
<g id="node16" class="node">
<title>Infrastruktura#Forum</title>
<ellipse fill="none" stroke="#000000" cx="552.8137" cy="-362" rx="116.1796" ry="18"/>
<text text-anchor="middle" x="552.8137" y="-358.3" font-family="Times,serif" font-size="14.00" fill="#000000">Infrastruktura#Forum</text>
</g>
<!-- d33tah&#45;&#45;Infrastruktura#Forum -->
<g id="edge17" class="edge">
<title>d33tah&#45;&#45;Infrastruktura#Forum</title>
<path fill="none" stroke="#0061f2" d="M100.0414,-441.0769C173.3223,-441.0769 321.0381,-441.0769 321.0381,-441.0769 321.0381,-441.0769 321.0381,-368 321.0381,-368 321.0381,-368 383.1278,-368 443.0346,-368"/>
</g>
<!-- Infrastruktura#Hosting -->
<g id="node17" class="node">
<title>Infrastruktura#Hosting</title>
<ellipse fill="none" stroke="#000000" cx="552.8137" cy="-405" rx="122.6784" ry="18"/>
<text text-anchor="middle" x="552.8137" y="-401.3" font-family="Times,serif" font-size="14.00" fill="#000000">Infrastruktura#Hosting</text>
</g>
<!-- d33tah&#45;&#45;Infrastruktura#Hosting -->
<g id="edge19" class="edge">
<title>d33tah&#45;&#45;Infrastruktura#Hosting</title>
<path fill="none" stroke="#0061f2" d="M101.0381,-442.0346C101.0381,-430.7887 101.0381,-407.5714 101.0381,-407.5714 101.0381,-407.5714 297.3427,-407.5714 431.1518,-407.5714"/>
</g>
<!-- cytP450 -->
<g id="node18" class="node">
<title>cytP450</title>
<ellipse fill="none" stroke="#000000" cx="59.7947" cy="-362" rx="49.2915" ry="18"/>
<text text-anchor="middle" x="59.7947" y="-358.3" font-family="Times,serif" font-size="14.00" fill="#000000">cytP450</text>
</g>
<!-- cytP450&#45;&#45;Miejsce::Miejsce#Klucze do spejsu -->
<g id="edge22" class="edge">
<title>cytP450&#45;&#45;Miejsce::Miejsce#Klucze do spejsu</title>
<path fill="none" stroke="#c60077" d="M91.0381,-376.2211C91.0381,-380.2194 91.0381,-383.5 91.0381,-383.5 91.0381,-383.5 386.0381,-383.5 386.0381,-383.5 386.0381,-383.5 386.0381,-539.6913 386.0381,-571.4176"/>
</g>
<!-- cytP450&#45;&#45;Infrastruktura#Domeny -->
<g id="edge20" class="edge">
<title>cytP450&#45;&#45;Infrastruktura#Domeny</title>
<path fill="none" stroke="#c60077" d="M96.8259,-350C159.8084,-350 281.0381,-350 281.0381,-350 281.0381,-350 281.0381,-279.6 281.0381,-279.6 281.0381,-279.6 358.5887,-279.6 430.838,-279.6"/>
</g>
<!-- cytP450&#45;&#45;Infrastruktura#Forum -->
<g id="edge23" class="edge">
<title>cytP450&#45;&#45;Infrastruktura#Forum</title>
<path fill="none" stroke="#c60077" d="M109.3246,-362C185.2052,-362 332.3442,-362 436.2913,-362"/>
</g>
<!-- cytP450&#45;&#45;Infrastruktura#Hosting -->
<g id="edge21" class="edge">
<title>cytP450&#45;&#45;Infrastruktura#Hosting</title>
<path fill="none" stroke="#c60077" d="M98.0381,-373.5539C98.0381,-383.8447 98.0381,-397.2857 98.0381,-397.2857 98.0381,-397.2857 306.9274,-397.2857 441.5631,-397.2857"/>
</g>
<!-- Martti25 -->
<g id="node19" class="node">
<title>Martti25</title>
<ellipse fill="none" stroke="#000000" cx="59.7947" cy="-620" rx="51.9908" ry="18"/>
<text text-anchor="middle" x="59.7947" y="-616.3" font-family="Times,serif" font-size="14.00" fill="#000000">Martti25</text>
</g>
<!-- Martti25&#45;&#45;Infrastruktura#Meetup -->
<g id="edge25" class="edge">
<title>Martti25&#45;&#45;Infrastruktura#Meetup</title>
<path fill="none" stroke="#b6e400" d="M101.5296,-630.8C163.0924,-630.8 271.0381,-630.8 271.0381,-630.8 271.0381,-630.8 271.0381,-703.4286 271.0381,-703.4286 271.0381,-703.4286 355.9124,-703.4286 432.4982,-703.4286"/>
</g>
<!-- Martti25&#45;&#45;Infrastruktura#Github -->
<g id="edge24" class="edge">
<title>Martti25&#45;&#45;Infrastruktura#Github</title>
<path fill="none" stroke="#b6e400" d="M111.1611,-616.4C187.863,-616.4 334.3368,-616.4 437.5205,-616.4"/>
</g>
<!-- Infrastruktura#Konto na Fejsie -->
<g id="node20" class="node">
<title>Infrastruktura#Konto na Fejsie</title>
<ellipse fill="none" stroke="#000000" cx="552.8137" cy="-663" rx="157.0724" ry="18"/>
<text text-anchor="middle" x="552.8137" y="-659.3" font-family="Times,serif" font-size="14.00" fill="#000000">Infrastruktura#Konto na Fejsie</text>
</g>
<!-- Martti25&#45;&#45;Infrastruktura#Konto na Fejsie -->
<g id="edge26" class="edge">
<title>Martti25&#45;&#45;Infrastruktura#Konto na Fejsie</title>
<path fill="none" stroke="#b6e400" d="M110.8357,-623.6C209.3402,-623.6 416.0381,-623.6 416.0381,-623.6 416.0381,-623.6 416.0381,-642.2227 416.0381,-653.8618"/>
</g>
<!-- biniu -->
<g id="node21" class="node">
<title>biniu</title>
<ellipse fill="none" stroke="#000000" cx="59.7947" cy="-706" rx="34.394" ry="18"/>
<text text-anchor="middle" x="59.7947" y="-702.3" font-family="Times,serif" font-size="14.00" fill="#000000">biniu</text>
</g>
<!-- biniu&#45;&#45;Infrastruktura#Meetup -->
<g id="edge27" class="edge">
<title>biniu&#45;&#45;Infrastruktura#Meetup</title>
<path fill="none" stroke="#00ffff" d="M91.0093,-713.7143C160.2787,-713.7143 329.6586,-713.7143 442.8774,-713.7143"/>
</g>
<!-- nikolaad -->
<g id="node22" class="node">
<title>nikolaad</title>
<ellipse fill="none" stroke="#000000" cx="59.7947" cy="-663" rx="50.0912" ry="18"/>
<text text-anchor="middle" x="59.7947" y="-659.3" font-family="Times,serif" font-size="14.00" fill="#000000">nikolaad</text>
</g>
<!-- nikolaad&#45;&#45;Infrastruktura#Meetup -->
<g id="edge28" class="edge">
<title>nikolaad&#45;&#45;Infrastruktura#Meetup</title>
<path fill="none" stroke="#ab00d5" d="M100.0381,-674.0316C100.0381,-687.5186 100.0381,-708.5714 100.0381,-708.5714 100.0381,-708.5714 298.2372,-708.5714 432.37,-708.5714"/>
</g>
<!-- nikolaad&#45;&#45;Infrastruktura#Konto na Fejsie -->
<g id="edge29" class="edge">
<title>nikolaad&#45;&#45;Infrastruktura#Konto na Fejsie</title>
<path fill="none" stroke="#ab00d5" d="M107.0674,-669C174.9126,-669 302.8971,-669 404.3826,-669"/>
</g>
<!-- Keij0 -->
<g id="node23" class="node">
<title>Keij0</title>
<ellipse fill="none" stroke="#000000" cx="59.7947" cy="-577" rx="34.394" ry="18"/>
<text text-anchor="middle" x="59.7947" y="-573.3" font-family="Times,serif" font-size="14.00" fill="#000000">Keij0</text>
</g>
<!-- Keij0&#45;&#45;Infrastruktura#Meetup -->
<g id="edge30" class="edge">
<title>Keij0&#45;&#45;Infrastruktura#Meetup</title>
<path fill="none" stroke="#f29100" d="M92.3337,-583C152.2676,-583 274.0381,-583 274.0381,-583 274.0381,-583 274.0381,-698.2857 274.0381,-698.2857 274.0381,-698.2857 364.7116,-698.2857 442.6342,-698.2857"/>
</g>
<!-- Keij0&#45;&#45;Infrastruktura#Hosting -->
<g id="edge31" class="edge">
<title>Keij0&#45;&#45;Infrastruktura#Hosting</title>
<path fill="none" stroke="#f29100" d="M92.4358,-571C156.1781,-571 291.0381,-571 291.0381,-571 291.0381,-571 291.0381,-417.8571 291.0381,-417.8571 291.0381,-417.8571 390.4384,-417.8571 466.736,-417.8571"/>
</g>
<!-- BluRaf -->
<g id="node24" class="node">
<title>BluRaf</title>
<ellipse fill="none" stroke="#000000" cx="59.7947" cy="-168" rx="42.4939" ry="18"/>
<text text-anchor="middle" x="59.7947" y="-164.3" font-family="Times,serif" font-size="14.00" fill="#000000">BluRaf</text>
</g>
<!-- BluRaf&#45;&#45;Infrastruktura#t.me/hakierspejs -->
<g id="edge37" class="edge">
<title>BluRaf&#45;&#45;Infrastruktura#t.me/hakierspejs</title>
<path fill="none" stroke="#00c64f" d="M93.4178,-179C161.8793,-179 311.0381,-179 311.0381,-179 311.0381,-179 311.0381,-432.7692 311.0381,-432.7692 311.0381,-432.7692 396.554,-432.7692 465.8687,-432.7692"/>
</g>
<!-- BluRaf&#45;&#45;Infrastruktura#t.me/hakierspejs_spam -->
<g id="edge34" class="edge">
<title>BluRaf&#45;&#45;Infrastruktura#t.me/hakierspejs_spam</title>
<path fill="none" stroke="#00c64f" d="M98.4811,-175.5C170.8377,-175.5 329.1917,-175.5 438.4224,-175.5"/>
</g>
<!-- BluRaf&#45;&#45;Infrastruktura#IRC -->
<g id="edge35" class="edge">
<title>BluRaf&#45;&#45;Infrastruktura#IRC</title>
<path fill="none" stroke="#00c64f" d="M96.0381,-177.4794C96.0381,-194.1573 96.0381,-227 96.0381,-227 96.0381,-227 320.2955,-227 454.5434,-227"/>
</g>
<!-- BluRaf&#45;&#45;Infrastruktura#Konto na Fejsie -->
<g id="edge36" class="edge">
<title>BluRaf&#45;&#45;Infrastruktura#Konto na Fejsie</title>
<path fill="none" stroke="#00c64f" d="M85.156,-182.5C147.0943,-182.5 301.0381,-182.5 301.0381,-182.5 301.0381,-182.5 301.0381,-657 301.0381,-657 301.0381,-657 349.6607,-657 404.1713,-657"/>
</g>
<!-- Infrastruktura#hs&#45;ldz:hackerspace.pl -->
<g id="node25" class="node">
<title>Infrastruktura#hs&#45;ldz:hackerspace.pl</title>
<ellipse fill="none" stroke="#000000" cx="552.8137" cy="-147" rx="186.5669" ry="18"/>
<text text-anchor="middle" x="552.8137" y="-143.3" font-family="Times,serif" font-size="14.00" fill="#000000">Infrastruktura#hs&#45;ldz:hackerspace.pl</text>
</g>
<!-- BluRaf&#45;&#45;Infrastruktura#hs&#45;ldz:hackerspace.pl -->
<g id="edge32" class="edge">
<title>BluRaf&#45;&#45;Infrastruktura#hs&#45;ldz:hackerspace.pl</title>
<path fill="none" stroke="#00c64f" d="M97.6624,-160C166.4907,-160 315.0302,-160 423.77,-160"/>
</g>
<!-- Infrastruktura#Konfident -->
<g id="node26" class="node">
<title>Infrastruktura#Konfident</title>
<ellipse fill="none" stroke="#000000" cx="552.8137" cy="-104" rx="130.777" ry="18"/>
<text text-anchor="middle" x="552.8137" y="-100.3" font-family="Times,serif" font-size="14.00" fill="#000000">Infrastruktura#Konfident</text>
</g>
<!-- BluRaf&#45;&#45;Infrastruktura#Konfident -->
<g id="edge33" class="edge">
<title>BluRaf&#45;&#45;Infrastruktura#Konfident</title>
<path fill="none" stroke="#00c64f" d="M74.0381,-150.8492C74.0381,-131.8916 74.0381,-104 74.0381,-104 74.0381,-104 280.2295,-104 421.9862,-104"/>
</g>
<!-- Infrastruktura#Mumble -->
<g id="node27" class="node">
<title>Infrastruktura#Mumble</title>
<ellipse fill="none" stroke="#000000" cx="552.8137" cy="-61" rx="124.2781" ry="18"/>
<text text-anchor="middle" x="552.8137" y="-57.3" font-family="Times,serif" font-size="14.00" fill="#000000">Infrastruktura#Mumble</text>
</g>
<!-- BluRaf&#45;&#45;Infrastruktura#Mumble -->
<g id="edge38" class="edge">
<title>BluRaf&#45;&#45;Infrastruktura#Mumble</title>
<path fill="none" stroke="#00c64f" d="M46.0381,-150.8086C46.0381,-120.5622 46.0381,-61 46.0381,-61 46.0381,-61 278.4769,-61 428.5181,-61"/>
</g>
<!-- Infrastruktura#hs&#45;ldz&#45;offtopic:hackerspace.pl -->
<g id="node28" class="node">
<title>Infrastruktura#hs&#45;ldz&#45;offtopic:hackerspace.pl</title>
<ellipse fill="none" stroke="#000000" cx="552.8137" cy="-18" rx="225.56" ry="18"/>
<text text-anchor="middle" x="552.8137" y="-14.3" font-family="Times,serif" font-size="14.00" fill="#000000">Infrastruktura#hs&#45;ldz&#45;offtopic:hackerspace.pl</text>
</g>
<!-- BluRaf&#45;&#45;Infrastruktura#hs&#45;ldz&#45;offtopic:hackerspace.pl -->
<g id="edge39" class="edge">
<title>BluRaf&#45;&#45;Infrastruktura#hs&#45;ldz&#45;offtopic:hackerspace.pl</title>
<path fill="none" stroke="#00c64f" d="M89.1431,-155C161.7668,-155 344.0381,-155 344.0381,-155 344.0381,-155 344.0381,-52.9001 344.0381,-24.9822"/>
</g>
<!-- kpc -->
<g id="node29" class="node">
<title>kpc</title>
<ellipse fill="none" stroke="#000000" cx="59.7947" cy="-405" rx="27.8951" ry="18"/>
<text text-anchor="middle" x="59.7947" y="-401.3" font-family="Times,serif" font-size="14.00" fill="#000000">kpc</text>
</g>
<!-- kpc&#45;&#45;Infrastruktura#Hosting -->
<g id="edge40" class="edge">
<title>kpc&#45;&#45;Infrastruktura#Hosting</title>
<path fill="none" stroke="#2e00e4" d="M87.7141,-402.4286C152.4911,-402.4286 316.2186,-402.4286 430.9933,-402.4286"/>
</g>
<!-- thinkofher -->
<g id="node30" class="node">
<title>thinkofher</title>
<ellipse fill="none" stroke="#000000" cx="59.7947" cy="-319" rx="59.5901" ry="18"/>
<text text-anchor="middle" x="59.7947" y="-315.3" font-family="Times,serif" font-size="14.00" fill="#000000">thinkofher</text>
</g>
<!-- thinkofher&#45;&#45;Infrastruktura#Forum -->
<g id="edge42" class="edge">
<title>thinkofher&#45;&#45;Infrastruktura#Forum</title>
<path fill="none" stroke="#ff0000" d="M116.3057,-313C180.6739,-313 277.0381,-313 277.0381,-313 277.0381,-313 277.0381,-356 277.0381,-356 277.0381,-356 366.1225,-356 443.0275,-356"/>
</g>
<!-- thinkofher&#45;&#45;Infrastruktura#Hosting -->
<g id="edge41" class="edge">
<title>thinkofher&#45;&#45;Infrastruktura#Hosting</title>
<path fill="none" stroke="#ff0000" d="M116.4249,-325C177.7858,-325 267.0381,-325 267.0381,-325 267.0381,-325 267.0381,-392.1429 267.0381,-392.1429 267.0381,-392.1429 382.5395,-392.1429 466.6841,-392.1429"/>
</g>
<!-- pmysl -->
<g id="node31" class="node">
<title>pmysl</title>
<ellipse fill="none" stroke="#000000" cx="59.7947" cy="-491" rx="38.1938" ry="18"/>
<text text-anchor="middle" x="59.7947" y="-487.3" font-family="Times,serif" font-size="14.00" fill="#000000">pmysl</text>
</g>
<!-- pmysl&#45;&#45;Miejsce::Miejsce#Klucze do spejsu -->
<g id="edge45" class="edge">
<title>pmysl&#45;&#45;Miejsce::Miejsce#Klucze do spejsu</title>
<path fill="none" stroke="#2bd500" d="M88.3916,-503C167.2567,-503 382.0381,-503 382.0381,-503 382.0381,-503 382.0381,-557.6509 382.0381,-573.0214"/>
</g>
<!-- pmysl&#45;&#45;Infrastruktura#Grafana -->
<g id="edge43" class="edge">
<title>pmysl&#45;&#45;Infrastruktura#Grafana</title>
<path fill="none" stroke="#2bd500" d="M96.0049,-497C191.1696,-497 441.0381,-497 441.0381,-497 441.0381,-497 441.0381,-515.701 441.0381,-526.5125"/>
</g>
<!-- pmysl&#45;&#45;Infrastruktura#Forum -->
<g id="edge46" class="edge">
<title>pmysl&#45;&#45;Infrastruktura#Forum</title>
<path fill="none" stroke="#2bd500" d="M88.5764,-479C157.0625,-479 324.0381,-479 324.0381,-479 324.0381,-479 324.0381,-374 324.0381,-374 324.0381,-374 401.2783,-374 465.9972,-374"/>
</g>
<!-- pmysl&#45;&#45;Infrastruktura#Hosting -->
<g id="edge44" class="edge">
<title>pmysl&#45;&#45;Infrastruktura#Hosting</title>
<path fill="none" stroke="#2bd500" d="M95.9605,-485C160.319,-485 288.0381,-485 288.0381,-485 288.0381,-485 288.0381,-412.7143 288.0381,-412.7143 288.0381,-412.7143 369.2172,-412.7143 441.6759,-412.7143"/>
</g>
<!-- nuke -->
<g id="node32" class="node">
<title>nuke</title>
<ellipse fill="none" stroke="#000000" cx="59.7947" cy="-534" rx="33.5952" ry="18"/>
<text text-anchor="middle" x="59.7947" y="-530.3" font-family="Times,serif" font-size="14.00" fill="#000000">nuke</text>
</g>
<!-- nuke&#45;&#45;Miejsce::Miejsce#Klucze do spejsu -->
<g id="edge47" class="edge">
<title>nuke&#45;&#45;Miejsce::Miejsce#Klucze do spejsu</title>
<path fill="none" stroke="#0061f2" d="M91.6716,-540C172.6734,-540 380.0381,-540 380.0381,-540 380.0381,-540 380.0381,-565.3743 380.0381,-574.0967"/>
</g>
<!-- ksiezak -->
<g id="node33" class="node">
<title>ksiezak</title>
<ellipse fill="none" stroke="#000000" cx="59.7947" cy="-835" rx="46.2923" ry="18"/>
<text text-anchor="middle" x="59.7947" y="-831.3" font-family="Times,serif" font-size="14.00" fill="#000000">ksiezak</text>
</g>
<!-- Współdzielony&#45;kalendarz&#45;i&#45;lista&#45;kontaktów#Założenie konta -->
<g id="node34" class="node">
<title>Współdzielony&#45;kalendarz&#45;i&#45;lista&#45;kontaktów#Założenie konta</title>
<ellipse fill="none" stroke="#000000" cx="552.8137" cy="-835" rx="289.4488" ry="18"/>
<text text-anchor="middle" x="552.8137" y="-831.3" font-family="Times,serif" font-size="14.00" fill="#000000">Współdzielony&#45;kalendarz&#45;i&#45;lista&#45;kontaktów#Założenie konta</text>
</g>
<!-- ksiezak&#45;&#45;Współdzielony&#45;kalendarz&#45;i&#45;lista&#45;kontaktów#Założenie konta -->
<g id="edge48" class="edge">
<title>ksiezak&#45;&#45;Współdzielony&#45;kalendarz&#45;i&#45;lista&#45;kontaktów#Założenie konta</title>
<path fill="none" stroke="#c60077" d="M106.1767,-835C144.4101,-835 202.167,-835 263.5729,-835"/>
</g>
</g>
</svg>
