<?xml version="1.0" encoding="UTF-8" standalone="no"?>
<!DOCTYPE svg PUBLIC "-//W3C//DTD SVG 1.1//EN"
 "http://www.w3.org/Graphics/SVG/1.1/DTD/svg11.dtd">
<!-- Generated by graphviz version 2.42.4 (0)
 -->
<!-- Pages: 1 -->
<svg width="1001pt" height="1543pt"
 viewBox="0.00 0.00 1000.82 1543.00" xmlns="http://www.w3.org/2000/svg" xmlns:xlink="http://www.w3.org/1999/xlink">
<g id="graph0" class="graph" transform="scale(1 1) rotate(0) translate(4 1539)">
<polygon fill="white" stroke="transparent" points="-4,4 -4,-1539 996.82,-1539 996.82,4 -4,4"/>
<!-- d33tah -->
<g id="node1" class="node">
<title>d33tah</title>
<ellipse fill="none" stroke="black" cx="71.49" cy="-1044" rx="43.59" ry="18"/>
<text text-anchor="middle" x="71.49" y="-1040.3" font-family="Times,serif" font-size="14.00">d33tah</text>
</g>
<!-- Infrastruktura::Telegram#G贸wny: t.me/hakierspejs -->
<g id="node2" class="node">
<title>Infrastruktura::Telegram#G贸wny: t.me/hakierspejs</title>
<ellipse fill="none" stroke="black" cx="639.91" cy="-958" rx="251.56" ry="18"/>
<text text-anchor="middle" x="639.91" y="-954.3" font-family="Times,serif" font-size="14.00">Infrastruktura::Telegram#G贸wny: t.me/hakierspejs</text>
</g>
<!-- d33tah&#45;&#45;Infrastruktura::Telegram#G贸wny: t.me/hakierspejs -->
<g id="edge1" class="edge">
<title>d33tah&#45;&#45;Infrastruktura::Telegram#G贸wny: t.me/hakierspejs</title>
<path fill="none" stroke="#ff0000" d="M114.96,-1041.75C204,-1041.75 398.82,-1041.75 398.82,-1041.75 398.82,-1041.75 398.82,-982.13 398.82,-963.5"/>
</g>
<!-- Bazy&#45;danych#Pad -->
<g id="node3" class="node">
<title>Bazy&#45;danych#Pad</title>
<ellipse fill="none" stroke="black" cx="639.91" cy="-1216" rx="94.48" ry="18"/>
<text text-anchor="middle" x="639.91" y="-1212.3" font-family="Times,serif" font-size="14.00">Bazy&#45;danych#Pad</text>
</g>
<!-- d33tah&#45;&#45;Bazy&#45;danych#Pad -->
<g id="edge2" class="edge">
<title>d33tah&#45;&#45;Bazy&#45;danych#Pad</title>
<path fill="none" stroke="#ff0000" d="M105.64,-1055.25C171.54,-1055.25 309.82,-1055.25 309.82,-1055.25 309.82,-1055.25 309.82,-1216 309.82,-1216 309.82,-1216 447.78,-1216 545.32,-1216"/>
</g>
<!-- Stowarzyszenie#Zarzd -->
<g id="node4" class="node">
<title>Stowarzyszenie#Zarzd</title>
<ellipse fill="none" stroke="black" cx="639.91" cy="-313" rx="123.48" ry="18"/>
<text text-anchor="middle" x="639.91" y="-309.3" font-family="Times,serif" font-size="14.00">Stowarzyszenie#Zarzd</text>
</g>
<!-- d33tah&#45;&#45;Stowarzyszenie#Zarzd -->
<g id="edge3" class="edge">
<title>d33tah&#45;&#45;Stowarzyszenie#Zarzd</title>
<path fill="none" stroke="#ff0000" d="M92.91,-1028.25C120.18,-1028.25 163.82,-1028.25 163.82,-1028.25 163.82,-1028.25 163.82,-319 163.82,-319 163.82,-319 382.5,-319 523.44,-319"/>
</g>
<!-- Infrastruktura::Telegram#posty: t.me/hakierspejs_spam -->
<g id="node5" class="node">
<title>Infrastruktura::Telegram#posty: t.me/hakierspejs_spam</title>
<ellipse fill="none" stroke="black" cx="639.91" cy="-829" rx="284.05" ry="18"/>
<text text-anchor="middle" x="639.91" y="-825.3" font-family="Times,serif" font-size="14.00">Infrastruktura::Telegram#posty: t.me/hakierspejs_spam</text>
</g>
<!-- d33tah&#45;&#45;Infrastruktura::Telegram#posty: t.me/hakierspejs_spam -->
<g id="edge4" class="edge">
<title>d33tah&#45;&#45;Infrastruktura::Telegram#posty: t.me/hakierspejs_spam</title>
<path fill="none" stroke="#ff0000" d="M113.71,-1039.5C196.64,-1039.5 372.82,-1039.5 372.82,-1039.5 372.82,-1039.5 372.82,-871.06 372.82,-835.53"/>
</g>
<!-- Drzwi&#45;frontowe#Ekran  -->
<g id="node6" class="node">
<title>Drzwi&#45;frontowe#Ekran </title>
<ellipse fill="none" stroke="black" cx="639.91" cy="-1173" rx="120.78" ry="18"/>
<text text-anchor="middle" x="639.91" y="-1169.3" font-family="Times,serif" font-size="14.00">Drzwi&#45;frontowe#Ekran </text>
</g>
<!-- d33tah&#45;&#45;Drzwi&#45;frontowe#Ekran  -->
<g id="edge5" class="edge">
<title>d33tah&#45;&#45;Drzwi&#45;frontowe#Ekran </title>
<path fill="none" stroke="black" d="M109.39,-1053C179.6,-1053 322.82,-1053 322.82,-1053 322.82,-1053 322.82,-1160 322.82,-1160 322.82,-1160 462.24,-1160 556.18,-1160"/>
</g>
<!-- Infrastruktura::Mariuszbot#Mariuszbot -->
<g id="node10" class="node">
<title>Infrastruktura::Mariuszbot#Mariuszbot</title>
<ellipse fill="none" stroke="black" cx="639.91" cy="-1130" rx="196.07" ry="18"/>
<text text-anchor="middle" x="639.91" y="-1126.3" font-family="Times,serif" font-size="14.00">Infrastruktura::Mariuszbot#Mariuszbot</text>
</g>
<!-- d33tah&#45;&#45;Infrastruktura::Mariuszbot#Mariuszbot -->
<g id="edge6" class="edge">
<title>d33tah&#45;&#45;Infrastruktura::Mariuszbot#Mariuszbot</title>
<path fill="none" stroke="#ff0000" d="M114.04,-1048.5C218.62,-1048.5 479.82,-1048.5 479.82,-1048.5 479.82,-1048.5 479.82,-1097.25 479.82,-1119.35"/>
</g>
<!-- Marketing&#45;i&#45;media&#45;spoecznociowe# -->
<g id="node11" class="node">
<title>Marketing&#45;i&#45;media&#45;spoecznociowe#</title>
<ellipse fill="none" stroke="black" cx="639.91" cy="-700" rx="183.07" ry="18"/>
<text text-anchor="middle" x="639.91" y="-696.3" font-family="Times,serif" font-size="14.00">Marketing&#45;i&#45;media&#45;spoecznociowe#</text>
</g>
<!-- d33tah&#45;&#45;Marketing&#45;i&#45;media&#45;spoecznociowe# -->
<g id="edge7" class="edge">
<title>d33tah&#45;&#45;Marketing&#45;i&#45;media&#45;spoecznociowe#</title>
<path fill="none" stroke="#ff0000" d="M109.29,-1035C173.23,-1035 295.82,-1035 295.82,-1035 295.82,-1035 295.82,-706.67 295.82,-706.67 295.82,-706.67 383.03,-706.67 469.63,-706.67"/>
</g>
<!-- Infrastruktura::Github#Github -->
<g id="node12" class="node">
<title>Infrastruktura::Github#Github</title>
<ellipse fill="none" stroke="black" cx="639.91" cy="-915" rx="154.07" ry="18"/>
<text text-anchor="middle" x="639.91" y="-911.3" font-family="Times,serif" font-size="14.00">Infrastruktura::Github#Github</text>
</g>
<!-- d33tah&#45;&#45;Infrastruktura::Github#Github -->
<g id="edge8" class="edge">
<title>d33tah&#45;&#45;Infrastruktura::Github#Github</title>
<path fill="none" stroke="#ff0000" d="M111.97,-1037.25C187.83,-1037.25 343.82,-1037.25 343.82,-1037.25 343.82,-1037.25 343.82,-930.67 343.82,-930.67 343.82,-930.67 476.32,-930.67 564.04,-930.67"/>
</g>
<!-- Kanay&#45;komunikacji# -->
<g id="node13" class="node">
<title>Kanay&#45;komunikacji#</title>
<ellipse fill="none" stroke="black" cx="639.91" cy="-872" rx="108.58" ry="18"/>
<text text-anchor="middle" x="639.91" y="-868.3" font-family="Times,serif" font-size="14.00">Kanay&#45;komunikacji#</text>
</g>
<!-- d33tah&#45;&#45;Kanay&#45;komunikacji# -->
<g id="edge9" class="edge">
<title>d33tah&#45;&#45;Kanay&#45;komunikacji#</title>
<path fill="none" stroke="#ff0000" d="M105.59,-1032.75C164.91,-1032.75 280.82,-1032.75 280.82,-1032.75 280.82,-1032.75 280.82,-881.12 280.82,-881.12 280.82,-881.12 439.64,-881.12 546.03,-881.12"/>
</g>
<!-- Bazy&#45;danych#Grafana -->
<g id="node14" class="node">
<title>Bazy&#45;danych#Grafana</title>
<ellipse fill="none" stroke="black" cx="639.91" cy="-1044" rx="114.28" ry="18"/>
<text text-anchor="middle" x="639.91" y="-1040.3" font-family="Times,serif" font-size="14.00">Bazy&#45;danych#Grafana</text>
</g>
<!-- d33tah&#45;&#45;Bazy&#45;danych#Grafana -->
<g id="edge10" class="edge">
<title>d33tah&#45;&#45;Bazy&#45;danych#Grafana</title>
<path fill="none" stroke="#ff0000" d="M115.15,-1044C202.04,-1044 399.13,-1044 525.5,-1044"/>
</g>
<!-- Infrastruktura::Telegram#Spacerspejs: t.me/joinchat/UYf2ONtNj21J1DS6 -->
<g id="node15" class="node">
<title>Infrastruktura::Telegram#Spacerspejs: t.me/joinchat/UYf2ONtNj21J1DS6</title>
<ellipse fill="none" stroke="black" cx="639.91" cy="-1345" rx="352.84" ry="18"/>
<text text-anchor="middle" x="639.91" y="-1341.3" font-family="Times,serif" font-size="14.00">Infrastruktura::Telegram#Spacerspejs: t.me/joinchat/UYf2ONtNj21J1DS6</text>
</g>
<!-- d33tah&#45;&#45;Infrastruktura::Telegram#Spacerspejs: t.me/joinchat/UYf2ONtNj21J1DS6 -->
<g id="edge11" class="edge">
<title>d33tah&#45;&#45;Infrastruktura::Telegram#Spacerspejs: t.me/joinchat/UYf2ONtNj21J1DS6</title>
<path fill="none" stroke="#ff0000" d="M100.32,-1057.5C162.34,-1057.5 302.82,-1057.5 302.82,-1057.5 302.82,-1057.5 302.82,-1299.77 302.82,-1339.51"/>
</g>
<!-- Infrastruktura::Domeny#Domeny -->
<g id="node16" class="node">
<title>Infrastruktura::Domeny#Domeny</title>
<ellipse fill="none" stroke="black" cx="639.91" cy="-786" rx="167.07" ry="18"/>
<text text-anchor="middle" x="639.91" y="-782.3" font-family="Times,serif" font-size="14.00">Infrastruktura::Domeny#Domeny</text>
</g>
<!-- d33tah&#45;&#45;Infrastruktura::Domeny#Domeny -->
<g id="edge12" class="edge">
<title>d33tah&#45;&#45;Infrastruktura::Domeny#Domeny</title>
<path fill="none" stroke="#ff0000" d="M100.55,-1030.5C132.03,-1030.5 177.82,-1030.5 177.82,-1030.5 177.82,-1030.5 177.82,-788.67 177.82,-788.67 177.82,-788.67 341.8,-788.67 474.39,-788.67"/>
</g>
<!-- Infrastruktura::IRC#IRC -->
<g id="node17" class="node">
<title>Infrastruktura::IRC#IRC</title>
<ellipse fill="none" stroke="black" cx="639.91" cy="-1087" rx="124.58" ry="18"/>
<text text-anchor="middle" x="639.91" y="-1083.3" font-family="Times,serif" font-size="14.00">Infrastruktura::IRC#IRC</text>
</g>
<!-- d33tah&#45;&#45;Infrastruktura::IRC#IRC -->
<g id="edge13" class="edge">
<title>d33tah&#45;&#45;Infrastruktura::IRC#IRC</title>
<path fill="none" stroke="#ff0000" d="M114.79,-1046.25C227.06,-1046.25 518.82,-1046.25 518.82,-1046.25 518.82,-1046.25 518.82,-1072.13 518.82,-1082.64"/>
</g>
<!-- Infrastruktura::Telegram#HS24: t.me/hsl_info -->
<g id="node18" class="node">
<title>Infrastruktura::Telegram#HS24: t.me/hsl_info</title>
<ellipse fill="none" stroke="black" cx="639.91" cy="-1302" rx="231.26" ry="18"/>
<text text-anchor="middle" x="639.91" y="-1298.3" font-family="Times,serif" font-size="14.00">Infrastruktura::Telegram#HS24: t.me/hsl_info</text>
</g>
<!-- d33tah&#45;&#45;Infrastruktura::Telegram#HS24: t.me/hsl_info -->
<g id="edge14" class="edge">
<title>d33tah&#45;&#45;Infrastruktura::Telegram#HS24: t.me/hsl_info</title>
<path fill="none" stroke="#ff0000" d="M111.91,-1050.75C205.04,-1050.75 426.82,-1050.75 426.82,-1050.75 426.82,-1050.75 426.82,-1253.56 426.82,-1294.75"/>
</g>
<!-- Bazy&#45;danych#Trello -->
<g id="node19" class="node">
<title>Bazy&#45;danych#Trello</title>
<ellipse fill="none" stroke="black" cx="639.91" cy="-1259" rx="103.98" ry="18"/>
<text text-anchor="middle" x="639.91" y="-1255.3" font-family="Times,serif" font-size="14.00">Bazy&#45;danych#Trello</text>
</g>
<!-- d33tah&#45;&#45;Bazy&#45;danych#Trello -->
<g id="edge15" class="edge">
<title>d33tah&#45;&#45;Bazy&#45;danych#Trello</title>
<path fill="none" stroke="#ff0000" d="M92.81,-1059.75C125.64,-1059.75 184.82,-1059.75 184.82,-1059.75 184.82,-1059.75 184.82,-1256.5 184.82,-1256.5 184.82,-1256.5 402.37,-1256.5 536.64,-1256.5"/>
</g>
<!-- nastpne -->
<g id="node7" class="node">
<title>nastpne</title>
<ellipse fill="none" stroke="black" cx="71.49" cy="-1147" rx="53.09" ry="18"/>
<text text-anchor="middle" x="71.49" y="-1143.3" font-family="Times,serif" font-size="14.00">nastpne</text>
</g>
<!-- spotkanie -->
<g id="node8" class="node">
<title>spotkanie</title>
<ellipse fill="none" stroke="black" cx="71.49" cy="-1254" rx="55.79" ry="18"/>
<text text-anchor="middle" x="71.49" y="-1250.3" font-family="Times,serif" font-size="14.00">spotkanie</text>
</g>
<g id="node9" class="node">
<title></title>
<ellipse fill="none" stroke="#ff0000" cx="71.49" cy="-1329" rx="27" ry="18"/>
</g>
<!-- q3k -->
<g id="node20" class="node">
<title>q3k</title>
<ellipse fill="none" stroke="black" cx="71.49" cy="-781" rx="27.9" ry="18"/>
<text text-anchor="middle" x="71.49" y="-777.3" font-family="Times,serif" font-size="14.00">q3k</text>
</g>
<!-- q3k&#45;&#45;Kanay&#45;komunikacji# -->
<g id="edge16" class="edge">
<title>q3k&#45;&#45;Kanay&#45;komunikacji#</title>
<path fill="none" stroke="#2bd500" d="M91.3,-793.83C129.98,-793.83 211.82,-793.83 211.82,-793.83 211.82,-793.83 211.82,-861.75 211.82,-861.75 211.82,-861.75 424.93,-861.75 550.43,-861.75"/>
</g>
<!-- q3k&#45;&#45;Infrastruktura::Domeny#Domeny -->
<g id="edge17" class="edge">
<title>q3k&#45;&#45;Infrastruktura::Domeny#Domeny</title>
<path fill="none" stroke="#2bd500" d="M99.29,-783.5C166.38,-783.5 341.43,-783.5 474.32,-783.5"/>
</g>
<!-- Marketing&#45;i&#45;media&#45;spoecznociowe#Logo nr. 2 -->
<g id="node21" class="node">
<title>Marketing&#45;i&#45;media&#45;spoecznociowe#Logo nr. 2</title>
<ellipse fill="none" stroke="black" cx="639.91" cy="-657" rx="229.36" ry="18"/>
<text text-anchor="middle" x="639.91" y="-653.3" font-family="Times,serif" font-size="14.00">Marketing&#45;i&#45;media&#45;spoecznociowe#Logo nr. 2</text>
</g>
<!-- q3k&#45;&#45;Marketing&#45;i&#45;media&#45;spoecznociowe#Logo nr. 2 -->
<g id="edge18" class="edge">
<title>q3k&#45;&#45;Marketing&#45;i&#45;media&#45;spoecznociowe#Logo nr. 2</title>
<path fill="none" stroke="#2bd500" d="M99.3,-778.33C181.03,-778.33 414.82,-778.33 414.82,-778.33 414.82,-778.33 414.82,-680.39 414.82,-660.5"/>
</g>
<!-- thinkofher -->
<g id="node22" class="node">
<title>thinkofher</title>
<ellipse fill="none" stroke="black" cx="71.49" cy="-937" rx="59.29" ry="18"/>
<text text-anchor="middle" x="71.49" y="-933.3" font-family="Times,serif" font-size="14.00">thinkofher</text>
</g>
<!-- thinkofher&#45;&#45;Infrastruktura::Telegram#G贸wny: t.me/hakierspejs -->
<g id="edge19" class="edge">
<title>thinkofher&#45;&#45;Infrastruktura::Telegram#G贸wny: t.me/hakierspejs</title>
<path fill="none" stroke="#0061f2" d="M119.96,-947.5C189.49,-947.5 321.73,-947.5 435.44,-947.5"/>
</g>
<!-- thinkofher&#45;&#45;Marketing&#45;i&#45;media&#45;spoecznociowe# -->
<g id="edge20" class="edge">
<title>thinkofher&#45;&#45;Marketing&#45;i&#45;media&#45;spoecznociowe#</title>
<path fill="none" stroke="#0061f2" d="M100.76,-921.33C130.06,-921.33 170.82,-921.33 170.82,-921.33 170.82,-921.33 170.82,-704.33 170.82,-704.33 170.82,-704.33 329.2,-704.33 461.9,-704.33"/>
</g>
<!-- thinkofher&#45;&#45;Infrastruktura::Github#Github -->
<g id="edge21" class="edge">
<title>thinkofher&#45;&#45;Infrastruktura::Github#Github</title>
<path fill="none" stroke="#0061f2" d="M118.49,-926C205.2,-926 392.88,-926 517.8,-926"/>
</g>
<!-- thinkofher&#45;&#45;Kanay&#45;komunikacji# -->
<g id="edge22" class="edge">
<title>thinkofher&#45;&#45;Kanay&#45;komunikacji#</title>
<path fill="none" stroke="#0061f2" d="M111.49,-923.67C168.64,-923.67 266.82,-923.67 266.82,-923.67 266.82,-923.67 266.82,-873.38 266.82,-873.38 266.82,-873.38 421.34,-873.38 531.49,-873.38"/>
</g>
<!-- thinkofher&#45;&#45;Infrastruktura::IRC#IRC -->
<g id="edge24" class="edge">
<title>thinkofher&#45;&#45;Infrastruktura::IRC#IRC</title>
<path fill="none" stroke="#0061f2" d="M118.82,-947.82C118.82,-981.31 118.82,-1081 118.82,-1081 118.82,-1081 368.28,-1081 521.99,-1081"/>
</g>
<!-- Bazy&#45;danych# -->
<g id="node23" class="node">
<title>Bazy&#45;danych#</title>
<ellipse fill="none" stroke="black" cx="639.91" cy="-1001" rx="77.19" ry="18"/>
<text text-anchor="middle" x="639.91" y="-997.3" font-family="Times,serif" font-size="14.00">Bazy&#45;danych#</text>
</g>
<!-- thinkofher&#45;&#45;Bazy&#45;danych# -->
<g id="edge23" class="edge">
<title>thinkofher&#45;&#45;Bazy&#45;danych#</title>
<path fill="none" stroke="#0061f2" d="M121.82,-946.6C121.82,-963.88 121.82,-998.43 121.82,-998.43 121.82,-998.43 418.97,-998.43 563.18,-998.43"/>
</g>
<!-- cytP450 -->
<g id="node24" class="node">
<title>cytP450</title>
<ellipse fill="none" stroke="black" cx="71.49" cy="-620" rx="48.99" ry="18"/>
<text text-anchor="middle" x="71.49" y="-616.3" font-family="Times,serif" font-size="14.00">cytP450</text>
</g>
<!-- cytP450&#45;&#45;Kanay&#45;komunikacji# -->
<g id="edge26" class="edge">
<title>cytP450&#45;&#45;Kanay&#45;komunikacji#</title>
<path fill="none" stroke="#c60077" d="M117.71,-626C160.91,-626 218.82,-626 218.82,-626 218.82,-626 218.82,-857.88 218.82,-857.88 218.82,-857.88 453.22,-857.88 572.25,-857.88"/>
</g>
<!-- cytP450&#45;&#45;Infrastruktura::Domeny#Domeny -->
<g id="edge29" class="edge">
<title>cytP450&#45;&#45;Infrastruktura::Domeny#Domeny</title>
<path fill="none" stroke="#c60077" d="M120.34,-620C167.82,-620 232.82,-620 232.82,-620 232.82,-620 232.82,-773.17 232.82,-773.17 232.82,-773.17 402.45,-773.17 522.71,-773.17"/>
</g>
<!-- Przegld&#45;lokali&#45;na&#45;wynajem&#45;w&#45;odzi.&#45;Fundusz&#45;1000&#45;&#45;&#45;1500.#Bot Aleksego -->
<g id="node25" class="node">
<title>Przegld&#45;lokali&#45;na&#45;wynajem&#45;w&#45;odzi.&#45;Fundusz&#45;1000&#45;&#45;&#45;1500.#Bot Aleksego</title>
<ellipse fill="none" stroke="black" cx="639.91" cy="-528" rx="351.74" ry="18"/>
<text text-anchor="middle" x="639.91" y="-524.3" font-family="Times,serif" font-size="14.00">Przegld&#45;lokali&#45;na&#45;wynajem&#45;w&#45;odzi.&#45;Fundusz&#45;1000&#45;&#45;&#45;1500.#Bot Aleksego</text>
</g>
<!-- cytP450&#45;&#45;Przegld&#45;lokali&#45;na&#45;wynajem&#45;w&#45;odzi.&#45;Fundusz&#45;1000&#45;&#45;&#45;1500.#Bot Aleksego -->
<g id="edge25" class="edge">
<title>cytP450&#45;&#45;Przegld&#45;lokali&#45;na&#45;wynajem&#45;w&#45;odzi.&#45;Fundusz&#45;1000&#45;&#45;&#45;1500.#Bot Aleksego</title>
<path fill="none" stroke="#c60077" d="M116.82,-613.13C116.82,-593.06 116.82,-536 116.82,-536 116.82,-536 214.06,-536 324.69,-536"/>
</g>
<!-- Chciejlista#DIY -->
<g id="node26" class="node">
<title>Chciejlista#DIY</title>
<ellipse fill="none" stroke="black" cx="639.91" cy="-485" rx="83.69" ry="18"/>
<text text-anchor="middle" x="639.91" y="-481.3" font-family="Times,serif" font-size="14.00">Chciejlista#DIY</text>
</g>
<!-- cytP450&#45;&#45;Chciejlista#DIY -->
<g id="edge27" class="edge">
<title>cytP450&#45;&#45;Chciejlista#DIY</title>
<path fill="none" stroke="#c60077" d="M114.82,-611.67C114.82,-583.41 114.82,-493 114.82,-493 114.82,-493 419.48,-493 564.67,-493"/>
</g>
<!-- Chciejlista#Elektronika (w sensie urzdze konsumenckich) -->
<g id="node27" class="node">
<title>Chciejlista#Elektronika (w sensie urzdze konsumenckich)</title>
<ellipse fill="none" stroke="black" cx="639.91" cy="-614" rx="289.75" ry="18"/>
<text text-anchor="middle" x="639.91" y="-610.3" font-family="Times,serif" font-size="14.00">Chciejlista#Elektronika (w sensie urzdze konsumenckich)</text>
</g>
<!-- cytP450&#45;&#45;Chciejlista#Elektronika (w sensie urzdze konsumenckich) -->
<g id="edge28" class="edge">
<title>cytP450&#45;&#45;Chciejlista#Elektronika (w sensie urzdze konsumenckich)</title>
<path fill="none" stroke="#c60077" d="M117.53,-614C169.73,-614 259.38,-614 349.83,-614"/>
</g>
<!-- Zamek#Zamek -->
<g id="node28" class="node">
<title>Zamek#Zamek</title>
<ellipse fill="none" stroke="black" cx="639.91" cy="-571" rx="81.49" ry="18"/>
<text text-anchor="middle" x="639.91" y="-567.3" font-family="Times,serif" font-size="14.00">Zamek#Zamek</text>
</g>
<!-- cytP450&#45;&#45;Zamek#Zamek -->
<g id="edge30" class="edge">
<title>cytP450&#45;&#45;Zamek#Zamek</title>
<path fill="none" stroke="#c60077" d="M118.82,-615.67C118.82,-606.25 118.82,-584.71 118.82,-584.71 118.82,-584.71 454.6,-584.71 587.07,-584.71"/>
</g>
<!-- Stowarzyszenie#Komisja Rewizyjna -->
<g id="node29" class="node">
<title>Stowarzyszenie#Komisja Rewizyjna</title>
<ellipse fill="none" stroke="black" cx="639.91" cy="-442" rx="178.17" ry="18"/>
<text text-anchor="middle" x="639.91" y="-438.3" font-family="Times,serif" font-size="14.00">Stowarzyszenie#Komisja Rewizyjna</text>
</g>
<!-- cytP450&#45;&#45;Stowarzyszenie#Komisja Rewizyjna -->
<g id="edge31" class="edge">
<title>cytP450&#45;&#45;Stowarzyszenie#Komisja Rewizyjna</title>
<path fill="none" stroke="#c60077" d="M107.98,-608C145.61,-608 198.82,-608 198.82,-608 198.82,-608 198.82,-454 198.82,-454 198.82,-454 377.1,-454 506.97,-454"/>
</g>
<!-- pmysl -->
<g id="node30" class="node">
<title>pmysl</title>
<ellipse fill="none" stroke="black" cx="71.49" cy="-1001" rx="38.19" ry="18"/>
<text text-anchor="middle" x="71.49" y="-997.3" font-family="Times,serif" font-size="14.00">pmysl</text>
</g>
<!-- pmysl&#45;&#45;Infrastruktura::Github#Github -->
<g id="edge32" class="edge">
<title>pmysl&#45;&#45;Infrastruktura::Github#Github</title>
<path fill="none" stroke="#b6e400" d="M106.18,-993.29C178.1,-993.29 336.82,-993.29 336.82,-993.29 336.82,-993.29 336.82,-928.33 336.82,-928.33 336.82,-928.33 448.29,-928.33 536.03,-928.33"/>
</g>
<!-- pmysl&#45;&#45;Kanay&#45;komunikacji# -->
<g id="edge33" class="edge">
<title>pmysl&#45;&#45;Kanay&#45;komunikacji#</title>
<path fill="none" stroke="#b6e400" d="M98.36,-988.14C153.4,-988.14 273.82,-988.14 273.82,-988.14 273.82,-988.14 273.82,-877.25 273.82,-877.25 273.82,-877.25 427.75,-877.25 535.98,-877.25"/>
</g>
<!-- pmysl&#45;&#45;Bazy&#45;danych#Grafana -->
<g id="edge34" class="edge">
<title>pmysl&#45;&#45;Bazy&#45;danych#Grafana</title>
<path fill="none" stroke="#b6e400" d="M106.3,-1008.71C215.61,-1008.71 544.82,-1008.71 544.82,-1008.71 544.82,-1008.71 544.82,-1023.55 544.82,-1033.98"/>
</g>
<!-- pmysl&#45;&#45;Infrastruktura::IRC#IRC -->
<g id="edge36" class="edge">
<title>pmysl&#45;&#45;Infrastruktura::IRC#IRC</title>
<path fill="none" stroke="#b6e400" d="M98.37,-1013.86C195.54,-1013.86 522.82,-1013.86 522.82,-1013.86 522.82,-1013.86 522.82,-1063.08 522.82,-1080.76"/>
</g>
<!-- pmysl&#45;&#45;Bazy&#45;danych# -->
<g id="edge35" class="edge">
<title>pmysl&#45;&#45;Bazy&#45;danych#</title>
<path fill="none" stroke="#b6e400" d="M109.67,-1003.57C202.14,-1003.57 439.58,-1003.57 562.93,-1003.57"/>
</g>
<!-- kpc -->
<g id="node31" class="node">
<title>kpc</title>
<ellipse fill="none" stroke="black" cx="71.49" cy="-405" rx="27" ry="18"/>
<text text-anchor="middle" x="71.49" y="-401.3" font-family="Times,serif" font-size="14.00">kpc</text>
</g>
<!-- kpc&#45;&#45;Infrastruktura::Telegram#posty: t.me/hakierspejs_spam -->
<g id="edge39" class="edge">
<title>kpc&#45;&#45;Infrastruktura::Telegram#posty: t.me/hakierspejs_spam</title>
<path fill="none" stroke="#00ffff" d="M95.95,-412.71C139.47,-412.71 225.82,-412.71 225.82,-412.71 225.82,-412.71 225.82,-817.2 225.82,-817.2 225.82,-817.2 324.35,-817.2 425.28,-817.2"/>
</g>
<!-- kpc&#45;&#45;Marketing&#45;i&#45;media&#45;spoecznociowe# -->
<g id="edge40" class="edge">
<title>kpc&#45;&#45;Marketing&#45;i&#45;media&#45;spoecznociowe#</title>
<path fill="none" stroke="#00ffff" d="M98.17,-408.43C145.63,-408.43 239.82,-408.43 239.82,-408.43 239.82,-408.43 239.82,-695.33 239.82,-695.33 239.82,-695.33 355.66,-695.33 462.68,-695.33"/>
</g>
<!-- kpc&#45;&#45;Stowarzyszenie#Komisja Rewizyjna -->
<g id="edge42" class="edge">
<title>kpc&#45;&#45;Stowarzyszenie#Komisja Rewizyjna</title>
<path fill="none" stroke="#00ffff" d="M98.5,-404.14C167.13,-404.14 342.82,-404.14 342.82,-404.14 342.82,-404.14 342.82,-436 342.82,-436 342.82,-436 404.61,-436 471.83,-436"/>
</g>
<!-- Miejsce::Miejsce#Klucze do spejsu -->
<g id="node32" class="node">
<title>Miejsce::Miejsce#Klucze do spejsu</title>
<ellipse fill="none" stroke="black" cx="639.91" cy="-147" rx="172.77" ry="18"/>
<text text-anchor="middle" x="639.91" y="-143.3" font-family="Times,serif" font-size="14.00">Miejsce::Miejsce#Klucze do spejsu</text>
</g>
<!-- kpc&#45;&#45;Miejsce::Miejsce#Klucze do spejsu -->
<g id="edge37" class="edge">
<title>kpc&#45;&#45;Miejsce::Miejsce#Klucze do spejsu</title>
<path fill="none" stroke="#00ffff" d="M89.18,-391.29C143.12,-391.29 301.82,-391.29 301.82,-391.29 301.82,-391.29 301.82,-156 301.82,-156 301.82,-156 399.71,-156 490.14,-156"/>
</g>
<!-- Infrastruktura::Telegram#Posty wyklte (celowo bez linka) -->
<g id="node33" class="node">
<title>Infrastruktura::Telegram#Posty wyklte (celowo bez linka)</title>
<ellipse fill="none" stroke="black" cx="639.91" cy="-399" rx="284.05" ry="18"/>
<text text-anchor="middle" x="639.91" y="-395.3" font-family="Times,serif" font-size="14.00">Infrastruktura::Telegram#Posty wyklte (celowo bez linka)</text>
</g>
<!-- kpc&#45;&#45;Infrastruktura::Telegram#Posty wyklte (celowo bez linka) -->
<g id="edge38" class="edge">
<title>kpc&#45;&#45;Infrastruktura::Telegram#Posty wyklte (celowo bez linka)</title>
<path fill="none" stroke="#00ffff" d="M97.39,-399.86C144.79,-399.86 250.36,-399.86 355.89,-399.86"/>
</g>
<!-- Czaty&#45;HS#HS: posty wyklte -->
<g id="node34" class="node">
<title>Czaty&#45;HS#HS: posty wyklte</title>
<ellipse fill="none" stroke="black" cx="639.91" cy="-356" rx="157.87" ry="18"/>
<text text-anchor="middle" x="639.91" y="-352.3" font-family="Times,serif" font-size="14.00">Czaty&#45;HS#HS: posty wyklte</text>
</g>
<!-- kpc&#45;&#45;Czaty&#45;HS#HS: posty wyklte -->
<g id="edge41" class="edge">
<title>kpc&#45;&#45;Czaty&#45;HS#HS: posty wyklte</title>
<path fill="none" stroke="#00ffff" d="M94.87,-395.57C158.46,-395.57 329.82,-395.57 329.82,-395.57 329.82,-395.57 329.82,-366.5 329.82,-366.5 329.82,-366.5 426.24,-366.5 511.55,-366.5"/>
</g>
<!-- hakierspejs -->
<g id="node35" class="node">
<title>hakierspejs</title>
<ellipse fill="none" stroke="black" cx="71.49" cy="-1388" rx="63.89" ry="18"/>
<text text-anchor="middle" x="71.49" y="-1384.3" font-family="Times,serif" font-size="14.00">hakierspejs</text>
</g>
<!-- Finanse#Pacenie skadek -->
<g id="node36" class="node">
<title>Finanse#Pacenie skadek</title>
<ellipse fill="none" stroke="black" cx="639.91" cy="-1388" rx="131.88" ry="18"/>
<text text-anchor="middle" x="639.91" y="-1384.3" font-family="Times,serif" font-size="14.00">Finanse#Pacenie skadek</text>
</g>
<!-- hakierspejs&#45;&#45;Finanse#Pacenie skadek -->
<g id="edge43" class="edge">
<title>hakierspejs&#45;&#45;Finanse#Pacenie skadek</title>
<path fill="none" stroke="#ab00d5" d="M135.32,-1388C225.15,-1388 390.97,-1388 507.96,-1388"/>
</g>
<!-- BluRaf -->
<g id="node37" class="node">
<title>BluRaf</title>
<ellipse fill="none" stroke="black" cx="71.49" cy="-1087" rx="42.49" ry="18"/>
<text text-anchor="middle" x="71.49" y="-1083.3" font-family="Times,serif" font-size="14.00">BluRaf</text>
</g>
<!-- BluRaf&#45;&#45;Infrastruktura::IRC#IRC -->
<g id="edge44" class="edge">
<title>BluRaf&#45;&#45;Infrastruktura::IRC#IRC</title>
<path fill="none" stroke="#f29100" d="M111.46,-1093C195.61,-1093 393.84,-1093 522.15,-1093"/>
</g>
<!-- kujaw -->
<g id="node38" class="node">
<title>kujaw</title>
<ellipse fill="none" stroke="black" cx="71.49" cy="-577" rx="38.19" ry="18"/>
<text text-anchor="middle" x="71.49" y="-573.3" font-family="Times,serif" font-size="14.00">kujaw</text>
</g>
<!-- kujaw&#45;&#45;Stowarzyszenie#Zarzd -->
<g id="edge46" class="edge">
<title>kujaw&#45;&#45;Stowarzyszenie#Zarzd</title>
<path fill="none" stroke="#00c64f" d="M104.24,-567.57C128.3,-567.57 156.82,-567.57 156.82,-567.57 156.82,-567.57 156.82,-313 156.82,-313 156.82,-313 373,-313 516.13,-313"/>
</g>
<!-- kujaw&#45;&#45;Marketing&#45;i&#45;media&#45;spoecznociowe# -->
<g id="edge47" class="edge">
<title>kujaw&#45;&#45;Marketing&#45;i&#45;media&#45;spoecznociowe#</title>
<path fill="none" stroke="#00c64f" d="M108.51,-571.86C179.94,-571.86 329.82,-571.86 329.82,-571.86 329.82,-571.86 329.82,-685.33 329.82,-685.33 329.82,-685.33 443.87,-685.33 533.63,-685.33"/>
</g>
<!-- kujaw&#45;&#45;Marketing&#45;i&#45;media&#45;spoecznociowe#Logo nr. 2 -->
<g id="edge49" class="edge">
<title>kujaw&#45;&#45;Marketing&#45;i&#45;media&#45;spoecznociowe#Logo nr. 2</title>
<path fill="none" stroke="#00c64f" d="M109.15,-580.43C164.11,-580.43 259.82,-580.43 259.82,-580.43 259.82,-580.43 259.82,-652.5 259.82,-652.5 259.82,-652.5 334.54,-652.5 417.71,-652.5"/>
</g>
<!-- kujaw&#45;&#45;Miejsce::Miejsce#Klucze do spejsu -->
<g id="edge45" class="edge">
<title>kujaw&#45;&#45;Miejsce::Miejsce#Klucze do spejsu</title>
<path fill="none" stroke="#00c64f" d="M96.59,-563.29C119.84,-563.29 150.82,-563.29 150.82,-563.29 150.82,-563.29 150.82,-147 150.82,-147 150.82,-147 326.09,-147 466.79,-147"/>
</g>
<!-- Marketing&#45;i&#45;media&#45;spoecznociowe#Naklejki -->
<g id="node39" class="node">
<title>Marketing&#45;i&#45;media&#45;spoecznociowe#Naklejki</title>
<ellipse fill="none" stroke="black" cx="639.91" cy="-743" rx="221.76" ry="18"/>
<text text-anchor="middle" x="639.91" y="-739.3" font-family="Times,serif" font-size="14.00">Marketing&#45;i&#45;media&#45;spoecznociowe#Naklejki</text>
</g>
<!-- kujaw&#45;&#45;Marketing&#45;i&#45;media&#45;spoecznociowe#Naklejki -->
<g id="edge48" class="edge">
<title>kujaw&#45;&#45;Marketing&#45;i&#45;media&#45;spoecznociowe#Naklejki</title>
<path fill="none" stroke="#00c64f" d="M109.94,-576.14C178.75,-576.14 315.82,-576.14 315.82,-576.14 315.82,-576.14 315.82,-735 315.82,-735 315.82,-735 374.04,-735 441.12,-735"/>
</g>
<!-- Polimerek -->
<g id="node40" class="node">
<title>Polimerek</title>
<ellipse fill="none" stroke="black" cx="71.49" cy="-362" rx="57.39" ry="18"/>
<text text-anchor="middle" x="71.49" y="-358.3" font-family="Times,serif" font-size="14.00">Polimerek</text>
</g>
<!-- Polimerek&#45;&#45;Stowarzyszenie#Zarzd -->
<g id="edge50" class="edge">
<title>Polimerek&#45;&#45;Stowarzyszenie#Zarzd</title>
<path fill="none" stroke="#2e00e4" d="M118.03,-351.5C188.92,-351.5 315.82,-351.5 315.82,-351.5 315.82,-351.5 315.82,-325 315.82,-325 315.82,-325 451.68,-325 547.47,-325"/>
</g>
<!-- Polimerek&#45;&#45;Marketing&#45;i&#45;media&#45;spoecznociowe# -->
<g id="edge51" class="edge">
<title>Polimerek&#45;&#45;Marketing&#45;i&#45;media&#45;spoecznociowe#</title>
<path fill="none" stroke="#2e00e4" d="M127.93,-359C179.19,-359 246.82,-359 246.82,-359 246.82,-359 246.82,-692 246.82,-692 246.82,-692 367.77,-692 475.48,-692"/>
</g>
<!-- Paliguma -->
<g id="node41" class="node">
<title>Paliguma</title>
<ellipse fill="none" stroke="black" cx="71.49" cy="-319" rx="53.89" ry="18"/>
<text text-anchor="middle" x="71.49" y="-315.3" font-family="Times,serif" font-size="14.00">Paliguma</text>
</g>
<!-- Paliguma&#45;&#45;Stowarzyszenie#Zarzd -->
<g id="edge52" class="edge">
<title>Paliguma&#45;&#45;Stowarzyszenie#Zarzd</title>
<path fill="none" stroke="#ff0000" d="M111.92,-307C196.57,-307 395.21,-307 523.26,-307"/>
</g>
<!-- kotlovecrafta -->
<g id="node42" class="node">
<title>kotlovecrafta</title>
<ellipse fill="none" stroke="black" cx="71.49" cy="-233" rx="71.49" ry="18"/>
<text text-anchor="middle" x="71.49" y="-229.3" font-family="Times,serif" font-size="14.00">kotlovecrafta</text>
</g>
<!-- kotlovecrafta&#45;&#45;Stowarzyszenie#Zarzd -->
<g id="edge53" class="edge">
<title>kotlovecrafta&#45;&#45;Stowarzyszenie#Zarzd</title>
<path fill="none" stroke="#2bd500" d="M133.51,-242C281.06,-242 640.82,-242 640.82,-242 640.82,-242 640.82,-273.68 640.82,-294.72"/>
</g>
<!-- kotlovecrafta&#45;&#45;Marketing&#45;i&#45;media&#45;spoecznociowe# -->
<g id="edge55" class="edge">
<title>kotlovecrafta&#45;&#45;Marketing&#45;i&#45;media&#45;spoecznociowe#</title>
<path fill="none" stroke="#2bd500" d="M133.64,-224C186.14,-224 252.82,-224 252.82,-224 252.82,-224 252.82,-688.67 252.82,-688.67 252.82,-688.67 387.05,-688.67 497.42,-688.67"/>
</g>
<!-- kotlovecrafta&#45;&#45;Miejsce::Miejsce#Klucze do spejsu -->
<g id="edge54" class="edge">
<title>kotlovecrafta&#45;&#45;Miejsce::Miejsce#Klucze do spejsu</title>
<path fill="none" stroke="#2bd500" d="M143.14,-233C259.04,-233 474.82,-233 474.82,-233 474.82,-233 474.82,-171.78 474.82,-152.64"/>
</g>
<!-- rux -->
<g id="node43" class="node">
<title>rux</title>
<ellipse fill="none" stroke="black" cx="71.49" cy="-276" rx="27" ry="18"/>
<text text-anchor="middle" x="71.49" y="-272.3" font-family="Times,serif" font-size="14.00">rux</text>
</g>
<!-- rux&#45;&#45;Stowarzyszenie#Zarzd -->
<g id="edge56" class="edge">
<title>rux&#45;&#45;Stowarzyszenie#Zarzd</title>
<path fill="none" stroke="#0061f2" d="M98.77,-276C204.15,-276 578.82,-276 578.82,-276 578.82,-276 578.82,-287.07 578.82,-297.09"/>
</g>
<!-- Inoru -->
<g id="node44" class="node">
<title>Inoru</title>
<ellipse fill="none" stroke="black" cx="71.49" cy="-190" rx="36" ry="18"/>
<text text-anchor="middle" x="71.49" y="-186.3" font-family="Times,serif" font-size="14.00">Inoru</text>
</g>
<!-- Inoru&#45;&#45;Stowarzyszenie#Zarzd -->
<g id="edge57" class="edge">
<title>Inoru&#45;&#45;Stowarzyszenie#Zarzd</title>
<path fill="none" stroke="#c60077" d="M107.65,-190C241.58,-190 701.82,-190 701.82,-190 701.82,-190 701.82,-264.32 701.82,-297.42"/>
</g>
<!-- pzduniak -->
<g id="node45" class="node">
<title>pzduniak</title>
<ellipse fill="none" stroke="black" cx="71.49" cy="-448" rx="52.79" ry="18"/>
<text text-anchor="middle" x="71.49" y="-444.3" font-family="Times,serif" font-size="14.00">pzduniak</text>
</g>
<!-- pzduniak&#45;&#45;Stowarzyszenie#Komisja Rewizyjna -->
<g id="edge58" class="edge">
<title>pzduniak&#45;&#45;Stowarzyszenie#Komisja Rewizyjna</title>
<path fill="none" stroke="#b6e400" d="M121.44,-442C196.82,-442 343.39,-442 461.52,-442"/>
</g>
<!-- krcz -->
<g id="node46" class="node">
<title>krcz</title>
<ellipse fill="none" stroke="black" cx="71.49" cy="-534" rx="30.59" ry="18"/>
<text text-anchor="middle" x="71.49" y="-530.3" font-family="Times,serif" font-size="14.00">krcz</text>
</g>
<!-- krcz&#45;&#45;Stowarzyszenie#Komisja Rewizyjna -->
<g id="edge59" class="edge">
<title>krcz&#45;&#45;Stowarzyszenie#Komisja Rewizyjna</title>
<path fill="none" stroke="#00ffff" d="M99.1,-526C134.63,-526 191.82,-526 191.82,-526 191.82,-526 191.82,-448 191.82,-448 191.82,-448 344.64,-448 471.78,-448"/>
</g>
<!-- PiotrP -->
<g id="node47" class="node">
<title>PiotrP</title>
<ellipse fill="none" stroke="black" cx="71.49" cy="-491" rx="40.09" ry="18"/>
<text text-anchor="middle" x="71.49" y="-487.3" font-family="Times,serif" font-size="14.00">PiotrP</text>
</g>
<!-- PiotrP&#45;&#45;Stowarzyszenie#Komisja Rewizyjna -->
<g id="edge60" class="edge">
<title>PiotrP&#45;&#45;Stowarzyszenie#Komisja Rewizyjna</title>
<path fill="none" stroke="#ab00d5" d="M107.74,-483C212.76,-483 509.82,-483 509.82,-483 509.82,-483 509.82,-466.58 509.82,-454.52"/>
</g>
<!-- kszmigiel -->
<g id="node48" class="node">
<title>kszmigiel</title>
<ellipse fill="none" stroke="black" cx="71.49" cy="-867" rx="54.69" ry="18"/>
<text text-anchor="middle" x="71.49" y="-863.3" font-family="Times,serif" font-size="14.00">kszmigiel</text>
</g>
<!-- kszmigiel&#45;&#45;Infrastruktura::Telegram#G贸wny: t.me/hakierspejs -->
<g id="edge61" class="edge">
<title>kszmigiel&#45;&#45;Infrastruktura::Telegram#G贸wny: t.me/hakierspejs</title>
<path fill="none" stroke="#f29100" d="M125.94,-869.5C227.99,-869.5 437.82,-869.5 437.82,-869.5 437.82,-869.5 437.82,-923.52 437.82,-947.15"/>
</g>
<!-- kszmigiel&#45;&#45;Infrastruktura::Telegram#posty: t.me/hakierspejs_spam -->
<g id="edge62" class="edge">
<title>kszmigiel&#45;&#45;Infrastruktura::Telegram#posty: t.me/hakierspejs_spam</title>
<path fill="none" stroke="#f29100" d="M117.82,-857.47C117.82,-848.29 117.82,-835.8 117.82,-835.8 117.82,-835.8 246.82,-835.8 376.57,-835.8"/>
</g>
<!-- kszmigiel&#45;&#45;Marketing&#45;i&#45;media&#45;spoecznociowe# -->
<g id="edge64" class="edge">
<title>kszmigiel&#45;&#45;Marketing&#45;i&#45;media&#45;spoecznociowe#</title>
<path fill="none" stroke="#f29100" d="M113.82,-855.63C113.82,-820.46 113.82,-715.75 113.82,-715.75 113.82,-715.75 400.95,-715.75 550.96,-715.75"/>
</g>
<!-- kszmigiel&#45;&#45;Infrastruktura::Github#Github -->
<g id="edge65" class="edge">
<title>kszmigiel&#45;&#45;Infrastruktura::Github#Github</title>
<path fill="none" stroke="#f29100" d="M126,-865.62C243.23,-865.62 508.82,-865.62 508.82,-865.62 508.82,-865.62 508.82,-891.13 508.82,-905.48"/>
</g>
<!-- kszmigiel&#45;&#45;Marketing&#45;i&#45;media&#45;spoecznociowe#Naklejki -->
<g id="edge63" class="edge">
<title>kszmigiel&#45;&#45;Marketing&#45;i&#45;media&#45;spoecznociowe#Naklejki</title>
<path fill="none" stroke="#f29100" d="M115.82,-856.48C115.82,-828.26 115.82,-753 115.82,-753 115.82,-753 304.56,-753 455.5,-753"/>
</g>
<!-- SP7Q -->
<g id="node49" class="node">
<title>SP7Q</title>
<ellipse fill="none" stroke="black" cx="71.49" cy="-824" rx="36.29" ry="18"/>
<text text-anchor="middle" x="71.49" y="-820.3" font-family="Times,serif" font-size="14.00">SP7Q</text>
</g>
<!-- SP7Q&#45;&#45;Marketing&#45;i&#45;media&#45;spoecznociowe# -->
<g id="edge66" class="edge">
<title>SP7Q&#45;&#45;Marketing&#45;i&#45;media&#45;spoecznociowe#</title>
<path fill="none" stroke="#00c64f" d="M108,-823.4C109.77,-823.4 110.82,-823.4 110.82,-823.4 110.82,-823.4 110.82,-713.5 110.82,-713.5 110.82,-713.5 362.32,-713.5 518.52,-713.5"/>
</g>
<!-- SP7Q&#45;&#45;Infrastruktura::Github#Github -->
<g id="edge67" class="edge">
<title>SP7Q&#45;&#45;Infrastruktura::Github#Github</title>
<path fill="none" stroke="#00c64f" d="M106.18,-829.6C145.68,-829.6 204.82,-829.6 204.82,-829.6 204.82,-829.6 204.82,-908 204.82,-908 204.82,-908 370.82,-908 497.75,-908"/>
</g>
<!-- biniu -->
<g id="node50" class="node">
<title>biniu</title>
<ellipse fill="none" stroke="black" cx="71.49" cy="-727" rx="34.39" ry="18"/>
<text text-anchor="middle" x="71.49" y="-723.3" font-family="Times,serif" font-size="14.00">biniu</text>
</g>
<!-- biniu&#45;&#45;Marketing&#45;i&#45;media&#45;spoecznociowe# -->
<g id="edge68" class="edge">
<title>biniu&#45;&#45;Marketing&#45;i&#45;media&#45;spoecznociowe#</title>
<path fill="none" stroke="#2e00e4" d="M88.2,-711.25C147.79,-711.25 354.03,-711.25 496.73,-711.25"/>
</g>
<!-- Keij0 -->
<g id="node51" class="node">
<title>Keij0</title>
<ellipse fill="none" stroke="black" cx="71.49" cy="-684" rx="34.39" ry="18"/>
<text text-anchor="middle" x="71.49" y="-680.3" font-family="Times,serif" font-size="14.00">Keij0</text>
</g>
<!-- Keij0&#45;&#45;Marketing&#45;i&#45;media&#45;spoecznociowe# -->
<g id="edge69" class="edge">
<title>Keij0&#45;&#45;Marketing&#45;i&#45;media&#45;spoecznociowe#</title>
<path fill="none" stroke="#ff0000" d="M91.72,-698.67C149.72,-698.67 321.11,-698.67 456.98,-698.67"/>
</g>
<!-- kasesag -->
<g id="node52" class="node">
<title>kasesag</title>
<ellipse fill="none" stroke="black" cx="71.49" cy="-1431" rx="48.19" ry="18"/>
<text text-anchor="middle" x="71.49" y="-1427.3" font-family="Times,serif" font-size="14.00">kasesag</text>
</g>
<!-- Marketing&#45;i&#45;media&#45;spoecznociowe#Przycisk HS&#45;LDZ -->
<g id="node53" class="node">
<title>Marketing&#45;i&#45;media&#45;spoecznociowe#Przycisk HS&#45;LDZ</title>
<ellipse fill="none" stroke="black" cx="639.91" cy="-1431" rx="261.85" ry="18"/>
<text text-anchor="middle" x="639.91" y="-1427.3" font-family="Times,serif" font-size="14.00">Marketing&#45;i&#45;media&#45;spoecznociowe#Przycisk HS&#45;LDZ</text>
</g>
<!-- kasesag&#45;&#45;Marketing&#45;i&#45;media&#45;spoecznociowe#Przycisk HS&#45;LDZ -->
<g id="edge70" class="edge">
<title>kasesag&#45;&#45;Marketing&#45;i&#45;media&#45;spoecznociowe#Przycisk HS&#45;LDZ</title>
<path fill="none" stroke="#2bd500" d="M119.96,-1431C177.95,-1431 279.55,-1431 377.64,-1431"/>
</g>
<!-- hslbridgebot -->
<g id="node54" class="node">
<title>hslbridgebot</title>
<ellipse fill="none" stroke="black" cx="71.49" cy="-1517" rx="69.59" ry="18"/>
<text text-anchor="middle" x="71.49" y="-1513.3" font-family="Times,serif" font-size="14.00">hslbridgebot</text>
</g>
<!-- Mostkowanie&#45;kana贸w#mautrix&#45;telegram (aktualnie u偶ywany) -->
<g id="node55" class="node">
<title>Mostkowanie&#45;kana贸w#mautrix&#45;telegram (aktualnie u偶ywany)</title>
<ellipse fill="none" stroke="black" cx="639.91" cy="-1495" rx="297.85" ry="18"/>
<text text-anchor="middle" x="639.91" y="-1491.3" font-family="Times,serif" font-size="14.00">Mostkowanie&#45;kana贸w#mautrix&#45;telegram (aktualnie u偶ywany)</text>
</g>
<!-- hslbridgebot&#45;&#45;Mostkowanie&#45;kana贸w#mautrix&#45;telegram (aktualnie u偶ywany) -->
<g id="edge71" class="edge">
<title>hslbridgebot&#45;&#45;Mostkowanie&#45;kana贸w#mautrix&#45;telegram (aktualnie u偶ywany)</title>
<path fill="none" stroke="#0061f2" d="M126.77,-1506C191.22,-1506 301.96,-1506 404.11,-1506"/>
</g>
<!-- telegrambot -->
<g id="node56" class="node">
<title>telegrambot</title>
<ellipse fill="none" stroke="black" cx="71.49" cy="-1474" rx="67.69" ry="18"/>
<text text-anchor="middle" x="71.49" y="-1470.3" font-family="Times,serif" font-size="14.00">telegrambot</text>
</g>
<!-- telegrambot&#45;&#45;Mostkowanie&#45;kana贸w#mautrix&#45;telegram (aktualnie u偶ywany) -->
<g id="edge72" class="edge">
<title>telegrambot&#45;&#45;Mostkowanie&#45;kana贸w#mautrix&#45;telegram (aktualnie u偶ywany)</title>
<path fill="none" stroke="#c60077" d="M126.51,-1484.5C189.62,-1484.5 297.36,-1484.5 397.9,-1484.5"/>
</g>
<!-- Piotrek_P -->
<g id="node57" class="node">
<title>Piotrek_P</title>
<ellipse fill="none" stroke="black" cx="71.49" cy="-147" rx="55.49" ry="18"/>
<text text-anchor="middle" x="71.49" y="-143.3" font-family="Times,serif" font-size="14.00">Piotrek_P</text>
</g>
<!-- Piotrek_P&#45;&#45;Miejsce::Miejsce#Klucze do spejsu -->
<g id="edge73" class="edge">
<title>Piotrek_P&#45;&#45;Miejsce::Miejsce#Klucze do spejsu</title>
<path fill="none" stroke="#b6e400" d="M119.47,-138C200.36,-138 367.12,-138 490.17,-138"/>
</g>
<!-- polimerek -->
<g id="node58" class="node">
<title>polimerek</title>
<ellipse fill="none" stroke="black" cx="71.49" cy="-104" rx="57.39" ry="18"/>
<text text-anchor="middle" x="71.49" y="-100.3" font-family="Times,serif" font-size="14.00">polimerek</text>
</g>
<!-- polimerek&#45;&#45;Miejsce::Miejsce#Klucze do spejsu -->
<g id="edge74" class="edge">
<title>polimerek&#45;&#45;Miejsce::Miejsce#Klucze do spejsu</title>
<path fill="none" stroke="#00ffff" d="M128.72,-104C256.48,-104 553.82,-104 553.82,-104 553.82,-104 553.82,-118.76 553.82,-130.99"/>
</g>
<!-- sp7adg -->
<g id="node59" class="node">
<title>sp7adg</title>
<ellipse fill="none" stroke="black" cx="71.49" cy="-61" rx="44.39" ry="18"/>
<text text-anchor="middle" x="71.49" y="-57.3" font-family="Times,serif" font-size="14.00">sp7adg</text>
</g>
<!-- sp7adg&#45;&#45;Miejsce::Miejsce#Klucze do spejsu -->
<g id="edge75" class="edge">
<title>sp7adg&#45;&#45;Miejsce::Miejsce#Klucze do spejsu</title>
<path fill="none" stroke="#ab00d5" d="M115.69,-61C249.46,-61 640.82,-61 640.82,-61 640.82,-61 640.82,-103.52 640.82,-128.76"/>
</g>
<!-- inouru -->
<g id="node60" class="node">
<title>inouru</title>
<ellipse fill="none" stroke="black" cx="71.49" cy="-18" rx="40.89" ry="18"/>
<text text-anchor="middle" x="71.49" y="-14.3" font-family="Times,serif" font-size="14.00">inouru</text>
</g>
<!-- inouru&#45;&#45;Miejsce::Miejsce#Klucze do spejsu -->
<g id="edge76" class="edge">
<title>inouru&#45;&#45;Miejsce::Miejsce#Klucze do spejsu</title>
<path fill="none" stroke="#f29100" d="M112.49,-18C255.96,-18 726.82,-18 726.82,-18 726.82,-18 726.82,-97.13 726.82,-131.44"/>
</g>
</g>
</svg>
